<svg width="481" height="454" viewBox="0 0 481 454" fill="none" xmlns="http://www.w3.org/2000/svg">
<path opacity="0.8" d="M437.163 0H43.4234C19.6031 0 0.292969 19.2976 0.292969 43.1024V410.898C0.292969 434.702 19.6031 454 43.4234 454H437.163C460.983 454 480.293 434.702 480.293 410.898V43.1024C480.293 19.2976 460.983 0 437.163 0Z" fill="url(#paint0_linear_86_62239)"/>
<mask id="mask0_86_62239" style="mask-type:luminance" maskUnits="userSpaceOnUse" x="17" y="100" width="445" height="339">
<path d="M17.293 100V399.081C17.293 421.038 35.2549 439 57.2118 439H421.652C443.609 439 461.571 421.038 461.571 399.081V100H17.293Z" fill="white"/>
</mask>
<g mask="url(#mask0_86_62239)">
<path d="M686.142 -357.595C913.809 -249.715 830.085 250.741 477.381 512.628C124.677 774.516 -465.185 800.421 -629.568 597.344C-793.95 394.266 -307.446 376.35 -130.351 189.097C46.7598 1.84436 245.843 -566.247 686.126 -357.595H686.142Z" fill="#D3EBED"/>
<path d="M147.733 98.5755L422.07 306.577C426.065 309.597 428.837 313.638 430.277 318.067C432.336 324.307 431.779 331.306 428.372 337.283C427.862 338.181 427.288 339.064 426.638 339.9L293.875 515.013C293.286 515.787 292.667 516.499 292.017 517.181C287.232 522.151 280.667 524.629 274.101 524.412C269.363 524.257 264.609 522.678 260.552 519.596L-13.7847 311.594C-17.9035 308.467 -20.7216 304.255 -22.1461 299.671C-23.6171 294.918 -23.5709 289.761 -21.9295 284.961C-21.1398 282.623 -19.9474 280.362 -18.368 278.272L114.395 103.159C116.021 101.006 117.957 99.1948 120.078 97.7703C124.29 94.9366 129.276 93.574 134.262 93.7598C138.969 93.9302 143.676 95.4941 147.733 98.56V98.5755Z" fill="#7C546D"/>
<path d="M408.196 340.922L289.88 496.974C282.803 506.311 269.502 508.138 260.18 501.062L4.16163 306.949C-5.17546 299.873 -7.00283 286.572 0.0735373 277.25L118.39 121.198C125.466 111.861 138.767 110.034 148.089 117.11L404.108 311.223C413.445 318.299 415.272 331.6 408.196 340.922Z" fill="#643D58"/>
<path d="M428.697 364.659L420.32 375.7C418.168 378.549 414.282 379.462 411.076 377.868L401.6 373.145L421.172 347.332L428.279 355.183C430.679 357.831 430.85 361.81 428.697 364.659Z" fill="#42312F"/>
<path d="M315.878 -123.208L590.215 84.7943C594.21 87.8138 596.982 91.8553 598.422 96.2838C600.481 102.524 599.924 109.523 596.517 115.5C596.006 116.398 595.433 117.281 594.783 118.117L462.02 293.23C461.431 294.004 460.812 294.716 460.161 295.398C455.377 300.368 448.811 302.846 442.246 302.629C437.508 302.474 432.754 300.895 428.697 297.813L154.36 89.8113C150.241 86.6834 147.423 82.4717 145.998 77.8883C144.527 73.1346 144.574 67.9783 146.215 63.1781C147.005 60.84 148.197 58.5792 149.777 56.4888L282.54 -118.624C284.166 -120.777 286.101 -122.588 288.223 -124.013C292.434 -126.846 297.42 -128.209 302.406 -128.023C307.113 -127.853 311.821 -126.289 315.878 -123.223V-123.208Z" fill="#7C546D"/>
<path d="M576.356 119.139L458.04 275.191C450.963 284.528 437.662 286.355 428.341 279.278L172.322 85.1659C162.984 78.0896 161.157 64.7885 168.234 55.4669L286.55 -100.585C293.626 -109.922 306.928 -111.749 316.249 -104.673L572.268 89.4397C581.605 96.516 583.433 109.817 576.356 119.139Z" fill="#643D58"/>
<path d="M190.077 114.172L180.806 126.4C179.395 128.261 179.76 130.912 181.62 132.323L209.111 153.167C210.971 154.577 213.623 154.212 215.033 152.352L224.305 140.124C225.715 138.264 225.351 135.612 223.49 134.202L196 113.358C194.139 111.947 191.488 112.312 190.077 114.172Z" fill="#42312F"/>
<path d="M367.357 248.596L358.085 260.824C356.675 262.684 357.039 265.336 358.9 266.746L386.39 287.59C388.251 289 390.902 288.636 392.313 286.775L401.584 274.548C402.995 272.687 402.63 270.036 400.77 268.625L373.279 247.781C371.419 246.371 368.767 246.735 367.357 248.596Z" fill="#42312F"/>
<path d="M231.102 376.66C231.226 380.546 221.548 392.02 215.091 398.106C212.645 400.397 210.662 401.915 209.842 401.977C206.822 402.163 185.857 387.236 179.183 380.856C173.609 375.529 134.789 339.172 121.426 325.902C118.825 323.316 117.183 321.613 116.951 321.179C115.31 318.191 135.378 305.788 136.647 304.363C137.902 302.923 142.191 299.16 144.947 302.397C147.688 305.633 194.574 344.313 204.004 352.102C213.434 359.906 230.963 371.302 231.118 376.66H231.102Z" fill="#CC8639"/>
<path opacity="0.5" d="M210.074 383.876C210.105 387.406 212.242 390.503 213.759 393.693C214.394 395.04 214.905 396.573 215.107 398.09C212.66 400.382 210.678 401.899 209.857 401.961C206.838 402.147 185.872 387.22 179.198 380.841C173.624 375.514 134.804 339.157 121.441 325.886C122.154 319.6 134.959 324.833 139.574 323.424C142.036 322.681 144.018 320.42 146.588 320.42C148.694 320.42 150.444 321.969 151.992 323.424C166.749 337.19 182.527 349.872 199.158 361.299C204.871 365.232 211.375 370.28 211.034 377.202C210.926 379.447 210.074 381.63 210.09 383.891L210.074 383.876Z" fill="#EFB453"/>
<path d="M317.427 444.11C317.814 450.149 293.767 474.026 289.725 480.715C285.684 487.404 280.899 496.648 273.265 494.45C265.616 492.251 203.291 439.557 203.291 439.557C201.572 438.489 201.123 436.461 201.418 434.045C202.114 428.362 206.868 420.496 208.695 417.755C210.135 415.588 214.502 405.709 219.534 397.223C223.638 390.286 228.19 384.263 231.953 384.108C235.762 383.953 245.843 391.029 256.527 399.267C269.363 409.162 283.051 420.744 287.712 423.469C291.862 425.9 298.892 429.4 305.07 433.054C311.636 436.941 317.241 440.997 317.443 444.11H317.427Z" fill="#A44746"/>
<path d="M237.388 452.208C237.775 453.679 238.07 455.444 237.048 456.575C235.437 458.355 232.542 456.838 230.73 455.259C221.579 447.315 212.567 438.566 201.434 434.045C202.13 428.362 206.884 420.496 208.711 417.755C210.151 415.588 214.518 405.709 219.55 397.223C221.176 408.589 224.815 418.204 229.523 429.121C232.743 436.6 235.375 444.327 237.419 452.208H237.388Z" fill="#BC5D59"/>
<path d="M305.071 433.054C305.071 433.828 305.071 434.602 305.025 435.377C304.901 437.715 304.56 440.084 303.615 442.236C300.565 449.158 291.754 452.967 290.655 460.446C290.345 462.536 290.701 464.72 290.175 466.764C289.633 468.823 287.62 470.774 285.607 470.139C284.601 469.829 283.888 468.962 283.269 468.111C279.212 462.443 277.4 455.522 275.387 448.833C271.532 436.058 266.639 423.655 261.405 411.376C259.748 407.489 258.262 403.262 256.527 399.267C269.364 409.162 283.052 420.744 287.713 423.469C291.863 425.9 298.892 429.4 305.071 433.054Z" fill="#BC5D59"/>
<path d="M337.618 412.971C331.718 418.715 324.022 438.148 319.145 437.374C314.267 436.6 282.478 414.318 271.886 405.337C261.311 396.356 239.385 383.272 238.053 379.06C237.093 376.071 239.044 372.03 242.032 367.973C246.771 361.532 254.095 354.997 256.557 352.334C259.917 348.664 264.702 337.5 269.301 333.892C270.199 333.211 271.066 332.792 271.933 332.762C277.275 332.591 339.646 382.977 346.072 388.645C352.514 394.312 343.502 407.226 337.618 412.955V412.971Z" fill="#B0C3DF"/>
<path opacity="0.5" d="M337.618 412.971C331.718 418.715 324.022 438.148 319.145 437.374C314.267 436.6 282.478 414.318 271.886 405.337C261.311 396.356 239.385 383.272 238.053 379.06C237.093 376.071 239.044 372.03 242.032 367.973C244.448 370.218 245.594 375.468 249.605 378.533C266.575 391.587 283.531 404.64 300.502 417.678C307.346 422.958 316.482 428.44 323.992 424.15C324.41 420.821 324.843 417.477 325.261 414.148C302.035 400.955 281.208 383.566 264.082 363.08C273.048 361.919 279.52 370.884 285.404 377.744C296.321 390.503 312.115 398.973 328.792 401.001C332.322 401.435 337.045 400.754 337.68 397.239C338.02 395.411 336.968 393.631 335.915 392.082C319.269 367.524 293.658 350.971 269.316 333.861C270.214 333.18 271.081 332.762 271.948 332.731C277.291 332.56 339.662 382.946 346.088 388.614C352.529 394.281 343.517 407.195 337.633 412.924L337.618 412.971Z" fill="#6E7699"/>
<path d="M58.4042 229.697C57.5525 223.689 110.385 146.654 117.988 137.999C125.591 129.358 125.947 120.47 131.955 119.619C137.963 118.767 159.641 136.946 159.641 136.946C159.641 136.946 151.357 145.865 155.228 155.403C159.099 164.942 162.955 170.516 176.209 169.897C189.464 169.277 192.561 163.254 192.561 163.254C192.561 163.254 207.674 180.921 209.222 186.651C210.755 192.38 202.269 212.494 199.405 215.25C196.54 218.007 146.355 278.086 143.769 281.524C141.199 284.946 131.754 283.227 126.412 279.836C121.069 276.445 58.3887 229.682 58.3887 229.682L58.4042 229.697Z" fill="#EFB453"/>
<path d="M122.603 155.728C123.749 155.883 124.694 156.735 124.957 157.865C126.924 166.258 135.161 199.983 141.03 202.46C146.573 204.798 176.706 197.134 187.065 194.393C188.83 193.928 190.564 195.26 190.58 197.087V199.224C190.595 200.494 189.759 201.609 188.536 201.934C178.967 204.52 139.358 214.879 134.526 209.862C129.974 205.139 122.092 170.81 119.507 159.088C119.089 157.184 120.683 155.45 122.619 155.713L122.603 155.728Z" fill="#CC8639"/>
<path d="M118.252 189.453C119.026 189.825 119.584 190.522 119.77 191.358C120.884 196.421 125.081 214.414 128.364 215.808C130.655 216.783 143.43 216.907 153.309 216.845C157.985 216.814 160.556 222.28 157.552 225.873C156.654 226.941 155.368 227.638 153.975 227.793C146.666 228.644 123.378 230.859 121.039 225.114C118.995 220.097 114.304 201.144 111.965 191.466C111.408 189.159 113.777 187.255 115.914 188.292L118.268 189.438L118.252 189.453Z" fill="#CC8639"/>
<path d="M187.73 175.982C185.392 176.927 182.806 177.747 180.112 178.305C173.035 179.76 162.816 179.915 154.299 172.421C147.827 166.738 145.225 157.912 146.758 146.902C147.888 138.773 150.846 132.362 150.97 132.099C151.326 131.325 152.255 130.984 153.029 131.356C153.804 131.712 154.144 132.641 153.788 133.415C153.68 133.663 142.578 157.989 156.343 170.098C163.9 176.741 173.097 176.586 179.477 175.27C187.234 173.675 193.366 169.959 195.24 167.822C195.813 167.187 196.789 167.109 197.439 167.682C198.089 168.255 198.151 169.231 197.578 169.881C195.906 171.786 192.283 174.155 187.715 175.997L187.73 175.982Z" fill="#CC8639"/>
<path d="M6.54688 289.235C6.65527 299.578 41.4794 320.544 41.4794 320.544C41.4794 320.544 47.5338 336.927 52.7521 340.256C57.9703 343.585 74.6315 354.084 82.9467 351.436C91.2618 348.788 119.025 315.806 123.655 306.856C128.285 297.891 156.745 269.694 153.107 260.867C149.468 252.041 113.807 218.471 99.1433 208.995C84.4796 199.518 71.7052 198.605 66.1463 202.042C60.5874 205.48 30.2068 245.94 25.6389 249.889C21.071 253.838 6.45398 278.473 6.56237 289.25L6.54688 289.235Z" fill="#CFC7A0"/>
<path d="M124.12 308.343C123.656 308.497 123.114 308.42 122.696 308.095C122.557 308.002 109.456 298.076 101.838 292.27C94.2198 286.448 75.2052 270.979 75.0039 270.824C74.3381 270.282 74.2295 269.291 74.7715 268.61C75.3134 267.944 76.3047 267.835 76.986 268.377C77.1718 268.532 96.1557 283.986 103.743 289.761C111.346 295.568 124.461 305.478 124.585 305.586C125.282 306.113 125.406 307.088 124.895 307.785C124.693 308.048 124.415 308.234 124.12 308.327V308.343Z" fill="#B8AE84"/>
<path d="M78.5185 346.109C76.9856 346.605 73.9505 346.171 65.5889 341.696C60.6494 339.048 56.0351 336.137 55.9886 336.106C55.2609 335.642 55.044 334.682 55.5085 333.938C55.9731 333.211 56.9333 332.994 57.6766 333.443C57.723 333.474 62.0275 336.199 66.7502 338.738C73.0059 342.114 75.7467 342.919 76.8926 343.09C75.9326 341.866 72.3248 338.63 58.8224 331.229C49.826 326.305 40.8913 321.984 40.7984 321.938C40.0241 321.566 39.6835 320.622 40.0706 319.847C40.4423 319.073 41.387 318.733 42.1612 319.12C42.2541 319.166 51.6529 323.703 60.9126 328.813C66.3786 331.817 70.7299 334.434 73.8732 336.586C79.6024 340.519 80.3766 342.284 80.3611 343.616C80.3611 344.607 79.8654 345.443 79.0448 345.877C78.8899 345.954 78.7353 346.032 78.534 346.094L78.5185 346.109Z" fill="#B8AE84"/>
<path d="M87.1899 333.412C86.7718 333.551 86.2921 333.505 85.8895 333.257C83.5978 331.848 72.0462 324.71 70.2191 321.752C69.77 321.024 68.5624 319.073 76.5523 307.042C79.1227 303.171 81.9719 299.362 84.3565 296.59C88.4289 291.852 90.0702 291.372 91.2315 291.558C95.0716 292.161 102.458 301.917 104.625 304.89C105.136 305.586 104.982 306.577 104.285 307.088C103.588 307.599 102.597 307.445 102.086 306.748C98.0911 301.282 92.749 295.258 90.8909 294.701C89.7296 295.181 85.9048 299.052 80.671 306.593C75.5457 313.963 73.1457 318.98 73.0218 320.297C74.4619 322.17 82.2658 327.373 87.5305 330.594C88.2738 331.043 88.5062 332.018 88.0571 332.746C87.8558 333.087 87.5461 333.319 87.1899 333.427V333.412Z" fill="#B8AE84"/>
<path d="M95.4578 273.178C95.8913 274.54 95.148 275.98 93.7853 276.414C92.4227 276.847 90.9829 276.104 90.5493 274.741C90.1158 273.379 90.8588 271.939 92.2214 271.505C93.584 271.072 95.0242 271.815 95.4578 273.178Z" fill="#F0ECD2"/>
<path d="M106.11 281.849C106.544 283.211 105.801 284.652 104.438 285.085C103.075 285.519 101.635 284.775 101.202 283.413C100.768 282.05 101.511 280.61 102.874 280.176C104.237 279.743 105.677 280.486 106.11 281.849Z" fill="#F0ECD2"/>
<path d="M119.521 292.564C119.954 293.927 119.211 295.367 117.848 295.8C116.486 296.234 115.045 295.491 114.612 294.128C114.178 292.765 114.922 291.325 116.284 290.892C117.647 290.458 119.087 291.201 119.521 292.564Z" fill="#F0ECD2"/>
<path d="M22.525 237.548C15.6809 248.604 16.9815 277.591 31.3975 286.308C45.829 295.026 71.7192 290.102 77.0304 285.921C82.357 281.725 75.9927 269.616 75.9927 269.616C75.9927 269.616 91.5545 268.826 91.9262 259.551C92.2978 250.276 84.2615 232.872 73.825 226.213C63.3885 219.555 34.0608 218.905 22.525 237.563V237.548Z" fill="#F0ECD2"/>
<path d="M25.9644 243.107C21.2571 257.089 27.002 277.714 41.2632 280.672C55.5088 283.614 76.0101 269.601 76.0101 269.601C76.0101 269.601 78.1005 244.81 67.9272 236.402C57.754 227.994 46.4349 223.767 37.3301 229.155C28.2252 234.544 25.9644 243.107 25.9644 243.107Z" fill="#B8AE84"/>
<path d="M31.0273 258.607C31.0273 258.607 30.9191 258.638 30.8572 258.653C30.1759 258.777 29.5256 258.313 29.4017 257.631C28.4727 252.212 29.2002 246.451 31.4454 241.435C31.8944 240.444 32.5294 239.158 33.5049 238.074C34.4185 237.052 35.5179 236.325 36.5708 235.612C36.865 235.427 37.1438 235.225 37.4225 235.024C37.7632 234.792 38.1037 234.544 38.4444 234.296C39.4044 233.584 40.4109 232.856 41.5568 232.299C44.6846 230.797 48.3079 231.014 51.219 231.168C51.9158 231.215 52.4423 231.803 52.3958 232.5C52.3494 233.197 51.7612 233.723 51.0644 233.677C48.3082 233.522 45.1645 233.336 42.6251 234.559C41.696 235.008 40.8289 235.643 39.9153 236.309C39.5592 236.572 39.2031 236.836 38.847 237.083C38.5528 237.285 38.2433 237.486 37.9491 237.687C36.9736 238.338 36.0598 238.957 35.3475 239.731C34.6042 240.552 34.0777 241.605 33.7216 242.441C31.6776 247.024 31.0118 252.258 31.848 257.198C31.9564 257.817 31.5847 258.421 30.9963 258.607H31.0273Z" fill="#CFC7A0"/>
<path d="M281.72 318.438C267.551 340.426 260.026 343.972 255.659 344.499C251.308 345.01 248.567 355.493 240.856 353.758C233.145 352.024 167.925 316.054 161.886 309.705C156.079 303.62 159.068 299.733 159.315 299.424C159.315 299.424 149.235 292.657 157.504 284.156C165.772 275.671 216.917 189.933 224.226 191.451C231.023 192.844 241.538 207.059 267.892 220.716C283.593 228.846 292.791 232.423 298.535 235.845C302.438 238.167 304.76 240.413 306.417 243.974C310.551 252.754 302.019 259.071 302.019 259.071C302.019 259.071 309.003 265.745 307.594 272.543C306.185 279.325 295.857 296.466 281.689 318.454L281.72 318.438Z" fill="#A29E56"/>
<path opacity="0.3" d="M281.718 318.438C267.55 340.426 260.025 343.972 255.658 344.499C251.307 345.01 248.566 355.493 240.855 353.758C233.144 352.024 167.923 316.054 161.884 309.705C156.078 303.62 159.066 299.733 159.314 299.424C159.314 299.424 224.736 336.246 230.774 336.849C236.813 337.453 232.014 333.381 238.842 320.993C245.655 308.59 286.782 261.642 296.351 250.245C301.554 244.051 300.547 239.081 298.534 235.845C302.436 238.167 304.759 240.413 306.416 243.974C310.55 252.754 302.018 259.071 302.018 259.071C302.018 259.071 309.002 265.745 307.593 272.543C306.184 279.325 295.856 296.466 281.687 318.454L281.718 318.438Z" fill="#868243"/>
<path d="M238.905 343.508C238.177 343.244 237.589 342.687 237.202 341.882C236.567 340.519 236.567 337.918 241.475 328.937C244.681 323.068 249.388 315.574 255.102 307.274C267.443 289.312 281.379 271.908 291.49 261.843C303.924 249.471 303.537 245.321 303.119 244.33C302.577 243.045 300.347 243.045 300.332 243.045C299.48 243.045 298.768 242.379 298.752 241.527C298.737 240.676 299.402 239.964 300.254 239.948C301.849 239.902 304.853 240.536 305.968 243.122C307.717 247.226 303.707 254.085 293.673 264.057C283.841 273.843 270.183 290.861 258.059 308.451C244.077 328.736 239.617 338.754 240.02 340.581C240.577 340.504 243.163 339.559 251.045 329.556C255.752 323.579 261.667 315.264 269.115 304.131C289.353 273.921 294.618 268.61 297.699 269.012C298.613 269.136 299.34 269.755 299.665 270.731C299.944 271.552 300.424 272.93 294.633 284.264C291.459 290.489 286.845 298.789 281.673 307.646C272.568 323.177 260.893 341.696 256.743 345.645C256.123 346.233 255.132 346.217 254.544 345.598C253.956 344.979 253.971 343.988 254.591 343.399C257.827 340.318 267.876 324.973 278.483 306.934C289.167 288.739 295.284 276.631 296.476 272.682C295.284 273.611 292.837 276.058 288.068 282.406C284.026 287.795 278.979 295.026 271.701 305.881C249.14 339.544 242.977 343.957 239.694 343.709C239.416 343.694 239.152 343.632 238.92 343.539L238.905 343.508Z" fill="#868243"/>
<path d="M229.785 202.12C231.937 202.894 224.319 214.399 223.111 212.928C221.903 211.457 220.385 206.037 220.711 205.124C221.036 204.195 228.546 201.686 229.785 202.135V202.12Z" fill="#756A3A"/>
<path d="M228.266 239.174C230.201 237.951 234.584 251.035 232.663 251.081C230.759 251.128 225.556 248.991 225.029 248.155C224.503 247.319 227.151 239.871 228.25 239.174H228.266Z" fill="#756A3A"/>
<path d="M240.406 227.468C240.236 229.744 227.12 225.455 228.22 223.891C229.319 222.342 234.135 219.431 235.11 219.509C236.086 219.586 240.499 226.151 240.391 227.468H240.406Z" fill="#756A3A"/>
<path d="M244.356 262.865C246.214 261.533 251.339 274.339 249.435 274.494C247.53 274.649 242.219 272.821 241.646 272.016C241.073 271.211 243.287 263.624 244.356 262.865Z" fill="#756A3A"/>
<path d="M259.715 219.694C260.629 217.604 271.607 225.95 270.059 227.05C268.51 228.149 262.998 229.326 262.1 228.939C261.202 228.552 259.189 220.887 259.715 219.694Z" fill="#756A3A"/>
<path d="M255.008 250.137C253.568 251.917 245.191 240.954 246.988 240.304C248.784 239.654 254.389 239.979 255.147 240.598C255.906 241.218 255.829 249.13 255.008 250.137Z" fill="#756A3A"/>
<path d="M267.134 272.961C264.858 272.79 269.1 259.675 270.664 260.759C272.228 261.858 275.139 266.659 275.078 267.634C275.016 268.61 268.45 273.038 267.149 272.945L267.134 272.961Z" fill="#756A3A"/>
<path d="M273.497 246.9C272.196 245.011 285.079 240.103 285.203 241.992C285.327 243.897 283.407 249.177 282.602 249.734C281.796 250.292 274.224 247.969 273.481 246.885L273.497 246.9Z" fill="#756A3A"/>
<path d="M207.303 238.415C205.026 238.663 206.807 224.99 208.541 225.78C210.276 226.569 214.023 230.766 214.131 231.741C214.24 232.717 208.603 238.276 207.303 238.415Z" fill="#756A3A"/>
<path d="M218.776 331.027C217.181 329.386 229.089 322.418 229.522 324.276C229.956 326.134 228.934 331.662 228.237 332.343C227.525 333.025 219.689 331.972 218.776 331.027Z" fill="#756A3A"/>
<path d="M222.818 302.567C220.541 302.815 222.384 289.142 224.118 289.932C225.853 290.737 229.584 294.949 229.677 295.924C229.77 296.9 224.118 302.428 222.818 302.567Z" fill="#756A3A"/>
<path d="M206.759 307.708C207.92 305.741 217.8 315.373 216.127 316.286C214.455 317.2 208.85 317.68 207.998 317.184C207.146 316.689 206.093 308.838 206.759 307.723V307.708Z" fill="#756A3A"/>
<path d="M218.82 274.2C216.559 274.571 217.613 260.821 219.378 261.518C221.143 262.215 225.123 266.21 225.277 267.17C225.432 268.13 220.105 273.983 218.82 274.2Z" fill="#756A3A"/>
<path d="M186.01 306.19C184.261 307.677 178.098 295.336 179.972 295.026C181.845 294.716 187.311 296.094 187.946 296.838C188.581 297.581 187.017 305.339 186.01 306.19Z" fill="#756A3A"/>
<path d="M203.647 280.935C205.722 279.975 208.416 293.493 206.511 293.307C204.622 293.106 199.729 290.334 199.311 289.452C198.893 288.569 202.454 281.493 203.647 280.951V280.935Z" fill="#756A3A"/>
<path d="M202.826 255.092C204.793 256.253 195.208 266.163 194.294 264.491C193.381 262.818 192.869 257.213 193.365 256.377C193.86 255.525 201.696 254.441 202.826 255.107V255.092Z" fill="#756A3A"/>
<path d="M185.622 275.686C185.962 277.947 172.228 276.693 172.956 274.927C173.683 273.162 177.725 269.26 178.7 269.121C179.676 268.981 185.436 274.401 185.622 275.686Z" fill="#756A3A"/>
<path d="M253.802 291.279C255.955 292.053 248.336 303.558 247.128 302.071C245.921 300.6 244.403 295.181 244.728 294.252C245.069 293.323 252.564 290.83 253.802 291.263V291.279Z" fill="#756A3A"/>
<path d="M378.59 363.947C374.734 366.982 362.408 379.385 358.676 380.577C358.305 380.701 357.329 380.345 355.889 379.617C343.115 373.114 293.208 336.601 293.208 336.601C289.554 331.584 292.945 309.937 295.237 300.972C296.011 297.937 297.807 295.165 299.867 292.827C300.997 291.542 302.189 290.38 303.335 289.389C306.277 286.819 310.566 286.509 313.818 288.677C330.201 299.609 381.253 334.077 385.558 342.191C390.698 351.885 385.186 358.775 378.605 363.962L378.59 363.947Z" fill="#EFB453"/>
<path d="M366.356 359.441C365.891 359.58 365.381 359.519 364.963 359.209L303.459 313.963C302.762 313.452 302.622 312.477 303.133 311.796C303.644 311.114 304.62 310.959 305.301 311.47L366.805 356.716C367.502 357.227 367.641 358.202 367.13 358.884C366.929 359.162 366.65 359.348 366.356 359.441Z" fill="#CC8639"/>
<path d="M304.697 324.183C304.697 324.183 308.305 315.311 311.077 316.751C313.849 318.191 311.959 325.995 310.163 326.816C308.367 327.636 305.595 326.212 304.697 324.183Z" fill="#FCE1CB"/>
<path opacity="0.5" d="M378.59 363.947C374.735 366.982 362.409 379.385 358.677 380.577C358.305 380.701 357.33 380.345 355.89 379.617C357.159 377.79 359.142 376.18 361 374.926C368.587 369.738 376.639 364.086 379.922 355.508C380.417 354.192 380.804 352.767 380.572 351.389C380.278 349.732 379.163 348.354 378.033 347.1C364.437 331.972 345.407 322.821 330.681 308.792C324.394 302.815 318.371 295.63 309.901 293.741C306.618 293.013 303.227 293.168 299.883 292.812C301.013 291.527 302.205 290.365 303.351 289.374C306.293 286.804 310.583 286.494 313.834 288.662C330.217 299.594 381.269 334.062 385.574 342.176C390.714 351.869 385.202 358.76 378.621 363.947H378.59Z" fill="#CC8639"/>
<path d="M202.673 415.773C200.258 418.297 197.393 420.744 195.597 422.695C191.586 427.062 189.867 433.782 186.616 433.271C183.364 432.76 135.053 392.578 129.54 387.391C124.028 382.203 91.9754 361.532 90.5973 359.658C89.1727 357.691 90.5353 354.161 93.1986 350.12C94.6851 347.859 96.5586 345.443 98.5716 343.043C102.241 338.661 106.345 334.387 109.225 331.321C110.494 329.974 111.517 328.875 112.182 328.085C116.673 322.805 147.208 353.216 166.3 369.506C185.393 385.811 204.47 402.116 206.73 406.792C207.985 409.378 205.662 412.646 202.658 415.773H202.673Z" fill="#6E7699"/>
<path opacity="0.5" d="M98.5879 343.043C102.258 338.661 106.361 334.387 109.241 331.321C118.795 347.1 131.058 361.841 147.921 370.559C153.79 374.461 160.061 378.084 164.381 383.659C160.479 384.263 156.809 381.924 153.558 379.679C139.947 370.311 126.32 360.959 112.709 351.591C108.188 348.478 103.558 345.319 98.5879 343.059V343.043Z" fill="#91A5C3"/>
<path opacity="0.5" d="M202.673 415.773C200.258 418.297 197.393 420.744 195.597 422.695C191.586 427.061 189.867 433.782 186.616 433.271C183.364 432.76 135.053 392.578 129.54 387.391C124.028 382.203 91.9754 361.532 90.5973 359.658C89.1727 357.691 90.5353 354.161 93.1986 350.12C94.2825 351.157 95.4592 352.117 96.6051 352.953L147.038 390.054C159.565 399.267 172.51 408.682 187.591 412.491C184.278 405.554 180.964 398.617 177.651 391.695C183.256 396.759 188.861 401.806 194.482 406.87C197.47 409.564 200.536 412.413 202.642 415.773H202.673Z" fill="#91A5C3"/>
<path d="M315.748 174.713L367.243 197.436C370.955 199.074 372.655 203.429 371.011 207.155L340.256 276.854C338.618 280.566 334.263 282.266 330.537 280.622L279.041 257.899L315.742 174.728L315.748 174.713Z" fill="#127667"/>
<path d="M322.906 193.572C322.38 194.749 321.187 195.09 319.778 194.47L318.571 193.944L317.889 195.492L316.898 195.059L319.268 189.686L321.482 190.661C322.891 191.281 323.448 192.395 322.922 193.588L322.906 193.572ZM321.915 193.123C322.21 192.442 321.931 191.853 321.064 191.466L319.902 190.955L318.958 193.092L320.119 193.603C321.002 193.99 321.621 193.804 321.915 193.123Z" fill="#F2DD96"/>
<path d="M326.142 197.645L323.463 196.468L322.38 197.474L321.357 197.025L326.142 192.721L327.118 193.154L327.18 199.596L326.142 199.131V197.645ZM326.158 196.716L326.189 193.928L324.145 195.833L326.158 196.731V196.716Z" fill="#F2DD96"/>
<path d="M327.66 199.131L328.341 198.512C328.62 199.054 329.193 199.596 329.859 199.89C330.695 200.261 331.175 200.122 331.361 199.72C331.872 198.558 328.341 197.908 329.224 195.91C329.611 195.043 330.618 194.61 332.089 195.26C332.739 195.539 333.328 196.019 333.668 196.53L333.018 197.165C332.662 196.669 332.197 196.298 331.717 196.096C330.881 195.725 330.416 195.91 330.23 196.313C329.719 197.459 333.235 198.125 332.367 200.091C331.98 200.943 330.958 201.376 329.487 200.726C328.651 200.354 327.923 199.735 327.66 199.147V199.131Z" fill="#F2DD96"/>
<path d="M332.492 201.253L333.173 200.633C333.452 201.175 334.025 201.717 334.691 202.011C335.527 202.383 336.007 202.244 336.193 201.841C336.704 200.68 333.174 200.029 334.056 198.047C334.443 197.18 335.449 196.747 336.921 197.397C337.571 197.676 338.159 198.156 338.5 198.667L337.85 199.302C337.494 198.806 337.029 198.434 336.549 198.233C335.713 197.861 335.248 198.047 335.062 198.45C334.551 199.596 338.066 200.262 337.199 202.228C336.828 203.095 335.79 203.513 334.319 202.863C333.483 202.491 332.755 201.872 332.492 201.284V201.253Z" fill="#F2DD96"/>
<path d="M343.547 202.677C343.02 203.854 341.828 204.195 340.419 203.575L339.211 203.033L338.53 204.582L337.539 204.133L339.908 198.76L342.122 199.735C343.531 200.354 344.089 201.469 343.562 202.662L343.547 202.677ZM342.54 202.228C342.835 201.547 342.556 200.958 341.689 200.571L340.527 200.06L339.583 202.197L340.744 202.708C341.611 203.095 342.246 202.909 342.54 202.228Z" fill="#F2DD96"/>
<path d="M343.887 203.761C344.584 202.166 346.334 201.547 348.006 202.274C349.679 203.002 350.391 204.721 349.679 206.316C348.966 207.911 347.232 208.53 345.56 207.802C343.887 207.075 343.191 205.356 343.887 203.761ZM348.672 205.867C349.152 204.767 348.703 203.622 347.619 203.142C346.535 202.662 345.374 203.095 344.894 204.195C344.414 205.294 344.863 206.44 345.947 206.92C347.031 207.4 348.177 206.966 348.672 205.867Z" fill="#F2DD96"/>
<path d="M353.069 211.008L352.667 208.948C352.667 208.948 352.527 208.902 352.45 208.871L351.242 208.329L350.546 209.893L349.555 209.459L351.923 204.086L354.138 205.062C355.547 205.681 356.104 206.796 355.578 207.988C355.222 208.809 354.541 209.211 353.689 209.18L354.138 211.488L353.069 211.008ZM353.72 205.898L352.559 205.387L351.614 207.524L352.775 208.035C353.658 208.422 354.277 208.22 354.572 207.539C354.866 206.858 354.587 206.269 353.72 205.882V205.898Z" fill="#F2DD96"/>
<path d="M358.181 207.864L356.401 207.075L356.772 206.223L361.325 208.236L360.953 209.072L359.172 208.282L357.175 212.804L356.184 212.37L358.181 207.849V207.864Z" fill="#F2DD96"/>
<mask id="mask1_86_62239" style="mask-type:luminance" maskUnits="userSpaceOnUse" x="310" y="214" width="32" height="33">
<path d="M340.421 236.882C336.906 244.888 327.554 248.542 319.548 245.011C311.543 241.496 307.888 232.144 311.419 224.138C314.934 216.133 324.286 212.479 332.292 216.009C340.297 219.524 343.951 228.877 340.421 236.882Z" fill="white"/>
</mask>
<g mask="url(#mask1_86_62239)">
<path d="M311.797 223.451L311.148 224.925L340.165 237.681L340.813 236.206L311.797 223.451Z" fill="#F2DD96"/>
<path d="M331.3 215.513L318.555 244.534L320.029 245.182L332.775 216.161L331.3 215.513Z" fill="#F2DD96"/>
<path d="M318.819 245.352C318.633 244.949 314.235 235.225 317.859 226.972C321.482 218.734 331.609 215.374 332.043 215.25L332.538 216.783C332.445 216.814 322.659 220.051 319.345 227.622C316.016 235.194 320.243 244.578 320.29 244.671L318.819 245.352Z" fill="#F2DD96"/>
<path d="M305.921 238.028L305.395 236.511C305.782 236.371 314.933 233.259 323.14 236.867C323.14 236.867 323.155 236.867 323.171 236.867C331.362 240.474 335.248 249.316 335.403 249.688L333.917 250.323C333.886 250.23 330.107 241.698 322.504 238.338C322.504 238.338 322.489 238.338 322.474 238.338C314.856 234.993 305.998 237.997 305.905 238.028H305.921Z" fill="#F2DD96"/>
<path d="M328.295 225.021C320.104 221.413 316.217 212.572 316.062 212.2L317.549 211.565C317.58 211.658 321.358 220.19 328.961 223.55C328.961 223.55 328.977 223.55 328.992 223.55C336.61 226.895 345.467 223.891 345.56 223.86L346.087 225.377C345.7 225.517 336.548 228.629 328.342 225.021C328.342 225.021 328.326 225.021 328.311 225.021H328.295Z" fill="#F2DD96"/>
<path d="M319.794 245.786L319.299 244.253C319.392 244.222 329.178 240.985 332.492 233.414C335.821 225.842 331.593 216.458 331.547 216.365L333.018 215.684C333.204 216.087 337.601 225.811 333.978 234.064C330.355 242.317 320.228 245.662 319.794 245.786Z" fill="#F2DD96"/>
</g>
<path d="M340.421 236.882C336.906 244.888 327.554 248.542 319.548 245.011C311.543 241.496 307.888 232.144 311.419 224.138C314.934 216.133 324.286 212.479 332.292 216.009C340.297 219.524 343.951 228.877 340.421 236.882Z" stroke="#F2DD96" stroke-width="1.36" stroke-miterlimit="10"/>
</g>
<path d="M53.3775 30.2169C52.8968 31.0732 52.2658 31.9596 51.4846 32.846C50.4179 33.9427 49.5315 34.7239 48.8555 35.1596L47.293 33.1014C48.0141 32.5906 48.7653 31.9446 49.5615 31.1483C50.2526 30.4272 50.8086 29.7211 51.2293 29L53.3775 30.2169ZM54.7746 34.739C54.1887 35.8357 53.4077 36.9474 52.4012 38.0892V48.23H49.9973V40.3427C49.6667 40.6131 49.3661 40.8235 49.1107 40.9887L47.4434 38.8403C48.3898 38.1943 49.3814 37.353 50.433 36.3014C51.3645 35.3699 52.0705 34.4235 52.6264 33.507L54.7746 34.754V34.739ZM66.5381 35.4V37.8037H62.4969V45.1953C62.4969 46.4122 62.2415 47.2084 61.7758 47.569C61.265 48.0046 60.3936 48.245 59.1316 48.245C58.1251 48.245 57.1935 48.1549 56.3371 47.9897L55.9315 45.4357C56.9831 45.7061 58.05 45.8413 59.1316 45.8413C59.7176 45.8413 60.0328 45.5108 60.0328 44.7897V37.8037H54.6096V35.4H66.5381ZM65.5467 29.9014V32.2H55.6762V29.9014H65.5467Z" fill="#595757"/>
<path d="M76.7826 30.8028V29.2253H79.0813V30.8028H86.8032V33.0113H81.3795C81.9955 33.4319 82.6416 33.8075 83.3176 34.153C84.5646 34.784 86.0371 35.3099 87.7197 35.7305L86.5028 38.1042C84.73 37.5183 83.0924 36.692 81.575 35.6855C80.6736 35.0995 79.8475 34.4385 79.0963 33.7324V36.8873H76.7977V33.8526C76.0765 34.5286 75.3705 35.1146 74.6043 35.6253C72.7113 36.7822 71.0738 37.5784 69.7217 38.0291L68.4746 35.8207C69.8267 35.4451 71.224 34.8592 72.7264 34.093C73.4174 33.7324 74.0333 33.3718 74.5441 33.0263H69.2408V30.8178H76.7977L76.7826 30.8028ZM84.2643 37.2929V39.5164C83.1075 40.3127 81.7404 41.0488 80.1629 41.7249H87.3141V44.0235H79.2463V45.6009C79.2463 46.6525 79.0361 47.3437 78.6606 47.6591C78.2399 48.0347 77.5038 48.23 76.4522 48.23C75.7761 48.23 75.1451 48.1849 74.5592 48.1399L74.1535 45.6009C74.9047 45.8112 75.686 45.9164 76.4522 45.9164C76.5723 45.9164 76.6774 45.8713 76.7676 45.7662C76.8277 45.646 76.8725 45.3906 76.8725 45.015V44.0235H68.6397V41.7249H76.8725V40.3427L78.1346 40.4328C78.8257 40.1324 79.4567 39.8469 80.0426 39.5315H71.915V37.308H84.2492L84.2643 37.2929Z" fill="#595757"/>
<path d="M92.8154 36.9474V34.9042H95.1141V36.9474H97.4879V39.1709H95.1141V39.6366C96.0756 40.4629 96.9168 41.2591 97.668 42.0554L96.2859 44.0084C95.8803 43.4826 95.5047 43.0019 95.1291 42.5362V48.1399H92.8305V42.9267C91.9892 44.2788 91.2681 45.2253 90.6822 45.7511L89.5254 43.708C90.1113 43.1671 90.7273 42.3408 91.4033 41.2441C91.809 40.5681 92.1394 39.877 92.4098 39.1859H89.8709V36.9624H92.8305L92.8154 36.9474ZM94.6934 29.7361C94.5882 30.0366 94.4831 30.3071 94.393 30.5625H99.2154V32.1549C99.3657 31.9446 99.4859 31.7192 99.6211 31.4789C100.132 30.6526 100.508 29.8864 100.793 29.1352L102.926 29.8113C102.836 30.0667 102.731 30.3221 102.656 30.5474H108.184V32.6808H105.285C105.54 33.0413 105.766 33.4019 105.976 33.7474L103.828 34.9943C103.497 34.2131 103.137 33.4319 102.716 32.6808H101.604C101.063 33.6423 100.492 34.4836 99.9065 35.1596L98.0135 33.6723C98.329 33.3718 98.6296 33.0413 98.8699 32.6808H96.6766C96.977 33.1164 97.2475 33.5671 97.5029 34.0028L95.3844 35.2197C95.0088 34.3634 94.6031 33.5221 94.1674 32.6808H93.4463C93.4012 32.7709 93.3865 32.8009 93.3564 32.846C92.7705 33.8976 92.1546 34.7991 91.5086 35.5652L89.6156 34.093C90.2917 33.3719 90.8624 32.5756 91.3432 31.6591C91.884 30.7577 92.2898 29.8864 92.5902 29.0751L94.7234 29.7512L94.6934 29.7361ZM107.614 48.23H105.3V47.4037H100.372V48.23H98.0736V35.3099H107.614V48.23ZM105.3 38.5249V37.5333H100.372V38.5249H105.3ZM105.3 41.9051V40.6582H100.372V41.9051H105.3ZM105.3 45.2704V44.0235H100.372V45.2704H105.3Z" fill="#595757"/>
<path d="M116.715 29.9615C116.504 30.6826 116.294 31.3737 116.039 32.0197H119.104V29.1352H121.477V32.0197H127.817V34.3183H121.477V37.4582H129.109V39.7568H123.535V44.6995C123.535 45.2404 123.746 45.5258 124.211 45.5408C124.407 45.5859 124.677 45.6009 125.053 45.6009C125.804 45.6009 126.27 45.5558 126.405 45.4807C126.57 45.3155 126.66 45.0601 126.705 44.7295C126.751 44.5643 126.795 43.9033 126.825 42.8216L129.289 44.2037C129.169 45.9014 128.929 46.953 128.553 47.4037C128.298 47.614 127.967 47.7643 127.517 47.8394C127.216 47.9296 126.405 47.9897 125.053 47.9897C124.377 47.9897 123.776 47.9446 123.25 47.8845C121.778 47.8394 121.057 47.0432 121.057 45.5258V39.7568H118.157C118.067 41.2291 117.827 42.476 117.406 43.5277C116.925 44.6695 116.204 45.646 115.287 46.5023C114.446 47.2535 113.44 47.7793 112.208 48.0798L111.051 45.7662C112.057 45.5108 112.899 45.0751 113.56 44.4892C114.206 43.9483 114.717 43.2272 115.092 42.3408C115.363 41.6648 115.558 40.8235 115.663 39.7718H111.141V37.4732H119.119V34.3333H115.032C114.506 35.4 113.935 36.3314 113.349 37.1277L111.216 35.4901C111.907 34.6037 112.523 33.5971 113.049 32.4554C113.59 31.3136 114.041 30.2469 114.326 29.2404L116.7 29.9765L116.715 29.9615Z" fill="#595757"/>
<path d="M142.347 38.5249V39.6667H150.324V41.815H143.489C144.03 42.5361 144.691 43.1671 145.397 43.708C145.862 43.1822 146.283 42.6413 146.614 42.0704L148.672 43.2873C148.251 43.9333 147.846 44.5042 147.47 44.9699C148.402 45.3906 149.453 45.7512 150.655 46.0066L149.753 48.23C147.755 47.7493 145.968 46.908 144.39 45.7211C143.113 44.7145 142.016 43.4075 141.115 41.8H140.544C140.078 42.2206 139.583 42.6263 138.982 43.0019V45.4056C140.033 45.2404 141.04 45.0451 142.016 44.8347L142.347 46.6375C140.214 47.2685 137.87 47.8094 135.271 48.3051L134.535 46.0817C135.256 45.9915 135.917 45.8864 136.593 45.7812V44.369C135.556 44.8798 134.46 45.3005 133.288 45.676L131.65 43.6929C133.483 43.2573 135.061 42.7615 136.368 42.2206C136.698 42.0704 137.014 41.9202 137.299 41.8H131.996V39.6516H139.883V38.5098H142.347V38.5249ZM139.553 29.2253V38.6901H137.179V36.1211H135.902C135.797 37.1727 135.571 37.8639 135.211 38.2244C134.745 38.7352 134.099 39.1709 133.258 39.5014L132.011 37.6085C132.552 37.3981 132.957 37.1727 133.258 36.8723C133.423 36.707 133.558 36.4516 133.633 36.1211H132.101V34.0028H137.194V33.3568H133.002V29.7361H135.301V31.2084H137.194V29.2253H139.568H139.553ZM143.909 31.6291V29.2253H146.313V31.6291H150.249V33.8376H146.313V35.8207H149.588V38.0291H140.799V35.8207H143.909V33.8376H140.063V31.6291H143.909Z" fill="#595757"/>
<path d="M157.64 29.5709C157.489 30.5775 157.34 31.554 157.204 32.4554H160.93C160.825 35.0394 160.509 37.4582 159.983 39.7117C159.773 40.5681 159.548 41.3343 159.292 42.0103C160.134 42.7615 160.96 43.5728 161.756 44.369L160.119 46.1868C159.488 45.4657 158.872 44.8197 158.271 44.2037C158.151 44.4141 158 44.6244 157.865 44.7897C156.934 46.1418 155.822 47.2685 154.515 48.2451L153.208 46.4422C154.32 45.6009 155.266 44.6094 156.032 43.4526C156.198 43.2272 156.393 42.9418 156.558 42.6563C156.137 42.3258 155.717 41.9803 155.311 41.6498C155.206 42.0254 155.101 42.3709 155.011 42.6563L152.787 42.1756C153.463 39.8469 154.034 37.338 154.515 34.6789H152.697V32.4704H154.891C155.056 31.4188 155.206 30.3521 155.326 29.2554L157.64 29.5859V29.5709ZM157.85 39.4563C158.226 37.8338 158.496 36.2413 158.631 34.6638H156.829C156.513 36.4066 156.198 37.969 155.882 39.3512C156.423 39.7568 156.979 40.1474 157.505 40.523C157.625 40.1925 157.73 39.8319 157.865 39.4563H157.85ZM171.191 29.8113V31.9296C170.184 33.5972 168.998 35.0244 167.661 36.2263V37.5333H171.702V39.8319H167.661V45.4357C167.661 46.4873 167.435 47.1784 166.97 47.4939C166.459 47.8695 165.602 48.0648 164.385 48.0648C163.739 48.0648 163.123 48.0047 162.582 47.8995L162.177 45.3606C162.898 45.631 163.634 45.7662 164.385 45.7662C164.641 45.7662 164.866 45.7211 165.077 45.646C165.197 45.5258 165.287 45.2404 165.287 44.8648V39.862H160.84V37.5634H165.287V34.3484L166.248 34.4085C166.985 33.7625 167.675 32.9962 168.306 32.1399H161.486V29.8413H171.191V29.8113Z" fill="#595757"/>
<path d="M177.262 30.2169V29.1502H179.5V30.2169H186.967V29.1502H189.19V30.2169H192.06V32.3652H189.19V38.615H192.646V40.7333H189.01C189.31 40.9436 189.596 41.1089 189.941 41.2742C190.768 41.7099 191.759 42.0704 192.886 42.3709L191.669 44.7746C190.738 44.4141 189.866 43.9784 189.04 43.4225V44.6845H184.428V45.7361H191.158V47.9596H175.369V45.7361H182.039V44.6845H177.352V43.4225C176.48 43.9483 175.654 44.384 174.798 44.7746L173.551 42.7915C174.903 42.2807 175.97 41.8 176.736 41.3192C177.096 41.1239 177.412 40.9436 177.697 40.7333H173.971V38.615H177.246V32.3652H174.452V30.2169H177.246H177.262ZM182.039 42.461V41.4694H184.413V42.461H187.673C186.997 41.9502 186.411 41.3643 185.9 40.7333H180.687C180.146 41.3643 179.515 41.9352 178.809 42.461H182.024H182.039ZM186.967 33.1014V32.3652H179.5V33.1014H186.967ZM186.967 35.8958V35.1596H179.5V35.8958H186.967ZM186.967 38.615V37.939H179.5V38.615H186.967Z" fill="#595757"/>
<path d="M202.906 32.1099V29.2253H205.37V32.1099H213.182V34.4836H206.632C207.458 36.0159 208.375 37.3831 209.412 38.5699C210.628 40.0422 212.086 41.2592 213.768 42.2056L212.446 44.7746C211.44 44.1286 210.463 43.3474 209.562 42.4159V44.6094H205.37V48.1399H202.906V44.6094H198.639V42.6112C197.678 43.5727 196.792 44.2939 196.01 44.7746L194.764 42.6263C196.116 41.7399 197.528 40.3727 199 38.5699C200.097 37.2178 200.983 35.8807 201.689 34.4836H195.349V32.1099H202.906ZM202.906 42.2206V37.0676C202.23 38.2845 201.524 39.3662 200.803 40.3277C200.172 41.0488 199.586 41.6798 199.03 42.2206H202.906ZM209.336 42.2206C208.75 41.6347 208.179 41.0038 207.654 40.3277C206.812 39.3211 206.061 38.1793 205.355 36.9474V42.2357H209.336V42.2206Z" fill="#595757"/>
<path d="M233.974 29.9615V44.6995C233.974 46.8178 233.027 47.8995 231.18 47.8995C230.654 47.8995 230.037 47.8544 229.361 47.8093L228.776 45.0901C229.467 45.3155 230.128 45.4206 230.759 45.4206C231.24 45.4206 231.495 44.8798 231.495 43.7831V41.8901H227.228V47.6291H224.764V41.8901H220.197C220.092 42.6112 219.972 43.3174 219.822 43.9934C219.506 45.3606 218.98 46.7277 218.259 48.1399L216.051 46.8178C216.802 45.0751 217.328 43.5577 217.583 42.2657C217.884 40.7032 218.019 39.1258 218.019 37.5333V29.9615H233.974ZM224.749 39.5164V37.0376H220.392V38.7652C220.392 39.0357 220.377 39.2911 220.377 39.5164H224.749ZM224.749 34.6638V32.3652H220.392V34.6638H224.749ZM227.213 34.6638H231.48V32.3652H227.213V34.6638ZM227.213 39.5164H231.48V37.0376H227.213V39.5164Z" fill="#595757"/>
<path d="M245.618 48.23H243.244V47.4788H239.714V48.23H237.34V38.5249H245.633V48.23H245.618ZM243.244 45.1803V40.8235H239.714V45.1803H243.244ZM252.949 29.7361V37.2929H239.969V29.7361H252.949ZM250.561 34.9944V32.0197H242.328V34.9944H250.561ZM255.233 48.23H252.859V47.4788H249.163V48.23H246.79V38.5249H255.248V48.23H255.233ZM252.859 45.1803V40.8235H249.163V45.1803H252.859Z" fill="#595757"/>
<path d="M266.441 42.3258L265.645 40.9587C266.276 40.7033 266.846 40.2676 267.342 39.5915H265.81V36.5868H269.025V38.6901C269.025 40.2225 268.169 41.4544 266.441 42.3258Z" fill="#595757"/>
<path d="M51.0635 59.4225V57.7849H53.4674V59.4225H60.5133V57.7849H62.9172V59.4225H65.952V61.7361H62.9172V70.3596H66.4475V72.6582H61.46C62.091 73.0187 62.7216 73.3342 63.3676 73.6046C64.2991 74.0103 65.2156 74.3258 66.102 74.5511L64.7199 76.9248C63.7735 76.5943 62.872 76.1887 61.9856 75.7229C60.9339 75.1821 59.9424 74.5661 59.041 73.8901L60.1528 72.6431H53.2719L54.6844 73.7999C53.1069 75.0619 51.2139 76.1286 49.0205 77L47.6983 74.6262C49.2907 74.1154 50.793 73.4694 52.1451 72.6431H47.5332V70.3445H51.0635V61.7211H48.0287V59.4075H51.0635V59.4225ZM60.5133 63.1183V61.7361H53.4674V63.1183H60.5133ZM60.5133 66.829V65.3568H53.4674V66.829H60.5133ZM60.5133 70.3596V69.0375H53.4674V70.3596H60.5133Z" fill="#595757"/>
<path d="M74.5621 58.446C74.1264 59.8732 73.6005 61.2854 72.9996 62.6375V76.6995H70.6258V67.0995C70.2502 67.6854 69.8445 68.2413 69.4689 68.722L68.252 66.3483C70.0998 63.6591 71.4372 60.7896 72.2785 57.7849L74.5771 58.461L74.5621 58.446ZM86.3252 69.6384C86.205 70.2544 85.9647 70.7051 85.6041 71.0206C85.2886 71.2309 84.9582 71.3361 84.5977 71.3361C84.0568 71.3361 83.4861 71.291 82.8701 71.1708L82.3893 68.6319C82.9301 68.7971 83.4857 68.8873 84.0266 68.8873C84.1167 68.8873 84.177 68.7371 84.2221 68.4516C84.3122 67.7004 84.3721 66.3333 84.4172 64.3953L81.8031 65.0263V72.4328H79.5045V65.5671L77.2811 66.1079V72.6582C77.2811 73.4394 77.7019 73.83 78.5582 73.83C78.9789 73.9351 79.9704 73.9802 81.5479 73.9802C83.1253 73.9802 83.8615 73.9652 83.8615 73.8901C84.162 73.8901 84.4325 73.83 84.718 73.7398C85.0184 73.6948 85.2286 72.9436 85.3338 71.5164L87.7076 72.5079C87.4973 74.0854 87.1816 75.122 86.776 75.6478C86.4755 75.8581 86.0551 76.0084 85.4992 76.0835C84.1772 76.2037 82.8549 76.2788 81.5479 76.2788H80.1207C79.1141 76.2788 78.2729 76.1886 77.6119 76.0685C75.8391 76.0234 74.9828 75.1821 74.9828 73.5596V66.6638L73.9158 66.9192L73.3451 64.861L74.9828 64.4253V59.9483H77.2811V63.8244L79.5045 63.2084V57.9652H81.8031V62.5924L86.7459 61.2403C86.7459 64.9511 86.5956 67.7455 86.3252 69.6535V69.6384Z" fill="#595757"/>
<path d="M98.2225 63.0281V69.368H95.5332V73.7248C95.5332 74.8666 95.3829 75.6328 95.1125 76.0685C94.782 76.5342 94.1661 76.7896 93.3098 76.7896C92.7238 76.7896 92.1678 76.7295 91.6721 76.6244L91.3717 74.9567C91.3717 74.9567 91.3266 75.0168 91.3266 75.0619L89.2832 73.9953C89.8691 72.6882 90.3351 71.4112 90.6656 70.1192L92.8139 70.8553C92.4383 72.2224 92.0626 73.3793 91.642 74.3558C92.0777 74.4459 92.5286 74.476 92.9642 74.476C93.0243 74.476 93.0692 74.3859 93.0842 74.2206C93.0992 73.9952 93.1293 73.6347 93.1293 73.1689V69.383H90.3351V63.0431H98.2225V63.0281ZM95.5933 57.7699V59.753H98.9887V62.0516H89.6889V59.753H93.1443V57.7699H95.6084H95.5933ZM95.9238 67.1596V65.2666H92.6338V67.1596H95.9238ZM99.0187 72.4628C99.6047 71.6365 100.085 70.7652 100.491 69.8337C100.957 68.722 101.287 66.9492 101.497 64.5305H98.8834V62.2168H101.633C101.693 60.8647 101.738 59.3924 101.738 57.7699H104.051C104.036 59.4075 103.991 60.8797 103.946 62.2168H108.498V64.5305H103.826C103.811 64.7859 103.781 65.0413 103.766 65.2666H105.539V73.4694C105.539 73.9352 105.554 74.1605 105.629 74.1905C105.644 74.2807 105.734 74.2957 105.884 74.2957C106.155 74.2957 106.335 74.2056 106.365 73.9953C106.425 73.83 106.47 73.4544 106.515 72.8985C106.56 72.538 106.575 71.9671 106.62 71.1708L108.739 72.4178C108.529 74.4309 108.228 75.6178 107.882 75.9934C107.777 76.2037 107.522 76.3239 107.146 76.414C106.936 76.4741 106.515 76.5192 105.884 76.5192C105.253 76.5192 104.788 76.429 104.457 76.3088C103.661 76.1886 103.255 75.3624 103.255 73.8901V69.0075C103.045 69.969 102.789 70.7502 102.534 71.3511C101.603 73.4995 100.235 75.2872 98.4777 76.7746L97.0957 74.6262C97.7717 74.0403 98.3726 73.3642 98.8984 72.6431L96.84 73.6347C96.5396 72.598 96.164 71.6215 95.6832 70.6901L97.7416 69.6985C98.2524 70.5398 98.6732 71.4413 99.0187 72.4478V72.4628ZM108.183 60.6544L106.05 61.9013C105.644 61.06 105.118 60.2638 104.472 59.4976L106.53 58.1906C107.207 58.9718 107.747 59.7831 108.168 60.6544H108.183Z" fill="#595757"/>
<path d="M118.94 59.6629C117.513 60.2488 115.951 60.6694 114.283 60.9399L114.478 63.7643C115.154 63.6141 115.785 63.4638 116.371 63.2985C116.251 62.8929 116.101 62.5023 115.966 62.1267L118.114 61.0751C118.745 62.4422 119.286 63.9446 119.752 65.5821L117.288 66.7389C117.183 66.2732 117.078 65.8375 116.972 65.3868C115.305 65.9577 113.502 66.4535 111.519 66.9042L110.527 64.6056C111.113 64.5004 111.669 64.3953 112.165 64.2751L111.759 59.0169C113.863 58.7464 115.816 58.2657 117.679 57.5446L118.926 59.6629H118.94ZM127.91 76.7746H125.506V76.0234H115.155V76.7746H112.781V66.9042H127.91V76.7746ZM119.106 70.4497V69.1276H115.155V70.4497H119.106ZM119.106 73.8149V72.568H115.155V73.8149H119.106ZM129.292 58.2807C129.201 62.2319 128.826 64.6807 128.18 65.6422C127.669 66.3183 126.918 66.6488 125.926 66.6488C125.596 66.6488 125.1 66.6337 124.514 66.5586L124.033 64.1849C124.785 64.245 125.416 64.2751 125.926 64.2751C126.182 64.2751 126.392 64.1248 126.512 63.8094C126.677 63.3436 126.783 62.277 126.828 60.5643H124.559C124.469 61.5558 124.364 62.307 124.198 62.8328C123.943 63.629 123.583 64.3502 123.087 64.9962C122.546 65.7473 121.945 66.3483 121.314 66.799L119.932 64.7408C120.368 64.3652 120.788 63.8995 121.194 63.3586C121.569 62.8478 121.84 62.307 122.02 61.7661C122.11 61.4657 122.186 61.0751 122.246 60.5643H120.247V58.2657H129.292V58.2807ZM121.48 70.4497H125.491V69.1276H121.48V70.4497ZM125.506 73.8149V72.568H121.495V73.8149H125.506Z" fill="#595757"/>
<path d="M134.054 70.4497C133.754 72.4478 133.483 74.1155 133.228 75.4526L131.17 74.8817C131.5 73.2441 131.786 71.5765 131.996 69.9389L134.054 70.4497ZM137.66 58.7615C136.729 60.2338 135.857 61.4957 135.031 62.5474C135.286 62.7126 135.512 62.8629 135.767 62.9831C136.443 62.1267 137.044 61.2554 137.6 60.399L139.808 61.3906C138.336 63.3286 136.924 65.0262 135.602 66.4985C136.233 66.4535 136.819 66.3934 137.374 66.3333C137.284 66.0028 137.179 65.6572 137.104 65.3418L139.087 64.7558C139.463 65.9727 139.778 67.3248 139.988 68.7971L137.93 69.4432C137.885 69.0225 137.825 68.6169 137.765 68.2413C137.389 68.3014 137.014 68.3615 136.623 68.4065V76.7596H134.475V68.677C133.634 68.7821 132.792 68.8723 131.936 68.9474L131.515 66.799C131.846 66.784 132.206 66.7539 132.552 66.7389C133.183 66.0929 133.754 65.4619 134.295 64.831C133.333 64.1849 132.357 63.5089 131.365 62.7877L132.672 61.1202C132.868 61.2404 133.033 61.3455 133.198 61.4356C134.085 60.2187 134.835 58.9718 135.466 57.7549L137.675 58.7464L137.66 58.7615ZM139.808 74.1455L137.75 74.6262C137.63 73.0337 137.374 71.5164 137.014 70.1042L138.997 69.6234C139.403 71.1108 139.673 72.6281 139.823 74.1455H139.808ZM146.449 58.3559C146.283 58.6713 146.133 58.9718 145.983 59.2573C146.734 60.1437 147.515 60.9249 148.312 61.5859C149.303 62.4272 150.265 63.1032 151.211 63.599L149.889 65.8976C149.589 65.7324 149.318 65.5671 149.063 65.3568V66.4685H141.115V65.1915C140.815 65.4169 140.545 65.6272 140.274 65.8225L138.637 64.185C139.944 63.1934 140.995 62.1868 141.807 61.1502C142.753 60.0535 143.534 58.8967 144.15 57.6798L146.449 58.3559ZM149.754 76.7746H147.35V75.7831H142.993V76.7746H140.62V68.061H149.754V76.7746ZM147.605 64.185C147.395 64.0197 147.2 63.8244 147.02 63.6441C146.223 62.8929 145.457 62.0816 144.766 61.2403C144.496 61.661 144.225 62.0366 143.925 62.3972C143.414 63.0432 142.888 63.6441 142.302 64.185H147.605ZM147.365 73.6347V70.2694H143.008V73.6347H147.365Z" fill="#595757"/>
<path d="M157.866 57.7699V60.7446H160.345V62.4422C160.645 61.9615 160.885 61.4506 161.126 60.9098C161.637 59.8131 162.027 58.7615 162.313 57.7699L164.626 58.446C164.476 58.9267 164.326 59.3924 164.161 59.8281H170.936V62.0366H163.259L163.214 62.1267C162.884 62.8478 162.523 63.4938 162.177 64.0647C163.064 63.9445 164.131 63.7342 165.378 63.4338C166.549 63.1634 167.646 62.8028 168.638 62.3821L170.621 64.3652C169.569 64.6957 168.503 64.9812 167.376 65.2065C167.496 66.3032 167.676 67.2948 167.886 68.1361C168.577 67.7004 169.208 67.1746 169.794 66.5737L171.357 68.3014C170.41 69.0976 169.464 69.7286 168.532 70.2394C168.547 70.3295 168.577 70.3896 168.622 70.4347C169.193 71.8919 170.26 73.3793 171.838 74.8966L170.275 76.7896C168.502 75.107 167.3 73.3793 166.654 71.5915C166.023 70.0591 165.558 68.076 165.272 65.6422C164.867 65.7324 164.491 65.7624 164.115 65.8075V73.5295C164.897 73.3342 165.633 73.1239 166.354 72.9136L166.76 74.9718C165.167 75.5877 163.379 76.1286 161.411 76.6093L160.585 74.2957C161.006 74.2056 161.426 74.1305 161.832 74.0403V64.6356C161.667 64.9061 161.502 65.1464 161.321 65.3568L159.443 63.8694C159.639 63.614 159.819 63.3436 160.014 63.0432H156.904V64.8459H160.51C160.465 70.9004 160.134 74.491 159.548 75.5577C159.128 76.2487 158.512 76.6093 157.746 76.6093C157.22 76.6093 156.679 76.5492 156.078 76.444L155.537 74.0854C155.177 75.137 154.786 76.0234 154.365 76.7746L152.322 75.1971C153.073 73.7248 153.644 72.0873 154.02 70.2694C154.35 68.4967 154.531 66.6638 154.531 64.7558V63.0281H152.713V60.7295H155.432V57.7549H157.896L157.866 57.7699ZM157.295 74.1455C157.595 74.1455 157.761 73.9502 157.806 73.5746C157.956 72.6432 158.076 70.5248 158.211 67.1596H156.829C156.709 68.8873 156.468 70.4647 156.138 71.937C155.973 72.6882 155.778 73.3643 155.567 73.9802C156.153 74.1004 156.724 74.1455 157.31 74.1455H157.295Z" fill="#595757"/>
<path d="M178.328 65.9126V72.7332C179.215 73.3793 180.221 73.7398 181.378 73.83C182.219 73.9952 184.338 74.0553 187.733 74.0553C189.671 74.0553 191.339 73.9351 192.721 73.6347C192.255 74.491 191.894 75.4225 191.654 76.429H185.524C183.301 76.429 181.528 76.2638 180.176 75.9183C179.214 75.6629 178.268 75.137 177.337 74.3558C176.661 75.152 175.969 75.9483 175.293 76.7596C174.722 75.8131 174.137 74.9267 173.551 74.1305C174.377 73.815 175.173 73.4844 175.955 73.1389V68.2713H173.716V65.8976H178.328V65.9126ZM178.088 63.5389L176.525 65.492C175.594 64.6356 174.648 63.8995 173.641 63.2835L175.308 61.5558C176.315 62.1267 177.247 62.7727 178.088 63.5389ZM178.899 59.9182L177.262 61.9765C176.375 61.0751 175.429 60.2939 174.467 59.6629L176.135 57.9352C177.141 58.5061 178.073 59.152 178.914 59.9182H178.899ZM186.802 58.2807C186.681 58.491 186.576 58.6563 186.471 58.8065C187.327 59.4976 188.214 60.1136 189.145 60.6394C190.317 61.3305 191.504 61.8864 192.661 62.307L191.414 64.5305C190.693 64.215 190.032 63.8544 189.355 63.4638V64.2901H186.726V65.6722H191.248V67.8206H186.726V70.8553C186.726 71.967 186.531 72.6882 186.2 72.9887C185.795 73.3943 185.134 73.5746 184.188 73.5746C183.647 73.5746 183.121 73.5295 182.625 73.4093L182.219 71.1107C182.865 71.3361 183.526 71.4412 184.172 71.4412C184.338 71.4412 184.428 71.1258 184.428 70.4497V67.8206H179.665V65.6722H184.428V64.2901H181.634V63.6441C181.108 64.0046 180.567 64.3352 179.996 64.6356L178.268 62.8929C179.696 62.0967 180.882 61.2554 181.784 60.414C182.82 59.5126 183.677 58.5661 184.353 57.5746L186.817 58.3108L186.802 58.2807ZM183.256 69.4581C182.369 70.7351 181.303 71.8168 180.056 72.6581L178.809 70.5398C179.801 69.9539 180.702 69.1277 181.528 68.076L183.256 69.4581ZM187.327 62.1267C186.546 61.6009 185.84 61.06 185.164 60.4591C184.788 60.8948 184.413 61.3154 184.007 61.706C183.842 61.8713 183.691 62.0065 183.571 62.1267H187.342H187.327ZM190.663 69.6685C191.098 70.0892 191.549 70.4497 191.97 70.7051L190.242 72.8234C189.821 72.4929 189.401 72.0422 188.98 71.5163C188.499 70.9304 188.034 70.2694 187.613 69.5333L189.34 68.1211C189.761 68.707 190.212 69.2328 190.663 69.6535V69.6685Z" fill="#595757"/>
<path d="M212.431 71.9971H209.967V70.615H205.355V76.7746H202.891V70.615H198.204V71.9971H195.74V61.0751H202.891V57.7699H205.355V61.0751H212.431V71.9971ZM202.906 68.3014V63.3737H198.219V68.3014H202.906ZM205.37 68.3014H209.982V63.3737H205.37V68.3014Z" fill="#595757"/>
<path d="M218.11 62.1267C218.019 64.0647 217.809 65.8375 217.524 67.475L215.48 66.4084C215.781 64.8159 215.961 63.2234 216.052 61.646L218.11 62.1267ZM220.574 57.7699V61.03L222.301 60.4891C222.782 61.5859 223.158 62.8028 223.458 64.1098L221.22 64.8459C221.054 63.8544 220.844 62.938 220.574 62.0666V76.6995H218.35V57.7849H220.574V57.7699ZM233.644 69.8788V71.3511C232.923 72.3877 232.082 73.2441 231.135 73.9201C232.142 74.1905 233.343 74.4009 234.711 74.5511L233.884 76.7746C231.841 76.5041 230.098 75.9934 228.626 75.2572C227.034 75.9333 225.216 76.429 223.203 76.7746L222.136 74.7164C223.819 74.506 225.276 74.2356 226.508 73.86C225.832 73.2741 225.231 72.553 224.705 71.7567H223.293V69.8788H233.644ZM234.455 64.5305V69.368H222.947V64.5305H234.455ZM233.719 57.9352V64.0197H223.849V57.9352H233.719ZM226.087 67.6403V66.2581H225.186V67.6403H226.087ZM231.571 60.1737V59.6629H225.997V60.1737H231.571ZM231.571 62.292V61.8112H225.997V62.292H231.571ZM228.761 72.9887C229.513 72.6131 230.174 72.2075 230.669 71.7417H227.049C227.56 72.2525 228.115 72.6431 228.746 72.9887H228.761ZM228.13 67.6403H229.122V66.2581H228.13V67.6403ZM231.18 67.6403H232.247V66.2581H231.18V67.6403Z" fill="#595757"/>
<path d="M239.143 62.1267C239.053 64.0647 238.842 65.8375 238.557 67.475L236.514 66.4084C236.814 64.8159 236.995 63.2234 237.085 61.646L239.143 62.1267ZM241.607 57.7699V61.03L243.334 60.4891C243.815 61.5859 244.191 62.8028 244.491 64.1098L242.253 64.8459C242.087 63.8544 241.877 62.938 241.607 62.0666V76.6995H239.383V57.7849H241.607V57.7699ZM254.677 69.8788V71.3511C253.956 72.3877 253.115 73.2441 252.168 73.9201C253.175 74.1905 254.377 74.4009 255.744 74.5511L254.917 76.7746C252.874 76.5041 251.131 75.9934 249.659 75.2572C248.067 75.9333 246.249 76.429 244.236 76.7746L243.169 74.7164C244.852 74.506 246.309 74.2356 247.541 73.86C246.865 73.2741 246.264 72.553 245.738 71.7567H244.326V69.8788H254.677ZM255.488 64.5305V69.368H243.981V64.5305H255.488ZM254.752 57.9352V64.0197H244.882V57.9352H254.752ZM247.12 67.6403V66.2581H246.219V67.6403H247.12ZM252.604 60.1737V59.6629H247.03V60.1737H252.604ZM252.604 62.292V61.8112H247.03V62.292H252.604ZM249.795 72.9887C250.546 72.6131 251.207 72.2075 251.703 71.7417H248.082C248.593 72.2525 249.149 72.6431 249.779 72.9887H249.795ZM249.164 67.6403H250.155V66.2581H249.164V67.6403ZM252.213 67.6403H253.28V66.2581H252.213V67.6403Z" fill="#595757"/>
<path d="M262.774 62.0816C263.601 61.5107 264.337 60.8798 264.968 60.1737H258.838V58.0253H268.047V58.8216C268.423 59.122 268.798 59.3924 269.189 59.6178C270.135 59.1521 271.022 58.5211 271.818 57.7699L273.546 59.1821C272.855 59.8582 272.089 60.4441 271.277 60.9549C271.608 61.1652 271.968 61.3755 272.329 61.5408C273.155 61.06 273.906 60.4291 274.628 59.6629L276.521 61.1352C275.935 61.7211 275.319 62.2469 274.673 62.6676C275.499 63.0431 276.295 63.3586 277.091 63.614L275.875 65.8225C275.033 65.507 274.207 65.1464 273.411 64.7258V65.4168C273.411 65.9427 273.456 66.2581 273.576 66.3483C273.636 66.3933 273.726 66.3934 273.846 66.3934C273.906 66.3934 273.996 66.3934 274.072 66.3784C274.132 66.3784 274.192 66.3633 274.237 66.3182C274.282 66.2281 274.327 66.0028 274.357 65.5821L276.596 66.6488C276.506 67.5351 276.265 68.076 275.799 68.2863C275.574 68.3915 275.319 68.4516 275.018 68.4967C274.598 68.5417 274.192 68.5417 273.846 68.5417C272.84 68.5417 272.209 68.4366 271.968 68.2112C271.382 68.1061 271.082 67.3699 271.082 66.0028V65.4319H269.549C269.429 66.4685 269.174 67.2197 268.798 67.6854C268.468 68.1962 267.912 68.5868 267.206 68.8872H275.709V70.5248C275.063 71.7718 274.297 72.7784 273.456 73.5295C274.387 73.86 275.454 74.1154 276.701 74.2807L275.799 76.6844C274.027 76.384 272.524 75.8882 271.217 75.152C269.895 75.8732 268.393 76.414 266.755 76.7746L265.598 74.6262C266.981 74.4009 268.182 74.0553 269.219 73.6347C268.498 72.9135 267.867 72.0422 267.326 71.0056H266.365V68.8872H266.77L265.869 67.2197V69.2028H261.422L261.272 70.2694H266.109C265.914 73.214 265.523 75.0318 264.907 75.7379C264.367 76.3689 263.585 76.6844 262.579 76.6844C261.933 76.6844 261.197 76.5943 260.355 76.429L259.784 73.9652C260.731 74.1304 261.527 74.2206 262.158 74.2206C262.639 74.2206 262.984 74.1304 263.195 73.9652C263.495 73.7548 263.706 73.2291 263.826 72.4028H261.001L260.941 72.8084H258.628L259.304 67.0694H263.57V65.7473H261.512V65.3267C260.46 65.8375 259.409 66.1831 258.402 66.3934L257.666 64.5155C258.628 64.2601 259.559 63.8995 260.491 63.4488C260.085 63.0281 259.664 62.6225 259.229 62.2018L261.362 60.7295C261.873 61.1502 262.353 61.5858 262.834 62.0816H262.774ZM266.861 66.0478C267.161 65.6272 267.296 64.7258 267.326 63.2835H270.857C269.61 62.5474 268.453 61.7661 267.386 60.9248C266.38 62.0215 265.388 62.9079 264.381 63.614H265.839V66.814C266.274 66.6488 266.62 66.3783 266.876 66.0328L266.861 66.0478ZM271.353 72.4628C271.938 72.0422 272.449 71.5614 272.87 71.0056H269.835C270.301 71.5915 270.797 72.0722 271.353 72.4628Z" fill="#595757"/>
<path d="M286.136 58.3558V60.5643H283.837V64.2751H285.79V66.4835H283.837V71.0506C284.679 70.8854 285.475 70.7202 286.211 70.5249L286.466 72.6431C284.243 73.2591 281.839 73.8 279.225 74.2807L278.805 71.907C279.736 71.7868 280.623 71.6366 281.434 71.4863V66.4835H279.481V64.2751H281.434V60.5643H279.301V58.3558H286.121H286.136ZM296.818 58.2807V70.9305H294.354V73.3943C294.354 73.86 294.399 74.1154 294.474 74.1905C294.564 74.3107 294.669 74.3858 294.835 74.3858C295.06 74.3858 295.24 74.3709 295.346 74.3258C295.436 74.3108 295.511 74.2356 295.571 74.1305C295.631 73.9652 295.691 73.4394 295.736 72.5079L297.884 73.4694C297.794 74.2206 297.674 74.8967 297.509 75.5727C297.389 75.9934 297.133 76.2488 296.758 76.369C296.352 76.4591 295.721 76.5192 294.85 76.5192C293.978 76.5192 293.392 76.4291 293.227 76.2939C292.431 76.2037 292.04 75.4976 292.04 74.1455V70.9305H290.763C290.463 72.523 289.967 73.7549 289.231 74.6112C288.269 75.6478 286.963 76.3539 285.31 76.7746L284.318 74.6262C285.64 74.3258 286.677 73.7849 287.383 73.0337C287.819 72.568 288.164 71.8619 288.374 70.9305H286.782V58.2807H296.818ZM294.444 61.9014V60.4892H289.186V61.9014H294.444ZM294.444 65.2666V64.0197H289.186V65.2666H294.444ZM294.444 68.722V67.3999H289.186V68.722H294.444Z" fill="#595757"/>
<path d="M311.374 69.2178C310.834 69.7586 310.157 70.0441 309.391 70.0441C308.625 70.0441 307.964 69.7736 307.408 69.2178C306.868 68.6769 306.582 68.0159 306.582 67.2347C306.582 66.4535 306.853 65.8075 307.408 65.2516C307.964 64.6957 308.61 64.4253 309.391 64.4253C310.172 64.4253 310.819 64.6957 311.374 65.2516C311.915 65.7925 312.201 66.4685 312.201 67.2347C312.201 68.0009 311.93 68.6619 311.374 69.2178ZM310.068 66.5737C309.872 66.3784 309.647 66.2732 309.391 66.2732C309.121 66.2732 308.881 66.3784 308.715 66.5737C308.505 66.769 308.415 66.9943 308.415 67.2497C308.415 67.5201 308.505 67.7605 308.715 67.9258C308.881 68.1361 309.121 68.2262 309.391 68.2262C309.647 68.2262 309.872 68.1361 310.068 67.9258C310.263 67.7605 310.368 67.5201 310.368 67.2497C310.368 66.9943 310.263 66.769 310.068 66.5737Z" fill="#595757"/>
<defs>
<linearGradient id="paint0_linear_86_62239" x1="240.301" y1="222.468" x2="240.301" y2="390.725" gradientUnits="userSpaceOnUse">
<stop stop-color="white"/>
<stop offset="1" stop-color="white" stop-opacity="0.6"/>
</linearGradient>
</defs>
</svg>
