<svg width="480" height="454" viewBox="0 0 480 454" fill="none" xmlns="http://www.w3.org/2000/svg">
<path opacity="0.8" d="M436.87 0H43.1304C19.3101 0 0 19.2976 0 43.1024V410.898C0 434.702 19.3101 454 43.1304 454H436.87C460.69 454 480 434.702 480 410.898V43.1024C480 19.2976 460.69 0 436.87 0Z" fill="url(#paint0_linear_76_90450)"/>
<mask id="mask0_76_90450" style="mask-type:luminance" maskUnits="userSpaceOnUse" x="17" y="99" width="446" height="340">
<path d="M17.5962 99.6055V398.858C17.5962 420.828 35.5801 438.8 57.5639 438.8H422.451C444.435 438.8 462.419 420.828 462.419 398.858V99.6055H17.5962Z" fill="white"/>
</mask>
<g mask="url(#mask0_76_90450)">
<path d="M869.678 35.5884H216.04V414.663H869.678V35.5884Z" fill="#B9DCF1"/>
<path d="M326.548 227.907H293.526C290.503 227.907 288.038 225.443 288.038 222.422C288.038 219.401 290.503 216.938 293.526 216.938H326.548C329.571 216.938 332.036 219.401 332.036 222.422C332.036 225.443 329.571 227.907 326.548 227.907Z" fill="#C9E4F5"/>
<path d="M422.995 35.6191L216.149 242.486L216.04 242.579V217.944L216.149 217.851L398.375 35.6191H422.995Z" fill="#C9E4F5"/>
<path d="M494.046 35.6191L454.9 74.5538L449.784 79.6356L444.684 84.7174L329.959 198.841H306.208L444.684 60.3774L469.443 35.6191H494.046Z" fill="#C9E4F5"/>
<path d="M579.718 35.6191L439.289 176.05V153.167L555.083 35.6191H579.718Z" fill="#C9E4F5"/>
<path d="M438.994 220.781V250.047H414.623V220.471L421.025 214.072L425.599 200.066H345.803L350.377 214.072L356.779 220.471V250.047H259.139V228.775H248.349V250.047H235.559V237.405H216.071V411.426H455.241V220.781H439.009H438.994ZM374.794 240.147H364.996V227.691H374.794V240.147ZM390.732 240.147H380.934V227.691H390.732V240.147ZM406.654 240.147H396.856V227.691H406.654V240.147ZM379.693 200.066L386.546 146.831L393.398 200.066H379.693Z" fill="#A1CFEC"/>
<path d="M869.678 408.885H-241.527V525.503H869.678V408.885Z" fill="#DAE3E5"/>
<path d="M431.986 116.2L419.986 112.714C419.32 112.529 418.638 112.9 418.436 113.567C418.25 114.233 418.622 114.93 419.289 115.116L420.358 115.426L412.266 120.306L376.747 109.988C374.872 109.445 372.856 109.554 371.058 110.282C371.058 110.282 371.042 110.282 371.027 110.282L368.097 111.661C366.872 111.305 365.616 111.119 364.36 111.119C363.104 111.119 361.833 111.274 360.608 111.614L359.384 111.94C357.895 112.358 357.337 114.171 358.345 115.333C359.477 116.65 360.779 117.781 362.221 118.71C363.663 119.64 365.228 120.368 366.903 120.848L381.569 125.109L380.592 128.518L390.53 131.384C392.871 132.066 395.29 131.26 396.778 129.525L408.08 132.809C411.335 133.754 414.839 132.732 417.056 130.16L418.638 128.347L423.227 129.68C423.893 129.866 424.575 129.494 424.777 128.828C424.963 128.161 424.591 127.464 423.924 127.278L420.451 126.271L427.986 117.61L431.304 118.571C431.97 118.757 432.653 118.385 432.854 117.719C433.04 117.053 432.668 116.355 432.002 116.169L431.986 116.2Z" fill="#A1CFEC"/>
<path d="M278.193 115.999C278.193 119.299 275.511 121.979 272.209 121.979C268.907 121.979 266.225 119.299 266.225 115.999C266.225 112.699 268.907 110.019 272.209 110.019C275.511 110.019 278.193 112.699 278.193 115.999Z" fill="#C9E4F5"/>
<path d="M258.55 131.942C258.55 133.739 257.093 135.211 255.279 135.211C253.465 135.211 252.008 133.755 252.008 131.942C252.008 130.129 253.465 128.673 255.279 128.673C257.093 128.673 258.55 130.129 258.55 131.942Z" fill="#C9E4F5"/>
<path d="M347.059 240.223C347.059 242.02 345.602 243.492 343.788 243.492C341.974 243.492 340.517 242.036 340.517 240.223C340.517 238.41 341.974 236.954 343.788 236.954C345.602 236.954 347.059 238.41 347.059 240.223Z" fill="#C9E4F5"/>
<path d="M435.909 399.619C428.963 404.174 421.429 407.629 413.538 409.969C405.693 412.324 397.461 413.532 389.151 413.532H216.04V350.319H358.33C367.725 350.319 376.795 353.495 384.159 359.321C384.159 359.321 384.159 359.321 384.19 359.336C384.469 359.538 384.717 359.755 384.98 359.972L395.972 369.639C402.065 369.639 408.08 370.492 413.894 372.118C419.692 373.761 425.274 376.224 430.483 379.4L435.676 382.561C441.971 386.45 442.095 395.56 435.909 399.604V399.619Z" fill="#C9E4F5"/>
<path d="M315.463 394.459C315.463 397.774 312.781 400.455 309.463 400.455H218.288C217.497 400.455 216.738 400.3 216.04 400.005V388.912C216.738 388.633 217.497 388.463 218.288 388.463H309.463C311.122 388.463 312.626 389.129 313.696 390.214C314.781 391.298 315.463 392.801 315.463 394.443V394.459Z" fill="#A1CFEC"/>
<path d="M361.369 359.32C361.369 365.021 365.989 369.654 371.694 369.654H395.972L384.298 359.382C384.252 359.366 384.205 359.351 384.159 359.32H361.369Z" fill="#A1CFEC"/>
<path d="M332.843 369.654H339.106C340.99 369.654 342.517 368.128 342.517 366.246V362.729C342.517 360.846 340.99 359.32 339.106 359.32H332.843C330.959 359.32 329.432 360.846 329.432 362.729V366.246C329.432 368.128 330.959 369.654 332.843 369.654Z" fill="#A1CFEC"/>
<path d="M310.998 369.654H317.262C319.145 369.654 320.672 368.128 320.672 366.246V362.729C320.672 360.846 319.145 359.32 317.262 359.32H310.998C309.115 359.32 307.588 360.846 307.588 362.729V366.246C307.588 368.128 309.115 369.654 310.998 369.654Z" fill="#A1CFEC"/>
<path d="M289.154 369.654H295.417C297.301 369.654 298.828 368.128 298.828 366.246V362.729C298.828 360.846 297.301 359.32 295.417 359.32H289.154C287.27 359.32 285.743 360.846 285.743 362.729V366.246C285.743 368.128 287.27 369.654 289.154 369.654Z" fill="#A1CFEC"/>
<path d="M267.294 369.654H273.558C275.441 369.654 276.968 368.128 276.968 366.246V362.729C276.968 360.846 275.441 359.32 273.558 359.32H267.294C265.41 359.32 263.883 360.846 263.883 362.729V366.246C263.883 368.128 265.41 369.654 267.294 369.654Z" fill="#A1CFEC"/>
<path d="M245.45 369.654H251.713C253.597 369.654 255.124 368.128 255.124 366.246V362.729C255.124 360.846 253.597 359.32 251.713 359.32H245.45C243.566 359.32 242.039 360.846 242.039 362.729V366.246C242.039 368.128 243.566 369.654 245.45 369.654Z" fill="#A1CFEC"/>
<path d="M223.606 369.654H229.87C231.753 369.654 233.28 368.128 233.28 366.246V362.729C233.28 360.846 231.753 359.32 229.87 359.32H223.606C221.722 359.32 220.195 360.846 220.195 362.729V366.246C220.195 368.128 221.722 369.654 223.606 369.654Z" fill="#A1CFEC"/>
<path d="M-241.527 407.848V416.772L869.678 416.772V407.848L-241.527 407.848Z" fill="#81AECA"/>
<path d="M869.321 198.346H216.04V202.699H869.321V198.346Z" fill="#6189A0"/>
<path d="M869.321 202.699H216.04V207.053H869.321V202.699Z" fill="#81AECA"/>
<path d="M442.73 412.168L438.389 410.201V35.5884H442.73V412.168Z" fill="#6189A0"/>
<path d="M446.528 412.168L442.172 410.201V35.5884H446.528V412.168Z" fill="#81AECA"/>
<path d="M-241.263 44.4043V408.605H-28.7739H8.0311H156.166H329.137H317.354V44.4043H-241.263Z" fill="#52595E"/>
<path d="M-241.263 74.9409V408.605H-28.7739H8.0311H156.166H329.137H317.354V74.9409H-241.263Z" fill="#E09B74"/>
<path d="M296.518 74.9409H-131.872V408.713H-97.6866V408.605H-6.32524V408.713H296.518V74.9409Z" fill="#9B837A"/>
<g style="mix-blend-mode:multiply" opacity="0.57">
<path d="M26.1389 74.9409H-82.3228V346.43H26.1389V74.9409Z" fill="#9B837A"/>
</g>
<g style="mix-blend-mode:multiply" opacity="0.57">
<path d="M296.518 74.9409H206.645V346.43H296.518V74.9409Z" fill="#9B837A"/>
</g>
<g style="mix-blend-mode:multiply" opacity="0.7">
<path d="M296.503 74.9409H-191.838V124.55H296.503V74.9409Z" fill="#9B837A"/>
</g>
<path style="mix-blend-mode:screen" opacity="0.42" d="M34.6663 74.8633L-147.483 408.604H-97.6861H-21.8126L160.337 74.8633H34.6663Z" fill="url(#paint1_linear_76_90450)"/>
<path style="mix-blend-mode:screen" opacity="0.42" d="M269.526 74.8633L87.7953 408.31H41.6572L221.899 74.8633H269.526Z" fill="url(#paint2_linear_76_90450)"/>
<g style="mix-blend-mode:multiply" opacity="0.44">
<path d="M296.518 181.18H242.628V243.168H296.518V181.18Z" fill="#9B837A"/>
</g>
<g style="mix-blend-mode:overlay">
<path d="M72.9125 276.262H-1.03857V359.88H72.9125V276.262Z" fill="#F4BD7B"/>
</g>
<path d="M-152.352 149.433L296.518 149.433V74.9413L-152.352 74.9413V149.433Z" fill="#F7DCB6"/>
<g style="mix-blend-mode:multiply">
<path d="M93.656 157.304H39.1616V379.214H93.656V157.304Z" fill="#FAF5F0"/>
<path d="M93.718 204.559H39.1616V209.315H93.718V204.559Z" fill="#E09B74"/>
<path d="M93.656 261.187H39.1616V265.943H93.656V261.187Z" fill="#E09B74"/>
<path d="M93.656 317.814H39.1616V322.571H93.656V317.814Z" fill="#E09B74"/>
<path d="M18.7437 282.475H-55.626V287.232H18.7437V282.475Z" fill="#FAF5F0"/>
<path d="M93.656 374.427H39.1616V379.199H93.656V374.427Z" fill="#E09B74"/>
<path d="M83.1449 204.558H66.5407C65.378 204.558 64.4013 203.69 64.2617 202.544L63.4556 195.866L65.2695 187.174H84.3851L86.199 195.866L85.3929 202.544C85.2533 203.69 84.2766 204.558 83.1139 204.558H83.1449Z" fill="#684329"/>
<path d="M81.3462 195.867H80.2609V187.237L77.9354 178.855C77.8114 178.592 76.5867 178.142 74.5247 178.158C72.4783 178.173 71.455 178.654 71.331 178.855L69.6101 187.206V195.851H68.5249V187.051L70.2923 178.53C70.7264 177.259 73.393 177.089 74.5092 177.073C75.4394 177.073 78.4626 177.135 78.9587 178.483V178.53L81.3462 187.082V195.851V195.867Z" fill="#935F3A"/>
<path d="M70.1838 186.26H68.0908V189.451H70.1838V186.26Z" fill="#DC9461"/>
<path d="M81.8576 186.26H79.7646V189.451H81.8576V186.26Z" fill="#DC9461"/>
<path d="M79.7492 317.814H68.0287C66.4008 317.814 65.021 316.605 64.835 314.978L63.4087 303.142H84.3537L82.9274 314.978C82.7259 316.59 81.3616 317.814 79.7337 317.814H79.7492Z" fill="#D03F47"/>
<path d="M79.3771 310.471H78.4625V303.205L74.8967 292.375C74.7416 291.941 74.23 291.802 73.8424 291.802C73.4548 291.802 72.9587 291.972 72.8037 292.406L69.486 303.205V310.471H68.5713V303.065L71.9355 292.111C72.1991 291.368 72.9432 290.887 73.8269 290.872C74.7261 290.856 75.4858 291.337 75.7649 292.065L79.3771 303.05V310.455V310.471Z" fill="#EA5F66"/>
<path d="M69.9516 302.368H68.1997V305.063H69.9516V302.368Z" fill="#EF8C93"/>
<path d="M79.8113 302.368H78.0439V305.063H79.8113V302.368Z" fill="#EF8C93"/>
<path d="M76.587 261.185H57.3163C55.5644 261.185 54.2621 259.605 54.5722 257.885L56.7737 245.987C57.0217 244.67 58.169 243.709 59.5178 243.709H74.37C75.7188 243.709 76.866 244.67 77.1141 245.987L79.3156 257.885C79.6411 259.605 78.3234 261.185 76.5715 261.185H76.587Z" fill="#745353"/>
<path d="M73.2228 246.359H71.7499V241.432C71.7499 239.356 70.0601 237.667 67.9826 237.667H66.0912C64.0137 237.667 62.3239 239.356 62.3239 241.432V246.359H60.8511V241.432C60.8511 238.55 63.1921 236.195 66.0912 236.195H67.9826C70.8662 236.195 73.2228 238.535 73.2228 241.432V246.359Z" fill="#C88269"/>
<path d="M72.4784 247.567C71.8583 247.567 71.3467 247.056 71.3467 246.436V244.917H73.6102V246.436C73.6102 247.056 73.0986 247.567 72.4784 247.567Z" fill="#E09B74"/>
<path d="M61.7499 247.691C61.1298 247.691 60.6182 247.18 60.6182 246.56V245.042H62.8817V246.56C62.8817 247.18 62.3701 247.691 61.7499 247.691Z" fill="#E09B74"/>
<path d="M71.2691 253.563H62.6492C62.1841 253.563 61.812 253.191 61.812 252.726C61.812 252.262 62.1841 251.89 62.6492 251.89H71.2691C71.7342 251.89 72.1063 252.262 72.1063 252.726C72.1063 253.191 71.7342 253.563 71.2691 253.563Z" fill="#E09B74"/>
<path d="M76.416 374.427H58.4011C57.1453 374.427 56.0756 373.482 55.9361 372.242L55.0679 364.992L57.0368 355.556H77.7803L79.7492 364.992L78.8811 372.242C78.726 373.497 77.6718 374.427 76.416 374.427Z" fill="#8C8172"/>
<path d="M74.4789 364.991H73.3007V355.633L70.7891 346.538C70.6496 346.244 69.3318 345.764 67.0838 345.795C64.8513 345.826 63.7506 346.321 63.6265 346.554L61.7661 355.617V364.991H60.5879V355.431L62.5103 346.182C62.9909 344.803 65.8745 344.617 67.0838 344.602C68.0915 344.602 71.3782 344.664 71.9209 346.135V346.182L74.5099 355.462V364.975L74.4789 364.991Z" fill="#A29685"/>
<path d="M62.3548 354.563H60.0913V358.034H62.3548V354.563Z" fill="#6D655A"/>
<path d="M75.0213 354.563H72.7578V358.034H75.0213V354.563Z" fill="#6D655A"/>
<path d="M67.8896 198.594V203.134C67.8896 203.924 67.254 204.559 66.4633 204.559H48.0763C47.2857 204.559 46.65 203.924 46.65 203.134V198.594C46.65 197.804 47.2857 197.169 48.0763 197.169H66.4633C67.254 197.169 67.8896 197.804 67.8896 198.594Z" fill="#57565B"/>
<path d="M67.9053 196.734V197.912C67.9053 199.771 66.4015 201.274 64.5411 201.274H50.0299C48.1695 201.274 46.6657 199.771 46.6657 197.912V196.734C46.6657 195.944 47.3013 195.309 48.092 195.309H66.479C67.2697 195.309 67.9053 195.944 67.9053 196.734Z" fill="#67656B"/>
<path d="M53.6883 298.943H57.7346C58.4323 298.943 59.0059 299.517 59.0059 300.214V316.544C59.0059 317.241 58.4323 317.814 57.7346 317.814H53.6883C52.9906 317.814 52.417 317.241 52.417 316.544V300.214C52.417 299.517 52.9906 298.943 53.6883 298.943Z" fill="#954435"/>
<path d="M53.0838 317.814H52.0296C51.3319 317.814 50.7583 317.241 50.7583 316.544V300.214C50.7583 299.517 51.3319 298.943 52.0296 298.943H53.0838C54.7427 298.943 56.076 300.276 56.076 301.934V314.824C56.076 316.482 54.7427 317.814 53.0838 317.814Z" fill="#C05847"/>
<path opacity="0.2" d="M18.744 287.231H-55.6567V292.267H18.744V287.231Z" fill="#221F20"/>
<path d="M17.8288 315.088V334.237H11.9841V373.048H-22.0458V334.237H-27.8906V315.088C-27.8906 308.921 -23.5652 303.762 -17.7979 302.461C-16.8832 302.244 -15.922 302.135 -14.9453 302.135H4.88351C5.86023 302.135 6.82143 302.244 7.73613 302.461C13.5034 303.762 17.8133 308.906 17.8133 315.088H17.8288Z" fill="#F7DCB6"/>
<path opacity="0.2" d="M93.718 209.33H39.1616V214.365H93.718V209.33Z" fill="#221F20"/>
<path opacity="0.2" d="M93.656 265.943H39.1616V270.994H93.656V265.943Z" fill="#221F20"/>
<path opacity="0.2" d="M93.656 322.571H39.1616V327.622H93.656V322.571Z" fill="#221F20"/>
</g>
<g style="mix-blend-mode:multiply">
<path d="M290.007 157.304H235.513V379.214H290.007V157.304Z" fill="#FAF5F0"/>
<path d="M290.069 204.559H235.512V209.315H290.069V204.559Z" fill="#E09B74"/>
<path d="M290.007 261.187H235.512V265.943H290.007V261.187Z" fill="#E09B74"/>
<path d="M290.007 317.814H235.513V322.571H290.007V317.814Z" fill="#E09B74"/>
<path d="M215.094 282.475H140.724V287.232H215.094V282.475Z" fill="#FAF5F0"/>
<path d="M290.007 374.427H235.512V379.199H290.007V374.427Z" fill="#E09B74"/>
<path d="M279.479 204.558H262.891C261.728 204.558 260.751 203.69 260.612 202.544L259.806 195.866L261.62 187.174H280.735L282.549 195.866L281.743 202.544C281.603 203.69 280.627 204.558 279.464 204.558H279.479Z" fill="#684329"/>
<path d="M277.697 195.867H276.612V187.237L274.286 178.855C274.162 178.592 272.937 178.142 270.875 178.158C268.829 178.173 267.806 178.654 267.682 178.855L265.961 187.206V195.851H264.875V187.051L266.643 178.53C267.077 177.259 269.744 177.089 270.86 177.073C271.79 177.073 274.813 177.135 275.309 178.483V178.53L277.697 187.082V195.851V195.867Z" fill="#935F3A"/>
<path d="M266.534 186.26H264.441V189.451H266.534V186.26Z" fill="#DC9461"/>
<path d="M278.208 186.26H276.115V189.451H278.208V186.26Z" fill="#DC9461"/>
<path d="M276.1 317.814H264.379C262.751 317.814 261.387 316.605 261.186 314.978L259.759 303.142H280.704L279.278 314.978C279.092 316.59 277.712 317.814 276.084 317.814H276.1Z" fill="#D03F47"/>
<path d="M275.728 310.471H274.813V303.205L271.247 292.375C271.092 291.941 270.581 291.802 270.193 291.802C269.805 291.802 269.309 291.972 269.154 292.406L265.837 303.205V310.471H264.922V303.065L268.286 292.111C268.55 291.368 269.278 290.887 270.178 290.872C271.077 290.856 271.836 291.337 272.115 292.065L275.728 303.05V310.455V310.471Z" fill="#EA5F66"/>
<path d="M266.317 302.368H264.55V305.063H266.317V302.368Z" fill="#EF8C93"/>
<path d="M276.131 302.368H274.379V305.063H276.131V302.368Z" fill="#EF8C93"/>
<path d="M272.937 261.185H253.666C251.914 261.185 250.612 259.605 250.922 257.885L253.124 245.987C253.372 244.67 254.519 243.709 255.868 243.709H270.72C272.069 243.709 273.216 244.67 273.464 245.987L275.666 257.885C275.991 259.605 274.673 261.185 272.922 261.185H272.937Z" fill="#745353"/>
<path d="M269.558 246.359H268.085V241.432C268.085 239.356 266.395 237.667 264.318 237.667H262.426C260.349 237.667 258.659 239.356 258.659 241.432V246.359H257.186V241.432C257.186 238.55 259.527 236.195 262.426 236.195H264.318C267.201 236.195 269.558 238.535 269.558 241.432V246.359Z" fill="#C88269"/>
<path d="M268.829 247.567C268.209 247.567 267.697 247.056 267.697 246.436V244.917H269.961V246.436C269.961 247.056 269.449 247.567 268.829 247.567Z" fill="#E09B74"/>
<path d="M258.085 247.691C257.465 247.691 256.953 247.18 256.953 246.56V245.042H259.217V246.56C259.217 247.18 258.705 247.691 258.085 247.691Z" fill="#E09B74"/>
<path d="M267.604 253.563H258.984C258.519 253.563 258.147 253.191 258.147 252.726C258.147 252.262 258.519 251.89 258.984 251.89H267.604C268.069 251.89 268.441 252.262 268.441 252.726C268.441 253.191 268.069 253.563 267.604 253.563Z" fill="#E09B74"/>
<path d="M272.751 374.427H254.736C253.48 374.427 252.411 373.482 252.271 372.242L251.403 364.992L253.372 355.556H274.115L276.084 364.992L275.216 372.242C275.061 373.497 274.007 374.427 272.751 374.427Z" fill="#8C8172"/>
<path d="M270.813 364.991H269.635V355.633L267.124 346.538C266.984 346.244 265.666 345.764 263.418 345.795C261.186 345.826 260.085 346.321 259.961 346.554L258.101 355.617V364.991H256.922V355.431L258.845 346.182C259.325 344.803 262.209 344.617 263.418 344.602C264.426 344.602 267.713 344.664 268.255 346.135V346.182L270.844 355.462V364.975L270.813 364.991Z" fill="#A29685"/>
<path d="M258.69 354.563H256.426V358.034H258.69V354.563Z" fill="#6D655A"/>
<path d="M271.356 354.563H269.092V358.034H271.356V354.563Z" fill="#6D655A"/>
<path d="M264.24 203.149V198.594C264.24 197.807 263.602 197.169 262.814 197.169H244.427C243.639 197.169 243.001 197.807 243.001 198.594V203.149C243.001 203.937 243.639 204.575 244.427 204.575H262.814C263.602 204.575 264.24 203.937 264.24 203.149Z" fill="#57565B"/>
<path d="M264.24 196.75V197.927C264.24 199.786 262.736 201.289 260.876 201.289H246.364C244.504 201.289 243 199.786 243 197.927V196.75C243 195.959 243.636 195.324 244.426 195.324H262.813C263.604 195.324 264.24 195.959 264.24 196.75Z" fill="#67656B"/>
<path d="M254.069 298.943H250.023C249.321 298.943 248.751 299.512 248.751 300.214V316.544C248.751 317.245 249.321 317.814 250.023 317.814H254.069C254.771 317.814 255.34 317.245 255.34 316.544V300.214C255.34 299.512 254.771 298.943 254.069 298.943Z" fill="#954435"/>
<path d="M249.434 317.814H248.38C247.682 317.814 247.108 317.241 247.108 316.544V300.214C247.108 299.517 247.682 298.943 248.38 298.943H249.434C251.093 298.943 252.426 300.276 252.426 301.934V314.824C252.426 316.482 251.093 317.814 249.434 317.814Z" fill="#C05847"/>
<path opacity="0.2" d="M212.985 170.071H140.693V175.106H212.985V170.071Z" fill="#221F20"/>
<path opacity="0.2" d="M215.094 287.231H140.693V292.267H215.094V287.231Z" fill="#221F20"/>
<path d="M212.985 165.299H140.693V170.288H212.985V165.299Z" fill="#FAF5F0"/>
<path d="M157.08 178.359H152.677V185.827H157.08V178.359Z" fill="#804721"/>
<path d="M153.639 185.331H155.856C158.306 185.331 160.274 187.314 160.274 189.746V265.725H149.205V189.746C149.205 187.298 151.189 185.331 153.624 185.331H153.639Z" fill="#F7DCB6"/>
<path d="M155.282 165.329H154.476V178.359H155.282V165.329Z" fill="#4B4B4C"/>
<path d="M172.955 178.359H168.552V185.827H172.955V178.359Z" fill="#804721"/>
<path d="M169.529 185.331H171.746C174.196 185.331 176.165 187.314 176.165 189.746V265.725H165.111V189.746C165.111 187.298 167.095 185.331 169.529 185.331Z" fill="#F7DCB6"/>
<path d="M171.172 165.329H170.367V178.359H171.172V165.329Z" fill="#4B4B4C"/>
<path d="M187.452 178.359H183.049V185.827H187.452V178.359Z" fill="#804721"/>
<path d="M184.01 185.331H186.227C188.676 185.331 190.645 187.314 190.645 189.746V265.725H179.591V189.746C179.591 187.298 181.576 185.331 184.01 185.331Z" fill="#C8A09F"/>
<path d="M185.652 165.329H184.847V178.359H185.652V165.329Z" fill="#4B4B4C"/>
<path d="M202.195 178.359H197.792V185.827H202.195V178.359Z" fill="#804721"/>
<path d="M199.328 185.331H200.413C203.172 185.331 205.405 187.562 205.405 190.319V270.342H194.335V190.319C194.335 187.562 196.568 185.331 199.328 185.331Z" fill="#6D4B37"/>
<path d="M200.396 165.329H199.59V178.359H200.396V165.329Z" fill="#4B4B4C"/>
<path d="M195.312 178.359H190.909V185.827H195.312V178.359Z" fill="#804721"/>
<path d="M191.87 185.331H194.087C196.537 185.331 198.506 187.314 198.506 189.746V265.725H187.452V189.746C187.452 187.298 189.436 185.331 191.87 185.331Z" fill="#825E5D"/>
<path d="M193.513 165.329H192.708V178.359H193.513V165.329Z" fill="#4B4B4C"/>
<path d="M162.196 294.979H157.964V302.136H162.196V294.979Z" fill="#986533"/>
<path d="M160.475 282.475H159.701V294.978H160.475V282.475Z" fill="#4B4B4C"/>
<path d="M172.475 302.461C171.56 302.244 170.599 302.135 169.622 302.135H149.778C148.801 302.135 147.84 302.244 146.925 302.461C144.522 303.003 142.383 304.211 140.693 305.885V334.237H142.677V373.048H176.707V334.237H182.552V315.088C182.552 308.921 178.242 303.762 172.475 302.461Z" fill="#525152"/>
<path d="M160.088 298.556L172.475 302.46L160.088 307.17L146.926 302.46L160.088 298.556Z" fill="#986533"/>
<path d="M170.506 294.979H166.274V302.136H170.506V294.979Z" fill="#986533"/>
<path d="M168.769 282.475H167.995V294.978H168.769V282.475Z" fill="#4B4B4C"/>
<path d="M190.862 315.088V334.237H185.017V373.048H150.987V334.237H145.143V315.088C145.143 308.921 149.468 303.762 155.235 302.461C156.15 302.244 157.111 302.135 158.088 302.135H177.932C178.909 302.135 179.87 302.244 180.785 302.461C186.552 303.762 190.862 308.906 190.862 315.088Z" fill="#6E6C6E"/>
<path d="M168.383 298.556L180.77 302.46L168.383 307.17L155.22 302.46L168.383 298.556Z" fill="#986533"/>
<path d="M176.428 294.979H172.196V302.136H176.428V294.979Z" fill="#804721"/>
<path d="M174.707 282.475H173.933V294.978H174.707V282.475Z" fill="#4B4B4C"/>
<path d="M196.784 315.088V334.237H190.94V373.048H156.91V334.237H151.065V315.088C151.065 308.921 155.39 303.762 161.158 302.461C162.072 302.244 163.034 302.135 164.01 302.135H183.855C184.831 302.135 185.793 302.244 186.707 302.461C192.474 303.762 196.784 308.906 196.784 315.088Z" fill="#E09B74"/>
<path d="M174.305 298.556L186.707 302.46L174.305 307.17L161.158 302.46L174.305 298.556Z" fill="#804721"/>
<path d="M183.731 294.979H179.499V302.136H183.731V294.979Z" fill="#986533"/>
<path d="M182.01 282.475H181.235V294.978H182.01V282.475Z" fill="#4B4B4C"/>
<path d="M204.087 315.088V334.237H198.242V373.048H164.212V334.237H158.367V315.088C158.367 308.921 162.693 303.762 168.46 302.461C169.375 302.244 170.336 302.135 171.312 302.135H191.157C192.134 302.135 193.095 302.244 194.009 302.461C199.777 303.762 204.087 308.906 204.087 315.088Z" fill="#DE8957"/>
<path d="M181.622 298.556L194.009 302.46L181.622 307.17L168.459 302.46L181.622 298.556Z" fill="#986533"/>
<path d="M193.823 294.979H189.591V302.136H193.823V294.979Z" fill="#804721"/>
<path d="M192.086 282.475H191.312V294.978H192.086V282.475Z" fill="#4B4B4C"/>
<path d="M214.163 315.088V334.237H208.318V373.048H174.289V334.237H168.444V315.088C168.444 308.921 172.769 303.762 178.537 302.461C179.451 302.244 180.412 302.135 181.389 302.135H201.233C202.21 302.135 203.171 302.244 204.086 302.461C209.853 303.762 214.163 308.906 214.163 315.088Z" fill="#F7DCB6"/>
<path d="M191.7 298.556L204.087 302.46L191.7 307.17L178.537 302.46L191.7 298.556Z" fill="#804721"/>
<path opacity="0.2" d="M290.069 209.33H235.512V214.365H290.069V209.33Z" fill="#221F20"/>
<path opacity="0.2" d="M290.007 265.943H235.513V270.994H290.007V265.943Z" fill="#221F20"/>
<path opacity="0.2" d="M290.007 322.571H235.513V327.622H290.007V322.571Z" fill="#221F20"/>
</g>
<path d="M371.182 283.418H363.663C340.051 283.418 320.889 264.268 320.889 240.672V227.332C320.889 222.374 324.92 218.346 329.881 218.346H342.966C358.547 218.346 371.182 230.989 371.182 246.544V283.418Z" fill="#F6D2A0"/>
<path d="M374.081 338.342V358.344C374.081 358.344 385.134 356.422 378.778 341.347L374.081 338.357V338.342Z" fill="#E69392"/>
<path d="M378.778 341.347L374.081 338.357L389.77 302.691L399.444 308.858C381.91 336.25 378.778 341.347 378.778 341.347Z" fill="#E96094"/>
<path d="M374.391 267.678C374.391 267.678 380.825 273.302 399.444 308.905L389.476 313.135L367.895 278.027L374.391 267.678Z" fill="#E96094"/>
<path d="M327.23 266.159C327.23 266.159 321.029 283.186 324.331 328.349C324.331 328.349 328.92 328.597 332.3 328.179L334.734 322.431L335.865 275.393L327.23 266.159Z" fill="#E96094"/>
<path d="M340.671 486.567H352.5C352.5 486.567 356.113 474.683 360.407 455.89C363.275 443.34 366.453 427.677 369.043 410.448C372.128 390.044 374.391 367.392 374.391 344.958H347.601L344.33 411.874L342.625 446.826L340.687 486.551L340.671 486.567Z" fill="#D58483"/>
<path d="M374.375 344.972H337.059C337.059 344.972 343.927 328.937 327.54 286.594L327.229 266.158L341.648 261.479L358.422 260.627L374.375 267.676V344.972Z" fill="#E96094"/>
<path d="M358.423 261.479C358.423 261.479 358.919 264.485 352.764 264.485C346.609 264.485 341.726 261.479 341.726 261.479V242.035H358.407V261.479H358.423Z" fill="#E69392"/>
<path d="M341.741 259.652V251.054H356.857C356.857 251.054 355.679 259.652 341.741 259.652Z" fill="#D16F6D"/>
<path d="M336.159 412.354C336.826 415.36 337.477 418.458 338.066 421.696C339.756 430.884 341.276 439.328 342.609 446.858C346.965 471.523 349.368 486.567 349.368 486.567H360.407V344.974H337.059C324.795 371.514 330.935 388.789 336.159 412.354Z" fill="#E69392"/>
<path d="M336.159 412.354L344.329 411.889L360.422 410.96L369.057 410.464C372.143 390.059 374.406 367.408 374.406 344.974H337.089C324.826 371.514 330.966 388.789 336.19 412.354H336.159Z" fill="#404264"/>
<path d="M333.307 361.364L327.307 373.743C325.85 376.764 321.137 375.664 321.354 372.318C321.524 369.576 323.121 366.09 327.772 361.999L333.307 361.349V361.364Z" fill="#E69392"/>
<path d="M327.773 362.016L333.307 361.365L334.734 322.431C328.439 323.174 323.54 321.346 324.284 327.636C326.92 350.009 327.773 362.016 327.773 362.016Z" fill="#E96094"/>
<path d="M360.035 246.358H358.422V235.296H362.825V243.57C362.825 245.119 361.569 246.358 360.035 246.358Z" fill="#EC9C9A"/>
<path d="M361.353 226.14V236.644H358.423V251.177C358.423 251.177 348.779 261.278 339.71 256.243C335.741 254.043 333.307 249.147 333.307 243.926V226.14C333.307 223.087 333.974 220.221 335.121 217.758C337.493 212.676 341.958 209.236 347.074 209.236H347.586C355.182 209.236 361.353 216.813 361.353 226.14Z" fill="#EC9C9A"/>
<path d="M338.547 243.539C337.85 243.539 337.183 243.198 336.702 242.594C336.191 241.943 335.958 241.06 336.067 240.177L336.191 239.17L337.508 239.371L337.384 240.378C337.322 240.843 337.446 241.292 337.71 241.633C337.927 241.912 338.222 242.067 338.547 242.067V243.539Z" fill="#D16F6D"/>
<path d="M350.035 247.319C350.035 247.319 348.95 252.928 344.051 252.928C339.152 252.928 338.066 247.319 338.066 247.319H350.02H350.035Z" fill="white"/>
<path d="M330.811 227.564C330.811 227.564 354.128 225.488 371.182 255.266V226.867C371.182 215.944 362.143 207.098 350.996 207.098C339.85 207.098 330.811 215.944 330.811 226.867V227.564Z" fill="#F6D2A0"/>
<path d="M360.236 275.563H357.012V259.032H371.182V264.625C371.182 270.668 366.267 275.563 360.236 275.563Z" fill="#F6D2A0"/>
<path d="M349.461 293.985C357.368 293.985 363.787 287.57 363.787 279.669V257.126H359.26C353.849 257.126 349.461 261.511 349.461 266.918V293.985Z" fill="#F6D2A0"/>
<path d="M222.908 238.21C227.714 238.21 231.621 234.321 231.621 229.502V215.419H219.109" fill="#AD3C49"/>
<path d="M255.821 239.96H224.226V209.469C224.226 204.372 228.365 200.235 233.466 200.235H242.907C252.318 200.235 259.93 207.858 259.93 217.247L255.821 239.96Z" fill="#AD3C49"/>
<path d="M240.179 242.595H227.203V213.839C227.203 209.036 231.342 205.132 236.443 205.132H245.884C255.295 205.132 262.907 212.321 262.907 221.167C262.907 232.989 252.737 242.579 240.179 242.579V242.595Z" fill="#AD3C49"/>
<path d="M311.339 288.997L283.139 316.699L278.891 306.768L306.781 283.296L311.339 288.997Z" fill="#F19F9E"/>
<path d="M258.829 258.66L255.496 260.969C255.496 260.969 282.068 315.164 283.138 316.714L291.68 308.316L269.805 262.456L258.844 258.66H258.829Z" fill="#F19F9E"/>
<path d="M284.642 293.583L272.89 300.493L261.976 275.905L269.79 262.457L284.642 293.583Z" fill="#563A42"/>
<path d="M306.504 279.547L314.806 274.087L317.405 278.035C319.74 281.581 318.753 286.366 315.205 288.7L311.307 291.264C310.245 291.962 308.806 291.666 308.107 290.604L305.141 286.101C303.709 283.926 304.316 280.986 306.491 279.556L306.504 279.547Z" fill="#F19F9E"/>
<path d="M269.79 262.456L251.341 253.749H229.218L210.056 262.456L213.745 358.158H266.488L269.79 262.456Z" fill="#563A42"/>
<path d="M252.441 254.26C252.441 254.26 249.248 258.489 240.271 258.489C231.295 258.489 228.101 254.26 228.101 254.26V226.914H252.441V254.26Z" fill="#F19F9E"/>
<path d="M252.441 252.788V241.617H232.333C232.333 241.617 235.884 251.672 252.441 252.788Z" fill="#D16F6D"/>
<path d="M213.745 358.158L212.814 488.503L223.388 487.713L245.092 358.158H213.745Z" fill="#C1DCED"/>
<path d="M266.472 358.158L264.162 483.452H251.279L236.535 358.158H266.472Z" fill="#C1DCED"/>
<path d="M210.056 262.457C210.056 262.457 202.413 283.187 202.413 317.179C202.413 319.039 202.444 322.323 202.49 324.213L214.118 322.788L215.296 304.568L210.056 262.457Z" fill="#F19F9E"/>
<path d="M263.557 277.718H244.721C243.051 277.718 241.698 279.07 241.698 280.739V312.128C241.698 313.797 243.051 315.15 244.721 315.15H263.557C265.227 315.15 266.581 313.797 266.581 312.128V280.739C266.581 279.07 265.227 277.718 263.557 277.718Z" fill="white"/>
<path d="M263.991 281.591C263.991 282.149 263.542 282.598 262.984 282.598C262.426 282.598 261.976 282.149 261.976 281.591C261.976 281.033 262.426 280.584 262.984 280.584C263.542 280.584 263.991 281.033 263.991 281.591Z" fill="#192636"/>
<path d="M242.458 306.007H252.396V310.732C252.396 314.977 248.938 318.432 244.691 318.432H237.729V310.732C237.729 308.114 239.853 306.007 242.458 306.007Z" fill="#F19F9E"/>
<path d="M239.171 318.434L214.118 322.788L211.746 311.137H239.171V318.434Z" fill="#F19F9E"/>
<path d="M257.278 248.219C240.736 253.967 230.892 241.944 230.892 241.944V215.637C230.892 212.476 233.186 209.904 236.008 209.904H245.48C255.356 209.904 257.294 218.131 257.278 223.771V248.219Z" fill="#F19F9E"/>
<path d="M253.651 234.677H250.379V233.205H252.023L251.666 230.029L253.124 229.874L253.651 234.677Z" fill="#D16F6D"/>
<path d="M216.645 372.661C223.311 372.661 228.738 367.238 228.738 360.576H227.234C227.234 366.417 222.49 371.158 216.645 371.158V372.661Z" fill="#AEC7D7"/>
<path d="M263.356 372.367V371.452C261.557 371.452 259.557 366.99 259.557 360.576H258.643C258.643 367.192 260.704 372.367 263.356 372.367Z" fill="#AEC7D7"/>
<path d="M241.791 380.749L245.031 377.526V365.317H244.101V377.139L241.14 380.098L241.791 380.749Z" fill="#AEC7D7"/>
<path d="M234.985 224.374H219.125V215.496C219.125 210.724 222.272 206.851 226.148 206.851H235.233C237.791 206.851 239.853 209.392 239.853 212.537C239.853 219.075 235.311 215.434 234.985 224.374Z" fill="#AD3C49"/>
<path d="M230.458 232.679C232.954 232.679 234.985 230.65 234.985 228.155V224.375H230.458V232.679Z" fill="#AD3C49"/>
<path d="M227.264 223.275C225.466 223.275 224.008 224.732 224.008 226.529V233.238C224.008 235.035 225.466 236.491 227.264 236.491H230.551V226.575C230.551 224.763 229.078 223.291 227.264 223.291V223.275Z" fill="#F19F9E"/>
<path d="M215.296 304.568L201.653 303.515C201.653 303.515 206.986 266.253 210.056 262.458L215.296 304.568Z" fill="#563A42"/>
<path style="mix-blend-mode:screen" d="M204.366 355.805H34.4336L109.222 44.374H129.578L204.366 355.805Z" fill="url(#paint3_linear_76_90450)"/>
<path d="M326.982 362.667C326.982 362.667 321.695 367.966 320.889 369.717C320.099 371.468 318.951 375.852 322.905 376.209C326.858 376.565 328.439 375.961 328.998 374.071C329.556 372.18 330.672 365.906 330.672 365.906L326.967 362.683L326.982 362.667Z" fill="#E69392"/>
<path d="M313.788 391.206C313.494 391.144 313.246 390.897 313.215 390.587C313.168 390.137 312.083 379.431 316.998 373.776C318.858 371.638 321.323 370.523 324.346 370.43C332.873 370.166 334.067 377.913 335.121 384.73C335.741 388.712 336.315 392.492 338.129 394.77C338.377 395.08 338.315 395.529 338.005 395.777C337.695 396.025 337.245 395.963 336.997 395.653C334.95 393.066 334.315 388.929 333.71 384.932C332.656 378.084 331.664 371.623 324.393 371.84C321.788 371.917 319.664 372.878 318.083 374.691C313.571 379.865 314.626 390.308 314.641 390.401C314.688 390.788 314.393 391.144 314.005 391.191C313.928 391.191 313.85 391.191 313.788 391.191V391.206Z" fill="#5A8BC9"/>
<path d="M284.952 387.781L278.751 450.622L290.549 451.242L295.929 455.58L293.061 388.014L284.952 387.781Z" fill="#98AAD7"/>
<path d="M293.061 388.015H363.384L372.035 453.629L295.929 455.581L293.061 388.015Z" fill="#F18C37"/>
<path d="M318.595 393.19C318.285 393.19 318.006 392.988 317.913 392.694C317.773 392.26 314.61 381.972 318.331 375.465C319.742 373.017 321.944 371.422 324.874 370.74C333.199 368.819 335.881 376.178 338.253 382.67C339.633 386.465 340.951 390.044 343.168 391.935C343.462 392.198 343.509 392.647 343.245 392.942C342.982 393.236 342.532 393.283 342.237 393.019C339.726 390.881 338.3 386.961 336.904 383.15C334.532 376.643 332.284 370.492 325.199 372.134C322.672 372.723 320.765 374.071 319.572 376.178C316.161 382.127 319.246 392.167 319.277 392.26C319.401 392.632 319.184 393.035 318.812 393.159C318.734 393.174 318.672 393.19 318.595 393.19Z" fill="#84ACDC"/>
<path d="M290.549 451.243V388.015H293.061L295.929 455.581L290.549 451.243Z" fill="#98AAD7"/>
<path d="M324.92 364.79C324.92 364.79 321.246 366.649 320.378 367.873C319.51 369.113 317.959 370.739 318.905 370.941C319.866 371.142 322.688 369.035 322.688 369.035L324.92 364.79Z" fill="#E69392"/>
<path d="M320.905 372.52C320.905 372.52 324.238 370.088 326.3 370.956C328.362 371.823 328.533 375.077 327.897 375.759C327.261 376.44 322.052 377.184 320.657 375.356C319.262 373.527 320.905 372.52 320.905 372.52Z" fill="#E69392"/>
<path d="M153.778 409.782L153.964 347.065L157.685 341.441L191.467 341.72L193.327 345.671L193.141 409.782H191.312L191.544 345.903L189.312 343.687H159.018L155.7 348.01L155.189 409.782H153.778Z" fill="white"/>
<path d="M164.646 340.853L164.072 344.416H184.599L185.172 341.069L164.646 340.853Z" fill="#356A7C"/>
<path d="M147.173 494.686H198.427C200.542 494.686 202.257 492.972 202.257 490.859V411.223C202.257 409.11 200.542 407.396 198.427 407.396H147.173C145.058 407.396 143.344 409.11 143.344 411.223V490.859C143.344 492.972 145.058 494.686 147.173 494.686Z" fill="#356A7C"/>
<path d="M148.553 414.663L149.08 438.91C149.096 439.499 149.36 439.964 149.67 439.948L170.072 439.623C170.382 439.623 170.63 439.158 170.646 438.585L171.157 415.128C171.173 414.508 170.909 413.981 170.584 413.981L149.143 413.517C148.801 413.517 148.538 414.043 148.553 414.663Z" fill="#529AB0"/>
<path d="M150.972 415.687L151.22 417.128L169.746 417.298V416.493L150.972 415.687Z" fill="#366770"/>
<path d="M174.614 414.663L175.142 438.91C175.157 439.499 175.421 439.964 175.731 439.948L196.133 439.623C196.443 439.623 196.691 439.158 196.707 438.585L197.218 415.128C197.234 414.508 196.97 413.981 196.645 413.981L175.204 413.517C174.862 413.517 174.599 414.043 174.614 414.663Z" fill="#529AB0"/>
<path d="M177.033 415.687L177.281 417.128L195.807 417.298V416.493L177.033 415.687Z" fill="#366770"/>
<path d="M208.614 397.651L202.258 407.396H145.004L137.872 393.808L145.949 371.839L152.941 372.009L200.413 373.14L208.614 397.651Z" fill="#7DC1D2"/>
<path d="M208.613 397.65L202.257 407.396H155.685L158.971 393.808L152.026 371.978L200.412 373.14L208.613 397.65Z" fill="#89C8DA"/>
<path d="M157.561 377.168L166.026 390.756C167.576 393.235 170.274 394.737 173.204 394.737H192.382C199.219 394.737 208.335 392.63 199.312 381.46L195.668 376.254L193.002 376.424L194.009 378.175C202.753 391.701 193.42 390.446 187.142 390.802L175.312 391.453C172.506 391.608 169.793 390.353 168.103 388.106L159.856 377.184H157.577L157.561 377.168Z" fill="#6DB5CA"/>
</g>
<path d="M40.7681 41.9757V28.23H45.4984C46.5735 28.23 47.3875 28.2914 47.9404 28.4296C48.7237 28.6139 49.3994 28.9365 49.9523 29.4126C50.6742 30.0269 51.2117 30.8102 51.5803 31.7624C51.9336 32.7146 52.1179 33.8051 52.1179 35.0337C52.1179 36.0781 51.995 36.9996 51.7493 37.8136C51.5035 38.6122 51.1964 39.288 50.8124 39.8102C50.4285 40.3323 50.0138 40.747 49.553 41.0542C49.0923 41.3614 48.5547 41.5917 47.9097 41.7453C47.2646 41.8989 46.5274 41.9757 45.6981 41.9757H40.7681ZM42.5957 40.3477H45.5291C46.4353 40.3477 47.1418 40.2556 47.664 40.102C48.1861 39.933 48.5855 39.7027 48.8926 39.3955C49.3227 38.9655 49.6605 38.3818 49.9063 37.66C50.152 36.9382 50.2595 36.0474 50.2595 35.0184C50.2595 33.5747 50.0291 32.4842 49.553 31.701C49.0769 30.933 48.5087 30.4109 47.8329 30.1498C47.3414 29.9655 46.5582 29.8733 45.4831 29.8733H42.5957V40.3784V40.3477Z" fill="#595757"/>
<path d="M53.792 36.9999C53.792 35.1569 54.2988 33.79 55.3278 32.8993C56.1879 32.1621 57.2323 31.7935 58.4609 31.7935C59.8278 31.7935 60.949 32.2388 61.8244 33.145C62.6998 34.0358 63.1299 35.2798 63.1299 36.8617C63.1299 38.1364 62.9302 39.1501 62.5462 39.8873C62.1623 40.6245 61.6094 41.1928 60.8722 41.5921C60.135 41.9914 59.3363 42.2064 58.4609 42.2064C57.0633 42.2064 55.9422 41.761 55.0821 40.8702C54.222 39.9794 53.792 38.6893 53.792 37.0153V36.9999ZM55.5275 36.9999C55.5275 38.2747 55.8039 39.2269 56.3568 39.8566C56.9097 40.4863 57.6162 40.8088 58.4609 40.8088C59.3056 40.8088 59.9968 40.4863 60.5497 39.8566C61.1026 39.2115 61.379 38.244 61.379 36.9385C61.379 35.7098 61.1026 34.773 60.5343 34.1433C59.9814 33.5136 59.2749 33.1911 58.4456 33.1911C57.6162 33.1911 56.9097 33.5136 56.3415 34.1433C55.7886 34.773 55.5121 35.7252 55.5121 36.9999H55.5275Z" fill="#595757"/>
<path d="M65.0959 41.976V32.0238H66.6164V33.4368C67.3536 32.3464 68.398 31.7935 69.7802 31.7935C70.3792 31.7935 70.9321 31.901 71.4389 32.116C71.9457 32.331 72.3143 32.6074 72.5754 32.9607C72.8212 33.3139 73.0055 33.7286 73.0976 34.2047C73.159 34.5119 73.1898 35.0648 73.1898 35.8481V41.976H71.5003V35.9248C71.5003 35.2337 71.4389 34.7269 71.3007 34.389C71.1625 34.0511 70.9321 33.7747 70.5942 33.575C70.2563 33.3754 69.8724 33.2679 69.4116 33.2679C68.6898 33.2679 68.0754 33.4982 67.5533 33.959C67.0311 34.4197 66.77 35.2798 66.77 36.5545V41.9914H65.0806L65.0959 41.976Z" fill="#595757"/>
<path d="M75.7845 33.0986L75.3545 30.5337V28.23H77.2743V30.5337L76.8289 33.0986H75.7845Z" fill="#595757"/>
<path d="M83.1261 40.4708L83.3718 41.9606C82.8957 42.0527 82.4656 42.1141 82.097 42.1141C81.4827 42.1141 81.0066 42.022 80.6687 41.8223C80.3308 41.6227 80.1005 41.3769 79.9622 41.0544C79.824 40.7319 79.7626 40.0715 79.7626 39.0578V33.3292H78.5186V32.0237H79.7626V29.5664L81.4366 28.5527V32.0237H83.1261V33.3292H81.4366V39.15C81.4366 39.6261 81.4674 39.9333 81.5288 40.0715C81.5902 40.2097 81.6824 40.3172 81.8206 40.394C81.9588 40.4708 82.1431 40.5169 82.4042 40.5169C82.5885 40.5169 82.8342 40.5015 83.1414 40.4554L83.1261 40.4708Z" fill="#595757"/>
<path d="M90.1142 41.976V32.0238H91.6193V33.4214C91.9265 32.93 92.3412 32.546 92.8634 32.2388C93.3855 31.9317 93.9692 31.7935 94.6296 31.7935C95.3668 31.7935 95.9657 31.947 96.4418 32.2542C96.9179 32.5614 97.2405 32.9914 97.4401 33.5443C98.2234 32.3771 99.2524 31.7935 100.512 31.7935C101.495 31.7935 102.263 32.0699 102.785 32.6074C103.322 33.1603 103.583 33.9897 103.583 35.1416V41.976H101.909V35.7098C101.909 35.0341 101.848 34.5426 101.74 34.2508C101.633 33.959 101.433 33.7132 101.141 33.5289C100.85 33.3446 100.512 33.2525 100.128 33.2525C99.4214 33.2525 98.8531 33.4829 98.3923 33.9436C97.9316 34.4044 97.7012 35.1569 97.7012 36.1859V41.976H96.0118V35.5102C96.0118 34.7576 95.8736 34.2047 95.5971 33.8208C95.3207 33.4522 94.8753 33.2525 94.2456 33.2525C93.7695 33.2525 93.3395 33.3754 92.9248 33.6211C92.5101 33.8668 92.2337 34.2354 92.0494 34.7115C91.8651 35.1876 91.7729 35.8788 91.7729 36.7849V41.9453H90.0835L90.1142 41.976Z" fill="#595757"/>
<path d="M106.103 30.1805V28.23H107.792V30.1651H106.103V30.1805ZM106.103 41.9757V32.0235H107.792V41.9757H106.103Z" fill="#595757"/>
<path d="M109.696 39.0116L111.37 38.7506C111.462 39.4263 111.723 39.9331 112.153 40.2864C112.583 40.6396 113.182 40.8239 113.95 40.8239C114.718 40.8239 115.302 40.6703 115.67 40.3478C116.039 40.0253 116.238 39.6567 116.238 39.242C116.238 38.8581 116.07 38.5663 115.747 38.3359C115.517 38.1823 114.933 37.998 114.027 37.7676C112.783 37.4605 111.938 37.184 111.447 36.9536C110.971 36.7233 110.602 36.4161 110.356 36.0014C110.11 35.6021 109.988 35.1567 109.988 34.6652C109.988 34.2199 110.095 33.8052 110.295 33.4366C110.494 33.0526 110.771 32.7455 111.124 32.4997C111.385 32.3001 111.738 32.1465 112.199 32.0083C112.645 31.87 113.136 31.8086 113.658 31.8086C114.442 31.8086 115.133 31.9161 115.716 32.1465C116.3 32.3769 116.745 32.6687 117.022 33.068C117.298 33.4519 117.498 33.9741 117.605 34.6038L115.962 34.8342C115.885 34.3274 115.67 33.928 115.317 33.6362C114.964 33.3444 114.457 33.2062 113.796 33.2062C113.029 33.2062 112.476 33.3291 112.138 33.5902C111.8 33.8513 111.646 34.1431 111.646 34.4963C111.646 34.7113 111.708 34.911 111.846 35.0799C111.984 35.2642 112.199 35.4178 112.491 35.5253C112.66 35.5867 113.151 35.725 113.981 35.9553C115.179 36.2779 116.008 36.539 116.484 36.7386C116.96 36.9383 117.329 37.2301 117.59 37.6294C117.851 38.0134 117.989 38.5048 117.989 39.0731C117.989 39.6413 117.82 40.1635 117.498 40.655C117.175 41.1465 116.699 41.5304 116.085 41.8069C115.471 42.0833 114.764 42.2215 113.981 42.2215C112.691 42.2215 111.708 41.9604 111.017 41.4229C110.325 40.8854 109.911 40.0867 109.727 39.027L109.696 39.0116Z" fill="#595757"/>
<path d="M119.294 39.0116L120.968 38.7506C121.061 39.4263 121.322 39.9331 121.752 40.2864C122.182 40.6396 122.781 40.8239 123.549 40.8239C124.317 40.8239 124.9 40.6703 125.269 40.3478C125.637 40.0253 125.837 39.6567 125.837 39.242C125.837 38.8581 125.668 38.5663 125.346 38.3359C125.115 38.1823 124.532 37.998 123.625 37.7676C122.381 37.4605 121.537 37.184 121.045 36.9536C120.569 36.7233 120.201 36.4161 119.955 36.0014C119.709 35.6021 119.586 35.1567 119.586 34.6652C119.586 34.2199 119.694 33.8052 119.893 33.4366C120.093 33.0526 120.37 32.7455 120.723 32.4997C120.984 32.3001 121.337 32.1465 121.798 32.0083C122.243 31.87 122.735 31.8086 123.257 31.8086C124.04 31.8086 124.731 31.9161 125.315 32.1465C125.899 32.3769 126.344 32.6687 126.62 33.068C126.897 33.4519 127.096 33.9741 127.204 34.6038L125.561 34.8342C125.484 34.3274 125.269 33.928 124.916 33.6362C124.562 33.3444 124.056 33.2062 123.395 33.2062C122.627 33.2062 122.074 33.3291 121.736 33.5902C121.399 33.8513 121.245 34.1431 121.245 34.4963C121.245 34.7113 121.306 34.911 121.445 35.0799C121.583 35.2642 121.798 35.4178 122.09 35.5253C122.259 35.5867 122.75 35.725 123.579 35.9553C124.777 36.2779 125.607 36.539 126.083 36.7386C126.559 36.9383 126.928 37.2301 127.189 37.6294C127.45 38.0134 127.588 38.5048 127.588 39.0731C127.588 39.6413 127.419 40.1635 127.096 40.655C126.774 41.1465 126.298 41.5304 125.683 41.8069C125.069 42.0833 124.363 42.2215 123.579 42.2215C122.289 42.2215 121.306 41.9604 120.615 41.4229C119.924 40.8854 119.509 40.0867 119.325 39.027L119.294 39.0116Z" fill="#595757"/>
<path d="M138.585 40.4708L138.831 41.9606C138.355 42.0527 137.925 42.1141 137.556 42.1141C136.942 42.1141 136.466 42.022 136.128 41.8223C135.79 41.6227 135.559 41.3769 135.421 41.0544C135.283 40.7319 135.222 40.0715 135.222 39.0578V33.3292H133.978V32.0237H135.222V29.5664L136.896 28.5527V32.0237H138.585V33.3292H136.896V39.15C136.896 39.6261 136.926 39.9333 136.988 40.0715C137.049 40.2097 137.141 40.3172 137.28 40.394C137.418 40.4708 137.602 40.5169 137.863 40.5169C138.047 40.5169 138.293 40.5015 138.6 40.4554L138.585 40.4708Z" fill="#595757"/>
<path d="M140.228 41.9757V28.23H141.917V33.16C142.701 32.2539 143.699 31.7931 144.897 31.7931C145.634 31.7931 146.279 31.9313 146.817 32.2231C147.354 32.515 147.754 32.9143 147.984 33.4211C148.214 33.9279 148.337 34.6805 148.337 35.6481V41.9603H146.648V35.6481C146.648 34.8033 146.464 34.189 146.095 33.8051C145.726 33.4211 145.219 33.2214 144.544 33.2214C144.037 33.2214 143.576 33.3443 143.131 33.6054C142.685 33.8665 142.378 34.2197 142.194 34.6651C142.01 35.1105 141.917 35.7248 141.917 36.5081V41.9603H140.228V41.9757Z" fill="#595757"/>
<path d="M157.722 38.7659L159.472 38.9809C159.196 39.9945 158.689 40.7932 157.937 41.3461C157.199 41.9143 156.247 42.1908 155.08 42.1908C153.621 42.1908 152.469 41.7454 151.624 40.8392C150.764 39.9485 150.35 38.6891 150.35 37.0611C150.35 35.4331 150.78 34.0816 151.64 33.1601C152.5 32.2386 153.621 31.7778 155.003 31.7778C156.385 31.7778 157.414 32.2232 158.259 33.1447C159.104 34.0509 159.519 35.3256 159.519 36.9689C159.519 37.0611 159.519 37.2147 159.519 37.4143H152.1C152.162 38.5048 152.469 39.3495 153.022 39.9331C153.575 40.5167 154.266 40.8085 155.095 40.8085C155.71 40.8085 156.247 40.6396 156.677 40.3171C157.107 39.9945 157.461 39.4724 157.722 38.7659ZM152.177 36.0474H157.737C157.66 35.2027 157.445 34.5884 157.092 34.1584C156.554 33.5133 155.863 33.1908 155.003 33.1908C154.235 33.1908 153.575 33.4519 153.053 33.9741C152.53 34.4963 152.239 35.1874 152.177 36.0628V36.0474Z" fill="#595757"/>
<path d="M170.607 40.4708L170.853 41.9606C170.377 42.0527 169.947 42.1141 169.578 42.1141C168.964 42.1141 168.488 42.022 168.15 41.8223C167.812 41.6227 167.581 41.3769 167.443 41.0544C167.305 40.7319 167.244 40.0715 167.244 39.0578V33.3292H166V32.0237H167.244V29.5664L168.918 28.5527V32.0237H170.607V33.3292H168.918V39.15C168.918 39.6261 168.948 39.9333 169.01 40.0715C169.071 40.2097 169.163 40.3172 169.302 40.394C169.44 40.4708 169.624 40.5169 169.885 40.5169C170.069 40.5169 170.315 40.5015 170.622 40.4554L170.607 40.4708Z" fill="#595757"/>
<path d="M172.266 30.1805V28.23H173.956V30.1651H172.266V30.1805ZM172.266 41.9757V32.0235H173.956V41.9757H172.266Z" fill="#595757"/>
<path d="M176.52 41.976V32.0238H178.026V33.4214C178.333 32.93 178.747 32.546 179.27 32.2388C179.792 31.9317 180.375 31.7935 181.036 31.7935C181.773 31.7935 182.372 31.947 182.848 32.2542C183.324 32.5614 183.647 32.9914 183.846 33.5443C184.63 32.3771 185.659 31.7935 186.918 31.7935C187.901 31.7935 188.669 32.0699 189.191 32.6074C189.729 33.1603 189.99 33.9897 189.99 35.1416V41.976H188.316V35.7098C188.316 35.0341 188.254 34.5426 188.147 34.2508C188.039 33.959 187.84 33.7132 187.548 33.5289C187.256 33.3446 186.918 33.2525 186.534 33.2525C185.828 33.2525 185.259 33.4829 184.799 33.9436C184.338 34.4044 184.107 35.1569 184.107 36.1859V41.976H182.418V35.5102C182.418 34.7576 182.28 34.2047 182.003 33.8208C181.727 33.4522 181.282 33.2525 180.652 33.2525C180.176 33.2525 179.746 33.3754 179.331 33.6211C178.916 33.8668 178.64 34.2354 178.456 34.7115C178.271 35.1876 178.179 35.8788 178.179 36.7849V41.9453H176.49L176.52 41.976Z" fill="#595757"/>
<path d="M199.327 38.7659L201.063 38.9809C200.786 39.9945 200.28 40.7932 199.527 41.3461C198.79 41.9143 197.838 42.1908 196.67 42.1908C195.211 42.1908 194.059 41.7454 193.215 40.8392C192.355 39.9485 191.94 38.6891 191.94 37.0611C191.94 35.4331 192.37 34.0816 193.23 33.1601C194.09 32.2386 195.211 31.7778 196.594 31.7778C197.976 31.7778 199.005 32.2232 199.849 33.1447C200.694 34.0509 201.109 35.3256 201.109 36.9689C201.109 37.0611 201.109 37.2147 201.109 37.4143H193.691C193.752 38.5048 194.059 39.3495 194.612 39.9331C195.165 40.5167 195.856 40.8085 196.701 40.8085C197.315 40.8085 197.853 40.6396 198.283 40.3171C198.728 39.9945 199.066 39.4724 199.327 38.7659ZM193.783 36.0474H199.343C199.266 35.2027 199.051 34.5884 198.698 34.1584C198.16 33.5133 197.469 33.1908 196.609 33.1908C195.841 33.1908 195.181 33.4519 194.658 33.9741C194.136 34.4963 193.844 35.1874 193.783 36.0628V36.0474Z" fill="#595757"/>
<path d="M210.078 41.9757H208.512V28.23H210.201V33.1293C210.908 32.2385 211.829 31.7931 212.935 31.7931C213.549 31.7931 214.133 31.916 214.67 32.1617C215.223 32.4074 215.669 32.7607 216.022 33.2061C216.375 33.6515 216.652 34.189 216.851 34.8187C217.051 35.4484 217.158 36.1242 217.158 36.846C217.158 38.5508 216.728 39.8716 215.899 40.8084C215.054 41.7453 214.041 42.2061 212.858 42.2061C211.676 42.2061 210.754 41.7146 210.094 40.7317V41.9757H210.078ZM210.063 36.9228C210.063 38.1207 210.232 38.9808 210.554 39.503C211.092 40.3784 211.798 40.8084 212.705 40.8084C213.442 40.8084 214.087 40.4859 214.624 39.8409C215.162 39.1958 215.438 38.2436 215.438 36.9842C215.438 35.7248 215.177 34.7266 214.67 34.1122C214.148 33.4979 213.534 33.1907 212.797 33.1907C212.059 33.1907 211.414 33.5132 210.877 34.1583C210.339 34.8033 210.078 35.7248 210.078 36.9382L210.063 36.9228Z" fill="#595757"/>
<path d="M226.005 38.7659L227.756 38.9809C227.479 39.9945 226.972 40.7932 226.22 41.3461C225.483 41.9143 224.53 42.1908 223.363 42.1908C221.904 42.1908 220.752 41.7454 219.908 40.8392C219.047 39.9485 218.633 38.6891 218.633 37.0611C218.633 35.4331 219.063 34.0816 219.923 33.1601C220.783 32.2386 221.904 31.7778 223.286 31.7778C224.669 31.7778 225.698 32.2232 226.542 33.1447C227.387 34.0509 227.802 35.3256 227.802 36.9689C227.802 37.0611 227.802 37.2147 227.802 37.4143H220.384C220.445 38.5048 220.752 39.3495 221.305 39.9331C221.858 40.5167 222.549 40.8085 223.379 40.8085C223.993 40.8085 224.53 40.6396 224.96 40.3171C225.39 39.9945 225.744 39.4724 226.005 38.7659ZM220.476 36.0474H226.036C225.959 35.2027 225.744 34.5884 225.406 34.1584C224.868 33.5133 224.177 33.1908 223.317 33.1908C222.549 33.1908 221.889 33.4519 221.367 33.9741C220.844 34.4963 220.553 35.1874 220.491 36.0628L220.476 36.0474Z" fill="#595757"/>
<path d="M230.274 41.9761V33.3293H228.785V32.0239H230.274V30.9642C230.274 30.2884 230.336 29.7969 230.459 29.4744C230.628 29.0444 230.904 28.6758 231.319 28.4147C231.733 28.1382 232.302 28 233.039 28C233.515 28 234.037 28.0614 234.621 28.1689L234.36 29.6433C234.006 29.5819 233.684 29.5512 233.361 29.5512C232.855 29.5512 232.486 29.6587 232.271 29.8737C232.056 30.0887 231.948 30.5034 231.948 31.1024V32.0239H233.884V33.3293H231.948V41.9761H230.274Z" fill="#595757"/>
<path d="M234.575 36.9999C234.575 35.1569 235.082 33.79 236.111 32.8993C236.971 32.1621 238.015 31.7935 239.244 31.7935C240.611 31.7935 241.732 32.2388 242.607 33.145C243.483 34.0358 243.913 35.2798 243.913 36.8617C243.913 38.1364 243.713 39.1501 243.329 39.8873C242.945 40.6245 242.392 41.1928 241.655 41.5921C240.918 41.9914 240.119 42.2064 239.244 42.2064C237.846 42.2064 236.725 41.761 235.865 40.8702C235.005 39.9794 234.575 38.6893 234.575 37.0153V36.9999ZM236.31 36.9999C236.31 38.2747 236.587 39.2269 237.14 39.8566C237.692 40.4863 238.399 40.8088 239.244 40.8088C240.088 40.8088 240.779 40.4863 241.332 39.8566C241.885 39.2115 242.162 38.244 242.162 36.9385C242.162 35.7098 241.885 34.773 241.317 34.1433C240.764 33.5136 240.058 33.1911 239.228 33.1911C238.399 33.1911 237.692 33.5136 237.124 34.1433C236.571 34.773 236.295 35.7252 236.295 36.9999H236.31Z" fill="#595757"/>
<path d="M245.863 41.976V32.0238H247.384V33.5289C247.768 32.8225 248.121 32.3617 248.459 32.1313C248.781 31.901 249.15 31.7935 249.549 31.7935C250.118 31.7935 250.701 31.9778 251.285 32.331L250.701 33.8975C250.286 33.6518 249.872 33.5289 249.457 33.5289C249.089 33.5289 248.751 33.6365 248.459 33.8668C248.167 34.0972 247.952 34.389 247.829 34.7883C247.645 35.3873 247.553 36.0477 247.553 36.7542V41.9607H245.863V41.976Z" fill="#595757"/>
<path d="M259.086 38.7659L260.822 38.9809C260.545 39.9945 260.038 40.7932 259.286 41.3461C258.549 41.9143 257.596 42.1908 256.429 42.1908C254.97 42.1908 253.818 41.7454 252.973 40.8392C252.113 39.9485 251.699 38.6891 251.699 37.0611C251.699 35.4331 252.129 34.0816 252.989 33.1601C253.849 32.2386 254.97 31.7778 256.352 31.7778C257.735 31.7778 258.764 32.2232 259.608 33.1447C260.453 34.0509 260.868 35.3256 260.868 36.9689C260.868 37.0611 260.868 37.2147 260.868 37.4143H253.45C253.511 38.5048 253.818 39.3495 254.371 39.9331C254.924 40.5167 255.615 40.8085 256.46 40.8085C257.074 40.8085 257.612 40.6396 258.042 40.3171C258.487 39.9945 258.825 39.4724 259.086 38.7659ZM253.557 36.0474H259.117C259.04 35.2027 258.825 34.5884 258.472 34.1584C257.934 33.5133 257.243 33.1908 256.383 33.1908C255.615 33.1908 254.955 33.4519 254.433 33.9741C253.91 34.4963 253.619 35.1874 253.557 36.0628V36.0474Z" fill="#595757"/>
<path d="M269.837 41.9757H268.271V28.23H269.96V33.1293C270.666 32.2385 271.588 31.7931 272.694 31.7931C273.308 31.7931 273.892 31.916 274.429 32.1617C274.982 32.4074 275.427 32.7607 275.781 33.2061C276.134 33.6515 276.41 34.189 276.61 34.8187C276.81 35.4484 276.917 36.1242 276.917 36.846C276.917 38.5508 276.487 39.8716 275.658 40.8084C274.813 41.7453 273.8 42.2061 272.617 42.2061C271.434 42.2061 270.513 41.7146 269.852 40.7317V41.9757H269.837ZM269.822 36.9228C269.822 38.1207 269.991 38.9808 270.313 39.503C270.851 40.3784 271.557 40.8084 272.463 40.8084C273.201 40.8084 273.846 40.4859 274.383 39.8409C274.921 39.1958 275.197 38.2436 275.197 36.9842C275.197 35.7248 274.936 34.7266 274.429 34.1122C273.907 33.4979 273.293 33.1907 272.555 33.1907C271.818 33.1907 271.173 33.5132 270.636 34.1583C270.098 34.8033 269.837 35.7248 269.837 36.9382L269.822 36.9228Z" fill="#595757"/>
<path d="M278.331 36.9999C278.331 35.1569 278.837 33.79 279.866 32.8993C280.726 32.1621 281.771 31.7935 282.999 31.7935C284.366 31.7935 285.488 32.2388 286.363 33.145C287.238 34.0358 287.668 35.2798 287.668 36.8617C287.668 38.1364 287.469 39.1501 287.085 39.8873C286.701 40.6245 286.148 41.1928 285.411 41.5921C284.674 41.9914 283.875 42.2064 282.999 42.2064C281.602 42.2064 280.481 41.761 279.621 40.8702C278.761 39.9794 278.331 38.6893 278.331 37.0153V36.9999ZM280.066 36.9999C280.066 38.2747 280.343 39.2269 280.895 39.8566C281.448 40.4863 282.155 40.8088 282.999 40.8088C283.844 40.8088 284.535 40.4863 285.088 39.8566C285.641 39.2115 285.918 38.244 285.918 36.9385C285.918 35.7098 285.641 34.773 285.073 34.1433C284.52 33.5136 283.813 33.1911 282.984 33.1911C282.155 33.1911 281.448 33.5136 280.88 34.1433C280.327 34.773 280.051 35.7252 280.051 36.9999H280.066Z" fill="#595757"/>
<path d="M296.146 40.7471C295.516 41.2846 294.917 41.6532 294.349 41.8683C293.766 42.0833 293.151 42.1908 292.491 42.1908C291.4 42.1908 290.556 41.9297 289.972 41.3921C289.388 40.8546 289.097 40.1788 289.097 39.3495C289.097 38.858 289.204 38.4126 289.435 38.0133C289.65 37.614 289.941 37.2915 290.31 37.0457C290.663 36.8 291.078 36.6157 291.523 36.4928C291.861 36.4007 292.353 36.3239 293.028 36.2317C294.395 36.0628 295.394 35.8785 296.039 35.6481C296.039 35.4178 296.039 35.2642 296.039 35.2027C296.039 34.5116 295.885 34.0355 295.563 33.7437C295.133 33.3597 294.487 33.1754 293.643 33.1754C292.844 33.1754 292.261 33.3137 291.892 33.5901C291.508 33.8666 291.231 34.358 291.047 35.0645L289.404 34.8341C289.557 34.1277 289.803 33.5594 290.141 33.1294C290.479 32.6993 290.986 32.3614 291.631 32.1311C292.276 31.9007 293.028 31.7778 293.888 31.7778C294.749 31.7778 295.424 31.87 295.962 32.085C296.499 32.2847 296.883 32.5304 297.129 32.8376C297.375 33.1447 297.559 33.5287 297.651 33.9894C297.713 34.2812 297.743 34.8034 297.743 35.5406V37.7829C297.743 39.3495 297.774 40.3478 297.851 40.7625C297.928 41.1771 298.066 41.5764 298.281 41.9604H296.515C296.346 41.6072 296.223 41.2078 296.177 40.7317L296.146 40.7471ZM295.993 36.9843C295.378 37.23 294.457 37.4451 293.243 37.6294C292.552 37.7215 292.061 37.8444 291.769 37.9672C291.477 38.0901 291.262 38.2744 291.109 38.5201C290.955 38.7659 290.878 39.027 290.878 39.3188C290.878 39.7642 291.047 40.1481 291.385 40.4399C291.723 40.7471 292.23 40.8853 292.875 40.8853C293.52 40.8853 294.103 40.7471 294.61 40.4553C295.117 40.1635 295.486 39.7795 295.731 39.2881C295.916 38.9041 296.008 38.3512 296.008 37.5986V36.9843H295.993Z" fill="#595757"/>
<path d="M300.309 41.976V32.0238H301.829V33.5289C302.213 32.8225 302.566 32.3617 302.904 32.1313C303.227 31.901 303.595 31.7935 303.995 31.7935C304.563 31.7935 305.146 31.9778 305.73 32.331L305.146 33.8975C304.732 33.6518 304.317 33.5289 303.902 33.5289C303.534 33.5289 303.196 33.6365 302.904 33.8668C302.612 34.0972 302.397 34.389 302.274 34.7883C302.09 35.3873 301.998 36.0477 301.998 36.7542V41.9607H300.309V41.976Z" fill="#595757"/>
<path d="M313.178 41.9757V40.7163C312.548 41.6992 311.627 42.1907 310.398 42.1907C309.6 42.1907 308.878 41.9757 308.217 41.5303C307.557 41.1003 307.035 40.4859 306.666 39.7026C306.298 38.9194 306.113 38.0132 306.113 36.9996C306.113 35.9859 306.282 35.1105 306.605 34.2965C306.943 33.4825 307.434 32.8682 308.095 32.4382C308.755 32.0081 309.492 31.7931 310.321 31.7931C310.92 31.7931 311.458 31.916 311.919 32.1771C312.379 32.4382 312.763 32.7607 313.055 33.16V28.23H314.729V41.9757H313.163H313.178ZM307.833 37.0149C307.833 38.2897 308.095 39.2419 308.632 39.8716C309.17 40.5013 309.799 40.8238 310.536 40.8238C311.274 40.8238 311.903 40.5166 312.41 39.9177C312.932 39.3187 313.178 38.3972 313.178 37.1532C313.178 35.7863 312.917 34.788 312.395 34.1583C311.873 33.5286 311.228 33.2061 310.46 33.2061C309.692 33.2061 309.077 33.5132 308.586 34.1276C308.079 34.7419 307.833 35.7095 307.833 37.0303V37.0149Z" fill="#595757"/>
<path d="M317.402 30.1805V28.23H319.092V30.1651H317.402V30.1805ZM317.402 41.9757V32.0235H319.092V41.9757H317.402Z" fill="#595757"/>
<path d="M321.656 41.976V32.0238H323.176V33.4368C323.914 32.3464 324.958 31.7935 326.34 31.7935C326.939 31.7935 327.492 31.901 327.999 32.116C328.506 32.331 328.874 32.6074 329.135 32.9607C329.381 33.3139 329.566 33.7286 329.658 34.2047C329.719 34.5119 329.75 35.0648 329.75 35.8481V41.976H328.06V35.9248C328.06 35.2337 327.999 34.7269 327.861 34.389C327.738 34.0511 327.492 33.7747 327.154 33.575C326.816 33.3754 326.432 33.2679 325.972 33.2679C325.25 33.2679 324.635 33.4982 324.113 33.959C323.591 34.4197 323.33 35.2798 323.33 36.5545V41.9914H321.641L321.656 41.976Z" fill="#595757"/>
<path d="M332.024 42.8054L333.667 43.0512C333.728 43.558 333.928 43.9266 334.235 44.157C334.65 44.4641 335.234 44.6331 335.955 44.6331C336.739 44.6331 337.338 44.4795 337.768 44.157C338.198 43.8498 338.474 43.4044 338.628 42.8515C338.72 42.5136 338.751 41.7918 338.751 40.686C338.013 41.5614 337.092 41.9914 336.002 41.9914C334.635 41.9914 333.575 41.5 332.822 40.517C332.07 39.5341 331.701 38.3515 331.701 36.9693C331.701 36.017 331.87 35.1416 332.223 34.343C332.561 33.5444 333.068 32.9147 333.713 32.4846C334.358 32.0546 335.126 31.8242 336.017 31.8242C337.199 31.8242 338.167 32.3003 338.92 33.2525V32.0546H340.471V40.6553C340.471 42.2064 340.317 43.2969 339.995 43.9573C339.672 44.6023 339.181 45.1092 338.49 45.4931C337.798 45.8617 336.969 46.0614 335.955 46.0614C334.773 46.0614 333.805 45.8003 333.083 45.2628C332.346 44.7252 331.993 43.9266 332.024 42.8515V42.8054ZM333.421 36.8157C333.421 38.1211 333.682 39.0733 334.205 39.6723C334.727 40.2713 335.372 40.5785 336.155 40.5785C336.938 40.5785 337.583 40.2867 338.106 39.6877C338.628 39.0887 338.889 38.1518 338.889 36.8771C338.889 35.6024 338.612 34.7423 338.075 34.128C337.537 33.5136 336.877 33.2065 336.124 33.2065C335.372 33.2065 334.742 33.5136 334.205 34.1126C333.682 34.7269 333.421 35.6331 333.421 36.831V36.8157Z" fill="#595757"/>
<path d="M343.45 41.9761V40.0563H345.37V41.9761C345.37 42.6826 345.247 43.2509 345.001 43.6809C344.755 44.1109 344.356 44.4488 343.803 44.6945L343.327 43.9727C343.68 43.8191 343.941 43.5887 344.11 43.2816C344.279 42.9744 344.372 42.5444 344.387 41.9761H343.435H343.45ZM343.45 33.9437V32.0239H345.37V33.9437H343.45Z" fill="#595757"/>
<path d="M355.521 41.9759L352.48 32.0237H354.231L355.813 37.7677L356.397 39.9025C356.428 39.795 356.596 39.1038 356.919 37.8445L358.501 32.0083H360.236L361.726 37.783L362.218 39.6875L362.786 37.7677L364.491 32.0083H366.134L363.016 41.9605H361.265L359.684 36.0015L359.3 34.3121L357.288 41.9759H355.521Z" fill="#595757"/>
<path d="M374.044 40.7471C373.414 41.2846 372.815 41.6532 372.247 41.8683C371.664 42.0833 371.049 42.1908 370.389 42.1908C369.298 42.1908 368.454 41.9297 367.87 41.3921C367.286 40.8546 366.995 40.1788 366.995 39.3495C366.995 38.858 367.102 38.4126 367.333 38.0133C367.548 37.614 367.839 37.2915 368.208 37.0457C368.561 36.8 368.976 36.6157 369.421 36.4928C369.759 36.4007 370.251 36.3239 370.926 36.2317C372.293 36.0628 373.292 35.8785 373.937 35.6481C373.937 35.4178 373.937 35.2642 373.937 35.2027C373.937 34.5116 373.783 34.0355 373.46 33.7437C373.03 33.3597 372.385 33.1754 371.541 33.1754C370.742 33.1754 370.158 33.3137 369.79 33.5901C369.406 33.8666 369.129 34.358 368.945 35.0645L367.302 34.8341C367.455 34.1277 367.701 33.5594 368.039 33.1294C368.377 32.6993 368.884 32.3614 369.529 32.1311C370.174 31.9007 370.926 31.7778 371.786 31.7778C372.646 31.7778 373.322 31.87 373.86 32.085C374.397 32.2847 374.781 32.5304 375.027 32.8376C375.273 33.1447 375.457 33.5287 375.549 33.9894C375.611 34.2812 375.641 34.8034 375.641 35.5406V37.7829C375.641 39.3495 375.672 40.3478 375.749 40.7625C375.826 41.1771 375.964 41.5764 376.179 41.9604H374.413C374.244 41.6072 374.121 41.2078 374.075 40.7317L374.044 40.7471ZM373.891 36.9843C373.276 37.23 372.355 37.4451 371.141 37.6294C370.45 37.7215 369.959 37.8444 369.667 37.9672C369.375 38.0901 369.16 38.2744 369.007 38.5201C368.853 38.7659 368.776 39.027 368.776 39.3188C368.776 39.7642 368.945 40.1481 369.283 40.4399C369.621 40.7471 370.128 40.8853 370.773 40.8853C371.418 40.8853 372.001 40.7471 372.508 40.4553C373.015 40.1635 373.384 39.7795 373.629 39.2881C373.814 38.9041 373.906 38.3512 373.906 37.5986V36.9843H373.891Z" fill="#595757"/>
<path d="M378.175 41.9757V28.23H379.865V41.9757H378.175Z" fill="#595757"/>
<path d="M382.491 41.9757V28.23H384.181V36.0627L388.174 32.0081H390.355L386.546 35.6941L390.739 41.9603H388.65L385.363 36.8767L384.165 38.0286V41.9757H382.476H382.491Z" fill="#595757"/>
<path d="M47.0495 63.7842C46.4198 64.3217 45.8208 64.6903 45.2525 64.9054C44.6689 65.1204 44.0546 65.2279 43.3942 65.2279C42.3037 65.2279 41.459 64.9668 40.8754 64.4293C40.2918 63.8917 40 63.2159 40 62.3866C40 61.8951 40.1075 61.4497 40.3379 61.0504C40.5529 60.6511 40.8447 60.3286 41.2133 60.0828C41.5665 59.8371 41.9812 59.6528 42.4266 59.5299C42.7645 59.4378 43.256 59.361 43.9317 59.2689C45.2986 59.0999 46.2969 58.9156 46.942 58.6852C46.942 58.4549 46.942 58.3013 46.942 58.2399C46.942 57.5487 46.7884 57.0726 46.4659 56.7808C46.0358 56.3968 45.3908 56.2126 44.5461 56.2126C43.7474 56.2126 43.1638 56.3508 42.7952 56.6272C42.4113 56.9037 42.1348 57.3951 41.9505 58.1016L40.3072 57.8713C40.4607 57.1648 40.7065 56.5965 41.0444 56.1665C41.3822 55.7364 41.8891 55.3986 42.5341 55.1682C43.1792 54.9378 43.9317 54.8149 44.7918 54.8149C45.6519 54.8149 46.3276 54.9071 46.8652 55.1221C47.4027 55.3218 47.7867 55.5675 48.0324 55.8747C48.2781 56.1818 48.4624 56.5658 48.5546 57.0265C48.616 57.3183 48.6467 57.8405 48.6467 58.5777V60.82C48.6467 62.3866 48.6775 63.3849 48.7542 63.7996C48.831 64.2142 48.9693 64.6136 49.1843 64.9975H47.4181C47.2491 64.6443 47.1263 64.245 47.0802 63.7688L47.0495 63.7842ZM46.9112 60.0214C46.2969 60.2671 45.3754 60.4822 44.1621 60.6665C43.471 60.7586 42.9795 60.8815 42.6877 61.0043C42.3959 61.1272 42.1809 61.3115 42.0273 61.5572C41.8737 61.803 41.7969 62.0641 41.7969 62.3559C41.7969 62.8013 41.9659 63.1852 42.3037 63.477C42.6416 63.7842 43.1485 63.9224 43.7935 63.9224C44.4386 63.9224 45.0222 63.7842 45.529 63.4924C46.0358 63.2006 46.4044 62.8166 46.6502 62.3252C46.8345 61.9412 46.9266 61.3883 46.9266 60.6357V60.0214H46.9112Z" fill="#595757"/>
<path d="M51.2114 65.0136V55.0614H52.7319V56.5665C53.1159 55.8601 53.4691 55.3993 53.807 55.1689C54.1295 54.9386 54.4981 54.8311 54.8974 54.8311C55.4657 54.8311 56.0493 55.0154 56.6329 55.3686L56.0493 56.9351C55.6346 56.6894 55.2199 56.5665 54.8053 56.5665C54.4367 56.5665 54.0988 56.6741 53.807 56.9044C53.5152 57.1194 53.3002 57.4266 53.1773 57.8259C52.993 58.4249 52.9008 59.0853 52.9008 59.7918V64.9983H51.2114V65.0136Z" fill="#595757"/>
<path d="M57.0017 60.0375C57.0017 58.1945 57.5085 56.8276 58.5375 55.9369C59.3976 55.1997 60.442 54.8311 61.6706 54.8311C63.0375 54.8311 64.1587 55.2764 65.0187 56.1826C65.8942 57.0734 66.3242 58.3174 66.3242 59.8993C66.3242 61.174 66.1399 62.1877 65.7406 62.9249C65.3566 63.6621 64.7884 64.2304 64.0665 64.6297C63.3293 65.029 62.5307 65.244 61.6553 65.244C60.2577 65.244 59.1365 64.7986 58.2764 63.9078C57.4164 63.017 56.9863 61.7269 56.9863 60.0529L57.0017 60.0375ZM58.7372 60.0375C58.7372 61.3123 59.0136 62.2645 59.5665 62.8942C60.1194 63.5239 60.8259 63.8464 61.6706 63.8464C62.5153 63.8464 63.2065 63.5239 63.7593 62.8942C64.3122 62.2491 64.5887 61.2816 64.5887 59.9761C64.5887 58.7474 64.3123 57.8106 63.744 57.1809C63.1911 56.5512 62.4846 56.2287 61.6553 56.2287C60.8259 56.2287 60.1194 56.5512 59.5512 57.1809C58.9983 57.8106 58.7218 58.7628 58.7218 60.0375H58.7372Z" fill="#595757"/>
<path d="M74.8326 65.0132V63.5542C74.0647 64.6753 73.005 65.2436 71.6688 65.2436C71.0852 65.2436 70.5323 65.1361 70.0255 64.9057C69.5187 64.6753 69.1347 64.3989 68.889 64.061C68.6432 63.7231 68.4743 63.3085 68.3668 62.817C68.29 62.4791 68.2593 61.9569 68.2593 61.2351V55.061H69.9487V60.59C69.9487 61.4655 69.9794 62.0644 70.0562 62.3716C70.1637 62.817 70.3941 63.1702 70.732 63.416C71.0699 63.6617 71.4999 63.7999 72.0067 63.7999C72.5135 63.7999 72.9896 63.6771 73.435 63.416C73.8804 63.1549 74.1876 62.8016 74.3719 62.3562C74.5562 61.9108 74.6483 61.2658 74.6483 60.4057V55.0764H76.3378V65.0286H74.8326V65.0132Z" fill="#595757"/>
<path d="M78.9792 65.0136V55.0614H80.4997V56.4744C81.2369 55.384 82.2813 54.8311 83.6635 54.8311C84.2625 54.8311 84.8154 54.9386 85.3222 55.1536C85.829 55.3686 86.1976 55.645 86.4587 55.9983C86.7045 56.3515 86.8888 56.7662 86.9809 57.2423C87.0423 57.5495 87.0731 58.1024 87.0731 58.8857V65.0136H85.3836V58.9624C85.3836 58.2713 85.3222 57.7645 85.184 57.4266C85.0611 57.0887 84.8154 56.8123 84.4775 56.6126C84.1396 56.413 83.7557 56.3055 83.2949 56.3055C82.5731 56.3055 81.9587 56.5358 81.4366 56.9966C80.9144 57.4573 80.6533 58.3174 80.6533 59.5921V65.029H78.9639L78.9792 65.0136Z" fill="#595757"/>
<path d="M96.1197 65.0133V63.7539C95.49 64.7368 94.5532 65.2283 93.3399 65.2283C92.5413 65.2283 91.8194 65.0133 91.1436 64.5679C90.4832 64.1379 89.961 63.5235 89.5924 62.7402C89.2238 61.957 89.0396 61.0508 89.0396 60.0372C89.0396 59.0235 89.2085 58.1481 89.531 57.3341C89.8535 56.5201 90.3604 55.9058 91.0208 55.4758C91.6812 55.0457 92.4184 54.8307 93.2477 54.8307C93.8467 54.8307 94.3842 54.9536 94.845 55.2147C95.3211 55.4758 95.6897 55.7983 95.9969 56.1976V51.2676H97.6709V65.0133H96.1044H96.1197ZM90.7904 60.0525C90.7904 61.3273 91.0515 62.2795 91.589 62.9092C92.1266 63.5389 92.7563 63.8614 93.4935 63.8614C94.2307 63.8614 94.8604 63.5542 95.3672 62.9553C95.874 62.3563 96.1351 61.4348 96.1351 60.1908C96.1351 58.8239 95.874 57.8256 95.3518 57.1959C94.8296 56.5662 94.1846 56.2437 93.4167 56.2437C92.6488 56.2437 92.0344 56.5508 91.543 57.1652C91.0361 57.7795 90.7904 58.7471 90.7904 60.0679V60.0525Z" fill="#595757"/>
<path d="M100.773 65.0135V63.0938H102.693V65.0135C102.693 65.72 102.57 66.2883 102.324 66.7183C102.079 67.1483 101.679 67.4862 101.127 67.732L100.65 67.0101C101.004 66.8565 101.265 66.6262 101.434 66.319C101.603 66.0118 101.695 65.5818 101.71 65.0135H100.758H100.773Z" fill="#595757"/>
<path d="M110.986 65.0136V55.0614H112.507V56.5665C112.891 55.8601 113.244 55.3993 113.582 55.1689C113.904 54.9386 114.273 54.8311 114.672 54.8311C115.241 54.8311 115.824 55.0154 116.408 55.3686L115.824 56.9351C115.41 56.6894 114.995 56.5665 114.58 56.5665C114.212 56.5665 113.874 56.6741 113.582 56.9044C113.29 57.1348 113.075 57.4266 112.952 57.8259C112.768 58.4249 112.676 59.0853 112.676 59.7918V64.9983H110.986V65.0136Z" fill="#595757"/>
<path d="M124.21 61.803L125.945 62.018C125.669 63.0316 125.162 63.8303 124.409 64.3832C123.672 64.9514 122.72 65.2279 121.553 65.2279C120.094 65.2279 118.942 64.7825 118.097 63.8764C117.237 62.9856 116.822 61.7262 116.822 60.0982C116.822 58.4702 117.252 57.1187 118.112 56.1972C118.972 55.2757 120.094 54.8149 121.476 54.8149C122.858 54.8149 123.887 55.2603 124.732 56.1818C125.577 57.088 125.991 58.3627 125.991 60.0061C125.991 60.0982 125.991 60.2518 125.991 60.4514H118.573C118.635 61.5419 118.942 62.3866 119.495 62.9702C120.048 63.5538 120.739 63.8456 121.583 63.8456C122.198 63.8456 122.735 63.6767 123.165 63.3542C123.611 63.0316 123.949 62.5095 124.21 61.803ZM118.665 59.0846H124.225C124.148 58.2398 123.933 57.6255 123.58 57.1955C123.042 56.5504 122.351 56.2279 121.491 56.2279C120.723 56.2279 120.063 56.489 119.541 57.0112C119.019 57.5334 118.727 58.2245 118.665 59.0999V59.0846Z" fill="#595757"/>
<path d="M127.404 62.0492L129.078 61.7882C129.171 62.4639 129.432 62.9707 129.862 63.324C130.292 63.6772 130.891 63.8615 131.659 63.8615C132.426 63.8615 133.01 63.7079 133.379 63.3854C133.747 63.0629 133.947 62.6943 133.947 62.2796C133.947 61.8957 133.778 61.6039 133.455 61.3735C133.225 61.2199 132.641 61.0356 131.735 60.8052C130.491 60.4981 129.647 60.2216 129.155 59.9912C128.679 59.7609 128.31 59.4537 128.065 59.039C127.819 58.6397 127.696 58.1943 127.696 57.7028C127.696 57.2574 127.804 56.8428 128.003 56.4742C128.203 56.0902 128.479 55.7831 128.833 55.5373C129.094 55.3377 129.447 55.1841 129.908 55.0459C130.353 54.9076 130.845 54.8462 131.367 54.8462C132.15 54.8462 132.826 54.9537 133.425 55.1841C134.008 55.4145 134.454 55.7063 134.73 56.1056C135.007 56.4895 135.206 57.0117 135.314 57.6414L133.67 57.8718C133.594 57.365 133.379 56.9656 133.025 56.6738C132.672 56.382 132.165 56.2438 131.505 56.2438C130.737 56.2438 130.184 56.3667 129.846 56.6278C129.508 56.8888 129.355 57.1807 129.355 57.5339C129.355 57.7489 129.416 57.9486 129.554 58.1175C129.693 58.3018 129.908 58.4554 130.2 58.5629C130.368 58.6243 130.86 58.7626 131.689 58.9929C132.887 59.3155 133.717 59.5766 134.193 59.7762C134.669 59.9759 135.037 60.2677 135.298 60.667C135.56 61.051 135.698 61.5424 135.698 62.1107C135.698 62.6789 135.529 63.2011 135.206 63.6926C134.884 64.1841 134.408 64.568 133.793 64.8445C133.179 65.1209 132.473 65.2591 131.689 65.2591C130.399 65.2591 129.416 64.998 128.725 64.4605C128.034 63.923 127.619 63.1243 127.435 62.0646L127.404 62.0492Z" fill="#595757"/>
<path d="M141.35 63.5079L141.596 64.9977C141.12 65.0898 140.69 65.1512 140.321 65.1512C139.707 65.1512 139.231 65.0591 138.893 64.8594C138.555 64.6598 138.325 64.414 138.186 64.0915C138.048 63.769 137.987 63.1086 137.987 62.0949V56.3663H136.743V55.0608H137.987V52.6035L139.661 51.5898V55.0608H141.35V56.3663H139.661V62.1871C139.661 62.6632 139.691 62.9704 139.753 63.1086C139.814 63.2468 139.906 63.3543 140.045 63.4311C140.183 63.5079 140.367 63.554 140.628 63.554C140.813 63.554 141.058 63.5386 141.366 63.4925L141.35 63.5079Z" fill="#595757"/>
<path d="M142.379 60.0375C142.379 58.1945 142.886 56.8276 143.915 55.9369C144.775 55.1997 145.819 54.8311 147.048 54.8311C148.415 54.8311 149.536 55.2764 150.411 56.1826C151.287 57.0734 151.717 58.3174 151.717 59.8993C151.717 61.174 151.517 62.1877 151.133 62.9249C150.749 63.6621 150.196 64.2304 149.459 64.6297C148.722 65.029 147.923 65.244 147.048 65.244C145.65 65.244 144.529 64.7986 143.669 63.9078C142.809 63.017 142.379 61.7269 142.379 60.0529V60.0375ZM144.114 60.0375C144.114 61.3123 144.391 62.2645 144.944 62.8942C145.497 63.5239 146.203 63.8464 147.048 63.8464C147.893 63.8464 148.584 63.5239 149.137 62.8942C149.689 62.2491 149.966 61.2816 149.966 59.9761C149.966 58.7474 149.689 57.8106 149.121 57.1809C148.568 56.5512 147.862 56.2287 147.032 56.2287C146.203 56.2287 145.497 56.5512 144.928 57.1809C144.375 57.8106 144.099 58.7628 144.099 60.0375H144.114Z" fill="#595757"/>
<path d="M160.179 61.3735L161.838 61.5885C161.654 62.725 161.193 63.6312 160.44 64.2762C159.688 64.9213 158.782 65.2438 157.691 65.2438C156.324 65.2438 155.234 64.7984 154.405 63.9076C153.575 63.0168 153.161 61.7421 153.161 60.0834C153.161 59.0083 153.345 58.0714 153.698 57.2574C154.051 56.4588 154.589 55.8445 155.326 55.4452C156.048 55.0459 156.847 54.8462 157.707 54.8462C158.782 54.8462 159.673 55.1226 160.364 55.6602C161.055 56.2131 161.485 56.981 161.685 57.9946L160.041 58.2404C159.888 57.5646 159.611 57.0731 159.212 56.7353C158.813 56.3974 158.336 56.2284 157.768 56.2284C156.923 56.2284 156.232 56.5356 155.695 57.1499C155.157 57.7643 154.896 58.7165 154.896 60.0373C154.896 61.3581 155.157 62.3411 155.664 62.9554C156.171 63.5544 156.847 63.8615 157.676 63.8615C158.336 63.8615 158.889 63.6619 159.335 63.2472C159.78 62.8479 160.057 62.2182 160.179 61.3735Z" fill="#595757"/>
<path d="M163.297 65.0133V51.2676H164.986V59.1003L168.979 55.0457H171.16L167.351 58.7317L171.544 64.9979H169.455L166.169 59.9143L164.971 61.0662V65.0133H163.281H163.297Z" fill="#595757"/>
<path d="M177.533 62.0492L179.207 61.7882C179.299 62.4639 179.561 62.9707 179.991 63.324C180.421 63.6772 181.02 63.8615 181.787 63.8615C182.555 63.8615 183.139 63.7079 183.508 63.3854C183.876 63.0629 184.076 62.6943 184.076 62.2796C184.076 61.8957 183.907 61.6039 183.584 61.3735C183.354 61.2199 182.77 61.0356 181.864 60.8052C180.62 60.4981 179.776 60.2216 179.284 59.9912C178.808 59.7609 178.439 59.4537 178.194 59.039C177.948 58.6397 177.825 58.1943 177.825 57.7028C177.825 57.2574 177.933 56.8428 178.132 56.4742C178.332 56.0902 178.608 55.7831 178.962 55.5373C179.223 55.3377 179.576 55.1841 180.037 55.0459C180.497 54.9076 180.973 54.8462 181.496 54.8462C182.279 54.8462 182.97 54.9537 183.554 55.1841C184.137 55.4145 184.583 55.7063 184.859 56.1056C185.136 56.4895 185.335 57.0117 185.443 57.6414L183.799 57.8718C183.723 57.365 183.508 56.9656 183.154 56.6738C182.801 56.382 182.294 56.2438 181.634 56.2438C180.866 56.2438 180.313 56.3667 179.975 56.6278C179.637 56.8888 179.484 57.1807 179.484 57.5339C179.484 57.7489 179.545 57.9486 179.683 58.1175C179.822 58.3018 180.037 58.4554 180.328 58.5629C180.497 58.6243 180.989 58.7626 181.818 58.9929C183.016 59.3155 183.845 59.5766 184.322 59.7762C184.798 59.9759 185.166 60.2677 185.427 60.667C185.688 61.051 185.827 61.5424 185.827 62.1107C185.827 62.6789 185.658 63.2011 185.335 63.6926C185.013 64.1841 184.537 64.568 183.922 64.8445C183.308 65.1209 182.601 65.2591 181.818 65.2591C180.528 65.2591 179.545 64.998 178.854 64.4605C178.163 63.923 177.748 63.1243 177.564 62.0646L177.533 62.0492Z" fill="#595757"/>
<path d="M194.336 65.0132V63.5542C193.568 64.6753 192.508 65.2436 191.172 65.2436C190.588 65.2436 190.035 65.1361 189.528 64.9057C189.022 64.6753 188.638 64.3989 188.392 64.061C188.146 63.7231 187.977 63.3085 187.87 62.817C187.808 62.4791 187.762 61.9569 187.762 61.2351V55.061H189.452V60.59C189.452 61.4655 189.482 62.0644 189.559 62.3716C189.667 62.817 189.897 63.1702 190.235 63.416C190.573 63.6617 191.003 63.7999 191.51 63.7999C192.016 63.7999 192.493 63.6771 192.938 63.416C193.383 63.1549 193.691 62.8016 193.875 62.3562C194.059 61.9108 194.151 61.2658 194.151 60.4057V55.0764H195.841V65.0286H194.336V65.0132Z" fill="#595757"/>
<path d="M198.498 68.8378V55.0614H200.034V56.3515C200.402 55.8447 200.802 55.4607 201.263 55.215C201.723 54.9693 202.276 54.8311 202.921 54.8311C203.766 54.8311 204.518 55.0461 205.164 55.4915C205.809 55.9215 206.3 56.5512 206.638 57.3498C206.976 58.1485 207.129 59.0239 207.129 59.9761C207.129 60.9897 206.945 61.9112 206.576 62.7252C206.208 63.5392 205.686 64.1689 204.979 64.599C204.288 65.029 203.551 65.244 202.783 65.244C202.215 65.244 201.723 65.1211 201.263 64.8908C200.802 64.6604 200.449 64.3532 200.157 63.9846V68.8378H198.467H198.498ZM200.018 60.099C200.018 61.3737 200.28 62.3259 200.802 62.9403C201.324 63.5546 201.954 63.8618 202.691 63.8618C203.428 63.8618 204.088 63.5392 204.611 62.9095C205.148 62.2798 205.409 61.2969 205.409 59.9607C205.409 58.6246 205.148 57.7491 204.626 57.1041C204.104 56.4744 203.474 56.1519 202.752 56.1519C202.03 56.1519 201.401 56.4898 200.848 57.1655C200.295 57.8413 200.018 58.8089 200.018 60.099Z" fill="#595757"/>
<path d="M209.172 68.8378V55.0614H210.708V56.3515C211.076 55.8447 211.476 55.4607 211.936 55.215C212.397 54.9693 212.95 54.8311 213.595 54.8311C214.44 54.8311 215.192 55.0461 215.837 55.4915C216.482 55.9215 216.974 56.5512 217.312 57.3498C217.65 58.1485 217.803 59.0239 217.803 59.9761C217.803 60.9897 217.619 61.9112 217.25 62.7252C216.882 63.5392 216.36 64.1689 215.653 64.599C214.962 65.029 214.225 65.244 213.457 65.244C212.889 65.244 212.397 65.1211 211.936 64.8908C211.476 64.6604 211.122 64.3532 210.831 63.9846V68.8378H209.141H209.172ZM210.692 60.099C210.692 61.3737 210.953 62.3259 211.476 62.9403C211.998 63.5546 212.627 63.8618 213.365 63.8618C214.102 63.8618 214.762 63.5392 215.284 62.9095C215.822 62.2798 216.083 61.2969 216.083 59.9607C216.083 58.6246 215.822 57.7491 215.3 57.1041C214.778 56.4744 214.148 56.1519 213.426 56.1519C212.704 56.1519 212.075 56.4898 211.522 57.1655C210.969 57.8413 210.692 58.8089 210.692 60.099Z" fill="#595757"/>
<path d="M219.815 65.0133V51.2676H221.505V65.0133H219.815Z" fill="#595757"/>
<path d="M224.116 53.2184V51.2832H225.805V53.2184H224.116ZM224.116 65.0135V55.0614H225.805V65.0135H224.116Z" fill="#595757"/>
<path d="M235.189 61.803L236.94 62.018C236.663 63.0316 236.156 63.8303 235.404 64.3832C234.667 64.9514 233.714 65.2279 232.547 65.2279C231.088 65.2279 229.936 64.7825 229.092 63.8764C228.232 62.9856 227.817 61.7262 227.817 60.0982C227.817 58.4702 228.247 57.1187 229.107 56.1972C229.967 55.2757 231.088 54.8149 232.47 54.8149C233.853 54.8149 234.882 55.2603 235.726 56.1818C236.571 57.088 236.986 58.3627 236.986 60.0061C236.986 60.0982 236.986 60.2518 236.986 60.4514H229.568C229.629 61.5419 229.936 62.3866 230.489 62.9702C231.042 63.5538 231.733 63.8456 232.563 63.8456C233.177 63.8456 233.714 63.6767 234.145 63.3542C234.575 63.0316 234.928 62.5095 235.189 61.803ZM229.645 59.0846H235.204C235.127 58.2398 234.912 57.6255 234.559 57.1955C234.022 56.5504 233.331 56.2279 232.47 56.2279C231.703 56.2279 231.042 56.489 230.52 57.0112C229.998 57.5334 229.706 58.2245 229.645 59.0999V59.0846Z" fill="#595757"/>
<path d="M238.383 62.0492L240.057 61.7882C240.15 62.4639 240.411 62.9707 240.841 63.324C241.271 63.6772 241.87 63.8615 242.638 63.8615C243.405 63.8615 243.989 63.7079 244.358 63.3854C244.726 63.0629 244.926 62.6943 244.926 62.2796C244.926 61.8957 244.757 61.6039 244.434 61.3735C244.204 61.2199 243.621 61.0356 242.714 60.8052C241.47 60.4981 240.626 60.2216 240.134 59.9912C239.658 59.7609 239.289 59.4537 239.044 59.039C238.798 58.6397 238.675 58.1943 238.675 57.7028C238.675 57.2574 238.783 56.8428 238.982 56.4742C239.182 56.0902 239.458 55.7831 239.812 55.5373C240.073 55.3377 240.426 55.1841 240.887 55.0459C241.347 54.9076 241.824 54.8462 242.346 54.8462C243.129 54.8462 243.82 54.9537 244.404 55.1841C244.987 55.4145 245.433 55.7063 245.709 56.1056C245.986 56.4895 246.185 57.0117 246.293 57.6414L244.65 57.8718C244.573 57.365 244.358 56.9656 244.004 56.6738C243.651 56.382 243.144 56.2438 242.484 56.2438C241.716 56.2438 241.163 56.3667 240.825 56.6278C240.487 56.8888 240.334 57.1807 240.334 57.5339C240.334 57.7489 240.395 57.9486 240.533 58.1175C240.672 58.3018 240.887 58.4554 241.179 58.5629C241.347 58.6243 241.839 58.7626 242.668 58.9929C243.866 59.3155 244.696 59.5766 245.172 59.7762C245.648 59.9759 246.016 60.2677 246.278 60.667C246.539 61.051 246.677 61.5424 246.677 62.1107C246.677 62.6789 246.508 63.2011 246.185 63.6926C245.863 64.1841 245.387 64.568 244.772 64.8445C244.158 65.1209 243.452 65.2591 242.668 65.2591C241.378 65.2591 240.395 64.998 239.704 64.4605C239.013 63.923 238.598 63.1243 238.414 62.0646L238.383 62.0492Z" fill="#595757"/>
<path d="M247.383 60.7282V59.3613H266.581V60.7282H247.383Z" fill="#595757"/>
<path d="M271.526 63.5079L271.772 64.9977C271.296 65.0898 270.866 65.1512 270.497 65.1512C269.883 65.1512 269.407 65.0591 269.069 64.8594C268.731 64.6598 268.501 64.414 268.363 64.0915C268.224 63.769 268.163 63.1086 268.163 62.0949V56.3663H266.919V55.0608H268.163V52.6035L269.837 51.5898V55.0608H271.526V56.3663H269.837V62.1871C269.837 62.6632 269.868 62.9704 269.929 63.1086C269.991 63.2468 270.083 63.3543 270.221 63.4311C270.359 63.5079 270.544 63.554 270.805 63.554C270.989 63.554 271.235 63.5386 271.542 63.4925L271.526 63.5079Z" fill="#595757"/>
<path d="M273.186 65.0133V51.2676H274.875V56.1976C275.658 55.2915 276.657 54.8307 277.854 54.8307C278.592 54.8307 279.237 54.9689 279.774 55.2607C280.312 55.5526 280.711 55.9519 280.942 56.4587C281.172 56.9655 281.295 57.7181 281.295 58.6856V64.9979H279.605V58.6856C279.605 57.8409 279.421 57.2266 279.052 56.8427C278.684 56.4587 278.177 56.259 277.501 56.259C276.994 56.259 276.534 56.3819 276.088 56.643C275.643 56.9041 275.336 57.2573 275.151 57.7027C274.967 58.1481 274.875 58.7624 274.875 59.5457V64.9979H273.186V65.0133Z" fill="#595757"/>
<path d="M290.679 61.803L292.429 62.018C292.153 63.0316 291.646 63.8303 290.894 64.3832C290.156 64.9514 289.204 65.2279 288.037 65.2279C286.578 65.2279 285.426 64.7825 284.581 63.8764C283.721 62.9856 283.307 61.7262 283.307 60.0982C283.307 58.4702 283.737 57.1187 284.597 56.1972C285.457 55.2757 286.578 54.8149 287.96 54.8149C289.342 54.8149 290.371 55.2603 291.216 56.1818C292.061 57.088 292.476 58.3627 292.476 60.0061C292.476 60.0982 292.476 60.2518 292.476 60.4514H285.058C285.119 61.5419 285.426 62.3866 285.979 62.9702C286.532 63.5538 287.223 63.8456 288.052 63.8456C288.667 63.8456 289.204 63.6767 289.634 63.3542C290.064 63.0316 290.418 62.5095 290.679 61.803ZM285.134 59.0846H290.694C290.617 58.2398 290.402 57.6255 290.049 57.1955C289.511 56.5504 288.82 56.2279 287.96 56.2279C287.192 56.2279 286.532 56.489 286.01 57.0112C285.488 57.5334 285.196 58.2245 285.134 59.0999V59.0846Z" fill="#595757"/>
<path d="M299.878 68.8378V55.0614H301.414V56.3515C301.783 55.8447 302.182 55.4607 302.643 55.215C303.104 54.9693 303.657 54.8311 304.302 54.8311C305.146 54.8311 305.899 55.0461 306.544 55.4915C307.189 55.9215 307.68 56.5512 308.018 57.3498C308.356 58.1485 308.51 59.0239 308.51 59.9761C308.51 60.9897 308.325 61.9112 307.957 62.7252C307.588 63.5392 307.066 64.1689 306.36 64.599C305.668 65.029 304.931 65.244 304.163 65.244C303.595 65.244 303.104 65.1211 302.643 64.8908C302.182 64.6604 301.829 64.3532 301.537 63.9846V68.8378H299.848H299.878ZM301.399 60.099C301.399 61.3737 301.66 62.3259 302.182 62.9403C302.704 63.5546 303.334 63.8618 304.071 63.8618C304.808 63.8618 305.469 63.5392 305.991 62.9095C306.529 62.2798 306.79 61.2969 306.79 59.9607C306.79 58.6246 306.529 57.7491 306.006 57.1041C305.484 56.4744 304.854 56.1519 304.133 56.1519C303.411 56.1519 302.781 56.4898 302.228 57.1655C301.675 57.8413 301.399 58.8089 301.399 60.099Z" fill="#595757"/>
<path d="M317.048 63.7842C316.419 64.3217 315.82 64.6903 315.252 64.9054C314.668 65.1204 314.054 65.2279 313.393 65.2279C312.303 65.2279 311.458 64.9668 310.874 64.4293C310.291 63.8917 309.999 63.2159 309.999 62.3866C309.999 61.8951 310.107 61.4497 310.337 61.0504C310.552 60.6511 310.844 60.3286 311.212 60.0828C311.566 59.8371 311.98 59.6528 312.426 59.5299C312.764 59.4378 313.255 59.361 313.931 59.2689C315.298 59.0999 316.296 58.9156 316.941 58.6852C316.941 58.4549 316.941 58.3013 316.941 58.2399C316.941 57.5487 316.787 57.0726 316.465 56.7808C316.035 56.3968 315.39 56.2126 314.545 56.2126C313.746 56.2126 313.163 56.3508 312.794 56.6272C312.41 56.9037 312.134 57.3951 311.95 58.1016L310.306 57.8713C310.46 57.1648 310.706 56.5965 311.043 56.1665C311.381 55.7364 311.888 55.3986 312.533 55.1682C313.178 54.9378 313.931 54.8149 314.791 54.8149C315.651 54.8149 316.327 54.9071 316.864 55.1221C317.402 55.3218 317.786 55.5675 318.031 55.8747C318.277 56.1818 318.461 56.5658 318.554 57.0265C318.615 57.3183 318.646 57.8405 318.646 58.5777V60.82C318.646 62.3866 318.676 63.3849 318.753 63.7996C318.83 64.2142 318.968 64.6136 319.183 64.9975H317.417C317.248 64.6443 317.125 64.245 317.079 63.7688L317.048 63.7842ZM316.91 60.0214C316.296 60.2671 315.374 60.4822 314.161 60.6665C313.47 60.7586 312.979 60.8815 312.687 61.0043C312.395 61.1272 312.18 61.3115 312.026 61.5572C311.873 61.803 311.796 62.0641 311.796 62.3559C311.796 62.8013 311.965 63.1852 312.303 63.477C312.641 63.7842 313.147 63.9224 313.793 63.9224C314.438 63.9224 315.021 63.7842 315.528 63.4924C316.035 63.2006 316.403 62.8166 316.649 62.3252C316.833 61.9412 316.926 61.3883 316.926 60.6357V60.0214H316.91Z" fill="#595757"/>
<path d="M327.723 61.3735L329.382 61.5885C329.197 62.725 328.737 63.6312 327.984 64.2762C327.231 64.9213 326.325 65.2438 325.235 65.2438C323.868 65.2438 322.777 64.7984 321.948 63.9076C321.119 63.0168 320.704 61.7421 320.704 60.0834C320.704 59.0083 320.888 58.0714 321.242 57.2574C321.595 56.4588 322.132 55.8445 322.87 55.4452C323.591 55.0459 324.39 54.8462 325.25 54.8462C326.325 54.8462 327.216 55.1226 327.907 55.6602C328.598 56.2131 329.028 56.981 329.228 57.9946L327.585 58.2404C327.431 57.5646 327.155 57.0731 326.755 56.7353C326.356 56.3974 325.88 56.2284 325.312 56.2284C324.467 56.2284 323.776 56.5356 323.238 57.1499C322.701 57.7643 322.44 58.7165 322.44 60.0373C322.44 61.3581 322.701 62.3411 323.208 62.9554C323.714 63.5544 324.39 63.8615 325.219 63.8615C325.88 63.8615 326.433 63.6619 326.878 63.2472C327.324 62.8479 327.6 62.2182 327.723 61.3735Z" fill="#595757"/>
<path d="M337.644 61.803L339.395 62.018C339.119 63.0316 338.612 63.8303 337.859 64.3832C337.122 64.9514 336.17 65.2279 335.003 65.2279C333.544 65.2279 332.392 64.7825 331.547 63.8764C330.687 62.9856 330.272 61.7262 330.272 60.0982C330.272 58.4702 330.703 57.1187 331.563 56.1972C332.423 55.2757 333.544 54.8149 334.926 54.8149C336.308 54.8149 337.337 55.2603 338.182 56.1818C339.027 57.088 339.441 58.3627 339.441 60.0061C339.441 60.0982 339.441 60.2518 339.441 60.4514H332.023C332.085 61.5419 332.392 62.3866 332.945 62.9702C333.498 63.5538 334.189 63.8456 335.018 63.8456C335.633 63.8456 336.17 63.6767 336.6 63.3542C337.03 63.0316 337.383 62.5095 337.644 61.803ZM332.1 59.0846H337.66C337.583 58.2398 337.368 57.6255 337.015 57.1955C336.477 56.5504 335.786 56.2279 334.926 56.2279C334.158 56.2279 333.498 56.489 332.976 57.0112C332.453 57.5334 332.162 58.2245 332.1 59.0999V59.0846Z" fill="#595757"/>
<path d="M346.844 53.2184V51.2832H348.534V53.2184H346.844ZM346.844 65.0135V55.0614H348.534V65.0135H346.844Z" fill="#595757"/>
<path d="M350.423 62.0492L352.097 61.7882C352.189 62.4639 352.45 62.9707 352.88 63.324C353.31 63.6772 353.909 63.8615 354.677 63.8615C355.445 63.8615 356.029 63.7079 356.397 63.3854C356.766 63.0629 356.965 62.6943 356.965 62.2796C356.965 61.8957 356.797 61.6039 356.474 61.3735C356.244 61.2199 355.66 61.0356 354.754 60.8052C353.51 60.4981 352.665 60.2216 352.174 59.9912C351.698 59.7609 351.329 59.4537 351.083 59.039C350.838 58.6397 350.715 58.1943 350.715 57.7028C350.715 57.2574 350.822 56.8428 351.022 56.4742C351.221 56.0902 351.498 55.7831 351.851 55.5373C352.112 55.3377 352.465 55.1841 352.926 55.0459C353.387 54.9076 353.863 54.8462 354.385 54.8462C355.169 54.8462 355.844 54.9537 356.443 55.1841C357.027 55.4145 357.472 55.7063 357.749 56.1056C358.025 56.4895 358.225 57.0117 358.332 57.6414L356.689 57.8718C356.612 57.365 356.397 56.9656 356.044 56.6738C355.691 56.382 355.184 56.2438 354.524 56.2438C353.756 56.2438 353.203 56.3667 352.865 56.6278C352.527 56.8888 352.373 57.1807 352.373 57.5339C352.373 57.7489 352.435 57.9486 352.573 58.1175C352.711 58.3018 352.926 58.4554 353.218 58.5629C353.387 58.6243 353.878 58.7626 354.708 58.9929C355.906 59.3155 356.735 59.5766 357.211 59.7762C357.687 59.9759 358.056 60.2677 358.317 60.667C358.578 61.051 358.716 61.5424 358.716 62.1107C358.716 62.6789 358.547 63.2011 358.225 63.6926C357.902 64.1841 357.426 64.568 356.812 64.8445C356.198 65.1209 355.491 65.2591 354.708 65.2591C353.418 65.2591 352.435 64.998 351.744 64.4605C351.053 63.923 350.638 63.1243 350.454 62.0646L350.423 62.0492Z" fill="#595757"/>
<path d="M363.892 68.8836L364.215 67.4553C364.553 67.5474 364.814 67.5935 365.013 67.5935C365.351 67.5935 365.612 67.486 365.781 67.2556C365.95 67.0252 366.027 66.457 366.027 65.5508V55.0918H367.716V65.5969C367.716 66.8256 367.563 67.6703 367.24 68.1617C366.841 68.7914 366.165 69.0986 365.213 69.0986C364.752 69.0986 364.322 69.0372 363.892 68.9143V68.8836ZM366.027 53.2334V51.2676H367.716V53.2334H366.027Z" fill="#595757"/>
<path d="M376.823 65.0132V63.5542C376.055 64.6753 374.996 65.2436 373.66 65.2436C373.076 65.2436 372.523 65.1361 372.016 64.9057C371.509 64.6753 371.125 64.3989 370.88 64.061C370.634 63.7231 370.465 63.3085 370.358 62.817C370.296 62.4791 370.25 61.9569 370.25 61.2351V55.061H371.939V60.59C371.939 61.4655 371.97 62.0644 372.047 62.3716C372.154 62.817 372.385 63.1702 372.723 63.416C373.061 63.6617 373.491 63.7999 373.997 63.7999C374.504 63.7999 374.98 63.6771 375.426 63.416C375.871 63.1549 376.178 62.8016 376.363 62.3562C376.547 61.9108 376.639 61.2658 376.639 60.4057V55.0764H378.328V65.0286H376.823V65.0132Z" fill="#595757"/>
<path d="M380.31 62.0492L381.984 61.7882C382.076 62.4639 382.337 62.9707 382.767 63.324C383.197 63.6772 383.796 63.8615 384.564 63.8615C385.332 63.8615 385.916 63.7079 386.284 63.3854C386.653 63.0629 386.853 62.6943 386.853 62.2796C386.853 61.8957 386.684 61.6039 386.361 61.3735C386.131 61.2199 385.547 61.0356 384.641 60.8052C383.397 60.4981 382.552 60.2216 382.061 59.9912C381.585 59.7609 381.216 59.4537 380.97 59.039C380.725 58.6397 380.602 58.1943 380.602 57.7028C380.602 57.2574 380.709 56.8428 380.909 56.4742C381.109 56.0902 381.385 55.7831 381.738 55.5373C381.999 55.3377 382.353 55.1841 382.813 55.0459C383.274 54.9076 383.75 54.8462 384.273 54.8462C385.056 54.8462 385.747 54.9537 386.331 55.1841C386.914 55.4145 387.36 55.7063 387.636 56.1056C387.912 56.4895 388.112 57.0117 388.22 57.6414L386.576 57.8718C386.499 57.365 386.284 56.9656 385.931 56.6738C385.578 56.382 385.071 56.2438 384.411 56.2438C383.643 56.2438 383.09 56.3667 382.752 56.6278C382.414 56.8888 382.261 57.1807 382.261 57.5339C382.261 57.7489 382.322 57.9486 382.46 58.1175C382.598 58.3018 382.813 58.4554 383.105 58.5629C383.274 58.6243 383.766 58.7626 384.595 58.9929C385.793 59.3155 386.622 59.5766 387.098 59.7762C387.575 59.9759 387.943 60.2677 388.204 60.667C388.465 61.051 388.604 61.5424 388.604 62.1107C388.604 62.6789 388.435 63.2011 388.112 63.6926C387.79 64.1841 387.313 64.568 386.699 64.8445C386.085 65.1209 385.378 65.2591 384.595 65.2591C383.305 65.2591 382.322 64.998 381.631 64.4605C380.94 63.923 380.525 63.1243 380.341 62.0646L380.31 62.0492Z" fill="#595757"/>
<path d="M394.255 63.5079L394.501 64.9977C394.025 65.0898 393.595 65.1512 393.226 65.1512C392.612 65.1512 392.136 65.0591 391.798 64.8594C391.46 64.6598 391.229 64.414 391.091 64.0915C390.953 63.769 390.891 63.1086 390.891 62.0949V56.3663H389.647V55.0608H390.891V52.6035L392.566 51.5898V55.0608H394.255V56.3663H392.566V62.1871C392.566 62.6632 392.596 62.9704 392.658 63.1086C392.719 63.2468 392.811 63.3543 392.95 63.4311C393.088 63.5079 393.272 63.554 393.533 63.554C393.717 63.554 393.963 63.5386 394.27 63.4925L394.255 63.5079Z" fill="#595757"/>
<path d="M401.228 65.0136V55.0614H402.748V56.5665C403.132 55.8601 403.485 55.3993 403.823 55.1689C404.146 54.9386 404.514 54.8311 404.898 54.8311C405.467 54.8311 406.05 55.0154 406.634 55.3686L406.05 56.9351C405.636 56.6894 405.221 56.5665 404.806 56.5665C404.438 56.5665 404.1 56.6741 403.808 56.9044C403.516 57.1348 403.301 57.4266 403.178 57.8259C402.994 58.4249 402.902 59.0853 402.902 59.7918V64.9983H401.212L401.228 65.0136Z" fill="#595757"/>
<path d="M407.647 53.2184V51.2832H409.337V53.2184H407.647ZM407.647 65.0135V55.0614H409.337V65.0135H407.647Z" fill="#595757"/>
<path d="M411.595 65.843L413.238 66.0888C413.3 66.5956 413.499 66.9642 413.807 67.1946C414.221 67.5017 414.805 67.6707 415.527 67.6707C416.31 67.6707 416.909 67.5171 417.339 67.1946C417.769 66.8874 418.045 66.442 418.199 65.8891C418.291 65.5512 418.322 64.8294 418.322 63.7236C417.585 64.599 416.663 65.029 415.573 65.029C414.206 65.029 413.146 64.5376 412.394 63.5546C411.641 62.5717 411.272 61.3891 411.272 60.0069C411.272 59.0546 411.441 58.1792 411.795 57.3806C412.133 56.5819 412.639 55.9523 413.284 55.5222C413.929 55.0922 414.697 54.8618 415.588 54.8618C416.771 54.8618 417.738 55.3379 418.491 56.2901V55.0922H420.042V63.6929C420.042 65.244 419.888 66.3345 419.566 66.9949C419.243 67.6399 418.752 68.1468 418.061 68.5307C417.37 68.8993 416.54 69.099 415.527 69.099C414.344 69.099 413.377 68.8379 412.655 68.3004C411.918 67.7628 411.564 66.9642 411.595 65.8891V65.843ZM412.993 59.8533C412.993 61.1587 413.254 62.1109 413.776 62.7099C414.298 63.3089 414.943 63.6161 415.726 63.6161C416.51 63.6161 417.155 63.3243 417.677 62.7253C418.199 62.1263 418.46 61.1894 418.46 59.9147C418.46 58.64 418.184 57.7799 417.646 57.1656C417.109 56.5512 416.448 56.2441 415.696 56.2441C414.943 56.2441 414.313 56.5512 413.776 57.1502C413.254 57.7645 412.993 58.6707 412.993 59.8686V59.8533Z" fill="#595757"/>
<path d="M422.576 65.0133V51.2676H424.266V56.1976C425.049 55.2915 426.047 54.8307 427.245 54.8307C427.982 54.8307 428.627 54.9689 429.165 55.2607C429.702 55.5526 430.102 55.9519 430.332 56.4587C430.563 56.9655 430.685 57.7181 430.685 58.6856V64.9979H428.996V58.6856C428.996 57.8409 428.812 57.2266 428.443 56.8427C428.074 56.4587 427.568 56.259 426.892 56.259C426.385 56.259 425.924 56.3819 425.479 56.643C425.034 56.9041 424.726 57.2573 424.542 57.7027C424.358 58.1481 424.266 58.7624 424.266 59.5457V64.9979H422.576V65.0133Z" fill="#595757"/>
<path d="M436.936 63.5079L437.182 64.9977C436.706 65.0898 436.276 65.1512 435.907 65.1512C435.293 65.1512 434.817 65.0591 434.479 64.8594C434.141 64.6598 433.911 64.414 433.772 64.0915C433.634 63.769 433.573 63.1086 433.573 62.0949V56.3663H432.329V55.0608H433.573V52.6035L435.247 51.5898V55.0608H436.936V56.3663H435.247V62.1871C435.247 62.6632 435.277 62.9704 435.339 63.1086C435.4 63.2468 435.492 63.3543 435.631 63.4311C435.769 63.5079 435.953 63.554 436.214 63.554C436.399 63.554 436.644 63.5386 436.951 63.4925L436.936 63.5079Z" fill="#595757"/>
<path d="M439.07 65.0135V63.0938H440.99V65.0135H439.07Z" fill="#595757"/>
<defs>
<linearGradient id="paint0_linear_76_90450" x1="239.992" y1="222.453" x2="239.992" y2="390.71" gradientUnits="userSpaceOnUse">
<stop stop-color="white"/>
<stop offset="1" stop-color="white" stop-opacity="0.6"/>
</linearGradient>
<linearGradient id="paint1_linear_76_90450" x1="111.175" y1="48.2768" x2="-98.111" y2="435.305" gradientUnits="userSpaceOnUse">
<stop stop-color="white"/>
<stop offset="0.1" stop-color="#F1F1F1"/>
<stop offset="0.29" stop-color="#CDCDCD"/>
<stop offset="0.55" stop-color="#939292"/>
<stop offset="0.87" stop-color="#444243"/>
<stop offset="1" stop-color="#221F20"/>
</linearGradient>
<linearGradient id="paint2_linear_76_90450" x1="251.108" y1="64.9011" x2="60.0351" y2="418.252" gradientUnits="userSpaceOnUse">
<stop stop-color="white"/>
<stop offset="0.1" stop-color="#F1F1F1"/>
<stop offset="0.29" stop-color="#CDCDCD"/>
<stop offset="0.55" stop-color="#939292"/>
<stop offset="0.87" stop-color="#444243"/>
<stop offset="1" stop-color="#221F20"/>
</linearGradient>
<linearGradient id="paint3_linear_76_90450" x1="119.408" y1="63.3533" x2="119.408" y2="246.562" gradientUnits="userSpaceOnUse">
<stop stop-color="white"/>
<stop offset="0.27" stop-color="#F4BD7B"/>
<stop offset="1" stop-color="#040000"/>
</linearGradient>
</defs>
</svg>
