<svg width="480" height="454" viewBox="0 0 480 454" fill="none" xmlns="http://www.w3.org/2000/svg">
<path opacity="0.8" d="M436.87 0H43.1304C19.3101 0 0 19.2976 0 43.1024V410.898C0 434.702 19.3101 454 43.1304 454H436.87C460.69 454 480 434.702 480 410.898V43.1024C480 19.2976 460.69 0 436.87 0Z" fill="url(#paint0_linear_20_208444)"/>
<mask id="mask0_20_208444" style="mask-type:luminance" maskUnits="userSpaceOnUse" x="17" y="99" width="446" height="340">
<path d="M17.5962 99.6062V398.859C17.5962 420.829 35.5801 438.801 57.5638 438.801H422.451C444.435 438.801 462.419 420.829 462.419 398.859V99.6062H17.5962Z" fill="white"/>
</mask>
<g mask="url(#mask0_20_208444)">
<path d="M634.817 -5.70093H-94.2605V420.148H634.817V-5.70093Z" fill="#DEE8F6"/>
<path opacity="0.2" d="M410.777 200.282L159.545 200.049C144.29 195.804 140.507 156.714 180.769 154.623C220.985 152.531 166.01 106.702 223.481 100.691C268.875 95.9342 292.517 143.096 326.966 155.289C333.694 157.721 341.027 158.558 347.198 157.923C350.453 157.629 353.864 156.978 357.368 155.94C371.104 151.88 385.32 151.602 395.925 161.053C410.948 174.423 410.793 200.282 410.793 200.282H410.777Z" fill="#A9C2E5"/>
<path opacity="0.8" d="M260.922 145.095C260.922 145.095 283.619 141.469 295.075 143.127C295.075 143.127 293.06 141.02 289.975 141.299C289.975 141.299 287.308 133.924 281.479 133.738C275.65 133.552 273.929 136.899 273.929 136.899C273.929 136.899 271.324 134.435 266.844 136.728C262.363 139.021 262.58 142.523 262.58 142.523C262.58 142.523 260.627 142.925 260.922 145.11V145.095Z" fill="white"/>
<path opacity="0.8" d="M237.17 121.374C237.17 121.374 251.092 119.158 258.115 120.165C258.115 120.165 256.875 118.879 254.984 119.05C254.984 119.05 253.356 114.526 249.775 114.402C246.193 114.278 245.139 116.339 245.139 116.339C245.139 116.339 243.542 114.82 240.798 116.23C238.054 117.64 238.178 119.778 238.178 119.778C238.178 119.778 236.984 120.026 237.155 121.358L237.17 121.374Z" fill="white"/>
<path opacity="0.8" d="M205.822 120.476C205.714 120.863 232.287 111.675 243.263 113.751C243.263 113.751 243.015 107.043 238.286 106.795C233.558 106.563 231.822 111.257 231.822 111.257C231.822 111.257 229.651 108.375 226.69 111.458C226.69 111.458 221.31 109.847 219.62 114.588C219.62 114.588 213.434 115.347 212.303 117.439C212.303 117.439 206.582 117.95 205.853 120.46L205.822 120.476Z" fill="white"/>
<path d="M390.669 147.681H378.065V200.281H390.669V147.681Z" fill="#DEE8F6"/>
<path d="M382.251 161.998H369.647V200.282H382.251V161.998Z" fill="#DEE8F6"/>
<path d="M353.709 172.518H344.454V200.282H353.709V172.518Z" fill="#DEE8F6"/>
<path d="M343.399 166.087H334.144V200.281H343.399V166.087Z" fill="#DEE8F6"/>
<path d="M334.237 166.087H324.981V200.281H334.237V166.087Z" fill="#DEE8F6"/>
<path d="M325.385 160.588H316.129V200.297H325.385V160.588Z" fill="#DEE8F6"/>
<path d="M322.563 178.467H300.796V200.281H322.563V178.467Z" fill="#DEE8F6"/>
<path d="M369.135 153.104H356.531V200.281H369.135V153.104Z" fill="#DEE8F6"/>
<path d="M335.896 143.824H328.64V200.282H335.896V143.824Z" fill="#DEE8F6"/>
<path d="M347.989 200.281H338.314V158.775L347.989 155.01V200.281Z" fill="#DEE8F6"/>
<path d="M374.096 126.099H359.26V200.281H374.096V126.099Z" fill="#DEE8F6"/>
<path d="M360.655 127.572C360.655 123.574 363.352 120.336 366.67 120.336C369.988 120.336 372.685 123.574 372.685 127.572C372.685 131.569 369.988 134.807 366.67 134.807C363.352 134.807 360.655 131.569 360.655 127.572Z" fill="#DEE8F6"/>
<path d="M366.67 123.512C366.546 123.512 366.438 123.404 366.438 123.28V115.084C366.438 114.96 366.546 114.852 366.67 114.852C366.794 114.852 366.903 114.96 366.903 115.084V123.28C366.903 123.404 366.794 123.512 366.67 123.512Z" fill="#DEE8F6"/>
<path d="M357.848 143.452H349.554V200.281H357.848V143.452Z" fill="#DEE8F6"/>
<path d="M357.848 141.934H350.748V143.452H357.848V141.934Z" fill="#DEE8F6"/>
<path d="M357.848 140.415H353.073V141.934H357.848V140.415Z" fill="#DEE8F6"/>
<path d="M357.864 138.881H355.228V140.399H357.864V138.881Z" fill="#DEE8F6"/>
<path d="M345.26 126.502C345.213 126.347 344.764 126.285 344.578 126.27L344.392 126.239C343.818 126.099 343.198 126.084 342.624 126.239C342.361 126.301 340.252 126.952 337.942 127.68L338.066 127.649C338.066 127.649 336.314 127.277 335.973 127.199C335.942 127.199 335.911 127.199 335.911 127.199C335.911 127.199 335.865 127.153 335.803 127.107C335.632 126.936 335.307 126.611 335.183 126.471C335.152 126.44 335.09 126.425 335.043 126.44L334.919 126.471C334.919 126.471 334.919 126.471 334.919 126.487C334.919 126.487 335.167 126.936 335.353 127.215C335.4 127.292 335.462 127.354 335.493 127.401C335.508 127.416 335.555 127.447 335.586 127.478C335.911 127.711 336.717 128.083 336.717 128.083C335.896 128.346 335.09 128.594 334.361 128.826H333.601C333.121 128.826 332.656 128.671 332.252 128.423L330.997 127.618C330.997 127.618 330.888 127.571 330.826 127.602L330.516 127.695C330.516 127.695 330.423 127.788 330.47 127.85L331.741 129.647C331.539 129.709 331.431 129.74 331.431 129.74C331.353 129.771 331.431 129.88 331.539 129.988C331.539 129.988 331.57 130.019 331.586 130.035L330.563 130.716V130.732L330.935 130.639C330.935 130.639 330.95 130.639 330.966 130.639L331.896 130.205C331.896 130.205 332.051 130.236 332.128 130.221L335.725 130.019C336.113 130.004 336.485 129.926 336.841 129.818C337.074 129.74 337.384 129.647 337.741 129.554C337.772 129.616 337.803 129.663 337.772 129.694C337.679 129.818 336.268 131.491 336.268 131.491C336.268 131.491 336.841 131.491 337.059 131.414C337.229 131.352 339.198 129.601 340.02 128.857C341.663 128.361 343.322 127.85 343.694 127.726C344.485 127.447 345.322 126.75 345.26 126.549V126.502Z" fill="#DEE8F6"/>
<path d="M285.075 102.534H277.959V200.282H285.075V102.534Z" fill="#9BCCEE"/>
<path d="M253.526 125.155V200.282C253.526 200.282 252.069 200.096 159.545 200.282C144.29 196.037 140.507 156.715 180.769 154.623C203.001 153.461 196.133 138.928 195.265 125.155H253.511H253.526Z" fill="#A7C6E8"/>
<path d="M231.574 141.717H156.413V176.004H231.574V141.717Z" fill="#6B95CE"/>
<path d="M278.13 170.147H237.806V200.282H278.13V170.147Z" fill="#363361"/>
<path d="M278.13 170.023H237.806V184.416H278.13V170.023Z" fill="white"/>
<path d="M278.13 182.247H237.806V182.355H278.13V182.247Z" fill="#BDD9F2"/>
<path d="M278.13 179.707H237.806V179.815H278.13V179.707Z" fill="#BDD9F2"/>
<path d="M278.13 177.165H237.806V177.274H278.13V177.165Z" fill="#BDD9F2"/>
<path d="M278.13 174.624H237.806V174.733H278.13V174.624Z" fill="#BDD9F2"/>
<path d="M278.13 172.084H237.806V172.192H278.13V172.084Z" fill="#BDD9F2"/>
<path d="M294.254 104.393H268.797V114.526H294.254V104.393Z" fill="#6B95CE"/>
<path d="M156.413 157.489L171.39 141.717H156.413V157.489Z" fill="#8DBBE5"/>
<path d="M156.413 167.854L181.079 141.717H197.838L171.39 176.004H156.413V167.854Z" fill="#8DBBE5"/>
<path d="M181.994 176.004L205.822 141.717H227.248L209.59 176.004H181.994Z" fill="#5A89C7"/>
<path d="M231.574 158.171H156.413V158.853H231.574V158.171Z" fill="#AED6F2"/>
<path d="M177.885 141.717H177.126V176.004H177.885V141.717Z" fill="#AED6F2"/>
<path d="M210.953 141.02H210.194V175.306H210.953V141.02Z" fill="#AED6F2"/>
<path d="M268.797 114.526V104.393H274.781L272.254 114.526H268.797Z" fill="#8DBBE5"/>
<path d="M282.626 104.393L279.789 114.526H288.502L290.564 104.393H282.626Z" fill="#76A4D7"/>
<path d="M289.789 114.526H273.743V115.301H289.789V114.526Z" fill="#5C88C6"/>
<path d="M292.502 102.534H270.068V104.394H292.502V102.534Z" fill="#5C88C6"/>
<path d="M285.091 100.675H277.479V102.534H285.091V100.675Z" fill="#5C88C6"/>
<path d="M277.959 117.377C277.959 117.377 284.269 118.229 285.075 122.257V115.316H277.959V117.392V117.377Z" fill="#89B7E2"/>
<path d="M231.574 181.689H173.637L171.389 176.003H231.574V181.689Z" fill="#A7C6E8"/>
<path d="M162.956 176.127H160.568V200.297H162.956V176.127Z" fill="#76A4D7"/>
<path d="M160.568 177.289C160.568 177.289 162.382 177.676 162.956 179.365V176.112H160.568V177.289Z" fill="#5C88C6"/>
<path d="M184.381 176.127H181.994V200.297H184.381V176.127Z" fill="#76A4D7"/>
<path d="M181.994 177.289C181.994 177.289 183.808 177.676 184.381 179.365V176.112H181.994V177.289Z" fill="#5C88C6"/>
<path d="M205.807 176.127H203.42V200.297H205.807V176.127Z" fill="#76A4D7"/>
<path d="M203.42 177.289C203.42 177.289 205.234 177.676 205.807 179.365V176.112H203.42V177.289Z" fill="#5C88C6"/>
<path d="M227.233 176.127H224.845V200.297H227.233V176.127Z" fill="#76A4D7"/>
<path d="M224.845 177.289C224.845 177.289 226.659 177.676 227.233 179.365V176.112H224.845V177.289Z" fill="#5C88C6"/>
<path d="M305.401 153.167H235.682V167.328H305.401V153.167Z" fill="#6B95CE"/>
<path opacity="0.8" d="M235.682 167.328V153.167H254.1L248.364 167.328H235.682Z" fill="#9BCCEE"/>
<path d="M257.015 167.328L263.34 153.167H287.184L280.828 167.328H257.015Z" fill="#76A4D7"/>
<path d="M272.983 171.79C267.092 172.208 261.263 174.284 256.286 177.817L253.495 179.66C251.743 180.574 248.364 182.542 247.992 184.417H278.146V171.697C275.464 171.697 273.665 171.743 272.999 171.79H272.983Z" fill="#A7C6E8"/>
<path d="M634.816 200.839H-94.2607V420.147H634.816V200.839Z" fill="#B5C569"/>
<path d="M634.816 511.852H-94.2607V243.136L270.286 201.18L634.816 282.877V511.852Z" fill="white"/>
<path d="M634.816 511.852H-94.2607V245.786L270.286 201.18L634.816 292.142V511.852Z" fill="#A39EA1"/>
<path d="M634.816 511.852H-94.2607V263.479L270.286 201.18L634.816 323.097V511.852Z" fill="#F5BF1F"/>
<path d="M634.816 511.852H-94.2607V267.461L270.286 201.18L634.816 336.344V511.852Z" fill="#484B4F"/>
<path d="M246.597 228.743L238.736 237.899H242.163L249.186 228.743H246.597Z" fill="#ECEBE6"/>
<path d="M253.759 220.423L248.101 226.992H250.519L255.558 220.423H253.759Z" fill="#ECEBE6"/>
<path d="M270.286 201.18L264.395 208.028H265.046L270.286 201.18Z" fill="#ECEBE6"/>
<path d="M263.806 208.71L260.069 213.064H261.186L264.519 208.71H263.806Z" fill="#ECEBE6"/>
<path d="M259.139 214.148L255.154 218.781H256.798L260.348 214.148H259.139Z" fill="#ECEBE6"/>
<path d="M234.984 242.269L222.985 256.228H228.148L238.829 242.269H234.984Z" fill="#ECEBE6"/>
<path d="M212.117 268.87L178.428 308.099L184.599 313.104L218.458 268.87H212.117Z" fill="#ECEBE6"/>
<path d="M189.761 220.423L162.227 226.992H167.204L193.466 220.423H189.761Z" fill="#ECEBE6"/>
<path d="M238.767 208.71L220.535 213.064H222.814L240.209 208.71H238.767Z" fill="#ECEBE6"/>
<path d="M270.286 201.18L241.62 208.028H242.938L270.286 201.18Z" fill="#ECEBE6"/>
<path d="M215.978 214.148L196.599 218.781H199.994L218.474 214.148H215.978Z" fill="#ECEBE6"/>
<path d="M154.925 228.743L116.57 237.899H123.655L160.227 228.743H154.925Z" fill="#ECEBE6"/>
<path d="M98.3066 242.269L39.8899 256.228H50.4942L106.229 242.269H98.3066Z" fill="#ECEBE6"/>
<path d="M270.286 201.18L-42.5724 337.971L-45.6731 330.658L270.286 201.18Z" fill="#F5BF1F"/>
<path d="M270.286 201.18L-46.5723 324.089L-48.4482 319.131L270.286 201.18Z" fill="#F5BF1F"/>
<path d="M634.816 297.239H-94.2607V511.852H634.816V297.239Z" fill="#3A3C3D"/>
<path d="M634.816 375H-94.2607V402.175H634.816V375Z" fill="#39494D"/>
<path d="M634.817 261.48H-94.2605V292.529H634.817V261.48Z" fill="#363361"/>
<path d="M634.816 270.745H-94.2607V317.024H634.816V270.745Z" fill="#5E6978"/>
<path d="M-94.2607 402.19V511.867H446.342L442.931 502.463C420.932 441.791 368.903 402.19 311.168 402.19H-94.2453H-94.2607Z" fill="#2E2C2D"/>
<path d="M-87.6562 317.658C56.6181 265.709 204.179 265.709 355.058 317.658V371.637H-87.6562V317.658Z" fill="#3A3C3D"/>
<path d="M-63.4247 337.831C64.4626 283.667 195.652 283.682 330.144 338.094C345.182 344.183 355.027 358.793 355.027 375.015H-87.6875V374.488C-87.6875 358.53 -78.1529 344.075 -63.4402 337.847L-63.4247 337.831Z" fill="#2E2C2D"/>
<path d="M-71.1919 368.384C-68.3858 363.225 -63.8898 359.042 -58.2466 356.656C3.68941 330.425 67.2377 317.117 130.631 317.117C194.024 317.117 259.759 330.534 325.183 356.996C330.842 359.289 335.384 363.349 338.283 368.384H-71.1764H-71.1919Z" fill="#39494D"/>
<path d="M634.816 422.843H507.549C479.24 422.843 459.411 455.657 468.744 487.031L476.139 511.867H634.801V422.843H634.816Z" fill="#39494D"/>
<path d="M129.639 362.279H115.05C115.05 361.644 115.019 361.024 114.957 360.42L129.453 358.871C129.577 359.986 129.639 361.133 129.639 362.279ZM54.1221 362.279H39.5334C39.5334 361.365 39.5645 360.451 39.6265 359.568L54.1686 360.622C54.1221 361.164 54.1066 361.722 54.1066 362.279H54.1221ZM114.167 356.888C113.965 356.33 113.733 355.772 113.469 355.214L126.585 348.862C127.096 349.916 127.546 351 127.918 352.085L114.151 356.888H114.167ZM54.8198 356.81L40.7582 352.952C41.0683 351.852 41.4248 350.752 41.8434 349.699L55.4089 355.059C55.1764 355.633 54.9903 356.221 54.8198 356.826V356.81ZM111.5 352.116C111.113 351.62 110.678 351.14 110.229 350.659L120.709 340.527C121.5 341.332 122.244 342.185 122.926 343.052L111.5 352.1V352.116ZM57.1298 351.806L45.0682 343.61C45.7038 342.665 46.4014 341.751 47.1301 340.883L58.2615 350.303C57.8584 350.783 57.4709 351.279 57.1298 351.79V351.806ZM107.175 348.025C106.632 347.623 106.027 347.235 105.423 346.848L113.112 334.469C114.027 335.042 114.926 335.631 115.764 336.251L107.19 348.041L107.175 348.025ZM61.0521 347.638L51.9827 336.22C52.8353 335.553 53.7346 334.903 54.6493 334.298L62.68 346.461C62.1219 346.832 61.5637 347.235 61.0521 347.638ZM101.593 344.834C100.927 344.54 100.229 344.245 99.5315 343.982L104.71 330.363C105.671 330.719 106.632 331.122 107.547 331.541L101.593 344.834ZM66.3233 344.447L60.2615 331.2C61.1917 330.766 62.1684 330.363 63.1606 329.991L68.3078 343.625C67.6256 343.889 66.9589 344.168 66.3233 344.447ZM95.2371 342.618C94.4929 342.432 93.7488 342.246 93.0046 342.092L95.9812 327.822C96.9735 328.024 97.9347 328.256 98.9114 328.504L95.2371 342.603V342.618ZM72.5401 342.324L69.0829 328.163C70.0596 327.915 71.0673 327.714 72.0595 327.528L74.7416 341.859C73.9974 341.999 73.2688 342.154 72.5401 342.324ZM88.4621 341.379C87.7025 341.301 86.9272 341.224 86.1676 341.177L87.0668 326.629C88.059 326.691 89.0667 326.769 90.0589 326.877L88.4776 341.363L88.4621 341.379ZM79.2531 341.255L78.0749 326.722C79.0671 326.645 80.0748 326.583 81.067 326.552L81.5631 341.115C80.788 341.146 80.0283 341.193 79.2531 341.255Z" fill="#5F9E5E"/>
<path d="M98.5083 354.703H70.6797V362.295H98.5083V354.703Z" fill="#5F9E5E"/>
<path d="M141.081 362.295C141.081 361.381 141.112 360.467 141.174 359.568L155.716 360.622C155.67 361.164 155.654 361.706 155.654 362.279H141.065L141.081 362.295ZM231.171 362.279H216.582C216.582 361.644 216.551 361.024 216.489 360.42L230.985 358.871C231.109 359.986 231.171 361.133 231.171 362.279ZM215.699 356.888C215.497 356.33 215.265 355.772 215.001 355.214L228.117 348.862C228.628 349.916 229.078 351 229.45 352.085L215.683 356.888H215.699ZM156.367 356.81L142.306 352.952C142.616 351.852 142.972 350.752 143.391 349.699L156.956 355.059C156.724 355.633 156.538 356.221 156.367 356.826V356.81ZM213.032 352.116C212.644 351.62 212.21 351.14 211.761 350.659L222.241 340.527C223.032 341.332 223.776 342.185 224.458 343.052L213.032 352.1V352.116ZM158.677 351.79L146.616 343.61C147.251 342.68 147.949 341.766 148.693 340.883L159.824 350.303C159.421 350.783 159.034 351.279 158.693 351.79H158.677ZM208.707 348.025C208.164 347.623 207.559 347.235 206.955 346.848L214.644 334.469C215.559 335.042 216.458 335.631 217.295 336.251L208.722 348.041L208.707 348.025ZM162.584 347.638L153.515 336.22C154.367 335.553 155.267 334.903 156.181 334.298L164.212 346.461C163.654 346.832 163.096 347.235 162.584 347.638ZM203.125 344.834C202.459 344.539 201.761 344.245 201.063 343.982L206.242 330.363C207.203 330.719 208.164 331.122 209.079 331.541L203.125 344.834ZM167.871 344.447L161.809 331.2C162.739 330.766 163.716 330.363 164.708 329.991L169.855 343.625C169.173 343.889 168.506 344.168 167.871 344.447ZM196.769 342.618C196.025 342.432 195.281 342.246 194.537 342.092L197.513 327.822C198.505 328.024 199.467 328.256 200.443 328.504L196.769 342.603V342.618ZM174.072 342.324L170.615 328.163C171.592 327.915 172.599 327.714 173.591 327.528L176.274 341.859C175.529 341.999 174.801 342.154 174.072 342.324ZM189.994 341.379C189.234 341.301 188.459 341.224 187.7 341.177L188.599 326.629C189.591 326.691 190.599 326.769 191.591 326.877L190.01 341.363L189.994 341.379ZM180.785 341.255L179.607 326.722C180.599 326.645 181.607 326.583 182.599 326.552L183.095 341.115C182.32 341.146 181.56 341.193 180.785 341.255Z" fill="#5F9E5E"/>
<path d="M200.04 354.703H172.211V362.295H200.04V354.703Z" fill="#5F9E5E"/>
<path d="M634.816 341.704H455.939C438.807 341.704 427.536 359.568 434.916 375.015H634.816V341.704Z" fill="#2E2C2D"/>
<path d="M439.908 369.7C438.59 364.882 439.319 359.707 442.047 355.385C445.365 350.132 451.055 347.003 457.272 347.003H634.832V369.716H439.908V369.7Z" fill="#5F9E5E"/>
<path d="M565.346 357.027H463.365C461.907 357.027 460.714 355.834 460.714 354.378C460.714 352.922 461.907 351.729 463.365 351.729H565.346C566.803 351.729 567.997 352.922 567.997 354.378C567.997 355.834 566.803 357.027 565.346 357.027Z" fill="#47794E"/>
<path d="M538.835 365.331H463.365C461.907 365.331 460.714 364.138 460.714 362.682C460.714 361.226 461.907 360.033 463.365 360.033H538.835C540.292 360.033 541.486 361.226 541.486 362.682C541.486 364.138 540.292 365.331 538.835 365.331Z" fill="#47794E"/>
<path d="M132.972 324.615H120.818V331.773H132.972V324.615Z" fill="#5F9E5E"/>
<path d="M114.461 328.194L125.562 335.305V321.067L114.461 328.194Z" fill="#5F9E5E"/>
<path d="M136.786 331.757H148.941V324.599H136.786V331.757Z" fill="#2E2C2D"/>
<path d="M155.297 328.194L144.197 335.305V321.067L155.297 328.194Z" fill="#2E2C2D"/>
<path d="M54.8352 511.852C31.239 490.192 16.4178 459.128 16.4178 424.671C16.4178 359.398 69.5479 306.303 134.864 306.303C200.179 306.303 253.309 359.398 253.309 424.671C253.309 459.128 238.488 490.192 214.892 511.852H250.891C269.216 487.559 280.084 457.362 280.084 424.671C280.084 344.648 214.938 279.546 134.848 279.546C54.7576 279.546 -10.3721 344.648 -10.3721 424.671C-10.3721 457.362 0.495822 487.559 18.8208 511.852H54.8196H54.8352Z" fill="#52566A"/>
<path d="M10.0304 380.283C9.67382 380.283 9.31724 380.221 8.96066 380.112C7.22428 379.524 6.29409 377.649 6.88322 375.914C25.5183 321.129 76.943 284.333 134.879 284.333C192.815 284.333 244.24 321.129 262.875 375.914C263.464 377.649 262.534 379.524 260.797 380.112C259.061 380.701 257.185 379.771 256.596 378.036C238.876 325.948 189.963 290.948 134.879 290.948C79.7956 290.948 30.8824 325.948 13.1621 378.036C12.697 379.415 11.4102 380.283 10.0304 380.283Z" fill="#5E6978"/>
<path d="M258.115 453.21C175.808 472.701 93.5937 472.685 11.4568 453.21V401.881C93.7177 388.045 175.932 388.045 258.115 401.881V453.21Z" fill="#52566A"/>
<path d="M196.706 455.131L193.42 464.504C212.024 462.413 230.628 459.33 249.247 455.224L253.976 440.676C256.224 433.781 251.077 426.701 243.821 426.701H236.798C218.752 426.701 202.675 438.088 196.706 455.115V455.131Z" fill="#474660"/>
<path d="M31.6266 426.717H26.3089C19.0533 426.717 13.9217 433.782 16.1542 440.676L20.9137 455.364C38.9286 459.315 56.9591 462.305 74.9895 464.381L71.7183 455.085C65.7339 438.089 49.6725 426.717 31.6421 426.717H31.6266Z" fill="#474660"/>
<path d="M264.751 413.981L262.162 409.24C259.588 404.546 254.968 401.338 249.682 400.517C173.08 388.494 96.4308 388.525 19.7512 400.548C14.511 401.369 9.98405 404.607 7.426 409.255L4.83691 413.996C91.4698 408.45 178.118 408.45 264.751 413.996V413.981Z" fill="#5E6978"/>
<path d="M180.521 511.852L201.978 435.796H67.5945L89.0511 511.852H180.521Z" fill="#52566A"/>
<path d="M134.879 469.648C118.911 469.648 105.934 456.665 105.934 440.722C105.934 424.779 118.926 411.796 134.879 411.796C150.832 411.796 163.824 424.779 163.824 440.722C163.824 456.665 150.832 469.648 134.879 469.648ZM134.879 415.778C121.112 415.778 109.903 426.98 109.903 440.738C109.903 454.496 121.112 465.697 134.879 465.697C148.646 465.697 159.855 454.496 159.855 440.738C159.855 426.98 148.646 415.778 134.879 415.778Z" fill="#474660"/>
<path d="M-26.5885 437.856C12.542 430.358 39.2854 423.401 53.2849 401.788C42.355 361.939 15.6116 354.347 14.4179 322.788C-8.5116 337.057 -23.8909 345.222 -36.5417 367.47C-40.5106 374.458 -41.5493 382.747 -39.4408 390.509L-26.5885 437.841V437.856Z" fill="#E2AE8C"/>
<path d="M29.2547 384.017L53.285 401.787C56.3237 393.034 58.9592 383.831 61.2537 374.24C63.2381 365.951 62.9436 357.275 60.5251 349.11L56.5717 335.786C51.7192 340.14 47.1611 344.787 43.0527 349.9C42.6341 358.282 36.4328 370.801 29.2393 384.032L29.2547 384.017Z" fill="#E2AE8C"/>
<path d="M30.4796 323.67C30.4796 323.67 24.2318 330.41 22.3094 333.88C20.3714 337.366 19.5032 340.697 19.7048 343.889C20.0303 349.002 16.139 353.417 11.0229 353.743C5.90679 354.068 1.48831 350.179 1.16274 345.067C1.16274 344.85 1.14722 344.648 1.14722 344.447V344.137C1.17822 340.573 1.79837 336.994 2.89911 333.725C3.98434 330.441 5.50369 327.451 7.22456 324.755C10.6973 319.363 14.7592 316.079 18.9916 312.345C22.4644 309.293 30.2626 310.935 32.5571 312.871C34.8361 314.793 36.836 317.504 36.836 317.504L30.4951 323.701L30.4796 323.67Z" fill="#E2AE8C"/>
<path d="M-72.2148 488.132L3.65867 492.888L43.9674 396.985L-9.73626 399.82L-72.2148 488.132Z" fill="#E2AE8C"/>
<path d="M9.13128 511.852L22.4641 477.441C39.5799 440.412 -28.5419 408.976 -45.6422 446.021L-89.6873 511.852H9.14675H9.13128Z" fill="#ECEBE6"/>
<path d="M18.4488 511.852L21.7045 503.021C40.1535 462.119 -43.0221 422.936 -61.4711 463.839L-94.2297 511.852H18.4488Z" fill="#39748E"/>
<path d="M298.285 440.226C259.154 432.727 232.411 425.771 218.411 404.158C229.341 364.309 256.085 356.717 257.278 325.157C280.208 339.427 295.587 347.592 308.238 369.84C312.207 376.828 313.246 385.117 311.137 392.879L298.285 440.211V440.226Z" fill="#E2AE8C"/>
<path d="M242.442 386.387L218.412 404.158C215.373 395.404 212.737 386.201 210.443 376.611C208.458 368.322 208.753 359.646 211.171 351.481L215.125 338.157C219.977 342.51 224.535 347.158 228.644 352.271C229.062 360.653 235.264 373.172 242.457 386.403L242.442 386.387Z" fill="#E2AE8C"/>
<path d="M241.217 326.025C241.217 326.025 247.465 332.765 249.387 336.235C251.325 339.721 252.193 343.052 251.992 346.244C251.666 351.357 255.558 355.772 260.674 356.098C265.79 356.423 270.208 352.534 270.534 347.421C270.534 347.205 270.549 347.003 270.549 346.802V346.492C270.518 342.928 269.898 339.35 268.797 336.08C267.712 332.796 266.193 329.806 264.472 327.11C260.999 321.718 256.937 318.434 252.705 314.7C249.232 311.647 241.434 313.29 239.14 315.226C236.861 317.148 234.861 319.859 234.861 319.859L241.201 326.056L241.217 326.025Z" fill="#E2AE8C"/>
<path d="M343.911 490.486L268.038 495.258L227.729 399.339L281.432 402.175L343.911 490.486Z" fill="#E2AE8C"/>
<path d="M261.666 511.852H359.833L317.37 448.376C300.254 411.347 232.148 442.768 249.263 479.796L261.681 511.852H261.666Z" fill="#ECEBE6"/>
<path d="M252.379 511.852H364.314L333.152 466.193C314.703 425.291 231.527 464.474 249.976 505.376L252.364 511.852H252.379Z" fill="#39748E"/>
</g>
<path d="M54.2773 28.5231C54.0448 29.1583 53.7968 29.7161 53.5642 30.2119H62.5096V47.5953H59.9671V46.3094H48.169V47.5953H45.6265V30.2119H50.7891C51.1147 29.4372 51.3937 28.6006 51.6418 27.7639L54.2619 28.5231H54.2773ZM59.9671 34.7049V32.5823H48.169V34.7049H59.9671ZM59.9671 39.2754V37.0599H48.169V39.2754H59.9671ZM59.9671 43.9544V41.6459H48.169V43.9544H59.9671Z" fill="#595757"/>
<path d="M72.1837 29.096C71.6876 29.9946 71.0365 30.8932 70.2303 31.8073C69.1295 32.9384 68.2148 33.744 67.5172 34.1933L65.9048 32.0707C66.6489 31.544 67.4241 30.8777 68.2458 30.0566C68.959 29.3129 69.5326 28.5847 69.9667 27.8411L72.1837 29.096ZM73.61 33.7595C73.0054 34.8905 72.1992 36.037 71.1605 37.2145V47.6725H68.6799V39.5385C68.3389 39.8174 68.0288 40.0343 67.7652 40.2047L66.0444 37.9892C67.0211 37.323 68.0443 36.4553 69.1295 35.3708C70.0907 34.4102 70.8194 33.4341 71.393 32.4891L73.61 33.775V33.7595ZM85.7492 34.4412V36.9201H81.5788V44.5428C81.5788 45.7978 81.3151 46.6189 80.8345 46.9908C80.3074 47.4401 79.4082 47.688 78.1059 47.688C77.0672 47.688 76.106 47.595 75.2223 47.4246L74.8038 44.7907C75.889 45.0696 76.9897 45.2091 78.1059 45.2091C78.7106 45.2091 79.0362 44.8682 79.0362 44.1245V36.9201H73.4395V34.4412H85.7492ZM84.7259 28.7707V31.1411H74.5402V28.7707H84.7259Z" fill="#595757"/>
<path d="M96.7566 36.2234H90.6482V47.5955H88.4468V28.2599H96.741V36.2234H96.7566ZM94.5551 31.2346V30.4754H90.6482V31.2346H94.5551ZM94.5551 34.0234V33.2642H90.6482V34.0234H94.5551ZM102.71 36.9206V39.1052H100.663V40.5616H103.113V42.7616H100.663V46.8983H98.2914V42.7616H96.121C95.9659 43.5363 95.7333 44.2335 95.4078 44.8067C94.8031 45.7983 93.9969 46.5575 92.9582 47.0842L91.5009 45.225C92.3536 44.7602 92.9738 44.1405 93.4079 43.3503C93.5009 43.1799 93.5784 42.9785 93.6404 42.7616H91.5784V40.5616H93.9815C93.9815 40.4376 93.9969 40.2982 93.9969 40.1742C93.9969 40.1278 94.0124 39.7869 94.0124 39.1052H92.0745V36.9206H102.679H102.71ZM98.2914 39.1052H96.3379C96.3379 39.8179 96.3224 40.2982 96.3224 40.5616H98.3069V39.1052H98.2914ZM106.431 28.2599V44.4504C106.431 46.4955 105.547 47.5026 103.795 47.5026C103.252 47.5026 102.617 47.4406 101.935 47.3321L101.408 44.7912C102.105 45.0081 102.756 45.1166 103.361 45.1166C103.857 45.1166 104.121 44.5898 104.121 43.5053V36.2079H98.1053V28.2444H106.431V28.2599ZM104.136 31.2346V30.4754H100.338V31.2346H104.136ZM104.136 33.2642H100.338V34.0234H104.136V33.2642Z" fill="#595757"/>
<path d="M118.136 29.2821V28.0891H120.585V29.2821H128.725V31.6526H120.585V32.5047H127.624V41.7542H120.585V42.6063H128.911V44.9923H120.585V47.6106H118.136V44.9923H109.733V42.6063H118.136V41.7542H111.097V32.5047H118.136V31.6526H109.903V29.2821H118.136ZM118.136 36.0527V34.8752H113.547V36.0527H118.136ZM118.136 39.3682V38.2682H113.547V39.3682H118.136ZM120.585 36.0527H125.174V34.8752H120.585V36.0527ZM120.585 39.3682H125.174V38.2682H120.585V39.3682Z" fill="#595757"/>
<path d="M132.523 47.8589L130.368 47.3321L133.825 29.6233L136.011 30.0416L132.507 47.8589H132.523Z" fill="#595757"/>
<path d="M139.685 31.6374V28.074H142.057V31.6374H143.577V33.9304H142.057V36.9207C142.6 36.7502 143.143 36.5798 143.67 36.3784L143.84 37.4629C144.879 36.7967 145.778 36.115 146.476 35.4178C147.499 34.4882 148.336 33.5121 149.019 32.4586L151.406 33.1558C151.282 33.3882 151.142 33.6051 151.018 33.822C151.84 34.4262 152.693 34.953 153.577 35.4333C154.755 36.084 155.886 36.5798 157.003 36.9516L155.638 39.3376C154.925 39.0587 154.243 38.7334 153.592 38.3615V39.3376H146.383V38.7024C145.856 39.0897 145.313 39.4461 144.771 39.7404L143.623 38.5939C143.096 38.8573 142.585 39.0897 142.057 39.3066V44.4969C142.057 45.6744 141.887 46.4645 141.577 46.8983C141.189 47.3786 140.492 47.642 139.515 47.642C138.864 47.642 138.275 47.58 137.732 47.4716L137.298 45.0236C137.903 45.1941 138.538 45.2561 139.158 45.2561C139.36 45.2561 139.484 45.1631 139.577 44.9927C139.639 44.7603 139.685 44.3884 139.685 43.9081V40.2362C139.158 40.4376 138.662 40.6081 138.135 40.763L137.282 38.2221C138.104 38.0517 138.895 37.8348 139.67 37.6178V33.8995H137.453V31.6064H139.67L139.685 31.6374ZM145.871 29.6233V28.074H148.321V29.6233H151.794V28.074H154.274V29.6233H156.817V31.9938H154.274V33.5121H151.794V31.9938H148.321V33.4192H145.871V31.9938H143.825V29.6233H145.871ZM155.794 47.673H153.406V46.7434H147.22V47.673H144.848V40.4686H155.794V47.673ZM153.406 44.5279V42.6532H147.22V44.5279H153.406ZM151.685 37.246C150.941 36.7657 150.259 36.2544 149.608 35.7277C149.298 36.0685 149.003 36.4249 148.677 36.7657C148.507 36.9361 148.352 37.0911 148.197 37.246H151.701H151.685Z" fill="#595757"/>
<path d="M176.738 30.2898C174.723 30.4137 172.506 30.5222 170.118 30.6151V31.5447H178.351V33.8532H170.118V39.5858C170.987 40.4069 172.025 41.1971 173.25 41.9252C174.723 42.8393 176.49 43.5675 178.521 44.1098L177.234 46.4803C175.731 46 174.273 45.3957 172.893 44.5901C171.963 44.0633 171.018 43.3971 170.118 42.545V47.5803H167.669V42.2196C166.863 42.9633 165.994 43.614 165.08 44.1718C163.297 45.2718 161.669 46.062 160.196 46.5577L159.002 44.4352C161.126 43.6915 162.971 42.8084 164.522 41.7703C164.754 41.6154 164.971 41.4604 165.188 41.321H164.336V40.5463C162.987 40.9337 161.529 41.259 160.01 41.5689L159.25 39.2914C161.08 39.0125 162.77 38.6871 164.336 38.3153V37.4322H159.933V35.1547H164.336V34.2871H166.816V40.0815C167.126 39.8181 167.405 39.5548 167.669 39.3069V33.8842H159.266V31.5757H167.669V30.7081C165.808 30.7701 163.855 30.8166 161.809 30.8166L161.049 28.539C165.87 28.539 170.707 28.4151 175.56 28.1052L176.754 30.3208L176.738 30.2898ZM173.421 34.2715V35.697C174.506 35.3251 175.529 34.9223 176.49 34.442L177.916 36.4871C176.521 37.0758 175.033 37.5716 173.421 38.0054C173.436 38.3773 173.529 38.5942 173.684 38.6562C173.886 38.7801 174.134 38.8576 174.444 38.8576C174.924 38.8576 175.25 38.8576 175.436 38.8111C175.638 38.8111 175.777 38.7646 175.886 38.6871C176.01 38.5632 176.118 38.1604 176.211 37.5097L178.599 38.6097C178.49 39.2139 178.32 39.8027 178.072 40.3604C177.901 40.7013 177.544 40.9182 177.048 41.0111C176.49 41.1041 175.622 41.1351 174.413 41.1351C173.312 41.1351 172.661 41.0421 172.459 40.8717C171.498 40.7787 171.033 40.0196 171.033 38.5942V34.2561H173.405L173.421 34.2715Z" fill="#595757"/>
<path d="M198.939 39.8636H196.49V38.2523H184.257V43.5045C184.257 44.1088 184.738 44.4341 185.73 44.4651C186.722 44.5116 188.722 44.5271 191.684 44.5271C193.73 44.5271 194.939 44.4806 195.358 44.3721C195.885 44.3257 196.335 44.2482 196.769 44.1552C197.094 44.0313 197.373 43.1327 197.59 41.4594L200.133 42.5594C199.823 44.6045 199.389 45.844 198.831 46.2933C198.226 46.6342 197.032 46.8511 195.249 46.9595C194.381 46.975 193.203 47.006 191.684 47.0525C187.405 47.0525 185.141 47.006 184.893 46.944C182.831 46.8976 181.808 45.9679 181.808 44.1707V28.5845H198.939V39.8481V39.8636ZM184.257 35.8973H188.924V31.0634H184.257V35.8973ZM196.49 35.8973V31.0634H191.389V35.8973H196.49Z" fill="#595757"/>
<path d="M210.815 33.5892V27.9961H213.357V33.5892H221.419V36.0371H213.357V44.5274H220.659V46.9754H203.699V44.5274H210.815V36.0371H203.016V33.5892H210.815Z" fill="#595757"/>
<path d="M225.372 47.8589L223.217 47.3321L226.675 29.6233L228.861 30.0416L225.372 47.8589Z" fill="#595757"/>
<path d="M236.101 27.9961V29.4524H239.403V31.7299H238.473C238.38 32.1173 238.318 32.5511 238.24 33.0314C238.147 33.4652 238.07 33.8525 238.008 34.2089H239.589V36.4864H236.023V37.9118H239.325V40.2048H236.023V40.5146C237.279 41.3358 238.395 42.1414 239.325 42.9161L237.806 45.1007C237.201 44.4499 236.612 43.8457 236.023 43.2725V47.6571H233.636V43.7218C232.612 44.9767 231.744 45.8444 231.016 46.3711L229.837 44.326C230.582 43.8302 231.357 43.0401 232.178 42.002C232.659 41.4133 233.047 40.809 233.403 40.1738H230.426V37.8808H233.636V36.4554H230.163V34.1779H231.853C231.744 33.3103 231.62 32.4891 231.434 31.699H230.411V29.4215H233.62V27.9651H236.101V27.9961ZM235.512 34.2089C235.605 33.8216 235.682 33.3877 235.791 32.9075C235.884 32.4891 235.946 32.1018 236.008 31.7299H233.93C234.101 32.5511 234.256 33.3722 234.38 34.2089H235.512ZM248.814 28.5228V41.6457H246.938V44.2795C246.938 44.7598 246.984 44.9922 247.077 45.0232C247.124 45.1162 247.232 45.1317 247.449 45.1317C247.573 45.1317 247.651 45.0852 247.666 44.9612C247.682 44.8528 247.713 44.6359 247.759 44.295C247.759 44.0936 247.775 43.7682 247.806 43.3034L250.007 44.5584C249.806 45.9528 249.542 46.7894 249.248 47.0528C249.155 47.2077 248.922 47.3162 248.581 47.3627C248.41 47.4092 248.038 47.4557 247.48 47.4557C246.814 47.4557 246.286 47.3627 245.914 47.2387C245.031 47.1148 244.597 46.2627 244.597 44.7443V41.6766H243.558C243.341 43.3034 242.922 44.5584 242.349 45.457C241.604 46.526 240.566 47.2852 239.263 47.719L238.24 45.5035C239.201 45.1936 239.915 44.6359 240.426 43.8147C240.752 43.3344 240.984 42.6217 241.139 41.6921H240.101V28.5693H248.844L248.814 28.5228ZM246.426 32.1638V30.8004H242.457V32.1638H246.426ZM246.426 35.7272V34.3638H242.457V35.7272H246.426ZM246.426 39.3682V37.9118H242.457V39.3682H246.426Z" fill="#595757"/>
<path d="M257.263 30.6149C257.371 29.7937 257.465 28.9416 257.542 28.074L260.255 28.2444C260.147 29.0655 260.038 29.8712 259.93 30.6149H271.108V33.0938H259.511C259.34 33.9614 259.17 34.7826 258.984 35.5418H269.402V37.9897C268.487 39.8954 267.278 41.5067 265.774 42.8081C267.387 43.7687 269.17 44.5588 271.092 45.1941L269.805 47.673C267.604 46.8983 265.48 45.8448 263.449 44.5434C261.449 45.7983 259.077 46.8828 256.333 47.8279L255.31 45.6434C257.651 44.8687 259.635 44.0011 261.278 43.025C260.085 42.0644 258.906 40.9179 257.759 39.601C256.674 42.5292 255.31 45.1166 253.62 47.3476L251.666 45.8293C253.356 43.3814 254.658 40.7785 255.604 37.9897C256.1 36.5643 256.519 34.9375 256.86 33.1093H252.193V30.6304H257.248L257.263 30.6149ZM263.418 41.2588C263.418 41.2588 263.542 41.3672 263.619 41.3827C264.906 40.3447 265.883 39.1672 266.565 37.9122H259.682C260.767 39.0897 262.023 40.2052 263.418 41.2588Z" fill="#595757"/>
<path d="M275.944 31.6371V28.0736H278.316V31.6371H280.688V33.9301H278.316V37.1217C278.968 36.9513 279.572 36.7499 280.177 36.5639L280.518 38.609C279.774 38.9499 279.045 39.2598 278.301 39.5386V44.5275C278.301 45.705 278.13 46.4951 277.805 46.9289C277.417 47.4092 276.704 47.6726 275.681 47.6726C275.076 47.6726 274.503 47.6106 273.991 47.5022L273.557 45.0543C274.146 45.2247 274.735 45.2866 275.34 45.2866C275.572 45.2866 275.727 45.1937 275.82 45.0233C275.913 44.7909 275.944 44.419 275.944 43.9387V40.3288C275.355 40.5302 274.766 40.7006 274.162 40.8711L273.309 38.3302C274.224 38.1597 275.092 37.9583 275.929 37.7414V33.9146H273.541V31.6216H275.929L275.944 31.6371ZM288.068 28.0736V29.7004H292.564V31.9779H290.952C290.843 32.4117 290.719 32.861 290.58 33.3413C290.456 33.8216 290.316 34.2244 290.192 34.5963H292.998V36.8893H285.634L286.89 37.3076C286.781 37.633 286.673 37.9428 286.58 38.2372H293.076V40.5302H291.107C290.673 41.7232 290.145 42.7302 289.541 43.5204C290.642 44.0627 291.773 44.6669 292.905 45.3486L291.618 47.6571C290.27 46.743 288.998 45.9684 287.727 45.3176C286.115 46.4486 283.727 47.1768 280.611 47.5797L280.006 45.4571C282.13 45.3331 283.898 44.8993 285.262 44.1556C284.843 43.9852 284.456 43.8303 284.068 43.6753C283.944 43.9077 283.789 44.1246 283.65 44.3415L281.464 43.1641C281.991 42.3429 282.456 41.4443 282.921 40.5302H280.688V38.2372H283.944C284.115 37.7879 284.285 37.3231 284.471 36.8893H280.781V34.5963H283.324C283.2 33.6822 283.045 32.8146 282.874 31.9624H281.138V29.6849H285.634V28.0581H288.084L288.068 28.0736ZM288.564 40.5612H285.681C285.51 40.995 285.308 41.3823 285.138 41.7387C285.851 42.0021 286.595 42.2655 287.324 42.5598C287.804 42.0021 288.208 41.3359 288.564 40.5612ZM287.774 34.6118C287.898 34.1934 288.053 33.7442 288.208 33.2484C288.316 32.8146 288.425 32.3962 288.518 31.9934H285.215C285.432 32.9075 285.603 33.7751 285.743 34.6273H287.789L287.774 34.6118Z" fill="#595757"/>
<path d="M306.873 30.5525L305.447 31.4047H308.253C308.78 30.3356 309.214 29.2356 309.602 28.0891L312.408 28.8483C311.958 29.8088 311.478 30.6765 310.997 31.4047H313.695V33.7751H308.765C308.765 34.7667 308.749 35.4639 308.749 35.8977H314.455V38.2682H309.416C309.617 38.702 309.835 39.0738 310.083 39.3682C310.47 39.895 311.044 40.4063 311.804 40.8866C312.439 41.3049 313.276 41.6922 314.362 42.0795L313.106 44.45C311.974 44.0317 310.873 43.412 309.788 42.5443C308.982 41.9091 308.331 41.1809 307.85 40.3288C307.587 40.8246 307.292 41.2584 306.935 41.6457C305.788 42.8852 304.238 43.8303 302.315 44.512C302.626 44.6049 302.951 44.6359 303.246 44.6359C304.129 44.8064 306.331 44.8683 309.819 44.8683C311.819 44.8683 313.54 44.7444 314.966 44.4345C314.486 45.3022 314.113 46.2163 313.865 47.2388H307.54C305.261 47.2388 303.432 47.0684 302.067 46.712C301.091 46.4486 300.129 45.9064 299.184 45.1007C298.44 45.9529 297.711 46.7895 296.967 47.6571C296.424 46.743 295.866 45.8754 295.277 45.1007C296.099 44.7289 296.936 44.3416 297.757 43.9232V39.6006H295.447V37.2146H300.114V43.4894C300.657 43.9078 301.246 44.2021 301.866 44.3725L300.951 42.3739C302.734 41.7697 304.083 40.9485 304.966 39.8795C305.354 39.3992 305.664 38.8569 305.85 38.2372H300.858V35.8667H306.238V35.6498C306.238 35.6498 306.284 34.9526 306.284 33.7441H301.618V31.3737H304.346C304.005 30.6765 303.571 30.0258 303.06 29.4215L305.168 28.0581C305.866 28.8328 306.424 29.6694 306.858 30.537L306.873 30.5525ZM299.602 34.023L297.881 36.1301C297.06 35.3555 296.207 34.6737 295.339 34.116L297.122 32.2413C298.005 32.7371 298.843 33.3258 299.602 34.023ZM301.122 30.2117L299.432 32.3342C298.579 31.5131 297.711 30.7849 296.812 30.2117L298.595 28.337C299.509 28.8638 300.347 29.4835 301.137 30.2117H301.122Z" fill="#595757"/>
<path d="M52.0758 71.2535C50.4944 73.686 48.6185 75.5916 46.4791 77.0325L44.6187 74.9099C46.8356 73.3451 48.5565 71.6099 49.7813 69.7507L52.0758 71.269V71.2535ZM61.6568 58.4561V69.5647H46.7426V58.4561H61.6568ZM59.0368 67.1168V60.935H49.3782V67.1168H59.0368ZM61.1452 72.6479C62.1064 73.3916 63.0366 73.9649 63.9668 74.3987L62.432 77.017C61.4088 76.4283 60.4166 75.7311 59.4554 74.9099C58.3081 73.9339 57.2384 72.8493 56.2462 71.6718L58.2926 69.9831C59.2073 70.9746 60.1685 71.8733 61.1607 72.6324L61.1452 72.6479Z" fill="#595757"/>
<path d="M85.0515 57.8677V60.1452H79.3772V61.1677H84.3693V67.1172H74.1061L75.2998 67.5355C75.1758 67.8144 75.0673 68.0777 74.9588 68.2947H85.4855V70.6806H81.4702C80.9896 71.5947 80.4314 72.3539 79.7803 72.9736C81.4702 73.5004 83.2066 74.0736 84.974 74.7244L83.7182 77.1103C81.5012 76.1807 79.3308 75.3751 77.2223 74.7244C76.5712 75.0497 75.8269 75.3286 75.0208 75.6075C72.5867 76.3512 69.9976 76.847 67.2535 77.1103L66.4939 74.7244C69.331 74.523 71.6876 74.1821 73.5015 73.6863C72.8503 73.5159 72.2146 73.361 71.61 73.237C71.3464 73.5004 71.1139 73.7638 70.8969 73.9807L68.6799 72.7257C69.3311 72.075 69.9357 71.4088 70.4783 70.6806H66.4009V68.2947H72.0441C72.2612 67.9073 72.4782 67.52 72.6488 67.1172H67.4086V61.1677H72.2457V60.1452H66.7265V57.8677H85.036H85.0515ZM72.2612 64.8087V63.4608H69.7806V64.8087H72.2612ZM76.9587 72.168C77.1292 72.0595 77.2998 71.9511 77.4548 71.8271C77.8734 71.4863 78.23 71.1144 78.54 70.6806H73.5945C73.4394 70.8975 73.3154 71.1144 73.1758 71.2849C74.4161 71.5482 75.6719 71.8426 76.9587 72.168ZM77.0827 60.1452H74.5401V61.1677H77.0827V60.1452ZM74.5401 64.8087H77.0827V63.4608H74.5401V64.8087ZM79.3927 64.8087H82.0283V63.4608H79.3927V64.8087Z" fill="#595757"/>
<path d="M93.3612 58.2858C93.0977 59.0605 92.7256 59.8972 92.276 60.7183C92.1365 60.9817 92.0124 61.2141 91.8884 61.431C92.7721 61.3225 93.6248 61.1676 94.4465 60.9817C94.1364 60.5014 93.8418 60.0211 93.5318 59.5718L95.5782 58.2858C96.6169 59.7422 97.4696 61.2606 98.1208 62.8719L95.9968 64.1578C95.8418 63.7705 95.6868 63.3987 95.5162 63.0268C93.3613 63.5691 90.9582 63.9099 88.2761 64.0649L87.749 61.6944C88.1831 61.6944 88.6172 61.6944 89.0513 61.6789C89.3148 61.1986 89.5319 60.7183 89.7489 60.2225C90.1365 59.3084 90.4621 58.3943 90.7256 57.4492L93.3612 58.3014V58.2858ZM97.2681 74.151C97.2681 76.0102 96.2913 76.9553 94.3844 76.9553C93.8573 76.9553 93.2527 76.8623 92.6016 76.6919L92.1055 74.2439C92.9271 74.5228 93.6868 74.6623 94.3844 74.6623C94.6635 74.6623 94.8186 74.3214 94.8186 73.5777V73.1439H90.9117V76.9708H88.4622V64.5142H97.2836V74.1665L97.2681 74.151ZM94.8186 67.7832V66.7607H90.9117V67.7832H94.8186ZM94.8186 70.9904V69.9058H90.9117V70.9904H94.8186ZM100.741 57.5112V60.0986C102.26 59.6183 103.671 59.076 104.973 58.4563L106.508 60.6718C104.725 61.369 102.787 61.9733 100.725 62.4691V63.2902C100.725 63.7395 100.958 63.9874 101.469 64.0339C101.78 64.1268 102.508 64.1423 103.702 64.1423C104.183 64.1423 104.462 64.0804 104.555 63.9409C104.663 63.8325 104.756 63.6001 104.818 63.2437C104.865 63.0268 104.927 62.686 104.973 62.1747L107.268 63.4606C107.004 64.917 106.632 65.7536 106.183 66.017C106.059 66.1874 105.748 66.2959 105.268 66.3424C105.004 66.3889 104.493 66.4043 103.702 66.4043C102.446 66.4043 101.47 66.3424 100.772 66.2029C99.0975 66.079 98.2758 65.2423 98.2758 63.693V57.5112H100.725H100.741ZM100.927 67.0241V69.8593C102.71 69.3171 104.353 68.6819 105.919 67.9537L107.469 70.0608C105.454 70.8819 103.283 71.5946 100.927 72.2143V73.7946C100.927 74.2749 101.128 74.5073 101.516 74.5383C101.749 74.6313 102.338 74.6468 103.299 74.6468C103.95 74.6468 104.322 74.5848 104.431 74.4299C104.586 74.3059 104.71 74.0425 104.803 73.6552C104.865 73.4228 104.927 73.02 105.004 72.4622L107.299 73.7172C106.989 75.282 106.586 76.2116 106.09 76.5215C105.966 76.6919 105.609 76.8003 105.066 76.8468C104.787 76.9088 104.198 76.9553 103.314 76.9553C102.183 76.9553 101.314 76.8623 100.71 76.7384C99.237 76.5989 98.4928 75.7623 98.4928 74.2439V67.0396H100.942L100.927 67.0241Z" fill="#595757"/>
<path d="M114.74 58.1305C114.616 58.4404 114.477 58.7193 114.353 58.9827H118.895V61.1672C118.151 62.8095 117.112 64.1264 115.81 65.118C115.5 65.3349 115.221 65.5518 114.926 65.7532L115.748 65.9237C115.577 66.3575 115.376 66.7448 115.159 67.1167H119.159V69.3167C118.384 71.1759 117.314 72.6787 115.949 73.8097C114.477 75.0647 112.585 76.1337 110.322 77.0478L109.392 75.0027C110.802 74.445 112.012 73.8098 113.066 73.1126C112.678 72.6323 112.291 72.1984 111.872 71.7956L113.733 70.3392C114.167 70.7576 114.585 71.1604 114.926 71.5477C115.624 70.8505 116.166 70.0759 116.57 69.2237H113.763L113.717 69.2857C112.911 70.3238 111.996 71.1914 111.004 71.9351L109.469 70.2463C110.446 69.5026 111.221 68.7434 111.795 67.9688C112.012 67.7054 112.213 67.4265 112.399 67.1631C111.748 67.473 111.097 67.7209 110.399 67.9688L109.469 65.9237C110.57 65.5363 111.547 65.1025 112.399 64.6222C112.058 64.2504 111.702 63.9095 111.33 63.5532L113.19 62.0968C113.639 62.4842 114.058 62.856 114.399 63.2433C115.174 62.5926 115.81 61.8489 116.244 61.0743H112.988C112.43 61.8334 111.779 62.4842 111.081 63.0264L109.454 61.2447C110.151 60.6869 110.709 60.0982 111.128 59.4939C111.609 58.8432 111.981 58.177 112.26 57.5108L114.74 58.115V58.1305ZM123.128 58.1305C122.973 58.6263 122.817 59.1066 122.678 59.5559H128.91C128.91 69.0998 128.631 74.352 128.058 75.3126C127.624 76.4436 126.848 77.0324 125.763 77.0324C125.066 77.0324 124.259 76.9084 123.314 76.6915L122.817 74.1506C123.856 74.4295 124.771 74.5689 125.531 74.5689C125.81 74.5689 126.011 74.1971 126.135 73.4379C126.259 72.5083 126.368 68.635 126.461 61.8644H121.732C121.391 62.6236 121.035 63.2743 120.694 63.8785H125.283V72.1055H121.81V73.4689H119.593V64.9631L117.81 63.6462C118.508 62.7785 119.097 61.756 119.593 60.625C120.151 59.494 120.569 58.4404 120.88 57.4333L123.159 58.1305H123.128ZM123.035 69.9054V66.0786H121.779V69.9054H123.035Z" fill="#595757"/>
<path d="M134.724 59.6489V57.5264H137.112V59.6489H139.918V61.9265H137.112V63.9716H140.414V66.2801H137.701V68.4801H140.088V70.6957H137.701V73.6084C138.305 73.8253 138.941 73.9803 139.639 74.0422C141.329 74.2591 143.592 74.3521 146.429 74.3521C148.259 74.3521 149.886 74.2591 151.266 74.0887L150.507 76.8H146.429C143.127 76.8 140.646 76.6761 138.957 76.4127C137.561 76.1958 136.352 75.8085 135.329 75.2042C134.848 74.9253 134.445 74.6 134.042 74.2126C133.81 75.2972 133.499 76.2887 133.112 77.1719L131.065 75.8859C131.453 74.9718 131.732 73.9338 131.949 72.7253C132.166 71.4238 132.29 69.6421 132.337 67.4111H134.631C134.631 68.8055 134.569 70.0759 134.476 71.2069C134.74 71.5478 135.019 71.8577 135.298 72.121V66.3265H131.391V64.0181H134.693V61.9729H132.073V59.6954H134.693L134.724 59.6489ZM150.166 66.0942V68.2012H146.77V69.2238H150.77V71.3464H146.77V73.8873H144.398V71.3464H140.398V69.2238H144.398V68.2012H141.003V66.0942H150.15H150.166ZM150.429 57.8672V65.4124H140.848V57.8672H150.429ZM148.15 60.6715V60.0053H143.127V60.6715H148.15ZM148.15 63.2899V62.6237H143.127V63.2899H148.15Z" fill="#595757"/>
<path d="M159.406 63.8789C158.971 64.8549 158.413 65.831 157.716 66.8071V77.0327H155.266V69.6579C154.941 69.9832 154.662 70.2466 154.413 70.417L152.879 68.3719C153.7 67.6747 154.553 66.7916 155.437 65.6606C156.212 64.669 156.832 63.693 157.297 62.7014L159.406 63.8789ZM159.235 58.5337C158.754 59.4633 158.134 60.4239 157.328 61.4C156.243 62.5929 155.344 63.4141 154.661 63.8789L153.142 61.8648C153.886 61.307 154.646 60.5788 155.452 59.6957C156.15 58.921 156.708 58.1309 157.142 57.3562L159.251 58.5492L159.235 58.5337ZM172.056 66.4972V68.7128H170.103V69.5649H172.49V71.7805H170.103V74.058C170.103 75.251 169.901 76.0411 169.545 76.382C169.126 76.8158 168.413 77.0327 167.39 77.0327C166.568 77.0327 165.808 76.9397 165.111 76.7693L164.677 74.3214C165.591 74.6002 166.475 74.7397 167.39 74.7397C167.56 74.7397 167.653 74.4143 167.653 73.7171V71.7805H163.064C163.592 72.4467 164.041 73.1439 164.429 73.8875L161.948 75.3439C161.53 74.3833 160.971 73.5002 160.258 72.6326L161.607 71.7805H158.646V69.5649H167.638V68.7128H159.313V66.4972H172.041H172.056ZM171.374 57.9604V65.8465H159.933V57.9604H171.374ZM169.002 60.8422V60.145H162.289V60.8422H169.002ZM169.002 63.6465V62.8718H162.289V63.6465H169.002Z" fill="#595757"/>
<path d="M184.846 57.7747V63.6931H192.815V66.172H184.846V74.2285H193.745V76.6765H175.095V74.2285H182.211V57.7747H184.846Z" fill="#595757"/>
<path d="M203.079 58.4559V60.8419H201.125V65.4899H202.738V67.8759H201.125V72.8027C201.9 72.6323 202.645 72.4154 203.342 72.1985L203.575 74.414C201.466 75.1112 199.187 75.762 196.707 76.3507L196.273 73.9028C197.094 73.7478 197.901 73.5774 198.66 73.407V67.8914H196.707V65.5054H198.66V60.8574H196.536V58.4714H203.079V58.4559ZM205.621 61.6785C205.497 64.9166 205.172 67.9069 204.691 70.6647L202.645 69.6421C203.079 66.7913 203.358 63.9716 203.497 61.1518L205.621 61.6785ZM208.427 57.5108V64.9786C208.427 67.628 208.117 70.0604 207.559 72.2295C207.032 74.2281 206.365 75.8394 205.544 77.1099L203.59 75.5605C204.443 74.0887 205.063 72.4154 205.482 70.5407C205.869 68.759 206.071 66.8998 206.071 64.9631V57.4954H208.443L208.427 57.5108ZM215.978 58.1306V60.5011H213.419V65.4279H215.729V67.7984H213.419V74.1507H216.071V76.5211H207.668V74.1507H210.97V67.7984H208.923V65.4279H210.97V60.5011H208.784V58.1306H215.993H215.978Z" fill="#595757"/>
<path d="M220.024 61.2447V57.5108H222.241V61.2447H223.589V63.3673H222.241V64.5448C223.062 65.3195 223.791 66.0631 224.411 66.7758L224.256 65.9082C224.582 65.9082 224.907 65.9082 225.217 65.8927C225.651 65.2265 226.039 64.5758 226.396 63.9251C225.574 63.2898 224.706 62.7476 223.76 62.2828L224.954 60.7644C225.078 60.8574 225.186 60.9194 225.326 60.9659C225.915 59.8194 226.411 58.6573 226.83 57.5418L228.706 58.394C228.054 59.7419 227.465 60.9039 226.923 61.88C227.047 61.9729 227.186 62.0504 227.31 62.1433C227.589 61.5546 227.853 60.9968 228.085 60.4236L229.729 61.1673C229.667 60.0672 229.62 58.8897 229.62 57.6348L231.899 57.4644C231.899 58.9362 231.915 60.2687 231.961 61.4771L232.24 60.9503C232.333 61.0123 232.442 61.0743 232.519 61.1208C233.047 59.9278 233.481 58.7348 233.837 57.5418L235.698 58.394C235.093 59.8658 234.55 61.1053 234.054 62.1279C234.178 62.2518 234.318 62.3602 234.442 62.4532C234.814 61.6321 235.14 60.8264 235.434 60.0208L237.295 60.8729C236.845 61.8645 236.411 62.7631 235.992 63.5842L236.86 63.3208C237.294 64.4053 237.635 65.5828 237.884 66.8843L236.194 67.3801C236.147 67.1787 236.132 66.9927 236.085 66.7913C235.775 66.9153 235.496 67.0082 235.233 67.0547C235.713 67.3646 236.147 67.659 236.535 67.9843L235.93 68.6505H237.651V70.6956H233.264C233.388 71.1759 233.574 71.6252 233.744 72.0435C234.008 71.7027 234.271 71.3309 234.504 70.9435L236.457 71.8731C235.93 72.8027 235.388 73.5929 234.829 74.2126C235.062 74.5844 235.264 74.7549 235.434 74.7549C235.481 74.7549 235.527 74.6619 235.589 74.4915C235.682 74.2281 235.744 73.8563 235.791 73.407L237.899 74.2591C237.527 75.4986 237.077 76.3042 236.55 76.6605C236.209 76.9239 235.806 77.0479 235.357 77.0479C234.721 77.0479 234.07 76.6296 233.419 75.8394C233.357 75.7464 233.295 75.6845 233.248 75.607C232.38 76.2113 231.403 76.707 230.364 77.1563L229.264 75.2042C230.457 74.7704 231.419 74.2746 232.147 73.7013C231.729 72.8182 231.388 71.8111 231.109 70.7111H228.054C228.039 71.021 228.008 71.2689 228.008 71.5168C229.031 72.0436 229.915 72.5083 230.706 72.9886L229.45 74.7704C228.861 74.3365 228.272 73.9492 227.698 73.5774C227.605 73.8873 227.543 74.1661 227.481 74.383C227.171 75.4211 226.737 76.3352 226.132 77.1563L224.117 75.8704C224.644 75.2042 225.047 74.445 225.357 73.5464C225.574 72.8027 225.744 71.8576 225.837 70.7111H224.365V68.666H230.643C230.535 68.2167 230.442 67.7519 230.364 67.2716L228.861 67.7209C228.814 67.5195 228.799 67.3491 228.768 67.1787C227.543 67.6125 226.163 67.8449 224.613 67.8914L224.52 67.3956L223.264 69.1463C222.923 68.5576 222.566 68.0153 222.241 67.5195V77.1409H220.024V69.828C219.76 70.6492 219.481 71.4083 219.171 72.121L217.822 70.4323C218.256 69.5646 218.706 68.3561 219.186 66.7913C219.497 65.7998 219.776 64.7462 220.008 63.6462V63.4138H218.225V61.2912H220.008L220.024 61.2447ZM228.132 64.5913C227.915 64.9631 227.713 65.304 227.527 65.6138C227.837 65.5674 228.117 65.4899 228.38 65.3969C228.287 65.1336 228.225 64.8547 228.147 64.5913H228.132ZM229.76 61.6166C229.279 62.5307 228.845 63.3673 228.411 64.111L229.543 63.7856C229.76 64.3434 229.93 64.9631 230.101 65.5674C229.93 64.3589 229.822 63.0574 229.76 61.6166ZM233.512 68.1237L234.271 67.2096C233.744 67.3026 233.248 67.3336 232.752 67.3336L232.411 65.4589C232.612 65.4589 232.798 65.4589 233 65.4434C233.264 64.9941 233.496 64.5293 233.713 64.049C233.155 63.6152 232.581 63.2279 232.07 62.8715C232.194 65.0561 232.442 66.8688 232.737 68.2787C232.752 68.4026 232.783 68.5111 232.798 68.604H234.256C233.992 68.4336 233.76 68.2632 233.512 68.1083V68.1237ZM235.558 64.5138C235.434 64.7772 235.294 64.9941 235.186 65.211C235.388 65.1955 235.558 65.149 235.729 65.1026C235.667 64.9011 235.605 64.7152 235.558 64.5138Z" fill="#595757"/>
<path d="M248.69 62.9496V69.4878H245.915V73.9809C245.915 75.1583 245.759 75.9485 245.48 76.3823C245.139 76.8626 244.504 77.126 243.62 77.126C243.015 77.126 242.442 77.064 241.93 76.9556L241.62 75.2358C241.62 75.2358 241.574 75.2978 241.574 75.3443L239.465 74.2442C240.07 72.8963 240.55 71.5794 240.891 70.247L243.108 71.0061C242.721 72.416 242.333 73.609 241.899 74.6161C242.349 74.709 242.814 74.74 243.263 74.74C243.325 74.74 243.372 74.6471 243.387 74.4767C243.403 74.2443 243.434 73.8724 243.434 73.3921V69.4878H240.55V62.9496H248.69ZM245.977 57.5115V59.5566H249.48V61.9271H239.884V59.5566H243.449V57.5115H245.992H245.977ZM246.318 67.1948V65.2426H242.922V67.1948H246.318ZM249.511 72.6639C250.116 71.8118 250.612 70.9132 251.031 69.9526C251.511 68.8061 251.852 66.9779 252.069 64.4835H249.372V62.0975H252.209C252.271 60.7031 252.317 59.1848 252.317 57.5115H254.705C254.689 59.2002 254.643 60.7186 254.596 62.0975H259.294V64.4835H254.472C254.457 64.7468 254.426 65.0102 254.41 65.2426H256.24V73.702C256.24 74.1823 256.255 74.4147 256.333 74.4457C256.348 74.5386 256.441 74.5541 256.596 74.5541C256.875 74.5541 257.046 74.4611 257.092 74.2442C257.154 74.0738 257.201 73.6865 257.248 73.1132C257.294 72.7414 257.31 72.1527 257.356 71.3315L259.542 72.6174C259.325 74.6935 259.015 75.9175 258.658 76.3048C258.55 76.5218 258.286 76.6457 257.899 76.7387C257.682 76.8006 257.247 76.8471 256.596 76.8471C255.945 76.8471 255.465 76.7542 255.124 76.6302C254.302 76.5063 253.883 75.6541 253.883 74.1358V69.1005C253.666 70.092 253.403 70.8977 253.139 71.5019C252.178 73.7175 250.767 75.5612 248.953 77.095L247.527 74.8795C248.225 74.2752 248.845 73.578 249.387 72.8343L247.263 73.8569C246.953 72.7879 246.566 71.7808 246.07 70.8202L248.193 69.7977C248.721 70.6653 249.155 71.5949 249.511 72.6484V72.6639ZM258.953 60.4862L256.767 61.7721C256.348 60.9045 255.806 60.0834 255.139 59.2932L257.263 57.9453C257.961 58.7509 258.519 59.5876 258.953 60.4862Z" fill="#595757"/>
<path d="M266.596 57.8676C266.441 58.9057 266.286 59.9127 266.146 60.8423H269.991C269.883 63.5072 269.557 66.0016 269.014 68.3256C268.797 69.2087 268.565 69.9989 268.301 70.6961C269.169 71.4707 270.022 72.3073 270.844 73.1285L269.154 75.0032C268.503 74.2595 267.867 73.5933 267.247 72.9581C267.123 73.175 266.968 73.3919 266.828 73.5623C265.867 74.9567 264.72 76.1187 263.371 77.1258L262.022 75.2666C263.17 74.3989 264.146 73.3764 264.937 72.1834C265.107 71.951 265.309 71.6566 265.48 71.3623C265.046 71.0214 264.611 70.6651 264.193 70.3242C264.084 70.7115 263.976 71.0679 263.883 71.3623L261.588 70.8665C262.286 68.465 262.875 65.8776 263.371 63.1353H261.511V60.8578H263.774C263.945 59.7733 264.1 58.6578 264.224 57.5422L266.611 57.8831L266.596 57.8676ZM266.813 68.0622C267.2 66.3889 267.48 64.7466 267.619 63.1198H265.759C265.433 64.9171 265.108 66.5283 264.782 67.9537C265.34 68.3721 265.914 68.7749 266.456 69.1622C266.58 68.8214 266.689 68.4495 266.828 68.0622H266.813ZM280.58 58.131V60.3155C279.541 62.0353 278.316 63.5072 276.937 64.7466V66.0945H281.107V68.465H276.937V74.244C276.937 75.3285 276.704 76.0412 276.223 76.3666C275.696 76.7539 274.813 76.9553 273.557 76.9553C272.89 76.9553 272.255 76.8934 271.696 76.7849L271.278 74.1665C272.022 74.4454 272.782 74.5849 273.557 74.5849C273.82 74.5849 274.053 74.5384 274.27 74.4609C274.394 74.337 274.487 74.0426 274.487 73.6553V68.496H269.898V66.1255H274.487V62.81L275.479 62.8719C276.239 62.2057 276.952 61.4156 277.603 60.5325H270.565V58.162H280.58V58.131Z" fill="#595757"/>
<defs>
<linearGradient id="paint0_linear_20_208444" x1="239.992" y1="222.453" x2="239.992" y2="390.71" gradientUnits="userSpaceOnUse">
<stop stop-color="white"/>
<stop offset="1" stop-color="white" stop-opacity="0.6"/>
</linearGradient>
</defs>
</svg>
