<svg width="480" height="454" viewBox="0 0 480 454" fill="none" xmlns="http://www.w3.org/2000/svg">
<path opacity="0.8" d="M436.87 0H43.1304C19.3101 0 0 19.2976 0 43.1024V410.898C0 434.702 19.3101 454 43.1304 454H436.87C460.69 454 480 434.702 480 410.898V43.1024C480 19.2976 460.69 0 436.87 0Z" fill="url(#paint0_linear_20_208447)"/>
<mask id="mask0_20_208447" style="mask-type:luminance" maskUnits="userSpaceOnUse" x="17" y="99" width="446" height="340">
<path d="M17.5962 99.6052V398.858C17.5962 420.828 35.5801 438.8 57.5639 438.8H422.451C444.435 438.8 462.419 420.828 462.419 398.858V99.6052H17.5962Z" fill="white"/>
</mask>
<g mask="url(#mask0_20_208447)">
<path d="M869.678 35.5879H216.04V414.662H869.678V35.5879Z" fill="#B9DCF1"/>
<path d="M326.548 227.906H293.526C290.503 227.906 288.038 225.443 288.038 222.422C288.038 219.4 290.503 216.937 293.526 216.937H326.548C329.571 216.937 332.036 219.4 332.036 222.422C332.036 225.443 329.571 227.906 326.548 227.906Z" fill="#C9E4F5"/>
<path d="M422.995 35.6189L216.149 242.485L216.04 242.578V217.944L216.149 217.851L398.375 35.6189H422.995Z" fill="#C9E4F5"/>
<path d="M494.046 35.6187L454.9 74.5533L449.784 79.6351L444.684 84.7169L329.959 198.841H306.208L444.684 60.3769L469.443 35.6187H494.046Z" fill="#C9E4F5"/>
<path d="M579.718 35.6187L439.289 176.05V153.166L555.083 35.6187H579.718Z" fill="#C9E4F5"/>
<path d="M438.994 220.78V250.047H414.623V220.47L421.025 214.071L425.599 200.066H345.803L350.377 214.071L356.779 220.47V250.047H259.139V228.775H248.349V250.047H235.559V237.404H216.071V411.425H455.241V220.78H439.009H438.994ZM374.794 240.147H364.996V227.69H374.794V240.147ZM390.732 240.147H380.934V227.69H390.732V240.147ZM406.654 240.147H396.856V227.69H406.654V240.147ZM379.693 200.066L386.546 146.831L393.398 200.066H379.693Z" fill="#A1CFEC"/>
<path d="M869.678 408.884H-241.527V525.502H869.678V408.884Z" fill="#DAE3E5"/>
<path d="M431.986 116.2L419.986 112.714C419.32 112.528 418.638 112.9 418.436 113.566C418.25 114.232 418.622 114.929 419.289 115.115L420.358 115.425L412.266 120.305L376.747 109.987C374.872 109.445 372.856 109.553 371.058 110.281C371.058 110.281 371.042 110.281 371.027 110.281L368.097 111.66C366.872 111.304 365.616 111.118 364.36 111.118C363.104 111.118 361.833 111.273 360.608 111.614L359.384 111.939C357.895 112.357 357.337 114.17 358.345 115.332C359.477 116.649 360.779 117.78 362.221 118.71C363.663 119.639 365.228 120.367 366.903 120.848L381.569 125.108L380.592 128.517L390.53 131.383C392.871 132.065 395.29 131.259 396.778 129.524L408.08 132.809C411.335 133.754 414.839 132.731 417.056 130.159L418.638 128.346L423.227 129.679C423.893 129.865 424.575 129.493 424.777 128.827C424.963 128.161 424.591 127.463 423.924 127.277L420.451 126.27L427.986 117.61L431.304 118.57C431.97 118.756 432.653 118.384 432.854 117.718C433.04 117.052 432.668 116.355 432.002 116.169L431.986 116.2Z" fill="#A1CFEC"/>
<path d="M278.193 115.998C278.193 119.299 275.511 121.979 272.209 121.979C268.907 121.979 266.225 119.299 266.225 115.998C266.225 112.698 268.907 110.018 272.209 110.018C275.511 110.018 278.193 112.698 278.193 115.998Z" fill="#C9E4F5"/>
<path d="M258.55 131.941C258.55 133.738 257.093 135.21 255.279 135.21C253.465 135.21 252.008 133.754 252.008 131.941C252.008 130.128 253.465 128.672 255.279 128.672C257.093 128.672 258.55 130.128 258.55 131.941Z" fill="#C9E4F5"/>
<path d="M347.059 240.223C347.059 242.02 345.602 243.492 343.788 243.492C341.974 243.492 340.517 242.035 340.517 240.223C340.517 238.41 341.974 236.954 343.788 236.954C345.602 236.954 347.059 238.41 347.059 240.223Z" fill="#C9E4F5"/>
<path d="M435.909 399.618C428.963 404.174 421.429 407.629 413.538 409.968C405.693 412.323 397.461 413.531 389.151 413.531H216.04V350.319H358.33C367.725 350.319 376.795 353.495 384.159 359.32C384.159 359.32 384.159 359.32 384.19 359.336C384.469 359.537 384.717 359.754 384.98 359.971L395.972 369.639C402.065 369.639 408.08 370.491 413.894 372.118C419.692 373.76 425.274 376.224 430.483 379.4L435.676 382.56C441.971 386.449 442.095 395.559 435.909 399.603V399.618Z" fill="#C9E4F5"/>
<path d="M315.463 394.458C315.463 397.774 312.781 400.454 309.463 400.454H218.288C217.497 400.454 216.738 400.299 216.04 400.005V388.912C216.738 388.633 217.497 388.462 218.288 388.462H309.463C311.122 388.462 312.626 389.129 313.696 390.213C314.781 391.298 315.463 392.801 315.463 394.443V394.458Z" fill="#A1CFEC"/>
<path d="M361.369 359.319C361.369 365.021 365.989 369.653 371.694 369.653H395.972L384.298 359.381C384.252 359.366 384.205 359.35 384.159 359.319H361.369Z" fill="#A1CFEC"/>
<path d="M332.843 369.654H339.106C340.99 369.654 342.517 368.128 342.517 366.245V362.728C342.517 360.846 340.99 359.32 339.106 359.32H332.843C330.959 359.32 329.432 360.846 329.432 362.728V366.245C329.432 368.128 330.959 369.654 332.843 369.654Z" fill="#A1CFEC"/>
<path d="M310.998 369.654H317.262C319.145 369.654 320.672 368.128 320.672 366.245V362.728C320.672 360.846 319.145 359.32 317.262 359.32H310.998C309.115 359.32 307.588 360.846 307.588 362.728V366.245C307.588 368.128 309.115 369.654 310.998 369.654Z" fill="#A1CFEC"/>
<path d="M289.154 369.654H295.417C297.301 369.654 298.828 368.128 298.828 366.245V362.728C298.828 360.846 297.301 359.32 295.417 359.32H289.154C287.27 359.32 285.743 360.846 285.743 362.728V366.245C285.743 368.128 287.27 369.654 289.154 369.654Z" fill="#A1CFEC"/>
<path d="M267.294 369.654H273.558C275.441 369.654 276.968 368.128 276.968 366.245V362.728C276.968 360.846 275.441 359.32 273.558 359.32H267.294C265.41 359.32 263.883 360.846 263.883 362.728V366.245C263.883 368.128 265.41 369.654 267.294 369.654Z" fill="#A1CFEC"/>
<path d="M245.45 369.654H251.713C253.597 369.654 255.124 368.128 255.124 366.245V362.728C255.124 360.846 253.597 359.32 251.713 359.32H245.45C243.566 359.32 242.039 360.846 242.039 362.728V366.245C242.039 368.128 243.566 369.654 245.45 369.654Z" fill="#A1CFEC"/>
<path d="M223.606 369.654H229.87C231.753 369.654 233.28 368.128 233.28 366.245V362.728C233.28 360.846 231.753 359.32 229.87 359.32H223.606C221.722 359.32 220.195 360.846 220.195 362.728V366.245C220.195 368.128 221.722 369.654 223.606 369.654Z" fill="#A1CFEC"/>
<path d="M-241.527 407.847V416.771L869.678 416.771V407.847L-241.527 407.847Z" fill="#81AECA"/>
<path d="M869.321 198.345H216.04V202.699H869.321V198.345Z" fill="#6189A0"/>
<path d="M869.321 202.699H216.04V207.052H869.321V202.699Z" fill="#81AECA"/>
<path d="M442.73 412.168L438.389 410.2V35.5879H442.73V412.168Z" fill="#6189A0"/>
<path d="M446.528 412.168L442.172 410.2V35.5879H446.528V412.168Z" fill="#81AECA"/>
<path d="M-241.263 44.4041V408.605H-28.7739H8.0311H156.166H329.137H317.354V44.4041H-241.263Z" fill="#52595E"/>
<path d="M-241.263 74.9404V408.604H-28.7739H8.0311H156.166H329.137H317.354V74.9404H-241.263Z" fill="#E09B74"/>
<path d="M296.518 74.9404H-131.872V408.712H-97.6866V408.604H-6.32524V408.712H296.518V74.9404Z" fill="#9B837A"/>
<g style="mix-blend-mode:multiply" opacity="0.57">
<path d="M26.1389 74.9404H-82.3228V346.429H26.1389V74.9404Z" fill="#9B837A"/>
</g>
<g style="mix-blend-mode:multiply" opacity="0.57">
<path d="M296.518 74.9404H206.645V346.429H296.518V74.9404Z" fill="#9B837A"/>
</g>
<g style="mix-blend-mode:multiply" opacity="0.7">
<path d="M296.503 74.9404H-191.838V124.55H296.503V74.9404Z" fill="#9B837A"/>
</g>
<path style="mix-blend-mode:screen" opacity="0.42" d="M34.6663 74.8625L-147.483 408.604H-97.6861H-21.8126L160.337 74.8625H34.6663Z" fill="url(#paint1_linear_20_208447)"/>
<path style="mix-blend-mode:screen" opacity="0.42" d="M269.526 74.8625L87.7953 408.309H41.6572L221.899 74.8625H269.526Z" fill="url(#paint2_linear_20_208447)"/>
<g style="mix-blend-mode:multiply" opacity="0.44">
<path d="M296.518 181.179H242.628V243.168H296.518V181.179Z" fill="#9B837A"/>
</g>
<g style="mix-blend-mode:overlay">
<path d="M72.9125 276.262H-1.03857V359.879H72.9125V276.262Z" fill="#F4BD7B"/>
</g>
<path d="M-152.352 149.433L296.518 149.433V74.9408L-152.352 74.9408V149.433Z" fill="#F7DCB6"/>
<g style="mix-blend-mode:multiply">
<path d="M93.656 157.303H39.1616V379.214H93.656V157.303Z" fill="#FAF5F0"/>
<path d="M93.718 204.558H39.1616V209.314H93.718V204.558Z" fill="#E09B74"/>
<path d="M93.656 261.187H39.1616V265.943H93.656V261.187Z" fill="#E09B74"/>
<path d="M93.656 317.814H39.1616V322.57H93.656V317.814Z" fill="#E09B74"/>
<path d="M18.7437 282.475H-55.626V287.231H18.7437V282.475Z" fill="#FAF5F0"/>
<path d="M93.656 374.427H39.1616V379.199H93.656V374.427Z" fill="#E09B74"/>
<path d="M83.1449 204.557H66.5407C65.378 204.557 64.4013 203.689 64.2617 202.543L63.4556 195.865L65.2695 187.174H84.3851L86.199 195.865L85.3929 202.543C85.2533 203.689 84.2766 204.557 83.1139 204.557H83.1449Z" fill="#684329"/>
<path d="M81.3462 195.866H80.2609V187.236L77.9354 178.854C77.8114 178.591 76.5867 178.142 74.5247 178.157C72.4783 178.173 71.455 178.653 71.331 178.854L69.6101 187.205V195.85H68.5249V187.05L70.2923 178.529C70.7264 177.258 73.393 177.088 74.5092 177.073C75.4394 177.073 78.4626 177.134 78.9587 178.482V178.529L81.3462 187.081V195.85V195.866Z" fill="#935F3A"/>
<path d="M70.1838 186.259H68.0908V189.451H70.1838V186.259Z" fill="#DC9461"/>
<path d="M81.8576 186.259H79.7646V189.451H81.8576V186.259Z" fill="#DC9461"/>
<path d="M79.7492 317.813H68.0287C66.4008 317.813 65.021 316.605 64.835 314.978L63.4087 303.141H84.3537L82.9274 314.978C82.7259 316.589 81.3616 317.813 79.7337 317.813H79.7492Z" fill="#D03F47"/>
<path d="M79.3771 310.471H78.4625V303.204L74.8967 292.374C74.7416 291.94 74.23 291.801 73.8424 291.801C73.4548 291.801 72.9587 291.972 72.8037 292.405L69.486 303.204V310.471H68.5713V303.065L71.9355 292.111C72.1991 291.367 72.9432 290.887 73.8269 290.871C74.7261 290.856 75.4858 291.336 75.7649 292.064L79.3771 303.049V310.455V310.471Z" fill="#EA5F66"/>
<path d="M69.9516 302.367H68.1997V305.063H69.9516V302.367Z" fill="#EF8C93"/>
<path d="M79.8113 302.367H78.0439V305.063H79.8113V302.367Z" fill="#EF8C93"/>
<path d="M76.587 261.185H57.3163C55.5644 261.185 54.2621 259.605 54.5722 257.885L56.7737 245.986C57.0217 244.669 58.169 243.708 59.5178 243.708H74.37C75.7188 243.708 76.866 244.669 77.1141 245.986L79.3156 257.885C79.6411 259.605 78.3234 261.185 76.5715 261.185H76.587Z" fill="#745353"/>
<path d="M73.2228 246.358H71.7499V241.432C71.7499 239.355 70.0601 237.667 67.9826 237.667H66.0912C64.0137 237.667 62.3239 239.355 62.3239 241.432V246.358H60.8511V241.432C60.8511 238.55 63.1921 236.195 66.0912 236.195H67.9826C70.8662 236.195 73.2228 238.534 73.2228 241.432V246.358Z" fill="#C88269"/>
<path d="M72.4784 247.566C71.8583 247.566 71.3467 247.055 71.3467 246.435V244.917H73.6102V246.435C73.6102 247.055 73.0986 247.566 72.4784 247.566Z" fill="#E09B74"/>
<path d="M61.7499 247.691C61.1298 247.691 60.6182 247.18 60.6182 246.56V245.042H62.8817V246.56C62.8817 247.18 62.3701 247.691 61.7499 247.691Z" fill="#E09B74"/>
<path d="M71.2691 253.562H62.6492C62.1841 253.562 61.812 253.191 61.812 252.726C61.812 252.261 62.1841 251.889 62.6492 251.889H71.2691C71.7342 251.889 72.1063 252.261 72.1063 252.726C72.1063 253.191 71.7342 253.562 71.2691 253.562Z" fill="#E09B74"/>
<path d="M76.416 374.427H58.4011C57.1453 374.427 56.0756 373.481 55.9361 372.242L55.0679 364.991L57.0368 355.556H77.7803L79.7492 364.991L78.8811 372.242C78.726 373.497 77.6718 374.427 76.416 374.427Z" fill="#8C8172"/>
<path d="M74.4789 364.99H73.3007V355.632L70.7891 346.538C70.6496 346.243 69.3318 345.763 67.0838 345.794C64.8513 345.825 63.7506 346.321 63.6265 346.553L61.7661 355.617V364.99H60.5879V355.431L62.5103 346.181C62.9909 344.802 65.8745 344.617 67.0838 344.601C68.0915 344.601 71.3782 344.663 71.9209 346.135V346.181L74.5099 355.462V364.975L74.4789 364.99Z" fill="#A29685"/>
<path d="M62.3548 354.563H60.0913V358.033H62.3548V354.563Z" fill="#6D655A"/>
<path d="M75.0213 354.563H72.7578V358.033H75.0213V354.563Z" fill="#6D655A"/>
<path d="M67.8896 198.594V203.133C67.8896 203.924 67.254 204.559 66.4633 204.559H48.0763C47.2857 204.559 46.65 203.924 46.65 203.133V198.594C46.65 197.804 47.2857 197.168 48.0763 197.168H66.4633C67.254 197.168 67.8896 197.804 67.8896 198.594Z" fill="#57565B"/>
<path d="M67.9053 196.734V197.911C67.9053 199.771 66.4015 201.274 64.5411 201.274H50.0299C48.1695 201.274 46.6657 199.771 46.6657 197.911V196.734C46.6657 195.944 47.3013 195.309 48.092 195.309H66.479C67.2697 195.309 67.9053 195.944 67.9053 196.734Z" fill="#67656B"/>
<path d="M53.6883 298.943H57.7346C58.4323 298.943 59.0059 299.516 59.0059 300.213V316.543C59.0059 317.24 58.4323 317.814 57.7346 317.814H53.6883C52.9906 317.814 52.417 317.24 52.417 316.543V300.213C52.417 299.516 52.9906 298.943 53.6883 298.943Z" fill="#954435"/>
<path d="M53.0838 317.814H52.0296C51.3319 317.814 50.7583 317.24 50.7583 316.543V300.213C50.7583 299.516 51.3319 298.943 52.0296 298.943H53.0838C54.7427 298.943 56.076 300.275 56.076 301.933V314.823C56.076 316.481 54.7427 317.814 53.0838 317.814Z" fill="#C05847"/>
<path opacity="0.2" d="M18.744 287.231H-55.6567V292.266H18.744V287.231Z" fill="#221F20"/>
<path d="M17.8288 315.087V334.237H11.9841V373.048H-22.0458V334.237H-27.8906V315.087C-27.8906 308.921 -23.5652 303.762 -17.7979 302.46C-16.8832 302.243 -15.922 302.135 -14.9453 302.135H4.88351C5.86023 302.135 6.82143 302.243 7.73613 302.46C13.5034 303.762 17.8133 308.905 17.8133 315.087H17.8288Z" fill="#F7DCB6"/>
<path opacity="0.2" d="M93.718 209.33H39.1616V214.365H93.718V209.33Z" fill="#221F20"/>
<path opacity="0.2" d="M93.656 265.943H39.1616V270.994H93.656V265.943Z" fill="#221F20"/>
<path opacity="0.2" d="M93.656 322.57H39.1616V327.621H93.656V322.57Z" fill="#221F20"/>
</g>
<g style="mix-blend-mode:multiply">
<path d="M290.007 157.303H235.513V379.214H290.007V157.303Z" fill="#FAF5F0"/>
<path d="M290.069 204.558H235.512V209.314H290.069V204.558Z" fill="#E09B74"/>
<path d="M290.007 261.187H235.512V265.943H290.007V261.187Z" fill="#E09B74"/>
<path d="M290.007 317.814H235.513V322.57H290.007V317.814Z" fill="#E09B74"/>
<path d="M215.094 282.475H140.724V287.231H215.094V282.475Z" fill="#FAF5F0"/>
<path d="M290.007 374.427H235.512V379.199H290.007V374.427Z" fill="#E09B74"/>
<path d="M279.479 204.557H262.891C261.728 204.557 260.751 203.689 260.612 202.543L259.806 195.865L261.62 187.174H280.735L282.549 195.865L281.743 202.543C281.603 203.689 280.627 204.557 279.464 204.557H279.479Z" fill="#684329"/>
<path d="M277.697 195.866H276.612V187.236L274.286 178.854C274.162 178.591 272.937 178.142 270.875 178.157C268.829 178.173 267.806 178.653 267.682 178.854L265.961 187.205V195.85H264.875V187.05L266.643 178.529C267.077 177.258 269.744 177.088 270.86 177.073C271.79 177.073 274.813 177.134 275.309 178.482V178.529L277.697 187.081V195.85V195.866Z" fill="#935F3A"/>
<path d="M266.534 186.259H264.441V189.451H266.534V186.259Z" fill="#DC9461"/>
<path d="M278.208 186.259H276.115V189.451H278.208V186.259Z" fill="#DC9461"/>
<path d="M276.1 317.813H264.379C262.751 317.813 261.387 316.605 261.186 314.978L259.759 303.141H280.704L279.278 314.978C279.092 316.589 277.712 317.813 276.084 317.813H276.1Z" fill="#D03F47"/>
<path d="M275.728 310.471H274.813V303.204L271.247 292.374C271.092 291.94 270.581 291.801 270.193 291.801C269.805 291.801 269.309 291.972 269.154 292.405L265.837 303.204V310.471H264.922V303.065L268.286 292.111C268.55 291.367 269.278 290.887 270.178 290.871C271.077 290.856 271.836 291.336 272.115 292.064L275.728 303.049V310.455V310.471Z" fill="#EA5F66"/>
<path d="M266.317 302.367H264.55V305.063H266.317V302.367Z" fill="#EF8C93"/>
<path d="M276.131 302.367H274.379V305.063H276.131V302.367Z" fill="#EF8C93"/>
<path d="M272.937 261.185H253.666C251.914 261.185 250.612 259.605 250.922 257.885L253.124 245.986C253.372 244.669 254.519 243.708 255.868 243.708H270.72C272.069 243.708 273.216 244.669 273.464 245.986L275.666 257.885C275.991 259.605 274.673 261.185 272.922 261.185H272.937Z" fill="#745353"/>
<path d="M269.558 246.358H268.085V241.432C268.085 239.355 266.395 237.667 264.318 237.667H262.426C260.349 237.667 258.659 239.355 258.659 241.432V246.358H257.186V241.432C257.186 238.55 259.527 236.195 262.426 236.195H264.318C267.201 236.195 269.558 238.534 269.558 241.432V246.358Z" fill="#C88269"/>
<path d="M268.829 247.566C268.209 247.566 267.697 247.055 267.697 246.435V244.917H269.961V246.435C269.961 247.055 269.449 247.566 268.829 247.566Z" fill="#E09B74"/>
<path d="M258.085 247.691C257.465 247.691 256.953 247.18 256.953 246.56V245.042H259.217V246.56C259.217 247.18 258.705 247.691 258.085 247.691Z" fill="#E09B74"/>
<path d="M267.604 253.562H258.984C258.519 253.562 258.147 253.191 258.147 252.726C258.147 252.261 258.519 251.889 258.984 251.889H267.604C268.069 251.889 268.441 252.261 268.441 252.726C268.441 253.191 268.069 253.562 267.604 253.562Z" fill="#E09B74"/>
<path d="M272.751 374.427H254.736C253.48 374.427 252.411 373.481 252.271 372.242L251.403 364.991L253.372 355.556H274.115L276.084 364.991L275.216 372.242C275.061 373.497 274.007 374.427 272.751 374.427Z" fill="#8C8172"/>
<path d="M270.813 364.99H269.635V355.632L267.124 346.538C266.984 346.243 265.666 345.763 263.418 345.794C261.186 345.825 260.085 346.321 259.961 346.553L258.101 355.617V364.99H256.922V355.431L258.845 346.181C259.325 344.802 262.209 344.617 263.418 344.601C264.426 344.601 267.713 344.663 268.255 346.135V346.181L270.844 355.462V364.975L270.813 364.99Z" fill="#A29685"/>
<path d="M258.69 354.563H256.426V358.033H258.69V354.563Z" fill="#6D655A"/>
<path d="M271.356 354.563H269.092V358.033H271.356V354.563Z" fill="#6D655A"/>
<path d="M264.24 203.149V198.594C264.24 197.807 263.602 197.169 262.814 197.169H244.427C243.639 197.169 243.001 197.807 243.001 198.594V203.149C243.001 203.936 243.639 204.574 244.427 204.574H262.814C263.602 204.574 264.24 203.936 264.24 203.149Z" fill="#57565B"/>
<path d="M264.24 196.749V197.927C264.24 199.786 262.736 201.289 260.876 201.289H246.364C244.504 201.289 243 199.786 243 197.927V196.749C243 195.959 243.636 195.324 244.426 195.324H262.813C263.604 195.324 264.24 195.959 264.24 196.749Z" fill="#67656B"/>
<path d="M254.069 298.943H250.023C249.321 298.943 248.751 299.512 248.751 300.213V316.543C248.751 317.245 249.321 317.814 250.023 317.814H254.069C254.771 317.814 255.34 317.245 255.34 316.543V300.213C255.34 299.512 254.771 298.943 254.069 298.943Z" fill="#954435"/>
<path d="M249.434 317.814H248.38C247.682 317.814 247.108 317.24 247.108 316.543V300.213C247.108 299.516 247.682 298.943 248.38 298.943H249.434C251.093 298.943 252.426 300.275 252.426 301.933V314.823C252.426 316.481 251.093 317.814 249.434 317.814Z" fill="#C05847"/>
<path opacity="0.2" d="M212.985 170.07H140.693V175.105H212.985V170.07Z" fill="#221F20"/>
<path opacity="0.2" d="M215.094 287.231H140.693V292.266H215.094V287.231Z" fill="#221F20"/>
<path d="M212.985 165.298H140.693V170.287H212.985V165.298Z" fill="#FAF5F0"/>
<path d="M157.08 178.359H152.677V185.827H157.08V178.359Z" fill="#804721"/>
<path d="M153.639 185.33H155.856C158.306 185.33 160.274 187.313 160.274 189.746V265.725H149.205V189.746C149.205 187.298 151.189 185.33 153.624 185.33H153.639Z" fill="#F7DCB6"/>
<path d="M155.282 165.328H154.476V178.358H155.282V165.328Z" fill="#4B4B4C"/>
<path d="M172.955 178.359H168.552V185.827H172.955V178.359Z" fill="#804721"/>
<path d="M169.529 185.33H171.746C174.196 185.33 176.165 187.313 176.165 189.746V265.725H165.111V189.746C165.111 187.298 167.095 185.33 169.529 185.33Z" fill="#F7DCB6"/>
<path d="M171.172 165.328H170.367V178.358H171.172V165.328Z" fill="#4B4B4C"/>
<path d="M187.452 178.359H183.049V185.827H187.452V178.359Z" fill="#804721"/>
<path d="M184.01 185.33H186.227C188.676 185.33 190.645 187.313 190.645 189.746V265.725H179.591V189.746C179.591 187.298 181.576 185.33 184.01 185.33Z" fill="#C8A09F"/>
<path d="M185.652 165.328H184.847V178.358H185.652V165.328Z" fill="#4B4B4C"/>
<path d="M202.195 178.359H197.792V185.827H202.195V178.359Z" fill="#804721"/>
<path d="M199.328 185.33H200.413C203.172 185.33 205.405 187.561 205.405 190.319V270.342H194.335V190.319C194.335 187.561 196.568 185.33 199.328 185.33Z" fill="#6D4B37"/>
<path d="M200.396 165.328H199.59V178.358H200.396V165.328Z" fill="#4B4B4C"/>
<path d="M195.312 178.359H190.909V185.827H195.312V178.359Z" fill="#804721"/>
<path d="M191.87 185.33H194.087C196.537 185.33 198.506 187.313 198.506 189.746V265.725H187.452V189.746C187.452 187.298 189.436 185.33 191.87 185.33Z" fill="#825E5D"/>
<path d="M193.513 165.328H192.708V178.358H193.513V165.328Z" fill="#4B4B4C"/>
<path d="M162.196 294.978H157.964V302.136H162.196V294.978Z" fill="#986533"/>
<path d="M160.475 282.475H159.701V294.978H160.475V282.475Z" fill="#4B4B4C"/>
<path d="M172.475 302.46C171.56 302.243 170.599 302.135 169.622 302.135H149.778C148.801 302.135 147.84 302.243 146.925 302.46C144.522 303.002 142.383 304.211 140.693 305.884V334.237H142.677V373.048H176.707V334.237H182.552V315.087C182.552 308.921 178.242 303.762 172.475 302.46Z" fill="#525152"/>
<path d="M160.088 298.556L172.475 302.46L160.088 307.17L146.926 302.46L160.088 298.556Z" fill="#986533"/>
<path d="M170.506 294.978H166.274V302.136H170.506V294.978Z" fill="#986533"/>
<path d="M168.769 282.475H167.995V294.978H168.769V282.475Z" fill="#4B4B4C"/>
<path d="M190.862 315.087V334.237H185.017V373.048H150.987V334.237H145.143V315.087C145.143 308.921 149.468 303.762 155.235 302.46C156.15 302.243 157.111 302.135 158.088 302.135H177.932C178.909 302.135 179.87 302.243 180.785 302.46C186.552 303.762 190.862 308.905 190.862 315.087Z" fill="#6E6C6E"/>
<path d="M168.383 298.556L180.77 302.46L168.383 307.17L155.22 302.46L168.383 298.556Z" fill="#986533"/>
<path d="M176.428 294.978H172.196V302.136H176.428V294.978Z" fill="#804721"/>
<path d="M174.707 282.475H173.933V294.978H174.707V282.475Z" fill="#4B4B4C"/>
<path d="M196.784 315.087V334.237H190.94V373.048H156.91V334.237H151.065V315.087C151.065 308.921 155.39 303.762 161.158 302.46C162.072 302.243 163.034 302.135 164.01 302.135H183.855C184.831 302.135 185.793 302.243 186.707 302.46C192.474 303.762 196.784 308.905 196.784 315.087Z" fill="#E09B74"/>
<path d="M174.305 298.556L186.707 302.46L174.305 307.17L161.158 302.46L174.305 298.556Z" fill="#804721"/>
<path d="M183.731 294.978H179.499V302.136H183.731V294.978Z" fill="#986533"/>
<path d="M182.01 282.475H181.235V294.978H182.01V282.475Z" fill="#4B4B4C"/>
<path d="M204.087 315.087V334.237H198.242V373.048H164.212V334.237H158.367V315.087C158.367 308.921 162.693 303.762 168.46 302.46C169.375 302.243 170.336 302.135 171.312 302.135H191.157C192.134 302.135 193.095 302.243 194.009 302.46C199.777 303.762 204.087 308.905 204.087 315.087Z" fill="#DE8957"/>
<path d="M181.622 298.556L194.009 302.46L181.622 307.17L168.459 302.46L181.622 298.556Z" fill="#986533"/>
<path d="M193.823 294.978H189.591V302.136H193.823V294.978Z" fill="#804721"/>
<path d="M192.086 282.475H191.312V294.978H192.086V282.475Z" fill="#4B4B4C"/>
<path d="M214.163 315.087V334.237H208.318V373.048H174.289V334.237H168.444V315.087C168.444 308.921 172.769 303.762 178.537 302.46C179.451 302.243 180.412 302.135 181.389 302.135H201.233C202.21 302.135 203.171 302.243 204.086 302.46C209.853 303.762 214.163 308.905 214.163 315.087Z" fill="#F7DCB6"/>
<path d="M191.7 298.556L204.087 302.46L191.7 307.17L178.537 302.46L191.7 298.556Z" fill="#804721"/>
<path opacity="0.2" d="M290.069 209.33H235.512V214.365H290.069V209.33Z" fill="#221F20"/>
<path opacity="0.2" d="M290.007 265.943H235.513V270.994H290.007V265.943Z" fill="#221F20"/>
<path opacity="0.2" d="M290.007 322.57H235.513V327.621H290.007V322.57Z" fill="#221F20"/>
</g>
<path d="M371.182 283.417H363.663C340.051 283.417 320.889 264.268 320.889 240.671V227.332C320.889 222.374 324.92 218.346 329.881 218.346H342.966C358.547 218.346 371.182 230.988 371.182 246.543V283.417Z" fill="#F6D2A0"/>
<path d="M374.081 338.341V358.343C374.081 358.343 385.134 356.422 378.778 341.347L374.081 338.357V338.341Z" fill="#E69392"/>
<path d="M378.778 341.347L374.081 338.357L389.77 302.691L399.444 308.857C381.91 336.249 378.778 341.347 378.778 341.347Z" fill="#E96094"/>
<path d="M374.391 267.677C374.391 267.677 380.825 273.301 399.444 308.905L389.476 313.135L367.895 278.027L374.391 267.677Z" fill="#E96094"/>
<path d="M327.23 266.159C327.23 266.159 321.029 283.186 324.331 328.349C324.331 328.349 328.92 328.597 332.3 328.178L334.734 322.43L335.865 275.393L327.23 266.159Z" fill="#E96094"/>
<path d="M340.671 486.567H352.5C352.5 486.567 356.113 474.683 360.407 455.89C363.275 443.34 366.453 427.677 369.043 410.448C372.128 390.044 374.391 367.392 374.391 344.958H347.601L344.33 411.874L342.625 446.826L340.687 486.551L340.671 486.567Z" fill="#D58483"/>
<path d="M374.375 344.972H337.059C337.059 344.972 343.927 328.936 327.54 286.593L327.229 266.158L341.648 261.479L358.422 260.626L374.375 267.676V344.972Z" fill="#E96094"/>
<path d="M358.423 261.479C358.423 261.479 358.919 264.485 352.764 264.485C346.609 264.485 341.726 261.479 341.726 261.479V242.035H358.407V261.479H358.423Z" fill="#E69392"/>
<path d="M341.741 259.652V251.053H356.857C356.857 251.053 355.679 259.652 341.741 259.652Z" fill="#D16F6D"/>
<path d="M336.159 412.354C336.826 415.36 337.477 418.458 338.066 421.696C339.756 430.884 341.276 439.328 342.609 446.858C346.965 471.523 349.368 486.567 349.368 486.567H360.407V344.974H337.059C324.795 371.514 330.935 388.789 336.159 412.354Z" fill="#E69392"/>
<path d="M336.159 412.354L344.329 411.889L360.422 410.96L369.057 410.464C372.143 390.059 374.406 367.408 374.406 344.974H337.089C324.826 371.514 330.966 388.789 336.19 412.354H336.159Z" fill="#404264"/>
<path d="M333.307 361.364L327.307 373.743C325.85 376.764 321.137 375.664 321.354 372.318C321.524 369.576 323.121 366.09 327.772 361.999L333.307 361.349V361.364Z" fill="#E69392"/>
<path d="M327.773 362.016L333.307 361.365L334.734 322.43C328.439 323.174 323.54 321.346 324.284 327.636C326.92 350.008 327.773 362.016 327.773 362.016Z" fill="#E96094"/>
<path d="M360.035 246.358H358.422V235.296H362.825V243.569C362.825 245.118 361.569 246.358 360.035 246.358Z" fill="#EC9C9A"/>
<path d="M361.353 226.14V236.644H358.423V251.177C358.423 251.177 348.779 261.278 339.71 256.243C335.741 254.043 333.307 249.147 333.307 243.926V226.14C333.307 223.087 333.974 220.221 335.121 217.758C337.493 212.676 341.958 209.236 347.074 209.236H347.586C355.182 209.236 361.353 216.813 361.353 226.14Z" fill="#EC9C9A"/>
<path d="M338.547 243.539C337.85 243.539 337.183 243.198 336.702 242.594C336.191 241.943 335.958 241.06 336.067 240.177L336.191 239.17L337.508 239.371L337.384 240.378C337.322 240.843 337.446 241.292 337.71 241.633C337.927 241.912 338.222 242.067 338.547 242.067V243.539Z" fill="#D16F6D"/>
<path d="M350.035 247.319C350.035 247.319 348.95 252.927 344.051 252.927C339.152 252.927 338.066 247.319 338.066 247.319H350.02H350.035Z" fill="white"/>
<path d="M330.811 227.564C330.811 227.564 354.128 225.488 371.182 255.266V226.867C371.182 215.944 362.143 207.097 350.996 207.097C339.85 207.097 330.811 215.944 330.811 226.867V227.564Z" fill="#F6D2A0"/>
<path d="M360.236 275.563H357.012V259.032H371.182V264.625C371.182 270.668 366.267 275.563 360.236 275.563Z" fill="#F6D2A0"/>
<path d="M349.461 293.985C357.368 293.985 363.787 287.57 363.787 279.669V257.126H359.26C353.849 257.126 349.461 261.511 349.461 266.918V293.985Z" fill="#F6D2A0"/>
<path d="M222.908 238.209C227.714 238.209 231.621 234.32 231.621 229.501V215.418H219.109" fill="#AD3C49"/>
<path d="M255.821 239.959H224.226V209.469C224.226 204.371 228.365 200.235 233.466 200.235H242.907C252.318 200.235 259.93 207.857 259.93 217.246L255.821 239.959Z" fill="#AD3C49"/>
<path d="M240.179 242.594H227.203V213.839C227.203 209.036 231.342 205.131 236.443 205.131H245.884C255.295 205.131 262.907 212.32 262.907 221.167C262.907 232.988 252.737 242.579 240.179 242.579V242.594Z" fill="#AD3C49"/>
<path d="M311.339 288.996L283.139 316.698L278.891 306.767L306.781 283.295L311.339 288.996Z" fill="#F19F9E"/>
<path d="M258.829 258.66L255.496 260.968C255.496 260.968 282.068 315.164 283.138 316.713L291.68 308.316L269.805 262.455L258.844 258.66H258.829Z" fill="#F19F9E"/>
<path d="M284.642 293.583L272.89 300.493L261.976 275.905L269.79 262.457L284.642 293.583Z" fill="#563A42"/>
<path d="M306.504 279.546L314.806 274.086L317.405 278.034C319.74 281.58 318.753 286.365 315.205 288.699L311.307 291.263C310.245 291.961 308.806 291.665 308.107 290.603L305.141 286.1C303.709 283.925 304.316 280.985 306.491 279.555L306.504 279.546Z" fill="#F19F9E"/>
<path d="M269.79 262.456L251.341 253.749H229.218L210.056 262.456L213.745 358.158H266.488L269.79 262.456Z" fill="#563A42"/>
<path d="M252.441 254.259C252.441 254.259 249.248 258.489 240.271 258.489C231.295 258.489 228.101 254.259 228.101 254.259V226.914H252.441V254.259Z" fill="#F19F9E"/>
<path d="M252.441 252.787V241.617H232.333C232.333 241.617 235.884 251.672 252.441 252.787Z" fill="#D16F6D"/>
<path d="M213.745 358.158L212.814 488.503L223.388 487.713L245.092 358.158H213.745Z" fill="#C1DCED"/>
<path d="M266.472 358.158L264.162 483.452H251.279L236.535 358.158H266.472Z" fill="#C1DCED"/>
<path d="M210.056 262.457C210.056 262.457 202.413 283.187 202.413 317.179C202.413 319.038 202.444 322.323 202.49 324.213L214.118 322.787L215.296 304.567L210.056 262.457Z" fill="#F19F9E"/>
<path d="M263.557 277.717H244.721C243.051 277.717 241.698 279.069 241.698 280.738V312.127C241.698 313.796 243.051 315.149 244.721 315.149H263.557C265.227 315.149 266.581 313.796 266.581 312.127V280.738C266.581 279.069 265.227 277.717 263.557 277.717Z" fill="white"/>
<path d="M263.991 281.591C263.991 282.148 263.542 282.598 262.984 282.598C262.426 282.598 261.976 282.148 261.976 281.591C261.976 281.033 262.426 280.583 262.984 280.583C263.542 280.583 263.991 281.033 263.991 281.591Z" fill="#192636"/>
<path d="M242.458 306.006H252.396V310.732C252.396 314.977 248.938 318.432 244.691 318.432H237.729V310.732C237.729 308.113 239.853 306.006 242.458 306.006Z" fill="#F19F9E"/>
<path d="M239.171 318.434L214.118 322.787L211.746 311.136H239.171V318.434Z" fill="#F19F9E"/>
<path d="M257.278 248.218C240.736 253.966 230.892 241.943 230.892 241.943V215.636C230.892 212.475 233.186 209.903 236.008 209.903H245.48C255.356 209.903 257.294 218.13 257.278 223.77V248.218Z" fill="#F19F9E"/>
<path d="M253.651 234.676H250.379V233.205H252.023L251.666 230.028L253.124 229.874L253.651 234.676Z" fill="#D16F6D"/>
<path d="M216.645 372.66C223.311 372.66 228.738 367.237 228.738 360.575H227.234C227.234 366.416 222.49 371.157 216.645 371.157V372.66Z" fill="#AEC7D7"/>
<path d="M263.356 372.366V371.451C261.557 371.451 259.557 366.989 259.557 360.575H258.643C258.643 367.191 260.704 372.366 263.356 372.366Z" fill="#AEC7D7"/>
<path d="M241.791 380.748L245.031 377.525V365.316H244.101V377.138L241.14 380.097L241.791 380.748Z" fill="#AEC7D7"/>
<path d="M234.985 224.373H219.125V215.496C219.125 210.724 222.272 206.85 226.148 206.85H235.233C237.791 206.85 239.853 209.391 239.853 212.536C239.853 219.075 235.311 215.434 234.985 224.373Z" fill="#AD3C49"/>
<path d="M230.458 232.678C232.954 232.678 234.985 230.649 234.985 228.154V224.374H230.458V232.678Z" fill="#AD3C49"/>
<path d="M227.264 223.274C225.466 223.274 224.008 224.731 224.008 226.528V233.237C224.008 235.034 225.466 236.49 227.264 236.49H230.551V226.574C230.551 224.762 229.078 223.29 227.264 223.29V223.274Z" fill="#F19F9E"/>
<path d="M215.296 304.567L201.653 303.514C201.653 303.514 206.986 266.252 210.056 262.457L215.296 304.567Z" fill="#563A42"/>
<path style="mix-blend-mode:screen" d="M204.366 355.804H34.4336L109.222 44.3735H129.578L204.366 355.804Z" fill="url(#paint3_linear_20_208447)"/>
<path d="M326.982 362.667C326.982 362.667 321.695 367.966 320.889 369.716C320.099 371.467 318.951 375.852 322.905 376.208C326.858 376.565 328.439 375.96 328.998 374.07C329.556 372.18 330.672 365.905 330.672 365.905L326.967 362.683L326.982 362.667Z" fill="#E69392"/>
<path d="M313.788 391.206C313.494 391.144 313.246 390.896 313.215 390.586C313.168 390.137 312.083 379.431 316.998 373.776C318.858 371.638 321.323 370.522 324.346 370.429C332.873 370.166 334.067 377.913 335.121 384.73C335.741 388.711 336.315 392.492 338.129 394.769C338.377 395.079 338.315 395.529 338.005 395.776C337.695 396.024 337.245 395.962 336.997 395.652C334.95 393.065 334.315 388.928 333.71 384.931C332.656 378.083 331.664 371.622 324.393 371.839C321.788 371.917 319.664 372.877 318.083 374.69C313.571 379.865 314.626 390.307 314.641 390.4C314.688 390.788 314.393 391.144 314.005 391.19C313.928 391.19 313.85 391.19 313.788 391.19V391.206Z" fill="#5A8BC9"/>
<path d="M284.952 387.781L278.751 450.622L290.549 451.241L295.929 455.579L293.061 388.013L284.952 387.781Z" fill="#98AAD7"/>
<path d="M293.061 388.014H363.384L372.035 453.628L295.929 455.58L293.061 388.014Z" fill="#F18C37"/>
<path d="M318.595 393.189C318.285 393.189 318.006 392.988 317.913 392.693C317.773 392.259 314.61 381.972 318.331 375.465C319.742 373.017 321.944 371.421 324.874 370.739C333.199 368.818 335.881 376.177 338.253 382.669C339.633 386.465 340.951 390.044 343.168 391.934C343.462 392.198 343.509 392.647 343.245 392.941C342.982 393.236 342.532 393.282 342.237 393.019C339.726 390.881 338.3 386.961 336.904 383.149C334.532 376.642 332.284 370.491 325.199 372.134C322.672 372.722 320.765 374.07 319.572 376.177C316.161 382.127 319.246 392.167 319.277 392.259C319.401 392.631 319.184 393.034 318.812 393.158C318.734 393.174 318.672 393.189 318.595 393.189Z" fill="#84ACDC"/>
<path d="M290.549 451.242V388.014H293.061L295.929 455.58L290.549 451.242Z" fill="#98AAD7"/>
<path d="M324.92 364.79C324.92 364.79 321.246 366.649 320.378 367.873C319.51 369.112 317.959 370.739 318.905 370.94C319.866 371.142 322.688 369.035 322.688 369.035L324.92 364.79Z" fill="#E69392"/>
<path d="M320.905 372.52C320.905 372.52 324.238 370.087 326.3 370.955C328.362 371.823 328.533 375.076 327.897 375.758C327.261 376.44 322.052 377.183 320.657 375.355C319.262 373.527 320.905 372.52 320.905 372.52Z" fill="#E69392"/>
<path d="M153.778 409.781L153.964 347.065L157.685 341.44L191.467 341.719L193.327 345.67L193.141 409.781H191.312L191.545 345.903L189.312 343.687H159.018L155.701 348.01L155.189 409.781H153.778Z" fill="white"/>
<path d="M164.646 340.852L164.073 344.415H184.599L185.173 341.069L164.646 340.852Z" fill="#356A7C"/>
<path d="M147.173 494.685H198.427C200.542 494.685 202.257 492.972 202.257 490.858V411.223C202.257 409.109 200.542 407.396 198.427 407.396H147.173C145.058 407.396 143.344 409.109 143.344 411.223V490.858C143.344 492.972 145.058 494.685 147.173 494.685Z" fill="#356A7C"/>
<path d="M148.554 414.663L149.081 438.91C149.096 439.498 149.36 439.963 149.67 439.948L170.073 439.622C170.383 439.622 170.631 439.158 170.646 438.584L171.158 415.127C171.173 414.508 170.91 413.981 170.584 413.981L149.143 413.516C148.802 413.516 148.538 414.043 148.554 414.663Z" fill="#529AB0"/>
<path d="M150.972 415.687L151.22 417.127L169.747 417.298V416.492L150.972 415.687Z" fill="#366770"/>
<path d="M174.615 414.663L175.142 438.91C175.158 439.498 175.421 439.963 175.731 439.948L196.134 439.622C196.444 439.622 196.692 439.158 196.707 438.584L197.219 415.127C197.234 414.508 196.971 413.981 196.645 413.981L175.204 413.516C174.863 413.516 174.599 414.043 174.615 414.663Z" fill="#529AB0"/>
<path d="M177.033 415.687L177.281 417.127L195.808 417.298V416.492L177.033 415.687Z" fill="#366770"/>
<path d="M208.614 397.65L202.258 407.396H145.004L137.872 393.808L145.949 371.838L152.941 372.009L200.413 373.14L208.614 397.65Z" fill="#7DC1D2"/>
<path d="M208.613 397.65L202.257 407.395H155.685L158.971 393.808L152.026 371.978L200.412 373.14L208.613 397.65Z" fill="#89C8DA"/>
<path d="M157.561 377.168L166.026 390.755C167.576 393.234 170.274 394.737 173.204 394.737H192.382C199.219 394.737 208.335 392.63 199.312 381.459L195.668 376.253L193.002 376.424L194.009 378.175C202.753 391.7 193.42 390.445 187.142 390.802L175.312 391.452C172.506 391.607 169.793 390.352 168.103 388.106L159.856 377.183H157.577L157.561 377.168Z" fill="#6DB5CA"/>
</g>
<path d="M45.4956 32.7396C46.2366 32.0912 46.9005 31.3502 47.5026 30.5628H41.0806V28.3552H50.5439V28.9882C50.8063 29.2969 51.0842 29.5748 51.3621 29.8064C52.4891 29.3741 53.508 28.7875 54.4188 28.0928L56.1944 29.5439C55.3144 30.285 54.2955 30.9334 53.1377 31.4428C53.5082 31.7824 53.8787 32.0912 54.2337 32.3536C55.2218 31.7516 56.1326 31.0105 56.9663 30.1306L58.896 31.6435C58.1241 32.4617 57.2288 33.1719 56.2407 33.8048C57.3214 34.5458 58.3863 35.1479 59.4207 35.6265L57.6455 37.7415C57.2595 37.5254 56.8891 37.3092 56.5494 37.0776V42.5427H53.2146L55.1134 43.0676C54.6966 43.8395 54.2955 44.565 53.8787 45.1671H58.9884V47.4519H40.6792V45.1671H45.3569C45.0945 44.4724 44.7701 43.824 44.3996 43.2374L45.897 42.5427H42.7785V37.1394C42.0838 37.4482 41.4203 37.6797 40.7719 37.8341L40 35.8889C41.127 35.5493 42.2229 35.0244 43.2881 34.376C42.7323 33.8202 42.0995 33.2336 41.4511 32.6624L43.6431 31.1495C44.2452 31.6281 44.8781 32.1375 45.5265 32.755L45.4956 32.7396ZM46.1443 35.117C45.5422 35.5493 44.9554 35.9352 44.3996 36.2903H55.4225C54.7278 35.8117 54.0639 35.3023 53.4155 34.7311V35.2714H46.7616V34.6384C46.5455 34.8083 46.3295 34.9781 46.1597 35.117H46.1443ZM54.1874 40.2579V38.5751H45.1406V40.2579H54.1874ZM51.1152 45.1517C51.5475 44.2872 51.918 43.4226 52.2422 42.5272H46.7925C47.2094 43.1293 47.5489 43.7777 47.8577 44.4724L46.283 45.1362H51.1307L51.1152 45.1517ZM48.4291 33.0792H51.563C50.9764 32.5389 50.4205 31.9831 49.8956 31.3965C49.3707 32.0294 48.9076 32.5852 48.4291 33.0792Z" fill="#595757"/>
<path d="M63.6197 31.7979V28.0773H65.8276V31.7979H67.1705V33.9129H65.8276V35.0862C66.6458 35.8581 67.3712 36.5991 67.9887 37.3092L67.8346 36.4447C68.1588 36.4447 68.4828 36.4447 68.7915 36.4292C69.2238 35.7654 69.6097 35.117 69.9648 34.4686C69.1466 33.8357 68.2822 33.2953 67.3404 32.8322L68.5292 31.3193C68.6527 31.4119 68.7607 31.4737 68.8997 31.52C69.4863 30.3776 69.9803 29.2197 70.3971 28.1082L72.2651 28.9573C71.6167 30.3004 71.0302 31.4582 70.4898 32.4308C70.6133 32.5235 70.7523 32.6006 70.8758 32.6933C71.1537 32.1066 71.4161 31.5509 71.6477 30.9797L73.2838 31.7207C73.2221 30.6246 73.176 29.4513 73.176 28.2008L75.4454 28.031C75.4454 29.4976 75.4609 30.8253 75.5072 32.0294L75.7849 31.5045C75.8776 31.5663 75.9855 31.628 76.0627 31.6744C76.5876 30.4856 77.02 29.2969 77.3751 28.1082L79.2276 28.9573C78.6255 30.4239 78.0851 31.6589 77.5911 32.6778C77.7146 32.8013 77.8535 32.9094 77.977 33.002C78.3475 32.1838 78.6719 31.3811 78.9653 30.5783L80.8332 31.4274C80.3855 32.4154 79.9531 33.3108 79.5363 34.129L80.4009 33.8665C80.8331 34.9472 81.1726 36.1205 81.4196 37.4173L79.7372 37.9113C79.6908 37.7106 79.6753 37.5253 79.629 37.3247C79.3202 37.4482 79.0423 37.5408 78.7798 37.5871C79.2584 37.8959 79.6908 38.1892 80.0767 38.5134L79.4744 39.1772H81.1882V41.215H76.8192C76.9427 41.6936 77.128 42.1413 77.2978 42.5581C77.5603 42.2185 77.8227 41.848 78.0543 41.462L79.9995 42.3883C79.4746 43.3146 78.9342 44.1019 78.3784 44.7194C78.61 45.0899 78.8109 45.2598 78.9807 45.2598C79.027 45.2598 79.0731 45.1671 79.1349 44.9973C79.2275 44.7349 79.2894 44.3644 79.3357 43.9167L81.4351 44.7657C81.0646 46.0008 80.6171 46.8035 80.0922 47.1586C79.7526 47.4211 79.3511 47.5446 78.9034 47.5446C78.2705 47.5446 77.6221 47.1277 76.9737 46.3404C76.9119 46.2478 76.85 46.186 76.8037 46.1088C75.9392 46.7109 74.9668 47.2049 73.9325 47.6526L72.8364 45.7075C74.0252 45.2752 74.9821 44.7812 75.7077 44.21C75.2909 43.33 74.9513 42.3265 74.6735 41.2304H71.6322C71.6168 41.5392 71.5859 41.7862 71.5859 42.0332C72.6048 42.5581 73.4847 43.0213 74.2721 43.4998L73.0215 45.2752C72.4349 44.8429 71.8484 44.457 71.2772 44.0865C71.1846 44.3952 71.1226 44.6731 71.0608 44.8892C70.7521 45.9236 70.32 46.8344 69.7179 47.6526L67.7109 46.3713C68.2358 45.7075 68.6373 44.951 68.946 44.0556C69.1622 43.3146 69.3317 42.3729 69.4243 41.2304H67.9578V39.1927H74.2102C74.1022 38.745 74.0097 38.2818 73.9325 37.8032L72.435 38.2509C72.3887 38.0502 72.3732 37.8804 72.3423 37.7106C71.1382 38.1429 69.7488 38.3744 68.2051 38.4208L68.1278 37.9267L66.8772 39.6712C66.5376 39.0846 66.1827 38.5443 65.8585 38.0502V47.6372H63.6506V40.3505C63.3881 41.1687 63.1105 41.9252 62.8018 42.6353L61.4585 40.9526C61.8908 40.0881 62.3387 38.8839 62.8172 37.3247C63.126 36.3366 63.4035 35.2868 63.6351 34.1908V33.9592H61.8599V31.8442H63.6351L63.6197 31.7979ZM71.694 35.1325C71.4779 35.503 71.277 35.8426 71.0918 36.1514C71.4005 36.1051 71.6785 36.0279 71.9409 35.9352C71.8483 35.6728 71.7863 35.3949 71.7091 35.1325H71.694ZM73.3147 32.1684C72.8362 33.0792 72.4041 33.9129 71.9718 34.6539L73.0988 34.3297C73.3149 34.8855 73.4845 35.503 73.6698 36.1051C73.5 34.9009 73.3919 33.6041 73.3302 32.1684H73.3147ZM77.051 38.6523L77.8074 37.7415C77.2825 37.8341 76.7885 37.865 76.2945 37.865L75.9546 35.997C76.1552 35.997 76.3407 35.997 76.5414 35.9816C76.8038 35.5339 77.0353 35.0707 77.2515 34.5921C76.6957 34.1599 76.1244 33.7739 75.615 33.4189C75.7385 35.5956 75.9857 37.4019 76.2791 38.8067C76.2945 38.9302 76.3251 39.0383 76.3405 39.1309H77.792C77.5295 38.9611 77.298 38.7913 77.051 38.6369V38.6523ZM79.0885 35.0553C78.965 35.3177 78.8261 35.5338 78.718 35.75C78.9187 35.7345 79.0887 35.6882 79.2585 35.6419C79.1967 35.4412 79.1348 35.256 79.0885 35.0553Z" fill="#595757"/>
<path d="M91.3155 30.115L89.9722 30.7016H94.9432C95.36 29.8834 95.715 28.988 96.0392 28.0771L98.8336 28.8336C98.4939 29.5283 98.1235 30.1458 97.753 30.6862H102.462V32.971H83.6274V30.6862H88.5366C88.2742 30.1304 87.9498 29.621 87.6102 29.1733L89.8795 28.0771C90.4353 28.7101 90.9141 29.3739 91.3001 30.115H91.3155ZM93.0289 44.8273C93.0289 46.6953 92.041 47.6216 90.0649 47.6216C89.679 47.6216 89.262 47.5753 88.7835 47.529L88.2897 45.0589C88.9381 45.2287 89.5246 45.3213 90.0649 45.3213C90.3891 45.3213 90.5591 44.9508 90.5591 44.2252V43.2372H86.8383V47.6216H84.3993V33.8509H93.0289V44.8428V44.8273ZM90.5591 37.4789V36.1203H86.8383V37.4789H90.5591ZM90.5591 41.0141V39.6556H86.8383V41.0141H90.5591ZM97.2434 34.5148V43.901H94.8045V34.5148H97.2434ZM101.798 33.5731V44.4723C101.798 45.6455 101.628 46.4329 101.319 46.8651C100.933 47.3437 100.285 47.6062 99.3277 47.6062C98.4632 47.6062 97.6448 47.5135 96.8884 47.3437L96.4715 44.9045C97.2897 45.1206 98.139 45.2287 99.0036 45.2287C99.1271 45.2287 99.2196 45.1361 99.2659 44.9663C99.3122 44.7347 99.3277 44.3642 99.3277 43.8856V33.5731H101.798Z" fill="#595757"/>
<path d="M107.695 47.0041H105.256V31.1339H107.202C107.479 30.0996 107.695 29.0652 107.865 28L110.397 28.6021C110.227 29.5129 110.027 30.3466 109.795 31.1339H113.021V35.0088C113.562 34.098 114.04 33.11 114.442 31.9984C115.044 30.5936 115.507 29.2505 115.8 28L118.332 28.7719C118.116 29.5747 117.9 30.3466 117.668 31.1339H123.751C123.751 39.4086 123.473 44.2098 122.948 45.5375C122.531 46.9578 121.543 47.6988 119.968 47.6988C119.15 47.6988 118.332 47.5753 117.499 47.3592L117.004 44.7347C118.209 45.0126 119.212 45.1516 119.968 45.1516C120.416 45.1516 120.725 44.8119 120.848 44.1172C121.08 42.913 121.219 39.3778 121.219 33.4959H116.788C116.186 35.0551 115.538 36.3674 114.797 37.4789L113.021 36.1667V46.1859H110.582V45.0126H107.711V47.0195L107.695 47.0041ZM110.567 37.1238V33.4959H107.695V37.1238H110.567ZM110.567 39.4086H107.695V42.6969H110.567V39.4086ZM119.613 41.3692L117.004 42.2183C116.696 40.4275 116.202 38.7757 115.553 37.3091L117.931 36.5526C118.641 38.0038 119.212 39.5939 119.613 41.3692Z" fill="#595757"/>
<path d="M133.615 45.2287H131.253V44.0554H129.215V45.8308H126.854V29.4357H133.6V45.2287H133.615ZM131.253 35.5183V31.7051H129.215V35.5183H131.253ZM131.253 41.7706V37.7259H129.215V41.7706H131.253ZM138.694 29.8525V28H141.134V29.8525H145.78V32.23H141.134V34.2369H145.44V36.6143H143.835V38.2971H145.78V40.6591H143.835V44.3797C143.835 45.661 143.65 46.4792 143.248 46.8188C142.816 47.2665 142.075 47.5136 141.041 47.5136C140.284 47.5136 139.59 47.4209 138.941 47.2511L138.509 44.6421C139.358 44.92 140.192 45.0589 141.041 45.0589C141.211 45.0589 141.303 44.7193 141.303 43.9783V40.6745H134.125V38.3125H141.303V36.6298H134.618V34.2523H138.679V32.2454H134.109V29.868H138.679L138.694 29.8525ZM138.355 43.8084L135.993 44.8273C135.684 43.8393 135.329 42.9285 134.897 42.1257L137.104 41.1068C137.583 41.925 138.015 42.8358 138.355 43.8084Z" fill="#595757"/>
<path d="M157.343 36.6296H151.091V47.6214H148.729V28.2622H157.343V36.6296ZM154.981 31.3961V30.547H151.091V31.3961H154.981ZM154.981 34.3293V33.4802H151.091V34.3293H154.981ZM167.054 28.2622V44.4875C167.054 46.5253 166.128 47.5287 164.26 47.5287C163.627 47.5287 162.901 47.4361 162.067 47.2663L161.743 45.6607H155.213V46.5098H152.944V37.4787H162.561V44.9969C162.994 45.105 163.426 45.1513 163.843 45.1513C164.337 45.1513 164.599 44.6264 164.599 43.5458V36.6296H158.517V28.2622H167.038H167.054ZM160.307 40.5199V39.6554H155.228V40.5199H160.307ZM160.307 43.4531V42.5268H155.228V43.4531H160.307ZM164.615 31.3961V30.547H160.724V31.3961H164.615ZM164.615 33.4957H160.724V34.3448H164.615V33.4957Z" fill="#595757"/>
<path d="M187.107 40.1495C186.953 40.8133 186.629 41.3382 186.15 41.6933C185.718 41.9248 185.27 42.0329 184.792 42.0329C184.081 42.0329 183.325 41.9248 182.507 41.6933L182.013 39.0688C182.723 39.3776 183.464 39.5011 184.19 39.5011C184.468 39.5011 184.668 39.3467 184.777 39.0071C184.993 38.1271 185.147 36.5216 185.255 34.2213L181.087 35.2402V42.7894H178.616V35.8423L174.834 36.7686V43.7928C174.834 44.3486 175.205 44.6419 175.961 44.6419C176.733 44.7037 178.277 44.7346 180.562 44.7346C182.723 44.7346 184.004 44.6882 184.437 44.5802C185.008 44.5339 185.502 44.4875 185.98 44.4103C186.32 44.3023 186.613 43.4995 186.83 42.0329L189.377 43.129C189.068 44.9661 188.62 46.0622 188.034 46.4791C187.385 46.7878 186.135 47.0039 184.298 47.0811C183.387 47.1274 182.152 47.1429 180.577 47.1738C176.98 47.1738 175.112 47.1274 174.896 47.0657C173.167 47.0194 172.303 46.1085 172.303 44.3795V37.3861L170.373 37.8647L169.771 35.6725L172.303 34.9778V30.0994H174.85V34.2985L178.632 33.2796V28.2468H181.102V32.6158L187.679 30.8713C187.679 34.9315 187.478 38.0345 187.138 40.1495H187.107Z" fill="#595757"/>
<path d="M210.281 29.1888V31.628H202.994C202.685 32.1837 202.361 32.7549 202.006 33.3107V47.5136H199.382V37.0312C199.305 37.1239 199.227 37.2011 199.196 37.2937C197.297 39.6557 195.26 41.6472 193.145 43.2836L191.277 41.3539C193.392 39.7946 195.337 37.9884 197.066 35.858C198.347 34.2987 199.382 32.8784 200.185 31.6125H191.879V29.1733H210.281V29.1888ZM210.806 41.3693L208.598 43.5615C206.931 40.9834 204.986 38.4515 202.778 35.966L205.047 34.3451C206.993 36.3366 208.891 38.6985 210.806 41.3693Z" fill="#595757"/>
<path d="M218.817 28.6947C218.725 28.9108 218.663 29.1115 218.586 29.2813C219.728 29.8834 220.793 30.5626 221.781 31.3191L220.33 33.0945H220.762V35.3638H218.725V37.0466H221.256V39.3314H218.725V44.395C219.636 44.3024 220.469 44.1943 221.256 44.0708L221.596 46.2476C219.219 46.6798 216.563 47.0504 213.661 47.3437L213.229 44.9045C214.325 44.8119 215.375 44.7347 216.363 44.642V39.3159H213.723V37.0311H216.363V35.3484H214.911V34.5765C214.788 34.7 214.634 34.839 214.495 34.947L212.719 33.1716C213.599 32.3689 214.34 31.5661 214.896 30.7788C215.544 29.8988 216.069 28.9571 216.501 28.0154L218.786 28.7101L218.817 28.6947ZM216.1 43.0519L213.893 43.9782C213.63 42.8821 213.337 41.8786 212.966 41.0141L215.004 40.0878C215.436 40.9987 215.807 41.9713 216.1 43.0519ZM219.651 33.079C218.91 32.4924 218.153 31.952 217.428 31.458C217.304 31.6742 217.165 31.8903 217.042 32.0601C216.81 32.4306 216.563 32.7703 216.301 33.079H219.651ZM221.92 40.2577C221.704 41.6471 221.473 42.7895 221.256 43.7158L219.064 43.0519C219.342 41.9558 219.558 40.8443 219.728 39.7482L221.92 40.2731V40.2577ZM223.603 30.3774V28.0771H226.073V30.3774H228.111V28.0771H230.55V30.3774H232.156V32.6468H230.55V34.4993H232.495V36.7996H221.503V34.4993H223.603V32.6468H222.09V30.3774H223.603ZM231.893 47.6061H229.531V46.5872H224.622V47.6061H222.26V37.556H231.878V47.6061H231.893ZM229.531 40.9369V39.7482H224.622V40.9369H229.531ZM229.531 44.395V43.1446H224.622V44.395H229.531ZM228.111 34.5148V32.6622H226.073V34.5148H228.111Z" fill="#595757"/>
<path d="M238.903 33.6659L237.189 35.7809C236.34 34.9009 235.476 34.1444 234.565 33.4806L236.247 31.7052C237.205 32.261 238.084 32.9094 238.887 33.6504L238.903 33.6659ZM239.49 36.7998V43.3763C240.385 44.0865 241.419 44.4724 242.608 44.5651C243.503 44.7349 245.68 44.8275 249.169 44.8275C251.161 44.8275 252.874 44.704 254.279 44.3952C253.832 45.2598 253.461 46.1706 253.198 47.1895H246.9C244.63 47.1895 242.809 46.9888 241.45 46.6492C240.478 46.3713 239.52 45.831 238.579 45.0127C237.807 45.8773 237.004 46.7418 236.217 47.6372C235.676 46.7572 235.136 45.9236 234.595 45.1671C235.46 44.7349 236.309 44.3026 237.128 43.824V39.1772H234.595V36.8152H239.505L239.49 36.7998ZM240.601 29.7138L238.918 31.8133C238.054 31.0569 237.189 30.4085 236.278 29.8681L237.992 28.0928C238.949 28.5713 239.814 29.1117 240.616 29.7138H240.601ZM252.164 34.5921H253.415V41.601C253.415 43.4226 252.504 44.3026 250.713 44.3026H249.725L249.277 42.203H245.927V43.0521H243.812V37.2938H250.327V42.095C250.451 42.1104 250.605 42.1104 250.744 42.1104C251.022 42.1104 251.176 41.7399 251.176 41.0143V36.7071H242.979V43.8858H240.709V34.5921H242.052V28.5096H252.195V34.5921H252.164ZM245.742 34.5921V31.5354H249.879V30.779H244.321V34.5921H245.742ZM248.181 40.2579V39.239H245.912V40.2579H248.181ZM249.879 34.5921V33.4961H247.872V34.5921H249.879Z" fill="#595757"/>
<path d="M265.023 41.5389L264.205 40.134C264.853 39.8716 265.44 39.4239 265.95 38.7292H264.375V35.6416H267.678V37.8029C267.678 39.3776 266.799 40.628 265.023 41.5389Z" fill="#595757"/>
<path d="M282.205 37.2937V43.6233C283.131 44.2563 284.212 44.5959 285.431 44.6576C286.342 44.8275 288.566 44.8892 292.132 44.8892C294.232 44.8892 296.022 44.7657 297.488 44.4569C297.041 45.3215 296.671 46.2323 296.408 47.2512H289.847C287.516 47.2512 285.647 47.0814 284.243 46.7572C283.224 46.4948 282.236 45.9853 281.264 45.2288C280.662 45.9853 280.029 46.7418 279.427 47.5137C278.871 46.5565 278.299 45.692 277.712 44.9046C278.453 44.6422 279.133 44.3643 279.828 44.0556V39.6403H277.883V37.2783H282.19L282.205 37.2937ZM281.881 34.2525L280.275 36.1977C279.473 35.3486 278.654 34.623 277.805 34.0209L279.427 32.3382C280.307 32.8939 281.14 33.5269 281.865 34.2679L281.881 34.2525ZM283.208 30.3775L281.696 32.2301C280.877 31.4119 280.028 30.7017 279.163 30.1151L280.769 28.4324C281.649 28.9881 282.483 29.6365 283.208 30.3775ZM288.704 29.7137C288.272 30.3776 287.794 31.0259 287.284 31.6435C287.454 32.014 287.624 32.3845 287.809 32.7704C288.457 34.5458 288.797 36.5682 288.797 38.8221C288.797 40.9371 288.52 42.4191 287.948 43.2528C287.423 43.9629 286.667 44.318 285.679 44.318C285.231 44.318 284.752 44.2099 284.228 43.9938L283.811 41.6164C284.459 41.8479 285.092 41.956 285.664 41.956C285.833 41.956 285.972 41.8325 286.049 41.5237C286.173 41.0452 286.25 40.1343 286.25 38.8221C286.25 38.5597 286.234 38.3281 286.234 38.0811C286.172 38.1737 286.127 38.2354 286.08 38.2818C285.525 38.9765 284.799 39.594 283.965 40.1806L282.545 37.973C283.363 37.4481 284.104 36.846 284.752 36.1822C285.184 35.7345 285.555 35.2559 285.895 34.7619C285.802 34.3296 285.694 33.9437 285.586 33.5578C285.092 34.0826 284.567 34.5767 284.042 35.0552L282.267 33.2799C283.039 32.6315 283.78 31.9677 284.428 31.2729C284.058 30.7481 283.656 30.2849 283.193 29.8835L284.876 28.3706C285.262 28.7411 285.633 29.1271 285.957 29.5439C286.219 29.2351 286.435 28.9418 286.651 28.633L288.689 29.7292L288.704 29.7137ZM296.562 28.6022V30.9642H294.031V34.5921H296.331V36.9541H294.031V41.2767H296.825V43.6387H288.967V41.2767H291.591V36.9541H289.476V34.5921H291.591V30.9642H289.229V28.6022H296.562Z" fill="#595757"/>
<path d="M303.818 37.2937V43.6233C304.745 44.2563 305.825 44.5959 307.045 44.6576C307.955 44.8275 310.179 44.8892 313.745 44.8892C315.845 44.8892 317.635 44.7657 319.102 44.4569C318.654 45.3215 318.284 46.2323 318.022 47.2512H311.46C309.129 47.2512 307.261 47.0814 305.856 46.7572C304.837 46.4948 303.849 45.9853 302.877 45.2288C302.275 45.9853 301.642 46.7418 301.04 47.5137C300.484 46.5565 299.912 45.692 299.326 44.9046C300.067 44.6422 300.746 44.3643 301.441 44.0556V39.6403H299.496V37.2783H303.803L303.818 37.2937ZM303.494 34.2525L301.889 36.1977C301.086 35.3486 300.267 34.623 299.418 34.0209L301.04 32.3382C301.92 32.8939 302.753 33.5269 303.478 34.2679L303.494 34.2525ZM304.822 30.3775L303.309 32.2301C302.491 31.4119 301.641 30.7017 300.777 30.1151L302.382 28.4324C303.262 28.9881 304.096 29.6365 304.822 30.3775ZM310.318 29.7137C309.885 30.3776 309.407 31.0259 308.898 31.6435C309.067 32.014 309.237 32.3845 309.422 32.7704C310.071 34.5458 310.41 36.5682 310.41 38.8221C310.41 40.9371 310.133 42.4191 309.562 43.2528C309.037 43.9629 308.28 44.318 307.292 44.318C306.844 44.318 306.366 44.2099 305.841 43.9938L305.424 41.6164C306.072 41.8479 306.706 41.956 307.277 41.956C307.447 41.956 307.586 41.8325 307.663 41.5237C307.786 41.0452 307.863 40.1343 307.863 38.8221C307.863 38.5597 307.847 38.3281 307.847 38.0811C307.786 38.1737 307.74 38.2354 307.694 38.2818C307.138 38.9765 306.412 39.594 305.579 40.1806L304.158 37.973C304.977 37.4481 305.717 36.846 306.365 36.1822C306.798 35.7345 307.169 35.2559 307.508 34.7619C307.416 34.3296 307.307 33.9437 307.199 33.5578C306.705 34.0826 306.18 34.5767 305.655 35.0552L303.88 33.2799C304.652 32.6315 305.393 31.9677 306.041 31.2729C305.671 30.7481 305.27 30.2849 304.807 29.8835L306.489 28.3706C306.875 28.7411 307.246 29.1271 307.57 29.5439C307.833 29.2351 308.048 28.9418 308.264 28.633L310.303 29.7292L310.318 29.7137ZM318.175 28.6022V30.9642H315.644V34.5921H317.944V36.9541H315.644V41.2767H318.438V43.6387H310.58V41.2767H313.205V36.9541H311.09V34.5921H313.205V30.9642H310.842V28.6022H318.175Z" fill="#595757"/>
<path d="M332.024 40.937C331.114 39.2851 329.663 37.7413 327.702 36.2593L329.369 34.8081C331.221 36.1975 332.719 37.7104 333.846 39.3932L332.024 40.937Z" fill="#595757"/>
<path d="M354.486 30.2848V28.0772H356.864V30.2848H358.747C358.408 30.0224 358.099 29.8062 357.79 29.621L359.303 28C360.075 28.3705 360.769 28.8028 361.402 29.2813L360.553 30.3002H362.005V32.5696H356.864V33.4959H361.495V44.3951C361.495 46.3557 360.615 47.3592 358.886 47.3592C358.516 47.3592 358.114 47.2974 357.636 47.1893L357.111 44.6575C357.759 44.8891 358.346 44.9972 358.886 44.9972C359.056 44.9972 359.148 44.6112 359.148 43.8084V43.4688H356.879V47.0967H354.502V43.4688H352.403V47.529H350.025V36.9386C349.608 37.6333 349.206 38.189 348.821 38.6522C349.206 39.069 349.592 39.4549 349.947 39.8409L348.605 41.6934C348.065 40.9215 347.524 40.2268 346.999 39.6248V47.6216H344.791V40.4584C344.56 40.7672 344.343 41.0142 344.127 41.2766L342.445 39.7483C344.128 37.8031 345.486 35.5955 346.567 33.1717H342.676V30.7943H344.791V28.0926H347.231V30.7943H349.099V32.6622C348.574 34.1906 347.925 35.6726 347.107 37.0775C347.215 37.1701 347.323 37.2782 347.431 37.3554C347.864 36.8768 348.203 36.3673 348.512 35.7961L350.025 36.5526V33.4959H354.502V32.5696H349.608V30.3002H354.502L354.486 30.2848ZM354.486 37.3862V35.8733H352.387V37.3862H354.486ZM354.486 41.184V39.6402H352.387V41.184H354.486ZM356.864 37.3862H359.133V35.8733H356.864V37.3862ZM356.864 41.184H359.133V39.6402H356.864V41.184Z" fill="#595757"/>
<path d="M366.728 41.1068C366.419 43.16 366.142 44.8737 365.879 46.2476L363.764 45.661C364.104 43.9782 364.397 42.2646 364.598 40.5819L366.713 41.1068H366.728ZM370.433 29.0961C369.476 30.609 368.581 31.9058 367.731 32.9864C367.994 33.1563 368.226 33.3106 368.488 33.4341C369.183 32.5387 369.8 31.6588 370.371 30.7788L372.641 31.7977C371.128 33.7892 369.676 35.5337 368.318 37.0466C368.966 37.0003 369.569 36.9386 370.14 36.8768C370.047 36.5372 369.939 36.1821 369.862 35.8579L371.9 35.2558C372.286 36.5063 372.61 37.8957 372.826 39.4086L370.711 40.0725C370.665 39.6402 370.603 39.2234 370.542 38.8374C370.156 38.8992 369.769 38.9609 369.368 39.0072V47.5907H367.16V39.2851C366.296 39.3932 365.431 39.4858 364.551 39.563L364.119 37.3554C364.459 37.3399 364.829 37.3091 365.184 37.2936C365.833 36.6298 366.42 35.9814 366.975 35.333C365.987 34.6692 364.984 33.9745 363.965 33.2335L365.308 31.5198C365.493 31.6434 365.679 31.7514 365.848 31.844C366.759 30.5936 367.531 29.3122 368.179 28.0617L370.449 29.0807L370.433 29.0961ZM372.625 44.9045L370.511 45.3985C370.387 43.7621 370.124 42.2029 369.754 40.7517L371.791 40.2577C372.208 41.7861 372.487 43.3453 372.641 44.9045H372.625ZM379.464 28.6947C379.295 29.0189 379.14 29.3276 378.986 29.621C379.758 30.5318 380.561 31.3346 381.379 32.0138C382.398 32.8784 383.386 33.5731 384.358 34.0825L383 36.4446C382.691 36.2747 382.413 36.1049 382.151 35.8888V37.0312H373.984V35.719C373.675 35.9505 373.398 36.1667 373.12 36.3674L371.436 34.6846C372.779 33.6657 373.861 32.6314 374.694 31.5662C375.667 30.4392 376.47 29.2505 377.103 28L379.464 28.6947ZM382.861 47.6062H380.391V46.5873H375.914V47.6062H373.475V38.6522H382.861V47.6062ZM380.653 34.6846C380.437 34.5148 380.236 34.3141 380.051 34.1289C379.233 33.357 378.445 32.5233 377.735 31.6588C377.457 32.091 377.164 32.477 376.871 32.8475C376.346 33.5113 375.806 34.1288 375.204 34.6846H380.653ZM380.391 44.3951V40.937H375.914V44.3951H380.391Z" fill="#595757"/>
<path d="M404.567 35.8735V38.4054H386.582V35.8735H404.567Z" fill="#595757"/>
<path d="M426.843 29.2815V31.7207H417.889V34.7003C420.622 35.9816 423.184 37.4637 425.562 39.1464L423.879 41.5084C421.934 40.0881 419.943 38.8531 417.889 37.7879V47.5138H415.281V31.7053H407.577V29.2661H426.843V29.2815Z" fill="#595757"/>
<path d="M437.928 41.5389L437.109 40.134C437.758 39.8716 438.345 39.4239 438.854 38.7292H437.28V35.6416H440.583V37.8029C440.583 39.3776 439.703 40.628 437.928 41.5389Z" fill="#595757"/>
<path d="M45.0635 57.8568C44.9708 58.1347 44.8934 58.3971 44.8008 58.6133H49.7099V60.7592C50.0496 60.3269 50.3584 59.8483 50.6209 59.3543C51.0532 58.5824 51.3927 57.8568 51.6397 57.193L54.0172 57.8568C53.9245 58.1193 53.8475 58.3817 53.7548 58.6133H59.4204V60.8209H56.2405C56.503 61.1451 56.7345 61.4539 56.9815 61.7472L55.0054 62.9205H58.7413V71.4576C58.7413 73.4337 57.8304 74.4063 56.0396 74.4063H54.4186L53.9248 71.8745C54.6967 71.998 55.3912 72.0443 56.0396 72.0443C56.2558 72.0443 56.3638 71.6583 56.3638 70.8556V65.2053H53.4925V76.8609H51.1305V62.9205H51.1923L49.1853 61.4075C49.3551 61.2377 49.5096 61.037 49.6639 60.8209H47.2864C47.5026 61.1605 47.7186 61.4847 47.9347 61.8089L46.0977 62.905H49.8026V71.2724H43.4733V73.5572C44.6003 73.4337 45.6655 73.2947 46.6073 73.1712C46.4838 73.0014 46.3753 72.8007 46.2364 72.6155L48.2743 71.365C49.1388 72.5692 49.8337 73.866 50.3895 75.2554L48.2743 76.5058C48.1045 76.0581 47.9349 75.6259 47.7342 75.209C45.5111 75.6259 43.1025 75.9655 40.509 76.2434L40.0767 73.8814C40.4163 73.866 40.7716 73.8351 41.0958 73.7888V62.8896H41.5281L40.0767 61.7935C40.6633 61.1451 41.1728 60.4041 41.6205 59.5395C42.099 58.6905 42.439 57.9031 42.7014 57.1621L45.0785 57.8259L45.0635 57.8568ZM45.7272 62.905C45.403 62.2103 45.0325 61.5002 44.6312 60.8055H43.8284C43.4424 61.6082 43.01 62.3029 42.5778 62.905H45.7272ZM47.4251 66.0389V65.02H43.4733V66.0389H47.4251ZM47.4251 69.1574V68.0613H43.4733V69.1574H47.4251ZM54.82 62.905C54.4031 62.1949 53.9711 61.5002 53.5389 60.8055H52.767C52.3193 61.6237 51.8559 62.3184 51.3773 62.905H54.82Z" fill="#595757"/>
<path d="M69.3317 58.6134C69.4397 58.1811 69.5322 57.7643 69.6094 57.332L71.9869 57.6717C71.9252 58.0113 71.8632 58.32 71.786 58.5979H79.7368V60.7129H71.1687C71.076 60.9754 70.9835 61.2378 70.8909 61.4694H79.15V63.5072H75.2132C75.4757 63.8468 75.7072 64.171 75.9697 64.4335H80.5705V66.533H78.2394C79.1965 67.2741 80.2924 67.8916 81.512 68.3856L80.2615 70.8248C78.7949 70.0838 77.4519 69.1421 76.2015 67.9225V69.5589H72.1411C72.1256 69.8831 72.0951 70.161 72.0796 70.408H79.3509V72.523H74.2099C74.6267 72.8317 75.0897 73.1096 75.6301 73.3412C76.7107 73.8661 78.1775 74.2674 80.0146 74.5299L78.7331 76.9999C76.8034 76.5522 75.167 75.873 73.8085 74.993C72.8514 74.3909 72.0794 73.6808 71.4774 72.8471C71.431 72.9089 71.4155 72.9552 71.4155 72.9706C70.8135 73.9896 69.8871 74.8078 68.6212 75.4407C67.3398 76.0737 65.827 76.5831 64.0516 76.9999L62.8629 74.885C64.4684 74.5608 65.7807 74.1748 66.8151 73.6962C67.5715 73.3566 68.1739 72.9552 68.6061 72.523H63.4343V70.408H69.6249C69.6712 70.1455 69.7176 69.8676 69.7331 69.5589H66.1359V68.0614C65.1016 68.9722 63.9283 69.775 62.6778 70.4851L61.2422 68.54C62.3228 67.8916 63.2953 67.1969 64.1598 66.5021H61.8286V64.4026H66.3055C66.5679 64.0938 66.8307 63.8005 67.0469 63.4763H63.4343V61.4385H68.2816C68.4051 61.1761 68.5131 60.9445 68.6212 60.6821H62.8474V58.567H69.3162L69.3317 58.6134ZM75.7073 67.4747C75.3831 67.166 75.1052 66.8418 74.8427 66.5485H67.7724C67.4636 66.8881 67.1702 67.1969 66.8614 67.4747H75.7073ZM72.6661 63.5226H69.9336C69.7483 63.8623 69.5478 64.171 69.378 64.4489H73.2526C73.0364 64.1402 72.8359 63.816 72.6661 63.5226Z" fill="#595757"/>
<path d="M95.9628 74.067C95.9628 75.9195 94.9745 76.8612 93.0293 76.8612C92.4736 76.8612 91.8561 76.7995 91.1614 76.6914L90.6364 74.2522C91.5009 74.4684 92.2729 74.5764 93.0139 74.5764C93.4461 74.5764 93.678 74.2059 93.678 73.4803V59.9721H85.8045V76.7068H83.5352V57.7799H95.9473V74.0824L95.9628 74.067ZM89.3089 62.6583L87.9193 63.2604H89.8799C90.2659 62.3033 90.6212 61.3152 90.8991 60.2963L93.1684 60.9602C92.8442 61.8247 92.5198 62.5966 92.1956 63.245H93.4307V65.2828H90.7291V71.0103H91.3159V66.3634H93.1684V72.9554H88.1974V73.7119H86.345V66.2091H88.1974V71.0103H88.8612V65.2828H86.0668V63.245H87.0551C86.7926 62.5503 86.4837 61.8556 86.1441 61.2072L88.0893 60.2809C88.537 60.991 88.9384 61.7784 89.278 62.6429L89.3089 62.6583ZM99.0195 59.6171V72.1218H96.7192V59.6171H99.0195ZM102.385 57.4094V73.7119C102.385 74.9006 102.23 75.6725 101.937 76.1048C101.551 76.5833 100.903 76.8458 99.9455 76.8458C99.0964 76.8458 98.309 76.7223 97.568 76.5062L97.1515 74.067C97.9697 74.3449 98.7723 74.4838 99.5905 74.4838C99.7912 74.4838 99.9147 74.3912 100.007 74.2213C100.069 74.0052 100.115 73.6347 100.115 73.1407V57.4249H102.385V57.4094Z" fill="#595757"/>
<path d="M117.576 74.067C117.576 75.9195 116.588 76.8612 114.643 76.8612C114.087 76.8612 113.469 76.7995 112.775 76.6914L112.25 74.2522C113.114 74.4684 113.886 74.5764 114.627 74.5764C115.059 74.5764 115.291 74.2059 115.291 73.4803V59.9721H107.418V76.7068H105.148V57.7799H117.561V74.0824L117.576 74.067ZM110.922 62.6583L109.533 63.2604H111.493C111.879 62.3033 112.234 61.3152 112.512 60.2963L114.782 60.9602C114.457 61.8247 114.133 62.5966 113.809 63.245H115.044V65.2828H112.342V71.0103H112.929V66.3634H114.782V72.9554H109.811V73.7119H107.958V66.2091H109.811V71.0103H110.474V65.2828H107.68V63.245H108.668C108.406 62.5503 108.097 61.8556 107.757 61.2072L109.703 60.2809C110.15 60.991 110.552 61.7784 110.891 62.6429L110.922 62.6583ZM120.633 59.6171V72.1218H118.332V59.6171H120.633ZM123.998 57.4094V73.7119C123.998 74.9006 123.844 75.6725 123.55 76.1048C123.164 76.5833 122.516 76.8458 121.559 76.8458C120.71 76.8458 119.922 76.7223 119.181 76.5062L118.765 74.067C119.583 74.3449 120.386 74.4838 121.204 74.4838C121.404 74.4838 121.528 74.3912 121.621 74.2213C121.682 74.0052 121.729 73.6347 121.729 73.1407V57.4249H123.998V57.4094Z" fill="#595757"/>
<path d="M131.609 57.7644C131.454 58.7987 131.3 59.8022 131.161 60.7285H134.99C134.882 63.3838 134.557 65.8693 134.017 68.185C133.801 69.065 133.57 69.8523 133.307 70.547C134.172 71.3189 135.021 72.1525 135.839 72.9707L134.156 74.8387C133.508 74.0977 132.875 73.4339 132.257 72.8009C132.134 73.0171 131.979 73.2332 131.841 73.403C130.883 74.7924 129.741 75.9503 128.398 76.9537L127.055 75.1012C128.197 74.2367 129.17 73.2178 129.957 72.029C130.127 71.7975 130.327 71.5041 130.497 71.2108C130.065 70.8712 129.633 70.5161 129.216 70.1765C129.108 70.5624 129 70.9175 128.907 71.2108L126.607 70.7168C127.302 68.3239 127.888 65.7458 128.382 63.0133H126.514V60.7439H128.768C128.938 59.6632 129.092 58.5517 129.216 57.4402L131.593 57.7798L131.609 57.7644ZM131.825 67.9226C132.211 66.2553 132.489 64.6188 132.628 62.9979H130.76C130.435 64.7887 130.111 66.3942 129.787 67.8145C130.343 68.2313 130.914 68.6327 131.455 69.0186C131.578 68.679 131.686 68.3085 131.825 67.9226ZM145.534 58.0268V60.2036C144.499 61.9172 143.28 63.3838 141.906 64.6188V65.9619H146.059V68.3239H141.906V74.0823C141.906 75.1629 141.674 75.8731 141.196 76.1973C140.671 76.5832 139.791 76.7839 138.54 76.7839C137.877 76.7839 137.244 76.7222 136.672 76.6141L136.256 74.0051C136.997 74.283 137.753 74.4219 138.525 74.4219C138.787 74.4219 139.019 74.3756 139.235 74.2984C139.359 74.1749 139.451 73.8816 139.451 73.4957V68.3548H134.882V65.9928H139.451V62.6891L140.439 62.7508C141.196 62.087 141.906 61.2997 142.554 60.4197H135.546V58.0577H145.518L145.534 58.0268Z" fill="#595757"/>
<path d="M159.89 69.1884C159.335 69.7441 158.64 70.0375 157.853 70.0375C157.065 70.0375 156.386 69.7596 155.815 69.1884C155.244 68.6326 154.966 67.9534 154.966 67.1506C154.966 66.3478 155.244 65.684 155.815 65.1128C156.371 64.557 157.05 64.2637 157.853 64.2637C158.655 64.2637 159.319 64.5416 159.89 65.1128C160.446 65.6685 160.74 66.3632 160.74 67.1506C160.74 67.9379 160.462 68.6172 159.89 69.1884ZM158.547 66.4559C158.346 66.2552 158.115 66.1471 157.853 66.1471C157.575 66.1471 157.328 66.2552 157.158 66.4559C156.942 66.6565 156.849 66.8881 156.849 67.1506C156.849 67.4285 156.942 67.6755 157.158 67.8453C157.328 68.0614 157.575 68.154 157.853 68.154C158.115 68.154 158.346 68.0614 158.547 67.8453C158.748 67.6755 158.856 67.4285 158.856 67.1506C158.856 66.8881 158.748 66.6565 158.547 66.4559Z" fill="#595757"/>
<defs>
<linearGradient id="paint0_linear_20_208447" x1="239.992" y1="222.453" x2="239.992" y2="390.71" gradientUnits="userSpaceOnUse">
<stop stop-color="white"/>
<stop offset="1" stop-color="white" stop-opacity="0.6"/>
</linearGradient>
<linearGradient id="paint1_linear_20_208447" x1="111.175" y1="48.2761" x2="-98.111" y2="435.304" gradientUnits="userSpaceOnUse">
<stop stop-color="white"/>
<stop offset="0.1" stop-color="#F1F1F1"/>
<stop offset="0.29" stop-color="#CDCDCD"/>
<stop offset="0.55" stop-color="#939292"/>
<stop offset="0.87" stop-color="#444243"/>
<stop offset="1" stop-color="#221F20"/>
</linearGradient>
<linearGradient id="paint2_linear_20_208447" x1="251.108" y1="64.9004" x2="60.0351" y2="418.252" gradientUnits="userSpaceOnUse">
<stop stop-color="white"/>
<stop offset="0.1" stop-color="#F1F1F1"/>
<stop offset="0.29" stop-color="#CDCDCD"/>
<stop offset="0.55" stop-color="#939292"/>
<stop offset="0.87" stop-color="#444243"/>
<stop offset="1" stop-color="#221F20"/>
</linearGradient>
<linearGradient id="paint3_linear_20_208447" x1="119.408" y1="63.3528" x2="119.408" y2="246.561" gradientUnits="userSpaceOnUse">
<stop stop-color="white"/>
<stop offset="0.27" stop-color="#F4BD7B"/>
<stop offset="1" stop-color="#040000"/>
</linearGradient>
</defs>
</svg>
