<svg width="480" height="454" viewBox="0 0 480 454" fill="none" xmlns="http://www.w3.org/2000/svg">
<path opacity="0.8" d="M436.87 0H43.1304C19.3101 0 0 19.2976 0 43.1024V410.898C0 434.702 19.3101 454 43.1304 454H436.87C460.69 454 480 434.702 480 410.898V43.1024C480 19.2976 460.69 0 436.87 0Z" fill="url(#paint0_linear_86_64584)"/>
<path d="M66.0677 45.1306C66.0677 47.0433 65.2089 48.0223 63.507 48.0223H62.016L61.5343 45.5522C62.2572 45.6727 62.9046 45.7179 63.5221 45.7179C63.7781 45.7179 63.9288 45.3414 63.9288 44.5582V31.7712H57.0159V48.1879H54.892V45.1455L52.9039 45.7782C52.7533 44.3022 52.5425 42.9767 52.2563 41.7568L54.139 41.1844C54.4553 42.2839 54.7113 43.4587 54.892 44.7239V39.9495L52.9039 40.5821C52.8587 40.2658 52.7987 39.9495 52.7535 39.6332C52.5276 39.6934 52.2867 39.7537 52.0758 39.7988V48.2632H50.0122V40.2507C49.2291 40.4163 48.4307 40.5519 47.6325 40.6724L47.2111 38.2927C47.693 38.2475 48.1598 38.2024 48.5815 38.1421C49.0032 37.5246 49.3798 36.9221 49.7563 36.2896C48.8677 35.5666 47.9639 34.8287 47.0302 34.0907L48.3557 32.449C48.4461 32.5092 48.5062 32.5694 48.5815 32.6146C49.2141 31.5152 49.7866 30.4007 50.2535 29.3012L52.3016 30.2049C51.5786 31.6357 50.9309 32.8406 50.2983 33.8347C50.4941 34.0003 50.675 34.1509 50.8859 34.2714C51.3076 33.4732 51.7143 32.6448 52.0607 31.8466L54.2747 32.8406C53.5969 34.0907 52.9492 35.2203 52.3317 36.2595L53.7926 35.8227C54.2595 36.9824 54.6209 38.2475 54.8619 39.6181V29.6325H66.0677V45.1155V45.1306ZM49.8166 41.8322C49.5455 43.7299 49.2743 45.3414 48.9882 46.6216L47 46.0342C47.3163 44.4678 47.5723 42.9166 47.7531 41.3502L49.8015 41.8322H49.8166ZM52.0155 36.8017C51.7896 37.1782 51.5788 37.5246 51.383 37.8108C51.6993 37.7656 52.0003 37.7204 52.2865 37.6602C52.1961 37.359 52.0908 37.0728 52.0155 36.8017ZM60.4495 34.3316L59.2902 35.0094H60.3896C60.8264 34.0455 61.1274 33.0665 61.278 32.1177L63.432 32.5996C63.2814 33.4431 63.0253 34.2413 62.6789 35.0094H63.6125V36.9673H61.5493V38.4735H63.6125V40.4615H60.2238V42.0279C60.2238 42.5399 60.3745 42.781 60.6908 42.8262C60.9016 42.9165 61.263 42.9316 61.76 42.9316C62.2571 42.9316 62.7692 42.8413 63.2812 42.6756V44.739C62.7692 44.9046 62.2721 44.9648 61.76 44.9648C61.248 44.9648 60.6456 44.9498 59.9226 44.9046C58.7027 44.8594 58.0852 44.0612 58.0852 42.4949V40.4465H57.3472V38.4584H59.335V36.9523H57.3472V34.9943H58.2959C58.0399 34.4521 57.7686 33.9401 57.4373 33.428L59.2449 32.2682C59.757 32.9159 60.1483 33.5936 60.4646 34.3165L60.4495 34.3316Z" fill="#595757"/>
<path d="M76.3537 29.7229V34.1358C77.0315 33.3978 77.5738 32.6448 77.9955 31.8315C78.5227 30.8977 78.9445 29.9789 79.2457 29.0451L81.7156 29.6325C81.5951 30.0091 81.4444 30.3706 81.2938 30.7019H86.5049V32.9159C85.8573 34.3467 84.9838 35.5666 83.9295 36.5908C85.0893 37.2686 86.3544 37.7957 87.725 38.1873L86.6557 40.4917C86.5352 40.4465 86.4298 40.4314 86.3395 40.3863V48.1729H84.02V47.4349H79.5016V48.0825H77.1822V40.5068C77.0315 40.567 76.911 40.6122 76.7755 40.6573L76.0978 39.1361V41.1544H74.2152V44.4528C74.9531 44.3323 75.676 44.1816 76.3386 44.031L76.6699 46.0944C74.3053 46.727 71.7149 47.3144 68.8382 47.8265L68.0098 45.4468C68.3261 45.4016 68.6274 45.3564 68.9136 45.3263V38.5338H71.218V44.995C71.4288 44.9498 71.6547 44.9347 71.8655 44.8895V37.0426H68.9136V29.7229H76.3236H76.3537ZM74.0493 34.8287V31.9369H71.2481V34.8287H74.0493ZM75.857 38.6391C77.4534 38.0969 78.8089 37.4493 79.9536 36.7415C79.4415 36.2294 79.0045 35.6872 78.5978 35.0546C78.2966 35.386 77.9805 35.7022 77.6642 36.0034L76.3386 34.5274V37.0577H74.2152V38.9554H76.0073L75.857 38.6391ZM85.6765 40.1905C84.2457 39.7085 82.9507 39.0759 81.7759 38.2777C80.6764 39.0006 79.4414 39.6482 78.0408 40.1905H85.6765ZM84.0049 45.2209V42.4195H79.4866V45.2209H84.0049ZM81.9866 35.2203C82.7848 34.4823 83.4023 33.6991 83.8692 32.8557H80.1944C80.1492 32.946 80.1039 33.0063 80.0889 33.0515C80.6311 33.8949 81.2637 34.6178 81.9866 35.2203Z" fill="#595757"/>
<path d="M92.9823 31.1236V29.3163H95.3018V31.1236H98.4196V33.2773H95.3018V34.7534H98.841V36.9071H97.7868C97.5759 37.6602 97.35 38.3379 97.0639 38.9554H98.4196V41.1092H95.3018V42.4195H98.841V44.5732H95.3018V48.203H92.9823V44.5732H89.5182V42.4195H92.9823V41.1092H89.9399V38.9554H91.2052C91.0094 38.368 90.7983 37.8108 90.5875 37.3138L91.431 36.9071H89.4277V34.7534H92.9673V33.2773H89.9249V31.1236H92.9673H92.9823ZM94.7142 38.9554C94.9703 38.2777 95.1965 37.5849 95.3923 36.9071H92.7716C93.0427 37.4343 93.2837 37.9764 93.4945 38.5487L92.5455 38.9554H94.7142ZM107.727 29.7229V33.925C107.727 35.6269 106.899 36.4854 105.257 36.4854H103.691L103.209 34.1058C103.751 34.2263 104.218 34.2714 104.594 34.2714C105.016 34.2714 105.242 34.0154 105.242 33.5184V31.952H101.462V36.9673H108.134V38.6391C107.607 41.0489 106.974 42.9015 106.236 44.2268C106.869 44.9799 107.592 45.6426 108.39 46.2149L106.748 48.2783C106.025 47.6909 105.393 47.0282 104.806 46.2902C104.068 47.1336 103.239 47.8114 102.365 48.2783L101.477 46.5462V48.2783H99.1576V29.738H107.727V29.7229ZM103.42 44.2419C103.42 44.2419 103.36 44.1365 103.33 44.0763C102.531 42.6003 101.959 40.9585 101.643 39.1211H101.477V45.8986C102.23 45.4769 102.862 44.9347 103.42 44.257V44.2419ZM104.775 41.9677C105.152 41.1242 105.453 40.1754 105.709 39.1211H103.826C104.037 40.1754 104.354 41.1242 104.775 41.9677Z" fill="#595757"/>
<path d="M114.655 40.0248V38.1271H117.126V40.0248H120.665V42.4044H117.126V44.8293C118.451 44.7088 119.716 44.5582 120.906 44.3925L121.328 46.5462C118.376 47.0884 115.108 47.6006 111.523 48.0223L110.619 45.4619C112.035 45.3414 113.39 45.2058 114.671 45.0853V42.4044H111.267V40.0248H114.671H114.655ZM121.328 29.8133V32.1177H116.267L115.047 35.3709C116.147 35.2805 117.156 35.2052 118.135 35.0998C117.879 34.663 117.607 34.2111 117.306 33.7744L119.43 32.4641C120.439 33.9401 121.267 35.5064 121.9 37.1481L119.686 38.4735C119.52 38.0066 119.325 37.5698 119.144 37.118C116.704 37.5397 114.038 37.871 111.131 38.1271L110.71 35.657C111.297 35.642 111.869 35.5968 112.411 35.5516L113.722 32.1177H110.95V29.8133H121.328ZM124.867 31.6357V43.6545H122.397V31.6357H124.867ZM128.979 29.1355V44.9648C128.979 46.1848 128.828 46.9831 128.557 47.45C128.196 47.9319 127.563 48.1879 126.675 48.1879C125.711 48.1879 124.792 48.0976 123.948 47.9319L123.527 45.4619C124.46 45.6727 125.409 45.7782 126.328 45.7782C126.388 45.7782 126.433 45.6878 126.448 45.5071C126.464 45.2812 126.494 44.8895 126.494 44.3925V29.1355H128.964H128.979Z" fill="#595757"/>
<path d="M137.623 29.9639C137.412 30.6869 137.201 31.3797 136.945 32.0273H140.017V29.1355H142.397V32.0273H148.753V34.3316H142.397V37.4795H150.063V39.7838H144.476V44.739C144.476 45.2812 144.686 45.5673 145.153 45.5824C145.349 45.6276 145.62 45.6426 145.997 45.6426C146.75 45.6426 147.217 45.5974 147.352 45.5221C147.518 45.3564 147.608 45.1004 147.654 44.769C147.699 44.6033 147.744 43.9407 147.774 42.8563L150.244 44.2419C150.124 45.9438 149.883 46.9981 149.506 47.45C149.25 47.6608 148.919 47.8114 148.467 47.8867C148.166 47.9771 147.352 48.0374 145.997 48.0374C145.319 48.0374 144.717 47.9922 144.189 47.9319C142.713 47.8867 141.991 47.0885 141.991 45.5673V39.7838H139.084C138.994 41.2598 138.753 42.5099 138.331 43.5641C137.849 44.7088 137.126 45.6878 136.192 46.5312C135.348 47.2843 134.339 47.8114 133.119 48.1126L131.96 45.7932C132.969 45.5371 133.812 45.1004 134.475 44.513C135.123 43.9708 135.635 43.2479 136.011 42.3593C136.282 41.6815 136.478 40.8381 136.583 39.7838H132.05V37.4795H140.048V34.3316H135.951C135.424 35.401 134.851 36.3347 134.264 37.133L132.141 35.4914C132.833 34.6028 133.451 33.5936 133.978 32.449C134.52 31.3043 134.972 30.235 135.258 29.2259L137.638 29.9639H137.623Z" fill="#595757"/>
<path d="M162.595 29.2259V29.8133H169.343V31.6959H162.595V32.1177H171.165V35.657H168.786V34.0907H162.43V34.6781L167.867 34.2563L168.032 36.139L162.625 36.5607C162.836 36.7565 163.243 36.8619 163.785 36.8619C164.192 36.9071 164.749 36.9071 165.472 36.9071C166.722 36.9071 167.46 36.8921 167.686 36.8469C167.942 36.8017 168.092 36.7264 168.153 36.5908C168.243 36.5306 168.303 36.2896 168.349 35.913L170.578 37.133C170.427 37.9162 170.141 38.3982 169.689 38.609C169.388 38.6994 168.966 38.7597 168.424 38.8048C168.093 38.85 167.099 38.8651 165.472 38.8651C164.568 38.8651 163.77 38.85 163.047 38.7747C161.089 38.7295 160.11 38.0819 160.11 36.8168V36.7715L156.571 37.0426V35.16L160.11 34.8588V34.0756H156.059V39.8591C156.059 40.4917 156.044 41.1243 155.999 41.7418C156.315 41.3351 156.586 40.9435 156.797 40.5218C157.264 39.6783 157.55 38.7747 157.7 37.7957L159.764 38.2776C159.674 38.6994 159.598 39.0759 159.508 39.4374H163.047C162.671 41.7719 162.053 43.534 161.195 44.7088C161.134 44.7992 161.089 44.8594 161.044 44.9046C162.143 45.6577 164.207 46.0191 167.249 46.0191C168.891 46.0191 170.352 45.9288 171.632 45.7631L170.954 48.0825H167.234C163.8 48.0825 161.436 47.6608 160.171 46.8174C159.975 46.6668 159.809 46.5463 159.658 46.4107C158.966 47.0282 158.167 47.6156 157.279 48.1578L155.637 46.3505C156.737 45.8686 157.625 45.3565 158.273 44.8444C157.972 44.4227 157.685 43.9859 157.429 43.4738C157.173 43.8051 156.902 44.1064 156.631 44.3624L155.772 43.5641C155.727 43.8955 155.667 44.2419 155.622 44.5732C155.396 45.8233 155.005 47.0584 154.477 48.3235L152.354 47.0734C152.881 45.5071 153.242 44.1666 153.423 43.022C153.634 41.6363 153.739 40.2206 153.739 38.8048V32.0724H160.095V29.1807H162.565L162.595 29.2259ZM159.658 43.4436C159.99 42.8562 160.276 42.1785 160.442 41.4255H158.815C158.755 41.546 158.695 41.6815 158.649 41.7568H158.634C158.951 42.4044 159.282 42.9767 159.673 43.4436H159.658ZM169.117 39.4525V42.7509C169.117 43.2328 169.132 43.5039 169.207 43.5943C169.252 43.6395 169.313 43.6545 169.403 43.6545C169.463 43.6545 169.524 43.6395 169.599 43.5943C169.659 43.5792 169.704 43.5039 169.749 43.3985C169.794 43.2328 169.84 42.6153 169.87 41.5911L171.828 42.5852C171.768 43.9708 171.526 44.8142 171.135 45.1606C170.924 45.3263 170.713 45.4318 170.457 45.4769C170.081 45.5372 169.719 45.5673 169.403 45.5673C168.469 45.5673 167.912 45.4769 167.701 45.2661C167.159 45.1606 166.903 44.513 166.903 43.3232V41.4255H165.863C165.758 42.6454 165.502 43.519 165.125 44.0612C164.749 44.6938 164.117 45.1757 163.183 45.5522L162.128 43.5641C162.64 43.3533 163.032 43.022 163.303 42.5701C163.604 42.1032 163.74 41.049 163.77 39.4525H169.132H169.117Z" fill="#595757"/>
<path d="M180.307 30.1296V32.449H178.153V36.0788H179.885V38.3831H178.153V42.9165C178.891 42.7508 179.584 42.5851 180.217 42.4044L180.473 44.6486C178.53 45.2661 176.406 45.8083 174.117 46.2902L173.695 43.8202C174.418 43.6997 175.111 43.5642 175.759 43.4136V38.368H173.951V36.0637H175.759V32.4339H173.77V30.1145H180.292L180.307 30.1296ZM192.07 29.6476V40.5068H187.612V41.6664H191.979V43.9859H187.612V45.5522H192.732V47.8566H179.946V45.5522H185.217V43.9859H180.684V41.6664H185.217V40.5068H180.759V29.6476H192.04H192.07ZM185.232 33.7593V31.952H183.184V33.7593H185.232ZM185.232 38.2174V36.0938H183.184V38.2174H185.232ZM187.627 33.7593H189.69V31.952H187.627V33.7593ZM187.627 38.2174H189.69V36.0938H187.627V38.2174Z" fill="#595757"/>
<path d="M199.735 29.5573C199.585 30.5664 199.434 31.5453 199.299 32.449H203.034C202.928 35.0395 202.612 37.4644 202.085 39.7236C201.874 40.582 201.648 41.3501 201.392 42.0279C202.235 42.7809 203.064 43.5942 203.862 44.3925L202.22 46.2149C201.588 45.492 200.97 44.8443 200.368 44.2268C200.247 44.4377 200.097 44.6486 199.961 44.8142C199.027 46.1698 197.913 47.2993 196.603 48.2783L195.292 46.4709C196.407 45.6275 197.356 44.6335 198.124 43.4738C198.289 43.2479 198.485 42.9617 198.651 42.6756C198.229 42.3442 197.808 41.9978 197.401 41.6664C197.295 42.0429 197.19 42.3894 197.1 42.6756L194.87 42.1936C195.548 39.8591 196.121 37.3439 196.603 34.6781H194.78V32.4641H196.979C197.145 31.4098 197.295 30.3253 197.416 29.2409L199.735 29.5723V29.5573ZM199.946 39.4826C200.323 37.856 200.594 36.2595 200.729 34.6781H198.922C198.606 36.4252 198.289 37.9915 197.973 39.3772C198.515 39.7838 199.073 40.1754 199.6 40.5519C199.72 40.2206 199.826 39.8591 199.961 39.4826H199.946ZM213.32 29.8133V31.9369C212.311 33.6087 211.122 35.0395 209.781 36.2444V37.5547H213.833V39.8591H209.781V45.4769C209.781 46.5312 209.555 47.224 209.088 47.5403C208.576 47.9168 207.718 48.1126 206.498 48.1126C205.85 48.1126 205.232 48.0524 204.69 47.947L204.284 45.4017C205.007 45.6728 205.745 45.8082 206.498 45.8082C206.754 45.8082 206.98 45.7631 207.191 45.6878C207.311 45.5673 207.401 45.2811 207.401 44.9046V39.8892H202.943V37.5849H207.401V34.3618L208.365 34.422C209.103 33.7744 209.796 33.0062 210.429 32.1477H203.591V29.8434H213.32V29.8133Z" fill="#595757"/>
<path d="M224.482 42.3442L223.684 40.9737C224.316 40.7176 224.888 40.2808 225.385 39.603H223.849V36.5908H227.072V38.6994C227.072 40.2356 226.214 41.4556 224.482 42.3442Z" fill="#595757"/>
<path d="M242.825 30.22C242.343 31.0935 241.711 31.9671 240.928 32.8557C239.858 33.9551 238.97 34.7383 238.292 35.1751L236.726 33.1117C237.449 32.5996 238.202 31.952 239 31.1537C239.693 30.4308 240.25 29.7229 240.672 29L242.825 30.22ZM244.211 34.7534C243.624 35.8529 242.841 36.9674 241.832 38.112V48.2783H239.422V40.3712C239.09 40.6423 238.789 40.8531 238.533 41.0188L236.861 38.8651C237.81 38.2174 238.804 37.374 239.858 36.3197C240.792 35.3859 241.5 34.4371 242.057 33.5184L244.211 34.7685V34.7534ZM256.004 35.401V37.8108H251.953V45.2209C251.953 46.4409 251.697 47.2391 251.23 47.6005C250.718 48.0373 249.844 48.2783 248.564 48.2783C247.555 48.2783 246.621 48.188 245.762 48.0223L245.356 45.4619C246.41 45.733 247.479 45.8685 248.564 45.8685C249.151 45.8685 249.467 45.5372 249.467 44.8142V37.8108H244.03V35.401H255.989H256.004ZM255.01 29.9036V32.208H245.115V29.9036H255.01Z" fill="#595757"/>
<path d="M266.292 30.8074V29.2259H268.596V30.8074H276.337V33.0213H270.901C271.518 33.443 272.165 33.8196 272.843 34.166C274.093 34.7985 275.57 35.3257 277.256 35.7474L276.036 38.1271C274.259 37.5397 272.617 36.7113 271.096 35.7022C270.193 35.1149 269.364 34.4521 268.611 33.7442V36.9071H266.307V33.8647C265.584 34.5425 264.876 35.1299 264.108 35.6419C262.21 36.8017 260.569 37.6 259.213 38.0518L257.963 35.8377C259.318 35.4612 260.734 34.8739 262.225 34.1058C262.918 33.7443 263.536 33.3828 264.048 33.0364H258.731V30.8224H266.307L266.292 30.8074ZM273.777 37.2987V39.5278C272.617 40.326 271.247 41.064 269.665 41.7418H276.835V44.0461H268.762V45.6275C268.762 46.6818 268.551 47.3746 268.174 47.6909C267.753 48.0674 267.015 48.2632 265.96 48.2632C265.283 48.2632 264.65 48.218 264.063 48.1729L263.656 45.6275C264.409 45.8384 265.192 45.9438 265.96 45.9438C266.081 45.9438 266.186 45.8986 266.277 45.7932C266.337 45.6576 266.382 45.4166 266.382 45.0401V44.0461H258.128V41.7418H266.382V40.3561L267.647 40.4465C268.34 40.1452 268.973 39.8591 269.56 39.5428H261.412V37.3138H273.777V37.2987Z" fill="#595757"/>
<path d="M287.768 32.2833V34.5877H279.123V32.2833H287.768ZM286.955 48.2783H284.65V47.45H282.181V48.2783H279.861V41.1092H286.955V48.2783ZM286.714 38.0367V40.3561H280.117V38.0367H286.714ZM286.804 35.175V37.4795H280.207V35.175H286.804ZM286.714 29.5573V31.7712H280.283V29.5573H286.714ZM284.65 45.3866V43.2328H282.181V45.3866H284.65ZM297.347 31.2893C295.991 31.711 294.591 32.0423 293.13 32.3435V36.7113L297.663 35.9884L297.919 38.368L293.13 39.1512V44.7239C293.13 45.2058 293.25 45.4619 293.551 45.5071C293.717 45.5975 294.124 45.6275 294.771 45.6275C295.238 45.6275 295.525 45.5673 295.615 45.4017C295.72 45.2812 295.811 44.9949 295.871 44.5732C295.916 44.3172 295.976 43.8955 296.022 43.3081L298.175 44.5582C297.919 46.1999 297.558 47.1788 297.136 47.4951C297.016 47.6608 296.729 47.7964 296.278 47.8566C296.052 47.9018 295.54 47.947 294.787 47.947C293.853 47.947 293.115 47.8566 292.618 47.7361C291.368 47.5855 290.765 46.7421 290.765 45.2209V39.5428L287.723 40.0248L287.301 37.6451L290.765 37.1029V32.7954C290.088 32.9159 289.44 33.0213 288.777 33.1117L287.632 30.9579C290.374 30.6266 293.115 30.0694 295.856 29.3163L297.347 31.3043V31.2893Z" fill="#595757"/>
<path d="M304.351 34.663L302.769 36.6511C301.941 35.7474 301.098 34.9642 300.209 34.3316L301.79 32.69C302.724 33.2623 303.568 33.91 304.336 34.6781L304.351 34.663ZM304.833 37.8711V44.2268C305.721 44.8745 306.73 45.2359 307.89 45.3263C308.733 45.4919 310.872 45.5522 314.261 45.5522C316.204 45.5522 317.876 45.4318 319.261 45.1306C318.794 45.974 318.433 46.8626 318.192 47.8566H312.047C309.833 47.8566 308.056 47.6909 306.73 47.3445C305.781 47.0885 304.848 46.5614 303.929 45.7782C303.206 46.6065 302.513 47.4198 301.805 48.2632C301.278 47.4047 300.751 46.5915 300.224 45.8535C301.007 45.4769 301.79 45.0552 302.543 44.6335V40.1754H300.224V37.856H304.848L304.833 37.8711ZM318.839 33.1117H317.032V34.2714H313.176V34.8437H317.454V41.3653H313.176V42.1936H318.372V44.0763H313.176V45.2359H310.947V44.0763H305.842V42.1936H310.947V41.3653H306.58V34.8437H310.947V34.2714H306.911V33.1117H305.42V31.4248L304.035 33.202C303.236 32.2984 302.408 31.5152 301.564 30.8826L303.131 29.2409C303.974 29.7831 304.727 30.3856 305.435 31.0634V29.5874H318.87V33.1267L318.839 33.1117ZM310.932 32.3737V31.5453H307.559V32.3737H310.932ZM310.932 37.2234V36.6511H308.718V37.2234H310.932ZM310.932 39.5428V38.9554H308.718V39.5428H310.932ZM313.161 32.3737H316.701V31.5453H313.161V32.3737ZM313.161 37.2234H315.285V36.6511H313.161V37.2234ZM313.161 39.5428H315.285V38.9554H313.161V39.5428Z" fill="#595757"/>
<path d="M325.828 36.395L324.021 38.6391C323.192 37.8409 322.349 37.133 321.476 36.5757L323.283 34.7534C324.217 35.2203 325.06 35.7624 325.828 36.395ZM325.919 40.0248C325.286 43.2479 324.563 45.9589 323.765 48.1126L321.551 46.9529C322.44 44.3774 323.133 41.8321 323.615 39.3018L325.919 40.0399V40.0248ZM326.566 31.455L324.759 33.6689C323.915 32.8104 323.057 32.0725 322.123 31.455L323.931 29.6325C324.895 30.1446 325.768 30.7471 326.566 31.455ZM330.03 38.8651C330.03 42.0279 329.759 44.1666 329.232 45.2359C328.705 46.4408 327.877 47.48 326.747 48.3536L325.106 46.4559C325.949 45.8233 326.596 45.0251 327.048 44.0461C327.455 43.2027 327.666 41.4706 327.666 38.85H330.045L330.03 38.8651ZM334.564 29.2259V31.2139H339.926V33.4431H337.094C338.194 34.7082 339.112 36.0185 339.835 37.3891L337.712 38.6391C337.486 38.2174 337.245 37.7957 336.989 37.374C334.157 37.7957 330.919 38.0066 327.244 38.0518L326.822 35.7474C327.56 35.7474 328.283 35.7474 328.991 35.7323L330.136 33.4581H326.988V31.229H332.003V29.2409H334.549L334.564 29.2259ZM333.751 38.9554V47.2843H331.371V38.9554H333.751ZM334.82 34.4973L336.492 33.4431H332.771L331.672 35.6419C333.058 35.5968 334.353 35.5215 335.573 35.3859C335.317 35.0847 335.061 34.7985 334.82 34.4973ZM337.456 38.7747V44.9497C337.456 45.4166 337.471 45.6426 337.546 45.6727C337.561 45.7631 337.651 45.7782 337.802 45.7782C338.013 45.7782 338.133 45.6877 338.179 45.5221C338.224 45.4016 338.269 45.1004 338.284 44.6335C338.299 44.3323 338.329 43.8805 338.374 43.2178L340.498 44.4679C340.287 46.1999 340.016 47.209 339.67 47.5403C339.579 47.706 339.353 47.8415 338.977 47.9018C338.781 47.962 338.389 48.0072 337.802 48.0072C337.169 48.0072 336.657 47.9168 336.326 47.7963C335.483 47.6758 335.076 46.8475 335.076 45.3715V38.7747H337.456Z" fill="#595757"/>
<path d="M350.544 31.0332C349.701 31.4399 348.812 31.7863 347.908 32.1026V34.904H350.469V37.2084H347.908V37.3589C349.008 38.353 349.972 39.3169 350.8 40.2657L349.309 42.314C348.842 41.5911 348.375 40.9435 347.923 40.3561V48.1879H345.544V41.2448C344.971 42.3894 344.324 43.4436 343.556 44.3925L342.17 42.6605C342.802 41.9376 343.48 40.9134 344.188 39.588C344.61 38.8349 344.986 38.0518 345.303 37.2234H342.652V34.919H345.544V32.8707C344.911 33.0665 344.278 33.2322 343.646 33.3527L342.486 31.199C344.7 30.7773 346.945 30.0844 349.174 29.1355L350.559 31.0332H350.544ZM361.102 39.0307C359.837 39.2265 358.511 39.3922 357.156 39.5579V41.5008H360.771V43.7449H357.156V45.733H361.268V47.947H350.122V45.733H354.746V43.7449H350.89V41.5008H354.746V39.8139C353.586 39.9344 352.412 40.0248 351.207 40.1152L350.378 37.8711C353.857 37.6602 357.066 37.3288 360.018 36.9071L361.087 39.0307H361.102ZM360.756 29.5573V36.2294H350.966V29.5573H360.756ZM358.376 34.0154V31.7863H353.361V34.0154H358.376Z" fill="#595757"/>
<path d="M51.2328 58.6555C50.7659 59.6646 50.2992 60.508 49.8473 61.1858C49.9678 61.2912 50.1185 61.3815 50.254 61.4569C50.6305 60.8393 50.9919 60.2068 51.3233 59.5591L52.9647 60.3875C52.1815 61.758 51.3835 62.9178 50.5853 63.8666C50.9618 63.8064 51.3383 63.7462 51.6998 63.6558C51.6094 63.445 51.5339 63.2792 51.4737 63.1135L52.7993 62.2852C53.2059 63.0834 53.5371 63.957 53.7932 64.8305L52.3775 65.6589C52.3323 65.4631 52.2719 65.2824 52.2267 65.0867C51.8954 65.177 51.5491 65.2523 51.2328 65.3427V69.5447H49.4256V65.7493C48.793 65.8697 48.1604 66.0053 47.5278 66.0807L47.1965 64.3486C47.5128 64.3034 47.8289 64.2883 48.1301 64.2431C48.5368 63.8214 48.8832 63.3847 49.2296 62.9328C48.5819 62.4509 47.844 61.999 47.0307 61.6225L47.7838 60.0562C47.9796 60.1465 48.1605 60.2218 48.3261 60.3122C48.8382 59.5591 49.2597 58.7158 49.591 57.8271L51.2328 58.6555ZM49.1693 66.5777C49.0638 67.5868 48.8682 68.4905 48.5971 69.3038L47.0156 68.7314C47.2867 68.0085 47.4827 67.2253 47.6032 66.3517L49.1693 66.5777ZM54.1848 69.4694C54.0342 69.7255 53.8835 69.9815 53.763 70.2074H64.7276V72.1955H62.6041C62.1975 72.6624 61.7453 73.0841 61.1881 73.4456C60.7814 73.7167 60.3599 73.9727 59.9081 74.1836C60.0135 74.2288 60.1189 74.2438 60.2243 74.2438C61.9112 74.545 63.9143 74.7107 66.2337 74.7559L65.7215 76.744C63.1762 76.6536 61.0227 76.4427 59.2455 76.1114C58.2966 75.9156 57.4231 75.7047 56.655 75.4637C56.5646 75.4788 56.5042 75.509 56.459 75.524C54.1396 76.2018 51.4136 76.6988 48.2507 77L47.6782 75.0119C50.088 74.8613 52.0911 74.6354 53.6876 74.3191C52.8291 73.8823 52.061 73.4154 51.4134 72.9335C50.7808 73.5058 50.0882 74.0028 49.32 74.4245L47.7536 72.6925C48.8079 72.1503 49.6512 71.5478 50.2838 70.9454C51.0218 70.3128 51.6094 69.6652 52.0311 69.0025L54.1546 69.4845L54.1848 69.4694ZM53.5372 68.385L51.805 68.8067C51.7447 67.9031 51.6394 67.0596 51.4737 66.2463L53.0552 65.8246C53.2811 66.6681 53.4619 67.5266 53.5372 68.37V68.385ZM63.5076 58.7459C63.0708 59.7098 62.604 60.5381 62.122 61.1858C62.2727 61.2761 62.3932 61.3515 62.5287 61.4117C62.9053 60.7942 63.2667 60.1917 63.598 59.5591L65.3299 60.4629C64.5317 61.8334 63.6884 62.9931 62.8449 63.942C63.2516 63.8968 63.6281 63.8366 63.9595 63.7462C63.8691 63.5504 63.7638 63.3696 63.6885 63.1739L65.074 62.2701C65.5409 63.1136 65.9325 63.972 66.2337 64.9058L64.7427 65.8096C64.6824 65.6439 64.622 65.4481 64.5768 65.2674C64.2455 65.3577 63.9294 65.433 63.6131 65.4932V69.7707H61.7154V65.8698C61.0376 66.0204 60.345 66.1409 59.6522 66.2312L59.3356 64.424C59.6067 64.4089 59.8779 64.3637 60.164 64.3185C60.6008 63.8968 61.0226 63.4299 61.4142 62.9479C60.7816 62.5864 60.0886 62.2551 59.3507 61.9539L59.5617 61.5321H53.2361V59.9658H59.6672V61.3214L60.1791 60.2821C60.2695 60.3273 60.3446 60.3724 60.435 60.3875C60.9772 59.6043 61.4444 58.7459 61.8209 57.8121L63.5528 58.7157L63.5076 58.7459ZM59.0646 61.8936V63.3697H53.8685V61.8936H59.0646ZM58.9741 65.5836V69.2134H53.8685V65.5836H58.9741ZM59.0646 58.0982V59.5742H53.959V58.0982H59.0646ZM58.9741 63.7913V65.2674H53.959V63.7913H58.9741ZM59.0193 72.6022C59.2754 72.4817 59.5012 72.331 59.697 72.1804H53.9741C54.5615 72.5118 55.1789 72.813 55.8266 73.0389C56.2031 73.2046 56.5797 73.3402 56.9863 73.4607C57.7394 73.2046 58.4169 72.9335 59.0043 72.6022H59.0193ZM57.0764 67.8127V66.9843H55.7663V67.8127H57.0764ZM61.3539 66.7433C61.2485 67.8428 61.0529 68.8368 60.7818 69.7254L59.14 69.138C59.4111 68.385 59.6067 67.4964 59.7121 66.5023L61.3539 66.7584V66.7433ZM65.9778 68.6411L64.1705 69.123C64.1103 68.1892 64.0045 67.3308 63.8389 66.4873L65.4807 66.0807C65.7367 66.9241 65.9025 67.7826 65.9929 68.626L65.9778 68.6411Z" fill="#595757"/>
<path d="M74.5321 64.0173C74.1104 64.9661 73.5681 65.915 72.8903 66.8639V76.8042H70.5109V69.6351C70.1946 69.9514 69.9234 70.2074 69.6824 70.3731L68.1914 68.385C68.9896 67.7072 69.8179 66.8487 70.6764 65.7493C71.4294 64.7853 72.0318 63.8365 72.4836 62.8726L74.5321 64.0173ZM74.3663 58.8362C73.8994 59.7399 73.297 60.6737 72.5138 61.6225C71.4595 62.7822 70.601 63.5805 69.9233 64.0324L68.4473 62.0744C69.1703 61.5322 69.9082 60.8243 70.6764 59.9658C71.3541 59.2128 71.8964 58.4446 72.3182 57.6916L74.3663 58.8513V58.8362ZM86.8068 66.5777V68.7314H84.9091V69.5598H87.2286V71.7135H84.9091V73.9276C84.9091 75.0873 84.7135 75.8554 84.3671 76.1867C83.9605 76.6085 83.2674 76.8193 82.2734 76.8193C81.4752 76.8193 80.7372 76.7289 80.0594 76.5633L79.6377 74.1836C80.5263 74.4547 81.3848 74.5903 82.2734 74.5903C82.4391 74.5903 82.5297 74.2739 82.5297 73.5962V71.7135H78.0716C78.5837 72.3612 79.0203 73.0389 79.3968 73.7618L76.9873 75.1776C76.5806 74.2438 76.0383 73.3853 75.3455 72.5419L76.6556 71.7135H73.779V69.5598H82.5146V68.7314H74.4417V66.5777H86.8068ZM86.1593 58.2639V65.9301H75.0443V58.2639H86.1593ZM83.8549 61.0653V60.3875H77.3337V61.0653H83.8549ZM83.8549 63.7913V63.0383H77.3337V63.7913H83.8549Z" fill="#595757"/>
<path d="M93.404 59.8302V57.8421H95.7084V59.8302H97.7716V62.0593H95.7084V63.942H98.0128V66.171H95.889V68.385H98.2688V70.7044H95.889V73.4907C96.4312 73.7016 97.0339 73.8522 97.6665 73.9125C99.2328 74.0782 101.296 74.1685 103.917 74.1685C105.604 74.1685 107.125 74.0782 108.435 73.9125L107.682 76.5482H103.932C100.92 76.5482 98.6151 76.4277 97.0487 76.2168C95.7836 76.0511 94.6691 75.6896 93.7203 75.1625C93.2082 74.8613 92.7716 74.53 92.3649 74.1534C92.154 75.1625 91.8829 76.0662 91.5365 76.8946L89.3828 75.5692C89.7895 74.6806 90.1056 73.6564 90.3164 72.4515C90.5273 71.1864 90.6779 69.4543 90.7231 67.2554H92.937C92.937 68.6862 92.877 69.9815 92.7867 71.1111C93.0427 71.4726 93.3135 71.7888 93.6147 72.0599V66.171H89.9851V63.942H93.4493V62.0593H90.6477V59.8302H93.4493H93.404ZM107.652 58.3392C107.652 62.4358 107.396 64.6951 106.929 65.0867C106.552 65.5987 105.875 65.8246 104.941 65.8246C104.429 65.8246 103.872 65.7794 103.209 65.6589L102.697 63.2793C103.45 63.445 104.128 63.5353 104.685 63.5353C104.851 63.5353 104.986 63.445 105.046 63.2642C105.137 63.0534 105.212 62.1497 105.257 60.5683H102.727C102.576 62.0292 102.26 63.1437 101.793 63.942C101.221 64.9511 100.483 65.674 99.5793 66.0957L98.1632 64.1076C98.9163 63.7763 99.4888 63.2642 99.8352 62.6166C100.106 62.1497 100.302 61.4569 100.407 60.5683H98.8409V58.3543H107.637L107.652 58.3392ZM107.245 66.4873V73.1745H98.9917V66.4873H107.245ZM104.941 70.9454V68.7314H101.311V70.9454H104.941Z" fill="#595757"/>
<path d="M113.164 58.0982V67.9934C113.164 69.8912 113.014 71.6382 112.743 73.2046C112.487 74.6354 112.155 75.7951 111.779 76.7289L109.972 75.3132C110.348 74.3041 110.65 73.1444 110.86 71.8491C111.026 70.599 111.131 69.3188 111.131 67.9934V58.0982H113.18H113.164ZM115.635 59.4236V74.0028H113.677V59.4236H115.635ZM118.346 58.0982V75.7348H116.222V58.0982H118.346ZM129.4 58.0982V60.252H125.455L125.198 61.3966H128.889V73.2798H127.202C127.533 73.5509 127.879 73.792 128.256 73.9727C128.738 74.2739 129.22 74.4999 129.717 74.6655L128.497 76.9096C127.91 76.6084 127.352 76.2771 126.825 75.9006C126.177 75.4337 125.575 74.9366 125.033 74.3643L126.343 73.2949H122.081L123.391 74.3643C122.382 75.3734 121.162 76.2168 119.761 76.9247L118.511 74.771C119.475 74.3945 120.394 73.9124 121.207 73.2949H119.249V61.4117H122.819L123.075 60.2671H118.933V58.1133H129.4V58.0982ZM126.599 64.695V63.5353H121.584V64.695H126.599ZM126.599 67.9031V66.7433H121.584V67.9031H126.599ZM126.599 71.1111V69.9665H121.584V71.1111H126.599Z" fill="#595757"/>
<path d="M140.139 70.9604L139.341 69.5899C139.973 69.3339 140.546 68.8971 141.043 68.2193H139.506V65.2071H142.73V67.3157C142.73 68.8519 141.871 70.0718 140.139 70.9604Z" fill="#595757"/>
<path d="M164.493 57.7518V59.7399H169.689V62.0593H164.493V63.8516H171.24V66.171H164.071V69.2134C164.071 69.8912 164.011 70.4635 163.905 70.8852C165.291 69.9966 166.571 68.867 167.701 67.4813L170.08 68.2193C168.559 70.2827 166.676 71.9696 164.447 73.31C161.962 74.786 158.98 75.9758 155.501 76.8946L154.341 74.7408C156.917 74.0932 159.146 73.325 161.028 72.4364C160.351 72.4364 159.718 72.2859 159.131 72.0148L158.709 69.5447C159.387 69.8761 160.08 70.0267 160.773 70.0267C161.134 70.0267 161.39 69.9363 161.511 69.7556C161.616 69.5297 161.676 69.1381 161.676 68.6411V66.171H153.423V63.8516H156.887V59.4236H159.206V63.8516H162.098V57.7518H164.478H164.493ZM159.537 67.9031C158.393 69.5448 157.052 70.84 155.501 71.7587L153.769 69.8007C155.396 68.8368 156.661 67.7525 157.565 66.5777L159.522 67.9031H159.537Z" fill="#595757"/>
<path d="M180.864 60.8996V63.2793H173.695V60.8996H180.864ZM180.307 74.9968C180.684 73.4606 180.955 72.1051 181.105 70.9303C181.271 69.3037 181.376 67.6621 181.376 66.0204V58.1886H192.492V74.0179C192.492 75.9307 191.633 76.9096 189.946 76.9096C189.464 76.9096 188.907 76.8494 188.305 76.744L187.792 74.3643C188.41 74.5752 188.967 74.6806 189.525 74.6806C190.007 74.6806 190.263 74.1986 190.263 73.2046V60.4176H183.59V67.1199C183.59 69.0176 183.44 70.84 183.184 72.5871C182.973 74.0179 182.657 75.4336 182.19 76.9096L180.292 75.765V76.2319H176.331V76.9096H174.027V69.7405H180.292V75.0119L180.307 74.9968ZM179.961 66.7433V69.0627H174.207V66.7433H179.961ZM180.051 63.8516V66.171H174.298V63.8516H180.051ZM179.961 58.1735V60.3875H174.523V58.1735H179.961ZM177.988 74.0028V71.9395H176.346V74.0028H177.988ZM185.895 62.2099V60.7339H188.049V62.2099H189.615V64.198H188.049V65.4481H189.946V67.406H184.012V65.4481H185.895V64.198H184.253V62.2099H185.895ZM189.69 73.9125H186.151V74.8161H184.087V68.144H189.705V73.8974L189.69 73.9125ZM187.627 71.9395V70.1321H186.151V71.9395H187.627Z" fill="#595757"/>
<path d="M204.345 58.2639C204.119 58.8814 203.878 59.4236 203.653 59.9056H212.343V76.8042H209.873V75.5541H198.411V76.8042H195.941V59.9056H200.957C201.273 59.1525 201.544 58.3392 201.785 57.5259L204.33 58.2639H204.345ZM209.873 64.2733V62.2099H198.411V64.2733H209.873ZM209.873 68.7314V66.5777H198.411V68.7314H209.873ZM209.873 73.2648V71.0206H198.411V73.2648H209.873Z" fill="#595757"/>
<path d="M221.394 58.4295C221.273 58.8513 221.168 59.2278 221.062 59.5742H225.852V61.3063C225.837 61.3966 225.807 61.4267 225.807 61.4719H228.126C228.186 60.4327 228.232 59.2428 228.232 57.8421H230.641C230.641 59.2127 230.596 60.4176 230.551 61.4719H234.497V63.7913H231.018C231.274 64.8305 231.636 65.7342 232.117 66.5325C232.84 67.7524 233.789 68.7916 235.009 69.6351L233.337 71.6984C232.117 70.7345 231.108 69.4845 230.25 67.9633C230.024 67.5566 229.813 67.135 229.617 66.6831C229.195 67.7826 228.653 68.7013 227.99 69.4694C227.042 70.5237 225.897 71.3671 224.587 72.0148L223.442 69.9665C224.542 69.3791 225.445 68.6109 226.168 67.7373C226.846 66.8939 227.328 65.8849 227.659 64.695C227.719 64.439 227.78 64.1227 227.855 63.7913H225.054C224.421 65.5685 223.683 66.9994 222.855 68.0537C221.469 69.9062 219.812 71.2466 217.915 72.0148L216.755 69.8007C217.869 69.3639 218.863 68.7465 219.707 67.9633C219.195 67.4964 218.698 67.1048 218.171 66.7433L219.481 65.0113C220.098 65.3878 220.656 65.8096 221.213 66.2765C221.378 66.0656 221.529 65.8548 221.65 65.6439C221.032 65.1017 220.4 64.6046 219.737 64.1829L221.047 62.4509C221.62 62.7823 222.162 63.1739 222.689 63.5504C222.915 63.0082 223.126 62.4057 223.307 61.8032H220.234C220.114 62.1346 219.963 62.4509 219.827 62.7521C219.21 64.1076 218.472 65.3276 217.598 66.427L215.791 64.6197C216.574 63.5654 217.207 62.496 217.704 61.4267C218.246 60.2519 218.713 59.0169 219.089 57.7518L221.394 58.4295ZM220.4 73.4305C219.602 74.9065 218.773 76.0511 217.93 76.8946L215.866 75.0872C216.86 74.1534 217.658 73.1745 218.276 72.1202L220.4 73.4456V73.4305ZM224.692 76.2168L222.222 76.8946C222.056 75.3734 221.785 73.9878 221.394 72.6775L223.698 72.1051C224.18 73.4757 224.526 74.8462 224.692 76.2168ZM229.798 76.2168L227.328 76.8946C227.162 75.3583 226.861 73.9426 226.424 72.6172L228.743 72.0298C229.255 73.4155 229.602 74.8312 229.798 76.2319V76.2168ZM234.919 75.4788L232.509 76.8946C232.027 75.524 231.364 74.2287 230.551 73.0088L232.675 71.6984C233.578 72.8732 234.316 74.1384 234.904 75.4788H234.919ZM234.587 59.8302L232.69 61.3063C232.178 60.6285 231.62 59.9808 230.958 59.3483L232.855 58.023C233.428 58.535 234 59.1374 234.587 59.8453V59.8302Z" fill="#595757"/>
<path d="M244.784 58.0079V65.177H242.976V67.4813H244.784V69.6351H242.976V72.5268C243.564 72.4063 244.121 72.2557 244.648 72.1051L245.22 74.0932C243.006 74.8915 240.476 75.5842 237.645 76.2168L236.65 73.8372C236.982 73.792 237.298 73.7317 237.645 73.6715V66.6681H239.768V73.2498C240.069 73.2046 240.386 73.1444 240.672 73.054V65.192H237.69V58.0229H244.784V58.0079ZM242.479 63.0232V60.1465H240.009V63.0232H242.479ZM254.754 67.9934H251.32C251.486 68.9574 251.742 69.8008 252.073 70.5237C252.299 70.358 252.54 70.1924 252.796 69.9815C253.384 69.5146 253.911 69.0175 254.362 68.4904L256.004 69.9062C255.492 70.5237 254.905 71.1111 254.227 71.6984C253.866 71.9695 253.534 72.2106 253.218 72.3913C253.895 73.2197 254.89 74.033 256.155 74.8312L254.589 76.7289C252.691 75.4186 251.38 74.0932 250.657 72.6925C249.965 71.4726 249.452 69.9062 249.166 67.9934H247.751V73.9276C248.715 73.7167 249.633 73.5058 250.477 73.2798L250.884 75.3282C249.151 75.9156 247.239 76.4428 245.13 76.9096L244.302 74.5903C244.708 74.53 245.085 74.4697 245.461 74.3794V58.1133H254.769V68.0084L254.754 67.9934ZM252.465 61.969V60.2369H247.766V61.969H252.465ZM252.465 65.8397V64.1076H247.766V65.8397H252.465Z" fill="#595757"/>
<path d="M265.04 62.3756V61.4719H267.36V62.3756H272.209V63.5955C273.098 63.0834 273.956 62.5413 274.77 61.969L276.261 63.701C275.432 64.2883 274.589 64.8456 273.746 65.3427H276.999V67.4663H269.694C269.318 67.6319 268.956 67.7976 268.58 67.9482C268.158 68.1139 267.736 68.2796 267.33 68.4603H274.755V76.8795H272.45V76.2017H263.459V76.8795H261.154V70.5689C260.431 70.7797 259.724 70.9906 259.001 71.1864L258.007 69.0627C259.95 68.5958 261.787 68.0687 263.489 67.4813H258.007V65.3577H265.01V64.5293H259.739V62.3756H265.01H265.04ZM262.088 58.9115V57.8421H264.468V58.9115H270.402V57.8421H272.812V58.9115H276.848V61.0652H272.812V61.8936H270.402V61.0652H264.468V61.8936H262.088V61.0652H258.127V58.9115H262.088ZM272.465 71.3671V70.5388H263.474V71.3671H272.465ZM272.465 74.1685V73.2649H263.474V74.1685H272.465ZM270.553 64.5293H267.36V65.3577H268.851C269.423 65.1017 269.995 64.8305 270.537 64.5293H270.553Z" fill="#595757"/>
<path d="M282.181 59.4236V57.8421H284.394V59.4236H287.377V61.5472H284.394V62.4509H287.196V70.8399H284.394V71.7437H287.542V73.8974H284.394V76.7891H282.181V73.8974H279.123V71.7437H282.181V70.8399H279.379V62.4509H282.181V61.5472H279.289V59.4236H282.181ZM282.271 65.674V64.5293H281.443V65.674H282.271ZM282.271 68.8067V67.4813H281.443V68.8067H282.271ZM284.229 65.674H285.132V64.5293H284.229V65.674ZM284.229 68.8067H285.132V67.4813H284.229V68.8067ZM291.082 61.6376C290.705 62.8124 290.283 63.8818 289.831 64.8005C290.464 65.8548 291.006 66.909 291.473 67.9935L289.35 69.138C288.838 67.662 288.205 66.2915 287.452 65.0263C288.039 63.7612 288.566 62.3907 289.018 60.9147L291.082 61.6527V61.6376ZM297.663 69.3791V71.5328H293.943V74.3342H298.085V76.4729H287.768V74.3342H291.654V71.5328H288.28V69.3791H297.663ZM297.844 58.3392V60.4629H287.858V58.3392H297.844ZM294.38 61.6376C293.958 62.8124 293.537 63.8817 293.1 64.7854C293.778 65.8246 294.365 66.894 294.877 67.9935L292.753 69.138C292.211 67.662 291.503 66.2915 290.69 65.0263C291.323 63.7612 291.865 62.3907 292.332 60.9147L294.395 61.6527L294.38 61.6376ZM297.663 61.6376C297.256 62.8124 296.835 63.8817 296.383 64.7854C297.061 65.8246 297.663 66.894 298.175 67.9935L296.022 69.138C295.479 67.662 294.771 66.2915 293.958 65.0263C294.591 63.7612 295.163 62.3907 295.63 60.9147L297.678 61.6527L297.663 61.6376Z" fill="#595757"/>
<path d="M303.749 68.7314V67.7373C302.906 67.8277 302.047 67.888 301.204 67.9031L300.797 66.0054C301.129 66.0054 301.49 66.0054 301.836 65.9903C301.987 65.6891 302.108 65.4029 302.243 65.1016H300.391V63.5353H301.641V58.0079H310.466V59.5742H303.87V59.996H309.97V61.3063H303.87V61.7279H309.97V63.1136H303.87V63.5353H310.783V65.1016H309.684C310.105 65.6438 310.482 66.2011 310.783 66.7433L308.975 67.8127C308.855 67.5115 308.704 67.2403 308.569 66.9843C307.514 67.2403 306.4 67.4211 305.24 67.5566H305.933V68.7164H308.659V70.7797H305.933V71.0057C307.033 71.7286 307.997 72.3913 308.825 73.0691L307.499 74.8764C306.972 74.3041 306.445 73.7769 305.933 73.31V76.7741H303.779V73.6112C303.087 74.4396 302.258 75.1776 301.31 75.8704L299.999 74.2287C300.722 73.7468 301.49 73.069 302.303 72.1804C302.74 71.7135 303.132 71.2466 303.463 70.7647H300.481V68.7013H303.764L303.749 68.7314ZM307.379 65.2674L307.65 65.1016H304.698C304.593 65.3727 304.487 65.6288 304.367 65.8547C305.466 65.7643 306.536 65.6589 307.575 65.4932C307.484 65.4029 307.424 65.3427 307.379 65.2674ZM312.169 68.8067C311.626 70.4785 310.904 71.9094 310.015 73.0841L308.207 72.0148C309.051 70.8701 309.729 69.5899 310.195 68.1591L312.184 68.8067H312.169ZM314.473 71.0207C314.202 71.8039 313.84 72.6172 313.404 73.4607C313.238 73.792 313.042 74.1083 312.876 74.3643C313.629 74.3041 314.367 74.2137 315.136 74.1384C314.925 73.8371 314.699 73.551 314.488 73.2498L316.295 72.0901C317.259 73.2648 318.073 74.4999 318.675 75.7951L316.717 76.9548C316.551 76.5481 316.355 76.2018 316.19 75.8855C314.036 76.2922 311.822 76.5632 309.548 76.7138L308.87 74.6505C309.382 74.6505 309.879 74.6053 310.391 74.5601C310.693 74.0782 310.934 73.566 311.19 73.0238C311.611 72.1352 311.973 71.2014 312.259 70.2827L314.473 71.0207ZM318.193 59.2579C317.304 59.7248 316.341 60.1013 315.332 60.4026C314.428 60.7038 313.283 60.9749 311.928 61.2309L310.678 59.3483C311.988 59.1374 313.148 58.8814 314.157 58.5952C315.166 58.3241 316.039 58.0229 316.777 57.6916L318.193 59.273V59.2579ZM318.841 61.8936C317.877 62.4057 316.823 62.8425 315.678 63.1739C314.669 63.5052 313.419 63.8215 311.928 64.1076L310.678 62.2099C312.108 61.9539 313.404 61.6828 314.533 61.3665C315.648 61.0502 316.627 60.6887 317.44 60.3122L318.826 61.8936H318.841ZM319.353 64.7553C318.299 65.3276 317.184 65.8096 315.979 66.2162C314.925 66.5928 313.614 66.9391 312.018 67.2554L310.768 65.3577C312.289 65.0565 313.66 64.7402 314.865 64.3938C316.039 64.0323 317.079 63.6407 317.937 63.219L319.353 64.7854V64.7553ZM317.199 67.3308C317.32 68.4001 317.605 69.2435 317.982 69.8911C318.359 70.614 318.871 71.2014 319.503 71.6984L317.771 73.2649C317.139 72.7227 316.596 72.0449 316.145 71.2768C315.813 70.7496 315.557 70.1171 315.346 69.3791H312.349V67.3308H317.199Z" fill="#595757"/>
<path d="M332.77 69.3188C332.228 69.861 331.55 70.1472 330.782 70.1472C330.014 70.1472 329.352 69.8761 328.794 69.3188C328.237 68.7616 327.966 68.1139 327.966 67.3307C327.966 66.5476 328.237 65.8999 328.794 65.3427C329.336 64.8005 329.999 64.5143 330.782 64.5143C331.565 64.5143 332.213 64.7854 332.77 65.3427C333.328 65.8999 333.599 66.5626 333.599 67.3307C333.599 68.0989 333.328 68.7616 332.77 69.3188ZM331.46 66.653C331.264 66.4572 331.038 66.3517 330.782 66.3517C330.511 66.3517 330.27 66.4572 330.104 66.653C329.894 66.8488 329.803 67.0747 329.803 67.3307C329.803 67.6018 329.894 67.8428 330.104 68.0084C330.27 68.2193 330.511 68.3097 330.782 68.3097C331.038 68.3097 331.264 68.2193 331.46 68.0084C331.656 67.8428 331.761 67.6018 331.761 67.3307C331.761 67.0747 331.656 66.8488 331.46 66.653Z" fill="#595757"/>
<mask id="mask0_86_64584" style="mask-type:luminance" maskUnits="userSpaceOnUse" x="18" y="100" width="445" height="339">
<path d="M18 100V399.081C18 421.038 35.962 439 57.9188 439H422.36C444.317 439 462.278 421.038 462.278 399.081V100H18Z" fill="white"/>
</mask>
<g mask="url(#mask0_86_64584)">
<path d="M500.988 34.2224H-18.0488V552.965H500.988V34.2224Z" fill="#C0E4ED"/>
<g opacity="0.3">
<path d="M92.3394 275.082C91.8594 269.09 94.306 263.903 97.8364 263.5C101.351 263.113 104.603 267.65 105.099 273.658C105.579 279.65 103.132 284.837 99.6015 285.24C96.0865 285.627 92.8349 281.09 92.3394 275.082Z" fill="white"/>
<mask id="mask1_86_64584" style="mask-type:luminance" maskUnits="userSpaceOnUse" x="92" y="254" width="48" height="34">
<path d="M99.5856 285.225L111.942 287.423C114.342 287.857 116.774 287.934 119.189 287.671L139.288 285.426L136.779 254.504L116.68 256.749C114.265 257.012 111.896 257.631 109.604 258.592L97.8205 263.5C94.3056 263.887 91.8435 269.074 92.3235 275.082C92.8035 281.075 96.0551 285.627 99.5856 285.24V285.225Z" fill="white"/>
</mask>
<g mask="url(#mask1_86_64584)">
<path d="M99.5856 285.225L111.942 287.423C114.342 287.857 116.774 287.934 119.189 287.671L139.288 285.426L136.779 254.504L116.68 256.749C114.265 257.012 111.896 257.631 109.604 258.592L97.8205 263.5C94.3056 263.887 91.8435 269.074 92.3235 275.082C92.8035 281.075 96.0551 285.627 99.5856 285.24V285.225Z" fill="#93CAE0"/>
<g style="mix-blend-mode:multiply">
<path d="M99.5856 285.225L111.942 287.423C114.342 287.857 116.774 287.934 119.189 287.671L139.288 285.426L136.779 254.504L116.68 256.749C114.265 257.012 111.896 257.631 109.604 258.592L97.8205 263.5C94.3056 263.887 91.8435 269.074 92.3235 275.082C92.8035 281.075 96.0551 285.627 99.5856 285.24V285.225Z" fill="#87B9CF"/>
</g>
</g>
<path d="M128.974 270.979C128.277 262.447 131.777 255.061 136.794 254.504C141.811 253.946 146.425 260.419 147.122 268.951C147.819 277.482 144.319 284.869 139.302 285.426C134.286 285.983 129.671 279.511 128.974 270.979Z" fill="#93CAE0"/>
<path d="M131.762 270.669C131.22 263.887 133.806 258.05 137.569 257.632C141.332 257.213 144.816 262.37 145.373 269.152C145.915 275.934 143.329 281.772 139.566 282.19C135.804 282.608 132.32 277.452 131.762 270.669Z" fill="#36383A"/>
<path d="M172.998 124.93C172.579 119.681 174.716 115.16 177.797 114.803C180.879 114.463 183.713 118.427 184.146 123.676C184.564 128.925 182.427 133.447 179.346 133.803C176.265 134.143 173.431 130.179 172.998 124.93Z" fill="white"/>
<mask id="mask2_86_64584" style="mask-type:luminance" maskUnits="userSpaceOnUse" x="172" y="106" width="43" height="31">
<path d="M179.331 133.803L190.139 135.738C192.245 136.11 194.366 136.187 196.472 135.955L214.047 133.988L211.848 106.953L194.273 108.919C192.168 109.151 190.093 109.693 188.095 110.53L177.798 114.819C174.716 115.159 172.564 119.696 172.998 124.946C173.416 130.195 176.265 134.159 179.346 133.818L179.331 133.803Z" fill="white"/>
</mask>
<g mask="url(#mask2_86_64584)">
<path d="M179.331 133.803L190.139 135.738C192.245 136.11 194.366 136.187 196.472 135.955L214.047 133.988L211.848 106.953L194.273 108.919C192.168 109.151 190.093 109.693 188.095 110.53L177.798 114.819C174.716 115.159 172.564 119.696 172.998 124.946C173.416 130.195 176.265 134.159 179.346 133.818L179.331 133.803Z" fill="#93CAE0"/>
<g style="mix-blend-mode:multiply">
<path d="M179.331 133.803L190.139 135.738C192.245 136.11 194.366 136.187 196.472 135.955L214.047 133.988L211.848 106.953L194.273 108.919C192.168 109.151 190.093 109.693 188.095 110.53L177.798 114.819C174.716 115.159 172.564 119.696 172.998 124.946C173.416 130.195 176.265 134.159 179.346 133.818L179.331 133.803Z" fill="#87B9CF"/>
</g>
</g>
<path d="M205.02 121.353C204.416 113.89 207.482 107.448 211.849 106.953C216.231 106.457 220.272 112.124 220.876 119.588C221.48 127.051 218.414 133.493 214.048 133.988C209.666 134.484 205.624 128.817 205.02 121.353Z" fill="#93CAE0"/>
<path d="M207.466 121.074C206.986 115.144 209.262 110.049 212.545 109.678C215.828 109.306 218.878 113.812 219.358 119.743C219.838 125.673 217.562 130.768 214.279 131.139C210.997 131.511 207.946 127.005 207.466 121.074Z" fill="#36383A"/>
<path d="M166.851 148.993C166.433 143.744 168.57 139.222 171.651 138.866C174.732 138.525 177.566 142.489 178 147.739C178.418 152.988 176.281 157.509 173.199 157.865C170.118 158.206 167.285 154.242 166.851 148.993Z" fill="white"/>
<mask id="mask3_86_64584" style="mask-type:luminance" maskUnits="userSpaceOnUse" x="166" y="131" width="42" height="30">
<path d="M173.2 157.865L184.008 159.801C186.114 160.173 188.235 160.25 190.341 160.018L207.916 158.051L205.717 131.015L188.143 132.982C186.037 133.214 183.962 133.756 181.964 134.592L171.667 138.881C168.586 139.222 166.434 143.759 166.867 149.008C167.285 154.257 170.134 158.222 173.215 157.881L173.2 157.865Z" fill="white"/>
</mask>
<g mask="url(#mask3_86_64584)">
<path d="M173.2 157.865L184.008 159.801C186.114 160.173 188.235 160.25 190.341 160.018L207.916 158.051L205.717 131.015L188.143 132.982C186.037 133.214 183.962 133.756 181.964 134.592L171.667 138.881C168.586 139.222 166.434 143.759 166.867 149.008C167.285 154.257 170.134 158.222 173.215 157.881L173.2 157.865Z" fill="#93CAE0"/>
<g style="mix-blend-mode:multiply">
<path d="M173.2 157.865L184.008 159.801C186.114 160.173 188.235 160.25 190.341 160.018L207.916 158.051L205.717 131.015L188.143 132.982C186.037 133.214 183.962 133.756 181.964 134.592L171.667 138.881C168.586 139.222 166.434 143.759 166.867 149.008C167.285 154.257 170.134 158.222 173.215 157.881L173.2 157.865Z" fill="#87B9CF"/>
</g>
</g>
<path d="M198.873 145.416C198.269 137.952 201.335 131.511 205.701 131.015C210.068 130.52 214.125 136.187 214.729 143.651C215.333 151.114 212.267 157.556 207.9 158.051C203.518 158.547 199.477 152.879 198.873 145.416Z" fill="#93CAE0"/>
<path d="M201.32 145.137C200.84 139.207 203.116 134.112 206.398 133.741C209.681 133.369 212.732 137.875 213.212 143.805C213.692 149.736 211.415 154.83 208.133 155.202C204.85 155.574 201.8 151.068 201.32 145.137Z" fill="#36383A"/>
<path d="M61.4019 298.355C60.9219 292.363 63.3685 287.175 66.8989 286.773C70.4139 286.386 73.6655 290.923 74.161 296.931C74.6411 302.923 72.1944 308.11 68.664 308.513C65.149 308.9 61.8974 304.363 61.4019 298.355Z" fill="white"/>
<mask id="mask4_86_64584" style="mask-type:luminance" maskUnits="userSpaceOnUse" x="61" y="277" width="48" height="35">
<path d="M68.6481 308.513L81.0046 310.712C83.4047 311.145 85.836 311.223 88.2516 310.959L108.35 308.714L105.842 277.792L85.7429 280.037C83.3273 280.3 80.9581 280.92 78.6664 281.88L66.883 286.788C63.3681 287.175 60.906 292.363 61.386 298.371C61.866 304.363 65.1176 308.915 68.6481 308.528V308.513Z" fill="white"/>
</mask>
<g mask="url(#mask4_86_64584)">
<path d="M68.6481 308.513L81.0046 310.712C83.4047 311.145 85.836 311.223 88.2516 310.959L108.35 308.714L105.842 277.792L85.7429 280.037C83.3273 280.3 80.9581 280.92 78.6664 281.88L66.883 286.788C63.3681 287.175 60.906 292.363 61.386 298.371C61.866 304.363 65.1176 308.915 68.6481 308.528V308.513Z" fill="#93CAE0"/>
<g style="mix-blend-mode:multiply">
<path d="M68.6481 308.513L81.0046 310.712C83.4047 311.145 85.836 311.223 88.2516 310.959L108.35 308.714L105.842 277.792L85.7429 280.037C83.3273 280.3 80.9581 280.92 78.6664 281.88L66.883 286.788C63.3681 287.175 60.906 292.363 61.386 298.371C61.866 304.363 65.1176 308.915 68.6481 308.528V308.513Z" fill="#87B9CF"/>
</g>
</g>
<path d="M98.0376 294.267C97.3408 285.735 100.84 278.349 105.857 277.792C110.874 277.235 115.489 283.707 116.186 292.239C116.882 300.771 113.383 308.157 108.366 308.714C103.349 309.272 98.7344 302.799 98.0376 294.267Z" fill="#93CAE0"/>
<path d="M100.824 293.958C100.282 287.176 102.868 281.338 106.63 280.92C110.393 280.502 113.877 285.658 114.435 292.44C114.992 299.223 112.391 305.06 108.628 305.478C104.865 305.896 101.381 300.74 100.824 293.958Z" fill="#36383A"/>
<path d="M212.189 80.784L196.999 159.538L192.725 154.799L190.434 152.245L210.579 73.367L212.189 80.784Z" fill="#93CAE0"/>
<path d="M210.579 73.367L188.715 158.64L140.125 167.977L192.617 77.1762L210.579 73.367Z" fill="white"/>
<path d="M338.2 156.689C329.839 145.85 304.754 123.057 281.93 122.685C259.09 122.313 30.2308 195.647 7.9178 203.513C-14.3952 211.38 -47.9344 221.104 -38.1483 228.056C-28.3776 235.009 22.8139 248.124 41.3643 251.128C59.9301 254.132 253.206 212.076 285.259 205.588C317.296 199.1 333.029 184.576 338.386 179.002C343.992 173.18 344.378 164.679 338.2 156.689Z" fill="white"/>
<path d="M8.89258 243.897C21.7601 247.21 34.0702 249.951 41.3633 251.128C43.655 251.5 48.5944 251.174 55.5624 250.338C63.3665 221.305 80.4304 194.145 103.177 172.885C83.3569 179.095 64.7911 184.979 49.3221 189.949C29.0531 203.235 12.5779 220.329 8.89258 243.881V243.897Z" fill="#005AAB"/>
<path d="M261.46 155.403C260.593 155.651 260.345 157.261 261.026 158.19C263.086 161.04 267.654 166.552 269.791 166.722C270.968 166.815 284.408 163.269 287.505 162.263C284.609 158.361 281.76 154.443 278.88 150.541C276.217 151.346 263.024 154.954 261.475 155.419L261.46 155.403Z" fill="#36383A"/>
<path d="M314.123 134.825C312.327 136.776 309.168 140.012 306.381 141.576C304.29 142.753 291.159 146.918 284.625 148.962C287.474 152.833 290.308 156.735 293.188 160.591C297.4 159.073 307.883 155.419 310.887 153.994C316.74 151.238 321.215 147.862 324.683 142.876C321.478 140.12 317.917 137.364 314.123 134.809V134.825Z" fill="#36383A"/>
<g style="mix-blend-mode:multiply">
<path d="M341.822 163.363C325.161 179.962 242.288 198.295 173.77 212.696C173.77 212.696 75.4595 249.255 -10.959 238.415C7.6223 243.943 30.307 249.347 41.3784 251.144C59.9442 254.148 253.22 212.092 285.273 205.604C317.31 199.116 333.042 184.592 338.4 179.017C342.457 174.806 343.758 169.185 341.838 163.378L341.822 163.363Z" fill="#93CAE0"/>
</g>
<path d="M173.772 212.68L158.845 223.953H158.83L103.829 265.497L-31.1019 362.089L-55.4434 358.264L74.9197 235.009L173.772 212.68Z" fill="white"/>
<path d="M174.485 226.353L-25.7285 366.115L-31.1016 362.089L158.83 223.953H158.845L173.773 212.68L174.485 226.353Z" fill="#93CAE0"/>
<path d="M245.945 163.951C245.047 161.365 242.275 159.77 239.766 160.389C237.258 161.024 235.942 163.626 236.84 166.211L238.14 169.959C239.039 172.545 241.811 174.14 244.319 173.52C246.828 172.885 248.144 170.284 247.245 167.698L245.945 163.951Z" fill="#36383A"/>
<path d="M229.548 168.039C228.649 165.453 225.878 163.858 223.369 164.477C220.861 165.112 219.544 167.713 220.443 170.299L221.743 174.047C222.641 176.632 225.413 178.227 227.922 177.608C230.43 176.989 231.746 174.372 230.848 171.786L229.548 168.039Z" fill="#36383A"/>
<path d="M213.15 172.127C212.252 169.541 209.48 167.946 206.971 168.565C204.463 169.2 203.147 171.801 204.045 174.387L205.346 178.135C206.244 180.72 209.015 182.315 211.524 181.696C214.032 181.061 215.349 178.46 214.451 175.874L213.15 172.127Z" fill="#36383A"/>
<path d="M168.214 185.675C167.316 183.09 164.544 181.495 162.036 182.114C159.527 182.733 158.211 185.35 159.11 187.936L160.41 191.683C161.308 194.269 164.08 195.864 166.588 195.245C169.097 194.61 170.413 192.009 169.515 189.423L168.214 185.675Z" fill="#36383A"/>
<path d="M184.658 181.386C183.76 178.8 180.988 177.205 178.48 177.825C175.971 178.444 174.655 181.061 175.553 183.647L176.854 187.394C177.752 189.98 180.523 191.575 183.032 190.956C185.54 190.321 186.856 187.719 185.958 185.133L184.658 181.386Z" fill="#36383A"/>
<path d="M151.815 189.763C150.917 187.177 148.145 185.582 145.637 186.202C143.128 186.821 141.812 189.438 142.71 192.024L144.011 195.771C144.909 198.357 147.681 199.952 150.189 199.333C152.698 198.698 154.014 196.096 153.116 193.51L151.815 189.763Z" fill="#36383A"/>
<path d="M135.418 193.851C134.52 191.265 131.748 189.67 129.239 190.29C126.731 190.925 125.415 193.526 126.313 196.112L127.613 199.859C128.512 202.445 131.283 204.04 133.792 203.421C136.3 202.786 137.616 200.184 136.718 197.599L135.418 193.851Z" fill="#36383A"/>
<path d="M119.035 197.939C118.136 195.353 115.365 193.758 112.856 194.378C110.348 195.012 109.032 197.614 109.93 200.2L111.23 203.947C112.128 206.533 114.9 208.128 117.409 207.508C119.917 206.874 121.233 204.272 120.335 201.686L119.035 197.939Z" fill="#36383A"/>
<path d="M84.0417 206.564C83.1436 203.978 80.3719 202.383 77.8634 203.003C75.3549 203.637 74.0386 206.239 74.9367 208.825L76.2375 212.572C77.1356 215.158 79.9073 216.753 82.4157 216.133C84.9242 215.514 86.2402 212.897 85.3421 210.311L84.0417 206.564Z" fill="#36383A"/>
<path d="M67.6432 210.652C66.7451 208.066 63.9735 206.471 61.465 207.09C58.9565 207.725 57.6401 210.326 58.5382 212.912L59.839 216.66C60.7371 219.245 63.5088 220.84 66.0173 220.221C68.5258 219.586 69.8422 216.985 68.9441 214.399L67.6432 210.652Z" fill="#36383A"/>
<path d="M51.2445 214.74C50.3464 212.154 47.5747 210.559 45.0662 211.178C42.5577 211.813 41.2417 214.415 42.1398 217L43.4403 220.748C44.3384 223.334 47.1101 224.928 49.6185 224.309C52.127 223.674 53.4434 221.073 52.5453 218.487L51.2445 214.74Z" fill="#36383A"/>
</g>
<path d="M335.414 248.201C337.225 246.389 339.378 241.202 335.445 239.886C331.512 238.57 321.509 240.134 321.509 240.134L326.34 257.151L335.414 248.201Z" fill="#F7C3AF"/>
<path d="M319.218 197.273C318.877 197.691 318.537 198.094 318.196 198.527C313.535 204.458 308.472 212.262 302.247 220.144C299.94 218.657 297.664 217.155 295.372 215.638C289.534 211.751 283.759 207.818 277.952 203.9C284.285 196.731 289.039 187.224 292.182 182.996C298.825 174.031 304.4 168.549 309.695 166.583C313.891 165.004 317.917 165.607 322.175 168.41C331.807 174.759 324.188 191.172 319.187 197.273H319.218Z" fill="#F7C3AF"/>
<path d="M318.196 198.543C313.535 204.473 308.472 212.278 302.247 220.159C299.94 218.673 297.664 217.171 295.372 215.653C289.534 211.767 283.759 207.834 277.952 203.916C284.285 196.747 289.039 187.239 292.182 183.012C298.825 174.047 304.4 168.565 309.695 166.599C316.694 176.772 317.995 188.633 318.165 198.558L318.196 198.543Z" fill="#F4A895"/>
<path d="M243.716 613.246C255.205 551.092 273.275 464.611 277.657 440.471C278.432 436.213 279.376 433.457 280.491 432.481C280.491 432.481 281.033 432.032 281.978 431.242C282.117 431.134 282.256 431.01 282.411 430.886L282.969 430.422C283.387 430.065 283.836 429.694 284.347 429.276C290.695 423.965 296.177 418.948 301.813 406.901C307.728 394.265 309.819 376.66 316.616 364.334C316.849 363.901 317.096 363.498 317.36 363.095C318.505 361.392 319.992 359.689 321.602 357.97C315.331 347.441 308.131 337.469 300.11 328.116C285.663 311.3 263.04 295.986 243.391 284.93C240.898 289.916 239.272 295.614 237.832 300.956C237.661 301.576 237.491 302.211 237.321 302.83C230.724 326.506 219.065 351.002 204.68 372.866C204.68 372.866 204.68 372.871 204.68 372.882C196.535 385.269 191.982 396.077 182.49 406.127C182.49 406.127 182.227 411.5 181.608 420.248C181.174 426.241 173.587 452.487 161.989 482.403C144.646 527.106 119.965 583.098 107.67 613.23H243.731L243.716 613.246Z" fill="#F7C3AF"/>
<path d="M280.259 391.06C281.916 392.051 283.464 393.244 284.92 394.684C291.082 400.815 288.945 407.226 287.908 414.782C287.428 418.235 287.908 421.781 289.069 425.157C293.513 420.961 297.632 415.897 301.828 406.932C304.445 401.326 306.319 394.761 308.177 388.103C298.856 388.645 289.549 389.775 280.274 391.06H280.259Z" fill="#F4A895"/>
<path d="M166.355 469.117C187.012 476.487 214.59 460.6 233.093 472.647C240.356 450.613 246.673 407.892 248.454 406.25C264.666 391.168 262.25 364.071 254.415 344.514C246.58 324.957 245.93 314.35 242.26 307.986C241.749 307.104 241.408 306.051 241.176 304.889C229.733 298.634 217.996 293.555 205.655 289.451C204.308 293.787 173.602 306.174 173.602 306.174C170.676 353.108 168.028 358.496 174.144 386.957C178.789 408.557 179.935 438.04 166.355 469.117Z" fill="#F7C3AF"/>
<path d="M214.388 389.775C214.652 390.286 224.469 402.782 238.931 401.512C247.525 400.769 290.943 398.771 306.691 395.659C309.462 385.021 311.677 373.857 316.616 364.35L304.647 337.949L210.053 371.968C210.161 372.556 211.601 376.443 214.419 389.759L214.388 389.775Z" fill="#F4A895"/>
<path d="M281.977 431.258C281.048 432.032 280.49 432.496 280.49 432.496C279.376 433.456 277.037 443.568 276.263 447.81C272.284 449.297 273.755 443.939 246.425 446.37C231.591 447.687 221.758 442.437 221.371 442.267C221.743 442.298 229.764 443.119 240.587 442.128C242.414 441.957 244.396 441.741 246.502 441.462C257.109 440.037 270.642 437.002 281.977 431.242V431.258Z" fill="#F4A895"/>
<path d="M177.535 351.761C176.049 344.235 172.828 329.432 173.416 320.219C174.346 305.509 170.49 286.633 169.808 279.572C169.375 275.082 171.496 264.026 172.704 256.578C174.795 243.772 175.522 237.594 181.097 237.161C189.288 236.51 191.533 249.982 195.42 259.83C197.959 266.271 198.64 272.898 199.569 275.964C202.233 284.651 207.869 310.402 207.869 310.402C208.427 315.171 224.546 341.045 217.779 373.377C212.793 397.223 209.774 401.946 209.774 401.946C209.774 401.946 180.524 366.951 177.535 351.745V351.761Z" fill="#F7C3AF"/>
<path d="M194.816 292.13C198.145 304.162 204.803 315.109 211.833 325.298C212.902 326.846 213.986 328.395 215.07 329.943C211.895 319.724 208.133 312.678 207.869 310.417C207.869 310.417 202.233 284.667 199.57 275.98C198.625 272.914 197.944 266.271 195.42 259.845C193.655 255.37 192.276 245.987 189.489 243.122C189.489 260.852 190.898 277.993 194.831 292.146L194.816 292.13Z" fill="#F4A895"/>
<path d="M173.091 260.573C177.225 262.849 179.362 258.591 180.879 256.377C182.381 254.162 183.744 251.391 184.224 247.21C184.983 240.567 183.388 235.318 180.802 234.745C178.216 234.172 176.188 235.844 174.887 239.545C173.525 243.401 170.784 259.319 173.091 260.588V260.573Z" fill="#FBDACD"/>
<path d="M231.019 398.834L332.055 384.526C338.992 383.551 345.154 376.753 344.736 367.369L303.269 151.393C302.046 144.657 295.419 139.563 288.42 140.043L185.959 142.056C178.496 142.551 173.928 153.514 175.182 160.529L215.287 387.948C216.541 395.009 223.602 399.887 231.003 398.849L231.019 398.834Z" fill="#36383A"/>
<path d="M233.682 392.593L334.609 378.332C341.53 377.357 346.129 371.07 344.891 364.288L305.762 145.632C304.538 138.897 297.911 133.833 290.927 134.298L189.087 141.142C181.623 141.638 176.56 147.723 177.814 154.722L217.965 381.723C219.219 388.769 226.28 393.646 233.682 392.593Z" fill="#36383A"/>
<path d="M283.635 140.368L265.875 141.591C264.079 141.715 262.561 142.706 261.849 144.208L260.068 147.971C259.356 149.488 257.823 150.479 256.027 150.603L228.79 152.554C226.947 152.678 225.089 151.919 223.819 150.541L220.676 147.088C219.406 145.694 217.532 144.936 215.69 145.06L197.17 146.329L190.899 146.763C186.115 147.088 182.878 150.99 183.683 155.481L186.811 172.978L223.107 378.363C223.912 382.884 228.433 386.012 233.172 385.347L332.024 371.596C336.468 370.977 339.441 366.951 338.651 362.584L303.192 164.043L300.142 147.165C299.352 142.845 295.094 139.578 290.603 139.888L283.651 140.368H283.635Z" fill="white"/>
<g style="mix-blend-mode:multiply" opacity="0.5">
<path d="M338.635 362.585L334.857 341.448C329.36 336.029 308.58 322.836 300.729 321.876C295.774 321.272 294.597 326.769 297.958 334.171C301.07 340.999 307.898 345.892 315.966 352.38C320.998 356.422 326.325 365.263 333.587 371.209C337.133 369.971 339.332 366.394 338.635 362.585Z" fill="#93CAE0"/>
</g>
<g style="mix-blend-mode:multiply">
<g style="mix-blend-mode:multiply" opacity="0.5">
<path d="M227.333 359.844C224.871 350.863 222.161 341.665 218.429 333.118C217.082 330.036 215.394 327.156 213.552 324.369L223.09 378.363C223.864 382.73 228.107 385.78 232.66 385.393C231.452 376.799 229.624 368.267 227.317 359.859L227.333 359.844Z" fill="#93CAE0"/>
</g>
</g>
<path d="M298.128 161.008L304.275 197.675L197.928 206.595L191.673 169.06L298.128 161.008Z" fill="#005AAB"/>
<path d="M214.606 189.19C217.981 188.911 221.202 190.646 222.875 193.325C224.531 191.343 225.306 188.695 224.795 185.892C223.804 180.364 218.245 176.245 212.361 176.71C206.461 177.174 202.482 182.052 203.473 187.611C203.984 190.444 205.687 192.891 208.009 194.548C208.706 191.668 211.23 189.469 214.606 189.19Z" fill="white"/>
<path d="M214.605 189.19C211.23 189.469 208.69 191.668 208.009 194.548C210.037 196.003 212.515 196.839 215.116 196.824L216.804 196.685C219.328 196.282 221.434 195.059 222.874 193.324C221.202 190.646 217.965 188.927 214.605 189.19Z" fill="#005AAB"/>
<path d="M217.409 183.91C217.75 185.83 216.496 188.199 214.452 188.37C212.408 188.54 210.348 186.434 209.992 184.499C209.651 182.563 211.03 180.875 213.074 180.72C215.117 180.566 217.053 181.99 217.409 183.91Z" fill="#005AAB"/>
<path d="M279.454 182.486L233.388 186.202L232.118 179.11L278.184 175.471L279.454 182.486Z" fill="white"/>
<path d="M256.305 190.754L234.533 192.535L234.007 189.624L255.778 187.859L256.305 190.754Z" fill="#B4B4B3"/>
<path d="M218.492 226.693C218.724 227.978 217.81 229.124 216.432 229.248C215.07 229.372 213.769 228.427 213.537 227.142C213.304 225.857 214.233 224.711 215.596 224.587C216.959 224.463 218.259 225.408 218.492 226.693Z" fill="#36383A"/>
<path d="M222.503 249.022C222.735 250.307 221.821 251.468 220.459 251.592C219.096 251.732 217.796 250.787 217.563 249.502C217.331 248.217 218.244 247.055 219.623 246.931C220.985 246.792 222.286 247.737 222.518 249.022H222.503Z" fill="#005AAB"/>
<path d="M216.989 232.314L219.358 245.569" stroke="#767683" stroke-width="0.29" stroke-miterlimit="10" stroke-dasharray="0.57 1.15"/>
<path d="M230.955 280.378L224.421 281.09L223.678 276.925L230.197 276.228L230.955 280.378Z" fill="#36383A"/>
<path d="M230.027 275.283L223.492 275.98L223.678 276.925L230.197 276.228L230.027 275.283Z" fill="#36383A"/>
<path d="M234.161 300.306L228.386 300.972L228.339 300.693C228.06 299.16 229.129 297.767 230.724 297.581C232.319 297.395 233.836 298.494 234.115 300.027L234.161 300.306Z" fill="#36383A"/>
<path d="M231.545 295.692C231.653 296.296 231.235 296.838 230.6 296.915C229.965 296.992 229.376 296.559 229.268 295.955C229.16 295.351 229.578 294.809 230.213 294.732C230.848 294.654 231.436 295.088 231.545 295.692Z" fill="#36383A"/>
<path d="M250.901 229.171L225.46 231.509L225.894 233.909L251.319 231.555L250.901 229.171Z" fill="#B4B4B3"/>
<path d="M281.653 217.867L223.927 223.023L224.902 228.412L282.597 223.147L281.653 217.867Z" fill="#36383A"/>
<path d="M254.88 251.282L229.455 253.806L229.889 256.207L255.314 253.667L254.88 251.282Z" fill="#B4B4B3"/>
<path d="M285.6 239.762L227.937 245.321L228.896 250.709L286.56 245.042L285.6 239.762Z" fill="#005AAB"/>
<path d="M270.891 278.798L236.794 282.747L237.228 285.131L271.309 281.167L270.891 278.798Z" fill="#B4B4B3"/>
<path d="M274.576 269.941L235.276 274.385L236.236 279.696L275.536 275.206L274.576 269.941Z" fill="#005AAB"/>
<path d="M274.484 298.695L240.402 302.752L240.836 305.122L274.902 301.049L274.484 298.695Z" fill="#B4B4B3"/>
<path d="M278.168 289.776L238.885 294.375L239.845 299.686L279.113 295.057L278.168 289.776Z" fill="#005AAB"/>
<path d="M307.202 311.795L243.174 321.086C238.42 321.783 235.2 326.273 236.067 330.996L236.098 331.166C236.919 335.657 241.146 338.676 245.667 338.011L309.664 328.534C314.31 327.853 317.515 323.502 316.787 318.856C316.075 314.273 311.801 311.099 307.202 311.78V311.795Z" fill="#005AAB"/>
<path d="M299.661 275.113L285.601 276.816L286.019 279.185L300.094 277.466L299.661 275.113Z" fill="#B4B4B3"/>
<path d="M303.362 266.24L284.084 268.439L285.044 273.75L304.307 271.505L303.362 266.24Z" fill="#005AAB"/>
<path d="M303.269 294.995L289.209 296.807L289.627 299.191L303.687 297.364L303.269 294.995Z" fill="#B4B4B3"/>
<path d="M306.953 286.091L287.69 288.445L288.651 293.756L307.898 291.356L306.953 286.091Z" fill="#005AAB"/>
<path d="M194.816 292.131C194.816 292.131 212.871 332.529 215.225 338.352C220.676 351.854 222.751 356.685 222.596 381.042C222.565 385.625 222.27 403.804 231.251 412.878C236.516 418.205 207.127 402.457 207.127 402.457L194.816 292.131Z" fill="#F7C3AF"/>
<path d="M336.297 296.373C342.197 296.234 348.236 296.327 350.992 301.096C353.702 305.772 349.754 315.388 346.455 317.835C342.414 320.839 332.008 320.064 327.007 315.93C324.374 313.747 322.795 310.867 324.018 306.128C326.202 297.659 333.665 296.451 336.297 296.389V296.373Z" fill="#F7C3AF"/>
<path d="M324.003 306.113C324.699 303.388 325.954 301.421 327.409 299.997C326.232 302.598 324.188 309.829 329.36 313.53C337.83 319.6 346.935 317.432 346.424 317.819C342.383 320.823 331.977 320.049 326.976 315.899C324.343 313.716 322.764 310.836 323.987 306.098L324.003 306.113Z" fill="#F4A895"/>
<path d="M326.232 313.824C326.232 313.824 323.971 308.575 328.4 299.191C328.4 299.191 335.167 297.086 339.859 301.39C344.535 305.695 340.339 314.273 336.297 314.924C331.327 315.729 326.232 313.824 326.232 313.824Z" fill="#FBDACD"/>
<path d="M331.234 272.202C338.728 270.328 342.986 269.554 348.143 273.998C353.206 278.365 349.242 291.976 348.081 293.756C344.751 298.882 333.866 299.547 326.062 296.451C321.943 294.809 318.955 292.099 318.877 286.525C318.753 276.553 327.874 273.054 331.218 272.217L331.234 272.202Z" fill="#F7C3AF"/>
<path d="M318.893 286.525C318.847 283.382 319.729 280.889 321.046 278.922C319.9 283.459 321.092 289.142 324.685 291.418C338.156 299.981 348.344 293.385 348.097 293.757C344.768 298.882 333.882 299.548 326.078 296.451C321.959 294.809 318.971 292.1 318.893 286.525Z" fill="#F4A895"/>
<path d="M325.087 294.624C325.087 294.624 320.813 289.684 323.136 278.365C323.136 278.365 330.46 274.122 337.288 277.328C344.117 280.548 341.81 290.938 337.257 292.828C331.652 295.15 325.087 294.624 325.087 294.624Z" fill="#FBDACD"/>
<path d="M319.512 246.389C325.644 241.372 332.039 238.136 338.31 240.614C344.473 243.045 345.727 258.73 345.309 261.053C344.117 267.727 331.667 273.564 323.461 273.549C319.125 273.549 315.455 271.97 313.411 266.24C309.741 255.99 316.787 248.619 319.528 246.374L319.512 246.389Z" fill="#F7C3AF"/>
<path d="M313.132 255.633C312.311 260.433 317.916 268.331 321.509 268.888C339.037 271.582 345.432 260.356 345.293 261.068C344.101 267.742 331.651 273.58 323.444 273.564C319.109 273.564 315.439 271.985 313.395 266.256C311.955 262.23 312.172 258.637 313.132 255.633Z" fill="#F4A895"/>
<path d="M327.316 250.168C318.242 251.453 315.609 254.875 315.609 254.875C317.514 267.897 324.389 271.102 324.389 271.102C324.389 271.102 329.902 270.994 334.485 265.141C339.518 258.715 336.39 248.882 327.316 250.168Z" fill="#FBDACD"/>
<g style="mix-blend-mode:multiply" opacity="0.5">
<path d="M186.81 172.978L191.224 197.923C198.315 194.099 205.361 190.15 212.344 186.14C237.228 171.879 264.325 159.259 286.066 140.228L283.634 140.399L265.874 141.622C264.078 141.746 262.56 142.737 261.848 144.239L260.067 148.002C259.355 149.519 257.822 150.51 256.026 150.634L228.789 152.585C226.946 152.709 225.088 151.95 223.818 150.572L220.675 147.119C219.405 145.725 217.531 144.967 215.689 145.091L197.169 146.36L190.898 146.794C186.114 147.119 182.877 151.021 183.682 155.512L186.81 173.009V172.978Z" fill="#93CAE0"/>
</g>
<path d="M421.645 368.747C421.645 368.747 411.704 369.661 396.684 367.895C381.665 366.13 368.332 354.13 368.332 354.13C368.332 354.13 363.362 360.881 359.77 366.626C358.794 368.174 357.927 369.661 357.277 370.899C354.226 376.768 351.965 379.555 344.982 382.652C337.998 385.749 328.785 383.69 330.752 376.458C331.696 372.943 336.094 363.622 340.755 354.656C342.706 350.878 344.719 347.162 346.53 343.957C347.212 342.749 347.862 341.603 348.497 340.565C350.339 337.438 351.842 335.208 352.616 334.558C352.941 334.279 353.266 334.016 353.622 333.799C360.002 329.386 368.905 331.616 373.38 333.458C373.86 333.659 374.557 333.985 375.44 334.403C375.533 334.449 375.657 334.496 375.765 334.558C380.286 336.772 388.911 341.34 395.833 345.319C401.252 348.432 405.634 351.188 406.238 352.179C409.165 357.025 421.661 368.747 421.661 368.747H421.645Z" fill="#F7C3AF"/>
<path d="M339.657 356.576C335.229 365.34 331.528 373.532 330.738 376.458C328.787 383.689 338 385.749 344.984 382.652C351.967 379.555 354.228 376.783 357.263 370.899C358.409 368.685 360.251 365.774 362.11 362.987C354.785 360.262 347.322 358.016 339.657 356.576Z" fill="#F4A895"/>
<path d="M338.805 445.193C348.467 456.187 361.474 479.832 387.023 487.59C412.588 495.347 428.366 495.332 438.803 509.717C442.364 514.61 453.9 530.59 467.589 549.543C467.589 549.543 482.763 578.22 499.719 607.811H629.478C602.845 574.999 571.272 537.713 536.897 499.203C514.692 474.335 509.876 462.567 503.868 453.199C496.328 441.508 491.372 411.887 465.002 372.773C457.771 362.058 437.487 348.958 432.098 348.013C429.295 347.518 425.827 347.27 423.009 347.115C420.47 346.976 418.457 346.914 417.992 346.821H417.961C417.961 346.821 404.908 336.385 394.548 334.557C391.188 333.954 385.614 333.737 381.279 333.907C378.786 334 376.726 334.217 375.751 334.557C375.658 334.573 375.596 334.604 375.534 334.635C375.534 334.635 375.565 334.635 375.596 334.666C375.642 334.681 375.689 334.712 375.751 334.743C375.812 334.774 375.89 334.821 375.983 334.883C376.076 334.929 376.184 334.991 376.308 335.068C376.37 335.099 376.447 335.146 376.525 335.192C380.644 337.53 396.159 346.434 393.046 345.691C392.69 345.598 392.334 345.505 391.963 345.397C384.778 343.306 377.856 337.654 370.161 341.169C369.464 341.479 368.86 341.789 368.318 342.067C366.197 343.167 365.19 343.987 364.772 344.576C364.075 345.567 365.051 345.908 365.051 345.908C362.945 345.474 360.22 345.071 357.169 344.731C357.169 344.731 357.169 344.731 357.154 344.731C353.84 344.359 350.17 344.08 346.531 343.956C343.93 343.848 341.344 343.817 338.944 343.895C335.011 344.034 335.182 346.929 337.179 350.212C338.077 351.683 339.331 353.232 340.756 354.641C343.326 357.196 346.408 359.301 348.823 359.72C350.016 359.967 351.301 360.494 352.648 361.253C352.648 361.253 352.663 361.268 352.679 361.268C354.924 362.553 357.355 364.427 359.786 366.61C362.79 369.289 365.825 372.401 368.612 375.359C370.269 377.093 371.818 378.781 373.227 380.267C374.961 382.11 378.135 386.121 380.674 390.673C383.229 395.225 385.15 400.304 384.329 404.237C383.044 410.446 384.112 411.685 382.703 412.181C381.697 417.414 378.367 423.655 370.78 422.308C368.659 421.936 365.996 421.084 363.146 419.938C355.683 417.012 346.779 412.119 342.041 408.604C335.46 403.726 312.048 398.911 304.228 398.957C296.393 399.019 284.857 409.672 300.326 422.927C315.81 436.197 329.173 434.184 338.836 445.163L338.805 445.193Z" fill="#F7C3AF"/>
<path d="M463.3 539.912C461.163 537.14 459.537 534.926 458.732 533.548C454.613 526.564 441.033 502.734 435.475 496.664C425.781 486.088 394.627 477.045 387.813 473.855C380.598 470.48 367.823 465.834 358.3 456.698C350.728 449.452 341.716 441.152 332.426 436.275C327.842 433.859 321.695 433.069 316.817 431.304C314.077 430.313 311.259 429.508 308.44 428.796C320.472 435.903 330.877 436.182 338.79 445.178C348.467 456.187 361.459 479.817 387.024 487.59C412.573 495.348 428.352 495.332 438.804 509.717C442.226 514.424 453.065 529.429 466.087 547.453C465.112 544.944 464.167 542.436 463.3 539.912Z" fill="#F4A895"/>
<path d="M300.201 403.107C313.673 403.602 320.966 415.138 316.367 421.936C311.861 428.594 300.434 422.679 296.439 420.186C292.444 417.693 292.661 412.785 292.893 411.159C293.388 407.783 296.671 402.968 300.186 403.091L300.201 403.107Z" fill="#FBDACD"/>
<path d="M348.467 340.565C350.789 341.696 353.933 343.213 357.154 344.746C359.492 345.846 361.846 346.96 363.936 347.92C370.563 350.971 386.466 358.636 390.198 360.711C390.817 361.051 391.096 361.237 390.972 361.237C390.879 361.237 390.6 361.051 390.198 360.711C387.194 358.311 376.447 347.92 368.302 342.067C367.946 341.804 367.59 341.556 367.25 341.324C360.142 336.447 356.488 334.465 353.623 333.799L348.482 340.565H348.467Z" fill="#F4A895"/>
<path d="M386.775 390.89C386.666 395.133 386.883 399.097 386.883 399.097C386.883 399.097 383.445 394.266 380.643 390.704C379.079 388.707 377.701 387.112 377.236 386.972C375.966 386.57 365.034 379.788 359.352 372.34C359.352 372.34 350.061 366.781 337.163 354.78C334.546 352.349 329.142 351.544 320.377 344.994C317.296 342.703 312.31 342.703 305.141 339.188C301.904 337.608 299.706 334.991 298.297 332.266C296.562 328.968 296.005 325.499 296.114 323.564C296.33 320.018 307.882 321.396 314.571 322.294C321.26 323.192 327.144 324.803 330.876 326.831C334.608 328.875 345.075 332.189 348.575 333.876C351.346 335.208 357.354 339.884 364.756 344.607C366.66 345.815 368.518 347.038 370.206 348.215C378.459 353.929 393.913 360.339 393.913 360.339C393.913 360.339 387.843 380.19 387.131 385.61C386.914 387.236 386.821 389.094 386.775 390.921V390.89Z" fill="#F7C3AF"/>
<path d="M296.114 322.851C298.251 323.393 303.53 323.564 306.302 323.223C309.074 322.882 313.905 322.557 312.837 321.969C310.452 320.684 300.759 319.863 297.182 320.327C295.386 320.56 293.93 322.278 296.114 322.836V322.851Z" fill="#FBDACD"/>
<path d="M405.342 354.749C404.908 354.44 400.108 350.94 395.478 347.797C394.58 347.177 393.357 346.357 391.948 345.412C386.791 341.928 379.235 336.896 376.51 335.208C376.448 335.161 376.37 335.115 376.293 335.084C376.169 335.007 376.076 334.945 375.968 334.898C375.782 334.79 375.658 334.712 375.58 334.681C375.565 334.666 375.534 334.65 375.519 334.65L375.426 334.418C375.519 334.465 375.643 334.511 375.751 334.573C376.726 334.232 378.801 334.016 381.279 333.923C383.927 335.688 388.107 338.553 390.833 340.798C392.102 341.851 393.914 343.508 395.819 345.335C400.108 349.438 404.924 354.347 405.342 354.765V354.749Z" fill="#F4A895"/>
<path d="M433.508 358.466C433.167 358.202 427.562 354.084 423.427 351.08C421.832 349.934 419.943 348.416 417.992 346.806C418.457 346.899 420.47 346.961 423.009 347.1C427.128 351.358 433.09 357.986 433.523 358.466H433.508Z" fill="#F4A895"/>
<path d="M397.011 418.56V427.061C397.011 427.061 393.233 416.067 391.034 412.599C391.034 412.599 386.962 417.631 382.858 421.084C378.786 424.537 372.499 424.228 366.213 421.704C365.237 421.317 364.2 420.728 363.131 419.969C365.98 421.1 368.644 421.951 370.765 422.338C378.352 423.67 381.681 417.445 382.688 412.212C384.097 411.716 383.029 410.477 384.314 404.268C385.135 400.335 383.214 395.256 380.659 390.704C379.095 388.706 377.717 387.111 377.253 386.972C375.983 386.57 365.051 379.787 359.368 372.339C359.368 372.339 350.078 366.78 337.179 354.78C334.563 352.349 329.158 351.544 320.394 344.994C317.313 342.702 312.327 342.702 305.157 339.187C301.921 337.608 299.723 334.991 298.313 332.266C307.093 340.968 314.448 340.999 319.388 341.278C324.746 341.587 332.271 348.493 336.034 349.763C336.359 349.871 336.73 350.026 337.164 350.243C340.741 351.962 347.539 356.901 352.633 361.284C352.633 361.284 352.648 361.299 352.664 361.299C353.965 362.429 355.157 363.529 356.148 364.52C360.716 369.103 363.689 372.525 368.582 375.39C369.403 375.87 370.27 376.334 371.23 376.783C375.952 379.029 382.301 385.315 386.776 390.89C388.557 393.104 390.043 395.194 391.019 396.882C394.472 402.859 396.996 414.488 396.996 418.56H397.011Z" fill="#F4A895"/>
<path d="M383.741 123.722C354.785 123.722 331.326 147.197 331.326 176.137C331.326 189.67 336.451 201.996 344.86 211.287L339.362 222.73C338.495 224.541 340.121 226.539 342.072 226.074L358.594 222.126C366.057 226.214 374.636 228.552 383.756 228.552C412.712 228.552 436.171 205.077 436.171 176.122C436.171 147.166 412.696 123.691 383.756 123.691L383.741 123.722Z" fill="white"/>
<path d="M411.055 155.109C409.692 153.886 407.912 153.267 406.084 153.359C404.242 153.452 402.569 154.273 401.331 155.636L376.277 183.57L365.205 174.635C362.248 172.25 357.912 172.715 355.528 175.672C354.382 177.097 353.84 178.893 354.041 180.72C354.243 182.548 355.141 184.189 356.565 185.335L372.731 198.357C373.954 199.333 375.487 199.875 377.051 199.875C379.002 199.875 380.876 199.038 382.176 197.583L411.597 164.787C414.136 161.969 413.889 157.602 411.07 155.078L411.055 155.109Z" fill="#005AAB"/>
</g>
<defs>
<linearGradient id="paint0_linear_86_64584" x1="239.992" y1="222.453" x2="239.992" y2="390.71" gradientUnits="userSpaceOnUse">
<stop stop-color="white"/>
<stop offset="1" stop-color="white" stop-opacity="0.6"/>
</linearGradient>
</defs>
</svg>
