<svg width="480" height="454" viewBox="0 0 480 454" fill="none" xmlns="http://www.w3.org/2000/svg">
<path opacity="0.8" d="M436.87 0H43.1304C19.3101 0 0 19.2976 0 43.1024V410.898C0 434.702 19.3101 454 43.1304 454H436.87C460.69 454 480 434.702 480 410.898V43.1024C480 19.2976 460.69 0 436.87 0Z" fill="url(#paint0_linear_20_208443)"/>
<mask id="mask0_20_208443" style="mask-type:luminance" maskUnits="userSpaceOnUse" x="18" y="100" width="445" height="339">
<path d="M18 100V399.081C18 421.038 35.962 439 57.9188 439H422.36C444.317 439 462.278 421.038 462.278 399.081V100H18Z" fill="white"/>
</mask>
<g mask="url(#mask0_20_208443)">
<path d="M500.99 34.2227H-18.0474V552.966H500.99V34.2227Z" fill="#C0E4ED"/>
<g opacity="0.3">
<path d="M92.3409 275.082C91.8609 269.09 94.3075 263.903 97.8379 263.5C101.353 263.113 104.604 267.65 105.1 273.658C105.58 279.65 103.133 284.838 99.603 285.24C96.088 285.627 92.8364 281.09 92.3409 275.082Z" fill="white"/>
<mask id="mask1_20_208443" style="mask-type:luminance" maskUnits="userSpaceOnUse" x="92" y="254" width="48" height="34">
<path d="M99.5875 285.225L111.944 287.424C114.344 287.858 116.775 287.935 119.191 287.672L139.29 285.427L136.781 254.504L116.682 256.749C114.267 257.013 111.898 257.632 109.606 258.592L97.8225 263.501C94.3075 263.888 91.8454 269.075 92.3254 275.083C92.8054 281.075 96.0571 285.628 99.5875 285.241V285.225Z" fill="white"/>
</mask>
<g mask="url(#mask1_20_208443)">
<path d="M99.5875 285.225L111.944 287.424C114.344 287.858 116.775 287.935 119.191 287.672L139.29 285.427L136.781 254.504L116.682 256.749C114.267 257.013 111.898 257.632 109.606 258.592L97.8225 263.501C94.3075 263.888 91.8454 269.075 92.3254 275.083C92.8054 281.075 96.0571 285.628 99.5875 285.241V285.225Z" fill="#93CAE0"/>
<g style="mix-blend-mode:multiply">
<path d="M99.5875 285.225L111.944 287.424C114.344 287.858 116.775 287.935 119.191 287.672L139.29 285.427L136.781 254.504L116.682 256.749C114.267 257.013 111.898 257.632 109.606 258.592L97.8225 263.501C94.3075 263.888 91.8454 269.075 92.3254 275.083C92.8054 281.075 96.0571 285.628 99.5875 285.241V285.225Z" fill="#87B9CF"/>
</g>
</g>
<path d="M128.977 270.979C128.28 262.447 131.779 255.061 136.796 254.504C141.813 253.946 146.428 260.419 147.125 268.951C147.821 277.483 144.322 284.869 139.305 285.426C134.288 285.984 129.673 279.511 128.977 270.979Z" fill="#93CAE0"/>
<path d="M131.764 270.67C131.222 263.888 133.808 258.05 137.571 257.632C141.333 257.214 144.818 262.37 145.375 269.152C145.917 275.934 143.331 281.772 139.568 282.19C135.806 282.608 132.322 277.452 131.764 270.67Z" fill="#36383A"/>
<path d="M172.999 124.93C172.581 119.681 174.718 115.16 177.799 114.803C180.88 114.463 183.714 118.427 184.148 123.676C184.566 128.925 182.429 133.447 179.347 133.803C176.266 134.143 173.433 130.179 172.999 124.93Z" fill="white"/>
<mask id="mask2_20_208443" style="mask-type:luminance" maskUnits="userSpaceOnUse" x="172" y="106" width="43" height="31">
<path d="M179.332 133.803L190.14 135.738C192.246 136.11 194.368 136.187 196.474 135.955L214.049 133.988L211.85 106.953L194.275 108.919C192.169 109.151 190.094 109.693 188.097 110.53L177.799 114.819C174.718 115.159 172.566 119.696 172.999 124.946C173.417 130.195 176.266 134.159 179.348 133.818L179.332 133.803Z" fill="white"/>
</mask>
<g mask="url(#mask2_20_208443)">
<path d="M179.332 133.803L190.14 135.738C192.246 136.11 194.368 136.187 196.474 135.955L214.049 133.988L211.85 106.953L194.275 108.919C192.169 109.151 190.094 109.693 188.097 110.53L177.799 114.819C174.718 115.159 172.566 119.696 172.999 124.946C173.417 130.195 176.266 134.159 179.348 133.818L179.332 133.803Z" fill="#93CAE0"/>
<g style="mix-blend-mode:multiply">
<path d="M179.332 133.803L190.14 135.738C192.246 136.11 194.368 136.187 196.474 135.955L214.049 133.988L211.85 106.953L194.275 108.919C192.169 109.151 190.094 109.693 188.097 110.53L177.799 114.819C174.718 115.159 172.566 119.696 172.999 124.946C173.417 130.195 176.266 134.159 179.348 133.818L179.332 133.803Z" fill="#87B9CF"/>
</g>
</g>
<path d="M205.021 121.353C204.417 113.89 207.483 107.448 211.85 106.953C216.232 106.457 220.273 112.124 220.877 119.588C221.481 127.051 218.415 133.493 214.049 133.988C209.667 134.484 205.625 128.817 205.021 121.353Z" fill="#93CAE0"/>
<path d="M207.468 121.074C206.988 115.144 209.264 110.05 212.547 109.678C215.83 109.306 218.88 113.812 219.36 119.743C219.84 125.673 217.564 130.768 214.281 131.139C210.998 131.511 207.948 127.005 207.468 121.074Z" fill="#36383A"/>
<path d="M166.852 148.993C166.434 143.744 168.571 139.222 171.652 138.866C174.733 138.526 177.567 142.49 178.001 147.739C178.419 152.988 176.282 157.51 173.2 157.866C170.119 158.206 167.286 154.242 166.852 148.993Z" fill="white"/>
<mask id="mask3_20_208443" style="mask-type:luminance" maskUnits="userSpaceOnUse" x="166" y="131" width="42" height="30">
<path d="M173.2 157.866L184.009 159.801C186.114 160.173 188.236 160.25 190.342 160.018L207.917 158.051L205.718 131.016L188.143 132.982C186.037 133.214 183.962 133.756 181.965 134.593L171.667 138.882C168.586 139.222 166.434 143.759 166.868 149.008C167.286 154.258 170.135 158.222 173.216 157.881L173.2 157.866Z" fill="white"/>
</mask>
<g mask="url(#mask3_20_208443)">
<path d="M173.2 157.866L184.009 159.801C186.114 160.173 188.236 160.25 190.342 160.018L207.917 158.051L205.718 131.016L188.143 132.982C186.037 133.214 183.962 133.756 181.965 134.593L171.667 138.882C168.586 139.222 166.434 143.759 166.868 149.008C167.286 154.258 170.135 158.222 173.216 157.881L173.2 157.866Z" fill="#93CAE0"/>
<g style="mix-blend-mode:multiply">
<path d="M173.2 157.866L184.009 159.801C186.114 160.173 188.236 160.25 190.342 160.018L207.917 158.051L205.718 131.016L188.143 132.982C186.037 133.214 183.962 133.756 181.965 134.593L171.667 138.882C168.586 139.222 166.434 143.759 166.868 149.008C167.286 154.258 170.135 158.222 173.216 157.881L173.2 157.866Z" fill="#87B9CF"/>
</g>
</g>
<path d="M198.874 145.416C198.27 137.953 201.336 131.511 205.702 131.016C210.069 130.52 214.126 136.187 214.73 143.651C215.334 151.114 212.268 157.556 207.901 158.051C203.519 158.547 199.478 152.879 198.874 145.416Z" fill="#93CAE0"/>
<path d="M201.32 145.137C200.84 139.207 203.116 134.112 206.399 133.741C209.682 133.369 212.732 137.875 213.212 143.806C213.692 149.736 211.416 154.83 208.133 155.202C204.851 155.574 201.8 151.068 201.32 145.137Z" fill="#36383A"/>
<path d="M61.4029 298.355C60.9229 292.363 63.3695 287.175 66.8999 286.773C70.4149 286.386 73.6665 290.923 74.162 296.931C74.642 302.923 72.1954 308.11 68.665 308.513C65.15 308.9 61.8984 304.363 61.4029 298.355Z" fill="white"/>
<mask id="mask4_20_208443" style="mask-type:luminance" maskUnits="userSpaceOnUse" x="61" y="277" width="48" height="35">
<path d="M68.6495 308.513L81.0061 310.712C83.4061 311.145 85.8375 311.223 88.253 310.96L108.352 308.714L105.843 277.792L85.7444 280.037C83.3288 280.3 80.9596 280.92 78.6679 281.88L66.8845 286.788C63.3695 287.176 60.9074 292.363 61.3874 298.371C61.8675 304.363 65.1191 308.916 68.6495 308.528V308.513Z" fill="white"/>
</mask>
<g mask="url(#mask4_20_208443)">
<path d="M68.6495 308.513L81.0061 310.712C83.4061 311.145 85.8375 311.223 88.253 310.96L108.352 308.714L105.843 277.792L85.7444 280.037C83.3288 280.3 80.9596 280.92 78.6679 281.88L66.8845 286.788C63.3695 287.176 60.9074 292.363 61.3874 298.371C61.8675 304.363 65.1191 308.916 68.6495 308.528V308.513Z" fill="#93CAE0"/>
<g style="mix-blend-mode:multiply">
<path d="M68.6495 308.513L81.0061 310.712C83.4061 311.145 85.8375 311.223 88.253 310.96L108.352 308.714L105.843 277.792L85.7444 280.037C83.3288 280.3 80.9596 280.92 78.6679 281.88L66.8845 286.788C63.3695 287.176 60.9074 292.363 61.3874 298.371C61.8675 304.363 65.1191 308.916 68.6495 308.528V308.513Z" fill="#87B9CF"/>
</g>
</g>
<path d="M98.0386 294.267C97.3418 285.735 100.841 278.349 105.858 277.792C110.875 277.235 115.49 283.707 116.187 292.239C116.883 300.771 113.384 308.157 108.367 308.714C103.35 309.272 98.7354 302.799 98.0386 294.267Z" fill="#93CAE0"/>
<path d="M100.826 293.958C100.284 287.176 102.87 281.338 106.632 280.92C110.395 280.502 113.879 285.658 114.437 292.44C114.994 299.223 112.393 305.06 108.63 305.478C104.867 305.896 101.383 300.74 100.826 293.958Z" fill="#36383A"/>
<path d="M212.191 80.7842L197 159.538L192.727 154.8L190.435 152.245L210.58 73.3672L212.191 80.7842Z" fill="#93CAE0"/>
<path d="M210.58 73.3672L188.715 158.64L140.125 167.977L192.617 77.1764L210.58 73.3672Z" fill="white"/>
<path d="M338.202 156.689C329.841 145.85 304.756 123.057 281.932 122.685C259.092 122.313 30.2328 195.648 7.91975 203.514C-14.3933 211.38 -47.9325 221.104 -38.1463 228.056C-28.3757 235.009 22.8159 248.124 41.3662 251.128C59.932 254.132 253.208 212.076 285.261 205.589C317.298 199.101 333.031 184.576 338.388 179.002C343.993 173.18 344.38 164.679 338.202 156.689Z" fill="white"/>
<path d="M8.89551 243.897C21.763 247.211 34.0731 249.951 41.3663 251.128C43.6579 251.5 48.5973 251.175 55.5653 250.338C63.3695 221.305 80.4333 194.146 103.18 172.885C83.3598 179.095 64.794 184.979 49.3251 189.949C29.056 203.235 12.5808 220.33 8.89551 243.881V243.897Z" fill="#005AAB"/>
<path d="M261.461 155.403C260.594 155.651 260.346 157.261 261.028 158.191C263.087 161.04 267.655 166.552 269.792 166.722C270.969 166.815 284.409 163.269 287.506 162.263C284.611 158.361 281.761 154.443 278.881 150.541C276.218 151.346 263.025 154.954 261.477 155.419L261.461 155.403Z" fill="#36383A"/>
<path d="M314.124 134.825C312.328 136.776 309.169 140.012 306.382 141.576C304.292 142.753 291.161 146.918 284.626 148.962C287.476 152.833 290.309 156.735 293.189 160.591C297.401 159.073 307.884 155.419 310.888 153.994C316.741 151.238 321.216 147.862 324.685 142.876C321.48 140.12 317.918 137.364 314.124 134.809V134.825Z" fill="#36383A"/>
<g style="mix-blend-mode:multiply">
<path d="M341.825 163.363C325.164 179.962 242.291 198.296 173.773 212.696C173.773 212.696 75.4624 249.255 -10.9561 238.416C7.62523 243.944 30.3099 249.348 41.3813 251.144C59.9471 254.148 253.223 212.092 285.276 205.604C317.313 199.116 333.045 184.592 338.403 179.018C342.46 174.806 343.761 169.185 341.841 163.378L341.825 163.363Z" fill="#93CAE0"/>
</g>
<path d="M173.774 212.68L158.847 223.953H158.831L103.83 265.497L-31.1005 362.089L-55.4419 358.265L74.9212 235.009L173.774 212.68Z" fill="white"/>
<path d="M174.485 226.353L-25.728 366.115L-31.1011 362.089L158.83 223.953H158.846L173.773 212.68L174.485 226.353Z" fill="#93CAE0"/>
<path d="M245.946 163.951C245.048 161.365 242.276 159.77 239.767 160.389C237.259 161.024 235.943 163.626 236.841 166.211L238.141 169.959C239.04 172.545 241.812 174.139 244.32 173.52C246.829 172.885 248.145 170.284 247.246 167.698L245.946 163.951Z" fill="#36383A"/>
<path d="M229.548 168.039C228.65 165.453 225.878 163.858 223.37 164.477C220.861 165.112 219.545 167.713 220.443 170.299L221.744 174.047C222.642 176.633 225.414 178.227 227.922 177.608C230.431 176.989 231.747 174.372 230.848 171.786L229.548 168.039Z" fill="#36383A"/>
<path d="M213.15 172.127C212.252 169.541 209.48 167.946 206.971 168.565C204.463 169.2 203.147 171.802 204.045 174.387L205.346 178.135C206.244 180.721 209.015 182.316 211.524 181.696C214.032 181.061 215.349 178.46 214.451 175.874L213.15 172.127Z" fill="#36383A"/>
<path d="M168.214 185.676C167.316 183.09 164.544 181.495 162.036 182.114C159.527 182.734 158.211 185.35 159.11 187.936L160.41 191.684C161.308 194.269 164.08 195.864 166.588 195.245C169.097 194.61 170.413 192.009 169.515 189.423L168.214 185.676Z" fill="#36383A"/>
<path d="M184.658 181.386C183.76 178.8 180.989 177.206 178.48 177.825C175.972 178.444 174.655 181.061 175.553 183.647L176.854 187.394C177.752 189.98 180.524 191.575 183.032 190.956C185.541 190.321 186.857 187.719 185.959 185.134L184.658 181.386Z" fill="#36383A"/>
<path d="M151.816 189.763C150.918 187.177 148.146 185.582 145.637 186.202C143.129 186.821 141.813 189.438 142.711 192.024L144.012 195.771C144.91 198.357 147.682 199.952 150.19 199.333C152.699 198.698 154.015 196.096 153.117 193.51L151.816 189.763Z" fill="#36383A"/>
<path d="M135.418 193.851C134.52 191.265 131.748 189.671 129.24 190.29C126.731 190.925 125.415 193.526 126.313 196.112L127.614 199.859C128.512 202.445 131.284 204.04 133.792 203.421C136.301 202.786 137.617 200.185 136.719 197.599L135.418 193.851Z" fill="#36383A"/>
<path d="M119.035 197.939C118.137 195.353 115.366 193.758 112.857 194.378C110.349 195.012 109.033 197.614 109.931 200.2L111.231 203.947C112.129 206.533 114.901 208.128 117.41 207.508C119.918 206.874 121.234 204.272 120.336 201.686L119.035 197.939Z" fill="#36383A"/>
<path d="M84.0417 206.564C83.1436 203.978 80.3719 202.383 77.8634 203.003C75.3549 203.637 74.0386 206.239 74.9367 208.825L76.2375 212.572C77.1356 215.158 79.9073 216.753 82.4157 216.133C84.9242 215.514 86.2402 212.897 85.3421 210.311L84.0417 206.564Z" fill="#36383A"/>
<path d="M67.6432 210.652C66.7451 208.066 63.9735 206.471 61.465 207.09C58.9565 207.725 57.6401 210.326 58.5382 212.912L59.839 216.66C60.7371 219.246 63.5088 220.84 66.0173 220.221C68.5258 219.586 69.8422 216.985 68.9441 214.399L67.6432 210.652Z" fill="#36383A"/>
<path d="M51.245 214.74C50.3469 212.154 47.5752 210.559 45.0667 211.178C42.5582 211.813 41.2422 214.415 42.1403 217.001L43.4408 220.748C44.3389 223.334 47.1105 224.929 49.619 224.309C52.1275 223.674 53.4439 221.073 52.5458 218.487L51.245 214.74Z" fill="#36383A"/>
</g>
<path d="M335.415 248.201C337.227 246.39 339.379 241.202 335.446 239.886C331.513 238.57 321.51 240.134 321.51 240.134L326.342 257.151L335.415 248.201Z" fill="#F7C3AF"/>
<path d="M319.218 197.273C318.878 197.691 318.537 198.094 318.197 198.527C313.536 204.458 308.472 212.262 302.248 220.144C299.94 218.657 297.664 217.155 295.373 215.638C289.535 211.751 283.759 207.818 277.953 203.9C284.286 196.731 289.039 187.224 292.183 182.996C298.826 174.031 304.4 168.55 309.696 166.583C313.892 165.004 317.918 165.607 322.176 168.41C331.807 174.759 324.189 191.172 319.187 197.273H319.218Z" fill="#F7C3AF"/>
<path d="M318.197 198.543C313.536 204.473 308.472 212.278 302.248 220.159C299.94 218.673 297.664 217.171 295.373 215.653C289.535 211.767 283.759 207.834 277.953 203.916C284.286 196.747 289.039 187.239 292.183 183.012C298.826 174.047 304.4 168.565 309.696 166.599C316.695 176.772 317.995 188.633 318.166 198.558L318.197 198.543Z" fill="#F4A895"/>
<path d="M243.716 613.246C255.206 551.092 273.276 464.611 277.658 440.471C278.432 436.213 279.377 433.457 280.492 432.481C280.492 432.481 281.034 432.032 281.978 431.243C282.117 431.134 282.257 431.01 282.412 430.886L282.969 430.422C283.387 430.066 283.836 429.694 284.347 429.276C290.696 423.965 296.177 418.948 301.814 406.901C307.729 394.266 309.819 376.66 316.617 364.334C316.849 363.901 317.097 363.498 317.36 363.096C318.506 361.392 319.992 359.689 321.603 357.97C315.332 347.441 308.131 337.469 300.11 328.116C285.663 311.3 263.041 295.986 243.391 284.93C240.898 289.916 239.272 295.615 237.832 300.957C237.662 301.576 237.492 302.211 237.321 302.83C230.725 326.506 219.065 351.002 204.68 372.866C204.68 372.866 204.68 372.871 204.68 372.882C196.535 385.269 191.983 396.077 182.491 406.127C182.491 406.127 182.228 411.5 181.608 420.249C181.175 426.241 173.587 452.487 161.989 482.403C144.647 527.106 119.965 583.098 107.67 613.231H243.732L243.716 613.246Z" fill="#F7C3AF"/>
<path d="M280.26 391.061C281.916 392.052 283.465 393.244 284.92 394.684C291.083 400.816 288.946 407.226 287.909 414.783C287.429 418.236 287.909 421.782 289.07 425.157C293.514 420.961 297.633 415.898 301.829 406.932C304.446 401.327 306.32 394.761 308.178 388.103C298.856 388.645 289.55 389.775 280.275 391.061H280.26Z" fill="#F4A895"/>
<path d="M166.356 469.117C187.012 476.488 214.59 460.601 233.094 472.648C240.356 450.613 246.674 407.892 248.454 406.25C264.666 391.169 262.251 364.071 254.416 344.514C246.58 324.957 245.93 314.351 242.261 307.986C241.75 307.104 241.409 306.051 241.177 304.89C229.734 298.634 217.996 293.555 205.655 289.452C204.308 293.787 173.603 306.175 173.603 306.175C170.676 353.108 168.028 358.497 174.145 386.957C178.79 408.558 179.936 438.04 166.356 469.117Z" fill="#F7C3AF"/>
<path d="M214.389 389.775C214.652 390.286 224.469 402.782 238.931 401.512C247.525 400.769 290.944 398.772 306.691 395.659C309.463 385.022 311.677 373.857 316.617 364.35L304.648 337.949L210.053 371.968C210.162 372.557 211.602 376.443 214.42 389.76L214.389 389.775Z" fill="#F4A895"/>
<path d="M281.978 431.258C281.049 432.032 280.491 432.497 280.491 432.497C279.377 433.457 277.038 443.568 276.264 447.811C272.285 449.297 273.756 443.94 246.426 446.371C231.592 447.687 221.759 442.438 221.372 442.267C221.744 442.298 229.764 443.119 240.588 442.128C242.415 441.958 244.397 441.741 246.503 441.462C257.11 440.038 270.643 437.003 281.978 431.242V431.258Z" fill="#F4A895"/>
<path d="M177.536 351.761C176.049 344.236 172.829 329.432 173.417 320.219C174.346 305.509 170.49 286.634 169.809 279.573C169.375 275.082 171.497 264.026 172.705 256.578C174.795 243.773 175.523 237.594 181.097 237.161C189.288 236.511 191.534 249.982 195.42 259.83C197.96 266.272 198.641 272.899 199.57 275.965C202.233 284.652 207.87 310.402 207.87 310.402C208.427 315.171 224.546 341.046 217.78 373.377C212.794 397.223 209.774 401.946 209.774 401.946C209.774 401.946 180.524 366.951 177.536 351.745V351.761Z" fill="#F7C3AF"/>
<path d="M194.816 292.131C198.145 304.162 204.804 315.11 211.834 325.298C212.902 326.847 213.986 328.395 215.07 329.944C211.896 319.724 208.133 312.678 207.87 310.418C207.87 310.418 202.233 284.667 199.57 275.98C198.626 272.915 197.944 266.272 195.42 259.846C193.655 255.371 192.277 245.987 189.49 243.123C189.49 260.852 190.899 277.993 194.832 292.146L194.816 292.131Z" fill="#F4A895"/>
<path d="M173.092 260.573C177.226 262.85 179.362 258.591 180.88 256.377C182.382 254.163 183.745 251.391 184.225 247.21C184.984 240.568 183.389 235.318 180.803 234.745C178.217 234.172 176.188 235.845 174.888 239.546C173.525 243.401 170.784 259.319 173.092 260.589V260.573Z" fill="#FBDACD"/>
<path d="M231.019 398.834L332.055 384.526C338.992 383.551 345.155 376.753 344.737 367.37L303.269 151.393C302.046 144.657 295.419 139.563 288.42 140.043L185.96 142.056C178.496 142.552 173.928 153.514 175.183 160.529L215.287 387.948C216.542 395.009 223.602 399.887 231.004 398.849L231.019 398.834Z" fill="#36383A"/>
<path d="M233.683 392.593L334.61 378.332C341.531 377.357 346.13 371.07 344.892 364.288L305.763 145.633C304.539 138.897 297.912 133.834 290.928 134.298L189.087 141.142C181.624 141.638 176.561 147.723 177.815 154.722L217.966 381.723C219.22 388.769 226.281 393.646 233.683 392.593Z" fill="#36383A"/>
<path d="M283.635 140.368L265.875 141.591C264.079 141.715 262.561 142.706 261.849 144.208L260.068 147.971C259.356 149.488 257.823 150.479 256.027 150.603L228.79 152.554C226.947 152.678 225.089 151.919 223.819 150.541L220.676 147.088C219.406 145.695 217.532 144.936 215.69 145.06L197.17 146.33L190.899 146.763C186.115 147.088 182.878 150.99 183.683 155.481L186.811 172.978L223.107 378.363C223.912 382.885 228.433 386.013 233.172 385.347L332.024 371.597C336.468 370.977 339.441 366.951 338.651 362.585L303.192 164.044L300.142 147.166C299.352 142.846 295.094 139.578 290.603 139.888L283.651 140.368H283.635Z" fill="white"/>
<g style="mix-blend-mode:multiply" opacity="0.5">
<path d="M338.636 362.585L334.858 341.449C329.361 336.029 308.581 322.836 300.73 321.876C295.775 321.273 294.598 326.769 297.958 334.171C301.071 341 307.899 345.893 315.967 352.381C320.999 356.422 326.326 365.264 333.588 371.21C337.134 369.971 339.333 366.394 338.636 362.585Z" fill="#93CAE0"/>
</g>
<g style="mix-blend-mode:multiply">
<g style="mix-blend-mode:multiply" opacity="0.5">
<path d="M227.334 359.844C224.872 350.863 222.162 341.665 218.43 333.118C217.083 330.036 215.395 327.156 213.553 324.369L223.091 378.363C223.865 382.73 228.108 385.78 232.661 385.393C231.453 376.799 229.625 368.267 227.318 359.859L227.334 359.844Z" fill="#93CAE0"/>
</g>
</g>
<path d="M298.129 161.009L304.276 197.676L197.929 206.595L191.673 169.06L298.129 161.009Z" fill="#005AAB"/>
<path d="M214.606 189.19C217.981 188.912 221.202 190.646 222.875 193.325C224.531 191.343 225.306 188.695 224.795 185.892C223.804 180.364 218.245 176.245 212.361 176.71C206.461 177.174 202.482 182.052 203.473 187.611C203.984 190.444 205.687 192.891 208.009 194.548C208.706 191.668 211.23 189.469 214.606 189.19Z" fill="white"/>
<path d="M214.606 189.19C211.23 189.469 208.691 191.668 208.009 194.548C210.038 196.003 212.515 196.84 215.117 196.824L216.805 196.685C219.329 196.282 221.434 195.059 222.874 193.325C221.202 190.646 217.966 188.927 214.606 189.19Z" fill="#005AAB"/>
<path d="M217.409 183.91C217.749 185.83 216.495 188.199 214.451 188.37C212.407 188.54 210.348 186.434 209.992 184.499C209.651 182.563 211.029 180.875 213.073 180.721C215.117 180.566 217.053 181.99 217.409 183.91Z" fill="#005AAB"/>
<path d="M279.455 182.486L233.388 186.202L232.119 179.11L278.185 175.471L279.455 182.486Z" fill="white"/>
<path d="M256.305 190.754L234.534 192.535L234.007 189.624L255.778 187.859L256.305 190.754Z" fill="#B4B4B3"/>
<path d="M218.492 226.693C218.725 227.979 217.811 229.125 216.433 229.248C215.071 229.372 213.77 228.428 213.538 227.142C213.305 225.857 214.234 224.711 215.597 224.588C216.96 224.464 218.26 225.408 218.492 226.693Z" fill="#36383A"/>
<path d="M222.503 249.022C222.736 250.307 221.822 251.469 220.459 251.592C219.097 251.732 217.796 250.787 217.564 249.502C217.332 248.217 218.245 247.055 219.623 246.932C220.986 246.792 222.287 247.737 222.519 249.022H222.503Z" fill="#005AAB"/>
<path d="M216.99 232.314L219.359 245.569" stroke="#767683" stroke-width="0.29" stroke-miterlimit="10" stroke-dasharray="0.57 1.15"/>
<path d="M230.957 280.378L224.422 281.09L223.679 276.925L230.198 276.228L230.957 280.378Z" fill="#36383A"/>
<path d="M230.028 275.284L223.494 275.981L223.68 276.925L230.199 276.228L230.028 275.284Z" fill="#36383A"/>
<path d="M234.162 300.306L228.387 300.972L228.34 300.693C228.061 299.16 229.13 297.767 230.725 297.581C232.32 297.395 233.837 298.495 234.116 300.028L234.162 300.306Z" fill="#36383A"/>
<path d="M231.545 295.692C231.653 296.296 231.235 296.838 230.6 296.915C229.966 296.993 229.377 296.559 229.269 295.955C229.16 295.351 229.578 294.81 230.213 294.732C230.848 294.655 231.437 295.088 231.545 295.692Z" fill="#36383A"/>
<path d="M250.902 229.171L225.461 231.509L225.895 233.909L251.32 231.556L250.902 229.171Z" fill="#B4B4B3"/>
<path d="M281.653 217.867L223.927 223.024L224.903 228.412L282.598 223.148L281.653 217.867Z" fill="#36383A"/>
<path d="M254.881 251.283L229.456 253.807L229.89 256.207L255.315 253.667L254.881 251.283Z" fill="#B4B4B3"/>
<path d="M285.601 239.762L227.938 245.321L228.897 250.71L286.561 245.042L285.601 239.762Z" fill="#005AAB"/>
<path d="M270.892 278.799L236.795 282.747L237.229 285.132L271.31 281.168L270.892 278.799Z" fill="#B4B4B3"/>
<path d="M274.577 269.942L235.278 274.386L236.238 279.697L275.537 275.206L274.577 269.942Z" fill="#005AAB"/>
<path d="M274.484 298.696L240.403 302.753L240.836 305.122L274.902 301.049L274.484 298.696Z" fill="#B4B4B3"/>
<path d="M278.169 289.777L238.886 294.376L239.846 299.687L279.114 295.057L278.169 289.777Z" fill="#005AAB"/>
<path d="M307.203 311.796L243.175 321.086C238.421 321.783 235.2 326.274 236.067 330.996L236.098 331.167C236.919 335.657 241.146 338.677 245.668 338.011L309.665 328.534C314.31 327.853 317.515 323.502 316.787 318.857C316.075 314.273 311.802 311.099 307.203 311.78V311.796Z" fill="#005AAB"/>
<path d="M299.662 275.113L285.602 276.816L286.02 279.185L300.095 277.467L299.662 275.113Z" fill="#B4B4B3"/>
<path d="M303.362 266.24L284.084 268.439L285.044 273.75L304.307 271.505L303.362 266.24Z" fill="#005AAB"/>
<path d="M303.27 294.995L289.21 296.807L289.628 299.191L303.688 297.364L303.27 294.995Z" fill="#B4B4B3"/>
<path d="M306.955 286.092L287.692 288.445L288.652 293.757L307.899 291.356L306.955 286.092Z" fill="#005AAB"/>
<path d="M194.817 292.131C194.817 292.131 212.872 332.53 215.226 338.352C220.676 351.854 222.751 356.685 222.596 381.042C222.565 385.626 222.271 403.804 231.252 412.878C236.516 418.205 207.127 402.457 207.127 402.457L194.817 292.131Z" fill="#F7C3AF"/>
<path d="M336.298 296.373C342.198 296.234 348.237 296.327 350.993 301.096C353.703 305.772 349.754 315.388 346.456 317.835C342.415 320.839 332.009 320.064 327.008 315.93C324.375 313.747 322.796 310.867 324.019 306.129C326.202 297.659 333.666 296.451 336.298 296.389V296.373Z" fill="#F7C3AF"/>
<path d="M324.004 306.113C324.7 303.388 325.955 301.422 327.41 299.997C326.233 302.598 324.189 309.83 329.361 313.53C337.831 319.6 346.936 317.432 346.425 317.82C342.384 320.824 331.978 320.049 326.977 315.9C324.344 313.716 322.765 310.836 323.988 306.098L324.004 306.113Z" fill="#F4A895"/>
<path d="M326.234 313.824C326.234 313.824 323.973 308.575 328.401 299.192C328.401 299.192 335.168 297.086 339.86 301.39C344.536 305.695 340.34 314.273 336.298 314.924C331.328 315.729 326.234 313.824 326.234 313.824Z" fill="#FBDACD"/>
<path d="M331.234 272.202C338.729 270.329 342.987 269.554 348.143 273.998C353.207 278.365 349.243 291.976 348.081 293.756C344.752 298.882 333.867 299.548 326.063 296.451C321.944 294.809 318.955 292.1 318.878 286.525C318.754 276.553 327.874 273.054 331.219 272.218L331.234 272.202Z" fill="#F7C3AF"/>
<path d="M318.894 286.525C318.847 283.382 319.73 280.889 321.046 278.923C319.9 283.46 321.092 289.142 324.685 291.419C338.156 299.981 348.345 293.385 348.097 293.757C344.768 298.882 333.882 299.548 326.078 296.451C321.959 294.81 318.971 292.1 318.894 286.525Z" fill="#F4A895"/>
<path d="M325.087 294.624C325.087 294.624 320.813 289.684 323.136 278.365C323.136 278.365 330.46 274.123 337.289 277.328C344.117 280.549 341.81 290.939 337.258 292.828C331.652 295.15 325.087 294.624 325.087 294.624Z" fill="#FBDACD"/>
<path d="M319.513 246.39C325.645 241.373 332.04 238.137 338.311 240.614C344.474 243.045 345.728 258.731 345.31 261.053C344.118 267.727 331.668 273.565 323.462 273.549C319.126 273.549 315.456 271.97 313.412 266.241C309.742 255.99 316.788 248.619 319.528 246.374L319.513 246.39Z" fill="#F7C3AF"/>
<path d="M313.133 255.634C312.313 260.434 317.918 268.331 321.51 268.888C339.039 271.583 345.434 260.356 345.294 261.069C344.102 267.742 331.653 273.58 323.446 273.565C319.11 273.565 315.44 271.985 313.396 266.256C311.956 262.23 312.173 258.638 313.133 255.634Z" fill="#F4A895"/>
<path d="M327.317 250.168C318.243 251.453 315.611 254.875 315.611 254.875C317.515 267.898 324.391 271.103 324.391 271.103C324.391 271.103 329.903 270.994 334.486 265.141C339.519 258.715 336.391 248.883 327.317 250.168Z" fill="#FBDACD"/>
<g style="mix-blend-mode:multiply" opacity="0.5">
<path d="M186.811 172.978L191.225 197.924C198.316 194.099 205.362 190.15 212.345 186.14C237.229 171.879 264.326 159.259 286.066 140.229L283.635 140.399L265.875 141.622C264.079 141.746 262.561 142.737 261.849 144.239L260.068 148.002C259.356 149.519 257.823 150.51 256.027 150.634L228.79 152.585C226.947 152.709 225.089 151.95 223.819 150.572L220.676 147.119C219.406 145.726 217.532 144.967 215.69 145.091L197.17 146.361L190.899 146.794C186.115 147.119 182.878 151.021 183.683 155.512L186.811 173.009V172.978Z" fill="#93CAE0"/>
</g>
<path d="M421.647 368.747C421.647 368.747 411.706 369.661 396.686 367.896C381.666 366.13 368.334 354.13 368.334 354.13C368.334 354.13 363.363 360.881 359.771 366.626C358.795 368.174 357.929 369.661 357.278 370.9C354.228 376.768 351.967 379.555 344.983 382.652C338 385.749 328.787 383.69 330.753 376.458C331.698 372.943 336.095 363.622 340.756 354.656C342.707 350.878 344.72 347.162 346.532 343.957C347.213 342.749 347.863 341.603 348.498 340.566C350.341 337.438 351.843 335.208 352.617 334.558C352.943 334.279 353.268 334.016 353.624 333.799C360.003 329.386 368.907 331.616 373.382 333.458C373.862 333.66 374.559 333.985 375.441 334.403C375.534 334.449 375.658 334.496 375.767 334.558C380.288 336.772 388.913 341.34 395.834 345.319C401.254 348.432 405.636 351.188 406.24 352.179C409.166 357.026 421.662 368.747 421.662 368.747H421.647Z" fill="#F7C3AF"/>
<path d="M339.658 356.576C335.229 365.341 331.529 373.532 330.739 376.458C328.788 383.69 338.001 385.749 344.984 382.652C351.968 379.555 354.229 376.784 357.264 370.899C358.41 368.685 360.252 365.774 362.11 362.987C354.786 360.262 347.323 358.016 339.658 356.576Z" fill="#F4A895"/>
<path d="M338.806 445.194C348.468 456.188 361.475 479.832 387.024 487.59C412.589 495.348 428.368 495.332 438.804 509.717C442.366 514.61 453.902 530.59 467.59 549.543C467.59 549.543 482.765 578.22 499.72 607.811H629.479C602.846 574.999 571.273 537.713 536.898 499.203C514.693 474.335 509.878 462.567 503.87 453.199C496.329 441.508 491.374 411.887 465.004 372.773C457.772 362.058 437.488 348.958 432.099 348.014C429.297 347.518 425.828 347.27 423.01 347.115C420.471 346.976 418.458 346.914 417.993 346.821H417.962C417.962 346.821 404.909 336.385 394.55 334.558C391.19 333.954 385.615 333.737 381.28 333.907C378.787 334 376.727 334.217 375.752 334.558C375.659 334.573 375.597 334.604 375.535 334.635C375.535 334.635 375.566 334.635 375.597 334.666C375.643 334.681 375.69 334.712 375.752 334.743C375.814 334.774 375.891 334.821 375.984 334.883C376.077 334.929 376.185 334.991 376.309 335.069C376.371 335.1 376.449 335.146 376.526 335.192C380.645 337.531 396.16 346.434 393.048 345.691C392.692 345.598 392.336 345.505 391.964 345.397C384.779 343.306 377.857 337.655 370.162 341.169C369.465 341.479 368.861 341.789 368.319 342.068C366.198 343.167 365.191 343.988 364.773 344.576C364.076 345.567 365.052 345.908 365.052 345.908C362.946 345.474 360.221 345.072 357.17 344.731C357.17 344.731 357.17 344.731 357.155 344.731C353.841 344.359 350.171 344.081 346.533 343.957C343.931 343.848 341.345 343.817 338.945 343.895C335.012 344.034 335.183 346.93 337.18 350.212C338.078 351.683 339.332 353.232 340.757 354.641C343.327 357.196 346.409 359.302 348.825 359.72C350.017 359.968 351.302 360.494 352.649 361.253C352.649 361.253 352.665 361.268 352.68 361.268C354.925 362.553 357.356 364.427 359.787 366.61C362.791 369.289 365.826 372.401 368.613 375.359C370.27 377.093 371.819 378.781 373.228 380.268C374.962 382.11 378.136 386.121 380.676 390.673C383.231 395.226 385.151 400.304 384.33 404.237C383.045 410.447 384.113 411.685 382.704 412.181C381.698 417.415 378.369 423.655 370.781 422.308C368.66 421.936 365.997 421.084 363.148 419.939C355.684 417.012 346.78 412.119 342.042 408.604C335.461 403.726 312.049 398.911 304.229 398.957C296.394 399.019 284.858 409.672 300.327 422.927C315.812 436.197 329.175 434.184 338.837 445.163L338.806 445.194Z" fill="#F7C3AF"/>
<path d="M463.301 539.912C461.164 537.14 459.538 534.926 458.733 533.548C454.614 526.564 441.034 502.734 435.476 496.664C425.782 486.088 394.628 477.045 387.814 473.856C380.599 470.48 367.824 465.835 358.301 456.699C350.729 449.452 341.717 441.152 332.427 436.275C327.843 433.859 321.696 433.07 316.818 431.304C314.078 430.313 311.26 429.508 308.441 428.796C320.473 435.903 330.878 436.182 338.791 445.178C348.468 456.188 361.46 479.817 387.025 487.59C412.574 495.348 428.353 495.332 438.804 509.717C442.227 514.425 453.066 529.429 466.088 547.453C465.113 544.944 464.168 542.436 463.301 539.912Z" fill="#F4A895"/>
<path d="M300.203 403.107C313.674 403.603 320.967 415.139 316.369 421.936C311.863 428.595 300.435 422.679 296.44 420.186C292.445 417.694 292.662 412.785 292.894 411.159C293.39 407.783 296.672 402.968 300.187 403.092L300.203 403.107Z" fill="#FBDACD"/>
<path d="M348.468 340.566C350.791 341.696 353.934 343.213 357.155 344.746C359.493 345.846 361.847 346.961 363.937 347.921C370.565 350.971 386.467 358.636 390.199 360.711C390.818 361.051 391.097 361.237 390.973 361.237C390.88 361.237 390.601 361.051 390.199 360.711C387.195 358.311 376.448 347.921 368.304 342.067C367.947 341.804 367.591 341.557 367.251 341.324C360.143 336.447 356.489 334.465 353.624 333.799L348.484 340.566H348.468Z" fill="#F4A895"/>
<path d="M386.777 390.89C386.668 395.133 386.885 399.097 386.885 399.097C386.885 399.097 383.447 394.266 380.644 390.704C379.08 388.707 377.702 387.112 377.238 386.973C375.968 386.57 365.036 379.788 359.353 372.34C359.353 372.34 350.063 366.781 337.164 354.781C334.548 352.35 329.143 351.544 320.379 344.994C317.298 342.703 312.312 342.703 305.142 339.188C301.906 337.608 299.708 334.992 298.298 332.266C296.564 328.968 296.007 325.5 296.115 323.564C296.332 320.018 307.883 321.396 314.573 322.294C321.262 323.192 327.146 324.803 330.878 326.831C334.609 328.875 345.077 332.189 348.576 333.877C351.348 335.208 357.356 339.885 364.757 344.607C366.662 345.815 368.52 347.038 370.208 348.215C378.461 353.929 393.915 360.34 393.915 360.34C393.915 360.34 387.845 380.19 387.133 385.61C386.916 387.236 386.823 389.094 386.777 390.921V390.89Z" fill="#F7C3AF"/>
<path d="M296.115 322.851C298.252 323.393 303.532 323.564 306.304 323.223C309.075 322.882 313.907 322.557 312.838 321.969C310.454 320.684 300.76 319.863 297.184 320.328C295.387 320.56 293.932 322.279 296.115 322.836V322.851Z" fill="#FBDACD"/>
<path d="M405.342 354.749C404.909 354.44 400.109 350.94 395.479 347.797C394.581 347.177 393.357 346.357 391.948 345.412C386.792 341.928 379.236 336.896 376.51 335.208C376.448 335.162 376.371 335.115 376.294 335.084C376.17 335.007 376.077 334.945 375.968 334.898C375.782 334.79 375.659 334.713 375.581 334.682C375.566 334.666 375.535 334.651 375.52 334.651L375.427 334.418C375.519 334.465 375.643 334.511 375.752 334.573C376.727 334.233 378.802 334.016 381.28 333.923C383.927 335.688 388.108 338.553 390.833 340.798C392.103 341.851 393.915 343.508 395.819 345.335C400.109 349.438 404.924 354.347 405.342 354.765V354.749Z" fill="#F4A895"/>
<path d="M433.509 358.466C433.168 358.202 427.563 354.084 423.428 351.08C421.833 349.934 419.944 348.416 417.993 346.806C418.458 346.899 420.471 346.961 423.01 347.1C427.129 351.358 433.091 357.986 433.524 358.466H433.509Z" fill="#F4A895"/>
<path d="M397.012 418.56V427.061C397.012 427.061 393.234 416.067 391.035 412.599C391.035 412.599 386.963 417.631 382.859 421.084C378.787 424.537 372.5 424.228 366.214 421.704C365.238 421.317 364.201 420.728 363.132 419.969C365.981 421.1 368.645 421.952 370.766 422.339C378.353 423.67 381.682 417.446 382.689 412.212C384.098 411.716 383.03 410.478 384.315 404.268C385.136 400.335 383.215 395.256 380.66 390.704C379.096 388.707 377.718 387.112 377.254 386.972C375.984 386.57 365.052 379.788 359.369 372.34C359.369 372.34 350.079 366.781 337.18 354.78C334.564 352.349 329.159 351.544 320.395 344.994C317.314 342.702 312.328 342.702 305.158 339.187C301.922 337.608 299.724 334.991 298.314 332.266C307.094 340.968 314.449 340.999 319.389 341.278C324.746 341.587 332.272 348.494 336.035 349.763C336.36 349.872 336.731 350.026 337.165 350.243C340.742 351.962 347.539 356.902 352.634 361.284C352.634 361.284 352.649 361.299 352.665 361.299C353.966 362.429 355.158 363.529 356.149 364.52C360.717 369.103 363.69 372.525 368.583 375.39C369.404 375.87 370.271 376.334 371.231 376.784C375.953 379.029 382.302 385.315 386.777 390.89C388.558 393.104 390.044 395.194 391.02 396.882C394.473 402.859 396.997 414.488 396.997 418.56H397.012Z" fill="#F4A895"/>
<path d="M383.742 123.722C354.786 123.722 331.327 147.197 331.327 176.137C331.327 189.67 336.452 201.996 344.861 211.287L339.363 222.73C338.496 224.541 340.122 226.539 342.073 226.074L358.595 222.126C366.058 226.214 374.637 228.552 383.757 228.552C412.713 228.552 436.172 205.077 436.172 176.122C436.172 147.166 412.697 123.691 383.757 123.691L383.742 123.722Z" fill="white"/>
<path d="M411.056 155.109C409.693 153.886 407.913 153.267 406.085 153.359C404.243 153.452 402.57 154.273 401.332 155.636L376.278 183.57L365.206 174.635C362.249 172.25 357.913 172.715 355.529 175.672C354.383 177.097 353.841 178.893 354.042 180.72C354.244 182.548 355.142 184.189 356.566 185.335L372.732 198.357C373.955 199.333 375.488 199.875 377.052 199.875C379.003 199.875 380.877 199.038 382.177 197.583L411.598 164.787C414.137 161.969 413.89 157.602 411.071 155.078L411.056 155.109Z" fill="#005AAB"/>
</g>
<path d="M66.7692 44.4922C66.7692 46.4461 65.8923 47.4461 64.1538 47.4461H62.6308L62.1384 44.923C62.8768 45.0461 63.5385 45.0922 64.1692 45.0922C64.4308 45.0922 64.5843 44.7076 64.5843 43.9076V30.8461H57.523V47.6153H55.3535V44.5076L53.323 45.1537C53.1692 43.6461 52.9535 42.2922 52.6612 41.0461L54.5843 40.4615C54.9074 41.5845 55.1689 42.7845 55.3535 44.0768V39.1999L53.323 39.8461C53.2769 39.523 53.2152 39.1999 53.169 38.8768C52.9382 38.9384 52.6922 38.9999 52.4768 39.0461V47.6922H50.3689V39.5076C49.5689 39.6768 48.7538 39.8153 47.9384 39.9384L47.5076 37.5076C47.9999 37.4614 48.4767 37.4153 48.9075 37.3538C49.3382 36.723 49.7229 36.1076 50.1075 35.4615C49.1998 34.723 48.2766 33.9691 47.3228 33.2153L48.6768 31.5384C48.7691 31.5999 48.8305 31.6615 48.9075 31.7076C49.5536 30.5845 50.1384 29.4461 50.6153 28.323L52.7074 29.2461C51.9689 30.7076 51.3077 31.9384 50.6615 32.9538C50.8615 33.123 51.046 33.2768 51.2613 33.3999C51.6921 32.5845 52.1075 31.7384 52.4614 30.923L54.7229 31.9384C54.0306 33.2153 53.369 34.3691 52.7382 35.4307L54.2305 34.9845C54.7074 36.1691 55.0769 37.4614 55.3231 38.8614V28.6614H66.7692V44.4768V44.4922ZM50.1691 41.123C49.8922 43.0614 49.6152 44.7076 49.3229 46.0153L47.292 45.4153C47.6151 43.8153 47.8766 42.2307 48.0612 40.6307L50.1537 41.123H50.1691ZM52.4152 35.9691C52.1844 36.3537 51.9692 36.7076 51.7692 36.9999C52.0922 36.9538 52.3997 36.9076 52.692 36.8461C52.5997 36.5384 52.4921 36.2461 52.4152 35.9691ZM61.0307 33.4615L59.8461 34.1538H60.9691C61.4153 33.1691 61.7227 32.1691 61.8766 31.1999L64.0768 31.6922C63.923 32.5537 63.6615 33.3691 63.3076 34.1538H64.2613V36.1538H62.1538V37.6922H64.2613V39.723H60.7997V41.323C60.7997 41.8461 60.9537 42.0922 61.2767 42.1384C61.4921 42.2307 61.8613 42.2461 62.369 42.2461C62.8767 42.2461 63.3998 42.1537 63.9228 41.9845V44.0922C63.3998 44.2615 62.8921 44.323 62.369 44.323C61.8459 44.323 61.2306 44.3076 60.4921 44.2615C59.246 44.2153 58.6152 43.3999 58.6152 41.7999V39.7076H57.8614V37.6768H59.8923V36.1384H57.8614V34.1384H58.8305C58.5689 33.5845 58.2923 33.0614 57.9538 32.5384L59.7999 31.3537C60.323 32.0153 60.723 32.7076 61.0461 33.4461L61.0307 33.4615Z" fill="#595757"/>
<path d="M77.2767 28.7538V33.2615C77.969 32.5077 78.523 31.7385 78.9537 30.9077C79.4922 29.9538 79.9231 29.0154 80.2308 28.0615L82.7537 28.6615C82.6306 29.0461 82.4767 29.4154 82.3229 29.7538H87.6459V32.0154C86.9843 33.4769 86.0921 34.7231 85.0152 35.7692C86.1998 36.4615 87.4921 37 88.8921 37.4L87.7999 39.7538C87.6768 39.7077 87.5692 39.6923 87.4769 39.6462V47.6H85.1076V46.8461H80.4922V47.5077H78.1229V39.7692C77.969 39.8308 77.8459 39.8769 77.7075 39.9231L77.0152 38.3692V40.4308H75.0922V43.8C75.846 43.6769 76.5843 43.5231 77.2613 43.3692L77.6001 45.4769C75.1847 46.1231 72.5382 46.7231 69.5998 47.2461L68.7539 44.8154C69.077 44.7692 69.3845 44.7231 69.6768 44.6923V37.7538H72.0306V44.3538C72.246 44.3077 72.4767 44.2923 72.6921 44.2461V36.2308H69.6768V28.7538H77.2462H77.2767ZM74.9232 33.9692V31.0154H72.0614V33.9692H74.9232ZM76.7846 37.8461C78.4154 37.2923 79.8 36.6308 80.9692 35.9077C80.4461 35.3846 79.9997 34.8308 79.5844 34.1846C79.2767 34.5231 78.9538 34.8461 78.6307 35.1538L77.2767 33.6461V36.2308H75.1076V38.1692H76.9383L76.7846 37.8461ZM86.8 39.4462C85.3385 38.9538 84.0153 38.3077 82.8153 37.4923C81.6922 38.2308 80.4307 38.8923 78.9999 39.4462H86.8ZM85.0922 44.5692V41.7077H80.4768V44.5692H85.0922ZM83.0305 34.3538C83.8459 33.6 84.4767 32.8 84.9536 31.9385H81.1998C81.1537 32.0308 81.1078 32.0923 81.0924 32.1385C81.6462 33 82.292 33.7385 83.0305 34.3538Z" fill="#595757"/>
<path d="M94.2619 30.1845V28.3384H96.6312V30.1845H99.8159V32.3845H96.6312V33.8922H100.247V36.0922H99.1699C98.9545 36.8614 98.7234 37.5538 98.4311 38.1845H99.8159V40.3845H96.6312V41.723H100.247V43.923H96.6312V47.6307H94.2619V43.923H90.7234V41.723H94.2619V40.3845H91.1542V38.1845H92.4466C92.2466 37.5845 92.0314 37.0153 91.816 36.5076L92.6772 36.0922H90.6313V33.8922H94.2465V32.3845H91.1388V30.1845H94.2465H94.2619ZM96.0314 38.1691C96.2929 37.4768 96.5236 36.7691 96.7236 36.0768H94.0467C94.3236 36.6153 94.5697 37.1691 94.7851 37.7538L93.8157 38.1691H96.0314ZM109.324 28.7538V33.0461C109.324 34.7845 108.478 35.6614 106.801 35.6614H105.201L104.708 33.2307C105.262 33.3538 105.739 33.3999 106.123 33.3999C106.554 33.3999 106.785 33.1384 106.785 32.6307V31.0307H102.924V36.1538H109.739V37.8615C109.2 40.323 108.554 42.2153 107.8 43.5691C108.447 44.3384 109.185 45.0153 110 45.5999L108.324 47.7076C107.585 47.1076 106.939 46.4307 106.339 45.6768C105.585 46.5384 104.739 47.2307 103.846 47.7076L102.939 45.9384V47.7076H100.57V28.7691H109.324V28.7538ZM104.939 43.5845C104.939 43.5845 104.877 43.4768 104.847 43.4153C104.031 41.9076 103.447 40.2307 103.123 38.3538H102.954V45.2768C103.724 44.8461 104.37 44.2922 104.939 43.5999V43.5845ZM106.308 41.2614C106.693 40.3999 107 39.4307 107.262 38.3538H105.339C105.554 39.4307 105.877 40.3999 106.308 41.2614Z" fill="#595757"/>
<path d="M116.4 39.2771V37.3387H118.923V39.2771H122.538V41.7079H118.923V44.1848C120.276 44.0617 121.569 43.9079 122.784 43.7386L123.215 45.9387C120.2 46.4925 116.861 47.0156 113.2 47.4463L112.276 44.831C113.723 44.7079 115.107 44.5694 116.415 44.4464V41.7079H112.938V39.2771H116.415H116.4ZM123.215 28.8464V31.2002H118.046L116.8 34.5233C117.923 34.431 118.953 34.354 119.953 34.2463C119.692 33.8002 119.415 33.3386 119.107 32.8925L121.277 31.554C122.307 33.0617 123.153 34.6617 123.799 36.3387L121.538 37.6925C121.369 37.2156 121.169 36.7694 120.984 36.3079C118.492 36.7386 115.769 37.0771 112.8 37.3387L112.369 34.8156C112.969 34.8002 113.554 34.754 114.107 34.7079L115.446 31.2002H112.615V28.8464H123.215ZM126.831 30.6925V42.9694H124.307V30.6925H126.831ZM131.046 28.1541V44.3233C131.046 45.5694 130.892 46.3848 130.615 46.8617C130.246 47.354 129.6 47.6156 128.692 47.6156C127.707 47.6156 126.769 47.5233 125.907 47.354L125.476 44.831C126.43 45.0464 127.4 45.154 128.338 45.154C128.4 45.154 128.446 45.0617 128.461 44.8771C128.476 44.6463 128.507 44.2463 128.507 43.7386V28.1541H131.03H131.046Z" fill="#595757"/>
<path d="M139.862 29.0002C139.646 29.7386 139.431 30.4464 139.17 31.1079H142.308V28.1541H144.739V31.1079H151.231V33.4617H144.739V36.6771H152.569V39.031H146.862V44.0925C146.862 44.6464 147.077 44.9387 147.554 44.954C147.754 45.0002 148.031 45.0156 148.415 45.0156C149.185 45.0156 149.662 44.9694 149.8 44.8925C149.969 44.7233 150.062 44.4617 150.108 44.1233C150.154 43.954 150.2 43.2771 150.231 42.1694L152.754 43.5848C152.631 45.3233 152.385 46.4002 152 46.8617C151.739 47.0771 151.4 47.231 150.939 47.3079C150.631 47.4002 149.8 47.4617 148.415 47.4617C147.723 47.4617 147.108 47.4156 146.569 47.354C145.062 47.3079 144.323 46.4925 144.323 44.9386V39.031H141.354C141.262 40.5387 141.016 41.8156 140.585 42.8925C140.093 44.0617 139.354 45.0617 138.4 45.9233C137.539 46.6925 136.508 47.231 135.262 47.5386L134.077 45.1694C135.108 44.9079 135.969 44.4617 136.646 43.8617C137.308 43.3079 137.831 42.5694 138.216 41.6617C138.492 40.9694 138.692 40.1079 138.8 39.031H134.17V36.6771H142.338V33.4617H138.154C137.615 34.554 137.031 35.5079 136.431 36.3233L134.262 34.6464C134.969 33.7387 135.6 32.7079 136.138 31.5387C136.692 30.3694 137.154 29.2771 137.446 28.2464L139.877 29.0002H139.862Z" fill="#595757"/>
<path d="M165.369 28.231V28.831H172.261V30.754H165.369V31.1848H174.123V34.8002H171.692V33.2002H165.2V33.8002L170.754 33.3694L170.923 35.2925L165.4 35.7233C165.615 35.9233 166.031 36.031 166.584 36.031C167 36.0771 167.569 36.0771 168.308 36.0771C169.585 36.0771 170.338 36.0618 170.569 36.0156C170.831 35.9694 170.985 35.8925 171.046 35.754C171.138 35.6925 171.2 35.4464 171.246 35.0617L173.523 36.3079C173.369 37.1079 173.077 37.6002 172.615 37.8156C172.308 37.9079 171.877 37.9694 171.323 38.0156C170.985 38.0617 169.969 38.0771 168.308 38.0771C167.385 38.0771 166.569 38.0618 165.831 37.9848C163.831 37.9387 162.831 37.2771 162.831 35.9848V35.9387L159.215 36.2156V34.2925L162.831 33.9848V33.1848H158.692V39.0925C158.692 39.7387 158.677 40.3848 158.631 41.0156C158.954 40.6002 159.231 40.2002 159.446 39.7694C159.923 38.9079 160.215 37.9848 160.369 36.9848L162.477 37.4771C162.385 37.9079 162.308 38.2925 162.215 38.6617H165.831C165.446 41.0463 164.815 42.8463 163.938 44.0463C163.877 44.1387 163.831 44.2002 163.785 44.2464C164.908 45.0156 167.015 45.3848 170.123 45.3848C171.8 45.3848 173.292 45.2925 174.6 45.1233L173.907 47.4925H170.108C166.6 47.4925 164.185 47.0617 162.892 46.2002C162.692 46.0464 162.523 45.9233 162.369 45.7848C161.661 46.4156 160.846 47.0156 159.939 47.5694L158.261 45.7233C159.385 45.231 160.292 44.7079 160.954 44.1848C160.646 43.7541 160.354 43.3079 160.092 42.7848C159.831 43.1233 159.554 43.431 159.277 43.6925L158.4 42.8771C158.354 43.2156 158.292 43.5694 158.246 43.9079C158.015 45.1848 157.615 46.4464 157.077 47.7387L154.908 46.4617C155.446 44.8617 155.815 43.4925 156 42.3233C156.215 40.9079 156.323 39.4617 156.323 38.0156V31.1387H162.815V28.1848H165.338L165.369 28.231ZM162.369 42.7694C162.707 42.1694 163 41.4771 163.169 40.7079H161.507C161.446 40.831 161.385 40.9694 161.338 41.0464H161.323C161.646 41.7079 161.984 42.2925 162.384 42.7694H162.369ZM172.031 38.6925V42.0617C172.031 42.554 172.046 42.831 172.123 42.9233C172.169 42.9694 172.231 42.9848 172.323 42.9848C172.384 42.9848 172.446 42.9694 172.523 42.9233C172.585 42.9079 172.63 42.831 172.677 42.7233C172.723 42.5541 172.769 41.9233 172.8 40.8771L174.8 41.8925C174.738 43.3079 174.492 44.1694 174.092 44.5233C173.877 44.6925 173.662 44.8002 173.4 44.8464C173.015 44.9079 172.646 44.9387 172.323 44.9387C171.369 44.9387 170.8 44.8464 170.585 44.631C170.031 44.5233 169.769 43.8617 169.769 42.6464V40.7079H168.708C168.6 41.954 168.338 42.8463 167.954 43.4002C167.569 44.0463 166.923 44.5387 165.969 44.9233L164.892 42.8925C165.415 42.6771 165.815 42.3387 166.092 41.8771C166.4 41.4002 166.538 40.3233 166.569 38.6925H172.046H172.031Z" fill="#595757"/>
<path d="M183.462 29.1691V31.5383H181.262V35.246H183.031V37.5998H181.262V42.2306C182.016 42.0614 182.724 41.8921 183.37 41.7075L183.631 43.9998C181.646 44.6306 179.477 45.1845 177.139 45.6768L176.708 43.1537C177.446 43.0306 178.154 42.8921 178.816 42.7383V37.5844H176.969V35.2306H178.816V31.5229H176.785V29.1537H183.446L183.462 29.1691ZM195.477 28.6768V39.769H190.923V40.9537H195.385V43.3229H190.923V44.9229H196.154V47.2767H183.092V44.9229H188.477V43.3229H183.846V40.9537H188.477V39.769H183.923V28.6768H195.446H195.477ZM188.508 32.8768V31.0306H186.416V32.8768H188.508ZM188.508 37.4152V35.246H186.416V37.4152H188.508ZM190.939 32.8768H193.046V31.0306H190.939V32.8768ZM190.939 37.4152H193.046V35.246H190.939V37.4152Z" fill="#595757"/>
<path d="M203.324 28.5846C203.17 29.6153 203.016 30.6153 202.878 31.5384H206.693C206.585 34.1846 206.262 36.6615 205.724 38.9692C205.508 39.8461 205.277 40.6307 205.016 41.323C205.877 42.0923 206.724 42.923 207.539 43.7384L205.862 45.5999C205.216 44.8615 204.585 44.1999 203.97 43.5692C203.847 43.7845 203.693 43.9999 203.554 44.1692C202.601 45.5538 201.462 46.7076 200.124 47.7076L198.785 45.8615C199.924 44.9999 200.893 43.9845 201.678 42.7999C201.847 42.5692 202.047 42.2769 202.216 41.9845C201.785 41.6461 201.354 41.2922 200.939 40.9538C200.831 41.3384 200.724 41.6922 200.631 41.9845L198.355 41.4923C199.047 39.1076 199.631 36.5384 200.124 33.8153H198.262V31.5538H200.508C200.678 30.4769 200.831 29.3692 200.955 28.2615L203.324 28.5999V28.5846ZM203.539 38.7076C203.924 37.0461 204.201 35.4153 204.339 33.7999H202.493C202.17 35.5846 201.847 37.1846 201.524 38.5999C202.077 39.0153 202.647 39.4153 203.185 39.7999C203.308 39.4615 203.416 39.0923 203.554 38.7076H203.539ZM217.201 28.8461V31.0153C216.17 32.723 214.954 34.1846 213.585 35.4153V36.7538H217.724V39.1076H213.585V44.8461C213.585 45.923 213.355 46.6307 212.878 46.9538C212.355 47.3384 211.478 47.5384 210.231 47.5384C209.57 47.5384 208.939 47.4769 208.385 47.3692L207.97 44.7692C208.708 45.0461 209.462 45.1845 210.231 45.1845C210.493 45.1845 210.724 45.1384 210.939 45.0615C211.062 44.9384 211.154 44.6461 211.154 44.2615V39.1384H206.601V36.7846H211.154V33.4923L212.139 33.5538C212.893 32.8922 213.601 32.1076 214.247 31.2307H207.262V28.8769H217.201V28.8461Z" fill="#595757"/>
<path d="M228.584 41.6462L227.769 40.2462C228.415 39.9847 229 39.5385 229.508 38.8462H227.938V35.7693H231.231V37.9231C231.231 39.4924 230.354 40.7385 228.584 41.6462Z" fill="#595757"/>
<path d="M247.323 29.2461C246.83 30.1385 246.184 31.0308 245.384 31.9385C244.292 33.0615 243.384 33.8615 242.692 34.3077L241.092 32.2C241.831 31.6769 242.6 31.0154 243.415 30.2C244.123 29.4615 244.692 28.7385 245.123 28L247.323 29.2461ZM248.738 33.8769C248.138 35 247.338 36.1385 246.308 37.3077V47.6923H243.846V39.6154C243.507 39.8923 243.2 40.1077 242.938 40.2769L241.231 38.0769C242.2 37.4154 243.215 36.5538 244.292 35.4769C245.246 34.5231 245.969 33.5538 246.538 32.6154L248.738 33.8923V33.8769ZM260.784 34.5538V37.0154H256.646V44.5846C256.646 45.8308 256.384 46.6462 255.907 47.0154C255.384 47.4615 254.492 47.7077 253.184 47.7077C252.154 47.7077 251.2 47.6154 250.323 47.4462L249.908 44.8308C250.985 45.1077 252.077 45.2462 253.184 45.2462C253.784 45.2462 254.108 44.9077 254.108 44.1692V37.0154H248.554V34.5538H260.769H260.784ZM259.769 28.9231V31.2769H249.661V28.9231H259.769Z" fill="#595757"/>
<path d="M271.292 29.8615V28.2461H273.646V29.8615H281.553V32.123H276C276.63 32.5538 277.292 32.9384 277.984 33.2922C279.261 33.9384 280.769 34.4769 282.492 34.9076L281.246 37.3384C279.43 36.7384 277.753 35.8923 276.2 34.8615C275.276 34.2615 274.43 33.5846 273.661 32.8615V36.0922H271.307V32.9846C270.569 33.6769 269.846 34.2769 269.061 34.7999C267.123 35.9845 265.446 36.7999 264.061 37.2615L262.784 34.9999C264.169 34.6153 265.615 34.0153 267.138 33.2307C267.846 32.8615 268.477 32.4922 269 32.1384H263.569V29.8769H271.307L271.292 29.8615ZM278.938 36.4922V38.7692C277.753 39.5845 276.353 40.3384 274.738 41.0307H282.061V43.3845H273.815V44.9999C273.815 46.0769 273.6 46.7845 273.215 47.1076C272.784 47.4922 272.03 47.6922 270.953 47.6922C270.261 47.6922 269.615 47.6461 269.015 47.5999L268.6 44.9999C269.369 45.2153 270.169 45.323 270.953 45.323C271.077 45.323 271.184 45.2769 271.277 45.1692C271.338 45.0307 271.384 44.7846 271.384 44.3999V43.3845H262.954V41.0307H271.384V39.6153L272.676 39.7076C273.384 39.3999 274.03 39.1076 274.63 38.7845H266.307V36.5076H278.938V36.4922Z" fill="#595757"/>
<path d="M293.247 31.3691V33.723H284.416V31.3691H293.247ZM292.4 47.6922H290.046V46.8461H287.523V47.6922H285.154V40.3691H292.4V47.6922ZM292.17 37.2461V39.6153H285.431V37.2461H292.17ZM292.247 34.323V36.6768H285.508V34.323H292.247ZM292.17 28.5845V30.8461H285.6V28.5845H292.17ZM290.046 44.7538V42.5538H287.523V44.7538H290.046ZM303.031 30.3538C301.646 30.7845 300.216 31.123 298.724 31.4307V35.8922L303.354 35.1538L303.616 37.5845L298.724 38.3845V44.0768C298.724 44.5691 298.847 44.8307 299.154 44.8768C299.324 44.9691 299.739 44.9999 300.4 44.9999C300.877 44.9999 301.17 44.9384 301.262 44.7691C301.37 44.6461 301.462 44.3538 301.523 43.923C301.569 43.6615 301.631 43.2307 301.677 42.6307L303.877 43.9076C303.616 45.5845 303.246 46.5845 302.816 46.9076C302.693 47.0768 302.4 47.2153 301.939 47.2768C301.708 47.323 301.185 47.3691 300.416 47.3691C299.462 47.3691 298.708 47.2768 298.2 47.1538C296.923 46.9999 296.308 46.1384 296.308 44.5845V38.7845L293.2 39.2768L292.77 36.8461L296.308 36.2922V31.8922C295.616 32.0153 294.954 32.123 294.277 32.2153L293.108 30.0153C295.908 29.6768 298.708 29.1076 301.508 28.3384L303.031 30.3691V30.3538Z" fill="#595757"/>
<path d="M310.169 33.7999L308.554 35.8307C307.708 34.9076 306.846 34.1076 305.938 33.4615L307.554 31.7846C308.508 32.3692 309.369 33.0307 310.154 33.8153L310.169 33.7999ZM310.662 37.0768V43.5692C311.569 44.2307 312.6 44.5999 313.785 44.6922C314.646 44.8615 316.831 44.923 320.292 44.923C322.277 44.923 323.984 44.7999 325.4 44.4922C324.923 45.3538 324.554 46.2615 324.308 47.2769H318.031C315.769 47.2769 313.954 47.1076 312.6 46.7538C311.631 46.4922 310.677 45.9538 309.738 45.1538C309 45.9999 308.292 46.8307 307.569 47.6922C307.031 46.8153 306.492 45.9845 305.954 45.2307C306.754 44.8461 307.554 44.4153 308.323 43.9845V39.4307H305.954V37.0615H310.677L310.662 37.0768ZM324.969 32.1999H323.123V33.3845H319.184V33.9692H323.554V40.6307H319.184V41.4768H324.492V43.3999H319.184V44.5845H316.908V43.3999H311.692V41.4768H316.908V40.6307H312.446V33.9692H316.908V33.3845H312.785V32.1999H311.261V30.4769L309.846 32.2922C309.031 31.3692 308.184 30.5692 307.323 29.923L308.923 28.2461C309.785 28.7999 310.554 29.4153 311.277 30.1076V28.5999H325V32.2153L324.969 32.1999ZM316.892 31.4461V30.5999H313.446V31.4461H316.892ZM316.892 36.3999V35.8153H314.631V36.3999H316.892ZM316.892 38.7692V38.1692H314.631V38.7692H316.892ZM319.169 31.4461H322.785V30.5999H319.169V31.4461ZM319.169 36.3999H321.338V35.8153H319.169V36.3999ZM319.169 38.7692H321.338V38.1692H319.169V38.7692Z" fill="#595757"/>
<path d="M332.107 35.5692L330.261 37.8615C329.415 37.0461 328.553 36.323 327.661 35.7538L329.508 33.8923C330.461 34.3692 331.323 34.923 332.107 35.5692ZM332.2 39.2769C331.554 42.5692 330.815 45.3384 330 47.5384L327.738 46.3538C328.646 43.723 329.354 41.123 329.846 38.5384L332.2 39.2923V39.2769ZM332.877 30.523L331.031 32.7846C330.169 31.9076 329.292 31.1538 328.338 30.523L330.184 28.6615C331.169 29.1846 332.061 29.8 332.877 30.523ZM336.4 38.0923C336.4 41.323 336.123 43.5076 335.584 44.5999C335.046 45.8307 334.2 46.8923 333.046 47.7846L331.369 45.8461C332.231 45.2 332.892 44.3846 333.354 43.3846C333.769 42.523 333.984 40.7538 333.984 38.0769H336.415L336.4 38.0923ZM341.031 28.2307V30.2615H346.507V32.5384H343.615C344.738 33.8307 345.677 35.1692 346.415 36.5692L344.246 37.8461C344.015 37.4153 343.769 36.9846 343.507 36.5538C340.615 36.9846 337.307 37.1999 333.554 37.2461L333.123 34.8923C333.877 34.8923 334.615 34.8923 335.338 34.8769L336.507 32.5538H333.292V30.2769H338.415V28.2461H341.015L341.031 28.2307ZM340.2 38.1692V46.6769H337.769V38.1692H340.2ZM341.292 33.6307L343 32.5538H339.2L338.077 34.7999C339.492 34.7538 340.815 34.6769 342.061 34.5384C341.8 34.2307 341.538 33.9384 341.292 33.6307ZM343.984 38V44.3077C343.984 44.7846 344 45.0153 344.077 45.0461C344.092 45.1384 344.184 45.1538 344.338 45.1538C344.554 45.1538 344.677 45.0615 344.723 44.8923C344.769 44.7692 344.815 44.4615 344.831 43.9846C344.846 43.6769 344.877 43.2153 344.923 42.5384L347.092 43.8153C346.877 45.5846 346.6 46.6153 346.246 46.9538C346.154 47.123 345.923 47.2615 345.538 47.323C345.338 47.3846 344.938 47.4307 344.338 47.4307C343.692 47.4307 343.169 47.3384 342.831 47.2153C341.969 47.0923 341.553 46.2461 341.553 44.7384V38H343.984Z" fill="#595757"/>
<path d="M357.354 30.0925C356.492 30.5079 355.585 30.8617 354.661 31.1848V34.0463H357.277V36.4002H354.661V36.554C355.785 37.5694 356.769 38.554 357.616 39.5233L356.092 41.6156C355.616 40.8771 355.138 40.2156 354.677 39.6156V47.6156H352.246V40.5233C351.662 41.6925 351 42.7694 350.215 43.7386L348.8 41.9694C349.446 41.231 350.138 40.1848 350.861 38.831C351.292 38.0617 351.677 37.2617 352 36.4156H349.292V34.0617H352.246V31.9694C351.6 32.1694 350.954 32.3386 350.308 32.4617L349.123 30.2617C351.385 29.831 353.677 29.1233 355.954 28.1541L357.369 30.0925H357.354ZM368.138 38.2617C366.846 38.4617 365.492 38.631 364.108 38.8002V40.7848H367.8V43.0771H364.108V45.1079H368.308V47.3694H356.923V45.1079H361.646V43.0771H357.708V40.7848H361.646V39.0617C360.461 39.1848 359.261 39.2771 358.031 39.3694L357.185 37.0771C360.739 36.8617 364.015 36.5233 367.031 36.0925L368.123 38.2617H368.138ZM367.785 28.5848V35.4002H357.785V28.5848H367.785ZM365.354 33.1233V30.8464H360.231V33.1233H365.354Z" fill="#595757"/>
<path d="M374.693 29.0769C374.216 30.1076 373.739 30.9692 373.277 31.6615C373.4 31.7692 373.554 31.8615 373.693 31.9384C374.077 31.3076 374.446 30.6615 374.785 30L376.462 30.8461C375.662 32.2461 374.846 33.4307 374.031 34.4C374.416 34.3384 374.8 34.2769 375.17 34.1846C375.077 33.9692 375 33.8 374.939 33.6307L376.293 32.7846C376.708 33.5999 377.046 34.4923 377.308 35.3846L375.862 36.2307C375.816 36.0307 375.754 35.8461 375.708 35.6461C375.37 35.7384 375.016 35.8153 374.693 35.9076V40.1999H372.846V36.323C372.2 36.4461 371.554 36.5846 370.908 36.6615L370.57 34.8922C370.893 34.8461 371.216 34.8307 371.523 34.7846C371.939 34.3538 372.292 33.9076 372.646 33.4461C371.985 32.9538 371.231 32.4923 370.4 32.1076L371.169 30.5076C371.369 30.6 371.554 30.6769 371.723 30.7692C372.246 30 372.677 29.1384 373.016 28.2307L374.693 29.0769ZM372.585 37.1538C372.477 38.1846 372.277 39.1076 372 39.9384L370.385 39.3538C370.662 38.6153 370.862 37.8153 370.985 36.923L372.585 37.1538ZM377.708 40.1076C377.554 40.3692 377.4 40.6307 377.277 40.8615H388.477V42.8922H386.308C385.893 43.3692 385.431 43.7999 384.862 44.1692C384.447 44.4461 384.016 44.7076 383.554 44.923C383.662 44.9692 383.769 44.9845 383.877 44.9845C385.6 45.2922 387.646 45.4615 390.016 45.5076L389.493 47.5384C386.893 47.4461 384.693 47.2307 382.877 46.8923C381.908 46.6923 381.016 46.4769 380.231 46.2307C380.139 46.2461 380.077 46.2769 380.031 46.2923C377.662 46.9846 374.877 47.4922 371.646 47.7999L371.062 45.7692C373.524 45.6153 375.57 45.3846 377.2 45.0615C376.323 44.6153 375.539 44.1384 374.877 43.6461C374.231 44.2307 373.523 44.7384 372.739 45.1692L371.139 43.3999C372.216 42.8461 373.077 42.2307 373.723 41.6153C374.477 40.9692 375.077 40.3076 375.508 39.6307L377.677 40.123L377.708 40.1076ZM377.046 39.0153L375.277 39.4461C375.216 38.523 375.108 37.6615 374.939 36.8307L376.554 36.4C376.785 37.2615 376.97 38.1384 377.046 38.9999V39.0153ZM387.231 29.1692C386.785 30.1538 386.308 31 385.816 31.6615C385.969 31.7538 386.093 31.8307 386.231 31.8923C386.616 31.2615 386.985 30.6461 387.323 30L389.093 30.923C388.277 32.323 387.416 33.5076 386.554 34.4769C386.969 34.4307 387.354 34.3692 387.692 34.2769C387.6 34.0769 387.493 33.8923 387.416 33.6923L388.831 32.7692C389.308 33.6307 389.708 34.5076 390.016 35.4615L388.492 36.3846C388.431 36.2153 388.37 36.0153 388.323 35.8307C387.985 35.923 387.662 36 387.339 36.0615V40.4307H385.4V36.4461C384.708 36.6 384 36.723 383.293 36.8153L382.97 34.9692C383.247 34.9538 383.523 34.9076 383.816 34.8615C384.262 34.4307 384.693 33.9538 385.093 33.4615C384.446 33.0923 383.739 32.7538 382.985 32.4461L383.2 32.0153H376.739V30.4153H383.308V31.7999L383.831 30.7384C383.923 30.7846 384 30.8307 384.093 30.8461C384.647 30.0461 385.123 29.1692 385.508 28.2153L387.277 29.1384L387.231 29.1692ZM382.692 32.3692V33.8769H377.385V32.3692H382.692ZM382.6 36.1538V39.8615H377.385V36.1538H382.6ZM382.692 28.4923V30H377.477V28.4923H382.692ZM382.6 34.323V35.8307H377.477V34.323H382.6ZM382.646 43.323C382.908 43.2 383.139 43.0461 383.339 42.8922H377.493C378.093 43.2307 378.723 43.5384 379.385 43.7692C379.77 43.9384 380.154 44.0769 380.57 44.1999C381.339 43.9384 382.031 43.6615 382.631 43.323H382.646ZM380.662 38.4307V37.5846H379.323V38.4307H380.662ZM385.046 37.3384C384.939 38.4615 384.739 39.4769 384.462 40.3846L382.785 39.7846C383.062 39.0153 383.262 38.1076 383.37 37.0923L385.046 37.3538V37.3384ZM389.754 39.2769L387.908 39.7692C387.847 38.8153 387.739 37.9384 387.57 37.0769L389.246 36.6615C389.508 37.523 389.677 38.4 389.77 39.2615L389.754 39.2769Z" fill="#595757"/>
<path d="M398.492 34.5538C398.061 35.523 397.508 36.4923 396.816 37.4615V47.6154H394.385V40.2923C394.062 40.6154 393.785 40.8769 393.538 41.0461L392.015 39.0154C392.831 38.3231 393.677 37.4461 394.554 36.3231C395.323 35.3384 395.939 34.3692 396.4 33.3846L398.492 34.5538ZM398.323 29.2461C397.846 30.1692 397.231 31.1231 396.431 32.0923C395.354 33.2769 394.477 34.0923 393.785 34.5538L392.277 32.5538C393.015 32 393.769 31.2769 394.554 30.4C395.246 29.6307 395.8 28.8461 396.231 28.0769L398.323 29.2615V29.2461ZM411.046 37.1538V39.3538H409.108V40.2H411.477V42.4H409.108V44.6615C409.108 45.8461 408.908 46.6307 408.554 46.9692C408.138 47.4 407.431 47.6154 406.416 47.6154C405.6 47.6154 404.846 47.5231 404.154 47.3538L403.723 44.923C404.631 45.2 405.508 45.3384 406.416 45.3384C406.585 45.3384 406.677 45.0154 406.677 44.3231V42.4H402.123C402.646 43.0615 403.092 43.7538 403.477 44.4923L401.016 45.9384C400.6 44.9846 400.046 44.1077 399.338 43.2461L400.677 42.4H397.738V40.2H406.662V39.3538H398.415V37.1538H411.046ZM410.369 28.6769V36.5077H399.015V28.6769H410.369ZM408.016 31.5384V30.8461H401.354V31.5384H408.016ZM408.016 34.3231V33.5538H401.354V34.3231H408.016Z" fill="#595757"/>
<path d="M417.769 30.2615V28.2307H420.123V30.2615H422.231V32.5384H420.123V34.4615H422.477V36.7384H420.308V38.9999H422.738V41.3692H420.308V44.2153C420.862 44.4307 421.477 44.5846 422.123 44.6461C423.723 44.8153 425.831 44.9077 428.508 44.9077C430.231 44.9077 431.785 44.8153 433.123 44.6461L432.354 47.3384H428.523C425.446 47.3384 423.092 47.2153 421.492 47C420.2 46.8307 419.061 46.4615 418.092 45.923C417.569 45.6153 417.123 45.2769 416.708 44.8923C416.492 45.923 416.215 46.8461 415.862 47.6923L413.662 46.3384C414.077 45.4307 414.4 44.3846 414.615 43.1538C414.831 41.8615 414.985 40.0922 415.031 37.8461H417.292C417.292 39.3076 417.231 40.6307 417.139 41.7846C417.4 42.1538 417.677 42.4769 417.985 42.7538V36.7384H414.277V34.4615H417.815V32.5384H414.954V30.2615H417.815H417.769ZM432.323 28.7538C432.323 32.9384 432.061 35.2461 431.585 35.6461C431.2 36.1692 430.508 36.4 429.554 36.4C429.031 36.4 428.462 36.3538 427.785 36.2307L427.261 33.8C428.031 33.9692 428.723 34.0615 429.292 34.0615C429.461 34.0615 429.6 33.9692 429.661 33.7846C429.754 33.5692 429.831 32.6461 429.877 31.0307H427.292C427.138 32.523 426.815 33.6615 426.339 34.4769C425.754 35.5077 425 36.2461 424.077 36.6769L422.631 34.6461C423.4 34.3077 423.985 33.7846 424.338 33.123C424.615 32.6461 424.816 31.9384 424.923 31.0307H423.323V28.7692H432.308L432.323 28.7538ZM431.908 37.0769V43.9076H423.477V37.0769H431.908ZM429.554 41.6153V39.3538H425.846V41.6153H429.554Z" fill="#595757"/>
<path d="M50.2617 57.7231V67.8308C50.2617 69.7693 50.1078 71.5539 49.8309 73.1539C49.5694 74.6154 49.2307 75.8001 48.8461 76.7539L47 75.3077C47.3846 74.277 47.6924 73.0924 47.9078 71.7693C48.0771 70.4924 48.1846 69.1847 48.1846 67.8308V57.7231H50.2771H50.2617ZM52.7846 59.0924V73.9847H50.7846V59.0924H52.7846ZM55.5693 57.7231V75.7385H53.4002V57.7231H55.5693ZM66.8618 57.7231V59.9231H62.8308L62.5694 61.0924H66.3386V73.2308H64.6153C64.9538 73.5077 65.3079 73.7539 65.6925 73.9385C66.1848 74.2462 66.6771 74.477 67.1848 74.6462L65.9385 76.9385C65.3385 76.6308 64.7692 76.2924 64.2307 75.9077C63.5692 75.4308 62.9539 74.9231 62.4 74.3385L63.7387 73.2462H59.3847L60.723 74.3385C59.6922 75.3693 58.4462 76.2308 57.0154 76.9539L55.7384 74.7539C56.723 74.3693 57.6615 73.877 58.4923 73.2462H56.4922V61.1078H60.1385L60.3999 59.9385H56.1692V57.7385H66.8618V57.7231ZM63.9847 64.477V63.2924H58.8615V64.477H63.9847ZM63.9847 67.7539V66.5693H58.8615V67.7539H63.9847ZM63.9847 71.0308V69.8616H58.8615V71.0308H63.9847Z" fill="#595757"/>
<path d="M77.8154 70.8769L77 69.4769C77.6462 69.2154 78.231 68.7692 78.7387 68.0769H77.1694V65H80.4615V67.1538C80.4615 68.7231 79.5847 69.9692 77.8154 70.8769Z" fill="#595757"/>
<path d="M102.692 57.3848V59.4155H108V61.7848H102.692V63.6155H109.585V65.9848H102.261V69.0925C102.261 69.7848 102.2 70.3694 102.092 70.8001C103.508 69.8925 104.816 68.7386 105.969 67.3232L108.4 68.0771C106.846 70.1848 104.923 71.9078 102.646 73.277C100.108 74.7847 97.0615 76.0001 93.5077 76.9386L92.323 74.7386C94.9538 74.0771 97.231 73.2925 99.1541 72.3848C98.4618 72.3848 97.8156 72.2309 97.2156 71.954L96.7848 69.4309C97.4771 69.7694 98.1846 69.9232 98.8923 69.9232C99.2615 69.9232 99.523 69.8309 99.6461 69.6463C99.7538 69.4155 99.8155 69.0155 99.8155 68.5078V65.9848H91.3848V63.6155H94.9233V59.0925H97.2922V63.6155H100.246V57.3848H102.677H102.692ZM97.631 67.754C96.4618 69.4309 95.0923 70.754 93.5077 71.6924L91.7386 69.6925C93.4001 68.7078 94.6925 67.6001 95.6155 66.4001L97.6156 67.754H97.631Z" fill="#595757"/>
<path d="M119.431 60.5998V63.0306H112.108V60.5998H119.431ZM118.847 74.9844C119.231 73.4152 119.508 72.0306 119.662 70.8306C119.831 69.169 119.939 67.4921 119.939 65.8152V57.8152H131.293V73.9844C131.293 75.9383 130.416 76.9382 128.693 76.9382C128.201 76.9382 127.631 76.8767 127.016 76.769L126.493 74.3382C127.124 74.5536 127.693 74.6613 128.262 74.6613C128.755 74.6613 129.016 74.169 129.016 73.1536V60.0921H122.201V66.9382C122.201 68.8767 122.047 70.7383 121.785 72.5229C121.57 73.9844 121.247 75.4306 120.77 76.9382L118.831 75.769V76.2459H114.785V76.9382H112.431V69.6152H118.831V74.9998L118.847 74.9844ZM118.493 66.569V68.9383H112.616V66.569H118.493ZM118.585 63.6152V65.9844H112.708V63.6152H118.585ZM118.493 57.8152V60.0767H112.939V57.8152H118.493ZM116.478 73.9844V71.8767H114.801V73.9844H116.478ZM124.555 61.9229V60.4152H126.755V61.9229H128.355V63.9536H126.755V65.2306H128.693V67.2306H122.632V65.2306H124.555V63.9536H122.878V61.9229H124.555ZM128.431 73.8921H124.816V74.8152H122.708V67.9998H128.447V73.8767L128.431 73.8921ZM126.324 71.8613V70.0152H124.816V71.8613H126.324Z" fill="#595757"/>
<path d="M143.4 57.9077C143.169 58.5384 142.923 59.0923 142.692 59.5846H151.569V76.8461H149.046V75.5692H137.338V76.8461H134.815V59.5846H139.939C140.262 58.8153 140.538 57.9846 140.784 57.1538L143.385 57.9077H143.4ZM149.046 64.0461V61.9384H137.338V64.0461H149.046ZM149.046 68.5846V66.3846H137.338V68.5846H149.046ZM149.046 73.2307V70.9384H137.338V73.2307H149.046Z" fill="#595757"/>
<path d="M160.815 58.0771C160.692 58.5078 160.584 58.8924 160.476 59.2463H165.369V61.0155C165.353 61.1078 165.323 61.1386 165.323 61.1848H167.692C167.753 60.1232 167.8 58.9078 167.8 57.4771H170.261C170.261 58.8771 170.215 60.1078 170.169 61.1848H174.199V63.554H170.646C170.907 64.6155 171.277 65.5386 171.769 66.354C172.507 67.6001 173.476 68.6617 174.723 69.5232L173.015 71.6309C171.769 70.6463 170.738 69.3694 169.861 67.8155C169.63 67.4001 169.415 66.9694 169.215 66.5078C168.784 67.6309 168.23 68.5694 167.553 69.354C166.584 70.4309 165.415 71.2925 164.077 71.954L162.907 69.8617C164.03 69.2617 164.954 68.4771 165.692 67.5847C166.384 66.7232 166.877 65.6925 167.215 64.4771C167.277 64.2155 167.338 63.8924 167.415 63.554H164.554C163.907 65.3694 163.153 66.8309 162.307 67.9078C160.892 69.8001 159.199 71.1694 157.261 71.954L156.077 69.6925C157.215 69.2463 158.23 68.6155 159.092 67.8155C158.569 67.3386 158.061 66.9386 157.523 66.5694L158.861 64.8001C159.492 65.1848 160.061 65.6155 160.63 66.0924C160.8 65.8771 160.954 65.6617 161.077 65.4463C160.446 64.8924 159.8 64.3847 159.123 63.954L160.461 62.1848C161.046 62.5232 161.6 62.9232 162.138 63.3078C162.369 62.754 162.584 62.1386 162.769 61.5232H159.63C159.507 61.8617 159.353 62.1848 159.215 62.4924C158.584 63.8771 157.83 65.1232 156.938 66.2463L155.092 64.4001C155.892 63.3232 156.538 62.2309 157.046 61.1386C157.6 59.9386 158.076 58.6771 158.461 57.3848L160.815 58.0771ZM159.8 73.4001C158.984 74.9078 158.138 76.0771 157.276 76.9386L155.169 75.0924C156.184 74.1386 157 73.1386 157.63 72.0617L159.8 73.4155V73.4001ZM164.184 76.2463L161.661 76.9386C161.492 75.3847 161.215 73.9694 160.815 72.6309L163.169 72.0463C163.661 73.4463 164.015 74.8463 164.184 76.2463ZM169.4 76.2463L166.876 76.9386C166.707 75.3694 166.4 73.9232 165.953 72.5694L168.323 71.9694C168.846 73.3848 169.2 74.8309 169.4 76.2617V76.2463ZM174.63 75.4924L172.169 76.9386C171.677 75.5386 171 74.2155 170.169 72.9694L172.338 71.6309C173.261 72.8309 174.015 74.1232 174.615 75.4924H174.63ZM174.292 59.4924L172.353 61.0001C171.83 60.3078 171.261 59.6463 170.584 59.0001L172.523 57.6463C173.107 58.1694 173.692 58.7847 174.292 59.5078V59.4924Z" fill="#595757"/>
<path d="M184.708 57.6462V64.9693H182.862V67.3232H184.708V69.5232H182.862V72.477C183.462 72.3539 184.031 72.2001 184.569 72.0462L185.154 74.077C182.893 74.8924 180.308 75.6001 177.416 76.2462L176.4 73.8155C176.739 73.7693 177.062 73.7078 177.416 73.6462V66.4924H179.585V73.2155C179.892 73.1693 180.216 73.1078 180.508 73.0155V64.9847H177.462V57.6616H184.708V57.6462ZM182.354 62.7693V59.8309H179.831V62.7693H182.354ZM194.908 67.8308H191.4C191.57 68.8155 191.831 69.677 192.17 70.4155C192.4 70.2462 192.647 70.077 192.908 69.8616C193.508 69.3847 194.047 68.877 194.508 68.3385L196.185 69.7847C195.662 70.4155 195.062 71.0155 194.37 71.6155C194 71.8924 193.662 72.1385 193.339 72.3231C194.031 73.1693 195.046 74.0001 196.339 74.8154L194.739 76.7539C192.8 75.4155 191.462 74.0616 190.723 72.6308C190.015 71.3847 189.492 69.7847 189.2 67.8308H187.754V73.8924C188.739 73.677 189.677 73.4616 190.539 73.2308L190.954 75.3231C189.185 75.9231 187.231 76.4616 185.077 76.9385L184.231 74.5693C184.646 74.5078 185.031 74.4462 185.416 74.3539V57.7385H194.924V67.8462L194.908 67.8308ZM192.554 61.6924V59.9232H187.754V61.6924H192.554ZM192.554 65.6309V63.8616H187.754V65.6309H192.554Z" fill="#595757"/>
<path d="M205.4 62.1076V61.1845H207.769V62.1076H212.723V63.3537C213.631 62.8306 214.507 62.2768 215.338 61.6922L216.862 63.4614C216.016 64.0614 215.154 64.6306 214.292 65.1383H217.615V67.3076H210.154C209.769 67.4768 209.4 67.646 209.015 67.7999C208.585 67.9691 208.154 68.1383 207.738 68.323H215.323V76.923H212.969V76.2307H203.785V76.923H201.431V70.4768C200.692 70.6922 199.969 70.9076 199.231 71.1076L198.215 68.9383C200.2 68.4614 202.077 67.9229 203.815 67.3229H198.215V65.1537H205.369V64.3076H199.984V62.1076H205.369H205.4ZM202.385 58.5691V57.4768H204.815V58.5691H210.877V57.4768H213.339V58.5691H217.461V60.7691H213.339V61.6153H210.877V60.7691H204.815V61.6153H202.385V60.7691H198.339V58.5691H202.385ZM212.985 71.2768V70.4306H203.8V71.2768H212.985ZM212.985 74.1537V73.2306H203.8V74.1537H212.985ZM211.031 64.3076H207.769V65.1537H209.292C209.877 64.8922 210.462 64.6153 211.015 64.3076H211.031Z" fill="#595757"/>
<path d="M222.908 59.0922V57.4768H225.169V59.0922H228.215V61.2614H225.169V62.1845H228.031V70.7537H225.169V71.6768H228.385V73.8768H225.169V76.8307H222.908V73.8768H219.785V71.6768H222.908V70.7537H220.046V62.1845H222.908V61.2614H219.954V59.0922H222.908ZM223 65.4614V64.2922H222.154V65.4614H223ZM223 68.6768V67.3229H222.154V68.6768H223ZM225 65.4614H225.923V64.2922H225V65.4614ZM225 68.6768H225.923V67.3229H225V68.6768ZM232.015 61.3537C231.631 62.5537 231.2 63.646 230.738 64.5845C231.384 65.6614 231.938 66.7383 232.415 67.846L230.246 69.0153C229.723 67.5076 229.077 66.1076 228.308 64.8153C228.908 63.5229 229.446 62.1229 229.908 60.6153L232.015 61.3691V61.3537ZM238.739 69.2614V71.4614H234.939V74.323H239.169V76.5076H228.631V74.323H232.6V71.4614H229.154V69.2614H238.739ZM238.908 57.9845V60.1537H228.708V57.9845H238.908ZM235.369 61.3537C234.938 62.5537 234.508 63.646 234.062 64.5691C234.754 65.6307 235.354 66.7229 235.877 67.846L233.708 69.0153C233.154 67.5076 232.431 66.1076 231.6 64.8153C232.246 63.5229 232.8 62.1229 233.277 60.6153L235.384 61.3691L235.369 61.3537ZM238.739 61.3537C238.323 62.5537 237.892 63.646 237.431 64.5691C238.123 65.6307 238.738 66.7229 239.261 67.846L237.062 69.0153C236.508 67.5076 235.784 66.1076 234.954 64.8153C235.6 63.5229 236.185 62.1229 236.662 60.6153L238.754 61.3691L238.739 61.3537Z" fill="#595757"/>
<path d="M244.953 68.5848V67.5694C244.092 67.6617 243.215 67.7232 242.353 67.7386L241.938 65.8002C242.276 65.8002 242.646 65.8002 243 65.7848C243.154 65.4771 243.276 65.1848 243.415 64.8771H241.523V63.2771H242.8V57.6309H251.815V59.2309H245.077V59.6617H251.307V61.0002H245.077V61.4309H251.307V62.8463H245.077V63.2771H252.138V64.8771H251.015C251.446 65.4309 251.83 66.0002 252.138 66.554L250.292 67.6463C250.169 67.3386 250.015 67.0617 249.877 66.8002C248.8 67.0617 247.661 67.2463 246.477 67.3848H247.184V68.5694H249.969V70.6771H247.184V70.9079C248.307 71.6463 249.292 72.3232 250.138 73.0155L248.784 74.8617C248.246 74.2771 247.707 73.7386 247.184 73.2617V76.8002H244.984V73.5694C244.276 74.4155 243.43 75.1694 242.461 75.8771L241.123 74.2002C241.861 73.7079 242.646 73.0155 243.476 72.1079C243.923 71.6309 244.323 71.154 244.661 70.6617H241.615V68.554H244.969L244.953 68.5848ZM248.661 65.0617L248.938 64.8925H245.923C245.815 65.1694 245.707 65.4309 245.584 65.6617C246.707 65.5694 247.8 65.4617 248.861 65.2925C248.769 65.2002 248.707 65.1386 248.661 65.0617ZM253.553 68.6771C253 70.3848 252.261 71.8463 251.354 73.0463L249.507 71.954C250.369 70.7848 251.061 69.4771 251.538 68.0155L253.569 68.6771H253.553ZM255.892 70.9386C255.615 71.7386 255.246 72.5694 254.8 73.4309C254.63 73.7694 254.43 74.0925 254.261 74.354C255.03 74.2925 255.784 74.2002 256.569 74.1232C256.353 73.8155 256.123 73.5232 255.907 73.2155L257.753 72.0309C258.738 73.2309 259.569 74.4925 260.184 75.8155L258.184 77.0002C258.015 76.5848 257.815 76.2309 257.646 75.9079C255.446 76.3232 253.184 76.6002 250.861 76.754L250.169 74.6463C250.692 74.6463 251.2 74.6002 251.723 74.554C252.03 74.0617 252.277 73.5386 252.538 72.9848C252.969 72.0771 253.338 71.1232 253.63 70.1848L255.892 70.9386ZM259.692 58.9079C258.784 59.3848 257.8 59.7694 256.769 60.0771C255.846 60.3848 254.677 60.6617 253.292 60.9232L252.015 59.0002C253.353 58.7848 254.538 58.5232 255.569 58.2309C256.6 57.954 257.492 57.6463 258.246 57.3079L259.692 58.9233V58.9079ZM260.353 61.6002C259.369 62.1232 258.292 62.5694 257.123 62.9079C256.092 63.2463 254.815 63.5694 253.292 63.8617L252.015 61.9232C253.477 61.6617 254.8 61.3848 255.954 61.0617C257.092 60.7386 258.092 60.3694 258.923 59.9848L260.338 61.6002H260.353ZM260.877 64.5386C259.8 65.1232 258.661 65.6155 257.43 66.0309C256.353 66.4155 255.015 66.7694 253.384 67.0925L252.107 65.154C253.661 64.8463 255.061 64.5232 256.292 64.1694C257.492 63.8002 258.554 63.4002 259.43 62.9694L260.877 64.5694V64.5386ZM258.677 67.1694C258.8 68.2617 259.092 69.1232 259.477 69.7848C259.861 70.5232 260.384 71.1232 261.031 71.6309L259.261 73.2309C258.615 72.6771 258.061 71.9848 257.6 71.2002C257.261 70.6617 257 70.0156 256.784 69.2617H253.723V67.1694H258.677Z" fill="#595757"/>
<path d="M274.585 69.2002C274.031 69.754 273.339 70.0463 272.554 70.0463C271.77 70.0463 271.093 69.7694 270.523 69.2002C269.954 68.6309 269.677 67.9694 269.677 67.1694C269.677 66.3694 269.954 65.7079 270.523 65.1386C271.077 64.5848 271.754 64.2925 272.554 64.2925C273.354 64.2925 274.016 64.5694 274.585 65.1386C275.154 65.7079 275.431 66.3848 275.431 67.1694C275.431 67.954 275.154 68.6309 274.585 69.2002ZM273.262 66.4771C273.062 66.2771 272.831 66.1694 272.57 66.1694C272.293 66.1694 272.046 66.2771 271.877 66.4771C271.662 66.6771 271.57 66.9079 271.57 67.1694C271.57 67.4463 271.662 67.6925 271.877 67.8617C272.046 68.0771 272.293 68.1694 272.57 68.1694C272.831 68.1694 273.062 68.0771 273.262 67.8617C273.462 67.6925 273.57 67.4463 273.57 67.1694C273.57 66.9079 273.462 66.6771 273.262 66.4771Z" fill="#595757"/>
<defs>
<linearGradient id="paint0_linear_20_208443" x1="239.992" y1="222.453" x2="239.992" y2="390.71" gradientUnits="userSpaceOnUse">
<stop stop-color="white"/>
<stop offset="1" stop-color="white" stop-opacity="0.6"/>
</linearGradient>
</defs>
</svg>
