<svg width="480" height="454" viewBox="0 0 480 454" fill="none" xmlns="http://www.w3.org/2000/svg">
<path opacity="0.8" d="M436.87 0H43.1304C19.3101 0 0 19.2976 0 43.1024V410.898C0 434.702 19.3101 454 43.1304 454H436.87C460.69 454 480 434.702 480 410.898V43.1024C480 19.2976 460.69 0 436.87 0Z" fill="url(#paint0_linear_76_85373)"/>
<mask id="mask0_76_85373" style="mask-type:luminance" maskUnits="userSpaceOnUse" x="18" y="99" width="445" height="339">
<path d="M18 99V398.081C18 420.038 35.9619 438 57.9188 438H422.36C444.317 438 462.278 420.038 462.278 398.081V99H18Z" fill="white"/>
</mask>
<g mask="url(#mask0_76_85373)">
<path d="M688.598 -359.168C916.265 -251.288 832.541 249.168 479.837 511.055C127.133 772.943 -462.729 798.848 -627.112 595.77C-791.494 392.693 -304.99 374.777 -127.895 187.524C49.2159 0.271302 248.299 -567.82 688.582 -359.168H688.598Z" fill="#FDE9E4"/>
<path d="M148.44 97.5907L422.777 305.593C426.772 308.612 429.544 312.654 430.984 317.082C433.043 323.322 432.486 330.321 429.079 336.298C428.568 337.196 427.995 338.079 427.345 338.915L294.582 514.028C293.993 514.802 293.374 515.515 292.723 516.196C287.939 521.166 281.373 523.644 274.808 523.427C270.07 523.272 265.316 521.693 261.259 518.612L-13.0781 310.61C-17.1969 307.482 -20.0151 303.27 -21.4396 298.687C-22.9107 293.933 -22.8642 288.777 -21.2229 283.976C-20.4332 281.638 -19.2409 279.378 -17.6614 277.287L115.102 102.174C116.728 100.022 118.663 98.2101 120.8 96.7855C125.012 93.9518 129.998 92.5892 134.984 92.775C139.691 92.9454 144.414 94.5093 148.455 97.5752L148.44 97.5907Z" fill="#7C546D"/>
<path d="M119.119 120.25L0.801681 276.297C-6.27173 285.626 -4.4432 298.923 4.88581 305.996L260.901 500.111C270.23 507.185 283.527 505.356 290.6 496.027L408.918 339.98C415.992 330.651 414.163 317.354 404.834 310.281L148.819 116.165C139.49 109.092 126.193 110.921 119.119 120.25Z" fill="#643D58"/>
<path d="M11.0312 242.463L-3.41574 231.515C-5.84679 229.673 -7.42618 226.978 -7.84426 223.943C-8.26234 220.908 -7.47264 217.904 -5.63 215.458L58.8161 130.449C60.6587 128.017 63.353 126.438 66.388 126.02C69.4229 125.602 72.4269 126.392 74.8734 128.234L89.3204 139.182L11.0312 242.432V242.463ZM65.877 130.913C64.5608 131.331 63.3995 132.152 62.5324 133.282L-1.91375 218.292C-3.01314 219.732 -3.47764 221.528 -3.22989 223.324C-2.98214 225.12 -2.0531 226.715 -0.597568 227.814L10.1331 235.944L82.7859 140.111L72.0553 131.981C70.6152 130.882 68.819 130.418 67.0228 130.665C66.6357 130.712 66.2486 130.805 65.877 130.929V130.913Z" fill="#42312F"/>
<path d="M-2.23915 260.796L-111.234 178.172C-115.538 174.904 -116.39 168.757 -113.123 164.452L-19.3339 40.7474C-17.7545 38.657 -15.4473 37.3254 -12.8614 36.9537C-10.2755 36.5976 -7.68964 37.2789 -5.61473 38.8583L103.38 121.483L-2.25465 260.796H-2.23915ZM-13.0937 41.7539C-14.1002 42.0791 -14.9673 42.683 -15.6176 43.5501L-109.407 167.255C-110.243 168.354 -110.584 169.702 -110.398 171.064C-110.212 172.427 -109.5 173.635 -108.416 174.455L-3.13722 254.277L96.861 122.381L-8.41741 42.5591C-9.5168 41.7229 -10.8639 41.3823 -12.2266 41.5681C-12.5208 41.6146 -12.815 41.6765 -13.0937 41.7694V41.7539Z" fill="#42312F"/>
<path d="M429.404 363.659L421.027 374.699C418.874 377.549 414.988 378.462 411.783 376.867L402.306 372.145L421.878 346.332L428.986 354.183C431.386 356.83 431.556 360.81 429.404 363.659Z" fill="#42312F"/>
<path d="M316.585 -124.208L590.922 83.7941C594.917 86.8135 597.689 90.855 599.129 95.2835C601.188 101.524 600.631 108.523 597.224 114.5C596.713 115.398 596.14 116.28 595.49 117.117L462.727 292.23C462.138 293.004 461.519 293.716 460.868 294.397C456.084 299.368 449.518 301.845 442.953 301.629C438.215 301.474 433.461 299.894 429.404 296.813L155.067 88.811C150.948 85.6832 148.13 81.4714 146.705 76.888C145.234 72.1343 145.281 66.978 146.922 62.1779C147.712 59.8397 148.904 57.579 150.484 55.4886L283.247 -119.624C284.873 -121.777 286.808 -123.589 288.93 -125.013C293.141 -127.847 298.127 -129.209 303.113 -129.024C307.821 -128.853 312.543 -127.289 316.585 -124.223V-124.208Z" fill="#7C546D"/>
<path d="M577.063 118.154L458.747 274.206C451.671 283.543 438.369 285.37 429.048 278.294L173.029 84.1812C163.692 77.1048 161.864 63.8037 168.941 54.4821L287.257 -101.57C294.334 -110.907 307.635 -112.734 316.956 -105.658L572.975 88.4549C582.312 95.5313 584.14 108.832 577.063 118.154Z" fill="#643D58"/>
<path d="M190.712 113.134L181.441 125.362C180.03 127.222 180.395 129.874 182.255 131.284L209.746 152.128C211.606 153.539 214.258 153.174 215.668 151.314L224.939 139.086C226.35 137.226 225.985 134.574 224.125 133.164L196.634 112.32C194.774 110.909 192.122 111.274 190.712 113.134Z" fill="#42312F"/>
<path d="M367.991 247.558L358.72 259.785C357.309 261.645 357.674 264.297 359.534 265.708L387.025 286.551C388.885 287.962 391.537 287.597 392.948 285.737L402.219 273.509C403.629 271.649 403.265 268.997 401.404 267.587L373.914 246.743C372.053 245.332 369.402 245.697 367.991 247.558Z" fill="#42312F"/>
<path d="M60.039 144.106L7.84112 212.949C5.44104 216.124 0.919576 216.743 -2.23924 214.343C-5.41354 211.943 -6.03291 207.421 -3.63283 204.263L48.5651 135.419C50.9652 132.245 55.4866 131.625 58.6454 134.025C61.8197 136.425 62.4391 140.947 60.039 144.106Z" fill="#7C546D"/>
<path opacity="0.5" d="M458.686 247.093C458.686 247.093 451.935 260.549 446.345 262.237C440.739 263.925 433.245 263.243 425.828 254.092C418.411 244.941 423.273 231.314 430.907 231.485C438.541 231.64 458.701 247.093 458.701 247.093H458.686Z" fill="#B0C3DF"/>
<path d="M429.017 226.715L414.09 217.053C409.77 208.119 380.567 192.619 380.567 192.619C380.567 192.619 368.287 207.902 369.34 215.427C370.378 222.968 375.24 231.485 390.089 235.309C401.052 238.127 411.288 231.686 414.137 224.532L421.879 230.168C416.831 235.882 415.437 247.542 422.421 256.151C432.068 268.059 441.838 268.941 449.131 266.742C456.425 264.559 465.189 247.031 465.189 247.031C465.189 247.031 438.943 226.932 429.017 226.715ZM390.523 231.361C379.127 228.419 375.379 221.884 374.574 216.078C373.784 210.286 383.214 198.549 383.214 198.549C383.214 198.549 405.651 210.457 408.98 217.316C412.31 224.191 401.935 234.287 390.523 231.345V231.361ZM446.344 262.237C440.739 263.924 433.245 263.243 425.827 254.092C418.41 244.94 423.272 231.314 430.906 231.485C438.54 231.639 458.701 247.093 458.701 247.093C458.701 247.093 451.95 260.549 446.36 262.237H446.344Z" fill="#9D635B"/>
<path opacity="0.5" d="M390.523 231.361C379.127 228.419 375.38 221.884 374.574 216.078C373.785 210.286 383.215 198.549 383.215 198.549C383.215 198.549 405.652 210.457 408.981 217.316C412.31 224.191 401.935 234.287 390.523 231.345V231.361Z" fill="#B0C3DF"/>
<path d="M369.155 199.447C365.934 202.048 363.41 203.55 362.109 203.426C355.513 202.792 281.436 142.712 263.257 126.717C260.934 124.673 259.525 123.357 259.293 122.954C259.293 122.954 302.773 72.0568 304.678 68.356C306.582 64.6553 407.324 138.578 411.567 145.453C415.066 151.12 384.268 187.276 369.155 199.431V199.447Z" fill="#FCE1CB"/>
<path d="M389.021 343.344C383.183 344.428 374.295 331.049 363.719 322.068C353.143 313.087 311.846 287.646 309.833 281.344L312.234 277.876L316.709 271.434C316.709 271.434 317.452 270.118 318.598 268.275C320.177 265.782 322.531 262.345 324.807 260.053C326.123 258.737 327.408 257.792 328.508 257.638C332.936 256.987 352.478 274.701 358.687 279.672C362.388 282.629 378.553 293.887 391.762 303.038C400.758 309.278 408.392 314.543 409.739 315.518C413.099 317.934 394.827 342.26 389.005 343.344H389.021Z" fill="#BA987F"/>
<path d="M391.777 303.038C377.64 303.889 363.131 307.915 350.604 301.815C341.856 297.556 335.801 289.009 327.146 284.58C323.321 282.629 315.192 281.329 312.25 277.876L316.725 271.434C316.725 271.434 317.468 270.118 318.614 268.275L342.227 282.459C340.524 276.343 337.071 270.722 332.364 266.464C329.933 264.249 327.146 262.376 324.838 260.053C326.155 258.737 327.44 257.792 328.539 257.638C332.968 256.987 352.509 274.701 358.718 279.672C362.419 282.629 378.585 293.887 391.793 303.038H391.777Z" fill="#DABBA0"/>
<path d="M231.808 375.66C231.932 379.546 222.254 391.02 215.797 397.106C213.351 399.397 211.368 400.915 210.548 400.977C207.528 401.162 186.562 386.235 179.889 379.856C174.314 374.529 135.495 338.172 122.132 324.902C119.531 322.316 117.889 320.613 117.657 320.179C116.016 317.191 136.083 304.788 137.353 303.363C138.607 301.923 142.897 298.16 145.653 301.396C148.393 304.633 195.28 343.313 204.71 351.101C214.14 358.906 231.669 370.302 231.823 375.66H231.808Z" fill="#CC8639"/>
<path opacity="0.5" d="M210.765 382.891C210.796 386.421 212.933 389.518 214.45 392.708C215.085 394.055 215.596 395.588 215.797 397.106C213.351 399.397 211.369 400.915 210.548 400.977C207.529 401.163 186.563 386.236 179.889 379.856C174.315 374.529 135.495 338.172 122.132 324.902C122.845 318.615 135.65 323.849 140.265 322.44C142.727 321.697 144.709 319.436 147.279 319.436C149.385 319.436 151.135 320.984 152.683 322.44C167.44 336.205 183.218 348.887 199.849 360.315C205.562 364.248 212.066 369.296 211.741 376.217C211.632 378.462 210.781 380.646 210.796 382.906L210.765 382.891Z" fill="#EFB453"/>
<path d="M387.101 347.045C387.752 349.088 384.98 352.758 381.48 355.948C378.987 358.224 376.123 360.253 373.878 361.29C372.453 361.94 370.688 363.845 368.799 366.323C365.934 370.101 362.775 375.242 360.174 379.562C357.96 383.201 356.117 386.236 355.172 387.335C353.732 388.976 348.313 385.663 341.902 380.444C335.739 375.412 328.694 368.599 323.414 362.715C312.637 350.714 275.861 330.956 276.217 326.032C276.496 322.084 289.968 306.212 294.21 302.542C298.438 298.873 302.076 288.452 307.914 287.383C313.752 286.299 386.002 343.545 387.132 347.06L387.101 347.045Z" fill="#756A3A"/>
<path d="M335.105 351.349C342.305 361.693 350.728 371.185 360.158 379.546C357.944 383.185 356.101 386.22 355.157 387.32C353.717 388.961 348.297 385.647 341.887 380.429C341.422 379.082 340.942 377.766 340.4 376.481C335.306 364.573 324.591 356.165 314.294 348.314C307.759 343.328 309.075 340.634 301.008 339.039C296.332 338.126 282.628 334.611 290.711 328.262C295.929 324.174 298.732 329.377 303.842 331.375C308.533 333.202 313.21 335.044 317.901 336.871C320.859 338.033 323.847 339.194 326.402 341.083C330.026 343.747 332.534 347.649 335.105 351.349Z" fill="#868243"/>
<path d="M381.48 355.948C378.987 358.224 376.123 360.253 373.878 361.29C372.453 361.94 370.688 363.845 368.799 366.322C357.542 354.09 341.84 345.62 332.813 331.529C343.76 330.383 356.148 331.312 363.704 339.318C365.996 341.749 367.684 344.691 369.929 347.153C373.134 350.683 377.439 353.254 381.48 355.963V355.948Z" fill="#868243"/>
<path d="M276.357 314.388C271.2 317.578 267.577 327.983 261.739 329.082C255.902 330.166 226.791 299.306 219.87 294.568C212.948 289.814 175.336 259.387 173.865 256.739C172.038 253.457 177.659 251.676 177.659 251.676C177.659 251.676 186.284 232.723 189.319 232.522C190.31 232.46 192.725 234.055 195.822 236.455C202.279 241.41 211.725 249.756 217.64 253.596C225.816 258.923 277.053 295.698 284.858 302.031C285.4 302.48 285.74 302.774 285.833 302.898C287.211 304.772 281.528 311.213 276.372 314.403L276.357 314.388Z" fill="#BC5D59"/>
<path d="M284.857 302.016C284.857 302.016 284.826 302.109 284.81 302.17C283.727 304.896 279.685 304.029 276.96 302.898C272.036 300.839 266.787 299.569 261.475 299.136C253.919 298.516 246.316 299.585 238.76 299.043C231.203 298.501 223.245 295.977 218.739 289.891C214.697 284.441 214.109 277.148 210.64 271.31C208.565 267.842 205.53 264.977 203.796 261.338C202.697 259.015 202.155 256.476 201.566 253.968C200.204 248.099 197.726 242.277 195.806 236.439C202.263 241.394 211.709 249.74 217.624 253.58C225.799 258.907 277.037 295.682 284.841 302.016H284.857Z" fill="#E06257"/>
<path d="M258.255 338.605C257.62 339.612 256.784 340.68 255.762 341.795C255.236 342.368 254.554 343.282 253.765 344.443C252.681 346.038 251.396 348.082 249.971 350.312C247.943 353.517 245.651 357.14 243.344 360.423C239.689 365.641 236.004 370.008 233.279 370.565C226.76 371.866 212.669 347.029 203.905 341.331C195.141 335.632 149.818 297.278 147.557 292.896C146.737 291.285 147.511 289.551 148.781 287.832C150.685 285.277 153.736 282.738 154.463 280.663C155.176 278.603 158.164 273.354 161.447 269.452C163.677 266.789 166.046 264.76 167.935 264.791C172.58 264.853 187.538 277.845 199.074 284.968C210.61 292.106 254.554 328.277 257.775 331.111C260.175 333.232 260.113 335.694 258.271 338.605H258.255Z" fill="#BA987F"/>
<path d="M185.587 295.033C179.966 294.692 174.345 294.336 168.724 293.995C165.147 293.778 161.508 293.546 158.102 292.385C155.33 291.44 151.645 289.954 148.78 287.832C150.685 285.277 153.735 282.738 154.463 280.663C155.175 278.604 158.164 273.354 161.447 269.452C165.952 272.054 170.365 274.826 174.283 278.201C179.486 282.676 183.852 288.39 185.587 295.033Z" fill="#DABBA0"/>
<path d="M240.463 334.394C243.405 339.844 245.821 345.821 249.971 350.312C247.942 353.517 245.651 357.14 243.343 360.423C242.956 359.804 242.6 359.153 242.198 358.565C237.103 350.761 234.347 342.926 232.226 333.867C232.086 333.279 231.947 332.675 232.04 332.071C232.319 330.151 234.904 329.331 236.685 330.12C238.466 330.91 239.55 332.691 240.479 334.394H240.463Z" fill="#DABBA0"/>
<path d="M258.255 338.606C257.62 339.612 256.784 340.681 255.762 341.795C255.235 342.368 254.554 343.282 253.764 344.443C252.464 340.51 250.9 336.686 249.088 332.969C251.163 331.669 253.702 333.62 255.344 335.431C256.319 336.484 257.295 337.553 258.255 338.621V338.606Z" fill="#DABBA0"/>
<path d="M318.134 443.109C318.521 449.148 294.474 473.025 290.432 479.715C286.391 486.404 281.606 495.648 273.972 493.449C266.323 491.251 203.998 438.557 203.998 438.557C202.28 437.489 201.83 435.46 202.125 433.045C202.821 427.362 207.575 419.496 209.402 416.755C210.842 414.587 215.209 404.708 220.241 396.223C224.345 389.286 228.897 383.262 232.66 383.107C236.469 382.953 246.549 390.029 257.234 398.267C270.07 408.161 283.758 419.744 288.419 422.469C292.569 424.9 299.599 428.399 305.777 432.054C312.343 435.94 317.948 439.997 318.149 443.109H318.134Z" fill="#A44746"/>
<path d="M238.095 451.224C238.482 452.695 238.776 454.46 237.754 455.59C236.144 457.371 233.248 455.853 231.437 454.274C222.285 446.331 213.273 437.582 202.14 433.06C202.837 427.378 207.591 419.512 209.418 416.771C210.858 414.603 215.224 404.724 220.257 396.239C221.883 407.604 225.522 417.22 230.229 428.136C233.45 435.615 236.082 443.342 238.126 451.224H238.095Z" fill="#BC5D59"/>
<path d="M305.762 432.069C305.762 432.843 305.762 433.618 305.715 434.392C305.592 436.73 305.251 439.099 304.306 441.251C301.256 448.173 292.445 451.982 291.346 459.461C291.036 461.552 291.392 463.735 290.866 465.779C290.324 467.838 288.311 469.789 286.298 469.154C285.292 468.845 284.579 467.978 283.96 467.126C279.903 461.459 278.091 454.537 276.078 447.848C272.223 435.073 267.33 422.67 262.096 410.391C260.439 406.504 258.953 402.277 257.218 398.282C270.055 408.177 283.743 419.759 288.404 422.484C292.554 424.915 299.584 428.415 305.762 432.069Z" fill="#BC5D59"/>
<path d="M338.325 411.986C332.426 417.731 324.73 437.164 319.853 436.389C314.975 435.615 283.185 413.333 272.594 404.352C262.018 395.371 240.092 382.287 238.761 378.075C237.801 375.087 239.752 371.045 242.74 366.988C247.478 360.547 254.803 354.012 257.265 351.349C260.625 347.679 265.409 336.515 270.008 332.907C270.906 332.226 271.774 331.808 272.641 331.777C277.983 331.606 340.354 381.993 346.78 387.66C353.221 393.327 344.21 406.241 338.325 411.971V411.986Z" fill="#B0C3DF"/>
<path opacity="0.5" d="M338.325 411.986C332.426 417.731 324.73 437.164 319.853 436.389C314.975 435.615 283.185 413.333 272.594 404.352C262.018 395.371 240.092 382.287 238.761 378.075C237.801 375.087 239.752 371.045 242.74 366.988C245.156 369.234 246.302 374.483 250.312 377.549C267.283 390.602 284.238 403.655 301.209 416.693C308.053 421.973 317.189 427.455 324.699 423.166C325.117 419.837 325.551 416.492 325.969 413.163C302.742 399.97 281.916 382.581 264.79 362.095C273.756 360.934 280.228 369.899 286.112 376.759C297.029 389.518 312.823 397.988 329.499 400.017C333.03 400.45 337.752 399.769 338.387 396.254C338.728 394.427 337.675 392.646 336.622 391.098C319.976 366.539 294.365 349.986 270.024 332.876C270.922 332.195 271.789 331.777 272.656 331.746C277.998 331.575 340.369 381.962 346.795 387.629C353.237 393.296 344.225 406.21 338.341 411.939L338.325 411.986Z" fill="#6E7699"/>
<path d="M490.816 51.7415C477.592 74.132 426.246 133.112 419.944 135.125C414.834 136.751 393.899 119.795 381.264 107.609C375.426 101.957 371.369 97.3276 371.462 96.0269C371.648 93.3945 389.594 72.2583 408.083 51.5712C426.586 30.884 445.632 10.6459 447.97 9.90265C451.687 8.71035 475.842 26.5174 487.641 37.2791C490.645 40.0198 492.86 42.3115 493.727 43.7051C494.393 44.7736 493.247 47.6536 490.816 51.757V51.7415Z" fill="#B0C3DF"/>
<path opacity="0.5" d="M490.816 51.7415C477.592 74.1319 426.246 133.112 419.944 135.125C414.834 136.751 393.899 119.795 381.264 107.609C381.821 97.5288 384.934 87.7891 390.307 81.3166C392.567 78.5914 395.865 76.9655 399.102 75.5255C409.848 70.7563 421.105 67.1484 432.641 64.7948C452.136 60.8153 473.195 60.0875 490.831 51.7569L490.816 51.7415Z" fill="#91A5C3"/>
<path d="M5.98335 287.058C5.59624 281.004 64.2512 208.289 72.5044 200.252C80.7576 192.216 81.795 183.39 87.8494 183.018C93.9038 182.631 114.111 202.436 114.111 202.436C114.111 202.436 105.161 210.689 108.289 220.506C111.417 230.323 114.823 236.176 128.078 236.594C141.333 236.997 144.894 231.237 144.894 231.237C144.894 231.237 158.598 250.035 159.682 255.857C160.765 261.679 150.732 281.096 147.681 283.605C144.631 286.113 89.9088 342.151 87.0752 345.357C84.2415 348.578 74.9664 346.131 69.903 342.337C64.8396 338.544 5.98335 287.058 5.98335 287.058Z" fill="#EFB453"/>
<path d="M75.7092 218.292C76.8395 218.539 77.7067 219.453 77.8925 220.599C79.2087 229.115 84.7985 263.382 90.4658 266.309C95.8079 269.065 126.452 263.769 136.981 261.834C138.777 261.509 140.403 262.964 140.279 264.791L140.124 266.928C140.031 268.198 139.102 269.235 137.864 269.483C128.124 271.326 87.818 278.572 83.4049 273.199C79.2396 268.136 74.0369 233.296 72.3645 221.42C72.0858 219.499 73.8201 217.889 75.7247 218.292H75.7092Z" fill="#CC8639"/>
<path d="M68.7719 251.583C69.5151 252.017 70.0106 252.76 70.1345 253.612C70.8622 258.753 73.634 277.009 76.8083 278.65C79.0226 279.796 91.7353 280.911 101.583 281.623C106.26 281.964 108.396 287.616 105.114 290.96C104.138 291.967 102.807 292.555 101.397 292.602C94.0424 292.88 70.6455 293.283 68.7719 287.383C67.1305 282.227 63.9098 262.964 62.3304 253.132C61.9587 250.794 64.4672 249.075 66.5111 250.267L68.7719 251.583Z" fill="#CC8639"/>
<path d="M139.072 243.531C136.672 244.29 134.039 244.91 131.298 245.25C124.129 246.148 113.94 245.513 106.012 237.384C100.004 231.206 98.0844 222.209 100.469 211.355C102.234 203.334 105.672 197.187 105.827 196.923C106.245 196.18 107.189 195.917 107.948 196.335C108.691 196.753 108.954 197.698 108.536 198.456C108.397 198.689 95.4521 222.085 108.242 235.216C115.272 242.432 124.454 242.989 130.911 242.169C138.762 241.193 145.172 237.957 147.201 235.96C147.82 235.356 148.796 235.371 149.4 235.99C150.004 236.61 149.988 237.585 149.369 238.189C147.557 239.954 143.763 242.029 139.056 243.531H139.072Z" fill="#CC8639"/>
<path d="M256.242 124.75C256.366 137.541 299.459 163.477 299.459 163.477C299.459 163.477 306.938 183.731 313.395 187.849C319.852 191.968 340.462 204.96 350.743 201.677C361.025 198.41 395.369 157.608 401.099 146.522C406.828 135.435 442.024 100.548 437.518 89.6318C433.012 78.7153 388.912 37.1861 370.765 25.4799C352.617 13.7737 336.823 12.6279 329.948 16.8706C323.073 21.1133 285.492 71.1744 279.84 76.052C274.188 80.945 256.103 111.403 256.242 124.735V124.75Z" fill="#CFC7A0"/>
<path d="M401.687 148.379C401.098 148.565 400.448 148.472 399.922 148.085C399.751 147.961 383.539 135.682 374.125 128.513C364.695 121.313 341.174 102.174 340.942 101.988C340.105 101.307 339.982 100.083 340.663 99.2628C341.344 98.4267 342.567 98.3028 343.388 98.9841C343.62 99.1699 367.095 118.278 376.478 125.447C385.877 132.616 402.105 144.895 402.26 145.019C403.111 145.67 403.282 146.877 402.631 147.745C402.384 148.07 402.043 148.302 401.671 148.426L401.687 148.379Z" fill="#B8AE84"/>
<path d="M345.278 195.096C343.373 195.7 339.626 195.173 329.282 189.646C323.166 186.363 317.468 182.77 317.406 182.739C316.492 182.167 316.229 180.974 316.802 180.061C317.375 179.147 318.567 178.884 319.481 179.457C319.527 179.488 324.869 182.863 330.707 186.007C338.449 190.187 341.84 191.178 343.249 191.38C342.057 189.862 337.598 185.867 320.905 176.716C309.772 170.615 298.732 165.273 298.623 165.227C297.663 164.762 297.261 163.601 297.725 162.641C298.19 161.681 299.351 161.278 300.311 161.743C300.42 161.805 312.048 167.425 323.507 173.728C330.258 177.444 335.662 180.68 339.533 183.343C346.61 188.205 347.57 190.404 347.554 192.046C347.539 193.269 346.95 194.291 345.928 194.848C345.742 194.941 345.541 195.034 345.309 195.112L345.278 195.096Z" fill="#B8AE84"/>
<path d="M355.992 179.41C355.481 179.581 354.893 179.519 354.398 179.225C351.564 177.49 337.272 168.649 335.027 165.01C334.469 164.096 332.983 161.696 342.862 146.816C346.051 142.016 349.566 137.308 352.508 133.886C357.556 128.033 359.569 127.429 361.009 127.662C365.763 128.405 374.883 140.467 377.578 144.152C378.213 145.02 378.027 146.227 377.16 146.862C376.293 147.497 375.085 147.311 374.45 146.444C369.51 139.677 362.899 132.245 360.591 131.548C359.151 132.136 354.429 136.937 347.941 146.258C341.607 155.379 338.619 161.588 338.48 163.198C340.26 165.505 349.907 171.947 356.426 175.942C357.34 176.499 357.634 177.692 357.076 178.605C356.829 179.023 356.441 179.302 356.008 179.441L355.992 179.41Z" fill="#B8AE84"/>
<path d="M366.213 104.899C366.739 106.572 365.825 108.368 364.138 108.91C362.45 109.452 360.669 108.523 360.127 106.835C359.585 105.163 360.514 103.366 362.202 102.824C363.874 102.282 365.671 103.212 366.213 104.899Z" fill="#F0ECD2"/>
<path d="M379.405 115.614C379.947 117.287 379.018 119.083 377.33 119.625C375.658 120.167 373.862 119.238 373.32 117.55C372.778 115.878 373.707 114.081 375.395 113.54C377.082 112.998 378.863 113.927 379.405 115.614Z" fill="#F0ECD2"/>
<path d="M395.974 128.869C396.516 130.542 395.587 132.338 393.899 132.88C392.227 133.422 390.43 132.493 389.888 130.805C389.346 129.117 390.276 127.336 391.963 126.794C393.636 126.252 395.432 127.182 395.974 128.869Z" fill="#F0ECD2"/>
<path d="M276.016 60.8153C267.561 74.4881 269.156 110.35 286.994 121.127C304.832 131.904 336.869 125.819 343.45 120.647C350.031 115.46 342.165 100.471 342.165 100.471C342.165 100.471 361.412 99.4799 361.877 88.0214C362.341 76.5475 352.4 55.0242 339.471 46.7865C326.541 38.5488 290.277 37.7591 276.016 60.8308V60.8153Z" fill="#F0ECD2"/>
<path d="M280.259 67.6903C274.452 84.9864 281.544 110.505 299.181 114.159C316.802 117.813 342.165 100.471 342.165 100.471C342.165 100.471 344.751 69.7962 332.162 59.4061C319.589 49.0006 305.576 43.7824 294.319 50.4561C283.061 57.1299 280.259 67.7058 280.259 67.7058V67.6903Z" fill="#B8AE84"/>
<path d="M539.22 164.127C525.051 186.115 517.526 189.661 513.159 190.188C508.808 190.699 506.067 201.182 498.356 199.447C490.645 197.713 425.425 161.743 419.386 155.394C413.579 149.309 416.568 145.422 416.815 145.113C416.815 145.113 406.735 138.346 415.004 129.845C423.272 121.359 474.417 35.6223 481.726 37.1398C488.524 38.5334 499.038 52.7481 525.392 66.4053C541.093 74.5346 550.291 78.1115 556.036 81.5336C559.938 83.8562 562.26 86.1015 563.917 89.6629C568.052 98.4425 559.52 104.76 559.52 104.76C559.52 104.76 566.503 111.434 565.094 118.232C563.685 125.014 553.357 142.155 539.189 164.143L539.22 164.127Z" fill="#A29E56"/>
<path opacity="0.3" d="M539.22 164.127C525.051 186.115 517.526 189.661 513.159 190.187C508.808 190.698 506.068 201.181 498.356 199.447C490.645 197.713 425.425 161.743 419.386 155.394C413.579 149.309 416.568 145.422 416.816 145.112C416.816 145.112 482.237 181.934 488.276 182.538C494.315 183.142 489.515 179.07 496.343 166.682C503.157 154.279 544.283 107.33 553.852 95.9339C559.055 89.7402 558.049 84.7697 556.036 81.5334C559.938 83.8561 562.26 86.1013 563.917 89.6628C568.052 98.4424 559.52 104.76 559.52 104.76C559.52 104.76 566.503 111.434 565.094 118.231C563.685 125.014 553.357 142.155 539.189 164.143L539.22 164.127Z" fill="#868243"/>
<path d="M443.495 151.879C441.745 153.366 435.582 141.024 437.456 140.715C439.33 140.405 444.796 141.783 445.43 142.526C446.065 143.27 444.501 151.027 443.495 151.879Z" fill="#756A3A"/>
<path d="M461.132 126.624C463.207 125.664 465.901 139.182 463.996 138.996C462.107 138.795 457.214 136.023 456.796 135.14C456.378 134.258 459.939 127.181 461.132 126.64V126.624Z" fill="#756A3A"/>
<path d="M460.311 100.796C462.277 101.957 452.693 111.867 451.779 110.195C450.865 108.523 450.354 102.917 450.85 102.081C451.345 101.245 459.181 100.146 460.311 100.812V100.796Z" fill="#756A3A"/>
<path d="M443.108 121.375C443.448 123.636 429.714 122.381 430.442 120.616C431.169 118.851 435.211 114.949 436.186 114.81C437.162 114.67 442.922 120.09 443.108 121.375Z" fill="#756A3A"/>
<path d="M301.472 262.391C297.617 265.426 285.291 277.829 281.559 279.022C281.188 279.146 280.212 278.789 278.772 278.062C265.997 271.558 216.091 235.046 216.091 235.046C212.437 230.029 215.828 208.382 218.12 199.416C218.894 196.381 220.69 193.61 222.75 191.272C223.88 189.986 225.072 188.825 226.218 187.834C229.16 185.264 233.449 184.954 236.701 187.122C253.083 198.054 304.136 232.522 308.44 240.636C313.581 250.329 308.069 257.22 301.488 262.407L301.472 262.391Z" fill="#EFB453"/>
<path d="M289.24 257.886C288.775 258.025 288.264 257.963 287.846 257.653L226.342 212.408C225.645 211.897 225.506 210.921 226.017 210.24C226.528 209.543 227.503 209.404 228.185 209.915L289.689 255.16C290.386 255.671 290.525 256.647 290.014 257.328C289.813 257.607 289.534 257.793 289.24 257.886Z" fill="#CC8639"/>
<path d="M227.58 222.643C227.58 222.643 231.188 213.771 233.96 215.211C236.731 216.651 234.842 224.455 233.046 225.275C231.25 226.096 228.478 224.672 227.58 222.643Z" fill="#FCE1CB"/>
<path opacity="0.5" d="M301.472 262.392C297.616 265.426 285.291 277.83 281.559 279.022C281.187 279.146 280.212 278.79 278.772 278.062C280.041 276.235 282.024 274.624 283.882 273.37C291.469 268.183 299.521 262.531 302.804 253.953C303.299 252.636 303.686 251.212 303.454 249.834C303.16 248.177 302.045 246.799 300.914 245.544C287.319 230.416 268.289 221.265 253.563 207.236C247.276 201.259 241.253 194.074 232.783 192.185C229.5 191.457 226.109 191.612 222.765 191.256C223.895 189.971 225.087 188.81 226.233 187.819C229.175 185.248 233.464 184.939 236.716 187.106C253.099 198.038 304.151 232.507 308.455 240.62C313.596 250.314 308.084 257.204 301.503 262.392H301.472Z" fill="#CC8639"/>
<path d="M214.45 178.187L170.444 233.884L91.4888 172.597L95.4373 167.317L122.69 130.975L134.814 114.794L154.619 130.557L204.308 170.119L214.45 178.187Z" fill="#B0C3DF"/>
<path opacity="0.5" d="M214.45 178.187L170.444 233.885L91.4888 172.597L95.4373 167.317C95.5457 167.456 95.6696 167.596 95.778 167.735C108.723 183.684 125.462 196.536 144.213 204.944C147.217 206.276 151.537 207.097 153.086 204.201C153.984 202.513 153.303 200.454 152.621 198.658C145.452 179.968 138.267 161.278 131.098 142.589C129.193 137.649 125.508 134.428 122.705 130.96L134.83 114.779L154.619 130.542C161.014 148.581 167.378 166.589 173.757 184.629C174.795 187.555 176.529 190.993 179.626 191.039C181.051 191.055 182.351 190.281 183.559 189.506C189.737 185.48 195.296 180.541 200.019 174.874C201.382 173.248 202.729 171.498 204.308 170.104L214.45 178.172V178.187Z" fill="#6E7699"/>
<path d="M412 334.208L396.964 332.954L221.542 318.306L218.181 318.027L200.715 316.571L197.185 316.277L14.5152 301.025L-0.62854 299.755C-3.09056 295.543 -4.00416 290.619 -3.26091 285.835L11.759 286.934L191.378 300.08L194.862 300.328L212.065 301.582L215.89 301.861L395.122 314.992L410.142 316.091C413.44 321.495 414.152 328.185 412.015 334.192L412 334.208Z" fill="#FCE1CB"/>
<path d="M286.112 500.371C280.955 504.103 274.359 505.295 268.258 503.685L263.148 489.517L205.84 330.771L200.715 316.571L194.862 300.344L189.922 286.671L132.553 127.786L127.443 113.617C131.887 111.666 136.904 111.279 141.627 112.58L146.938 126.825L204.88 282.32L212.065 301.598L218.181 318.011L221.635 327.271L280.847 486.203L286.112 500.34V500.371Z" fill="#FCE1CB"/>
<path d="M202.635 331.483L224.422 326.667L208.767 281.189L186.888 287.538L202.635 331.483Z" fill="#5E5429"/>
<path d="M477.824 214.173C482.763 217.162 468.58 233.885 464.693 231.051C460.806 228.218 472.513 210.968 477.824 214.173Z" fill="#DABBA0"/>
<path d="M478.149 206.88C478.149 206.88 422.204 159.142 419.308 158.228C415.22 156.927 391.994 194.09 394.053 196.428C396.113 198.766 457.307 233.575 457.307 233.575C463.516 236.502 483.569 209.528 478.149 206.88Z" fill="#E06257"/>
<path d="M433.136 180.247C435.536 180.402 456.641 196.614 457.415 198.131C458.189 199.633 446.901 216.744 444.579 216.589C442.256 216.434 420.113 201.615 419.602 200.423C419.091 199.231 431.974 180.169 433.136 180.247Z" fill="#FDE9E4"/>
<path d="M402.554 198.131C402.446 198.131 402.322 198.1 402.213 198.054C401.609 197.822 401.315 197.156 401.532 196.552C406.828 182.632 421.352 163.926 421.956 163.137C422.358 162.626 423.086 162.533 423.597 162.935C424.108 163.338 424.201 164.066 423.799 164.577C423.644 164.763 408.887 183.808 403.7 197.388C403.514 197.884 403.034 198.162 402.538 198.131H402.554Z" fill="#A44746"/>
<path d="M508.328 164.902C508.328 164.902 452.383 117.163 449.488 116.25C445.4 114.949 422.173 152.112 424.232 154.45C426.292 156.788 487.486 191.597 487.486 191.597C493.696 194.523 513.748 167.55 508.328 164.902Z" fill="#E06257"/>
<path d="M463.3 138.284C465.7 138.439 486.805 154.651 487.58 156.169C488.354 157.671 477.066 174.781 474.743 174.626C472.42 174.487 450.278 159.653 449.767 158.46C449.256 157.268 462.139 138.207 463.3 138.284Z" fill="#FDE9E4"/>
<path d="M432.718 156.153C432.61 156.153 432.486 156.122 432.377 156.076C431.773 155.843 431.479 155.178 431.696 154.574C436.992 140.653 451.516 121.948 452.12 121.158C452.523 120.647 453.25 120.554 453.761 120.957C454.272 121.36 454.365 122.087 453.963 122.598C453.808 122.784 439.051 141.83 433.864 155.41C433.678 155.905 433.198 156.184 432.703 156.153H432.718Z" fill="#A44746"/>
<path d="M203.378 414.789C200.963 417.313 198.098 419.759 196.302 421.71C192.292 426.077 190.573 432.797 187.321 432.286C184.069 431.775 135.758 391.593 130.246 386.406C124.733 381.219 92.6805 360.547 91.3024 358.673C89.8778 356.707 91.2404 353.176 93.9037 349.135C95.3902 346.874 97.2638 344.459 99.2768 342.059C102.947 337.677 107.05 333.403 109.93 330.337C111.2 328.99 112.222 327.89 112.888 327.101C117.378 321.821 147.913 352.232 167.006 368.521C186.098 384.827 205.175 401.132 207.435 405.808C208.69 408.394 206.367 411.661 203.363 414.789H203.378Z" fill="#6E7699"/>
<path opacity="0.5" d="M99.2925 342.043C102.962 337.661 107.066 333.387 109.946 330.321C119.5 346.1 131.763 360.841 148.626 369.559C154.494 373.461 160.766 377.084 165.086 382.659C161.184 383.262 157.514 380.924 154.262 378.679C140.651 369.311 127.025 359.958 113.414 350.59C108.893 347.478 104.263 344.319 99.2925 342.058V342.043Z" fill="#91A5C3"/>
<path opacity="0.5" d="M203.378 414.789C200.963 417.313 198.098 419.759 196.302 421.71C192.292 426.077 190.573 432.797 187.321 432.286C184.069 431.775 135.758 391.593 130.246 386.406C124.733 381.219 92.6805 360.547 91.3024 358.673C89.8778 356.707 91.2404 353.176 93.9037 349.135C94.9876 350.172 96.1645 351.132 97.3103 351.969L147.743 389.069C160.27 398.283 173.215 407.697 188.297 411.506C184.983 404.569 181.669 397.632 178.371 390.711C183.977 395.774 189.582 400.822 195.203 405.885C198.191 408.58 201.257 411.429 203.363 414.789H203.378Z" fill="#91A5C3"/>
</g>
<path d="M255.256 241L308.517 259.204C312.355 260.516 314.424 264.709 313.107 268.562L288.468 340.651C287.156 344.49 282.963 346.559 279.11 345.242L225.849 327.038L255.251 241.015L255.256 241Z" fill="#127667"/>
<path d="M263.921 259.189C263.503 260.412 262.342 260.861 260.886 260.35L259.632 259.916L259.09 261.527L258.053 261.171L259.957 255.612L262.249 256.386C263.704 256.882 264.355 257.934 263.937 259.173L263.921 259.189ZM262.884 258.833C263.116 258.136 262.791 257.563 261.893 257.253L260.685 256.835L259.926 259.034L261.134 259.452C262.032 259.762 262.652 259.514 262.884 258.817V258.833Z" fill="#F2DD96"/>
<path d="M267.498 262.983L264.726 262.038L263.735 263.137L262.667 262.781L267.065 258.074L268.087 258.415L268.69 264.825L267.607 264.454L267.483 262.983H267.498ZM267.436 262.053L267.219 259.266L265.346 261.341L267.436 262.053Z" fill="#F2DD96"/>
<path d="M269.14 264.314L269.774 263.633C270.1 264.144 270.719 264.639 271.4 264.872C272.267 265.166 272.732 264.98 272.871 264.562C273.274 263.37 269.712 263.013 270.409 260.954C270.719 260.056 271.694 259.545 273.212 260.056C273.878 260.288 274.513 260.691 274.9 261.186L274.296 261.883C273.893 261.419 273.398 261.093 272.918 260.923C272.066 260.629 271.602 260.846 271.447 261.264C271.044 262.441 274.606 262.797 273.909 264.841C273.599 265.723 272.624 266.25 271.091 265.723C270.223 265.429 269.449 264.856 269.124 264.299L269.14 264.314Z" fill="#F2DD96"/>
<path d="M274.126 266.017L274.761 265.336C275.086 265.847 275.705 266.342 276.387 266.574C277.254 266.869 277.718 266.683 277.858 266.265C278.26 265.072 274.699 264.716 275.396 262.657C275.705 261.759 276.681 261.248 278.198 261.759C278.864 261.991 279.499 262.394 279.886 262.889L279.282 263.586C278.879 263.121 278.384 262.796 277.904 262.626C277.052 262.332 276.588 262.549 276.433 262.967C276.03 264.143 279.592 264.5 278.895 266.544C278.585 267.426 277.61 267.953 276.077 267.426C275.21 267.132 274.436 266.559 274.11 266.017H274.126Z" fill="#F2DD96"/>
<path d="M285.259 266.482C284.841 267.705 283.679 268.154 282.224 267.643L280.97 267.209L280.428 268.82L279.39 268.464L281.295 262.905L283.586 263.679C285.042 264.175 285.692 265.227 285.274 266.466L285.259 266.482ZM284.221 266.126C284.454 265.429 284.128 264.856 283.23 264.546L282.023 264.128L281.264 266.342L282.472 266.76C283.37 267.07 283.989 266.822 284.221 266.126Z" fill="#F2DD96"/>
<path d="M285.708 267.535C286.266 265.894 287.954 265.119 289.672 265.708C291.391 266.296 292.258 267.938 291.685 269.594C291.128 271.251 289.44 272.025 287.721 271.437C286.003 270.849 285.151 269.192 285.708 267.55V267.535ZM290.648 269.223C291.035 268.092 290.478 266.993 289.363 266.606C288.248 266.219 287.133 266.761 286.746 267.891C286.359 269.021 286.916 270.136 288.031 270.508C289.146 270.895 290.261 270.353 290.648 269.223Z" fill="#F2DD96"/>
<path d="M295.463 273.976L294.89 271.963C294.89 271.963 294.751 271.917 294.673 271.901L293.419 271.468L292.862 273.094L291.824 272.737L293.729 267.178L296.02 267.953C297.476 268.448 298.126 269.501 297.708 270.74C297.414 271.576 296.779 272.056 295.928 272.087L296.578 274.348L295.463 273.961V273.976ZM295.664 268.82L294.457 268.402L293.698 270.616L294.906 271.034C295.804 271.344 296.423 271.096 296.655 270.399C296.888 269.702 296.562 269.129 295.664 268.82Z" fill="#F2DD96"/>
<path d="M300.279 270.384L298.436 269.749L298.73 268.882L303.438 270.492L303.143 271.359L301.301 270.724L299.706 275.401L298.668 275.045L300.263 270.368L300.279 270.384Z" fill="#F2DD96"/>
<mask id="mask1_76_85373" style="mask-type:luminance" maskUnits="userSpaceOnUse" x="254" y="279" width="33" height="33">
<path d="M285.197 300.842C282.379 309.126 273.382 313.554 265.098 310.752C256.814 307.934 252.386 298.937 255.188 290.653C258.006 282.369 267.003 277.94 275.287 280.743C283.571 283.561 288 292.558 285.197 300.842Z" fill="white"/>
</mask>
<g mask="url(#mask1_76_85373)">
<path d="M255.494 289.941L254.976 291.466L284.983 301.675L285.502 300.151L255.494 289.941Z" fill="#F2DD96"/>
<path d="M274.499 280.42L264.3 310.431L265.825 310.949L276.024 280.938L274.499 280.42Z" fill="#F2DD96"/>
<path d="M264.402 311.139C264.185 310.752 258.967 301.446 261.863 292.914C264.758 284.382 274.56 280.186 274.978 280L275.597 281.486C275.504 281.533 266.043 285.59 263.38 293.425C260.717 301.26 265.734 310.241 265.796 310.334L264.402 311.123V311.139Z" fill="#F2DD96"/>
<path d="M250.914 304.945L250.249 303.474C250.62 303.304 259.477 299.417 267.963 302.297C267.963 302.297 267.978 302.297 267.994 302.297C276.464 305.193 281.094 313.647 281.279 314.019L279.855 314.778C279.808 314.7 275.318 306.509 267.452 303.815C267.452 303.815 267.436 303.815 267.421 303.815C259.555 301.136 250.976 304.899 250.883 304.945H250.914Z" fill="#F2DD96"/>
<path d="M272.098 290.064C263.628 287.169 258.998 278.714 258.812 278.343L260.237 277.584C260.283 277.661 264.773 285.853 272.64 288.547C272.64 288.547 272.655 288.547 272.671 288.547C280.537 291.226 289.115 287.463 289.208 287.417L289.874 288.888C289.502 289.058 280.645 292.945 272.16 290.064C272.16 290.064 272.144 290.064 272.129 290.064H272.098Z" fill="#F2DD96"/>
<path d="M265.408 311.495L264.789 310.009C264.882 309.962 274.343 305.905 277.006 298.07C279.67 290.235 274.653 281.254 274.591 281.161L275.984 280.356C276.201 280.743 281.419 290.049 278.524 298.581C275.628 307.113 265.827 311.309 265.408 311.495Z" fill="#F2DD96"/>
</g>
<path d="M285.197 300.842C282.379 309.126 273.382 313.554 265.098 310.752C256.814 307.934 252.386 298.937 255.188 290.653C258.006 282.369 267.003 277.94 275.287 280.743C283.571 283.561 288 292.558 285.197 300.842Z" stroke="#F2DD96" stroke-width="1.36" stroke-miterlimit="10"/>
<path d="M271.128 319.437L208.975 342.44C207.884 342.844 207.327 344.056 207.731 345.146L216.615 369.151C217.019 370.241 218.23 370.798 219.321 370.395L281.474 347.391C282.565 346.988 283.122 345.776 282.718 344.685L273.834 320.681C273.43 319.59 272.219 319.033 271.128 319.437Z" fill="#D1CFC5"/>
<path d="M274.481 332.957L215.232 354.885C214.743 355.066 214.493 355.61 214.674 356.099L214.749 356.302C214.93 356.791 215.474 357.041 215.963 356.86L275.212 334.932C275.701 334.751 275.951 334.207 275.769 333.718L275.694 333.515C275.513 333.026 274.97 332.776 274.481 332.957Z" fill="#7F7F7F"/>
<path d="M245.387 336.239C246.006 337.896 245.154 339.738 243.497 340.358C241.841 340.977 239.998 340.125 239.379 338.469C238.759 336.812 239.611 334.969 241.268 334.35C242.924 333.73 244.767 334.582 245.387 336.239Z" fill="white"/>
<path d="M217.902 346.412C218.521 348.069 217.669 349.911 216.013 350.531C214.356 351.15 212.513 350.299 211.894 348.642C211.274 346.985 212.126 345.142 213.783 344.523C215.44 343.903 217.282 344.755 217.902 346.412Z" fill="white"/>
<path d="M231.652 341.333C232.271 342.99 231.419 344.833 229.763 345.452C228.106 346.072 226.263 345.22 225.644 343.563C225.024 341.906 225.876 340.064 227.533 339.444C229.19 338.825 231.032 339.677 231.652 341.333Z" fill="white"/>
<path d="M259.137 331.16C259.756 332.817 258.904 334.659 257.247 335.279C255.591 335.898 253.748 335.047 253.129 333.39C252.509 331.733 253.361 329.89 255.018 329.271C256.674 328.652 258.517 329.503 259.137 331.16Z" fill="white"/>
<path d="M272.886 326.066C273.506 327.722 272.654 329.565 270.997 330.184C269.341 330.804 267.498 329.952 266.879 328.295C266.259 326.638 267.111 324.796 268.768 324.176C270.424 323.557 272.267 324.409 272.886 326.066Z" fill="white"/>
<path d="M251.022 351.46C251.641 353.117 250.79 354.959 249.133 355.579C247.476 356.198 245.633 355.346 245.014 353.69C244.394 352.033 245.246 350.19 246.903 349.571C248.56 348.951 250.402 349.803 251.022 351.46Z" fill="white"/>
<path d="M223.522 361.633C224.142 363.29 223.29 365.133 221.633 365.752C219.976 366.371 218.134 365.52 217.514 363.863C216.895 362.206 217.747 360.363 219.403 359.744C221.06 359.125 222.903 359.976 223.522 361.633Z" fill="white"/>
<path d="M237.272 356.554C237.892 358.211 237.04 360.054 235.383 360.673C233.726 361.292 231.884 360.441 231.264 358.784C230.645 357.127 231.497 355.284 233.153 354.665C234.81 354.046 236.653 354.897 237.272 356.554Z" fill="white"/>
<path d="M264.773 346.366C265.393 348.023 264.541 349.865 262.884 350.485C261.227 351.104 259.385 350.252 258.765 348.596C258.146 346.939 258.998 345.096 260.654 344.477C262.311 343.857 264.154 344.709 264.773 346.366Z" fill="white"/>
<path d="M278.523 341.287C279.143 342.944 278.291 344.786 276.634 345.406C274.977 346.025 273.135 345.173 272.515 343.516C271.896 341.86 272.748 340.017 274.404 339.398C276.061 338.778 277.904 339.63 278.523 341.287Z" fill="white"/>
<path d="M252.967 315.691L281.299 305.206C282.388 304.802 283.602 305.36 284.005 306.45L285.709 311.053L253.427 323.001L251.723 318.397C251.32 317.308 251.878 316.095 252.967 315.691Z" fill="white"/>
<path d="M255.824 322.119L283.342 311.934L294.833 342.982C295.435 344.608 294.608 346.433 292.967 347.041L271.359 355.038C269.732 355.64 267.907 354.813 267.3 353.172L255.809 322.125L255.824 322.119Z" fill="#E97429"/>
<path d="M261.281 322.111L260.947 322.235C260.209 322.508 259.832 323.327 260.105 324.065L270.274 351.54C270.547 352.278 271.367 352.655 272.105 352.382L272.439 352.258C273.176 351.985 273.553 351.165 273.28 350.428L263.111 322.952C262.838 322.215 262.019 321.838 261.281 322.111Z" fill="white"/>
<path d="M256.551 314.377L254.677 315.07L257.112 321.648L258.985 320.955L256.551 314.377Z" fill="#D1CFC5"/>
<path d="M260.409 312.942L258.536 313.635L260.97 320.214L262.844 319.521L260.409 312.942Z" fill="#D1CFC5"/>
<path d="M264.274 311.517L262.4 312.21L264.835 318.789L266.708 318.095L264.274 311.517Z" fill="#D1CFC5"/>
<path d="M268.138 310.081L266.265 310.775L268.699 317.353L270.573 316.66L268.138 310.081Z" fill="#D1CFC5"/>
<path d="M271.987 308.661L270.114 309.354L272.548 315.933L274.422 315.239L271.987 308.661Z" fill="#D1CFC5"/>
<path d="M275.852 307.241L273.979 307.934L276.414 314.513L278.287 313.819L275.852 307.241Z" fill="#D1CFC5"/>
<path d="M279.696 305.791L277.823 306.484L280.257 313.063L282.131 312.369L279.696 305.791Z" fill="#D1CFC5"/>
<path d="M44.269 43.1957V28.1323H49.9578C50.9508 28.1323 51.725 28.1829 52.2467 28.2838C52.9872 28.4017 53.61 28.6373 54.0981 28.9907C54.603 29.3441 55.0069 29.8154 55.3099 30.4382C55.6128 31.0609 55.7643 31.7509 55.7643 32.4915C55.7643 33.7706 55.3604 34.8477 54.5357 35.7398C53.7278 36.6318 52.2467 37.0694 50.1261 37.0694H46.2719V43.1957H44.2859H44.269ZM46.255 35.3021H50.1429C51.422 35.3021 52.3477 35.0665 52.8863 34.5784C53.4248 34.1072 53.6942 33.4171 53.6942 32.5588C53.6942 31.936 53.5427 31.3975 53.2229 30.943C52.9031 30.4886 52.4824 30.2025 51.9606 30.051C51.624 29.9669 51.0013 29.9164 50.1092 29.9164H46.255V35.3021Z" fill="#595757"/>
<path d="M65.1725 41.8491C64.4824 42.4382 63.8261 42.8421 63.2033 43.0777C62.5638 43.3133 61.8906 43.4312 61.1669 43.4312C59.9719 43.4312 59.0462 43.145 58.4066 42.5559C57.7671 41.9669 57.4473 41.2264 57.4473 40.3175C57.4473 39.7789 57.5651 39.2909 57.8175 38.8533C58.0532 38.4157 58.373 38.0622 58.7769 37.7929C59.1808 37.5236 59.6184 37.3216 60.1065 37.187C60.4768 37.086 61.0153 37.0019 61.7559 36.9177C63.2538 36.7326 64.3478 36.5307 65.0547 36.2782C65.0547 36.0257 65.0547 35.8574 65.0547 35.7901C65.0547 35.0327 64.8864 34.511 64.533 34.1912C64.0617 33.7704 63.3548 33.5685 62.4291 33.5685C61.554 33.5685 60.9144 33.7199 60.5104 34.0229C60.0897 34.3258 59.7867 34.8644 59.5848 35.6386L57.7839 35.3862C57.9522 34.612 58.2215 33.9892 58.5918 33.518C58.9621 33.0467 59.5175 32.6764 60.2243 32.424C60.9312 32.1715 61.7559 32.0369 62.6984 32.0369C63.6409 32.0369 64.3814 32.1547 64.9705 32.3735C65.5596 32.5923 65.9804 32.8616 66.2497 33.1982C66.5189 33.5348 66.7209 33.9556 66.8219 34.4605C66.8892 34.7802 66.9229 35.3525 66.9229 36.1604V38.6176C66.9229 40.3343 66.9565 41.4283 67.0407 41.8827C67.1248 42.3372 67.2763 42.7748 67.5119 43.1955H65.5764C65.3913 42.8084 65.2567 42.3708 65.2062 41.8491H65.1725ZM65.021 37.7256C64.3478 37.9949 63.338 38.2305 62.0084 38.4325C61.251 38.5335 60.7124 38.6681 60.3926 38.8028C60.0728 38.9374 59.8372 39.1394 59.6689 39.4086C59.5006 39.6779 59.4165 39.964 59.4165 40.2838C59.4165 40.7719 59.6016 41.1927 59.9718 41.5125C60.3421 41.8491 60.8975 42.0006 61.6044 42.0006C62.3113 42.0006 62.9509 41.8491 63.5063 41.5293C64.0617 41.2095 64.4656 40.7888 64.7349 40.2502C64.9369 39.8294 65.0379 39.2235 65.0379 38.3988V37.7256H65.021Z" fill="#595757"/>
<path d="M69.0269 39.9472L70.8614 39.6611C70.9624 40.4016 71.2485 40.957 71.7198 41.3441C72.191 41.7313 72.8474 41.9332 73.6889 41.9332C74.5305 41.9332 75.17 41.7649 75.574 41.4115C75.9779 41.058 76.1967 40.6541 76.1967 40.1997C76.1967 39.7789 76.0115 39.4591 75.6581 39.2067C75.4056 39.0384 74.7661 38.8364 73.7731 38.584C72.4098 38.2474 71.4841 37.9444 70.9456 37.692C70.4238 37.4395 70.0198 37.1029 69.7506 36.6485C69.4813 36.2109 69.3466 35.7227 69.3466 35.1842C69.3466 34.6961 69.4645 34.2417 69.6833 33.8377C69.9021 33.417 70.205 33.0804 70.5921 32.8111C70.8782 32.5923 71.2653 32.424 71.7702 32.2725C72.2752 32.121 72.7969 32.0537 73.3692 32.0537C74.2275 32.0537 74.9849 32.1715 75.6244 32.424C76.264 32.6764 76.7521 32.9962 77.0551 33.4338C77.358 33.8546 77.5768 34.41 77.6946 35.1169L75.8937 35.3693C75.8096 34.8139 75.5739 34.3763 75.1868 34.0565C74.7997 33.7368 74.2443 33.5853 73.5206 33.5853C72.6791 33.5853 72.0732 33.7199 71.7029 34.0061C71.3326 34.2922 71.1644 34.612 71.1644 34.9991C71.1644 35.2347 71.2316 35.4535 71.3831 35.6386C71.5346 35.8406 71.7702 36.0089 72.09 36.1267C72.2752 36.194 72.8137 36.3455 73.7226 36.598C75.0354 36.9514 75.9442 37.2375 76.466 37.4563C76.9877 37.6751 77.3917 37.9949 77.6778 38.4325C77.9639 38.8533 78.1153 39.3918 78.1153 40.0146C78.1153 40.6373 77.9302 41.2095 77.5768 41.7481C77.2234 42.2867 76.7016 42.7075 76.0284 43.0104C75.3551 43.3134 74.5809 43.4648 73.7226 43.4648C72.3088 43.4648 71.2317 43.1787 70.4743 42.5896C69.7338 42.0006 69.2625 41.1254 69.0437 39.9641L69.0269 39.9472Z" fill="#595757"/>
<path d="M79.5459 39.9472L81.3804 39.6611C81.4814 40.4016 81.7675 40.957 82.2388 41.3441C82.71 41.7313 83.3665 41.9332 84.208 41.9332C85.0495 41.9332 85.6891 41.7649 86.093 41.4115C86.4969 41.058 86.7157 40.6541 86.7157 40.1997C86.7157 39.7789 86.5306 39.4591 86.1771 39.2067C85.9247 39.0384 85.2851 38.8364 84.2921 38.584C82.9288 38.2474 82.0032 37.9444 81.4646 37.692C80.9429 37.4395 80.5389 37.1029 80.2696 36.6485C80.0003 36.2109 79.8657 35.7227 79.8657 35.1842C79.8657 34.6961 79.9835 34.2417 80.2023 33.8377C80.4211 33.417 80.724 33.0804 81.1111 32.8111C81.3972 32.5923 81.7844 32.424 82.2893 32.2725C82.7942 32.121 83.316 32.0537 83.8882 32.0537C84.7466 32.0537 85.5039 32.1715 86.1435 32.424C86.7831 32.6764 87.2711 32.9962 87.5741 33.4338C87.877 33.8546 88.0958 34.41 88.2136 35.1169L86.4128 35.3693C86.3286 34.8139 86.093 34.3763 85.7059 34.0565C85.3188 33.7368 84.7634 33.5853 84.0397 33.5853C83.1981 33.5853 82.5922 33.7199 82.2219 34.0061C81.8517 34.2922 81.6834 34.612 81.6834 34.9991C81.6834 35.2347 81.7507 35.4535 81.9022 35.6386C82.0536 35.8406 82.2893 36.0089 82.6091 36.1267C82.7942 36.194 83.3328 36.3455 84.2416 36.598C85.5544 36.9514 86.4633 37.2375 86.985 37.4563C87.5068 37.6751 87.9107 37.9949 88.1968 38.4325C88.4829 38.8533 88.6344 39.3918 88.6344 40.0146C88.6344 40.6373 88.4493 41.2095 88.0958 41.7481C87.7424 42.2867 87.2206 42.7075 86.5474 43.0104C85.8742 43.3134 85.1 43.4648 84.2416 43.4648C82.8279 43.4648 81.7507 43.1787 80.9934 42.5896C80.2528 42.0006 79.7815 41.1254 79.5627 39.9641L79.5459 39.9472Z" fill="#595757"/>
<path d="M90.8056 47.3863V32.2893H92.4887V33.7031C92.8926 33.1477 93.3302 32.7269 93.8351 32.4576C94.3401 32.1883 94.9459 32.0369 95.6528 32.0369C96.5785 32.0369 97.4032 32.2725 98.1101 32.7606C98.8169 33.2318 99.3556 33.9219 99.7258 34.7971C100.096 35.6723 100.264 36.6316 100.264 37.6751C100.264 38.7859 100.062 39.7958 99.6585 40.6878C99.2546 41.5798 98.6823 42.2699 97.9081 42.7411C97.1339 43.2124 96.3429 43.448 95.5013 43.448C94.8786 43.448 94.3401 43.3134 93.8351 43.0609C93.3302 42.8084 92.9431 42.4718 92.6233 42.0679V47.3863H90.772H90.8056ZM92.4718 37.8097C92.4718 39.2067 92.758 40.2502 93.3302 40.9234C93.9024 41.5966 94.5925 41.9332 95.4004 41.9332C96.2082 41.9332 96.9319 41.5798 97.5042 40.8897C98.0933 40.1997 98.3794 39.1225 98.3794 37.6583C98.3794 36.194 98.0932 35.2347 97.521 34.5278C96.9487 33.8378 96.2587 33.4843 95.4677 33.4843C94.6766 33.4843 93.9866 33.8546 93.3807 34.5951C92.7748 35.3357 92.4718 36.396 92.4718 37.8097Z" fill="#595757"/>
<path d="M101.813 37.7424C101.813 35.7228 102.368 34.2248 103.496 33.2487C104.439 32.4408 105.583 32.0369 106.929 32.0369C108.427 32.0369 109.656 32.525 110.615 33.518C111.575 34.4941 112.046 35.8574 112.046 37.591C112.046 38.9879 111.827 40.0987 111.406 40.9066C110.986 41.7145 110.38 42.3372 109.572 42.7748C108.764 43.2124 107.889 43.448 106.929 43.448C105.398 43.448 104.169 42.9599 103.227 41.9837C102.284 41.0075 101.813 39.5938 101.813 37.7592V37.7424ZM103.715 37.7424C103.715 39.1394 104.018 40.1828 104.624 40.8729C105.23 41.5629 106.004 41.9164 106.929 41.9164C107.855 41.9164 108.613 41.5629 109.218 40.8729C109.824 40.166 110.127 39.1057 110.127 37.6751C110.127 36.3287 109.824 35.302 109.202 34.6119C108.596 33.9219 107.821 33.5685 106.913 33.5685C106.004 33.5685 105.23 33.9219 104.607 34.6119C103.984 35.302 103.698 36.3455 103.698 37.7424H103.715Z" fill="#595757"/>
<path d="M114.183 43.1955V32.2893H115.85V33.9387C116.27 33.1645 116.657 32.6596 117.028 32.4071C117.381 32.1547 117.785 32.0369 118.206 32.0369C118.829 32.0369 119.468 32.2388 120.108 32.6259L119.468 34.3426C119.014 34.0734 118.559 33.9387 118.105 33.9387C117.701 33.9387 117.331 34.0565 117.011 34.309C116.691 34.5615 116.455 34.8812 116.321 35.3188C116.119 35.9752 116.018 36.6989 116.018 37.4731V43.1787H114.167L114.183 43.1955Z" fill="#595757"/>
<path d="M125.241 41.5461L125.51 43.1786C124.989 43.2796 124.517 43.3469 124.113 43.3469C123.44 43.3469 122.918 43.2459 122.548 43.0272C122.178 42.8084 121.925 42.5391 121.774 42.1856C121.622 41.8322 121.555 41.1085 121.555 39.9977V33.7199H120.192V32.2893H121.555V29.5964L123.39 28.4856V32.2893H125.241V33.7199H123.39V40.0987C123.39 40.6204 123.423 40.957 123.491 41.1085C123.558 41.26 123.659 41.3778 123.811 41.4619C123.962 41.5461 124.164 41.5965 124.45 41.5965C124.652 41.5965 124.921 41.5798 125.258 41.5293L125.241 41.5461Z" fill="#595757"/>
<path d="M127.53 43.1956V41.0918H129.634V43.1956C129.634 43.9698 129.499 44.5926 129.23 45.0638C128.961 45.5351 128.523 45.9053 127.917 46.1746L127.396 45.3836C127.783 45.2153 128.069 44.9628 128.254 44.6262C128.439 44.2896 128.54 43.8183 128.557 43.1956H127.513H127.53Z" fill="#595757"/>
<path d="M138.756 30.2696V28.1489H140.607V30.2696H138.756ZM138.756 43.1954V32.2892H140.607V43.1954H138.756Z" fill="#595757"/>
<path d="M147.457 41.5461L147.727 43.1786C147.205 43.2796 146.734 43.3469 146.33 43.3469C145.656 43.3469 145.135 43.2459 144.764 43.0272C144.394 42.8084 144.142 42.5391 143.99 42.1856C143.839 41.8322 143.771 41.1085 143.771 39.9977V33.7199H142.408V32.2893H143.771V29.5964L145.606 28.4856V32.2893H147.457V33.7199H145.606V40.0987C145.606 40.6204 145.64 40.957 145.707 41.1085C145.774 41.26 145.875 41.3778 146.027 41.4619C146.178 41.5461 146.38 41.5965 146.666 41.5965C146.868 41.5965 147.138 41.5798 147.474 41.5293L147.457 41.5461Z" fill="#595757"/>
<path d="M149.275 30.2696V28.1489H151.126V30.2696H149.275ZM149.275 43.1954V32.2892H151.126V43.1954H149.275Z" fill="#595757"/>
<path d="M153.937 43.1955V32.2893H155.603V33.8377C156.411 32.6428 157.556 32.0369 159.07 32.0369C159.727 32.0369 160.333 32.1547 160.888 32.3903C161.443 32.626 161.847 32.9289 162.133 33.316C162.403 33.7031 162.605 34.1575 162.706 34.6793C162.773 35.0159 162.807 35.6218 162.807 36.4802V43.1955H160.955V36.5643C160.955 35.8069 160.888 35.2515 160.737 34.8812C160.585 34.511 160.333 34.208 159.979 33.9892C159.609 33.7704 159.188 33.6526 158.683 33.6526C157.892 33.6526 157.219 33.9051 156.647 34.41C156.075 34.9149 155.788 35.8574 155.788 37.2543V43.2124H153.937V43.1955Z" fill="#595757"/>
<path d="M173.107 39.6948L175.026 39.9304C174.723 41.0412 174.167 41.9164 173.343 42.5223C172.535 43.145 171.491 43.448 170.212 43.448C168.613 43.448 167.351 42.9599 166.425 41.9669C165.483 40.9907 165.028 39.6106 165.028 37.8266C165.028 36.0425 165.5 34.5614 166.442 33.5516C167.385 32.5418 168.613 32.0369 170.128 32.0369C171.643 32.0369 172.77 32.5418 173.696 33.5348C174.622 34.5278 175.076 35.9247 175.076 37.7256C175.076 37.8434 175.076 37.9949 175.076 38.2137H166.947C167.014 39.4087 167.351 40.3343 167.957 40.9739C168.563 41.6134 169.32 41.9332 170.229 41.9332C170.902 41.9332 171.491 41.7481 171.962 41.3946C172.434 41.0412 172.821 40.469 173.107 39.6948ZM167.031 36.699H173.124C173.04 35.7733 172.804 35.1 172.434 34.6288C171.845 33.9219 171.087 33.5685 170.145 33.5685C169.303 33.5685 168.58 33.8546 168.007 34.4268C167.435 34.9991 167.115 35.7564 167.048 36.7158L167.031 36.699Z" fill="#595757"/>
<path d="M177.315 43.1955V32.2893H178.981V33.9387C179.402 33.1645 179.789 32.6596 180.159 32.4071C180.513 32.1547 180.916 32.0369 181.337 32.0369C181.96 32.0369 182.6 32.2388 183.239 32.6259L182.6 34.3426C182.145 34.0734 181.691 33.9387 181.236 33.9387C180.832 33.9387 180.462 34.0565 180.142 34.309C179.822 34.5615 179.587 34.8812 179.452 35.3188C179.25 35.9752 179.149 36.6989 179.149 37.4731V43.1787H177.298L177.315 43.1955Z" fill="#595757"/>
<path d="M191.469 41.8491C190.779 42.4382 190.123 42.8421 189.5 43.0777C188.861 43.3133 188.187 43.4312 187.464 43.4312C186.269 43.4312 185.343 43.145 184.703 42.5559C184.064 41.9669 183.744 41.2264 183.744 40.3175C183.744 39.7789 183.862 39.2909 184.114 38.8533C184.35 38.4157 184.67 38.0622 185.074 37.7929C185.478 37.5236 185.915 37.3216 186.403 37.187C186.774 37.086 187.312 37.0019 188.053 36.9177C189.551 36.7326 190.645 36.5307 191.352 36.2782C191.352 36.0257 191.352 35.8574 191.352 35.7901C191.352 35.0327 191.183 34.511 190.83 34.1912C190.359 33.7704 189.652 33.5685 188.726 33.5685C187.851 33.5685 187.211 33.7199 186.807 34.0229C186.387 34.3258 186.084 34.8644 185.882 35.6386L184.081 35.3862C184.249 34.612 184.518 33.9892 184.889 33.518C185.259 33.0467 185.814 32.6764 186.521 32.424C187.228 32.1715 188.053 32.0369 188.995 32.0369C189.938 32.0369 190.678 32.1547 191.267 32.3735C191.857 32.5923 192.277 32.8616 192.546 33.1982C192.816 33.5348 193.018 33.9556 193.119 34.4605C193.186 34.7802 193.22 35.3525 193.22 36.1604V38.6176C193.22 40.3343 193.253 41.4283 193.338 41.8827C193.422 42.3372 193.573 42.7748 193.809 43.1955H191.873C191.688 42.8084 191.553 42.3708 191.503 41.8491H191.469ZM191.301 37.7256C190.628 37.9949 189.618 38.2305 188.288 38.4325C187.531 38.5335 186.992 38.6681 186.673 38.8028C186.353 38.9374 186.117 39.1394 185.949 39.4086C185.781 39.6779 185.696 39.964 185.696 40.2838C185.696 40.7719 185.882 41.1927 186.252 41.5125C186.622 41.8322 187.178 42.0006 187.884 42.0006C188.591 42.0006 189.231 41.8491 189.786 41.5293C190.342 41.2095 190.746 40.7888 191.015 40.2502C191.217 39.8294 191.318 39.2235 191.318 38.3988V37.7256H191.301Z" fill="#595757"/>
<path d="M196.014 43.1955V32.2893H197.68V33.9387C198.101 33.1645 198.488 32.6596 198.858 32.4071C199.212 32.1547 199.616 32.0369 200.036 32.0369C200.659 32.0369 201.299 32.2388 201.938 32.6259L201.299 34.3426C200.844 34.0734 200.39 33.9387 199.935 33.9387C199.531 33.9387 199.161 34.0565 198.841 34.309C198.522 34.5615 198.286 34.8812 198.151 35.3188C197.949 35.9752 197.848 36.6989 197.848 37.4731V43.1787H195.997L196.014 43.1955Z" fill="#595757"/>
<path d="M202.964 47.4031L202.762 45.6696C203.166 45.7706 203.519 45.8379 203.822 45.8379C204.226 45.8379 204.563 45.7706 204.815 45.636C205.068 45.5013 205.27 45.2994 205.421 45.0637C205.539 44.8786 205.724 44.4242 205.994 43.6836C206.027 43.5826 206.078 43.4311 206.162 43.2292L202.021 32.3062H204.007L206.28 38.6176C206.566 39.4255 206.835 40.267 207.071 41.1422C207.289 40.3007 207.542 39.4591 207.828 38.6512L210.168 32.2893H212.019L207.862 43.3807C207.424 44.5756 207.071 45.4003 206.818 45.8548C206.482 46.4607 206.111 46.9151 205.691 47.2012C205.27 47.4873 204.765 47.622 204.176 47.622C203.822 47.622 203.418 47.5546 202.981 47.4031H202.964Z" fill="#595757"/>
<path d="M212.491 43.1956V41.0918H214.594V43.1956C214.594 43.9698 214.46 44.5926 214.191 45.0638C213.921 45.5351 213.484 45.9053 212.878 46.1746L212.356 45.3836C212.743 45.2153 213.029 44.9628 213.214 44.6262C213.399 44.2896 213.5 43.8183 213.517 43.1956H212.474H212.491Z" fill="#595757"/>
<path d="M230.819 41.8491C230.129 42.4382 229.472 42.8421 228.85 43.0777C228.21 43.3133 227.537 43.4312 226.813 43.4312C225.618 43.4312 224.693 43.145 224.053 42.5559C223.414 41.9669 223.094 41.2264 223.094 40.3175C223.094 39.7789 223.212 39.2909 223.464 38.8533C223.7 38.4157 224.019 38.0622 224.423 37.7929C224.827 37.5236 225.265 37.3216 225.753 37.187C226.123 37.086 226.662 37.0019 227.402 36.9177C228.9 36.7326 229.994 36.5307 230.701 36.2782C230.701 36.0257 230.701 35.8574 230.701 35.7901C230.701 35.0327 230.533 34.511 230.179 34.1912C229.708 33.7704 229.001 33.5685 228.076 33.5685C227.2 33.5685 226.561 33.7199 226.157 34.0229C225.736 34.3258 225.433 34.8644 225.231 35.6386L223.43 35.3862C223.599 34.612 223.868 33.9892 224.238 33.518C224.608 33.0467 225.164 32.6764 225.871 32.424C226.578 32.1715 227.402 32.0369 228.345 32.0369C229.287 32.0369 230.028 32.1547 230.617 32.3735C231.206 32.5923 231.627 32.8616 231.896 33.1982C232.165 33.5348 232.367 33.9556 232.468 34.4605C232.536 34.7802 232.569 35.3525 232.569 36.1604V38.6176C232.569 40.3343 232.603 41.4283 232.687 41.8827C232.771 42.3372 232.923 42.7748 233.158 43.1955H231.223C231.038 42.8084 230.903 42.3708 230.853 41.8491H230.819ZM230.667 37.7256C229.994 37.9949 228.984 38.2305 227.655 38.4325C226.897 38.5335 226.359 38.6681 226.039 38.8028C225.719 38.9374 225.484 39.1394 225.315 39.4086C225.147 39.6779 225.063 39.964 225.063 40.2838C225.063 40.7719 225.248 41.1927 225.618 41.5125C225.989 41.8322 226.544 42.0006 227.251 42.0006C227.958 42.0006 228.597 41.8491 229.153 41.5293C229.708 41.2095 230.112 40.7888 230.381 40.2502C230.583 39.8294 230.684 39.2235 230.684 38.3988V37.7256H230.667Z" fill="#595757"/>
<path d="M235.397 43.1955V32.2893H237.063V33.8377C237.871 32.6428 239.016 32.0369 240.53 32.0369C241.187 32.0369 241.793 32.1547 242.348 32.3903C242.903 32.626 243.307 32.9289 243.593 33.316C243.863 33.7031 244.065 34.1575 244.166 34.6793C244.233 35.0159 244.267 35.6218 244.267 36.4802V43.1955H242.415V36.5643C242.415 35.8069 242.348 35.2515 242.196 34.8812C242.045 34.511 241.793 34.208 241.439 33.9892C241.069 33.7704 240.648 33.6526 240.143 33.6526C239.352 33.6526 238.679 33.9051 238.107 34.41C237.534 34.9149 237.248 35.8574 237.248 37.2543V43.2124H235.397V43.1955Z" fill="#595757"/>
<path d="M254.18 43.1957V41.8156C253.49 42.8927 252.463 43.4313 251.133 43.4313C250.258 43.4313 249.467 43.1957 248.727 42.7076C248.003 42.2363 247.431 41.5631 247.027 40.7047C246.623 39.8464 246.421 38.8534 246.421 37.7426C246.421 36.6318 246.606 35.6724 246.959 34.7804C247.33 33.8884 247.868 33.2152 248.592 32.7439C249.316 32.2727 250.124 32.037 251.032 32.037C251.689 32.037 252.278 32.1717 252.783 32.4578C253.305 32.7271 253.709 33.0974 254.028 33.535V28.1323H255.863V43.1957H254.146H254.18ZM248.323 37.7594C248.323 39.1563 248.609 40.1998 249.198 40.8899C249.787 41.58 250.477 41.9334 251.285 41.9334C252.093 41.9334 252.783 41.5968 253.338 40.9404C253.91 40.284 254.18 39.2742 254.18 37.9109C254.18 36.413 253.894 35.319 253.321 34.6289C252.749 33.9221 252.042 33.5855 251.201 33.5855C250.359 33.5855 249.686 33.9221 249.147 34.5953C248.592 35.2685 248.323 36.3288 248.323 37.7762V37.7594Z" fill="#595757"/>
<path d="M264.649 43.1955V32.2893H266.298V33.8209C266.635 33.2823 267.089 32.8616 267.661 32.525C268.234 32.2052 268.873 32.0369 269.597 32.0369C270.405 32.0369 271.061 32.2052 271.583 32.5418C272.105 32.8784 272.458 33.3497 272.677 33.9556C273.535 32.6765 274.663 32.0369 276.043 32.0369C277.12 32.0369 277.962 32.3398 278.534 32.9289C279.123 33.5348 279.409 34.4436 279.409 35.7059V43.1955H277.575V36.3287C277.575 35.5881 277.507 35.0495 277.389 34.7298C277.272 34.41 277.053 34.1407 276.733 33.9387C276.413 33.7368 276.043 33.6358 275.622 33.6358C274.848 33.6358 274.225 33.8882 273.704 34.3931C273.199 34.898 272.946 35.7228 272.946 36.8504V43.1955H271.095V36.1099C271.095 35.2852 270.943 34.6793 270.64 34.2585C270.337 33.8377 269.849 33.6358 269.159 33.6358C268.638 33.6358 268.149 33.7704 267.712 34.0397C267.274 34.309 266.954 34.7129 266.753 35.2347C266.551 35.7564 266.45 36.5138 266.45 37.5068V43.1619H264.598L264.649 43.1955Z" fill="#595757"/>
<path d="M289.642 39.6948L291.56 39.9304C291.257 41.0412 290.702 41.9164 289.877 42.5223C289.069 43.145 288.026 43.448 286.747 43.448C285.148 43.448 283.886 42.9599 282.96 41.9669C282.017 40.9907 281.563 39.6106 281.563 37.8266C281.563 36.0425 282.034 34.5614 282.977 33.5516C283.919 32.5418 285.148 32.0369 286.663 32.0369C288.177 32.0369 289.305 32.5418 290.231 33.5348C291.156 34.5278 291.611 35.9247 291.611 37.7256C291.611 37.8434 291.611 37.9949 291.611 38.2137H283.482C283.549 39.4087 283.886 40.3343 284.491 40.9739C285.097 41.6134 285.855 41.9332 286.764 41.9332C287.437 41.9332 288.026 41.7481 288.497 41.3946C288.968 41.0412 289.356 40.469 289.642 39.6948ZM283.566 36.699H289.658C289.574 35.7733 289.339 35.1 288.968 34.6288C288.379 33.9219 287.622 33.5685 286.679 33.5685C285.838 33.5685 285.114 33.8546 284.542 34.4268C283.97 34.9991 283.65 35.7564 283.583 36.7158L283.566 36.699Z" fill="#595757"/>
<path d="M300.952 43.1957V41.8156C300.262 42.8927 299.235 43.4313 297.905 43.4313C297.03 43.4313 296.239 43.1957 295.499 42.7076C294.775 42.2363 294.203 41.5631 293.799 40.7047C293.395 39.8464 293.193 38.8534 293.193 37.7426C293.193 36.6318 293.378 35.6724 293.731 34.7804C294.102 33.8884 294.64 33.2152 295.364 32.7439C296.088 32.2727 296.896 32.037 297.804 32.037C298.461 32.037 299.05 32.1717 299.555 32.4578C300.077 32.7271 300.48 33.0974 300.8 33.535V28.1323H302.635V43.1957H300.918H300.952ZM295.095 37.7594C295.095 39.1563 295.381 40.1998 295.97 40.8899C296.559 41.58 297.249 41.9334 298.057 41.9334C298.865 41.9334 299.555 41.5968 300.11 40.9404C300.682 40.284 300.952 39.2742 300.952 37.9109C300.952 36.413 300.666 35.319 300.093 34.6289C299.521 33.9221 298.814 33.5855 297.973 33.5855C297.131 33.5855 296.458 33.9221 295.919 34.5953C295.364 35.2685 295.095 36.3288 295.095 37.7762V37.7594Z" fill="#595757"/>
<path d="M305.58 30.2696V28.1489H307.431V30.2696H305.58ZM305.58 43.1954V32.2892H307.431V43.1954H305.58Z" fill="#595757"/>
<path d="M317.361 39.2067L319.179 39.4423C318.977 40.6877 318.472 41.6808 317.648 42.3876C316.823 43.0945 315.83 43.448 314.635 43.448C313.137 43.448 311.942 42.9599 311.033 41.9837C310.124 41.0075 309.67 39.6106 309.67 37.7929C309.67 36.6148 309.872 35.5881 310.259 34.6961C310.646 33.8209 311.252 33.1477 312.043 32.7101C312.834 32.2725 313.709 32.0537 314.652 32.0537C315.83 32.0537 316.806 32.3567 317.563 32.9457C318.321 33.5516 318.792 34.3931 319.011 35.504L317.21 35.7732C317.042 35.0327 316.739 34.4942 316.301 34.1239C315.864 33.7536 315.342 33.5684 314.719 33.5684C313.793 33.5684 313.036 33.9051 312.447 34.5783C311.858 35.2515 311.572 36.295 311.572 37.7424C311.572 39.1899 311.858 40.267 312.413 40.9402C312.969 41.5966 313.709 41.9332 314.618 41.9332C315.342 41.9332 315.948 41.7144 316.436 41.26C316.924 40.8224 317.227 40.1324 317.361 39.2067Z" fill="#595757"/>
<path d="M320.778 30.2696V28.1489H322.63V30.2696H320.778ZM320.778 43.1954V32.2892H322.63V43.1954H320.778Z" fill="#595757"/>
<path d="M325.44 43.1955V32.2893H327.107V33.8377C327.915 32.6428 329.059 32.0369 330.574 32.0369C331.23 32.0369 331.836 32.1547 332.391 32.3903C332.947 32.626 333.351 32.9289 333.637 33.316C333.906 33.7031 334.108 34.1575 334.209 34.6793C334.276 35.0159 334.31 35.6218 334.31 36.4802V43.1955H332.459V36.5643C332.459 35.8069 332.391 35.2515 332.24 34.8812C332.105 34.511 331.836 34.208 331.483 33.9892C331.112 33.7704 330.692 33.6526 330.187 33.6526C329.396 33.6526 328.722 33.9051 328.15 34.41C327.578 34.9149 327.292 35.8574 327.292 37.2543V43.2124H325.44V43.1955Z" fill="#595757"/>
<path d="M344.61 39.6948L346.529 39.9304C346.226 41.0412 345.671 41.9164 344.846 42.5223C344.038 43.145 342.995 43.448 341.715 43.448C340.117 43.448 338.854 42.9599 337.929 41.9669C336.986 40.9907 336.532 39.6106 336.532 37.8266C336.532 36.0425 337.003 34.5614 337.945 33.5516C338.888 32.5418 340.117 32.0369 341.631 32.0369C343.146 32.0369 344.274 32.5418 345.199 33.5348C346.125 34.5278 346.58 35.9247 346.58 37.7256C346.58 37.8434 346.58 37.9949 346.58 38.2137H338.45C338.518 39.4087 338.854 40.3343 339.46 40.9739C340.066 41.6134 340.823 41.9332 341.749 41.9332C342.422 41.9332 343.011 41.7481 343.483 41.3946C343.954 41.0412 344.341 40.469 344.627 39.6948H344.61ZM338.535 36.699H344.627C344.543 35.7733 344.307 35.1 343.937 34.6288C343.348 33.9219 342.591 33.5685 341.648 33.5685C340.807 33.5685 340.083 33.8546 339.511 34.4268C338.938 34.9991 338.619 35.7564 338.551 36.7158L338.535 36.699Z" fill="#595757"/>
<path d="M354.692 43.1957V28.1323H356.543V36.7159L360.919 32.2727H363.309L359.135 36.312L363.73 43.1788H361.458L357.856 37.6079L356.543 38.8702V43.1957H354.692Z" fill="#595757"/>
<path d="M365.211 30.2696V28.1489H367.062V30.2696H365.211ZM365.211 43.1954V32.2892H367.062V43.1954H365.211Z" fill="#595757"/>
<path d="M373.912 41.5461L374.182 43.1786C373.66 43.2796 373.189 43.3469 372.785 43.3469C372.112 43.3469 371.59 43.2459 371.22 43.0272C370.849 42.8084 370.597 42.5391 370.445 42.1856C370.294 41.8322 370.227 41.1085 370.227 39.9977V33.7199H368.863V32.2893H370.227V29.5964L372.061 28.4856V32.2893H373.912V33.7199H372.061V40.0987C372.061 40.6204 372.095 40.957 372.162 41.1085C372.229 41.26 372.33 41.3778 372.482 41.4619C372.633 41.5461 372.835 41.5965 373.121 41.5965C373.323 41.5965 373.593 41.5798 373.929 41.5293L373.912 41.5461Z" fill="#595757"/>
<path d="M388.69 41.8491C388 42.4382 387.343 42.8421 386.72 43.0777C386.081 43.3133 385.408 43.4312 384.684 43.4312C383.489 43.4312 382.563 43.145 381.924 42.5559C381.284 41.9669 380.964 41.2264 380.964 40.3175C380.964 39.7789 381.082 39.2909 381.335 38.8533C381.57 38.4157 381.89 38.0622 382.294 37.7929C382.698 37.5236 383.136 37.3216 383.624 37.187C383.994 37.086 384.532 37.0019 385.273 36.9177C386.771 36.7326 387.865 36.5307 388.572 36.2782C388.572 36.0257 388.572 35.8574 388.572 35.7901C388.572 35.0327 388.403 34.511 388.05 34.1912C387.579 33.7704 386.872 33.5685 385.946 33.5685C385.071 33.5685 384.431 33.7199 384.028 34.0229C383.607 34.3258 383.304 34.8644 383.102 35.6386L381.301 35.3862C381.469 34.612 381.739 33.9892 382.109 33.518C382.479 33.0467 383.035 32.6764 383.741 32.424C384.448 32.1715 385.273 32.0369 386.215 32.0369C387.158 32.0369 387.899 32.1547 388.488 32.3735C389.077 32.5923 389.497 32.8616 389.767 33.1982C390.036 33.5348 390.238 33.9556 390.339 34.4605C390.406 34.7802 390.44 35.3525 390.44 36.1604V38.6176C390.44 40.3343 390.474 41.4283 390.558 41.8827C390.642 42.3372 390.793 42.7748 391.029 43.1955H389.094C388.908 42.8084 388.774 42.3708 388.723 41.8491H388.69ZM388.538 37.7256C387.865 37.9949 386.855 38.2305 385.525 38.4325C384.768 38.5335 384.229 38.6681 383.91 38.8028C383.59 38.9374 383.354 39.1394 383.186 39.4086C383.018 39.6779 382.933 39.964 382.933 40.2838C382.933 40.7719 383.119 41.1927 383.489 41.5125C383.859 41.8322 384.415 42.0006 385.122 42.0006C385.828 42.0006 386.468 41.8491 387.023 41.5293C387.579 41.2095 387.983 40.7888 388.252 40.2502C388.454 39.8294 388.555 39.2235 388.555 38.3988V37.7256H388.538Z" fill="#595757"/>
<path d="M393.251 43.1955V32.2893H394.917V33.9387C395.338 33.1645 395.725 32.6596 396.095 32.4071C396.448 32.1547 396.852 32.0369 397.273 32.0369C397.896 32.0369 398.535 32.2388 399.175 32.6259L398.535 34.3426C398.081 34.0734 397.627 33.9387 397.172 33.9387C396.768 33.9387 396.398 34.0565 396.078 34.309C395.758 34.5446 395.523 34.8812 395.388 35.3188C395.186 35.9752 395.085 36.6989 395.085 37.4731V43.1787H393.234L393.251 43.1955Z" fill="#595757"/>
<path d="M407.741 39.6948L409.66 39.9304C409.357 41.0412 408.802 41.9164 407.977 42.5223C407.169 43.145 406.126 43.448 404.846 43.448C403.248 43.448 401.985 42.9599 401.06 41.9669C400.117 40.9907 399.663 39.6106 399.663 37.8266C399.663 36.0425 400.134 34.5614 401.076 33.5516C402.019 32.5418 403.248 32.0369 404.762 32.0369C406.277 32.0369 407.405 32.5418 408.33 33.5348C409.256 34.5278 409.71 35.9247 409.71 37.7256C409.71 37.8434 409.71 37.9949 409.71 38.2137H401.581C401.649 39.4087 401.985 40.3343 402.591 40.9739C403.197 41.6134 403.954 41.9332 404.863 41.9332C405.537 41.9332 406.126 41.7481 406.597 41.3946C407.068 41.0412 407.455 40.469 407.741 39.6948ZM401.665 36.699H407.758C407.674 35.7733 407.438 35.1 407.051 34.6288C406.462 33.9219 405.705 33.5685 404.762 33.5685C403.921 33.5685 403.197 33.8546 402.625 34.4268C402.053 34.9991 401.733 35.7564 401.665 36.7158V36.699Z" fill="#595757"/>
<path d="M424.942 41.8491C424.252 42.4382 423.596 42.8421 422.973 43.0777C422.334 43.3133 421.66 43.4312 420.937 43.4312C419.742 43.4312 418.816 43.145 418.177 42.5559C417.537 41.9669 417.217 41.2264 417.217 40.3175C417.217 39.7789 417.335 39.2909 417.588 38.8533C417.823 38.4157 418.143 38.0622 418.547 37.7929C418.951 37.5236 419.388 37.3216 419.876 37.187C420.247 37.086 420.785 37.0019 421.526 36.9177C423.024 36.7326 424.118 36.5307 424.825 36.2782C424.825 36.0257 424.825 35.8574 424.825 35.7901C424.825 35.0327 424.656 34.511 424.303 34.1912C423.832 33.7704 423.125 33.5685 422.199 33.5685C421.324 33.5685 420.684 33.7199 420.28 34.0229C419.86 34.3258 419.557 34.8644 419.355 35.6386L417.554 35.3862C417.722 34.612 417.991 33.9892 418.362 33.518C418.732 33.0467 419.287 32.6764 419.994 32.424C420.701 32.1715 421.526 32.0369 422.468 32.0369C423.411 32.0369 424.151 32.1547 424.74 32.3735C425.33 32.5923 425.75 32.8616 426.02 33.1982C426.289 33.5348 426.491 33.9556 426.592 34.4605C426.659 34.7802 426.693 35.3525 426.693 36.1604V38.6176C426.693 40.3343 426.726 41.4283 426.811 41.8827C426.895 42.3372 427.046 42.7748 427.282 43.1955H425.346C425.161 42.8084 425.027 42.3708 424.976 41.8491H424.942ZM424.774 37.7256C424.101 37.9949 423.091 38.2305 421.761 38.4325C421.004 38.5335 420.466 38.6681 420.146 38.8028C419.826 38.9374 419.59 39.1394 419.422 39.4086C419.254 39.6779 419.17 39.964 419.17 40.2838C419.17 40.7719 419.355 41.1927 419.725 41.5125C420.095 41.8322 420.651 42.0006 421.358 42.0006C422.064 42.0006 422.704 41.8491 423.259 41.5293C423.815 41.2095 424.219 40.7888 424.488 40.2502C424.69 39.8294 424.791 39.2235 424.791 38.3988V37.7256H424.774Z" fill="#595757"/>
<path d="M429.47 43.1957V28.1323H431.321V43.1957H429.47Z" fill="#595757"/>
<path d="M434.148 43.1957V28.1323H436V43.1957H434.148Z" fill="#595757"/>
<path d="M44.0336 72.6324V57.5354H45.7167V58.9492C46.1206 58.3938 46.5583 57.973 47.0632 57.7037C47.5681 57.4344 48.174 57.283 48.8808 57.283C49.8065 57.283 50.6313 57.5186 51.3381 58.0067C52.045 58.4779 52.5836 59.168 52.9539 60.0432C53.3241 60.9184 53.4924 61.8777 53.4924 62.9212C53.4924 64.032 53.2905 65.0419 52.8865 65.9339C52.4826 66.8259 51.9103 67.516 51.1361 67.9872C50.3619 68.4585 49.5709 68.6941 48.7294 68.6941C48.1066 68.6941 47.5681 68.5594 47.0632 68.307C46.5583 68.0545 46.1711 67.7179 45.8514 67.314V72.6324H44H44.0336ZM45.6999 63.0558C45.6999 64.4528 45.986 65.4963 46.5582 66.1695C47.1305 66.8427 47.8205 67.1793 48.6284 67.1793C49.4363 67.1793 50.16 66.8259 50.7322 66.1358C51.3213 65.4458 51.6074 64.3686 51.6074 62.9044C51.6074 61.4401 51.3213 60.4808 50.7491 59.7739C50.1768 59.0838 49.4868 58.7304 48.6957 58.7304C47.9047 58.7304 47.2146 59.1007 46.6087 59.8412C46.0028 60.5818 45.6999 61.6421 45.6999 63.0558Z" fill="#595757"/>
<path d="M62.8502 67.0952C62.1602 67.6843 61.5037 68.0882 60.881 68.3238C60.2415 68.5594 59.5682 68.6773 58.8445 68.6773C57.6496 68.6773 56.7239 68.3911 56.0843 67.802C55.4447 67.213 55.125 66.4725 55.125 65.5636C55.125 65.025 55.2428 64.537 55.4952 64.0994C55.7308 63.6618 56.0506 63.3083 56.4546 63.039C56.8585 62.7697 57.2961 62.5677 57.7842 62.4331C58.1545 62.3321 58.6931 62.248 59.4336 62.1638C60.9315 61.9787 62.0255 61.7767 62.7324 61.5243C62.7324 61.2718 62.7324 61.1035 62.7324 61.0362C62.7324 60.2788 62.5641 59.757 62.2106 59.4373C61.7394 59.0165 61.0325 58.8145 60.1068 58.8145C59.2316 58.8145 58.5921 58.966 58.1881 59.2689C57.7674 59.5719 57.4644 60.1105 57.2625 60.8847L55.4616 60.6323C55.6299 59.8581 55.8992 59.2353 56.2695 58.7641C56.6397 58.2928 57.1951 57.9225 57.902 57.6701C58.6089 57.4176 59.4336 57.283 60.3761 57.283C61.3186 57.283 62.0591 57.4008 62.6482 57.6196C63.2373 57.8384 63.658 58.1077 63.9273 58.4443C64.1966 58.7809 64.3986 59.2016 64.4996 59.7066C64.5669 60.0263 64.6005 60.5986 64.6005 61.4065V63.8637C64.6005 65.5804 64.6342 66.6744 64.7184 67.1288C64.8025 67.5833 64.954 68.0208 65.1896 68.4416H63.2541C63.069 68.0545 62.9343 67.6169 62.8839 67.0952H62.8502ZM62.6987 62.9717C62.0255 63.241 61.0157 63.4766 59.6861 63.6786C58.9287 63.7796 58.3901 63.9142 58.0703 64.0489C57.7506 64.1835 57.5149 64.3855 57.3466 64.6547C57.1783 64.924 57.0941 65.2101 57.0941 65.5299C57.0941 66.018 57.2793 66.4388 57.6496 66.7586C58.0199 67.0783 58.5752 67.2467 59.2821 67.2467C59.989 67.2467 60.6285 67.0952 61.184 66.7754C61.7394 66.4556 62.1433 66.0348 62.4126 65.4963C62.6146 65.0755 62.7155 64.4696 62.7155 63.6449V62.9717H62.6987Z" fill="#595757"/>
<path d="M74.5475 64.4528L76.3653 64.6884C76.1633 65.9338 75.6584 66.9268 74.8337 67.6337C74.009 68.3406 73.016 68.6941 71.821 68.6941C70.3231 68.6941 69.1281 68.206 68.2193 67.2298C67.3104 66.2536 66.856 64.8567 66.856 63.039C66.856 61.8609 67.0579 60.8342 67.445 59.9422C67.8321 59.067 68.438 58.3938 69.2291 57.9562C70.0201 57.5186 70.8953 57.2998 71.8378 57.2998C73.016 57.2998 73.9921 57.6028 74.7495 58.1918C75.5069 58.7977 75.9781 59.6392 76.1969 60.75L74.3961 61.0193C74.2278 60.2788 73.9248 59.7403 73.4872 59.37C73.0496 58.9997 72.5278 58.8145 71.9051 58.8145C70.9794 58.8145 70.2221 59.1512 69.633 59.8244C69.044 60.4976 68.7578 61.5411 68.7578 62.9885C68.7578 64.436 69.0439 65.5131 69.5993 66.1863C70.1548 66.8427 70.8953 67.1793 71.8041 67.1793C72.5279 67.1793 73.1338 66.9605 73.6219 66.5061C74.11 66.0685 74.4129 65.3785 74.5475 64.4528Z" fill="#595757"/>
<path d="M77.9639 68.4413V53.3779H79.8152V61.9615L84.1912 57.5183H86.5811L82.4072 61.5576L87.0019 68.4244H84.7298L81.128 62.8535L79.8152 64.1158V68.4413H77.9639Z" fill="#595757"/>
<path d="M95.939 64.9409L97.8577 65.1765C97.5547 66.2873 96.9993 67.1625 96.1746 67.7684C95.3668 68.3911 94.3233 68.6941 93.0442 68.6941C91.4453 68.6941 90.183 68.206 89.2573 67.213C88.3148 66.2368 87.8604 64.8567 87.8604 63.0727C87.8604 61.2886 88.3316 59.8075 89.2741 58.7977C90.2166 57.7879 91.4453 57.283 92.96 57.283C94.4748 57.283 95.6024 57.7879 96.5281 58.7809C97.4537 59.7739 97.9082 61.1708 97.9082 62.9717C97.9082 63.0895 97.9082 63.241 97.9082 63.4598H89.7791C89.8464 64.6548 90.1829 65.5804 90.7888 66.22C91.3947 66.8595 92.1521 67.1793 93.061 67.1793C93.7342 67.1793 94.3233 66.9942 94.7945 66.6407C95.2658 66.2873 95.6529 65.7151 95.939 64.9409ZM89.8632 61.9451H95.9558C95.8717 61.0194 95.636 60.3461 95.2658 59.8749C94.6767 59.168 93.9194 58.8145 92.9768 58.8145C92.1353 58.8145 91.4116 59.1007 90.8393 59.6729C90.2671 60.2452 89.9474 61.0025 89.88 61.9618L89.8632 61.9451Z" fill="#595757"/>
<path d="M107.249 68.4413V67.0612C106.559 68.1383 105.532 68.6769 104.203 68.6769C103.328 68.6769 102.537 68.4413 101.796 67.9532C101.072 67.4819 100.5 66.8087 100.096 65.9503C99.6922 65.092 99.4902 64.099 99.4902 62.9882C99.4902 61.8774 99.6754 60.918 100.029 60.026C100.399 59.134 100.938 58.4608 101.661 57.9895C102.385 57.5183 103.193 57.2826 104.102 57.2826C104.758 57.2826 105.347 57.4173 105.852 57.7034C106.374 57.9727 106.778 58.343 107.098 58.7806V53.3779H108.932V68.4413H107.215H107.249ZM101.409 63.005C101.409 64.4019 101.695 65.4455 102.284 66.1355C102.873 66.8256 103.563 67.179 104.371 67.179C105.179 67.179 105.869 66.8424 106.424 66.186C106.997 65.5296 107.266 64.5198 107.266 63.1565C107.266 61.6586 106.98 60.5646 106.408 59.8745C105.835 59.1677 105.128 58.8311 104.287 58.8311C103.445 58.8311 102.772 59.1677 102.234 59.8409C101.678 60.5141 101.409 61.5744 101.409 63.0218V63.005Z" fill="#595757"/>
<path d="M117.718 72.6324V57.5354H119.401V58.9492C119.805 58.3938 120.242 57.973 120.747 57.7037C121.252 57.4344 121.858 57.283 122.565 57.283C123.491 57.283 124.315 57.5186 125.022 58.0067C125.729 58.4779 126.268 59.168 126.638 60.0432C127.008 60.9184 127.177 61.8777 127.177 62.9212C127.177 64.032 126.975 65.0419 126.571 65.9339C126.167 66.8259 125.594 67.516 124.82 67.9872C124.046 68.4585 123.255 68.6941 122.413 68.6941C121.791 68.6941 121.252 68.5594 120.747 68.307C120.242 68.0545 119.855 67.7179 119.535 67.314V72.6324H117.684H117.718ZM119.384 63.0558C119.384 64.4528 119.67 65.4963 120.242 66.1695C120.815 66.8427 121.505 67.1793 122.312 67.1793C123.12 67.1793 123.844 66.8259 124.416 66.1358C125.005 65.4458 125.291 64.3686 125.291 62.9044C125.291 61.4401 125.005 60.4808 124.433 59.7739C123.861 59.0838 123.171 58.7304 122.38 58.7304C121.589 58.7304 120.899 59.1007 120.293 59.8412C119.687 60.5818 119.384 61.6421 119.384 63.0558Z" fill="#595757"/>
<path d="M129.398 68.4416V57.5354H131.064V59.1848C131.485 58.4106 131.872 57.9057 132.243 57.6532C132.596 57.4008 133 57.283 133.421 57.283C134.043 57.283 134.683 57.4849 135.323 57.872L134.683 59.5887C134.229 59.3194 133.774 59.1848 133.32 59.1848C132.916 59.1848 132.545 59.3026 132.226 59.5551C131.906 59.8075 131.67 60.1273 131.536 60.5649C131.334 61.2213 131.233 61.945 131.233 62.7192V68.4248H129.381L129.398 68.4416Z" fill="#595757"/>
<path d="M135.727 62.9885C135.727 60.9689 136.282 59.4709 137.41 58.4948C138.352 57.6869 139.497 57.283 140.843 57.283C142.341 57.283 143.57 57.7711 144.529 58.7641C145.488 59.7402 145.96 61.1035 145.96 62.8371C145.96 64.234 145.741 65.3448 145.32 66.1527C144.899 66.9606 144.293 67.5833 143.485 68.0209C142.678 68.4584 141.802 68.6941 140.843 68.6941C139.311 68.6941 138.083 68.206 137.14 67.2298C136.198 66.2536 135.727 64.8399 135.727 63.0053V62.9885ZM137.628 62.9885C137.628 64.3855 137.931 65.4289 138.537 66.119C139.143 66.809 139.917 67.1625 140.843 67.1625C141.769 67.1625 142.526 66.809 143.132 66.119C143.738 65.4121 144.041 64.3518 144.041 62.9212C144.041 61.5748 143.738 60.5481 143.115 59.858C142.509 59.168 141.735 58.8145 140.826 58.8145C139.917 58.8145 139.143 59.168 138.52 59.858C137.898 60.5481 137.612 61.5916 137.612 62.9885H137.628Z" fill="#595757"/>
<path d="M148.114 72.6324V57.5354H149.797V58.9492C150.201 58.3938 150.638 57.973 151.143 57.7037C151.648 57.4344 152.254 57.283 152.961 57.283C153.887 57.283 154.711 57.5186 155.418 58.0067C156.125 58.4779 156.664 59.168 157.034 60.0432C157.404 60.9184 157.573 61.8777 157.573 62.9212C157.573 64.032 157.371 65.0419 156.967 65.9339C156.563 66.8259 155.99 67.516 155.216 67.9872C154.442 68.4585 153.651 68.6941 152.809 68.6941C152.187 68.6941 151.648 68.5594 151.143 68.307C150.638 68.0545 150.251 67.7179 149.931 67.314V72.6324H148.08H148.114ZM149.797 63.0558C149.797 64.4528 150.083 65.4963 150.655 66.1695C151.227 66.8427 151.917 67.1793 152.725 67.1793C153.533 67.1793 154.257 66.8259 154.829 66.1358C155.418 65.4458 155.704 64.3686 155.704 62.9044C155.704 61.4401 155.418 60.4808 154.846 59.7739C154.274 59.0838 153.584 58.7304 152.793 58.7304C152.002 58.7304 151.312 59.1007 150.706 59.8412C150.1 60.5818 149.797 61.6421 149.797 63.0558Z" fill="#595757"/>
<path d="M167.284 64.9409L169.202 65.1765C168.899 66.2873 168.344 67.1625 167.519 67.7684C166.712 68.3911 165.668 68.6941 164.389 68.6941C162.79 68.6941 161.528 68.206 160.602 67.213C159.66 66.2368 159.205 64.8567 159.205 63.0727C159.205 61.2886 159.676 59.8075 160.619 58.7977C161.561 57.7879 162.79 57.283 164.305 57.283C165.82 57.283 166.947 57.7879 167.873 58.7809C168.799 59.7739 169.253 61.1708 169.253 62.9717C169.253 63.0895 169.253 63.241 169.253 63.4598H161.124C161.191 64.6548 161.528 65.5804 162.134 66.22C162.739 66.8595 163.497 67.1793 164.406 67.1793C165.079 67.1793 165.668 66.9942 166.139 66.6407C166.611 66.2873 166.998 65.7151 167.284 64.9409ZM161.225 61.9451H167.317C167.233 61.0194 166.998 60.3461 166.627 59.8749C166.038 59.168 165.281 58.8145 164.338 58.8145C163.497 58.8145 162.773 59.1007 162.201 59.6729C161.629 60.2452 161.309 61.0025 161.242 61.9618L161.225 61.9451Z" fill="#595757"/>
<path d="M171.508 68.4416V57.5354H173.174V59.1848C173.595 58.4106 173.982 57.9057 174.352 57.6532C174.706 57.4008 175.11 57.283 175.53 57.283C176.153 57.283 176.793 57.4849 177.432 57.872L176.793 59.5887C176.338 59.3194 175.884 59.1848 175.429 59.1848C175.026 59.1848 174.655 59.3026 174.335 59.5551C174.016 59.8075 173.78 60.1273 173.645 60.5649C173.443 61.2213 173.343 61.945 173.343 62.7192V68.4248H171.491L171.508 68.4416Z" fill="#595757"/>
<path d="M178.493 68.4413V53.3779H180.344V68.4413H178.493Z" fill="#595757"/>
<path d="M183.121 72.649L182.919 70.9155C183.323 71.0164 183.677 71.0838 183.98 71.0838C184.384 71.0838 184.72 71.0165 184.973 70.8818C185.225 70.7472 185.427 70.5452 185.579 70.3096C185.696 70.1244 185.881 69.67 186.151 68.9295C186.184 68.8285 186.235 68.677 186.319 68.475L182.179 57.552H184.165L186.437 63.8635C186.723 64.6713 186.992 65.5128 187.228 66.388C187.447 65.5465 187.699 64.705 187.985 63.8971L190.325 57.5352H192.176L188.019 68.6265C187.581 69.8215 187.228 70.6462 186.975 71.1006C186.639 71.7065 186.269 72.1609 185.848 72.447C185.427 72.7332 184.922 72.8678 184.333 72.8678C183.98 72.8678 183.576 72.8005 183.138 72.649H183.121Z" fill="#595757"/>
<path d="M194.213 68.4414V66.3375H196.317V68.4414C196.317 69.2156 196.182 69.8383 195.913 70.3096C195.643 70.7808 195.206 71.1511 194.6 71.4203L194.078 70.6293C194.465 70.461 194.751 70.2086 194.936 69.872C195.122 69.5354 195.223 69.0641 195.239 68.4414H194.196H194.213ZM194.213 59.639V57.5352H196.317V59.639H194.213Z" fill="#595757"/>
<path d="M205.994 68.4413V53.3779H207.98V68.4413H205.994Z" fill="#595757"/>
<path d="M217.54 68.4415V58.9659H215.907V57.5353H217.54V56.3741C217.54 55.6335 217.607 55.0949 217.742 54.7415C217.927 54.2702 218.23 53.8663 218.684 53.5802C219.139 53.2772 219.761 53.1257 220.569 53.1257C221.091 53.1257 221.663 53.1931 222.303 53.3109L222.017 54.9266C221.63 54.8593 221.276 54.8256 220.923 54.8256C220.367 54.8256 219.963 54.9434 219.728 55.1791C219.492 55.4147 219.374 55.8691 219.374 56.5255V57.5353H221.495V58.9659H219.374V68.4415H217.54Z" fill="#595757"/>
<path d="M230.415 64.9409L232.334 65.1765C232.031 66.2873 231.475 67.1625 230.651 67.7684C229.843 68.3911 228.799 68.6941 227.52 68.6941C225.921 68.6941 224.659 68.206 223.733 67.213C222.791 66.2368 222.336 64.8567 222.336 63.0727C222.336 61.2886 222.808 59.8075 223.75 58.7977C224.693 57.7879 225.921 57.283 227.436 57.283C228.951 57.283 230.079 57.7879 231.004 58.7809C231.93 59.7739 232.384 61.1708 232.384 62.9717C232.384 63.0895 232.384 63.241 232.384 63.4598H224.255C224.322 64.6548 224.659 65.5804 225.265 66.22C225.871 66.8595 226.628 67.1793 227.537 67.1793C228.21 67.1793 228.799 66.9942 229.271 66.6407C229.742 66.2873 230.129 65.7151 230.415 64.9409ZM224.339 61.9451H230.432C230.348 61.0194 230.112 60.3461 229.742 59.8749C229.153 59.168 228.395 58.8145 227.453 58.8145C226.611 58.8145 225.888 59.1007 225.315 59.6729C224.743 60.2452 224.423 61.0025 224.356 61.9618L224.339 61.9451Z" fill="#595757"/>
<path d="M242.112 64.9409L244.031 65.1765C243.728 66.2873 243.172 67.1625 242.347 67.7684C241.54 68.3911 240.496 68.6941 239.217 68.6941C237.618 68.6941 236.356 68.206 235.43 67.213C234.488 66.2368 234.033 64.8567 234.033 63.0727C234.033 61.2886 234.505 59.8075 235.447 58.7977C236.39 57.7879 237.618 57.283 239.133 57.283C240.648 57.283 241.775 57.7879 242.701 58.7809C243.627 59.7739 244.081 61.1708 244.081 62.9717C244.081 63.0895 244.081 63.241 244.081 63.4598H235.952C236.019 64.6548 236.356 65.5804 236.962 66.22C237.568 66.8595 238.325 67.1793 239.234 67.1793C239.907 67.1793 240.496 66.9942 240.967 66.6407C241.439 66.2873 241.826 65.7151 242.112 64.9409ZM236.036 61.9451H242.129C242.045 61.0194 241.809 60.3461 241.422 59.8749C240.833 59.168 240.075 58.8145 239.133 58.8145C238.291 58.8145 237.568 59.1007 236.995 59.6729C236.423 60.2452 236.103 61.0025 236.036 61.9618V61.9451Z" fill="#595757"/>
<path d="M246.303 68.4413V53.3779H248.155V68.4413H246.303Z" fill="#595757"/>
<path d="M256.872 68.4416V57.5354H258.522V59.067C258.858 58.5284 259.313 58.1077 259.885 57.7711C260.457 57.4513 261.097 57.283 261.82 57.283C262.628 57.283 263.285 57.4513 263.806 57.7879C264.328 58.1245 264.682 58.5958 264.901 59.2017C265.759 57.9225 266.887 57.283 268.267 57.283C269.344 57.283 270.185 57.5859 270.758 58.175C271.347 58.7809 271.633 59.6897 271.633 60.952V68.4416H269.798V61.5748C269.798 60.8342 269.731 60.2956 269.613 59.9759C269.495 59.6561 269.276 59.3868 268.957 59.1848C268.637 58.9829 268.267 58.8819 267.846 58.8819C267.072 58.8819 266.449 59.1343 265.927 59.6392C265.422 60.1441 265.17 60.9689 265.17 62.0965V68.4416H263.318V61.356C263.318 60.5313 263.167 59.9254 262.864 59.5046C262.561 59.0838 262.073 58.8819 261.383 58.8819C260.861 58.8819 260.373 59.0165 259.935 59.2858C259.498 59.5551 259.178 59.959 258.976 60.4808C258.774 61.0025 258.673 61.7599 258.673 62.7529V68.408H256.822L256.872 68.4416Z" fill="#595757"/>
<path d="M281.547 68.4411V66.8421C280.705 68.0708 279.544 68.6935 278.08 68.6935C277.44 68.6935 276.834 68.5757 276.279 68.3232C275.723 68.0708 275.303 67.7679 275.033 67.3976C274.764 67.0273 274.579 66.5729 274.461 66.0175C274.377 65.6472 274.343 65.075 274.343 64.2839V57.5181H276.195V63.5771C276.195 64.5364 276.228 65.1928 276.312 65.5294C276.43 66.0175 276.683 66.4046 277.053 66.6739C277.423 66.9432 277.895 67.0946 278.45 67.0946C279.005 67.0946 279.527 66.96 280.015 66.6739C280.503 66.3878 280.84 66.0007 281.042 65.5126C281.244 65.0245 281.345 64.3176 281.345 63.3751V57.5349H283.196V68.4411H281.547Z" fill="#595757"/>
<path d="M293.21 64.4528L295.027 64.6884C294.825 65.9338 294.32 66.9268 293.496 67.6337C292.671 68.3406 291.678 68.6941 290.483 68.6941C288.985 68.6941 287.79 68.206 286.881 67.2298C285.972 66.2536 285.518 64.8567 285.518 63.039C285.518 61.8609 285.72 60.8342 286.107 59.9422C286.494 59.067 287.083 58.3938 287.891 57.9562C288.682 57.5186 289.557 57.2998 290.5 57.2998C291.678 57.2998 292.654 57.6028 293.411 58.1918C294.169 58.7977 294.64 59.6392 294.859 60.75L293.058 61.0193C292.89 60.2788 292.587 59.7403 292.149 59.37C291.712 58.9997 291.19 58.8145 290.567 58.8145C289.642 58.8145 288.884 59.1512 288.295 59.8244C287.706 60.4976 287.42 61.5411 287.42 62.9885C287.42 64.436 287.706 65.5131 288.261 66.1863C288.817 66.8427 289.557 67.1793 290.466 67.1793C291.19 67.1793 291.796 66.9605 292.284 66.5061C292.772 66.0685 293.075 65.3785 293.21 64.4528Z" fill="#595757"/>
<path d="M296.61 68.4413V53.3779H298.461V58.7806C299.32 57.7876 300.414 57.2826 301.726 57.2826C302.534 57.2826 303.241 57.4341 303.83 57.7539C304.419 58.0737 304.857 58.5113 305.109 59.0667C305.362 59.6221 305.496 60.4468 305.496 61.5071V68.4244H303.645V61.5071C303.645 60.5814 303.443 59.9082 303.039 59.4874C302.635 59.0667 302.08 58.8479 301.339 58.8479C300.784 58.8479 300.279 58.9993 299.791 59.2686C299.303 59.5547 298.966 59.9418 298.764 60.4299C298.562 60.918 298.461 61.5913 298.461 62.4496V68.4244H296.61V68.4413Z" fill="#595757"/>
<path d="M314.164 68.4416V57.5354H315.813V59.067C316.15 58.5284 316.604 58.1077 317.176 57.7711C317.749 57.4513 318.388 57.283 319.112 57.283C319.92 57.283 320.576 57.4513 321.098 57.7879C321.62 58.1245 321.973 58.5958 322.192 59.2017C323.05 57.9225 324.178 57.283 325.558 57.283C326.635 57.283 327.477 57.5859 328.049 58.175C328.638 58.7809 328.924 59.6897 328.924 60.952V68.4416H327.09V61.5748C327.09 60.8342 327.022 60.2956 326.904 59.9759C326.787 59.6561 326.568 59.3868 326.248 59.1848C325.928 58.9829 325.558 58.8819 325.137 58.8819C324.363 58.8819 323.74 59.1343 323.219 59.6392C322.714 60.1441 322.461 60.9689 322.461 62.0965V68.4416H320.61V61.356C320.61 60.5313 320.458 59.9254 320.155 59.5046C319.852 59.0838 319.364 58.8819 318.674 58.8819C318.153 58.8819 317.664 59.0165 317.227 59.2858C316.789 59.5551 316.47 59.959 316.268 60.4808C316.066 61.0025 315.965 61.7599 315.965 62.7529V68.408H314.113L314.164 68.4416Z" fill="#595757"/>
<path d="M330.994 62.9885C330.994 60.9689 331.55 59.4709 332.677 58.4948C333.62 57.6869 334.764 57.283 336.111 57.283C337.609 57.283 338.837 57.7711 339.797 58.7641C340.756 59.7402 341.227 61.1035 341.227 62.8371C341.227 64.234 341.008 65.3448 340.588 66.1527C340.167 66.9606 339.561 67.5833 338.753 68.0209C337.945 68.4584 337.07 68.6941 336.111 68.6941C334.579 68.6941 333.35 68.206 332.408 67.2298C331.465 66.2536 330.994 64.8399 330.994 63.0053V62.9885ZM332.896 62.9885C332.896 64.3855 333.199 65.4289 333.805 66.119C334.411 66.809 335.185 67.1625 336.111 67.1625C337.036 67.1625 337.794 66.809 338.4 66.119C339.006 65.4121 339.308 64.3518 339.308 62.9212C339.308 61.5748 339.006 60.5481 338.383 59.858C337.777 59.168 337.003 58.8145 336.094 58.8145C335.185 58.8145 334.411 59.168 333.788 59.858C333.165 60.5481 332.879 61.5916 332.879 62.9885H332.896Z" fill="#595757"/>
<path d="M343.365 68.4416V57.5354H345.031V59.1848C345.452 58.4106 345.839 57.9057 346.209 57.6532C346.563 57.4008 346.967 57.283 347.387 57.283C348.01 57.283 348.65 57.4849 349.289 57.872L348.65 59.5887C348.195 59.3194 347.741 59.1848 347.286 59.1848C346.882 59.1848 346.512 59.3026 346.193 59.5551C345.873 59.8075 345.637 60.1273 345.502 60.5649C345.3 61.2213 345.199 61.945 345.199 62.7192V68.4248H343.348L343.365 68.4416Z" fill="#595757"/>
<path d="M357.855 64.9409L359.774 65.1765C359.471 66.2873 358.916 67.1625 358.091 67.7684C357.283 68.3911 356.24 68.6941 354.961 68.6941C353.362 68.6941 352.099 68.206 351.174 67.213C350.231 66.2368 349.777 64.8567 349.777 63.0727C349.777 61.2886 350.248 59.8075 351.191 58.7977C352.133 57.7879 353.362 57.283 354.876 57.283C356.391 57.283 357.519 57.7879 358.445 58.7809C359.37 59.7739 359.825 61.1708 359.825 62.9717C359.825 63.0895 359.825 63.241 359.825 63.4598H351.695C351.763 64.6548 352.099 65.5804 352.705 66.22C353.311 66.8595 354.069 67.1793 354.977 67.1793C355.651 67.1793 356.24 66.9942 356.711 66.6407C357.182 66.2873 357.569 65.7151 357.855 64.9409ZM351.78 61.9451H357.872C357.788 61.0194 357.553 60.3461 357.182 59.8749C356.593 59.168 355.836 58.8145 354.893 58.8145C354.052 58.8145 353.328 59.1007 352.756 59.6729C352.184 60.2452 351.864 61.0025 351.796 61.9618L351.78 61.9451Z" fill="#595757"/>
<path d="M367.197 65.1933L369.031 64.9072C369.132 65.6477 369.418 66.2031 369.89 66.5902C370.361 66.9773 371.017 67.1793 371.859 67.1793C372.7 67.1793 373.34 67.011 373.744 66.6576C374.148 66.3041 374.367 65.9002 374.367 65.4458C374.367 65.025 374.181 64.7052 373.828 64.4528C373.576 64.2845 372.936 64.0825 371.943 63.8301C370.58 63.4935 369.654 63.1905 369.115 62.938C368.594 62.6856 368.19 62.349 367.92 61.8946C367.651 61.457 367.517 60.9688 367.517 60.4303C367.517 59.9422 367.634 59.4878 367.853 59.0838C368.072 58.6631 368.375 58.3265 368.762 58.0572C369.048 57.8384 369.435 57.6701 369.94 57.5186C370.445 57.3671 370.967 57.2998 371.539 57.2998C372.397 57.2998 373.155 57.4176 373.794 57.6701C374.434 57.9225 374.922 58.2423 375.225 58.6799C375.528 59.1007 375.747 59.6561 375.865 60.363L374.064 60.6154C373.98 60.06 373.744 59.6224 373.357 59.3026C372.97 58.9829 372.414 58.8314 371.691 58.8314C370.849 58.8314 370.243 58.966 369.873 59.2522C369.503 59.5383 369.334 59.858 369.334 60.2451C369.334 60.4808 369.402 60.6996 369.553 60.8847C369.705 61.0867 369.94 61.255 370.26 61.3728C370.445 61.4401 370.984 61.5916 371.892 61.8441C373.205 62.1975 374.114 62.4836 374.636 62.7024C375.158 62.9212 375.562 63.241 375.848 63.6786C376.134 64.0994 376.285 64.6379 376.285 65.2607C376.285 65.8834 376.1 66.4556 375.747 66.9942C375.393 67.5328 374.871 67.9536 374.198 68.2565C373.525 68.5595 372.751 68.7109 371.892 68.7109C370.479 68.7109 369.402 68.4248 368.644 67.8357C367.904 67.2467 367.432 66.3715 367.214 65.2102L367.197 65.1933Z" fill="#595757"/>
<path d="M385.913 64.9409L387.831 65.1765C387.528 66.2873 386.973 67.1625 386.148 67.7684C385.34 68.3911 384.297 68.6941 383.018 68.6941C381.419 68.6941 380.157 68.206 379.231 67.213C378.288 66.2368 377.834 64.8567 377.834 63.0727C377.834 61.2886 378.305 59.8075 379.248 58.7977C380.19 57.7879 381.419 57.283 382.934 57.283C384.448 57.283 385.576 57.7879 386.502 58.7809C387.427 59.7739 387.882 61.1708 387.882 62.9717C387.882 63.0895 387.882 63.241 387.882 63.4598H379.753C379.82 64.6548 380.157 65.5804 380.762 66.22C381.368 66.8595 382.126 67.1793 383.035 67.1793C383.708 67.1793 384.297 66.9942 384.768 66.6407C385.239 66.2873 385.627 65.7151 385.913 64.9409ZM379.854 61.9451H385.946C385.862 61.0194 385.627 60.3461 385.239 59.8749C384.65 59.168 383.893 58.8145 382.95 58.8145C382.109 58.8145 381.385 59.1007 380.813 59.6729C380.241 60.2452 379.921 61.0025 379.854 61.9618V61.9451Z" fill="#595757"/>
<path d="M394.193 66.7917L394.463 68.4242C393.941 68.5252 393.47 68.5925 393.066 68.5925C392.392 68.5925 391.871 68.4916 391.5 68.2728C391.13 68.054 390.878 67.7847 390.726 67.4312C390.575 67.0778 390.507 66.3541 390.507 65.2433V58.9655H389.144V57.5349H390.507V54.842L392.342 53.7312V57.5349H394.193V58.9655H392.342V65.3443C392.342 65.866 392.376 66.2026 392.443 66.3541C392.51 66.5056 392.611 66.6234 392.763 66.7075C392.914 66.7917 393.116 66.8422 393.402 66.8422C393.604 66.8422 393.873 66.8254 394.21 66.7749L394.193 66.7917Z" fill="#595757"/>
<path d="M400.033 66.7917L400.302 68.4242C399.781 68.5252 399.309 68.5925 398.905 68.5925C398.232 68.5925 397.71 68.4916 397.34 68.2728C396.97 68.054 396.717 67.7847 396.566 67.4312C396.414 67.0778 396.347 66.3541 396.347 65.2433V58.9655H394.984V57.5349H396.347V54.842L398.182 53.7312V57.5349H400.033V58.9655H398.182V65.3443C398.182 65.866 398.215 66.2026 398.283 66.3541C398.35 66.5056 398.451 66.6234 398.602 66.7075C398.754 66.7917 398.956 66.8422 399.242 66.8422C399.444 66.8422 399.713 66.8254 400.05 66.7749L400.033 66.7917Z" fill="#595757"/>
<path d="M401.8 68.4413V53.3779H403.652V68.4413H401.8Z" fill="#595757"/>
<path d="M413.986 64.9409L415.905 65.1765C415.602 66.2873 415.046 67.1625 414.222 67.7684C413.414 68.3911 412.37 68.6941 411.091 68.6941C409.492 68.6941 408.23 68.206 407.304 67.213C406.362 66.2368 405.907 64.8567 405.907 63.0727C405.907 61.2886 406.379 59.8075 407.321 58.7977C408.264 57.7879 409.492 57.283 411.007 57.283C412.522 57.283 413.649 57.7879 414.575 58.7809C415.501 59.7739 415.955 61.1708 415.955 62.9717C415.955 63.0895 415.955 63.241 415.955 63.4598H407.826C407.893 64.6548 408.23 65.5804 408.836 66.22C409.442 66.8595 410.199 67.1793 411.125 67.1793C411.798 67.1793 412.387 66.9942 412.858 66.6407C413.33 66.2873 413.717 65.7151 414.003 64.9409H413.986ZM407.91 61.9451H414.003C413.919 61.0194 413.683 60.3461 413.313 59.8749C412.724 59.168 411.966 58.8145 411.024 58.8145C410.182 58.8145 409.459 59.1007 408.886 59.6729C408.314 60.2452 407.994 61.0025 407.927 61.9618L407.91 61.9451Z" fill="#595757"/>
<path d="M425.296 68.4413V67.0612C424.606 68.1383 423.579 68.6769 422.25 68.6769C421.375 68.6769 420.584 68.4413 419.843 67.9532C419.119 67.4819 418.547 66.8087 418.143 65.9503C417.739 65.092 417.537 64.099 417.537 62.9882C417.537 61.8774 417.722 60.918 418.076 60.026C418.446 59.134 418.985 58.4608 419.708 57.9895C420.432 57.5183 421.24 57.2826 422.149 57.2826C422.805 57.2826 423.394 57.4173 423.899 57.7034C424.421 57.9727 424.825 58.343 425.145 58.7806V53.3779H426.979V68.4413H425.262H425.296ZM419.456 63.005C419.456 64.4019 419.742 65.4455 420.331 66.1355C420.92 66.8256 421.61 67.179 422.418 67.179C423.226 67.179 423.916 66.8424 424.471 66.186C425.044 65.5296 425.313 64.5198 425.313 63.1565C425.313 61.6586 425.027 60.5646 424.455 59.8745C423.882 59.1677 423.175 58.8311 422.334 58.8311C421.492 58.8311 420.819 59.1677 420.28 59.8409C419.725 60.5141 419.456 61.5744 419.456 63.0218V63.005Z" fill="#595757"/>
<path d="M430.446 68.4412V66.3374H432.55V68.4412H430.446Z" fill="#595757"/>
<defs>
<linearGradient id="paint0_linear_76_85373" x1="240.008" y1="222.468" x2="240.008" y2="390.725" gradientUnits="userSpaceOnUse">
<stop stop-color="white"/>
<stop offset="1" stop-color="white" stop-opacity="0.6"/>
</linearGradient>
</defs>
</svg>
