<svg width="480" height="454" viewBox="0 0 480 454" fill="none" xmlns="http://www.w3.org/2000/svg">
<path opacity="0.8" d="M436.87 0H43.1304C19.3101 0 0 19.2976 0 43.1024V410.898C0 434.702 19.3101 454 43.1304 454H436.87C460.69 454 480 434.702 480 410.898V43.1024C480 19.2976 460.69 0 436.87 0Z" fill="url(#paint0_linear_20_208449)"/>
<mask id="mask0_20_208449" style="mask-type:luminance" maskUnits="userSpaceOnUse" x="17" y="99" width="446" height="340">
<path d="M17.5962 99.6052V398.858C17.5962 420.828 35.5801 438.8 57.5639 438.8H422.451C444.435 438.8 462.419 420.828 462.419 398.858V99.6052H17.5962Z" fill="white"/>
</mask>
<g mask="url(#mask0_20_208449)">
<path d="M869.678 35.5879H216.04V414.662H869.678V35.5879Z" fill="#B9DCF1"/>
<path d="M326.548 227.906H293.526C290.503 227.906 288.038 225.443 288.038 222.422C288.038 219.4 290.503 216.937 293.526 216.937H326.548C329.571 216.937 332.036 219.4 332.036 222.422C332.036 225.443 329.571 227.906 326.548 227.906Z" fill="#C9E4F5"/>
<path d="M422.995 35.6189L216.149 242.485L216.04 242.578V217.944L216.149 217.851L398.375 35.6189H422.995Z" fill="#C9E4F5"/>
<path d="M494.047 35.6187L454.901 74.5533L449.785 79.6351L444.684 84.7169L329.959 198.841H306.208L444.684 60.3769L469.443 35.6187H494.047Z" fill="#C9E4F5"/>
<path d="M579.718 35.6187L439.289 176.05V153.166L555.083 35.6187H579.718Z" fill="#C9E4F5"/>
<path d="M438.994 220.78V250.047H414.623V220.47L421.025 214.071L425.599 200.066H345.803L350.377 214.071L356.779 220.47V250.047H259.139V228.775H248.349V250.047H235.559V237.404H216.071V411.425H455.241V220.78H439.009H438.994ZM374.794 240.147H364.996V227.69H374.794V240.147ZM390.732 240.147H380.934V227.69H390.732V240.147ZM406.654 240.147H396.856V227.69H406.654V240.147ZM379.693 200.066L386.546 146.831L393.398 200.066H379.693Z" fill="#A1CFEC"/>
<path d="M869.678 408.884H-241.527V525.502H869.678V408.884Z" fill="#DAE3E5"/>
<path d="M431.986 116.2L419.987 112.714C419.32 112.528 418.638 112.9 418.436 113.566C418.25 114.232 418.622 114.929 419.289 115.115L420.359 115.425L412.266 120.305L376.748 109.987C374.872 109.445 372.856 109.553 371.058 110.281C371.058 110.281 371.042 110.281 371.027 110.281L368.097 111.66C366.872 111.304 365.616 111.118 364.361 111.118C363.105 111.118 361.833 111.273 360.609 111.614L359.384 111.939C357.896 112.357 357.337 114.17 358.345 115.332C359.477 116.649 360.779 117.78 362.221 118.71C363.663 119.639 365.229 120.367 366.903 120.848L381.569 125.108L380.593 128.517L390.53 131.383C392.871 132.065 395.29 131.259 396.778 129.524L408.08 132.809C411.336 133.754 414.839 132.731 417.056 130.159L418.638 128.346L423.227 129.679C423.893 129.865 424.576 129.493 424.777 128.827C424.963 128.161 424.591 127.463 423.924 127.277L420.452 126.27L427.986 117.61L431.304 118.57C431.971 118.756 432.653 118.384 432.854 117.718C433.04 117.052 432.668 116.355 432.002 116.169L431.986 116.2Z" fill="#A1CFEC"/>
<path d="M278.193 115.998C278.193 119.299 275.511 121.979 272.209 121.979C268.906 121.979 266.224 119.299 266.224 115.998C266.224 112.698 268.906 110.018 272.209 110.018C275.511 110.018 278.193 112.698 278.193 115.998Z" fill="#C9E4F5"/>
<path d="M258.55 131.941C258.55 133.738 257.093 135.21 255.279 135.21C253.465 135.21 252.008 133.754 252.008 131.941C252.008 130.128 253.465 128.672 255.279 128.672C257.093 128.672 258.55 130.128 258.55 131.941Z" fill="#C9E4F5"/>
<path d="M347.059 240.223C347.059 242.02 345.601 243.492 343.788 243.492C341.974 243.492 340.516 242.035 340.516 240.223C340.516 238.41 341.974 236.954 343.788 236.954C345.601 236.954 347.059 238.41 347.059 240.223Z" fill="#C9E4F5"/>
<path d="M435.909 399.618C428.963 404.174 421.429 407.629 413.538 409.968C405.693 412.323 397.461 413.531 389.151 413.531H216.04V350.319H358.33C367.725 350.319 376.795 353.495 384.159 359.32C384.159 359.32 384.159 359.32 384.19 359.336C384.469 359.537 384.717 359.754 384.98 359.971L395.972 369.639C402.065 369.639 408.08 370.491 413.894 372.118C419.692 373.76 425.274 376.224 430.483 379.4L435.676 382.56C441.971 386.449 442.095 395.559 435.909 399.603V399.618Z" fill="#C9E4F5"/>
<path d="M315.463 394.458C315.463 397.774 312.781 400.454 309.463 400.454H218.288C217.497 400.454 216.738 400.299 216.04 400.005V388.912C216.738 388.633 217.497 388.462 218.288 388.462H309.463C311.122 388.462 312.626 389.129 313.696 390.213C314.781 391.298 315.463 392.801 315.463 394.443V394.458Z" fill="#A1CFEC"/>
<path d="M361.369 359.319C361.369 365.021 365.989 369.653 371.694 369.653H395.972L384.298 359.381C384.252 359.366 384.205 359.35 384.159 359.319H361.369Z" fill="#A1CFEC"/>
<path d="M332.842 369.654H339.106C340.989 369.654 342.516 368.128 342.516 366.245V362.728C342.516 360.846 340.989 359.32 339.106 359.32H332.842C330.959 359.32 329.432 360.846 329.432 362.728V366.245C329.432 368.128 330.959 369.654 332.842 369.654Z" fill="#A1CFEC"/>
<path d="M310.998 369.654H317.262C319.145 369.654 320.672 368.128 320.672 366.245V362.728C320.672 360.846 319.145 359.32 317.262 359.32H310.998C309.115 359.32 307.588 360.846 307.588 362.728V366.245C307.588 368.128 309.115 369.654 310.998 369.654Z" fill="#A1CFEC"/>
<path d="M289.154 369.654H295.417C297.301 369.654 298.828 368.128 298.828 366.245V362.728C298.828 360.846 297.301 359.32 295.417 359.32H289.154C287.27 359.32 285.743 360.846 285.743 362.728V366.245C285.743 368.128 287.27 369.654 289.154 369.654Z" fill="#A1CFEC"/>
<path d="M267.294 369.654H273.558C275.441 369.654 276.969 368.128 276.969 366.245V362.728C276.969 360.846 275.441 359.32 273.558 359.32H267.294C265.411 359.32 263.884 360.846 263.884 362.728V366.245C263.884 368.128 265.411 369.654 267.294 369.654Z" fill="#A1CFEC"/>
<path d="M245.45 369.654H251.713C253.597 369.654 255.124 368.128 255.124 366.245V362.728C255.124 360.846 253.597 359.32 251.713 359.32H245.45C243.566 359.32 242.039 360.846 242.039 362.728V366.245C242.039 368.128 243.566 369.654 245.45 369.654Z" fill="#A1CFEC"/>
<path d="M223.606 369.654H229.87C231.753 369.654 233.28 368.128 233.28 366.245V362.728C233.28 360.846 231.753 359.32 229.87 359.32H223.606C221.722 359.32 220.195 360.846 220.195 362.728V366.245C220.195 368.128 221.722 369.654 223.606 369.654Z" fill="#A1CFEC"/>
<path d="M-241.527 407.847V416.771L869.678 416.771V407.847L-241.527 407.847Z" fill="#81AECA"/>
<path d="M869.321 198.345H216.04V202.699H869.321V198.345Z" fill="#6189A0"/>
<path d="M869.321 202.699H216.04V207.052H869.321V202.699Z" fill="#81AECA"/>
<path d="M442.73 412.168L438.389 410.2V35.5879H442.73V412.168Z" fill="#6189A0"/>
<path d="M446.528 412.168L442.172 410.2V35.5879H446.528V412.168Z" fill="#81AECA"/>
<path d="M-241.263 44.4041V408.605H-28.7739H8.0311H156.166H329.137H317.354V44.4041H-241.263Z" fill="#52595E"/>
<path d="M-241.263 74.9404V408.604H-28.7739H8.0311H156.166H329.137H317.354V74.9404H-241.263Z" fill="#E09B74"/>
<path d="M296.518 74.9404H-131.872V408.712H-97.6866V408.604H-6.32524V408.712H296.518V74.9404Z" fill="#9B837A"/>
<g style="mix-blend-mode:multiply" opacity="0.57">
<path d="M26.1389 74.9404H-82.3228V346.429H26.1389V74.9404Z" fill="#9B837A"/>
</g>
<g style="mix-blend-mode:multiply" opacity="0.57">
<path d="M296.518 74.9404H206.645V346.429H296.518V74.9404Z" fill="#9B837A"/>
</g>
<g style="mix-blend-mode:multiply" opacity="0.7">
<path d="M296.503 74.9404H-191.838V124.55H296.503V74.9404Z" fill="#9B837A"/>
</g>
<path style="mix-blend-mode:screen" opacity="0.42" d="M34.6663 74.8625L-147.483 408.604H-97.6861H-21.8126L160.337 74.8625H34.6663Z" fill="url(#paint1_linear_20_208449)"/>
<path style="mix-blend-mode:screen" opacity="0.42" d="M269.526 74.8625L87.7953 408.309H41.6572L221.899 74.8625H269.526Z" fill="url(#paint2_linear_20_208449)"/>
<g style="mix-blend-mode:multiply" opacity="0.44">
<path d="M296.518 181.179H242.628V243.168H296.518V181.179Z" fill="#9B837A"/>
</g>
<g style="mix-blend-mode:overlay">
<path d="M72.9125 276.262H-1.03857V359.879H72.9125V276.262Z" fill="#F4BD7B"/>
</g>
<path d="M-152.351 149.433L296.518 149.433V74.9408L-152.351 74.9408V149.433Z" fill="#F7DCB6"/>
<g style="mix-blend-mode:multiply">
<path d="M93.656 157.303H39.1616V379.214H93.656V157.303Z" fill="#FAF5F0"/>
<path d="M93.718 204.558H39.1616V209.314H93.718V204.558Z" fill="#E09B74"/>
<path d="M93.656 261.187H39.1616V265.943H93.656V261.187Z" fill="#E09B74"/>
<path d="M93.656 317.814H39.1616V322.57H93.656V317.814Z" fill="#E09B74"/>
<path d="M18.7437 282.475H-55.626V287.231H18.7437V282.475Z" fill="#FAF5F0"/>
<path d="M93.656 374.427H39.1616V379.199H93.656V374.427Z" fill="#E09B74"/>
<path d="M83.1449 204.557H66.5407C65.378 204.557 64.4013 203.689 64.2617 202.543L63.4556 195.865L65.2695 187.174H84.3851L86.199 195.865L85.3929 202.543C85.2533 203.689 84.2766 204.557 83.1139 204.557H83.1449Z" fill="#684329"/>
<path d="M81.3462 195.866H80.2609V187.236L77.9354 178.854C77.8114 178.591 76.5867 178.142 74.5247 178.157C72.4783 178.173 71.455 178.653 71.331 178.854L69.6101 187.205V195.85H68.5249V187.05L70.2923 178.529C70.7264 177.258 73.393 177.088 74.5092 177.073C75.4394 177.073 78.4626 177.134 78.9587 178.482V178.529L81.3462 187.081V195.85V195.866Z" fill="#935F3A"/>
<path d="M70.1838 186.259H68.0908V189.451H70.1838V186.259Z" fill="#DC9461"/>
<path d="M81.8576 186.259H79.7646V189.451H81.8576V186.259Z" fill="#DC9461"/>
<path d="M79.7492 317.813H68.0287C66.4008 317.813 65.021 316.605 64.835 314.978L63.4087 303.141H84.3537L82.9274 314.978C82.7259 316.589 81.3616 317.813 79.7337 317.813H79.7492Z" fill="#D03F47"/>
<path d="M79.3771 310.471H78.4625V303.204L74.8967 292.374C74.7416 291.94 74.23 291.801 73.8424 291.801C73.4548 291.801 72.9587 291.972 72.8037 292.405L69.486 303.204V310.471H68.5713V303.065L71.9355 292.111C72.1991 291.367 72.9432 290.887 73.8269 290.871C74.7261 290.856 75.4858 291.336 75.7649 292.064L79.3771 303.049V310.455V310.471Z" fill="#EA5F66"/>
<path d="M69.9516 302.367H68.1997V305.063H69.9516V302.367Z" fill="#EF8C93"/>
<path d="M79.8113 302.367H78.0439V305.063H79.8113V302.367Z" fill="#EF8C93"/>
<path d="M76.587 261.185H57.3163C55.5644 261.185 54.2621 259.605 54.5722 257.885L56.7737 245.986C57.0217 244.669 58.169 243.708 59.5178 243.708H74.37C75.7188 243.708 76.866 244.669 77.1141 245.986L79.3156 257.885C79.6411 259.605 78.3234 261.185 76.5715 261.185H76.587Z" fill="#745353"/>
<path d="M73.2228 246.358H71.7499V241.432C71.7499 239.355 70.0601 237.667 67.9826 237.667H66.0912C64.0137 237.667 62.3239 239.355 62.3239 241.432V246.358H60.8511V241.432C60.8511 238.55 63.1921 236.195 66.0912 236.195H67.9826C70.8662 236.195 73.2228 238.534 73.2228 241.432V246.358Z" fill="#C88269"/>
<path d="M72.4784 247.566C71.8583 247.566 71.3467 247.055 71.3467 246.435V244.917H73.6102V246.435C73.6102 247.055 73.0986 247.566 72.4784 247.566Z" fill="#E09B74"/>
<path d="M61.7499 247.691C61.1298 247.691 60.6182 247.18 60.6182 246.56V245.042H62.8817V246.56C62.8817 247.18 62.3701 247.691 61.7499 247.691Z" fill="#E09B74"/>
<path d="M71.2691 253.562H62.6492C62.1841 253.562 61.812 253.191 61.812 252.726C61.812 252.261 62.1841 251.889 62.6492 251.889H71.2691C71.7342 251.889 72.1063 252.261 72.1063 252.726C72.1063 253.191 71.7342 253.562 71.2691 253.562Z" fill="#E09B74"/>
<path d="M76.416 374.427H58.4011C57.1453 374.427 56.0756 373.481 55.9361 372.242L55.0679 364.991L57.0368 355.556H77.7803L79.7492 364.991L78.8811 372.242C78.726 373.497 77.6718 374.427 76.416 374.427Z" fill="#8C8172"/>
<path d="M74.4789 364.99H73.3007V355.632L70.7891 346.538C70.6496 346.243 69.3318 345.763 67.0838 345.794C64.8513 345.825 63.7506 346.321 63.6265 346.553L61.7661 355.617V364.99H60.5879V355.431L62.5103 346.181C62.9909 344.802 65.8745 344.617 67.0838 344.601C68.0915 344.601 71.3782 344.663 71.9209 346.135V346.181L74.5099 355.462V364.975L74.4789 364.99Z" fill="#A29685"/>
<path d="M62.3548 354.563H60.0913V358.033H62.3548V354.563Z" fill="#6D655A"/>
<path d="M75.0213 354.563H72.7578V358.033H75.0213V354.563Z" fill="#6D655A"/>
<path d="M67.8896 198.594V203.133C67.8896 203.924 67.254 204.559 66.4633 204.559H48.0763C47.2857 204.559 46.65 203.924 46.65 203.133V198.594C46.65 197.804 47.2857 197.168 48.0763 197.168H66.4633C67.254 197.168 67.8896 197.804 67.8896 198.594Z" fill="#57565B"/>
<path d="M67.9053 196.734V197.911C67.9053 199.771 66.4015 201.274 64.5411 201.274H50.0299C48.1695 201.274 46.6657 199.771 46.6657 197.911V196.734C46.6657 195.944 47.3013 195.309 48.092 195.309H66.479C67.2697 195.309 67.9053 195.944 67.9053 196.734Z" fill="#67656B"/>
<path d="M53.6883 298.943H57.7346C58.4323 298.943 59.0059 299.516 59.0059 300.213V316.543C59.0059 317.24 58.4323 317.814 57.7346 317.814H53.6883C52.9906 317.814 52.417 317.24 52.417 316.543V300.213C52.417 299.516 52.9906 298.943 53.6883 298.943Z" fill="#954435"/>
<path d="M53.0838 317.814H52.0296C51.3319 317.814 50.7583 317.24 50.7583 316.543V300.213C50.7583 299.516 51.3319 298.943 52.0296 298.943H53.0838C54.7427 298.943 56.076 300.275 56.076 301.933V314.823C56.076 316.481 54.7427 317.814 53.0838 317.814Z" fill="#C05847"/>
<path opacity="0.2" d="M18.744 287.231H-55.6567V292.266H18.744V287.231Z" fill="#221F20"/>
<path d="M17.8288 315.087V334.237H11.9841V373.048H-22.0458V334.237H-27.8906V315.087C-27.8906 308.921 -23.5652 303.762 -17.7979 302.46C-16.8832 302.243 -15.922 302.135 -14.9453 302.135H4.88351C5.86023 302.135 6.82143 302.243 7.73613 302.46C13.5034 303.762 17.8133 308.905 17.8133 315.087H17.8288Z" fill="#F7DCB6"/>
<path opacity="0.2" d="M93.718 209.33H39.1616V214.365H93.718V209.33Z" fill="#221F20"/>
<path opacity="0.2" d="M93.656 265.943H39.1616V270.994H93.656V265.943Z" fill="#221F20"/>
<path opacity="0.2" d="M93.656 322.57H39.1616V327.621H93.656V322.57Z" fill="#221F20"/>
</g>
<g style="mix-blend-mode:multiply">
<path d="M290.007 157.303H235.513V379.214H290.007V157.303Z" fill="#FAF5F0"/>
<path d="M290.069 204.558H235.512V209.314H290.069V204.558Z" fill="#E09B74"/>
<path d="M290.007 261.187H235.512V265.943H290.007V261.187Z" fill="#E09B74"/>
<path d="M290.007 317.814H235.513V322.57H290.007V317.814Z" fill="#E09B74"/>
<path d="M215.094 282.475H140.724V287.231H215.094V282.475Z" fill="#FAF5F0"/>
<path d="M290.007 374.427H235.512V379.199H290.007V374.427Z" fill="#E09B74"/>
<path d="M279.479 204.557H262.891C261.728 204.557 260.751 203.689 260.612 202.543L259.806 195.865L261.62 187.174H280.735L282.549 195.865L281.743 202.543C281.603 203.689 280.627 204.557 279.464 204.557H279.479Z" fill="#684329"/>
<path d="M277.697 195.866H276.612V187.236L274.286 178.854C274.162 178.591 272.937 178.142 270.875 178.157C268.829 178.173 267.806 178.653 267.682 178.854L265.961 187.205V195.85H264.875V187.05L266.643 178.529C267.077 177.258 269.744 177.088 270.86 177.073C271.79 177.073 274.813 177.134 275.309 178.482V178.529L277.697 187.081V195.85V195.866Z" fill="#935F3A"/>
<path d="M266.534 186.259H264.441V189.451H266.534V186.259Z" fill="#DC9461"/>
<path d="M278.208 186.259H276.115V189.451H278.208V186.259Z" fill="#DC9461"/>
<path d="M276.1 317.813H264.379C262.751 317.813 261.387 316.605 261.186 314.978L259.759 303.141H280.704L279.278 314.978C279.092 316.589 277.712 317.813 276.084 317.813H276.1Z" fill="#D03F47"/>
<path d="M275.728 310.471H274.813V303.204L271.247 292.374C271.092 291.94 270.581 291.801 270.193 291.801C269.805 291.801 269.309 291.972 269.154 292.405L265.837 303.204V310.471H264.922V303.065L268.286 292.111C268.55 291.367 269.278 290.887 270.178 290.871C271.077 290.856 271.836 291.336 272.115 292.064L275.728 303.049V310.455V310.471Z" fill="#EA5F66"/>
<path d="M266.317 302.367H264.55V305.063H266.317V302.367Z" fill="#EF8C93"/>
<path d="M276.131 302.367H274.379V305.063H276.131V302.367Z" fill="#EF8C93"/>
<path d="M272.937 261.185H253.666C251.914 261.185 250.612 259.605 250.922 257.885L253.124 245.986C253.372 244.669 254.519 243.708 255.868 243.708H270.72C272.069 243.708 273.216 244.669 273.464 245.986L275.666 257.885C275.991 259.605 274.673 261.185 272.922 261.185H272.937Z" fill="#745353"/>
<path d="M269.558 246.358H268.085V241.432C268.085 239.355 266.395 237.667 264.318 237.667H262.426C260.349 237.667 258.659 239.355 258.659 241.432V246.358H257.186V241.432C257.186 238.55 259.527 236.195 262.426 236.195H264.318C267.201 236.195 269.558 238.534 269.558 241.432V246.358Z" fill="#C88269"/>
<path d="M268.829 247.566C268.209 247.566 267.697 247.055 267.697 246.435V244.917H269.961V246.435C269.961 247.055 269.449 247.566 268.829 247.566Z" fill="#E09B74"/>
<path d="M258.085 247.691C257.465 247.691 256.953 247.18 256.953 246.56V245.042H259.217V246.56C259.217 247.18 258.705 247.691 258.085 247.691Z" fill="#E09B74"/>
<path d="M267.604 253.562H258.984C258.519 253.562 258.147 253.191 258.147 252.726C258.147 252.261 258.519 251.889 258.984 251.889H267.604C268.069 251.889 268.441 252.261 268.441 252.726C268.441 253.191 268.069 253.562 267.604 253.562Z" fill="#E09B74"/>
<path d="M272.751 374.427H254.736C253.48 374.427 252.411 373.481 252.271 372.242L251.403 364.991L253.372 355.556H274.115L276.084 364.991L275.216 372.242C275.061 373.497 274.007 374.427 272.751 374.427Z" fill="#8C8172"/>
<path d="M270.813 364.99H269.635V355.632L267.124 346.538C266.984 346.243 265.666 345.763 263.418 345.794C261.186 345.825 260.085 346.321 259.961 346.553L258.101 355.617V364.99H256.922V355.431L258.845 346.181C259.325 344.802 262.209 344.617 263.418 344.601C264.426 344.601 267.713 344.663 268.255 346.135V346.181L270.844 355.462V364.975L270.813 364.99Z" fill="#A29685"/>
<path d="M258.69 354.563H256.426V358.033H258.69V354.563Z" fill="#6D655A"/>
<path d="M271.356 354.563H269.092V358.033H271.356V354.563Z" fill="#6D655A"/>
<path d="M264.24 203.149V198.594C264.24 197.807 263.602 197.169 262.814 197.169H244.427C243.639 197.169 243.001 197.807 243.001 198.594V203.149C243.001 203.936 243.639 204.574 244.427 204.574H262.814C263.602 204.574 264.24 203.936 264.24 203.149Z" fill="#57565B"/>
<path d="M264.24 196.749V197.927C264.24 199.786 262.736 201.289 260.876 201.289H246.365C244.504 201.289 243 199.786 243 197.927V196.749C243 195.959 243.636 195.324 244.427 195.324H262.814C263.604 195.324 264.24 195.959 264.24 196.749Z" fill="#67656B"/>
<path d="M254.069 298.943H250.023C249.321 298.943 248.751 299.512 248.751 300.213V316.543C248.751 317.245 249.321 317.814 250.023 317.814H254.069C254.771 317.814 255.34 317.245 255.34 316.543V300.213C255.34 299.512 254.771 298.943 254.069 298.943Z" fill="#954435"/>
<path d="M249.434 317.814H248.38C247.682 317.814 247.108 317.24 247.108 316.543V300.213C247.108 299.516 247.682 298.943 248.38 298.943H249.434C251.093 298.943 252.426 300.275 252.426 301.933V314.823C252.426 316.481 251.093 317.814 249.434 317.814Z" fill="#C05847"/>
<path opacity="0.2" d="M212.985 170.07H140.693V175.105H212.985V170.07Z" fill="#221F20"/>
<path opacity="0.2" d="M215.094 287.231H140.693V292.266H215.094V287.231Z" fill="#221F20"/>
<path d="M212.985 165.298H140.693V170.287H212.985V165.298Z" fill="#FAF5F0"/>
<path d="M157.08 178.359H152.677V185.827H157.08V178.359Z" fill="#804721"/>
<path d="M153.639 185.33H155.856C158.306 185.33 160.274 187.313 160.274 189.746V265.725H149.205V189.746C149.205 187.298 151.189 185.33 153.624 185.33H153.639Z" fill="#F7DCB6"/>
<path d="M155.282 165.328H154.476V178.358H155.282V165.328Z" fill="#4B4B4C"/>
<path d="M172.955 178.359H168.552V185.827H172.955V178.359Z" fill="#804721"/>
<path d="M169.529 185.33H171.746C174.196 185.33 176.165 187.313 176.165 189.746V265.725H165.111V189.746C165.111 187.298 167.095 185.33 169.529 185.33Z" fill="#F7DCB6"/>
<path d="M171.172 165.328H170.367V178.358H171.172V165.328Z" fill="#4B4B4C"/>
<path d="M187.452 178.359H183.049V185.827H187.452V178.359Z" fill="#804721"/>
<path d="M184.01 185.33H186.227C188.676 185.33 190.645 187.313 190.645 189.746V265.725H179.591V189.746C179.591 187.298 181.576 185.33 184.01 185.33Z" fill="#C8A09F"/>
<path d="M185.652 165.328H184.847V178.358H185.652V165.328Z" fill="#4B4B4C"/>
<path d="M202.195 178.359H197.792V185.827H202.195V178.359Z" fill="#804721"/>
<path d="M199.328 185.33H200.413C203.172 185.33 205.405 187.561 205.405 190.319V270.342H194.335V190.319C194.335 187.561 196.568 185.33 199.328 185.33Z" fill="#6D4B37"/>
<path d="M200.396 165.328H199.59V178.358H200.396V165.328Z" fill="#4B4B4C"/>
<path d="M195.312 178.359H190.909V185.827H195.312V178.359Z" fill="#804721"/>
<path d="M191.87 185.33H194.087C196.537 185.33 198.506 187.313 198.506 189.746V265.725H187.452V189.746C187.452 187.298 189.436 185.33 191.87 185.33Z" fill="#825E5D"/>
<path d="M193.513 165.328H192.708V178.358H193.513V165.328Z" fill="#4B4B4C"/>
<path d="M162.196 294.978H157.964V302.136H162.196V294.978Z" fill="#986533"/>
<path d="M160.475 282.475H159.701V294.978H160.475V282.475Z" fill="#4B4B4C"/>
<path d="M172.475 302.46C171.56 302.243 170.599 302.135 169.622 302.135H149.778C148.801 302.135 147.84 302.243 146.925 302.46C144.522 303.002 142.383 304.211 140.693 305.884V334.237H142.677V373.048H176.707V334.237H182.552V315.087C182.552 308.921 178.242 303.762 172.475 302.46Z" fill="#525152"/>
<path d="M160.088 298.556L172.475 302.46L160.088 307.17L146.926 302.46L160.088 298.556Z" fill="#986533"/>
<path d="M170.506 294.978H166.274V302.136H170.506V294.978Z" fill="#986533"/>
<path d="M168.769 282.475H167.995V294.978H168.769V282.475Z" fill="#4B4B4C"/>
<path d="M190.862 315.087V334.237H185.017V373.048H150.987V334.237H145.143V315.087C145.143 308.921 149.468 303.762 155.235 302.46C156.15 302.243 157.111 302.135 158.088 302.135H177.932C178.909 302.135 179.87 302.243 180.785 302.46C186.552 303.762 190.862 308.905 190.862 315.087Z" fill="#6E6C6E"/>
<path d="M168.383 298.556L180.77 302.46L168.383 307.17L155.22 302.46L168.383 298.556Z" fill="#986533"/>
<path d="M176.428 294.978H172.196V302.136H176.428V294.978Z" fill="#804721"/>
<path d="M174.707 282.475H173.933V294.978H174.707V282.475Z" fill="#4B4B4C"/>
<path d="M196.784 315.087V334.237H190.94V373.048H156.91V334.237H151.065V315.087C151.065 308.921 155.39 303.762 161.158 302.46C162.072 302.243 163.034 302.135 164.01 302.135H183.855C184.831 302.135 185.793 302.243 186.707 302.46C192.474 303.762 196.784 308.905 196.784 315.087Z" fill="#E09B74"/>
<path d="M174.305 298.556L186.707 302.46L174.305 307.17L161.158 302.46L174.305 298.556Z" fill="#804721"/>
<path d="M183.731 294.978H179.499V302.136H183.731V294.978Z" fill="#986533"/>
<path d="M182.01 282.475H181.235V294.978H182.01V282.475Z" fill="#4B4B4C"/>
<path d="M204.087 315.087V334.237H198.242V373.048H164.212V334.237H158.367V315.087C158.367 308.921 162.693 303.762 168.46 302.46C169.375 302.243 170.336 302.135 171.312 302.135H191.157C192.134 302.135 193.095 302.243 194.009 302.46C199.777 303.762 204.087 308.905 204.087 315.087Z" fill="#DE8957"/>
<path d="M181.622 298.556L194.009 302.46L181.622 307.17L168.459 302.46L181.622 298.556Z" fill="#986533"/>
<path d="M193.823 294.978H189.591V302.136H193.823V294.978Z" fill="#804721"/>
<path d="M192.086 282.475H191.312V294.978H192.086V282.475Z" fill="#4B4B4C"/>
<path d="M214.163 315.087V334.237H208.318V373.048H174.289V334.237H168.444V315.087C168.444 308.921 172.769 303.762 178.537 302.46C179.451 302.243 180.412 302.135 181.389 302.135H201.233C202.21 302.135 203.171 302.243 204.086 302.46C209.853 303.762 214.163 308.905 214.163 315.087Z" fill="#F7DCB6"/>
<path d="M191.7 298.556L204.087 302.46L191.7 307.17L178.537 302.46L191.7 298.556Z" fill="#804721"/>
<path opacity="0.2" d="M290.069 209.33H235.512V214.365H290.069V209.33Z" fill="#221F20"/>
<path opacity="0.2" d="M290.007 265.943H235.513V270.994H290.007V265.943Z" fill="#221F20"/>
<path opacity="0.2" d="M290.007 322.57H235.513V327.621H290.007V322.57Z" fill="#221F20"/>
</g>
<path d="M371.182 283.417H363.663C340.052 283.417 320.889 264.268 320.889 240.671V227.332C320.889 222.374 324.92 218.346 329.881 218.346H342.966C358.547 218.346 371.182 230.988 371.182 246.543V283.417Z" fill="#F6D2A0"/>
<path d="M374.081 338.341V358.343C374.081 358.343 385.135 356.422 378.778 341.347L374.081 338.357V338.341Z" fill="#E69392"/>
<path d="M378.778 341.347L374.081 338.357L389.77 302.691L399.444 308.857C381.91 336.249 378.778 341.347 378.778 341.347Z" fill="#E96094"/>
<path d="M374.391 267.677C374.391 267.677 380.825 273.301 399.445 308.905L389.476 313.135L367.895 278.027L374.391 267.677Z" fill="#E96094"/>
<path d="M327.23 266.159C327.23 266.159 321.029 283.186 324.331 328.349C324.331 328.349 328.92 328.597 332.3 328.178L334.734 322.43L335.865 275.393L327.23 266.159Z" fill="#E96094"/>
<path d="M340.671 486.567H352.5C352.5 486.567 356.113 474.683 360.407 455.89C363.275 443.34 366.453 427.677 369.043 410.448C372.128 390.044 374.391 367.392 374.391 344.958H347.601L344.33 411.874L342.625 446.826L340.687 486.551L340.671 486.567Z" fill="#D58483"/>
<path d="M374.376 344.972H337.059C337.059 344.972 343.927 328.936 327.54 286.593L327.23 266.158L341.648 261.479L358.423 260.626L374.376 267.676V344.972Z" fill="#E96094"/>
<path d="M358.423 261.479C358.423 261.479 358.919 264.485 352.764 264.485C346.609 264.485 341.726 261.479 341.726 261.479V242.035H358.407V261.479H358.423Z" fill="#E69392"/>
<path d="M341.741 259.652V251.053H356.857C356.857 251.053 355.679 259.652 341.741 259.652Z" fill="#D16F6D"/>
<path d="M336.16 412.354C336.827 415.36 337.478 418.458 338.067 421.696C339.757 430.884 341.276 439.328 342.609 446.858C346.966 471.523 349.369 486.567 349.369 486.567H360.407V344.974H337.059C324.796 371.514 330.935 388.789 336.16 412.354Z" fill="#E69392"/>
<path d="M336.16 412.354L344.33 411.889L360.422 410.96L369.058 410.464C372.143 390.059 374.406 367.408 374.406 344.974H337.09C324.827 371.514 330.966 388.789 336.191 412.354H336.16Z" fill="#404264"/>
<path d="M333.307 361.364L327.307 373.743C325.85 376.764 321.137 375.664 321.354 372.318C321.524 369.576 323.121 366.09 327.772 361.999L333.307 361.349V361.364Z" fill="#E69392"/>
<path d="M327.773 362.016L333.308 361.365L334.734 322.43C328.439 323.174 323.54 321.346 324.285 327.636C326.92 350.008 327.773 362.016 327.773 362.016Z" fill="#E96094"/>
<path d="M360.035 246.358H358.422V235.296H362.825V243.569C362.825 245.118 361.57 246.358 360.035 246.358Z" fill="#EC9C9A"/>
<path d="M361.353 226.14V236.644H358.423V251.177C358.423 251.177 348.78 261.278 339.71 256.243C335.741 254.043 333.307 249.147 333.307 243.926V226.14C333.307 223.087 333.974 220.221 335.121 217.758C337.493 212.676 341.958 209.236 347.074 209.236H347.586C355.183 209.236 361.353 216.813 361.353 226.14Z" fill="#EC9C9A"/>
<path d="M338.547 243.539C337.85 243.539 337.183 243.198 336.702 242.594C336.191 241.943 335.958 241.06 336.067 240.177L336.191 239.17L337.508 239.371L337.384 240.378C337.322 240.843 337.446 241.292 337.71 241.633C337.927 241.912 338.222 242.067 338.547 242.067V243.539Z" fill="#D16F6D"/>
<path d="M350.035 247.319C350.035 247.319 348.95 252.927 344.051 252.927C339.152 252.927 338.067 247.319 338.067 247.319H350.02H350.035Z" fill="white"/>
<path d="M330.811 227.564C330.811 227.564 354.128 225.488 371.182 255.266V226.867C371.182 215.944 362.144 207.097 350.997 207.097C339.85 207.097 330.811 215.944 330.811 226.867V227.564Z" fill="#F6D2A0"/>
<path d="M360.237 275.563H357.012V259.032H371.182V264.625C371.182 270.668 366.268 275.563 360.237 275.563Z" fill="#F6D2A0"/>
<path d="M349.462 293.985C357.368 293.985 363.787 287.57 363.787 279.669V257.126H359.26C353.849 257.126 349.462 261.511 349.462 266.918V293.985Z" fill="#F6D2A0"/>
<path d="M222.908 238.209C227.714 238.209 231.621 234.32 231.621 229.501V215.418H219.109" fill="#AD3C49"/>
<path d="M255.821 239.959H224.226V209.469C224.226 204.371 228.365 200.235 233.466 200.235H242.907C252.318 200.235 259.93 207.857 259.93 217.246L255.821 239.959Z" fill="#AD3C49"/>
<path d="M240.179 242.594H227.203V213.839C227.203 209.036 231.342 205.131 236.443 205.131H245.884C255.295 205.131 262.907 212.32 262.907 221.167C262.907 232.988 252.737 242.579 240.179 242.579V242.594Z" fill="#AD3C49"/>
<path d="M311.339 288.996L283.139 316.698L278.891 306.767L306.781 283.295L311.339 288.996Z" fill="#F19F9E"/>
<path d="M258.829 258.66L255.496 260.968C255.496 260.968 282.068 315.164 283.138 316.713L291.68 308.316L269.805 262.455L258.844 258.66H258.829Z" fill="#F19F9E"/>
<path d="M284.642 293.583L272.891 300.493L261.976 275.905L269.79 262.457L284.642 293.583Z" fill="#563A42"/>
<path d="M306.505 279.546L314.806 274.086L317.405 278.034C319.741 281.58 318.753 286.365 315.205 288.699L311.307 291.263C310.245 291.961 308.806 291.665 308.107 290.603L305.141 286.1C303.709 283.925 304.316 280.985 306.492 279.555L306.505 279.546Z" fill="#F19F9E"/>
<path d="M269.79 262.456L251.341 253.749H229.218L210.056 262.456L213.745 358.158H266.488L269.79 262.456Z" fill="#563A42"/>
<path d="M252.441 254.259C252.441 254.259 249.248 258.489 240.271 258.489C231.295 258.489 228.101 254.259 228.101 254.259V226.914H252.441V254.259Z" fill="#F19F9E"/>
<path d="M252.441 252.787V241.617H232.333C232.333 241.617 235.884 251.672 252.441 252.787Z" fill="#D16F6D"/>
<path d="M213.745 358.158L212.814 488.503L223.388 487.713L245.092 358.158H213.745Z" fill="#C1DCED"/>
<path d="M266.472 358.158L264.162 483.452H251.279L236.535 358.158H266.472Z" fill="#C1DCED"/>
<path d="M210.056 262.457C210.056 262.457 202.413 283.187 202.413 317.179C202.413 319.038 202.444 322.323 202.49 324.213L214.118 322.787L215.296 304.567L210.056 262.457Z" fill="#F19F9E"/>
<path d="M263.557 277.717H244.721C243.051 277.717 241.698 279.069 241.698 280.738V312.127C241.698 313.796 243.051 315.149 244.721 315.149H263.557C265.227 315.149 266.581 313.796 266.581 312.127V280.738C266.581 279.069 265.227 277.717 263.557 277.717Z" fill="white"/>
<path d="M263.991 281.591C263.991 282.148 263.542 282.598 262.984 282.598C262.426 282.598 261.976 282.148 261.976 281.591C261.976 281.033 262.426 280.583 262.984 280.583C263.542 280.583 263.991 281.033 263.991 281.591Z" fill="#192636"/>
<path d="M242.458 306.006H252.396V310.732C252.396 314.977 248.938 318.432 244.691 318.432H237.729V310.732C237.729 308.113 239.853 306.006 242.458 306.006Z" fill="#F19F9E"/>
<path d="M239.171 318.434L214.118 322.787L211.746 311.136H239.171V318.434Z" fill="#F19F9E"/>
<path d="M257.278 248.218C240.736 253.966 230.892 241.943 230.892 241.943V215.636C230.892 212.475 233.186 209.903 236.008 209.903H245.48C255.356 209.903 257.294 218.13 257.278 223.77V248.218Z" fill="#F19F9E"/>
<path d="M253.651 234.676H250.379V233.205H252.023L251.666 230.028L253.124 229.874L253.651 234.676Z" fill="#D16F6D"/>
<path d="M216.645 372.66C223.311 372.66 228.738 367.237 228.738 360.575H227.234C227.234 366.416 222.49 371.157 216.645 371.157V372.66Z" fill="#AEC7D7"/>
<path d="M263.356 372.366V371.451C261.557 371.451 259.558 366.989 259.558 360.575H258.643C258.643 367.191 260.705 372.366 263.356 372.366Z" fill="#AEC7D7"/>
<path d="M241.791 380.748L245.031 377.525V365.316H244.101V377.138L241.14 380.097L241.791 380.748Z" fill="#AEC7D7"/>
<path d="M234.985 224.373H219.125V215.496C219.125 210.724 222.272 206.85 226.148 206.85H235.233C237.791 206.85 239.853 209.391 239.853 212.536C239.853 219.075 235.311 215.434 234.985 224.373Z" fill="#AD3C49"/>
<path d="M230.458 232.678C232.954 232.678 234.985 230.649 234.985 228.154V224.374H230.458V232.678Z" fill="#AD3C49"/>
<path d="M227.264 223.274C225.466 223.274 224.008 224.731 224.008 226.528V233.237C224.008 235.034 225.466 236.49 227.264 236.49H230.551V226.574C230.551 224.762 229.078 223.29 227.264 223.29V223.274Z" fill="#F19F9E"/>
<path d="M215.296 304.567L201.653 303.514C201.653 303.514 206.986 266.252 210.056 262.457L215.296 304.567Z" fill="#563A42"/>
<path style="mix-blend-mode:screen" d="M204.366 355.804H34.4336L109.222 44.3735H129.578L204.366 355.804Z" fill="url(#paint3_linear_20_208449)"/>
<path d="M326.982 362.667C326.982 362.667 321.696 367.966 320.89 369.716C320.099 371.467 318.952 375.852 322.905 376.208C326.858 376.565 328.44 375.96 328.998 374.07C329.556 372.18 330.672 365.905 330.672 365.905L326.967 362.683L326.982 362.667Z" fill="#E69392"/>
<path d="M313.789 391.206C313.494 391.144 313.246 390.896 313.215 390.586C313.168 390.137 312.083 379.431 316.998 373.776C318.858 371.638 321.323 370.522 324.346 370.429C332.873 370.166 334.067 377.913 335.121 384.73C335.741 388.711 336.315 392.492 338.129 394.769C338.377 395.079 338.315 395.529 338.005 395.776C337.695 396.024 337.245 395.962 336.997 395.652C334.951 393.065 334.315 388.928 333.71 384.931C332.656 378.083 331.664 371.622 324.393 371.839C321.788 371.917 319.664 372.877 318.083 374.69C313.572 379.865 314.626 390.307 314.641 390.4C314.688 390.788 314.393 391.144 314.006 391.19C313.928 391.19 313.851 391.19 313.789 391.19V391.206Z" fill="#5A8BC9"/>
<path d="M284.952 387.781L278.751 450.622L290.549 451.241L295.929 455.579L293.061 388.013L284.952 387.781Z" fill="#98AAD7"/>
<path d="M293.061 388.014H363.384L372.035 453.628L295.929 455.58L293.061 388.014Z" fill="#F18C37"/>
<path d="M318.595 393.189C318.285 393.189 318.006 392.988 317.913 392.693C317.773 392.259 314.61 381.972 318.331 375.465C319.742 373.017 321.944 371.421 324.874 370.739C333.199 368.818 335.881 376.177 338.253 382.669C339.633 386.465 340.951 390.044 343.168 391.934C343.462 392.198 343.509 392.647 343.245 392.941C342.982 393.236 342.532 393.282 342.237 393.019C339.726 390.881 338.3 386.961 336.904 383.149C334.532 376.642 332.284 370.491 325.199 372.134C322.672 372.722 320.765 374.07 319.572 376.177C316.161 382.127 319.246 392.167 319.277 392.259C319.401 392.631 319.184 393.034 318.812 393.158C318.734 393.174 318.672 393.189 318.595 393.189Z" fill="#84ACDC"/>
<path d="M290.549 451.242V388.014H293.061L295.929 455.58L290.549 451.242Z" fill="#98AAD7"/>
<path d="M324.921 364.79C324.921 364.79 321.246 366.649 320.378 367.873C319.51 369.112 317.959 370.739 318.905 370.94C319.866 371.142 322.688 369.035 322.688 369.035L324.921 364.79Z" fill="#E69392"/>
<path d="M320.905 372.52C320.905 372.52 324.238 370.087 326.3 370.955C328.362 371.823 328.533 375.076 327.897 375.758C327.261 376.44 322.052 377.183 320.657 375.355C319.262 373.527 320.905 372.52 320.905 372.52Z" fill="#E69392"/>
<path d="M153.778 409.781L153.964 347.065L157.685 341.44L191.467 341.719L193.327 345.67L193.141 409.781H191.312L191.545 345.903L189.312 343.687H159.018L155.701 348.01L155.189 409.781H153.778Z" fill="white"/>
<path d="M164.646 340.852L164.073 344.415H184.599L185.173 341.069L164.646 340.852Z" fill="#356A7C"/>
<path d="M147.173 494.685H198.427C200.542 494.685 202.257 492.972 202.257 490.858V411.223C202.257 409.109 200.542 407.396 198.427 407.396H147.173C145.058 407.396 143.344 409.109 143.344 411.223V490.858C143.344 492.972 145.058 494.685 147.173 494.685Z" fill="#356A7C"/>
<path d="M148.554 414.663L149.081 438.91C149.096 439.498 149.36 439.963 149.67 439.948L170.073 439.622C170.383 439.622 170.631 439.158 170.646 438.584L171.158 415.127C171.173 414.508 170.91 413.981 170.584 413.981L149.143 413.516C148.802 413.516 148.538 414.043 148.554 414.663Z" fill="#529AB0"/>
<path d="M150.972 415.687L151.22 417.127L169.747 417.298V416.492L150.972 415.687Z" fill="#366770"/>
<path d="M174.615 414.663L175.142 438.91C175.158 439.498 175.421 439.963 175.731 439.948L196.134 439.622C196.444 439.622 196.692 439.158 196.707 438.584L197.219 415.127C197.234 414.508 196.971 413.981 196.645 413.981L175.204 413.516C174.863 413.516 174.599 414.043 174.615 414.663Z" fill="#529AB0"/>
<path d="M177.033 415.687L177.281 417.127L195.808 417.298V416.492L177.033 415.687Z" fill="#366770"/>
<path d="M208.614 397.65L202.258 407.396H145.004L137.872 393.808L145.949 371.838L152.941 372.009L200.413 373.14L208.614 397.65Z" fill="#7DC1D2"/>
<path d="M208.613 397.65L202.257 407.395H155.685L158.971 393.808L152.026 371.978L200.412 373.14L208.613 397.65Z" fill="#89C8DA"/>
<path d="M157.561 377.168L166.026 390.755C167.576 393.234 170.274 394.737 173.204 394.737H192.382C199.219 394.737 208.335 392.63 199.312 381.459L195.668 376.253L193.002 376.424L194.009 378.175C202.753 391.7 193.42 390.445 187.142 390.802L175.312 391.452C172.506 391.607 169.793 390.352 168.103 388.106L159.856 377.183H157.577L157.561 377.168Z" fill="#6DB5CA"/>
</g>
<path d="M46.9135 31.403V28.0874H49.3631V31.403H51.5645V33.7734H49.3631V37.2284C49.9677 37.058 50.5723 36.8566 51.1459 36.6707L51.5645 38.8707C50.8514 39.1806 50.1072 39.4285 49.3631 39.6919V44.3863C49.3631 45.6413 49.1925 46.4625 48.836 46.9273C48.4174 47.454 47.6887 47.7019 46.65 47.7019C46.0608 47.7019 45.5182 47.6089 45.0376 47.4385L44.6035 44.8976C45.1616 45.1145 45.7353 45.223 46.2934 45.223C46.5259 45.223 46.681 45.13 46.774 44.9441C46.867 44.7117 46.898 44.3089 46.898 43.7976V40.482C46.3554 40.6525 45.8128 40.7919 45.2702 40.9158L44.4175 38.4679C45.2857 38.2975 46.1074 38.0961 46.898 37.9101V33.8044H44.6035V31.434H46.898L46.9135 31.403ZM63.2076 40.2187H60.727V38.9327H54.2776V43.5962C54.2776 44.1384 54.6032 44.4638 55.2698 44.5568C56.045 44.7272 57.0217 44.7892 58.231 44.7892C59.0992 44.7892 59.7038 44.7737 60.0759 44.6962C60.417 44.6497 60.7115 44.5258 60.8976 44.3554C61.1611 44.092 61.3472 43.2243 61.4867 41.737L63.9672 42.837C63.8432 43.9215 63.5951 44.9596 63.2541 45.9667C63.0215 46.5709 62.5564 46.9427 61.8588 47.1132C61.0836 47.2371 59.8899 47.3301 58.231 47.3301C56.138 47.3301 54.9133 47.2216 54.5102 47.0512C52.7118 46.9427 51.8126 46.0906 51.8126 44.5413V28.6916H63.1921V40.2187H63.2076ZM54.2776 36.5622H56.231V31.1396H54.2776V36.5622ZM60.727 36.5622V31.1396H58.7116V36.5622H60.727Z" fill="#595757"/>
<path d="M68.525 31.403V28.0874H70.9745V31.403H72.8504V33.7734H70.9745V36.8721C71.4706 36.7017 71.9512 36.5003 72.4008 36.3143L72.7419 38.3594C72.1528 38.7003 71.5636 39.0102 70.959 39.289V44.2779C70.959 45.5793 70.7885 46.4314 70.4629 46.8808C70.0288 47.4075 69.2846 47.6864 68.2459 47.6864C67.6413 47.6864 67.0676 47.6244 66.556 47.516L66.1219 44.8821C66.7111 45.0526 67.3002 45.1145 67.9048 45.1145C68.1374 45.1145 68.2924 45.0216 68.3854 44.8357C68.4785 44.6033 68.5094 44.2004 68.5094 43.6891V40.3891C67.9823 40.606 67.4707 40.8074 66.9591 40.9778L66.1064 38.4369C66.9281 38.22 67.7343 38.0031 68.494 37.7397V33.7734H66.1064V31.403H68.494H68.525ZM75.6565 37.5383C75.6565 39.4905 75.4395 41.3806 75.0519 43.2088C74.7263 44.6807 74.1837 46.1681 73.4395 47.6864L71.2536 46.4005C72.0287 44.5413 72.5558 42.93 72.8349 41.5356C73.114 39.8623 73.269 38.1735 73.269 36.4848V28.4283H85.3151V33.8509H75.6565V37.5383ZM79.0363 41.737V40.7144H81.4858V41.737H84.726V43.9525H81.4858V45.13H85.7492V47.3456H74.8038V45.13H79.0363V43.9525H75.9046V41.737H79.0363ZM75.6565 30.6128V31.6354H82.9586V30.6128H75.6565ZM85.3151 34.5326V36.7481H83.5787C84.4469 37.7397 85.1911 38.7933 85.7492 39.8778L83.7958 40.9778C83.6252 40.637 83.4237 40.3116 83.2532 39.9862C81.0362 40.3736 78.8037 40.6215 76.4937 40.7299L75.827 38.5454C76.2611 38.5454 76.6797 38.5299 77.1138 38.4989L77.827 36.7636H75.9821V34.5481H85.3151V34.5326ZM81.3463 37.5073L82.5245 36.7481H80.3695L79.7184 38.3594C80.4626 38.313 81.1912 38.2665 81.9354 38.189C81.7338 37.9721 81.5478 37.7397 81.3463 37.5228V37.5073Z" fill="#595757"/>
<path d="M94.9736 45.2854H92.6016V44.1079H90.5551V45.8896H88.1831V29.4357H94.9581V45.2854H94.9736ZM92.6016 35.5401V31.7133H90.5551V35.5401H92.6016ZM92.6016 41.8149V37.7556H90.5551V41.8149H92.6016ZM100.074 29.8541V27.9949H102.524V29.8541H107.19V32.24H102.524V34.2542H106.849V36.6401H105.237V38.3289H107.19V40.6994H105.237V44.4333C105.237 45.7192 105.051 46.5403 104.648 46.8812C104.214 47.3305 103.469 47.5784 102.431 47.5784C101.671 47.5784 100.973 47.4854 100.322 47.315L99.8882 44.6966C100.741 44.9755 101.578 45.1149 102.431 45.1149C102.601 45.1149 102.694 44.7741 102.694 44.0304V40.7149H95.4852V38.3444H102.694V36.6556H95.9813V34.2696H100.059V32.2555H95.4697V29.8695H100.059L100.074 29.8541ZM99.7331 43.86L97.3611 44.8826C97.051 43.891 96.6945 42.9769 96.2604 42.1712L98.4773 41.1487C98.958 41.9698 99.3921 42.8839 99.7331 43.86Z" fill="#595757"/>
<path d="M118.803 36.6557H112.524V47.6869H110.152V28.2583H118.803V36.6557ZM116.431 31.4034V30.5513H112.524V31.4034H116.431ZM116.431 34.3472V33.495H112.524V34.3472H116.431ZM128.554 28.2583V44.5417C128.554 46.5869 127.624 47.5939 125.748 47.5939C125.113 47.5939 124.384 47.501 123.547 47.3305L123.221 45.7192H116.663V46.5714H114.384V37.5078H124.043V45.053C124.477 45.1615 124.911 45.208 125.33 45.208C125.826 45.208 126.089 44.6812 126.089 43.5967V36.6557H119.981V28.2583H128.539H128.554ZM121.779 40.56V39.6923H116.679V40.56H121.779ZM121.779 43.5037V42.5741H116.679V43.5037H121.779ZM126.105 31.4034V30.5513H122.198V31.4034H126.105ZM126.105 33.5105H122.198V34.3627H126.105V33.5105Z" fill="#595757"/>
<path d="M51.9983 58.2831C51.8742 58.5464 51.7657 58.7634 51.6727 58.9803H59.4709V60.762C59.0368 61.4747 58.6027 62.1254 58.1531 62.7141H62.1995V70.0115H57.0989V73.575C57.0989 74.1327 57.4089 74.4271 58.0291 74.4426C58.2926 74.4891 58.6802 74.5045 59.1763 74.5045C60.1685 74.5045 60.7887 74.4891 60.9747 74.3961C61.1763 74.2876 61.3003 74.0862 61.3468 73.8383C61.4088 73.7144 61.4553 73.2031 61.5018 72.382L64.0599 73.8073C63.9358 75.1708 63.6413 76.0384 63.2072 76.3947C62.9281 76.5651 62.5095 76.6736 61.9979 76.7356C61.6724 76.8285 60.7422 76.8595 59.1763 76.8595C58.4167 76.8595 57.75 76.8131 57.1299 76.7511C55.4555 76.7046 54.6338 75.9299 54.6338 74.4116V70.0115H54.5253C54.2462 70.6622 53.9207 71.2974 53.5486 71.8862C51.8742 74.3961 49.2541 76.1468 45.6419 77.1384L44.7117 74.6595C47.8744 73.7919 50.0913 72.382 51.3936 70.4763C51.4866 70.3214 51.5642 70.1664 51.6572 70.027H49.6417V70.9411H47.1612V65.7044C46.9907 65.9058 46.8201 66.0762 46.6651 66.2001L44.6187 64.6663C45.6574 63.5973 46.5721 62.4972 47.3472 61.3507C48.2619 60.0338 48.9596 58.7324 49.4557 57.4619L51.9983 58.314V58.2831ZM55.0834 62.6987C55.5175 62.2184 55.9051 61.7071 56.2617 61.1648H50.5099C50.1844 61.7226 49.8588 62.2493 49.5487 62.6987H55.0834ZM49.6262 64.9762V67.6875H52.7114C53.0215 66.8199 53.254 65.9058 53.4246 64.9762H49.6262ZM59.7034 67.703V64.9917H55.9206C55.7656 65.9677 55.5795 66.8818 55.3315 67.703H59.7034Z" fill="#595757"/>
<path d="M74.1067 59.7253C73.347 59.9267 72.5563 60.0971 71.7347 60.252V63.1183H73.7346C74.0757 62.669 74.4478 62.0957 74.8198 61.4295C75.1919 60.7323 75.502 60.0661 75.7345 59.3844L77.688 60.4844C77.4244 61.1506 77.1298 61.8323 76.7578 62.5295H82.3545C81.9669 61.8323 81.6103 60.9802 81.3623 59.9886H77.6105V57.7731H83.2847C83.4552 59.1675 83.7808 60.252 84.2614 61.0577C84.742 61.9718 85.3621 62.731 86.1683 63.3817L84.3854 64.993C84.1219 64.7761 83.9048 64.5592 83.7188 64.3422V70.0128H82.2615V73.6382C82.2615 74.165 82.3235 74.4439 82.463 74.4439C82.5095 74.4904 82.587 74.5058 82.6956 74.5058C83.0831 74.5058 83.3312 74.4904 83.4087 74.4129C83.5017 74.3044 83.5327 74.134 83.5637 73.9171C83.5792 73.7932 83.6102 73.3748 83.6257 72.6312L85.7497 73.8087C85.6567 75.1101 85.4707 75.9157 85.2071 76.2566C85.0366 76.3805 84.773 76.489 84.4629 76.582C84.2459 76.6439 83.6413 76.6904 82.6801 76.6904C82.2305 76.6904 81.8119 76.6439 81.4708 76.5974C80.4786 76.5355 79.967 75.7918 79.967 74.4129V70.0128H78.8817C78.7577 71.9495 78.3546 73.4368 77.7035 74.4904C76.9593 75.7298 76.0291 76.613 74.8818 77.1397L73.4245 75.1876C74.5098 74.7073 75.3004 74.0566 75.7656 73.1889C76.1841 72.4917 76.4632 71.4537 76.5872 70.0283H75.378V64.6211C75.2229 64.8226 75.0989 64.962 74.9594 65.1014L74.1842 64.0789V65.5042H71.7347V66.4648C72.8044 67.3789 73.7346 68.2466 74.5408 69.0832L73.1145 71.0973C72.6339 70.4621 72.1843 69.8888 71.7502 69.3466V77.0467H69.4712V70.0438C68.8666 71.2678 68.1689 72.3833 67.3472 73.4058L65.9209 71.6241C66.572 70.8494 67.2697 69.7649 67.9984 68.324C68.4945 67.4409 68.9131 66.4958 69.2541 65.5042H66.417V63.1338H69.4712V60.6548C68.8045 60.7633 68.1224 60.8563 67.4247 60.9337L66.572 58.6407C68.8975 58.4238 71.0525 58.083 73.0214 57.6182L74.1067 59.7407V59.7253ZM81.3468 67.7818V64.7141H77.7655V67.7818H81.3468Z" fill="#595757"/>
<path d="M99.7336 57.509V58.8725H107.47V61.3204H91.8579V67.7191C91.8579 69.5473 91.7029 71.2826 91.4083 72.9558C91.1758 74.3193 90.7727 75.6827 90.2611 77.1081L87.8735 75.6517C88.4317 73.9164 88.8037 72.3981 89.0053 71.1431C89.2223 69.5783 89.3309 67.998 89.3309 66.4177V58.8879H97.2066V57.5245H99.7491L99.7336 57.509ZM99.8111 61.7697V63.7838H106.85V66.1698H99.8111V68.3543H106.354V77.1855H103.811V76.3179H95.1446V77.1855H92.6021V68.3543H97.2686V61.7542H99.8111V61.7697ZM103.811 74.0559V70.6783H95.1446V74.0559H103.811Z" fill="#595757"/>
<path d="M109.253 70.044L112.307 69.7496C112.493 70.7722 112.865 71.5313 113.423 72.0116C113.981 72.4919 114.741 72.7243 115.702 72.7243C116.71 72.7243 117.47 72.5074 117.981 72.0891C118.493 71.6553 118.756 71.1595 118.756 70.5862C118.756 70.2144 118.648 69.9045 118.431 69.6412C118.214 69.3778 117.842 69.1609 117.299 68.975C116.927 68.851 116.09 68.6186 114.788 68.2932C113.113 67.8749 111.919 67.3636 111.253 66.7594C110.292 65.9073 109.827 64.8692 109.827 63.6298C109.827 62.8396 110.044 62.0959 110.493 61.4142C110.943 60.7325 111.594 60.2057 112.431 59.8494C113.268 59.4931 114.292 59.3071 115.485 59.3071C117.439 59.3071 118.896 59.7409 119.888 60.5931C120.88 61.4452 121.392 62.5917 121.439 64.0171L118.307 64.1565C118.167 63.3509 117.888 62.7776 117.439 62.4368C116.989 62.0804 116.338 61.91 115.454 61.91C114.571 61.91 113.826 62.0959 113.315 62.4678C112.989 62.7002 112.819 63.0255 112.819 63.4284C112.819 63.8002 112.974 64.1101 113.284 64.3734C113.687 64.6988 114.648 65.0551 116.167 65.4115C117.687 65.7678 118.819 66.1397 119.547 66.527C120.276 66.9143 120.849 67.4411 121.268 68.1073C121.687 68.7735 121.888 69.5947 121.888 70.5862C121.888 71.4694 121.64 72.306 121.144 73.0807C120.648 73.8553 119.95 74.4286 119.051 74.8159C118.152 75.1878 117.02 75.3892 115.671 75.3892C113.702 75.3892 112.199 74.9399 111.144 74.0258C110.09 73.1271 109.47 71.7947 109.253 70.0595V70.044Z" fill="#595757"/>
<path d="M127.469 59.5704V65.272C128.43 64.1564 129.577 63.5832 130.911 63.5832C131.593 63.5832 132.213 63.7071 132.771 63.9705C133.329 64.2184 133.732 64.5438 134.011 64.9466C134.29 65.3339 134.476 65.7832 134.585 66.2635C134.694 66.7438 134.74 67.4875 134.74 68.4946V75.0947H131.763V69.1453C131.763 67.9678 131.701 67.2241 131.593 66.8988C131.484 66.5734 131.283 66.3255 130.988 66.1396C130.709 65.9537 130.337 65.8607 129.918 65.8607C129.422 65.8607 128.988 65.9847 128.601 66.2171C128.213 66.4495 127.934 66.8213 127.748 67.3016C127.562 67.7819 127.484 68.4946 127.484 69.4397V75.0792H124.508V59.5549H127.484L127.469 59.5704Z" fill="#595757"/>
<path d="M137.065 69.3166C137.065 68.3251 137.313 67.3645 137.794 66.4504C138.275 65.5208 138.972 64.8236 139.872 64.3278C140.771 63.8475 141.763 63.5996 142.864 63.5996C144.569 63.5996 145.964 64.1574 147.05 65.2574C148.135 66.3574 148.677 67.7518 148.677 69.4406C148.677 71.1294 148.135 72.5547 147.034 73.6703C145.933 74.7858 144.554 75.3435 142.879 75.3435C141.84 75.3435 140.864 75.1111 139.934 74.6463C139.003 74.1815 138.29 73.4998 137.794 72.6012C137.313 71.7026 137.065 70.6026 137.065 69.3166ZM140.12 69.4716C140.12 70.5871 140.383 71.4392 140.91 72.028C141.437 72.6167 142.089 72.9111 142.864 72.9111C143.639 72.9111 144.29 72.6167 144.817 72.028C145.344 71.4392 145.608 70.5716 145.608 69.4406C145.608 68.3096 145.344 67.4884 144.817 66.8997C144.29 66.3109 143.639 66.0166 142.864 66.0166C142.089 66.0166 141.437 66.3109 140.91 66.8997C140.383 67.4884 140.12 68.3406 140.12 69.4561V69.4716Z" fill="#595757"/>
<path d="M150.925 63.8475H153.7V65.5053C154.057 64.932 154.553 64.4827 155.158 64.1264C155.778 63.77 156.46 63.5996 157.204 63.5996C158.506 63.5996 159.623 64.1109 160.537 65.1335C161.452 66.156 161.902 67.5814 161.902 69.4096C161.902 71.2378 161.437 72.7407 160.522 73.7942C159.607 74.8323 158.491 75.359 157.189 75.359C156.569 75.359 156.01 75.2351 155.499 74.9872C154.987 74.7393 154.46 74.321 153.902 73.7167V79.3873H150.925V63.863V63.8475ZM153.886 69.2856C153.886 70.5561 154.134 71.4857 154.646 72.0899C155.142 72.6942 155.762 73.004 156.476 73.004C157.189 73.004 157.747 72.7252 158.196 72.1674C158.661 71.6096 158.879 70.711 158.879 69.4406C158.879 68.2631 158.646 67.38 158.165 66.8067C157.7 66.2335 157.111 65.9546 156.414 65.9546C155.716 65.9546 155.08 66.2335 154.6 66.7912C154.119 67.349 153.886 68.1856 153.886 69.2856Z" fill="#595757"/>
<path d="M164.197 63.8475H166.972V65.5053C167.328 64.932 167.825 64.4827 168.429 64.1264C169.049 63.77 169.732 63.5996 170.476 63.5996C171.778 63.5996 172.894 64.1109 173.809 65.1335C174.724 66.156 175.173 67.5814 175.173 69.4096C175.173 71.2378 174.708 72.7407 173.793 73.7942C172.879 74.8323 171.762 75.359 170.46 75.359C169.84 75.359 169.282 75.2351 168.77 74.9872C168.259 74.7393 167.732 74.321 167.173 73.7167V79.3873H164.197V63.863V63.8475ZM167.142 69.2856C167.142 70.5561 167.39 71.4857 167.902 72.0899C168.398 72.6942 169.018 73.004 169.731 73.004C170.445 73.004 171.003 72.7252 171.452 72.1674C171.917 71.6096 172.134 70.711 172.134 69.4406C172.134 68.2631 171.902 67.38 171.421 66.8067C170.941 66.2335 170.367 65.9546 169.669 65.9546C168.972 65.9546 168.336 66.2335 167.856 66.7912C167.375 67.349 167.142 68.1856 167.142 69.2856Z" fill="#595757"/>
<path d="M177.529 62.3281V59.5703H180.505V62.3281H177.529ZM177.529 75.0946V63.8465H180.505V75.0946H177.529Z" fill="#595757"/>
<path d="M193.808 75.0945H190.831V69.3465C190.831 68.138 190.769 67.3479 190.645 66.9915C190.521 66.6352 190.304 66.3563 190.025 66.1549C189.73 65.9535 189.389 65.8605 188.986 65.8605C188.475 65.8605 188.009 65.9999 187.591 66.2788C187.188 66.5577 186.893 66.9295 186.754 67.3943C186.599 67.8591 186.521 68.7268 186.521 69.9817V75.079H183.544V63.8309H186.304V65.4887C187.281 64.2182 188.521 63.583 190.009 63.583C190.66 63.583 191.265 63.7069 191.808 63.9393C192.35 64.1717 192.769 64.4816 193.048 64.8534C193.327 65.2253 193.529 65.6436 193.637 66.1084C193.746 66.5732 193.808 67.2394 193.808 68.107V75.0945Z" fill="#595757"/>
<path d="M196.552 75.8385L199.947 76.2568C200.009 76.6441 200.133 76.923 200.335 77.0779C200.614 77.2948 201.063 77.4033 201.668 77.4033C202.443 77.4033 203.032 77.2793 203.42 77.0469C203.684 76.892 203.885 76.6441 204.009 76.2878C204.102 76.0399 204.149 75.5906 204.149 74.9244V73.2821C203.265 74.4906 202.133 75.1103 200.784 75.1103C199.265 75.1103 198.071 74.4751 197.188 73.1891C196.49 72.1821 196.149 70.9271 196.149 69.4242C196.149 67.5341 196.599 66.0932 197.513 65.1016C198.412 64.1101 199.544 63.6143 200.893 63.6143C202.242 63.6143 203.436 64.2185 204.335 65.4425V63.8622H207.125V73.9483C207.125 75.2807 207.017 76.2723 206.8 76.923C206.583 77.5737 206.273 78.1005 205.885 78.4723C205.482 78.8442 204.955 79.1385 204.304 79.3555C203.637 79.5724 202.815 79.6808 201.792 79.6808C199.885 79.6808 198.536 79.3555 197.73 78.7047C196.94 78.054 196.537 77.2174 196.537 76.2258C196.537 76.1328 196.537 76.0089 196.537 75.8695L196.552 75.8385ZM199.203 69.2383C199.203 70.4313 199.436 71.2989 199.901 71.8567C200.366 72.4145 200.939 72.6933 201.606 72.6933C202.335 72.6933 202.955 72.4144 203.451 71.8412C203.947 71.2679 204.211 70.4313 204.211 69.3158C204.211 68.2003 203.978 67.2862 203.498 66.7284C203.017 66.1552 202.412 65.8763 201.668 65.8763C200.924 65.8763 200.366 66.1552 199.901 66.7129C199.436 67.2707 199.203 68.1073 199.203 69.2538V69.2383Z" fill="#595757"/>
<path d="M219.528 72.8631V68.8349H215.466V66.0461H219.528V62.0178H222.241V66.0461H226.318V68.8349H222.241V72.8631H219.528Z" fill="#595757"/>
<path d="M253.341 57.8657V59.3841C252.814 60.732 252.241 61.7855 251.558 62.5447C252.21 62.8546 253.016 63.1025 253.946 63.3658L252.845 65.411C251.775 65.1011 250.768 64.6518 249.775 64.0631C249.248 64.4039 248.737 64.6673 248.163 64.8842C248.551 65.0546 248.938 65.2096 249.341 65.3335C251.016 65.9377 252.659 66.4025 254.271 66.7434L253.093 68.866C252.225 68.6026 251.357 68.3237 250.535 68.0138V72.7703C250.845 72.5534 251.171 72.3365 251.465 72.0731L252.83 73.9478C252.396 74.2576 251.961 74.5055 251.527 74.7224C252.241 74.8154 253.031 74.8929 253.853 74.9548L253 77.1704C250.458 76.8605 248.179 76.3647 246.179 75.6366C244.721 75.0788 243.466 74.3816 242.38 73.5295H239.838V74.5675C241.032 74.4746 242.117 74.3971 243.078 74.2886L243.404 76.2408C241.032 76.5662 238.412 76.845 235.528 77.0929L235.094 74.8774C235.915 74.8309 236.722 74.7844 237.481 74.7534V68.1998C236.722 68.5096 235.962 68.7885 235.187 69.0519L234.164 67.0997C238.598 65.7053 241.807 64.2335 243.76 62.6996L245.946 63.3658C245.791 63.4898 245.636 63.6292 245.497 63.7532C245.915 63.9546 246.318 64.125 246.737 64.2955L246.132 63.1954C246.737 63.0405 247.279 62.8546 247.776 62.5912C247.465 62.3123 247.186 62.0024 246.969 61.6771C246.535 61.1348 246.194 60.4996 245.931 59.8179H245.016V57.8657H253.326H253.341ZM241.311 57.5094V57.9432H244.349V59.5545H241.311V59.9883H244.349V61.6771C242.954 62.9011 241.543 63.8307 240.117 64.4969C238.334 65.3645 236.613 65.9068 234.954 66.1702L234.35 64.4814C235.45 64.28 236.551 64.0011 237.59 63.6137C237.28 63.3039 236.954 63.025 236.66 62.7616L238.024 61.6771H237.171C236.567 62.4208 236.039 62.9166 235.621 63.1954L234.334 61.5841C234.815 61.1968 235.311 60.701 235.853 60.0658C236.303 59.5235 236.675 58.9813 236.954 58.439L238.675 59.3686C238.567 59.5855 238.458 59.7869 238.35 59.9728H239.001V57.4939H241.295L241.311 57.5094ZM239.776 62.6687C240.334 62.3588 240.877 62.0334 241.357 61.6926H238.691C239.078 62.0334 239.45 62.3588 239.776 62.6687ZM248.954 67.4406C248.737 67.3476 248.52 67.2702 248.318 67.1772C247.729 66.9448 247.171 66.6814 246.644 66.418V67.1152H241.218V66.48C240.768 66.7434 240.303 66.9603 239.853 67.1772V67.4406H248.954ZM248.179 69.7336V69.2998H239.869V69.7336H248.179ZM248.179 71.6858V71.159H239.869V71.6858H248.179ZM244.814 65.4884C244.473 65.318 244.163 65.1476 243.853 64.9617C243.574 65.1321 243.295 65.3025 243.001 65.4884H244.799H244.814ZM249.357 73.5604H245.993C246.582 73.7773 247.233 73.9788 247.931 74.1182C248.024 74.1337 248.086 74.1647 248.163 74.1647C248.551 73.9942 248.969 73.7928 249.357 73.5604ZM248.985 60.9489C249.14 61.1193 249.31 61.2743 249.512 61.3982C249.993 60.9179 250.396 60.4066 250.706 59.8179H248.148C248.38 60.2672 248.675 60.639 249 60.9489H248.985Z" fill="#595757"/>
<path d="M267.604 57.509V58.3612H275.666V60.4063H258.86V67.1149C258.86 69.0206 258.751 70.8488 258.581 72.5995C258.426 74.0249 258.193 75.4658 257.837 76.9376L255.821 75.7446C256.131 73.9474 256.348 72.3826 256.472 71.0502C256.596 69.4389 256.674 67.8121 256.674 66.1698V58.3612H265.232V57.509H267.619H267.604ZM263.17 69.9037V71.5925H262.085V72.1812H263.263V73.87H262.085V74.4742C262.472 74.4277 262.829 74.3658 263.17 74.3038L263.433 75.8221C262.038 76.1475 260.519 76.4264 258.844 76.6743L258.519 74.8925C259.077 74.846 259.62 74.7841 260.131 74.7221V73.87H258.844V72.1812H260.131V71.5925H259.201V69.9037H263.17ZM265.976 60.8401V62.6218H265.65V74.7531C265.883 73.9474 266.069 73.1418 266.147 72.3671L267.929 72.7854C267.805 74.1798 267.511 75.4348 267.077 76.5968L265.65 75.9306V76.7827H263.604V69.2685C262.286 69.4234 260.86 69.5473 259.372 69.6558L259.03 67.7036C259.201 67.7036 259.356 67.6881 259.527 67.6881V62.6373H259.03V60.8556H265.976V60.8401ZM263.604 63.1176V62.6218H261.651V63.1176H263.604ZM263.604 65.3332V64.8064H261.651V65.3332H263.604ZM263.604 67.4092V67.0219H261.651V67.5487C262.348 67.5022 262.999 67.4557 263.604 67.4248V67.4092ZM269.619 61.2429V60.7471H271.929V61.2429H275.402V63.1176H271.929V63.8768H275.309V69.129H266.147V63.8768H269.619V63.1176H266.24V61.2429H269.619ZM274.968 69.6558V71.7009H272.115C272.394 72.0417 272.689 72.3981 272.937 72.7854L271.247 74.1488C270.86 73.4981 270.441 72.8474 269.96 72.1967L270.674 71.7009H266.302V69.6558H274.952H274.968ZM270.053 72.5375V74.0559C270.053 74.4432 270.115 74.6601 270.255 74.7221C270.379 74.846 270.581 74.8925 270.813 74.8925C271.077 74.8925 271.263 74.8925 271.371 74.877C271.48 74.877 271.573 74.8305 271.635 74.7686C271.728 74.7066 271.79 74.4587 271.836 74.0559L273.619 74.908C273.526 75.3573 273.418 75.8221 273.278 76.2559C273.154 76.5193 272.937 76.6897 272.611 76.7827C272.224 76.8292 271.635 76.8757 270.829 76.8757C269.945 76.8757 269.418 76.7827 269.263 76.6587C268.488 76.5658 268.115 75.9461 268.115 74.7531V72.5685H270.069L270.053 72.5375ZM268.782 67.2853V65.7515H268.193V67.2853H268.782ZM270.472 67.2853H270.999V65.7515H270.472V67.2853ZM272.689 67.2853H273.278V65.7515H272.689V67.2853ZM275.991 75.0784L274.038 75.9306C273.821 74.939 273.588 74.0249 273.278 73.2192L274.968 72.4601C275.356 73.2657 275.712 74.1334 275.991 75.0784Z" fill="#595757"/>
<path d="M284.875 62.5292C285.293 61.9404 285.65 61.3362 285.975 60.7319C286.58 59.6009 287.076 58.5164 287.433 57.4319L289.882 58.284C289.681 58.7798 289.495 59.2446 289.324 59.6474H297.014V62.0179H288.161V62.0644C287.743 62.7771 287.309 63.4588 286.844 64.063H295.339V66.2785C292.037 69.3617 289.975 71.4068 289.107 72.4449C288.719 72.9252 288.533 73.359 288.533 73.7308C288.533 74.0407 288.735 74.2576 289.123 74.3351C289.557 74.459 290.316 74.5055 291.417 74.5055H291.944C293.169 74.5055 293.882 74.397 294.146 74.1801C294.533 73.9167 294.75 73.1576 294.812 71.8561L297.463 73.0491C297.262 74.5674 296.936 75.5435 296.502 76.0083C296.022 76.4576 294.921 76.7055 293.2 76.7055H291.789C289.681 76.7055 288.27 76.5816 287.557 76.3337C286.378 75.9464 285.82 75.0787 285.82 73.7308C285.82 73.1731 286.022 72.5998 286.425 72.0885C287.386 70.8026 289.029 68.9589 291.37 66.5264H286.595V64.3729C286.425 64.5898 286.254 64.8067 286.068 65.0081L284.875 64.1405V74.2576H282.425V73.1576H280.549V75.1097H278.1V59.2446H284.875V62.5602V62.5292ZM282.425 70.7561V61.5996H280.549V70.7561H282.425Z" fill="#595757"/>
<path d="M305.587 58.4547C305.525 58.5787 305.463 58.6872 305.386 58.8266C306.471 59.4773 307.494 60.1745 308.44 60.9337L306.827 62.7154C306.595 62.4985 306.378 62.2816 306.161 62.0802V63.5521H302.161V62.6844C301.572 63.2112 301.076 63.614 300.642 63.8774L299.122 61.9253C299.944 61.3675 300.797 60.6393 301.711 59.7562C302.487 58.9506 303.138 58.1449 303.618 57.3547L305.572 58.4547H305.587ZM307.68 71.686H306.269C307.262 72.941 308.068 74.2269 308.703 75.5748L306.517 76.8608C306.347 76.4735 306.176 76.0861 305.975 75.7298C304.099 76.2256 302.068 76.6594 299.897 77.0312L299.463 74.5523C299.773 74.5058 300.053 74.4903 300.316 74.4438V64.1408H307.696V71.7015L307.68 71.686ZM305.324 66.8521V66.1859H302.704V66.8521H305.324ZM305.324 69.6564V68.8972H302.704V69.6564H305.324ZM303.959 72.6156L305.463 71.686H302.704V74.072C303.448 73.9635 304.114 73.8396 304.766 73.7002C304.502 73.3128 304.223 72.9565 303.959 72.6156ZM305.618 61.5999C305.122 61.2126 304.642 60.8562 304.192 60.5618C303.975 60.8407 303.742 61.1041 303.525 61.3675C303.432 61.4759 303.355 61.5689 303.293 61.5999H305.634H305.618ZM308.967 64.807L307.091 63.3816C307.835 62.514 308.455 61.5844 308.998 60.6238C309.634 59.5393 310.13 58.4703 310.471 57.4322L312.843 58.2069C312.626 58.7646 312.409 59.2914 312.192 59.7252H318.703C318.703 66.2169 318.471 69.9663 318.036 71.0043C317.819 71.717 317.432 72.1973 316.858 72.4607L319.044 73.5452C318.812 74.9086 318.502 75.7763 318.114 76.2101C317.804 76.3805 317.478 76.4889 317.153 76.5354C316.176 76.6284 315.091 76.6594 313.897 76.6594C312.145 76.6594 311.029 76.5974 310.548 76.5044C309.587 76.4115 309.122 75.5284 309.122 73.8551V64.5901C309.06 64.6831 308.998 64.745 308.951 64.7915L308.967 64.807ZM310.006 63.5521H314.889V70.0592H311.51V73.3748C311.51 73.8706 311.618 74.1495 311.882 74.1959C312.037 74.2889 312.703 74.3044 313.928 74.3044C314.703 74.3044 315.23 74.2889 315.494 74.2424C315.835 74.2269 316.099 74.1495 316.316 74.041C316.486 73.8706 316.626 73.3748 316.657 72.5227C316.331 72.6466 315.959 72.6931 315.571 72.6931C315.029 72.6931 314.486 72.6776 313.959 72.6001L313.54 70.2916C314.362 70.4156 315.044 70.462 315.556 70.462C315.819 70.462 315.974 70.2297 316.037 69.7029C316.161 68.8353 316.254 66.2944 316.254 62.0647H310.936C310.626 62.5915 310.331 63.0872 310.006 63.5211V63.5521ZM311.51 65.8296V67.7817H312.533V65.8296H311.51Z" fill="#595757"/>
<path d="M327.292 58.4547C327.23 58.5787 327.168 58.6872 327.091 58.8266C328.176 59.4773 329.199 60.1745 330.145 60.9337L328.532 62.7154C328.3 62.4985 328.083 62.2816 327.866 62.0802V63.5521H323.866V62.6844C323.277 63.2112 322.781 63.614 322.346 63.8774L320.827 61.9253C321.649 61.3675 322.502 60.6393 323.416 59.7562C324.191 58.9506 324.843 58.1449 325.323 57.3547L327.277 58.4547H327.292ZM329.385 71.686H327.974C328.966 72.941 329.773 74.2269 330.408 75.5748L328.222 76.8608C328.052 76.4735 327.881 76.0861 327.68 75.7298C325.804 76.2256 323.773 76.6594 321.602 77.0312L321.168 74.5523C321.478 74.5058 321.757 74.4903 322.021 74.4438V64.1408H329.401V71.7015L329.385 71.686ZM327.028 66.8521V66.1859H324.408V66.8521H327.028ZM327.028 69.6564V68.8972H324.408V69.6564H327.028ZM325.664 72.6156L327.168 71.686H324.408V74.072C325.153 73.9635 325.819 73.8396 326.47 73.7002C326.207 73.3128 325.928 72.9565 325.664 72.6156ZM327.323 61.5999C326.827 61.2126 326.346 60.8562 325.897 60.5618C325.68 60.8407 325.447 61.1041 325.23 61.3675C325.137 61.4759 325.06 61.5689 324.998 61.5999H327.339H327.323ZM330.672 64.807L328.796 63.3816C329.54 62.514 330.16 61.5844 330.703 60.6238C331.338 59.5393 331.835 58.4703 332.176 57.4322L334.548 58.2069C334.331 58.7646 334.114 59.2914 333.896 59.7252H340.408C340.408 66.2169 340.175 69.9663 339.741 71.0043C339.524 71.717 339.137 72.1973 338.563 72.4607L340.749 73.5452C340.516 74.9086 340.206 75.7763 339.819 76.2101C339.509 76.3805 339.183 76.4889 338.858 76.5354C337.881 76.6284 336.796 76.6594 335.602 76.6594C333.85 76.6594 332.734 76.5974 332.253 76.5044C331.292 76.4115 330.827 75.5284 330.827 73.8551V64.5901C330.765 64.6831 330.703 64.745 330.656 64.7915L330.672 64.807ZM331.711 63.5521H336.594V70.0592H333.214V73.3748C333.214 73.8706 333.323 74.1495 333.586 74.1959C333.741 74.2889 334.408 74.3044 335.633 74.3044C336.408 74.3044 336.935 74.2889 337.199 74.2424C337.54 74.2269 337.803 74.1495 338.02 74.041C338.191 73.8706 338.33 73.3748 338.361 72.5227C338.036 72.6466 337.664 72.6931 337.276 72.6931C336.734 72.6931 336.191 72.6776 335.664 72.6001L335.245 70.2916C336.067 70.4156 336.749 70.462 337.261 70.462C337.524 70.462 337.679 70.2297 337.741 69.7029C337.865 68.8353 337.958 66.2944 337.958 62.0647H332.641C332.331 62.5915 332.036 63.0872 331.711 63.5211V63.5521ZM333.214 65.8296V67.7817H334.238V65.8296H333.214Z" fill="#595757"/>
<defs>
<linearGradient id="paint0_linear_20_208449" x1="239.992" y1="222.453" x2="239.992" y2="390.71" gradientUnits="userSpaceOnUse">
<stop stop-color="white"/>
<stop offset="1" stop-color="white" stop-opacity="0.6"/>
</linearGradient>
<linearGradient id="paint1_linear_20_208449" x1="111.175" y1="48.2761" x2="-98.111" y2="435.304" gradientUnits="userSpaceOnUse">
<stop stop-color="white"/>
<stop offset="0.1" stop-color="#F1F1F1"/>
<stop offset="0.29" stop-color="#CDCDCD"/>
<stop offset="0.55" stop-color="#939292"/>
<stop offset="0.87" stop-color="#444243"/>
<stop offset="1" stop-color="#221F20"/>
</linearGradient>
<linearGradient id="paint2_linear_20_208449" x1="251.108" y1="64.9004" x2="60.0351" y2="418.252" gradientUnits="userSpaceOnUse">
<stop stop-color="white"/>
<stop offset="0.1" stop-color="#F1F1F1"/>
<stop offset="0.29" stop-color="#CDCDCD"/>
<stop offset="0.55" stop-color="#939292"/>
<stop offset="0.87" stop-color="#444243"/>
<stop offset="1" stop-color="#221F20"/>
</linearGradient>
<linearGradient id="paint3_linear_20_208449" x1="119.408" y1="63.3528" x2="119.408" y2="246.561" gradientUnits="userSpaceOnUse">
<stop stop-color="white"/>
<stop offset="0.27" stop-color="#F4BD7B"/>
<stop offset="1" stop-color="#040000"/>
</linearGradient>
</defs>
</svg>
