<svg width="480" height="454" viewBox="0 0 480 454" fill="none" xmlns="http://www.w3.org/2000/svg">
<path opacity="0.8" d="M436.87 0H43.1304C19.3101 0 0 19.2976 0 43.1024V410.898C0 434.702 19.3101 454 43.1304 454H436.87C460.69 454 480 434.702 480 410.898V43.1024C480 19.2976 460.69 0 436.87 0Z" fill="url(#paint0_linear_86_66330)"/>
<mask id="mask0_86_66330" style="mask-type:luminance" maskUnits="userSpaceOnUse" x="17" y="99" width="446" height="340">
<path d="M17.5957 99.6052V398.858C17.5957 420.828 35.5796 438.8 57.5634 438.8H422.451C444.435 438.8 462.419 420.828 462.419 398.858V99.6052H17.5957Z" fill="white"/>
</mask>
<g mask="url(#mask0_86_66330)">
<path d="M869.677 35.5879H216.039V414.662H869.677V35.5879Z" fill="#B9DCF1"/>
<path d="M326.547 227.906H293.525C290.502 227.906 288.037 225.443 288.037 222.422C288.037 219.4 290.502 216.937 293.525 216.937H326.547C329.571 216.937 332.036 219.4 332.036 222.422C332.036 225.443 329.571 227.906 326.547 227.906Z" fill="#C9E4F5"/>
<path d="M422.994 35.6189L216.148 242.485L216.039 242.578V217.944L216.148 217.851L398.374 35.6189H422.994Z" fill="#C9E4F5"/>
<path d="M494.046 35.6187L454.9 74.5533L449.784 79.6351L444.683 84.7169L329.958 198.84H306.207L444.683 60.3769L469.442 35.6187H494.046Z" fill="#C9E4F5"/>
<path d="M579.717 35.6187L439.287 176.05V153.166L555.082 35.6187H579.717Z" fill="#C9E4F5"/>
<path d="M438.993 220.78V250.047H414.622V220.47L421.025 214.071L425.598 200.066H345.803L350.376 214.071L356.779 220.47V250.047H259.139V228.775H248.348V250.047H235.558V237.404H216.07V411.425H455.241V220.78H439.009H438.993ZM374.794 240.147H364.996V227.69H374.794V240.147ZM390.731 240.147H380.933V227.69H390.731V240.147ZM406.653 240.147H396.855V227.69H406.653V240.147ZM379.693 200.066L386.545 146.831L393.398 200.066H379.693Z" fill="#A1CFEC"/>
<path d="M869.677 408.884H-241.527V525.502H869.677V408.884Z" fill="#DAE3E5"/>
<path d="M431.985 116.2L419.985 112.714C419.319 112.528 418.637 112.9 418.435 113.566C418.249 114.232 418.621 114.929 419.288 115.115L420.357 115.425L412.265 120.305L376.746 109.987C374.871 109.445 372.855 109.553 371.057 110.281C371.057 110.281 371.041 110.281 371.026 110.281L368.096 111.66C366.871 111.304 365.615 111.118 364.359 111.118C363.104 111.118 361.832 111.273 360.607 111.614L359.383 111.939C357.894 112.357 357.336 114.17 358.344 115.332C359.476 116.649 360.778 117.78 362.22 118.71C363.662 119.639 365.227 120.367 366.902 120.848L381.568 125.108L380.591 128.517L390.529 131.383C392.87 132.065 395.289 131.259 396.777 129.524L408.079 132.809C411.334 133.754 414.838 132.731 417.055 130.159L418.637 128.346L423.226 129.679C423.892 129.865 424.574 129.493 424.776 128.827C424.962 128.161 424.59 127.463 423.923 127.277L420.45 126.27L427.985 117.61L431.303 118.57C431.969 118.756 432.652 118.384 432.853 117.718C433.039 117.052 432.667 116.355 432.001 116.169L431.985 116.2Z" fill="#A1CFEC"/>
<path d="M278.193 115.998C278.193 119.299 275.511 121.979 272.209 121.979C268.907 121.979 266.225 119.299 266.225 115.998C266.225 112.698 268.907 110.018 272.209 110.018C275.511 110.018 278.193 112.698 278.193 115.998Z" fill="#C9E4F5"/>
<path d="M258.55 131.941C258.55 133.738 257.093 135.21 255.279 135.21C253.465 135.21 252.008 133.754 252.008 131.941C252.008 130.128 253.465 128.672 255.279 128.672C257.093 128.672 258.55 130.128 258.55 131.941Z" fill="#C9E4F5"/>
<path d="M347.058 240.223C347.058 242.02 345.601 243.492 343.787 243.492C341.973 243.492 340.516 242.035 340.516 240.223C340.516 238.41 341.973 236.954 343.787 236.954C345.601 236.954 347.058 238.41 347.058 240.223Z" fill="#C9E4F5"/>
<path d="M435.908 399.618C428.962 404.174 421.428 407.629 413.537 409.968C405.692 412.323 397.46 413.531 389.15 413.531H216.039V350.319H358.329C367.724 350.319 376.794 353.495 384.158 359.32C384.158 359.32 384.158 359.32 384.189 359.336C384.468 359.537 384.716 359.754 384.979 359.971L395.971 369.639C402.064 369.639 408.079 370.491 413.893 372.118C419.691 373.76 425.273 376.224 430.482 379.4L435.675 382.56C441.97 386.449 442.094 395.559 435.908 399.603V399.618Z" fill="#C9E4F5"/>
<path d="M315.462 394.458C315.462 397.774 312.78 400.454 309.462 400.454H218.287C217.496 400.454 216.737 400.299 216.039 400.005V388.912C216.737 388.633 217.496 388.463 218.287 388.463H309.462C311.121 388.463 312.625 389.129 313.695 390.213C314.78 391.298 315.462 392.801 315.462 394.443V394.458Z" fill="#A1CFEC"/>
<path d="M361.367 359.319C361.367 365.021 365.987 369.653 371.692 369.653H395.971L384.297 359.381C384.25 359.366 384.204 359.35 384.157 359.319H361.367Z" fill="#A1CFEC"/>
<path d="M332.842 369.654H339.105C340.989 369.654 342.516 368.128 342.516 366.245V362.728C342.516 360.846 340.989 359.32 339.105 359.32H332.842C330.958 359.32 329.431 360.846 329.431 362.728V366.245C329.431 368.128 330.958 369.654 332.842 369.654Z" fill="#A1CFEC"/>
<path d="M310.998 369.654H317.261C319.145 369.654 320.672 368.128 320.672 366.245V362.728C320.672 360.846 319.145 359.32 317.261 359.32H310.998C309.114 359.32 307.587 360.846 307.587 362.728V366.245C307.587 368.128 309.114 369.654 310.998 369.654Z" fill="#A1CFEC"/>
<path d="M289.152 369.654H295.415C297.299 369.654 298.826 368.128 298.826 366.245V362.728C298.826 360.846 297.299 359.32 295.415 359.32H289.152C287.268 359.32 285.741 360.846 285.741 362.728V366.245C285.741 368.128 287.268 369.654 289.152 369.654Z" fill="#A1CFEC"/>
<path d="M267.293 369.654H273.556C275.44 369.654 276.967 368.128 276.967 366.245V362.728C276.967 360.846 275.44 359.32 273.556 359.32H267.293C265.409 359.32 263.882 360.846 263.882 362.728V366.245C263.882 368.128 265.409 369.654 267.293 369.654Z" fill="#A1CFEC"/>
<path d="M245.449 369.654H251.712C253.596 369.654 255.123 368.128 255.123 366.245V362.728C255.123 360.846 253.596 359.32 251.712 359.32H245.449C243.565 359.32 242.038 360.846 242.038 362.728V366.245C242.038 368.128 243.565 369.654 245.449 369.654Z" fill="#A1CFEC"/>
<path d="M223.605 369.654H229.869C231.752 369.654 233.279 368.128 233.279 366.245V362.728C233.279 360.846 231.752 359.32 229.869 359.32H223.605C221.722 359.32 220.194 360.846 220.194 362.728V366.245C220.194 368.128 221.722 369.654 223.605 369.654Z" fill="#A1CFEC"/>
<path d="M-241.527 407.847V416.771L869.677 416.771V407.847L-241.527 407.847Z" fill="#81AECA"/>
<path d="M869.32 198.345H216.039V202.699H869.32V198.345Z" fill="#6189A0"/>
<path d="M869.32 202.699H216.039V207.052H869.32V202.699Z" fill="#81AECA"/>
<path d="M442.73 412.168L438.389 410.2V35.5879H442.73V412.168Z" fill="#6189A0"/>
<path d="M446.528 412.168L442.172 410.2V35.5879H446.528V412.168Z" fill="#81AECA"/>
<path d="M-241.266 44.4041V408.605H-28.7764H8.02866H156.163H329.135H317.352V44.4041H-241.266Z" fill="#52595E"/>
<path d="M-241.266 74.9404V408.604H-28.7764H8.02866H156.163H329.135H317.352V74.9404H-241.266Z" fill="#E09B74"/>
<path d="M296.516 74.9404H-131.873V408.712H-97.6881V408.604H-6.32671V408.712H296.516V74.9404Z" fill="#9B837A"/>
<g style="mix-blend-mode:multiply" opacity="0.57">
<path d="M26.1374 74.9404H-82.3242V346.429H26.1374V74.9404Z" fill="#9B837A"/>
</g>
<g style="mix-blend-mode:multiply" opacity="0.57">
<path d="M296.518 74.9404H206.645V346.429H296.518V74.9404Z" fill="#9B837A"/>
</g>
<g style="mix-blend-mode:multiply" opacity="0.7">
<path d="M296.501 74.9404H-191.84V124.55H296.501V74.9404Z" fill="#9B837A"/>
</g>
<path style="mix-blend-mode:screen" opacity="0.42" d="M34.6648 74.8625L-147.484 408.604H-97.6875H-21.814L160.335 74.8625H34.6648Z" fill="url(#paint1_linear_86_66330)"/>
<path style="mix-blend-mode:screen" opacity="0.42" d="M269.525 74.8625L87.7943 408.309H41.6562L221.898 74.8625H269.525Z" fill="url(#paint2_linear_86_66330)"/>
<g style="mix-blend-mode:multiply" opacity="0.44">
<path d="M296.517 181.179H242.627V243.168H296.517V181.179Z" fill="#9B837A"/>
</g>
<g style="mix-blend-mode:overlay">
<path d="M72.9101 276.262H-1.04102V359.879H72.9101V276.262Z" fill="#F4BD7B"/>
</g>
<path d="M-152.354 149.433L296.516 149.433V74.9408L-152.354 74.9408V149.433Z" fill="#F7DCB6"/>
<g style="mix-blend-mode:multiply">
<path d="M93.6545 157.303H39.1602V379.214H93.6545V157.303Z" fill="#FAF5F0"/>
<path d="M93.7165 204.558H39.1602V209.314H93.7165V204.558Z" fill="#E09B74"/>
<path d="M93.6545 261.187H39.1602V265.943H93.6545V261.187Z" fill="#E09B74"/>
<path d="M93.6545 317.814H39.1602V322.57H93.6545V317.814Z" fill="#E09B74"/>
<path d="M18.7427 282.474H-55.627V287.231H18.7427V282.474Z" fill="#FAF5F0"/>
<path d="M93.6545 374.427H39.1602V379.199H93.6545V374.427Z" fill="#E09B74"/>
<path d="M83.1424 204.557H66.5383C65.3756 204.557 64.3988 203.689 64.2593 202.543L63.4531 195.865L65.267 187.174H84.3827L86.1966 195.865L85.3904 202.543C85.2509 203.689 84.2742 204.557 83.1114 204.557H83.1424Z" fill="#684329"/>
<path d="M81.3447 195.866H80.2595V187.236L77.934 178.854C77.8099 178.591 76.5852 178.142 74.5232 178.157C72.4768 178.173 71.4536 178.653 71.3295 178.854L69.6087 187.205V195.85H68.5234V187.05L70.2908 178.529C70.7249 177.258 73.3915 177.088 74.5077 177.073C75.4379 177.073 78.4611 177.134 78.9572 178.482V178.529L81.3447 187.081V195.85V195.866Z" fill="#935F3A"/>
<path d="M70.1808 186.259H68.0879V189.451H70.1808V186.259Z" fill="#DC9461"/>
<path d="M81.8547 186.259H79.7617V189.451H81.8547V186.259Z" fill="#DC9461"/>
<path d="M79.7488 317.813H68.0282C66.4003 317.813 65.0206 316.605 64.8345 314.978L63.4082 303.141H84.3533L82.9269 314.978C82.7254 316.589 81.3611 317.813 79.7333 317.813H79.7488Z" fill="#D03F47"/>
<path d="M79.3762 310.471H78.4615V303.204L74.8957 292.374C74.7407 291.94 74.229 291.801 73.8415 291.801C73.4539 291.801 72.9578 291.972 72.8027 292.405L69.485 303.204V310.471H68.5703V303.065L71.9345 292.111C72.1981 291.367 72.9423 290.887 73.826 290.871C74.7252 290.856 75.4848 291.336 75.7639 292.064L79.3762 303.049V310.455V310.471Z" fill="#EA5F66"/>
<path d="M69.9511 302.367H68.1992V305.063H69.9511V302.367Z" fill="#EF8C93"/>
<path d="M79.8104 302.367H78.043V305.063H79.8104V302.367Z" fill="#EF8C93"/>
<path d="M76.586 261.185H57.3153C55.5634 261.185 54.2611 259.605 54.5712 257.885L56.7727 245.986C57.0207 244.669 58.168 243.708 59.5168 243.708H74.369C75.7178 243.708 76.865 244.669 77.1131 245.986L79.3146 257.885C79.6401 259.605 78.3224 261.185 76.5705 261.185H76.586Z" fill="#745353"/>
<path d="M73.2213 246.358H71.7485V241.432C71.7485 239.355 70.0586 237.667 67.9811 237.667H66.0897C64.0123 237.667 62.3224 239.355 62.3224 241.432V246.358H60.8496V241.432C60.8496 238.55 63.1906 236.195 66.0897 236.195H67.9811C70.8648 236.195 73.2213 238.534 73.2213 241.432V246.358Z" fill="#C88269"/>
<path d="M72.4775 247.566C71.8573 247.566 71.3457 247.055 71.3457 246.435V244.917H73.6092V246.435C73.6092 247.055 73.0976 247.566 72.4775 247.566Z" fill="#E09B74"/>
<path d="M61.749 247.691C61.1288 247.691 60.6172 247.18 60.6172 246.56V245.042H62.8807V246.56C62.8807 247.18 62.3691 247.691 61.749 247.691Z" fill="#E09B74"/>
<path d="M71.2676 253.562H62.6477C62.1826 253.562 61.8105 253.191 61.8105 252.726C61.8105 252.261 62.1826 251.889 62.6477 251.889H71.2676C71.7327 251.889 72.1048 252.261 72.1048 252.726C72.1048 253.191 71.7327 253.562 71.2676 253.562Z" fill="#E09B74"/>
<path d="M76.4146 374.427H58.3996C57.1439 374.427 56.0741 373.482 55.9346 372.242L55.0664 364.991L57.0353 355.556H77.7789L79.7478 364.991L78.8796 372.242C78.7246 373.497 77.6703 374.427 76.4146 374.427Z" fill="#8C8172"/>
<path d="M74.4769 364.99H73.2987V355.632L70.7871 346.538C70.6476 346.243 69.3298 345.763 67.0818 345.794C64.8493 345.825 63.7486 346.321 63.6246 346.553L61.7642 355.617V364.99H60.5859V355.431L62.5083 346.181C62.9889 344.802 65.8726 344.617 67.0818 344.601C68.0896 344.601 71.3763 344.663 71.9189 346.135V346.181L74.508 355.462V364.975L74.4769 364.99Z" fill="#A29685"/>
<path d="M62.3533 354.563H60.0898V358.033H62.3533V354.563Z" fill="#6D655A"/>
<path d="M75.0194 354.563H72.7559V358.033H75.0194V354.563Z" fill="#6D655A"/>
<path d="M67.8887 198.594V203.133C67.8887 203.924 67.253 204.559 66.4623 204.559H48.0754C47.2847 204.559 46.649 203.924 46.649 203.133V198.594C46.649 197.804 47.2847 197.168 48.0754 197.168H66.4623C67.253 197.168 67.8887 197.804 67.8887 198.594Z" fill="#57565B"/>
<path d="M67.9043 196.734V197.911C67.9043 199.771 66.4005 201.274 64.5401 201.274H50.0289C48.1685 201.274 46.6647 199.771 46.6647 197.911V196.734C46.6647 195.944 47.3003 195.309 48.091 195.309H66.478C67.2687 195.309 67.9043 195.944 67.9043 196.734Z" fill="#67656B"/>
<path d="M53.6853 298.943H57.7317C58.4294 298.943 59.003 299.516 59.003 300.213V316.543C59.003 317.24 58.4294 317.814 57.7317 317.814H53.6853C52.9877 317.814 52.4141 317.24 52.4141 316.543V300.213C52.4141 299.516 52.9877 298.943 53.6853 298.943Z" fill="#954435"/>
<path d="M53.0814 317.814H52.0271C51.3295 317.814 50.7559 317.241 50.7559 316.543V300.213C50.7559 299.516 51.3295 298.943 52.0271 298.943H53.0814C54.7402 298.943 56.0735 300.275 56.0735 301.933V314.824C56.0735 316.481 54.7402 317.814 53.0814 317.814Z" fill="#C05847"/>
<path opacity="0.2" d="M18.7425 287.231H-55.6582V292.266H18.7425V287.231Z" fill="#221F20"/>
<path d="M17.8269 315.087V334.237H11.9821V373.048H-22.0478V334.237H-27.8926V315.087C-27.8926 308.921 -23.5671 303.762 -17.7999 302.46C-16.8852 302.243 -15.924 302.135 -14.9472 302.135H4.88156C5.85827 302.135 6.81948 302.243 7.73418 302.46C13.5014 303.762 17.8114 308.905 17.8114 315.087H17.8269Z" fill="#F7DCB6"/>
<path opacity="0.2" d="M93.7165 209.33H39.1602V214.365H93.7165V209.33Z" fill="#221F20"/>
<path opacity="0.2" d="M93.6545 265.943H39.1602V270.994H93.6545V265.943Z" fill="#221F20"/>
<path opacity="0.2" d="M93.6545 322.57H39.1602V327.621H93.6545V322.57Z" fill="#221F20"/>
</g>
<g style="mix-blend-mode:multiply">
<path d="M290.006 157.303H235.512V379.214H290.006V157.303Z" fill="#FAF5F0"/>
<path d="M290.066 204.558H235.51V209.314H290.066V204.558Z" fill="#E09B74"/>
<path d="M290.004 261.187H235.51V265.943H290.004V261.187Z" fill="#E09B74"/>
<path d="M290.006 317.814H235.512V322.57H290.006V317.814Z" fill="#E09B74"/>
<path d="M215.092 282.474H140.723V287.231H215.092V282.474Z" fill="#FAF5F0"/>
<path d="M290.004 374.427H235.51V379.199H290.004V374.427Z" fill="#E09B74"/>
<path d="M279.478 204.557H262.89C261.727 204.557 260.75 203.689 260.611 202.543L259.805 195.865L261.619 187.174H280.734L282.548 195.865L281.742 202.543C281.602 203.689 280.626 204.557 279.463 204.557H279.478Z" fill="#684329"/>
<path d="M277.696 195.866H276.611V187.236L274.286 178.854C274.162 178.591 272.937 178.142 270.875 178.157C268.828 178.173 267.805 178.653 267.681 178.854L265.96 187.205V195.85H264.875V187.05L266.642 178.529C267.077 177.258 269.743 177.088 270.859 177.073C271.79 177.073 274.813 177.134 275.309 178.482V178.529L277.696 187.081V195.85V195.866Z" fill="#935F3A"/>
<path d="M266.532 186.259H264.439V189.451H266.532V186.259Z" fill="#DC9461"/>
<path d="M278.208 186.259H276.115V189.451H278.208V186.259Z" fill="#DC9461"/>
<path d="M276.098 317.813H264.378C262.75 317.813 261.386 316.605 261.184 314.978L259.758 303.141H280.703L279.277 314.978C279.091 316.589 277.711 317.813 276.083 317.813H276.098Z" fill="#D03F47"/>
<path d="M275.726 310.471H274.811V303.204L271.245 292.374C271.09 291.94 270.579 291.801 270.191 291.801C269.803 291.801 269.307 291.972 269.152 292.405L265.835 303.204V310.471H264.92V303.065L268.284 292.111C268.548 291.367 269.276 290.887 270.176 290.871C271.075 290.856 271.834 291.336 272.114 292.064L275.726 303.049V310.455V310.471Z" fill="#EA5F66"/>
<path d="M266.316 302.367H264.549V305.063H266.316V302.367Z" fill="#EF8C93"/>
<path d="M276.129 302.367H274.377V305.063H276.129V302.367Z" fill="#EF8C93"/>
<path d="M272.936 261.185H253.665C251.913 261.185 250.611 259.605 250.921 257.885L253.122 245.986C253.37 244.669 254.518 243.709 255.866 243.709H270.719C272.067 243.709 273.215 244.669 273.463 245.986L275.664 257.885C275.99 259.605 274.672 261.185 272.92 261.185H272.936Z" fill="#745353"/>
<path d="M269.555 246.358H268.082V241.432C268.082 239.355 266.393 237.667 264.315 237.667H262.424C260.346 237.667 258.656 239.355 258.656 241.432V246.358H257.184V241.432C257.184 238.55 259.525 236.195 262.424 236.195H264.315C267.199 236.195 269.555 238.534 269.555 241.432V246.358Z" fill="#C88269"/>
<path d="M268.827 247.566C268.207 247.566 267.695 247.055 267.695 246.435V244.917H269.959V246.435C269.959 247.055 269.447 247.566 268.827 247.566Z" fill="#E09B74"/>
<path d="M258.083 247.691C257.463 247.691 256.951 247.18 256.951 246.56V245.042H259.215V246.56C259.215 247.18 258.703 247.691 258.083 247.691Z" fill="#E09B74"/>
<path d="M267.602 253.562H258.982C258.517 253.562 258.145 253.191 258.145 252.726C258.145 252.261 258.517 251.889 258.982 251.889H267.602C268.067 251.889 268.439 252.261 268.439 252.726C268.439 253.191 268.067 253.562 267.602 253.562Z" fill="#E09B74"/>
<path d="M272.749 374.427H254.734C253.478 374.427 252.408 373.481 252.269 372.242L251.4 364.991L253.369 355.556H274.113L276.082 364.991L275.214 372.242C275.059 373.497 274.004 374.427 272.749 374.427Z" fill="#8C8172"/>
<path d="M270.811 364.99H269.633V355.632L267.121 346.538C266.982 346.243 265.664 345.763 263.416 345.794C261.183 345.825 260.083 346.321 259.959 346.553L258.098 355.617V364.99H256.92V355.431L258.842 346.181C259.323 344.802 262.207 344.617 263.416 344.601C264.424 344.601 267.71 344.663 268.253 346.135V346.181L270.842 355.462V364.975L270.811 364.99Z" fill="#A29685"/>
<path d="M258.687 354.563H256.424V358.033H258.687V354.563Z" fill="#6D655A"/>
<path d="M271.353 354.563H269.09V358.033H271.353V354.563Z" fill="#6D655A"/>
<path d="M264.24 203.149V198.594C264.24 197.807 263.602 197.169 262.814 197.169H244.427C243.639 197.169 243.001 197.807 243.001 198.594V203.149C243.001 203.936 243.639 204.574 244.427 204.574H262.814C263.602 204.574 264.24 203.936 264.24 203.149Z" fill="#57565B"/>
<path d="M264.238 196.749V197.927C264.238 199.786 262.734 201.289 260.874 201.289H246.363C244.502 201.289 242.999 199.786 242.999 197.927V196.749C242.999 195.959 243.634 195.324 244.425 195.324H262.812C263.603 195.324 264.238 195.959 264.238 196.749Z" fill="#67656B"/>
<path d="M254.068 298.943H250.021C249.319 298.943 248.75 299.512 248.75 300.213V316.543C248.75 317.245 249.319 317.814 250.021 317.814H254.068C254.77 317.814 255.339 317.245 255.339 316.543V300.213C255.339 299.512 254.77 298.943 254.068 298.943Z" fill="#954435"/>
<path d="M249.433 317.814H248.379C247.681 317.814 247.107 317.241 247.107 316.543V300.213C247.107 299.516 247.681 298.943 248.379 298.943H249.433C251.092 298.943 252.425 300.275 252.425 301.933V314.824C252.425 316.481 251.092 317.814 249.433 317.814Z" fill="#C05847"/>
<path opacity="0.2" d="M212.984 170.07H140.691V175.105H212.984V170.07Z" fill="#221F20"/>
<path opacity="0.2" d="M215.092 287.231H140.691V292.266H215.092V287.231Z" fill="#221F20"/>
<path d="M212.984 165.298H140.691V170.287H212.984V165.298Z" fill="#FAF5F0"/>
<path d="M157.079 178.359H152.676V185.827H157.079V178.359Z" fill="#804721"/>
<path d="M153.637 185.33H155.854C158.304 185.33 160.273 187.313 160.273 189.746V265.725H149.203V189.746C149.203 187.298 151.188 185.33 153.622 185.33H153.637Z" fill="#F7DCB6"/>
<path d="M155.28 165.328H154.475V178.358H155.28V165.328Z" fill="#4B4B4C"/>
<path d="M172.954 178.359H168.551V185.827H172.954V178.359Z" fill="#804721"/>
<path d="M169.528 185.33H171.745C174.194 185.33 176.163 187.313 176.163 189.746V265.725H165.109V189.746C165.109 187.298 167.094 185.33 169.528 185.33Z" fill="#F7DCB6"/>
<path d="M171.171 165.328H170.365V178.358H171.171V165.328Z" fill="#4B4B4C"/>
<path d="M187.45 178.359H183.047V185.827H187.45V178.359Z" fill="#804721"/>
<path d="M184.008 185.33H186.225C188.675 185.33 190.644 187.313 190.644 189.746V265.725H179.59V189.746C179.59 187.298 181.574 185.33 184.008 185.33Z" fill="#C8A09F"/>
<path d="M185.651 165.328H184.846V178.358H185.651V165.328Z" fill="#4B4B4C"/>
<path d="M202.194 178.359H197.791V185.827H202.194V178.359Z" fill="#804721"/>
<path d="M199.326 185.33H200.411C203.171 185.33 205.403 187.561 205.403 190.319V270.342H194.334V190.319C194.334 187.561 196.566 185.33 199.326 185.33Z" fill="#6D4B37"/>
<path d="M200.394 165.328H199.588V178.358H200.394V165.328Z" fill="#4B4B4C"/>
<path d="M195.311 178.359H190.908V185.827H195.311V178.359Z" fill="#804721"/>
<path d="M191.868 185.33H194.085C196.534 185.33 198.503 187.313 198.503 189.746V265.725H187.449V189.746C187.449 187.298 189.434 185.33 191.868 185.33Z" fill="#825E5D"/>
<path d="M193.511 165.328H192.705V178.358H193.511V165.328Z" fill="#4B4B4C"/>
<path d="M162.195 294.978H157.963V302.136H162.195V294.978Z" fill="#986533"/>
<path d="M160.474 282.474H159.699V294.977H160.474V282.474Z" fill="#4B4B4C"/>
<path d="M172.473 302.46C171.559 302.243 170.597 302.135 169.621 302.135H149.776C148.8 302.135 147.838 302.243 146.924 302.46C144.521 303.002 142.381 304.211 140.691 305.884V334.237H142.676V373.047H176.706V334.237H182.551V315.087C182.551 308.921 178.241 303.761 172.473 302.46Z" fill="#525152"/>
<path d="M160.086 298.555L172.473 302.46L160.086 307.17L146.924 302.46L160.086 298.555Z" fill="#986533"/>
<path d="M170.504 294.978H166.271V302.136H170.504V294.978Z" fill="#986533"/>
<path d="M168.767 282.475H167.992V294.978H168.767V282.475Z" fill="#4B4B4C"/>
<path d="M190.86 315.087V334.237H185.015V373.048H150.985V334.237H145.141V315.087C145.141 308.921 149.466 303.762 155.233 302.46C156.148 302.243 157.109 302.135 158.086 302.135H177.93C178.907 302.135 179.868 302.243 180.783 302.46C186.55 303.762 190.86 308.905 190.86 315.087Z" fill="#6E6C6E"/>
<path d="M168.381 298.556L180.768 302.46L168.381 307.17L155.219 302.46L168.381 298.556Z" fill="#986533"/>
<path d="M176.428 294.978H172.195V302.136H176.428V294.978Z" fill="#804721"/>
<path d="M174.706 282.475H173.932V294.978H174.706V282.475Z" fill="#4B4B4C"/>
<path d="M196.784 315.087V334.237H190.939V373.048H156.909V334.237H151.064V315.087C151.064 308.921 155.39 303.762 161.157 302.46C162.072 302.243 163.033 302.135 164.01 302.135H183.854C184.831 302.135 185.792 302.243 186.707 302.46C192.474 303.762 196.784 308.905 196.784 315.087Z" fill="#E09B74"/>
<path d="M174.303 298.556L186.706 302.46L174.303 307.17L161.156 302.46L174.303 298.556Z" fill="#804721"/>
<path d="M183.729 294.978H179.496V302.136H183.729V294.978Z" fill="#986533"/>
<path d="M182.007 282.475H181.232V294.978H182.007V282.475Z" fill="#4B4B4C"/>
<path d="M204.085 315.087V334.237H198.24V373.048H164.21V334.237H158.365V315.087C158.365 308.921 162.691 303.762 168.458 302.46C169.373 302.243 170.334 302.135 171.311 302.135H191.155C192.132 302.135 193.093 302.243 194.007 302.46C199.775 303.762 204.085 308.905 204.085 315.087Z" fill="#DE8957"/>
<path d="M181.619 298.556L194.007 302.46L181.619 307.17L168.457 302.46L181.619 298.556Z" fill="#986533"/>
<path d="M193.822 294.978H189.59V302.136H193.822V294.978Z" fill="#804721"/>
<path d="M192.085 282.475H191.311V294.978H192.085V282.475Z" fill="#4B4B4C"/>
<path d="M214.163 315.087V334.237H208.318V373.048H174.288V334.237H168.443V315.087C168.443 308.921 172.769 303.762 178.536 302.46C179.451 302.243 180.412 302.135 181.389 302.135H201.233C202.21 302.135 203.171 302.243 204.086 302.46C209.853 303.762 214.163 308.905 214.163 315.087Z" fill="#F7DCB6"/>
<path d="M191.7 298.556L204.087 302.46L191.7 307.17L178.537 302.46L191.7 298.556Z" fill="#804721"/>
<path opacity="0.2" d="M290.066 209.33H235.51V214.365H290.066V209.33Z" fill="#221F20"/>
<path opacity="0.2" d="M290.006 265.943H235.512V270.994H290.006V265.943Z" fill="#221F20"/>
<path opacity="0.2" d="M290.006 322.57H235.512V327.621H290.006V322.57Z" fill="#221F20"/>
</g>
<path d="M371.182 283.417H363.662C340.051 283.417 320.889 264.268 320.889 240.671V227.332C320.889 222.374 324.92 218.346 329.881 218.346H342.965C358.546 218.346 371.182 230.988 371.182 246.543V283.417Z" fill="#F6D2A0"/>
<path d="M374.08 338.341V358.343C374.08 358.343 385.134 356.422 378.778 341.347L374.08 338.357V338.341Z" fill="#E69392"/>
<path d="M378.778 341.347L374.08 338.357L389.769 302.691L399.444 308.857C381.909 336.249 378.778 341.347 378.778 341.347Z" fill="#E96094"/>
<path d="M374.39 267.677C374.39 267.677 380.824 273.301 399.444 308.905L389.475 313.135L367.895 278.027L374.39 267.677Z" fill="#E96094"/>
<path d="M327.229 266.159C327.229 266.159 321.028 283.186 324.33 328.349C324.33 328.349 328.919 328.597 332.299 328.178L334.733 322.43L335.864 275.393L327.229 266.159Z" fill="#E96094"/>
<path d="M340.67 486.567H352.499C352.499 486.567 356.111 474.683 360.406 455.89C363.274 443.34 366.452 427.677 369.041 410.448C372.126 390.044 374.39 367.392 374.39 344.958H347.6L344.329 411.874L342.623 446.826L340.685 486.551L340.67 486.567Z" fill="#D58483"/>
<path d="M374.374 344.972H337.058C337.058 344.972 343.926 328.936 327.539 286.593L327.229 266.158L341.647 261.479L358.421 260.626L374.374 267.676V344.972Z" fill="#E96094"/>
<path d="M358.422 261.479C358.422 261.479 358.918 264.485 352.763 264.485C346.608 264.485 341.725 261.479 341.725 261.479V242.035H358.406V261.479H358.422Z" fill="#E69392"/>
<path d="M341.74 259.652V251.053H356.856C356.856 251.053 355.678 259.652 341.74 259.652Z" fill="#D16F6D"/>
<path d="M336.158 412.354C336.825 415.36 337.476 418.458 338.065 421.696C339.755 430.884 341.275 439.328 342.608 446.858C346.964 471.523 349.367 486.567 349.367 486.567H360.406V344.974H337.058C324.794 371.514 330.934 388.789 336.158 412.354Z" fill="#E69392"/>
<path d="M336.159 412.354L344.329 411.889L360.421 410.96L369.057 410.464C372.142 390.059 374.405 367.408 374.405 344.974H337.089C324.826 371.514 330.965 388.789 336.19 412.354H336.159Z" fill="#404264"/>
<path d="M333.306 361.364L327.306 373.743C325.849 376.764 321.136 375.664 321.353 372.318C321.523 369.576 323.12 366.09 327.771 361.999L333.306 361.349V361.364Z" fill="#E69392"/>
<path d="M327.772 362.016L333.307 361.365L334.733 322.43C328.439 323.174 323.54 321.346 324.284 327.636C326.919 350.008 327.772 362.016 327.772 362.016Z" fill="#E96094"/>
<path d="M360.034 246.358H358.421V235.296H362.824V243.569C362.824 245.118 361.568 246.358 360.034 246.358Z" fill="#EC9C9A"/>
<path d="M361.352 226.14V236.644H358.422V251.177C358.422 251.177 348.779 261.278 339.709 256.243C335.741 254.043 333.307 249.147 333.307 243.926V226.14C333.307 223.087 333.973 220.221 335.121 217.758C337.493 212.676 341.957 209.236 347.074 209.236H347.585C355.182 209.236 361.352 216.813 361.352 226.14Z" fill="#EC9C9A"/>
<path d="M338.546 243.539C337.848 243.539 337.181 243.198 336.701 242.594C336.189 241.943 335.957 241.06 336.065 240.177L336.189 239.17L337.507 239.371L337.383 240.378C337.321 240.843 337.445 241.292 337.709 241.633C337.926 241.912 338.22 242.067 338.546 242.067V243.539Z" fill="#D16F6D"/>
<path d="M350.035 247.319C350.035 247.319 348.95 252.927 344.051 252.927C339.152 252.927 338.066 247.319 338.066 247.319H350.02H350.035Z" fill="white"/>
<path d="M330.811 227.564C330.811 227.564 354.128 225.488 371.181 255.266V226.867C371.181 215.944 362.143 207.097 350.996 207.097C339.849 207.097 330.811 215.944 330.811 226.867V227.564Z" fill="#F6D2A0"/>
<path d="M360.236 275.563H357.012V259.032H371.182V264.625C371.182 270.668 366.267 275.563 360.236 275.563Z" fill="#F6D2A0"/>
<path d="M349.461 293.985C357.368 293.985 363.786 287.57 363.786 279.669V257.126H359.259C353.848 257.126 349.461 261.511 349.461 266.918V293.985Z" fill="#F6D2A0"/>
<path d="M222.906 238.209C227.712 238.209 231.619 234.32 231.619 229.501V215.418H219.107" fill="#AD3C49"/>
<path d="M255.819 239.959H224.223V209.469C224.223 204.371 228.362 200.235 233.463 200.235H242.904C252.315 200.235 259.927 207.857 259.927 217.246L255.819 239.959Z" fill="#AD3C49"/>
<path d="M240.176 242.594H227.199V213.839C227.199 209.036 231.339 205.131 236.439 205.131H245.881C255.291 205.131 262.903 212.32 262.903 221.167C262.903 232.988 252.733 242.579 240.176 242.579V242.594Z" fill="#AD3C49"/>
<path d="M311.337 288.996L283.137 316.698L278.889 306.767L306.779 283.295L311.337 288.996Z" fill="#F19F9E"/>
<path d="M258.827 258.66L255.494 260.968C255.494 260.968 282.067 315.164 283.137 316.713L291.679 308.316L269.804 262.455L258.843 258.66H258.827Z" fill="#F19F9E"/>
<path d="M284.641 293.583L272.889 300.493L261.975 275.905L269.788 262.457L284.641 293.583Z" fill="#563A42"/>
<path d="M306.502 279.546L314.803 274.086L317.403 278.034C319.738 281.58 318.751 286.365 315.202 288.699L311.304 291.263C310.242 291.961 308.803 291.665 308.105 290.603L305.139 286.1C303.707 283.925 304.313 280.985 306.489 279.555L306.502 279.546Z" fill="#F19F9E"/>
<path d="M269.787 262.456L251.338 253.749H229.215L210.053 262.456L213.742 358.158H266.485L269.787 262.456Z" fill="#563A42"/>
<path d="M252.438 254.259C252.438 254.259 249.244 258.489 240.268 258.489C231.291 258.489 228.098 254.259 228.098 254.259V226.914H252.438V254.259Z" fill="#F19F9E"/>
<path d="M252.44 252.787V241.617H232.332C232.332 241.617 235.882 251.672 252.44 252.787Z" fill="#D16F6D"/>
<path d="M213.743 358.158L212.812 488.503L223.386 487.713L245.09 358.158H213.743Z" fill="#C1DCED"/>
<path d="M266.47 358.158L264.16 483.452H251.277L236.533 358.158H266.47Z" fill="#C1DCED"/>
<path d="M210.053 262.457C210.053 262.457 202.41 283.187 202.41 317.179C202.41 319.038 202.441 322.323 202.488 324.213L214.115 322.787L215.293 304.567L210.053 262.457Z" fill="#F19F9E"/>
<path d="M263.555 277.717H244.718C243.049 277.717 241.695 279.069 241.695 280.738V312.127C241.695 313.796 243.049 315.149 244.718 315.149H263.555C265.225 315.149 266.578 313.796 266.578 312.127V280.738C266.578 279.069 265.225 277.717 263.555 277.717Z" fill="white"/>
<path d="M263.988 281.591C263.988 282.148 263.538 282.598 262.98 282.598C262.422 282.598 261.973 282.148 261.973 281.591C261.973 281.033 262.422 280.583 262.98 280.583C263.538 280.583 263.988 281.033 263.988 281.591Z" fill="#192636"/>
<path d="M242.455 306.006H252.393V310.732C252.393 314.977 248.936 318.432 244.688 318.432H237.727V310.732C237.727 308.113 239.851 306.006 242.455 306.006Z" fill="#F19F9E"/>
<path d="M239.168 318.434L214.114 322.787L211.742 311.136H239.168V318.434Z" fill="#F19F9E"/>
<path d="M257.275 248.218C240.733 253.966 230.889 241.943 230.889 241.943V215.636C230.889 212.475 233.183 209.903 236.005 209.903H245.477C255.353 209.903 257.291 218.13 257.275 223.77V248.218Z" fill="#F19F9E"/>
<path d="M253.648 234.676H250.377V233.205H252.02L251.664 230.028L253.121 229.874L253.648 234.676Z" fill="#D16F6D"/>
<path d="M216.643 372.66C223.309 372.66 228.735 367.237 228.735 360.575H227.231C227.231 366.416 222.487 371.157 216.643 371.157V372.66Z" fill="#AEC7D7"/>
<path d="M263.354 372.366V371.451C261.555 371.451 259.555 366.989 259.555 360.575H258.641C258.641 367.191 260.703 372.366 263.354 372.366Z" fill="#AEC7D7"/>
<path d="M241.788 380.748L245.028 377.525V365.316H244.098V377.138L241.137 380.097L241.788 380.748Z" fill="#AEC7D7"/>
<path d="M234.983 224.373H219.123V215.496C219.123 210.724 222.27 206.85 226.146 206.85H235.231C237.789 206.85 239.851 209.391 239.851 212.536C239.851 219.075 235.309 215.434 234.983 224.373Z" fill="#AD3C49"/>
<path d="M230.455 232.678C232.951 232.678 234.982 230.649 234.982 228.154V224.374H230.455V232.678Z" fill="#AD3C49"/>
<path d="M227.262 223.274C225.463 223.274 224.006 224.731 224.006 226.528V233.237C224.006 235.034 225.463 236.49 227.262 236.49H230.548V226.574C230.548 224.762 229.075 223.29 227.262 223.29V223.274Z" fill="#F19F9E"/>
<path d="M215.293 304.567L201.65 303.514C201.65 303.514 206.984 266.252 210.053 262.457L215.293 304.567Z" fill="#563A42"/>
<path style="mix-blend-mode:screen" d="M204.364 355.804H34.4316L109.22 44.3736H129.576L204.364 355.804Z" fill="url(#paint3_linear_86_66330)"/>
<path d="M326.981 362.667C326.981 362.667 321.695 367.966 320.888 369.716C320.098 371.467 318.95 375.852 322.904 376.208C326.857 376.565 328.438 375.96 328.997 374.07C329.555 372.18 330.671 365.905 330.671 365.905L326.966 362.683L326.981 362.667Z" fill="#E69392"/>
<path d="M313.787 391.206C313.492 391.144 313.244 390.896 313.213 390.586C313.167 390.137 312.081 379.431 316.996 373.776C318.856 371.638 321.322 370.522 324.345 370.429C332.872 370.166 334.065 377.913 335.12 384.73C335.74 388.711 336.313 392.492 338.127 394.769C338.375 395.079 338.313 395.529 338.003 395.776C337.693 396.024 337.243 395.962 336.995 395.652C334.949 393.065 334.313 388.928 333.709 384.931C332.654 378.083 331.662 371.622 324.391 371.839C321.787 371.917 319.663 372.877 318.081 374.69C313.57 379.865 314.624 390.307 314.64 390.4C314.686 390.788 314.392 391.144 314.004 391.19C313.926 391.19 313.849 391.19 313.787 391.19V391.206Z" fill="#5A8BC9"/>
<path d="M284.951 387.781L278.75 450.622L290.548 451.242L295.928 455.58L293.06 388.013L284.951 387.781Z" fill="#98AAD7"/>
<path d="M293.061 388.014H363.384L372.035 453.628L295.929 455.58L293.061 388.014Z" fill="#F18C37"/>
<path d="M318.594 393.189C318.284 393.189 318.005 392.988 317.912 392.693C317.772 392.259 314.61 381.972 318.33 375.465C319.741 373.017 321.943 371.421 324.873 370.739C333.198 368.818 335.88 376.177 338.252 382.669C339.632 386.465 340.95 390.044 343.167 391.934C343.461 392.198 343.508 392.647 343.244 392.941C342.981 393.236 342.531 393.282 342.236 393.019C339.725 390.881 338.299 386.961 336.903 383.149C334.531 376.642 332.283 370.491 325.198 372.134C322.671 372.722 320.764 374.07 319.571 376.177C316.16 382.127 319.245 392.167 319.276 392.259C319.4 392.631 319.183 393.034 318.811 393.158C318.733 393.174 318.671 393.189 318.594 393.189Z" fill="#84ACDC"/>
<path d="M290.549 451.242V388.014H293.06L295.929 455.58L290.549 451.242Z" fill="#98AAD7"/>
<path d="M324.92 364.79C324.92 364.79 321.246 366.649 320.378 367.873C319.51 369.112 317.959 370.739 318.905 370.94C319.866 371.142 322.688 369.035 322.688 369.035L324.92 364.79Z" fill="#E69392"/>
<path d="M320.904 372.52C320.904 372.52 324.237 370.087 326.299 370.955C328.361 371.823 328.531 375.076 327.896 375.758C327.26 376.44 322.051 377.183 320.656 375.355C319.26 373.527 320.904 372.52 320.904 372.52Z" fill="#E69392"/>
<path d="M153.777 409.781L153.963 347.065L157.684 341.44L191.466 341.719L193.326 345.67L193.14 409.781H191.311L191.544 345.903L189.311 343.687H159.017L155.7 348.01L155.188 409.781H153.777Z" fill="white"/>
<path d="M164.646 340.852L164.072 344.415H184.599L185.172 341.069L164.646 340.852Z" fill="#356A7C"/>
<path d="M147.172 494.685H198.427C200.541 494.685 202.256 492.972 202.256 490.858V411.223C202.256 409.109 200.541 407.396 198.427 407.396H147.172C145.057 407.396 143.343 409.109 143.343 411.223V490.858C143.343 492.972 145.057 494.685 147.172 494.685Z" fill="#356A7C"/>
<path d="M148.553 414.663L149.08 438.91C149.096 439.498 149.36 439.963 149.67 439.948L170.072 439.622C170.382 439.622 170.63 439.157 170.646 438.584L171.157 415.127C171.173 414.508 170.909 413.981 170.584 413.981L149.143 413.516C148.801 413.516 148.538 414.043 148.553 414.663Z" fill="#529AB0"/>
<path d="M150.973 415.687L151.221 417.127L169.747 417.298V416.492L150.973 415.687Z" fill="#366770"/>
<path d="M174.614 414.663L175.141 438.91C175.157 439.498 175.42 439.963 175.73 439.948L196.133 439.622C196.443 439.622 196.691 439.158 196.706 438.584L197.218 415.127C197.233 414.508 196.97 413.981 196.644 413.981L175.203 413.516C174.862 413.516 174.598 414.043 174.614 414.663Z" fill="#529AB0"/>
<path d="M177.031 415.687L177.279 417.127L195.806 417.298V416.492L177.031 415.687Z" fill="#366770"/>
<path d="M208.613 397.65L202.257 407.396H145.003L137.871 393.808L145.948 371.839L152.94 372.009L200.412 373.14L208.613 397.65Z" fill="#7DC1D2"/>
<path d="M208.613 397.65L202.256 407.395H155.684L158.971 393.808L152.025 371.978L200.411 373.14L208.613 397.65Z" fill="#89C8DA"/>
<path d="M157.561 377.168L166.025 390.755C167.576 393.234 170.273 394.737 173.203 394.737H192.381C199.218 394.737 208.334 392.63 199.311 381.459L195.668 376.254L193.001 376.424L194.009 378.175C202.753 391.7 193.42 390.445 187.141 390.802L175.312 391.452C172.506 391.607 169.793 390.352 168.103 388.106L159.855 377.183H157.576L157.561 377.168Z" fill="#6DB5CA"/>
</g>
<path d="M46.8813 30.0297C47.6677 29.3416 48.3722 28.5553 49.0112 27.7197H42.196V25.377H52.2386V26.0486C52.5171 26.3763 52.8121 26.6712 53.107 26.917C54.3029 26.4583 55.3842 25.8356 56.3508 25.0984L58.2347 26.6384C57.3008 27.4248 56.2196 28.1129 54.9909 28.6536C55.384 29.014 55.7776 29.3416 56.1544 29.6201C57.2029 28.9812 58.1691 28.1948 59.0538 27.261L61.1017 28.8666C60.2826 29.7349 59.3324 30.4884 58.2839 31.1602C59.4307 31.9465 60.5612 32.5855 61.6589 33.0933L59.775 35.3378C59.3654 35.1085 58.9723 34.8791 58.6118 34.6334V40.433H55.0728L57.0879 40.99C56.6456 41.8092 56.2196 42.5792 55.7772 43.2182H61.2001V45.6428H41.77V43.2182H46.7341C46.4556 42.4809 46.1114 41.7929 45.7182 41.1703L47.3073 40.433H43.9979V34.699C43.2606 35.0266 42.5561 35.2724 41.868 35.4362L41.0488 33.3719C42.2448 33.0115 43.4082 32.4544 44.5386 31.7663C43.9488 31.1765 43.2772 30.554 42.5891 29.9478L44.9154 28.3423C45.5544 28.8502 46.226 29.3908 46.9141 30.0461L46.8813 30.0297ZM47.5693 32.5528C46.9303 33.0115 46.308 33.4211 45.7182 33.7979H57.4155C56.6783 33.29 55.9741 32.7494 55.286 32.1432V32.7166H48.2248V32.0449C47.9955 32.2251 47.7659 32.4053 47.5857 32.5528H47.5693ZM56.1052 38.0083V36.2226H46.5045V38.0083H56.1052ZM52.845 43.2018C53.3037 42.2843 53.6969 41.3669 54.0409 40.4166H48.2576C48.7 41.0556 49.0603 41.7437 49.388 42.4809L47.7169 43.1854H52.8614L52.845 43.2018ZM49.9943 30.3902H53.3197C52.6972 29.8168 52.1077 29.227 51.5506 28.6044C50.9936 29.2761 50.5022 29.8659 49.9943 30.3902Z" fill="#595757"/>
<path d="M66.1138 29.0467V25.0983H68.4565V29.0467H69.882V31.2911H68.4565V32.5363C69.3248 33.3554 70.095 34.1418 70.7503 34.8954L70.5863 33.978C70.9304 33.978 71.2746 33.978 71.6023 33.9616C72.061 33.2571 72.4706 32.569 72.8474 31.8809C71.9791 31.2092 71.0617 30.6358 70.0624 30.1443L71.3235 28.5388C71.4546 28.6371 71.5696 28.7026 71.7171 28.7518C72.3396 27.5394 72.8638 26.3107 73.3062 25.1311L75.2885 26.0321C74.6004 27.4575 73.9776 28.6862 73.4042 29.7183C73.5352 29.8166 73.6827 29.8986 73.8138 29.9969C74.1087 29.3744 74.3872 28.7845 74.6329 28.1783L76.3696 28.9648C76.3041 27.8016 76.2548 26.5564 76.2548 25.2294L78.6635 25.0492C78.6635 26.6056 78.6795 28.0146 78.7287 29.2925L79.0239 28.7354C79.1222 28.8009 79.2367 28.8664 79.3186 28.9156C79.8757 27.6541 80.3346 26.3926 80.7114 25.1311L82.6773 26.0321C82.0383 27.5885 81.4648 28.8992 80.9406 29.9805C81.0716 30.1116 81.2191 30.2262 81.3501 30.3245C81.7433 29.4562 82.0872 28.6044 82.3985 27.7524L84.3812 28.6535C83.9061 29.702 83.4472 30.6522 83.0048 31.5205L83.9224 31.2419C84.3811 32.3888 84.7414 33.634 85.0035 35.0101L83.2176 35.5344C83.1685 35.3214 83.1524 35.1248 83.1032 34.9118C82.7756 35.0429 82.4806 35.1412 82.2021 35.1903C82.71 35.518 83.1688 35.8292 83.5784 36.1733L82.9392 36.8777H84.7579V39.0403H80.1214C80.2525 39.5482 80.4492 40.0233 80.6294 40.4656C80.9079 40.1052 81.1864 39.7121 81.4321 39.3025L83.4964 40.2854C82.9394 41.2684 82.3659 42.104 81.7761 42.7593C82.0219 43.1525 82.2347 43.3327 82.4149 43.3327C82.464 43.3327 82.5133 43.2344 82.5789 43.0542C82.6772 42.7757 82.7425 42.3825 82.7917 41.9074L85.0199 42.8085C84.6267 44.1192 84.1518 44.9711 83.5948 45.3479C83.2344 45.6264 82.8084 45.7574 82.3333 45.7574C81.6616 45.7574 80.9735 45.315 80.2854 44.4795C80.2199 44.3812 80.1542 44.3157 80.105 44.2338C79.1876 44.8728 78.1552 45.397 77.0576 45.8721L75.8944 43.8078C77.1559 43.3491 78.1719 42.8248 78.9419 42.2186C78.4995 41.2848 78.1392 40.2199 77.8443 39.0567H74.6165C74.6001 39.3844 74.5677 39.6465 74.5677 39.9087C75.649 40.4657 76.5828 40.9572 77.4184 41.4651L76.0912 43.3491C75.4687 42.8903 74.8459 42.4808 74.2397 42.0876C74.1414 42.4153 74.0761 42.7101 74.0105 42.9395C73.6829 44.0372 73.224 45.0038 72.585 45.8721L70.4555 44.5123C71.0126 43.8078 71.4382 43.0051 71.7659 42.0548C71.9952 41.2685 72.1755 40.2691 72.2738 39.0567H70.7175V36.8941H77.3528C77.2381 36.419 77.1395 35.9276 77.0576 35.4197L75.4685 35.8948C75.4193 35.6818 75.4032 35.5016 75.3705 35.3214C74.0926 35.7801 72.6178 36.0258 70.9795 36.075L70.8979 35.5507L69.5708 37.402C69.2104 36.7794 68.8333 36.2061 68.4893 35.6818V45.8557H66.1466V38.1229C65.8681 38.9912 65.5731 39.794 65.2454 40.5476L63.8203 38.7618C64.279 37.8444 64.754 36.5665 65.2618 34.9118C65.5895 33.8633 65.8844 32.7492 66.1302 31.586V31.3403H64.2463V29.0958H66.1302L66.1138 29.0467ZM74.6821 32.5691C74.4527 32.9623 74.2399 33.3227 74.0433 33.6503C74.371 33.6012 74.666 33.5192 74.9445 33.4209C74.8462 33.1424 74.7804 32.8476 74.6985 32.5691H74.6821ZM76.4024 29.4398C75.8945 30.4065 75.436 31.2911 74.9773 32.0775L76.1732 31.7335C76.4026 32.3233 76.5826 32.9786 76.7792 33.6175C76.599 32.3396 76.4843 30.9635 76.4188 29.4398H76.4024ZM80.367 36.3208L81.1697 35.3541C80.6127 35.4524 80.0885 35.4852 79.5642 35.4852L79.2039 33.5028C79.4168 33.5028 79.6136 33.5029 79.8266 33.4865C80.1051 33.0114 80.3508 32.5199 80.5802 32.012C79.9904 31.5533 79.3841 31.1437 78.8435 30.7669C78.9745 33.0769 79.2366 34.9937 79.5478 36.4846C79.5642 36.6156 79.597 36.7303 79.6134 36.8286H81.1533C80.8748 36.6484 80.6291 36.4682 80.367 36.3044V36.3208ZM82.5297 32.4871C82.3986 32.7656 82.2512 32.995 82.1365 33.2243C82.3495 33.208 82.5298 33.1588 82.7101 33.1096C82.6445 32.8967 82.5788 32.7001 82.5297 32.4871Z" fill="#595757"/>
<path d="M95.5064 27.261L94.0813 27.8835H99.3566C99.7989 27.0152 100.176 26.065 100.52 25.0984L103.485 25.9012C103.125 26.6385 102.732 27.2937 102.338 27.8671H107.335V30.2919H87.3477V27.8671H92.5578C92.2793 27.2773 91.935 26.7367 91.5746 26.2616L93.9829 25.0984C94.5727 25.7701 95.0804 26.4746 95.49 27.261H95.5064ZM97.3087 42.8577C97.3087 44.8401 96.2603 45.823 94.1633 45.823C93.7537 45.823 93.3112 45.7739 92.8034 45.7247L92.279 43.1035C92.9671 43.2837 93.5899 43.382 94.1633 43.382C94.5073 43.382 94.6872 42.9887 94.6872 42.2187V41.1703H90.7391V45.823H88.1504V31.2093H97.3087V42.8741V42.8577ZM94.7036 35.0593V33.6176H90.7555V35.0593H94.7036ZM94.7036 38.8111V37.3694H90.7555V38.8111H94.7036ZM101.798 31.9138V41.8748H99.209V31.9138H101.798ZM106.631 30.9309V42.4973C106.631 43.7424 106.451 44.5779 106.123 45.0367C105.713 45.5446 105.025 45.823 104.01 45.823C103.092 45.823 102.224 45.7248 101.421 45.5445L100.978 42.956C101.847 43.1854 102.748 43.3001 103.666 43.3001C103.797 43.3001 103.895 43.2017 103.944 43.0215C103.993 42.7757 104.01 42.3826 104.01 41.8748V30.9309H106.631Z" fill="#595757"/>
<path d="M112.889 45.1676H110.301V28.3258H112.365C112.66 27.2281 112.89 26.1304 113.07 25L115.756 25.639C115.576 26.6056 115.363 27.4903 115.118 28.3258H118.542V32.438C119.115 31.4714 119.623 30.4228 120.049 29.2433C120.688 27.7524 121.179 26.327 121.491 25L124.177 25.8192C123.948 26.6711 123.719 27.4903 123.473 28.3258H129.928C129.928 37.1071 129.633 42.2023 129.076 43.6113C128.633 45.1185 127.585 45.9048 125.914 45.9048C125.046 45.9048 124.178 45.7738 123.293 45.5445L122.768 42.7593C124.046 43.0542 125.111 43.2017 125.914 43.2017C126.389 43.2017 126.717 42.8412 126.848 42.1039C127.094 40.8261 127.241 37.0743 127.241 30.8324H122.539C121.9 32.4871 121.212 33.8797 120.426 35.0592L118.542 33.6667V44.2993H115.953V43.0542H112.906V45.184L112.889 45.1676ZM115.937 34.6825V30.8324H112.889V34.6825H115.937ZM115.937 37.1235H112.889V40.6131H115.937V37.1235ZM125.537 39.1878L122.768 40.0889C122.441 38.1884 121.917 36.4354 121.229 34.879L123.751 34.0763C124.505 35.6163 125.111 37.3038 125.537 39.1878Z" fill="#595757"/>
<path d="M140.397 43.3H137.89V42.0549H135.727V43.9389H133.221V26.54H140.38V43.3H140.397ZM137.89 32.995V28.9484H135.727V32.995H137.89ZM137.89 39.6302V35.3377H135.727V39.6302H137.89ZM145.787 26.9824V25.0164H148.375V26.9824H153.306V29.5054H148.375V31.6352H152.946V34.1582H151.242V35.944H153.306V38.4506H151.242V42.3989C151.242 43.7587 151.046 44.627 150.62 44.9874C150.161 45.4625 149.375 45.7247 148.277 45.7247C147.474 45.7247 146.737 45.6264 146.049 45.4462L145.59 42.6774C146.491 42.9723 147.376 43.1197 148.277 43.1197C148.457 43.1197 148.555 42.7594 148.555 41.973V38.467H140.937V35.9603H148.555V34.1746H141.461V31.6515H145.77V29.5218H140.921V26.9988H145.77L145.787 26.9824ZM145.41 41.7764L142.903 42.8576C142.576 41.8091 142.199 40.8425 141.74 39.9906L144.083 38.9093C144.591 39.7776 145.05 40.7442 145.41 41.7764Z" fill="#595757"/>
<path d="M165.577 34.1582H158.942V45.8229H156.436V25.2786H165.577V34.1582ZM163.07 28.6043V27.7032H158.942V28.6043H163.07ZM163.07 31.7335V30.8324H158.942V31.7335H163.07ZM175.882 25.2786V42.4972C175.882 44.6598 174.899 45.7246 172.917 45.7246C172.245 45.7246 171.475 45.6264 170.59 45.4461L170.246 43.7422H163.316V44.6434H160.908V35.0592H171.115V43.0378C171.573 43.1525 172.032 43.2017 172.475 43.2017C172.999 43.2017 173.277 42.6446 173.277 41.4978V34.1582H166.822V25.2786H175.866H175.882ZM168.723 38.2867V37.3693H163.333V38.2867H168.723ZM168.723 41.4159V40.4329H163.333V41.4159H168.723ZM173.294 28.6043V27.7032H169.165V28.6043H173.294ZM173.294 30.8324H169.165V31.7335H173.294V30.8324Z" fill="#595757"/>
<path d="M197.164 37.8936C197 38.5981 196.656 39.1551 196.148 39.5319C195.689 39.7777 195.214 39.8923 194.706 39.8923C193.953 39.8923 193.15 39.7777 192.282 39.5319L191.757 36.7468C192.511 37.0744 193.297 37.2054 194.067 37.2054C194.362 37.2054 194.576 37.0416 194.69 36.6812C194.92 35.7473 195.084 34.0435 195.198 31.6025L190.775 32.6837V40.695H188.153V33.3227L184.139 34.3057V41.76C184.139 42.3498 184.532 42.661 185.335 42.661C186.154 42.7266 187.793 42.7593 190.217 42.7593C192.511 42.7593 193.871 42.7102 194.33 42.5955C194.936 42.5464 195.46 42.4972 195.968 42.4153C196.328 42.3006 196.639 41.4487 196.869 39.8923L199.572 41.0555C199.245 43.0051 198.77 44.1683 198.147 44.6106C197.459 44.9383 196.132 45.1677 194.182 45.2496C193.216 45.2987 191.905 45.3151 190.234 45.3479C186.417 45.3479 184.434 45.2987 184.205 45.2332C182.37 45.184 181.453 44.2175 181.453 42.3826V34.961L179.405 35.4688L178.766 33.1425L181.453 32.4052V27.2282H184.156V31.6843L188.17 30.6031V25.2622H190.791V29.8986L197.77 28.0474C197.77 32.3561 197.557 35.6491 197.197 37.8936H197.164Z" fill="#595757"/>
<path d="M221.754 26.2615V28.8501H214.02C213.693 29.4399 213.349 30.046 212.972 30.6358V45.7082H210.187V34.5842C210.105 34.6825 210.023 34.7643 209.99 34.8626C207.975 37.3692 205.813 39.4827 203.568 41.2193L201.586 39.1714C203.83 37.5167 205.895 35.5999 207.73 33.339C209.089 31.6843 210.187 30.1771 211.039 28.8337H202.224V26.2451H221.754V26.2615ZM222.294 39.1878L219.951 41.5142C218.182 38.7782 216.118 36.0914 213.775 33.4537L216.183 31.7335C218.247 33.8469 220.262 36.3535 222.294 39.1878Z" fill="#595757"/>
<path d="M230.8 25.7373C230.701 25.9666 230.635 26.1796 230.553 26.3598C231.766 26.9988 232.897 27.7197 233.945 28.5224L232.405 30.4065H232.864V32.8148H230.701V34.6006H233.388V37.0252H230.701V42.3989C231.668 42.3007 232.552 42.1859 233.388 42.0549L233.748 44.3648C231.225 44.8236 228.407 45.2168 225.327 45.5281L224.869 42.9395C226.032 42.8412 227.146 42.7593 228.194 42.661V37.0089H225.393V34.5842H228.194V32.7984H226.654V31.9792C226.523 32.1103 226.359 32.2577 226.212 32.3724L224.328 30.4884C225.262 29.6365 226.049 28.7846 226.638 27.9491C227.326 27.0152 227.884 26.0158 228.342 25.0164L230.767 25.7537L230.8 25.7373ZM227.933 40.9735L225.59 41.9566C225.311 40.7934 225 39.7285 224.607 38.811L226.769 37.828C227.228 38.7946 227.621 39.8267 227.933 40.9735ZM231.701 30.3901C230.914 29.7676 230.111 29.1942 229.341 28.6699C229.21 28.8993 229.063 29.1286 228.932 29.3088C228.686 29.702 228.424 30.0625 228.146 30.3901H231.701ZM234.109 38.0082C233.88 39.4827 233.634 40.6951 233.404 41.6781L231.078 40.9735C231.373 39.8103 231.602 38.6308 231.782 37.4676L234.109 38.0246V38.0082ZM235.895 27.5231V25.082H238.516V27.5231H240.678V25.082H243.267V27.5231H244.971V29.9313H243.267V31.8973H245.331V34.3384H233.667V31.8973H235.895V29.9313H234.289V27.5231H235.895ZM244.693 45.823H242.186V44.7417H236.976V45.823H234.469V35.1576H244.676V45.823H244.693ZM242.186 38.7291V37.4676H236.976V38.7291H242.186ZM242.186 42.3989V41.0718H236.976V42.3989H242.186ZM240.678 31.9137V29.9477H238.516V31.9137H240.678Z" fill="#595757"/>
<path d="M252.129 31.0128L250.31 33.2572C249.409 32.3234 248.492 31.5206 247.525 30.8162L249.311 28.9321C250.327 29.5219 251.26 30.21 252.112 30.9964L252.129 31.0128ZM252.751 34.3385V41.3177C253.702 42.0713 254.799 42.4809 256.061 42.5792C257.011 42.7594 259.321 42.8577 263.024 42.8577C265.137 42.8577 266.956 42.7267 268.447 42.399C267.972 43.3165 267.578 44.2831 267.299 45.3644H260.615C258.207 45.3644 256.274 45.1513 254.832 44.7909C253.8 44.496 252.784 43.9226 251.784 43.0543C250.965 43.9717 250.114 44.8892 249.278 45.8394C248.705 44.9056 248.132 44.021 247.558 43.2182C248.476 42.7595 249.376 42.3006 250.244 41.7928V36.8615H247.558V34.3549H252.767L252.751 34.3385ZM253.931 26.8187L252.145 29.0468C251.228 28.244 250.31 27.5559 249.344 26.9825L251.162 25.0984C252.178 25.6063 253.096 26.1798 253.947 26.8187H253.931ZM266.202 31.9957H267.529V39.4336C267.529 41.3668 266.562 42.3006 264.662 42.3006H263.613L263.138 40.0726H259.583V40.9736H257.338V34.8627H264.252V39.9579C264.384 39.9742 264.547 39.9743 264.695 39.9743C264.99 39.9743 265.153 39.5811 265.153 38.8111V34.2402H256.454V41.8584H254.046V31.9957H255.471V25.5408H266.235V31.9957H266.202ZM259.386 31.9957V28.7519H263.777V27.9491H257.879V31.9957H259.386ZM261.975 38.0083V36.927H259.566V38.0083H261.975ZM263.76 31.9957V30.8325H261.631V31.9957H263.76Z" fill="#595757"/>
<path d="M279.849 39.3679L278.98 37.8771C279.669 37.5986 280.291 37.1234 280.832 36.3862H279.161V33.1096H282.667V35.4032C282.667 37.0743 281.733 38.4013 279.849 39.3679Z" fill="#595757"/>
<path d="M45.7673 66.0068V72.7239C46.7503 73.3956 47.8973 73.7561 49.1915 73.8216C50.1581 74.0018 52.5171 74.0673 56.3015 74.0673C58.5296 74.0673 60.43 73.9363 61.9864 73.6086C61.5113 74.5261 61.1182 75.4927 60.8397 76.5739H53.8769C51.403 76.5739 49.4209 76.3937 47.93 76.0497C46.8487 75.7712 45.7999 75.2305 44.7678 74.4278C44.1288 75.2305 43.4572 76.0333 42.8183 76.8524C42.2285 75.8367 41.6226 74.9192 41 74.0837C41.7864 73.8052 42.507 73.5103 43.2443 73.1826V68.4971H41.18V65.9904H45.7509L45.7673 66.0068ZM45.4234 62.763L43.7194 64.8272C42.8675 63.9261 41.9991 63.1562 41.098 62.5172L42.8183 60.7314C43.7521 61.3212 44.6369 61.9929 45.407 62.7793L45.4234 62.763ZM46.8485 58.6508L45.243 60.6168C44.3747 59.7485 43.4738 58.9949 42.5563 58.3724L44.2602 56.5866C45.1941 57.1763 46.0785 57.8645 46.8485 58.6508ZM52.6809 57.9464C52.2222 58.6509 51.7145 59.3389 51.1738 59.9943C51.354 60.3875 51.534 60.7806 51.7306 61.1902C52.4187 63.0743 52.7793 65.2204 52.7793 67.6123C52.7793 69.8568 52.4844 71.4296 51.8782 72.3143C51.3212 73.0679 50.5184 73.4447 49.4699 73.4447C48.9948 73.4447 48.487 73.3301 47.93 73.1007L47.4876 70.5777C48.1757 70.8234 48.8474 70.9382 49.4535 70.9382C49.6337 70.9382 49.7812 70.807 49.8631 70.4794C49.9942 69.9715 50.0759 69.0049 50.0759 67.6123C50.0759 67.3338 50.0595 67.0881 50.0595 66.826C49.994 66.9243 49.9451 66.9898 49.8959 67.039C49.3061 67.7762 48.5359 68.4315 47.6512 69.0541L46.1441 66.7113C47.0124 66.1543 47.7987 65.5154 48.4868 64.8109C48.9455 64.3358 49.3387 63.8278 49.6991 63.3036C49.6008 62.8449 49.4862 62.4353 49.3715 62.0258C48.8473 62.5828 48.2902 63.107 47.7332 63.6149L45.8493 61.7309C46.6685 61.0428 47.4547 60.3383 48.1428 59.6011C47.7496 59.0441 47.3236 58.5525 46.8321 58.1266L48.618 56.5211C49.0276 56.9143 49.4207 57.3237 49.7647 57.7661C50.0432 57.4384 50.2725 57.1272 50.5019 56.7995L52.6645 57.9628L52.6809 57.9464ZM61.0201 56.7667V59.2734H58.333V63.1234H60.7741V65.63H58.333V70.2173H61.2985V72.7239H52.9593V70.2173H55.7448V65.63H53.5001V63.1234H55.7448V59.2734H53.2381V56.7667H61.0201Z" fill="#595757"/>
<path d="M68.7029 66.0068V72.7239C69.6859 73.3956 70.8328 73.7561 72.1271 73.8216C73.0937 74.0018 75.4526 74.0673 79.2371 74.0673C81.4652 74.0673 83.3656 73.9363 84.922 73.6086C84.4469 74.5261 84.0538 75.4927 83.7752 76.5739H76.8124C74.3386 76.5739 72.3564 76.3937 70.8656 76.0497C69.7843 75.7712 68.7355 75.2305 67.7033 74.4278C67.0644 75.2305 66.3928 76.0333 65.7538 76.8524C65.1641 75.8367 64.5581 74.9192 63.9355 74.0837C64.7219 73.8052 65.4426 73.5103 66.1798 73.1826V68.4971H64.1155V65.9904H68.6865L68.7029 66.0068ZM68.3589 62.763L66.655 64.8272C65.8031 63.9261 64.9346 63.1562 64.0335 62.5172L65.7538 60.7314C66.6877 61.3212 67.5725 61.9929 68.3425 62.7793L68.3589 62.763ZM69.784 58.6508L68.1785 60.6168C67.3102 59.7485 66.4093 58.9949 65.4919 58.3724L67.1958 56.5866C68.1296 57.1763 69.014 57.8645 69.784 58.6508ZM75.6165 57.9464C75.1578 58.6509 74.65 59.3389 74.1094 59.9943C74.2896 60.3875 74.4696 60.7806 74.6661 61.1902C75.3542 63.0743 75.7149 65.2204 75.7149 67.6123C75.7149 69.8568 75.4199 71.4296 74.8137 72.3143C74.2567 73.0679 73.454 73.4447 72.4055 73.4447C71.9304 73.4447 71.4226 73.3301 70.8656 73.1007L70.4232 70.5777C71.1113 70.8234 71.7829 70.9382 72.3891 70.9382C72.5693 70.9382 72.7167 70.807 72.7987 70.4794C72.9297 69.9715 73.0114 69.0049 73.0114 67.6123C73.0114 67.3338 72.995 67.0881 72.995 66.826C72.9295 66.9243 72.8806 66.9898 72.8315 67.039C72.2417 67.7762 71.4715 68.4315 70.5868 69.0541L69.0797 66.7113C69.948 66.1543 70.7342 65.5154 71.4223 64.8109C71.8811 64.3358 72.2742 63.8278 72.6347 63.3036C72.5364 62.8449 72.4218 62.4353 72.3071 62.0258C71.7828 62.5828 71.2258 63.107 70.6688 63.6149L68.7849 61.7309C69.604 61.0428 70.3903 60.3383 71.0783 59.6011C70.6852 59.0441 70.2591 58.5525 69.7676 58.1266L71.5535 56.5211C71.9631 56.9143 72.3562 57.3237 72.7003 57.7661C72.9788 57.4384 73.2081 57.1272 73.4374 56.7995L75.6001 57.9628L75.6165 57.9464ZM83.9556 56.7667V59.2734H81.2686V63.1234H83.7096V65.63H81.2686V70.2173H84.234V72.7239H75.8949V70.2173H78.6803V65.63H76.4356V63.1234H78.6803V59.2734H76.1737V56.7667H83.9556Z" fill="#595757"/>
<path d="M98.6518 69.8569C97.6852 68.1039 96.1451 66.4656 94.0645 64.8929L95.834 63.3528C97.7999 64.8273 99.3889 66.4328 100.585 68.2186L98.6518 69.8569Z" fill="#595757"/>
<path d="M122.472 58.5691V56.2262H124.995V58.5691H126.994C126.634 58.2905 126.306 58.0611 125.978 57.8645L127.584 56.1443C128.403 56.5375 129.14 56.9962 129.812 57.5041L128.911 58.5854H130.451V60.9937H124.995V61.9767H129.91V73.5431C129.91 75.6238 128.976 76.6887 127.141 76.6887C126.748 76.6887 126.322 76.6231 125.814 76.5085L125.257 73.8217C125.945 74.0674 126.568 74.1821 127.141 74.1821C127.321 74.1821 127.42 73.7725 127.42 72.9206V72.5602H125.011V76.4102H122.489V72.5602H120.26V76.8689H117.737V65.6302C117.295 66.3674 116.869 66.9572 116.459 67.4487C116.869 67.891 117.279 68.3006 117.655 68.7102L116.23 70.6761C115.657 69.8569 115.083 69.1197 114.526 68.4808V76.9672H112.184V69.3654C111.938 69.6931 111.708 69.9553 111.479 70.2338L109.693 68.6119C111.479 66.5476 112.921 64.2048 114.068 61.6327H109.939V59.1096H112.184V56.2426H114.772V59.1096H116.755V61.092C116.198 62.7139 115.509 64.2867 114.641 65.7775C114.756 65.8758 114.87 65.9905 114.985 66.0724C115.444 65.5646 115.804 65.0239 116.132 64.4177L117.737 65.2206V61.9767H122.489V60.9937H117.295V58.5854H122.489L122.472 58.5691ZM122.472 66.0888V64.4833H120.244V66.0888H122.472ZM122.472 70.1355V68.4972H120.244V70.1355H122.472ZM124.995 66.0888H127.404V64.4833H124.995V66.0888ZM124.995 70.1355H127.404V68.4972H124.995V70.1355Z" fill="#595757"/>
<path d="M135.481 70.0372C135.154 72.2161 134.859 74.0346 134.58 75.4927L132.336 74.8701C132.696 73.0844 133.007 71.2659 133.22 69.4801L135.465 70.0372H135.481ZM139.397 57.3075C138.381 58.913 137.431 60.2893 136.53 61.4361C136.808 61.6163 137.054 61.7801 137.332 61.9111C138.07 60.9609 138.725 60.027 139.331 59.0932L141.74 60.1745C140.134 62.288 138.594 64.1393 137.152 65.7448C137.841 65.6957 138.479 65.6301 139.086 65.5645C138.987 65.2041 138.873 64.8273 138.791 64.4833L140.953 63.8443C141.363 65.1714 141.707 66.6459 141.936 68.2514L139.692 68.9559C139.643 68.4971 139.577 68.0548 139.512 67.6452C139.102 67.7108 138.692 67.7763 138.266 67.8254V76.9344H135.924V68.1203C135.006 68.235 134.089 68.3333 133.155 68.4152L132.696 66.0724C133.057 66.056 133.45 66.0233 133.827 66.0069C134.515 65.3024 135.137 64.6143 135.727 63.9262C134.678 63.2218 133.614 62.4845 132.532 61.6982L133.958 59.8797C134.154 60.0107 134.351 60.1253 134.531 60.2236C135.498 58.8966 136.317 57.5369 137.005 56.2099L139.413 57.2911L139.397 57.3075ZM141.74 74.0838L139.495 74.608C139.364 72.8714 139.086 71.2167 138.692 69.6767L140.855 69.1524C141.297 70.7744 141.592 72.4291 141.756 74.0838H141.74ZM148.997 56.8651C148.817 57.2092 148.653 57.5369 148.489 57.8482C149.309 58.8148 150.161 59.6667 151.029 60.3875C152.11 61.305 153.159 62.0422 154.191 62.5828L152.749 65.0895C152.422 64.9093 152.127 64.7291 151.848 64.4997V65.712H143.181V64.3194C142.854 64.5652 142.559 64.7946 142.264 65.0076L140.478 63.2218C141.904 62.1405 143.05 61.0428 143.935 59.9124C144.967 58.7164 145.819 57.4549 146.491 56.1279L148.997 56.8651ZM152.602 76.9508H149.98V75.8696H145.229V76.9508H142.641V67.4486H152.602V76.9508ZM150.259 63.2218C150.03 63.0416 149.816 62.8286 149.62 62.632C148.751 61.8129 147.916 60.9282 147.162 60.0108C146.867 60.4695 146.556 60.879 146.245 61.2722C145.688 61.9767 145.115 62.632 144.476 63.2218H150.259ZM149.98 73.5268V69.8569H145.229V73.5268H149.98Z" fill="#595757"/>
<path d="M175.62 64.4834V67.1702H156.533V64.4834H175.62Z" fill="#595757"/>
<path d="M199.276 57.4878V60.0763H189.774V63.2383C192.674 64.598 195.393 66.1708 197.916 67.9566L196.131 70.4632C194.066 68.9559 191.953 67.6453 189.774 66.5149V76.8362H187.005V60.0599H178.83V57.4714H199.276V57.4878Z" fill="#595757"/>
<path d="M211.041 70.4958L210.172 69.005C210.86 68.7264 211.482 68.2513 212.023 67.514H210.353V64.2374H213.858V66.5311C213.858 68.2022 212.925 69.5292 211.041 70.4958Z" fill="#595757"/>
<path d="M229.913 56.685C229.815 56.9798 229.732 57.2583 229.634 57.4877H234.844V59.765C235.204 59.3063 235.532 58.7983 235.81 58.2741C236.269 57.4549 236.629 56.685 236.892 55.9805L239.415 56.685C239.316 56.9635 239.235 57.242 239.136 57.4877H245.149V59.8305H241.774C242.052 60.1745 242.298 60.5022 242.56 60.8135L240.463 62.0587H244.428V71.1184C244.428 73.2155 243.461 74.2476 241.561 74.2476H239.841L239.316 71.5608C240.135 71.6919 240.873 71.741 241.561 71.741C241.79 71.741 241.905 71.3314 241.905 70.4795V64.4833H238.858V76.8525H236.351V62.0587H236.416L234.287 60.453C234.467 60.2728 234.631 60.0598 234.795 59.8305H232.272C232.501 60.1909 232.73 60.535 232.96 60.879L231.01 62.0423H234.942V70.9219H228.225V73.3465C229.421 73.2155 230.552 73.068 231.551 72.9369C231.42 72.7567 231.305 72.5438 231.158 72.3472L233.32 71.0202C234.237 72.298 234.975 73.6742 235.564 75.1487L233.32 76.4757C233.14 76.0006 232.96 75.5419 232.747 75.0995C230.388 75.5419 227.832 75.9023 225.079 76.1972L224.621 73.6906C224.982 73.6742 225.358 73.6415 225.702 73.5923V62.0259H226.161L224.621 60.8626C225.244 60.1745 225.784 59.3882 226.259 58.4708C226.767 57.5697 227.127 56.7341 227.406 55.9477L229.929 56.6522L229.913 56.685ZM230.617 62.0587C230.273 61.3214 229.88 60.5677 229.454 59.8305H228.602C228.192 60.6824 227.733 61.4197 227.275 62.0587H230.617ZM232.403 65.3844V64.3031H228.209V65.3844H232.403ZM232.403 68.6774V67.5141H228.209V68.6774H232.403ZM240.251 62.0587C239.808 61.305 239.349 60.5677 238.891 59.8305H238.072C237.596 60.6988 237.104 61.4361 236.596 62.0587H240.251Z" fill="#595757"/>
<path d="M255.666 57.4877C255.781 57.029 255.88 56.5866 255.962 56.1279L258.485 56.4883C258.419 56.8488 258.354 57.1764 258.272 57.4713H266.709V59.7158H257.616C257.518 59.9943 257.42 60.2729 257.321 60.5186H266.086V62.6811H261.908C262.187 63.0415 262.433 63.3856 262.712 63.6641H267.594V65.8922H265.119C266.135 66.6786 267.299 67.334 268.593 67.8582L267.266 70.4468C265.709 69.6604 264.284 68.661 262.957 67.3667V69.1033H258.649C258.632 69.4474 258.599 69.7423 258.583 70.0044H266.299V72.2489H260.844C261.286 72.5765 261.777 72.8715 262.351 73.1172C263.498 73.6742 265.054 74.1001 267.003 74.3786L265.644 77C263.596 76.5249 261.859 75.804 260.417 74.8701C259.402 74.2312 258.583 73.4776 257.944 72.5929C257.895 72.6585 257.878 72.7076 257.878 72.7239C257.239 73.8052 256.256 74.6736 254.913 75.3453C253.553 76.017 251.948 76.5577 250.063 77L248.802 74.7555C250.506 74.4115 251.898 74.0019 252.996 73.494C253.799 73.1336 254.438 72.7076 254.897 72.2489H249.408V70.0044H255.978C256.027 69.7259 256.076 69.431 256.093 69.1033H252.275V67.5141C251.178 68.4807 249.932 69.3327 248.605 70.0863L247.082 68.022C248.229 67.3339 249.26 66.5967 250.178 65.8594H247.704V63.6313H252.455C252.734 63.3037 253.012 62.9924 253.242 62.6484H249.408V60.4858H254.553C254.684 60.2073 254.798 59.9616 254.913 59.6831H248.786V57.4386H255.65L255.666 57.4877ZM262.432 66.8916C262.088 66.5639 261.794 66.2199 261.516 65.9086H254.012C253.684 66.2691 253.373 66.5967 253.045 66.8916H262.432ZM259.205 62.6975H256.306C256.109 63.0579 255.896 63.3857 255.716 63.6805H259.828C259.598 63.3529 259.386 63.0088 259.205 62.6975Z" fill="#595757"/>
<path d="M283.928 73.8873C283.928 75.8532 282.88 76.8526 280.816 76.8526C280.226 76.8526 279.571 76.7871 278.833 76.6724L278.277 74.0839C279.194 74.3132 280.013 74.4279 280.8 74.4279C281.258 74.4279 281.504 74.0347 281.504 73.2647V58.9295H273.148V76.6888H270.74V56.6031H283.912V73.9037L283.928 73.8873ZM276.867 61.7801L275.393 62.4191H277.473C277.883 61.4034 278.26 60.3549 278.555 59.2736L280.963 59.978C280.619 60.8955 280.275 61.7146 279.931 62.4027H281.241V64.5653H278.374V70.6435H278.997V65.7121H280.963V72.7077H275.688V73.5105H273.722V65.5482H275.688V70.6435H276.392V64.5653H273.427V62.4027H274.475C274.197 61.6655 273.869 60.9282 273.509 60.2401L275.573 59.2572C276.048 60.0108 276.474 60.8463 276.834 61.7637L276.867 61.7801ZM287.156 58.5691V71.8394H284.715V58.5691H287.156ZM290.744 56.2263V73.5269C290.744 74.7884 290.58 75.6075 290.269 76.0663C289.859 76.5741 289.171 76.8526 288.155 76.8526C287.254 76.8526 286.419 76.7216 285.632 76.4922L285.19 73.9037C286.058 74.1986 286.91 74.346 287.778 74.346C287.991 74.346 288.123 74.2477 288.221 74.0675C288.286 73.8381 288.335 73.4449 288.335 72.9206V56.2427H290.744V56.2263Z" fill="#595757"/>
<path d="M306.866 73.8873C306.866 75.8532 305.817 76.8526 303.753 76.8526C303.163 76.8526 302.508 76.7871 301.771 76.6724L301.214 74.0839C302.132 74.3132 302.951 74.4279 303.737 74.4279C304.196 74.4279 304.441 74.0347 304.441 73.2647V58.9295H296.086V76.6888H293.678V56.6031H306.85V73.9037L306.866 73.8873ZM299.805 61.7801L298.33 62.4191H300.411C300.821 61.4034 301.198 60.3549 301.492 59.2736L303.9 59.978C303.556 60.8955 303.212 61.7146 302.868 62.4027H304.179V64.5653H301.312V70.6435H301.935V65.7121H303.9V72.7077H298.625V73.5105H296.659V65.5482H298.625V70.6435H299.329V64.5653H296.365V62.4027H297.413C297.134 61.6655 296.807 60.9282 296.446 60.2401L298.51 59.2572C298.985 60.0108 299.411 60.8463 299.772 61.7637L299.805 61.7801ZM310.094 58.5691V71.8394H307.652V58.5691H310.094ZM313.681 56.2263V73.5269C313.681 74.7884 313.518 75.6075 313.206 76.0663C312.797 76.5741 312.109 76.8526 311.093 76.8526C310.192 76.8526 309.356 76.7216 308.57 76.4922L308.127 73.9037C308.996 74.1986 309.848 74.346 310.716 74.346C310.929 74.346 311.06 74.2477 311.158 74.0675C311.224 73.8381 311.273 73.4449 311.273 72.9206V56.2427H313.681V56.2263Z" fill="#595757"/>
<path d="M321.742 56.5868C321.578 57.6844 321.414 58.7493 321.267 59.7323H325.33C325.215 62.5502 324.871 65.1879 324.298 67.6453C324.069 68.5792 323.823 69.4147 323.544 70.1519C324.462 70.9711 325.363 71.8558 326.231 72.7241L324.445 74.7064C323.757 73.9201 323.085 73.2156 322.43 72.5439C322.299 72.7732 322.135 73.0026 321.988 73.1828C320.972 74.6573 319.76 75.886 318.334 76.9509L316.909 74.9849C318.121 74.0675 319.154 72.9862 319.989 71.7247C320.17 71.479 320.382 71.1677 320.562 70.8565C320.103 70.496 319.645 70.1191 319.203 69.7587C319.088 70.1683 318.973 70.5452 318.875 70.8565L316.434 70.3322C317.172 67.7928 317.794 65.0569 318.318 62.157H316.336V59.7487H318.728C318.908 58.6019 319.072 57.4223 319.203 56.2427L321.726 56.6032L321.742 56.5868ZM321.972 67.3833C322.381 65.6139 322.676 63.8773 322.824 62.157H320.841C320.497 64.0575 320.153 65.7613 319.809 67.2686C320.398 67.7109 321.005 68.1368 321.578 68.5464C321.709 68.186 321.824 67.7928 321.972 67.3833ZM336.52 56.8652V59.1753C335.422 60.9938 334.128 62.5502 332.669 63.8609V65.2862H337.076V67.7928H332.669V73.9037C332.669 75.0505 332.424 75.8041 331.916 76.1482C331.359 76.5577 330.425 76.7707 329.098 76.7707C328.394 76.7707 327.722 76.7052 327.115 76.5905L326.674 73.8218C327.46 74.1167 328.262 74.2641 329.082 74.2641C329.36 74.2641 329.606 74.215 329.835 74.1331C329.966 74.002 330.065 73.6907 330.065 73.2811V67.8255H325.215V65.319H330.065V61.813L331.114 61.8785C331.916 61.174 332.669 60.3384 333.357 59.4046H325.919V56.898H336.504L336.52 56.8652Z" fill="#595757"/>
<path d="M351.771 68.71C351.181 69.2998 350.444 69.6111 349.609 69.6111C348.773 69.6111 348.052 69.3162 347.446 68.71C346.839 68.1202 346.545 67.3994 346.545 66.5475C346.545 65.6955 346.839 64.991 347.446 64.3849C348.035 63.7951 348.757 63.4838 349.609 63.4838C350.461 63.4838 351.165 63.7787 351.771 64.3849C352.361 64.9747 352.672 65.7119 352.672 66.5475C352.672 67.383 352.377 68.1039 351.771 68.71ZM350.346 65.8102C350.133 65.5972 349.887 65.4825 349.609 65.4825C349.314 65.4825 349.051 65.5972 348.871 65.8102C348.642 66.0232 348.543 66.2689 348.543 66.5475C348.543 66.8424 348.642 67.1044 348.871 67.2846C349.051 67.514 349.314 67.6123 349.609 67.6123C349.887 67.6123 350.133 67.514 350.346 67.2846C350.558 67.1044 350.673 66.8424 350.673 66.5475C350.673 66.2689 350.558 66.0232 350.346 65.8102Z" fill="#595757"/>
<defs>
<linearGradient id="paint0_linear_86_66330" x1="239.992" y1="222.453" x2="239.992" y2="390.71" gradientUnits="userSpaceOnUse">
<stop stop-color="white"/>
<stop offset="1" stop-color="white" stop-opacity="0.6"/>
</linearGradient>
<linearGradient id="paint1_linear_86_66330" x1="111.174" y1="48.2761" x2="-98.1124" y2="435.304" gradientUnits="userSpaceOnUse">
<stop stop-color="white"/>
<stop offset="0.1" stop-color="#F1F1F1"/>
<stop offset="0.29" stop-color="#CDCDCD"/>
<stop offset="0.55" stop-color="#939292"/>
<stop offset="0.87" stop-color="#444243"/>
<stop offset="1" stop-color="#221F20"/>
</linearGradient>
<linearGradient id="paint2_linear_86_66330" x1="251.107" y1="64.9004" x2="60.0341" y2="418.252" gradientUnits="userSpaceOnUse">
<stop stop-color="white"/>
<stop offset="0.1" stop-color="#F1F1F1"/>
<stop offset="0.29" stop-color="#CDCDCD"/>
<stop offset="0.55" stop-color="#939292"/>
<stop offset="0.87" stop-color="#444243"/>
<stop offset="1" stop-color="#221F20"/>
</linearGradient>
<linearGradient id="paint3_linear_86_66330" x1="119.406" y1="63.3529" x2="119.406" y2="246.561" gradientUnits="userSpaceOnUse">
<stop stop-color="white"/>
<stop offset="0.27" stop-color="#F4BD7B"/>
<stop offset="1" stop-color="#040000"/>
</linearGradient>
</defs>
</svg>
