<svg width="480" height="454" viewBox="0 0 480 454" fill="none" xmlns="http://www.w3.org/2000/svg">
<path opacity="0.8" d="M436.87 0H43.1304C19.3101 0 0 19.2976 0 43.1024V410.898C0 434.702 19.3101 454 43.1304 454H436.87C460.69 454 480 434.702 480 410.898V43.1024C480 19.2976 460.69 0 436.87 0Z" fill="url(#paint0_linear_20_204365)"/>
<mask id="mask0_20_204365" style="mask-type:luminance" maskUnits="userSpaceOnUse" x="17" y="99" width="446" height="340">
<path d="M17.5962 99.6064V398.859C17.5962 420.829 35.5801 438.801 57.5639 438.801H422.451C444.435 438.801 462.419 420.829 462.419 398.859V99.6064H17.5962Z" fill="white"/>
</mask>
<g mask="url(#mask0_20_204365)">
<path d="M689.017 -358.825C916.963 -250.883 833.136 249.86 480 511.898C126.864 773.937 -463.721 799.857 -628.305 596.662C-792.889 393.468 -305.788 375.542 -128.476 188.182C48.8512 0.821147 248.178 -567.597 689.001 -358.825H689.017Z" fill="#FDE9E4"/>
<path d="M148.197 98.1965L422.87 306.318C426.87 309.339 429.645 313.383 431.087 317.814C433.149 324.058 432.591 331.061 429.18 337.041C428.669 337.94 428.095 338.823 427.444 339.659L294.518 514.873C293.929 515.648 293.309 516.36 292.657 517.042C287.867 522.016 281.293 524.494 274.72 524.278C269.976 524.123 265.216 522.542 261.155 519.459L-13.5187 311.338C-17.6426 308.208 -20.4642 303.994 -21.8905 299.408C-23.3633 294.651 -23.3168 289.492 -21.6735 284.689C-20.8828 282.35 -19.689 280.088 -18.1077 277.996L114.818 102.782C116.446 100.629 118.384 98.8162 120.523 97.3908C124.74 94.5556 129.733 93.1922 134.725 93.3781C139.438 93.5485 144.166 95.1133 148.213 98.181L148.197 98.1965Z" fill="#7C546D"/>
<path d="M118.841 120.868L0.37792 277.005C-6.70415 286.34 -4.87339 299.644 4.46705 306.722L260.796 500.948C270.137 508.026 283.45 506.196 290.532 496.862L408.994 340.725C416.077 331.39 414.246 318.086 404.905 311.008L148.576 116.782C139.236 109.704 125.923 111.534 118.841 120.868Z" fill="#643D58"/>
<path d="M10.6204 243.152L-3.84426 232.198C-6.27829 230.354 -7.85961 227.658 -8.2782 224.622C-8.6968 221.585 -7.90613 218.579 -6.06123 216.131L58.4638 131.073C60.3087 128.641 63.0063 127.06 66.045 126.642C69.0836 126.224 72.0913 127.014 74.5409 128.858L89.0055 139.811L10.6204 243.121V243.152ZM65.5333 131.538C64.2156 131.956 63.0528 132.777 62.1847 133.908L-2.34043 218.967C-3.44117 220.408 -3.90624 222.205 -3.65818 224.002C-3.41013 225.799 -2.47995 227.395 -1.02264 228.495L9.72119 236.629L82.4631 140.741L71.7192 132.607C70.2774 131.507 68.479 131.042 66.6806 131.29C66.293 131.337 65.9054 131.43 65.5333 131.553V131.538Z" fill="#42312F"/>
<path d="M-2.66628 261.496L-111.795 178.824C-116.104 175.555 -116.957 169.404 -113.686 165.097L-19.782 41.3207C-18.2007 39.2291 -15.8906 37.8967 -13.3016 37.5248C-10.7125 37.1685 -8.12346 37.8502 -6.04601 39.4305L103.082 122.103L-2.6818 261.496H-2.66628ZM-13.5342 42.3278C-14.5419 42.6531 -15.41 43.2574 -16.0612 44.125L-109.965 167.901C-110.802 169.001 -111.143 170.349 -110.957 171.712C-110.771 173.076 -110.058 174.284 -108.973 175.105L-3.56546 254.973L96.5553 123.001L-8.85211 43.1334C-9.95285 42.2968 -11.3016 41.9559 -12.6659 42.1419C-12.9605 42.1883 -13.2551 42.2503 -13.5342 42.3433V42.3278Z" fill="#42312F"/>
<path d="M429.506 364.418L421.119 375.464C418.964 378.315 415.072 379.229 411.863 377.634L402.375 372.908L421.971 347.081L429.087 354.936C431.49 357.585 431.661 361.567 429.506 364.418Z" fill="#42312F"/>
<path d="M316.548 -123.729L591.221 84.3921C595.221 87.4133 597.996 91.4571 599.438 95.8882C601.5 102.132 600.942 109.135 597.531 115.115C597.02 116.014 596.446 116.897 595.795 117.734L462.869 292.947C462.28 293.722 461.66 294.435 461.009 295.116C456.218 300.09 449.645 302.569 443.071 302.352C438.327 302.197 433.568 300.617 429.506 297.533L154.832 89.412C150.709 86.2823 147.887 82.0682 146.461 77.4821C144.988 72.7257 145.034 67.5664 146.678 62.7635C147.468 60.424 148.662 58.162 150.243 56.0704L283.169 -119.143C284.797 -121.297 286.735 -123.11 288.859 -124.535C293.076 -127.37 298.068 -128.734 303.06 -128.548C307.773 -128.377 312.502 -126.812 316.548 -123.745V-123.729Z" fill="#7C546D"/>
<path d="M577.346 118.772L458.885 274.913C451.8 284.255 438.482 286.084 429.149 279.003L172.816 84.7792C163.468 77.6988 161.638 64.3901 168.723 55.0631L287.185 -101.078C294.27 -110.421 307.587 -112.249 316.92 -105.169L573.253 89.0554C582.602 96.1358 584.431 109.445 577.346 118.772Z" fill="#643D58"/>
<path d="M190.521 113.749L181.239 125.984C179.826 127.845 180.192 130.498 182.054 131.909L209.578 152.765C211.441 154.177 214.096 153.812 215.508 151.95L224.791 139.716C226.203 137.854 225.838 135.201 223.975 133.79L196.451 112.934C194.588 111.523 191.934 111.888 190.521 113.749Z" fill="#42312F"/>
<path d="M368.018 248.249L358.735 260.484C357.323 262.346 357.688 264.999 359.551 266.41L387.075 287.266C388.938 288.677 391.593 288.312 393.005 286.451L402.287 274.216C403.7 272.355 403.335 269.702 401.472 268.29L373.948 247.435C372.085 246.023 369.43 246.388 368.018 248.249Z" fill="#42312F"/>
<path d="M59.6882 144.738L7.4263 213.622C5.02328 216.798 0.49628 217.417 -2.66641 215.016C-5.8446 212.614 -6.46473 208.09 -4.0617 204.93L48.2002 136.047C50.6032 132.87 55.1302 132.251 58.2929 134.652C61.4711 137.054 62.0912 141.578 59.6882 144.738Z" fill="#7C546D"/>
<path opacity="0.5" d="M458.822 247.784C458.822 247.784 452.063 261.248 446.466 262.937C440.854 264.626 433.35 263.944 425.924 254.787C418.498 245.631 423.366 231.997 431.009 232.167C438.653 232.322 458.838 247.784 458.838 247.784H458.822Z" fill="#B0C3DF"/>
<path d="M429.118 227.395L414.173 217.727C409.847 208.788 380.608 193.279 380.608 193.279C380.608 193.279 368.314 208.571 369.368 216.1C370.407 223.646 375.275 232.167 390.142 235.994C401.119 238.814 411.366 232.368 414.219 225.211L421.971 230.85C416.917 236.567 415.521 248.234 422.513 256.848C432.172 268.762 441.955 269.645 449.257 267.445C456.559 265.261 465.334 247.722 465.334 247.722C465.334 247.722 439.055 227.612 429.118 227.395ZM390.576 232.043C379.166 229.099 375.414 222.561 374.608 216.751C373.817 210.957 383.259 199.213 383.259 199.213C383.259 199.213 405.723 211.127 409.056 217.991C412.39 224.87 402.002 234.971 390.576 232.028V232.043ZM446.466 262.937C440.854 264.625 433.35 263.944 425.924 254.787C418.498 245.631 423.366 231.997 431.009 232.167C438.652 232.322 458.838 247.784 458.838 247.784C458.838 247.784 452.078 261.248 446.482 262.937H446.466Z" fill="#9D635B"/>
<path opacity="0.5" d="M390.577 232.043C379.166 229.099 375.414 222.561 374.608 216.751C373.817 210.957 383.259 199.213 383.259 199.213C383.259 199.213 405.723 211.127 409.057 217.991C412.39 224.87 402.003 234.971 390.577 232.028V232.043Z" fill="#B0C3DF"/>
<path d="M369.182 200.111C365.957 202.714 363.43 204.217 362.128 204.093C355.523 203.458 281.355 143.344 263.154 127.339C260.829 125.294 259.418 123.977 259.186 123.575C259.186 123.575 302.719 72.6481 304.626 68.9452C306.533 65.2423 407.398 139.207 411.646 146.086C415.149 151.757 384.313 187.934 369.182 200.096V200.111Z" fill="#FCE1CB"/>
<path d="M389.073 344.091C383.228 345.175 374.329 331.789 363.74 322.803C353.152 313.817 311.804 288.361 309.789 282.056L312.192 278.585L316.672 272.14C316.672 272.14 317.416 270.823 318.564 268.979C320.145 266.485 322.501 263.045 324.78 260.752C326.098 259.435 327.385 258.49 328.486 258.335C332.92 257.685 352.485 275.409 358.702 280.382C362.407 283.341 378.593 294.605 391.817 303.762C400.824 310.005 408.468 315.273 409.816 316.249C413.181 318.666 394.887 343.006 389.057 344.091H389.073Z" fill="#BA987F"/>
<path d="M391.832 303.762C377.678 304.614 363.151 308.642 350.609 302.538C341.85 298.277 335.788 289.725 327.121 285.294C323.292 283.341 315.153 282.04 312.207 278.585L316.688 272.14C316.688 272.14 317.432 270.823 318.579 268.979L342.222 283.171C340.516 277.051 337.059 271.427 332.346 267.166C329.912 264.951 327.121 263.076 324.811 260.752C326.129 259.435 327.416 258.49 328.517 258.335C332.951 257.685 352.516 275.409 358.733 280.382C362.438 283.341 378.624 294.605 391.848 303.762H391.832Z" fill="#DABBA0"/>
<path d="M231.667 376.425C231.791 380.314 222.101 391.795 215.636 397.883C213.187 400.176 211.202 401.695 210.381 401.757C207.357 401.943 186.366 387.007 179.684 380.624C174.103 375.294 135.236 338.916 121.856 325.638C119.252 323.051 117.608 321.347 117.376 320.913C115.732 317.923 135.825 305.512 137.096 304.087C138.352 302.646 142.646 298.881 145.406 302.119C148.15 305.357 195.094 344.06 204.536 351.853C213.977 359.661 231.527 371.064 231.682 376.425H231.667Z" fill="#CC8639"/>
<path opacity="0.5" d="M210.598 383.66C210.629 387.193 212.768 390.292 214.288 393.483C214.923 394.831 215.435 396.365 215.636 397.883C213.187 400.176 211.202 401.695 210.381 401.757C207.358 401.943 186.366 387.007 179.684 380.624C174.103 375.294 135.236 338.916 121.856 325.638C122.57 319.348 135.391 324.585 140.011 323.175C142.476 322.431 144.46 320.169 147.034 320.169C149.142 320.169 150.894 321.718 152.445 323.175C167.219 336.948 183.017 349.637 199.668 361.071C205.389 365.007 211.9 370.057 211.574 376.983C211.466 379.229 210.613 381.414 210.629 383.676L210.598 383.66Z" fill="#EFB453"/>
<path d="M387.151 347.793C387.802 349.838 385.027 353.51 381.523 356.702C379.027 358.98 376.159 361.009 373.911 362.047C372.484 362.698 370.717 364.604 368.826 367.083C365.958 370.863 362.795 376.007 360.19 380.329C357.973 383.97 356.128 387.007 355.183 388.107C353.741 389.749 348.315 386.434 341.896 381.212C335.726 376.177 328.672 369.36 323.385 363.473C312.595 351.465 275.774 331.696 276.131 326.769C276.41 322.818 289.898 306.938 294.146 303.266C298.378 299.594 302.022 289.167 307.866 288.098C313.711 287.013 386.05 344.292 387.182 347.809L387.151 347.793Z" fill="#756A3A"/>
<path d="M335.09 352.101C342.299 362.45 350.733 371.947 360.175 380.314C357.958 383.955 356.113 386.991 355.167 388.092C353.725 389.734 348.299 386.418 341.881 381.197C341.416 379.849 340.935 378.532 340.392 377.246C335.292 365.332 324.563 356.919 314.254 349.064C307.711 344.075 309.029 341.379 300.952 339.783C296.27 338.869 282.549 335.352 290.642 329C295.867 324.91 298.673 330.116 303.789 332.114C308.486 333.942 313.168 335.786 317.866 337.614C320.827 338.776 323.819 339.938 326.377 341.829C330.005 344.493 332.517 348.398 335.09 352.101Z" fill="#868243"/>
<path d="M381.523 356.702C379.027 358.98 376.159 361.009 373.911 362.047C372.485 362.698 370.717 364.604 368.826 367.083C357.555 354.843 341.834 346.368 332.796 332.269C343.757 331.123 356.16 332.052 363.725 340.062C366.02 342.495 367.709 345.438 369.957 347.902C373.167 351.434 377.477 354.006 381.523 356.718V356.702Z" fill="#868243"/>
<path d="M276.27 315.118C271.108 318.31 267.48 328.721 261.635 329.821C255.79 330.906 226.644 300.028 219.714 295.287C212.784 290.53 175.126 260.086 173.653 257.437C171.824 254.152 177.452 252.37 177.452 252.37C177.452 252.37 186.087 233.407 189.126 233.205C190.118 233.143 192.537 234.739 195.637 237.14C202.102 242.098 211.559 250.449 217.481 254.291C225.667 259.621 276.968 296.418 284.782 302.754C285.324 303.204 285.665 303.498 285.758 303.622C287.138 305.497 281.448 311.942 276.286 315.134L276.27 315.118Z" fill="#BC5D59"/>
<path d="M284.782 302.739C284.782 302.739 284.75 302.832 284.735 302.894C283.65 305.621 279.603 304.753 276.875 303.622C271.945 301.562 266.689 300.291 261.371 299.857C253.806 299.238 246.194 300.307 238.628 299.764C231.062 299.222 223.094 296.697 218.582 290.608C214.536 285.154 213.947 277.857 210.474 272.016C208.396 268.545 205.358 265.679 203.621 262.038C202.521 259.714 201.978 257.173 201.389 254.663C200.024 248.791 197.544 242.966 195.622 237.125C202.086 242.083 211.543 250.434 217.466 254.276C225.652 259.606 276.952 296.402 284.766 302.739H284.782Z" fill="#E06257"/>
<path d="M258.147 339.35C257.511 340.357 256.674 341.426 255.651 342.541C255.123 343.115 254.441 344.029 253.651 345.191C252.565 346.787 251.279 348.832 249.852 351.063C247.821 354.27 245.527 357.895 243.217 361.18C239.558 366.401 235.868 370.77 233.14 371.328C226.613 372.629 212.505 347.778 203.73 342.077C194.955 336.375 149.577 297.998 147.313 293.614C146.491 292.002 147.267 290.267 148.538 288.547C150.445 285.991 153.499 283.45 154.228 281.374C154.941 279.313 157.933 274.061 161.22 270.157C163.452 267.492 165.824 265.462 167.716 265.493C172.367 265.555 187.343 278.554 198.893 285.681C210.443 292.823 254.441 329.016 257.666 331.851C260.069 333.974 260.007 336.437 258.162 339.35H258.147Z" fill="#BA987F"/>
<path d="M185.39 295.752C179.762 295.411 174.134 295.054 168.506 294.714C164.925 294.497 161.282 294.264 157.871 293.102C155.096 292.157 151.406 290.67 148.538 288.547C150.445 285.991 153.499 283.45 154.228 281.374C154.941 279.313 157.933 274.061 161.22 270.157C165.731 272.76 170.15 275.533 174.072 278.91C179.281 283.388 183.653 289.105 185.39 295.752Z" fill="#DABBA0"/>
<path d="M240.333 335.136C243.279 340.589 245.697 346.57 249.852 351.063C247.821 354.27 245.527 357.895 243.217 361.18C242.829 360.56 242.473 359.909 242.069 359.321C236.969 351.512 234.209 343.672 232.085 334.609C231.946 334.02 231.806 333.416 231.899 332.812C232.178 330.89 234.767 330.069 236.55 330.859C238.333 331.65 239.418 333.431 240.349 335.136H240.333Z" fill="#DABBA0"/>
<path d="M258.147 339.35C257.511 340.357 256.674 341.426 255.651 342.541C255.124 343.115 254.441 344.029 253.651 345.191C252.349 341.255 250.783 337.429 248.969 333.71C251.046 332.409 253.589 334.361 255.232 336.174C256.209 337.227 257.186 338.296 258.147 339.365V339.35Z" fill="#DABBA0"/>
<path d="M318.098 443.914C318.486 449.956 294.409 473.847 290.363 480.54C286.316 487.233 281.526 496.482 273.883 494.282C266.224 492.082 203.823 439.359 203.823 439.359C202.102 438.29 201.652 436.26 201.947 433.843C202.645 428.157 207.404 420.287 209.234 417.544C210.675 415.375 215.047 405.49 220.086 397C224.194 390.059 228.752 384.032 232.52 383.877C236.334 383.722 246.426 390.803 257.124 399.045C269.976 408.945 283.681 420.534 288.347 423.261C292.502 425.694 299.541 429.195 305.727 432.852C312.3 436.74 317.912 440.8 318.114 443.914H318.098Z" fill="#A44746"/>
<path d="M237.962 452.032C238.349 453.504 238.644 455.27 237.621 456.401C236.008 458.183 233.109 456.665 231.295 455.084C222.133 447.136 213.11 438.383 201.963 433.859C202.661 428.173 207.42 420.302 209.249 417.56C210.691 415.391 215.063 405.506 220.102 397.016C221.73 408.388 225.373 418.009 230.086 428.932C233.311 436.415 235.946 444.146 237.993 452.032H237.962Z" fill="#BC5D59"/>
<path d="M305.712 432.867C305.712 433.642 305.711 434.416 305.665 435.191C305.541 437.531 305.2 439.901 304.254 442.055C301.2 448.98 292.379 452.792 291.278 460.275C290.968 462.366 291.324 464.551 290.797 466.596C290.255 468.657 288.239 470.609 286.224 469.974C285.216 469.664 284.503 468.796 283.883 467.944C279.821 462.273 278.007 455.348 275.991 448.655C272.131 435.873 267.232 423.463 261.992 411.177C260.333 407.288 258.845 403.058 257.108 399.061C269.961 408.961 283.666 420.55 288.332 423.277C292.487 425.709 299.526 429.211 305.712 432.867Z" fill="#BC5D59"/>
<path d="M338.315 412.773C332.408 418.521 324.703 437.965 319.819 437.19C314.936 436.415 283.107 414.12 272.503 405.134C261.914 396.148 239.962 383.056 238.628 378.842C237.667 375.852 239.62 371.808 242.613 367.749C247.357 361.304 254.69 354.766 257.155 352.101C260.519 348.429 265.31 337.258 269.914 333.648C270.813 332.967 271.681 332.548 272.55 332.517C277.898 332.347 340.346 382.762 346.78 388.433C353.229 394.103 344.206 407.025 338.315 412.757V412.773Z" fill="#B0C3DF"/>
<path opacity="0.5" d="M338.315 412.773C332.408 418.521 324.703 437.965 319.819 437.19C314.936 436.415 283.107 414.12 272.503 405.134C261.914 396.148 239.962 383.056 238.628 378.842C237.667 375.852 239.62 371.808 242.613 367.749C245.031 369.996 246.178 375.248 250.194 378.315C267.185 391.376 284.162 404.437 301.153 417.482C308.006 422.766 317.153 428.25 324.672 423.959C325.091 420.628 325.525 417.281 325.943 413.95C302.688 400.75 281.836 383.351 264.689 362.853C273.666 361.691 280.146 370.662 286.038 377.525C296.967 390.292 312.781 398.767 329.478 400.796C333.013 401.23 337.741 400.548 338.377 397.031C338.718 395.203 337.664 393.421 336.61 391.872C319.943 367.3 294.301 350.737 269.93 333.617C270.829 332.936 271.697 332.517 272.565 332.486C277.914 332.316 340.361 382.731 346.795 388.402C353.245 394.072 344.222 406.993 338.33 412.726L338.315 412.773Z" fill="#6E7699"/>
<path d="M490.992 52.3208C477.752 74.7241 426.343 133.738 420.033 135.752C414.917 137.379 393.956 120.414 381.305 108.221C375.461 102.565 371.399 97.933 371.492 96.6315C371.678 93.9977 389.646 72.8494 408.157 52.1503C426.684 31.4513 445.753 11.2015 448.094 10.4579C451.815 9.26488 476 27.0822 487.814 37.85C490.821 40.5923 493.038 42.8853 493.906 44.2797C494.573 45.3488 493.426 48.2305 490.992 52.3362V52.3208Z" fill="#B0C3DF"/>
<path opacity="0.5" d="M490.992 52.3208C477.752 74.7241 426.343 133.738 420.033 135.752C414.917 137.379 393.956 120.414 381.306 108.221C381.864 98.1344 384.98 88.3892 390.36 81.913C392.623 79.1861 395.925 77.5594 399.166 76.1185C409.925 71.3465 421.196 67.7366 432.746 65.3816C452.265 61.3999 473.349 60.6717 491.008 52.3363L490.992 52.3208Z" fill="#91A5C3"/>
<path d="M5.56587 287.773C5.17829 281.715 63.9051 208.958 72.1684 200.917C80.4317 192.876 81.4704 184.045 87.5322 183.673C93.594 183.286 113.826 203.102 113.826 203.102C113.826 203.102 104.865 211.36 107.997 221.182C111.128 231.005 114.539 236.862 127.81 237.28C141.081 237.683 144.647 231.919 144.647 231.919C144.647 231.919 158.367 250.728 159.452 256.554C160.538 262.379 150.491 281.808 147.437 284.318C144.383 286.827 89.5942 342.898 86.757 346.105C83.9199 349.327 74.6334 346.879 69.5638 343.084C64.4942 339.288 5.56587 287.773 5.56587 287.773Z" fill="#EFB453"/>
<path d="M75.3774 218.967C76.5091 219.214 77.3773 220.129 77.5634 221.275C78.8811 229.796 84.4779 264.083 90.1521 267.011C95.5008 269.769 126.182 264.47 136.724 262.534C138.523 262.208 140.15 263.665 140.026 265.493L139.871 267.631C139.778 268.901 138.848 269.939 137.608 270.187C127.856 272.031 87.501 279.282 83.0826 273.906C78.9122 268.839 73.703 233.98 72.0286 222.096C71.7496 220.175 73.486 218.564 75.3929 218.967H75.3774Z" fill="#CC8639"/>
<path d="M68.4322 252.277C69.1763 252.711 69.6724 253.455 69.7964 254.307C70.5251 259.451 73.3002 277.717 76.4784 279.36C78.6954 280.506 91.4237 281.622 101.284 282.334C105.966 282.675 108.105 288.33 104.819 291.677C103.842 292.684 102.509 293.273 101.098 293.319C93.7336 293.598 70.3081 294.001 68.4322 288.098C66.7888 282.939 63.5641 263.665 61.9828 253.827C61.6107 251.487 64.1222 249.768 66.1686 250.961L68.4322 252.277Z" fill="#CC8639"/>
<path d="M138.817 244.221C136.414 244.98 133.779 245.6 131.035 245.94C123.857 246.839 113.655 246.204 105.718 238.07C99.7024 231.888 97.78 222.886 100.168 212.026C101.935 204 105.377 197.849 105.532 197.586C105.95 196.842 106.896 196.579 107.656 196.997C108.4 197.415 108.663 198.361 108.245 199.12C108.105 199.352 95.1444 222.762 107.95 235.901C114.989 243.121 124.182 243.678 130.647 242.857C138.507 241.881 144.926 238.643 146.957 236.644C147.577 236.04 148.553 236.056 149.158 236.675C149.763 237.295 149.747 238.271 149.127 238.875C147.313 240.642 143.515 242.718 138.802 244.221H138.817Z" fill="#CC8639"/>
<path d="M256.131 125.372C256.255 138.169 299.401 164.12 299.401 164.12C299.401 164.12 306.889 184.386 313.354 188.507C319.819 192.628 340.454 205.627 350.748 202.342C361.043 199.073 395.429 158.249 401.165 147.155C406.901 136.062 442.141 101.156 437.629 90.233C433.118 79.3102 388.964 37.7572 370.794 26.0443C352.624 14.3313 336.811 13.1848 329.927 17.43C323.044 21.6751 285.417 71.765 279.758 76.6454C274.1 81.5412 255.992 112.017 256.131 125.356V125.372Z" fill="#CFC7A0"/>
<path d="M401.754 149.014C401.165 149.2 400.514 149.107 399.987 148.72C399.816 148.596 383.584 136.31 374.158 129.137C364.717 121.932 341.167 102.782 340.935 102.597C340.097 101.915 339.973 100.691 340.656 99.8697C341.338 99.033 342.562 98.9091 343.384 99.5908C343.617 99.7767 367.12 118.895 376.515 126.069C385.925 133.242 402.173 145.528 402.328 145.652C403.181 146.303 403.351 147.512 402.7 148.379C402.452 148.705 402.111 148.937 401.739 149.061L401.754 149.014Z" fill="#B8AE84"/>
<path d="M345.275 195.758C343.368 196.362 339.617 195.835 329.26 190.304C323.136 187.019 317.431 183.425 317.369 183.394C316.455 182.821 316.191 181.628 316.765 180.714C317.338 179.8 318.532 179.536 319.447 180.109C319.493 180.14 324.842 183.518 330.687 186.663C338.438 190.846 341.834 191.838 343.244 192.039C342.051 190.521 337.586 186.524 320.873 177.367C309.726 171.263 298.672 165.918 298.564 165.871C297.602 165.406 297.199 164.244 297.665 163.284C298.13 162.323 299.292 161.92 300.254 162.385C300.362 162.447 312.005 168.071 323.478 174.377C330.237 178.095 335.648 181.333 339.524 183.998C346.609 188.863 347.57 191.063 347.554 192.705C347.539 193.929 346.95 194.952 345.926 195.51C345.74 195.603 345.539 195.696 345.306 195.773L345.275 195.758Z" fill="#B8AE84"/>
<path d="M356.004 180.063C355.492 180.234 354.903 180.172 354.407 179.877C351.57 178.142 337.26 169.295 335.012 165.654C334.454 164.74 332.966 162.339 342.857 147.45C346.051 142.647 349.57 137.937 352.516 134.513C357.57 128.656 359.585 128.052 361.027 128.285C365.787 129.028 374.918 141.098 377.616 144.785C378.251 145.653 378.065 146.861 377.197 147.496C376.329 148.132 375.12 147.946 374.484 147.078C369.538 140.307 362.919 132.871 360.609 132.173C359.167 132.762 354.438 137.565 347.942 146.892C341.601 156.018 338.609 162.23 338.47 163.842C340.253 166.15 349.911 172.595 356.438 176.593C357.353 177.15 357.647 178.343 357.089 179.258C356.841 179.676 356.454 179.955 356.019 180.094L356.004 180.063Z" fill="#B8AE84"/>
<path d="M366.236 105.51C366.763 107.183 365.849 108.98 364.159 109.522C362.469 110.065 360.686 109.135 360.143 107.446C359.601 105.773 360.531 103.976 362.221 103.433C363.895 102.891 365.694 103.821 366.236 105.51Z" fill="#F0ECD2"/>
<path d="M379.445 116.231C379.988 117.904 379.058 119.701 377.368 120.244C375.694 120.786 373.895 119.856 373.352 118.167C372.81 116.494 373.74 114.697 375.43 114.155C377.12 113.612 378.903 114.542 379.445 116.231Z" fill="#F0ECD2"/>
<path d="M396.034 129.493C396.576 131.166 395.646 132.963 393.956 133.506C392.282 134.048 390.483 133.118 389.941 131.43C389.398 129.741 390.328 127.959 392.018 127.417C393.693 126.875 395.491 127.804 396.034 129.493Z" fill="#F0ECD2"/>
<path d="M275.929 61.3999C267.464 75.0805 269.061 110.963 286.921 121.746C304.781 132.53 336.858 126.441 343.446 121.266C350.035 116.076 342.16 101.078 342.16 101.078C342.16 101.078 361.43 100.087 361.896 88.6216C362.361 77.1411 352.407 55.6054 339.462 47.363C326.517 39.1205 290.208 38.3304 275.929 61.4154V61.3999Z" fill="#F0ECD2"/>
<path d="M280.177 68.279C274.363 85.5851 281.464 111.118 299.122 114.774C316.765 118.431 342.16 101.078 342.16 101.078C342.16 101.078 344.749 70.3861 332.145 59.9901C319.556 49.5786 305.525 44.3574 294.254 51.035C282.983 57.7126 280.177 68.2946 280.177 68.2946V68.279Z" fill="#B8AE84"/>
<path d="M539.456 164.771C525.27 186.772 517.736 190.32 513.364 190.846C509.007 191.358 506.263 201.847 498.542 200.111C490.822 198.376 425.522 162.385 419.475 156.033C413.661 149.944 416.654 146.055 416.902 145.745C416.902 145.745 406.809 138.975 415.088 130.469C423.367 121.979 474.574 36.1922 481.892 37.7106C488.698 39.105 499.225 53.3279 525.611 66.993C541.332 75.1269 550.541 78.7059 556.293 82.1299C560.199 84.4539 562.525 86.7004 564.184 90.2639C568.323 99.0486 559.781 105.37 559.781 105.37C559.781 105.37 566.773 112.047 565.362 118.849C563.951 125.635 553.611 142.786 539.425 164.787L539.456 164.771Z" fill="#A29E56"/>
<path opacity="0.3" d="M539.455 164.771C525.27 186.772 517.735 190.32 513.363 190.846C509.007 191.358 506.263 201.847 498.542 200.111C490.821 198.376 425.521 162.385 419.475 156.033C413.661 149.944 416.653 146.055 416.901 145.745C416.901 145.745 482.403 182.588 488.449 183.193C494.496 183.797 489.69 179.722 496.526 167.327C503.348 154.917 544.525 107.942 554.106 96.5386C559.315 90.3413 558.307 85.368 556.292 82.1299C560.199 84.4539 562.524 86.7004 564.183 90.2639C568.323 99.0486 559.78 105.37 559.78 105.37C559.78 105.37 566.772 112.047 565.362 118.849C563.951 125.635 553.61 142.786 539.424 164.787L539.455 164.771Z" fill="#868243"/>
<path d="M443.614 152.516C441.862 154.003 435.692 141.655 437.568 141.345C439.444 141.035 444.916 142.414 445.552 143.158C446.188 143.902 444.622 151.664 443.614 152.516Z" fill="#756A3A"/>
<path d="M461.272 127.247C463.35 126.286 466.047 139.812 464.14 139.626C462.249 139.424 457.35 136.651 456.931 135.768C456.513 134.885 460.079 127.804 461.272 127.262V127.247Z" fill="#756A3A"/>
<path d="M460.451 101.403C462.42 102.565 452.823 112.481 451.908 110.808C450.994 109.135 450.482 103.526 450.978 102.689C451.474 101.853 459.319 100.753 460.451 101.419V101.403Z" fill="#756A3A"/>
<path d="M443.226 121.994C443.567 124.256 429.815 123.001 430.544 121.235C431.273 119.469 435.319 115.564 436.296 115.425C437.273 115.286 443.04 120.708 443.226 121.994Z" fill="#756A3A"/>
<path d="M301.417 263.092C297.556 266.129 285.216 278.539 281.479 279.732C281.107 279.856 280.131 279.499 278.689 278.771C265.898 272.264 215.931 235.731 215.931 235.731C212.272 230.711 215.668 209.051 217.962 200.081C218.737 197.044 220.536 194.271 222.598 191.931C223.729 190.645 224.923 189.483 226.07 188.492C229.016 185.92 233.31 185.61 236.566 187.779C252.969 198.717 304.083 233.205 308.393 241.324C313.54 251.023 308.021 257.917 301.432 263.107L301.417 263.092Z" fill="#EFB453"/>
<path d="M289.169 258.583C288.704 258.723 288.192 258.661 287.774 258.351L226.194 213.079C225.497 212.568 225.357 211.592 225.869 210.91C226.381 210.213 227.357 210.074 228.039 210.585L289.619 255.856C290.316 256.368 290.456 257.344 289.944 258.025C289.743 258.304 289.464 258.49 289.169 258.583Z" fill="#CC8639"/>
<path d="M227.435 223.321C227.435 223.321 231.047 214.443 233.822 215.884C236.597 217.325 234.706 225.133 232.907 225.954C231.109 226.776 228.334 225.35 227.435 223.321Z" fill="#FCE1CB"/>
<path opacity="0.5" d="M301.416 263.092C297.556 266.129 285.215 278.539 281.479 279.732C281.107 279.856 280.13 279.499 278.688 278.771C279.96 276.943 281.944 275.332 283.805 274.077C291.401 268.886 299.463 263.231 302.75 254.648C303.246 253.331 303.633 251.906 303.401 250.527C303.106 248.869 301.99 247.49 300.858 246.235C287.246 231.098 268.193 221.942 253.449 207.905C247.155 201.924 241.124 194.735 232.644 192.845C229.357 192.117 225.962 192.272 222.613 191.916C223.745 190.63 224.938 189.468 226.086 188.476C229.031 185.904 233.326 185.594 236.581 187.763C252.984 198.702 304.099 233.19 308.409 241.308C313.556 251.007 308.036 257.902 301.448 263.092H301.416Z" fill="#CC8639"/>
<path d="M214.288 178.839L170.227 234.568L91.1753 173.246L95.1287 167.963L122.415 131.6L134.554 115.409L154.383 131.182L204.133 170.767L214.288 178.839Z" fill="#B0C3DF"/>
<path opacity="0.5" d="M214.288 178.839L170.227 234.569L91.1753 173.246L95.1287 167.963C95.2372 168.102 95.3612 168.242 95.4698 168.381C108.431 184.339 125.19 197.199 143.964 205.612C146.972 206.944 151.297 207.765 152.848 204.868C153.747 203.179 153.065 201.119 152.383 199.321C145.205 180.621 138.011 161.921 130.833 143.22C128.926 138.278 125.236 135.055 122.43 131.585L134.569 115.394L154.383 131.166C160.785 149.216 167.157 167.235 173.545 185.285C174.584 188.213 176.32 191.652 179.421 191.699C180.847 191.714 182.149 190.94 183.358 190.165C189.544 186.137 195.11 181.194 199.838 175.524C201.203 173.897 202.552 172.146 204.133 170.752L214.288 178.824V178.839Z" fill="#6E7699"/>
<path d="M412.08 334.949L397.026 333.694L221.388 319.038L218.024 318.759L200.536 317.303L197.001 317.008L14.1081 301.747L-1.05421 300.477C-3.51924 296.263 -4.43396 291.336 -3.6898 286.548L11.3485 287.648L191.188 300.802L194.676 301.05L211.9 302.305L215.729 302.584L395.181 315.722L410.219 316.822C413.522 322.229 414.235 328.922 412.095 334.934L412.08 334.949Z" fill="#FCE1CB"/>
<path d="M286.037 501.208C280.875 504.942 274.27 506.135 268.162 504.524L263.046 490.347L205.668 331.51L200.536 317.303L194.676 301.066L189.73 287.385L132.29 128.408L127.174 114.232C131.624 112.28 136.647 111.893 141.375 113.194L146.693 127.448L204.707 283.032L211.9 302.321L218.024 318.744L221.481 328.009L280.766 487.032L286.037 501.177V501.208Z" fill="#FCE1CB"/>
<path d="M202.458 332.223L224.272 327.404L208.598 281.9L186.691 288.253L202.458 332.223Z" fill="#5E5429"/>
<path d="M477.985 214.846C482.93 217.836 468.729 234.569 464.838 231.734C460.947 228.898 472.667 211.639 477.985 214.846Z" fill="#DABBA0"/>
<path d="M478.31 207.548C478.31 207.548 422.297 159.782 419.398 158.868C415.305 157.567 392.05 194.751 394.112 197.09C396.174 199.43 457.443 234.259 457.443 234.259C463.66 237.187 483.737 210.198 478.31 207.548Z" fill="#E06257"/>
<path d="M433.242 180.9C435.645 181.055 456.776 197.277 457.551 198.795C458.326 200.298 447.025 217.418 444.699 217.263C442.374 217.108 420.204 202.281 419.692 201.088C419.18 199.895 432.079 180.823 433.242 180.9Z" fill="#FDE9E4"/>
<path d="M402.623 198.795C402.514 198.795 402.39 198.764 402.282 198.717C401.677 198.485 401.382 197.819 401.599 197.215C406.902 183.286 421.444 164.57 422.048 163.78C422.451 163.269 423.18 163.176 423.692 163.579C424.203 163.981 424.296 164.71 423.893 165.221C423.738 165.407 408.964 184.464 403.77 198.051C403.584 198.547 403.103 198.826 402.607 198.795H402.623Z" fill="#A44746"/>
<path d="M508.526 165.546C508.526 165.546 452.513 117.78 449.613 116.866C445.52 115.564 422.265 152.748 424.327 155.088C426.389 157.427 487.659 192.256 487.659 192.256C493.876 195.184 513.952 168.195 508.526 165.546Z" fill="#E06257"/>
<path d="M463.442 138.913C465.845 139.068 486.976 155.289 487.751 156.808C488.527 158.311 477.225 175.431 474.899 175.276C472.574 175.136 450.404 160.294 449.892 159.101C449.381 157.908 462.279 138.836 463.442 138.913Z" fill="#FDE9E4"/>
<path d="M432.823 156.792C432.715 156.792 432.591 156.761 432.482 156.715C431.878 156.483 431.583 155.816 431.8 155.212C437.102 141.284 451.644 122.568 452.249 121.778C452.652 121.266 453.381 121.173 453.892 121.576C454.404 121.979 454.497 122.707 454.094 123.218C453.939 123.404 439.164 142.461 433.971 156.049C433.785 156.544 433.304 156.823 432.808 156.792H432.823Z" fill="#A44746"/>
<path d="M203.202 415.577C200.784 418.102 197.916 420.55 196.118 422.502C192.102 426.871 190.381 433.595 187.125 433.084C183.87 432.573 135.499 392.368 129.98 387.177C124.461 381.987 92.3689 361.304 90.9891 359.429C89.5628 357.461 90.9271 353.929 93.5937 349.885C95.082 347.623 96.9579 345.206 98.9733 342.805C102.648 338.42 106.756 334.144 109.64 331.076C110.911 329.728 111.934 328.628 112.601 327.838C117.097 322.555 147.669 352.984 166.785 369.283C185.901 385.597 205.001 401.912 207.264 406.591C208.52 409.178 206.195 412.447 203.187 415.577H203.202Z" fill="#6E7699"/>
<path opacity="0.5" d="M98.9888 342.789C102.663 338.404 106.771 334.128 109.655 331.061C119.221 346.848 131.499 361.598 148.383 370.321C154.258 374.225 160.537 377.85 164.863 383.428C160.956 384.032 157.281 381.693 154.026 379.446C140.398 370.073 126.755 360.715 113.128 351.341C108.601 348.227 103.965 345.067 98.9888 342.804V342.789Z" fill="#91A5C3"/>
<path opacity="0.5" d="M203.202 415.577C200.784 418.102 197.916 420.55 196.118 422.502C192.102 426.871 190.381 433.595 187.125 433.084C183.87 432.573 135.499 392.368 129.98 387.177C124.461 381.987 92.3689 361.304 90.9891 359.429C89.5628 357.461 90.9271 353.929 93.5937 349.885C94.6789 350.923 95.8572 351.884 97.0044 352.72L147.499 389.842C160.041 399.061 173.002 408.481 188.102 412.292C184.784 405.351 181.467 398.41 178.165 391.485C183.777 396.551 189.389 401.602 195.017 406.668C198.009 409.364 201.079 412.215 203.187 415.577H203.202Z" fill="#91A5C3"/>
</g>
<path d="M59.6415 28.4302C59.9206 30.4288 60.4477 32.0091 61.2074 33.1402C61.9826 34.4416 63.0058 35.5726 64.2925 36.4867L62.1841 38.4388C61.7035 38.0515 61.2694 37.6642 60.8973 37.2304C60.8353 42.653 60.5252 45.6742 59.9671 46.263C59.471 47.0376 58.6183 47.4404 57.4246 47.4404C56.6494 47.4404 55.7037 47.3475 54.6185 47.1771L54.0293 44.5587C55.2386 44.7911 56.2928 44.8996 57.161 44.8996C57.5021 44.8996 57.7501 44.6826 57.8742 44.2488C58.0447 43.753 58.1842 41.615 58.2618 37.8656H53.2232C53.0216 40.422 52.4015 42.4051 51.3162 43.8305C50.2155 45.3334 48.6186 46.5573 46.5567 47.6109L45.0374 45.5658C46.8203 44.6826 48.2 43.5981 49.2077 42.2812C49.9674 41.2431 50.448 39.7712 50.6651 37.8501H47.9055V36.3938C47.4249 37.029 46.9443 37.5867 46.4792 38.0825L44.2622 36.3938C45.3009 35.4177 46.2001 34.2866 46.9598 33.0317C47.7815 31.7767 48.4171 30.5837 48.8512 29.4527L51.3317 30.2119C50.7891 31.6373 50.0914 33.0627 49.2542 34.4261C49.0372 34.7669 48.8357 35.0768 48.6496 35.3866H59.378C59.254 35.2317 59.1609 35.0768 59.0679 34.9374C58.3548 33.8064 57.7656 32.443 57.316 30.8162H52.51V28.4457H59.657L59.6415 28.4302Z" fill="#595757"/>
<path d="M75.3928 37.8501H69.3775V47.5024H66.897V28.4302H75.3928V37.8501ZM72.9433 31.9936V30.8006H69.3775V31.9936H72.9433ZM72.9433 35.4641V34.2711H69.3775V35.4641H72.9433ZM85.0669 28.4302V44.3573C85.0669 46.4334 84.1367 47.5024 82.2608 47.5024C81.6097 47.5024 80.85 47.4095 79.9818 47.2391L79.4857 44.6207C80.3074 44.9306 81.1136 45.0545 81.8578 45.0545C82.3539 45.0545 82.6174 44.4967 82.6174 43.3347V37.8501H76.5091V28.4302H85.0669ZM82.6019 31.9936V30.8006H78.9586V31.9936H82.6019ZM82.6019 34.2711H78.9586V35.4641H82.6019V34.2711Z" fill="#595757"/>
<path d="M98.4772 28.4302V36.0529H93.0665C93.051 36.5797 93.02 37.0444 93.0045 37.5092H98.9733C98.8803 42.2037 98.4462 45.0855 97.671 46.2165C97.0819 47.0221 96.2137 47.425 95.0665 47.425C94.7254 47.425 94.2448 47.363 93.6401 47.2545L93.051 44.7136C93.8572 44.8376 94.5239 44.884 95.0665 44.884C95.4541 44.884 95.7641 44.6827 95.9812 44.2798C96.1982 43.6756 96.3533 42.2192 96.4308 39.9572H92.803C92.6325 41.5995 92.3844 42.8699 92.1363 43.6911C91.6092 45.2559 90.834 46.5573 89.8108 47.6883L87.8574 46.0615C88.7721 45.101 89.4387 43.9389 89.9193 42.5445C90.2914 41.3671 90.555 39.198 90.6945 36.0529H88.7876V28.4302H98.4772ZM95.9967 33.6049V30.8936H91.2681V33.6049H95.9967ZM102.958 30.7077V43.0094H100.477V30.7077H102.958ZM106.849 28.0893V44.1869C106.849 45.4418 106.679 46.263 106.353 46.7433C105.965 47.239 105.252 47.5024 104.229 47.5024C103.407 47.5024 102.648 47.4095 101.95 47.2391L101.516 44.6981C102.291 44.9305 103.097 45.039 103.903 45.039C104.105 45.039 104.229 44.946 104.291 44.7291C104.353 44.4967 104.399 44.0939 104.399 43.5826V28.0583H106.849V28.0893Z" fill="#595757"/>
<path d="M112.88 30.8936L111.144 31.9162H113.299V28.0894H115.516V31.9162H117.345L115.764 30.5683C116.415 29.9331 116.957 29.2668 117.391 28.5232L119.345 29.7161C118.802 30.6302 118.26 31.3584 117.717 31.9007H119.252V34.0233H116.849C117.671 34.581 118.415 35.1543 119.081 35.7121L117.717 37.6642C116.973 36.905 116.26 36.2079 115.531 35.5571V38.067H113.314V35.774C113.19 35.9289 113.082 36.0529 112.989 36.1924C112.027 37.1839 111.206 37.8656 110.508 38.253L109.407 36.2078C110.012 35.898 110.647 35.4332 111.345 34.7825C111.609 34.5191 111.841 34.2867 112.058 34.0233H109.671V31.9007H110.772C110.461 31.2035 110.058 30.5063 109.578 29.8556L111.531 28.6781C112.089 29.3753 112.554 30.088 112.895 30.8627L112.88 30.8936ZM113.423 40.1276C113.485 39.6009 113.531 39.0276 113.547 38.3459L115.826 38.5164C115.779 39.1206 115.764 39.6473 115.717 40.1276H117.004C116.74 39.6473 116.399 39.1981 116.012 38.7643L117.531 37.7727C118.058 38.2685 118.492 38.8107 118.818 39.384L117.453 40.1431H119.174V42.4207H115.33C115.283 42.5291 115.268 42.6221 115.237 42.6995C116.523 43.5826 117.717 44.5587 118.818 45.6432L117.128 47.5025C116.151 46.4644 115.128 45.5503 114.058 44.7756C113.888 45.008 113.717 45.2249 113.531 45.4264C112.663 46.3405 111.779 47.0996 110.834 47.6884L109.469 45.7362C110.244 45.2095 110.989 44.5897 111.64 43.8461C112.074 43.3658 112.399 42.8855 112.663 42.4207H109.562V40.1431H113.423V40.1276ZM128.988 28.6161V30.8936H125.376L125.205 31.8232H128.631V43.9545H126.833C127.205 44.2334 127.577 44.4813 127.965 44.6982C128.414 44.9616 128.879 45.1785 129.314 45.3024L128.058 47.5954C127.515 47.332 126.988 47.0067 126.492 46.6348C125.887 46.201 125.345 45.7207 124.818 45.2094L126.383 43.9545H122.275L123.732 45.132C122.756 46.1081 121.577 46.9292 120.244 47.6109L118.988 45.3179C119.95 44.977 120.818 44.5432 121.593 43.97H120.012V31.8388H122.663L122.833 30.9091H119.67V28.6316H129.003L128.988 28.6161ZM126.197 35.0613V34.1317H122.461V35.0613H126.197ZM126.197 38.3459V37.2459H122.461V38.3459H126.197ZM126.197 41.646V40.5614H122.461V41.646H126.197Z" fill="#595757"/>
<path d="M140.119 41.5842L139.298 40.1743C139.949 39.9109 140.538 39.4616 141.05 38.7644H139.468V35.6658H142.786V37.8348C142.786 39.4151 141.902 40.6856 140.119 41.5842Z" fill="#595757"/>
<path d="M157.374 29.4528V34.9684H161.545V28.0894H163.994V34.9684H168.165V29.5457H170.614V37.2459H163.994V44.1869H169.157V38.7643H171.638V47.5954H169.157V46.5728H156.367V47.6729H153.886V38.7487H156.367V44.1714H161.529V37.2304H154.91V29.4373H157.359L157.374 29.4528Z" fill="#595757"/>
<path d="M193.668 47.5954H191.296V46.9912H177.544V47.5954H175.172V28.2598H193.652V47.5954H193.668ZM185.032 44.7136L183.932 43.1023C184.149 42.9319 184.366 42.7615 184.583 42.5756C182.692 42.9164 180.676 43.2418 178.506 43.5052L178.087 41.3051C180.692 41.0727 182.955 40.8093 184.862 40.5459L185.017 42.1727C185.467 41.7389 185.87 41.2896 186.211 40.8093C186.04 40.391 185.901 39.9417 185.792 39.4614C185.405 38.2529 185.141 36.6106 184.971 34.5965H177.994V32.4739H184.831C184.784 31.9471 184.769 31.4359 184.769 30.8626H186.893C186.893 31.4514 186.908 31.9936 186.955 32.4739H188.319C188.009 32.164 187.684 31.8852 187.389 31.6218L188.49 30.5372H177.544V44.6826H185.017L185.032 44.7136ZM184.676 35.2007V40.1276H178.49V35.2007H184.676ZM182.567 38.1755V37.1529H180.614V38.1755H182.567ZM191.311 44.7136V42.4516C191.11 43.2727 190.877 43.815 190.567 44.0319C190.257 44.3108 189.87 44.4502 189.358 44.4502C188.753 44.4502 188.149 44.1249 187.575 43.4587C187.467 43.3347 187.374 43.1953 187.296 43.0713C186.769 43.6756 186.195 44.2178 185.544 44.7136H191.327H191.311ZM190.722 31.5598L189.963 32.4894H191.048V34.612H187.079C187.187 36.2233 187.342 37.4163 187.529 38.1444C187.544 38.2529 187.575 38.3459 187.591 38.3769C187.978 37.4628 188.35 36.4092 188.676 35.1852L190.722 35.9599C190.118 38.0825 189.42 39.8177 188.614 41.1657C188.614 41.1812 188.629 41.2121 188.629 41.2121C188.955 41.8474 189.187 42.1417 189.342 42.1417C189.389 42.1417 189.404 42.0953 189.451 41.9868C189.497 41.7854 189.513 41.2277 189.513 40.2671L191.296 40.7938V30.5218H189.435C189.885 30.8316 190.319 31.1725 190.722 31.5133V31.5598Z" fill="#595757"/>
<path d="M199.172 47.0844H196.722V31.1573H198.676C198.955 30.1193 199.172 29.0812 199.342 28.0122L201.885 28.6164C201.714 29.5305 201.513 30.3672 201.28 31.1573H204.52V35.0461C205.063 34.132 205.544 33.1405 205.947 32.025C206.551 30.6151 207.016 29.2672 207.311 28.0122L209.854 28.7869C209.637 29.5925 209.419 30.3672 209.187 31.1573H215.295C215.295 39.4617 215.016 44.2801 214.489 45.6126C214.07 47.0379 213.078 47.7816 211.497 47.7816C210.675 47.7816 209.854 47.6577 209.016 47.4408L208.52 44.8069C209.73 45.0858 210.737 45.2252 211.497 45.2252C211.947 45.2252 212.257 44.8844 212.381 44.1872C212.613 42.9787 212.753 39.4308 212.753 33.5278H208.303C207.699 35.0926 207.047 36.4095 206.303 37.5251L204.52 36.2081V46.2633H202.071V45.0858H199.187V47.0999L199.172 47.0844ZM202.071 37.1532V33.5123H199.187V37.1532H202.071ZM202.071 39.4617H199.187V42.7618H202.071V39.4617ZM211.14 41.4139L208.52 42.266C208.21 40.4688 207.714 38.811 207.063 37.3392L209.45 36.58C210.164 38.0364 210.737 39.6477 211.14 41.4139Z" fill="#595757"/>
<path d="M224.535 28.6937C224.411 29.0036 224.303 29.2825 224.163 29.5458H236.845V31.9163H222.907C222.861 32.0093 222.814 32.0713 222.783 32.1333C222.613 32.3966 222.458 32.629 222.303 32.8459H235.217C235.202 34.6277 235.155 36.2235 235.109 37.6798H237.698V39.9573H234.985C234.923 40.8714 234.861 41.7081 234.768 42.4982H236.504V44.7912H234.457C234.411 45.0546 234.364 45.287 234.333 45.5039C234.163 46.1546 233.791 46.6814 233.202 47.0688C232.566 47.4096 231.837 47.5955 230.985 47.5955C230.396 47.5955 229.729 47.5491 228.938 47.5026L228.706 45.1166C229.62 45.287 230.38 45.38 230.985 45.38C231.295 45.38 231.512 45.2716 231.682 45.0547C231.729 45.0082 231.791 44.9307 231.853 44.7912H222.318L222.163 45.8913H219.621L220.38 39.9418H218.086V37.6643H220.69L221.125 34.3178C220.861 34.6276 220.628 34.8756 220.38 35.1234L218.163 33.4037C219.032 32.6445 219.776 31.7614 220.396 30.7388C221.094 29.7472 221.605 28.8022 221.977 27.9036L224.52 28.6782L224.535 28.6937ZM227.543 42.4982C226.768 41.956 225.931 41.4137 225.047 40.887L226.396 39.9573H223L222.628 42.4982H227.543ZM228.148 37.6798C227.233 37.1221 226.256 36.5488 225.202 35.9911L226.411 35.1389H223.683L223.342 37.6798H228.163H228.148ZM230.396 41.4757L229.403 42.4982H232.287C232.38 41.6771 232.442 40.825 232.504 39.9573H227.807C228.675 40.4376 229.543 40.9334 230.396 41.4757ZM231.062 36.6573L230.039 37.6798H232.597C232.613 36.8587 232.644 36.0065 232.659 35.1389H228.272C229.202 35.6192 230.132 36.115 231.047 36.6573H231.062Z" fill="#595757"/>
<path d="M258.55 35.8982V38.4391H240.488V35.8982H258.55Z" fill="#595757"/>
<path d="M279.324 28.8485V31.3274H272.348C272.348 33.4035 272.332 34.7359 272.301 35.2937H280.161V37.7726H272.472C273.03 39.0586 273.728 40.1586 274.58 41.1192C276.007 42.9009 278.099 44.3263 280.828 45.3953L279.309 47.7813C276.937 46.6503 275.138 45.4573 273.898 44.1714C272.875 43.2108 272.022 42.0178 271.34 40.6389C270.952 41.5685 270.425 42.4206 269.805 43.1488C268.131 45.008 265.852 46.4334 262.937 47.425L261.836 45.0545C264.488 44.1249 266.487 42.8389 267.836 41.2276C268.611 40.2671 269.139 39.1205 269.449 37.7571H262.348V35.2782H269.728C269.728 35.1233 269.743 34.9529 269.743 34.7824C269.79 34.6895 269.805 33.5274 269.805 31.3119H263.263V28.833H279.309L279.324 28.8485Z" fill="#595757"/>
<path d="M294.316 28.0893V30.7077H302.455V33.2641H294.859C295.091 34.7824 295.448 36.1149 295.897 37.2614C297.37 36.4867 298.75 35.5261 300.006 34.3486L301.789 36.4712C300.176 37.7726 298.595 38.8107 296.983 39.6008C297.029 39.6938 297.045 39.7248 297.091 39.7713C298.13 41.5995 300.068 43.4122 302.89 45.2869L301.029 47.6729C297.99 45.5968 295.897 43.4432 294.781 41.2276C293.82 39.5389 293.107 37.4008 292.595 34.8444C291.991 35.7585 291.277 36.6261 290.471 37.4627C290.27 37.6796 290.099 37.8501 289.929 38.005V44.5742C291.789 44.3728 293.448 44.1559 294.921 43.9235L295.262 46.201C292.161 46.7587 288.704 47.27 284.906 47.6574L284.487 45.101C285.417 45.039 286.332 44.946 287.2 44.8685V40.329C286.347 40.9333 285.479 41.5065 284.58 41.9713L282.89 39.9262C285.014 38.7487 286.843 37.4318 288.378 35.9754C289.34 35.0148 290.13 34.1162 290.75 33.2331H283.557V30.6767H291.619V28.0583H294.332L294.316 28.0893Z" fill="#595757"/>
<path d="M307.866 30.3824C307.819 30.8782 307.773 31.3584 307.742 31.8077H308.3V28.1668H310.672V31.8077H312.191V33.5275C312.517 32.9853 312.827 32.4275 313.075 31.8388C313.555 30.7387 313.959 29.4683 314.315 28.0894L316.501 28.6161C316.377 29.3598 316.191 30.0415 316.005 30.7232H324.237C324.191 37.1839 323.912 42.0488 323.385 45.3024C323.229 46.0461 322.888 46.6503 322.315 47.0842C321.71 47.4715 321.013 47.6884 320.237 47.6884C319.493 47.6884 318.61 47.5954 317.617 47.425L317.385 44.7911C318.532 45.07 319.493 45.2094 320.253 45.2094C320.516 45.2094 320.733 45.101 320.904 44.8376C321.059 44.6672 321.183 44.0939 321.323 43.1953C321.602 40.0967 321.757 36.7501 321.803 33.1867H321.462C321.028 35.96 320.315 38.4854 319.292 40.7319C318.144 43.1179 316.594 45.2249 314.687 47.0686L312.827 45.0545C314.61 43.4432 316.082 41.4911 317.261 39.2445C318.129 37.4163 318.733 35.4022 319.09 33.1867H318.33C317.943 34.5811 317.462 35.9135 316.873 37.2304C315.989 39.1361 314.966 40.7164 313.834 42.0024L311.99 40.2206C312.904 39.1361 313.741 37.8811 314.501 36.4867C315.028 35.4952 315.478 34.3796 315.896 33.1867H315.152C314.61 34.4881 314.005 35.5726 313.323 36.4867L311.462 34.705C311.586 34.5036 311.742 34.3177 311.881 34.1163H310.703V37.4163C311.245 37.1529 311.741 36.9205 312.222 36.6571L312.889 38.7643C312.176 39.2136 311.431 39.6474 310.703 40.0502V47.6884H308.331V41.1812C307.556 41.5221 306.749 41.8784 305.943 42.1728L304.92 39.6938C306.129 39.2755 307.261 38.8727 308.331 38.4389V34.1163H307.447C307.215 35.4022 306.904 36.6107 306.563 37.7572L304.439 36.6571C305.044 34.3641 305.463 32.0556 305.633 29.7781L307.912 30.3824H307.866Z" fill="#595757"/>
<path d="M330.16 29.7781V28.2598H332.547V29.7781H335.431V31.1725C335.803 30.7541 336.129 30.3513 336.423 29.964L338.284 31.0485V29.0344H346.268C345.601 31.6373 344.795 34.0233 343.865 36.1458C345.4 38.16 346.19 40.0037 346.19 41.6615C346.19 43.939 345.26 45.07 343.384 45.07C342.733 45.07 342.206 44.977 341.772 44.8066L341.431 42.0953C342.128 42.4361 342.78 42.5911 343.384 42.5911C343.539 42.5911 343.617 42.2812 343.617 41.6615C343.617 40.1431 342.904 38.4078 341.508 36.5022C342.159 34.8289 342.702 33.1401 343.121 31.4204H340.749V47.7038H338.268V31.4049C337.71 32.1796 337.074 32.9387 336.33 33.6979H337.679V35.9134H333.958C333.322 36.4092 332.749 36.874 332.206 37.2614H337.09V47.7038H334.609V46.7742H330.966V47.7038H328.516V39.6318C328.315 39.7403 328.144 39.8332 328.02 39.8952L326.563 38.036C327.664 37.4473 328.795 36.7501 329.958 35.9289H326.656V33.7134H330.129V32.0246H327.586V29.8091H330.129L330.16 29.7781ZM334.656 40.9797V39.4614H331.012V40.9797H334.656ZM334.656 44.6207V43.1023H331.012V44.6207H334.656ZM334.687 31.9936H332.563V33.6824H332.873C333.54 33.1247 334.16 32.5514 334.702 31.9936H334.687Z" fill="#595757"/>
<path d="M354.035 36.3163C354.531 35.2318 354.965 34.1007 355.353 32.9233L357.895 33.7754C357.585 34.6585 357.26 35.5106 356.934 36.3163H367.383V38.7643H363.476C363.042 40.3291 362.391 41.6305 361.477 42.715C363.6 43.5362 365.538 44.3883 367.29 45.3024L365.678 47.6884C363.771 46.6038 361.616 45.6123 359.275 44.6982C356.934 46.17 353.787 47.1926 349.833 47.7813L348.733 45.3954C351.725 45.0081 354.205 44.4038 356.112 43.5517C355.244 43.2728 354.361 42.9939 353.461 42.6995C353.244 43.0094 353.043 43.2573 352.872 43.5207L350.5 42.1728C351.322 41.0882 352.081 39.9572 352.764 38.7643H348.717V36.3163H354.019H354.035ZM359.337 28.0894V30.0415H367.135V34.705H364.593V32.4894H351.539V34.705H348.996V30.0415H356.701V28.0894H359.337ZM360.794 38.7643H355.849C355.523 39.3995 355.198 39.9727 354.872 40.546C356.283 40.9643 357.632 41.3671 358.934 41.8009C359.756 40.9953 360.391 39.9727 360.794 38.7643Z" fill="#595757"/>
<path d="M372.143 31.3276V28.0895H374.515V31.3276H376.143V33.698H374.515V37.0446C374.996 36.8742 375.445 36.7037 375.879 36.5023L376.205 38.5475C375.647 38.8573 375.073 39.1517 374.515 39.4306V44.6363C374.515 45.7828 374.345 46.573 374.019 46.9758C373.631 47.4561 372.918 47.6885 371.895 47.6885C371.337 47.6885 370.794 47.6265 370.283 47.5181L369.849 45.1321C370.407 45.3025 370.996 45.3955 371.569 45.3955C371.787 45.3955 371.957 45.3025 372.05 45.1321C372.112 44.8997 372.159 44.5278 372.159 44.0476V40.4376C371.678 40.6391 371.197 40.8095 370.732 40.9799L369.864 38.5319C370.639 38.315 371.43 38.0981 372.159 37.8657V33.698H370.035V31.3276H372.159H372.143ZM382.158 28.0895V36.6573C382.158 39.0587 381.817 41.2588 381.166 43.2264C380.561 45.0546 379.802 46.511 378.872 47.673L376.748 46.0462C377.709 44.8687 378.422 43.5518 378.934 42.0799C378.081 42.3898 377.213 42.6687 376.314 42.932L375.461 40.4841C376.934 40.1743 378.298 39.8489 379.569 39.4616C379.662 38.9348 379.724 38.4235 379.771 37.8502H376.748V35.4643H379.817V33.4192H376.67V31.0487H379.817V28.074H382.189L382.158 28.0895ZM385.879 28.0895V31.0642H389.181V33.4347H385.879V35.4798H389.181V37.8657H385.879V40.2362H389.522V42.6067H385.879V47.704H383.399V28.105H385.879V28.0895Z" fill="#595757"/>
<path d="M396.824 28.4303C396.669 29.4684 396.514 30.4755 396.375 31.4051H400.219C400.111 34.0699 399.785 36.5643 399.243 38.8883C399.026 39.7714 398.793 40.5616 398.53 41.2588C399.398 42.0334 400.25 42.8701 401.072 43.6912L399.382 45.5659C398.731 44.8222 398.095 44.156 397.475 43.5208C397.351 43.7377 397.196 43.9546 397.057 44.125C396.096 45.5194 394.948 46.6814 393.599 47.6885L392.251 45.8293C393.398 44.9617 394.375 43.9391 395.165 42.7461C395.336 42.5137 395.537 42.2193 395.708 41.925C395.274 41.5841 394.84 41.2278 394.421 40.8869C394.313 41.2743 394.204 41.6306 394.111 41.925L391.817 41.4292C392.514 39.0278 393.103 36.4404 393.599 33.698H391.724V31.4205H393.987C394.158 30.336 394.313 29.236 394.437 28.105L396.824 28.4458V28.4303ZM397.041 38.6404C397.429 36.9671 397.708 35.3248 397.847 33.698H395.987C395.661 35.4953 395.336 37.1066 395.01 38.5319C395.568 38.9503 396.142 39.3531 396.685 39.7404C396.809 39.3996 396.917 39.0277 397.057 38.6404H397.041ZM410.808 28.6937V30.8782C409.77 32.598 408.545 34.0699 407.165 35.3094V36.6573H411.335V39.0277H407.165V44.8068C407.165 45.8913 406.932 46.604 406.452 46.9293C405.925 47.3167 405.041 47.5181 403.785 47.5181C403.119 47.5181 402.483 47.4561 401.925 47.3476L401.506 44.7293C402.25 45.0081 403.01 45.1476 403.785 45.1476C404.049 45.1476 404.281 45.1011 404.498 45.0236C404.622 44.8997 404.715 44.6053 404.715 44.218V39.0587H400.126V36.6882H404.715V33.3727L405.708 33.4347C406.467 32.7685 407.181 31.9783 407.832 31.0952H400.793V28.7247H410.808V28.6937Z" fill="#595757"/>
<path d="M422.281 41.5842L421.459 40.1743C422.11 39.9109 422.699 39.4616 423.211 38.7644H421.629V35.6658H424.947V37.8348C424.947 39.4151 424.064 40.6856 422.281 41.5842Z" fill="#595757"/>
<path d="M52.6648 58.131V63.879C53.4399 62.0043 54.0756 60.1916 54.5252 58.3634L56.9747 59.2155C56.8042 59.8817 56.6336 60.517 56.4476 61.0747H57.3158V57.5112H59.6878V61.0747H63.3311V63.2902H59.6878V65.072C59.6878 65.5523 59.6723 66.0016 59.6258 66.4199H64.0288V68.8059H60.5715C60.7886 69.9059 61.1141 70.882 61.5482 71.7341C62.1529 72.9891 63.021 74.0736 64.1063 74.9877L62.3854 77.1103C61.3001 76.0722 60.37 74.7863 59.6103 73.2059C59.2227 72.4313 58.9126 71.5947 58.6801 70.7115C58.4631 71.2538 58.2305 71.7806 57.967 72.2454C56.9282 74.244 55.5949 75.8553 54.0136 77.1103L52.7268 74.9877C54.2926 73.5933 55.4554 72.0284 56.2461 70.2932C56.4631 69.7974 56.6336 69.3016 56.7732 68.7903H53.0834V66.4044H57.2383C57.2848 65.9551 57.3313 65.4903 57.3313 65.0565V63.2747H55.7034C55.3624 64.2043 54.9903 65.0565 54.6182 65.8157L52.6648 64.7931V65.6452H50.6183V67.8608H52.7423V70.0453H50.6183V72.9271C51.316 72.7567 52.0136 72.5552 52.6648 72.3383L53.2694 74.3835C50.8819 75.2976 48.1688 76.1032 45.1302 76.8314L44.1069 74.4609C44.417 74.3989 44.7426 74.3369 45.0371 74.2595V67.8298H47.2231V73.7482C47.5642 73.6862 47.8897 73.5933 48.2463 73.5158V65.6142H45.2697V58.0845H52.6493L52.6648 58.131ZM50.3083 63.4762V60.331H47.6882V63.4762H50.3083Z" fill="#595757"/>
<path d="M69.2999 60.9354V57.5269H71.7494V60.9354H74.5556V63.3059H71.7494V66.389C72.7417 66.1256 73.7184 65.8623 74.6331 65.5834L74.9742 67.706C73.9355 68.0933 72.8657 68.4496 71.7339 68.7905V73.8878C71.7339 75.0808 71.5789 75.8554 71.2844 76.2893C70.8968 76.7696 70.2456 77.0329 69.2844 77.0329C68.4007 77.0329 67.5636 76.909 66.8349 76.6921L66.4008 74.2441C67.2535 74.523 68.0907 74.6624 68.9433 74.6624C69.0674 74.6624 69.1604 74.5695 69.2069 74.3991C69.2534 74.1822 69.2999 73.8103 69.2999 73.3145V69.5186C68.4317 69.751 67.5636 69.968 66.6799 70.1694L65.8271 67.7214C67.0209 67.5045 68.1682 67.2721 69.2999 67.0087V63.3213H66.4163V60.9509H69.2999V60.9354ZM85.749 58.8128V61.1833H82.3383V73.9807C82.3383 75.1582 82.1677 75.9484 81.8422 76.3977C81.4546 76.878 80.7414 77.1414 79.7182 77.1414C78.695 77.1414 77.6717 77.0174 76.7725 76.8005L76.3384 74.3526C77.3306 74.6315 78.3539 74.7709 79.4081 74.7709C79.6097 74.7709 79.7337 74.6779 79.7957 74.5075C79.8577 74.2751 79.9042 73.9033 79.9042 73.423V61.1988H74.9121V58.8283H85.7645L85.749 58.8128Z" fill="#595757"/>
<path d="M90.1519 60.9973V57.5269H92.5239V60.9973H94.3843V63.4763H92.5239V66.1876C93.0045 66.0172 93.4541 65.8468 93.8882 65.6608L94.2138 67.706C93.6556 68.0158 93.082 68.3102 92.5239 68.5736V73.7174C92.5239 75.0188 92.3534 75.8709 92.0278 76.3202C91.6402 76.847 90.9271 77.1259 89.9038 77.1259C89.3147 77.1259 88.7721 77.0639 88.2915 76.9555L87.8574 74.3371C88.4155 74.5075 88.9892 74.5695 89.5473 74.5695C89.7798 74.5695 89.9349 74.4765 90.0279 74.2906C90.1209 74.0582 90.1519 73.6554 90.1519 73.1441V69.5806C89.6093 69.7975 89.0667 69.999 88.5396 70.1694L87.6714 67.7214C88.5241 67.5045 89.3457 67.2721 90.1519 67.0087V63.4918H87.8574V61.0128H90.1519V60.9973ZM106.849 63.3833V73.6244H104.027C104.462 73.8258 104.911 73.9962 105.376 74.1512C106.074 74.4146 106.772 74.6005 107.454 74.7399L106.089 77.1259C105.314 76.8625 104.57 76.5681 103.857 76.2118C102.989 75.778 102.167 75.3287 101.423 74.8174L102.896 73.6244H98.8493L100.322 74.8174C98.8648 75.7315 97.1284 76.4907 95.1285 77.1104L93.8727 74.8174C95.237 74.5075 96.5238 74.1202 97.6866 73.6244H94.6324V63.3833H106.834H106.849ZM106.26 57.7903V62.8721H95.2215V57.7903H106.26ZM104.493 66.1876V65.5834H97.0199V66.1876H104.493ZM104.493 68.806V68.1398H97.0199V68.806H104.493ZM104.493 71.4399V70.7736H97.0199V71.4399H104.493ZM103.903 60.7649V59.9128H97.6245V60.7649H103.903Z" fill="#595757"/>
<path d="M115.422 58.2238C115.081 59.4013 114.678 60.5478 114.229 61.6788V77.0482H111.779V66.5902C111.407 67.1944 111.035 67.7367 110.678 68.217L109.392 65.7691C111.081 63.1817 112.306 60.4549 113.035 57.5421L115.422 58.2393V58.2238ZM118.802 57.79C118.756 57.9604 118.709 58.1308 118.678 58.2858H128.383V60.2379H118.027C117.965 60.4084 117.903 60.5478 117.856 60.6718C117.81 60.7647 117.794 60.7957 117.763 60.8422H127.794V67.024H116.523V62.9183C116.399 63.0887 116.291 63.2436 116.182 63.3676L114.492 61.7563C114.942 61.1985 115.36 60.5633 115.748 59.8196C116.12 59.076 116.415 58.2548 116.678 57.3252L118.802 57.759V57.79ZM129.081 67.4423V69.3015H120.29C120.166 69.5029 120.058 69.6734 119.949 69.8283H128.662C128.662 73.4692 128.445 75.5763 128.011 76.165C127.686 76.8003 126.879 77.1256 125.624 77.1256C125.128 77.1256 124.647 77.0637 124.166 76.9552L123.748 74.6622C124.507 74.8326 125.143 74.9256 125.608 74.9256C125.872 74.9256 126.042 74.8326 126.135 74.6157C126.29 74.2904 126.368 73.3143 126.368 71.703H125.128C124.74 72.7875 124.213 73.7171 123.562 74.5073C122.647 75.5918 121.608 76.4594 120.415 77.1256L119.159 75.1735C120.135 74.7242 120.957 74.089 121.655 73.3143C122.089 72.8185 122.461 72.2762 122.74 71.703H121.717C121.283 72.5861 120.725 73.3453 120.042 73.965C119.019 74.8946 117.856 75.6383 116.523 76.196L115.236 74.2439C116.368 73.8721 117.314 73.3762 118.104 72.772C118.539 72.4467 118.88 72.1058 119.19 71.703H118.26C117.593 72.3072 116.864 72.803 116.089 73.2213L114.477 71.2692C115.469 70.8353 116.322 70.3396 117.066 69.7973C117.283 69.6269 117.453 69.472 117.624 69.317H114.802V67.4578H129.065L129.081 67.4423ZM125.515 63.1197V62.6239H118.802V63.1197H125.515ZM125.515 65.2578V64.8239H118.802V65.2578H125.515Z" fill="#595757"/>
<path d="M150.864 59.1535C150.228 59.2465 149.608 59.324 148.957 59.3859L150.026 59.9127C149.747 60.4395 149.468 60.8888 149.174 61.2606H150.026V62.8719H145.36V63.3987H150.445V65.1804H138.073V63.3987H143.065V62.8719H138.569V61.2606H139.98C139.748 60.9817 139.484 60.7029 139.174 60.4085L139.872 59.9747C139.484 59.9747 139.112 59.9902 138.74 59.9902L138.29 58.4873L136.135 64.4987C136.74 65.2734 137.236 66.079 137.593 66.9466C137.872 67.6438 138.073 68.2946 138.151 68.9143V67.8453H147.375V67.4115H138.817V65.4593H149.67V67.8453H150.864V69.627H149.67V71.9975H145.081C145.391 72.2144 145.67 72.4468 145.933 72.6947L144.585 74.3834C144.026 73.8257 143.453 73.3454 142.864 72.9271L143.825 71.9975H138.895V70.0453H147.36V69.627H138.197C138.197 69.7354 138.213 69.8284 138.213 69.8904C138.166 72.2764 137.174 73.4538 135.236 73.4538H134.306L133.779 71.0524V77.1103H131.407V57.945H138.445V58.038C142.244 58.038 146.073 57.8056 149.918 57.3408L150.848 59.138L150.864 59.1535ZM135.236 60.2381H133.81V64.8551L135.236 60.2381ZM135.252 71.0834C135.624 71.0834 135.81 70.696 135.841 69.9059C135.841 69.1932 135.686 68.4495 135.391 67.6748C135.081 66.8537 134.538 66.0325 133.81 65.1649V70.789C134.399 71.0059 134.88 71.0989 135.267 71.0989L135.252 71.0834ZM140.011 73.4693V72.3693H142.383V73.7947C142.383 74.2285 142.538 74.4609 142.864 74.5384C143.236 74.6623 143.716 74.7398 144.29 74.7398C144.662 74.7398 144.926 74.7398 145.065 74.6933C145.22 74.6933 145.344 74.6468 145.437 74.5694C145.53 74.4609 145.608 74.089 145.67 73.4848L147.887 74.5074C147.794 75.0651 147.654 75.6074 147.437 76.1342C147.282 76.4596 147.003 76.6765 146.569 76.7694C146.088 76.8314 145.329 76.8778 144.29 76.8778C142.879 76.8778 142.058 76.7849 141.809 76.6454C140.6 76.5525 140.011 75.8398 140.011 74.5229V73.9341C139.484 75.1116 138.988 76.0102 138.476 76.7074L136.523 75.0187C137.174 74.1975 137.717 73.3299 138.151 72.3848L140.011 73.4848V73.4693ZM143.794 61.2606C143.453 61.0282 143.127 60.8113 142.817 60.5944L143.515 59.8352C142.817 59.8817 142.12 59.9282 141.437 59.9437C141.81 60.269 142.135 60.5944 142.399 60.9353L141.841 61.2606H143.809H143.794ZM146.786 60.7648C147.267 60.3775 147.67 59.9592 148.026 59.4789C147.034 59.5874 146.026 59.6803 144.988 59.7423C145.468 60.0521 145.902 60.3465 146.29 60.6719L145.809 61.2606H147.375L146.786 60.7648ZM150.957 75.344L148.91 76.5215C148.569 75.4525 148.104 74.4609 147.546 73.4848L149.499 72.2918C150.088 73.2524 150.569 74.2595 150.957 75.3595V75.344Z" fill="#595757"/>
<path d="M166.212 57.5267V59.1535H172.491V61.431H158.491V67.7678C158.491 69.5496 158.259 71.2848 157.824 72.9271C157.483 74.275 156.863 75.6384 156.041 77.0328L153.825 75.7469C154.708 74.0116 155.328 72.5397 155.623 71.2693C155.716 70.82 155.793 70.3397 155.855 69.8594C155.158 70.4171 154.46 70.8975 153.731 71.3313L152.739 69.1157C153.995 68.4185 155.127 67.6439 156.135 66.7762V59.1381H163.514V57.5112H166.227L166.212 57.5267ZM156.026 65.2579L153.654 65.8466C153.499 64.4212 153.235 63.0424 152.879 61.7874L155.173 61.1832C155.592 62.5311 155.871 63.8945 156.026 65.2579ZM163.406 62.3606C163.313 62.686 163.204 62.9959 163.127 63.2902H171.033V65.5678H166.77C166.723 66.6368 166.677 67.5664 166.599 68.372H171.963V70.6651H167.018C167.452 71.4087 168.01 72.0285 168.708 72.5553C169.7 73.3764 171.049 74.0271 172.723 74.4919L171.374 77.1103C169.638 76.506 168.134 75.5764 166.925 74.337C166.367 73.7792 165.855 73.144 165.421 72.4468C164.894 73.3764 164.212 74.1665 163.375 74.8173C162.134 75.7314 160.677 76.506 158.987 77.1103L157.7 74.8947C159.22 74.3679 160.475 73.7482 161.452 72.958C162.32 72.3073 162.971 71.5327 163.406 70.6651H158.894V68.372H164.088C164.196 67.5974 164.258 66.6523 164.305 65.5678H162.243C161.855 66.5283 161.39 67.3495 160.925 68.0467L158.817 66.4199C159.297 65.7692 159.731 64.9945 160.103 64.1269C160.491 63.2593 160.801 62.4536 161.018 61.6944L163.406 62.3606Z" fill="#595757"/>
<path d="M177.467 76.5215H175.018V60.5944H176.971C177.25 59.5563 177.467 58.5183 177.638 57.4492L180.18 58.0534C180.01 58.9675 179.808 59.8042 179.576 60.5944H182.816V64.4831C183.358 63.569 183.839 62.5775 184.242 61.462C184.847 60.0521 185.312 58.7042 185.606 57.4492L188.149 58.2239C187.932 59.0295 187.715 59.8042 187.482 60.5944H193.591C193.591 68.8988 193.312 73.7172 192.784 75.0496C192.366 76.475 191.374 77.2186 189.792 77.2186C188.971 77.2186 188.149 77.0947 187.312 76.8778L186.816 74.2439C188.025 74.5228 189.033 74.6622 189.792 74.6622C190.242 74.6622 190.552 74.3214 190.676 73.6242C190.909 72.4157 191.048 68.8678 191.048 62.9648H186.599C185.994 64.5296 185.343 65.8466 184.599 66.9621L182.816 65.6451V75.7003H180.366V74.5228H177.483V76.5369L177.467 76.5215ZM180.366 66.5903V62.9493H177.483V66.5903H180.366ZM180.366 68.8987H177.483V72.1988H180.366V68.8987ZM189.436 70.8509L186.816 71.703C186.506 69.9058 186.01 68.248 185.358 66.7762L187.746 66.017C188.459 67.4734 189.033 69.0847 189.436 70.8509Z" fill="#595757"/>
<path d="M201.125 61.7717C200.598 62.7633 200.04 63.6619 199.435 64.3901C199.652 64.5605 199.869 64.7154 200.086 64.8704C200.505 64.2661 200.862 63.6309 201.218 63.0267L203.079 64.1267C202.117 65.5986 201.172 66.8535 200.21 67.9071C200.583 67.8606 200.955 67.8141 201.311 67.7521C201.249 67.4887 201.187 67.2563 201.11 67.0084L202.8 66.4817C202.924 66.8225 203.032 67.1944 203.141 67.5662V62.252H204.505C204.629 61.6942 204.737 61.121 204.83 60.5632L206.954 60.9816C206.846 61.4619 206.737 61.8647 206.613 62.2675H209.063V64.5295L209.59 63.8788C209.714 63.9718 209.823 64.0492 209.916 64.1422C210.613 63.2745 211.218 62.345 211.698 61.3379L213.574 62.2675C212.861 63.5534 212.117 64.5605 211.357 65.3042C211.559 65.5056 211.745 65.676 211.916 65.8464C212.691 64.9168 213.388 63.9408 213.993 62.9337L215.776 63.9563C215.078 64.9478 214.411 65.862 213.76 66.6521L215.109 66.2648C215.543 67.2873 215.869 68.4183 216.101 69.6578L214.256 70.2465C214.21 70.0761 214.194 69.9057 214.163 69.7198C212.629 70.1071 210.861 70.3085 208.892 70.324L208.799 69.8282H203.125V69.6113L201.668 70.0606C201.652 69.8902 201.621 69.7198 201.606 69.5339C200.179 69.9212 198.567 70.1226 196.769 70.1381L196.428 68.124C196.738 68.124 197.063 68.1239 197.358 68.1084C197.854 67.6127 198.335 67.0859 198.769 66.5746C197.947 65.9084 197.079 65.3197 196.164 64.8239L197.451 63.2126C197.559 63.2746 197.668 63.3365 197.776 63.414C198.303 62.6393 198.738 61.8801 199.063 61.09L201.11 61.7872L201.125 61.7717ZM204.784 70.8508V70.1536H207.156V70.8508H215.388V72.71H209.9C210.35 72.9269 210.83 73.0973 211.311 73.2522C212.613 73.7325 214.179 74.1044 216.008 74.3988L214.815 76.6763C212.97 76.1805 211.249 75.5298 209.683 74.7086C208.768 74.2593 207.931 73.7325 207.171 73.1748V77.0326H204.799V73.4537C204.133 73.9494 203.435 74.3833 202.691 74.7706C200.645 75.7312 198.893 76.3819 197.42 76.7692L196.226 74.7241C197.73 74.4143 199.311 73.9649 200.986 73.3607C201.575 73.1438 202.117 72.9269 202.598 72.71H197.017V70.8508H204.815H204.784ZM201.389 58.2857V57.4336H203.838V58.2857H208.334V57.4336H210.784V58.2857H215.543V60.3308H210.784V61.4308H208.334V60.3308H203.838V61.4308H201.389V60.3308H196.722V58.2857H201.389ZM207.063 65.1647V64.1422H205.218V65.1647H207.063ZM207.063 67.969V66.869H205.218V67.969H207.063ZM209.636 68.2634C209.978 67.9535 210.288 67.6592 210.567 67.3493C210.071 66.869 209.575 66.4197 209.094 66.0324V68.2944C209.264 68.2944 209.466 68.2944 209.636 68.2789V68.2634ZM213.512 67.0084C213.171 67.3958 212.846 67.7676 212.536 68.0775C212.97 68.031 213.404 67.9845 213.791 67.9071C213.698 67.5817 213.59 67.2718 213.512 67.0239V67.0084Z" fill="#595757"/>
<path d="M221.047 59.8199C221 60.3157 220.954 60.7959 220.923 61.2452H221.481V57.6043H223.853V61.2452H225.372V62.965C225.698 62.4228 226.008 61.865 226.256 61.2763C226.737 60.1762 227.14 58.9058 227.496 57.5269L229.682 58.0536C229.558 58.7973 229.372 59.479 229.186 60.1607H237.418C237.372 66.6214 237.093 71.4863 236.566 74.7399C236.411 75.4836 236.07 76.0878 235.496 76.5217C234.891 76.909 234.194 77.1259 233.419 77.1259C232.674 77.1259 231.791 77.0329 230.798 76.8625L230.566 74.2286C231.713 74.5075 232.674 74.6469 233.434 74.6469C233.698 74.6469 233.915 74.5385 234.085 74.2751C234.24 74.1047 234.364 73.5314 234.504 72.6328C234.783 69.5342 234.938 66.1876 234.984 62.6242H234.643C234.209 65.3975 233.496 67.9229 232.473 70.1694C231.326 72.5554 229.775 74.6624 227.868 76.5061L226.008 74.492C227.791 72.8807 229.264 70.9286 230.442 68.682C231.31 66.8538 231.915 64.8397 232.271 62.6242H231.512C231.124 64.0186 230.643 65.351 230.054 66.6679C229.171 68.5736 228.147 70.1539 227.016 71.4399L225.171 69.6581C226.085 68.5736 226.923 67.3186 227.682 65.9242C228.209 64.9327 228.659 63.8171 229.078 62.6242H228.333C227.791 63.9256 227.186 65.0101 226.504 65.9242L224.644 64.1425C224.768 63.9411 224.923 63.7552 225.062 63.5538H223.884V66.8538C224.427 66.5904 224.923 66.358 225.403 66.0946L226.07 68.2018C225.357 68.6511 224.613 69.0849 223.884 69.4877V77.1259H221.512V70.6187C220.737 70.9596 219.931 71.3159 219.124 71.6103L218.101 69.1313C219.31 68.713 220.442 68.3102 221.512 67.8764V63.5538H220.628C220.396 64.8397 220.086 66.0482 219.745 67.1947L217.621 66.0946C218.225 63.8016 218.644 61.4931 218.814 59.2156L221.093 59.8199H221.047Z" fill="#595757"/>
<path d="M257.216 69.6426C257.061 70.3088 256.736 70.8355 256.255 71.1764C255.821 71.4088 255.371 71.5173 254.891 71.5173C254.178 71.5173 253.418 71.4088 252.596 71.1764L252.1 68.5426C252.813 68.8524 253.557 68.9764 254.286 68.9764C254.565 68.9764 254.767 68.8214 254.875 68.4806C255.092 67.5975 255.247 65.9862 255.356 63.6777L251.17 64.7002V72.2764H248.689V65.3044L244.891 66.234V73.2835C244.891 73.8413 245.263 74.1356 246.023 74.1356C246.798 74.1976 248.348 74.2286 250.643 74.2286C252.813 74.2286 254.1 74.1821 254.534 74.0736C255.092 74.0272 255.604 73.9807 256.069 73.9032C256.41 73.7948 256.705 72.9891 256.922 71.5173L259.48 72.6173C259.17 74.461 258.72 75.561 258.131 75.9793C257.48 76.2892 256.224 76.5061 254.379 76.5835C253.464 76.63 252.224 76.6456 250.643 76.6765C247.031 76.6765 245.155 76.6301 244.938 76.5681C243.201 76.5216 242.333 75.6075 242.333 73.8722V66.8693L240.395 67.3496L239.791 65.165L242.333 64.4678V59.5564H244.891V63.7706L248.689 62.748V57.6973H251.17V62.0818L257.774 60.3311C257.774 64.4058 257.573 67.52 257.232 69.6426H257.216Z" fill="#595757"/>
<path d="M265.046 59.2156V57.6973H267.433V59.2156H270.317V60.61C270.689 60.1916 271.014 59.7888 271.309 59.4015L273.169 60.486V58.4719H281.154C280.487 61.0748 279.681 63.4608 278.751 65.5833C280.285 67.5975 281.076 69.4412 281.076 71.099C281.076 73.3765 280.146 74.5075 278.27 74.5075C277.619 74.5075 277.092 74.4145 276.658 74.2441L276.317 71.5328C277.014 71.8736 277.665 72.0286 278.27 72.0286C278.425 72.0286 278.502 71.7187 278.502 71.099C278.502 69.5806 277.789 67.8453 276.394 65.9397C277.045 64.2664 277.588 62.5776 278.006 60.8579H275.634V77.1413H273.154V60.8424C272.596 61.6171 271.96 62.3762 271.216 63.1354H272.565V65.3509H268.844C268.208 65.8467 267.635 66.3115 267.092 66.6989H271.976V77.1413H269.495V76.2117H265.852V77.1413H263.402V69.0693C263.201 69.1778 263.03 69.2707 262.906 69.3327L261.449 67.4735C262.549 66.8848 263.681 66.1876 264.844 65.3664H261.542V63.1509H265.015V61.4621H262.472V59.2466H265.015L265.046 59.2156ZM269.542 70.4172V68.8989H265.898V70.4172H269.542ZM269.542 74.0582V72.5398H265.898V74.0582H269.542ZM269.572 61.4311H267.449V63.1199H267.759C268.425 62.5622 269.045 61.9889 269.588 61.4311H269.572Z" fill="#595757"/>
<path d="M287.355 62.717L285.727 64.7311C284.905 63.848 284.053 63.0888 283.185 62.4536L284.812 60.7648C285.727 61.3226 286.564 61.9733 287.355 62.717ZM291.68 71.3467V70.3242H294.13V71.3467H302.703V73.7172H294.13V77.2187H291.68V73.7172H283.278V71.3467H291.68ZM289.06 65.4903C287.929 67.6129 286.766 69.2861 285.588 70.5101L283.541 68.7284C284.936 67.334 286.053 65.8466 286.936 64.2353L289.06 65.4903ZM288.89 59.2155L287.277 61.2606C286.409 60.3775 285.495 59.6183 284.564 58.9831L286.177 57.2943C287.169 57.8521 288.068 58.4873 288.89 59.231V59.2155ZM293.293 58.0535C293.122 58.4718 292.967 58.8281 292.843 59.1535H295.324C295.587 58.5492 295.773 57.914 295.928 57.2943L298.409 57.7901C298.238 58.2704 298.068 58.7197 297.882 59.1535H302.037V61.338H297.541V62.0972H301.277V64.2198H297.541V64.979H301.37V67.1016H297.541V67.8608H302.037V70.0453H289.913V64.1888C289.743 64.4057 289.572 64.6226 289.386 64.7931L287.448 63.3677C288.192 62.4536 288.843 61.524 289.401 60.5479C290.053 59.4169 290.549 58.3324 290.921 57.2788L293.293 58.038V58.0535ZM295.153 61.338H292.27V62.0972H295.153V61.338ZM295.153 64.2353H292.27V64.9945H295.153V64.2353ZM295.153 67.1171H292.27V67.8762H295.153V67.1171Z" fill="#595757"/>
<path d="M310.936 58.1309C310.439 59.8507 309.804 61.524 309.06 63.1662V74.5228C309.602 73.6552 310.036 72.6791 310.346 71.5791C310.687 70.2777 310.935 67.9382 311.06 64.4986H310.238V62.5465H313.881V61.0127H311.168V58.9985H313.881V57.4647H316.269V58.9985H318.641V57.4647H321.013V58.9985H323.726V61.0127H321.013V62.5465H324.423V64.4986H313.199C313.075 68.4494 312.78 71.1763 312.377 72.6791C311.943 74.2904 311.292 75.6228 310.424 76.7848L309.075 75.7003V77.0482H306.858V67.3494C306.517 67.8917 306.191 68.3875 305.835 68.8213L304.579 66.4353C306.44 63.6155 307.819 60.6253 308.641 57.4492L310.936 58.1464V58.1309ZM323.726 74.6467C323.726 76.2271 322.842 77.0327 321.106 77.0327H320.346L319.927 74.9101C320.346 75.0341 320.734 75.0805 321.106 75.0805C321.385 75.0805 321.54 74.7707 321.54 74.151V73.4847H319.757V76.6919H317.54V73.4847H315.757V77.0482H313.571V65.3508H323.741V74.6622L323.726 74.6467ZM317.54 68.5424V67.2874H315.757V68.5424H317.54ZM317.54 71.6101V70.4171H315.757V71.6101H317.54ZM318.641 62.531V60.9971H316.269V62.531H318.641ZM319.757 68.5424H321.54V67.2874H319.757V68.5424ZM319.757 71.6101H321.54V70.4171H319.757V71.6101Z" fill="#595757"/>
<path d="M337.803 57.5269V58.4565H345.772V60.672H344.16L345.849 62.5312C345.415 62.7016 344.997 62.8721 344.563 63.0115C344.671 63.6002 344.842 64.1425 345.09 64.6383C345.353 65.3045 345.741 65.8778 346.284 66.3581L344.749 68.1398C344.144 67.613 343.617 66.9003 343.214 65.9552C342.873 65.196 342.625 64.4214 342.47 63.6157C342.02 63.7242 341.555 63.8172 341.105 63.8946V65.2425C341.632 65.1961 342.129 65.1496 342.563 65.0876L342.888 67.0398C341.493 67.3031 339.974 67.5355 338.299 67.706L337.881 65.4904C338.206 65.4904 338.516 65.4749 338.811 65.4284V62.5157C338.268 63.2594 337.726 63.8636 337.199 64.3439V67.8764H334.904V64.0495C334.625 63.7087 334.346 63.3833 334.082 63.027C333.958 64.8862 333.664 66.1101 333.23 66.6369C332.842 67.1172 332.237 67.3496 331.431 67.3496C331.059 67.3496 330.563 67.2876 329.912 67.1172L329.71 66.1876L329.664 66.2496C329.106 66.9933 328.315 67.5665 327.338 67.9693L326.408 66.0172C327.106 65.6918 327.617 65.3045 327.928 64.8242C328.098 64.4988 328.238 64.0495 328.3 63.4763H327.013V61.3537H333.152L334.129 60.6875H326.749V58.472H335.152V57.5424H337.772L337.803 57.5269ZM331.183 67.613V68.6356H341.54V67.613H343.911V77.0329H341.54V73.8878H330.687C330.579 74.2751 330.455 74.6005 330.315 74.9103C329.865 75.8399 329.183 76.6301 328.3 77.2808L326.61 75.592C327.307 75.0653 327.819 74.3991 328.191 73.5779C328.563 72.7258 328.78 71.5018 328.827 69.8595V67.6285H331.199L331.183 67.613ZM330.191 65.1186C330.672 65.2115 331.106 65.2425 331.447 65.2425C331.555 65.2425 331.648 65.1805 331.726 65.0101C331.788 64.7932 331.834 64.2974 331.85 63.4763H330.455C330.408 64.127 330.3 64.6693 330.176 65.1186H330.191ZM341.54 71.7807V70.7581H331.152C331.137 71.13 331.106 71.4708 331.059 71.7807H341.524H341.54ZM337.4 60.672H335.028C335.478 61.1523 335.943 61.6326 336.392 62.1439C336.764 61.6636 337.09 61.1833 337.385 60.672H337.4ZM339.586 61.4311C339.431 61.6481 339.307 61.865 339.167 62.0354C340.966 61.6946 342.532 61.2298 343.881 60.672H338.346L339.586 61.4311Z" fill="#595757"/>
<path d="M358.577 57.6196C361.353 60.4704 364.531 62.5465 368.065 63.8944L366.81 66.5128C365.957 66.2029 365.135 65.8466 364.36 65.4283V66.8536H359.26V69.472H364.949V71.8425H359.26V74.4918H367.073V76.8623H349.074V74.4918H356.717V71.8425H351.461V69.472H356.717V66.8536H351.632V65.7846C350.934 66.1254 350.283 66.4353 349.679 66.6677L348.221 64.2198C349.679 63.693 351.322 62.8564 353.167 61.7099C354.035 61.1676 354.841 60.6254 355.585 60.0676H352.888V57.6196H358.577ZM362.686 64.4987C361.167 63.5846 359.694 62.4845 358.298 61.2141C357.322 62.0972 356.221 62.9648 354.996 63.8169C354.609 64.0803 354.252 64.2972 353.926 64.4831H362.686V64.4987Z" fill="#595757"/>
<path d="M376.437 69.72C375.91 69.72 375.135 69.3792 374.143 68.682C373.104 67.9848 372.468 67.6439 372.205 67.6439C371.569 67.6439 370.685 68.2327 369.538 69.3792V66.234C370.36 65.3664 371.274 64.9326 372.282 64.9326C372.809 64.9326 373.6 65.2735 374.654 65.9707C375.693 66.6679 376.298 67.0087 376.515 67.0087C377.104 67.0087 377.987 66.42 379.181 65.227V68.4031C378.313 69.2862 377.398 69.72 376.453 69.72H376.437Z" fill="#595757"/>
<defs>
<linearGradient id="paint0_linear_20_204365" x1="240.008" y1="222.468" x2="240.008" y2="390.725" gradientUnits="userSpaceOnUse">
<stop stop-color="white"/>
<stop offset="1" stop-color="white" stop-opacity="0.6"/>
</linearGradient>
</defs>
</svg>
