<svg width="480" height="454" viewBox="0 0 480 454" fill="none" xmlns="http://www.w3.org/2000/svg">
<path opacity="0.8" d="M436.87 0H43.1304C19.3101 0 0 19.2976 0 43.1024V410.898C0 434.702 19.3101 454 43.1304 454H436.87C460.69 454 480 434.702 480 410.898V43.1024C480 19.2976 460.69 0 436.87 0Z" fill="url(#paint0_linear_34_254301)"/>
<mask id="mask0_34_254301" style="mask-type:luminance" maskUnits="userSpaceOnUse" x="17" y="99" width="446" height="340">
<path d="M17.5962 99.6062V398.859C17.5962 420.829 35.5801 438.801 57.5638 438.801H422.451C444.435 438.801 462.419 420.829 462.419 398.859V99.6062H17.5962Z" fill="white"/>
</mask>
<g mask="url(#mask0_34_254301)">
<path d="M634.816 -5.70093H-94.2607V420.148H634.816V-5.70093Z" fill="#DEE8F6"/>
<path opacity="0.2" d="M410.777 200.282L159.545 200.049C144.29 195.804 140.507 156.714 180.769 154.623C220.985 152.531 166.01 106.702 223.481 100.691C268.875 95.9342 292.517 143.096 326.966 155.289C333.694 157.721 341.027 158.558 347.198 157.923C350.453 157.629 353.864 156.978 357.368 155.94C371.104 151.88 385.32 151.602 395.925 161.053C410.948 174.423 410.793 200.282 410.793 200.282H410.777Z" fill="#A9C2E5"/>
<path opacity="0.8" d="M260.921 145.095C260.921 145.095 283.618 141.469 295.075 143.127C295.075 143.127 293.06 141.02 289.975 141.299C289.975 141.299 287.308 133.924 281.479 133.738C275.65 133.552 273.929 136.899 273.929 136.899C273.929 136.899 271.324 134.435 266.844 136.728C262.363 139.021 262.58 142.523 262.58 142.523C262.58 142.523 260.627 142.925 260.921 145.11V145.095Z" fill="white"/>
<path opacity="0.8" d="M237.17 121.374C237.17 121.374 251.092 119.158 258.115 120.165C258.115 120.165 256.875 118.879 254.984 119.05C254.984 119.05 253.356 114.526 249.775 114.402C246.193 114.278 245.139 116.339 245.139 116.339C245.139 116.339 243.542 114.82 240.798 116.23C238.054 117.64 238.178 119.778 238.178 119.778C238.178 119.778 236.984 120.026 237.155 121.358L237.17 121.374Z" fill="white"/>
<path opacity="0.8" d="M205.823 120.476C205.714 120.863 232.287 111.675 243.263 113.751C243.263 113.751 243.015 107.043 238.287 106.795C233.558 106.563 231.822 111.257 231.822 111.257C231.822 111.257 229.651 108.375 226.69 111.458C226.69 111.458 221.311 109.847 219.621 114.588C219.621 114.588 213.435 115.347 212.303 117.439C212.303 117.439 206.582 117.95 205.854 120.46L205.823 120.476Z" fill="white"/>
<path d="M390.669 147.681H378.064V200.281H390.669V147.681Z" fill="#DEE8F6"/>
<path d="M382.251 161.998H369.646V200.282H382.251V161.998Z" fill="#DEE8F6"/>
<path d="M353.709 172.518H344.454V200.282H353.709V172.518Z" fill="#DEE8F6"/>
<path d="M343.399 166.087H334.144V200.281H343.399V166.087Z" fill="#DEE8F6"/>
<path d="M334.237 166.087H324.981V200.281H334.237V166.087Z" fill="#DEE8F6"/>
<path d="M325.384 160.588H316.129V200.297H325.384V160.588Z" fill="#DEE8F6"/>
<path d="M322.563 178.467H300.796V200.281H322.563V178.467Z" fill="#DEE8F6"/>
<path d="M369.135 153.104H356.531V200.281H369.135V153.104Z" fill="#DEE8F6"/>
<path d="M335.896 143.824H328.64V200.282H335.896V143.824Z" fill="#DEE8F6"/>
<path d="M347.988 200.281H338.314V158.775L347.988 155.01V200.281Z" fill="#DEE8F6"/>
<path d="M374.096 126.099H359.259V200.281H374.096V126.099Z" fill="#DEE8F6"/>
<path d="M360.654 127.572C360.654 123.574 363.352 120.336 366.67 120.336C369.987 120.336 372.685 123.574 372.685 127.572C372.685 131.569 369.987 134.807 366.67 134.807C363.352 134.807 360.654 131.569 360.654 127.572Z" fill="#DEE8F6"/>
<path d="M366.67 123.512C366.546 123.512 366.438 123.404 366.438 123.28V115.084C366.438 114.96 366.546 114.852 366.67 114.852C366.794 114.852 366.902 114.96 366.902 115.084V123.28C366.902 123.404 366.794 123.512 366.67 123.512Z" fill="#DEE8F6"/>
<path d="M357.848 143.452H349.554V200.281H357.848V143.452Z" fill="#DEE8F6"/>
<path d="M357.848 141.934H350.748V143.452H357.848V141.934Z" fill="#DEE8F6"/>
<path d="M357.848 140.415H353.073V141.934H357.848V140.415Z" fill="#DEE8F6"/>
<path d="M357.863 138.881H355.228V140.399H357.863V138.881Z" fill="#DEE8F6"/>
<path d="M345.26 126.502C345.213 126.347 344.764 126.285 344.578 126.27L344.392 126.239C343.818 126.099 343.198 126.084 342.624 126.239C342.361 126.301 340.252 126.952 337.942 127.68L338.066 127.649C338.066 127.649 336.314 127.277 335.973 127.199C335.942 127.199 335.911 127.199 335.911 127.199C335.911 127.199 335.865 127.153 335.803 127.107C335.632 126.936 335.307 126.611 335.183 126.471C335.152 126.44 335.09 126.425 335.043 126.44L334.919 126.471C334.919 126.471 334.919 126.471 334.919 126.487C334.919 126.487 335.167 126.936 335.353 127.215C335.4 127.292 335.462 127.354 335.493 127.401C335.508 127.416 335.555 127.447 335.586 127.478C335.911 127.711 336.717 128.083 336.717 128.083C335.896 128.346 335.09 128.594 334.361 128.826H333.601C333.121 128.826 332.656 128.671 332.252 128.423L330.997 127.618C330.997 127.618 330.888 127.571 330.826 127.602L330.516 127.695C330.516 127.695 330.423 127.788 330.47 127.85L331.741 129.647C331.539 129.709 331.431 129.74 331.431 129.74C331.353 129.771 331.431 129.88 331.539 129.988C331.539 129.988 331.57 130.019 331.586 130.035L330.563 130.716V130.732L330.935 130.639C330.935 130.639 330.95 130.639 330.966 130.639L331.896 130.205C331.896 130.205 332.051 130.236 332.128 130.221L335.725 130.019C336.113 130.004 336.485 129.926 336.841 129.818C337.074 129.74 337.384 129.647 337.741 129.554C337.772 129.616 337.803 129.663 337.772 129.694C337.679 129.818 336.268 131.491 336.268 131.491C336.268 131.491 336.841 131.491 337.059 131.414C337.229 131.352 339.198 129.601 340.02 128.857C341.663 128.361 343.322 127.85 343.694 127.726C344.485 127.447 345.322 126.75 345.26 126.549V126.502Z" fill="#DEE8F6"/>
<path d="M285.075 102.534H277.959V200.282H285.075V102.534Z" fill="#9BCCEE"/>
<path d="M253.526 125.155V200.282C253.526 200.282 252.069 200.096 159.545 200.282C144.29 196.037 140.507 156.715 180.769 154.623C203.001 153.461 196.133 138.928 195.265 125.155H253.511H253.526Z" fill="#A7C6E8"/>
<path d="M231.574 141.717H156.413V176.004H231.574V141.717Z" fill="#6B95CE"/>
<path d="M278.13 170.147H237.806V200.282H278.13V170.147Z" fill="#363361"/>
<path d="M278.13 170.023H237.806V184.416H278.13V170.023Z" fill="white"/>
<path d="M278.13 182.247H237.806V182.355H278.13V182.247Z" fill="#BDD9F2"/>
<path d="M278.13 179.707H237.806V179.815H278.13V179.707Z" fill="#BDD9F2"/>
<path d="M278.13 177.165H237.806V177.274H278.13V177.165Z" fill="#BDD9F2"/>
<path d="M278.13 174.624H237.806V174.733H278.13V174.624Z" fill="#BDD9F2"/>
<path d="M278.13 172.084H237.806V172.192H278.13V172.084Z" fill="#BDD9F2"/>
<path d="M294.253 104.393H268.797V114.526H294.253V104.393Z" fill="#6B95CE"/>
<path d="M156.413 157.489L171.389 141.717H156.413V157.489Z" fill="#8DBBE5"/>
<path d="M156.413 167.854L181.079 141.717H197.838L171.389 176.004H156.413V167.854Z" fill="#8DBBE5"/>
<path d="M181.994 176.004L205.822 141.717H227.248L209.59 176.004H181.994Z" fill="#5A89C7"/>
<path d="M231.574 158.171H156.413V158.853H231.574V158.171Z" fill="#AED6F2"/>
<path d="M177.885 141.717H177.126V176.004H177.885V141.717Z" fill="#AED6F2"/>
<path d="M210.953 141.02H210.194V175.306H210.953V141.02Z" fill="#AED6F2"/>
<path d="M268.797 114.526V104.393H274.781L272.254 114.526H268.797Z" fill="#8DBBE5"/>
<path d="M282.627 104.393L279.79 114.526H288.502L290.564 104.393H282.627Z" fill="#76A4D7"/>
<path d="M289.789 114.526H273.743V115.301H289.789V114.526Z" fill="#5C88C6"/>
<path d="M292.502 102.534H270.068V104.394H292.502V102.534Z" fill="#5C88C6"/>
<path d="M285.091 100.675H277.479V102.534H285.091V100.675Z" fill="#5C88C6"/>
<path d="M277.959 117.377C277.959 117.377 284.269 118.229 285.075 122.257V115.316H277.959V117.392V117.377Z" fill="#89B7E2"/>
<path d="M231.574 181.689H173.638L171.39 176.003H231.574V181.689Z" fill="#A7C6E8"/>
<path d="M162.955 176.127H160.568V200.297H162.955V176.127Z" fill="#76A4D7"/>
<path d="M160.568 177.289C160.568 177.289 162.382 177.676 162.955 179.365V176.112H160.568V177.289Z" fill="#5C88C6"/>
<path d="M184.381 176.127H181.994V200.297H184.381V176.127Z" fill="#76A4D7"/>
<path d="M181.994 177.289C181.994 177.289 183.808 177.676 184.381 179.365V176.112H181.994V177.289Z" fill="#5C88C6"/>
<path d="M205.807 176.127H203.419V200.297H205.807V176.127Z" fill="#76A4D7"/>
<path d="M203.419 177.289C203.419 177.289 205.233 177.676 205.807 179.365V176.112H203.419V177.289Z" fill="#5C88C6"/>
<path d="M227.233 176.127H224.845V200.297H227.233V176.127Z" fill="#76A4D7"/>
<path d="M224.845 177.289C224.845 177.289 226.659 177.676 227.233 179.365V176.112H224.845V177.289Z" fill="#5C88C6"/>
<path d="M305.401 153.167H235.682V167.328H305.401V153.167Z" fill="#6B95CE"/>
<path opacity="0.8" d="M235.682 167.328V153.167H254.1L248.364 167.328H235.682Z" fill="#9BCCEE"/>
<path d="M257.015 167.328L263.34 153.167H287.184L280.828 167.328H257.015Z" fill="#76A4D7"/>
<path d="M272.983 171.79C267.092 172.208 261.263 174.284 256.286 177.817L253.495 179.66C251.743 180.574 248.364 182.542 247.992 184.417H278.146V171.697C275.464 171.697 273.665 171.743 272.999 171.79H272.983Z" fill="#A7C6E8"/>
<path d="M634.816 200.839H-94.2607V420.147H634.816V200.839Z" fill="#B5C569"/>
<path d="M634.816 511.852H-94.2607V243.136L270.286 201.18L634.816 282.877V511.852Z" fill="white"/>
<path d="M634.816 511.852H-94.2607V245.786L270.286 201.18L634.816 292.142V511.852Z" fill="#A39EA1"/>
<path d="M634.816 511.852H-94.2607V263.479L270.286 201.18L634.816 323.097V511.852Z" fill="#F5BF1F"/>
<path d="M634.816 511.852H-94.2607V267.461L270.286 201.18L634.816 336.344V511.852Z" fill="#484B4F"/>
<path d="M246.597 228.743L238.736 237.899H242.163L249.186 228.743H246.597Z" fill="#ECEBE6"/>
<path d="M253.759 220.423L248.101 226.992H250.519L255.558 220.423H253.759Z" fill="#ECEBE6"/>
<path d="M270.286 201.18L264.395 208.028H265.046L270.286 201.18Z" fill="#ECEBE6"/>
<path d="M263.806 208.71L260.069 213.064H261.186L264.519 208.71H263.806Z" fill="#ECEBE6"/>
<path d="M259.139 214.148L255.154 218.781H256.798L260.348 214.148H259.139Z" fill="#ECEBE6"/>
<path d="M234.984 242.269L222.985 256.228H228.148L238.829 242.269H234.984Z" fill="#ECEBE6"/>
<path d="M212.117 268.87L178.428 308.099L184.599 313.104L218.458 268.87H212.117Z" fill="#ECEBE6"/>
<path d="M189.761 220.423L162.227 226.992H167.204L193.466 220.423H189.761Z" fill="#ECEBE6"/>
<path d="M238.768 208.71L220.536 213.064H222.815L240.209 208.71H238.768Z" fill="#ECEBE6"/>
<path d="M270.286 201.18L241.62 208.028H242.938L270.286 201.18Z" fill="#ECEBE6"/>
<path d="M215.978 214.148L196.599 218.781H199.994L218.474 214.148H215.978Z" fill="#ECEBE6"/>
<path d="M154.925 228.743L116.57 237.899H123.655L160.227 228.743H154.925Z" fill="#ECEBE6"/>
<path d="M98.3068 242.269L39.8901 256.228H50.4944L106.229 242.269H98.3068Z" fill="#ECEBE6"/>
<path d="M270.286 201.18L-42.5722 337.971L-45.6729 330.658L270.286 201.18Z" fill="#F5BF1F"/>
<path d="M270.286 201.18L-46.5723 324.089L-48.4482 319.131L270.286 201.18Z" fill="#F5BF1F"/>
<path d="M634.816 297.239H-94.2607V511.852H634.816V297.239Z" fill="#3A3C3D"/>
<path d="M634.816 375H-94.2607V402.175H634.816V375Z" fill="#39494D"/>
<path d="M634.816 261.48H-94.2607V292.529H634.816V261.48Z" fill="#363361"/>
<path d="M634.816 270.745H-94.2607V317.024H634.816V270.745Z" fill="#5E6978"/>
<path d="M-94.2607 402.19V511.867H446.342L442.931 502.463C420.932 441.791 368.903 402.19 311.168 402.19H-94.2453H-94.2607Z" fill="#2E2C2D"/>
<path d="M-87.6567 317.658C56.6176 265.709 204.179 265.709 355.058 317.658V371.637H-87.6567V317.658Z" fill="#3A3C3D"/>
<path d="M-63.4247 337.831C64.4626 283.667 195.652 283.682 330.144 338.094C345.182 344.183 355.027 358.793 355.027 375.015H-87.6875V374.488C-87.6875 358.53 -78.1529 344.075 -63.4402 337.847L-63.4247 337.831Z" fill="#2E2C2D"/>
<path d="M-71.1919 368.384C-68.3858 363.225 -63.8898 359.042 -58.2466 356.656C3.68941 330.425 67.2377 317.117 130.631 317.117C194.024 317.117 259.759 330.534 325.183 356.996C330.842 359.289 335.384 363.349 338.283 368.384H-71.1764H-71.1919Z" fill="#39494D"/>
<path d="M634.816 422.843H507.549C479.24 422.843 459.411 455.657 468.744 487.031L476.139 511.867H634.801V422.843H634.816Z" fill="#39494D"/>
<path d="M129.639 362.279H115.05C115.05 361.644 115.019 361.024 114.957 360.42L129.453 358.871C129.577 359.986 129.639 361.133 129.639 362.279ZM54.1219 362.279H39.5332C39.5332 361.365 39.5642 360.451 39.6262 359.568L54.1683 360.622C54.1218 361.164 54.1064 361.722 54.1064 362.279H54.1219ZM114.166 356.888C113.965 356.33 113.732 355.772 113.469 355.214L126.585 348.862C127.096 349.916 127.546 351 127.918 352.085L114.151 356.888H114.166ZM54.8196 356.81L40.758 352.952C41.0681 351.852 41.4246 350.752 41.8432 349.699L55.4087 355.059C55.1761 355.633 54.9901 356.221 54.8196 356.826V356.81ZM111.5 352.116C111.112 351.62 110.678 351.14 110.229 350.659L120.709 340.527C121.5 341.332 122.244 342.185 122.926 343.052L111.5 352.1V352.116ZM57.1295 351.806L45.0679 343.61C45.7036 342.665 46.4012 341.751 47.1298 340.883L58.2613 350.303C57.8582 350.783 57.4706 351.279 57.1295 351.79V351.806ZM107.174 348.025C106.632 347.623 106.027 347.235 105.423 346.848L113.112 334.469C114.027 335.042 114.926 335.631 115.763 336.251L107.19 348.041L107.174 348.025ZM61.0518 347.638L51.9824 336.22C52.8351 335.553 53.7343 334.903 54.649 334.298L62.6798 346.461C62.1217 346.832 61.5635 347.235 61.0518 347.638ZM101.593 344.834C100.927 344.54 100.229 344.245 99.5312 343.982L104.709 330.363C105.671 330.719 106.632 331.122 107.547 331.541L101.593 344.834ZM66.323 344.447L60.2613 331.2C61.1915 330.766 62.1682 330.363 63.1604 329.991L68.3075 343.625C67.6254 343.889 66.9587 344.168 66.323 344.447ZM95.2369 342.618C94.4927 342.432 93.7485 342.246 93.0044 342.092L95.981 327.822C96.9732 328.024 97.9344 328.256 98.9112 328.504L95.2369 342.603V342.618ZM72.5399 342.324L69.0827 328.163C70.0594 327.915 71.0671 327.714 72.0593 327.528L74.7414 341.859C73.9972 341.999 73.2686 342.154 72.5399 342.324ZM88.4619 341.379C87.7022 341.301 86.927 341.224 86.1673 341.177L87.0666 326.629C88.0588 326.691 89.0665 326.769 90.0587 326.877L88.4773 341.363L88.4619 341.379ZM79.2529 341.255L78.0746 326.722C79.0668 326.645 80.0745 326.583 81.0668 326.552L81.5629 341.115C80.7877 341.146 80.0281 341.193 79.2529 341.255Z" fill="#5F9E5E"/>
<path d="M98.5083 354.703H70.6797V362.295H98.5083V354.703Z" fill="#5F9E5E"/>
<path d="M141.08 362.295C141.08 361.381 141.111 360.467 141.173 359.568L155.716 360.622C155.669 361.164 155.654 361.706 155.654 362.279H141.065L141.08 362.295ZM231.171 362.279H216.582C216.582 361.644 216.551 361.024 216.489 360.42L230.985 358.871C231.109 359.986 231.171 361.133 231.171 362.279ZM215.698 356.888C215.497 356.33 215.264 355.772 215.001 355.214L228.116 348.862C228.628 349.916 229.078 351 229.45 352.085L215.683 356.888H215.698ZM156.367 356.81L142.305 352.952C142.615 351.852 142.972 350.752 143.39 349.699L156.956 355.059C156.723 355.633 156.537 356.221 156.367 356.826V356.81ZM213.032 352.116C212.644 351.62 212.21 351.14 211.76 350.659L222.241 340.527C223.031 341.332 223.775 342.185 224.458 343.052L213.032 352.1V352.116ZM158.677 351.79L146.615 343.61C147.251 342.68 147.948 341.766 148.693 340.883L159.824 350.303C159.421 350.783 159.033 351.279 158.692 351.79H158.677ZM208.706 348.025C208.164 347.623 207.559 347.235 206.954 346.848L214.644 334.469C215.559 335.042 216.458 335.631 217.295 336.251L208.722 348.041L208.706 348.025ZM162.584 347.638L153.514 336.22C154.367 335.553 155.266 334.903 156.181 334.298L164.211 346.461C163.653 346.832 163.095 347.235 162.584 347.638ZM203.125 344.834C202.458 344.539 201.761 344.245 201.063 343.982L206.241 330.363C207.202 330.719 208.164 331.122 209.078 331.541L203.125 344.834ZM167.87 344.447L161.808 331.2C162.739 330.766 163.715 330.363 164.708 329.991L169.855 343.625C169.173 343.889 168.506 344.168 167.87 344.447ZM196.769 342.618C196.024 342.432 195.28 342.246 194.536 342.092L197.513 327.822C198.505 328.024 199.466 328.256 200.443 328.504L196.769 342.603V342.618ZM174.072 342.324L170.614 328.163C171.591 327.915 172.599 327.714 173.591 327.528L176.273 341.859C175.529 341.999 174.8 342.154 174.072 342.324ZM189.994 341.379C189.234 341.301 188.459 341.224 187.699 341.177L188.598 326.629C189.59 326.691 190.598 326.769 191.59 326.877L190.009 341.363L189.994 341.379ZM180.785 341.255L179.606 326.722C180.599 326.645 181.606 326.583 182.598 326.552L183.095 341.115C182.319 341.146 181.56 341.193 180.785 341.255Z" fill="#5F9E5E"/>
<path d="M200.04 354.703H172.211V362.295H200.04V354.703Z" fill="#5F9E5E"/>
<path d="M634.816 341.704H455.939C438.807 341.704 427.536 359.568 434.916 375.015H634.816V341.704Z" fill="#2E2C2D"/>
<path d="M439.908 369.7C438.59 364.882 439.319 359.707 442.047 355.385C445.365 350.132 451.055 347.003 457.272 347.003H634.832V369.716H439.908V369.7Z" fill="#5F9E5E"/>
<path d="M565.346 357.027H463.364C461.907 357.027 460.713 355.834 460.713 354.378C460.713 352.922 461.907 351.729 463.364 351.729H565.346C566.803 351.729 567.997 352.922 567.997 354.378C567.997 355.834 566.803 357.027 565.346 357.027Z" fill="#47794E"/>
<path d="M538.835 365.331H463.364C461.907 365.331 460.713 364.138 460.713 362.682C460.713 361.226 461.907 360.033 463.364 360.033H538.835C540.292 360.033 541.486 361.226 541.486 362.682C541.486 364.138 540.292 365.331 538.835 365.331Z" fill="#47794E"/>
<path d="M132.972 324.615H120.817V331.773H132.972V324.615Z" fill="#5F9E5E"/>
<path d="M114.461 328.194L125.561 335.305V321.067L114.461 328.194Z" fill="#5F9E5E"/>
<path d="M136.786 331.757H148.94V324.599H136.786V331.757Z" fill="#2E2C2D"/>
<path d="M155.297 328.194L144.196 335.305V321.067L155.297 328.194Z" fill="#2E2C2D"/>
<path d="M54.8352 511.852C31.239 490.192 16.4178 459.128 16.4178 424.671C16.4178 359.398 69.5479 306.303 134.864 306.303C200.179 306.303 253.309 359.398 253.309 424.671C253.309 459.128 238.488 490.192 214.892 511.852H250.891C269.216 487.559 280.084 457.362 280.084 424.671C280.084 344.648 214.938 279.546 134.848 279.546C54.7576 279.546 -10.3721 344.648 -10.3721 424.671C-10.3721 457.362 0.495822 487.559 18.8208 511.852H54.8196H54.8352Z" fill="#52566A"/>
<path d="M10.0302 380.283C9.67358 380.283 9.317 380.221 8.96042 380.112C7.22404 379.524 6.29384 377.649 6.88297 375.914C25.518 321.129 76.9428 284.333 134.879 284.333C192.815 284.333 244.24 321.129 262.875 375.914C263.464 377.649 262.534 379.524 260.797 380.112C259.061 380.701 257.185 379.771 256.596 378.036C238.875 325.948 189.962 290.948 134.879 290.948C79.7954 290.948 30.8822 325.948 13.1618 378.036C12.6967 379.415 11.41 380.283 10.0302 380.283Z" fill="#5E6978"/>
<path d="M258.115 453.21C175.808 472.701 93.5934 472.685 11.4565 453.21V401.881C93.7174 388.045 175.932 388.045 258.115 401.881V453.21Z" fill="#52566A"/>
<path d="M196.707 455.131L193.42 464.504C212.024 462.413 230.628 459.33 249.248 455.224L253.976 440.676C256.224 433.781 251.077 426.701 243.821 426.701H236.798C218.752 426.701 202.675 438.088 196.707 455.115V455.131Z" fill="#474660"/>
<path d="M31.6263 426.717H26.3087C19.0531 426.717 13.9215 433.782 16.154 440.676L20.9135 455.364C38.9284 459.315 56.9589 462.305 74.9893 464.381L71.718 455.085C65.7337 438.089 49.6722 426.717 31.6418 426.717H31.6263Z" fill="#474660"/>
<path d="M264.751 413.981L262.162 409.24C259.588 404.546 254.968 401.338 249.682 400.517C173.08 388.494 96.4308 388.525 19.7512 400.548C14.511 401.369 9.98405 404.607 7.426 409.255L4.83691 413.996C91.4698 408.45 178.118 408.45 264.751 413.996V413.981Z" fill="#5E6978"/>
<path d="M180.521 511.852L201.978 435.796H67.5947L89.0513 511.852H180.521Z" fill="#52566A"/>
<path d="M134.879 469.648C118.911 469.648 105.935 456.665 105.935 440.722C105.935 424.779 118.926 411.796 134.879 411.796C150.832 411.796 163.824 424.779 163.824 440.722C163.824 456.665 150.832 469.648 134.879 469.648ZM134.879 415.778C121.112 415.778 109.903 426.98 109.903 440.738C109.903 454.496 121.112 465.697 134.879 465.697C148.646 465.697 159.855 454.496 159.855 440.738C159.855 426.98 148.646 415.778 134.879 415.778Z" fill="#474660"/>
<path d="M-26.5888 437.856C12.5418 430.358 39.2851 423.401 53.2847 401.788C42.3548 361.939 15.6114 354.347 14.4176 322.788C-8.51185 337.057 -23.8912 345.222 -36.5419 367.47C-40.5108 374.458 -41.5495 382.747 -39.4411 390.509L-26.5888 437.841V437.856Z" fill="#E2AE8C"/>
<path d="M29.2542 384.017L53.2845 401.787C56.3232 393.034 58.9587 383.831 61.2532 374.24C63.2376 365.951 62.9431 357.275 60.5246 349.11L56.5712 335.786C51.7187 340.14 47.1606 344.787 43.0522 349.9C42.6336 358.282 36.4323 370.801 29.2388 384.032L29.2542 384.017Z" fill="#E2AE8C"/>
<path d="M30.4794 323.67C30.4794 323.67 24.2315 330.41 22.3091 333.88C20.3712 337.366 19.503 340.697 19.7045 343.889C20.0301 349.002 16.1388 353.417 11.0227 353.743C5.90655 354.068 1.48806 350.179 1.16249 345.067C1.16249 344.85 1.14697 344.648 1.14697 344.447V344.137C1.17798 340.573 1.79812 336.994 2.89886 333.725C3.9841 330.441 5.50344 327.451 7.22432 324.755C10.6971 319.363 14.759 316.079 18.9914 312.345C22.4641 309.293 30.2623 310.935 32.5568 312.871C34.8358 314.793 36.8358 317.504 36.8358 317.504L30.4949 323.701L30.4794 323.67Z" fill="#E2AE8C"/>
<path d="M-72.2153 488.132L3.65819 492.888L43.967 396.985L-9.73675 399.82L-72.2153 488.132Z" fill="#E2AE8C"/>
<path d="M9.13103 511.852L22.4639 477.441C39.5796 440.412 -28.5422 408.976 -45.6424 446.021L-89.6875 511.852H9.1465H9.13103Z" fill="#ECEBE6"/>
<path d="M18.4485 511.852L21.7043 503.021C40.1533 462.119 -43.0223 422.936 -61.4713 463.839L-94.23 511.852H18.4485Z" fill="#39748E"/>
<path d="M298.284 440.226C259.154 432.727 232.41 425.771 218.411 404.158C229.341 364.309 256.084 356.717 257.278 325.157C280.207 339.427 295.586 347.592 308.237 369.84C312.206 376.828 313.245 385.117 311.136 392.879L298.284 440.211V440.226Z" fill="#E2AE8C"/>
<path d="M242.441 386.387L218.411 404.158C215.372 395.404 212.737 386.201 210.442 376.611C208.458 368.322 208.752 359.646 211.171 351.481L215.124 338.157C219.977 342.51 224.535 347.158 228.643 352.271C229.062 360.653 235.263 373.172 242.457 386.403L242.441 386.387Z" fill="#E2AE8C"/>
<path d="M241.217 326.025C241.217 326.025 247.465 332.765 249.387 336.235C251.325 339.721 252.193 343.052 251.992 346.244C251.666 351.357 255.557 355.772 260.673 356.098C265.79 356.423 270.208 352.534 270.534 347.421C270.534 347.205 270.549 347.003 270.549 346.802V346.492C270.518 342.928 269.898 339.35 268.797 336.08C267.712 332.796 266.193 329.806 264.472 327.11C260.999 321.718 256.937 318.434 252.705 314.7C249.232 311.647 241.434 313.29 239.139 315.226C236.86 317.148 234.86 319.859 234.86 319.859L241.201 326.056L241.217 326.025Z" fill="#E2AE8C"/>
<path d="M343.911 490.486L268.037 495.258L227.729 399.339L281.432 402.175L343.911 490.486Z" fill="#E2AE8C"/>
<path d="M261.665 511.852H359.833L317.369 448.376C300.253 411.347 232.147 442.768 249.263 479.796L261.681 511.852H261.665Z" fill="#ECEBE6"/>
<path d="M252.379 511.852H364.313L333.152 466.193C314.702 425.291 231.527 464.474 249.976 505.376L252.363 511.852H252.379Z" fill="#39748E"/>
</g>
<path d="M52.3487 28.6763C52.2564 28.8454 52.1949 29.0144 52.1335 29.1681H56.8984V30.3363C57.0213 30.1672 57.1289 29.9981 57.2672 29.8137C57.713 29.1681 58.0664 28.5687 58.3277 28L60.5257 28.6609C60.4642 28.8146 60.4027 28.9376 60.3566 29.0759H66.5814V31.0125H63.5074C63.7687 31.3199 63.9992 31.5966 64.2451 31.8579L62.9541 32.6264H64.8292V41.9561H61.9704V42.7092H66.6891V44.8149H61.9704V47.6738H59.542V44.8149H54.5005C54.2392 45.2453 53.9164 45.6295 53.5168 46.0138C52.61 46.813 51.4726 47.474 50.1201 47.9965L48.875 45.9062C49.9048 45.5681 50.7042 45.1992 51.2882 44.8149H47.5993V42.7092H52.4871V41.9561H49.3669V33.2105C49.2747 33.3027 49.244 33.3334 49.1979 33.3795L47.1997 31.8579C47.8453 31.3199 48.4293 30.6898 48.9212 29.9827C49.4437 29.2911 49.8434 28.6302 50.1201 28L52.4102 28.6609L52.3487 28.6763ZM52.8098 32.6418C52.5486 32.1192 52.2718 31.612 51.9644 31.1201H51.0422C51.0422 31.1201 50.9807 31.1816 50.9807 31.2124C50.6118 31.7657 50.243 32.2422 49.8895 32.6571H52.8252L52.8098 32.6418ZM62.4469 35.2393V34.6399H51.6879V35.2393H62.4469ZM62.4469 37.5909V37.0069H51.6879V37.5909H62.4469ZM62.4469 39.9426V39.3585H51.6879V39.9426H62.4469ZM57.2211 32.6418L55.8069 31.5505C55.9606 31.4275 56.1144 31.2738 56.2527 31.1201H54.6388C54.8079 31.3507 54.977 31.5659 55.1307 31.781L53.7166 32.6418H57.2211ZM59.5112 41.9561H54.9617V42.7092H59.5112V41.9561ZM61.8013 32.6418C61.4632 32.0885 61.1098 31.5505 60.7409 31.0279H59.2806C58.8964 31.6581 58.5121 32.1961 58.1125 32.6418H61.8013Z" fill="#595757"/>
<path d="M73.9589 28.6763C73.8052 29.7061 73.6515 30.7052 73.5131 31.6274H77.3249C77.2173 34.271 76.8945 36.7456 76.3566 39.0511C76.1414 39.9272 75.9109 40.7111 75.6496 41.4028C76.5103 42.1713 77.3557 43.0013 78.1703 43.8159L76.495 45.6757C75.8495 44.9379 75.2192 44.277 74.6044 43.6468C74.4814 43.862 74.3279 44.0772 74.1895 44.2462C73.2366 45.6295 72.099 46.7823 70.7618 47.7814L69.4246 45.937C70.562 45.0762 71.5303 44.0618 72.3142 42.8783C72.4833 42.6477 72.6833 42.3557 72.8523 42.0637C72.422 41.7255 71.9915 41.372 71.5765 41.0339C71.4689 41.4181 71.3614 41.7716 71.2692 42.0637L68.9944 41.5718C69.6861 39.1895 70.27 36.6226 70.7618 33.9021H68.9175V31.6427H71.1615C71.3305 30.5668 71.4843 29.4602 71.6073 28.3535L73.9743 28.6917L73.9589 28.6763ZM74.1741 38.7899C74.5584 37.1299 74.8351 35.5006 74.9734 33.8868H73.1289C72.8061 35.6697 72.4833 37.2682 72.1606 38.6822C72.7139 39.0972 73.2827 39.4969 73.8207 39.8811C73.9436 39.543 74.0512 39.1741 74.1895 38.7899H74.1741ZM87.8228 28.9376V31.1048C86.793 32.8109 85.5786 34.271 84.2107 35.5006V36.8378H88.3454V39.1895H84.2107V44.9225C84.2107 45.9984 83.9802 46.7055 83.5037 47.0282C82.9811 47.4125 82.1051 47.6123 80.8601 47.6123C80.1992 47.6123 79.5689 47.5508 79.0156 47.4432L78.6007 44.8457C79.3385 45.1223 80.0916 45.2607 80.8601 45.2607C81.1214 45.2607 81.3519 45.2146 81.5671 45.1377C81.69 45.0147 81.7823 44.7227 81.7823 44.3385V39.2202H77.2328V36.8686H81.7823V33.5794L82.766 33.6408C83.5191 32.9799 84.2261 32.1961 84.8717 31.32H77.8936V28.9683H87.8228V28.9376Z" fill="#595757"/>
<path d="M92.8803 31.7042V28.3228H95.3089V31.7042H97.4146V34.1327H95.3089V37.1299C95.893 36.9608 96.4463 36.761 96.9842 36.5765L97.4146 38.8513C96.723 39.1587 96.0313 39.4507 95.3089 39.7428V44.4768C95.3089 45.7218 95.1397 46.5364 94.7862 46.9975C94.3712 47.5201 93.649 47.766 92.6192 47.766C91.9736 47.766 91.3895 47.6738 90.8516 47.5047L90.4211 44.984C91.0206 45.1992 91.6509 45.3068 92.2657 45.3068C92.4962 45.3068 92.6498 45.2145 92.7421 45.0301C92.8343 44.7996 92.8649 44.3999 92.8649 43.8927V40.5728C92.3424 40.7418 91.8351 40.8955 91.3279 41.0185L90.4058 38.4209C91.2511 38.2519 92.0657 38.0367 92.8649 37.8215V34.1327H90.4058V31.7042H92.8649H92.8803ZM109.019 30.4438C108.066 30.7512 106.913 30.9972 105.561 31.1816C105.561 32.5188 105.607 33.7023 105.653 34.7321H109.526V37.0991H105.807C105.853 37.76 105.899 38.3441 105.976 38.8667C106.145 40.5266 106.452 41.9714 106.837 43.2164C107.052 43.9081 107.205 44.2462 107.328 44.2462C107.374 44.2462 107.42 44.0925 107.497 43.7544C107.59 43.2779 107.62 42.617 107.666 41.8024L110.095 42.7246C109.68 44.5844 109.188 45.7525 108.589 46.2751C108.204 46.6593 107.774 46.8592 107.252 46.8592C106.775 46.8592 106.299 46.4903 105.837 45.7832C105.038 44.5536 104.439 42.8475 104.008 40.6957C103.747 39.6659 103.563 38.4824 103.424 37.0991H100.258V41.6025C101.395 41.4027 102.471 41.1876 103.47 40.957L103.885 43.1549C101.903 43.7544 99.7354 44.2923 97.3377 44.7534L96.4925 42.2327C96.9843 42.1713 97.4607 42.1098 97.9064 42.0176V29.4448C99.9967 29.3833 101.78 29.245 103.24 29.0605C104.7 28.8915 105.93 28.6455 106.898 28.3535L109.004 30.4592L109.019 30.4438ZM105.146 45.0762V47.4278H96.7229V45.0762H105.146ZM103.055 31.4583C102.195 31.5505 101.242 31.6273 100.258 31.6735V34.7321H103.209C103.117 33.7177 103.086 32.6264 103.055 31.4583Z" fill="#595757"/>
<path d="M116.304 37.1607V43.401C117.226 44.2617 118.302 44.7382 119.516 44.8458C120.423 45.061 122.637 45.1686 126.187 45.1686C128.277 45.1686 130.06 45.0456 131.52 44.7382C131.075 45.5989 130.706 46.5058 130.445 47.5202H123.928C121.607 47.5202 119.747 47.305 118.348 46.89C117.334 46.5672 116.35 45.9371 115.382 44.9995C114.69 45.9063 113.983 46.8285 113.292 47.7815C112.738 46.8285 112.17 45.9678 111.616 45.1686C112.415 44.7382 113.184 44.2925 113.968 43.816V39.789H112.123V37.1607H116.319H116.304ZM116.396 34.4709L114.721 36.5767C113.86 35.6698 112.984 34.8706 112.031 34.225L113.799 32.3652C114.752 32.9647 115.628 33.6563 116.412 34.4556L116.396 34.4709ZM117.226 30.3518L115.551 32.4575C114.675 31.5352 113.737 30.736 112.769 30.0905L114.444 28.3229C115.459 28.9069 116.381 29.5679 117.226 30.3518ZM123.052 29.3373V28.1538H125.403V29.3373H130.291V31.443H125.403V32.2884H131.213V34.3941H128.585C128.523 34.5632 128.462 34.763 128.416 34.9474C128.37 35.1165 128.324 35.2548 128.293 35.3778H130.614V37.4835H125.403V38.2366H129.861V40.3423H125.403V41.0955H130.875V43.2012H125.403V44.6152H123.052V43.2012H117.58V41.0955H123.052V40.3423H118.594V38.2366H123.052V37.4835H117.841V35.3778H120.377L120.101 34.3941H117.488V32.2884H123.036V31.443H118.41V29.3373H123.036H123.052ZM125.91 35.3932C125.956 35.2241 126.018 35.055 126.08 34.8706C126.126 34.7169 126.172 34.5632 126.202 34.3941H122.483L122.79 35.3778H125.91V35.3932Z" fill="#595757"/>
<path d="M140.512 45.3989H138.16V44.2308H136.131V45.9983H133.78V29.6753H140.497V45.3989H140.512ZM138.176 35.7311V31.9347H136.147V35.7311H138.176ZM138.176 41.956V37.929H136.147V41.956H138.176ZM145.584 30.0903V28.2458H148.013V30.0903H152.639V32.4573H148.013V34.4554H152.301V36.8224H150.702V38.4977H152.639V40.8494H150.702V44.5536C150.702 45.8293 150.502 46.6439 150.118 46.982C149.688 47.4278 148.95 47.6737 147.92 47.6737C147.167 47.6737 146.476 47.5815 145.83 47.4124L145.4 44.8149C146.245 45.0915 147.075 45.2298 147.92 45.2298C148.089 45.2298 148.182 44.8917 148.182 44.1539V40.8647H141.035V38.5131H148.182V36.8377H141.526V34.4707H145.569V32.4726H141.019V30.1056H145.569L145.584 30.0903ZM145.231 43.9849L142.879 44.9993C142.572 44.0156 142.218 43.1088 141.788 42.3095L143.986 41.2951C144.462 42.1097 144.893 43.0165 145.231 43.9849Z" fill="#595757"/>
<path d="M164.151 36.8379H157.926V47.7815H155.575V28.5073H164.151V36.8379ZM161.8 31.6275V30.7821H157.926V31.6275H161.8ZM161.8 34.5478V33.7024H157.926V34.5478H161.8ZM173.819 28.5073V44.6613C173.819 46.6902 172.897 47.6892 171.037 47.6892C170.407 47.6892 169.685 47.597 168.855 47.428L168.532 45.8294H162.03V46.6748H159.771V37.6833H169.346V45.1685C169.777 45.2761 170.207 45.3223 170.622 45.3223C171.114 45.3223 171.375 44.7997 171.375 43.7237V36.8379H165.319V28.5073H173.804H173.819ZM167.102 40.7112V39.8505H162.045V40.7112H167.102ZM167.102 43.6315V42.7093H162.045V43.6315H167.102ZM171.375 31.6275V30.7821H167.502V31.6275H171.375ZM171.375 33.7178H167.502V34.5632H171.375V33.7178Z" fill="#595757"/>
<path d="M195.153 29.0144V31.2738H187.253V32.6879H193.985V40.6188H195.922V42.8783H193.985V44.7227C193.985 46.6901 193.017 47.6738 191.126 47.6738C190.358 47.6738 189.451 47.5508 188.436 47.3356L187.945 44.8149C189.113 45.153 190.158 45.3067 191.126 45.3067C191.341 45.3067 191.464 44.9225 191.464 44.1386V42.8629H180.782V47.6584H178.246V42.8629H176.386V40.6035H178.246V32.6725H184.732V31.2584H177.17V28.999H195.153V29.0144ZM184.732 36.5765V34.978H180.797V36.5765H184.732ZM184.732 40.6188V38.8513H180.797V40.6188H184.732ZM187.253 36.5765H191.48V34.978H187.253V36.5765ZM191.48 40.6188V38.8513H187.253V40.6188H191.48Z" fill="#595757"/>
<path d="M202.376 29.6907V35.1625H206.511V28.3381H208.939V35.1625H213.074V29.7829H215.502V37.4219H208.939V44.3077H214.058V38.9282H216.517V47.6891H214.058V46.6747H201.377V47.766H198.918V38.9128H201.377V44.2923H206.496V37.4065H199.932V29.6753H202.361L202.376 29.6907Z" fill="#595757"/>
<path d="M224.571 32.7494C225.416 32.1653 226.17 31.5197 226.815 30.7973H220.544V28.5994H229.966V29.414C230.35 29.7214 230.735 29.9981 231.134 30.2287C232.102 29.7522 233.009 29.1066 233.824 28.3381L235.592 29.7829C234.885 30.4746 234.101 31.074 233.271 31.5966C233.609 31.8118 233.978 32.027 234.346 32.196C235.192 31.7042 235.96 31.0586 236.698 30.2748L238.635 31.781C238.035 32.3805 237.405 32.9184 236.744 33.3488C237.59 33.733 238.404 34.0558 239.219 34.3171L237.974 36.5765C237.113 36.2538 236.268 35.8849 235.453 35.4545V36.1615C235.453 36.6995 235.499 37.0222 235.622 37.1145C235.684 37.1606 235.776 37.1606 235.899 37.1606C235.96 37.1606 236.053 37.1606 236.129 37.1452C236.191 37.1452 236.252 37.1299 236.299 37.0837C236.345 36.9915 236.391 36.761 236.421 36.3306L238.712 37.4219C238.619 38.3287 238.374 38.882 237.897 39.0972C237.667 39.2048 237.405 39.2663 237.098 39.3124C236.667 39.3585 236.252 39.3585 235.899 39.3585C234.869 39.3585 234.224 39.2509 233.978 39.0204C233.378 38.9128 233.071 38.1596 233.071 36.761V36.1769H231.503C231.38 37.2374 231.119 38.0059 230.735 38.4824C230.396 39.005 229.828 39.4046 229.105 39.712H237.805V41.3874C237.144 42.6631 236.36 43.6929 235.499 44.4614C236.452 44.7995 237.544 45.0608 238.819 45.2299L237.897 47.6891C236.083 47.3817 234.546 46.8745 233.209 46.1214C231.857 46.8591 230.32 47.4125 228.644 47.7813L227.461 45.5834C228.875 45.3529 230.104 44.9994 231.165 44.569C230.427 43.8312 229.782 42.9244 229.228 41.8792H228.245V39.6967H228.66L227.737 37.9906V40.0194H223.188L223.034 41.1107H227.983C227.783 44.1233 227.384 45.983 226.754 46.7054C226.2 47.351 225.401 47.6738 224.371 47.6738C223.71 47.6738 222.957 47.5815 222.097 47.4125L221.512 44.8918C222.481 45.0608 223.295 45.1531 223.941 45.1531C224.433 45.1531 224.786 45.0608 225.002 44.8918C225.309 44.6766 225.524 44.1386 225.647 43.2933H222.757L222.696 43.7083H220.329L221.021 37.8369H225.386V36.4843H223.28V36.0539C222.204 36.5765 221.128 36.93 220.098 37.1452L219.345 35.2239C220.329 34.9627 221.282 34.5938 222.235 34.1327C221.82 33.7023 221.39 33.2873 220.944 32.857L223.126 31.3507C223.649 31.781 224.141 32.2268 224.633 32.734L224.571 32.7494ZM228.736 36.7917C229.044 36.3613 229.182 35.4391 229.213 33.9636H232.825C231.549 33.2105 230.366 32.4112 229.274 31.5505C228.244 32.6725 227.23 33.5793 226.2 34.3017H227.691V37.5756C228.137 37.4065 228.49 37.1298 228.752 36.7763L228.736 36.7917ZM233.332 43.3547C233.931 42.9244 234.454 42.4326 234.884 41.8639H231.78C232.256 42.4633 232.763 42.9551 233.332 43.3547Z" fill="#595757"/>
<path d="M249.824 41.7256L249.01 40.327C249.655 40.0657 250.239 39.6199 250.747 38.9283H249.179V35.8542H252.468V38.0061C252.468 39.5738 251.592 40.8188 249.824 41.7256Z" fill="#595757"/>
<path d="M275.185 44.9071C275.185 46.7516 274.202 47.6891 272.25 47.6891C271.696 47.6891 271.082 47.6277 270.405 47.5201L269.883 45.0916C270.743 45.3068 271.512 45.4144 272.25 45.4144C272.68 45.4144 272.911 45.0455 272.911 44.3231V30.8742H265.072V47.5354H262.812V28.6916H275.17V44.9225L275.185 44.9071ZM268.546 33.5486L267.162 34.148H269.114C269.498 33.1951 269.852 32.2114 270.129 31.197L272.388 31.8579C272.065 32.7186 271.743 33.4871 271.42 34.1327H272.649V36.1615H269.96V41.8639H270.544V37.2374H272.403V43.8005H267.454V44.5536H265.61V37.0838H267.454V41.8639H268.115V36.1615H265.333V34.1327H266.317C266.056 33.441 265.763 32.7494 265.41 32.1038L267.347 31.1816C267.792 31.8886 268.192 32.6725 268.53 33.5332L268.546 33.5486ZM278.213 30.5207V42.9705H275.939V30.5207H278.213ZM281.579 28.3228V44.5536C281.579 45.7371 281.426 46.5056 281.134 46.936C280.749 47.4125 280.104 47.6738 279.151 47.6738C278.306 47.6738 277.522 47.5508 276.784 47.3356L276.369 44.9071C277.183 45.1838 277.983 45.3221 278.797 45.3221C278.997 45.3221 279.12 45.2299 279.212 45.0608C279.274 44.8456 279.32 44.4768 279.32 43.9849V28.3381H281.579V28.3228Z" fill="#595757"/>
<path d="M296.703 44.9071C296.703 46.7516 295.72 47.6891 293.768 47.6891C293.215 47.6891 292.6 47.6277 291.923 47.5201L291.401 45.0916C292.262 45.3068 293.03 45.4144 293.768 45.4144C294.198 45.4144 294.429 45.0455 294.429 44.3231V30.8742H286.59V47.5354H284.331V28.6916H296.688V44.9225L296.703 44.9071ZM290.064 33.5486L288.68 34.148H290.632C291.017 33.1951 291.37 32.2114 291.647 31.197L293.906 31.8579C293.583 32.7186 293.261 33.4871 292.938 34.1327H294.167V36.1615H291.478V41.8639H292.062V37.2374H293.922V43.8005H288.972V44.5536H287.128V37.0838H288.972V41.8639H289.633V36.1615H286.851V34.1327H287.835C287.574 33.441 287.282 32.7494 286.928 32.1038L288.865 31.1816C289.31 31.8886 289.71 32.6725 290.048 33.5332L290.064 33.5486ZM299.731 30.5207V42.9705H297.457V30.5207H299.731ZM303.097 28.3228V44.5536C303.097 45.7371 302.944 46.5056 302.652 46.936C302.267 47.4125 301.622 47.6738 300.669 47.6738C299.824 47.6738 299.04 47.5508 298.302 47.3356L297.887 44.9071C298.702 45.1838 299.501 45.3221 300.316 45.3221C300.515 45.3221 300.638 45.2299 300.73 45.0608C300.792 44.8456 300.838 44.4768 300.838 43.9849V28.3381H303.097V28.3228Z" fill="#595757"/>
<path d="M310.659 28.6763C310.505 29.7061 310.352 30.7052 310.213 31.6274H314.025C313.918 34.271 313.595 36.7456 313.057 39.0511C312.842 39.9272 312.611 40.7111 312.35 41.4028C313.211 42.1713 314.056 43.0013 314.871 43.8159L313.195 45.6757C312.55 44.9379 311.919 44.277 311.305 43.6468C311.182 43.862 311.028 44.0772 310.89 44.2462C309.937 45.6295 308.799 46.7823 307.462 47.7814L306.125 45.937C307.262 45.0762 308.231 44.0618 309.014 42.8783C309.183 42.6477 309.383 42.3557 309.553 42.0637C309.122 41.7255 308.692 41.372 308.277 41.0339C308.169 41.4181 308.062 41.7716 307.969 42.0637L305.695 41.5718C306.386 39.1895 306.97 36.6226 307.462 33.9021H305.618V31.6427H307.862C308.031 30.5668 308.184 29.4602 308.307 28.3535L310.675 28.6917L310.659 28.6763ZM310.874 38.7899C311.259 37.1299 311.535 35.5006 311.674 33.8868H309.829C309.506 35.6697 309.184 37.2682 308.861 38.6822C309.414 39.0972 309.983 39.4969 310.521 39.8811C310.644 39.543 310.751 39.1741 310.89 38.7899H310.874ZM324.523 28.9376V31.1048C323.493 32.8109 322.279 34.271 320.911 35.5006V36.8378H325.046V39.1895H320.911V44.9225C320.911 45.9984 320.68 46.7055 320.204 47.0282C319.681 47.4125 318.805 47.6123 317.56 47.6123C316.899 47.6123 316.269 47.5508 315.716 47.4432L315.301 44.8457C316.039 45.1223 316.792 45.2607 317.56 45.2607C317.822 45.2607 318.052 45.2146 318.267 45.1377C318.39 45.0147 318.482 44.7227 318.482 44.3385V39.2202H313.933V36.8686H318.482V33.5794L319.466 33.6408C320.219 32.9799 320.926 32.1961 321.572 31.32H314.594V28.9683H324.523V28.9376Z" fill="#595757"/>
<path d="M329.903 47.1665H327.474V31.366H329.411C329.687 30.3362 329.903 29.3064 330.072 28.2458L332.592 28.8453C332.423 29.7521 332.224 30.5821 331.993 31.366H335.205V35.2239C335.743 34.317 336.22 33.3334 336.619 32.2267C337.219 30.828 337.68 29.4908 337.972 28.2458L340.493 29.0144C340.278 29.8136 340.062 30.5821 339.832 31.366H345.888C345.888 39.6044 345.611 44.3845 345.088 45.7063C344.673 47.1204 343.69 47.8581 342.122 47.8581C341.307 47.8581 340.493 47.7352 339.663 47.52L339.171 44.9071C340.37 45.1837 341.369 45.3221 342.122 45.3221C342.568 45.3221 342.875 44.9839 342.998 44.2923C343.228 43.0934 343.367 39.5736 343.367 33.7176H338.956C338.356 35.27 337.711 36.5765 336.973 37.6831L335.205 36.3766V46.3519H332.777V45.1837H329.918V47.1818L329.903 47.1665ZM332.762 37.3296V33.7176H329.903V37.3296H332.762ZM332.762 39.6044H329.903V42.8782H332.762V39.6044ZM341.753 41.5564L339.155 42.4017C338.848 40.6188 338.356 38.9742 337.711 37.514L340.078 36.7609C340.785 38.2057 341.353 39.7888 341.753 41.5564Z" fill="#595757"/>
<path d="M353.603 28.7686C353.511 29.0452 353.434 29.3065 353.342 29.5217H358.229V31.6581C358.568 31.2278 358.875 30.7513 359.136 30.2595C359.567 29.491 359.905 28.7685 360.151 28.1076L362.518 28.7686C362.425 29.0298 362.349 29.2911 362.256 29.5217H367.897V31.7196H364.731C364.992 32.0424 365.223 32.3498 365.469 32.6418L363.517 33.81H367.236V42.3096C367.236 44.277 366.329 45.2453 364.546 45.2453H362.933L362.441 42.7246C363.209 42.8476 363.901 42.8937 364.546 42.8937C364.762 42.8937 364.869 42.5095 364.869 41.7102V36.0847H362.011V47.6892H359.659V33.81H359.72L357.722 32.3037C357.891 32.1346 358.045 31.9348 358.199 31.7196H355.832C356.047 32.0578 356.262 32.3805 356.477 32.7033L354.648 33.7946H358.337V42.1252H352.035V44.4C353.157 44.277 354.202 44.1387 355.155 44.0157C355.032 43.8467 354.925 43.6468 354.786 43.4624L356.815 42.2174C357.676 43.4163 358.368 44.7074 358.921 46.0907L356.815 47.3357C356.646 46.8899 356.477 46.4596 356.277 46.0446C354.064 46.4596 351.666 46.7977 349.084 47.0744L348.654 44.7228C348.992 44.7074 349.346 44.6766 349.668 44.6305V33.7792H350.099L348.654 32.6879C349.238 32.0424 349.745 31.3046 350.191 30.4439C350.667 29.5985 351.005 28.8147 351.267 28.0769L353.634 28.7378L353.603 28.7686ZM354.279 33.7946C353.957 33.1029 353.588 32.3959 353.188 31.7043H352.389C352.005 32.5035 351.574 33.1952 351.144 33.7946H354.279ZM355.955 36.9147V35.9003H352.02V36.9147H355.955ZM355.955 40.0195V38.9282H352.02V40.0195H355.955ZM363.317 33.7946C362.902 33.0876 362.472 32.3959 362.041 31.7043H361.273C360.827 32.5189 360.366 33.2105 359.889 33.7946H363.317Z" fill="#595757"/>
<path d="M377.781 29.5216C377.889 29.0912 377.981 28.6762 378.058 28.2458L380.425 28.584C380.363 28.9221 380.302 29.2295 380.225 29.5062H388.156V31.6119H379.626C379.533 31.8732 379.426 32.1345 379.349 32.365H387.572V34.3939H383.652C383.914 34.732 384.144 35.0548 384.406 35.3161H388.986V37.4064H386.665C387.618 38.1442 388.709 38.759 389.923 39.2508L388.679 41.6793C387.218 40.9416 385.881 40.004 384.636 38.7898V40.419H380.594C380.578 40.7418 380.548 41.0184 380.532 41.2644H387.772V43.3701H382.653C383.068 43.6775 383.545 43.9541 384.067 44.1847C385.143 44.7073 386.604 45.1069 388.433 45.3682L387.157 47.8274C385.236 47.3817 383.606 46.7054 382.254 45.8293C381.301 45.2298 380.532 44.5228 379.933 43.6928C379.887 43.7543 379.871 43.8004 379.871 43.8158C379.272 44.8302 378.35 45.6448 377.089 46.275C375.814 46.9052 374.307 47.4124 372.54 47.8274L371.356 45.7217C372.955 45.3989 374.261 45.0147 375.291 44.5382C376.044 44.2 376.644 43.8004 377.074 43.3701H371.925V41.2644H378.088C378.135 41.0031 378.181 40.7264 378.196 40.419H374.615V38.9281C373.585 39.8349 372.417 40.6342 371.172 41.3412L369.758 39.4046C370.834 38.759 371.802 38.0673 372.663 37.3757H370.342V35.2854H374.799C375.061 34.9779 375.322 34.6859 375.537 34.3632H371.94V32.3343H376.767C376.89 32.073 376.997 31.8425 377.105 31.5812H371.356V29.4754H377.796L377.781 29.5216ZM384.129 38.344C383.806 38.0366 383.53 37.7139 383.268 37.4218H376.229C375.921 37.76 375.629 38.0674 375.322 38.344H384.129ZM381.086 34.4093H378.38C378.181 34.7474 377.996 35.0548 377.827 35.3315H381.685C381.47 35.0241 381.27 34.7013 381.101 34.4093H381.086Z" fill="#595757"/>
<path d="M400.452 41.7256L399.637 40.327C400.283 40.0657 400.867 39.6199 401.374 38.9283H399.806V35.8542H403.095V38.0061C403.095 39.5738 402.219 40.8188 400.452 41.7256Z" fill="#595757"/>
<path d="M419.849 31.4583V33.8099H413.193V31.4583H419.849ZM419.418 43.739C420.218 43.5699 421.048 43.3086 421.939 42.9705C422.001 42.9551 422.062 42.9244 422.154 42.8783H419.772V40.9416H422.462V40.4498H420.525V38.6054H422.462V38.0828H420.202V36.223H422.462V35.7312H424.721V36.223H427.411V35.7312H429.701V36.223H432.053V38.0828H429.701V38.6054H431.545V40.4498H429.701V40.9416H432.391V42.8783H430.469L431.714 43.7236C431.376 44.2462 431.007 44.6919 430.623 45.0608C431.207 45.3836 431.868 45.6449 432.652 45.8293L431.561 47.9197C430.147 47.4432 428.963 46.7208 427.964 45.7525C427.149 44.984 426.473 44.0157 425.981 42.8937H425.459C425.151 43.2011 424.859 43.4316 424.583 43.6468V45.2607C425.228 45.1223 425.858 44.984 426.427 44.8303L426.75 46.5056C425.29 47.0436 423.645 47.5201 421.878 47.9197L421.186 45.9216C421.57 45.8294 421.985 45.7679 422.369 45.7064V44.9533C421.57 45.3375 420.863 45.6449 420.264 45.8293L419.418 44.2616V46.9975H415.883V47.766H413.624V40.4498H419.418V43.739ZM419.326 34.4708V36.761H413.885V34.4708H419.326ZM419.326 37.4219V39.712H413.885V37.4219H419.326ZM419.095 28.5841V30.8435H414.039V28.5841H419.095ZM417.159 44.8303V42.6324H415.883V44.8303H417.159ZM427.334 28.3228V29.1681H432.283V31.197H419.833V29.1681H424.783V28.3228H427.319H427.334ZM425.981 31.7042V35.4699H420.248V31.7042H425.981ZM423.783 33.8868V33.3027H422.446V33.8868H423.783ZM427.395 38.0828H424.706V38.6054H427.395V38.0828ZM427.395 40.9416V40.4498H424.706V40.9416H427.395ZM432.037 31.7042V35.4699H426.335V31.7042H432.037ZM428.886 43.7851C429.209 43.4777 429.486 43.1857 429.701 42.8783H428.179C428.394 43.2164 428.625 43.5238 428.886 43.7851ZM429.855 33.8868V33.3027H428.502V33.8868H429.855Z" fill="#595757"/>
<path d="M52.6717 57.5259V60.5692H55.2076V62.306C55.515 61.8141 55.761 61.2916 56.0069 60.7383C56.5295 59.6162 56.9291 58.5403 57.2212 57.5259L59.5882 58.2176C59.4345 58.7094 59.2807 59.1859 59.1117 59.6316H66.0436V61.891H58.1895L58.1433 61.9832C57.8052 62.721 57.4364 63.3819 57.0829 63.966C57.9897 63.843 59.081 63.6278 60.3567 63.3204C61.5556 63.0438 62.6775 62.6749 63.6919 62.2445L65.7209 64.2734C64.645 64.6115 63.5537 64.9036 62.4009 65.1341C62.5239 66.2561 62.7083 67.2706 62.9234 68.1313C63.6305 67.6856 64.276 67.1476 64.8755 66.5328L66.474 68.3004C65.5057 69.115 64.5374 69.7605 63.5844 70.2831C63.5998 70.3753 63.6305 70.4368 63.6766 70.4829C64.2606 71.9738 65.3519 73.4955 66.9658 75.0478L65.3674 76.9845C63.5537 75.263 62.3241 73.4955 61.6632 71.6664C61.0176 70.0987 60.5411 68.0698 60.2491 65.5798C59.8341 65.6721 59.4498 65.7028 59.0655 65.7489V73.6492C59.8648 73.4493 60.6179 73.2342 61.3557 73.019L61.7707 75.1247C60.1414 75.7549 58.3125 76.3082 56.299 76.8L55.4536 74.433C55.8839 74.3408 56.3142 74.264 56.7292 74.1717V64.55C56.5602 64.8267 56.3911 65.0726 56.2067 65.2878L54.2854 63.7662C54.4852 63.5049 54.6697 63.2282 54.8695 62.9208H51.688V64.7806H55.3768C55.3307 70.9747 54.9926 74.6328 54.3931 75.7395C53.9628 76.4465 53.3325 76.8154 52.5486 76.8154C52.0106 76.8154 51.4573 76.7539 50.8425 76.6463L50.2892 74.2332C49.9203 75.3091 49.5207 76.216 49.0903 76.9845L47 75.3706C47.7685 73.8643 48.3526 72.189 48.7368 70.3292C49.075 68.5155 49.2594 66.6404 49.2594 64.6884V62.9208H47.415V60.5692H50.1969V57.5259H52.7176H52.6717ZM52.103 74.2793C52.4104 74.2793 52.5794 74.0795 52.6255 73.6953C52.7792 72.7423 52.9022 70.5751 53.0405 67.1322H51.6264C51.5035 68.8998 51.2576 70.5137 50.9195 72.0199C50.7504 72.7884 50.5506 73.4801 50.3354 74.1103C50.9348 74.2332 51.5188 74.2793 52.1182 74.2793H52.103Z" fill="#595757"/>
<path d="M77.2331 59.3856C76.3724 59.8006 75.4656 60.1541 74.5434 60.4769V63.3357H77.1562V65.6874H74.5434V65.8411C75.6654 66.8555 76.649 67.8392 77.4943 68.8075L75.9573 70.8978C75.4808 70.1601 75.0045 69.4992 74.5434 68.8997V76.8922H72.1148V69.8066C71.5307 70.9747 70.8699 72.0506 70.086 73.0189L68.6719 71.2513C69.3174 70.5136 70.0092 69.4684 70.7316 68.1158C71.162 67.3473 71.5462 66.5481 71.869 65.7027H69.1638V63.3511H72.1148V61.2608C71.4692 61.4606 70.8237 61.6296 70.1781 61.7526L68.9948 59.5547C71.2542 59.1243 73.5442 58.4173 75.819 57.449L77.2331 59.3856ZM87.9922 67.5471C86.7011 67.747 85.3486 67.916 83.9653 68.0851V70.0678H87.6541V72.358H83.9653V74.3868H88.1613V76.6463H76.7874V74.3868H81.5061V72.358H77.5712V70.0678H81.5061V68.3464C80.3226 68.4694 79.1236 68.5616 77.894 68.6538L77.0487 66.3636C80.5992 66.1485 83.8731 65.8103 86.8856 65.3799L87.9769 67.5471H87.9922ZM87.6541 57.8793V64.6883H77.6636V57.8793H87.6541ZM85.2255 62.4135V60.1387H80.1074V62.4135H85.2255Z" fill="#595757"/>
<path d="M100.165 57.9719C99.9343 58.6021 99.6884 59.1554 99.4579 59.6472H108.326V76.8925H105.806V75.6168H94.1091V76.8925H91.5884V59.6472H96.7066C97.0293 58.8787 97.3061 58.0487 97.552 57.2188L100.149 57.9719H100.165ZM105.806 64.1046V61.9989H94.1091V64.1046H105.806ZM105.806 68.6388V66.4408H94.1091V68.6388H105.806ZM105.806 73.2805V70.9904H94.1091V73.2805H105.806Z" fill="#595757"/>
<path d="M117.58 58.1406C117.457 58.571 117.349 58.9552 117.242 59.3087H122.129V61.0763C122.114 61.1685 122.083 61.1993 122.083 61.2454H124.45C124.512 60.1849 124.558 58.9706 124.558 57.5412H127.017C127.017 58.9399 126.971 60.1695 126.925 61.2454H130.952V63.6124H127.401C127.663 64.6729 128.032 65.5951 128.523 66.4097C129.261 67.6547 130.229 68.7153 131.474 69.576L129.768 71.6817C128.523 70.698 127.494 69.4223 126.633 67.8699C126.402 67.4549 126.187 67.0246 125.987 66.5635C125.557 67.6855 125.004 68.6231 124.327 69.4069C123.359 70.4828 122.191 71.3436 120.869 72.0045L119.701 69.9142C120.823 69.3147 121.745 68.5308 122.483 67.6394C123.175 66.7786 123.666 65.7488 124.005 64.5346C124.066 64.2733 124.127 63.9505 124.204 63.6124H121.345C120.7 65.4261 119.947 66.8862 119.102 67.9621C117.687 69.8527 115.997 71.2206 114.06 72.0045L112.877 69.7451C114.014 69.2993 115.028 68.6692 115.889 67.8699C115.367 67.3935 114.859 66.9938 114.321 66.6249L115.659 64.8574C116.289 65.2416 116.858 65.672 117.426 66.1485C117.595 65.9333 117.749 65.7181 117.872 65.5029C117.242 64.9496 116.596 64.4424 115.92 64.012L117.257 62.2444C117.841 62.5826 118.395 62.9822 118.932 63.3665C119.163 62.8131 119.378 62.1983 119.563 61.5835H116.427C116.304 61.9217 116.15 62.2444 116.012 62.5518C115.382 63.9352 114.629 65.1801 113.737 66.3022L111.877 64.4578C112.677 63.3818 113.322 62.2905 113.829 61.1993C114.383 60.0004 114.859 58.7401 115.244 57.449L117.595 58.1406H117.58ZM116.565 73.4493C115.751 74.9555 114.905 76.1237 114.045 76.9844L111.939 75.14C112.953 74.187 113.768 73.188 114.398 72.1121L116.565 73.4647V73.4493ZM120.93 76.2928L118.41 76.9844C118.241 75.432 117.964 74.018 117.565 72.6808L119.916 72.0967C120.408 73.4954 120.761 74.8941 120.93 76.2928ZM126.141 76.2928L123.62 76.9844C123.451 75.4166 123.144 73.9719 122.698 72.6193L125.065 72.0199C125.588 73.4339 125.941 74.8787 126.141 76.3081V76.2928ZM131.382 75.5396L128.923 76.9844C128.431 75.5857 127.755 74.2639 126.925 73.0189L129.092 71.6817C130.014 72.8806 130.767 74.1717 131.382 75.5396ZM131.029 59.5547L129.092 61.0609C128.57 60.3693 128.001 59.7084 127.325 59.0628L129.261 57.7103C129.845 58.2328 130.429 58.8476 131.029 59.57V59.5547Z" fill="#595757"/>
<path d="M136.239 57.7871V67.8853C136.239 69.8219 136.085 71.6049 135.809 73.2034C135.547 74.6635 135.209 75.847 134.825 76.8L132.98 75.3552C133.365 74.3254 133.672 73.1419 133.887 71.82C134.056 70.5443 134.164 69.2378 134.164 67.8853V57.7871H136.254H136.239ZM138.744 59.1551V74.0333H136.746V59.1551H138.744ZM141.526 57.7871V75.7855H139.359V57.7871H141.526ZM152.808 57.7871V59.985H148.781L148.52 61.1531H152.285V73.2802H150.564C150.902 73.5568 151.255 73.8028 151.64 73.9872C152.131 74.2946 152.623 74.5252 153.131 74.6943L151.886 76.9844C151.286 76.677 150.718 76.3389 150.18 75.9546C149.519 75.4781 148.904 74.9709 148.351 74.3868L149.688 73.2956H145.338L146.675 74.3868C145.645 75.4166 144.4 76.2774 142.971 76.9998L141.695 74.8018C142.679 74.4176 143.617 73.9257 144.447 73.2956H142.448V61.1685H146.091L146.352 60.0004H142.126V57.8025H152.808V57.7871ZM149.949 64.5346V63.3511H144.831V64.5346H149.949ZM149.949 67.8084V66.6249H144.831V67.8084H149.949ZM149.949 71.0823V69.9141H144.831V71.0823H149.949Z" fill="#595757"/>
<path d="M162.122 62.1677V61.2455H164.489V62.1677H169.438V63.4126C170.345 62.8901 171.221 62.3367 172.051 61.7527L173.573 63.5202C172.728 64.1197 171.867 64.6884 171.006 65.1956H174.326V67.3628H166.872C166.487 67.5318 166.118 67.7009 165.734 67.8546C165.304 68.0237 164.874 68.1928 164.459 68.3772H172.036V76.9691H169.684V76.2775H160.508V76.9691H158.157V70.529C157.419 70.7442 156.697 70.9594 155.959 71.1592L154.944 68.992C156.927 68.5155 158.802 67.9776 160.539 67.3781H154.944V65.2109H162.091V64.3656H156.712V62.1677H162.091H162.122ZM159.11 58.6325V57.5413H161.538V58.6325H167.594V57.5413H170.053V58.6325H174.172V60.8305H170.053V61.6758H167.594V60.8305H161.538V61.6758H159.11V60.8305H155.067V58.6325H159.11ZM169.7 71.3283V70.4829H160.524V71.3283H169.7ZM169.7 74.2025V73.2803H160.524V74.2025H169.7ZM167.748 64.3656H164.489V65.2109H166.026C166.61 64.9496 167.194 64.673 167.748 64.3656Z" fill="#595757"/>
<path d="M184.917 59.3857V57.5259H187.345V59.3857H194.492V61.8449H187.345V64.0121H195.584V66.3637H187.253V68.5616H194.17V70.9133H187.253V73.6645C188.759 73.8643 190.634 73.9412 192.878 73.9412C193.831 73.9412 194.861 73.8951 195.937 73.7721L195.169 76.4619H192.894C188.636 76.4619 185.593 76.1238 183.81 75.4782C182.304 74.9864 181.105 74.3869 180.167 73.6031C179.568 74.8019 178.861 75.9086 178.031 76.8923L176.094 75.1247C177.063 73.9566 177.816 72.7577 178.369 71.5281C178.953 70.1909 179.337 68.7768 179.537 67.2245L181.889 67.7163C181.735 68.9613 181.474 70.1448 181.136 71.2207C181.981 71.9738 182.995 72.5579 184.194 72.9883C184.394 73.0805 184.609 73.1573 184.84 73.2034V66.3483H176.771V63.9967H184.932V61.8295H177.877V59.3703H184.932L184.917 59.3857Z" fill="#595757"/>
<path d="M209.724 69.2532C209.17 69.8065 208.479 70.0985 207.695 70.0985C206.911 70.0985 206.235 69.8219 205.666 69.2532C205.113 68.6999 204.821 68.0236 204.821 67.2243C204.821 66.4251 205.097 65.7642 205.666 65.1955C206.235 64.6268 206.896 64.3501 207.695 64.3501C208.494 64.3501 209.155 64.6268 209.724 65.1955C210.277 65.7488 210.569 66.4405 210.569 67.2243C210.569 68.0082 210.292 68.6845 209.724 69.2532ZM208.387 66.5327C208.187 66.3328 207.956 66.2253 207.695 66.2253C207.418 66.2253 207.172 66.3328 207.003 66.5327C206.788 66.7325 206.696 66.963 206.696 67.2243C206.696 67.501 206.788 67.7469 207.003 67.916C207.172 68.1312 207.418 68.2234 207.695 68.2234C207.956 68.2234 208.187 68.1312 208.387 67.916C208.586 67.7469 208.694 67.501 208.694 67.2243C208.694 66.963 208.586 66.7325 208.387 66.5327Z" fill="#595757"/>
<defs>
<linearGradient id="paint0_linear_34_254301" x1="239.992" y1="222.453" x2="239.992" y2="390.71" gradientUnits="userSpaceOnUse">
<stop stop-color="white"/>
<stop offset="1" stop-color="white" stop-opacity="0.6"/>
</linearGradient>
</defs>
</svg>
