<svg width="480" height="454" viewBox="0 0 480 454" fill="none" xmlns="http://www.w3.org/2000/svg">
<path opacity="0.8" d="M436.87 0H43.1304C19.3101 0 0 19.2976 0 43.1024V410.898C0 434.702 19.3101 454 43.1304 454H436.87C460.69 454 480 434.702 480 410.898V43.1024C480 19.2976 460.69 0 436.87 0Z" fill="url(#paint0_linear_76_91660)"/>
<mask id="mask0_76_91660" style="mask-type:luminance" maskUnits="userSpaceOnUse" x="17" y="99" width="446" height="340">
<path d="M17.5962 99.6062V398.859C17.5962 420.829 35.5801 438.801 57.5638 438.801H422.451C444.435 438.801 462.419 420.829 462.419 398.859V99.6062H17.5962Z" fill="white"/>
</mask>
<g mask="url(#mask0_76_91660)">
<path d="M634.816 -5.70093H-94.2607V420.148H634.816V-5.70093Z" fill="#DEE8F6"/>
<path opacity="0.2" d="M410.777 200.282L159.545 200.049C144.29 195.804 140.507 156.714 180.769 154.623C220.985 152.531 166.01 106.702 223.481 100.691C268.875 95.9342 292.517 143.096 326.966 155.289C333.694 157.721 341.027 158.558 347.198 157.923C350.453 157.629 353.864 156.978 357.368 155.94C371.104 151.88 385.32 151.602 395.925 161.053C410.948 174.423 410.793 200.282 410.793 200.282H410.777Z" fill="#A9C2E5"/>
<path opacity="0.8" d="M260.921 145.095C260.921 145.095 283.618 141.469 295.075 143.127C295.075 143.127 293.06 141.02 289.975 141.299C289.975 141.299 287.308 133.924 281.479 133.738C275.65 133.552 273.929 136.899 273.929 136.899C273.929 136.899 271.324 134.435 266.844 136.728C262.363 139.021 262.58 142.523 262.58 142.523C262.58 142.523 260.627 142.925 260.921 145.11V145.095Z" fill="white"/>
<path opacity="0.8" d="M237.17 121.374C237.17 121.374 251.092 119.158 258.115 120.165C258.115 120.165 256.875 118.879 254.984 119.05C254.984 119.05 253.356 114.526 249.775 114.402C246.193 114.278 245.139 116.339 245.139 116.339C245.139 116.339 243.542 114.82 240.798 116.23C238.054 117.64 238.178 119.778 238.178 119.778C238.178 119.778 236.984 120.026 237.155 121.358L237.17 121.374Z" fill="white"/>
<path opacity="0.8" d="M205.823 120.476C205.714 120.863 232.287 111.675 243.263 113.751C243.263 113.751 243.015 107.043 238.287 106.795C233.558 106.563 231.822 111.257 231.822 111.257C231.822 111.257 229.651 108.375 226.69 111.458C226.69 111.458 221.311 109.847 219.621 114.588C219.621 114.588 213.435 115.347 212.303 117.439C212.303 117.439 206.582 117.95 205.854 120.46L205.823 120.476Z" fill="white"/>
<path d="M390.669 147.681H378.065V200.281H390.669V147.681Z" fill="#DEE8F6"/>
<path d="M382.251 161.998H369.646V200.282H382.251V161.998Z" fill="#DEE8F6"/>
<path d="M353.709 172.518H344.453V200.282H353.709V172.518Z" fill="#DEE8F6"/>
<path d="M343.399 166.087H334.144V200.281H343.399V166.087Z" fill="#DEE8F6"/>
<path d="M334.237 166.087H324.981V200.281H334.237V166.087Z" fill="#DEE8F6"/>
<path d="M325.384 160.588H316.129V200.297H325.384V160.588Z" fill="#DEE8F6"/>
<path d="M322.563 178.467H300.796V200.281H322.563V178.467Z" fill="#DEE8F6"/>
<path d="M369.135 153.104H356.531V200.281H369.135V153.104Z" fill="#DEE8F6"/>
<path d="M335.896 143.824H328.64V200.282H335.896V143.824Z" fill="#DEE8F6"/>
<path d="M347.988 200.281H338.314V158.775L347.988 155.01V200.281Z" fill="#DEE8F6"/>
<path d="M374.096 126.099H359.259V200.281H374.096V126.099Z" fill="#DEE8F6"/>
<path d="M360.654 127.572C360.654 123.574 363.352 120.336 366.67 120.336C369.987 120.336 372.685 123.574 372.685 127.572C372.685 131.569 369.987 134.807 366.67 134.807C363.352 134.807 360.654 131.569 360.654 127.572Z" fill="#DEE8F6"/>
<path d="M366.67 123.512C366.546 123.512 366.438 123.404 366.438 123.28V115.084C366.438 114.96 366.546 114.852 366.67 114.852C366.794 114.852 366.902 114.96 366.902 115.084V123.28C366.902 123.404 366.794 123.512 366.67 123.512Z" fill="#DEE8F6"/>
<path d="M357.848 143.452H349.554V200.281H357.848V143.452Z" fill="#DEE8F6"/>
<path d="M357.848 141.934H350.748V143.452H357.848V141.934Z" fill="#DEE8F6"/>
<path d="M357.848 140.415H353.073V141.934H357.848V140.415Z" fill="#DEE8F6"/>
<path d="M357.864 138.881H355.228V140.399H357.864V138.881Z" fill="#DEE8F6"/>
<path d="M345.26 126.502C345.213 126.347 344.764 126.285 344.578 126.27L344.392 126.239C343.818 126.099 343.198 126.084 342.624 126.239C342.361 126.301 340.252 126.952 337.942 127.68L338.066 127.649C338.066 127.649 336.314 127.277 335.973 127.199C335.942 127.199 335.911 127.199 335.911 127.199C335.911 127.199 335.865 127.153 335.803 127.107C335.632 126.936 335.307 126.611 335.183 126.471C335.152 126.44 335.09 126.425 335.043 126.44L334.919 126.471C334.919 126.471 334.919 126.471 334.919 126.487C334.919 126.487 335.167 126.936 335.353 127.215C335.4 127.292 335.462 127.354 335.493 127.401C335.508 127.416 335.555 127.447 335.586 127.478C335.911 127.711 336.717 128.083 336.717 128.083C335.896 128.346 335.09 128.594 334.361 128.826H333.601C333.121 128.826 332.656 128.671 332.252 128.423L330.997 127.618C330.997 127.618 330.888 127.571 330.826 127.602L330.516 127.695C330.516 127.695 330.423 127.788 330.47 127.85L331.741 129.647C331.539 129.709 331.431 129.74 331.431 129.74C331.353 129.771 331.431 129.88 331.539 129.988C331.539 129.988 331.57 130.019 331.586 130.035L330.563 130.716V130.732L330.935 130.639C330.935 130.639 330.95 130.639 330.966 130.639L331.896 130.205C331.896 130.205 332.051 130.236 332.128 130.221L335.725 130.019C336.113 130.004 336.485 129.926 336.841 129.818C337.074 129.74 337.384 129.647 337.741 129.554C337.772 129.616 337.803 129.663 337.772 129.694C337.679 129.818 336.268 131.491 336.268 131.491C336.268 131.491 336.841 131.491 337.059 131.414C337.229 131.352 339.198 129.601 340.02 128.857C341.663 128.361 343.322 127.85 343.694 127.726C344.485 127.447 345.322 126.75 345.26 126.549V126.502Z" fill="#DEE8F6"/>
<path d="M285.075 102.534H277.959V200.282H285.075V102.534Z" fill="#9BCCEE"/>
<path d="M253.526 125.155V200.282C253.526 200.282 252.069 200.096 159.545 200.282C144.29 196.037 140.507 156.715 180.769 154.623C203.001 153.461 196.133 138.928 195.265 125.155H253.511H253.526Z" fill="#A7C6E8"/>
<path d="M231.574 141.717H156.413V176.004H231.574V141.717Z" fill="#6B95CE"/>
<path d="M278.13 170.147H237.806V200.282H278.13V170.147Z" fill="#363361"/>
<path d="M278.13 170.023H237.806V184.416H278.13V170.023Z" fill="white"/>
<path d="M278.13 182.247H237.806V182.355H278.13V182.247Z" fill="#BDD9F2"/>
<path d="M278.13 179.707H237.806V179.815H278.13V179.707Z" fill="#BDD9F2"/>
<path d="M278.13 177.165H237.806V177.274H278.13V177.165Z" fill="#BDD9F2"/>
<path d="M278.13 174.624H237.806V174.733H278.13V174.624Z" fill="#BDD9F2"/>
<path d="M278.13 172.084H237.806V172.192H278.13V172.084Z" fill="#BDD9F2"/>
<path d="M294.253 104.393H268.797V114.526H294.253V104.393Z" fill="#6B95CE"/>
<path d="M156.413 157.489L171.389 141.717H156.413V157.489Z" fill="#8DBBE5"/>
<path d="M156.413 167.854L181.079 141.717H197.838L171.389 176.004H156.413V167.854Z" fill="#8DBBE5"/>
<path d="M181.994 176.004L205.822 141.717H227.248L209.59 176.004H181.994Z" fill="#5A89C7"/>
<path d="M231.574 158.171H156.413V158.853H231.574V158.171Z" fill="#AED6F2"/>
<path d="M177.885 141.717H177.126V176.004H177.885V141.717Z" fill="#AED6F2"/>
<path d="M210.953 141.02H210.194V175.306H210.953V141.02Z" fill="#AED6F2"/>
<path d="M268.797 114.526V104.393H274.781L272.254 114.526H268.797Z" fill="#8DBBE5"/>
<path d="M282.627 104.393L279.79 114.526H288.502L290.564 104.393H282.627Z" fill="#76A4D7"/>
<path d="M289.789 114.526H273.743V115.301H289.789V114.526Z" fill="#5C88C6"/>
<path d="M292.502 102.534H270.068V104.394H292.502V102.534Z" fill="#5C88C6"/>
<path d="M285.091 100.675H277.479V102.534H285.091V100.675Z" fill="#5C88C6"/>
<path d="M277.959 117.377C277.959 117.377 284.269 118.229 285.075 122.257V115.316H277.959V117.392V117.377Z" fill="#89B7E2"/>
<path d="M231.574 181.689H173.638L171.39 176.003H231.574V181.689Z" fill="#A7C6E8"/>
<path d="M162.955 176.127H160.568V200.297H162.955V176.127Z" fill="#76A4D7"/>
<path d="M160.568 177.289C160.568 177.289 162.382 177.676 162.955 179.365V176.112H160.568V177.289Z" fill="#5C88C6"/>
<path d="M184.381 176.127H181.994V200.297H184.381V176.127Z" fill="#76A4D7"/>
<path d="M181.994 177.289C181.994 177.289 183.808 177.676 184.381 179.365V176.112H181.994V177.289Z" fill="#5C88C6"/>
<path d="M205.807 176.127H203.419V200.297H205.807V176.127Z" fill="#76A4D7"/>
<path d="M203.419 177.289C203.419 177.289 205.233 177.676 205.807 179.365V176.112H203.419V177.289Z" fill="#5C88C6"/>
<path d="M227.233 176.127H224.845V200.297H227.233V176.127Z" fill="#76A4D7"/>
<path d="M224.845 177.289C224.845 177.289 226.659 177.676 227.233 179.365V176.112H224.845V177.289Z" fill="#5C88C6"/>
<path d="M305.401 153.167H235.682V167.328H305.401V153.167Z" fill="#6B95CE"/>
<path opacity="0.8" d="M235.682 167.328V153.167H254.1L248.364 167.328H235.682Z" fill="#9BCCEE"/>
<path d="M257.015 167.328L263.34 153.167H287.184L280.828 167.328H257.015Z" fill="#76A4D7"/>
<path d="M272.983 171.79C267.092 172.208 261.263 174.284 256.286 177.817L253.495 179.66C251.743 180.574 248.364 182.542 247.992 184.417H278.146V171.697C275.464 171.697 273.665 171.743 272.999 171.79H272.983Z" fill="#A7C6E8"/>
<path d="M634.816 200.839H-94.2607V420.147H634.816V200.839Z" fill="#B5C569"/>
<path d="M634.816 511.852H-94.2607V243.136L270.286 201.18L634.816 282.877V511.852Z" fill="white"/>
<path d="M634.816 511.852H-94.2607V245.786L270.286 201.18L634.816 292.142V511.852Z" fill="#A39EA1"/>
<path d="M634.816 511.852H-94.2607V263.479L270.286 201.18L634.816 323.097V511.852Z" fill="#F5BF1F"/>
<path d="M634.816 511.852H-94.2607V267.461L270.286 201.18L634.816 336.344V511.852Z" fill="#484B4F"/>
<path d="M246.597 228.743L238.736 237.899H242.163L249.186 228.743H246.597Z" fill="#ECEBE6"/>
<path d="M253.759 220.423L248.101 226.992H250.519L255.558 220.423H253.759Z" fill="#ECEBE6"/>
<path d="M270.286 201.18L264.395 208.028H265.046L270.286 201.18Z" fill="#ECEBE6"/>
<path d="M263.806 208.71L260.069 213.064H261.186L264.519 208.71H263.806Z" fill="#ECEBE6"/>
<path d="M259.139 214.148L255.154 218.781H256.798L260.348 214.148H259.139Z" fill="#ECEBE6"/>
<path d="M234.984 242.269L222.985 256.228H228.148L238.829 242.269H234.984Z" fill="#ECEBE6"/>
<path d="M212.117 268.87L178.428 308.099L184.599 313.104L218.458 268.87H212.117Z" fill="#ECEBE6"/>
<path d="M189.761 220.423L162.227 226.992H167.204L193.466 220.423H189.761Z" fill="#ECEBE6"/>
<path d="M238.768 208.71L220.536 213.064H222.815L240.209 208.71H238.768Z" fill="#ECEBE6"/>
<path d="M270.286 201.18L241.62 208.028H242.938L270.286 201.18Z" fill="#ECEBE6"/>
<path d="M215.978 214.148L196.599 218.781H199.994L218.474 214.148H215.978Z" fill="#ECEBE6"/>
<path d="M154.925 228.743L116.57 237.899H123.655L160.227 228.743H154.925Z" fill="#ECEBE6"/>
<path d="M98.3068 242.269L39.8901 256.228H50.4944L106.229 242.269H98.3068Z" fill="#ECEBE6"/>
<path d="M270.286 201.18L-42.5722 337.971L-45.6729 330.658L270.286 201.18Z" fill="#F5BF1F"/>
<path d="M270.286 201.18L-46.5723 324.089L-48.4482 319.131L270.286 201.18Z" fill="#F5BF1F"/>
<path d="M634.816 297.239H-94.2607V511.852H634.816V297.239Z" fill="#3A3C3D"/>
<path d="M634.816 375H-94.2607V402.175H634.816V375Z" fill="#39494D"/>
<path d="M634.816 261.48H-94.2607V292.529H634.816V261.48Z" fill="#363361"/>
<path d="M634.816 270.745H-94.2607V317.024H634.816V270.745Z" fill="#5E6978"/>
<path d="M-94.2607 402.19V511.867H446.342L442.931 502.463C420.932 441.791 368.903 402.19 311.168 402.19H-94.2453H-94.2607Z" fill="#2E2C2D"/>
<path d="M-87.6567 317.658C56.6176 265.709 204.179 265.709 355.058 317.658V371.637H-87.6567V317.658Z" fill="#3A3C3D"/>
<path d="M-63.4247 337.831C64.4626 283.667 195.652 283.682 330.144 338.094C345.182 344.183 355.027 358.793 355.027 375.015H-87.6875V374.488C-87.6875 358.53 -78.1529 344.075 -63.4402 337.847L-63.4247 337.831Z" fill="#2E2C2D"/>
<path d="M-71.1919 368.384C-68.3858 363.225 -63.8898 359.042 -58.2466 356.656C3.68941 330.425 67.2377 317.117 130.631 317.117C194.024 317.117 259.759 330.534 325.183 356.996C330.842 359.289 335.384 363.349 338.283 368.384H-71.1764H-71.1919Z" fill="#39494D"/>
<path d="M634.816 422.843H507.549C479.24 422.843 459.411 455.657 468.744 487.031L476.139 511.867H634.801V422.843H634.816Z" fill="#39494D"/>
<path d="M129.639 362.279H115.05C115.05 361.644 115.019 361.024 114.957 360.42L129.453 358.871C129.577 359.986 129.639 361.133 129.639 362.279ZM54.1219 362.279H39.5332C39.5332 361.365 39.5642 360.451 39.6262 359.568L54.1683 360.622C54.1218 361.164 54.1064 361.722 54.1064 362.279H54.1219ZM114.166 356.888C113.965 356.33 113.732 355.772 113.469 355.214L126.585 348.862C127.096 349.916 127.546 351 127.918 352.085L114.151 356.888H114.166ZM54.8196 356.81L40.758 352.952C41.0681 351.852 41.4246 350.752 41.8432 349.699L55.4087 355.059C55.1761 355.633 54.9901 356.221 54.8196 356.826V356.81ZM111.5 352.116C111.112 351.62 110.678 351.14 110.229 350.659L120.709 340.527C121.5 341.332 122.244 342.185 122.926 343.052L111.5 352.1V352.116ZM57.1295 351.806L45.0679 343.61C45.7036 342.665 46.4012 341.751 47.1298 340.883L58.2613 350.303C57.8582 350.783 57.4706 351.279 57.1295 351.79V351.806ZM107.174 348.025C106.632 347.623 106.027 347.235 105.423 346.848L113.112 334.469C114.027 335.042 114.926 335.631 115.763 336.251L107.19 348.041L107.174 348.025ZM61.0518 347.638L51.9824 336.22C52.8351 335.553 53.7343 334.903 54.649 334.298L62.6798 346.461C62.1217 346.832 61.5635 347.235 61.0518 347.638ZM101.593 344.834C100.927 344.54 100.229 344.245 99.5312 343.982L104.709 330.363C105.671 330.719 106.632 331.122 107.547 331.541L101.593 344.834ZM66.323 344.447L60.2613 331.2C61.1915 330.766 62.1682 330.363 63.1604 329.991L68.3075 343.625C67.6254 343.889 66.9587 344.168 66.323 344.447ZM95.2369 342.618C94.4927 342.432 93.7485 342.246 93.0044 342.092L95.981 327.822C96.9732 328.024 97.9344 328.256 98.9112 328.504L95.2369 342.603V342.618ZM72.5399 342.324L69.0827 328.163C70.0594 327.915 71.0671 327.714 72.0593 327.528L74.7414 341.859C73.9972 341.999 73.2686 342.154 72.5399 342.324ZM88.4619 341.379C87.7022 341.301 86.927 341.224 86.1673 341.177L87.0666 326.629C88.0588 326.691 89.0665 326.769 90.0587 326.877L88.4773 341.363L88.4619 341.379ZM79.2529 341.255L78.0746 326.722C79.0668 326.645 80.0745 326.583 81.0668 326.552L81.5629 341.115C80.7877 341.146 80.0281 341.193 79.2529 341.255Z" fill="#5F9E5E"/>
<path d="M98.5083 354.703H70.6797V362.295H98.5083V354.703Z" fill="#5F9E5E"/>
<path d="M141.08 362.295C141.08 361.381 141.111 360.467 141.173 359.568L155.716 360.622C155.669 361.164 155.654 361.706 155.654 362.279H141.065L141.08 362.295ZM231.171 362.279H216.582C216.582 361.644 216.551 361.024 216.489 360.42L230.985 358.871C231.109 359.986 231.171 361.133 231.171 362.279ZM215.698 356.888C215.497 356.33 215.264 355.772 215.001 355.214L228.116 348.862C228.628 349.916 229.078 351 229.45 352.085L215.683 356.888H215.698ZM156.367 356.81L142.305 352.952C142.615 351.852 142.972 350.752 143.39 349.699L156.956 355.059C156.723 355.633 156.537 356.221 156.367 356.826V356.81ZM213.032 352.116C212.644 351.62 212.21 351.14 211.76 350.659L222.241 340.527C223.031 341.332 223.775 342.185 224.458 343.052L213.032 352.1V352.116ZM158.677 351.79L146.615 343.61C147.251 342.68 147.948 341.766 148.693 340.883L159.824 350.303C159.421 350.783 159.033 351.279 158.692 351.79H158.677ZM208.706 348.025C208.164 347.623 207.559 347.235 206.954 346.848L214.644 334.469C215.559 335.042 216.458 335.631 217.295 336.251L208.722 348.041L208.706 348.025ZM162.584 347.638L153.514 336.22C154.367 335.553 155.266 334.903 156.181 334.298L164.211 346.461C163.653 346.832 163.095 347.235 162.584 347.638ZM203.125 344.834C202.458 344.539 201.761 344.245 201.063 343.982L206.241 330.363C207.202 330.719 208.164 331.122 209.078 331.541L203.125 344.834ZM167.87 344.447L161.808 331.2C162.739 330.766 163.715 330.363 164.708 329.991L169.855 343.625C169.173 343.889 168.506 344.168 167.87 344.447ZM196.769 342.618C196.024 342.432 195.28 342.246 194.536 342.092L197.513 327.822C198.505 328.024 199.466 328.256 200.443 328.504L196.769 342.603V342.618ZM174.072 342.324L170.614 328.163C171.591 327.915 172.599 327.714 173.591 327.528L176.273 341.859C175.529 341.999 174.8 342.154 174.072 342.324ZM189.994 341.379C189.234 341.301 188.459 341.224 187.699 341.177L188.598 326.629C189.59 326.691 190.598 326.769 191.59 326.877L190.009 341.363L189.994 341.379ZM180.785 341.255L179.606 326.722C180.599 326.645 181.606 326.583 182.598 326.552L183.095 341.115C182.319 341.146 181.56 341.193 180.785 341.255Z" fill="#5F9E5E"/>
<path d="M200.04 354.703H172.211V362.295H200.04V354.703Z" fill="#5F9E5E"/>
<path d="M634.816 341.704H455.938C438.807 341.704 427.536 359.568 434.916 375.015H634.816V341.704Z" fill="#2E2C2D"/>
<path d="M439.908 369.7C438.59 364.882 439.319 359.707 442.047 355.385C445.365 350.132 451.055 347.003 457.271 347.003H634.832V369.716H439.908V369.7Z" fill="#5F9E5E"/>
<path d="M565.346 357.027H463.364C461.907 357.027 460.713 355.834 460.713 354.378C460.713 352.922 461.907 351.729 463.364 351.729H565.346C566.803 351.729 567.997 352.922 567.997 354.378C567.997 355.834 566.803 357.027 565.346 357.027Z" fill="#47794E"/>
<path d="M538.835 365.331H463.364C461.907 365.331 460.713 364.138 460.713 362.682C460.713 361.226 461.907 360.033 463.364 360.033H538.835C540.292 360.033 541.486 361.226 541.486 362.682C541.486 364.138 540.292 365.331 538.835 365.331Z" fill="#47794E"/>
<path d="M132.972 324.615H120.817V331.773H132.972V324.615Z" fill="#5F9E5E"/>
<path d="M114.461 328.194L125.561 335.305V321.067L114.461 328.194Z" fill="#5F9E5E"/>
<path d="M136.786 331.757H148.94V324.599H136.786V331.757Z" fill="#2E2C2D"/>
<path d="M155.297 328.194L144.197 335.305V321.067L155.297 328.194Z" fill="#2E2C2D"/>
<path d="M54.8352 511.852C31.239 490.192 16.4178 459.128 16.4178 424.671C16.4178 359.398 69.5479 306.303 134.864 306.303C200.179 306.303 253.309 359.398 253.309 424.671C253.309 459.128 238.488 490.192 214.892 511.852H250.891C269.216 487.559 280.084 457.362 280.084 424.671C280.084 344.648 214.938 279.546 134.848 279.546C54.7576 279.546 -10.3721 344.648 -10.3721 424.671C-10.3721 457.362 0.495822 487.559 18.8208 511.852H54.8196H54.8352Z" fill="#52566A"/>
<path d="M10.0302 380.283C9.67358 380.283 9.317 380.221 8.96042 380.112C7.22404 379.524 6.29384 377.649 6.88297 375.914C25.518 321.129 76.9428 284.333 134.879 284.333C192.815 284.333 244.24 321.129 262.875 375.914C263.464 377.649 262.534 379.524 260.797 380.112C259.061 380.701 257.185 379.771 256.596 378.036C238.875 325.948 189.962 290.948 134.879 290.948C79.7954 290.948 30.8822 325.948 13.1618 378.036C12.6967 379.415 11.41 380.283 10.0302 380.283Z" fill="#5E6978"/>
<path d="M258.115 453.21C175.808 472.701 93.5934 472.685 11.4565 453.21V401.881C93.7174 388.045 175.932 388.045 258.115 401.881V453.21Z" fill="#52566A"/>
<path d="M196.707 455.131L193.42 464.504C212.024 462.413 230.628 459.33 249.248 455.224L253.976 440.676C256.224 433.781 251.077 426.701 243.821 426.701H236.798C218.752 426.701 202.675 438.088 196.707 455.115V455.131Z" fill="#474660"/>
<path d="M31.6263 426.717H26.3087C19.0531 426.717 13.9215 433.782 16.154 440.676L20.9135 455.364C38.9284 459.315 56.9589 462.305 74.9893 464.381L71.718 455.085C65.7337 438.089 49.6722 426.717 31.6418 426.717H31.6263Z" fill="#474660"/>
<path d="M264.751 413.981L262.162 409.24C259.588 404.546 254.968 401.338 249.682 400.517C173.08 388.494 96.4308 388.525 19.7512 400.548C14.511 401.369 9.98405 404.607 7.426 409.255L4.83691 413.996C91.4698 408.45 178.118 408.45 264.751 413.996V413.981Z" fill="#5E6978"/>
<path d="M180.521 511.852L201.978 435.796H67.5947L89.0513 511.852H180.521Z" fill="#52566A"/>
<path d="M134.879 469.648C118.911 469.648 105.935 456.665 105.935 440.722C105.935 424.779 118.926 411.796 134.879 411.796C150.832 411.796 163.824 424.779 163.824 440.722C163.824 456.665 150.832 469.648 134.879 469.648ZM134.879 415.778C121.112 415.778 109.903 426.98 109.903 440.738C109.903 454.496 121.112 465.697 134.879 465.697C148.646 465.697 159.855 454.496 159.855 440.738C159.855 426.98 148.646 415.778 134.879 415.778Z" fill="#474660"/>
<path d="M-26.5888 437.856C12.5418 430.358 39.2851 423.401 53.2847 401.788C42.3548 361.939 15.6114 354.347 14.4176 322.788C-8.51185 337.057 -23.8912 345.222 -36.5419 367.47C-40.5108 374.458 -41.5495 382.747 -39.4411 390.509L-26.5888 437.841V437.856Z" fill="#E2AE8C"/>
<path d="M29.2542 384.017L53.2845 401.787C56.3232 393.034 58.9587 383.831 61.2532 374.24C63.2376 365.951 62.9431 357.275 60.5246 349.11L56.5712 335.786C51.7187 340.14 47.1606 344.787 43.0522 349.9C42.6336 358.282 36.4323 370.801 29.2388 384.032L29.2542 384.017Z" fill="#E2AE8C"/>
<path d="M30.4794 323.67C30.4794 323.67 24.2315 330.41 22.3091 333.88C20.3712 337.366 19.503 340.697 19.7045 343.889C20.0301 349.002 16.1388 353.417 11.0227 353.743C5.90655 354.068 1.48806 350.179 1.16249 345.067C1.16249 344.85 1.14697 344.648 1.14697 344.447V344.137C1.17798 340.573 1.79812 336.994 2.89886 333.725C3.9841 330.441 5.50344 327.451 7.22432 324.755C10.6971 319.363 14.759 316.079 18.9914 312.345C22.4641 309.293 30.2623 310.935 32.5568 312.871C34.8358 314.793 36.8358 317.504 36.8358 317.504L30.4949 323.701L30.4794 323.67Z" fill="#E2AE8C"/>
<path d="M-72.2153 488.132L3.65819 492.888L43.967 396.985L-9.73675 399.82L-72.2153 488.132Z" fill="#E2AE8C"/>
<path d="M9.13103 511.852L22.4639 477.441C39.5796 440.412 -28.5422 408.976 -45.6424 446.021L-89.6875 511.852H9.1465H9.13103Z" fill="#ECEBE6"/>
<path d="M18.4485 511.852L21.7043 503.021C40.1533 462.119 -43.0223 422.936 -61.4713 463.839L-94.23 511.852H18.4485Z" fill="#39748E"/>
<path d="M298.284 440.226C259.154 432.727 232.41 425.771 218.411 404.158C229.341 364.309 256.084 356.717 257.278 325.157C280.207 339.427 295.586 347.592 308.237 369.84C312.206 376.828 313.245 385.117 311.136 392.879L298.284 440.211V440.226Z" fill="#E2AE8C"/>
<path d="M242.441 386.387L218.411 404.158C215.372 395.404 212.737 386.201 210.442 376.611C208.458 368.322 208.752 359.646 211.171 351.481L215.124 338.157C219.977 342.51 224.535 347.158 228.643 352.271C229.062 360.653 235.263 373.172 242.457 386.403L242.441 386.387Z" fill="#E2AE8C"/>
<path d="M241.217 326.025C241.217 326.025 247.465 332.765 249.387 336.235C251.325 339.721 252.193 343.052 251.992 346.244C251.666 351.357 255.557 355.772 260.673 356.098C265.79 356.423 270.208 352.534 270.534 347.421C270.534 347.205 270.549 347.003 270.549 346.802V346.492C270.518 342.928 269.898 339.35 268.797 336.08C267.712 332.796 266.193 329.806 264.472 327.11C260.999 321.718 256.937 318.434 252.705 314.7C249.232 311.647 241.434 313.29 239.139 315.226C236.86 317.148 234.86 319.859 234.86 319.859L241.201 326.056L241.217 326.025Z" fill="#E2AE8C"/>
<path d="M343.911 490.486L268.037 495.258L227.729 399.339L281.432 402.175L343.911 490.486Z" fill="#E2AE8C"/>
<path d="M261.665 511.852H359.833L317.369 448.376C300.253 411.347 232.147 442.768 249.263 479.796L261.681 511.852H261.665Z" fill="#ECEBE6"/>
<path d="M252.379 511.852H364.313L333.152 466.193C314.702 425.291 231.527 464.474 249.976 505.376L252.363 511.852H252.379Z" fill="#39748E"/>
</g>
<path d="M58.7926 37.8888L60.5495 38.3355C60.1773 39.7797 59.5222 40.8815 58.5544 41.6409C57.6015 42.4002 56.4252 42.7873 55.0406 42.7873C53.6559 42.7873 52.4349 42.4895 51.5416 41.9089C50.6483 41.3282 49.9634 40.4795 49.4869 39.3628C49.0104 38.261 48.7871 37.0699 48.7871 35.7894C48.7871 34.4047 49.0551 33.1987 49.5762 32.1565C50.1122 31.1291 50.8567 30.34 51.8394 29.804C52.822 29.268 53.8941 29 55.0703 29C56.4103 29 57.527 29.3424 58.4353 30.0125C59.3435 30.6974 59.9837 31.6503 60.3411 32.8712L58.599 33.2732C58.2864 32.3054 57.8397 31.6056 57.259 31.1589C56.6783 30.7122 55.9339 30.4889 55.0406 30.4889C54.0132 30.4889 53.1645 30.7271 52.4796 31.2185C51.7947 31.7098 51.3034 32.3649 51.0354 33.1987C50.7525 34.0325 50.6185 34.8812 50.6185 35.7597C50.6185 36.8912 50.7822 37.8739 51.1098 38.7226C51.4374 39.5713 51.9585 40.1966 52.6434 40.6135C53.3432 41.0304 54.0877 41.2388 54.9066 41.2388C55.8892 41.2388 56.723 40.956 57.4079 40.3902C58.0928 39.8244 58.5544 38.9757 58.7926 37.859V37.8888Z" fill="#595757"/>
<path d="M68.8273 41.373C68.2168 41.8941 67.6362 42.2514 67.0853 42.4599C66.5195 42.6683 65.9239 42.7725 65.2837 42.7725C64.2266 42.7725 63.4076 42.5194 62.8419 41.9983C62.2761 41.4772 61.9932 40.8221 61.9932 40.0181C61.9932 39.5416 62.0974 39.1098 62.3207 38.7227C62.5292 38.3356 62.8121 38.0229 63.1694 37.7847C63.5119 37.5465 63.9139 37.3678 64.3457 37.2487C64.6732 37.1594 65.1497 37.0849 65.8048 36.9956C67.1299 36.8318 68.0977 36.6531 68.7231 36.4298C68.7231 36.2065 68.7231 36.0576 68.7231 35.998C68.7231 35.328 68.5742 34.8664 68.2615 34.5835C67.8446 34.2113 67.2193 34.0326 66.4004 34.0326C65.6261 34.0326 65.0603 34.1666 64.703 34.4346C64.3308 34.7027 64.0628 35.1791 63.8841 35.864L62.291 35.6407C62.4399 34.9558 62.6781 34.4049 63.0056 33.988C63.3332 33.5711 63.8245 33.2435 64.4499 33.0202C65.0752 32.7968 65.8048 32.6777 66.6386 32.6777C67.4723 32.6777 68.1275 32.7671 68.6486 32.9755C69.1697 33.1691 69.542 33.4073 69.7802 33.7051C70.0184 34.0029 70.1971 34.3751 70.2864 34.8218C70.346 35.1047 70.3757 35.6109 70.3757 36.3256V38.4994C70.3757 40.0181 70.4055 40.9859 70.48 41.3879C70.5544 41.7899 70.6884 42.177 70.8969 42.5492H69.1846C69.0208 42.2068 68.9017 41.8196 68.8571 41.3581L68.8273 41.373ZM68.6784 37.7103C68.0828 37.9485 67.1895 38.1569 66.0132 38.3356C65.3432 38.4249 64.8668 38.544 64.5839 38.6632C64.301 38.7823 64.0925 38.9609 63.9436 39.1992C63.7947 39.4374 63.7203 39.6905 63.7203 39.9734C63.7203 40.4052 63.8841 40.7774 64.2117 41.0603C64.5392 41.3581 65.0306 41.4921 65.6559 41.4921C66.2813 41.4921 66.847 41.3581 67.3383 41.0752C67.8297 40.7923 68.187 40.4201 68.4253 39.9436C68.6039 39.5714 68.6933 39.0354 68.6933 38.3058V37.7103H68.6784Z" fill="#595757"/>
<path d="M72.8325 42.564V29.2383H74.4703V42.564H72.8325Z" fill="#595757"/>
<path d="M83.2994 39.0203L84.9075 39.2287C84.7288 40.3305 84.2821 41.209 83.5525 41.8343C82.823 42.4596 81.9445 42.7723 80.8874 42.7723C79.5622 42.7723 78.5051 42.3405 77.7011 41.477C76.8971 40.6134 76.4951 39.3776 76.4951 37.7696C76.4951 36.7273 76.6738 35.8191 77.0162 35.03C77.3586 34.2557 77.8947 33.6602 78.5944 33.2731C79.2942 32.8859 80.0685 32.6924 80.9023 32.6924C81.9445 32.6924 82.8081 32.9604 83.4781 33.4815C84.1481 34.0175 84.565 34.762 84.7586 35.7446L83.1654 35.9829C83.0165 35.3278 82.7485 34.8513 82.3614 34.5237C81.9743 34.1962 81.5127 34.0324 80.9618 34.0324C80.1429 34.0324 79.4729 34.3302 78.9518 34.9257C78.4307 35.5213 78.1775 36.4444 78.1775 37.7249C78.1775 39.0054 78.4307 39.9583 78.922 40.5538C79.4133 41.1345 80.0685 41.4323 80.8725 41.4323C81.5127 41.4323 82.0487 41.2387 82.4805 40.8367C82.9123 40.4496 83.1803 39.8392 83.2994 39.0203Z" fill="#595757"/>
<path d="M92.6352 42.5637V41.1492C91.8908 42.2361 90.8634 42.787 89.5681 42.787C89.0023 42.787 88.4663 42.6828 87.9749 42.4594C87.4836 42.2361 87.1114 41.9681 86.8732 41.6405C86.6349 41.313 86.4711 40.911 86.3669 40.4345C86.3073 40.107 86.2627 39.6007 86.2627 38.9009V32.9155H87.9005V38.2756C87.9005 39.1243 87.9302 39.705 88.0047 40.0027C88.1089 40.4345 88.3323 40.777 88.6598 41.0152C88.9874 41.2534 89.4043 41.3874 89.8956 41.3874C90.387 41.3874 90.8485 41.2683 91.2803 41.0152C91.7121 40.7621 92.0099 40.4196 92.1885 39.9879C92.3672 39.5561 92.4566 38.9307 92.4566 38.0969V32.9304H94.0943V42.5786H92.6352V42.5637Z" fill="#595757"/>
<path d="M96.6255 42.564V29.2383H98.2633V42.564H96.6255Z" fill="#595757"/>
<path d="M107.092 41.373C106.482 41.8941 105.901 42.2514 105.35 42.4599C104.785 42.6683 104.189 42.7725 103.549 42.7725C102.492 42.7725 101.673 42.5194 101.107 41.9983C100.541 41.4772 100.258 40.8221 100.258 40.0181C100.258 39.5416 100.363 39.1098 100.586 38.7227C100.794 38.3356 101.077 38.0229 101.435 37.7847C101.792 37.5465 102.179 37.3678 102.611 37.2487C102.938 37.1594 103.415 37.0849 104.07 36.9956C105.395 36.8318 106.363 36.6531 106.988 36.4298C106.988 36.2065 106.988 36.0576 106.988 35.998C106.988 35.328 106.839 34.8664 106.527 34.5835C106.11 34.2113 105.484 34.0326 104.665 34.0326C103.891 34.0326 103.325 34.1666 102.968 34.4346C102.596 34.7027 102.328 35.1791 102.149 35.864L100.556 35.6407C100.705 34.9558 100.943 34.4049 101.271 33.988C101.598 33.5711 102.09 33.2435 102.715 33.0202C103.34 32.7968 104.07 32.6777 104.904 32.6777C105.737 32.6777 106.393 32.7671 106.914 32.9755C107.435 33.1691 107.807 33.4073 108.045 33.7051C108.283 34.0029 108.462 34.3751 108.552 34.8218C108.611 35.1047 108.641 35.6109 108.641 36.3256V38.4994C108.641 40.0181 108.671 40.9859 108.745 41.3879C108.82 41.7899 108.954 42.177 109.162 42.5492H107.45C107.286 42.2068 107.167 41.8196 107.122 41.3581L107.092 41.373ZM106.958 37.7103C106.363 37.9485 105.469 38.1569 104.293 38.3356C103.623 38.4249 103.147 38.544 102.864 38.6632C102.581 38.7823 102.373 38.9609 102.224 39.1992C102.075 39.4374 102 39.6905 102 39.9734C102 40.4052 102.164 40.7774 102.492 41.0603C102.819 41.3581 103.311 41.4921 103.936 41.4921C104.561 41.4921 105.127 41.3581 105.618 41.0752C106.11 40.7923 106.467 40.4201 106.705 39.9436C106.884 39.5714 106.973 39.0354 106.973 38.3058V37.7103H106.958Z" fill="#595757"/>
<path d="M114.731 41.0901L114.969 42.5343C114.508 42.6237 114.091 42.6832 113.733 42.6832C113.138 42.6832 112.676 42.5939 112.349 42.4003C112.021 42.2068 111.798 41.9685 111.664 41.6559C111.53 41.3432 111.47 40.703 111.47 39.7203V34.1666H110.264V32.9011H111.47V30.5188L113.093 29.5361V32.9011H114.731V34.1666H113.093V39.8096C113.093 40.2712 113.123 40.569 113.182 40.703C113.242 40.837 113.331 40.9412 113.465 41.0156C113.599 41.0901 113.778 41.1347 114.031 41.1347C114.21 41.1347 114.448 41.1199 114.746 41.0752L114.731 41.0901Z" fill="#595757"/>
<path d="M122.935 39.4523L124.632 39.6607C124.364 40.6434 123.873 41.4176 123.143 41.9536C122.429 42.5045 121.506 42.7725 120.374 42.7725C118.959 42.7725 117.843 42.3408 117.024 41.4623C116.19 40.5987 115.788 39.3778 115.788 37.7996C115.788 36.2213 116.205 34.9111 117.039 34.0178C117.873 33.1244 118.959 32.6777 120.299 32.6777C121.64 32.6777 122.637 33.1095 123.456 34.0029C124.275 34.8813 124.677 36.1171 124.677 37.7103C124.677 37.7996 124.677 37.9485 124.677 38.142H117.485C117.545 39.1992 117.843 40.0181 118.379 40.5839C118.915 41.1496 119.585 41.4325 120.389 41.4325C120.984 41.4325 121.505 41.2687 121.922 40.9561C122.339 40.6434 122.682 40.1372 122.935 39.4523ZM117.56 36.802H122.95C122.875 35.9831 122.667 35.3876 122.339 34.9707C121.818 34.3453 121.148 34.0326 120.314 34.0326C119.57 34.0326 118.93 34.2858 118.423 34.792C117.917 35.2982 117.634 35.9682 117.575 36.8169L117.56 36.802Z" fill="#595757"/>
<path d="M135.412 41.0901L135.65 42.5343C135.188 42.6237 134.771 42.6832 134.414 42.6832C133.818 42.6832 133.357 42.5939 133.029 42.4003C132.702 42.2068 132.478 41.9685 132.344 41.6559C132.21 41.3432 132.151 40.703 132.151 39.7203V34.1666H130.945V32.9011H132.151V30.5188L133.774 29.5361V32.9011H135.412V34.1666H133.774V39.8096C133.774 40.2712 133.804 40.569 133.863 40.703C133.923 40.837 134.012 40.9412 134.146 41.0156C134.28 41.0901 134.459 41.1347 134.712 41.1347C134.89 41.1347 135.129 41.1199 135.426 41.0752L135.412 41.0901Z" fill="#595757"/>
<path d="M137.02 42.564V29.2383H138.657V34.0177C139.417 33.1392 140.384 32.6926 141.546 32.6926C142.26 32.6926 142.886 32.8266 143.407 33.1094C143.928 33.3923 144.315 33.7795 144.539 34.2708C144.762 34.7621 144.881 35.4917 144.881 36.4297V42.5491H143.243V36.4297C143.243 35.6108 143.065 35.0153 142.707 34.643C142.35 34.2708 141.858 34.0772 141.203 34.0772C140.712 34.0772 140.265 34.1964 139.834 34.4495C139.402 34.7026 139.104 35.045 138.925 35.4768C138.747 35.9086 138.657 36.5042 138.657 37.2635V42.5491H137.02V42.564Z" fill="#595757"/>
<path d="M153.978 39.4523L155.675 39.6607C155.407 40.6434 154.916 41.4176 154.186 41.9536C153.472 42.5045 152.548 42.7725 151.417 42.7725C150.002 42.7725 148.886 42.3408 148.067 41.4623C147.233 40.5987 146.831 39.3778 146.831 37.7996C146.831 36.2213 147.248 34.9111 148.082 34.0178C148.916 33.1244 150.002 32.6777 151.342 32.6777C152.682 32.6777 153.68 33.1095 154.499 34.0029C155.318 34.8813 155.72 36.1171 155.72 37.7103C155.72 37.7996 155.72 37.9485 155.72 38.142H148.528C148.588 39.1992 148.886 40.0181 149.422 40.5839C149.958 41.1496 150.628 41.4325 151.432 41.4325C152.027 41.4325 152.548 41.2687 152.965 40.9561C153.382 40.6434 153.725 40.1372 153.978 39.4523ZM148.603 36.802H153.993C153.918 35.9831 153.71 35.3876 153.382 34.9707C152.861 34.3453 152.191 34.0326 151.357 34.0326C150.613 34.0326 149.973 34.2858 149.466 34.792C148.96 35.2982 148.677 35.9682 148.618 36.8169L148.603 36.802Z" fill="#595757"/>
<path d="M169.18 41.373C168.57 41.8941 167.989 42.2514 167.438 42.4599C166.872 42.6683 166.277 42.7725 165.637 42.7725C164.58 42.7725 163.761 42.5194 163.195 41.9983C162.629 41.4772 162.346 40.8221 162.346 40.0181C162.346 39.5416 162.45 39.1098 162.674 38.7227C162.882 38.3356 163.165 38.0229 163.522 37.7847C163.865 37.5465 164.267 37.3678 164.699 37.2487C165.026 37.1594 165.503 37.0849 166.158 36.9956C167.483 36.8318 168.451 36.6531 169.076 36.4298C169.076 36.2065 169.076 36.0576 169.076 35.998C169.076 35.328 168.927 34.8664 168.615 34.5835C168.198 34.2113 167.572 34.0326 166.753 34.0326C165.979 34.0326 165.413 34.1666 165.056 34.4346C164.684 34.7027 164.416 35.1791 164.237 35.864L162.644 35.6407C162.793 34.9558 163.031 34.4049 163.359 33.988C163.686 33.5711 164.178 33.2435 164.803 33.0202C165.428 32.7968 166.158 32.6777 166.992 32.6777C167.825 32.6777 168.481 32.7671 169.002 32.9755C169.523 33.1691 169.895 33.4073 170.133 33.7051C170.371 34.0029 170.55 34.3751 170.639 34.8218C170.699 35.1047 170.729 35.6109 170.729 36.3256V38.4994C170.729 40.0181 170.759 40.9859 170.833 41.3879C170.907 41.7899 171.041 42.177 171.25 42.5492H169.538C169.374 42.2068 169.255 41.8196 169.21 41.3581L169.18 41.373ZM169.046 37.7103C168.451 37.9485 167.557 38.1569 166.381 38.3356C165.711 38.4249 165.235 38.544 164.952 38.6632C164.669 38.7823 164.46 38.9609 164.312 39.1992C164.163 39.4374 164.088 39.6905 164.088 39.9734C164.088 40.4052 164.252 40.7774 164.58 41.0603C164.907 41.3581 165.398 41.4921 166.024 41.4921C166.649 41.4921 167.215 41.3581 167.706 41.0752C168.198 40.7923 168.555 40.4201 168.793 39.9436C168.972 39.5714 169.061 39.0354 169.061 38.3058V37.7103H169.046Z" fill="#595757"/>
<path d="M173.215 42.5639V32.9157H174.689V34.3749C175.061 33.69 175.403 33.2433 175.731 33.0199C176.044 32.7966 176.401 32.6924 176.773 32.6924C177.324 32.6924 177.89 32.8711 178.456 33.2135L177.89 34.7322C177.488 34.494 177.086 34.3749 176.684 34.3749C176.326 34.3749 175.999 34.4791 175.716 34.7024C175.433 34.9257 175.225 35.2086 175.106 35.5958C174.927 36.1764 174.838 36.8167 174.838 37.5016V42.549H173.2L173.215 42.5639Z" fill="#595757"/>
<path d="M179.424 42.5639V32.9157H180.898V34.3749C181.27 33.69 181.613 33.2433 181.94 33.0199C182.253 32.7966 182.61 32.6924 182.983 32.6924C183.533 32.6924 184.099 32.8711 184.665 33.2135L184.099 34.7322C183.697 34.494 183.295 34.3749 182.893 34.3749C182.536 34.3749 182.208 34.4791 181.925 34.7024C181.643 34.9257 181.434 35.2086 181.315 35.5958C181.136 36.1764 181.047 36.8167 181.047 37.5016V42.549H179.409L179.424 42.5639Z" fill="#595757"/>
<path d="M185.647 31.1143V29.2383H187.285V31.1143H185.647ZM185.647 42.564V32.9159H187.285V42.564H185.647Z" fill="#595757"/>
<path d="M192.452 42.5637L188.774 32.9155H190.502L192.571 38.6925C192.794 39.3178 193.003 39.9581 193.182 40.643C193.331 40.1367 193.524 39.5263 193.792 38.8116L195.936 32.9155H197.619L193.971 42.5637H192.437H192.452Z" fill="#595757"/>
<path d="M205.376 41.373C204.766 41.8941 204.185 42.2514 203.634 42.4599C203.068 42.6683 202.473 42.7725 201.832 42.7725C200.775 42.7725 199.956 42.5194 199.391 41.9983C198.825 41.4772 198.542 40.8221 198.542 40.0181C198.542 39.5416 198.646 39.1098 198.87 38.7227C199.078 38.3356 199.361 38.0229 199.718 37.7847C200.076 37.5465 200.463 37.3678 200.894 37.2487C201.222 37.1594 201.698 37.0849 202.354 36.9956C203.679 36.8318 204.647 36.6531 205.272 36.4298C205.272 36.2065 205.272 36.0576 205.272 35.998C205.272 35.328 205.123 34.8664 204.81 34.5835C204.393 34.2113 203.768 34.0326 202.949 34.0326C202.175 34.0326 201.609 34.1666 201.252 34.4346C200.88 34.7027 200.612 35.1791 200.433 35.864L198.84 35.6407C198.989 34.9558 199.227 34.4049 199.554 33.988C199.882 33.5711 200.373 33.2435 200.999 33.0202C201.624 32.7968 202.354 32.6777 203.187 32.6777C204.021 32.6777 204.676 32.7671 205.197 32.9755C205.718 33.1691 206.091 33.4073 206.329 33.7051C206.567 34.0029 206.746 34.3751 206.835 34.8218C206.895 35.1047 206.925 35.6109 206.925 36.3256V38.4994C206.925 40.0181 206.954 40.9859 207.029 41.3879C207.103 41.7899 207.237 42.177 207.446 42.5492H205.733C205.57 42.2068 205.451 41.8196 205.406 41.3581L205.376 41.373ZM205.242 37.7103C204.647 37.9485 203.753 38.1569 202.577 38.3356C201.907 38.4249 201.43 38.544 201.148 38.6632C200.865 38.7823 200.656 38.9609 200.507 39.1992C200.358 39.4374 200.284 39.6905 200.284 39.9734C200.284 40.4052 200.448 40.7774 200.775 41.0603C201.103 41.3581 201.594 41.4921 202.22 41.4921C202.845 41.4921 203.411 41.3581 203.902 41.0752C204.393 40.7923 204.751 40.4201 204.989 39.9436C205.168 39.5714 205.257 39.0354 205.257 38.3058V37.7103H205.242Z" fill="#595757"/>
<path d="M209.395 42.564V29.2383H211.033V42.564H209.395Z" fill="#595757"/>
<path d="M222.305 41.0901L222.543 42.5343C222.081 42.6237 221.664 42.6832 221.307 42.6832C220.711 42.6832 220.25 42.5939 219.922 42.4003C219.595 42.2068 219.371 41.9685 219.237 41.6559C219.103 41.3432 219.044 40.703 219.044 39.7203V34.1666H217.838V32.9011H219.044V30.5188L220.667 29.5361V32.9011H222.305V34.1666H220.667V39.8096C220.667 40.2712 220.697 40.569 220.756 40.703C220.816 40.837 220.905 40.9412 221.039 41.0156C221.173 41.0901 221.352 41.1347 221.605 41.1347C221.784 41.1347 222.022 41.1199 222.319 41.0752L222.305 41.0901Z" fill="#595757"/>
<path d="M223.912 31.1143V29.2383H225.55V31.1143H223.912ZM223.912 42.564V32.9159H225.55V42.564H223.912Z" fill="#595757"/>
<path d="M228.036 42.5639V32.9157H229.495V34.2706C229.793 33.7942 230.195 33.4219 230.701 33.1242C231.208 32.8413 231.774 32.6924 232.414 32.6924C233.128 32.6924 233.709 32.8413 234.171 33.1391C234.632 33.4368 234.945 33.8537 235.138 34.3897C235.898 33.2582 236.895 32.6924 238.116 32.6924C239.069 32.6924 239.814 32.9604 240.32 33.4815C240.841 34.0175 241.094 34.8215 241.094 35.9382V42.5639H239.471V36.4891C239.471 35.834 239.412 35.3575 239.307 35.0746C239.203 34.7917 239.01 34.5535 238.727 34.3749C238.444 34.1962 238.116 34.1068 237.744 34.1068C237.059 34.1068 236.508 34.3302 236.047 34.7769C235.6 35.2235 235.377 35.9531 235.377 36.9507V42.5639H233.739V36.2955C233.739 35.566 233.605 35.03 233.337 34.6577C233.069 34.3004 232.637 34.1068 232.027 34.1068C231.565 34.1068 231.133 34.226 230.746 34.4642C230.359 34.7024 230.076 35.0598 229.898 35.5213C229.719 35.9829 229.629 36.6529 229.629 37.5313V42.5341H227.992L228.036 42.5639Z" fill="#595757"/>
<path d="M250.147 39.4523L251.845 39.6607C251.577 40.6434 251.085 41.4176 250.356 41.9536C249.641 42.5045 248.718 42.7725 247.586 42.7725C246.172 42.7725 245.055 42.3408 244.236 41.4623C243.402 40.5987 243 39.3778 243 37.7996C243 36.2213 243.417 34.9111 244.251 34.0178C245.085 33.1244 246.172 32.6777 247.512 32.6777C248.852 32.6777 249.849 33.1095 250.668 34.0029C251.487 34.8813 251.889 36.1171 251.889 37.7103C251.889 37.7996 251.889 37.9485 251.889 38.142H244.698C244.757 39.1992 245.055 40.0181 245.591 40.5839C246.127 41.1496 246.797 41.4325 247.601 41.4325C248.197 41.4325 248.718 41.2687 249.135 40.9561C249.552 40.6434 249.894 40.1372 250.147 39.4523ZM244.772 36.802H250.162C250.088 35.9831 249.879 35.3876 249.537 34.9707C249.016 34.3453 248.346 34.0326 247.512 34.0326C246.767 34.0326 246.127 34.2858 245.621 34.792C245.115 35.2982 244.832 35.9682 244.772 36.8169V36.802Z" fill="#595757"/>
<path d="M260.569 42.564H259.051V29.2383H260.689V33.9879C261.373 33.1243 262.267 32.6926 263.339 32.6926C263.934 32.6926 264.5 32.8117 265.021 33.0499C265.557 33.2881 265.989 33.6306 266.332 34.0624C266.674 34.4941 266.942 35.0153 267.136 35.6257C267.329 36.2362 267.433 36.8913 267.433 37.5911C267.433 39.2438 267.031 40.5242 266.212 41.4325C265.394 42.3407 264.411 42.7874 263.264 42.7874C262.118 42.7874 261.225 42.3109 260.584 41.358V42.564H260.569ZM260.555 37.6655C260.555 38.8269 260.718 39.6607 261.031 40.1669C261.552 41.0156 262.237 41.4325 263.116 41.4325C263.83 41.4325 264.456 41.1198 264.977 40.4944C265.498 39.8691 265.766 38.946 265.766 37.7251C265.766 36.5042 265.513 35.5364 265.021 34.9408C264.515 34.3452 263.92 34.0475 263.205 34.0475C262.49 34.0475 261.88 34.3601 261.344 34.9855C260.823 35.6108 260.569 36.5042 260.569 37.6804L260.555 37.6655Z" fill="#595757"/>
<path d="M276.024 39.4523L277.722 39.6607C277.454 40.6434 276.962 41.4176 276.233 41.9536C275.518 42.5045 274.595 42.7725 273.463 42.7725C272.049 42.7725 270.932 42.3408 270.113 41.4623C269.279 40.5987 268.877 39.3778 268.877 37.7996C268.877 36.2213 269.294 34.9111 270.128 34.0178C270.962 33.1244 272.049 32.6777 273.389 32.6777C274.729 32.6777 275.726 33.1095 276.545 34.0029C277.364 34.8813 277.766 36.1171 277.766 37.7103C277.766 37.7996 277.766 37.9485 277.766 38.142H270.575C270.634 39.1992 270.932 40.0181 271.468 40.5839C272.004 41.1496 272.674 41.4325 273.478 41.4325C274.074 41.4325 274.595 41.2687 275.012 40.9561C275.429 40.6434 275.771 40.1372 276.024 39.4523ZM270.649 36.802H276.039C275.965 35.9831 275.756 35.3876 275.429 34.9707C274.908 34.3453 274.238 34.0326 273.404 34.0326C272.659 34.0326 272.019 34.2858 271.513 34.792C271.007 35.2982 270.724 35.9682 270.664 36.8169L270.649 36.802Z" fill="#595757"/>
<path d="M280.149 42.564V34.1814H278.705V32.9158H280.149V31.8885C280.149 31.2334 280.208 30.7569 280.327 30.4442C280.491 30.0274 280.759 29.67 281.161 29.4169C281.563 29.1489 282.114 29.0149 282.829 29.0149C283.29 29.0149 283.797 29.0744 284.362 29.1787L284.124 30.608C283.782 30.5485 283.469 30.5187 283.156 30.5187C282.665 30.5187 282.308 30.6229 282.099 30.8314C281.891 31.0398 281.787 31.4418 281.787 32.0225V32.9158H283.663V34.1814H281.787V42.564H280.164H280.149Z" fill="#595757"/>
<path d="M284.333 37.7398C284.333 35.9531 284.824 34.628 285.821 33.7644C286.655 33.0497 287.668 32.6924 288.859 32.6924C290.184 32.6924 291.271 33.1242 292.119 34.0026C292.968 34.8662 293.385 36.0722 293.385 37.6058C293.385 38.8416 293.192 39.8243 292.819 40.5389C292.447 41.2536 291.911 41.8045 291.196 42.1916C290.482 42.5787 289.707 42.7872 288.859 42.7872C287.504 42.7872 286.417 42.3554 285.583 41.4918C284.749 40.6283 284.333 39.3776 284.333 37.7547V37.7398ZM286 37.7398C286 38.9756 286.268 39.8987 286.804 40.5092C287.34 41.1196 288.025 41.4323 288.844 41.4323C289.663 41.4323 290.333 41.1196 290.869 40.5092C291.405 39.8838 291.673 38.9458 291.673 37.6802C291.673 36.4891 291.405 35.5809 290.854 34.9704C290.318 34.36 289.633 34.0473 288.829 34.0473C288.025 34.0473 287.34 34.36 286.789 34.9704C286.253 35.5809 285.985 36.504 285.985 37.7398H286Z" fill="#595757"/>
<path d="M295.261 42.5639V32.9157H296.735V34.3749C297.107 33.69 297.45 33.2433 297.777 33.0199C298.09 32.7966 298.447 32.6924 298.819 32.6924C299.37 32.6924 299.936 32.8711 300.502 33.2135L299.936 34.7322C299.534 34.494 299.132 34.3749 298.73 34.3749C298.373 34.3749 298.045 34.4791 297.762 34.7024C297.479 34.9257 297.271 35.2086 297.152 35.5958C296.973 36.1764 296.884 36.8167 296.884 37.5016V42.549H295.246L295.261 42.5639Z" fill="#595757"/>
<path d="M308.095 39.4523L309.793 39.6607C309.525 40.6434 309.033 41.4176 308.304 41.9536C307.589 42.5045 306.666 42.7725 305.535 42.7725C304.12 42.7725 303.003 42.3408 302.185 41.4623C301.351 40.5987 300.949 39.3778 300.949 37.7996C300.949 36.2213 301.366 34.9111 302.199 34.0178C303.033 33.1244 304.12 32.6777 305.46 32.6777C306.8 32.6777 307.798 33.1095 308.617 34.0029C309.436 34.8813 309.838 36.1171 309.838 37.7103C309.838 37.7996 309.838 37.9485 309.838 38.142H302.646C302.706 39.1992 303.003 40.0181 303.539 40.5839C304.075 41.1496 304.745 41.4325 305.549 41.4325C306.145 41.4325 306.666 41.2687 307.083 40.9561C307.5 40.6434 307.842 40.1372 308.095 39.4523ZM302.72 36.802H308.11C308.036 35.9831 307.827 35.3876 307.5 34.9707C306.979 34.3453 306.309 34.0326 305.475 34.0326C304.731 34.0326 304.09 34.2858 303.584 34.792C303.078 35.2982 302.795 35.9682 302.735 36.8169L302.72 36.802Z" fill="#595757"/>
<path d="M316.999 42.564V29.2383H318.636V34.0177C319.396 33.1392 320.363 32.6926 321.525 32.6926C322.239 32.6926 322.865 32.8266 323.386 33.1094C323.907 33.3923 324.294 33.7795 324.518 34.2708C324.741 34.7621 324.86 35.4917 324.86 36.4297V42.5491H323.222V36.4297C323.222 35.6108 323.043 35.0153 322.686 34.643C322.329 34.2708 321.837 34.0772 321.182 34.0772C320.691 34.0772 320.244 34.1964 319.813 34.4495C319.381 34.7026 319.083 35.045 318.904 35.4768C318.726 35.9086 318.636 36.5042 318.636 37.2635V42.5491H316.999V42.564Z" fill="#595757"/>
<path d="M333.958 39.4523L335.656 39.6607C335.388 40.6434 334.896 41.4176 334.167 41.9536C333.452 42.5045 332.529 42.7725 331.397 42.7725C329.983 42.7725 328.866 42.3408 328.047 41.4623C327.214 40.5987 326.812 39.3778 326.812 37.7996C326.812 36.2213 327.228 34.9111 328.062 34.0178C328.896 33.1244 329.983 32.6777 331.323 32.6777C332.663 32.6777 333.661 33.1095 334.479 34.0029C335.298 34.8813 335.7 36.1171 335.7 37.7103C335.7 37.7996 335.7 37.9485 335.7 38.142H328.509C328.568 39.1992 328.866 40.0181 329.402 40.5839C329.938 41.1496 330.608 41.4325 331.427 41.4325C332.023 41.4325 332.544 41.2687 332.961 40.9561C333.378 40.6434 333.72 40.1372 333.973 39.4523H333.958ZM328.598 36.802H333.988C333.914 35.9831 333.705 35.3876 333.363 34.9707C332.842 34.3453 332.172 34.0326 331.338 34.0326C330.593 34.0326 329.953 34.2858 329.447 34.792C328.941 35.2982 328.658 35.9682 328.598 36.8169V36.802Z" fill="#595757"/>
<path d="M344.008 41.373C343.398 41.8941 342.817 42.2514 342.266 42.4599C341.7 42.6683 341.105 42.7725 340.464 42.7725C339.407 42.7725 338.588 42.5194 338.023 41.9983C337.457 41.4772 337.174 40.8221 337.174 40.0181C337.174 39.5416 337.278 39.1098 337.501 38.7227C337.71 38.3356 337.993 38.0229 338.35 37.7847C338.707 37.5465 339.095 37.3678 339.526 37.2487C339.854 37.1594 340.33 37.0849 340.985 36.9956C342.311 36.8318 343.278 36.6531 343.904 36.4298C343.904 36.2065 343.904 36.0576 343.904 35.998C343.904 35.328 343.755 34.8664 343.442 34.5835C343.025 34.2113 342.4 34.0326 341.581 34.0326C340.807 34.0326 340.241 34.1666 339.884 34.4346C339.511 34.7027 339.243 35.1791 339.065 35.864L337.472 35.6407C337.621 34.9558 337.859 34.4049 338.186 33.988C338.514 33.5711 339.005 33.2435 339.631 33.0202C340.256 32.7968 340.985 32.6777 341.819 32.6777C342.653 32.6777 343.308 32.7671 343.829 32.9755C344.35 33.1691 344.723 33.4073 344.961 33.7051C345.199 34.0029 345.378 34.3751 345.467 34.8218C345.527 35.1047 345.556 35.6109 345.556 36.3256V38.4994C345.556 40.0181 345.586 40.9859 345.661 41.3879C345.735 41.7899 345.869 42.177 346.077 42.5492H344.365C344.202 42.2068 344.082 41.8196 344.038 41.3581L344.008 41.373ZM343.874 37.7103C343.278 37.9485 342.385 38.1569 341.209 38.3356C340.539 38.4249 340.062 38.544 339.779 38.6632C339.497 38.7823 339.288 38.9609 339.139 39.1992C338.99 39.4374 338.916 39.6905 338.916 39.9734C338.916 40.4052 339.08 40.7774 339.407 41.0603C339.735 41.3432 340.226 41.4921 340.851 41.4921C341.477 41.4921 342.043 41.3581 342.534 41.0752C343.025 40.7923 343.383 40.4201 343.621 39.9436C343.8 39.5714 343.889 39.0354 343.889 38.3058V37.7103H343.874Z" fill="#595757"/>
<path d="M354.326 42.564V41.3431C353.715 42.296 352.807 42.7725 351.631 42.7725C350.857 42.7725 350.157 42.564 349.502 42.1322C348.862 41.7154 348.355 41.1198 347.998 40.3604C347.641 39.6011 347.462 38.7226 347.462 37.74C347.462 36.7573 347.626 35.9086 347.938 35.1195C348.266 34.3304 348.742 33.7348 349.383 33.3179C350.023 32.901 350.738 32.6926 351.542 32.6926C352.122 32.6926 352.643 32.8117 353.09 33.0648C353.552 33.3179 353.909 33.6306 354.192 34.0177V29.2383H355.815V42.564H354.296H354.326ZM349.144 37.74C349.144 38.9758 349.398 39.8989 349.919 40.5093C350.44 41.1198 351.05 41.4325 351.765 41.4325C352.48 41.4325 353.09 41.1347 353.581 40.554C354.088 39.9733 354.326 39.08 354.326 37.874C354.326 36.5488 354.073 35.581 353.567 34.9706C353.06 34.3601 352.435 34.0475 351.69 34.0475C350.946 34.0475 350.35 34.3452 349.874 34.9408C349.383 35.5364 349.144 36.4744 349.144 37.7548V37.74Z" fill="#595757"/>
<path d="M358.421 31.1143V29.2383H360.059V31.1143H358.421ZM358.421 42.564V32.9159H360.059V42.564H358.421Z" fill="#595757"/>
<path d="M362.545 42.5639V32.9157H364.019V34.2855C364.734 33.2284 365.746 32.6924 367.086 32.6924C367.667 32.6924 368.203 32.7966 368.694 33.0051C369.185 33.2135 369.543 33.4815 369.796 33.824C370.034 34.1664 370.213 34.5684 370.302 35.03C370.362 35.3278 370.392 35.8638 370.392 36.6231V42.5639H368.754V36.6976C368.754 36.0275 368.694 35.5362 368.56 35.2086C368.426 34.8811 368.203 34.6131 367.89 34.4195C367.563 34.226 367.19 34.1217 366.744 34.1217C366.044 34.1217 365.448 34.3451 364.942 34.7917C364.436 35.2384 364.183 36.0722 364.183 37.308V42.5787H362.545V42.5639Z" fill="#595757"/>
<path d="M372.595 43.353L374.188 43.5912C374.248 44.0826 374.441 44.4399 374.739 44.6632C375.141 44.961 375.707 45.1248 376.407 45.1248C377.166 45.1248 377.747 44.9759 378.164 44.6632C378.581 44.3654 378.849 43.9337 378.997 43.3977C379.087 43.0701 379.117 42.3703 379.117 41.2983C378.402 42.147 377.509 42.5639 376.451 42.5639C375.126 42.5639 374.099 42.0874 373.369 41.1345C372.64 40.1816 372.282 39.0351 372.282 37.6951C372.282 36.772 372.446 35.9233 372.789 35.1491C373.116 34.3749 373.608 33.7644 374.233 33.3475C374.858 32.9306 375.603 32.7073 376.466 32.7073C377.613 32.7073 378.551 33.1688 379.28 34.092V32.9306H380.784V41.2685C380.784 42.7723 380.635 43.8294 380.323 44.4697C380.01 45.095 379.533 45.5864 378.863 45.9586C378.193 46.3159 377.389 46.5095 376.407 46.5095C375.26 46.5095 374.322 46.2564 373.622 45.7352C372.908 45.2141 372.565 44.4399 372.595 43.3977V43.353ZM373.95 37.5611C373.95 38.8267 374.203 39.7498 374.709 40.3305C375.216 40.9112 375.841 41.209 376.6 41.209C377.36 41.209 377.985 40.9261 378.491 40.3454C378.997 39.7647 379.251 38.8565 379.251 37.6207C379.251 36.3849 378.983 35.5511 378.461 34.9555C377.94 34.36 377.3 34.0622 376.571 34.0622C375.841 34.0622 375.231 34.36 374.709 34.9406C374.203 35.5362 373.95 36.4147 373.95 37.576V37.5611Z" fill="#595757"/>
<path d="M387.812 37.7398C387.812 35.9531 388.303 34.628 389.3 33.7644C390.134 33.0497 391.147 32.6924 392.338 32.6924C393.663 32.6924 394.75 33.1242 395.598 34.0026C396.447 34.8811 396.864 36.0722 396.864 37.6058C396.864 38.8416 396.671 39.8243 396.298 40.5389C395.926 41.2536 395.39 41.8045 394.675 42.1916C393.961 42.5787 393.186 42.7872 392.338 42.7872C390.983 42.7872 389.896 42.3554 389.062 41.4918C388.228 40.6283 387.812 39.3776 387.812 37.7547V37.7398ZM389.494 37.7398C389.494 38.9756 389.762 39.8987 390.298 40.5092C390.834 41.1196 391.519 41.4323 392.338 41.4323C393.157 41.4323 393.827 41.1196 394.363 40.5092C394.899 39.8838 395.167 38.9458 395.167 37.6802C395.167 36.4891 394.899 35.5809 394.348 34.9704C393.812 34.36 393.127 34.0473 392.323 34.0473C391.519 34.0473 390.834 34.36 390.283 34.9704C389.747 35.5809 389.479 36.504 389.479 37.7398H389.494Z" fill="#595757"/>
<path d="M405.098 42.5637V41.1492C404.353 42.2361 403.326 42.787 402.031 42.787C401.465 42.787 400.929 42.6828 400.438 42.4594C399.946 42.2361 399.574 41.9681 399.336 41.6405C399.098 41.313 398.934 40.911 398.829 40.4345C398.77 40.107 398.725 39.6007 398.725 38.9009V32.9155H400.363V38.2756C400.363 39.1243 400.393 39.705 400.467 40.0027C400.572 40.4345 400.795 40.777 401.122 41.0152C401.45 41.2534 401.867 41.3874 402.358 41.3874C402.85 41.3874 403.311 41.2683 403.743 41.0152C404.175 40.7621 404.473 40.4196 404.651 39.9879C404.83 39.5561 404.919 38.9307 404.919 38.0969V32.9304H406.557V42.5786H405.098V42.5637Z" fill="#595757"/>
<path d="M412.691 41.0901L412.929 42.5343C412.468 42.6237 412.051 42.6832 411.694 42.6832C411.098 42.6832 410.636 42.5939 410.309 42.4003C409.981 42.2068 409.758 41.9685 409.624 41.6559C409.49 41.3432 409.43 40.703 409.43 39.7203V34.1666H408.224V32.9011H409.43V30.5188L411.053 29.5361V32.9011H412.691V34.1666H411.053V39.8096C411.053 40.2712 411.083 40.569 411.143 40.703C411.202 40.837 411.292 40.9412 411.426 41.0156C411.56 41.0901 411.738 41.1347 411.991 41.1347C412.17 41.1347 412.408 41.1199 412.706 41.0752L412.691 41.0901Z" fill="#595757"/>
<path d="M414.716 42.5637V40.7025H416.577V42.5637C416.577 43.2486 416.458 43.7995 416.22 44.2164C415.982 44.6333 415.595 44.9608 415.059 45.199L414.597 44.4993C414.94 44.3504 415.193 44.127 415.357 43.8292C415.52 43.5315 415.61 43.1146 415.625 42.5637H414.701H414.716ZM414.716 34.7767V32.9155H416.577V34.7767H414.716Z" fill="#595757"/>
<path d="M430.93 41.373C430.32 41.8941 429.739 42.2514 429.188 42.4599C428.623 42.6683 428.027 42.7725 427.387 42.7725C426.33 42.7725 425.511 42.5194 424.945 41.9983C424.379 41.4772 424.096 40.8221 424.096 40.0181C424.096 39.5416 424.201 39.1098 424.424 38.7227C424.632 38.3356 424.915 38.0229 425.273 37.7847C425.63 37.5465 426.017 37.3678 426.449 37.2487C426.776 37.1594 427.253 37.0849 427.908 36.9956C429.233 36.8318 430.201 36.6531 430.826 36.4298C430.826 36.2065 430.826 36.0576 430.826 35.998C430.826 35.328 430.677 34.8664 430.365 34.5835C429.948 34.2113 429.323 34.0326 428.504 34.0326C427.729 34.0326 427.164 34.1666 426.806 34.4346C426.434 34.7027 426.166 35.1791 425.987 35.864L424.394 35.6407C424.543 34.9558 424.781 34.4049 425.109 33.988C425.436 33.5711 425.928 33.2435 426.553 33.0202C427.179 32.7968 427.908 32.6777 428.742 32.6777C429.576 32.6777 430.231 32.7671 430.752 32.9755C431.273 33.1691 431.645 33.4073 431.883 33.7051C432.122 34.0029 432.3 34.3751 432.39 34.8218C432.449 35.1047 432.479 35.6109 432.479 36.3256V38.4994C432.479 40.0181 432.509 40.9859 432.583 41.3879C432.658 41.7899 432.792 42.177 433 42.5492H431.288C431.124 42.2068 431.005 41.8196 430.96 41.3581L430.93 41.373ZM430.797 37.7103C430.201 37.9485 429.308 38.1569 428.131 38.3356C427.461 38.4249 426.985 38.544 426.702 38.6632C426.419 38.7823 426.211 38.9609 426.062 39.1992C425.913 39.4374 425.838 39.6905 425.838 39.9734C425.838 40.4052 426.002 40.7774 426.33 41.0603C426.657 41.3432 427.149 41.4921 427.774 41.4921C428.399 41.4921 428.965 41.3581 429.456 41.0752C429.948 40.7923 430.305 40.4201 430.543 39.9436C430.722 39.5714 430.811 39.0354 430.811 38.3058V37.7103H430.797Z" fill="#595757"/>
<path d="M47 68.6347L47.3127 67.25C47.6403 67.3393 47.8934 67.384 48.0869 67.384C48.4145 67.384 48.6676 67.2798 48.8314 67.0564C48.9952 66.8331 49.0696 66.2822 49.0696 65.4038V55.2643H50.7074V65.4484C50.7074 66.6396 50.5585 67.4585 50.2459 67.9349C49.8587 68.5454 49.2036 68.8431 48.2805 68.8431C47.8338 68.8431 47.4169 68.7836 47 68.6645V68.6347ZM49.0696 53.4776V51.5718H50.7074V53.4776H49.0696Z" fill="#595757"/>
<path d="M59.5366 64.8974V63.4829C58.7921 64.5698 57.7648 65.1207 56.4694 65.1207C55.9037 65.1207 55.3676 65.0165 54.8763 64.7932C54.385 64.5698 54.0127 64.3018 53.7745 63.9743C53.5363 63.6467 53.3725 63.2447 53.2683 62.7683C53.2087 62.4407 53.1641 61.9345 53.1641 61.2347V55.2493H54.8019V60.6093C54.8019 61.458 54.8317 62.0387 54.9061 62.3365C55.0103 62.7683 55.2336 63.1107 55.5612 63.3489C55.8887 63.5872 56.3057 63.7212 56.797 63.7212C57.2883 63.7212 57.7499 63.6021 58.1817 63.3489C58.6135 63.0958 58.9113 62.7534 59.0899 62.3216C59.2686 61.8898 59.3579 61.2645 59.3579 60.4307V55.2642H60.9957V64.9123H59.5366V64.8974Z" fill="#595757"/>
<path d="M62.9165 62.0091L64.5395 61.756C64.6288 62.4111 64.8819 62.9025 65.2988 63.2449C65.7157 63.5874 66.2964 63.766 67.0408 63.766C67.7853 63.766 68.351 63.6171 68.7084 63.3045C69.0657 62.9918 69.2593 62.6345 69.2593 62.2325C69.2593 61.8602 69.0955 61.5773 68.7828 61.354C68.5595 61.2051 67.9937 61.0264 67.1152 60.8031C65.9092 60.5053 65.0903 60.2373 64.6139 60.014C64.1523 59.7906 63.795 59.4929 63.5568 59.0909C63.3185 58.7037 63.1994 58.2719 63.1994 57.7955C63.1994 57.3637 63.3036 56.9617 63.4972 56.6044C63.6908 56.2321 63.9588 55.9344 64.3012 55.6961C64.5543 55.5026 64.8968 55.3537 65.3434 55.2197C65.7901 55.0857 66.2517 55.0261 66.7579 55.0261C67.5173 55.0261 68.1724 55.1303 68.7531 55.3537C69.3188 55.577 69.7506 55.8599 70.0186 56.247C70.2866 56.6193 70.4802 57.1255 70.5844 57.7359L68.9913 57.9593C68.9168 57.4679 68.7084 57.0808 68.3659 56.7979C68.0235 56.515 67.5321 56.381 66.8919 56.381C66.1475 56.381 65.6115 56.5001 65.2839 56.7533C64.9564 57.0064 64.8074 57.2893 64.8074 57.6317C64.8074 57.8402 64.867 58.0337 65.001 58.1975C65.135 58.3762 65.3434 58.5251 65.6263 58.6293C65.7901 58.6888 66.2666 58.8228 67.0706 59.0462C68.2319 59.3589 69.0359 59.612 69.4975 59.8055C69.9591 59.9991 70.3164 60.282 70.5695 60.6691C70.8226 61.0413 70.9567 61.5178 70.9567 62.0687C70.9567 62.6196 70.7929 63.1258 70.4802 63.6022C70.1675 64.0787 69.7059 64.4509 69.1104 64.7189C68.5148 64.9869 67.8299 65.1209 67.0706 65.1209C65.8199 65.1209 64.867 64.8678 64.197 64.3467C63.5419 63.8256 63.125 63.0514 62.9314 62.024L62.9165 62.0091Z" fill="#595757"/>
<path d="M76.4506 63.4236L76.6888 64.8678C76.2272 64.9572 75.8104 65.0167 75.453 65.0167C74.8575 65.0167 74.3959 64.9274 74.0684 64.7338C73.7408 64.5403 73.5174 64.302 73.3834 63.9894C73.2494 63.6767 73.1899 63.0365 73.1899 62.0538V56.5001H71.9839V55.2346H73.1899V52.8523L74.8128 51.8696V55.2346H76.4506V56.5001H74.8128V62.1431C74.8128 62.6047 74.8426 62.9025 74.9021 63.0365C74.9617 63.1705 75.051 63.2747 75.185 63.3491C75.319 63.4236 75.4977 63.4682 75.7508 63.4682C75.9295 63.4682 76.1677 63.4534 76.4655 63.4087L76.4506 63.4236Z" fill="#595757"/>
<path d="M77.4033 60.8924V59.2546H82.4358V60.8924H77.4033Z" fill="#595757"/>
<path d="M84.2234 64.8976V55.2495H85.6974V56.7086C86.0696 56.0237 86.4121 55.577 86.7396 55.3537C87.0523 55.1303 87.4096 55.0261 87.7819 55.0261C88.3328 55.0261 88.8986 55.2048 89.4643 55.5472L88.8986 57.0659C88.4965 56.8277 88.0945 56.7086 87.6925 56.7086C87.3352 56.7086 87.0077 56.8128 86.7248 57.0362C86.4419 57.2446 86.2334 57.5424 86.1143 57.9295C85.9356 58.5102 85.8463 59.1504 85.8463 59.8353V64.8827H84.2085L84.2234 64.8976Z" fill="#595757"/>
<path d="M90.4468 53.4478V51.5718H92.0846V53.4478H90.4468ZM90.4468 64.8975V55.2494H92.0846V64.8975H90.4468Z" fill="#595757"/>
<path d="M94.2733 65.6867L95.8665 65.925C95.926 66.4163 96.1196 66.7736 96.4174 66.997C96.8194 67.2947 97.3852 67.4585 98.085 67.4585C98.8443 67.4585 99.425 67.3096 99.8419 66.997C100.259 66.6992 100.527 66.2674 100.676 65.7314C100.765 65.4038 100.795 64.704 100.795 63.632C100.08 64.4807 99.1867 64.8976 98.1147 64.8976C96.7896 64.8976 95.7622 64.4212 95.0327 63.4682C94.3031 62.5153 93.9458 61.3689 93.9458 60.0289C93.9458 59.1057 94.1096 58.2571 94.452 57.4828C94.7796 56.7086 95.2709 56.0981 95.8963 55.6812C96.5216 55.2644 97.2661 55.041 98.1296 55.041C99.2761 55.041 100.214 55.5026 100.944 56.4257V55.2644H102.447V63.6023C102.447 65.1061 102.299 66.1632 101.986 66.8034C101.673 67.4288 101.197 67.9201 100.527 68.2923C99.8568 68.6497 99.0528 68.8432 98.085 68.8432C96.9385 68.8432 96.0005 68.5901 95.3007 68.069C94.586 67.5479 94.2435 66.7736 94.2733 65.7314V65.6867ZM95.6282 59.8949C95.6282 61.1604 95.8814 62.0836 96.3876 62.6642C96.8938 63.2449 97.5191 63.5427 98.2785 63.5427C99.0378 63.5427 99.6632 63.2598 100.169 62.6791C100.676 62.0985 100.929 61.1902 100.929 59.9544C100.929 58.7186 100.661 57.8848 100.14 57.2893C99.6185 56.6937 98.9783 56.3959 98.2487 56.3959C97.5192 56.3959 96.9087 56.6937 96.3876 57.2744C95.8814 57.8699 95.6282 58.7484 95.6282 59.9098V59.8949Z" fill="#595757"/>
<path d="M104.934 64.8975V51.5718H106.571V56.3512C107.331 55.4727 108.299 55.026 109.46 55.026C110.175 55.026 110.8 55.1601 111.321 55.4429C111.842 55.7258 112.229 56.113 112.453 56.6043C112.676 57.0956 112.795 57.8252 112.795 58.7632V64.8826H111.157V58.7632C111.157 57.9443 110.979 57.3488 110.621 56.9765C110.264 56.6043 109.773 56.4107 109.117 56.4107C108.626 56.4107 108.179 56.5298 107.748 56.783C107.316 57.0361 107.018 57.3785 106.839 57.8103C106.661 58.2421 106.571 58.8377 106.571 59.597V64.8826H104.934V64.8975Z" fill="#595757"/>
<path d="M118.854 63.4236L119.093 64.8678C118.631 64.9572 118.214 65.0167 117.857 65.0167C117.261 65.0167 116.8 64.9274 116.472 64.7338C116.145 64.5403 115.921 64.302 115.787 63.9894C115.653 63.6767 115.594 63.0365 115.594 62.0538V56.5001H114.388V55.2346H115.594V52.8523L117.217 51.8696V55.2346H118.854V56.5001H117.217V62.1431C117.217 62.6047 117.246 62.9025 117.306 63.0365C117.366 63.1705 117.455 63.2747 117.589 63.3491C117.723 63.4236 117.902 63.4682 118.155 63.4682C118.333 63.4682 118.572 63.4534 118.869 63.4087L118.854 63.4236Z" fill="#595757"/>
<path d="M125.615 68.5901V55.2346H127.104V56.4853C127.461 55.9939 127.848 55.6217 128.295 55.3835C128.741 55.1452 129.277 55.0112 129.903 55.0112C130.722 55.0112 131.451 55.2197 132.077 55.6515C132.702 56.0684 133.178 56.6788 133.506 57.453C133.833 58.2273 133.982 59.076 133.982 59.9991C133.982 60.9818 133.804 61.8751 133.446 62.6642C133.089 63.4534 132.583 64.0638 131.898 64.4807C131.228 64.8976 130.513 65.106 129.769 65.106C129.218 65.106 128.741 64.9869 128.295 64.7636C127.848 64.5403 127.506 64.2425 127.223 63.8851V68.5901H125.585H125.615ZM127.104 60.1182C127.104 61.354 127.357 62.2771 127.863 62.8727C128.369 63.4682 128.98 63.766 129.694 63.766C130.409 63.766 131.049 63.4534 131.555 62.8429C132.077 62.2324 132.33 61.2795 132.33 59.9842C132.33 58.6888 132.077 57.8402 131.57 57.2148C131.064 56.6044 130.454 56.2917 129.754 56.2917C129.054 56.2917 128.444 56.6193 127.908 57.2744C127.372 57.9295 127.104 58.8675 127.104 60.1182Z" fill="#595757"/>
<path d="M142.26 63.7065C141.65 64.2276 141.069 64.5849 140.518 64.7934C139.953 65.0018 139.357 65.106 138.717 65.106C137.66 65.106 136.841 64.8529 136.275 64.3318C135.709 63.8107 135.426 63.1556 135.426 62.3516C135.426 61.8751 135.53 61.4433 135.754 61.0562C135.962 60.6691 136.245 60.3564 136.603 60.1182C136.945 59.88 137.347 59.7013 137.779 59.5822C138.106 59.4929 138.583 59.4184 139.238 59.3291C140.563 59.1653 141.531 58.9866 142.156 58.7633C142.156 58.5399 142.156 58.3911 142.156 58.3315C142.156 57.6615 142.007 57.1999 141.695 56.917C141.278 56.5448 140.652 56.3661 139.833 56.3661C139.059 56.3661 138.493 56.5001 138.136 56.7681C137.764 57.0361 137.496 57.5126 137.317 58.1975L135.724 57.9742C135.873 57.2893 136.111 56.7384 136.439 56.3215C136.766 55.9046 137.258 55.577 137.883 55.3537C138.508 55.1303 139.238 55.0112 140.072 55.0112C140.905 55.0112 141.561 55.1006 142.082 55.309C142.603 55.5026 142.975 55.7408 143.213 56.0386C143.452 56.3364 143.63 56.7086 143.72 57.1553C143.779 57.4382 143.809 57.9444 143.809 58.6591V60.8329C143.809 62.3516 143.839 63.3193 143.913 63.7214C143.988 64.1234 144.122 64.5105 144.33 64.8827H142.618C142.454 64.5403 142.335 64.1531 142.29 63.6916L142.26 63.7065ZM142.126 60.0437C141.531 60.282 140.637 60.4904 139.461 60.6691C138.791 60.7584 138.315 60.8775 138.032 60.9966C137.749 61.1158 137.541 61.2944 137.392 61.5327C137.243 61.7709 137.168 62.024 137.168 62.3069C137.168 62.7387 137.332 63.1109 137.66 63.3938C137.987 63.6916 138.479 63.8256 139.104 63.8256C139.729 63.8256 140.295 63.6916 140.786 63.4087C141.278 63.1258 141.635 62.7536 141.873 62.2771C142.052 61.9049 142.141 61.3689 142.141 60.6393V60.0437H142.126Z" fill="#595757"/>
<path d="M152.623 61.354L154.231 61.5624C154.053 62.6642 153.606 63.5427 152.876 64.168C152.147 64.7934 151.268 65.1061 150.211 65.1061C148.886 65.1061 147.829 64.6743 147.025 63.8107C146.221 62.9471 145.819 61.7113 145.819 60.1033C145.819 59.0611 145.997 58.1528 146.34 57.3637C146.682 56.5895 147.204 55.9939 147.918 55.6068C148.618 55.2197 149.392 55.0261 150.226 55.0261C151.268 55.0261 152.132 55.2941 152.802 55.8152C153.472 56.3513 153.889 57.0957 154.082 58.0784L152.489 58.3166C152.34 57.6615 152.072 57.185 151.685 56.8575C151.298 56.5299 150.836 56.3661 150.286 56.3661C149.467 56.3661 148.797 56.6639 148.276 57.2595C147.754 57.8551 147.501 58.7782 147.501 60.0586C147.501 61.3391 147.754 62.292 148.246 62.8876C148.737 63.4682 149.392 63.766 150.196 63.766C150.836 63.766 151.372 63.5725 151.804 63.1705C152.236 62.7833 152.504 62.1729 152.623 61.354Z" fill="#595757"/>
<path d="M162.227 61.7858L163.924 61.9942C163.656 62.9769 163.165 63.7511 162.435 64.2871C161.721 64.838 160.797 65.106 159.666 65.106C158.251 65.106 157.135 64.6743 156.316 63.7958C155.482 62.9322 155.08 61.7113 155.08 60.1331C155.08 58.5548 155.497 57.2446 156.331 56.3512C157.165 55.4579 158.251 55.0112 159.591 55.0112C160.931 55.0112 161.929 55.443 162.748 56.3364C163.567 57.2148 163.969 58.4506 163.969 60.0437C163.969 60.1331 163.969 60.282 163.969 60.4755H156.777C156.837 61.5327 157.135 62.3516 157.671 62.9173C158.207 63.4831 158.877 63.766 159.696 63.766C160.291 63.766 160.812 63.6022 161.229 63.2896C161.646 62.9769 161.989 62.4707 162.242 61.7858H162.227ZM156.867 59.1355H162.257C162.182 58.3166 161.974 57.721 161.631 57.3042C161.11 56.6788 160.44 56.3661 159.606 56.3661C158.862 56.3661 158.222 56.6193 157.715 57.1255C157.209 57.6317 156.926 58.3017 156.867 59.1504V59.1355Z" fill="#595757"/>
<path d="M171.115 64.8975V51.5718H172.753V64.8975H171.115Z" fill="#595757"/>
<path d="M181.895 61.7858L183.592 61.9942C183.324 62.9769 182.833 63.7511 182.103 64.2871C181.389 64.838 180.465 65.106 179.334 65.106C177.919 65.106 176.803 64.6743 175.984 63.7958C175.15 62.9322 174.748 61.7113 174.748 60.1331C174.748 58.5548 175.165 57.2446 175.999 56.3512C176.833 55.4579 177.919 55.0112 179.259 55.0112C180.599 55.0112 181.597 55.443 182.416 56.3364C183.235 57.2148 183.637 58.4506 183.637 60.0437C183.637 60.1331 183.637 60.282 183.637 60.4755H176.445C176.505 61.5327 176.803 62.3516 177.339 62.9173C177.875 63.4831 178.545 63.766 179.349 63.766C179.944 63.766 180.465 63.6022 180.882 63.2896C181.299 62.9769 181.642 62.4707 181.895 61.7858ZM176.52 59.1355H181.91C181.835 58.3166 181.627 57.721 181.299 57.3042C180.778 56.6788 180.108 56.3661 179.274 56.3661C178.53 56.3661 177.89 56.6193 177.383 57.1255C176.877 57.6317 176.594 58.3017 176.535 59.1504L176.52 59.1355Z" fill="#595757"/>
<path d="M189.206 63.4236L189.444 64.8678C188.982 64.9572 188.565 65.0167 188.208 65.0167C187.612 65.0167 187.151 64.9274 186.823 64.7338C186.496 64.5403 186.272 64.302 186.138 63.9894C186.004 63.6767 185.945 63.0365 185.945 62.0538V56.5001H184.739V55.2346H185.945V52.8523L187.568 51.8696V55.2346H189.206V56.5001H187.568V62.1431C187.568 62.6047 187.597 62.9025 187.657 63.0365C187.717 63.1705 187.806 63.2747 187.94 63.3491C188.074 63.4236 188.253 63.4682 188.506 63.4682C188.684 63.4682 188.923 63.4534 189.22 63.4087L189.206 63.4236Z" fill="#595757"/>
<path d="M190.144 62.0091L191.767 61.756C191.856 62.4111 192.109 62.9025 192.526 63.2449C192.943 63.5874 193.524 63.766 194.268 63.766C195.013 63.766 195.579 63.6171 195.936 63.3045C196.293 62.9918 196.487 62.6345 196.487 62.2325C196.487 61.8602 196.323 61.5773 196.01 61.354C195.787 61.2051 195.221 61.0264 194.343 60.8031C193.137 60.5053 192.318 60.2373 191.841 60.014C191.38 59.7906 191.022 59.4929 190.784 59.0909C190.546 58.7037 190.427 58.2719 190.427 57.7955C190.427 57.3637 190.531 56.9617 190.725 56.6044C190.918 56.2321 191.186 55.9344 191.529 55.6961C191.782 55.5026 192.124 55.3537 192.571 55.2197C193.018 55.0857 193.479 55.0261 193.985 55.0261C194.745 55.0261 195.415 55.1303 195.981 55.3537C196.546 55.577 196.978 55.8599 197.246 56.247C197.514 56.6193 197.708 57.1255 197.812 57.7359L196.219 57.9593C196.144 57.4679 195.936 57.0808 195.593 56.7979C195.251 56.515 194.76 56.381 194.119 56.381C193.375 56.381 192.839 56.5001 192.511 56.7533C192.184 57.0064 192.035 57.2893 192.035 57.6317C192.035 57.8402 192.095 58.0337 192.229 58.1975C192.363 58.3762 192.571 58.5251 192.854 58.6293C193.018 58.6888 193.494 58.8228 194.298 59.0462C195.459 59.3589 196.263 59.612 196.725 59.8055C197.187 59.9991 197.544 60.282 197.797 60.6691C198.05 61.0413 198.184 61.5178 198.184 62.0687C198.184 62.6196 198.02 63.1258 197.708 63.6022C197.395 64.0787 196.933 64.4509 196.338 64.7189C195.742 64.9869 195.057 65.1209 194.298 65.1209C193.047 65.1209 192.094 64.8678 191.424 64.3467C190.769 63.8256 190.353 63.0514 190.159 62.024L190.144 62.0091Z" fill="#595757"/>
<path d="M208.845 63.4236L209.083 64.8678C208.621 64.9572 208.204 65.0167 207.847 65.0167C207.252 65.0167 206.79 64.9274 206.462 64.7338C206.135 64.5403 205.912 64.302 205.778 63.9894C205.644 63.6767 205.584 63.0365 205.584 62.0538V56.5001H204.378V55.2346H205.584V52.8523L207.207 51.8696V55.2346H208.845V56.5001H207.207V62.1431C207.207 62.6047 207.237 62.9025 207.296 63.0365C207.356 63.1705 207.445 63.2747 207.579 63.3491C207.713 63.4236 207.892 63.4682 208.145 63.4682C208.324 63.4682 208.562 63.4534 208.86 63.4087L208.845 63.4236Z" fill="#595757"/>
<path d="M210.453 64.8975V51.5718H212.09V56.3512C212.85 55.4727 213.818 55.026 214.979 55.026C215.694 55.026 216.319 55.1601 216.84 55.4429C217.361 55.7258 217.748 56.113 217.972 56.6043C218.195 57.0956 218.314 57.8252 218.314 58.7632V64.8826H216.676V58.7632C216.676 57.9443 216.498 57.3488 216.14 56.9765C215.783 56.6043 215.292 56.4107 214.636 56.4107C214.145 56.4107 213.698 56.5298 213.267 56.783C212.835 57.0361 212.537 57.3785 212.358 57.8103C212.18 58.2421 212.09 58.8377 212.09 59.597V64.8826H210.453V64.8975Z" fill="#595757"/>
<path d="M227.411 61.7858L229.109 61.9942C228.841 62.9769 228.349 63.7511 227.62 64.2871C226.905 64.838 225.982 65.106 224.85 65.106C223.436 65.106 222.319 64.6743 221.5 63.7958C220.667 62.9322 220.265 61.7113 220.265 60.1331C220.265 58.5548 220.682 57.2446 221.515 56.3512C222.349 55.4579 223.436 55.0112 224.776 55.0112C226.116 55.0112 227.114 55.443 227.933 56.3364C228.751 57.2148 229.153 58.4506 229.153 60.0437C229.153 60.1331 229.153 60.282 229.153 60.4755H221.962C222.022 61.5327 222.319 62.3516 222.855 62.9173C223.391 63.4831 224.061 63.766 224.865 63.766C225.461 63.766 225.982 63.6022 226.399 63.2896C226.816 62.9769 227.158 62.4707 227.411 61.7858ZM222.036 59.1355H227.426C227.352 58.3166 227.143 57.721 226.816 57.3042C226.295 56.6788 225.625 56.3661 224.791 56.3661C224.046 56.3661 223.406 56.6193 222.9 57.1255C222.394 57.6317 222.111 58.3017 222.051 59.1504L222.036 59.1355Z" fill="#595757"/>
<path d="M234.245 68.6347L234.558 67.25C234.885 67.3393 235.138 67.384 235.332 67.384C235.66 67.384 235.913 67.2798 236.076 67.0564C236.24 66.8331 236.315 66.2822 236.315 65.4038V55.2643H237.952V65.4484C237.952 66.6396 237.804 67.4585 237.491 67.9349C237.104 68.5454 236.449 68.8431 235.526 68.8431C235.079 68.8431 234.662 68.7836 234.245 68.6645V68.6347ZM236.315 53.4776V51.5718H237.952V53.4776H236.315Z" fill="#595757"/>
<path d="M239.844 60.0735C239.844 58.2868 240.335 56.9617 241.333 56.0981C242.166 55.3835 243.179 55.0261 244.37 55.0261C245.695 55.0261 246.782 55.4579 247.631 56.3364C248.479 57.1999 248.896 58.406 248.896 59.9395C248.896 61.1753 248.703 62.158 248.331 62.8727C247.958 63.5874 247.422 64.1383 246.708 64.5254C245.993 64.9125 245.219 65.1209 244.37 65.1209C243.015 65.1209 241.928 64.6892 241.094 63.8256C240.261 62.962 239.844 61.7113 239.844 60.0884V60.0735ZM241.526 60.0735C241.526 61.3093 241.794 62.2325 242.33 62.8429C242.866 63.4534 243.551 63.766 244.37 63.766C245.189 63.766 245.859 63.4534 246.395 62.8429C246.931 62.2176 247.199 61.2795 247.199 60.014C247.199 58.8228 246.931 57.9146 246.38 57.3042C245.844 56.6937 245.159 56.381 244.355 56.381C243.551 56.381 242.866 56.6937 242.315 57.3042C241.779 57.9146 241.511 58.8377 241.511 60.0735H241.526Z" fill="#595757"/>
<path d="M257.13 64.8974V63.4829C256.386 64.5698 255.359 65.1207 254.063 65.1207C253.497 65.1207 252.961 65.0165 252.47 64.7932C251.979 64.5698 251.606 64.3018 251.368 63.9743C251.13 63.6467 250.966 63.2447 250.862 62.7683C250.788 62.4407 250.758 61.9345 250.758 61.2347V55.2493H252.396V60.6093C252.396 61.458 252.425 62.0387 252.5 62.3365C252.604 62.7683 252.827 63.1107 253.155 63.3489C253.483 63.5872 253.899 63.7212 254.391 63.7212C254.882 63.7212 255.344 63.6021 255.775 63.3489C256.207 63.0958 256.505 62.7534 256.684 62.3216C256.862 61.8898 256.952 61.2645 256.952 60.4307V55.2642H258.589V64.9123H257.13V64.8974Z" fill="#595757"/>
<path d="M261.15 64.8976V55.2495H262.624V56.7086C262.996 56.0237 263.338 55.577 263.666 55.3537C263.979 55.1303 264.336 55.0261 264.708 55.0261C265.259 55.0261 265.825 55.2048 266.391 55.5472L265.825 57.0659C265.423 56.8277 265.021 56.7086 264.619 56.7086C264.261 56.7086 263.934 56.8128 263.651 57.0362C263.368 57.2446 263.16 57.5424 263.041 57.9295C262.862 58.5102 262.773 59.1504 262.773 59.8353V64.8827H261.135L261.15 64.8976Z" fill="#595757"/>
<path d="M267.359 64.8976V55.2495H268.833V56.6193C269.548 55.5621 270.56 55.0261 271.9 55.0261C272.481 55.0261 273.017 55.1303 273.508 55.3388C273.999 55.5472 274.357 55.8152 274.61 56.1577C274.848 56.5001 275.027 56.9022 275.116 57.3637C275.176 57.6615 275.205 58.1975 275.205 58.9568V64.8976H273.568V59.0313C273.568 58.3613 273.508 57.8699 273.374 57.5424C273.24 57.2148 273.017 56.9468 272.704 56.7533C272.377 56.5597 272.004 56.4555 271.558 56.4555C270.858 56.4555 270.262 56.6788 269.756 57.1255C269.25 57.5722 268.997 58.406 268.997 59.6417V64.9125H267.359V64.8976Z" fill="#595757"/>
<path d="M284.317 61.7858L286.015 61.9942C285.747 62.9769 285.255 63.7511 284.526 64.2871C283.811 64.838 282.888 65.106 281.756 65.106C280.342 65.106 279.225 64.6743 278.406 63.7958C277.572 62.9322 277.17 61.7113 277.17 60.1331C277.17 58.5548 277.587 57.2446 278.421 56.3512C279.255 55.4579 280.342 55.0112 281.682 55.0112C283.022 55.0112 284.019 55.443 284.838 56.3364C285.657 57.2148 286.059 58.4506 286.059 60.0437C286.059 60.1331 286.059 60.282 286.059 60.4755H278.868C278.927 61.5327 279.225 62.3516 279.761 62.9173C280.297 63.4831 280.967 63.766 281.786 63.766C282.382 63.766 282.903 63.6022 283.32 63.2896C283.736 62.9769 284.079 62.4707 284.332 61.7858H284.317ZM278.942 59.1355H284.332C284.258 58.3166 284.049 57.721 283.707 57.3042C283.186 56.6788 282.516 56.3661 281.682 56.3661C280.937 56.3661 280.297 56.6193 279.791 57.1255C279.285 57.6317 279.002 58.3017 278.942 59.1504V59.1355Z" fill="#595757"/>
<path d="M287.994 68.605L287.816 67.0715C288.173 67.1757 288.486 67.2203 288.754 67.2203C289.111 67.2203 289.409 67.1608 289.632 67.0417C289.856 66.9226 290.034 66.7439 290.168 66.5355C290.272 66.3717 290.436 65.9697 290.674 65.3145C290.704 65.2252 290.749 65.0912 290.823 64.9125L287.161 55.2495H288.918L290.928 60.8329C291.181 61.5476 291.419 62.2921 291.627 63.0663C291.821 62.3218 292.044 61.5774 292.297 60.8627L294.367 55.2346H296.005L292.327 65.0465C291.94 66.1037 291.627 66.8332 291.404 67.2352C291.106 67.7712 290.779 68.1733 290.406 68.4264C290.034 68.6795 289.588 68.7986 289.066 68.7986C288.754 68.7986 288.396 68.739 288.009 68.605H287.994Z" fill="#595757"/>
<path d="M302.929 64.8975V56.5149H301.485V55.2493H302.929V54.222C302.929 53.5669 302.989 53.0904 303.108 52.7777C303.272 52.3608 303.54 52.0035 303.942 51.7504C304.344 51.4824 304.894 51.3484 305.609 51.3484C306.071 51.3484 306.577 51.4079 307.143 51.5122L306.89 52.9415C306.547 52.882 306.235 52.8522 305.922 52.8522C305.43 52.8522 305.073 52.9564 304.865 53.1649C304.656 53.3733 304.552 53.7753 304.552 54.356V55.2493H306.428V56.5149H304.552V64.8975H302.929Z" fill="#595757"/>
<path d="M307.678 64.8975V51.5718H309.316V64.8975H307.678Z" fill="#595757"/>
<path d="M311.237 60.0735C311.237 58.2868 311.728 56.9617 312.726 56.0981C313.56 55.3835 314.572 55.0261 315.763 55.0261C317.088 55.0261 318.175 55.4579 319.009 56.3364C319.858 57.1999 320.275 58.406 320.275 59.9395C320.275 61.1753 320.081 62.158 319.709 62.8727C319.337 63.5874 318.801 64.1383 318.086 64.5254C317.371 64.9125 316.597 65.1209 315.748 65.1209C314.394 65.1209 313.307 64.6892 312.473 63.8256C311.639 62.962 311.222 61.7113 311.222 60.0884L311.237 60.0735ZM312.92 60.0735C312.92 61.3093 313.188 62.2325 313.724 62.8429C314.26 63.4534 314.944 63.766 315.763 63.766C316.582 63.766 317.252 63.4534 317.788 62.8429C318.324 62.2176 318.592 61.2795 318.592 60.014C318.592 58.8228 318.324 57.9146 317.773 57.3042C317.237 56.6937 316.552 56.381 315.748 56.381C314.944 56.381 314.26 56.6937 313.709 57.3042C313.173 57.9146 312.905 58.8377 312.905 60.0735H312.92Z" fill="#595757"/>
<path d="M323.982 64.8976L321.034 55.2495H322.731L324.265 60.818L324.83 62.8876C324.86 62.7834 325.024 62.1134 325.337 60.8925L326.87 55.2346H328.553L329.997 60.8329L330.473 62.6792L331.024 60.818L332.677 55.2346H334.27L331.248 64.8828H329.55L328.017 59.1058L327.644 57.468L325.694 64.8976H323.982Z" fill="#595757"/>
<path d="M340.807 64.8976V55.2495H342.281V56.6193C342.996 55.5621 344.008 55.0261 345.348 55.0261C345.929 55.0261 346.465 55.1303 346.956 55.3388C347.448 55.5472 347.805 55.8152 348.058 56.1577C348.296 56.5001 348.475 56.9022 348.564 57.3637C348.624 57.6615 348.654 58.1975 348.654 58.9568V64.8976H347.016V59.0313C347.016 58.3613 346.956 57.8699 346.822 57.5424C346.688 57.2148 346.465 56.9468 346.152 56.7533C345.825 56.5597 345.453 56.4555 345.006 56.4555C344.306 56.4555 343.71 56.6788 343.204 57.1255C342.698 57.5722 342.445 58.406 342.445 59.6417V64.9125H340.807V64.8976Z" fill="#595757"/>
<path d="M357.453 63.7065C356.842 64.2276 356.262 64.5849 355.711 64.7934C355.145 65.0018 354.549 65.106 353.909 65.106C352.852 65.106 352.033 64.8529 351.467 64.3318C350.901 63.8107 350.619 63.1556 350.619 62.3516C350.619 61.8751 350.723 61.4433 350.946 61.0562C351.155 60.6691 351.438 60.3564 351.795 60.1182C352.152 59.88 352.539 59.7013 352.971 59.5822C353.299 59.4929 353.775 59.4184 354.43 59.3291C355.755 59.1653 356.723 58.9866 357.348 58.7633C357.348 58.5399 357.348 58.3911 357.348 58.3315C357.348 57.6615 357.2 57.1999 356.887 56.917C356.47 56.5448 355.845 56.3661 355.026 56.3661C354.252 56.3661 353.686 56.5001 353.328 56.7681C352.956 57.0361 352.688 57.5126 352.51 58.1975L350.916 57.9742C351.065 57.2893 351.304 56.7384 351.631 56.3215C351.959 55.9046 352.45 55.577 353.075 55.3537C353.701 55.1303 354.43 55.0112 355.264 55.0112C356.098 55.0112 356.753 55.1006 357.274 55.309C357.795 55.5026 358.167 55.7408 358.406 56.0386C358.644 56.3364 358.822 56.7086 358.912 57.1553C358.971 57.4382 359.001 57.9444 359.001 58.6591V60.8329C359.001 62.3516 359.031 63.3193 359.105 63.7214C359.18 64.1234 359.314 64.5105 359.522 64.8827H357.81C357.646 64.5403 357.527 64.1531 357.483 63.6916L357.453 63.7065ZM357.319 60.0437C356.723 60.282 355.83 60.4904 354.654 60.6691C353.984 60.7584 353.507 60.8775 353.224 60.9966C352.941 61.1158 352.733 61.2944 352.584 61.5327C352.435 61.7709 352.361 62.024 352.361 62.3069C352.361 62.7387 352.524 63.1109 352.852 63.3938C353.18 63.6767 353.671 63.8256 354.296 63.8256C354.922 63.8256 355.487 63.6916 355.979 63.4087C356.47 63.1258 356.827 62.7536 357.066 62.2771C357.244 61.9049 357.334 61.3689 357.334 60.6393V60.0437H357.319Z" fill="#595757"/>
<path d="M365.076 63.4236L365.314 64.8678C364.852 64.9572 364.435 65.0167 364.078 65.0167C363.483 65.0167 363.021 64.9274 362.693 64.7338C362.366 64.5403 362.142 64.302 362.008 63.9894C361.874 63.6767 361.815 63.0365 361.815 62.0538V56.5001H360.609V55.2346H361.815V52.8523L363.438 51.8696V55.2346H365.076V56.5001H363.438V62.1431C363.438 62.6047 363.468 62.9025 363.527 63.0365C363.587 63.1705 363.676 63.2747 363.81 63.3491C363.944 63.4236 364.123 63.4682 364.376 63.4682C364.555 63.4682 364.793 63.4534 365.091 63.4087L365.076 63.4236Z" fill="#595757"/>
<path d="M372.997 64.8974V63.4829C372.252 64.5698 371.225 65.1207 369.93 65.1207C369.364 65.1207 368.828 65.0165 368.336 64.7932C367.845 64.5698 367.473 64.3018 367.235 63.9743C366.996 63.6467 366.833 63.2447 366.728 62.7683C366.669 62.4407 366.624 61.9345 366.624 61.2347V55.2493H368.262V60.6093C368.262 61.458 368.292 62.0387 368.366 62.3365C368.47 62.7683 368.694 63.1107 369.021 63.3489C369.349 63.5872 369.766 63.7212 370.257 63.7212C370.748 63.7212 371.21 63.6021 371.642 63.3489C372.074 63.0958 372.371 62.7534 372.55 62.3216C372.729 61.8898 372.818 61.2645 372.818 60.4307V55.2642H374.456V64.9123H372.997V64.8974Z" fill="#595757"/>
<path d="M377.017 64.8976V55.2495H378.491V56.7086C378.864 56.0237 379.206 55.577 379.534 55.3537C379.846 55.1303 380.204 55.0261 380.576 55.0261C381.127 55.0261 381.693 55.2048 382.258 55.5472L381.693 57.0659C381.291 56.8277 380.889 56.7086 380.487 56.7086C380.129 56.7086 379.802 56.8128 379.519 57.0362C379.236 57.2595 379.027 57.5424 378.908 57.9295C378.73 58.5102 378.64 59.1504 378.64 59.8353V64.8827H377.002L377.017 64.8976Z" fill="#595757"/>
<path d="M389.524 63.7065C388.913 64.2276 388.333 64.5849 387.782 64.7934C387.216 65.0018 386.62 65.106 385.98 65.106C384.923 65.106 384.104 64.8529 383.538 64.3318C382.973 63.8107 382.69 63.1556 382.69 62.3516C382.69 61.8751 382.794 61.4433 383.017 61.0562C383.226 60.6691 383.509 60.3564 383.866 60.1182C384.208 59.88 384.61 59.7013 385.042 59.5822C385.37 59.4929 385.846 59.4184 386.501 59.3291C387.826 59.1653 388.794 58.9866 389.42 58.7633C389.42 58.5399 389.42 58.3911 389.42 58.3315C389.42 57.6615 389.271 57.1999 388.958 56.917C388.541 56.5448 387.916 56.3661 387.097 56.3661C386.323 56.3661 385.757 56.5001 385.4 56.7681C385.027 57.0361 384.759 57.5126 384.581 58.1975L382.987 57.9742C383.136 57.2893 383.375 56.7384 383.702 56.3215C384.03 55.9046 384.521 55.577 385.146 55.3537C385.772 55.1303 386.501 55.0112 387.335 55.0112C388.169 55.0112 388.824 55.1006 389.345 55.309C389.866 55.5026 390.238 55.7408 390.477 56.0386C390.715 56.3364 390.894 56.7086 390.983 57.1553C391.042 57.4382 391.072 57.9444 391.072 58.6591V60.8329C391.072 62.3516 391.102 63.3193 391.177 63.7214C391.251 64.1234 391.385 64.5105 391.593 64.8827H389.881C389.717 64.5403 389.598 64.1531 389.554 63.6916L389.524 63.7065ZM389.39 60.0437C388.794 60.282 387.901 60.4904 386.725 60.6691C386.055 60.7584 385.578 60.8775 385.295 60.9966C385.012 61.1158 384.804 61.2944 384.655 61.5327C384.506 61.7709 384.432 62.024 384.432 62.3069C384.432 62.7387 384.596 63.1109 384.923 63.3938C385.251 63.6767 385.742 63.8256 386.367 63.8256C386.993 63.8256 387.558 63.6916 388.05 63.4087C388.541 63.1258 388.898 62.7536 389.137 62.2771C389.315 61.9049 389.405 61.3689 389.405 60.6393V60.0437H389.39Z" fill="#595757"/>
<path d="M393.544 64.8975V51.5718H395.182V64.8975H393.544Z" fill="#595757"/>
<path d="M397.684 64.8975V51.5718H399.321V64.8975H397.684Z" fill="#595757"/>
<path d="M401.778 68.605L401.599 67.0715C401.957 67.1757 402.269 67.2203 402.537 67.2203C402.895 67.2203 403.192 67.1608 403.416 67.0417C403.639 66.9226 403.818 66.7439 403.952 66.5355C404.056 66.3717 404.22 65.9697 404.458 65.3145C404.488 65.2252 404.532 65.0912 404.607 64.9125L400.944 55.2495H402.701L404.711 60.8329C404.964 61.5476 405.202 62.2921 405.411 63.0663C405.604 62.3218 405.828 61.5774 406.081 60.8627L408.15 55.2346H409.788L406.111 65.0465C405.723 66.1037 405.411 66.8332 405.187 67.2352C404.89 67.7712 404.562 68.1733 404.19 68.4264C403.818 68.6795 403.371 68.7986 402.85 68.7986C402.537 68.7986 402.18 68.739 401.793 68.605H401.778Z" fill="#595757"/>
<path d="M410.235 64.8978V63.0366H412.096V64.8978H410.235Z" fill="#595757"/>
<defs>
<linearGradient id="paint0_linear_76_91660" x1="239.992" y1="222.453" x2="239.992" y2="390.71" gradientUnits="userSpaceOnUse">
<stop stop-color="white"/>
<stop offset="1" stop-color="white" stop-opacity="0.6"/>
</linearGradient>
</defs>
</svg>
