<svg width="480" height="454" viewBox="0 0 480 454" fill="none" xmlns="http://www.w3.org/2000/svg">
<path opacity="0.8" d="M436.87 0H43.1304C19.3101 0 0 19.2976 0 43.1024V410.898C0 434.702 19.3101 454 43.1304 454H436.87C460.69 454 480 434.702 480 410.898V43.1024C480 19.2976 460.69 0 436.87 0Z" fill="url(#paint0_linear_20_204370)"/>
<mask id="mask0_20_204370" style="mask-type:luminance" maskUnits="userSpaceOnUse" x="17" y="99" width="446" height="340">
<path d="M17.5962 99.6064V398.859C17.5962 420.829 35.5801 438.801 57.5638 438.801H422.451C444.435 438.801 462.419 420.829 462.419 398.859V99.6064H17.5962Z" fill="white"/>
</mask>
<g mask="url(#mask0_20_204370)">
<path d="M551.594 14.3933H-338.16V607.182H551.594V14.3933Z" fill="white"/>
<g opacity="0.2">
<path d="M479.364 351.729C463.225 327.358 422.56 316.404 396.623 296.48C366.763 273.55 358.949 240.053 365.399 210.306C371.848 180.559 390.623 153.415 408.018 126.332C415.955 113.969 423.754 101.264 425.49 87.537C427.226 73.8099 421.986 58.6885 407.366 48.9122C385.708 34.426 351.353 36.1767 325.462 44.4966C320.92 45.953 316.501 47.5953 312.222 49.377C287.928 59.5561 255.495 53.0334 240.411 35.0302C231.465 24.3399 219.481 14.796 205.388 7.40569C166.646 -12.8905 115.345 -17.8949 69.9975 -10.7989C24.6501 -3.70301 -15.2556 14.4242 -48.9754 36.3162C-67.2074 48.1531 -84.1061 61.2759 -105.222 70.5099C-126.337 79.7439 -153.065 84.7327 -177.436 78.6594C-214.102 69.5183 -232.659 39.7557 -265.294 24.4018C-292.332 11.6818 -328.749 10.4734 -355.586 21.3806C-382.422 32.2879 -398.406 54.7997 -395.197 77.1875C-392.05 99.2035 -372.128 121.25 -380.283 142.182C-390.003 167.142 -432.482 175.26 -468.528 180.264C-504.573 185.269 -546.882 195.479 -552.897 221.151C-558.881 246.731 -524.169 268.871 -492.093 283.155C-460.016 297.44 -422.591 314.033 -417.522 340.14C-413.243 362.218 -434.87 382.529 -432.126 404.669C-429.552 425.523 -406.282 448.267 -377.786 451.97C-237.931 470.113 -163.034 382.545 -84.7727 383.304C34.9599 384.481 51.1764 478.216 222.055 485.653C275.185 487.961 330.222 490.084 378.747 476.62C425.025 463.776 462.124 436.678 478.79 403.492C487.038 387.069 490.201 368.105 479.364 351.713V351.729Z" fill="url(#paint1_linear_20_204370)"/>
</g>
<path d="M43.4402 421.479C43.4557 423.819 44.6805 425.694 46.1533 425.678C47.6261 425.678 48.8044 423.757 48.7889 421.433L47.8432 320.215C47.8277 317.891 46.6029 316.017 45.1301 316.017C43.6573 316.017 42.479 317.938 42.4945 320.262L43.4402 421.479Z" fill="url(#paint2_linear_20_204370)"/>
<path d="M18.8674 336.855L20.1232 470.268C20.2007 477.875 26.4175 483.995 34.0452 483.918L59.9823 483.67C67.5945 483.608 73.7184 477.364 73.6409 469.757L72.385 336.36C72.3075 328.752 66.0752 322.632 58.463 322.71L32.5259 322.958C24.9137 323.035 18.7899 329.264 18.8674 336.871V336.855Z" fill="url(#paint3_linear_20_204370)"/>
<path d="M52.6027 327.636C53.4243 327.606 54.2305 327.559 55.0522 327.513L55.0057 322.725H52.5562L52.6027 327.636Z" fill="url(#paint4_linear_20_204370)"/>
<path d="M52.6647 334.391L55.1142 334.36L55.0677 329.573C54.2615 329.619 53.4398 329.666 52.6182 329.697L52.6647 334.376V334.391Z" fill="url(#paint5_linear_20_204370)"/>
<path d="M55.1762 341.487L55.1297 336.421L52.6802 336.452L52.7266 341.658C53.5328 341.534 54.3545 341.503 55.1607 341.487H55.1762Z" fill="url(#paint6_linear_20_204370)"/>
<path d="M52.8042 348.521C53.6104 348.366 54.432 348.289 55.2537 348.289L55.2072 343.563C54.3856 343.563 53.5639 343.61 52.7732 343.749L52.8197 348.521H52.8042Z" fill="url(#paint7_linear_20_204370)"/>
<path d="M52.9281 361.675C53.7342 361.598 54.5559 361.536 55.3621 361.443L55.3156 356.578C54.5095 356.469 53.6878 356.469 52.8816 356.392L52.9281 361.675Z" fill="url(#paint8_linear_20_204370)"/>
<path d="M52.9902 368.152C53.8118 368.074 54.618 367.981 55.4242 367.795L55.3776 363.519C54.5715 363.612 53.7498 363.674 52.9436 363.751L52.9902 368.167V368.152Z" fill="url(#paint9_linear_20_204370)"/>
<path d="M55.5485 380.995L55.502 376.611C54.6959 376.611 53.8742 376.58 53.0525 376.58L53.099 381.181C53.9207 381.181 54.7423 381.15 55.5485 380.995Z" fill="url(#paint10_linear_20_204370)"/>
<path d="M53.1763 387.533C53.998 387.533 54.8041 387.595 55.6258 387.595L55.5793 383.056C54.7731 383.164 53.9514 383.211 53.1453 383.211L53.1918 387.518L53.1763 387.533Z" fill="url(#paint11_linear_20_204370)"/>
<path d="M55.6879 394.924L55.6414 389.641C54.8197 389.625 54.0136 389.532 53.1919 389.548L53.2384 394.97C54.0445 394.939 54.8662 394.924 55.6879 394.924Z" fill="url(#paint12_linear_20_204370)"/>
<path d="M53.3001 401.121C54.1373 401.121 54.959 401.059 55.7342 400.827L55.7032 396.984C54.897 396.984 54.0753 396.984 53.2537 397.015L53.3001 401.121Z" fill="url(#paint13_linear_20_204370)"/>
<path d="M53.4398 415.313C54.308 415.313 55.0522 415.313 55.9049 415.282L55.8119 410.402C54.9902 410.402 54.184 410.433 53.3623 410.433L53.4243 415.313H53.4398Z" fill="url(#paint14_linear_20_204370)"/>
<path d="M53.3624 408.635C54.2151 408.635 55.0522 408.558 55.7964 408.295L55.7499 402.934C54.9592 403.104 54.1375 403.151 53.3003 403.166L53.3468 408.635H53.3624Z" fill="url(#paint15_linear_20_204370)"/>
<path d="M53.052 374.519C53.8582 374.519 54.6799 374.534 55.5016 374.55L55.455 369.886C54.6489 370.026 53.8272 370.103 53.021 370.196L53.0676 374.503L53.052 374.519Z" fill="url(#paint16_linear_20_204370)"/>
<path d="M52.8505 354.316C53.6567 354.455 54.4784 354.471 55.3 354.533L55.269 350.35C54.4473 350.35 53.6256 350.443 52.835 350.644L52.866 354.316H52.8505Z" fill="url(#paint17_linear_20_204370)"/>
<path d="M41.8611 315.671L48.2168 315.578C48.7129 315.571 49.1373 315.967 49.1448 316.479L49.1901 319.561C49.1973 320.057 48.8004 320.481 48.2889 320.489L41.9332 320.582C41.4371 320.589 41.0127 320.193 41.0052 319.681L40.9599 316.599C40.9527 316.103 41.3496 315.679 41.8611 315.671Z" fill="url(#paint18_linear_20_204370)"/>
<path d="M62.7419 411.796L55.3468 412.756C54.3856 412.88 53.3779 413.547 53.4244 414.399C53.4864 415.251 54.5561 415.793 55.5328 415.809L62.99 415.886C63.5016 415.886 63.9667 415.7 64.3078 415.344C64.6954 414.941 64.9124 414.321 64.8814 413.733C64.8504 413.144 64.5559 412.555 64.1218 412.199C63.7342 411.873 63.2536 411.749 62.7419 411.811V411.796ZM54.9903 413.361C55.5174 413.33 55.9515 413.733 55.9825 414.244C56.0135 414.771 55.6104 415.204 55.0988 415.235C54.5717 415.266 54.1375 414.864 54.091 414.352C54.06 413.826 54.4631 413.392 54.9747 413.361H54.9903ZM62.8969 415.22C62.1373 415.266 61.4861 414.693 61.4396 413.934C61.3931 413.175 61.9668 412.524 62.7264 412.478C63.4861 412.431 64.1372 413.004 64.1837 413.764C64.2303 414.523 63.6566 415.173 62.8969 415.22Z" fill="url(#paint19_linear_20_204370)"/>
<path d="M156.925 435.578H16.8674C9.03817 435.578 2.69727 441.621 2.69727 449.073V472.065C2.69727 479.517 9.03817 485.56 16.8674 485.56H156.925C164.754 485.56 171.095 479.517 171.095 472.065V449.073C171.095 441.621 164.754 435.578 156.925 435.578Z" fill="url(#paint20_linear_20_204370)"/>
<path d="M336.671 243.43C336.671 243.43 331.819 246.669 337.989 274.309C342.888 296.247 336.485 303.219 334.702 307.883C333.85 310.114 393.274 314.762 402.685 298.958C404.778 294.527 404.793 291.615 392.375 285.789C383.693 281.714 383.088 275.13 383.274 270.466C383.693 259.451 376.096 245.569 369.864 242.935C363.631 240.301 340.997 232.399 336.687 243.415L336.671 243.43Z" fill="#0D2C63"/>
<path d="M423.552 360.002C418.079 350.83 413.413 342.076 410.839 335.182C400.933 308.642 396.158 299.841 387.848 300.415C384.67 300.632 388.282 301.825 385.259 309.664C384.143 312.561 385.073 314.359 385.693 317.612C387.553 327.141 394.483 355.865 423.552 389.796V360.002Z" fill="url(#paint21_linear_20_204370)"/>
<path d="M423.552 351.651C409.955 325.142 395.429 296.294 390.948 293.334C386.344 290.298 386.731 292.343 386.731 292.343C386.731 298.06 390.452 338.776 392.948 347.468C397.677 358.887 412.219 378.548 423.552 391.903V351.636V351.651Z" fill="url(#paint22_linear_20_204370)"/>
<path d="M260.813 405.599C269.898 391.856 298.548 352.054 306.594 330.503C316.501 303.963 321.261 295.163 329.586 295.736C332.764 295.953 329.152 297.146 332.175 304.985C333.291 307.883 332.377 309.68 331.741 312.933C329.4 324.925 319.013 367.33 266.58 412.261C264.131 416.785 259.774 421.185 255.371 418.83C247.79 414.755 251.402 407.257 260.828 405.599H260.813Z" fill="url(#paint23_linear_20_204370)"/>
<path d="M330.687 287.664C330.687 287.664 331.059 285.619 326.47 288.655C318.393 294.001 277.526 383.753 268.581 391.701C267.588 394.428 274.549 400.641 279.51 401.385C282.983 401.88 316.781 361.412 324.486 342.789C326.966 334.097 330.703 293.381 330.703 287.664H330.687Z" fill="url(#paint24_linear_20_204370)"/>
<path d="M355.291 529.049C356.128 473.986 359.818 405.8 372.375 383.614C365.972 375.123 352.5 342.727 337.167 372.97C337.167 372.97 325.059 373.713 322.811 394.196C321.323 407.845 317.013 461.483 325.648 529.034H355.291V529.049Z" fill="url(#paint25_linear_20_204370)"/>
<path d="M383.941 529.049H416.638C410.405 498.357 403.77 462.908 399.646 432.774C396.933 412.865 395.289 392.166 380.003 373.156C371.957 366.896 356.112 340.775 347.942 374.643C347.942 374.643 349.585 390.601 351.477 404.437C353.26 417.436 361.725 468.641 383.91 529.034L383.941 529.049Z" fill="url(#paint26_linear_20_204370)"/>
<path d="M348.516 263.665C348.516 263.665 353.415 275.052 350.19 281.172C347.555 286.177 344.175 285.278 337.028 288.377C321.137 295.256 356.485 312.314 365.492 308.688C382.329 301.949 380.546 295.318 380.546 295.318C380.546 295.318 369.414 291.289 366.267 284.658C364.329 280.568 362.856 270.482 362.112 266.082C360.252 255.097 348.5 263.665 348.5 263.665H348.516Z" fill="url(#paint27_linear_20_204370)"/>
<path d="M340.997 269.134C350.624 284.968 364.639 278.864 366.918 266.283C367.306 264.486 367.538 262.782 367.693 261.17C368.562 261.449 369.554 261.201 369.957 260.07C370.344 258.986 372.654 249.38 367.631 250.681C367.399 250.743 367.228 250.898 367.073 251.022C364.004 238.008 352.764 233.639 351.694 233.112C336.051 225.474 331.71 253.826 340.997 269.118V269.134Z" fill="url(#paint28_linear_20_204370)"/>
<path d="M347.586 283.899C347.586 283.899 354.671 296.681 367.337 285.82C368.453 285.449 374.794 285.449 380.933 291.042C384.282 293.459 385.584 316.745 385.584 317.303C385.584 317.86 380.747 374.473 380.747 374.473C380.747 374.473 353.415 384.218 330.237 376.332C328.563 370.553 327.261 326.8 328.563 320.463C329.865 314.127 336.764 286.998 336.764 286.998C336.764 286.998 344.407 283.341 347.57 283.899H347.586Z" fill="url(#paint29_linear_20_204370)"/>
<path d="M373.492 286.192C373.492 286.192 368.267 390.477 373.864 406.498C379.46 422.518 401.444 432.945 406.653 432.945C405.537 431.457 389.693 293.706 389.32 292.591C388.948 291.475 380.251 285.758 373.476 286.192H373.492Z" fill="url(#paint30_linear_20_204370)"/>
<path d="M343.741 284.023C343.741 284.023 339.384 386.573 336.78 404.08C334.175 421.588 322.424 434.432 310.501 437.794C314.408 396.644 316.238 369.902 316.656 357.151C318.145 311.709 330.253 287.307 330.253 287.307C330.253 287.307 338.144 283.155 343.741 284.023Z" fill="url(#paint31_linear_20_204370)"/>
<path d="M336.299 254.834C336.299 254.834 337.322 242.237 356.236 243.678C363.663 245.832 366.236 253.021 366.236 253.021C366.236 253.021 367.817 250.387 370.701 251.348C373.569 252.308 374.623 236.985 366.717 231.47C358.81 225.969 343.012 227.767 338.454 233.391C335.338 237.218 330.315 247.428 336.299 254.849V254.834Z" fill="#0D2C63"/>
<path d="M317.958 350.707C317.958 354.084 314.61 356.811 310.486 356.811H217.869C213.745 356.811 210.396 354.069 210.396 350.707V300.818C210.396 297.441 213.745 294.698 217.869 294.698H310.486C314.61 294.698 317.958 297.441 317.958 300.818V350.707Z" fill="url(#paint32_linear_20_204370)"/>
<path d="M210.35 352.674C210.35 354.967 213.698 356.842 217.822 356.842H310.517C314.641 356.842 317.989 354.983 317.989 352.674V349.498H210.334V352.674H210.35Z" fill="url(#paint33_linear_20_204370)"/>
<path d="M274.642 325.762H253.712V365.441H274.642V325.762Z" fill="url(#paint34_linear_20_204370)"/>
<path d="M277.091 364.155H251.278V365.441H277.091V364.155Z" fill="url(#paint35_linear_20_204370)"/>
<path d="M188.691 341.255V483.019H42.5876H-14.1393H-235.016V341.255H-501.875V566.156H-310.61H-235.016H-14.1393H42.5876H188.691H264.301H455.551V341.255H188.691Z" fill="url(#paint36_linear_20_204370)"/>
<path opacity="0.66" d="M455.551 346.352H188.691V351.543H455.551V346.352Z" fill="url(#paint37_linear_20_204370)"/>
<path d="M461.814 332.796H182.428V346.352H461.814V332.796Z" fill="url(#paint38_linear_20_204370)"/>
<path d="M332.811 420.332V404.049C332.811 398.301 328.128 393.622 322.377 393.622H300.626C294.874 393.622 290.192 398.301 290.192 404.049V420.332H286.502V404.049C286.502 396.256 292.843 389.935 300.626 389.935H322.377C330.175 389.935 336.5 396.271 336.5 404.049V420.332H332.811Z" fill="url(#paint39_linear_20_204370)"/>
<path d="M298.641 388.215H324.377C324.919 388.215 325.369 388.664 325.369 389.206V395.466C325.369 396.008 324.919 396.457 324.377 396.457H324.33C323.958 395.187 322.795 394.257 321.4 394.257C320.005 394.257 318.842 395.187 318.47 396.457H317.741C317.369 395.187 316.206 394.257 314.811 394.257C313.416 394.257 312.253 395.187 311.881 396.457H311.152C310.78 395.187 309.617 394.257 308.222 394.257C306.827 394.257 305.664 395.187 305.292 396.457H304.563C304.191 395.187 303.028 394.257 301.633 394.257C300.238 394.257 299.075 395.187 298.703 396.457H298.656C298.114 396.457 297.664 396.008 297.664 395.466V389.206C297.664 388.664 298.114 388.215 298.656 388.215H298.641Z" fill="url(#paint40_linear_20_204370)"/>
<path d="M351.477 417.125H257.666C254.797 417.125 252.472 419.449 252.472 422.315V585.135C252.472 588.001 254.797 590.325 257.666 590.325H351.477C354.345 590.325 356.67 588.001 356.67 585.135V422.315C356.67 419.449 354.345 417.125 351.477 417.125Z" fill="url(#paint41_linear_20_204370)"/>
<path d="M373.026 417.125H279.215C276.347 417.125 274.022 419.449 274.022 422.315V585.135C274.022 588.001 276.347 590.325 279.215 590.325H373.026C375.895 590.325 378.22 588.001 378.22 585.135V422.315C378.22 419.449 375.895 417.125 373.026 417.125Z" fill="url(#paint42_linear_20_204370)"/>
<path d="M304.052 478.138H348.267C358.037 478.138 365.957 470.224 365.957 460.46V455.162C365.957 445.398 358.037 437.484 348.267 437.484H304.052C294.282 437.484 286.362 445.398 286.362 455.162V460.46C286.362 470.224 294.282 478.138 304.052 478.138Z" fill="url(#paint43_linear_20_204370)"/>
<path d="M461.83 102.302H-509.1V129.183H461.83V102.302Z" fill="url(#paint44_linear_20_204370)"/>
<path d="M184.49 75.6689H38.6189V155.8H184.49V75.6689Z" fill="#0D2C63"/>
<path d="M80.5091 139.316H71.3466V104.812C67.9978 107.942 64.0599 110.25 59.502 111.753V103.449C61.8895 102.674 64.4941 101.187 67.3002 99.002C70.1063 96.8174 72.0287 94.2765 73.0674 91.3638H80.5091V139.331V139.316Z" fill="url(#paint45_linear_20_204370)"/>
<path d="M125.143 130.81V139.316H93.0203C93.3613 136.093 94.4155 133.056 96.1519 130.175C97.8883 127.293 101.33 123.481 106.462 118.725C110.586 114.883 113.128 112.28 114.058 110.901C115.314 109.011 115.95 107.136 115.95 105.292C115.95 103.247 115.407 101.682 114.306 100.582C113.206 99.4824 111.686 98.9401 109.764 98.9401C107.841 98.9401 106.322 99.5133 105.206 100.66C104.074 101.806 103.423 103.728 103.252 106.392L94.1209 105.478C94.6636 100.443 96.3689 96.8175 99.237 94.633C102.105 92.4329 105.686 91.3484 109.996 91.3484C114.709 91.3484 118.415 92.6188 121.112 95.1597C123.81 97.7006 125.159 100.861 125.159 104.642C125.159 106.795 124.771 108.84 123.996 110.777C123.221 112.729 121.996 114.759 120.322 116.881C119.205 118.291 117.206 120.321 114.322 122.97C111.423 125.62 109.593 127.386 108.834 128.253C108.058 129.121 107.438 129.973 106.958 130.794H125.159L125.143 130.81Z" fill="url(#paint46_linear_20_204370)"/>
<path d="M131.469 127.03L140.6 126.084C140.864 128.145 141.639 129.787 142.91 130.996C144.197 132.204 145.67 132.808 147.344 132.808C149.251 132.808 150.879 132.034 152.197 130.484C153.53 128.935 154.181 126.596 154.181 123.466C154.181 120.538 153.53 118.338 152.212 116.866C150.894 115.394 149.189 114.666 147.081 114.666C144.445 114.666 142.088 115.828 140.011 118.152L132.569 117.083L137.267 92.2161H161.499V100.784H144.212L142.771 108.902C144.817 107.88 146.894 107.369 149.034 107.369C153.096 107.369 156.538 108.84 159.375 111.8C162.196 114.759 163.607 118.586 163.607 123.296C163.607 127.231 162.46 130.732 160.181 133.816C157.065 138.03 152.755 140.137 147.236 140.137C142.817 140.137 139.22 138.959 136.445 136.589C133.655 134.218 131.996 131.042 131.453 127.045L131.469 127.03Z" fill="url(#paint47_linear_20_204370)"/>
<path d="M425.862 54.3813H207.512V177.119H425.862V54.3813Z" fill="#0D2C63"/>
<path d="M420.622 58.843H212.768V172.657H420.622V58.843Z" fill="url(#paint48_linear_20_204370)"/>
<path opacity="0.35" d="M260.519 112.915H227V123.543H260.519V112.915Z" fill="#0D2C63"/>
<path opacity="0.35" d="M309.509 112.915H275.991V123.543H309.509V112.915Z" fill="#0D2C63"/>
<g opacity="0.35">
<path d="M288.549 141.267H227V151.896H288.549V141.267Z" fill="#0D2C63"/>
<path d="M330.78 141.267H304.347V151.896H330.78V141.267Z" fill="#0D2C63"/>
<path d="M371.709 141.267H345.276V151.896H371.709V141.267Z" fill="#0D2C63"/>
</g>
<path d="M436.079 367.005H392.034V411.021H436.079V367.005Z" fill="url(#paint49_linear_20_204370)"/>
<path opacity="0.35" d="M424.079 370.971H404.049V375.046H424.079V370.971Z" fill="#0D2C63"/>
<path opacity="0.35" d="M409.242 380.84H395.429V383.102H409.242V380.84Z" fill="#0D2C63"/>
<path opacity="0.35" d="M417.614 390.663H395.429V392.925H417.614V390.663Z" fill="#0D2C63"/>
<path opacity="0.35" d="M409.242 395.574H395.429V397.836H409.242V395.574Z" fill="#0D2C63"/>
<path opacity="0.35" d="M409.242 400.486H395.429V402.748H409.242V400.486Z" fill="#0D2C63"/>
<path opacity="0.35" d="M426.56 405.397H420.172V407.659H426.56V405.397Z" fill="#0D2C63"/>
<path opacity="0.35" d="M400.684 405.397H395.429V407.659H400.684V405.397Z" fill="#0D2C63"/>
<path opacity="0.35" d="M416.839 405.397H411.583V407.659H416.839V405.397Z" fill="#0D2C63"/>
<path opacity="0.35" d="M408.684 405.397H403.428V407.659H408.684V405.397Z" fill="#0D2C63"/>
<path opacity="0.35" d="M416.824 380.84H412.142V383.102H416.824V380.84Z" fill="#0D2C63"/>
<path opacity="0.35" d="M426.56 385.752H421.878V388.014H426.56V385.752Z" fill="#0D2C63"/>
<path opacity="0.35" d="M425.288 390.663H420.606V392.925H425.288V390.663Z" fill="#0D2C63"/>
<path opacity="0.35" d="M417.18 400.486H412.498V402.748H417.18V400.486Z" fill="#0D2C63"/>
<path opacity="0.35" d="M429.986 380.84H419.723V383.102H429.986V380.84Z" fill="#0D2C63"/>
<path opacity="0.35" d="M405.692 385.752H395.429V388.014H405.692V385.752Z" fill="#0D2C63"/>
<path opacity="0.35" d="M418.948 385.752H408.684V388.014H418.948V385.752Z" fill="#0D2C63"/>
<path opacity="0.35" d="M430.435 400.486H420.172V402.748H430.435V400.486Z" fill="#0D2C63"/>
<path opacity="0.35" d="M422.761 395.574H412.498V397.836H422.761V395.574Z" fill="#0D2C63"/>
<path d="M248.705 371.498C249.682 379.229 251.868 388.277 250.953 392.553C250.286 395.621 249.03 396.566 249.294 400.083C249.496 402.763 251.092 407.411 251.836 409.441C252.053 410.03 252.798 410.216 253.263 409.797C254.069 409.1 254.937 407.721 254.317 405.211C253.34 401.292 257.774 402.64 257.65 408.899C257.573 413.206 255.061 414.864 257.294 415.933C258.518 416.521 264.193 413.113 266.022 409.797C267.278 407.52 265.681 399.061 265.123 396.737C265.045 396.396 263.557 392.615 262.565 389.021C262.999 386.077 263.526 378.408 263.883 369.685C260.177 371.591 252.937 371.451 248.72 371.482L248.705 371.498Z" fill="url(#paint50_linear_20_204370)"/>
<path d="M101.392 378.424C100.368 379.059 99.9964 389.625 97.8415 393.173C95.3454 397.263 95.0044 402.438 96.6942 403.848C99.8414 406.467 109.469 408.667 112.244 403.244C114.957 397.976 112.833 395.683 112.244 391.996C111.546 387.673 115.236 375.619 115.236 375.619L101.392 378.424Z" fill="url(#paint51_linear_20_204370)"/>
<path d="M145.049 240.347C145.049 240.347 131.189 233.344 124.15 245.646C117.096 257.948 96.2289 293.443 98.9885 385.457C105.422 388.277 114.089 389.284 114.089 389.284C114.089 389.284 121.654 352.209 132.135 319.224C142.801 285.603 153.669 254.88 145.049 240.347Z" fill="url(#paint52_linear_20_204370)"/>
<path d="M216.303 235.885C216.303 235.885 230.907 228.495 238.333 241.463C245.759 254.431 267.758 291.847 264.859 388.85C258.084 391.825 248.705 391.825 248.705 391.825C248.705 391.825 240.953 353.805 229.93 319.022C218.69 283.589 207.233 251.193 216.318 235.885H216.303Z" fill="url(#paint53_linear_20_204370)"/>
<path d="M192.536 182.232C192.536 182.232 199.032 178.451 197.559 184.819C196.396 189.87 191.497 188.786 191.497 188.786L192.52 182.247L192.536 182.232Z" fill="url(#paint54_linear_20_204370)"/>
<path d="M167.777 193.464C166.552 191.264 165.669 189.142 165.08 187.128C163.653 186.911 161.963 186.074 161.142 183.471C159.901 179.474 164.134 179.706 165.948 180.171C165.994 170.457 170.103 163.934 170.723 163.191C181.265 150.347 195.513 173.153 194.334 190.18C194.009 194.843 192.521 198.283 190.412 200.638L199.776 244.081C199.776 244.081 176.893 239.712 169.777 240.797C163.452 241.773 166.971 206.076 167.777 193.464Z" fill="url(#paint55_linear_20_204370)"/>
<path d="M161.235 183.038C161.297 182.418 161.591 181.922 161.979 181.473C161.932 181.287 161.87 181.101 161.839 180.93C160.878 176.251 164.01 175.368 165.033 175.213C165.033 175.182 165.064 175.167 165.079 175.151C164.196 174.702 163.56 173.881 163.421 172.796C163.281 171.603 164.103 170.395 165.219 169.93C165.234 169.775 165.265 169.605 165.296 169.45C163.994 168.722 163.653 166.94 164.211 165.701C164.506 165.05 165.219 164.492 165.886 164.26C166.289 164.12 166.676 164.089 167.048 164.12C167.141 163.934 167.265 163.748 167.374 163.562C167.002 162.927 166.847 162.153 166.955 161.471C167.203 159.829 168.909 159.038 170.459 159.224C170.49 159.224 170.521 159.224 170.537 159.24C170.18 158.295 170.32 157.241 171.033 156.374C171.978 155.227 174.04 155.057 175.188 156.079C175.157 155.816 175.141 155.552 175.126 155.304C175.048 153.678 176.226 152.392 177.885 152.221C178.722 152.128 179.56 152.5 180.164 153.073C180.614 152.547 181.203 152.113 181.932 151.834C183.947 151.059 186.66 152.314 187.28 154.359C187.482 155.01 187.606 155.63 187.699 156.234C189.513 156.869 190.924 158.341 191.094 160.278C191.125 160.603 191.094 160.929 191.063 161.223C191.745 161.548 192.334 162.06 192.784 162.633C193.42 163.454 193.652 164.755 193.451 165.731C193.404 165.948 193.327 166.181 193.234 166.413C193.513 166.615 193.761 166.863 194.009 167.141C194.117 167.265 194.226 167.389 194.334 167.513C195.001 168.257 195.001 169.279 194.644 170.147C195.063 170.844 195.389 171.65 195.234 172.409C195.109 172.998 194.691 173.416 194.179 173.68C195.094 174.098 195.792 174.857 195.73 175.88C195.683 176.639 195.218 177.413 194.536 177.894C195.451 178.482 195.885 179.691 195.59 180.621C195.42 181.163 195.047 181.535 194.629 181.829C194.753 182.015 194.846 182.201 194.892 182.402C195.078 183.146 194.923 183.797 194.551 184.323C194.877 191.094 192.396 199.212 187.807 204.403C180.242 212.955 161.281 210.12 163.11 186.369C162.568 186.152 162.056 185.733 161.746 185.3C161.266 184.618 161.188 183.874 161.281 183.084L161.235 183.038Z" fill="#0D2C63"/>
<path d="M148.134 376.177C148.522 374.147 164.893 353.448 204.598 360.079C216.039 361.985 231.434 361.567 233.604 373.605C235.48 384.078 238.162 480.942 235.015 594.617C233.899 594.989 222.473 595.453 221.326 595.438C218.876 583.214 209.109 526.214 189.001 441.047C168.645 544.449 153.653 596.011 153.653 596.011C153.653 596.011 142.15 595.717 139.421 595.438C140.166 492.624 144.724 394.381 148.134 376.177Z" fill="url(#paint56_linear_20_204370)"/>
<path d="M159.886 223.785C159.886 223.785 141.142 228.866 128.476 240.223C124.259 244.003 136.46 363.643 142.429 396.953C139.995 402.949 215.869 406.063 238.72 392.398C240.875 374.178 241.852 281.079 234.457 235.591C226.969 227.828 214.566 226.542 201.59 222.452C199.388 221.755 159.917 231.237 159.87 223.769L159.886 223.785Z" fill="url(#paint57_linear_20_204370)"/>
<path d="M195.094 221.585L191.885 218.703C191.885 218.703 174.257 222.545 163.281 219.943C162.211 220.438 159.932 224.033 159.932 224.033C159.932 224.033 182.614 228.417 195.078 221.569L195.094 221.585Z" fill="url(#paint58_linear_20_204370)"/>
<path d="M196.117 219.865C196.117 219.865 177.033 226.915 160.646 221.786C157.87 222.577 151.126 226.775 151.126 226.775C151.126 226.775 179.761 245.135 208.07 223.894C203.791 221.864 196.117 219.865 196.117 219.865Z" fill="url(#paint59_linear_20_204370)"/>
<path d="M59.0055 465.867L117.98 478.773C122.833 479.842 127.685 476.728 128.74 471.879L138.522 427.181C139.592 422.331 136.476 417.482 131.623 416.428L72.6484 403.522C67.7959 402.453 62.9433 405.567 61.8891 410.417L52.1064 455.115C51.0367 459.964 54.1529 464.814 59.0055 465.867Z" fill="url(#paint60_linear_20_204370)"/>
<path d="M133.437 416.506L70.3229 402.701C66.261 401.818 62.1992 404.405 61.3155 408.465L57.3466 426.592C56.4629 430.651 59.0519 434.71 63.1138 435.593L126.228 449.398C130.29 450.281 134.352 447.694 135.236 443.634L139.204 425.507C140.088 421.448 137.499 417.389 133.437 416.506Z" fill="url(#paint61_linear_20_204370)"/>
<path d="M110.879 413.33L120.538 415.437C121.065 415.545 121.592 415.22 121.701 414.693C121.809 414.166 121.484 413.64 120.957 413.531L111.298 411.424C110.771 411.316 110.244 411.641 110.135 412.168C110.027 412.695 110.352 413.221 110.879 413.33Z" fill="url(#paint62_linear_20_204370)"/>
<path d="M80.369 406.42L90.0275 408.527C90.5547 408.635 91.0818 408.31 91.1903 407.783C91.2988 407.257 90.9733 406.73 90.4462 406.621L80.7876 404.514C80.2605 404.406 79.7334 404.731 79.6248 405.258C79.5163 405.785 79.8418 406.311 80.369 406.42Z" fill="url(#paint63_linear_20_204370)"/>
<path d="M115.624 413.702C115.624 413.702 115.639 413.702 115.655 413.702C116.802 413.934 117.872 413.345 118.073 412.385C118.089 412.261 120.259 400.532 103.655 396.38C103.609 396.38 103.562 396.365 103.516 396.349C89.8415 393.746 85.2526 399.355 83.8108 404.514C83.5472 405.459 84.2448 406.466 85.3765 406.761C86.5083 407.055 87.6245 406.528 87.8881 405.583C89.4384 400.037 94.1825 398.193 102.818 399.835C115.5 403.027 114.011 411.176 113.934 411.533C113.748 412.478 114.492 413.454 115.624 413.686V413.702Z" fill="url(#paint64_linear_20_204370)"/>
</g>
<path d="M46.6496 31.5596V28.0891H48.9286V31.5596H50.6185V33.7751H48.9286V35.0921C49.6728 35.8512 50.3239 36.5639 50.882 37.2611V28.43H64.0444V30.3821H53.1921V45.3796H54.2928L53.7657 44.45C54.5099 44.2331 55.1919 43.9078 55.8431 43.5204H54.5253V36.6569H62.6646V43.5204H61.4398C61.6568 43.6444 61.874 43.7528 62.1065 43.8458C62.5251 44.0472 62.9281 44.1866 63.3157 44.2796L62.7266 45.3796H64.0134V47.3318H53.161V47.6726H50.8665V37.9428L49.6108 39.6781C49.3782 39.1978 49.1301 38.764 48.9131 38.3611V47.6726H46.6341V40.0344C46.324 41.0105 45.983 41.9246 45.6109 42.7458L44.1846 40.964C44.6342 40.0964 45.1148 38.8414 45.6419 37.2301C46.014 36.1456 46.3395 34.9991 46.6031 33.7597H44.6962V31.5441H46.6496V31.5596ZM59.4709 30.5525V30.9709H62.8506V34.4413H59.4709V34.7822H63.7963V36.3935H53.4401V34.7822H57.44V34.4413H54.2308V30.9709H57.44V30.5525H59.4864H59.4709ZM56.0602 32.4272V33.016H57.4245V32.4272H56.0602ZM60.8507 45.3796C60.3236 45.0698 59.874 44.7289 59.4554 44.3571L60.4941 43.5049H57.0058L57.8276 44.1711C57.3935 44.6049 56.9128 45.0233 56.4012 45.3641H60.8507V45.3796ZM60.5562 38.609V38.1752H56.6648V38.609H60.5562ZM60.5562 40.2978V39.864H56.6648V40.2978H60.5562ZM60.5562 41.9866V41.5528H56.6648V41.9866H60.5562ZM60.9902 33.0005V32.4117H59.4709V33.0005H60.9902Z" fill="#595757"/>
<path d="M76.5092 28.6936C75.8735 29.8246 75.0363 30.9711 73.9976 32.1951C73.393 32.9387 72.7884 33.5585 72.1682 34.1007C75.1294 33.9768 77.8114 33.7909 80.199 33.605C79.6408 32.9542 79.0207 32.3035 78.3696 31.6528L80.571 30.3049C82.4159 31.9936 83.9198 33.7754 85.067 35.6501L82.6175 37.0755C82.3384 36.5797 82.0283 36.0839 81.7027 35.6036C77.2688 36.0994 72.3852 36.5177 67.0831 36.843L66.6646 34.3641C67.4862 34.3486 68.3078 34.3022 69.0985 34.2557C69.9202 33.4345 70.6644 32.5669 71.362 31.6528C72.3232 30.3979 73.0984 29.1429 73.703 27.8569L76.5092 28.7091V28.6936ZM83.4546 47.5954H81.0052V46.5728H70.8194V47.5954H68.3699V37.6797H83.4702V47.5954H83.4546ZM80.9897 44.2644V39.9417H70.8039V44.2644H80.9897Z" fill="#595757"/>
<path d="M92.1985 28.0892V30.7076H93.9814V32.9231H92.5086L93.7178 33.264C93.3302 34.5499 92.9117 35.681 92.5086 36.657H94.1364V38.8416H92.121V40.2979C92.6171 40.174 93.0977 40.0191 93.5473 39.8641L93.8884 41.9093C93.2528 42.1726 92.6326 42.405 91.9814 42.6219C91.8574 43.6135 91.6404 44.4811 91.3148 45.2248C90.7877 46.2629 90.0901 47.084 89.2374 47.6728L87.8731 45.891C88.5242 45.3642 89.0048 44.6825 89.3459 43.8149C89.3924 43.691 89.4389 43.5515 89.4699 43.3811C89.0978 43.5051 88.7257 43.598 88.3847 43.691L87.625 41.4135C88.3692 41.2585 89.0979 41.1036 89.7955 40.9332V40.3289C89.7955 40.3289 89.811 39.8022 89.811 38.8571H87.6871V36.6725H90.4621C90.8497 35.4795 91.2218 34.2401 91.5319 32.9386H88.0436V30.7231H89.8265V28.1047H92.214L92.1985 28.0892ZM90.6482 35.8049L88.7878 36.5641C88.5242 35.6035 88.2297 34.7669 87.8576 34.0232L89.6404 33.171C90.028 33.9767 90.3846 34.8443 90.6637 35.7894L90.6482 35.8049ZM95.2372 31.8076V28.0737H97.4542V31.8076H100.167C100.167 40.205 99.9347 44.822 99.4541 45.6586C99.082 46.6502 98.4619 47.1615 97.5472 47.1615C97.0666 47.1615 96.524 47.0065 95.9194 46.7432L95.5472 44.8994C95.0976 45.8755 94.555 46.7432 93.9038 47.5023L92.276 45.891C93.2062 44.7135 93.9194 43.2262 94.431 41.3515C94.8806 39.6162 95.1442 37.1838 95.2372 34.0232H94.245V31.8076H95.2682H95.2372ZM96.3689 42.7304C96.1984 43.3346 95.9813 43.9079 95.7643 44.4192C96.3534 44.6825 96.8496 44.791 97.2837 44.791C97.5007 44.791 97.6247 44.4656 97.7177 43.8149C97.8262 43.0403 97.9193 39.7712 97.9503 34.0232H97.4231C97.3611 37.5866 97.0045 40.4839 96.3534 42.7304H96.3689ZM104.896 28.0892V30.7076H107.283V32.9231H105.454L106.927 33.3415C106.539 34.5499 106.121 35.6345 105.717 36.5796H107.361V38.7641H104.818V40.5613H106.927V42.8388H104.818V47.5953H102.431V42.8388H100.555V40.5613H102.431V38.7641H100.322V36.5796H101.392C101.113 35.65 100.787 34.7978 100.4 34.0387L102.26 33.1865C102.756 34.1006 103.19 35.0767 103.547 36.1303L102.508 36.5641H103.686C104.105 35.3866 104.462 34.1781 104.787 32.9231H100.4V30.7076H102.524V28.0892H104.896Z" fill="#595757"/>
<path d="M116.353 29.0187V31.4047H114.136V35.1386H115.919V37.5091H114.136V42.1725C114.896 42.0021 115.609 41.8317 116.26 41.6458L116.523 43.9388C114.523 44.574 112.337 45.1317 109.981 45.6275L109.547 43.0866C110.291 42.9627 111.004 42.8233 111.671 42.6683V37.4781H109.81V35.1076H111.671V31.3737H109.624V28.9878H116.337L116.353 29.0187ZM128.461 28.5229V39.6936H123.872V40.8866H128.368V43.2726H123.872V44.8839H129.143V47.2543H115.981V44.8839H121.407V43.2726H116.74V40.8866H121.407V39.6936H116.818V28.5229H128.43H128.461ZM121.438 32.7526V30.8934H119.33V32.7526H121.438ZM121.438 37.3231V35.1386H119.33V37.3231H121.438ZM123.887 32.7526H126.011V30.8934H123.887V32.7526ZM123.887 37.3231H126.011V35.1386H123.887V37.3231Z" fill="#595757"/>
<path d="M136.709 32.7526C137.453 32.1019 138.12 31.3582 138.724 30.568H132.275V28.3525H141.794V28.9877C142.057 29.2976 142.337 29.5765 142.616 29.8089C143.747 29.3751 144.771 28.7863 145.67 28.0891L147.453 29.5455C146.569 30.2892 145.546 30.9399 144.398 31.4512C144.771 31.792 145.143 32.1019 145.499 32.3653C146.491 31.761 147.406 31.0173 148.243 30.1342L150.181 31.6526C149.406 32.4737 148.507 33.1864 147.515 33.8216C148.6 34.5653 149.67 35.1695 150.708 35.6498L148.926 37.7724C148.538 37.5555 148.166 37.3386 147.825 37.1062V42.5908H144.476L146.383 43.1176C145.964 43.8923 145.561 44.6205 145.143 45.2247H150.274V47.5177H131.887V45.2247H136.585C136.321 44.5275 135.996 43.8768 135.624 43.288L137.127 42.5908H133.996V37.1682C133.298 37.478 132.631 37.7104 131.98 37.8654L131.205 35.9132C132.337 35.5724 133.438 35.0456 134.507 34.3949C133.949 33.8371 133.314 33.2484 132.662 32.6751L134.848 31.1568C135.453 31.6371 136.089 32.1483 136.74 32.7681L136.709 32.7526ZM137.36 35.1386C136.755 35.5724 136.166 35.9597 135.608 36.316H146.678C145.98 35.8358 145.313 35.3245 144.662 34.7512V35.2935H137.98V34.6583C137.763 34.8287 137.546 34.9991 137.375 35.1386H137.36ZM145.437 40.2978V38.609H136.368V40.2978H145.437ZM142.352 45.2092C142.786 44.3416 143.158 43.4739 143.484 42.5753H138.011C138.43 43.1796 138.771 43.8303 139.081 44.5275L137.499 45.1937H142.368L142.352 45.2092ZM139.654 33.0934H142.802C142.213 32.5512 141.654 31.9934 141.127 31.4047C140.6 32.0399 140.135 32.5977 139.654 33.0934Z" fill="#595757"/>
<path d="M154.91 31.8078V28.0739H157.127V31.8078H158.476V33.9304H157.127V35.1079C157.949 35.8826 158.662 36.6263 159.297 37.3389L159.142 36.4713C159.468 36.4713 159.793 36.4713 160.103 36.4558C160.538 35.7896 160.925 35.1389 161.282 34.4882C160.46 33.8529 159.592 33.3107 158.646 32.8459L159.84 31.3275C159.964 31.4205 160.073 31.4825 160.212 31.529C160.801 30.3825 161.297 29.2359 161.716 28.1049L163.592 28.9571C162.941 30.305 162.352 31.467 161.809 32.4585C161.933 32.5515 162.072 32.629 162.197 32.7219C162.476 32.1332 162.739 31.5754 162.972 31.0022L164.63 31.7459C164.568 30.6458 164.522 29.4684 164.522 28.2134L166.801 28.043C166.801 29.5148 166.816 30.8472 166.863 32.0557L167.142 31.529C167.235 31.5909 167.344 31.6529 167.421 31.6994C167.948 30.5064 168.382 29.3134 168.739 28.1204L170.599 28.9726C169.995 30.4444 169.452 31.6839 168.956 32.7064C169.08 32.8304 169.22 32.9389 169.344 33.0318C169.716 32.2107 170.041 31.405 170.336 30.5994L172.212 31.4515C171.762 32.4431 171.328 33.3417 170.909 34.1628L171.778 33.8994C172.212 34.984 172.553 36.1615 172.801 37.4629L171.111 37.9587C171.064 37.7573 171.049 37.5713 171.002 37.3699C170.692 37.4939 170.413 37.5868 170.15 37.6333C170.63 37.9432 171.064 38.2375 171.452 38.5629L170.847 39.2291H172.568V41.2742H168.181C168.305 41.7545 168.491 42.2038 168.661 42.6221C168.925 42.2813 169.188 41.9095 169.421 41.5221L171.374 42.4517C170.847 43.3813 170.305 44.1715 169.747 44.7912C169.979 45.1631 170.181 45.3335 170.351 45.3335C170.398 45.3335 170.444 45.2405 170.506 45.0701C170.599 44.8067 170.661 44.4349 170.708 43.9856L172.816 44.8377C172.444 46.0772 171.995 46.8828 171.467 47.2546C171.126 47.518 170.723 47.642 170.274 47.642C169.638 47.642 168.987 47.2237 168.336 46.4335C168.274 46.3405 168.212 46.2786 168.165 46.2011C167.297 46.8053 166.32 47.3011 165.282 47.7349L164.181 45.7828C165.375 45.349 166.336 44.8532 167.064 44.2799C166.646 43.3968 166.305 42.3897 166.026 41.2897H162.956C162.941 41.5996 162.91 41.8475 162.91 42.0954C163.933 42.6221 164.817 43.0869 165.607 43.5672L164.351 45.349C163.762 44.9152 163.173 44.5278 162.6 44.156C162.506 44.4659 162.445 44.7447 162.383 44.9616C162.072 45.9997 161.638 46.9138 161.034 47.7349L159.018 46.449C159.545 45.7828 159.949 45.0236 160.259 44.125C160.476 43.3813 160.646 42.4362 160.739 41.2897H159.266V39.2446H165.545C165.437 38.7953 165.344 38.3305 165.266 37.8502L163.762 38.2995C163.716 38.0981 163.7 37.9277 163.669 37.7572C162.46 38.1911 161.065 38.4235 159.514 38.4699L159.421 37.9742L158.166 39.7249C157.825 39.1362 157.468 38.5939 157.142 38.0981V47.7194H154.925V40.4066C154.662 41.2278 154.383 41.9869 154.073 42.6996L152.724 41.0108C153.158 40.1432 153.608 38.9347 154.088 37.3699C154.398 36.3783 154.677 35.3248 154.91 34.2248V33.9924H153.127V31.8698H154.91V31.8078ZM163.018 35.1544C162.801 35.5262 162.6 35.8671 162.413 36.1769C162.724 36.1305 163.003 36.053 163.266 35.96C163.173 35.6967 163.111 35.4178 163.034 35.1544H163.018ZM164.646 32.1797C164.165 33.0938 163.731 33.9304 163.297 34.6741L164.429 34.3487C164.646 34.9065 164.817 35.5262 164.987 36.1305C164.817 34.922 164.708 33.6206 164.646 32.1797ZM168.398 38.6869L169.158 37.7728C168.63 37.8657 168.134 37.8967 167.638 37.8967L167.297 36.022C167.499 36.022 167.685 36.022 167.886 36.0065C168.15 35.5572 168.382 35.0924 168.599 34.6121C168.041 34.1783 167.468 33.791 166.956 33.4346C167.08 35.6192 167.328 37.4319 167.623 38.8418C167.638 38.9657 167.669 39.0742 167.685 39.1671H169.142C168.878 38.9967 168.646 38.8263 168.398 38.6714V38.6869ZM170.444 35.0769C170.32 35.3403 170.181 35.5572 170.072 35.7741C170.274 35.7586 170.444 35.7121 170.615 35.6657C170.553 35.4643 170.491 35.2783 170.444 35.0769Z" fill="#595757"/>
<path d="M178.397 30.0413V28.1821H180.785V30.0413H183.994V32.2569H180.785V33.7752H184.428V35.9907H183.343C183.126 36.7654 182.893 37.4626 182.599 38.0978H183.994V40.3134H180.785V41.6613H184.428V43.8768H180.785V47.6107H178.397V43.8768H174.832V41.6613H178.397V40.3134H175.266V38.0978H176.568C176.366 37.4936 176.149 36.9203 175.932 36.4091L176.801 35.9907H174.739V33.7752H178.382V32.2569H175.25V30.0413H178.382H178.397ZM180.18 38.0823C180.444 37.3851 180.676 36.6725 180.878 35.9753H178.18C178.459 36.5175 178.707 37.0753 178.924 37.664L177.948 38.0823H180.18ZM193.575 28.6005V32.9231C193.575 34.6738 192.722 35.5569 191.033 35.5569H189.42L188.924 33.109C189.482 33.2329 189.963 33.2794 190.35 33.2794C190.785 33.2794 191.017 33.016 191.017 32.5047V30.8935H187.126V36.0527H193.994V37.7725C193.451 40.2514 192.8 42.1571 192.04 43.5205C192.691 44.2951 193.436 44.9769 194.257 45.5656L192.567 47.6882C191.823 47.0839 191.172 46.4022 190.568 45.6431C189.808 46.5107 188.955 47.2079 188.056 47.6882L187.141 45.9065V47.6882H184.754V28.6159H193.575V28.6005ZM189.157 43.536C189.157 43.536 189.095 43.4275 189.064 43.3656C188.242 41.8472 187.653 40.1584 187.327 38.2683H187.157V45.2402C187.932 44.8064 188.583 44.2487 189.157 43.5515V43.536ZM190.536 41.1965C190.924 40.3289 191.234 39.3528 191.498 38.2683H189.56C189.777 39.3528 190.102 40.3289 190.536 41.1965Z" fill="#595757"/>
<path d="M200.722 39.1982V37.2461H203.265V39.1982H206.908V41.6462H203.265V44.1406C204.629 44.0166 205.931 43.8617 207.156 43.6913L207.59 45.9068C204.552 46.4646 201.187 46.9914 197.498 47.4252L196.567 44.7913C198.025 44.6674 199.42 44.5279 200.738 44.404V41.6462H197.234V39.1982H200.738H200.722ZM207.575 28.6938V31.0642H202.366L201.11 34.4108C202.242 34.3178 203.28 34.2404 204.273 34.1319C204.009 33.6826 203.73 33.2178 203.42 32.7685L205.606 31.4206C206.645 32.9389 207.497 34.5502 208.148 36.239L205.869 37.6024C205.699 37.1221 205.497 36.6728 205.311 36.208C202.8 36.6418 200.056 36.9827 197.064 37.2461L196.629 34.7052C197.234 34.6897 197.823 34.6432 198.381 34.5967L199.73 31.0642H196.877V28.6938H207.559H207.575ZM211.218 30.553V42.9166H208.676V30.553H211.218ZM215.466 27.9966V44.28C215.466 45.535 215.311 46.3561 215.032 46.8364C214.66 47.3322 214.009 47.5956 213.094 47.5956C212.102 47.5956 211.156 47.5026 210.288 47.3322L209.854 44.7913C210.815 45.0082 211.792 45.1167 212.737 45.1167C212.799 45.1167 212.846 45.0237 212.861 44.8378C212.877 44.6054 212.908 44.2026 212.908 43.6913V27.9966H215.45H215.466Z" fill="#595757"/>
<path d="M50.6493 59.6494C50.9749 58.9522 51.285 58.224 51.564 57.4338L53.9516 57.9606C53.781 58.5648 53.5795 59.1381 53.3624 59.6494H63.5326V62.0198H52.3237C52.0136 62.6241 51.7191 63.1973 51.3935 63.7086H62.1064V74.0581C62.1064 76.1342 61.1762 77.2033 59.3003 77.2033C58.6491 77.2033 57.9049 77.0793 57.0832 76.8624L56.5872 74.2286C57.3933 74.5694 58.153 74.7243 58.8661 74.7243C59.3932 74.7243 59.6413 74.1666 59.6413 73.0356H51.0679V77.2033H48.6184V67.551C47.8742 68.4031 47.0991 69.1623 46.3239 69.8285L44.448 68.0467C45.9673 66.6988 47.3161 65.165 48.5253 63.4452C48.8354 62.9959 49.13 62.5156 49.4401 62.0198H44.9596V59.6494H50.6493ZM59.6413 66.0946H51.0679V67.2876H59.6413V66.0946ZM59.6413 69.5651H51.0679V70.7581H59.6413V69.5651Z" fill="#595757"/>
<path d="M77.0054 57.5264V62.4532C77.0054 62.7166 76.9899 62.9335 76.9899 63.1504C77.6411 65.3195 78.4162 67.1942 79.3309 68.7435C80.6332 71.083 82.7881 73.1746 85.7648 74.9873L83.5478 77.1099C81.2688 75.4986 79.5324 73.8253 78.3077 72.0126C77.4395 70.8041 76.6953 69.3478 76.0752 67.6745C75.5946 68.9294 74.9745 70.1069 74.1683 71.2069C72.4319 73.6084 70.2305 75.5761 67.6104 77.1099L66.1531 74.8169C69.0212 73.0816 71.1762 71.1295 72.556 68.9604C73.8118 66.8843 74.4629 64.6998 74.4629 62.4532V57.5264H77.0054Z" fill="#595757"/>
<path d="M95.9968 57.9602V74.0577C95.9968 75.9169 95.1131 76.862 93.3612 76.862H92.1054L91.5783 74.4915C92.0589 74.6 92.5085 74.6465 92.9426 74.6465C93.4387 74.6465 93.7022 74.1507 93.7022 73.1281V70.1534H91.2217C91.1752 71.5478 91.0667 72.8028 90.8497 73.9493C90.6326 75.1267 90.307 76.1803 89.8729 77.1099L87.594 76.2578C88.0126 75.3437 88.3381 74.2591 88.5552 72.9577C88.8188 71.7182 88.9428 70.1224 88.9428 68.1548V57.9292H95.9813L95.9968 57.9602ZM93.7178 63.1195V60.2377H91.2683V63.1195H93.7178ZM93.7178 67.9534V65.335H91.2683V67.9534H93.7178ZM99.6401 77.1099H97.1905V57.9447H106.446C106.384 61.4617 106.027 63.5068 105.376 64.111C104.942 64.5294 104.307 64.7153 103.469 64.7153C102.818 64.7153 102.105 64.6688 101.345 64.5603L100.849 62.2673C101.594 62.3913 102.322 62.4378 103.066 62.4378C103.33 62.4378 103.485 62.3913 103.516 62.2673C103.64 61.9884 103.779 61.3067 103.903 60.2222H99.6401V65.5674H107.113V67.2872C106.555 69.6731 105.872 71.5168 105.066 72.8647C105.841 73.6084 106.741 74.2901 107.779 74.9099L105.996 77.1254C105.113 76.4282 104.307 75.7 103.593 74.8944C102.71 75.8859 101.733 76.6296 100.663 77.1254L99.6401 75.1577V77.1254V77.1099ZM99.6401 68.4182V74.7394C100.555 74.3056 101.33 73.7169 102.028 72.9577C101.097 71.6717 100.291 70.1534 99.6401 68.4182ZM103.392 70.9126C103.872 69.9985 104.26 68.9604 104.57 67.7829H101.609C102.152 68.9914 102.741 70.045 103.392 70.9126Z" fill="#595757"/>
<path d="M118.802 58.131V60.2381C118.027 61.2762 117.128 62.2058 116.136 63.0114C116.4 63.2128 116.632 63.3833 116.849 63.5537L116.306 64.2199H119.066V66.0016C119.02 66.0946 119.004 66.1721 118.973 66.2185C120.043 65.8312 120.973 65.3664 121.748 64.8706C121.144 64.3128 120.601 63.6776 120.12 62.9804C119.857 63.3058 119.593 63.6157 119.314 63.8635L117.764 62.1748C118.461 61.4311 119.02 60.7029 119.407 59.9437C119.888 59.1226 120.275 58.2705 120.554 57.4338L122.849 57.9606C122.725 58.3479 122.57 58.7198 122.43 59.0606H128.942V61.3381H127.221C126.911 62.6241 126.399 63.7086 125.686 64.5917C126.787 65.1805 127.98 65.6608 129.267 66.0016L128.182 68.2791C126.554 67.8453 125.081 67.2101 123.748 66.4199C123.267 66.7608 122.771 67.0707 122.244 67.3495H123.593C123.578 67.9538 123.547 68.496 123.5 68.9763H128.322C128.306 72.0595 128.089 74.399 127.686 75.9638C127.577 76.3047 127.314 76.599 126.911 76.8159C126.477 77.0174 125.95 77.1258 125.36 77.1258C124.818 77.1258 124.182 77.0328 123.5 76.8624L123.237 74.4145C124.089 74.6934 124.802 74.8328 125.36 74.8328C125.453 74.8328 125.516 74.8173 125.578 74.7243C125.624 74.6779 125.67 74.5074 125.701 74.2286C125.795 73.3145 125.857 72.3384 125.857 71.2693H123.205C122.988 72.2609 122.709 73.0666 122.337 73.6863C121.469 75.1117 120.213 76.2737 118.554 77.1413L117.206 74.9258C118.632 74.2131 119.655 73.299 120.291 72.2144C120.446 71.951 120.57 71.6257 120.709 71.2848H118.322V69.0073H121.128C121.128 68.6665 121.144 68.2946 121.175 67.9228C120.694 68.1552 120.198 68.3721 119.671 68.5735L118.586 67.1016C118.198 68.0157 117.81 68.7904 117.392 69.4256L115.671 68.3256C115.95 67.7679 116.213 67.1326 116.431 66.4664H115.516V73.8412C115.516 75.0342 115.361 75.8089 115.066 76.2427C114.694 76.723 114.043 76.9864 113.128 76.9864C112.431 76.9864 111.779 76.8934 111.175 76.723L110.756 74.275C111.423 74.4919 112.105 74.6004 112.803 74.6004C112.958 74.6004 113.066 74.5074 113.128 74.337C113.175 74.1201 113.221 73.7483 113.221 73.2525V70.4482C112.524 71.5327 111.764 72.5088 110.942 73.4229L109.159 71.6412C110.803 70.0764 112.043 68.3721 112.911 66.4509H109.485V64.2664H113.438C112.508 63.6156 111.547 63.0114 110.586 62.4846L112.198 60.7959C112.803 61.0748 113.376 61.3846 113.919 61.679C114.462 61.3071 114.958 60.9043 115.438 60.4395H109.842V58.162H118.74L118.802 58.131ZM123.671 63.2903C124.151 62.7325 124.523 62.0818 124.771 61.3381H121.748C122.306 62.0818 122.942 62.7325 123.655 63.2903H123.671Z" fill="#595757"/>
<path d="M134.058 76.5061H131.608V60.579H133.562C133.841 59.5409 134.058 58.5029 134.228 57.4338L136.771 58.0381C136.6 58.9522 136.399 59.7888 136.166 60.579H139.406V64.4678C139.949 63.5537 140.43 62.5621 140.833 61.4466C141.437 60.0367 141.902 58.6888 142.197 57.4338L144.74 58.2085C144.523 59.0142 144.305 59.7888 144.073 60.579H150.181C150.181 68.8834 149.902 73.7018 149.375 75.0342C148.956 76.4596 147.964 77.2033 146.383 77.2033C145.561 77.2033 144.74 77.0793 143.902 76.8624L143.406 74.2286C144.616 74.5074 145.623 74.6469 146.383 74.6469C146.833 74.6469 147.143 74.306 147.267 73.6088C147.499 72.4003 147.639 68.8524 147.639 62.9494H143.189C142.585 64.5143 141.933 65.8312 141.189 66.9467L139.406 65.6298V75.6849H136.957V74.5074H134.073V76.5216L134.058 76.5061ZM136.941 66.5904V62.9494H134.058V66.5904H136.941ZM136.941 68.8834H134.058V72.1834H136.941V68.8834ZM146.026 70.851L143.391 71.7031C143.081 69.9059 142.585 68.2482 141.933 66.7763L144.321 66.0171C145.034 67.4735 145.608 69.0848 146.011 70.851H146.026Z" fill="#595757"/>
<path d="M164.088 69.7971C164.615 69.2393 165.065 68.6661 165.499 68.1238C165.049 66.0787 164.754 63.8012 164.63 61.2448H156.445V67.69C156.445 69.5182 156.29 71.2535 156.026 72.9422C155.809 74.3056 155.437 75.6845 154.925 77.1099L152.724 75.824C153.251 74.0732 153.592 72.5549 153.763 71.2689C153.964 69.7041 154.073 68.1238 154.073 66.5435V58.9673H164.537C164.522 58.487 164.522 57.9912 164.522 57.5109H167.142V58.9673H168.057C167.886 58.7504 167.731 58.5489 167.561 58.363L169.437 57.1855C169.933 57.7433 170.367 58.363 170.739 58.9673H172.057V61.2448H167.22C167.266 62.7012 167.328 64.0026 167.452 65.1336C168.088 64.0336 168.599 62.9491 169.018 61.8645L171.39 62.6237C170.522 64.6223 169.669 66.2646 168.847 67.566C168.584 67.9999 168.305 68.4182 168.026 68.8055C168.367 70.5872 168.785 72.0436 169.235 73.1436C169.576 74.0577 169.886 74.4916 170.103 74.4916C170.196 74.4916 170.227 74.3831 170.274 74.1197C170.32 73.8098 170.382 72.9422 170.444 71.5168L172.661 73.2986C172.351 75.1268 171.948 76.2423 171.374 76.6606C171.095 76.9705 170.661 77.1099 170.088 77.1099C169.344 77.1099 168.615 76.4592 167.871 75.1733C167.235 74.0887 166.677 72.6943 166.196 71.021C166.072 71.176 165.964 71.2999 165.855 71.4084C166.119 72.0126 166.351 72.6169 166.522 73.2676L164.739 73.8563C164.522 72.8338 164.196 71.9042 163.716 71.052L164.91 70.7112L163.886 69.9675C163.886 69.9675 163.995 69.8436 164.041 69.7971H159.22V70.1224H157.034V64.6068H164.072V69.7661L164.088 69.7971ZM158.739 71.4239C158.615 73.0662 158.29 74.5845 157.809 76.0099L156.026 75.1578C156.507 73.7634 156.832 72.3845 156.956 70.9901L158.739 71.4239ZM164.165 61.9265V64.0491H157.049V61.9265H164.165ZM161.018 70.6647V73.9648C161.018 74.4141 161.173 74.662 161.499 74.6775C161.623 74.7239 161.824 74.7239 162.088 74.7239C162.646 74.7239 162.972 74.7085 163.111 74.662C163.204 74.6 163.266 74.4915 163.313 74.3366C163.359 74.2437 163.375 73.9648 163.421 73.469L165.468 74.6465C165.359 75.6071 165.158 76.1803 164.879 76.4437C164.662 76.5522 164.398 76.6451 164.057 76.6761C163.824 76.7226 163.173 76.7691 162.103 76.7691C161.607 76.7691 161.142 76.7226 160.755 76.6761C159.654 76.6296 159.111 75.9324 159.111 74.631V70.6647H161.049H161.018ZM161.871 67.783V66.6829H159.235V67.783H161.871ZM163.995 72.7098L162.119 73.2986C161.902 72.307 161.592 71.4084 161.189 70.5872L162.879 70.0605C163.359 70.8661 163.731 71.7492 163.979 72.7098H163.995Z" fill="#595757"/>
<path d="M181.296 58.8899C180.32 59.2307 179.281 59.4941 178.165 59.6645V59.9899H181.033V61.4153H178.258V61.9111H181.033V63.3674H178.335V63.8632H182.304L181.544 62.6857C181.824 62.5773 182.103 62.4533 182.366 62.3139C182.087 62.2054 181.808 62.097 181.544 61.9885L182.475 60.811C183.002 61.028 183.498 61.2294 184.009 61.4463H184.025C184.521 61.1054 184.986 60.7801 185.374 60.4237C185.033 60.2533 184.723 60.0984 184.413 59.9744C183.808 60.2068 183.064 60.4237 182.196 60.6406L181.343 59.3547C181.684 59.2617 182.01 59.1842 182.32 59.0913C182.01 58.9828 181.715 58.8744 181.436 58.7659L182.459 57.48C183.172 57.7434 183.87 58.0068 184.537 58.2547C185.064 58.0223 185.513 57.7589 185.932 57.48L186.955 58.673C186.738 58.8279 186.521 58.9518 186.32 59.0603C186.645 59.2152 186.971 59.3702 187.281 59.5096L186.428 60.4237L187.033 61.1209C186.614 61.5547 186.211 61.9266 185.777 62.2674C186.242 62.4998 186.692 62.7477 187.126 62.9801L186.35 63.8322H190.319V63.3365H187.622V61.8181H190.428V61.3843H187.622V59.866H190.536V59.4321H187.544V57.8209H192.707L192.428 63.8322H193.901V67.3957H191.451V65.7069H177.436V67.3957H174.987V63.8322H176.382L176.01 58.2392C177.529 58.0687 178.986 57.7589 180.335 57.3096L181.265 58.8434L181.296 58.8899ZM190.955 66.1717V74.0423H187.916V74.3832C187.916 74.7705 188.226 74.9874 188.831 75.0184C189.095 75.0649 189.467 75.0649 189.932 75.0649C190.893 75.0649 191.451 75.0494 191.653 74.9719C191.823 74.879 191.963 74.7395 191.994 74.5226C192.056 74.4297 192.102 74.0423 192.149 73.3761L194.273 74.5536C194.149 75.5761 193.901 76.2269 193.513 76.5058C193.249 76.6142 192.908 76.7072 192.443 76.7691C192.133 76.8156 191.312 76.8621 189.932 76.8621C189.188 76.8621 188.536 76.8156 187.947 76.7691C186.32 76.7227 185.513 76.1339 185.513 74.9874V74.0578H182.971C182.49 74.8325 181.886 75.4212 181.141 75.855C180.041 76.4903 178.273 76.8931 175.839 77.11L175.25 75.0649C177.142 75.0184 178.568 74.786 179.576 74.3677C179.839 74.2747 180.025 74.1663 180.211 74.0423H177.808V66.1717H190.94H190.955ZM188.412 68.3718V67.876H180.351V68.3718H188.412ZM188.412 70.3239V69.8282H180.351V70.3239H188.412ZM188.412 72.3691V71.7803H180.351V72.3691H188.412ZM185.467 63.8787C185.079 63.6618 184.723 63.4604 184.382 63.2745C183.994 63.4914 183.575 63.7083 183.141 63.8787H185.467Z" fill="#595757"/>
<path d="M215.9 65.0718V67.1943H206.055V77.203H203.668V75.3748C201.59 75.6382 199.327 75.8706 196.893 76.0875L196.459 73.7015C196.939 73.7015 197.389 73.686 197.823 73.6396V67.1943H196.366V65.0718H215.885H215.9ZM213.683 57.604V64.576H198.505V57.604H213.683ZM203.668 67.9535V67.1943H200.102V67.9535H203.668ZM203.668 70.6648V69.9057H200.102V70.6648H203.668ZM203.668 73.3142V72.617H200.102V73.5311C201.404 73.4691 202.583 73.4072 203.668 73.3142ZM211.311 60.2379V59.5716H200.862V60.2379H211.311ZM211.311 62.6238V62.0196H200.862V62.6238H211.311ZM214.784 67.7831V69.3944C214.226 71.0367 213.574 72.3536 212.83 73.3297C213.714 73.9184 214.768 74.3987 215.978 74.7396L214.784 77.0326C213.435 76.5523 212.241 75.8861 211.202 75.034C210.102 75.9945 208.861 76.6762 207.482 77.1101L206.288 74.8945C207.544 74.5537 208.613 74.0269 209.482 73.3607C208.629 72.3691 207.931 71.2071 207.42 69.9057H206.551V67.7831H214.784ZM211.032 71.7958C211.466 71.2381 211.854 70.6029 212.164 69.9057H209.714C210.055 70.6029 210.52 71.2226 211.032 71.7958Z" fill="#595757"/>
<path d="M223.187 57.8674C223.032 58.9054 222.877 59.9125 222.737 60.8421H226.582C226.473 63.5069 226.148 66.0013 225.605 68.3253C225.388 69.2085 225.156 69.9986 224.892 70.6958C225.76 71.4705 226.613 72.3071 227.435 73.1282L225.745 75.0029C225.094 74.2593 224.458 73.593 223.838 72.9578C223.714 73.1747 223.559 73.3916 223.419 73.5621C222.458 74.9564 221.311 76.1185 219.962 77.1255L218.613 75.2663C219.76 74.3987 220.737 73.3761 221.528 72.1832C221.698 71.9508 221.9 71.6564 222.07 71.362C221.636 71.0212 221.202 70.6648 220.784 70.324C220.675 70.7113 220.567 71.0676 220.474 71.362L218.164 70.8662C218.861 68.4648 219.45 65.8774 219.946 63.1351H218.071V60.8576H220.334C220.505 59.773 220.66 58.673 220.784 57.542L223.171 57.8828L223.187 57.8674ZM223.404 68.062C223.791 66.3887 224.07 64.7464 224.21 63.1196H222.334C222.008 64.9168 221.683 66.5281 221.357 67.9535C221.915 68.3718 222.489 68.7746 223.032 69.162C223.156 68.8211 223.264 68.4493 223.404 68.062ZM237.171 58.1307V60.3153C236.132 62.0351 234.907 63.5069 233.527 64.7464V66.0943H237.698V68.4648H233.527V74.2438C233.527 75.3283 233.295 76.041 232.814 76.3664C232.287 76.7537 231.403 76.9551 230.148 76.9551C229.481 76.9551 228.845 76.8931 228.272 76.7847L227.853 74.1663C228.597 74.4452 229.357 74.5846 230.132 74.5846C230.396 74.5846 230.628 74.5381 230.845 74.4607C230.969 74.3367 231.062 74.0424 231.062 73.655V68.4958H226.473V66.1253H231.062V62.8097L232.055 62.8717C232.814 62.2055 233.527 61.4153 234.179 60.5322H227.14V58.1617H237.155L237.171 58.1307Z" fill="#595757"/>
<defs>
<linearGradient id="paint0_linear_20_204370" x1="240.008" y1="222.468" x2="240.008" y2="390.725" gradientUnits="userSpaceOnUse">
<stop stop-color="white"/>
<stop offset="1" stop-color="white" stop-opacity="0.6"/>
</linearGradient>
<linearGradient id="paint1_linear_20_204370" x1="-33.6115" y1="-2624.81" x2="-33.6115" y2="2384.36" gradientUnits="userSpaceOnUse">
<stop stop-color="#E1F2FC"/>
<stop offset="1" stop-color="#B6D5F0"/>
</linearGradient>
<linearGradient id="paint2_linear_20_204370" x1="46.3082" y1="425.64" x2="45.0458" y2="315.986" gradientUnits="userSpaceOnUse">
<stop stop-color="#E1F2FC"/>
<stop offset="1" stop-color="#B6D6F1"/>
</linearGradient>
<linearGradient id="paint3_linear_20_204370" x1="46.2839" y1="322.65" x2="46.2818" y2="483.869" gradientUnits="userSpaceOnUse">
<stop stop-color="#71ABDD"/>
<stop offset="0.09" stop-color="#639BD2"/>
<stop offset="0.27" stop-color="#4F86C2"/>
<stop offset="0.46" stop-color="#4176B7"/>
<stop offset="0.68" stop-color="#396DB1"/>
<stop offset="1" stop-color="#376BAF"/>
</linearGradient>
<linearGradient id="paint4_linear_20_204370" x1="53.8602" y1="327.583" x2="53.8039" y2="322.687" gradientUnits="userSpaceOnUse">
<stop stop-color="#E1F2FC"/>
<stop offset="1" stop-color="#B6D6F1"/>
</linearGradient>
<linearGradient id="paint5_linear_20_204370" x1="53.9226" y1="334.338" x2="53.8675" y2="329.55" gradientUnits="userSpaceOnUse">
<stop stop-color="#E1F2FC"/>
<stop offset="1" stop-color="#B6D6F1"/>
</linearGradient>
<linearGradient id="paint6_linear_20_204370" x1="53.9909" y1="341.604" x2="53.9309" y2="336.398" gradientUnits="userSpaceOnUse">
<stop stop-color="#E1F2FC"/>
<stop offset="1" stop-color="#B6D6F1"/>
</linearGradient>
<linearGradient id="paint7_linear_20_204370" x1="54.0545" y1="348.467" x2="53.9976" y2="343.525" gradientUnits="userSpaceOnUse">
<stop stop-color="#E1F2FC"/>
<stop offset="1" stop-color="#B6D6F1"/>
</linearGradient>
<linearGradient id="paint8_linear_20_204370" x1="54.1749" y1="361.62" x2="54.1141" y2="356.337" gradientUnits="userSpaceOnUse">
<stop stop-color="#E1F2FC"/>
<stop offset="1" stop-color="#B6D6F1"/>
</linearGradient>
<linearGradient id="paint9_linear_20_204370" x1="54.2341" y1="368.096" x2="54.181" y2="363.48" gradientUnits="userSpaceOnUse">
<stop stop-color="#E1F2FC"/>
<stop offset="1" stop-color="#B6D6F1"/>
</linearGradient>
<linearGradient id="paint10_linear_20_204370" x1="54.3691" y1="381.125" x2="54.3162" y2="376.524" gradientUnits="userSpaceOnUse">
<stop stop-color="#E1F2FC"/>
<stop offset="1" stop-color="#B6D6F1"/>
</linearGradient>
<linearGradient id="paint11_linear_20_204370" x1="54.4277" y1="387.57" x2="54.3754" y2="383.031" gradientUnits="userSpaceOnUse">
<stop stop-color="#E1F2FC"/>
<stop offset="1" stop-color="#B6D6F1"/>
</linearGradient>
<linearGradient id="paint12_linear_20_204370" x1="54.4969" y1="394.914" x2="54.4345" y2="389.492" gradientUnits="userSpaceOnUse">
<stop stop-color="#E1F2FC"/>
<stop offset="1" stop-color="#B6D6F1"/>
</linearGradient>
<linearGradient id="paint13_linear_20_204370" x1="54.5521" y1="401.064" x2="54.5046" y2="396.943" gradientUnits="userSpaceOnUse">
<stop stop-color="#E1F2FC"/>
<stop offset="1" stop-color="#B6D6F1"/>
</linearGradient>
<linearGradient id="paint14_linear_20_204370" x1="54.7005" y1="415.271" x2="54.6441" y2="410.375" gradientUnits="userSpaceOnUse">
<stop stop-color="#E1F2FC"/>
<stop offset="1" stop-color="#B6D6F1"/>
</linearGradient>
<linearGradient id="paint15_linear_20_204370" x1="54.6232" y1="408.563" x2="54.5579" y2="402.893" gradientUnits="userSpaceOnUse">
<stop stop-color="#E1F2FC"/>
<stop offset="1" stop-color="#B6D6F1"/>
</linearGradient>
<linearGradient id="paint16_linear_20_204370" x1="54.3081" y1="374.525" x2="54.2544" y2="369.862" gradientUnits="userSpaceOnUse">
<stop stop-color="#E1F2FC"/>
<stop offset="1" stop-color="#B6D6F1"/>
</linearGradient>
<linearGradient id="paint17_linear_20_204370" x1="54.1084" y1="354.509" x2="54.0601" y2="350.311" gradientUnits="userSpaceOnUse">
<stop stop-color="#E1F2FC"/>
<stop offset="1" stop-color="#B6D6F1"/>
</linearGradient>
<linearGradient id="paint18_linear_20_204370" x1="45.1847" y1="320.563" x2="45.128" y2="315.636" gradientUnits="userSpaceOnUse">
<stop stop-color="#71ABDD"/>
<stop offset="1" stop-color="#376BAF"/>
</linearGradient>
<linearGradient id="paint19_linear_20_204370" x1="59.2039" y1="415.885" x2="59.1567" y2="411.78" gradientUnits="userSpaceOnUse">
<stop stop-color="#E1F2FC"/>
<stop offset="1" stop-color="#B6D6F1"/>
</linearGradient>
<linearGradient id="paint20_linear_20_204370" x1="2.69727" y1="460.554" x2="171.079" y2="460.554" gradientUnits="userSpaceOnUse">
<stop stop-color="#E1F2FC"/>
<stop offset="1" stop-color="#B6D5F0"/>
</linearGradient>
<linearGradient id="paint21_linear_20_204370" x1="383.224" y1="343.955" x2="469.659" y2="348.215" gradientUnits="userSpaceOnUse">
<stop stop-color="#FADCE2"/>
<stop offset="1" stop-color="#EFB9C0"/>
</linearGradient>
<linearGradient id="paint22_linear_20_204370" x1="448.931" y1="341.797" x2="386.716" y2="341.797" gradientUnits="userSpaceOnUse">
<stop stop-color="#E1F2FC"/>
<stop offset="1" stop-color="#B6D6F1"/>
</linearGradient>
<linearGradient id="paint23_linear_20_204370" x1="335.026" y1="355.542" x2="248.591" y2="359.802" gradientUnits="userSpaceOnUse">
<stop stop-color="#FADCE2"/>
<stop offset="1" stop-color="#EFB9C0"/>
</linearGradient>
<linearGradient id="paint24_linear_20_204370" x1="268.487" y1="344.183" x2="330.703" y2="344.183" gradientUnits="userSpaceOnUse">
<stop stop-color="#E1F2FC"/>
<stop offset="1" stop-color="#B6D6F1"/>
</linearGradient>
<linearGradient id="paint25_linear_20_204370" x1="320.408" y1="444.704" x2="372.36" y2="444.704" gradientUnits="userSpaceOnUse">
<stop stop-color="#2C5A95"/>
<stop offset="1" stop-color="#00234C"/>
</linearGradient>
<linearGradient id="paint26_linear_20_204370" x1="347.021" y1="443.238" x2="434.792" y2="444.464" gradientUnits="userSpaceOnUse">
<stop stop-color="#2C5A95"/>
<stop offset="1" stop-color="#00234C"/>
</linearGradient>
<linearGradient id="paint27_linear_20_204370" x1="380.894" y1="284.999" x2="333.24" y2="284.45" gradientUnits="userSpaceOnUse">
<stop stop-color="#E5C9CF"/>
<stop offset="1" stop-color="#E2AFB6"/>
</linearGradient>
<linearGradient id="paint28_linear_20_204370" x1="336.052" y1="254.694" x2="370.842" y2="255.952" gradientUnits="userSpaceOnUse">
<stop stop-color="#FADCE2"/>
<stop offset="1" stop-color="#EFB9C0"/>
</linearGradient>
<linearGradient id="paint29_linear_20_204370" x1="385.6" y1="331.634" x2="328.051" y2="331.634" gradientUnits="userSpaceOnUse">
<stop stop-color="#83B5E2"/>
<stop offset="1" stop-color="#376BAF"/>
</linearGradient>
<linearGradient id="paint30_linear_20_204370" x1="406.653" y1="359.568" x2="371.275" y2="359.568" gradientUnits="userSpaceOnUse">
<stop stop-color="#E1F2FC"/>
<stop offset="1" stop-color="#B6D6F1"/>
</linearGradient>
<linearGradient id="paint31_linear_20_204370" x1="343.741" y1="360.854" x2="310.501" y2="360.854" gradientUnits="userSpaceOnUse">
<stop stop-color="#E1F2FC"/>
<stop offset="1" stop-color="#B6D6F1"/>
</linearGradient>
<linearGradient id="paint32_linear_20_204370" x1="264.177" y1="294.698" x2="264.177" y2="356.826" gradientUnits="userSpaceOnUse">
<stop stop-color="#AFCBEB"/>
<stop offset="0.34" stop-color="#ACC9EA"/>
<stop offset="0.55" stop-color="#A3C3E7"/>
<stop offset="0.74" stop-color="#94BAE3"/>
<stop offset="0.91" stop-color="#7FADDC"/>
<stop offset="1" stop-color="#70A4D8"/>
</linearGradient>
<linearGradient id="paint33_linear_20_204370" x1="264.224" y1="348.553" x2="264.069" y2="357.648" gradientUnits="userSpaceOnUse">
<stop stop-color="#E1F2FC"/>
<stop offset="1" stop-color="#B6D6F1"/>
</linearGradient>
<linearGradient id="paint34_linear_20_204370" x1="253.712" y1="345.609" x2="274.642" y2="345.609" gradientUnits="userSpaceOnUse">
<stop stop-color="#E1F2FC"/>
<stop offset="1" stop-color="#B6D6F1"/>
</linearGradient>
<linearGradient id="paint35_linear_20_204370" x1="251.278" y1="364.805" x2="277.091" y2="364.805" gradientUnits="userSpaceOnUse">
<stop stop-color="#2C5A95"/>
<stop offset="1" stop-color="#00234C"/>
</linearGradient>
<linearGradient id="paint36_linear_20_204370" x1="-23.1623" y1="341.255" x2="-23.1623" y2="566.156" gradientUnits="userSpaceOnUse">
<stop stop-color="#AFCBEB"/>
<stop offset="1" stop-color="#70A4D8"/>
</linearGradient>
<linearGradient id="paint37_linear_20_204370" x1="188.691" y1="348.955" x2="455.551" y2="348.955" gradientUnits="userSpaceOnUse">
<stop stop-color="#2C5A95"/>
<stop offset="1" stop-color="#00234C"/>
</linearGradient>
<linearGradient id="paint38_linear_20_204370" x1="322.129" y1="-247.165" x2="322.129" y2="-247.165" gradientUnits="userSpaceOnUse">
<stop stop-color="#AFCBEB"/>
<stop offset="0.08" stop-color="#A2C3E7"/>
<stop offset="0.26" stop-color="#8CB5E0"/>
<stop offset="0.46" stop-color="#7CABDB"/>
<stop offset="0.69" stop-color="#72A5D8"/>
<stop offset="1" stop-color="#70A4D8"/>
</linearGradient>
<linearGradient id="paint39_linear_20_204370" x1="311.509" y1="420.332" x2="311.509" y2="389.919" gradientUnits="userSpaceOnUse">
<stop stop-color="#71ABDD"/>
<stop offset="0.03" stop-color="#6DA7DA"/>
<stop offset="0.26" stop-color="#558CC7"/>
<stop offset="0.5" stop-color="#447AB9"/>
<stop offset="0.74" stop-color="#3A6EB1"/>
<stop offset="1" stop-color="#376BAF"/>
</linearGradient>
<linearGradient id="paint40_linear_20_204370" x1="311.509" y1="388.215" x2="311.509" y2="396.457" gradientUnits="userSpaceOnUse">
<stop stop-color="#2C5A95"/>
<stop offset="0.29" stop-color="#2A5791"/>
<stop offset="0.5" stop-color="#245088"/>
<stop offset="0.69" stop-color="#1A4478"/>
<stop offset="0.87" stop-color="#0C3361"/>
<stop offset="1" stop-color="#00234C"/>
</linearGradient>
<linearGradient id="paint41_linear_20_204370" x1="356.67" y1="503.733" x2="252.488" y2="503.733" gradientUnits="userSpaceOnUse">
<stop stop-color="#2C5A95"/>
<stop offset="1" stop-color="#00234C"/>
</linearGradient>
<linearGradient id="paint42_linear_20_204370" x1="326.129" y1="417.125" x2="326.129" y2="590.325" gradientUnits="userSpaceOnUse">
<stop stop-color="#71ABDD"/>
<stop offset="0.07" stop-color="#68A1D6"/>
<stop offset="0.27" stop-color="#5289C4"/>
<stop offset="0.48" stop-color="#4378B8"/>
<stop offset="0.72" stop-color="#396EB1"/>
<stop offset="1" stop-color="#376BAF"/>
</linearGradient>
<linearGradient id="paint43_linear_20_204370" x1="326.16" y1="437.468" x2="326.16" y2="478.123" gradientUnits="userSpaceOnUse">
<stop stop-color="#AFCBEB"/>
<stop offset="1" stop-color="#70A4D8"/>
</linearGradient>
<linearGradient id="paint44_linear_20_204370" x1="-23.6429" y1="102.302" x2="-23.6429" y2="129.183" gradientUnits="userSpaceOnUse">
<stop stop-color="#AFCBEB"/>
<stop offset="1" stop-color="#70A4D8"/>
</linearGradient>
<linearGradient id="paint45_linear_20_204370" x1="69.9978" y1="91.3483" x2="69.9978" y2="139.316" gradientUnits="userSpaceOnUse">
<stop stop-color="#E1F2FC"/>
<stop offset="0.41" stop-color="#DEF0FB"/>
<stop offset="0.65" stop-color="#D6EAF9"/>
<stop offset="0.84" stop-color="#C8E1F5"/>
<stop offset="1" stop-color="#B6D5F0"/>
</linearGradient>
<linearGradient id="paint46_linear_20_204370" x1="109.082" y1="91.3484" x2="109.082" y2="139.316" gradientUnits="userSpaceOnUse">
<stop stop-color="#E1F2FC"/>
<stop offset="0.41" stop-color="#DEF0FB"/>
<stop offset="0.65" stop-color="#D6EAF9"/>
<stop offset="0.84" stop-color="#C8E1F5"/>
<stop offset="1" stop-color="#B6D5F0"/>
</linearGradient>
<linearGradient id="paint47_linear_20_204370" x1="147.546" y1="92.2006" x2="147.546" y2="140.137" gradientUnits="userSpaceOnUse">
<stop stop-color="#E1F2FC"/>
<stop offset="0.41" stop-color="#DEF0FB"/>
<stop offset="0.65" stop-color="#D6EAF9"/>
<stop offset="0.84" stop-color="#C8E1F5"/>
<stop offset="1" stop-color="#B6D5F0"/>
</linearGradient>
<linearGradient id="paint48_linear_20_204370" x1="316.687" y1="58.843" x2="316.687" y2="172.641" gradientUnits="userSpaceOnUse">
<stop stop-color="#E1F2FC"/>
<stop offset="0.41" stop-color="#DEF0FB"/>
<stop offset="0.65" stop-color="#D6EAF9"/>
<stop offset="0.84" stop-color="#C8E1F5"/>
<stop offset="1" stop-color="#B6D5F0"/>
</linearGradient>
<linearGradient id="paint49_linear_20_204370" x1="414.064" y1="367.005" x2="414.064" y2="411.021" gradientUnits="userSpaceOnUse">
<stop stop-color="#E1F2FC"/>
<stop offset="0.41" stop-color="#DEF0FB"/>
<stop offset="0.65" stop-color="#D6EAF9"/>
<stop offset="0.84" stop-color="#C8E1F5"/>
<stop offset="1" stop-color="#B6D5F0"/>
</linearGradient>
<linearGradient id="paint50_linear_20_204370" x1="249.23" y1="371.219" x2="267.988" y2="411.472" gradientUnits="userSpaceOnUse">
<stop stop-color="#FADCE2"/>
<stop offset="1" stop-color="#EFB9C0"/>
</linearGradient>
<linearGradient id="paint51_linear_20_204370" x1="114.807" y1="392.432" x2="97.7734" y2="388.406" gradientUnits="userSpaceOnUse">
<stop stop-color="#FADCE2"/>
<stop offset="1" stop-color="#EFB9C0"/>
</linearGradient>
<linearGradient id="paint52_linear_20_204370" x1="143.452" y1="314.819" x2="101.48" y2="311.646" gradientUnits="userSpaceOnUse">
<stop stop-color="#2C5A95"/>
<stop offset="1" stop-color="#00234C"/>
</linearGradient>
<linearGradient id="paint53_linear_20_204370" x1="218.037" y1="313.804" x2="262.282" y2="310.46" gradientUnits="userSpaceOnUse">
<stop stop-color="#2C5A95"/>
<stop offset="1" stop-color="#00234C"/>
</linearGradient>
<linearGradient id="paint54_linear_20_204370" x1="191.11" y1="183.704" x2="196.374" y2="185.888" gradientUnits="userSpaceOnUse">
<stop stop-color="#FADCE2"/>
<stop offset="1" stop-color="#EFB9C0"/>
</linearGradient>
<linearGradient id="paint55_linear_20_204370" x1="159.734" y1="209.235" x2="198.481" y2="199.129" gradientUnits="userSpaceOnUse">
<stop stop-color="#FADCE2"/>
<stop offset="1" stop-color="#EFB9C0"/>
</linearGradient>
<linearGradient id="paint56_linear_20_204370" x1="246.674" y1="587.908" x2="128.855" y2="383.702" gradientUnits="userSpaceOnUse">
<stop stop-color="#2C5A95"/>
<stop offset="1" stop-color="#00234C"/>
</linearGradient>
<linearGradient id="paint57_linear_20_204370" x1="125.69" y1="326.273" x2="248.962" y2="297.347" gradientUnits="userSpaceOnUse">
<stop stop-color="#2C5A95"/>
<stop offset="1" stop-color="#00234C"/>
</linearGradient>
<linearGradient id="paint58_linear_20_204370" x1="193.9" y1="217.169" x2="160.509" y2="226.151" gradientUnits="userSpaceOnUse">
<stop stop-color="#AFCBEB"/>
<stop offset="1" stop-color="#70A4D8"/>
</linearGradient>
<linearGradient id="paint59_linear_20_204370" x1="206.704" y1="218.842" x2="152.871" y2="233.327" gradientUnits="userSpaceOnUse">
<stop stop-color="#2C5A95"/>
<stop offset="1" stop-color="#00234C"/>
</linearGradient>
<linearGradient id="paint60_linear_20_204370" x1="134.244" y1="452.106" x2="56.2426" y2="430.152" gradientUnits="userSpaceOnUse">
<stop stop-color="#2C5A95"/>
<stop offset="1" stop-color="#00234C"/>
</linearGradient>
<linearGradient id="paint61_linear_20_204370" x1="103.261" y1="408.038" x2="93.1312" y2="444.075" gradientUnits="userSpaceOnUse">
<stop stop-color="#2C5A95"/>
<stop offset="1" stop-color="#00234C"/>
</linearGradient>
<linearGradient id="paint62_linear_20_204370" x1="121.519" y1="415.037" x2="110.147" y2="411.836" gradientUnits="userSpaceOnUse">
<stop stop-color="#2C5A95"/>
<stop offset="1" stop-color="#00234C"/>
</linearGradient>
<linearGradient id="paint63_linear_20_204370" x1="90.999" y1="408.116" x2="79.6278" y2="404.915" gradientUnits="userSpaceOnUse">
<stop stop-color="#2C5A95"/>
<stop offset="1" stop-color="#00234C"/>
</linearGradient>
<linearGradient id="paint64_linear_20_204370" x1="119.073" y1="408.507" x2="85.2725" y2="398.994" gradientUnits="userSpaceOnUse">
<stop stop-color="#2C5A95"/>
<stop offset="1" stop-color="#00234C"/>
</linearGradient>
</defs>
</svg>
