<svg width="480" height="454" viewBox="0 0 480 454" fill="none" xmlns="http://www.w3.org/2000/svg">
<path opacity="0.8" d="M436.87 0H43.1304C19.3101 0 0 19.2976 0 43.1024V410.898C0 434.702 19.3101 454 43.1304 454H436.87C460.69 454 480 434.702 480 410.898V43.1024C480 19.2976 460.69 0 436.87 0Z" fill="url(#paint0_linear_20_204369)"/>
<mask id="mask0_20_204369" style="mask-type:luminance" maskUnits="userSpaceOnUse" x="17" y="99" width="446" height="340">
<path d="M17.5808 99.6064V398.859C17.5808 420.829 35.5647 438.801 57.5485 438.801H422.436C444.42 438.801 462.404 420.829 462.404 398.859V99.6064H17.5808Z" fill="white"/>
</mask>
<g mask="url(#mask0_20_204369)">
<path d="M-99.02 344.896C-99.02 231.965 -99.02 119.019 -99.082 6.08869C-99.082 3.59426 -98.5239 3.021 -96.0124 3.021C130.011 3.08297 356.02 3.08297 582.043 3.021C584.539 3.021 585.113 3.57877 585.113 6.08869C585.051 231.965 585.051 457.827 585.113 683.703C585.113 686.198 584.555 686.771 582.043 686.771C356.02 686.709 130.011 686.709 -96.0124 686.771C-98.5084 686.771 -99.082 686.213 -99.082 683.703C-99.0045 570.773 -99.02 457.827 -99.02 344.896Z" fill="#FEFFFF"/>
<path d="M157.297 196.099C164.382 187.624 166.336 177.538 166.367 166.909C166.413 155.165 165.979 143.39 169.235 131.91C169.684 130.314 170.134 128.718 170.584 127.122C170.754 122.831 173.095 119.345 175.049 115.781C181.715 103.635 190.862 94.1372 204.133 89.1329C205.497 88.6216 206.707 87.8315 207.838 86.9174C218.613 78.3186 231.155 74.7861 244.69 74.2593C256.891 73.7791 268.581 76.0875 279.696 81.1229C292.409 86.8864 302.843 95.4542 311.106 106.718C320.145 119.019 325.431 132.747 326.749 147.93C327.416 155.677 326.796 163.47 326.997 171.247C327.23 180.683 329.726 189.436 335.385 197.137C338.516 201.413 343.028 204.202 346.904 207.672C351.058 211.081 355.337 214.334 358.934 218.362C366.531 226.853 372.376 236.304 373.848 247.831C375.259 258.97 373.523 269.32 364.794 277.361C362.484 279.483 362.05 281.591 362.965 284.441C364.221 288.346 365.182 292.327 365.709 296.402C365.833 300.043 365.895 303.7 365.709 307.34C365.585 309.726 365.539 312.252 363.353 313.956C361.384 313.398 361.957 311.694 361.911 310.408C361.663 303.266 359.058 297.084 354.826 291.398C349.353 284.054 342.02 281.513 333.199 282.505C329.741 282.892 326.315 282.954 322.982 281.777C320.517 280.909 318.982 279.329 319.432 276.509C320.656 268.84 317.463 262.673 312.905 256.925C308.068 250.821 302.502 245.383 297.37 239.542C293.215 234.816 291.464 229.223 290.518 223.212C289.743 218.239 289.789 213.25 289.82 208.261C289.82 206.588 289.851 204.93 289.681 203.272C289.96 201.428 291.433 201.242 292.859 200.948C296.006 200.282 299.076 199.445 301.649 197.323C309.168 191.094 309.928 178.529 299.215 173.029C293.836 169.125 287.743 166.475 282.053 163.113C281.231 162.633 279.696 162.633 280.053 160.991C282.208 159.116 282.146 158.14 279.402 156.916C273.976 154.484 268.41 155.072 262.875 156.606C261.713 156.932 260.674 157.66 259.387 157.396C255.139 154.437 250.054 153.384 245.434 151.245C237.155 147.419 229.279 142.957 222.039 137.395C219.915 135.768 218.365 133.552 216.303 131.848C214.939 130.717 214.365 130.965 213.761 132.592C211.776 138.014 210.613 143.654 209.11 149.216C208.365 151.989 207.606 154.762 206.738 157.505C203.761 164.523 199.218 169.806 191.746 172.487C184.971 174.919 181.917 179.908 182.118 186.818C182.289 192.489 186.676 197.756 192.676 200.065C194.722 200.855 197.467 200.018 198.815 202.544C197.823 206.138 198.102 209.81 198.195 213.451C198.536 226.28 193.017 235.947 182.754 243.338C177.095 247.412 171.421 251.673 168.336 258.196C165.933 263.262 164.785 268.669 165.778 274.34C166.103 276.199 166.398 278.058 165.654 279.902C164.165 281.962 162.072 282.706 159.592 282.784C145.732 283.171 136.368 291.134 131.05 304.567C129.639 308.131 129.298 311.895 128.337 315.536C127.903 317.179 127.748 319.177 125.36 319.363C122.601 315.32 122.523 310.625 122.291 306.024C122.12 302.491 122.771 298.974 123.546 295.519C123.95 293.66 124.477 291.816 125.035 290.003C126.213 287.261 127.159 284.41 128.694 281.823C129.763 280.01 129.655 278.74 127.918 277.283C125.732 275.44 123.67 273.395 122.213 270.854C118.787 264.718 116.508 258.382 118.136 251.177C118.523 249.473 117.965 247.645 118.384 245.894C118.678 244.128 118.957 242.377 119.252 240.611C119.671 234.088 122.818 228.588 126.306 223.382C130.011 217.851 134.523 212.955 140.058 209.082C145.949 204.961 151.67 200.607 157.266 196.114L157.297 196.099Z" fill="#B07D6F"/>
<path d="M364.887 295.829C363.771 291.32 362.67 286.812 361.539 282.303C361.167 280.847 360.996 279.607 362.469 278.492C374.965 268.994 375.492 250.79 370.376 237.713C367.554 230.494 363.011 224.389 358.221 218.424C358.531 216.534 360.066 216.875 361.322 216.736C364.546 216.364 367.756 216.829 370.98 216.829C412.111 216.829 453.226 216.829 494.356 216.829C494.573 216.829 494.806 216.829 495.023 216.829C498.232 216.72 501.705 217.092 503.162 213.203C504.511 209.609 502.914 204.558 499.782 202.079C498.092 200.746 496.201 199.863 494.031 199.631C492.821 199.507 491.581 199.538 490.449 198.949C487.55 192.891 482.294 192.287 476.465 192.814C474.264 193.015 472.031 192.907 469.814 192.814C468.605 192.767 467.349 192.752 466.497 191.636C465.83 190.412 465.876 189.065 465.861 187.732C465.783 171.216 465.83 154.7 465.861 138.185C465.861 136.666 465.675 135.039 466.946 133.815C473.752 140.199 479.225 147.728 484.853 155.103C493.767 166.801 501.705 179.149 508.728 192.086C516.371 206.169 523.192 220.64 528.34 235.823C533.44 250.883 537.595 266.206 540.37 281.885C542.029 291.243 543.006 300.647 543.75 310.114C544.727 322.539 544.463 334.965 544.199 347.375C543.998 357.275 542.758 367.144 541.331 376.998C539.983 386.434 537.75 395.621 535.688 404.886C533.843 413.175 531.254 421.263 528.355 429.242C526.681 433.859 525.223 438.553 523.658 443.217C521.673 443.805 520.479 442.101 518.898 441.528C515.193 440.164 511.332 439.405 507.596 438.197C506.573 436.523 507.705 435.222 508.433 433.921C512.232 427.181 515.89 420.348 519.27 413.392C520.2 411.502 520.96 409.55 521.596 407.535C523.875 400.471 522.603 394.227 517.255 388.944C511.565 383.769 504.433 383.257 497.333 382.932C490.248 382.622 483.225 381.662 476.14 381.476C475.364 381.46 474.605 381.259 473.938 380.81C472.341 379.338 472.589 377.37 472.574 375.511C472.543 363.968 472.465 352.426 472.589 340.883C472.651 335.647 472.45 330.425 471.721 325.282C470.155 314.25 461.427 302.429 448.73 298.788C444.342 297.533 439.846 296.882 435.257 296.898C413.599 296.944 391.941 296.929 370.283 296.898C368.438 296.898 366.469 297.301 364.887 295.844V295.829Z" fill="#E0ECEF"/>
<path d="M346.873 208.478C332.61 199.414 326.098 186.276 326.067 169.559C326.052 158.806 326.687 148.054 324.238 137.394C320.331 120.367 311.758 106.129 298.812 94.602C282.658 80.2242 263.496 73.9494 242.023 75.2509C229.512 76.0101 217.807 79.651 207.962 87.9399C207.048 88.7145 205.994 89.4427 204.877 89.8456C190.8 94.9738 181.545 105.215 174.801 118.105C173.266 121.034 171.995 124.101 170.599 127.107C168.553 121.405 169.002 115.487 169.514 109.677C170.351 100.025 169.84 90.3878 169.809 80.751C169.809 77.6833 166.956 75.8706 163.018 75.8086C157.902 75.7312 152.786 75.7931 147.685 75.7931C130.12 75.7931 112.555 75.7931 95.0049 75.7931C93.9351 75.7931 92.8654 75.7931 91.2996 75.7931C93.9816 71.9663 97.935 71.0367 101.222 69.3014C111.361 63.9408 122.151 60.0984 132.895 56.0702C143.685 52.0109 154.77 49.0827 165.855 46.3094C178.894 43.0558 192.289 41.4755 205.621 39.6163C222.427 37.2768 239.248 37.7261 256.085 37.9275C264.209 38.0205 272.332 39.3219 280.441 40.236C291.991 41.5375 303.308 43.9389 314.595 46.4023C329.059 49.5475 343.105 54.1645 356.903 59.5252C371.616 65.2422 385.848 71.9818 399.414 80.1003C406.328 84.237 413.196 88.4821 420.018 92.7893C421.723 93.8583 422.715 95.9499 424.917 96.4147C423.475 97.8711 421.615 97.5302 419.878 97.5457C407.754 97.5922 395.646 97.5612 383.523 97.5612C377.957 97.5612 377.941 97.5612 377.941 103.03C377.941 130.577 377.941 158.14 377.941 185.687C377.941 187.562 378.128 189.467 377.461 191.296C376.531 192.953 374.856 192.752 373.352 192.783C368.717 192.86 364.081 192.799 359.461 192.814C358.02 192.814 356.593 192.814 355.183 193.17C350.687 194.363 349.214 198.33 351.834 202.141C352.454 203.04 353.4 203.721 353.663 204.852C351.772 206.742 350.826 210.368 346.904 208.478H346.873Z" fill="#E0ECEF"/>
<path d="M507.596 437.918C513.441 438.197 518.758 440.102 523.689 443.201C531.905 449.755 535.905 457.935 535.843 468.796C535.564 523.224 535.719 577.652 535.735 632.08C535.735 639.145 536.386 646.303 532.324 652.686C531.301 655.165 529.053 655.056 526.96 655.072C519.317 655.149 511.658 655.103 504.015 655.103C490.821 655.103 477.643 655.103 464.45 655.103C462.791 655.103 461.117 655.18 459.474 654.886C459.039 654.824 458.636 654.7 458.249 654.514C455.644 652.376 454.838 649.386 454.652 646.225C454.466 643.127 454.528 640.012 454.621 636.898C454.714 617.485 454.528 598.072 454.543 578.659C454.776 547.409 454.45 516.144 454.59 484.894C454.497 479.27 454.466 473.661 454.621 468.037C454.45 460.182 456.202 453.008 461.411 446.78C465.845 441.481 471.442 438.6 478.171 437.701C479.163 437.577 480.109 437.252 481.101 437.097C488.914 436.616 496.728 436.926 504.542 436.911C505.658 436.911 506.743 437.097 507.612 437.902L507.596 437.918Z" fill="#D5C0AE"/>
<path d="M-34.8826 652.717C-34.5105 652.392 -34.3089 651.942 -34.5725 651.54C-37.4561 647.155 -37.0065 642.228 -37.0065 637.363C-37.0065 614.836 -37.022 592.293 -36.9445 569.766C-36.9445 566.528 -36.836 563.398 -39.053 560.733C-38.2778 553.126 -37.3476 545.472 -38.0608 537.85C-39.084 526.865 -37.5647 515.942 -38.0143 504.989C-38.3398 497.025 -38.7274 489.077 -38.3398 481.113C-38.2933 479.998 -38.4173 478.882 -37.6112 477.953C-36.6345 476.93 -37.0375 475.644 -37.022 474.482C-36.929 465.868 -36.8825 457.254 -36.836 448.655C-35.0841 448.996 -35.5647 450.468 -35.4717 451.552C-35.3477 452.792 -35.8438 454.031 -35.7973 455.255C-36.0453 452.234 -34.0144 450.328 -32.3555 448.268C-30.123 446.455 -28.4797 444.038 -26.3712 442.101C-24.1853 440.707 -21.8442 439.607 -19.4412 438.615C-15.2708 437.314 -11.0074 436.834 -6.65093 436.88C3.33324 436.973 13.3019 436.911 23.2861 436.911C24.9449 436.911 26.6193 436.803 28.2317 437.329C29.968 438.336 31.7354 439.096 33.8594 439.018C36.712 438.925 38.991 440.335 40.8204 442.411C42.1382 443.914 43.394 445.479 44.6187 447.059C47.4094 450.654 46.7117 454.744 42.7893 457.13C41.177 458.106 40.6344 459.392 41.115 461.034C41.9366 463.854 42.2932 466.596 41.394 469.524C40.9134 471.089 42.2157 472.669 42.1382 474.389C42.0297 476.605 41.9522 478.851 42.1382 481.051C42.7428 487.744 41.1925 494.019 38.7585 500.155C38.1228 501.75 38.1073 503.408 38.1073 505.066C38.1383 521.721 37.9678 538.377 38.0608 555.032C37.8748 564.529 38.3864 574.027 38.0608 583.509C37.7198 595.671 34.526 607.384 32.4486 619.267C30.5882 629.864 28.4177 640.4 26.2783 650.951C25.9682 652.454 25.9217 654.127 24.0768 654.747C23.1156 655.057 22.1078 655.088 21.1156 655.088C4.0154 655.118 -13.0848 655.134 -30.1696 655.041C-31.9679 655.041 -34.4175 655.692 -34.8671 652.717H-34.8826Z" fill="#D4C0AF"/>
<path d="M157.297 196.099C154.848 199.77 151.22 202.141 147.701 204.542C139.779 209.919 132.446 215.883 126.942 223.847C123.392 228.975 121.252 234.754 119.283 240.611C119.113 239.836 118.741 239.728 117.888 239.728C104.121 239.821 90.3384 239.79 76.5714 239.883C73.8118 239.898 72.7886 239.697 72.8971 236.087C73.2072 225.474 72.9901 214.814 72.8351 204.186C72.6801 194.053 71.6258 183.859 72.9436 173.726C73.1142 172.425 72.6336 171.34 72.525 170.147C72.2925 167.575 72.8661 166.382 75.8893 166.429C88.7726 166.599 101.656 166.506 114.555 166.506C127.438 166.506 140.321 166.584 153.22 166.413C156.476 166.367 156.677 167.575 156.429 170.38C155.701 178.963 155.36 187.593 157.344 196.114L157.297 196.099Z" fill="#BBD9E0"/>
<path d="M-62.3391 403.321C-66.3079 396.179 -68.1993 388.308 -69.9512 380.453C-73.4395 364.79 -74.4472 348.971 -72.3853 333.013C-72.0752 330.658 -71.7186 328.163 -69.1916 327.28C-66.6955 326.413 -65.1297 328.458 -63.4863 329.899C-62.6491 330.627 -61.843 331.371 -61.0213 332.114C-59.0368 332.331 -58.0756 333.974 -56.9284 335.244C-50.2154 342.603 -44.2776 350.567 -38.7739 358.84C-38.2158 359.661 -37.6422 360.498 -37.5337 361.521C-37.4251 362.667 -36.8205 361.583 -36.5104 361.784C-34.712 366.401 -31.8594 370.507 -29.968 375.077C-29.0068 377.386 -29.5649 379.679 -30.3866 381.879C-30.8827 383.227 -30.9757 384.668 -31.8594 386.248C-26.5728 373.373 -18.7591 362.621 -9.59658 352.767C-7.42611 351.93 -6.0618 350.102 -4.52697 348.522C-0.155015 344.029 4.83706 340.357 10.2167 337.181C11.1779 336.607 12.1391 336.081 13.2089 335.724C16.8987 334.469 19.2552 335.616 20.3869 339.35C22.1078 345.005 21.4877 350.83 21.1931 356.563C20.6505 367.594 18.3405 378.331 15.1158 388.882C14.4492 391.082 14.1236 393.468 12.4802 395.28C10.8369 396.133 9.28653 395.854 7.72069 394.986C5.41069 393.7 3.33324 394.072 1.2868 395.776C-2.8216 399.185 -7.05402 402.423 -11.581 405.274C-12.8058 406.048 -14.1391 407.102 -15.5189 405.94C-16.7747 404.886 -15.953 403.461 -15.5189 402.237C-14.1081 398.379 -12.1701 394.723 -10.8834 390.818C-10.0152 388.185 -7.51914 387.425 -5.22464 385.907C-8.17028 384.993 -7.33309 383.242 -6.52692 381.414C-2.62007 372.583 1.3333 363.783 5.99981 355.308C-3.75181 372.815 -11.9686 391.02 -19.1622 409.705C-19.9993 411.889 -21.2086 413.903 -22.0768 416.057C-23.4411 419.419 -26.5418 420.147 -29.3789 421.294C-30.6347 421.805 -31.4408 420.782 -32.154 419.915C-33.8904 417.808 -34.7276 415.267 -35.4717 412.695C-39.5491 398.596 -44.7272 384.884 -50.324 371.328C-52.7735 365.378 -56.2152 359.863 -57.3935 355.928C-55.037 362.264 -51.0216 370.476 -47.9054 379.043C-47.7194 379.57 -47.5023 380.082 -47.3783 380.624C-47.1613 381.6 -46.8357 382.669 -47.8744 383.351C-48.7581 383.924 -49.5953 383.351 -50.3394 382.87C-52.1688 381.755 -53.6262 380.236 -55.006 378.625C-55.7191 377.789 -56.3083 376.843 -57.347 376.332C-53.9362 380.794 -50.8046 385.473 -46.5256 389.207C-44.5877 390.896 -43.828 393.235 -42.9288 395.497C-42.5413 396.458 -42.6033 397.481 -43.3319 398.317C-44.1536 399.278 -45.1458 398.906 -46.0915 398.565C-46.9287 398.271 -47.7194 397.806 -48.6031 397.697C-50.727 397.419 -52.0913 398.085 -52.1378 400.486C-52.1844 402.702 -51.9363 404.948 -52.3394 407.133C-52.696 409.008 -53.1301 411.084 -55.3626 411.486C-57.3625 411.843 -58.0601 409.922 -59.0368 408.605C-60.2771 406.916 -60.7577 404.762 -62.3701 403.321H-62.3391Z" fill="#70A8B0"/>
<path d="M-13.5811 239.821C-23.9063 239.821 -34.2471 239.774 -44.5723 239.898C-47.2389 239.929 -47.828 239.278 -47.0373 236.676C-44.3553 227.937 -40.9755 219.493 -37.4718 211.065C-34.1695 203.133 -30.5262 195.37 -26.5109 187.81C-23.2242 181.612 -19.3793 175.709 -15.7205 169.698C-14.4027 167.544 -12.7749 166.367 -9.86024 166.382C12.4646 166.537 34.805 166.46 57.1298 166.46C58.4631 168.335 56.7888 169.388 55.8275 170.395C51.2696 175.245 46.6185 180.017 41.6575 184.448C35.2081 190.211 29.1617 196.408 22.8829 202.358C11.6119 213.033 0.464988 223.847 -10.4804 234.863C-11.8912 236.273 -13.395 237.636 -13.5966 239.805L-13.5811 239.821Z" fill="#D4EAF1"/>
<path d="M73.1761 154.484C72.0444 153.508 72.525 152.206 72.525 151.044C72.494 138.82 71.9514 126.565 72.711 114.387C73.2226 106.036 72.3234 97.8092 72.5095 89.5358C72.6025 85.4455 72.8351 85.1356 76.8349 85.1356C99.2993 85.1356 121.764 85.1356 144.213 85.1356C147.205 85.1356 150.166 85.0427 153.158 84.5779C156.197 84.0976 157.096 85.2441 156.305 88.2188C155.747 90.3259 156.104 92.4175 155.902 94.5091C154.755 96.8486 152.367 97.8402 150.429 99.2191C143.329 104.27 137.779 110.576 133.887 118.384C130.926 124.334 128.043 130.345 123.531 135.38C116.151 143.576 107.299 147.543 96.0281 146.226C89.8113 145.498 84.106 142.755 77.8271 142.476C74.4629 142.337 74.2614 142.414 74.0288 145.714C73.8273 148.643 74.835 151.71 73.1761 154.499V154.484Z" fill="#D4EAF1"/>
<path d="M118.415 245.878C118.415 248.76 118.477 251.626 118.415 254.508C118.275 260.566 120.725 265.88 123.143 271.21C122.043 272.294 120.647 272.62 119.175 272.713C114.182 273.023 109.175 273.162 104.198 272.651C102.198 272.449 100.229 272.263 98.214 272.263C62.6493 272.263 27.1 272.263 -8.46472 272.294C-10.9298 272.294 -13.7048 271.675 -15.3792 274.386C-16.6505 276.183 -17.3326 275.006 -17.8598 273.813C-19.0225 271.194 -19.8442 268.437 -21.224 265.927C-21.9061 264.687 -22.5573 263.184 -24.2316 263.184C-25.9835 263.184 -26.2781 264.92 -27.1153 266.02C-28.6811 268.08 -28.2935 271.225 -30.8516 272.713C-31.8593 271.411 -33.3011 271.938 -34.5724 271.907C-40.6652 271.721 -46.7736 272.093 -52.8819 271.675C-54.6338 271.551 -55.1454 270.761 -54.9128 269.444C-54.0912 264.672 -53.223 259.9 -52.1687 255.174C-51.5951 252.603 -49.5642 251.859 -47.0681 251.874C-38.0607 251.921 -29.0532 251.89 -20.0612 251.89C24.1854 251.89 68.432 251.89 112.679 251.89C115.821 251.89 117.562 250.289 117.903 247.087C117.95 246.684 118.244 246.297 118.415 245.894V245.878Z" fill="#E3F0F3"/>
<path d="M-13.5808 239.821C-15.4412 238.318 -13.6893 237.218 -12.9607 236.366C-11.0227 234.119 -8.83676 232.074 -6.71279 229.983C3.61245 219.865 13.7827 209.578 24.3405 199.709C34.2626 190.428 43.9987 180.977 53.7194 171.511C55.1612 170.101 57.0836 168.877 57.1146 166.476C59.6106 166.088 60.5873 166.894 60.5718 169.667C60.4633 191.869 60.4633 214.086 60.5718 236.288C60.5718 238.984 59.9362 239.898 57.0836 239.898C33.534 239.79 9.96883 239.836 -13.5808 239.821Z" fill="#BBDAE0"/>
<path d="M376.794 191.853C376.794 161.316 376.825 130.763 376.717 100.226C376.717 97.2204 377.43 96.3218 380.546 96.3528C395.321 96.5232 433.164 96.4148 447.939 96.3993C451.737 99.2036 455.536 102.008 459.396 104.874C458.202 106.191 457.024 105.664 455.985 105.664C441.645 105.571 404.266 105.509 389.941 105.246C386.949 105.199 385.941 105.974 385.957 109.135C386.081 132.576 386.081 156.017 385.957 179.459C385.941 182.465 386.84 183.162 389.724 183.1C405.165 182.774 420.622 183.27 436.063 182.712C439.722 182.573 443.381 182.852 447.04 182.991C448.73 183.053 449.443 182.372 449.443 180.652C449.334 163.33 449.241 145.993 449.164 128.672C449.148 124.504 449.164 101.543 449.164 96.6472C452.962 99.9628 456.125 95.3767 458.915 98.7543C459.939 100.319 460.001 128.47 460.001 130.252C460.001 149.216 460.001 168.164 459.985 187.128C459.985 188.77 460.14 190.475 459.101 191.946C457.66 193.046 455.954 192.907 454.311 192.907C430.048 192.923 405.785 192.938 381.507 192.907C379.879 192.907 378.143 193.139 376.779 191.838L376.794 191.853Z" fill="#9E958D"/>
<path d="M60.6028 124.194C60.6028 133.63 60.5098 143.065 60.6648 152.485C60.6958 154.809 59.5331 155.01 57.8587 155.15C54.1844 155.444 50.5877 154.546 46.9444 154.53C33.2859 154.453 19.6274 154.468 5.96892 154.53C3.44187 154.53 0.914823 155.041 -1.61223 155.119C-3.96874 155.196 -4.82142 154.267 -3.08504 152.175C0.0311353 148.441 3.10082 144.692 6.27901 141.02C11.6432 134.823 9.27116 104.378 15.24 98.7697C24.2629 90.2949 34.5572 99.2655 44.4173 91.7668C46.6188 90.0935 56.0138 95.9964 58.2308 94.3541C58.7424 93.9668 59.161 93.2076 59.8897 93.502C60.8354 93.8739 60.4788 94.8344 60.4788 95.5626C60.4943 105.106 60.4788 114.65 60.4788 124.194C60.5098 124.194 60.5408 124.194 60.5718 124.194H60.6028Z" fill="#D4EAF1"/>
<path d="M73.176 154.484C73.176 150.936 73.207 147.388 73.176 143.84C73.145 141.81 74.1217 140.818 76.0286 141.237C80.2921 142.166 84.602 142.895 88.8499 144.01C99.4852 146.768 109.826 146.567 118.957 138.603C125.779 132.638 129.515 124.907 133.515 117.207C137.391 109.739 142.662 103.588 149.654 98.8007C151.732 97.3753 153.809 95.9189 155.918 94.509C155.933 112.156 155.949 129.803 155.98 147.434C155.98 148.426 155.918 149.433 156.011 150.424C156.383 154.546 156.398 154.546 152.135 154.546C125.825 154.546 99.5007 154.515 73.1915 154.499L73.176 154.484Z" fill="#BCDBE1"/>
<path d="M458.9 191.822C458.9 169.589 458.9 115.905 458.916 93.6724C462.001 96.1823 464.791 98.9556 466.962 102.318C466.946 121.653 466.915 172.456 466.9 191.791C464.233 193.372 461.582 193.356 458.9 191.807V191.822Z" fill="#CFD6D5"/>
<path d="M403.77 136.511C404.793 136.465 405.351 137.193 405.971 137.813C408.173 139.997 410.467 142.105 412.514 144.429C414.002 146.133 414.948 146.334 416.591 144.521C420.947 139.657 425.505 134.978 430.001 130.237C430.684 129.508 431.412 128.827 432.125 128.13C432.978 127.308 433.924 126.611 434.978 127.68C435.924 128.625 435.722 129.741 434.916 130.67C433.025 132.84 431.102 134.993 429.133 137.085C425.428 141.035 421.443 144.738 417.955 148.906C415.645 151.664 414.513 151.633 412.017 149.216C409.072 146.365 406.142 143.483 403.227 140.602C402.405 139.796 401.801 138.851 402.25 137.627C402.498 136.961 403.01 136.558 403.754 136.48L403.77 136.511Z" fill="#BCB5AD"/>
<path d="M124.508 295.209C122.849 303.328 122.539 311.369 125.903 319.193C127.004 319.89 127.391 321.083 127.918 322.152C130.011 326.505 133.143 330.022 136.848 333.059C138.027 334.035 139.406 334.841 139.794 336.499C139.019 341.348 137.034 345.841 135.624 350.489C129.965 369.19 124.074 387.828 119.671 406.869C117.423 416.615 115.764 426.484 117.345 436.57C117.547 437.887 117.578 439.235 116.895 440.474C114.167 442.349 111.082 441.357 108.183 441.435C101.268 441.605 94.7567 443.124 88.8499 446.749C74.8038 455.363 71.3776 473.552 79.9509 486.923C82.571 491.013 86.1058 494.468 88.0437 498.992C87.3461 500.108 86.4004 499.674 85.7802 499.101C83.1447 496.684 79.9664 495.026 77.1603 492.857C69.0831 486.629 65.1917 477.581 60.5872 468.997C57.4556 463.141 54.8355 457.006 51.2542 451.35C47.4249 445.308 42.4483 440.83 35.3787 438.987C34.2005 438.677 32.9292 438.522 32.4331 437.112C31.937 435.361 32.092 433.58 32.092 431.798C32.092 399.463 32.0455 367.129 32.092 334.794C32.123 321.919 37.2236 311.338 47.1458 303.111C54.4944 297.239 63.1298 295.023 72.2768 294.899C89.0359 294.651 105.795 294.899 122.539 294.791C123.205 294.791 123.872 294.837 124.477 295.178L124.508 295.209Z" fill="#D4C0AF"/>
<path d="M364.887 295.829C388.902 295.86 412.932 295.829 436.947 295.937C448.513 295.984 458.559 299.95 465.737 309.231C469.845 314.529 472.62 320.541 473.054 327.668C474.047 343.982 473.194 360.296 473.582 376.611C473.613 377.912 473.287 379.307 474.264 380.453C472.93 381.987 471.21 381.46 469.597 381.228C459.923 379.772 450.14 379.415 440.389 378.95C433.722 378.641 427.149 377.169 420.452 377.556C408.684 378.238 398.871 382.374 392.856 393.282C391.538 395.683 390.22 398.193 387.956 399.944C385.615 400.486 385.29 398.487 384.515 397.139C380.251 389.718 377.275 381.693 373.43 374.07C368.934 365.177 364.484 356.237 360.391 347.143C358.392 342.712 356.624 338.157 354.888 333.602C354.299 332.068 353.834 330.441 354.128 328.721C355.74 324.925 359.198 322.322 360.686 318.403C361.26 316.9 361.585 315.18 362.887 314.003C364.949 310.981 364.81 307.542 364.841 304.118C364.872 301.36 364.872 298.587 364.872 295.829H364.887Z" fill="#D4C0AF"/>
<path d="M198.583 202.528C196.8 201.304 194.614 201.63 192.661 200.932C183.932 197.818 179.684 190.211 181.932 181.287C183.11 176.608 186.32 173.354 190.614 171.991C198.366 169.543 202.955 164.26 206.04 157.195C206.66 157.071 206.97 157.458 207.265 157.892C208.117 159.736 209.637 159.627 211.218 159.209C216.613 157.784 221.915 157.706 227.078 160.138C227.76 160.464 228.69 160.867 229.218 160.107C229.869 159.147 228.985 158.434 228.287 157.954C225.559 156.048 222.396 155.63 219.171 155.351C216.319 155.103 213.482 156.079 210.629 155.382C209.28 153.569 209.606 151.524 210.21 149.65C211.296 146.272 212.365 142.894 213.528 139.548C214.691 136.186 216.365 135.922 218.768 138.587C222.551 142.786 226.334 147 231.124 150.13C239.279 155.475 247.961 159.488 257.821 160.417C259.434 160.929 261.046 160.696 262.674 160.495C264.891 160.092 266.317 161.905 268.224 162.447C271.418 163.361 274.518 164.647 277.697 165.608C280.131 166.336 281.945 167.963 283.495 169.915C284.301 170.922 284.549 171.898 283.092 172.595C281.526 173.277 280.518 174.687 279.2 175.694C273.898 179.753 268.674 179.877 263.309 175.957C262.86 175.632 262.457 175.26 261.961 174.981C261.465 174.702 260.891 174.485 260.426 174.935C259.93 175.399 260.209 176.004 260.503 176.453C261.62 178.157 263.092 179.505 264.953 180.342C271.061 183.1 279.743 182.092 283.572 173.897C283.851 173.416 284.131 172.626 284.565 172.642C289.51 172.827 294.44 170.395 299.401 172.456C304.595 174.563 307.494 178.452 308.037 183.983C308.703 190.691 305.882 195.804 300.254 199.306C297.913 200.762 295.262 201.676 292.425 201.846C291.386 201.908 290.394 201.97 290.13 203.256C290.533 206.758 288.533 209.562 287.433 212.63C282.549 223.522 274.146 230.834 263.635 236.04C250.721 241.85 237.837 241.819 224.939 235.994C218.908 232.632 213.234 228.758 208.722 223.46C204.381 218.378 200.722 212.862 198.986 206.293C198.815 205.054 198.133 203.861 198.536 202.544L198.583 202.528Z" fill="#F4A68C"/>
<path d="M-12.294 290.577C-13.6582 285.526 -15.0225 280.46 -16.3713 275.409C-16.8209 272.341 -15.2241 271.21 -12.4025 271.226C-11.5188 271.226 -10.6196 271.21 -9.73588 271.21C26.7126 271.21 63.1765 271.117 99.6249 271.288C106.462 271.319 113.283 272.295 120.151 271.582C121.113 271.489 122.058 270.296 123.128 271.195C125.469 273.348 127.267 276.09 130.012 277.81C131.469 278.724 130.756 279.623 130.291 280.599C128.833 283.682 127.376 286.781 125.903 289.864C124.554 291.863 122.43 291.599 120.461 291.599C108.57 291.63 96.6793 291.615 84.7882 291.615C54.4481 291.615 24.1235 291.615 -6.21663 291.599C-8.29408 291.599 -10.48 292.002 -12.3249 290.546L-12.294 290.577Z" fill="#FEFEFE"/>
<path d="M346.873 208.478C348.578 208.695 350.066 208.493 350.919 206.712C351.415 205.689 352.175 204.976 353.462 205.193C354.733 204.651 356.082 204.775 357.415 204.775C397.445 204.775 437.474 204.682 477.504 204.883C483.147 204.914 487.86 204.341 490.31 198.531C495.938 198.066 500.682 199.538 503.457 204.868C505.054 207.935 505.162 211.267 504.123 214.489C503.41 216.705 501.1 217.278 499.054 217.789C498.217 218.006 497.286 217.851 496.403 217.851C454.079 217.851 411.754 217.851 369.43 217.851C366.376 217.851 363.306 217.712 360.252 217.588C359.415 217.557 358.733 217.758 358.206 218.424C354.423 215.109 350.64 211.793 346.857 208.478H346.873Z" fill="#CCDADB"/>
<path d="M286.797 212.521C287.913 209.438 289.03 206.355 290.146 203.256C291.2 204.403 290.704 205.813 290.688 207.083C290.626 213.064 290.719 219.029 291.634 224.962C292.766 232.291 296.657 238.023 301.711 243.198C307.587 249.209 313.525 255.174 317.757 262.549C320.207 266.794 321.354 271.396 320.346 276.199C319.726 279.173 321.137 280.335 323.432 281.11C326.315 282.055 329.369 282.257 332.315 281.792C342.826 280.134 350.795 283.837 356.81 292.529C361.322 299.051 363.12 306.225 362.872 314.018C362.004 319.89 358.159 324.089 354.748 328.551C352.376 331.556 349.989 334.562 345.927 335.399C344.284 334.314 344.067 332.455 343.431 330.813C340.051 322.121 336.904 313.336 332.253 305.187C328.362 298.385 322.997 293.04 316.75 288.469C315.587 287.617 314.285 286.936 313.587 285.572C312.688 284.302 312.548 283.109 313.215 281.559C314.626 278.306 314.874 274.696 316.176 271.365C316.998 269.258 315.726 267.259 314.471 265.524C312.083 262.239 308.998 259.776 305.494 257.731C300.208 254.663 294.936 251.549 291.727 246.002C290.099 243.183 288.952 240.254 288.409 237.032C287.293 230.432 287.03 223.8 287.154 217.138C287.185 215.62 287.51 214.04 286.797 212.552V212.521Z" fill="#976762"/>
<path d="M-12.2942 290.576C32.2625 290.576 76.8037 290.545 121.36 290.53C122.911 290.53 124.492 290.747 125.918 289.895C125.453 291.677 124.988 293.443 124.523 295.224C123.221 296.061 121.748 295.875 120.322 295.891C105.904 295.891 91.4854 295.968 77.0673 295.875C70.7419 295.829 64.5095 296.464 58.4167 298.075C54.4478 299.129 51.3007 301.887 47.7504 303.839C45.3629 304.536 42.9288 304.304 40.4948 304.304C25.3945 304.288 10.3097 304.304 -4.79056 304.273C-6.63546 304.273 -8.60439 304.613 -10.2167 303.234C-10.9144 299.02 -11.612 294.791 -12.2942 290.576Z" fill="#CDD9DC"/>
<path d="M139.251 335.91C133.221 331.603 128.135 326.552 125.918 319.208C127.298 317.504 127.608 315.428 127.903 313.367C129.515 302.46 134.29 293.366 143.313 286.796C147.701 283.605 152.817 282.164 158.15 281.993C160.832 281.901 163.096 281.296 165.266 279.886C167.111 277.686 169.793 276.633 172.072 275.021C173.064 275.223 173.142 275.982 173.126 276.788C173.126 277.438 172.661 278.26 172.956 278.724C175.095 282.117 172.909 284.255 170.863 286.471C169.886 288.191 168.196 289.136 166.677 290.189C160.491 294.481 156.181 300.307 152.693 306.86C148.305 315.118 144.817 323.748 141.577 332.486C141.081 333.803 140.848 335.337 139.251 335.926V335.91Z" fill="#966762"/>
<path d="M171.932 275.207C170.491 277.872 167.638 278.538 165.25 279.871C165.25 277.779 164.94 275.703 164.77 273.627C164.134 265.431 165.964 257.979 171.731 251.642C176.769 246.111 183.172 242.269 188.521 237.109C194.691 231.16 196.753 223.816 197.265 215.744C197.513 211.778 197.513 207.796 197.513 203.814C197.513 202.931 197.792 202.606 198.583 202.544C198.986 203.69 199.404 204.837 199.807 205.968C200.35 212.707 200.226 219.462 200.18 226.217C200.133 233.112 198.598 239.635 194.939 245.584C193.932 247.226 192.707 248.59 191.188 249.767C188.273 252.014 185.126 253.888 182.01 255.825C178.568 257.979 175.793 260.798 173.312 263.99C171.188 266.732 170.181 269.583 171.7 272.961C172.025 273.673 172.149 274.448 171.932 275.238V275.207Z" fill="#9C6964"/>
<path d="M206.66 157.814C206.459 157.613 206.242 157.396 206.04 157.195C208.753 148.689 210.272 139.858 213.234 131.429C213.9 129.539 214.133 128.408 216.102 130.515C225.249 140.292 236.783 146.504 248.829 151.85C251.449 153.012 254.194 153.91 256.891 154.886C258.054 155.305 259.341 155.49 259.325 157.133C259.31 158.574 259.031 159.937 258.1 161.099C251.992 161.564 246.659 158.914 241.279 156.73C231.884 152.919 224.148 146.799 217.916 138.789C216.396 136.852 215.063 136.651 214.443 139.501C213.296 144.754 209.993 149.479 210.629 155.15C210.133 157.272 208.536 157.768 206.645 157.814H206.66Z" fill="#EB8C78"/>
<path d="M299.432 172.471C294.58 171.867 289.867 174.129 284.983 173.184C284.797 173.153 284.441 174.021 284.177 174.47C283.154 173.881 282.379 173.184 282.735 171.836C283.262 171.728 284.069 171.619 283.402 170.906C281.821 169.233 280.456 167.157 278.053 166.599C274.193 165.685 270.705 163.671 266.751 163.082C265.294 162.865 264.581 160.758 262.72 161.13C262.689 160.805 262.689 160.448 262.984 160.247C267.263 157.319 276.084 157.799 280.053 161.177C286.534 164.895 293.588 167.637 299.448 172.456L299.432 172.471Z" fill="#EE8E7A"/>
<path d="M280.037 161.177C274.27 158.496 268.487 159.085 262.705 161.146C261.17 161.548 259.635 162.385 258.1 161.115C257.852 159.581 258.085 158.217 259.325 157.148C265.077 154.344 271.077 153.74 277.309 155.134C278.751 155.46 280.068 156.048 281.231 156.854C282.27 157.582 283.665 158.372 283.169 159.999C282.689 161.548 281.2 161.084 280.037 161.192V161.177Z" fill="#8E5D5A"/>
<path d="M387.399 399.913C391.228 394.878 393.615 388.804 398.545 384.544C404.189 379.663 410.886 376.936 418.095 376.781C430.901 376.518 443.66 378.346 456.451 379.012C462.419 379.322 468.295 380.453 474.264 380.438C484.372 381.15 494.496 381.817 504.604 382.591C509.813 382.994 514.464 384.776 518.154 388.634C508.945 398.518 500.651 409.147 492.155 419.62C487.349 425.539 482.357 431.302 477.566 437.252C478.419 437.376 479.582 436.988 480.295 438.026C476.326 438.832 472.264 439.483 468.791 441.667C460.357 446.981 455.954 454.697 455.567 464.675C455.536 465.558 455.474 466.441 455.427 467.324C446.497 479.502 437.645 491.742 428.668 503.888C425.537 508.134 421.444 511.031 416.576 513.153C420.374 513.153 424.111 513.029 427.831 513.231C428.715 513.277 430.637 512.704 429.893 514.951C428.358 515.865 426.669 515.679 425.025 515.679C414.824 515.694 404.607 515.741 394.406 515.679C389.755 515.648 385.135 514.718 380.484 515.229C378.438 514.486 379.6 513.572 380.515 512.998C385.631 509.791 389.988 505.67 394.236 501.456C400.08 495.646 405.646 489.511 408.685 481.733C414.762 466.162 408.096 449.29 390.484 443.433C385.352 441.729 380.112 441.295 374.732 441.45C372.236 441.528 369.632 441.853 367.26 440.598C366.671 436.942 368.004 433.611 368.949 430.218C372.856 420.922 378.98 412.881 383.693 404.034C384.577 402.376 385.616 400.796 387.414 399.944L387.399 399.913Z" fill="#6FA8AF"/>
<path d="M490.294 198.531C489.876 203.567 487.473 205.86 482.434 205.86C440.482 205.86 398.53 205.86 356.578 205.844C355.508 205.844 354.33 206.185 353.446 205.193C351.663 203.706 349.958 202.188 349.462 199.74C348.531 195.154 352.531 191.807 357.182 191.838C363.709 191.869 370.252 191.854 376.779 191.854C404.142 191.854 431.521 191.838 458.884 191.823C461.551 191.823 464.218 191.823 466.884 191.807C472.078 191.807 477.271 191.931 482.465 191.807C486.356 191.714 488.465 192.907 490.31 198.531H490.294Z" fill="#FEFEFE"/>
<path d="M-10.2166 303.235C7.19369 303.235 24.604 303.235 42.0143 303.235C43.9367 303.235 45.8746 303.173 47.735 303.823C37.9369 312.283 33.0378 322.896 33.0688 335.926C33.1619 369.918 33.0688 403.91 33.0688 437.902C31.5805 439.312 30.0302 438.646 28.4953 437.995C15.1779 437.98 1.87604 437.964 -11.4414 437.933C-14.418 437.933 -17.1001 439.684 -20.1388 439.25C-20.5573 437.205 -19.9527 435.919 -18.0768 434.618C-8.03061 427.661 0.310196 419.032 6.09296 408.202C8.30994 404.065 9.89129 399.588 11.7672 395.28C15.1004 387.875 16.7593 379.989 18.3406 372.102C20.0925 363.411 20.6196 354.58 20.4491 345.717C20.4026 343.595 20.0925 341.519 19.5499 339.505C18.6507 336.081 16.8988 335.135 13.6121 336.53C8.26344 338.792 3.68994 342.309 -0.635504 346.105C-2.96101 348.15 -5.08498 350.427 -7.37948 352.519C-7.96861 353.061 -8.4647 354.564 -9.68947 353.216C-7.61202 339.102 -7.68955 324.956 -9.41042 310.811C-9.72049 308.286 -9.95304 305.76 -10.2166 303.235Z" fill="#E1EDED"/>
<path d="M28.5107 438.011C30.0301 437.98 31.5649 437.949 33.0842 437.918C41.7196 438.909 47.5489 443.914 52.0139 450.994C56.9594 458.849 60.5872 467.386 64.9127 475.566C69.3776 484.041 74.8658 491.478 83.4857 496.142C85.1136 497.025 85.8112 499.225 87.9972 499.287C89.7646 498.45 90.6948 499.922 91.6715 500.79C96.6481 505.174 101.749 509.342 107.314 512.998C113.655 517.181 120.539 520.11 127.686 522.403C132.616 523.983 137.468 525.966 142.662 526.725C143.654 526.865 144.569 527.361 144.879 528.492C144.367 530.909 142.057 531.125 140.383 531.978C132.492 536.006 127.453 542.11 128.244 551.22C129.19 562.189 135.189 569.874 145.546 573.995C146.662 574.445 148.321 574.197 148.6 575.978C145.794 577.357 143.143 579.139 139.778 576.893C138.647 576.133 136.755 576.428 135.345 577.357C134.12 576.521 134.29 574.817 133.19 573.902C129.422 573.407 125.608 573.531 121.872 572.926C111.345 570.943 100.71 572.012 90.1211 571.702C88.3538 571.656 86.2763 572.276 85.0516 570.215C86.2763 568.635 88.0592 569.037 89.6561 569.022C96.8651 568.96 104.059 569.007 111.268 568.991C114.854 568.991 117.03 567.245 117.795 563.754C117.888 563.321 117.981 562.887 118.074 562.468C117.624 560.764 116.244 561.632 115.361 561.632C105.547 561.554 95.7179 561.585 85.8887 561.585C84.5864 561.43 83.0516 561.833 82.385 560.144C83.6718 558.642 85.4391 559.075 87.0515 559.06C96.276 559.013 105.485 558.951 114.71 559.091C117.407 559.122 118.616 558.394 118.306 555.527C117.314 546.619 120.601 539.259 126.678 532.923C128.508 531.017 128.29 530.475 125.577 529.173C117.593 525.3 109.81 521.07 102.121 516.624C98.3534 514.455 93.6714 514.919 89.5475 516.562C86.3383 517.832 83.3307 518.003 80.23 516.608C79.2068 516.159 78.1836 515.663 77.0518 515.679C68.618 515.803 60.1686 514.997 51.7658 516.19C44.6653 517.197 39.5492 522.929 39.4406 530.087C39.3476 536.749 39.4406 543.412 39.4096 550.058C39.4096 551.592 39.6112 553.188 38.712 554.598C38.2159 555.032 37.6887 555.093 37.1461 554.675C37.1461 537.369 37.0066 520.063 37.2546 502.757C37.3012 499.519 38.5414 496.142 39.8902 493.136C40.6034 491.571 41.146 490.192 41.1305 488.503C41.0995 483.948 41.7041 479.3 40.96 474.885C40.1538 470.175 42.2002 465.387 39.9212 460.739C39.0375 458.927 39.7662 456.835 42.2932 456.076C44.8668 455.301 46.4481 450.932 44.8978 448.81C43.2234 446.517 41.4871 444.239 39.4716 442.271C37.9058 440.753 35.9214 439.668 33.4718 439.932C31.5649 440.133 29.6735 439.932 28.5107 438.026V438.011Z" fill="#C0A796"/>
<path d="M145.189 449.367C135.825 445.881 126.322 442.876 116.601 440.567C116.369 437.701 116.027 434.85 115.919 431.984C115.361 418.21 118.834 405.057 122.523 391.98C126.926 376.378 131.5 360.823 136.073 345.283C137.003 342.123 138.693 339.21 139.267 335.91C142.569 327.729 145.685 319.472 149.344 311.431C154.135 300.895 161.096 292.296 170.847 285.991C171.452 284.193 173.25 283.806 174.599 283.016C182.459 278.414 191.141 275.796 199.699 272.852C200.552 272.558 201.436 272.527 202.288 272.899C213.683 279.7 226.117 282.892 239.279 283.636C249.93 284.24 260.271 282.551 270.395 279.406C274.968 277.981 279.138 275.657 283.076 272.914C284.534 272.263 285.898 272.775 287.262 273.24C294.797 275.827 302.285 278.492 309.463 281.993C311.168 282.83 312.672 283.914 313.928 285.324C327.059 293.319 334.749 305.45 339.989 319.487C341.958 324.77 344.082 329.992 346.144 335.244C348.346 337.382 348.594 340.387 349.493 343.068C355.229 360.436 360.531 377.928 365.074 395.652C367.415 404.778 369.244 414.027 370.283 423.401C370.531 425.601 370.624 427.801 369.539 429.861C368.856 433.44 368.19 437.019 367.508 440.583C365.198 442.024 362.454 442.008 359.942 442.752C353.198 444.75 346.687 447.384 340.144 449.925C330.098 444.812 321.199 438.088 312.843 430.62C311.541 429.458 308.874 428.265 310.703 425.523C315.401 423.23 319.866 420.658 323.37 416.599C327.649 411.61 329.803 405.816 330.47 399.386C330.687 397.232 329.571 395.606 328.176 394.072C327.013 392.801 325.323 391.856 325.183 389.858C326.501 387.72 327.99 389.222 329.137 389.889C338.439 395.342 347.632 400.951 354.934 409.085C355.694 409.921 356.299 411.192 357.849 411.021C358.516 409.565 357.399 408.697 356.702 407.83C352.082 402.066 346.764 397.062 340.284 393.421C334.579 390.214 328.765 387.193 322.765 384.543C319.711 383.195 318.238 380.298 316.982 377.478C314.672 372.304 312.409 367.129 309.277 362.373C308.254 360.823 307.99 359.103 307.975 357.291C307.959 353.077 308.037 348.862 307.789 344.617C306.874 351.279 304.704 357.523 301.634 363.457C300.983 364.712 300.735 366.292 298.921 366.509C293.2 363.689 288.534 359.723 286.301 353.603C284.751 349.327 283.138 345.066 281.526 340.821C279.247 334.825 275.03 330.301 269.79 326.676C268.24 325.607 266.596 324.6 266.085 322.57C265.93 316.172 267.387 309.928 267.899 303.591C267.93 301.546 269.774 300.895 270.875 299.687C272.534 295.674 269.139 295.581 266.922 294.574C264.736 288.485 259.217 289.461 254.876 289.755C245.109 290.406 235.357 290.081 225.59 290.127C222.412 290.143 220.179 290.84 219.357 294.125C218.768 295.07 217.807 295.24 216.815 295.349C215.528 295.488 214.474 295.767 214.288 297.347C214.117 298.896 214.66 299.857 216.148 300.337C216.567 300.477 216.861 300.833 217.125 301.189C217.497 301.809 217.668 302.475 217.776 303.188C218.396 308.549 219.202 313.894 219.574 319.27C219.481 320.897 218.443 321.811 217.171 322.632C209.435 327.544 204.505 334.562 201.684 343.207C200.552 346.693 199.715 350.288 198.273 353.65C195.699 359.615 191.188 363.689 185.297 366.292C183.607 365.967 183.111 364.542 182.521 363.24C178.94 355.447 176.925 347.344 177.746 338.668C176.429 343.843 176.599 349.11 177.173 354.285C177.529 357.477 177.018 360.126 175.374 362.806C172.646 367.253 170.227 371.839 168.336 376.735C166.786 380.763 163.979 383.691 159.762 385.504C149.313 389.997 139.469 395.544 131.515 403.925C130.601 404.902 129.686 405.862 128.973 407.009C128.57 407.659 128.043 408.264 128.089 409.333C129.345 409.395 129.949 408.403 130.616 407.69C137.438 400.347 145.902 395.249 154.507 390.369C155.639 389.718 157.173 388.37 157.716 391.051C157.514 391.453 157.918 391.051 157.638 391.376C151.127 399.014 155.204 406.188 158.832 413.16C161.344 417.978 165.468 421.433 170.382 423.85C171.281 424.284 172.165 424.748 172.878 425.477C174.444 427.63 172.754 429.071 171.576 430.373C167.917 434.385 163.7 437.84 159.328 441.016C155.763 443.619 152.042 446.036 148.321 448.438C147.391 449.042 146.445 449.615 145.251 449.352L145.189 449.367Z" fill="#FEFEFE"/>
<path d="M99.0047 371.576C96.9892 373.574 95.966 376.952 92.1057 375.387C89.253 374.225 86.912 372.676 87.2376 369.205C87.4857 366.695 89.129 364.867 91.377 364.03C94.3847 362.915 97.1288 364.294 99.0202 367.423C104.818 362.62 108.586 361.985 111.547 365.285C113.795 367.795 113.702 371.622 111.33 373.962C108.152 377.107 104.4 376.425 98.9892 371.56L99.0047 371.576Z" fill="#BAA492"/>
<path d="M369.492 429.877C369.306 415.701 365.771 402.113 362.19 388.541C357.446 370.584 351.57 352.984 346.113 335.244C349.338 333.447 351.725 330.565 354.764 328.52C354.872 333.075 357.353 336.855 358.841 340.961C362.144 350.086 366.624 358.685 371.011 367.284C376.329 377.664 380.655 388.51 386.251 398.751C386.499 399.216 387.011 399.526 387.399 399.913C382.422 408.186 377.523 416.506 372.407 424.702C371.353 426.391 371.632 428.839 369.492 429.877Z" fill="#BEA594"/>
<path d="M202.055 273.41C196.753 274.386 191.777 276.447 186.754 278.291C181.203 280.336 175.917 283.016 170.816 286.006C170.677 285.743 170.429 285.263 170.429 285.263C175.25 282.551 171.064 278.492 171.932 275.223C168.801 269.103 169.204 266.841 174.366 261.109C177.126 258.041 180.273 255.392 183.963 253.579C194.893 248.234 198.815 238.798 199.249 227.442C199.482 221.353 199.28 215.264 199.311 209.16C199.311 208.09 198.939 206.928 199.807 205.983C202.645 215.512 208.319 223.088 216.024 229.192C218.784 231.377 221.791 233.221 224.69 235.235C225.838 238.659 224.597 242.145 224.923 245.584C224.969 247.629 224.923 249.659 224.318 251.642C224.287 257.313 221.14 261.511 217.388 265.183C213.915 268.592 209.792 271.272 205.234 273.178C204.179 273.612 203.156 273.952 202.04 273.426L202.055 273.41Z" fill="#7D585A"/>
<path d="M313.897 285.325C305.401 280.63 296.347 277.283 287.216 274.123C285.975 273.689 284.782 272.976 283.371 273.286C283.045 273.364 282.689 273.503 282.394 273.379C274.363 269.754 267.418 264.966 264.441 256.089C263.961 252.758 263.046 249.489 263.061 246.095C263.263 242.455 262.131 238.705 263.945 235.188C267.681 232.461 272.007 230.68 275.48 227.488C280.177 223.165 283.96 218.223 286.782 212.522C288.44 211.886 288.022 213.157 288.022 213.931C288.037 218.146 287.743 222.391 288.099 226.574C288.72 233.871 288.952 241.277 293.789 247.536C297.076 251.797 301.541 254.431 306.006 257.003C309.634 259.094 312.688 261.666 315.184 264.92C317.308 267.693 318.269 270.621 316.16 274.076C314.517 276.772 315.68 280.475 313.308 283.047C312.44 283.992 315.37 284.132 313.866 285.309L313.897 285.325Z" fill="#7D585A"/>
<path d="M263.976 235.173C263.976 238.953 263.991 242.734 264.007 246.514C256.767 251.394 248.705 252.804 240.194 251.906C236.783 251.549 233.434 250.79 230.117 249.737C227.683 248.962 225.667 247.815 224.117 245.848C223.931 242.284 223.838 238.721 224.706 235.219C230.458 237.14 236.101 239.186 242.349 239.325C249.93 239.511 257.092 238.163 263.991 235.188L263.976 235.173Z" fill="#E26D5F"/>
<path d="M245.698 217.185C237.744 216.689 230.814 214.458 225.125 209.191C224.132 208.276 222.768 207.176 224.008 205.534C225.45 203.613 226.768 205.286 227.605 206.092C231.698 210.043 236.566 211.886 242.116 212.739C249.356 213.854 255.325 211.313 260.937 207.238C261.464 206.851 261.914 206.324 262.379 205.86C263.263 204.976 264.364 203.876 265.511 204.868C266.689 205.891 266.193 207.316 265.154 208.385C261.139 212.553 256.41 215.496 250.628 216.503C248.891 216.798 247.139 216.999 245.713 217.201L245.698 217.185Z" fill="#E77364"/>
<path d="M217.326 182.743C212.21 182.666 208.071 180.652 205.249 176.329C204.505 175.183 203.528 173.695 205.063 172.471C206.629 171.232 207.435 172.859 208.319 173.711C214.195 179.366 219.373 179.552 225.915 174.268C226.876 173.494 227.853 172.518 229.109 173.664C230.411 174.857 229.806 176.174 228.938 177.228C225.931 180.822 222.132 182.836 217.342 182.743H217.326Z" fill="#434852"/>
<path d="M282.72 171.836C283.433 172.58 284.037 173.401 284.161 174.47C279.789 183.673 267.557 185.64 260.596 178.25C260.147 177.77 259.744 177.243 259.387 176.685C258.736 175.663 258.596 174.578 259.542 173.664C260.534 172.719 261.464 173.494 262.209 174.067C264.302 175.694 266.271 177.475 269.077 177.832C273.464 178.374 277.138 177.026 280.162 173.819C280.906 173.029 281.433 171.96 282.704 171.851L282.72 171.836Z" fill="#414751"/>
<path d="M240.705 183.843C240.705 181.07 240.705 178.297 240.705 175.524C240.705 174.331 241.047 172.998 242.318 173.029C243.636 173.06 243.295 174.501 243.341 175.431C243.605 181.287 242.922 187.144 243.93 193C244.225 194.751 244.845 195.247 246.442 195.185C248.318 195.107 250.209 195.154 252.1 195.169C252.876 195.169 253.728 195.169 253.93 196.176C254.116 197.168 253.759 197.973 252.814 198.345C248.907 199.91 244.922 200.576 240.845 199.089C239.217 198.5 237.76 196.873 239.062 195.587C241.589 193.062 240.364 190.211 240.659 187.484C240.798 186.276 240.674 185.052 240.674 183.828H240.705V183.843Z" fill="#E9806B"/>
<path d="M206.66 157.815C207.993 156.932 209.311 156.048 210.645 155.15C215.823 154.174 220.954 153.957 226.055 155.677C227.559 156.188 228.907 156.854 230.024 157.985C230.814 158.791 231.667 159.596 230.737 160.82C229.962 161.843 228.814 162.215 227.791 161.595C222.195 158.248 216.412 158.744 210.458 160.34C208.598 160.836 206.164 161.27 206.676 157.815H206.66Z" fill="#835552"/>
<path d="M292.859 194.487C293.06 189.669 293.774 185.176 294.192 180.667C294.301 179.443 295.215 179.257 296.44 179.676C300.176 180.977 301.463 185.393 298.704 188.956C297.091 191.048 294.828 192.659 292.859 194.487Z" fill="#E97B6C"/>
<path d="M189.312 184.494C189.389 182.836 190.366 181.194 192.056 180.265C193.715 179.35 195.079 179.381 195.405 182.015C195.808 185.238 195.513 188.615 197.11 191.652C197.405 192.21 197.451 193.015 196.862 193.465C196.629 193.651 196.04 193.465 195.653 193.31C193.312 192.473 189.343 187.159 189.312 184.494Z" fill="#E67A64"/>
<path d="M412.483 443.279C409.305 443.248 406.84 440.459 406.84 436.911C406.84 432.991 409.909 429.862 413.677 429.955C417.025 430.032 420.312 433.627 420.188 437.066C420.064 440.506 416.591 443.31 412.498 443.279H412.483Z" fill="#5A8F9C"/>
<path d="M199.358 473.971C195.916 472.592 192.381 471.368 189.234 469.338C188.506 465.945 190.35 463.063 191.234 460.042C195.358 445.881 199.513 431.721 204.552 417.839C207.993 408.357 210.923 398.689 214.846 389.362C216.319 385.876 215.931 385.52 211.993 385.473C210.551 385.473 209.094 385.566 207.668 385.287C206.04 384.962 204.691 384.296 204.691 382.312C205.373 379.508 207.668 377.974 209.683 376.317C214.443 372.397 218.365 367.842 221.109 362.295C221.977 360.529 223.202 359.15 225.357 359.026C228.349 358.933 231.341 358.747 234.334 359.181C240.271 360.25 246.302 359.847 252.24 359.553C257.511 359.289 261.077 360.73 263.557 365.549C266.286 370.863 270.906 374.628 275.402 378.424C276.658 379.477 278.146 380.36 278.518 382.157C278.084 385.225 275.495 385.008 273.418 385.38C269.852 386.015 269.588 386.201 270.922 389.563C276.363 403.306 280.875 417.374 285.402 431.426C289.215 443.263 292.797 455.177 296.114 467.169C297.215 471.182 296.657 472.236 292.394 473.227C286.766 474.544 281.045 475.427 275.309 476.093C262.829 477.55 250.318 478.82 237.744 478.2C224.892 477.565 212.009 477.054 199.42 473.971H199.358Z" fill="#FEFEFE"/>
<path d="M199.358 473.971C201.606 473.01 203.637 474.327 205.761 474.575C220.83 476.341 235.93 477.891 251.124 477.224C261.154 476.791 271.154 475.722 281.107 474.281C284.704 473.754 288.192 472.654 291.882 472.53C295.866 472.391 296.347 471.399 295.184 467.51C290.983 453.442 287.138 439.266 282.487 425.353C280.162 418.35 277.774 411.332 275.247 404.391C273.201 398.797 271.077 393.22 269.154 387.58C268.379 385.318 268.937 384.668 271.278 384.528C273.712 384.373 276.735 385.272 278.038 381.956C279.898 381.615 280.503 383.134 281.231 384.28C286.704 392.724 292.037 401.261 297.463 409.736C301.215 415.608 304.75 421.929 310.812 426.035C310.223 427.816 311.757 428.638 312.688 429.459C319.881 435.811 327.214 441.962 335.757 446.517C337.384 447.384 339.183 448.159 340.098 449.972C338.113 451.568 335.633 452.218 333.416 453.349C330.811 454 329.261 451.97 327.648 450.715C318.548 443.712 310.285 435.826 303.975 426.112C302.331 423.587 301.014 420.906 300.548 418.706C301.882 421.805 302.254 426.004 303.51 429.908C306.688 439.777 308.3 449.972 310.641 460.027C311.044 461.762 311.246 463.544 310.161 465.186C300.765 470.624 290.735 474.777 280.937 479.363C278.456 480.525 275.867 481.47 273.325 482.523C268.1 485.08 262.364 484.925 256.798 485.297C244.876 486.087 232.923 486.118 221.063 484.336C219.977 484.166 218.846 484.119 218.102 483.112C211.497 480.819 205.435 477.426 199.389 473.971H199.358Z" fill="#E4DFD5"/>
<path d="M205.249 381.879C205.218 384.218 206.846 384.528 208.613 384.574C210.83 384.636 213.047 384.59 215.264 384.59C216.784 384.59 217.528 384.884 216.815 386.759C209.327 406.265 202.273 425.911 196.474 446.005C194.211 453.829 191.653 461.576 189.219 469.354C184.196 467.138 178.955 465.356 174.475 462.041C173.622 459.686 174.506 457.439 175.033 455.224C177.87 443.155 181.157 431.194 184.041 419.124C184.428 417.529 185.064 415.964 184.862 414.26C185.095 411.207 187.219 409.054 188.661 406.606C193.188 398.89 197.265 390.865 202.784 383.769C203.435 382.932 203.792 381.693 205.234 381.894L205.249 381.879Z" fill="#E4DED5"/>
<path d="M310.145 465.171C310.238 458.106 307.804 451.49 306.362 444.704C304.471 435.764 302.006 426.933 299.773 418.055C299.634 417.529 299.324 417.033 299.913 416.134C302.734 423.432 307.075 429.489 312.036 435.16C318.253 442.271 325.261 448.469 333.4 453.318C325.648 457.269 317.897 461.22 310.129 465.155L310.145 465.171Z" fill="#C0A696"/>
<path d="M185.265 413.95C186.382 414.91 185.699 415.948 185.451 417.002C182.227 430.078 179.002 443.154 175.793 456.231C175.312 458.152 174.909 460.104 174.475 462.041C171.467 462.196 169.142 460.383 166.584 459.267C161.7 457.145 156.879 454.914 152.026 452.729C161.034 445.571 169.498 437.825 176.397 428.575C179.483 424.439 182.692 420.286 183.917 415.065C184.165 414.461 184.335 413.764 185.25 413.965L185.265 413.95Z" fill="#C0A696"/>
<path d="M184.645 415.158C183.948 419.729 181.095 423.199 178.63 426.84C172.367 436.09 164.165 443.557 155.824 450.855C154.817 451.738 153.685 452.853 152.057 452.714C149.778 451.598 147.484 450.483 145.205 449.367C154.119 443.867 162.785 438.026 170.243 430.605C171.483 429.366 173.204 428.235 172.584 425.988C176.382 424.516 178.723 421.418 181.141 418.381C182.118 417.141 182.661 415.329 184.661 415.174L184.645 415.158Z" fill="#E4DED5"/>
<path d="M264.364 293.319H221.078C219.931 293.319 218.861 293.861 218.164 294.776L215.978 297.673L269.03 297.564L267.48 295.039C266.813 293.954 265.635 293.304 264.379 293.304L264.364 293.319Z" fill="#A49D99"/>
<path d="M261.744 361.195L269.309 299.113C269.495 297.595 268.317 296.263 266.782 296.263H218.257C216.706 296.263 215.528 297.626 215.745 299.16L224.458 361.195" fill="#666564"/>
<path d="M184.645 415.158C182.568 417.808 180.537 420.503 178.382 423.075C176.893 424.841 175.188 426.36 172.583 425.988C164.429 422.347 158.351 416.661 155.297 408.14C154.398 405.661 153.871 403.027 153.313 400.44C152.46 396.473 154.569 393.7 157.266 391.206C161.824 386.449 166.568 381.863 171.235 377.231C171.948 376.518 172.816 376.038 173.793 375.805C176.258 374.271 177.141 371.204 179.638 369.701C181.699 368.709 183.188 366.866 185.265 365.889C189.358 363.225 193.296 360.389 196.056 356.237C197.869 353.51 198.521 350.334 199.358 347.282C202.396 336.22 207.807 326.908 218.086 321.005C218.411 320.82 218.52 320.277 218.737 319.89C223.124 317.473 227.744 315.583 232.396 313.77C233.946 313.166 235.543 312.624 237.217 312.531C239.357 312.391 240.953 313.398 241.651 315.35C242.395 317.457 240.922 318.712 239.326 319.611C235.946 321.501 232.302 322.88 228.799 324.522C227.279 325.235 225.9 326.149 224.938 326.598C228.83 324.367 233.341 322.152 238.442 321.377C239.884 321.16 241.294 321.036 242.752 321.052C245.465 321.067 247.201 322.229 247.542 325.065C247.651 325.979 247.93 326.955 248.891 327.203C253.759 328.442 257.93 331.355 262.751 332.718C260.968 330.859 258.658 329.837 256.441 328.69C252.891 326.846 249.434 324.832 246.597 321.95C245.589 320.928 244.38 319.812 245.139 318.201C245.914 316.559 247.573 316.373 249.17 316.481C253.387 316.776 256.968 318.976 260.72 320.572C262.751 321.439 264.72 322.462 266.813 323.19C270.239 326.599 274.534 328.922 277.712 332.749C281.588 337.428 283.65 342.928 285.153 348.46C287.169 355.896 291.944 360.885 297.463 365.549C297.773 365.812 298.285 365.843 298.703 365.998C300.44 366.959 301.835 368.322 303.277 369.623C306.378 371.126 308.285 374.085 311.122 375.914C316.253 380.221 321.261 384.652 325.354 390.013C325.633 390.353 325.85 390.787 326.206 391.004C332.454 394.939 332.036 400.656 330.005 406.466C326.718 415.917 320.579 422.765 310.858 425.988C307.478 425.849 306.037 423.06 304.362 420.875C298.393 413.113 293.556 404.576 288.239 396.365C285.06 391.438 282.316 386.124 278.068 381.925C276.053 380.205 274.007 378.532 272.038 376.781C267.805 373.016 263.976 368.926 261.34 363.844C260.131 361.52 258.457 360.312 255.558 360.42C249.806 360.637 244.023 360.482 238.271 360.42C237.077 360.42 235.822 360.73 234.706 359.987C235.698 358.747 237.124 359.057 238.411 359.041C242.411 358.995 246.411 359.01 250.41 359.041C247.093 357.229 243.372 356.144 240.411 353.665C239.605 352.984 238.705 352.488 237.682 352.999C234.101 354.781 230.287 356.051 226.659 357.709C225.714 358.143 225.124 358.964 224.613 359.847C223.481 359.94 222.845 360.684 222.411 361.629C219.264 368.647 214.008 373.9 208.21 378.718C207.125 379.632 206.257 380.81 205.28 381.863C200.288 387.766 196.738 394.614 192.722 401.152C190.149 405.351 187.761 409.674 185.296 413.934C184.769 414.182 184.645 414.631 184.661 415.143L184.645 415.158Z" fill="#F3A186"/>
<path d="M265.371 256.538C268.751 264.935 275.805 269.397 283.371 273.286C279.913 277.175 275.107 278.848 270.456 280.336C259.945 283.698 249.093 285.154 238.008 284.472C225.776 283.729 214.226 280.599 203.435 274.789C202.877 274.495 202.505 273.875 202.04 273.395C209.482 270.745 215.9 266.655 220.567 260.132C222.349 257.654 223.311 254.865 223.543 251.828C224.334 250.31 225.295 251.348 226.008 251.797C233.527 256.569 242.085 257.406 250.612 258.196C254.379 258.552 258.131 257.746 261.821 256.848C262.984 256.569 264.131 255.934 265.371 256.538Z" fill="#F3A288"/>
<path d="M266.767 323.205C264.937 324.027 263.464 323.112 261.961 322.26C258.302 320.215 254.442 318.635 250.411 317.473C249.573 317.241 248.659 317.21 247.791 317.256C246.891 317.302 245.992 317.612 245.589 318.496C245.139 319.503 245.93 320.138 246.55 320.773C249.573 323.949 253.31 326.072 257.139 328.101C259.93 329.573 262.937 330.735 265.185 333.648C260.999 334.5 258.286 331.742 255.124 330.534C253.713 329.992 252.349 329.077 250.86 328.768C248.302 328.241 246.271 327.729 246.535 324.29C246.674 322.524 244.969 321.858 243.186 321.873C237.093 321.92 231.45 323.515 226.194 326.614C224.846 327.404 223.574 328.551 221.156 328.272C226.69 324.305 232.52 322.183 237.961 319.332C239.574 318.48 241.682 317.814 241.093 315.753C240.442 313.522 238.504 312.717 235.992 313.507C230.938 315.087 226.039 317.024 221.419 319.596C220.458 320.138 219.729 320.572 218.753 319.874C218.164 314.328 217.574 308.797 216.985 303.25C217.885 302.212 219.125 302.197 220.35 302.197C235.186 302.026 250.023 302.135 264.86 302.15C266.178 302.15 267.542 302.15 268.534 303.297C268.612 309.99 266.844 316.512 266.798 323.174L266.767 323.205Z" fill="#666564"/>
<path d="M302.75 369.979C301.231 368.802 299.494 367.872 298.642 366.013C301.51 363.813 301.835 360.188 303.401 357.26C305.541 353.247 306.114 348.661 306.75 344.183C306.843 343.486 306.393 342.355 307.51 342.308C308.688 342.262 308.734 343.409 308.734 344.276C308.75 348.723 308.765 353.154 308.734 357.6C308.719 359.196 308.998 360.637 309.913 362C313.091 366.788 315.633 371.901 317.571 377.323C319.633 383.102 325.028 384.822 329.865 387.053C340.749 392.057 350.686 398.286 357.942 408.093C358.33 408.62 358.686 409.193 359.027 409.751C359.508 410.603 359.647 411.486 358.764 412.137C357.864 412.803 356.965 412.788 356.128 411.842C352.097 407.256 347.803 402.965 342.718 399.525C337.602 396.086 332.47 392.646 327.028 389.718C326.346 389.346 325.773 389.346 325.307 390.028C320.439 385.55 315.571 381.057 310.703 376.58C307.99 373.853 308.579 369.763 306.703 366.602C305.556 367.408 305.82 368.632 305.401 369.577C304.719 371.157 303.866 371.327 302.766 369.979H302.75Z" fill="#E4E3DD"/>
<path d="M185.25 365.89C183.855 367.702 182.521 369.577 179.963 369.825C178.878 368.818 178.692 367.346 178.196 366.385C177.173 369.794 176.832 373.667 173.917 376.534C171.281 377.448 169.964 379.896 167.995 381.6C164.351 384.729 161.623 388.882 157.251 391.221C157.018 389.703 156.352 390.183 155.437 390.71C146.243 396.04 137.158 401.509 129.965 409.55C129.748 409.798 129.5 410.03 129.252 410.247C128.601 410.836 127.887 411.672 126.988 410.882C126.213 410.185 126.554 409.209 127.035 408.434C127.856 407.117 128.601 405.723 129.655 404.607C136.802 397.047 145.174 391.33 154.693 387.007C159.359 384.9 164.987 383.397 166.971 377.696C169.204 371.266 172.754 365.549 176.072 359.692C176.77 358.453 176.677 357.136 176.475 355.804C175.607 349.963 175.638 344.122 176.599 338.296C176.739 337.413 176.723 336.205 177.839 336.313C179.08 336.437 178.645 337.754 178.583 338.513C177.917 347.22 179.638 355.447 183.374 363.287C183.839 364.278 184.103 365.425 185.265 365.921L185.25 365.89Z" fill="#E3E1D9"/>
<path d="M265.371 256.538C257.976 259.698 250.395 259.187 242.612 258.304C235.698 257.514 229.683 254.617 223.543 251.828C223.729 249.829 223.915 247.831 224.086 245.847C226.489 246.483 228.365 248.109 230.814 248.915C241.14 252.324 251.046 252.107 260.86 247.443C261.852 246.963 262.813 246.405 263.992 246.514C264.457 249.86 264.906 253.191 265.371 256.538Z" fill="#EC8A74"/>
<path d="M224.582 360.529C223.915 359.351 224.055 357.817 225.404 357.182C229.667 355.199 234.272 354.006 238.302 351.527C238.83 351.202 239.419 351.264 239.822 351.728C243.015 355.4 247.403 356.857 251.837 358.236C252.318 358.375 252.69 358.84 253.108 359.15C253 359.429 252.907 360.389 252.798 360.684C246.752 360.684 240.721 360.684 234.675 360.684C231.31 360.637 227.946 360.591 224.598 360.529H224.582Z" fill="#666564"/>
<path d="M222.194 338.296C222.474 336.53 223.698 335.801 224.939 335.135C228.458 333.261 232.086 331.618 235.217 329.093C236.225 328.287 237.295 328.365 238.24 329.201C243.636 333.989 250.566 335.91 256.783 339.133C258.333 339.938 259.821 340.728 260.813 342.34C255.558 341.534 250.333 340.837 246.302 336.871C243.558 334.159 240.101 333.555 236.566 334.33C232.907 335.135 229.388 336.53 225.791 337.599C224.691 337.924 223.621 338.699 222.179 338.28L222.194 338.296Z" fill="#666564"/>
<path d="M243.294 349.095C246.178 345.284 249.434 346.105 252.906 347.917C254.565 348.785 256.395 349.265 258.116 350.025C259.015 350.427 260.085 351.047 259.697 352.209C259.294 353.418 258.224 353.154 257.17 352.86C252.55 351.558 247.899 350.334 243.294 349.095Z" fill="#666564"/>
<path d="M225.109 348.956C224.504 349.111 223.993 348.94 223.698 348.382C223.28 347.608 223.76 347.065 224.38 346.771C228.551 344.772 232.706 342.727 236.954 340.884C238.194 340.341 239.031 341.689 239.481 342.572C239.977 343.579 238.799 343.641 238.147 343.967C233.962 346.012 229.543 347.453 225.14 348.94L225.109 348.956Z" fill="#666564"/>
<path d="M302.75 369.98C303.727 370.352 304.672 370.755 304.781 369.066C304.827 368.214 305.122 367.362 305.324 366.525C305.479 365.89 305.634 365.084 306.347 364.991C307.106 364.898 307.417 365.688 307.603 366.293C308.657 369.717 309.665 373.156 310.688 376.58C308.037 374.38 305.401 372.18 302.75 369.98Z" fill="#C5AD9A"/>
<path d="M173.917 376.534C175.948 372.986 176.429 368.849 178.118 364.914C179.095 366.618 180.304 367.919 179.979 369.84C177.793 371.932 176.94 375.201 173.932 376.534H173.917Z" fill="#CAAB9C"/>
<path d="M224.458 307.867C226.128 307.867 227.481 306.515 227.481 304.846C227.481 303.178 226.128 301.825 224.458 301.825C222.788 301.825 221.435 303.178 221.435 304.846C221.435 306.515 222.788 307.867 224.458 307.867Z" fill="#4C5354"/>
<path d="M224.768 316.358C226.318 316.358 227.574 315.102 227.574 313.553C227.574 312.005 226.318 310.749 224.768 310.749C223.218 310.749 221.962 312.005 221.962 313.553C221.962 315.102 223.218 316.358 224.768 316.358Z" fill="#4C5354"/>
</g>
<path d="M46.8203 31.4825V28.074H49.2698V31.4825H51.3937V33.853H49.2698V37.0601C49.7969 36.9052 50.3085 36.7347 50.7891 36.5643L51.1302 38.6869C50.5256 38.9968 49.8899 39.2446 49.2698 39.508V44.3419C49.2698 45.5969 49.0992 46.418 48.7737 46.8828C48.3396 47.4096 47.5954 47.6575 46.5567 47.6575C45.9521 47.6575 45.3784 47.5955 44.8668 47.4871L44.4327 44.9462C45.0218 45.1166 45.611 45.1786 46.2156 45.1786C46.4482 45.1786 46.6032 45.0856 46.6962 44.8997C46.7892 44.6673 46.8203 44.2645 46.8203 43.7532V40.4066C46.2621 40.6081 45.6885 40.7785 45.1304 40.9489L44.2622 38.408C45.1304 38.2066 45.9986 37.9897 46.8203 37.7728V33.822H44.4327V31.4515H46.8203V31.4825ZM64.0445 37.153V39.3686H59.0214V40.7165H62.9283V42.9321H59.0214V44.8377C59.8741 44.9307 60.8508 44.9617 61.9515 44.9617C62.6027 44.9617 63.3004 44.9152 64.029 44.7913L63.2538 47.3322H61.9515C59.0679 47.3322 57.0215 47.0997 55.8122 46.6194C54.9595 46.3406 54.2774 45.9842 53.7038 45.5814C53.2697 46.3561 52.7736 47.0533 52.2464 47.6885L50.4636 45.9997C51.2077 45.1166 51.7658 44.2025 52.1999 43.2884C52.634 42.2968 52.9131 41.2278 53.0836 40.0503L55.2851 40.5771C55.1611 41.5996 54.9595 42.5447 54.6495 43.4278C55.0991 43.7687 55.6107 44.0631 56.1688 44.28C56.2928 44.3419 56.4323 44.3884 56.5564 44.4349V39.3996H51.6263V37.184H64.029L64.0445 37.153ZM62.4166 28.4303V36.3939H52.572V28.4303H62.4166ZM60.0446 31.405V30.5529H54.9595V31.405H60.0446ZM60.0446 34.2713V33.3417H54.9595V34.2713H60.0446Z" fill="#595757"/>
<path d="M83.6097 28.4304V38.5165H77.0673V40.2053H85.4701V42.5758H77.0673V47.5956H74.5248V42.5758H66.2925V40.2053H74.5248V38.5165H68.1684V28.4304H83.6097ZM81.1602 32.3347V30.8009H70.6334V32.3347H81.1602ZM81.1602 36.1306V34.5193H70.6334V36.1306H81.1602Z" fill="#595757"/>
<path d="M94.8963 29.0965V31.3895H92.2607C91.8732 33.1712 91.4856 34.6896 91.0515 35.9755H95.1289V36.5797C96.3847 35.4797 97.3924 34.2558 98.09 32.9543C98.3226 32.5205 98.5396 32.0402 98.7412 31.5444H97.6094V33.4966H95.1289V29.3444H99.3923C99.4853 28.9106 99.5473 28.4612 99.6248 27.981L102.012 28.3218C101.95 28.6937 101.888 29.0345 101.842 29.3444H107.439V33.4966H104.958V31.5444H101.237C100.927 32.4585 100.586 33.2952 100.198 34.0853C100.105 34.2403 100.043 34.3952 99.9659 34.5191H101.609C101.826 33.9149 102.028 33.2797 102.152 32.6599L104.632 33.1867C104.508 33.667 104.369 34.1163 104.198 34.5346H107.004V36.7502H103.532V37.8502H106.601V40.0502H103.532V41.2432H106.601V43.4278H103.532V44.5278H107.268V46.8208H98.6016V47.58H96.2296V38.6868C96.0591 38.8108 95.9195 38.9192 95.7955 39.0122L95.1289 38.0826V46.8363H92.8499V45.6433H91.5631V47.5025H89.2841V39.9108C89.0826 40.2361 88.912 40.4995 88.757 40.7164L87.5012 38.5319C87.9508 37.7262 88.4624 36.5333 88.974 34.922C89.3461 33.7755 89.6407 32.598 89.9042 31.405H88.2609V29.112H94.8808L94.8963 29.0965ZM92.8499 43.3348V38.1755H91.5631V43.3348H92.8499ZM101.175 36.7347H98.6171V37.8347H101.175V36.7347ZM101.175 40.0347H98.6171V41.2277H101.175V40.0347ZM101.175 44.5278V43.4278H98.6171V44.5278H101.175Z" fill="#595757"/>
<path d="M117.593 31.3122V33.6826H109.718V31.3122H117.593ZM116.834 43.18C117.159 42.2194 117.376 41.2898 117.5 40.3757L119.717 40.8715C119.5 42.6688 119.02 44.342 118.291 45.8913L116.834 45.1322V47.5801H114.555V46.821H112.431V47.5801H110.152V40.1124H116.834V43.18ZM116.601 37.2461V39.5391H110.307V37.2461H116.601ZM116.663 34.3488V36.6418H110.384V34.3488H116.663ZM116.601 28.4304V30.7079H110.648V28.4304H116.601ZM114.555 44.528V42.4828H112.431V44.528H114.555ZM128.725 28.5234C128.725 33.946 128.461 36.9207 127.95 37.463C127.562 38.1137 126.849 38.4391 125.841 38.4391C125.391 38.4391 124.849 38.3461 124.229 38.1757L123.733 35.8052C124.446 36.0221 125.081 36.1306 125.593 36.1306C125.795 36.1306 125.934 35.9756 126.027 35.6503C126.12 35.2629 126.198 33.6516 126.26 30.7854H124.585C124.461 32.1333 124.244 33.1714 123.919 33.8686C123.485 34.8446 122.849 35.7278 121.981 36.5334C121.004 37.4475 119.965 38.1757 118.88 38.7489L117.516 36.8123C118.43 36.2855 119.268 35.6813 120.058 34.9686L120.167 34.8601C119.516 34.4263 118.803 34.008 118.043 33.6671L119.066 31.5446C120.058 31.9319 120.957 32.3502 121.717 32.784C121.934 32.3037 122.105 31.6375 122.213 30.7854H118.399V28.5079H128.74L128.725 28.5234ZM122.089 39.8645C121.888 39.5546 121.702 39.2292 121.5 38.9349L123.454 37.7574C124.322 38.8419 125.019 40.0194 125.577 41.2279L123.361 42.4828C123.081 41.7391 122.725 41.011 122.337 40.2828V44.342C122.337 44.8688 122.461 45.1167 122.756 45.1477C122.88 45.1942 123.066 45.1942 123.283 45.1942C123.764 45.1942 124.043 45.1787 124.136 45.1012C124.229 45.0082 124.291 44.8378 124.306 44.6054C124.322 44.497 124.353 44.0632 124.399 43.3195L126.678 44.6054C126.585 45.8604 126.399 46.6505 126.089 46.9759C125.888 47.1308 125.609 47.2393 125.267 47.3012C125.035 47.3632 124.384 47.4097 123.299 47.4097C122.74 47.4097 122.229 47.3632 121.795 47.3168C120.585 47.2548 119.996 46.5111 119.996 45.1012V39.849H122.105L122.089 39.8645ZM129.391 44.1871L127.112 45.1167C126.725 43.7223 126.244 42.4983 125.655 41.3983L127.872 40.3757C128.477 41.5532 128.973 42.8082 129.391 44.1716V44.1871Z" fill="#595757"/>
<path d="M133.205 31.8078V28.0739H135.422V31.8078H136.771V33.9304H135.422V35.1079C136.244 35.8826 136.957 36.6263 137.592 37.3389L137.437 36.4713C137.763 36.4713 138.089 36.4713 138.399 36.4558C138.833 35.7896 139.22 35.1389 139.577 34.4882C138.755 33.8529 137.887 33.3107 136.941 32.8459L138.135 31.3275C138.259 31.4205 138.368 31.4825 138.507 31.529C139.096 30.3825 139.592 29.2359 140.011 28.1049L141.887 28.9571C141.236 30.305 140.647 31.467 140.104 32.4585C140.228 32.5515 140.368 32.629 140.492 32.7219C140.771 32.1332 141.034 31.5754 141.267 31.0022L142.926 31.7459C142.864 30.6458 142.817 29.4684 142.817 28.2134L145.096 28.043C145.096 29.5148 145.112 30.8472 145.158 32.0557L145.437 31.529C145.53 31.5909 145.639 31.6529 145.716 31.6994C146.243 30.5064 146.677 29.3134 147.034 28.1204L148.894 28.9726C148.29 30.4444 147.747 31.6839 147.251 32.7064C147.375 32.8304 147.515 32.9389 147.639 33.0318C148.011 32.2107 148.336 31.405 148.631 30.5994L150.507 31.4515C150.057 32.4431 149.623 33.3417 149.204 34.1628L150.073 33.8994C150.507 34.984 150.848 36.1615 151.096 37.4629L149.406 37.9587C149.36 37.7573 149.344 37.5713 149.298 37.3699C148.987 37.4939 148.708 37.5868 148.445 37.6333C148.925 37.9432 149.36 38.2375 149.747 38.5629L149.142 39.2291H150.863V41.2742H146.476C146.6 41.7545 146.786 42.2038 146.957 42.6221C147.22 42.2813 147.484 41.9095 147.716 41.5221L149.67 42.4517C149.142 43.3813 148.6 44.1715 148.042 44.7912C148.274 45.1631 148.476 45.3335 148.646 45.3335C148.693 45.3335 148.739 45.2405 148.801 45.0701C148.894 44.8067 148.956 44.4349 149.003 43.9856L151.111 44.8377C150.739 46.0772 150.29 46.8828 149.763 47.2546C149.422 47.518 149.018 47.642 148.569 47.642C147.933 47.642 147.282 47.2237 146.631 46.4335C146.569 46.3405 146.507 46.2786 146.46 46.2011C145.592 46.8053 144.616 47.3011 143.577 47.7349L142.476 45.7828C143.67 45.349 144.631 44.8532 145.36 44.2799C144.941 43.3968 144.6 42.3897 144.321 41.2897H141.251C141.236 41.5996 141.205 41.8475 141.205 42.0954C142.228 42.6221 143.112 43.0869 143.902 43.5672L142.647 45.349C142.057 44.9152 141.468 44.5278 140.895 44.156C140.802 44.4659 140.74 44.7447 140.678 44.9616C140.368 45.9997 139.933 46.9138 139.329 47.7349L137.313 46.449C137.841 45.7828 138.244 45.0236 138.554 44.125C138.771 43.3813 138.941 42.4362 139.034 41.2897H137.561V39.2446H143.84C143.732 38.7953 143.639 38.3305 143.561 37.8502L142.057 38.2995C142.011 38.0981 141.995 37.9277 141.964 37.7572C140.755 38.1911 139.36 38.4235 137.81 38.4699L137.717 37.9742L136.461 39.7249C136.12 39.1362 135.763 38.5939 135.438 38.0981V47.7194H133.221V40.4066C132.957 41.2278 132.678 41.9869 132.368 42.6996L131.019 41.0108C131.453 40.1432 131.903 38.9347 132.383 37.3699C132.693 36.3783 132.972 35.3248 133.205 34.2248V33.9924H131.422V31.8698H133.205V31.8078ZM141.298 35.1544C141.081 35.5262 140.879 35.8671 140.693 36.1769C141.003 36.1305 141.282 36.053 141.546 35.96C141.453 35.6967 141.391 35.4178 141.313 35.1544H141.298ZM142.926 32.1797C142.445 33.0938 142.011 33.9304 141.577 34.6741L142.709 34.3487C142.926 34.9065 143.096 35.5262 143.267 36.1305C143.096 34.922 142.988 33.6206 142.926 32.1797ZM146.693 38.6869L147.453 37.7728C146.926 37.8657 146.429 37.8967 145.933 37.8967L145.592 36.022C145.794 36.022 145.98 36.022 146.181 36.0065C146.445 35.5572 146.677 35.0924 146.895 34.6121C146.336 34.1783 145.763 33.791 145.251 33.4346C145.375 35.6192 145.623 37.4319 145.918 38.8418C145.933 38.9657 145.964 39.0742 145.98 39.1671H147.437C147.174 38.9967 146.941 38.8263 146.693 38.6714V38.6869ZM148.724 35.0769C148.6 35.3403 148.46 35.5572 148.352 35.7741C148.553 35.7586 148.724 35.7121 148.894 35.6657C148.832 35.4643 148.77 35.2783 148.724 35.0769Z" fill="#595757"/>
<path d="M158.987 44.7913C157.669 45.7674 156.073 46.5886 154.228 47.2393L152.941 44.9618C154.46 44.5434 155.856 43.9857 157.111 43.273L158.987 44.7913ZM172.305 40.7166V43.0096H164.072V44.528C164.072 45.7674 163.855 46.5731 163.437 46.9139C162.987 47.3477 162.196 47.5801 161.096 47.5801C160.615 47.5801 160.165 47.4872 159.747 47.3168L159.313 44.7758C159.902 45.0547 160.491 45.1942 161.096 45.1942C161.437 45.1942 161.623 44.8533 161.623 44.1096V43.0096H153.127V40.7166H172.305ZM172.134 28.4304V30.7079H166.212V31.4826H171.033V37.2306H154.414V31.4826H159.142V30.7079H153.22V28.4304H172.134ZM170.088 37.8503V40.0504H155.499V37.8503H170.088ZM159.142 34.9686V33.7756H156.863V34.9686H159.142ZM163.809 30.7079H161.53V31.4826H163.809V30.7079ZM161.53 34.9686H163.809V33.7756H161.53V34.9686ZM169.638 44.404C170.398 44.6674 171.142 44.8843 171.871 45.0547L170.522 47.4252C169.7 47.1463 168.894 46.8209 168.119 46.4491C167.189 45.9998 166.32 45.5195 165.514 44.9772L167.375 43.4434C168.088 43.8308 168.847 44.1561 169.638 44.4195V44.404ZM166.196 34.9686H168.568V33.7756H166.196V34.9686Z" fill="#595757"/>
<path d="M61.8739 69.6267C61.7189 70.2929 61.3933 70.8197 60.9127 71.1606C60.4786 71.393 60.029 71.5014 59.5484 71.5014C58.8352 71.5014 58.0756 71.393 57.2539 71.1606L56.7578 68.5267C57.471 68.8366 58.2151 68.9605 58.9438 68.9605C59.2228 68.9605 59.4244 68.8056 59.5329 68.4647C59.75 67.5816 59.905 65.9703 60.0135 63.6618L55.8276 64.6844V72.2606H53.3471V65.2886L49.5487 66.2182V73.2677C49.5487 73.8254 49.9208 74.1198 50.6805 74.1198C51.4557 74.1818 53.006 74.2127 55.3005 74.2127C57.471 74.2127 58.7577 74.1663 59.1918 74.0578C59.75 74.0113 60.2616 73.9649 60.7422 73.8874C61.0832 73.7789 61.3778 72.9733 61.5949 71.5014L64.1529 72.6014C63.8428 74.4451 63.3932 75.5452 62.8041 75.9635C62.153 76.2734 60.8972 76.4903 59.0523 76.5677C58.1376 76.6142 56.8973 76.6297 55.316 76.6607C51.7037 76.6607 49.8278 76.6142 49.6108 76.5522C47.8744 76.5058 47.0062 75.5916 47.0062 73.8564V66.8534L45.0683 67.3337L44.4636 65.1492L47.0062 64.452V59.5406H49.5642V63.7548L53.3626 62.7322V57.6814H55.8431V62.066L62.4475 60.3153C62.4475 64.39 62.246 67.5042 61.9049 69.6267H61.8739Z" fill="#595757"/>
<path d="M70.3855 63.1198L68.7576 65.1649C67.905 64.2353 67.0368 63.4297 66.1221 62.779L67.7499 61.0902C68.7111 61.6789 69.5793 62.3451 70.37 63.1353L70.3855 63.1198ZM70.8971 66.4199V72.958C71.8118 73.6243 72.8815 73.9961 74.0908 74.0891C74.9745 74.2595 77.1915 74.3215 80.7418 74.3215C82.8037 74.3215 84.5556 74.1975 85.9974 73.8877C85.5478 74.7553 85.1757 75.6694 84.9122 76.6919H78.4628C76.1528 76.6919 74.3079 76.5215 72.9281 76.1652C71.9358 75.9018 70.9281 75.3595 69.9669 74.5539C69.2227 75.406 68.5096 76.2426 67.7809 77.1103C67.2383 76.2271 66.6957 75.3905 66.1531 74.6313C66.9593 74.244 67.7654 73.8102 68.5406 73.3764V68.7903H66.1531V66.4044H70.9126L70.8971 66.4199ZM72.0909 59.5564L70.4785 61.6015C69.6103 60.6719 68.6956 59.8662 67.7654 59.2155L69.3778 57.5267C70.37 58.1155 71.2692 58.7817 72.0909 59.5718V59.5564ZM76.5868 58.2859C76.3698 58.8282 76.1527 59.3085 75.9512 59.7423H78.2922C78.5093 59.0451 78.6798 58.3169 78.8504 57.5267L81.3929 58.2859C81.2224 58.8127 81.0518 59.3085 80.8658 59.7423H85.1292V61.9268H80.8968V63.4607H84.4626V65.6452H80.8968V67.1016H84.4626V69.2861H80.8968V71.0679H85.2222V73.2834H73.0986V64.4987C72.835 64.8396 72.556 65.1649 72.2459 65.4748L70.1995 63.9564C71.0677 62.9959 71.8428 62.0198 72.494 60.9817C73.2381 59.8042 73.8118 58.6422 74.2458 57.5112L76.5403 58.2704L76.5868 58.2859ZM78.5403 61.9268H75.4861V63.4607H78.5403V61.9268ZM78.5403 65.6607H75.4861V67.1171H78.5403V65.6607ZM78.5403 69.3016H75.4861V71.0834H78.5403V69.3016Z" fill="#595757"/>
<path d="M93.8729 58.5335C93.3768 59.4166 92.7256 60.3307 91.9194 61.2448C90.8187 62.3759 89.904 63.1815 89.2063 63.6308L87.594 61.5082C88.3382 60.9815 89.1133 60.3152 89.935 59.4941C90.6482 58.7504 91.2218 58.0222 91.6559 57.2786L93.8729 58.5335ZM95.3147 63.2125C94.71 64.3435 93.9039 65.49 92.8651 66.6675V77.1255H90.3846V68.9915C90.0435 69.2704 89.7334 69.4873 89.4699 69.6577L87.749 67.4422C88.7257 66.776 89.749 65.9083 90.8342 64.8238C91.7954 63.8632 92.5241 62.8871 93.0977 61.942L95.3147 63.228V63.2125ZM107.454 63.8787V66.3576H103.283V73.9803C103.283 75.2353 103.02 76.0564 102.539 76.4283C102.012 76.8776 101.113 77.1255 99.7951 77.1255C98.7564 77.1255 97.7952 77.0325 96.9115 76.8621L96.4929 74.2282C97.5782 74.5071 98.6944 74.6466 99.7951 74.6466C100.4 74.6466 100.725 74.3057 100.725 73.562V66.3576H95.1286V63.8787H107.438H107.454ZM106.431 58.2082V60.5786H96.2449V58.2082H106.431Z" fill="#595757"/>
<path d="M128.229 58.2085V60.486C126.182 62.4382 123.779 64.1269 121.02 65.5368V73.6088C121.02 74.9102 120.849 75.7624 120.539 76.2272C120.151 76.7539 119.454 77.0018 118.462 77.0018C117.283 77.0018 116.183 76.9089 115.159 76.7384L114.741 74.1201C115.826 74.3525 116.942 74.4609 118.043 74.4609C118.136 74.4609 118.198 74.368 118.244 74.1511C118.291 73.9187 118.306 73.5158 118.306 73.0046V63.4297H119.5C121.237 62.6241 122.818 61.6945 124.26 60.6254H110.756V58.1775H128.244L128.229 58.2085Z" fill="#595757"/>
<path d="M150.693 73.8878C150.693 75.8555 149.809 76.8625 148.057 76.8625H146.523L146.026 74.3216C146.771 74.4456 147.437 74.4921 148.073 74.4921C148.336 74.4921 148.491 74.1047 148.491 73.2991V60.1453H141.375V77.033H139.174V73.9033L137.127 74.554C136.972 73.0357 136.755 71.6723 136.461 70.4018L138.399 69.8131C138.724 70.9441 138.988 72.1526 139.174 73.454V68.5426L137.127 69.1934C137.081 68.868 137.019 68.5426 136.972 68.2173C136.74 68.2792 136.492 68.3412 136.275 68.3877V77.0949H134.151V68.8525C133.345 69.0229 132.523 69.1624 131.701 69.2863L131.267 66.8384C131.763 66.7919 132.244 66.7454 132.678 66.6834C133.112 66.0482 133.5 65.4285 133.903 64.7778C132.988 64.0341 132.058 63.2749 131.097 62.5157L132.461 60.827C132.554 60.8889 132.616 60.9509 132.694 60.9974C133.345 59.8664 133.934 58.7199 134.414 57.5889L136.523 58.5185C135.779 59.9903 135.112 61.2298 134.461 62.2524C134.662 62.4228 134.849 62.5777 135.066 62.7017C135.5 61.8805 135.918 61.0284 136.275 60.2072L138.554 61.2298C137.856 62.5157 137.19 63.6777 136.554 64.7468L138.058 64.2975C138.538 65.4904 138.91 66.7919 139.158 68.2018V57.9297H150.693V73.8568V73.8878ZM133.965 70.4948C133.686 72.4469 133.407 74.1047 133.112 75.4217L131.066 74.8174C131.391 73.2061 131.655 71.6103 131.841 69.999L133.949 70.4948H133.965ZM136.228 65.3045C135.996 65.6919 135.779 66.0482 135.577 66.3426C135.903 66.2961 136.213 66.2496 136.507 66.1877C136.414 65.8778 136.306 65.5834 136.228 65.3045ZM144.91 62.7791L143.716 63.4763H144.848C145.298 62.4848 145.608 61.4777 145.763 60.5016L147.98 60.9974C147.825 61.865 147.561 62.6862 147.205 63.4763H148.166V65.4905H146.042V67.0243H148.166V69.0694H144.678V70.6807C144.678 71.2075 144.833 71.4554 145.158 71.5018C145.375 71.5948 145.747 71.6103 146.259 71.6103C146.771 71.6103 147.298 71.5173 147.825 71.3469V73.4695C147.298 73.6399 146.786 73.7019 146.259 73.7019C145.732 73.7019 145.112 73.6864 144.368 73.6399C143.112 73.5934 142.476 72.7723 142.476 71.161V69.0539H141.716V67.0088H143.763V65.4749H141.716V63.4608H142.693C142.43 62.9031 142.151 62.3763 141.81 61.8495L143.67 60.6565C144.197 61.3227 144.6 62.0199 144.926 62.7636L144.91 62.7791Z" fill="#595757"/>
<path d="M161.266 58.0378V62.5773C161.964 61.8181 162.522 61.0435 162.956 60.2068C163.498 59.2463 163.933 58.3012 164.243 57.3406L166.785 57.9448C166.661 58.3321 166.506 58.704 166.351 59.0448H171.715V61.3224C171.049 62.7942 170.149 64.0647 169.064 65.1027C170.258 65.7999 171.56 66.3422 172.971 66.745L171.87 69.1155C171.746 69.069 171.638 69.0535 171.545 69.007V77.0171H169.157V76.2579H164.506V76.9241H162.119V69.131C161.964 69.1929 161.84 69.2394 161.7 69.2859L161.002 67.7211V69.7972H159.065V73.1747C159.824 73.0508 160.568 72.8958 161.266 72.7409L161.607 74.8635C159.173 75.5142 156.506 76.1185 153.545 76.6452L152.693 74.1973C153.018 74.1508 153.328 74.1043 153.623 74.0733V67.0859H155.995V73.7325C156.212 73.686 156.444 73.6705 156.662 73.624V65.552H153.623V58.0223H161.25L161.266 58.0378ZM158.909 63.29V60.3153H156.026V63.29H158.909ZM160.77 67.1943C162.413 66.6366 163.809 65.9858 164.987 65.2422C164.46 64.7154 164.01 64.1576 163.591 63.5069C163.281 63.8478 162.956 64.1731 162.63 64.483L161.266 62.9646V65.5675H159.065V67.5197H160.909L160.754 67.1943H160.77ZM170.863 68.8056C169.39 68.3098 168.057 67.6591 166.847 66.838C165.715 67.5817 164.444 68.2479 163.002 68.8056H170.863ZM169.157 73.9649V71.0831H164.506V73.9649H169.157ZM167.064 63.6774C167.886 62.9182 168.522 62.1125 169.002 61.2449H165.219C165.173 61.3379 165.126 61.3998 165.111 61.4463C165.669 62.3139 166.336 63.0576 167.064 63.6774Z" fill="#595757"/>
<path d="M179.917 58.2858C179.142 59.8041 178.397 61.1365 177.7 62.2521C177.963 62.4225 178.18 62.5929 178.397 62.7478C178.986 61.6633 179.529 60.5943 180.01 59.5562L182.397 60.5788C181.653 61.8957 180.94 63.0887 180.273 64.1887L181.886 63.7084C182.428 65.1028 182.862 66.6367 183.172 68.2944L180.955 68.9916C180.909 68.7128 180.862 68.4339 180.831 68.1395C180.521 68.186 180.227 68.2325 179.948 68.248V76.9552H177.669V68.4959C176.8 68.5888 175.917 68.6663 175.033 68.7282L174.599 66.4352C175.157 66.4198 175.7 66.3888 176.227 66.3733C176.552 65.893 176.863 65.3972 177.157 64.9169C176.196 64.1732 175.25 63.4141 174.273 62.6394L175.7 60.8577C175.7 60.8577 175.808 60.9506 175.855 60.9661C176.552 59.7267 177.157 58.5182 177.653 57.2942L179.932 58.2858H179.917ZM177.452 70.2311C177.188 72.3382 176.956 74.0889 176.692 75.4833L174.475 74.8171C174.801 73.1284 175.064 71.4241 175.25 69.7353L177.436 70.2311H177.452ZM179.963 64.6535C179.622 65.2113 179.297 65.7225 178.986 66.1873C179.467 66.1719 179.948 66.1409 180.397 66.0944C180.273 65.5676 180.118 65.1028 179.963 64.638V64.6535ZM188.924 57.8675C188.8 58.3013 188.645 58.6886 188.475 59.0604H193.575V67.4423H189.777V69.2705C189.885 69.4409 190.009 69.6114 190.149 69.7973C191.079 69.379 191.994 68.8367 192.909 68.155L194.366 70.0917C193.513 70.6959 192.614 71.1762 191.653 71.5635C192.521 72.4776 193.544 73.2213 194.691 73.7326L193.436 76.1186C192.521 75.6383 191.637 74.9875 190.785 74.1509C190.443 73.8255 190.087 73.4382 189.792 73.0044V73.996C189.792 75.1425 189.622 75.9326 189.312 76.3355C188.924 76.8158 188.227 77.0481 187.234 77.0481C186.537 77.0481 185.916 76.8932 185.296 76.6143L184.986 75.003C184.459 75.4988 183.901 75.9636 183.343 76.3509L181.979 74.4143C181.979 74.4143 182.087 74.3678 182.134 74.3213L181.048 74.6467C180.878 73.0044 180.63 71.5015 180.289 70.1536L182.335 69.5649C182.707 70.8043 182.986 72.1523 183.203 73.5777C183.731 73.1903 184.18 72.7255 184.568 72.2297C185.002 71.6875 185.374 71.1607 185.637 70.6649H183.017V68.5423H187.42V67.4423H183.358V59.0604H186.025C186.227 58.5027 186.366 57.9294 186.475 57.3407L188.955 57.8675H188.924ZM186.707 73.0199C186.32 73.5777 185.901 74.0579 185.482 74.4918C185.963 74.6622 186.413 74.7241 186.878 74.7241C187.079 74.7241 187.203 74.6312 187.265 74.4608C187.327 74.2284 187.374 73.8565 187.374 73.3762V71.8734C187.157 72.2607 186.94 72.648 186.707 73.0044V73.0199ZM191.203 62.1901V61.1675H185.684V62.1901H191.203ZM191.203 65.3352V64.2352H185.684V65.3352H191.203Z" fill="#595757"/>
<path d="M206.552 57.7747V63.6931H214.52V66.172H206.552V74.2285H215.451V76.6765H196.8V74.2285H203.916V57.7747H206.536H206.552Z" fill="#595757"/>
<path d="M221.807 59.4786V57.6194H224.195V59.4786H227.404V61.6941H224.195V63.2125H227.838V65.428H226.753C226.536 66.2027 226.303 66.8999 226.008 67.5351H227.404V69.7506H224.195V71.0985H227.838V73.3141H224.195V77.048H221.807V73.3141H218.241V71.0985H221.807V69.7506H218.675V67.5351H219.978C219.776 66.9308 219.559 66.3576 219.342 65.8463L220.21 65.428H218.148V63.2125H221.791V61.6941H218.66V59.4786H221.791H221.807ZM223.59 67.5196C223.853 66.8224 224.086 66.1097 224.288 65.4125H221.59C221.869 65.9548 222.117 66.5125 222.334 67.1013L221.357 67.5196H223.59ZM236.985 58.0377V62.3603C236.985 64.1111 236.132 64.9942 234.442 64.9942H232.83L232.334 62.5462C232.892 62.6702 233.372 62.7167 233.76 62.7167C234.194 62.7167 234.427 62.4533 234.427 61.942V60.3307H230.535V65.49H237.403V67.2097C236.861 69.6887 236.21 71.5943 235.45 72.9577C236.101 73.7324 236.845 74.4141 237.667 75.0029L235.977 77.1254C235.233 76.5212 234.582 75.8395 233.977 75.0803C233.217 75.948 232.365 76.6451 231.466 77.1254L230.551 75.3437V77.1254H228.163V58.0532H236.985V58.0377ZM232.551 72.9732C232.551 72.9732 232.489 72.8648 232.458 72.8028C231.636 71.2845 231.047 69.5957 230.721 67.7055H230.551V74.6775C231.326 74.2437 231.977 73.6859 232.551 72.9887V72.9732ZM233.946 70.6337C234.334 69.7661 234.644 68.79 234.907 67.7055H232.969C233.186 68.79 233.512 69.7661 233.946 70.6337Z" fill="#595757"/>
<path d="M244.116 68.6355V66.6833H246.659V68.6355H250.302V71.0834H246.659V73.5778C248.023 73.4539 249.325 73.299 250.55 73.1285L250.984 75.3441C247.946 75.9018 244.581 76.4286 240.892 76.8624L239.961 74.2286C241.419 74.1046 242.799 73.9652 244.132 73.8412V71.0834H240.628V68.6355H244.132H244.116ZM250.984 58.131V60.5015H245.775L244.519 63.8481C245.651 63.7551 246.69 63.6776 247.682 63.5692C247.419 63.1199 247.14 62.6551 246.829 62.2058L249.015 60.8578C250.054 62.3762 250.907 63.9875 251.558 65.6763L249.279 67.0397C249.108 66.5594 248.907 66.1101 248.721 65.6453C246.209 66.0791 243.465 66.42 240.473 66.6833L240.039 64.1424C240.644 64.1269 241.233 64.0805 241.791 64.034L243.14 60.5015H240.303V58.131H250.984ZM254.628 59.9902V72.3539H252.085V59.9902H254.628ZM258.86 57.4338V73.7173C258.86 74.9722 258.705 75.7934 258.426 76.2737C258.054 76.7695 257.403 77.0328 256.488 77.0328C255.496 77.0328 254.55 76.9399 253.682 76.7695L253.248 74.2286C254.209 74.4455 255.186 74.5539 256.131 74.5539C256.193 74.5539 256.24 74.461 256.255 74.275C256.271 74.0426 256.302 73.6398 256.302 73.1285V57.4338H258.845H258.86Z" fill="#595757"/>
<defs>
<linearGradient id="paint0_linear_20_204369" x1="239.992" y1="222.453" x2="239.992" y2="390.71" gradientUnits="userSpaceOnUse">
<stop stop-color="white"/>
<stop offset="1" stop-color="white" stop-opacity="0.6"/>
</linearGradient>
</defs>
</svg>
