<svg width="482" height="454" viewBox="0 0 482 454" fill="none" xmlns="http://www.w3.org/2000/svg">
<path opacity="0.8" d="M436.87 0H43.1304C19.3101 0 0 19.2976 0 43.1024V410.898C0 434.702 19.3101 454 43.1304 454H436.87C460.69 454 480 434.702 480 410.898V43.1024C480 19.2976 460.69 0 436.87 0Z" fill="url(#paint0_linear_76_87945)"/>
<path d="M51.6196 34.4221V22.7846H47.2832V21.2212H57.7407V22.7846H53.3748V34.4221H51.6343H51.6196Z" fill="#595757"/>
<path d="M58.6256 34.4221V24.8643H60.0858V26.3098C60.4545 25.6313 60.7938 25.1888 61.1183 24.9676C61.428 24.7463 61.782 24.6431 62.1507 24.6431C62.6965 24.6431 63.257 24.8201 63.8174 25.1593L63.257 26.6638C62.8587 26.4278 62.4605 26.3098 62.0622 26.3098C61.7083 26.3098 61.3838 26.413 61.1035 26.6343C60.8233 26.8408 60.6168 27.1357 60.4988 27.5192C60.3218 28.0945 60.2333 28.7287 60.2333 29.4072V34.4073H58.6108L58.6256 34.4221Z" fill="#595757"/>
<path d="M71.0152 33.2421C70.4104 33.7583 69.8352 34.1123 69.2895 34.3188C68.729 34.5253 68.139 34.6285 67.5048 34.6285C66.4576 34.6285 65.6463 34.3778 65.0858 33.8616C64.5254 33.3453 64.2451 32.6963 64.2451 31.8999C64.2451 31.4279 64.3484 31.0001 64.5696 30.6167C64.7761 30.2332 65.0563 29.9234 65.4103 29.6874C65.7643 29.4514 66.1478 29.2744 66.5756 29.1564C66.9 29.0679 67.372 28.9942 68.021 28.9205C69.3337 28.7582 70.2925 28.5812 70.9119 28.36C70.9119 28.1387 70.9119 27.9912 70.9119 27.9322C70.9119 27.2685 70.7644 26.8113 70.4547 26.531C70.0417 26.1623 69.4222 25.9853 68.611 25.9853C67.844 25.9853 67.2835 26.118 66.9295 26.3835C66.5608 26.649 66.2953 27.121 66.1183 27.7995L64.5401 27.5782C64.6876 26.8998 64.9236 26.354 65.2481 25.941C65.5726 25.528 66.0593 25.2036 66.6788 24.9823C67.2983 24.7611 68.021 24.6431 68.847 24.6431C69.673 24.6431 70.322 24.7316 70.8382 24.9381C71.3544 25.1298 71.7232 25.3658 71.9592 25.6608C72.1952 25.9558 72.3721 26.3245 72.4606 26.767C72.5196 27.0473 72.5491 27.5487 72.5491 28.2567V30.4102C72.5491 31.9146 72.5786 32.8733 72.6524 33.2716C72.7261 33.6698 72.8589 34.0533 73.0654 34.4221H71.3692C71.2069 34.0828 71.0889 33.6993 71.0447 33.2421H71.0152ZM70.8824 29.6284C70.2925 29.8644 69.4075 30.0709 68.2423 30.2332C67.5785 30.3364 67.1065 30.4397 66.8263 30.5577C66.5461 30.6757 66.3396 30.8526 66.1921 31.0886C66.0446 31.3246 65.9708 31.5754 65.9708 31.8556C65.9708 32.2834 66.1331 32.6521 66.4576 32.9323C66.782 33.2273 67.2688 33.3601 67.8883 33.3601C68.5078 33.3601 69.0682 33.2273 69.555 32.9471C70.0417 32.6816 70.3957 32.2981 70.6317 31.8261C70.8087 31.4574 70.8972 30.9264 70.8972 30.2037V29.6137L70.8824 29.6284Z" fill="#595757"/>
<path d="M75.0273 34.4221V24.8643H76.4876V26.2213C77.1955 25.1741 78.1985 24.6431 79.526 24.6431C80.1012 24.6431 80.6322 24.7463 81.1189 24.9528C81.6057 25.1593 81.9597 25.4248 82.2104 25.764C82.4464 26.1033 82.6234 26.5015 82.7119 26.9588C82.7709 27.2537 82.8004 27.7847 82.8004 28.537V34.4221H81.1779V28.6107C81.1779 27.947 81.1189 27.4602 80.9862 27.1357C80.8534 26.8113 80.6322 26.5458 80.3225 26.354C79.998 26.1623 79.6292 26.059 79.1867 26.059C78.4935 26.059 77.9035 26.2803 77.402 26.7228C76.9005 27.1652 76.6498 27.9912 76.6498 29.2154V34.4368H75.0273V34.4221Z" fill="#595757"/>
<path d="M84.644 31.5755L86.2517 31.3248C86.3402 31.959 86.591 32.4605 87.004 32.7997C87.417 33.139 87.9922 33.316 88.7297 33.316C89.4672 33.316 90.0276 33.1685 90.3816 32.8587C90.7356 32.549 90.9274 32.195 90.9274 31.7968C90.9274 31.428 90.7651 31.1478 90.4554 30.9265C90.2341 30.779 89.6737 30.602 88.8034 30.3808C87.6087 30.0858 86.7975 29.8203 86.3255 29.5991C85.8683 29.3778 85.5143 29.0828 85.2783 28.6846C85.0423 28.3011 84.9243 27.8734 84.9243 27.4014C84.9243 26.9736 85.0275 26.5754 85.2193 26.2214C85.411 25.8527 85.6765 25.5577 86.0158 25.3217C86.2665 25.1299 86.6057 24.9825 87.0482 24.8497C87.476 24.717 87.948 24.658 88.4494 24.658C89.2017 24.658 89.8654 24.7612 90.4259 24.9825C90.9864 25.2037 91.4141 25.4839 91.6796 25.8674C91.9451 26.2362 92.1368 26.7377 92.2401 27.3424L90.6619 27.5636C90.5881 27.0769 90.3816 26.6934 90.0424 26.4132C89.7032 26.1329 89.2164 26.0002 88.5822 26.0002C87.8447 26.0002 87.3137 26.1182 86.9892 26.3689C86.6647 26.6197 86.5172 26.8999 86.5172 27.2391C86.5172 27.4456 86.5762 27.6374 86.709 27.7996C86.8417 27.9766 87.0482 28.1241 87.3285 28.2274C87.4907 28.2864 87.9627 28.4191 88.7592 28.6404C89.9096 28.9501 90.7061 29.2008 91.1634 29.3926C91.6206 29.5843 91.9746 29.8646 92.2253 30.2481C92.4761 30.6168 92.6088 31.0888 92.6088 31.6345C92.6088 32.1803 92.4466 32.6817 92.1368 33.1537C91.8271 33.6257 91.3699 33.9945 90.7799 34.2599C90.1899 34.5254 89.5114 34.6582 88.7592 34.6582C87.5202 34.6582 86.5762 34.4074 85.9125 33.8912C85.2635 33.375 84.8505 32.608 84.6588 31.5903L84.644 31.5755Z" fill="#595757"/>
<path d="M94.5114 38.0947V24.8643H95.9864V26.1033C96.3404 25.6165 96.7239 25.2478 97.1664 25.0118C97.6088 24.7758 98.1398 24.6431 98.7593 24.6431C99.5705 24.6431 100.293 24.8496 100.913 25.2773C101.532 25.6903 102.004 26.295 102.329 27.062C102.653 27.829 102.801 28.6697 102.801 29.5842C102.801 30.5577 102.624 31.4426 102.27 32.2244C101.916 33.0061 101.414 33.6108 100.736 34.0238C100.057 34.4368 99.3641 34.6433 98.6266 34.6433C98.0808 34.6433 97.6088 34.5253 97.1664 34.3041C96.7386 34.0828 96.3846 33.7878 96.1044 33.4338V38.0947H94.4819H94.5114ZM95.9716 29.7022C95.9716 30.9264 96.2224 31.8409 96.7239 32.4309C97.2254 33.0208 97.8301 33.3158 98.5381 33.3158C99.2461 33.3158 99.8803 33.0061 100.382 32.4014C100.898 31.7966 101.149 30.8526 101.149 29.5694C101.149 28.2862 100.898 27.4455 100.397 26.826C99.895 26.2213 99.2903 25.9115 98.5971 25.9115C97.9038 25.9115 97.2991 26.236 96.7681 26.885C96.2371 27.534 95.9716 28.4632 95.9716 29.7022Z" fill="#595757"/>
<path d="M104.158 29.6432C104.158 27.8732 104.644 26.5605 105.633 25.705C106.459 24.9971 107.462 24.6431 108.642 24.6431C109.954 24.6431 111.031 25.0708 111.872 25.941C112.712 26.8113 113.125 27.9912 113.125 29.5104C113.125 30.7347 112.934 31.7081 112.565 32.4161C112.196 33.1241 111.665 33.6698 110.957 34.0533C110.249 34.4368 109.482 34.6433 108.642 34.6433C107.299 34.6433 106.223 34.2156 105.397 33.3601C104.571 32.5046 104.158 31.2656 104.158 29.6579V29.6432ZM105.824 29.6432C105.824 30.8674 106.09 31.7819 106.621 32.3866C107.152 32.9913 107.83 33.3011 108.642 33.3011C109.453 33.3011 110.117 32.9913 110.648 32.3866C111.179 31.7819 111.444 30.8379 111.444 29.5842C111.444 28.4042 111.179 27.5045 110.633 26.8998C110.102 26.295 109.423 25.9853 108.627 25.9853C107.83 25.9853 107.152 26.2803 106.606 26.8998C106.075 27.5045 105.81 28.419 105.81 29.6432H105.824Z" fill="#595757"/>
<path d="M114.999 34.4221V24.8643H116.459V26.3098C116.828 25.6313 117.167 25.1888 117.491 24.9676C117.801 24.7463 118.155 24.6431 118.524 24.6431C119.07 24.6431 119.63 24.8201 120.19 25.1593L119.63 26.6638C119.232 26.4278 118.834 26.3098 118.435 26.3098C118.081 26.3098 117.757 26.413 117.477 26.6343C117.196 26.8408 116.99 27.1357 116.872 27.5192C116.695 28.0945 116.606 28.7287 116.606 29.4072V34.4073H114.984L114.999 34.4221Z" fill="#595757"/>
<path d="M124.689 32.9767L124.925 34.4074C124.468 34.4959 124.055 34.5549 123.701 34.5549C123.111 34.5549 122.654 34.4664 122.329 34.2747C122.005 34.0829 121.783 33.8469 121.651 33.5372C121.518 33.2274 121.459 32.5932 121.459 31.6197V26.1181H120.264V24.8644H121.459V22.5045L123.067 21.531V24.8644H124.689V26.1181H123.067V31.7082C123.067 32.1655 123.096 32.4605 123.155 32.5932C123.214 32.726 123.303 32.8292 123.435 32.9029C123.568 32.9767 123.745 33.0209 123.996 33.0209C124.173 33.0209 124.409 33.0062 124.704 32.9619L124.689 32.9767Z" fill="#595757"/>
<path d="M131.4 23.0944V21.2212H133.023V23.0796H131.4V23.0944ZM131.4 34.4221V24.8643H133.023V34.4221H131.4Z" fill="#595757"/>
<path d="M134.852 31.5755L136.46 31.3248C136.548 31.959 136.799 32.4605 137.212 32.7997C137.625 33.139 138.2 33.316 138.938 33.316C139.675 33.316 140.236 33.1685 140.59 32.8587C140.944 32.549 141.135 32.195 141.135 31.7968C141.135 31.428 140.973 31.1478 140.663 30.9265C140.442 30.779 139.882 30.602 139.011 30.3808C137.817 30.0858 137.005 29.8203 136.534 29.5991C136.076 29.3778 135.722 29.0828 135.486 28.6846C135.25 28.3011 135.132 27.8734 135.132 27.4014C135.132 26.9736 135.236 26.5754 135.427 26.2214C135.619 25.8527 135.885 25.5577 136.224 25.3217C136.475 25.1299 136.814 24.9825 137.256 24.8497C137.684 24.717 138.156 24.658 138.657 24.658C139.41 24.658 140.073 24.7612 140.634 24.9825C141.194 25.2037 141.622 25.4839 141.888 25.8674C142.153 26.2362 142.345 26.7377 142.448 27.3424L140.87 27.5636C140.796 27.0769 140.59 26.6934 140.25 26.4132C139.911 26.1329 139.424 26.0002 138.79 26.0002C138.053 26.0002 137.522 26.1182 137.197 26.3689C136.873 26.6197 136.725 26.8999 136.725 27.2391C136.725 27.4456 136.784 27.6374 136.917 27.7996C137.05 27.9766 137.256 28.1241 137.536 28.2274C137.699 28.2864 138.171 28.4191 138.967 28.6404C140.118 28.9501 140.914 29.2008 141.371 29.3926C141.829 29.5843 142.183 29.8646 142.433 30.2481C142.684 30.6168 142.817 31.0888 142.817 31.6345C142.817 32.1803 142.655 32.6817 142.345 33.1537C142.035 33.6257 141.578 33.9945 140.988 34.2599C140.398 34.5254 139.719 34.6582 138.967 34.6582C137.728 34.6582 136.784 34.4074 136.121 33.8912C135.472 33.375 135.059 32.608 134.867 31.5903L134.852 31.5755Z" fill="#595757"/>
<path d="M156.076 33.2421C155.471 33.7583 154.896 34.1123 154.351 34.3188C153.79 34.5253 153.2 34.6285 152.566 34.6285C151.519 34.6285 150.707 34.3778 150.147 33.8616C149.586 33.3453 149.306 32.6963 149.306 31.8999C149.306 31.4279 149.409 31.0001 149.631 30.6167C149.837 30.2332 150.117 29.9234 150.471 29.6874C150.825 29.4514 151.209 29.2744 151.637 29.1564C151.961 29.0679 152.433 28.9942 153.082 28.9205C154.395 28.7582 155.353 28.5812 155.973 28.36C155.973 28.1387 155.973 27.9912 155.973 27.9322C155.973 27.2685 155.825 26.8113 155.516 26.531C155.103 26.1623 154.483 25.9853 153.672 25.9853C152.905 25.9853 152.345 26.118 151.991 26.3835C151.622 26.649 151.356 27.121 151.179 27.7995L149.601 27.5782C149.749 26.8998 149.985 26.354 150.309 25.941C150.634 25.528 151.12 25.2036 151.74 24.9823C152.359 24.7611 153.082 24.6431 153.908 24.6431C154.734 24.6431 155.383 24.7316 155.899 24.9381C156.415 25.1298 156.784 25.3658 157.02 25.6608C157.256 25.9558 157.433 26.3245 157.522 26.767C157.581 27.0473 157.61 27.5487 157.61 28.2567V30.4102C157.61 31.9146 157.64 32.8733 157.713 33.2716C157.787 33.6698 157.92 34.0533 158.126 34.4221H156.43C156.268 34.0828 156.15 33.6993 156.106 33.2421H156.076ZM155.943 29.6284C155.353 29.8644 154.469 30.0709 153.303 30.2332C152.64 30.3364 152.168 30.4397 151.887 30.5577C151.607 30.6757 151.401 30.8526 151.253 31.0886C151.106 31.3246 151.032 31.5754 151.032 31.8556C151.032 32.2834 151.194 32.6521 151.519 32.9323C151.843 33.2273 152.33 33.3601 152.949 33.3601C153.569 33.3601 154.129 33.2273 154.616 32.9471C155.103 32.6816 155.457 32.2981 155.693 31.8261C155.87 31.4574 155.958 30.9264 155.958 30.2037V29.6137L155.943 29.6284Z" fill="#595757"/>
<path d="M160.073 34.4221V24.8643H161.534V26.3098C161.902 25.6313 162.242 25.1888 162.566 24.9676C162.876 24.7463 163.23 24.6431 163.599 24.6431C164.144 24.6431 164.705 24.8201 165.265 25.1593L164.705 26.6638C164.306 26.4278 163.908 26.3098 163.51 26.3098C163.156 26.3098 162.832 26.413 162.551 26.6343C162.271 26.8408 162.065 27.1357 161.947 27.5192C161.77 28.0945 161.681 28.7287 161.681 29.4072V34.4073H160.059L160.073 34.4221Z" fill="#595757"/>
<path d="M166.21 34.4221V24.8643H167.67V26.3098C168.039 25.6313 168.378 25.1888 168.702 24.9676C169.012 24.7463 169.366 24.6431 169.735 24.6431C170.28 24.6431 170.841 24.8201 171.401 25.1593L170.841 26.6638C170.443 26.4278 170.044 26.3098 169.646 26.3098C169.292 26.3098 168.968 26.413 168.688 26.6343C168.407 26.8408 168.201 27.1357 168.083 27.5192C167.906 28.0945 167.817 28.7287 167.817 29.4072V34.4073H166.195L166.21 34.4221Z" fill="#595757"/>
<path d="M178.613 33.2421C178.009 33.7583 177.433 34.1123 176.888 34.3188C176.327 34.5253 175.737 34.6285 175.103 34.6285C174.056 34.6285 173.244 34.3778 172.684 33.8616C172.124 33.3453 171.843 32.6963 171.843 31.8999C171.843 31.4279 171.947 31.0001 172.168 30.6167C172.374 30.2332 172.654 29.9234 173.008 29.6874C173.362 29.4514 173.746 29.2744 174.174 29.1564C174.498 29.0679 174.97 28.9942 175.619 28.9205C176.932 28.7582 177.891 28.5812 178.51 28.36C178.51 28.1387 178.51 27.9912 178.51 27.9322C178.51 27.2685 178.363 26.8113 178.053 26.531C177.64 26.1623 177.02 25.9853 176.209 25.9853C175.442 25.9853 174.882 26.118 174.528 26.3835C174.159 26.649 173.893 27.121 173.716 27.7995L172.138 27.5782C172.286 26.8998 172.522 26.354 172.846 25.941C173.171 25.528 173.657 25.2036 174.277 24.9823C174.896 24.7611 175.619 24.6431 176.445 24.6431C177.271 24.6431 177.92 24.7316 178.436 24.9381C178.953 25.1298 179.321 25.3658 179.557 25.6608C179.793 25.9558 179.97 26.3245 180.059 26.767C180.118 27.0473 180.147 27.5487 180.147 28.2567V30.4102C180.147 31.9146 180.177 32.8733 180.251 33.2716C180.324 33.6698 180.457 34.0533 180.664 34.4221H178.967C178.805 34.0828 178.687 33.6993 178.643 33.2421H178.613ZM178.466 29.6284C177.876 29.8644 176.991 30.0709 175.826 30.2332C175.162 30.3364 174.69 30.4397 174.41 30.5577C174.129 30.6757 173.923 30.8526 173.775 31.0886C173.628 31.3246 173.554 31.5754 173.554 31.8556C173.554 32.2834 173.716 32.6521 174.041 32.9323C174.365 33.2126 174.852 33.3601 175.472 33.3601C176.091 33.3601 176.652 33.2273 177.138 32.9471C177.625 32.6816 177.979 32.2981 178.215 31.8261C178.392 31.4574 178.481 30.9264 178.481 30.2037V29.6137L178.466 29.6284Z" fill="#595757"/>
<path d="M182.625 34.4221V24.8643H184.086V26.2213C184.794 25.1741 185.797 24.6431 187.124 24.6431C187.699 24.6431 188.23 24.7463 188.717 24.9528C189.204 25.1593 189.558 25.4248 189.809 25.764C190.045 26.1033 190.222 26.5015 190.31 26.9588C190.369 27.2537 190.399 27.7847 190.399 28.537V34.4221H188.776V28.6107C188.776 27.947 188.717 27.4602 188.584 27.1357C188.466 26.8113 188.23 26.5458 187.921 26.354C187.596 26.1623 187.227 26.059 186.785 26.059C186.092 26.059 185.502 26.2803 185 26.7228C184.499 27.1652 184.248 27.9912 184.248 29.2154V34.4368H182.625V34.4221Z" fill="#595757"/>
<path d="M192.582 35.2186L194.16 35.4546C194.219 35.9413 194.411 36.2953 194.706 36.5165C195.104 36.8115 195.664 36.9738 196.358 36.9738C197.11 36.9738 197.685 36.8263 198.098 36.5165C198.511 36.2215 198.777 35.7938 198.924 35.2628C199.013 34.9383 199.042 34.2451 199.042 33.1831C198.334 34.0239 197.449 34.4368 196.402 34.4368C195.089 34.4368 194.071 33.9649 193.349 33.0209C192.626 32.0769 192.272 30.9412 192.272 29.6137C192.272 28.6992 192.434 27.8585 192.773 27.0915C193.098 26.3246 193.585 25.7198 194.204 25.3068C194.838 24.8939 195.561 24.6726 196.417 24.6726C197.552 24.6726 198.482 25.1298 199.204 26.0443V24.8939H200.694V33.1536C200.694 34.6433 200.547 35.6906 200.237 36.3248C199.927 36.9443 199.455 37.431 198.791 37.7998C198.128 38.1537 197.331 38.3455 196.358 38.3455C195.222 38.3455 194.293 38.0947 193.599 37.5785C192.891 37.0623 192.552 36.2953 192.582 35.2628V35.2186ZM193.924 29.4662C193.924 30.7199 194.175 31.6344 194.676 32.2097C195.178 32.7849 195.797 33.0799 196.549 33.0799C197.302 33.0799 197.921 32.7996 198.423 32.2244C198.924 31.6492 199.175 30.7494 199.175 29.5252C199.175 28.301 198.909 27.475 198.393 26.885C197.877 26.2951 197.243 26.0001 196.52 26.0001C195.797 26.0001 195.192 26.2951 194.676 26.8703C194.175 27.4603 193.924 28.3305 193.924 29.481V29.4662Z" fill="#595757"/>
<path d="M209.676 31.3395L211.358 31.546C211.092 32.5195 210.606 33.2864 209.883 33.8174C209.175 34.3632 208.261 34.6286 207.14 34.6286C205.738 34.6286 204.632 34.2009 203.821 33.3307C202.995 32.4752 202.597 31.2657 202.597 29.7023C202.597 28.1388 203.01 26.8409 203.836 25.9559C204.662 25.0709 205.738 24.6284 207.066 24.6284C208.393 24.6284 209.381 25.0562 210.193 25.9411C211.004 26.8114 211.402 28.0356 211.402 29.6138C211.402 29.7023 211.402 29.8498 211.402 30.0415H204.278C204.337 31.0887 204.632 31.9 205.163 32.4605C205.694 33.0209 206.358 33.3012 207.169 33.3012C207.759 33.3012 208.275 33.1389 208.688 32.8292C209.101 32.5195 209.441 32.018 209.691 31.3395H209.676ZM204.352 28.7288H209.691C209.617 27.9176 209.411 27.3276 209.072 26.9146C208.556 26.2951 207.892 25.9854 207.066 25.9854C206.328 25.9854 205.694 26.2361 205.193 26.7376C204.691 27.2391 204.411 27.9028 204.352 28.7436V28.7288Z" fill="#595757"/>
<path d="M219.588 34.4221V33.2126C218.983 34.1566 218.084 34.6286 216.918 34.6286C216.151 34.6286 215.458 34.4221 214.809 33.9943C214.175 33.5814 213.674 32.9914 213.32 32.2391C212.966 31.4869 212.789 30.6167 212.789 29.6432C212.789 28.6697 212.951 27.829 213.261 27.0473C213.585 26.2656 214.057 25.6756 214.691 25.2626C215.326 24.8496 216.033 24.6431 216.83 24.6431C217.405 24.6431 217.921 24.7611 218.364 25.0118C218.821 25.2478 219.175 25.5723 219.455 25.9558V21.2212H221.063V34.4221H219.559H219.588ZM214.47 29.658C214.47 30.8822 214.721 31.7967 215.237 32.4014C215.753 33.0061 216.358 33.3159 217.066 33.3159C217.774 33.3159 218.379 33.0209 218.865 32.4456C219.367 31.8704 219.603 30.9854 219.603 29.7907C219.603 28.478 219.352 27.5193 218.851 26.9145C218.349 26.3098 217.73 26.0001 216.992 26.0001C216.255 26.0001 215.665 26.2951 215.193 26.885C214.706 27.475 214.47 28.4042 214.47 29.6727V29.658Z" fill="#595757"/>
<path d="M235.311 31.3395L236.992 31.546C236.727 32.5195 236.24 33.2864 235.517 33.8174C234.809 34.3632 233.895 34.6286 232.774 34.6286C231.373 34.6286 230.266 34.2009 229.455 33.3307C228.629 32.4752 228.231 31.2657 228.231 29.7023C228.231 28.1388 228.644 26.8409 229.47 25.9559C230.296 25.0709 231.373 24.6284 232.7 24.6284C234.028 24.6284 235.016 25.0562 235.827 25.9411C236.638 26.8114 237.036 28.0356 237.036 29.6138C237.036 29.7023 237.036 29.8498 237.036 30.0415H229.912C229.971 31.0887 230.266 31.9 230.797 32.4605C231.328 33.0209 231.992 33.3012 232.789 33.3012C233.379 33.3012 233.895 33.1389 234.308 32.8292C234.721 32.5195 235.06 32.018 235.311 31.3395ZM229.986 28.7288H235.326C235.252 27.9176 235.045 27.3276 234.706 26.9146C234.19 26.2951 233.526 25.9854 232.7 25.9854C231.963 25.9854 231.328 26.2361 230.827 26.7376C230.325 27.2391 230.045 27.9028 229.986 28.7436V28.7288Z" fill="#595757"/>
<path d="M245.252 33.2421C244.647 33.7583 244.072 34.1123 243.526 34.3188C242.966 34.5253 242.376 34.6285 241.742 34.6285C240.694 34.6285 239.883 34.3778 239.323 33.8616C238.762 33.3453 238.482 32.6963 238.482 31.8999C238.482 31.4279 238.585 31.0001 238.806 30.6167C239.013 30.2332 239.293 29.9234 239.647 29.6874C240.001 29.4514 240.385 29.2744 240.812 29.1564C241.137 29.0679 241.609 28.9942 242.258 28.9205C243.571 28.7582 244.529 28.5812 245.149 28.36C245.149 28.1387 245.149 27.9912 245.149 27.9322C245.149 27.2685 245.001 26.8113 244.692 26.531C244.279 26.1623 243.659 25.9853 242.848 25.9853C242.081 25.9853 241.52 26.118 241.166 26.3835C240.798 26.649 240.532 27.121 240.355 27.7995L238.777 27.5782C238.924 26.8998 239.16 26.354 239.485 25.941C239.809 25.528 240.296 25.2036 240.916 24.9823C241.535 24.7611 242.258 24.6431 243.084 24.6431C243.91 24.6431 244.559 24.7316 245.075 24.9381C245.591 25.1298 245.96 25.3658 246.196 25.6608C246.432 25.9558 246.609 26.3245 246.697 26.767C246.756 27.0473 246.786 27.5487 246.786 28.2567V30.4102C246.786 31.9146 246.815 32.8733 246.889 33.2716C246.963 33.6698 247.096 34.0533 247.302 34.4221H245.606C245.444 34.0828 245.326 33.6993 245.282 33.2421H245.252ZM245.119 29.6284C244.529 29.8644 243.644 30.0709 242.479 30.2332C241.815 30.3364 241.343 30.4397 241.063 30.5577C240.783 30.6757 240.576 30.8526 240.429 31.0886C240.281 31.3246 240.208 31.5754 240.208 31.8556C240.208 32.2834 240.37 32.6521 240.694 32.9323C241.019 33.2273 241.506 33.3601 242.125 33.3601C242.745 33.3601 243.305 33.2273 243.792 32.9471C244.279 32.6816 244.633 32.2981 244.869 31.8261C245.046 31.4574 245.134 30.9264 245.134 30.2037V29.6137L245.119 29.6284Z" fill="#595757"/>
<path d="M249.25 34.4221V24.8643H250.71V26.3098C251.079 25.6313 251.418 25.1888 251.742 24.9676C252.052 24.7463 252.406 24.6431 252.775 24.6431C253.321 24.6431 253.881 24.8201 254.441 25.1593L253.881 26.6638C253.483 26.4278 253.085 26.3098 252.686 26.3098C252.332 26.3098 252.008 26.413 251.728 26.6343C251.447 26.8408 251.241 27.1357 251.123 27.5192C250.946 28.0945 250.857 28.7287 250.857 29.4072V34.4073H249.235L249.25 34.4221Z" fill="#595757"/>
<path d="M255.371 34.4221V21.2212H256.993V34.4221H255.371Z" fill="#595757"/>
<path d="M259.427 38.1096L259.25 36.5904C259.604 36.6789 259.913 36.7379 260.179 36.7379C260.533 36.7379 260.828 36.6789 261.049 36.5609C261.27 36.4429 261.447 36.2659 261.58 36.0594C261.683 35.8972 261.845 35.499 262.081 34.85C262.111 34.7615 262.155 34.6287 262.229 34.4517L258.601 24.8793H260.341L262.332 30.4104C262.583 31.1183 262.819 31.8558 263.025 32.6228C263.217 31.8853 263.438 31.1478 263.689 30.4399L265.739 24.8645H267.362L263.719 34.5845C263.335 35.6317 263.025 36.3544 262.804 36.7527C262.509 37.2837 262.185 37.6819 261.816 37.9326C261.447 38.1834 261.005 38.3014 260.489 38.3014C260.179 38.3014 259.825 38.2424 259.441 38.1096H259.427Z" fill="#595757"/>
<path d="M267.775 34.4223V32.5786H269.618V34.4223C269.618 35.1008 269.5 35.6465 269.264 36.0595C269.028 36.4725 268.645 36.797 268.114 37.033L267.657 36.3398C267.996 36.1923 268.247 35.971 268.409 35.676C268.571 35.381 268.66 34.968 268.674 34.4223H267.76H267.775Z" fill="#595757"/>
<path d="M283.838 33.2421C283.233 33.7583 282.658 34.1123 282.112 34.3188C281.552 34.5253 280.962 34.6285 280.328 34.6285C279.28 34.6285 278.469 34.3778 277.909 33.8616C277.348 33.3453 277.068 32.6963 277.068 31.8999C277.068 31.4279 277.171 31.0001 277.392 30.6167C277.599 30.2332 277.879 29.9234 278.233 29.6874C278.587 29.4514 278.971 29.2744 279.398 29.1564C279.723 29.0679 280.195 28.9942 280.844 28.9205C282.156 28.7582 283.115 28.5812 283.735 28.36C283.735 28.1387 283.735 27.9912 283.735 27.9322C283.735 27.2685 283.587 26.8113 283.277 26.531C282.864 26.1623 282.245 25.9853 281.434 25.9853C280.667 25.9853 280.106 26.118 279.752 26.3835C279.384 26.649 279.118 27.121 278.941 27.7995L277.363 27.5782C277.51 26.8998 277.746 26.354 278.071 25.941C278.395 25.528 278.882 25.2036 279.502 24.9823C280.121 24.7611 280.844 24.6431 281.67 24.6431C282.496 24.6431 283.145 24.7316 283.661 24.9381C284.177 25.1298 284.546 25.3658 284.782 25.6608C285.018 25.9558 285.195 26.3245 285.283 26.767C285.342 27.0473 285.372 27.5487 285.372 28.2567V30.4102C285.372 31.9146 285.401 32.8733 285.475 33.2716C285.549 33.6698 285.682 34.0533 285.888 34.4221H284.192C284.03 34.0828 283.912 33.6993 283.867 33.2421H283.838ZM283.705 29.6284C283.115 29.8644 282.23 30.0709 281.065 30.2332C280.401 30.3364 279.929 30.4397 279.649 30.5577C279.369 30.6757 279.162 30.8526 279.015 31.0886C278.867 31.3246 278.794 31.5754 278.794 31.8556C278.794 32.2834 278.956 32.6521 279.28 32.9323C279.605 33.2126 280.092 33.3601 280.711 33.3601C281.331 33.3601 281.891 33.2273 282.378 32.9471C282.864 32.6816 283.218 32.2981 283.454 31.8261C283.631 31.4574 283.72 30.9264 283.72 30.2037V29.6137L283.705 29.6284Z" fill="#595757"/>
<path d="M287.85 34.4221V24.8643H289.31V26.2213C290.018 25.1741 291.021 24.6431 292.348 24.6431C292.923 24.6431 293.454 24.7463 293.941 24.9528C294.428 25.1593 294.782 25.4248 295.033 25.764C295.269 26.1033 295.446 26.5015 295.534 26.9588C295.593 27.2537 295.623 27.7847 295.623 28.537V34.4221H294V28.6107C294 27.947 293.941 27.4602 293.808 27.1357C293.676 26.8113 293.454 26.5458 293.145 26.354C292.82 26.1623 292.451 26.059 292.009 26.059C291.316 26.059 290.726 26.2803 290.224 26.7228C289.723 27.1652 289.472 27.9912 289.472 29.2154V34.4368H287.85V34.4221Z" fill="#595757"/>
<path d="M304.31 34.4221V33.2126C303.705 34.1566 302.805 34.6286 301.64 34.6286C300.873 34.6286 300.18 34.4221 299.531 33.9943C298.897 33.5814 298.395 32.9914 298.041 32.2391C297.687 31.4869 297.51 30.6167 297.51 29.6432C297.51 28.6697 297.672 27.829 297.982 27.0473C298.307 26.2656 298.779 25.6756 299.413 25.2626C300.047 24.8496 300.755 24.6431 301.552 24.6431C302.127 24.6431 302.643 24.7611 303.086 25.0118C303.543 25.2478 303.897 25.5723 304.177 25.9558V21.2212H305.785V34.4221H304.28H304.31ZM299.192 29.658C299.192 30.8822 299.442 31.7967 299.959 32.4014C300.475 33.0061 301.08 33.3159 301.788 33.3159C302.496 33.3159 303.1 33.0209 303.587 32.4456C304.089 31.8704 304.325 30.9854 304.325 29.7907C304.325 28.478 304.074 27.5193 303.572 26.9145C303.071 26.3098 302.451 26.0001 301.714 26.0001C300.976 26.0001 300.386 26.2951 299.914 26.885C299.428 27.475 299.192 28.4042 299.192 29.6727V29.658Z" fill="#595757"/>
<path d="M313.985 34.4221V21.2212H315.726V34.4221H313.985Z" fill="#595757"/>
<path d="M323.735 38.0947V24.8643H325.21V26.1033C325.564 25.6165 325.948 25.2478 326.39 25.0118C326.832 24.7758 327.363 24.6431 327.983 24.6431C328.794 24.6431 329.517 24.8496 330.136 25.2773C330.756 25.6903 331.228 26.295 331.552 27.062C331.877 27.829 332.024 28.6697 332.024 29.5842C332.024 30.5577 331.847 31.4426 331.493 32.2244C331.139 33.0061 330.638 33.6108 329.959 34.0238C329.281 34.4368 328.588 34.6433 327.85 34.6433C327.304 34.6433 326.832 34.5253 326.39 34.3041C325.948 34.0828 325.608 33.7878 325.328 33.4338V38.0947H323.706H323.735ZM325.195 29.7022C325.195 30.9264 325.446 31.8409 325.948 32.4309C326.449 33.0208 327.054 33.3158 327.762 33.3158C328.47 33.3158 329.104 33.0061 329.605 32.4014C330.122 31.7966 330.372 30.8526 330.372 29.5694C330.372 28.2862 330.122 27.4455 329.62 26.826C329.119 26.2213 328.514 25.9115 327.821 25.9115C327.127 25.9115 326.523 26.236 325.992 26.885C325.461 27.534 325.195 28.4632 325.195 29.7022Z" fill="#595757"/>
<path d="M333.957 34.4221V24.8643H335.417V26.3098C335.786 25.6313 336.125 25.1888 336.449 24.9676C336.759 24.7463 337.113 24.6431 337.482 24.6431C338.028 24.6431 338.588 24.8201 339.149 25.1593L338.588 26.6638C338.19 26.4278 337.792 26.3098 337.393 26.3098C337.039 26.3098 336.715 26.413 336.435 26.6343C336.154 26.8408 335.948 27.1357 335.83 27.5192C335.653 28.0945 335.564 28.7287 335.564 29.4072V34.4073H333.942L333.957 34.4221Z" fill="#595757"/>
<path d="M346.671 31.3395L348.352 31.546C348.087 32.5195 347.6 33.2864 346.877 33.8174C346.169 34.3632 345.255 34.6286 344.134 34.6286C342.732 34.6286 341.626 34.2009 340.815 33.3307C339.989 32.4752 339.591 31.2657 339.591 29.7023C339.591 28.1388 340.004 26.8409 340.83 25.9559C341.656 25.0709 342.732 24.6284 344.06 24.6284C345.387 24.6284 346.376 25.0562 347.187 25.9411C347.998 26.8114 348.396 28.0356 348.396 29.6138C348.396 29.7023 348.396 29.8498 348.396 30.0415H341.272C341.331 31.0887 341.626 31.9 342.157 32.4605C342.688 33.0209 343.352 33.3012 344.163 33.3012C344.753 33.3012 345.269 33.1389 345.682 32.8292C346.095 32.5195 346.435 32.018 346.685 31.3395H346.671ZM341.346 28.7288H346.685C346.612 27.9176 346.405 27.3276 346.066 26.9146C345.55 26.2951 344.886 25.9854 344.06 25.9854C343.322 25.9854 342.688 26.2361 342.187 26.7376C341.685 27.2391 341.405 27.9028 341.346 28.7436V28.7288Z" fill="#595757"/>
<path d="M350.756 34.4221V26.1181H349.326V24.8644H350.756V23.8467C350.756 23.1977 350.815 22.7257 350.933 22.416C351.096 22.003 351.361 21.649 351.759 21.3982C352.158 21.1327 352.703 21 353.411 21C353.869 21 354.37 21.059 354.931 21.1622L354.695 22.5782C354.355 22.5192 354.046 22.4897 353.736 22.4897C353.249 22.4897 352.895 22.593 352.689 22.7995C352.482 23.0059 352.379 23.4042 352.379 23.9794V24.8644H354.237V26.1181H352.379V34.4221H350.771H350.756Z" fill="#595757"/>
<path d="M362.04 31.3395L363.721 31.546C363.456 32.5195 362.969 33.2864 362.246 33.8174C361.538 34.3632 360.624 34.6286 359.503 34.6286C358.102 34.6286 356.995 34.2009 356.184 33.3307C355.358 32.4752 354.96 31.2657 354.96 29.7023C354.96 28.1388 355.373 26.8409 356.199 25.9559C357.025 25.0709 358.102 24.6284 359.429 24.6284C360.757 24.6284 361.745 25.0562 362.556 25.9411C363.367 26.8114 363.765 28.0356 363.765 29.6138C363.765 29.7023 363.765 29.8498 363.765 30.0415H356.641C356.7 31.0887 356.995 31.9 357.526 32.4605C358.057 33.0209 358.721 33.3012 359.518 33.3012C360.108 33.3012 360.624 33.1389 361.037 32.8292C361.45 32.5195 361.789 32.018 362.04 31.3395ZM356.715 28.7288H362.055C361.981 27.9176 361.774 27.3276 361.435 26.9146C360.919 26.2951 360.255 25.9854 359.429 25.9854C358.692 25.9854 358.057 26.2361 357.556 26.7376C357.054 27.2391 356.774 27.9028 356.715 28.7436V28.7288Z" fill="#595757"/>
<path d="M365.727 34.4221V24.8643H367.187V26.3098C367.556 25.6313 367.895 25.1888 368.22 24.9676C368.53 24.7463 368.884 24.6431 369.252 24.6431C369.798 24.6431 370.359 24.8201 370.919 25.1593L370.359 26.6638C369.96 26.4278 369.562 26.3098 369.164 26.3098C368.81 26.3098 368.485 26.413 368.205 26.6343C367.925 26.8408 367.718 27.1357 367.6 27.5192C367.423 28.0945 367.335 28.7287 367.335 29.4072V34.4073H365.712L365.727 34.4221Z" fill="#595757"/>
<path d="M376.981 34.4221V21.2212H378.603V34.4221H376.981Z" fill="#595757"/>
<path d="M387.659 31.3395L389.341 31.546C389.075 32.5195 388.589 33.2864 387.866 33.8174C387.158 34.3632 386.243 34.6286 385.122 34.6286C383.721 34.6286 382.615 34.2009 381.804 33.3307C380.978 32.4752 380.58 31.2657 380.58 29.7023C380.58 28.1388 380.993 26.8409 381.819 25.9559C382.645 25.0709 383.721 24.6284 385.049 24.6284C386.376 24.6284 387.364 25.0562 388.176 25.9411C388.987 26.8114 389.385 28.0356 389.385 29.6138C389.385 29.7023 389.385 29.8498 389.385 30.0415H382.261C382.32 31.0887 382.615 31.9 383.146 32.4605C383.677 33.0209 384.341 33.3012 385.137 33.3012C385.727 33.3012 386.243 33.1389 386.656 32.8292C387.069 32.5195 387.409 32.018 387.659 31.3395ZM382.335 28.7288H387.674C387.6 27.9176 387.394 27.3276 387.069 26.9146C386.553 26.2951 385.889 25.9854 385.063 25.9854C384.326 25.9854 383.692 26.2361 383.19 26.7376C382.689 27.2391 382.409 27.9028 382.35 28.7436L382.335 28.7288Z" fill="#595757"/>
<path d="M397.601 33.2421C396.996 33.7583 396.421 34.1123 395.875 34.3188C395.315 34.5253 394.725 34.6285 394.091 34.6285C393.044 34.6285 392.232 34.3778 391.672 33.8616C391.111 33.3453 390.831 32.6963 390.831 31.8999C390.831 31.4279 390.934 31.0001 391.156 30.6167C391.362 30.2332 391.642 29.9234 391.996 29.6874C392.336 29.4514 392.734 29.2744 393.161 29.1564C393.486 29.0679 393.958 28.9942 394.607 28.9205C395.92 28.7582 396.878 28.5812 397.498 28.36C397.498 28.1387 397.498 27.9912 397.498 27.9322C397.498 27.2685 397.35 26.8113 397.041 26.531C396.628 26.1623 396.008 25.9853 395.197 25.9853C394.43 25.9853 393.869 26.118 393.515 26.3835C393.147 26.649 392.881 27.121 392.704 27.7995L391.126 27.5782C391.274 26.8998 391.51 26.354 391.834 25.941C392.159 25.528 392.645 25.2036 393.265 24.9823C393.884 24.7611 394.607 24.6431 395.433 24.6431C396.259 24.6431 396.908 24.7316 397.424 24.9381C397.94 25.1298 398.309 25.3658 398.545 25.6608C398.781 25.9558 398.958 26.3245 399.047 26.767C399.106 27.0473 399.135 27.5487 399.135 28.2567V30.4102C399.135 31.9146 399.165 32.8733 399.238 33.2716C399.312 33.6698 399.445 34.0533 399.651 34.4221H397.955C397.793 34.0828 397.675 33.6993 397.631 33.2421H397.601ZM397.468 29.6284C396.878 29.8644 395.993 30.0709 394.828 30.2332C394.164 30.3364 393.692 30.4397 393.412 30.5577C393.132 30.6757 392.926 30.8526 392.778 31.0886C392.631 31.3246 392.557 31.5754 392.557 31.8556C392.557 32.2834 392.719 32.6521 393.043 32.9323C393.368 33.2273 393.855 33.3601 394.474 33.3601C395.094 33.3601 395.654 33.2273 396.141 32.9471C396.628 32.6816 396.982 32.2981 397.218 31.8261C397.395 31.4574 397.483 30.9264 397.483 30.2037V29.6137L397.468 29.6284Z" fill="#595757"/>
<path d="M404.268 34.4222L400.625 24.8645H402.336L404.386 30.5873C404.607 31.2068 404.814 31.8411 405.006 32.5195C405.153 32.0181 405.345 31.4133 405.61 30.7053L407.734 24.8645H409.401L405.787 34.4222H404.268Z" fill="#595757"/>
<path d="M410.846 23.0944V21.2212H412.469V23.0796H410.846V23.0944ZM410.846 34.4221V24.8643H412.469V34.4221H410.846Z" fill="#595757"/>
<path d="M414.932 34.4221V24.8643H416.392V26.2213C417.1 25.1741 418.103 24.6431 419.43 24.6431C420.005 24.6431 420.536 24.7463 421.023 24.9528C421.51 25.1593 421.864 25.4248 422.115 25.764C422.351 26.1033 422.528 26.5015 422.616 26.9588C422.675 27.2537 422.705 27.7847 422.705 28.537V34.4221H421.082V28.6107C421.082 27.947 421.023 27.4602 420.89 27.1357C420.758 26.8113 420.536 26.5458 420.227 26.354C419.902 26.1623 419.534 26.059 419.091 26.059C418.398 26.059 417.808 26.2803 417.306 26.7228C416.805 27.1652 416.554 27.9912 416.554 29.2154V34.4368H414.932V34.4221Z" fill="#595757"/>
<path d="M424.888 35.2186L426.466 35.4546C426.525 35.9413 426.717 36.2953 427.012 36.5165C427.41 36.8115 427.971 36.9738 428.664 36.9738C429.416 36.9738 429.991 36.8263 430.404 36.5165C430.817 36.2215 431.083 35.7938 431.23 35.2628C431.319 34.9383 431.348 34.2451 431.348 33.1831C430.64 34.0239 429.755 34.4368 428.708 34.4368C427.395 34.4368 426.378 33.9649 425.655 33.0209C424.932 32.0769 424.578 30.9412 424.578 29.6137C424.578 28.6992 424.74 27.8585 425.08 27.0915C425.404 26.3246 425.891 25.7198 426.51 25.3068C427.145 24.8939 427.867 24.6726 428.723 24.6726C429.858 24.6726 430.788 25.1298 431.51 26.0443V24.8939H433V33.1536C433 34.6433 432.853 35.6906 432.543 36.3248C432.233 36.9443 431.761 37.431 431.097 37.7998C430.434 38.1537 429.637 38.3455 428.679 38.3455C427.543 38.3455 426.614 38.0947 425.92 37.5785C425.212 37.0623 424.873 36.2953 424.903 35.2628L424.888 35.2186ZM426.23 29.4662C426.23 30.7199 426.481 31.6344 426.982 32.2097C427.484 32.7849 428.103 33.0799 428.856 33.0799C429.608 33.0799 430.227 32.7996 430.729 32.2244C431.23 31.6492 431.481 30.7494 431.481 29.5252C431.481 28.301 431.215 27.475 430.699 26.885C430.183 26.2951 429.549 26.0001 428.826 26.0001C428.103 26.0001 427.499 26.2951 426.982 26.8703C426.481 27.4603 426.23 28.3305 426.23 29.481V29.4662Z" fill="#595757"/>
<path d="M54.3042 55.3664C53.6995 55.8826 53.1243 56.2366 52.5785 56.4431C52.0181 56.6496 51.4281 56.7528 50.7938 56.7528C49.7466 56.7528 48.9354 56.5021 48.3749 55.9858C47.8144 55.4696 47.5342 54.8206 47.5342 54.0241C47.5342 53.5522 47.6374 53.1244 47.8587 52.7409C48.0652 52.3574 48.3454 52.0477 48.6994 51.8117C49.0386 51.5757 49.4369 51.3987 49.8646 51.2807C50.1891 51.1922 50.6611 51.1185 51.3101 51.0447C52.6228 50.8825 53.5815 50.7055 54.201 50.4842C54.201 50.263 54.201 50.1155 54.201 50.0565C54.201 49.3928 54.0535 48.9355 53.7438 48.6553C53.3308 48.2865 52.7113 48.1095 51.9001 48.1095C51.1331 48.1095 50.5726 48.2423 50.2186 48.5078C49.8499 48.7733 49.5844 49.2453 49.4074 49.9238L47.8292 49.7025C47.9767 49.024 48.2127 48.4783 48.5372 48.0653C48.8616 47.6523 49.3484 47.3278 49.9679 47.1066C50.5873 46.8853 51.3101 46.7673 52.1361 46.7673C52.962 46.7673 53.611 46.8558 54.1273 47.0623C54.6435 47.2541 55.0122 47.4901 55.2482 47.7851C55.4842 48.08 55.6612 48.4488 55.7497 48.8913C55.8087 49.1715 55.8382 49.673 55.8382 50.381V52.5344C55.8382 54.0389 55.8677 54.9976 55.9415 55.3959C56.0152 55.7941 56.1479 56.1776 56.3544 56.5463H54.6582C54.496 56.2071 54.378 55.8236 54.3337 55.3664H54.3042ZM54.1715 51.7527C53.5815 51.9887 52.6965 52.1952 51.5313 52.3574C50.8676 52.4607 50.3956 52.5639 50.1154 52.6819C49.8351 52.7999 49.6286 52.9769 49.4811 53.2129C49.3336 53.4489 49.2599 53.6996 49.2599 53.9799C49.2599 54.4076 49.4221 54.7764 49.7466 55.0566C50.0711 55.3516 50.5578 55.4843 51.1773 55.4843C51.7968 55.4843 52.3573 55.3516 52.844 55.0714C53.3308 54.8059 53.6848 54.4224 53.9208 53.9504C54.0978 53.5817 54.1862 53.0507 54.1862 52.3279V51.738L54.1715 51.7527Z" fill="#595757"/>
<path d="M58.3164 56.5464V43.3455H59.9389V48.0801C60.6911 47.2099 61.6498 46.7674 62.8003 46.7674C63.5083 46.7674 64.1277 46.9001 64.644 47.1804C65.1602 47.4606 65.5437 47.8441 65.765 48.3308C65.9862 48.8176 66.1042 49.5403 66.1042 50.4695V56.5316H64.4817V50.4695C64.4817 49.6583 64.3047 49.0683 63.9508 48.6996C63.5968 48.3308 63.11 48.1391 62.461 48.1391C61.9743 48.1391 61.5318 48.2718 61.1041 48.5078C60.6763 48.7586 60.3814 49.0978 60.2044 49.5255C60.0274 49.9533 59.9389 50.5433 59.9389 51.2955V56.5316H58.3164V56.5464Z" fill="#595757"/>
<path d="M75.1155 53.464L76.7969 53.6705C76.5314 54.644 76.0447 55.4109 75.3219 55.9419C74.614 56.4877 73.6995 56.7532 72.5785 56.7532C71.1773 56.7532 70.0711 56.3254 69.2599 55.4552C68.4339 54.5997 68.0356 53.3903 68.0356 51.8268C68.0356 50.2633 68.4486 48.9654 69.2746 48.0804C70.1006 47.1954 71.1773 46.7529 72.5048 46.7529C73.8322 46.7529 74.8205 47.1807 75.6317 48.0656C76.4429 48.9359 76.8412 50.1601 76.8412 51.7383C76.8412 51.8268 76.8412 51.9743 76.8412 52.166H69.7171C69.7761 53.2133 70.0711 54.0245 70.6021 54.585C71.1331 55.1455 71.7968 55.4257 72.5933 55.4257C73.1833 55.4257 73.6995 55.2635 74.1125 54.9537C74.5255 54.644 74.8647 54.1425 75.1155 53.464ZM69.7908 50.8533H75.1302C75.0565 50.0421 74.85 49.4521 74.5255 49.0391C74.0092 48.4196 73.3455 48.1099 72.5195 48.1099C71.782 48.1099 71.1478 48.3606 70.6463 48.8621C70.1448 49.3636 69.8646 50.0273 69.8056 50.8681L69.7908 50.8533Z" fill="#595757"/>
<path d="M85.0572 55.3664C84.4524 55.8826 83.8772 56.2366 83.3315 56.4431C82.771 56.6496 82.181 56.7528 81.5468 56.7528C80.4996 56.7528 79.6883 56.5021 79.1278 55.9858C78.5674 55.4696 78.2871 54.8206 78.2871 54.0241C78.2871 53.5522 78.3904 53.1244 78.6116 52.7409C78.8181 52.3574 79.0983 52.0477 79.4523 51.8117C79.8063 51.5757 80.1898 51.3987 80.6175 51.2807C80.942 51.1922 81.414 51.1185 82.063 51.0447C83.3757 50.8825 84.3344 50.7055 84.9539 50.4842C84.9539 50.263 84.9539 50.1155 84.9539 50.0565C84.9539 49.3928 84.8064 48.9355 84.4967 48.6553C84.0837 48.2865 83.4642 48.1095 82.653 48.1095C81.886 48.1095 81.3255 48.2423 80.9715 48.5078C80.6028 48.7733 80.3373 49.2453 80.1603 49.9238L78.5821 49.7025C78.7296 49.024 78.9656 48.4783 79.2901 48.0653C79.6146 47.6523 80.1013 47.3278 80.7208 47.1066C81.3403 46.8853 82.063 46.7673 82.889 46.7673C83.715 46.7673 84.3639 46.8558 84.8802 47.0623C85.3964 47.2541 85.7652 47.4901 86.0012 47.7851C86.2371 48.08 86.4141 48.4488 86.5026 48.8913C86.5616 49.1715 86.5911 49.673 86.5911 50.381V52.5344C86.5911 54.0389 86.6206 54.9976 86.6944 55.3959C86.7681 55.7941 86.9009 56.1776 87.1074 56.5463H85.4112C85.2489 56.2071 85.1309 55.8236 85.0867 55.3664H85.0572ZM84.9244 51.7527C84.3344 51.9887 83.4495 52.1952 82.2843 52.3574C81.6205 52.4607 81.1485 52.5639 80.8683 52.6819C80.588 52.7999 80.3816 52.9769 80.2341 53.2129C80.0866 53.4489 80.0128 53.6996 80.0128 53.9799C80.0128 54.4076 80.1751 54.7764 80.4995 55.0566C80.824 55.3369 81.3108 55.4843 81.9303 55.4843C82.5497 55.4843 83.1102 55.3516 83.597 55.0714C84.0837 54.8059 84.4377 54.4224 84.6737 53.9504C84.8507 53.5817 84.9392 53.0507 84.9392 52.3279V51.738L84.9244 51.7527Z" fill="#595757"/>
<path d="M95.2781 56.5464V55.3369C94.6733 56.2809 93.7736 56.7528 92.6084 56.7528C91.8414 56.7528 91.1482 56.5464 90.4992 56.1186C89.865 55.7056 89.3635 55.1156 89.0095 54.3634C88.6555 53.6112 88.4785 52.741 88.4785 51.7675C88.4785 50.794 88.6408 49.9533 88.9505 49.1716C89.275 48.3898 89.747 47.7998 90.3812 47.3868C91.0154 46.9739 91.7234 46.7674 92.5199 46.7674C93.0951 46.7674 93.6114 46.8854 94.0539 47.1361C94.5111 47.3721 94.8651 47.6966 95.1453 48.0801V43.3455H96.753V56.5464H95.2486H95.2781ZM90.16 51.7822C90.16 53.0065 90.4107 53.9209 90.9269 54.5257C91.4432 55.1304 92.0479 55.4401 92.7559 55.4401C93.4639 55.4401 94.0686 55.1451 94.5554 54.5699C95.0568 53.9947 95.2928 53.1097 95.2928 51.915C95.2928 50.6023 95.0421 49.6435 94.5406 49.0388C94.0391 48.4341 93.4196 48.1243 92.6822 48.1243C91.9447 48.1243 91.3547 48.4193 90.8827 49.0093C90.396 49.5993 90.16 50.5285 90.16 51.797V51.7822Z" fill="#595757"/>
<path d="M103.848 51.7675C103.848 49.9975 104.335 48.6848 105.323 47.8293C106.149 47.1213 107.152 46.7673 108.332 46.7673C109.645 46.7673 110.721 47.1951 111.562 48.0653C112.403 48.9208 112.816 50.1155 112.816 51.6347C112.816 52.8589 112.624 53.8324 112.255 54.5404C111.887 55.2484 111.356 55.7941 110.648 56.1776C109.94 56.5611 109.173 56.7676 108.332 56.7676C106.99 56.7676 105.913 56.3398 105.087 55.4843C104.261 54.6289 103.848 53.3899 103.848 51.7822V51.7675ZM105.515 51.7675C105.515 52.9917 105.78 53.9061 106.311 54.5109C106.842 55.1156 107.521 55.4254 108.332 55.4254C109.143 55.4254 109.807 55.1156 110.338 54.5109C110.869 53.9061 111.134 52.9622 111.134 51.7085C111.134 50.5285 110.869 49.6288 110.323 49.024C109.792 48.4193 109.114 48.1095 108.317 48.1095C107.521 48.1095 106.842 48.4045 106.297 49.024C105.766 49.6288 105.5 50.5432 105.5 51.7675H105.515Z" fill="#595757"/>
<path d="M115.102 56.5464V48.2424H113.671V46.9887H115.102V45.9709C115.102 45.322 115.161 44.85 115.279 44.5402C115.441 44.1272 115.707 43.7733 116.105 43.5225C116.503 43.257 117.049 43.1243 117.757 43.1243C118.214 43.1243 118.716 43.1833 119.276 43.2865L119.04 44.7025C118.701 44.6435 118.391 44.614 118.082 44.614C117.595 44.614 117.241 44.7172 117.034 44.9237C116.828 45.1302 116.725 45.5285 116.725 46.1037V46.9887H118.583V48.2424H116.725V56.5464H115.117H115.102Z" fill="#595757"/>
<path d="M128.495 55.1012L128.731 56.5319C128.273 56.6204 127.86 56.6794 127.506 56.6794C126.916 56.6794 126.459 56.5909 126.135 56.3992C125.81 56.2074 125.589 55.9714 125.456 55.6617C125.324 55.352 125.265 54.7177 125.265 53.7442V48.2426H124.07V46.9889H125.265V44.629L126.872 43.6555V46.9889H128.495V48.2426H126.872V53.8327C126.872 54.29 126.902 54.585 126.961 54.7177C127.02 54.8505 127.108 54.9537 127.241 55.0275C127.374 55.1012 127.551 55.1455 127.801 55.1455C127.978 55.1455 128.214 55.1307 128.509 55.0865L128.495 55.1012Z" fill="#595757"/>
<path d="M130.087 45.2188V43.3604H131.709V45.2188H130.087ZM130.087 56.5465V46.9888H131.709V56.5465H130.087Z" fill="#595757"/>
<path d="M134.173 56.5463V46.9886H135.619V48.3308C135.914 47.8588 136.312 47.4901 136.813 47.1951C137.315 46.9148 137.875 46.7673 138.51 46.7673C139.218 46.7673 139.793 46.9148 140.25 47.2098C140.707 47.5048 141.017 47.9178 141.209 48.4488C141.961 47.3278 142.949 46.7673 144.159 46.7673C145.103 46.7673 145.84 47.0328 146.342 47.5491C146.858 48.08 147.109 48.8765 147.109 49.9827V56.5463H145.501V50.5285C145.501 49.8795 145.442 49.4075 145.339 49.1273C145.235 48.847 145.044 48.611 144.763 48.434C144.483 48.257 144.159 48.1685 143.79 48.1685C143.111 48.1685 142.566 48.3898 142.108 48.8323C141.666 49.2748 141.445 49.9975 141.445 50.9857V56.5463H139.822V50.3367C139.822 49.614 139.69 49.083 139.424 48.7143C139.159 48.3603 138.731 48.1685 138.126 48.1685C137.669 48.1685 137.241 48.2865 136.858 48.5225C136.474 48.7585 136.194 49.1125 136.017 49.5698C135.84 50.027 135.751 50.6907 135.751 51.561V56.5168H134.129L134.173 56.5463Z" fill="#595757"/>
<path d="M156.076 53.464L157.758 53.6705C157.492 54.644 157.006 55.4109 156.283 55.9419C155.575 56.4877 154.66 56.7532 153.539 56.7532C152.138 56.7532 151.032 56.3254 150.221 55.4552C149.395 54.5997 148.997 53.3903 148.997 51.8268C148.997 50.2633 149.41 48.9654 150.236 48.0804C151.062 47.1954 152.138 46.7529 153.466 46.7529C154.793 46.7529 155.781 47.1807 156.593 48.0656C157.404 48.9359 157.802 50.1601 157.802 51.7383C157.802 51.8268 157.802 51.9743 157.802 52.166H150.678C150.737 53.2133 151.032 54.0245 151.563 54.585C152.094 55.1455 152.758 55.4257 153.569 55.4257C154.159 55.4257 154.675 55.2635 155.088 54.9537C155.501 54.644 155.84 54.1425 156.091 53.464H156.076ZM150.752 50.8533H156.091C156.017 50.0421 155.811 49.4521 155.486 49.0391C154.97 48.4196 154.306 48.1099 153.48 48.1099C152.743 48.1099 152.109 48.3606 151.607 48.8621C151.106 49.3636 150.826 50.0273 150.767 50.8681L150.752 50.8533Z" fill="#595757"/>
<path d="M165.295 56.5464V48.2424H163.864V46.9887H165.295V45.9709C165.295 45.322 165.354 44.85 165.472 44.5402C165.634 44.1272 165.9 43.7733 166.298 43.5225C166.696 43.257 167.242 43.1243 167.95 43.1243C168.407 43.1243 168.909 43.1833 169.469 43.2865L169.233 44.7025C168.894 44.6435 168.584 44.614 168.274 44.614C167.788 44.614 167.434 44.7172 167.227 44.9237C167.021 45.1302 166.917 45.5285 166.917 46.1037V46.9887H168.776V48.2424H166.917V56.5464H165.31H165.295Z" fill="#595757"/>
<path d="M169.425 51.7675C169.425 49.9975 169.912 48.6848 170.9 47.8293C171.726 47.1213 172.729 46.7673 173.909 46.7673C175.221 46.7673 176.298 47.1951 177.139 48.0653C177.98 48.9355 178.393 50.1155 178.393 51.6347C178.393 52.8589 178.201 53.8324 177.832 54.5404C177.463 55.2484 176.932 55.7941 176.224 56.1776C175.516 56.5611 174.749 56.7676 173.909 56.7676C172.566 56.7676 171.49 56.3398 170.664 55.4843C169.838 54.6289 169.425 53.3899 169.425 51.7822V51.7675ZM171.092 51.7675C171.092 52.9917 171.357 53.9061 171.888 54.5109C172.419 55.1156 173.097 55.4254 173.909 55.4254C174.72 55.4254 175.384 55.1156 175.915 54.5109C176.446 53.9061 176.711 52.9622 176.711 51.7085C176.711 50.5285 176.446 49.6288 175.9 49.024C175.369 48.4193 174.69 48.1095 173.894 48.1095C173.097 48.1095 172.419 48.4045 171.873 49.024C171.342 49.6288 171.077 50.5432 171.077 51.7675H171.092Z" fill="#595757"/>
<path d="M180.266 56.5463V46.9886H181.726V48.434C182.095 47.7556 182.434 47.3131 182.758 47.0918C183.068 46.8706 183.422 46.7673 183.791 46.7673C184.337 46.7673 184.897 46.9443 185.458 47.2836L184.897 48.788C184.499 48.552 184.101 48.434 183.702 48.434C183.348 48.434 183.024 48.5373 182.744 48.7585C182.463 48.965 182.257 49.26 182.139 49.6435C181.962 50.2187 181.873 50.853 181.873 51.5315V56.5316H180.251L180.266 56.5463Z" fill="#595757"/>
<path d="M197.788 55.3664C197.183 55.8826 196.608 56.2366 196.062 56.4431C195.501 56.6496 194.911 56.7528 194.277 56.7528C193.23 56.7528 192.419 56.5021 191.858 55.9858C191.298 55.4696 191.018 54.8206 191.018 54.0241C191.018 53.5522 191.121 53.1244 191.342 52.7409C191.549 52.3574 191.829 52.0477 192.183 51.8117C192.537 51.5757 192.92 51.3987 193.348 51.2807C193.673 51.1922 194.144 51.1185 194.793 51.0447C196.106 50.8825 197.065 50.7055 197.684 50.4842C197.684 50.263 197.684 50.1155 197.684 50.0565C197.684 49.3928 197.537 48.9355 197.227 48.6553C196.814 48.2865 196.195 48.1095 195.383 48.1095C194.616 48.1095 194.056 48.2423 193.702 48.5078C193.333 48.7733 193.068 49.2453 192.891 49.9238L191.313 49.7025C191.46 49.024 191.696 48.4783 192.021 48.0653C192.345 47.6523 192.832 47.3278 193.451 47.1066C194.071 46.8853 194.793 46.7673 195.619 46.7673C196.445 46.7673 197.094 46.8558 197.611 47.0623C198.127 47.2541 198.496 47.4901 198.732 47.7851C198.968 48.08 199.145 48.4488 199.233 48.8913C199.292 49.1715 199.322 49.673 199.322 50.381V52.5344C199.322 54.0389 199.351 54.9976 199.425 55.3959C199.499 55.7941 199.631 56.1776 199.838 56.5463H198.142C197.979 56.2071 197.861 55.8236 197.817 55.3664H197.788ZM197.64 51.7527C197.05 51.9887 196.165 52.1952 195 52.3574C194.336 52.4607 193.864 52.5639 193.584 52.6819C193.304 52.7999 193.097 52.9769 192.95 53.2129C192.802 53.4489 192.729 53.6996 192.729 53.9799C192.729 54.4076 192.891 54.7764 193.215 55.0566C193.54 55.3369 194.026 55.4843 194.646 55.4843C195.265 55.4843 195.826 55.3516 196.313 55.0714C196.799 54.8059 197.153 54.4224 197.389 53.9504C197.566 53.5817 197.655 53.0507 197.655 52.3279V51.738L197.64 51.7527Z" fill="#595757"/>
<path d="M206.918 56.5463V46.9886H208.364V48.3308C208.659 47.8588 209.057 47.4901 209.558 47.1951C210.06 46.9148 210.62 46.7673 211.255 46.7673C211.963 46.7673 212.538 46.9148 212.995 47.2098C213.452 47.5048 213.762 47.9178 213.954 48.4488C214.706 47.3278 215.694 46.7673 216.904 46.7673C217.848 46.7673 218.585 47.0328 219.087 47.5491C219.603 48.08 219.854 48.8765 219.854 49.9827V56.5463H218.246V50.5285C218.246 49.8795 218.187 49.4075 218.084 49.1273C217.98 48.847 217.789 48.611 217.508 48.434C217.228 48.257 216.904 48.1685 216.535 48.1685C215.857 48.1685 215.311 48.3898 214.854 48.8323C214.411 49.2748 214.19 49.9975 214.19 50.9857V56.5463H212.567V50.3367C212.567 49.614 212.435 49.083 212.169 48.7143C211.904 48.3603 211.476 48.1685 210.871 48.1685C210.414 48.1685 209.986 48.2865 209.603 48.5225C209.219 48.7585 208.939 49.1125 208.762 49.5698C208.585 50.027 208.496 50.6907 208.496 51.561V56.5168H206.874L206.918 56.5463Z" fill="#595757"/>
<path d="M221.668 51.7675C221.668 49.9975 222.155 48.6848 223.143 47.8293C223.969 47.1213 224.972 46.7673 226.152 46.7673C227.465 46.7673 228.541 47.1951 229.382 48.0653C230.223 48.9208 230.636 50.1155 230.636 51.6347C230.636 52.8589 230.444 53.8324 230.075 54.5404C229.707 55.2484 229.176 55.7941 228.468 56.1776C227.76 56.5611 226.993 56.7676 226.152 56.7676C224.81 56.7676 223.733 56.3398 222.907 55.4843C222.081 54.6289 221.668 53.3899 221.668 51.7822V51.7675ZM223.335 51.7675C223.335 52.9917 223.6 53.9061 224.131 54.5109C224.662 55.1156 225.341 55.4254 226.152 55.4254C226.963 55.4254 227.627 55.1156 228.158 54.5109C228.689 53.9061 228.954 52.9622 228.954 51.7085C228.954 50.5285 228.689 49.6288 228.143 49.024C227.612 48.4193 226.934 48.1095 226.137 48.1095C225.341 48.1095 224.662 48.4045 224.116 49.024C223.585 49.6288 223.32 50.5432 223.32 51.7675H223.335Z" fill="#595757"/>
<path d="M232.509 56.5463V46.9886H233.969V48.434C234.338 47.7556 234.677 47.3131 235.002 47.0918C235.311 46.8706 235.665 46.7673 236.034 46.7673C236.58 46.7673 237.14 46.9443 237.701 47.2836L237.14 48.788C236.742 48.552 236.344 48.434 235.946 48.434C235.592 48.434 235.267 48.5373 234.987 48.7585C234.707 48.965 234.5 49.26 234.382 49.6435C234.205 50.2187 234.117 50.853 234.117 51.5315V56.5316H232.494L232.509 56.5463Z" fill="#595757"/>
<path d="M245.208 53.464L246.889 53.6705C246.624 54.644 246.137 55.4109 245.414 55.9419C244.706 56.4877 243.792 56.7532 242.671 56.7532C241.27 56.7532 240.163 56.3254 239.352 55.4552C238.526 54.5997 238.128 53.3903 238.128 51.8268C238.128 50.2633 238.541 48.9654 239.367 48.0804C240.193 47.1954 241.27 46.7529 242.597 46.7529C243.925 46.7529 244.913 47.1807 245.724 48.0656C246.535 48.9359 246.933 50.1601 246.933 51.7383C246.933 51.8268 246.933 51.9743 246.933 52.166H239.809C239.868 53.2133 240.163 54.0245 240.694 54.585C241.225 55.1455 241.889 55.4257 242.686 55.4257C243.276 55.4257 243.792 55.2635 244.205 54.9537C244.618 54.644 244.957 54.1425 245.208 53.464ZM239.898 50.8533H245.237C245.164 50.0421 244.957 49.4521 244.633 49.0391C244.116 48.4196 243.453 48.1099 242.627 48.1099C241.889 48.1099 241.255 48.3606 240.753 48.8621C240.252 49.3636 239.972 50.0273 239.913 50.8681L239.898 50.8533Z" fill="#595757"/>
<path d="M254.028 56.5463V46.9886H255.489V48.434C255.857 47.7556 256.197 47.3131 256.521 47.0918C256.831 46.8706 257.185 46.7673 257.554 46.7673C258.099 46.7673 258.66 46.9443 259.22 47.2836L258.66 48.788C258.262 48.552 257.863 48.434 257.465 48.434C257.111 48.434 256.787 48.5373 256.506 48.7585C256.226 48.965 256.02 49.26 255.902 49.6435C255.725 50.2187 255.636 50.853 255.636 51.5315V56.5316H254.014L254.028 56.5463Z" fill="#595757"/>
<path d="M266.728 53.464L268.409 53.6705C268.144 54.644 267.657 55.4109 266.934 55.9419C266.226 56.4877 265.312 56.7532 264.191 56.7532C262.79 56.7532 261.683 56.3254 260.872 55.4552C260.046 54.5997 259.648 53.3903 259.648 51.8268C259.648 50.2633 260.061 48.9654 260.887 48.0804C261.713 47.1954 262.79 46.7529 264.117 46.7529C265.445 46.7529 266.433 47.1807 267.244 48.0656C268.055 48.9359 268.453 50.1601 268.453 51.7383C268.453 51.8268 268.453 51.9743 268.453 52.166H261.329C261.388 53.2133 261.683 54.0245 262.214 54.585C262.745 55.1455 263.409 55.4257 264.206 55.4257C264.796 55.4257 265.312 55.2635 265.725 54.9537C266.138 54.644 266.477 54.1425 266.728 53.464ZM261.403 50.8533H266.743C266.669 50.0421 266.462 49.4521 266.123 49.0391C265.607 48.4196 264.943 48.1099 264.117 48.1099C263.38 48.1099 262.745 48.3606 262.244 48.8621C261.742 49.3636 261.462 50.0273 261.403 50.8681V50.8533Z" fill="#595757"/>
<path d="M276.684 55.3664C276.079 55.8826 275.504 56.2366 274.958 56.4431C274.398 56.6496 273.808 56.7528 273.174 56.7528C272.127 56.7528 271.315 56.5021 270.755 55.9858C270.194 55.4696 269.914 54.8206 269.914 54.0241C269.914 53.5522 270.017 53.1244 270.239 52.7409C270.445 52.3574 270.725 52.0477 271.079 51.8117C271.433 51.5757 271.817 51.3987 272.245 51.2807C272.569 51.1922 273.041 51.1185 273.69 51.0447C275.003 50.8825 275.961 50.7055 276.581 50.4842C276.581 50.263 276.581 50.1155 276.581 50.0565C276.581 49.3928 276.433 48.9355 276.124 48.6553C275.711 48.2865 275.091 48.1095 274.28 48.1095C273.513 48.1095 272.952 48.2423 272.599 48.5078C272.23 48.7733 271.964 49.2453 271.787 49.9238L270.209 49.7025C270.357 49.024 270.593 48.4783 270.917 48.0653C271.242 47.6523 271.728 47.3278 272.348 47.1066C272.967 46.8853 273.69 46.7673 274.516 46.7673C275.342 46.7673 275.991 46.8558 276.507 47.0623C277.023 47.2541 277.392 47.4901 277.628 47.7851C277.864 48.08 278.041 48.4488 278.13 48.8913C278.189 49.1715 278.218 49.673 278.218 50.381V52.5344C278.218 54.0389 278.248 54.9976 278.321 55.3959C278.395 55.7941 278.528 56.1776 278.734 56.5463H277.038C276.876 56.2071 276.758 55.8236 276.714 55.3664H276.684ZM276.537 51.7527C275.947 51.9887 275.062 52.1952 273.896 52.3574C273.233 52.4607 272.761 52.5639 272.481 52.6819C272.2 52.7999 271.994 52.9769 271.846 53.2129C271.699 53.4489 271.625 53.6996 271.625 53.9799C271.625 54.4076 271.787 54.7764 272.112 55.0566C272.436 55.3369 272.923 55.4843 273.542 55.4843C274.162 55.4843 274.722 55.3516 275.209 55.0714C275.696 54.8059 276.05 54.4224 276.286 53.9504C276.463 53.5817 276.551 53.0507 276.551 52.3279V51.738L276.537 51.7527Z" fill="#595757"/>
<path d="M280.047 53.6998L281.655 53.449C281.743 54.0833 281.994 54.5848 282.407 54.924C282.82 55.2632 283.395 55.4402 284.133 55.4402C284.87 55.4402 285.431 55.2927 285.784 54.983C286.138 54.6733 286.33 54.3193 286.33 53.921C286.33 53.5523 286.168 53.2721 285.858 53.0508C285.637 52.9033 285.077 52.7263 284.206 52.5051C283.012 52.2101 282.2 51.9446 281.728 51.7233C281.271 51.5021 280.917 51.2071 280.681 50.8089C280.445 50.4254 280.327 49.9976 280.327 49.5257C280.327 49.0979 280.43 48.6997 280.622 48.3457C280.814 47.9769 281.079 47.682 281.419 47.446C281.669 47.2542 282.009 47.1067 282.451 46.974C282.879 46.8412 283.351 46.7822 283.852 46.7822C284.605 46.7822 285.268 46.8855 285.829 47.1067C286.389 47.328 286.817 47.6082 287.082 47.9917C287.348 48.3604 287.54 48.8619 287.643 49.4667L286.065 49.6879C285.991 49.2012 285.784 48.8177 285.445 48.5374C285.106 48.2572 284.619 48.1244 283.985 48.1244C283.248 48.1244 282.717 48.2424 282.392 48.4932C282.068 48.7439 281.92 49.0242 281.92 49.3634C281.92 49.5699 281.979 49.7616 282.112 49.9239C282.245 50.1009 282.451 50.2484 282.731 50.3516C282.894 50.4106 283.366 50.5434 284.162 50.7646C285.312 51.0744 286.109 51.3251 286.566 51.5168C287.023 51.7086 287.377 51.9888 287.628 52.3723C287.879 52.7411 288.012 53.2131 288.012 53.7588C288.012 54.3045 287.849 54.806 287.54 55.278C287.23 55.75 286.773 56.1187 286.183 56.3842C285.593 56.6497 284.914 56.7825 284.162 56.7825C282.923 56.7825 281.979 56.5317 281.315 56.0155C280.666 55.4992 280.253 54.7323 280.062 53.7145L280.047 53.6998Z" fill="#595757"/>
<path d="M289.266 53.6998L290.873 53.449C290.962 54.0833 291.213 54.5848 291.626 54.924C292.039 55.2632 292.614 55.4402 293.351 55.4402C294.089 55.4402 294.649 55.2927 295.003 54.983C295.357 54.6733 295.549 54.3193 295.549 53.921C295.549 53.5523 295.387 53.2721 295.077 53.0508C294.856 52.9033 294.295 52.7263 293.425 52.5051C292.23 52.2101 291.419 51.9446 290.947 51.7233C290.49 51.5021 290.136 51.2071 289.9 50.8089C289.664 50.4254 289.546 49.9976 289.546 49.5257C289.546 49.0979 289.649 48.6997 289.841 48.3457C290.033 47.9769 290.298 47.682 290.637 47.446C290.888 47.2542 291.227 47.1067 291.67 46.974C292.098 46.8412 292.57 46.7822 293.071 46.7822C293.823 46.7822 294.487 46.8855 295.047 47.1067C295.608 47.328 296.036 47.6082 296.301 47.9917C296.567 48.3604 296.758 48.8619 296.862 49.4667L295.283 49.6879C295.21 49.2012 295.003 48.8177 294.664 48.5374C294.325 48.2572 293.838 48.1244 293.204 48.1244C292.466 48.1244 291.935 48.2424 291.611 48.4932C291.286 48.7439 291.139 49.0242 291.139 49.3634C291.139 49.5699 291.198 49.7616 291.331 49.9239C291.463 50.1009 291.67 50.2484 291.95 50.3516C292.112 50.4106 292.584 50.5434 293.381 50.7646C294.531 51.0744 295.328 51.3251 295.785 51.5168C296.242 51.7086 296.596 51.9888 296.847 52.3723C297.098 52.7411 297.23 53.2131 297.23 53.7588C297.23 54.3045 297.068 54.806 296.758 55.278C296.449 55.75 295.991 56.1187 295.401 56.3842C294.811 56.6497 294.133 56.7825 293.381 56.7825C292.142 56.7825 291.198 56.5317 290.534 56.0155C289.885 55.4992 289.472 54.7323 289.28 53.7145L289.266 53.6998Z" fill="#595757"/>
<path d="M305.401 56.5468V55.1455C304.664 56.2223 303.646 56.768 302.363 56.768C301.802 56.768 301.271 56.6648 300.785 56.4435C300.298 56.2223 299.929 55.9568 299.693 55.6323C299.457 55.3078 299.295 54.9095 299.192 54.4376C299.133 54.1131 299.088 53.6116 299.088 52.9184V46.989H300.711V52.2989C300.711 53.1396 300.74 53.7148 300.814 54.0098C300.917 54.4376 301.139 54.7768 301.463 55.0128C301.788 55.2635 302.201 55.3815 302.687 55.3815C303.174 55.3815 303.631 55.2635 304.059 55.0128C304.487 54.7621 304.782 54.4228 304.959 53.9951C305.136 53.5673 305.224 52.9479 305.224 52.1219V47.0038H306.847V56.5615H305.401V56.5468Z" fill="#595757"/>
<path d="M309.368 56.5463V46.9886H310.828V48.434C311.197 47.7556 311.536 47.3131 311.861 47.0918C312.171 46.8706 312.525 46.7673 312.893 46.7673C313.439 46.7673 314 46.9443 314.56 47.2836L314 48.788C313.601 48.552 313.203 48.434 312.805 48.434C312.451 48.434 312.126 48.5373 311.846 48.7585C311.566 48.965 311.359 49.26 311.241 49.6435C311.064 50.2187 310.976 50.853 310.976 51.5315V56.5316H309.354L309.368 56.5463Z" fill="#595757"/>
<path d="M315.535 45.2188V43.3604H317.157V45.2188H315.535ZM315.535 56.5465V46.9888H317.157V56.5465H315.535Z" fill="#595757"/>
<path d="M319.62 56.5463V46.9886H321.08V48.3455C321.788 47.2983 322.791 46.7673 324.118 46.7673C324.693 46.7673 325.224 46.8706 325.711 47.0771C326.198 47.2836 326.552 47.5491 326.803 47.8883C327.039 48.2275 327.216 48.6258 327.304 49.083C327.363 49.378 327.393 49.909 327.393 50.6612V56.5463H325.77V50.735C325.77 50.0712 325.711 49.5845 325.578 49.26C325.446 48.9355 325.224 48.67 324.915 48.4783C324.59 48.2865 324.222 48.1833 323.779 48.1833C323.086 48.1833 322.496 48.4045 321.994 48.847C321.493 49.2895 321.242 50.1155 321.242 51.3397V56.5611H319.62V56.5463Z" fill="#595757"/>
<path d="M329.576 57.3428L331.154 57.5788C331.213 58.0656 331.405 58.4196 331.7 58.6408C332.098 58.9358 332.659 59.098 333.352 59.098C334.104 59.098 334.679 58.9505 335.092 58.6408C335.505 58.3458 335.771 57.9181 335.918 57.3871C336.007 57.0626 336.036 56.3694 336.036 55.3074C335.328 56.1481 334.443 56.5611 333.396 56.5611C332.083 56.5611 331.066 56.0891 330.343 55.1451C329.62 54.2012 329.266 53.0655 329.266 51.738C329.266 50.8235 329.428 49.9828 329.768 49.2158C330.092 48.4488 330.579 47.8441 331.198 47.4311C331.833 47.0181 332.555 46.7969 333.411 46.7969C334.546 46.7969 335.476 47.2541 336.198 48.1686V47.0181H337.688V55.2779C337.688 56.7676 337.541 57.8148 337.231 58.4491C336.921 59.0685 336.449 59.5553 335.785 59.924C335.122 60.278 334.325 60.4698 333.352 60.4698C332.216 60.4698 331.287 60.219 330.594 59.7028C329.886 59.1865 329.546 58.4196 329.576 57.3871V57.3428ZM330.918 51.5905C330.918 52.8442 331.169 53.7587 331.67 54.3339C332.172 54.9092 332.791 55.2041 333.543 55.2041C334.296 55.2041 334.915 54.9239 335.417 54.3487C335.918 53.7734 336.169 52.8737 336.169 51.6495C336.169 50.4253 335.903 49.5993 335.387 49.0093C334.871 48.4193 334.237 48.1243 333.514 48.1243C332.791 48.1243 332.187 48.4193 331.67 48.9946C331.169 49.5845 330.918 50.4548 330.918 51.6052V51.5905Z" fill="#595757"/>
<path d="M344.606 53.6998L346.214 53.449C346.302 54.0833 346.553 54.5848 346.966 54.924C347.379 55.2632 347.954 55.4402 348.692 55.4402C349.429 55.4402 349.99 55.2927 350.344 54.983C350.698 54.6733 350.889 54.3193 350.889 53.921C350.889 53.5523 350.727 53.2721 350.417 53.0508C350.196 52.9033 349.636 52.7263 348.765 52.5051C347.571 52.2101 346.759 51.9446 346.287 51.7233C345.83 51.5021 345.476 51.2071 345.24 50.8089C345.004 50.4254 344.886 49.9976 344.886 49.5257C344.886 49.0979 344.989 48.6997 345.181 48.3457C345.373 47.9769 345.638 47.682 345.978 47.446C346.228 47.2542 346.568 47.1067 347.01 46.974C347.453 46.8412 347.91 46.7822 348.411 46.7822C349.164 46.7822 349.827 46.8855 350.388 47.1067C350.948 47.328 351.376 47.6082 351.642 47.9917C351.907 48.3604 352.099 48.8619 352.202 49.4667L350.624 49.6879C350.55 49.2012 350.344 48.8177 350.004 48.5374C349.665 48.2572 349.178 48.1244 348.544 48.1244C347.807 48.1244 347.276 48.2424 346.951 48.4932C346.627 48.7439 346.479 49.0242 346.479 49.3634C346.479 49.5699 346.538 49.7616 346.671 49.9239C346.804 50.1009 347.01 50.2484 347.29 50.3516C347.453 50.4106 347.925 50.5434 348.721 50.7646C349.872 51.0744 350.668 51.3251 351.125 51.5168C351.583 51.7086 351.937 51.9888 352.187 52.3723C352.438 52.7411 352.571 53.2131 352.571 53.7588C352.571 54.3045 352.408 54.806 352.099 55.278C351.789 55.75 351.332 56.1187 350.742 56.3842C350.152 56.6497 349.473 56.7825 348.721 56.7825C347.482 56.7825 346.538 56.5317 345.874 56.0155C345.225 55.4992 344.812 54.7323 344.621 53.7145L344.606 53.6998Z" fill="#595757"/>
<path d="M358.013 55.1012L358.249 56.5319C357.792 56.6204 357.379 56.6794 357.025 56.6794C356.435 56.6794 355.977 56.5909 355.653 56.3992C355.328 56.2074 355.107 55.9714 354.974 55.6617C354.842 55.352 354.783 54.7177 354.783 53.7442V48.2426H353.588V46.9889H354.783V44.629L356.39 43.6555V46.9889H358.013V48.2426H356.39V53.8327C356.39 54.29 356.42 54.585 356.479 54.7177C356.538 54.8505 356.626 54.9537 356.759 55.0275C356.892 55.1012 357.069 55.1455 357.32 55.1455C357.497 55.1455 357.733 55.1307 358.028 55.0865L358.013 55.1012Z" fill="#595757"/>
<path d="M365.831 55.3664C365.226 55.8826 364.651 56.2366 364.105 56.4431C363.544 56.6496 362.954 56.7528 362.32 56.7528C361.273 56.7528 360.462 56.5021 359.901 55.9858C359.341 55.4696 359.061 54.8206 359.061 54.0241C359.061 53.5522 359.164 53.1244 359.385 52.7409C359.592 52.3574 359.872 52.0477 360.226 51.8117C360.565 51.5757 360.963 51.3987 361.391 51.2807C361.715 51.1922 362.187 51.1185 362.836 51.0447C364.149 50.8825 365.108 50.7055 365.727 50.4842C365.727 50.263 365.727 50.1155 365.727 50.0565C365.727 49.3928 365.58 48.9355 365.27 48.6553C364.857 48.2865 364.238 48.1095 363.426 48.1095C362.659 48.1095 362.099 48.2423 361.745 48.5078C361.376 48.7733 361.111 49.2453 360.934 49.9238L359.356 49.7025C359.503 49.024 359.739 48.4783 360.064 48.0653C360.388 47.6523 360.875 47.3278 361.494 47.1066C362.114 46.8853 362.836 46.7673 363.662 46.7673C364.488 46.7673 365.137 46.8558 365.654 47.0623C366.17 47.2541 366.539 47.4901 366.775 47.7851C367.011 48.08 367.188 48.4488 367.276 48.8913C367.335 49.1715 367.365 49.673 367.365 50.381V52.5344C367.365 54.0389 367.394 54.9976 367.468 55.3959C367.542 55.7941 367.674 56.1776 367.881 56.5463H366.185C366.022 56.2071 365.904 55.8236 365.86 55.3664H365.831ZM365.698 51.7527C365.108 51.9887 364.223 52.1952 363.058 52.3574C362.394 52.4607 361.922 52.5639 361.642 52.6819C361.361 52.7999 361.155 52.9769 361.008 53.2129C360.86 53.4489 360.786 53.6996 360.786 53.9799C360.786 54.4076 360.948 54.7764 361.273 55.0566C361.597 55.3369 362.084 55.4843 362.704 55.4843C363.323 55.4843 363.884 55.3516 364.37 55.0714C364.857 54.8059 365.211 54.4224 365.447 53.9504C365.624 53.5817 365.713 53.0507 365.713 52.3279V51.738L365.698 51.7527Z" fill="#595757"/>
<path d="M369.827 56.5463V46.9886H371.287V48.434C371.656 47.7556 371.995 47.3131 372.32 47.0918C372.63 46.8706 372.984 46.7673 373.352 46.7673C373.898 46.7673 374.459 46.9443 375.019 47.2836L374.459 48.788C374.06 48.552 373.662 48.434 373.264 48.434C372.91 48.434 372.585 48.5373 372.305 48.7585C372.025 48.965 371.818 49.26 371.7 49.6435C371.523 50.2187 371.435 50.853 371.435 51.5315V56.5316H369.812L369.827 56.5463Z" fill="#595757"/>
<path d="M379.518 55.1012L379.754 56.5319C379.297 56.6204 378.884 56.6794 378.53 56.6794C377.94 56.6794 377.483 56.5909 377.158 56.3992C376.834 56.2074 376.612 55.9714 376.48 55.6617C376.347 55.352 376.288 54.7177 376.288 53.7442V48.2426H375.093V46.9889H376.288V44.629L377.896 43.6555V46.9889H379.518V48.2426H377.896V53.8327C377.896 54.29 377.925 54.585 377.984 54.7177C378.043 54.8505 378.132 54.9537 378.264 55.0275C378.397 55.1012 378.574 55.1455 378.825 55.1455C379.002 55.1455 379.238 55.1307 379.533 55.0865L379.518 55.1012Z" fill="#595757"/>
<path d="M389.769 55.1012L390.005 56.5319C389.547 56.6204 389.134 56.6794 388.78 56.6794C388.19 56.6794 387.733 56.5909 387.409 56.3992C387.084 56.2074 386.863 55.9714 386.73 55.6617C386.597 55.352 386.538 54.7177 386.538 53.7442V48.2426H385.344V46.9889H386.538V44.629L388.146 43.6555V46.9889H389.769V48.2426H388.146V53.8327C388.146 54.29 388.176 54.585 388.235 54.7177C388.294 54.8505 388.382 54.9537 388.515 55.0275C388.648 55.1012 388.825 55.1455 389.075 55.1455C389.252 55.1455 389.488 55.1307 389.783 55.0865L389.769 55.1012Z" fill="#595757"/>
<path d="M390.743 51.7675C390.743 49.9975 391.229 48.6848 392.218 47.8293C393.044 47.1213 394.047 46.7673 395.227 46.7673C396.539 46.7673 397.616 47.1951 398.457 48.0653C399.297 48.9208 399.71 50.1155 399.71 51.6347C399.71 52.8589 399.519 53.8324 399.15 54.5404C398.781 55.2484 398.25 55.7941 397.542 56.1776C396.834 56.5611 396.067 56.7676 395.227 56.7676C393.884 56.7676 392.808 56.3398 391.982 55.4843C391.156 54.6289 390.743 53.3899 390.743 51.7822V51.7675ZM392.409 51.7675C392.409 52.9917 392.675 53.9061 393.206 54.5109C393.737 55.1156 394.415 55.4254 395.227 55.4254C396.038 55.4254 396.702 55.1156 397.233 54.5109C397.763 53.9061 398.029 52.9622 398.029 51.7085C398.029 50.5285 397.763 49.6288 397.218 49.024C396.687 48.4193 396.008 48.1095 395.212 48.1095C394.415 48.1095 393.737 48.4045 393.191 49.024C392.66 49.6288 392.395 50.5432 392.395 51.7675H392.409Z" fill="#595757"/>
<path d="M410.272 55.1012L410.508 56.5319C410.05 56.6204 409.637 56.6794 409.283 56.6794C408.693 56.6794 408.236 56.5909 407.912 56.3992C407.587 56.2074 407.366 55.9714 407.233 55.6617C407.1 55.352 407.041 54.7177 407.041 53.7442V48.2426H405.847V46.9889H407.041V44.629L408.649 43.6555V46.9889H410.272V48.2426H408.649V53.8327C408.649 54.29 408.679 54.585 408.738 54.7177C408.797 54.8505 408.885 54.9537 409.018 55.0275C409.151 55.1012 409.328 55.1455 409.578 55.1455C409.755 55.1455 409.991 55.1307 410.286 55.0865L410.272 55.1012Z" fill="#595757"/>
<path d="M411.849 56.5464V43.3455H413.472V48.0801C414.224 47.2099 415.183 46.7674 416.333 46.7674C417.041 46.7674 417.66 46.9001 418.177 47.1804C418.693 47.4606 419.076 47.8441 419.298 48.3308C419.519 48.8176 419.637 49.5403 419.637 50.4695V56.5316H418.014V50.4695C418.014 49.6583 417.837 49.0683 417.483 48.6996C417.129 48.3308 416.643 48.1391 415.994 48.1391C415.507 48.1391 415.065 48.2718 414.637 48.5078C414.209 48.7586 413.914 49.0978 413.737 49.5255C413.56 49.9533 413.472 50.5433 413.472 51.2955V56.5316H411.849V56.5464Z" fill="#595757"/>
<path d="M428.649 53.464L430.331 53.6705C430.065 54.644 429.578 55.4109 428.856 55.9419C428.148 56.4877 427.233 56.7532 426.112 56.7532C424.711 56.7532 423.605 56.3254 422.794 55.4552C421.968 54.5997 421.569 53.3903 421.569 51.8268C421.569 50.2633 421.982 48.9654 422.808 48.0804C423.634 47.1954 424.711 46.7529 426.038 46.7529C427.366 46.7529 428.354 47.1807 429.165 48.0656C429.977 48.9359 430.375 50.1601 430.375 51.7383C430.375 51.8268 430.375 51.9743 430.375 52.166H423.251C423.31 53.2133 423.605 54.0245 424.136 54.585C424.667 55.1455 425.33 55.4257 426.127 55.4257C426.717 55.4257 427.233 55.2635 427.646 54.9537C428.059 54.644 428.398 54.1425 428.649 53.464ZM423.325 50.8533H428.664C428.59 50.0421 428.384 49.4521 428.044 49.0391C427.528 48.4196 426.864 48.1099 426.038 48.1099C425.301 48.1099 424.667 48.3606 424.165 48.8621C423.664 49.3636 423.384 50.0273 423.325 50.8681V50.8533Z" fill="#595757"/>
<path d="M46 82.3875L46.3097 81.0158C46.6342 81.1043 46.885 81.1338 47.0767 81.1338C47.4012 81.1338 47.652 81.0306 47.8142 80.8093C47.9764 80.5881 48.0502 80.0423 48.0502 79.1721V69.1276H49.6727V79.2164C49.6727 80.3963 49.5252 81.2076 49.2154 81.6795C48.8319 82.2843 48.1829 82.5793 47.2685 82.5793C46.826 82.5793 46.413 82.5203 46 82.4023V82.3875ZM48.0502 67.3577V65.4697H49.6727V67.3577H48.0502Z" fill="#595757"/>
<path d="M51.5605 73.892C51.5605 72.122 52.0473 70.8093 53.0355 69.9538C53.8615 69.2458 54.8645 68.8918 56.0444 68.8918C57.3571 68.8918 58.4339 69.3196 59.2746 70.1898C60.1153 71.06 60.5283 72.24 60.5283 73.7592C60.5283 74.9834 60.3366 75.9569 59.9678 76.6649C59.5991 77.3729 59.0681 77.9186 58.3601 78.3021C57.6521 78.6856 56.8852 78.8921 56.0444 78.8921C54.7022 78.8921 53.6255 78.4643 52.7995 77.6089C51.9735 76.7534 51.5605 75.5144 51.5605 73.9067V73.892ZM53.2273 73.892C53.2273 75.1162 53.4927 76.0307 54.0237 76.6354C54.5547 77.2401 55.2332 77.5499 56.0444 77.5499C56.8557 77.5499 57.5194 77.2401 58.0504 76.6354C58.5814 76.0307 58.8468 75.0867 58.8468 73.833C58.8468 72.653 58.5814 71.7533 58.0356 71.1485C57.5046 70.5438 56.8262 70.2341 56.0297 70.2341C55.2332 70.2341 54.5547 70.529 54.009 71.1485C53.478 71.7533 53.2125 72.6677 53.2125 73.892H53.2273Z" fill="#595757"/>
<path d="M68.6854 78.671V77.2698C67.9479 78.3465 66.9302 78.8923 65.647 78.8923C65.0865 78.8923 64.5555 78.789 64.0688 78.5678C63.582 78.3465 63.2133 78.081 62.9773 77.7565C62.7413 77.4321 62.5791 77.0338 62.4758 76.5618C62.4168 76.2373 62.3726 75.7359 62.3726 75.0426V69.1133H63.995V74.4231C63.995 75.2639 64.0245 75.8391 64.0983 76.1341C64.2015 76.5618 64.4228 76.9011 64.7472 77.1371C65.0717 77.3878 65.4847 77.5058 65.9715 77.5058C66.4582 77.5058 66.9154 77.3878 67.3432 77.1371C67.7709 76.8863 68.0659 76.5471 68.2429 76.1193C68.4199 75.6916 68.5084 75.0721 68.5084 74.2461V69.128H70.1308V78.6858H68.6854V78.671Z" fill="#595757"/>
<path d="M72.6524 78.6708V69.1131H74.1127V70.5585C74.4814 69.8801 74.8206 69.4376 75.1451 69.2163C75.4549 68.9951 75.8089 68.8918 76.1776 68.8918C76.7233 68.8918 77.2838 69.0688 77.8443 69.4081L77.2838 70.9125C76.8856 70.6765 76.4873 70.5585 76.0891 70.5585C75.7351 70.5585 75.4106 70.6618 75.1304 70.883C74.8501 71.0895 74.6436 71.3845 74.5256 71.768C74.3487 72.3432 74.2602 72.9775 74.2602 73.656V78.6561H72.6377L72.6524 78.6708Z" fill="#595757"/>
<path d="M78.8032 78.6708V69.1131H80.2634V70.4701C80.9714 69.4228 81.9744 68.8918 83.3019 68.8918C83.8771 68.8918 84.4081 68.9951 84.8948 69.2016C85.3815 69.4081 85.7355 69.6736 85.9863 70.0128C86.2223 70.3521 86.3993 70.7503 86.4878 71.2075C86.5468 71.5025 86.5763 72.0335 86.5763 72.7857V78.6708H84.9538V72.8595C84.9538 72.1958 84.8948 71.709 84.7621 71.3845C84.6293 71.06 84.4081 70.7945 84.0983 70.6028C83.7738 70.4111 83.4051 70.3078 82.9626 70.3078C82.2694 70.3078 81.6794 70.5291 81.1779 70.9715C80.6764 71.414 80.4257 72.24 80.4257 73.4642V78.6856H78.8032V78.6708Z" fill="#595757"/>
<path d="M95.6028 75.5883L97.2842 75.7948C97.0187 76.7682 96.532 77.5352 95.8093 78.0662C95.1013 78.6119 94.1868 78.8774 93.0658 78.8774C91.6646 78.8774 90.5584 78.4497 89.7472 77.5795C88.9212 76.724 88.5229 75.5145 88.5229 73.9511C88.5229 72.3876 88.9359 71.0896 89.7619 70.2047C90.5879 69.3197 91.6646 68.8772 92.9921 68.8772C94.3195 68.8772 95.3078 69.3049 96.119 70.1899C96.9302 71.0601 97.3285 72.2844 97.3285 73.8626C97.3285 73.9511 97.3285 74.0986 97.3285 74.2903H90.2044C90.2634 75.3375 90.5584 76.1488 91.0894 76.7092C91.6204 77.2697 92.2841 77.55 93.0953 77.55C93.6853 77.55 94.2015 77.3877 94.6145 77.078C95.0275 76.7682 95.3668 76.2667 95.6175 75.5883H95.6028ZM90.2782 72.9776H95.6175C95.5438 72.1664 95.3373 71.5764 95.0128 71.1634C94.4965 70.5439 93.8328 70.2342 93.0068 70.2342C92.2693 70.2342 91.6351 70.4849 91.1336 70.9864C90.6321 71.4879 90.3519 72.1516 90.2929 72.9923L90.2782 72.9776Z" fill="#595757"/>
<path d="M99.2459 82.3584L99.0689 80.8392C99.4229 80.9277 99.7326 80.9867 99.9981 80.9867C100.352 80.9867 100.647 80.9277 100.868 80.8097C101.09 80.6917 101.267 80.5147 101.399 80.3082C101.503 80.146 101.665 79.7477 101.901 79.0988C101.93 79.0103 101.975 78.8775 102.048 78.7005L98.4199 69.128H100.16L102.152 74.6591C102.402 75.3671 102.638 76.1046 102.845 76.8716C103.037 76.1341 103.258 75.3966 103.509 74.6886L105.559 69.1133H107.181L103.538 78.8333C103.155 79.8805 102.845 80.6032 102.624 81.0015C102.329 81.5324 102.004 81.9307 101.635 82.1814C101.267 82.4322 100.824 82.5502 100.308 82.5502C99.9981 82.5502 99.6441 82.4912 99.2606 82.3584H99.2459Z" fill="#595757"/>
<path d="M107.624 78.6711V76.8274H109.467V78.6711H107.624Z" fill="#595757"/>
<mask id="mask0_76_87945" style="mask-type:luminance" maskUnits="userSpaceOnUse" x="17" y="99" width="446" height="340">
<path d="M17.5806 99.6062V398.859C17.5806 420.829 35.5645 438.801 57.5483 438.801H422.436C444.42 438.801 462.403 420.829 462.403 398.859V99.6062H17.5806Z" fill="white"/>
</mask>
<g mask="url(#mask0_76_87945)">
<mask id="mask1_76_87945" style="mask-type:luminance" maskUnits="userSpaceOnUse" x="-131" y="73" width="718" height="404">
<path d="M586.616 73.1748H-130.399V476.233H586.616V73.1748Z" fill="white"/>
</mask>
<g mask="url(#mask1_76_87945)">
<path d="M586.616 73.1748H-130.399V476.233H586.616V73.1748Z" fill="#EBF1FA"/>
<path d="M107.531 213.483H141.654V267.12H156.506V198.64L184.087 176.066V237.203H194.365V335.306H-129.764L-130.399 146.66L-108.307 140.556L-92.7882 149.34L-92.1526 207.332L-80.184 208.432V171.015L-63.3783 167.173L-43.3325 171.015V214.629L-7.78322 218.874V208.525C-7.78322 188.074 7.30157 170.659 27.7815 167.514L40.1687 127.944V201.63L62.106 205.999V167.359H93.2988V241.556L107.515 243.896V213.452L107.531 213.483Z" fill="#CCDAF0"/>
<path d="M89.6561 171.311H87.5786V174.099H89.6561V171.311Z" fill="#EBF1FA"/>
<path d="M84.803 175.524H82.7256V178.313H84.803V175.524Z" fill="#EBF1FA"/>
<path d="M80.5238 171.311H78.4463V174.099H80.5238V171.311Z" fill="#EBF1FA"/>
<path d="M76.8348 171.311H74.7573V174.099H76.8348V171.311Z" fill="#EBF1FA"/>
<path d="M70.7728 171.311H68.6953V174.099H70.7728V171.311Z" fill="#EBF1FA"/>
<path d="M74.0901 179.925H72.0127V182.714H74.0901V179.925Z" fill="#EBF1FA"/>
<path d="M69.7337 176.918H67.6562V179.707H69.7337V176.918Z" fill="#EBF1FA"/>
<path d="M-130.399 448.903L199.59 365.456L494.092 334.656L200.582 477.457H-130.399V448.903Z" fill="#1C1D1B"/>
<path d="M-130.399 471.477L162.273 387.472L407.459 358.515L153.142 477.101H-130.399V471.477Z" fill="#040000"/>
<path d="M141.142 445.308L33.9673 439.7L38.5718 437.174L144.847 442.86L141.142 445.308Z" fill="#57595B"/>
<path d="M182.475 435.827L183.188 427.011L91.4701 421.387L90.0283 427.693L182.475 435.827Z" fill="#414344"/>
<path d="M183.188 427.011L91.4702 421.387L95.4081 418.877L186.351 424.563L183.188 427.011Z" fill="#57595B"/>
<path d="M186.351 424.562L187.994 431.24L182.475 435.826L183.188 427.01L186.351 424.562Z" fill="#353738"/>
<path d="M224.876 418.955L225.511 410.139L144.77 404.515L143.499 410.821L224.876 418.955Z" fill="#414344"/>
<path d="M225.512 410.139L144.77 404.515L148.227 402.005L228.302 407.691L225.512 410.139Z" fill="#57595B"/>
<path d="M228.302 407.691L229.744 414.368L224.876 418.954L225.512 410.139L228.302 407.691Z" fill="#353738"/>
<path d="M152.398 397.604L-107.392 477.503L-81.3769 477.488L164.228 398.085L152.398 397.604Z" fill="#969FAB"/>
<path d="M164.228 398.085L-81.377 477.488L-57.2692 477.457L182.847 399.108L164.228 398.085Z" fill="#75797C"/>
<path d="M242.054 402.004L52.897 477.457L74.8498 477.503L254.58 401.896L242.054 402.004Z" fill="#969FAB"/>
<path d="M254.581 401.896L74.8501 477.503L94.0123 477.441L264.425 403.538L254.581 401.896Z" fill="#75797C"/>
<path d="M-130.399 426.097L200.582 359.832V310.13L-130.399 304.118V426.097Z" fill="#A2AEBE"/>
<path d="M581.749 261.883V233.376L569.051 243.896V275.827H562.199V250.821H546.478V263.913H539.936V250.31V229.316H525.564V245.29H515.456V210.941L493.364 225.009V243.896H482.124V207.595H464.776V220.253H459.272V213.312H442.296V216.658H437.164V234.832H425.909V215.946L403.816 201.878V236.226H393.708V220.253H379.337V241.246V254.849H372.794V241.742H357.074V266.764H350.237V234.832L337.524 224.312V252.804H332.795V324.042H384.189H437.164V333.106H535.083H586.493V261.883H581.749Z" fill="#CCDAF0"/>
<path d="M321.524 157.598C321.524 157.598 303.618 136.186 259.867 135.303C259.867 135.303 198.505 129.726 144.786 155.259C144.786 155.259 125.996 162.881 118.957 196.626C118.957 196.626 106.849 251.193 106.927 286.983C107.004 322.509 108.694 351.233 137.453 370.011C137.453 370.011 136.569 375.573 137.623 379.896L138.46 384.079C140.057 392.027 146.848 397.884 154.956 398.317L257.325 403.632C265.821 404.065 274.317 402.671 282.223 399.51L460.977 328.071V274.681L321.524 157.629V157.598Z" fill="#040000"/>
<path d="M153.794 297.441C201.157 299.006 248.271 297.642 266.069 268.313C267.527 263.464 268.395 260.567 268.395 260.567C268.395 260.567 288.441 187.283 306.657 166.398C309.851 162.742 315.323 162.169 319.184 165.097L433.754 251.782L321.54 157.583C321.54 157.583 303.634 136.171 259.883 135.288C259.883 135.288 198.521 129.71 144.802 155.243C144.802 155.243 126.012 162.866 118.973 196.61C118.973 196.61 111.035 232.353 108.059 264.967C108.059 265.013 106.493 295.876 153.809 297.441H153.794Z" fill="#414042"/>
<path d="M107.392 273.349C107.454 272.466 107.516 271.583 107.578 270.699C107.516 271.583 107.454 272.481 107.392 273.349Z" fill="#414042"/>
<path d="M107.222 276.215C107.268 275.393 107.315 274.557 107.361 273.72C107.315 274.557 107.253 275.393 107.222 276.215Z" fill="#414042"/>
<path d="M108.043 264.967C107.965 265.896 107.872 266.826 107.795 267.755C107.872 266.826 107.95 265.896 108.043 264.967Z" fill="#414042"/>
<path d="M107.578 270.653C107.64 269.754 107.717 268.856 107.795 267.957C107.717 268.856 107.655 269.754 107.578 270.653Z" fill="#414042"/>
<path d="M107.098 278.803C107.129 277.982 107.175 277.145 107.206 276.308C107.16 277.145 107.129 277.966 107.098 278.803Z" fill="#414042"/>
<path d="M107.004 281.622C107.019 280.863 107.05 280.088 107.081 279.298C107.05 280.073 107.019 280.847 107.004 281.622Z" fill="#414042"/>
<path d="M137.623 379.88C137.53 379.462 137.437 379.044 137.375 378.625C137.437 379.059 137.53 379.477 137.623 379.88Z" fill="#414042"/>
<path d="M106.942 284.101C106.942 283.327 106.973 282.552 106.989 281.762C106.973 282.552 106.958 283.327 106.942 284.101Z" fill="#414042"/>
<path d="M141.282 384.668L260.472 391.128C260.472 391.128 274.27 392.306 290.13 387.906L460.993 328.055L516.789 315.366L321.54 157.598C321.54 157.598 303.634 136.186 259.883 135.303C259.883 135.303 198.521 129.725 144.802 155.258C144.802 155.258 126.011 162.881 118.973 196.625C118.973 196.625 106.865 251.193 106.942 286.982C107.02 322.508 108.71 351.233 137.468 370.011C137.468 370.011 135.406 382.917 141.282 384.683V384.668Z" fill="#3C3C3B"/>
<path d="M319.184 165.113C315.308 162.184 309.851 162.758 306.657 166.414C288.44 187.299 268.395 260.582 268.395 260.582C268.395 260.582 236.69 366.494 234.334 374.117C232.892 378.812 227.776 385.055 224.07 389.161L248.659 390.494C298.502 390.447 329.152 325.251 329.152 325.251L514.123 314.747L510.635 312.066L319.168 165.128L319.184 165.113Z" fill="#EDEDEC"/>
<path d="M127.19 188.987L202.645 181.365C202.645 181.365 193.25 213.049 190.909 248.249L116.337 252.355C116.337 252.355 116.337 213.343 127.205 188.987H127.19Z" fill="#859EAE"/>
<path d="M208.504 181.349L251.666 176.655L242.271 245.6L197.063 247.366C197.063 247.366 205.869 187.221 208.52 181.349H208.504Z" fill="#859EAE"/>
<path d="M258.596 176.19L273.247 174.656L260.813 245.104H248.287L258.596 176.19Z" fill="#859EAE"/>
<path d="M143.669 176.175L155.157 174.78C156.01 174.672 156.754 174.021 157.111 173.076L159.235 167.452C160.01 165.391 158.692 163.083 156.847 163.253L145.313 164.353C144.413 164.446 143.638 165.128 143.282 166.135L141.204 172.053C140.476 174.13 141.84 176.392 143.669 176.175Z" fill="#EDEDEC"/>
<path d="M143.422 176.608C142.646 176.608 141.918 176.237 141.375 175.57C140.585 174.594 140.367 173.153 140.802 171.914L142.879 165.996C143.298 164.818 144.212 164.028 145.267 163.935L156.801 162.835C157.685 162.757 158.537 163.145 159.127 163.919C159.886 164.926 160.088 166.367 159.623 167.591L157.499 173.215C157.08 174.315 156.196 175.059 155.204 175.183L143.716 176.577C143.623 176.577 143.515 176.593 143.422 176.593V176.608ZM157.065 163.656C157.065 163.656 156.956 163.656 156.91 163.656L145.375 164.756C144.646 164.834 143.995 165.407 143.701 166.259L141.623 172.177C141.282 173.153 141.453 174.269 142.057 175.028C142.491 175.555 143.05 175.818 143.639 175.741L155.127 174.346C155.824 174.269 156.444 173.711 156.739 172.906L158.863 167.281C159.235 166.305 159.08 165.19 158.491 164.415C158.103 163.919 157.607 163.641 157.065 163.641V163.656Z" fill="#3C3C3B"/>
<path d="M260.224 163.222L271.712 161.828C272.565 161.719 273.309 161.068 273.665 160.123L275.789 154.499C276.565 152.439 275.247 150.13 273.402 150.301L261.867 151.401C260.968 151.494 260.193 152.175 259.836 153.182L257.759 159.101C257.03 161.177 258.395 163.439 260.224 163.222Z" fill="#EDEDEC"/>
<path d="M259.976 163.656C259.201 163.656 258.472 163.284 257.929 162.618C257.139 161.642 256.922 160.201 257.356 158.962L259.433 153.043C259.852 151.866 260.766 151.076 261.821 150.983L273.355 149.883C274.239 149.805 275.092 150.192 275.681 150.967C276.44 151.974 276.642 153.415 276.177 154.639L274.053 160.263C273.634 161.363 272.751 162.107 271.758 162.231L260.27 163.625C260.177 163.625 260.069 163.641 259.976 163.641V163.656ZM273.619 150.704C273.619 150.704 273.51 150.704 273.464 150.704L261.929 151.804C261.201 151.881 260.549 152.454 260.255 153.307L258.177 159.225C257.836 160.201 258.007 161.317 258.612 162.076C259.046 162.603 259.604 162.85 260.193 162.788L271.681 161.394C272.379 161.301 272.999 160.759 273.293 159.953L275.417 154.329C275.789 153.353 275.634 152.238 275.045 151.463C274.658 150.967 274.161 150.688 273.619 150.688V150.704Z" fill="#3C3C3B"/>
<path d="M313.106 181.35C313.106 181.35 306.068 176.159 306.068 192.985L302.936 250.093L313.106 252.34V181.334V181.35Z" fill="#364F5D"/>
<path d="M333.865 195.727L346.578 204.14V262.953L333.865 258.32V195.727Z" fill="#364F5D"/>
<path d="M373.058 222.949L403.243 242.703C403.801 243.075 404.126 243.71 404.126 244.376V277.826C404.126 279.205 402.778 280.181 401.46 279.763L371.275 269.94C370.438 269.661 369.879 268.887 369.879 268.004V224.638C369.879 223.011 371.709 222.035 373.058 222.965V222.949Z" fill="#364F5D"/>
<path d="M424.606 257.298L444.172 269.816C444.528 270.064 444.745 270.467 444.745 270.901V292.39C444.745 293.289 443.877 293.924 443.024 293.645L423.459 286.595C422.917 286.425 422.544 285.914 422.544 285.341V258.367C422.544 257.313 423.738 256.678 424.606 257.282V257.298Z" fill="#364F5D"/>
<path d="M458.838 279.685L471.349 287.68C471.582 287.835 471.721 288.098 471.721 288.377V302.119C471.721 302.693 471.163 303.095 470.62 302.925L458.109 298.417C457.768 298.308 457.536 297.983 457.536 297.611V280.382C457.536 279.701 458.295 279.313 458.853 279.685H458.838Z" fill="#364F5D"/>
<path d="M179.188 159.489L176.956 166.708C176.057 169.637 178.413 172.534 181.452 172.24L221.389 168.413C223.032 168.258 224.443 167.173 225.001 165.624L227.652 158.373C228.737 155.414 226.35 152.346 223.218 152.64L182.878 156.498C181.157 156.669 179.7 157.846 179.188 159.489Z" fill="#EDEDEC"/>
<path d="M180.955 172.688C179.235 172.688 177.622 171.743 176.801 170.116C176.227 169.001 176.211 167.684 176.584 166.476L178.801 159.318C179.359 157.52 180.924 156.25 182.8 156.064L223.264 152.191C225.295 152.005 227.218 153.105 228.039 155.103C228.489 156.188 228.427 157.427 228.039 158.543L225.404 165.778C224.799 167.452 223.249 168.645 221.481 168.815L181.436 172.657C181.281 172.657 181.142 172.673 180.987 172.673L180.955 172.688ZM179.591 159.581L177.359 166.77C177.08 167.653 177.064 168.614 177.421 169.45C178.087 171.062 179.684 171.991 181.328 171.821L221.373 167.994C222.83 167.854 224.086 166.878 224.582 165.515L227.233 158.264C227.559 157.365 227.621 156.358 227.249 155.46C226.582 153.817 224.985 152.888 223.326 153.043L182.862 156.916C181.328 157.056 180.041 158.109 179.591 159.581Z" fill="#3C3C3B"/>
<path d="M281.448 385.567C283.836 385.133 286.316 384.591 288.859 383.893L456.776 325.081L331.85 329.264C329.214 334.377 322.021 347.391 310.796 360.576C301.525 371.468 291.649 379.85 281.448 385.582V385.567Z" fill="#1C1D1B"/>
<path d="M153.902 169.885C153.607 171.899 151.747 173.309 149.732 173.014C147.716 172.72 146.305 170.861 146.6 168.847C146.894 166.832 148.755 165.422 150.77 165.717C152.786 166.011 154.197 167.87 153.902 169.885Z" fill="#E98E14"/>
<path d="M270.456 157.289C270.162 159.303 268.301 160.713 266.286 160.418C264.27 160.124 262.86 158.265 263.154 156.251C263.449 154.236 265.309 152.827 267.34 153.121C269.355 153.415 270.766 155.274 270.472 157.289H270.456Z" fill="#E98E14"/>
<path d="M154.801 285.898C137.329 285.263 124.43 280.305 116.461 271.195C111.934 266.02 109.872 260.396 108.957 256.197C108.709 258.382 108.477 260.582 108.26 262.751C109.562 265.974 111.5 269.46 114.384 272.806C122.833 282.614 136.398 287.943 154.723 288.609C162.615 288.904 170.521 289.105 178.32 289.105C214.923 289.105 249.139 284.457 268.131 261.481C268.301 260.892 268.41 260.567 268.41 260.567C268.41 260.567 269.061 258.165 270.255 254.121C249.682 286.564 201.993 287.618 154.832 285.898H154.801Z" fill="#7E348F"/>
<path d="M185.172 298.432L185.25 297.921C185.978 293.273 203.187 183.952 206.148 177.383L206.241 177.166L206.474 177.135L255.511 171.806L236.814 296.418H236.473L185.157 298.432H185.172ZM206.83 177.957C203.776 186.09 187.451 289.384 186.164 297.549L236.116 295.613L254.55 172.766L206.846 177.957H206.83Z" fill="#404E50"/>
<path d="M224.07 389.161C227.791 385.055 232.892 378.812 234.333 374.117C236.287 367.749 258.72 292.855 266.069 268.329C246.721 297.658 201.156 299.021 153.793 297.456C106.446 295.892 108.043 264.998 108.043 264.982C107.345 272.667 106.911 280.166 106.927 286.983C107.004 322.509 108.694 351.234 137.453 370.011C137.453 370.011 135.391 382.917 141.267 384.684L243.201 390.199L224.055 389.161H224.07Z" fill="#6A338F"/>
<path d="M156.243 378.796C155.065 373.513 143.034 366.773 125.717 337.723C108.415 308.704 108.043 265.029 108.043 264.967C107.345 272.651 106.911 280.15 106.927 286.967C107.004 322.493 108.694 351.218 137.453 369.996C137.453 369.996 135.391 382.902 141.267 384.668L156.755 385.504C156.801 383.258 156.693 380.81 156.243 378.796Z" fill="#EDEDEC"/>
<path d="M183.265 372.94C172.475 372.94 161.824 370.043 152.739 364.233C145.53 359.616 138.91 352.923 137.747 343.611C135.003 321.704 149.096 317.396 159.468 317.396H209.373C209.373 317.396 229.729 318.171 229.729 336.562C229.729 354.952 205.668 372.94 186.49 372.94H183.265Z" fill="#040000"/>
<path d="M159.948 347.515V341.643L201.358 342.697V348.553L159.948 347.515Z" fill="#414042"/>
<path d="M168.134 339.21V317.38H162.274V339.055L168.134 339.21Z" fill="#414042"/>
<path d="M172.026 352.473L188.723 353.372C189.886 353.434 190.878 352.504 190.878 351.342V339.753C190.878 338.669 190.025 337.77 188.956 337.724L172.259 336.825C171.096 336.763 170.104 337.693 170.104 338.855V350.444C170.104 351.528 170.956 352.427 172.026 352.473Z" fill="#414042"/>
<path d="M199.032 339.985V317.38H193.172V339.846L199.032 339.985Z" fill="#414042"/>
<path d="M477.752 307.62L299.851 252.665V252.339L303.974 187.5C303.974 183.549 304.998 180.776 307.029 179.273C309.695 177.29 313.075 178.281 313.214 178.328L313.323 178.374L475.752 288.346V289.337L312.904 179.118C312.486 179.01 309.664 178.343 307.509 179.955C305.711 181.303 304.796 183.844 304.796 187.531L300.703 252.061L477.721 306.752V307.635L477.752 307.62Z" fill="#575857"/>
<path d="M268.487 259.529L269.309 256.275L499.193 314.391L495.162 314.53L268.487 259.529Z" fill="#7E348F"/>
<path d="M316.284 181.381L331.121 191.42V315.785L316.238 315.847L316.284 181.381Z" fill="#6D6E71"/>
<path d="M349.12 203.614L366.546 215.404V315.615L349.12 315.692V203.614Z" fill="#6D6E71"/>
<path d="M407.459 243.106L418.746 250.728V315.847H407.459V243.106Z" fill="#6D6E71"/>
<path d="M448.543 270.932L455.21 275.44V315.692L448.543 315.847V270.932Z" fill="#6D6E71"/>
<path opacity="0.6" d="M158.91 185.781L148.181 186.865C139.438 209.16 137.686 239.821 137.329 251.209L147.918 250.62C148.585 236.149 150.895 207.843 158.91 185.781Z" fill="url(#paint1_linear_76_87945)"/>
<path opacity="0.6" d="M164.894 185.176C157.235 207.254 154.693 234.569 153.84 250.294L160.072 249.953C160.522 237.357 162.429 207.688 170.583 184.603L164.878 185.176H164.894Z" fill="url(#paint2_linear_76_87945)"/>
<path d="M180.288 258.258H176.196L134.15 234.414C134.274 232.849 134.321 231.811 134.321 231.811C134.321 231.811 135.36 216.395 132.585 213.622L129.422 249.876C130.848 248.45 133.112 243.772 133.639 239.464L169.715 260.272C169.684 260.427 169.669 260.566 169.669 260.737V262.224C169.669 263.587 170.785 264.703 172.149 264.703H180.288C181.653 264.703 182.769 263.587 182.769 262.224V260.737C182.769 259.373 181.653 258.258 180.288 258.258ZM170.707 258.723L133.98 237.528L133.84 237.776C133.887 237.311 133.933 236.862 133.98 236.428L172.475 258.258H172.165C171.622 258.258 171.126 258.428 170.723 258.723H170.707Z" fill="#2B2B2A"/>
<path d="M511.828 314.917L299.2 315.94L299.014 316.59C298.967 316.776 293.618 328.087 283.51 346.895C267.325 376.968 249.558 386.853 237.14 389.874L242.039 390.137C253.48 387.039 269.371 376.89 285.076 347.701C294.208 330.736 298.037 322.013 300.517 317.722L511.813 315.816V314.933L511.828 314.917Z" fill="#6D6E71"/>
<path d="M587.965 426.097C332.144 426.097 351.151 403.694 351.151 403.694V318.667C351.151 318.667 373.337 330.426 587.965 332.703V426.097Z" fill="#969FAB"/>
<path d="M-130.399 295.132L107.298 305.961L107.577 313.104L-130.399 304.118V295.132Z" fill="#BBC7D3"/>
<path d="M-67.2698 140.943C-67.2698 140.943 -52.0455 145.575 -40.7745 144.692C-29.5191 143.809 -26.868 144.909 -16.9303 144.801C-6.99264 144.692 7.34798 144.491 22.3552 144.801C37.3625 145.126 49.7187 144.801 49.7187 144.801C49.7187 144.801 37.7966 136.512 29.6263 137.395C21.4561 138.278 17.7042 139.254 15.9368 137.333C14.1695 135.412 11.3013 131.662 4.89843 131.229C-1.50447 130.795 -4.15554 134.312 -4.15554 134.312C-4.15554 134.312 -5.47333 124.613 -18.2791 124.613C-31.0849 124.613 -31.7516 131.446 -31.7516 131.446C-31.7516 131.446 -38.3715 129.679 -44.5573 132.763C-50.7432 135.846 -50.2936 136.078 -54.495 135.846C-58.6964 135.629 -63.9831 135.412 -67.3008 136.512C-70.6185 137.612 -73.2541 139.161 -75.6881 139.378C-78.1221 139.595 -77.4555 141.361 -75.6881 141.361C-73.9207 141.361 -67.3008 140.927 -67.3008 140.927L-67.2698 140.943Z" fill="white"/>
<path d="M163.266 122.49C163.266 122.49 172.878 125.418 179.994 124.861C187.11 124.303 188.769 125 195.048 124.938C201.327 124.861 210.381 124.737 219.853 124.938C229.326 125.14 237.14 124.938 237.14 124.938C237.14 124.938 229.62 119.701 224.458 120.259C219.295 120.817 216.939 121.437 215.823 120.213C214.706 118.989 212.892 116.634 208.861 116.355C204.815 116.076 203.141 118.307 203.141 118.307C203.141 118.307 202.304 112.172 194.226 112.172C186.149 112.172 185.73 116.494 185.73 116.494C185.73 116.494 181.545 115.379 177.653 117.331C173.762 119.283 174.025 119.423 171.374 119.283C168.723 119.144 165.375 119.004 163.297 119.701C161.22 120.399 159.53 121.375 157.995 121.514C156.46 121.654 156.879 122.769 157.995 122.769C159.111 122.769 163.297 122.49 163.297 122.49H163.266Z" fill="white"/>
<path d="M354.857 148.643C354.857 148.643 364.004 151.432 370.763 150.89C377.523 150.363 379.12 151.029 385.088 150.952C391.057 150.89 399.677 150.766 408.685 150.952C417.692 151.137 425.118 150.952 425.118 150.952C425.118 150.952 417.956 145.978 413.057 146.505C408.158 147.032 405.894 147.62 404.84 146.458C403.786 145.296 402.049 143.05 398.204 142.787C394.36 142.523 392.763 144.646 392.763 144.646C392.763 144.646 391.972 138.82 384.282 138.82C376.593 138.82 376.19 142.926 376.19 142.926C376.19 142.926 372.205 141.872 368.5 143.716C364.795 145.575 365.058 145.699 362.531 145.575C360.004 145.451 356.826 145.312 354.841 145.978C352.857 146.644 351.26 147.574 349.803 147.698C348.345 147.837 348.749 148.891 349.803 148.891C350.857 148.891 354.841 148.628 354.841 148.628L354.857 148.643Z" fill="white"/>
<path opacity="0.55" d="M32.2156 104.889C32.2156 104.889 42.6028 108.05 50.277 107.446C57.9511 106.842 59.7495 107.601 66.5245 107.523C73.2995 107.446 83.0821 107.306 93.3144 107.523C103.547 107.74 111.98 107.523 111.98 107.523C111.98 107.523 103.857 101.884 98.2909 102.472C92.7252 103.077 90.1672 103.743 88.9579 102.426C87.7486 101.109 85.7952 98.5682 81.4388 98.2583C77.0823 97.9484 75.2684 100.365 75.2684 100.365C75.2684 100.365 74.3692 93.7498 65.6408 93.7498C56.9124 93.7498 56.4628 98.4133 56.4628 98.4133C56.4628 98.4133 51.9513 97.2048 47.7344 99.3119C43.5175 101.419 43.8276 101.574 40.9595 101.419C38.1068 101.264 34.4945 101.125 32.231 101.868C29.9676 102.612 28.1692 103.665 26.5103 103.82C24.8514 103.975 25.301 105.168 26.5103 105.168C27.7196 105.168 32.231 104.874 32.231 104.874L32.2156 104.889Z" fill="white"/>
<path opacity="0.55" d="M301.122 99.0023C301.122 99.0023 307.54 100.954 312.284 100.583C317.028 100.211 318.144 100.676 322.33 100.629C326.516 100.583 332.562 100.49 338.888 100.629C345.213 100.769 350.422 100.629 350.422 100.629C350.422 100.629 345.399 97.1431 341.957 97.515C338.516 97.8868 336.934 98.2896 336.19 97.484C335.446 96.6783 334.237 95.098 331.539 94.9121C328.842 94.7261 327.725 96.2135 327.725 96.2135C327.725 96.2135 327.167 92.1233 321.772 92.1233C316.377 92.1233 316.098 95.005 316.098 95.005C316.098 95.005 313.307 94.2614 310.703 95.5628C308.098 96.8642 308.284 96.9572 306.517 96.8642C304.749 96.7713 302.517 96.6783 301.122 97.1431C299.726 97.6079 298.61 98.2586 297.587 98.3516C296.564 98.4445 296.843 99.1882 297.587 99.1882C298.331 99.1882 301.122 99.0023 301.122 99.0023Z" fill="white"/>
<path d="M351.151 318.666C351.151 318.666 373.337 330.426 587.965 332.703V315.862L351.151 318.666Z" fill="#EBF1FA"/>
<path d="M491.1 275.657L463.861 252.99C461.721 251.286 458.683 250.217 455.272 250.186L436.048 250.093L438.838 252.355L455.272 252.432C458.047 252.463 460.559 253.316 462.326 254.648H462.342C463.923 255.857 464.9 257.468 464.9 259.234V319.735H471.814L494.914 318.821L495.24 283.404C495.271 280.274 493.72 277.377 491.116 275.641L491.1 275.657Z" fill="#634E42"/>
<path d="M493.659 318.666H461.83V320.696H493.659V318.666Z" fill="#838D97"/>
<path d="M464.869 318.249L461.83 318.667H464.869V318.249Z" fill="#A2AEBE"/>
<path d="M464.869 259.25C464.869 257.499 463.892 255.888 462.311 254.664H462.295C460.543 253.331 458.032 252.479 455.241 252.448L438.808 252.371L464.869 273.426V259.265V259.25Z" fill="#231B16"/>
</g>
</g>
<defs>
<linearGradient id="paint0_linear_76_87945" x1="239.992" y1="222.453" x2="239.992" y2="390.71" gradientUnits="userSpaceOnUse">
<stop stop-color="white"/>
<stop offset="1" stop-color="white" stop-opacity="0.6"/>
</linearGradient>
<linearGradient id="paint1_linear_76_87945" x1="148.119" y1="251.193" x2="148.119" y2="185.781" gradientUnits="userSpaceOnUse">
<stop offset="0.09" stop-color="white"/>
<stop offset="0.86" stop-color="white" stop-opacity="0.4"/>
</linearGradient>
<linearGradient id="paint2_linear_76_87945" x1="162.212" y1="250.294" x2="162.212" y2="184.603" gradientUnits="userSpaceOnUse">
<stop offset="0.09" stop-color="white"/>
<stop offset="0.86" stop-color="white" stop-opacity="0.4"/>
</linearGradient>
</defs>
</svg>
