<svg width="481" height="454" viewBox="0 0 481 454" fill="none" xmlns="http://www.w3.org/2000/svg">
<path opacity="0.8" d="M436.87 0H43.1304C19.3101 0 0 19.2976 0 43.1024V410.898C0 434.702 19.3101 454 43.1304 454H436.87C460.69 454 480 434.702 480 410.898V43.1024C480 19.2976 460.69 0 436.87 0Z" fill="url(#paint0_linear_20_208446)"/>
<mask id="mask0_20_208446" style="mask-type:luminance" maskUnits="userSpaceOnUse" x="18" y="99" width="445" height="340">
<path d="M18.0308 99.6067V398.86C18.0308 420.829 36.0146 438.801 57.9984 438.801H422.886C444.87 438.801 462.854 420.829 462.854 398.86V99.6067H18.0308Z" fill="white"/>
</mask>
<g mask="url(#mask0_20_208446)">
<path d="M1101.28 -144.692H-202.009V494.05H1101.28V-144.692Z" fill="#B7B8B8"/>
<path d="M1101.28 425.135H-202.009V494.034H1101.28V425.135Z" fill="#929292"/>
<path d="M587.531 207.316H336.19V370.723H587.531V207.316Z" fill="#2A2B3F"/>
<path d="M336.237 196.176H325.85V305.434H336.237V196.176Z" fill="#C7D2E5"/>
<path d="M458.823 196.176H448.435V305.434H458.823V196.176Z" fill="#C7D2E5"/>
<path d="M597.918 196.176H325.85V207.315H597.918V196.176Z" fill="#C7D2E5"/>
<path d="M464.946 196.176H458.822V333.663H464.946V196.176Z" fill="#2A2B3F"/>
<path d="M348.965 207.316H336.19V342.867H348.965V207.316Z" fill="#526077"/>
<path d="M365.538 207.316H352.763V342.867H365.538V207.316Z" fill="#526077"/>
<path d="M382.111 207.316H369.336V342.867H382.111V207.316Z" fill="#526077"/>
<path d="M398.685 207.316H385.91V342.867H398.685V207.316Z" fill="#526077"/>
<path d="M415.242 207.316H402.467V342.867H415.242V207.316Z" fill="#526077"/>
<path d="M431.815 207.316H419.041V342.867H431.815V207.316Z" fill="#526077"/>
<path d="M448.388 207.316H435.614V342.867H448.388V207.316Z" fill="#526077"/>
<path opacity="0.39" d="M448.435 207.316H336.19V219.679H448.435V207.316Z" fill="#2A2B3F"/>
<path d="M382.778 371.003H367.554C361.492 371.003 356.562 366.076 356.562 360.018V334.129C356.562 315.475 371.383 310.501 380.127 310.501L382.375 310.548L382.778 371.018V371.003ZM378.034 314.979C372.887 315.537 360.918 318.527 360.918 334.129V360.018C360.918 363.674 363.895 366.649 367.554 366.649H378.391L378.034 314.995V314.979Z" fill="white"/>
<path d="M404.452 313.088H382.143V299.873C382.143 296.836 384.608 294.373 387.647 294.373H398.933C401.972 294.373 404.437 296.836 404.437 299.873V313.088H404.452ZM385.414 309.804H401.181V299.857C401.181 298.618 400.174 297.626 398.949 297.626H387.662C386.422 297.626 385.43 298.633 385.43 299.857V309.804H385.414Z" fill="white"/>
<path d="M389.29 304.072H398.034C412.219 304.072 423.723 315.583 423.723 329.744V371.018H376.375V316.962C376.375 309.835 382.158 304.056 389.29 304.056V304.072Z" fill="white"/>
<path d="M396.22 304.072H399.15C416.529 304.072 430.653 318.171 430.653 335.554V371.018H383.306V316.962C383.306 309.835 389.088 304.056 396.22 304.056V304.072Z" fill="#D05584"/>
<path d="M429.474 345.625H403.522C400.859 345.625 398.7 347.782 398.7 350.443V367.021C398.7 369.682 400.859 371.84 403.522 371.84H429.474C432.137 371.84 434.296 369.682 434.296 367.021V350.443C434.296 347.782 432.137 345.625 429.474 345.625Z" fill="white"/>
<path d="M383.414 345.888H379.352C376.826 345.888 374.779 347.934 374.779 350.459V366.463C374.779 368.988 376.826 371.034 379.352 371.034H383.414C385.94 371.034 387.988 368.988 387.988 366.463V350.459C387.988 347.934 385.94 345.888 383.414 345.888Z" fill="#EA6196"/>
<path d="M325.85 333.663H319.726V423.493H325.85V333.663Z" fill="#526077"/>
<path d="M464.946 333.663H458.822V423.493H464.946V333.663Z" fill="#526077"/>
<path d="M336.237 305.434H325.85V423.509H336.237V305.434Z" fill="white"/>
<path d="M458.823 305.434H448.435V423.509H458.823V305.434Z" fill="white"/>
<path d="M448.435 398.642H336.237V423.493H448.435V398.642Z" fill="white"/>
<path d="M448.435 398.642H336.237V409.379H448.435V398.642Z" fill="#B2BBCD"/>
<path d="M448.435 370.723H336.237V398.658H448.435V370.723Z" fill="#526077"/>
<path d="M448.435 370.723H336.237V375.976H448.435V370.723Z" fill="#687B9A"/>
<path d="M448.435 391.174H336.237V398.642H448.435V391.174Z" fill="#3E495B"/>
<path d="M254.442 189.033H192.211C190.738 189.033 189.544 190.226 189.544 191.698V232.538C189.544 234.01 190.738 235.203 192.211 235.203H254.442C255.914 235.203 257.108 234.01 257.108 232.538V191.698C257.108 190.226 255.914 189.033 254.442 189.033Z" fill="#495B71"/>
<path opacity="0.12" d="M254.473 189.033L189.56 232.523C189.56 234.01 190.738 235.203 192.196 235.203H254.473C255.93 235.203 257.109 234.01 257.109 232.523V191.714C257.109 190.242 255.93 189.033 254.473 189.033Z" fill="#221F20"/>
<path d="M219.869 214.411L216.474 244.313H230.179L226.783 214.411H219.869Z" fill="#6880A0"/>
<path d="M212.675 244.313H233.961L233.992 242.004H212.691L212.675 244.313Z" fill="#495B71"/>
<path d="M95.2218 214.04H106.57C107.423 214.04 108.105 213.467 108.105 212.754V184.789C108.105 184.092 107.423 183.518 106.586 183.503H95.2373C94.3847 183.503 93.687 184.076 93.687 184.789V212.754C93.687 213.467 94.3692 214.04 95.2373 214.04H95.2218Z" fill="#FBEAC4"/>
<path d="M95.2215 214.04H95.299V183.503H95.2215C94.3688 183.503 93.6711 184.076 93.6711 184.789V212.754C93.6711 213.467 94.3533 214.04 95.2215 214.04Z" fill="#E88A50"/>
<path opacity="0.07" d="M95.2215 214.04H106.57C107.423 214.04 108.105 213.467 108.105 212.754V204.295H93.6711V212.754C93.6711 213.467 94.3688 214.04 95.2215 214.04Z" fill="#221F20"/>
<path d="M94.6819 210.798L94.6821 210.224L94.1399 210.224L94.1397 210.797L94.6819 210.798Z" fill="#C17142"/>
<path d="M106.57 214.056C107.422 214.056 108.104 213.467 108.104 212.77V184.805C108.104 184.108 107.422 183.534 106.586 183.519V214.056H106.57Z" fill="#E88A50"/>
<path d="M96.9654 201.971L96.9683 185.75L96.426 185.75L96.4232 201.971L96.9654 201.971Z" fill="#C6908F"/>
<path d="M94.734 191.732L94.7351 185.658L94.1928 185.658L94.1918 191.732L94.734 191.732Z" fill="#C17142"/>
<path d="M98.144 195.899L98.1458 185.736L97.6035 185.736L97.6017 195.899L98.144 195.899Z" fill="#C6908F"/>
<path d="M99.3214 201.971L99.3242 185.75L98.782 185.75L98.7792 201.971L99.3214 201.971Z" fill="#C6908F"/>
<path d="M100.5 195.899L100.502 185.736L99.9597 185.736L99.9579 195.899L100.5 195.899Z" fill="#C6908F"/>
<path d="M104.034 197.153L104.036 185.735L103.494 185.735L103.492 197.153L104.034 197.153Z" fill="#C6908F"/>
<path d="M105.212 197.153L105.214 185.735L104.672 185.735L104.67 197.153L105.212 197.153Z" fill="#C6908F"/>
<path d="M100.508 197.075V196.502H99.9658V197.075H100.508Z" fill="#C6908F"/>
<path d="M94.7563 196.657V196.084H94.2141V196.657H94.7563Z" fill="#C17142"/>
<path d="M100.524 198.02V197.447H99.9815V198.02H100.524Z" fill="#C6908F"/>
<path d="M101.772 187.951L101.772 185.767L101.23 185.767L101.23 187.951L101.772 187.951Z" fill="#C6908F"/>
<path d="M94.7347 195L94.7351 192.815L94.1928 192.815L94.1925 194.999L94.7347 195Z" fill="#C17142"/>
<path d="M107.6 209.251L107.601 205.656L107.058 205.656L107.058 209.251L107.6 209.251Z" fill="#C17142"/>
<path d="M107.553 204.279L107.554 194.038L107.012 194.038L107.01 204.279L107.553 204.279Z" fill="#C17142"/>
<path d="M94.7034 209.344L94.7041 205.223L94.1618 205.223L94.1611 209.344L94.7034 209.344Z" fill="#C17142"/>
<path d="M101.795 189.486L101.796 188.727L101.253 188.727L101.253 189.486L101.795 189.486Z" fill="#C6908F"/>
<path d="M97.0283 211.311L97.0291 206.818L96.4868 206.818L96.486 211.311L97.0283 211.311Z" fill="#C6908F"/>
<path d="M98.2221 210.196L98.2227 206.818L97.6804 206.818L97.6798 210.196L98.2221 210.196Z" fill="#C6908F"/>
<path d="M99.3847 211.311L99.3855 206.818L98.8432 206.818L98.8424 211.311L99.3847 211.311Z" fill="#C6908F"/>
<path d="M100.532 210.18L100.532 206.802L99.9902 206.802L99.9896 210.18L100.532 210.18Z" fill="#C6908F"/>
<path d="M104.128 210.645L104.128 206.834L103.586 206.834L103.585 210.645L104.128 210.645Z" fill="#C6908F"/>
<path d="M105.275 210.614L105.275 206.802L104.733 206.802L104.732 210.614L105.275 210.614Z" fill="#C6908F"/>
<path d="M107.553 193.094L107.554 189.825L107.011 189.825L107.011 193.094L107.553 193.094Z" fill="#C17142"/>
<path d="M89.408 191.311H104.229C105.066 191.311 105.749 191.993 105.749 192.83V211.731C105.749 212.568 105.066 213.25 104.229 213.25H89.408V191.327V191.311Z" fill="#35445D"/>
<path d="M102.074 195.929H92.9583V196.719H102.074V195.929Z" fill="#F6D2A0"/>
<path d="M98.617 208.958H96.4155V210.244H98.617V208.958Z" fill="#F6D2A0"/>
<path d="M97.5164 207.006C95.2994 207.006 93.501 205.209 93.501 202.993C93.501 200.778 95.2993 198.98 97.5318 198.98C99.7488 198.98 101.547 200.778 101.547 202.993C101.547 205.209 99.7488 207.006 97.5318 207.006H97.5164ZM97.5164 199.166C95.4079 199.166 93.7025 200.886 93.7025 202.978C93.7025 205.069 95.4234 206.789 97.5164 206.789C99.6249 206.789 101.33 205.069 101.33 202.978C101.33 200.886 99.6093 199.166 97.5164 199.166Z" fill="#F6D2A0"/>
<path d="M97.5008 206.99L97.4387 206.804C99.1906 206.278 100.369 204.744 100.369 202.993C100.369 201.273 99.2217 199.755 97.5008 199.197L97.5628 199.011C99.3612 199.584 100.57 201.18 100.57 202.993C100.57 204.837 99.3457 206.433 97.5008 206.99Z" fill="#F6D2A0"/>
<path d="M97.5007 206.975L97.4077 206.804C98.3844 206.278 99.0511 204.744 99.0511 202.993C99.0511 201.258 98.3999 199.739 97.4387 199.197L97.5317 199.027C98.5549 199.6 99.2371 201.196 99.2371 203.008C99.2371 204.837 98.5394 206.448 97.4852 207.006L97.5007 206.975Z" fill="#F6D2A0"/>
<path d="M97.4852 206.974C95.6558 206.417 94.4155 204.805 94.4155 202.977C94.4155 201.164 95.6248 199.569 97.4232 198.995L97.4852 199.181C95.7798 199.724 94.6171 201.257 94.6171 202.977C94.6171 204.728 95.7952 206.262 97.5316 206.788L97.4696 206.974H97.4852Z" fill="#F6D2A0"/>
<path d="M97.4699 206.96C96.4312 206.402 95.718 204.791 95.718 202.963C95.718 201.165 96.4002 199.569 97.4234 198.981L97.5165 199.151C96.5553 199.693 95.9041 201.227 95.9041 202.947C95.9041 204.698 96.5552 206.232 97.5474 206.758L97.4544 206.929L97.4699 206.96Z" fill="#F6D2A0"/>
<path d="M100.834 200.716H94.23V200.902H100.834V200.716Z" fill="#F6D2A0"/>
<path d="M101.438 202.885H93.5938V203.086H101.438V202.885Z" fill="#F6D2A0"/>
<path d="M100.834 205.054H94.23V205.24H100.834V205.054Z" fill="#F6D2A0"/>
<path d="M97.6557 199.057H97.3923V206.897H97.6557V199.057Z" fill="#F6D2A0"/>
<path d="M172.428 285.231V305.434C172.428 305.434 183.591 303.498 177.173 288.268L172.428 285.246V285.231Z" fill="#EC9C9A"/>
<path d="M177.173 288.253L172.428 285.232L188.273 249.21L198.04 255.438C180.32 283.109 177.173 288.253 177.173 288.253Z" fill="#404264"/>
<path d="M172.738 213.838C172.738 213.838 179.234 219.524 198.04 255.484L187.963 259.761L166.165 224.296L172.738 213.838Z" fill="#404264"/>
<path d="M125.112 212.305C125.112 212.305 119.299 217.387 102.803 248.296C101.191 251.332 102.508 255.097 105.671 256.445L109.888 258.227L131.686 222.763L125.112 212.305Z" fill="#404264"/>
<path d="M172.739 291.909H135.034C135.034 291.909 141.98 275.719 125.422 232.942L125.112 212.305L139.685 207.579L156.631 206.712L172.739 213.823V291.909Z" fill="#404264"/>
<path d="M160.01 239.418L136.429 225.954L146.507 220.64L132.042 214.086L139.174 206.975L140.336 208.137L134.895 213.575L150.274 220.516L139.856 226.016L159.405 237.171L166.398 225.319L155.964 219.927L164.305 213.885L155.468 208.276L156.367 206.882L167.25 213.792L159.111 219.695L168.708 224.653L160.01 239.418Z" fill="#262944"/>
<path d="M139.747 207.579L140.042 207.998L159.235 236.908L156.631 206.712" fill="#CBDAF0"/>
<path d="M139.748 207.579L133.05 221.384H168.677L156.631 206.712L139.748 207.579Z" fill="white"/>
<path d="M156.631 206.712C156.631 206.712 160.351 214.505 159.623 220.02C158.894 225.536 154.212 229.316 154.212 229.316L139.763 207.579L156.631 206.712Z" fill="#E95890"/>
<path d="M156.615 207.579C156.615 207.579 157.127 210.616 150.91 210.616C144.693 210.616 139.763 207.579 139.763 207.579V187.934H156.615V207.579Z" fill="#EC9C9A"/>
<path d="M156.615 204.914V192.628H141.344C141.344 192.628 144.042 203.675 156.615 204.914Z" fill="#D16F6D"/>
<path d="M134.12 359.987L142.367 359.507L158.615 358.561L167.328 358.05C170.444 337.429 172.723 314.545 172.723 291.894H135.019C122.632 318.713 128.833 336.143 134.104 359.971L134.12 359.987Z" fill="#262944"/>
<path d="M139.747 207.579C139.747 204.527 137.267 202.048 134.213 202.048C131.159 202.048 128.678 204.527 128.678 207.579H139.747Z" fill="#E95890"/>
<path d="M139.748 207.548C138.011 205.812 135.205 205.812 133.469 207.548C131.732 209.283 131.732 212.087 133.469 213.822L139.748 207.548Z" fill="#E95890"/>
<path d="M156.615 291.909H154.972V248.574L158.925 238.007L160.475 238.596L156.615 248.868V291.909Z" fill="#262944"/>
<path d="M134.507 236.908H146.166V233.577H134.507V236.908Z" fill="white"/>
<path d="M101.268 219.819L89.2685 203.566C89.2685 203.566 81.4393 211.747 95.6558 220.206L101.268 219.834V219.819Z" fill="#EC9C9A"/>
<path d="M95.6404 220.191L101.253 219.819L109.904 258.211C103.516 258.645 97.9969 253.811 97.5628 247.428C96.028 224.73 95.6404 220.191 95.6404 220.191Z" fill="#404264"/>
<path d="M143.522 168.153C149.787 165.558 152.762 158.379 150.169 152.117C147.575 145.856 140.394 142.883 134.13 145.478C127.865 148.073 124.889 155.252 127.483 161.514C130.077 167.776 137.257 170.748 143.522 168.153Z" fill="#192636"/>
<path d="M150.073 160.496C150.073 164.152 147.112 167.111 143.453 167.111C139.794 167.111 136.833 164.152 136.833 160.496C136.833 156.839 139.794 153.88 143.453 153.88C147.112 153.88 150.073 156.839 150.073 160.496Z" fill="white"/>
<path d="M136.119 169.512V180.311H139.716V195.262C139.716 195.262 151.53 205.643 162.646 200.468C167.514 198.206 170.49 193.171 170.49 187.794V169.512C170.49 166.367 169.684 163.439 168.273 160.898C165.374 155.661 159.902 152.129 153.623 152.129H152.987C143.67 152.129 136.119 159.907 136.119 169.497V169.512Z" fill="#EC9C9A"/>
<path d="M136.119 169.512V179.351C138.879 180.187 142.135 179.893 142.135 179.893C142.135 179.893 142.631 176.128 149.297 170.272C154.01 166.135 158.754 163.826 168.273 160.898C165.374 155.661 159.902 152.129 153.623 152.129H152.987C143.67 152.129 136.119 159.907 136.119 169.497V169.512Z" fill="#192636"/>
<path d="M138.771 173.928H138.879C140.724 173.928 142.228 175.431 142.228 177.275V187.175H138.786C136.957 187.175 135.484 185.687 135.484 183.875V177.244C135.484 175.415 136.972 173.943 138.786 173.943L138.771 173.928Z" fill="#EC9C9A"/>
<path d="M164.088 185.409V183.844C165.111 183.844 165.933 183.023 165.933 182V181.442H167.498V182C167.498 183.875 165.964 185.409 164.088 185.409Z" fill="#D16F6D"/>
<path d="M157.638 194.441C154.181 194.441 152.553 191.59 152.181 189.995L153.701 189.623C153.732 189.762 154.615 193.217 158.15 192.845L158.305 194.41C158.072 194.441 157.855 194.441 157.638 194.441Z" fill="#D16F6D"/>
<path d="M142.213 178.297L143.561 196.114L146.29 170.845L142.213 178.297Z" fill="#192636"/>
<path d="M140.135 178.917C144.538 158.961 164.289 152.129 164.289 152.129C164.289 152.129 171.235 154.871 172.398 165.05C156.739 170.86 140.135 178.917 140.135 178.917Z" fill="#192636"/>
<path d="M60.1067 318H-54.8818V324.91H60.1067V318Z" fill="#D05584"/>
<path d="M291.804 252.959H38.2778C22.8674 252.959 10.3562 265.447 10.3562 280.863V423.494H319.71V280.863C319.71 265.462 307.215 252.959 291.789 252.959H291.804Z" fill="white"/>
<path d="M255.387 293.675H74.7107C62.277 293.675 52.1843 303.746 52.1843 316.187V423.494H277.898V316.187C277.898 303.761 267.821 293.675 255.371 293.675H255.387Z" fill="#526077"/>
<path d="M269.635 244.314H60.4634V252.959H269.635V244.314Z" fill="#B2BBCD"/>
<path style="mix-blend-mode:multiply" opacity="0.1" d="M319.726 423.494H10.3716V494.035H319.726V423.494Z" fill="url(#paint1_linear_20_208446)"/>
<path opacity="0.25" d="M261.992 244.298H158.181V423.478H261.992V244.298Z" fill="#221F20"/>
<path d="M234.287 417.529C234.287 420.829 236.969 423.51 240.272 423.51C243.574 423.51 246.256 420.829 246.256 417.529C246.256 414.229 243.574 411.549 240.272 411.549C236.969 411.549 234.287 414.229 234.287 417.529Z" fill="#221F20"/>
<path d="M192.474 417.529C192.474 420.829 195.156 423.51 198.459 423.51C201.761 423.51 204.443 420.829 204.443 417.529C204.443 414.229 201.761 411.549 198.459 411.549C195.156 411.549 192.474 414.229 192.474 417.529Z" fill="#221F20"/>
<path d="M209.141 305.11H231.776C237.078 305.11 241.388 300.803 241.388 295.504V257.453C241.388 252.154 237.078 247.847 231.776 247.847H209.141C203.839 247.847 199.529 252.154 199.529 257.453V295.504C199.529 300.803 203.839 305.11 209.141 305.11ZM231.776 252.324C234.597 252.324 236.907 254.617 236.907 257.453V295.504C236.907 298.339 234.613 300.632 231.776 300.632H209.141C206.304 300.632 204.009 298.339 204.009 295.504V257.453C204.009 254.633 206.304 252.324 209.141 252.324H231.776Z" fill="#2A2B3F"/>
<path d="M187.994 418.041H250.255C257.328 418.041 263.061 412.311 263.061 405.243V300.4C263.061 293.332 257.328 287.603 250.255 287.603H187.994C180.921 287.603 175.188 293.332 175.188 300.4V405.243C175.188 412.311 180.921 418.041 187.994 418.041Z" fill="#D05584"/>
<path d="M234.333 247.846L250.783 246.328L249.031 179.722L234.333 247.846Z" fill="#F19A37"/>
<path d="M253.372 243.88H221.404V259.528H253.372V243.88Z" fill="#F19A37"/>
<path d="M273.681 276.571L298.3 417.87H309.633L309.199 276.571H273.681Z" fill="#2A2B3F"/>
<path d="M252.503 413.021H266.301L282.844 276.571H250.798L252.503 413.021Z" fill="#2A2B3F"/>
<path d="M303.804 413.3C300.579 413.3 297.975 415.918 297.975 419.125V423.494H309.649V419.125C309.649 415.902 307.029 413.3 303.82 413.3H303.804Z" fill="#BCBDBF"/>
<path d="M310.579 180.698L311.664 295.658H323.974C323.974 295.658 322.951 233.716 322.935 231.005C322.703 197.586 315.974 180.698 315.974 180.698H310.564H310.579Z" fill="#F19A37"/>
<path d="M311.665 295.674V311.725C311.665 311.725 327.912 310.749 320.951 295.674H311.665Z" fill="#AB6F79"/>
<path d="M249.031 179.722L267.914 172.688C267.805 172.843 293.215 172.688 293.215 172.688L316.036 180.729L313.013 219.013L310.238 298.478H248.224L249.046 179.737L249.031 179.722Z" fill="#F19A37"/>
<path d="M293.432 159.364C293.432 159.364 308.021 163.346 306.378 174.439C304.734 185.547 276.239 201.784 276.239 201.784C276.239 201.784 259.015 181.519 259.015 172.688C259.015 163.841 270.999 154.514 293.417 159.364H293.432Z" fill="#F6B76F"/>
<path d="M293.432 173.324L278.363 190.723L267.759 173.324H293.432Z" fill="white"/>
<path d="M220.21 243.88H223.993C227.481 243.88 230.318 246.715 230.318 250.201V250.48C230.318 253.966 227.481 256.802 223.993 256.802H220.21C216.722 256.802 213.885 253.966 213.885 250.48V250.201C213.885 246.715 216.722 243.88 220.21 243.88Z" fill="#AB6F79"/>
<path d="M241.635 423.509H265.216L266.255 413.021H252.441C246.581 413.021 241.806 417.684 241.62 423.509H241.635Z" fill="#BCBDBF"/>
<path d="M262.565 139.145V153.523C260.612 153.523 259.031 151.943 259.031 149.991V142.693C259.031 140.741 260.612 139.161 262.565 139.161V139.145Z" fill="#8B4A57"/>
<path d="M267.759 173.324C267.759 173.324 271.123 176.329 280.596 176.329C290.068 176.329 293.433 173.324 293.433 173.324V153.88H267.759V173.324Z" fill="#AB6F79"/>
<path d="M267.759 170.318V158.543H288.968C288.968 158.543 285.216 169.141 267.759 170.318Z" fill="#8B4A57"/>
<path d="M294.177 133.769V140.726H293.433V159.364C293.433 159.364 284.72 166.708 272.162 165.453C265.899 164.833 261.155 159.535 261.155 153.244V133.754C261.155 131.399 261.666 129.152 262.565 127.138C263.371 125.341 264.503 123.714 265.868 122.335C268.782 119.407 272.829 117.61 277.278 117.61H278.022C286.937 117.61 294.177 124.845 294.177 133.754V133.769Z" fill="#AB6F79"/>
<path d="M262.565 127.154C263.371 125.356 264.503 123.73 265.867 122.351C268.782 119.422 272.828 117.625 277.278 117.625H278.022C286.936 117.625 294.176 124.845 294.176 133.769V140.726H293.432V144.336H288.022V136.155H286.084C283.65 136.155 281.681 134.188 281.681 131.755V131.709C281.681 129.199 279.65 127.154 277.123 127.154C271.464 127.154 262.55 127.154 262.55 127.154H262.565Z" fill="#192636"/>
<path d="M294.626 139.146C296.58 139.146 298.161 140.726 298.161 142.679V149.976C298.161 151.928 296.58 153.508 294.626 153.508H291.045V142.71C291.045 140.742 292.642 139.131 294.626 139.131V139.146Z" fill="#AB6F79"/>
<path d="M270.116 149.96V148.457C269.651 148.457 269.216 148.271 268.906 147.946C268.581 147.62 268.41 147.186 268.426 146.722L268.503 144.15L266.999 144.103L266.922 146.675C266.891 147.543 267.217 148.364 267.821 148.999C268.426 149.619 269.247 149.975 270.116 149.975V149.96Z" fill="#8B4A57"/>
<path d="M265.092 154.562H277.666C277.666 154.562 275.402 159.271 271.061 159.271C266.72 159.271 265.077 154.562 265.077 154.562H265.092Z" fill="white"/>
<path d="M280.193 126.455L268.978 118.134C265.057 115.225 264.236 109.676 267.147 105.757L268.367 104.115L279.582 112.436C283.503 115.345 284.324 120.894 281.413 124.813L280.193 126.455Z" fill="#192636"/>
<path d="M281.053 126.886L264.006 121.563C259.477 120.15 256.944 115.317 258.359 110.792L258.502 110.333L275.549 115.656C280.078 117.07 282.611 121.902 281.196 126.428L281.053 126.886Z" fill="#192636"/>
<path d="M277.138 127.169H262.829C260.302 127.169 258.271 125.124 258.271 122.614V120.259H277.138V127.169Z" fill="#192636"/>
<path d="M289.541 134.296H286.595V128.331H294.967V128.873C294.967 131.864 292.533 134.296 289.541 134.296Z" fill="#192636"/>
<path d="M291.586 130.072L288.86 131.186L286.599 125.666L294.348 122.498L294.553 123C295.686 125.767 294.355 128.94 291.586 130.072Z" fill="#192636"/>
<path d="M286.611 217.65H289.045V190.722H286.611V217.65Z" fill="white"/>
<path d="M267.635 217.417H270.069V190.49H267.635V217.417Z" fill="white"/>
<path d="M264.286 250.418H282.828C282.828 259.125 289.929 266.19 298.704 266.19H298.75V282.721H253.542V266.19H253.387C259.403 266.19 264.286 259.125 264.286 250.418Z" fill="#F6B76F"/>
</g>
<path d="M50.5568 28.9256C50.1692 30.0101 49.7351 31.0946 49.208 32.1327V40.9639H46.8205V36.0835C46.5105 36.5018 46.1849 36.8891 45.8903 37.23L44.6965 34.9524C46.3089 32.8454 47.4716 30.6143 48.1848 28.2438L50.5568 28.9101V28.9256ZM49.2856 43.1019C48.5104 44.7442 47.7197 46.0302 46.9136 46.9907L44.8671 45.209C45.8283 44.171 46.588 43.04 47.1771 41.816L49.2856 43.1019ZM52.2622 40.9793V44.1245C52.2622 44.6822 52.6497 44.9766 53.4404 44.9921C53.7815 45.0386 54.2931 45.0541 54.8977 45.0541C56.2155 45.0541 57.0062 45.0386 57.2388 44.9611C57.5023 44.8527 57.6729 44.6822 57.7349 44.4653C57.8279 44.3414 57.8899 43.9231 57.9519 43.1794L60.4945 44.6048C60.3395 45.8597 60.0139 46.6499 59.5333 46.9753C59.1922 47.1302 58.7271 47.2386 58.138 47.3006C57.7504 47.3626 56.6652 47.4091 54.8823 47.4091C54.0296 47.4091 53.2699 47.3626 52.6033 47.3006C50.7274 47.2541 49.7972 46.4795 49.7972 44.9611V40.9639H52.2467L52.2622 40.9793ZM52.4327 30.7073V33.5116C52.8823 32.8609 53.3009 32.1636 53.6885 31.389C54.1226 30.4594 54.4947 29.3904 54.7893 28.1819L57.0063 28.7087C56.9132 29.1889 56.8047 29.6227 56.6807 30.0566H63.7812V32.4425H62.2154C61.8278 34.0538 61.2231 35.4172 60.3549 36.5483C61.5487 37.3074 62.975 37.9427 64.6339 38.4539L63.1146 40.8244C61.1612 40.0807 59.5953 39.3216 58.386 38.5004C57.2077 39.4145 55.7659 40.1427 54.0451 40.7315L52.5258 38.7793C54.0916 38.299 55.4094 37.6793 56.4791 36.9356C55.7815 36.2384 55.1769 35.4327 54.6808 34.5651C54.4482 34.937 54.2001 35.2623 53.9676 35.5567L52.4482 34.1003V38.7018H50.0762V30.7228H52.4482L52.4327 30.7073ZM57.3628 43.1019L55.1458 44.3569C54.6652 43.5048 54.0606 42.6836 53.2699 41.9089L55.3939 40.561C56.169 41.3667 56.8202 42.2033 57.3473 43.1019H57.3628ZM58.231 34.875C58.293 34.9679 58.355 35.0299 58.4481 35.0764C59.0062 34.3172 59.4403 33.4341 59.7349 32.4271H56.2311C56.7892 33.3567 57.4403 34.1778 58.231 34.875ZM64.4013 45.209L62.1068 46.5724C61.5642 45.2555 60.8201 43.9696 59.9054 42.7611L62.1068 41.4131C63.037 42.6371 63.7967 43.8921 64.4013 45.209Z" fill="#595757"/>
<path d="M75.7341 36.3002H69.4552V47.6723H67.0833V28.1663H75.7186V36.3002H75.7341ZM73.3776 31.2339V30.3818H69.4707V31.2339H73.3776ZM73.3776 34.1157V33.2635H69.4707V34.1157H73.3776ZM80.4161 37.0594V45.1934C80.4161 46.7117 79.672 47.4864 78.1991 47.4864C77.8116 47.4864 77.393 47.4399 76.9434 47.3934L76.5092 45.2708C76.9433 45.4413 77.3154 45.5342 77.61 45.5342C77.9976 45.5342 78.1991 45.3173 78.1991 44.868V44.5272H73.7961C73.7496 44.7441 73.6877 44.9455 73.6411 45.1159C73.4086 45.8131 73.0365 46.5103 72.5404 47.2385L70.587 46.0455C71.1141 45.1159 71.4551 44.3103 71.6567 43.644C71.8272 42.7919 71.9358 41.9553 71.9358 41.1031V37.0594H80.4316H80.4161ZM78.1991 39.9567V39.1045H74.0598V39.9567H78.1991ZM78.1991 42.668V41.8158H74.0598V42.668H78.1991ZM85.3462 28.1663V44.8835C85.3462 46.7582 84.4315 47.6878 82.6331 47.6878C82.292 47.6878 81.8735 47.6258 81.4394 47.5174L80.9122 45.1314C81.3618 45.3638 81.796 45.4723 82.199 45.4723C82.6951 45.4723 82.9587 44.9765 82.9587 43.9539V36.3157H76.6798V28.1817H85.3462V28.1663ZM82.9587 31.2339V30.3818H79.0673V31.2339H82.9587ZM82.9587 33.2635H79.0673V34.1157H82.9587V33.2635Z" fill="#595757"/>
<path d="M90.3227 32.5661V28.2434H92.6947V32.5661H94.8187V34.952H92.6947V41.0564C93.5164 40.8395 94.3226 40.6226 95.0823 40.3902L95.5008 42.5747C93.5009 43.3494 91.315 44.0311 88.8965 44.6198L88.0437 42.0789C88.8189 41.955 89.5786 41.7691 90.3227 41.5987V34.952H88.2763V32.5661H90.3227ZM106.803 40.5141C106.679 41.1803 106.384 41.7071 105.95 42.0634C105.563 42.2958 105.175 42.4043 104.741 42.4043C104.307 42.4043 103.811 42.3423 103.315 42.1719L102.88 39.7859C103.315 40.0183 103.78 40.1268 104.245 40.1268C104.415 40.1268 104.555 39.9564 104.632 39.6C104.756 38.6394 104.865 36.9042 104.958 34.4407L102.694 35.1999V43.5198H100.322V35.9901L98.71 36.5323V43.5198C98.71 44.2945 98.9891 44.7128 99.5627 44.7283C99.8263 44.8367 100.493 44.8832 101.563 44.8832C103.144 44.8832 103.95 44.8677 103.95 44.8213C104.26 44.8058 104.555 44.7593 104.865 44.6663C105.175 44.6198 105.392 43.9691 105.501 42.6677L107.888 43.6902C107.656 45.1931 107.33 46.1692 106.911 46.665C106.632 46.8664 106.198 46.9903 105.609 47.0523C104.245 47.1762 102.896 47.2537 101.563 47.2537H100.415C99.5938 47.2537 98.9426 47.1607 98.431 47.0368C97.0202 46.9903 96.3225 46.1227 96.3225 44.4494V37.307L94.9738 37.7563L94.3846 35.7112L96.3225 35.014V29.7618H98.71V34.1619L100.322 33.6041V28.073H102.694V32.7675L107.283 31.1407C107.283 35.2619 107.113 38.3915 106.803 40.5141Z" fill="#595757"/>
<path d="M112.369 32.5661C112.276 34.5647 112.059 36.3929 111.764 38.0817L109.656 36.9816C109.966 35.3394 110.152 33.6971 110.245 32.0858L112.369 32.5816V32.5661ZM114.911 28.073V31.4351L116.694 30.8773C117.19 32.0083 117.578 33.2633 117.888 34.6112L115.578 35.3704C115.407 34.3478 115.19 33.4027 114.911 32.5041V47.5946H112.617V28.0885H114.911V28.073ZM128.399 40.5606V42.079C127.655 43.148 126.787 44.0311 125.81 44.7283C126.849 45.0072 128.089 45.2241 129.5 45.379L128.647 47.6875C126.539 47.4086 124.74 46.8819 123.221 46.1227C121.578 46.8199 119.702 47.3312 117.624 47.6875L116.524 45.5649C118.26 45.348 119.764 45.0691 121.035 44.6818C120.337 44.0776 119.717 43.3339 119.175 42.5128H117.717V40.5761H128.399V40.5606ZM129.252 35.045V40.0338H117.376V35.045H129.252ZM128.492 28.2589V34.5337H118.306V28.2589H128.492ZM120.601 38.2676V36.8422H119.671V38.2676H120.601ZM126.275 30.5519V30.0252H120.523V30.5519H126.275ZM126.275 32.752V32.2562H120.523V32.752H126.275ZM123.361 43.7677C124.136 43.3804 124.818 42.9621 125.329 42.4818H121.593C122.12 43.0085 122.694 43.4114 123.345 43.7677H123.361ZM122.709 38.2676H123.733V36.8422H122.709V38.2676ZM125.857 38.2676H126.957V36.8422H125.857V38.2676Z" fill="#595757"/>
<path d="M134.074 32.5661C133.981 34.5647 133.764 36.3929 133.469 38.0817L131.361 36.9816C131.671 35.3394 131.857 33.6971 131.95 32.0858L134.074 32.5816V32.5661ZM136.616 28.073V31.4351L138.399 30.8773C138.895 32.0083 139.283 33.2633 139.593 34.6112L137.283 35.3704C137.112 34.3478 136.895 33.4027 136.616 32.5041V47.5946H134.322V28.0885H136.616V28.073ZM150.104 40.5606V42.079C149.36 43.148 148.492 44.0311 147.515 44.7283C148.554 45.0072 149.794 45.2241 151.205 45.379L150.352 47.6875C148.244 47.4086 146.445 46.8819 144.926 46.1227C143.283 46.8199 141.407 47.3312 139.329 47.6875L138.229 45.5649C139.965 45.348 141.469 45.0691 142.74 44.6818C142.042 44.0776 141.422 43.3339 140.88 42.5128H139.422V40.5761H150.104V40.5606ZM150.957 35.045V40.0338H139.081V35.045H150.957ZM150.197 28.2589V34.5337H140.012V28.2589H150.197ZM142.306 38.2676V36.8422H141.376V38.2676H142.306ZM147.98 30.5519V30.0252H142.228V30.5519H147.98ZM147.98 32.752V32.2562H142.228V32.752H147.98ZM145.066 43.7677C145.841 43.3804 146.523 42.9621 147.035 42.4818H143.298C143.825 43.0085 144.399 43.4114 145.05 43.7677H145.066ZM144.415 38.2676H145.438V36.8422H144.415V38.2676ZM147.562 38.2676H148.662V36.8422H147.562V38.2676Z" fill="#595757"/>
<path d="M155.53 31.312V28.0738H157.902V31.312H159.53V33.6824H157.902V37.029C158.383 36.8585 158.832 36.6881 159.267 36.4867L159.592 38.5318C159.034 38.8417 158.46 39.1361 157.902 39.4149V44.6207C157.902 45.7672 157.732 46.5573 157.406 46.9602C157.019 47.4405 156.305 47.6729 155.282 47.6729C154.724 47.6729 154.181 47.6109 153.67 47.5024L153.236 45.1165C153.794 45.2869 154.383 45.3799 154.957 45.3799C155.174 45.3799 155.344 45.2869 155.437 45.1165C155.499 44.8841 155.546 44.5122 155.546 44.0319V40.422C155.065 40.6234 154.585 40.7938 154.119 40.9643L153.251 38.5163C154.026 38.2994 154.817 38.0825 155.546 37.8501V33.6824H153.422V31.312H155.546H155.53ZM165.53 28.0738V36.6416C165.53 39.0431 165.189 41.2431 164.538 43.2108C163.933 45.039 163.173 46.4954 162.228 47.6574L160.104 46.0306C161.065 44.8531 161.778 43.5361 162.29 42.0643C161.437 42.3741 160.569 42.653 159.67 42.9164L158.817 40.4685C160.29 40.1586 161.654 39.8333 162.925 39.4459C163.018 38.9192 163.08 38.4079 163.127 37.8346H160.104V35.4487H163.158V33.4035H160.011V31.0331H163.158V28.0583H165.53V28.0738ZM169.266 28.0738V31.0486H172.569V33.419H169.266V35.4641H172.569V37.8501H169.266V40.2206H172.91V42.5911H169.266V47.6884H166.786V28.0893H169.266V28.0738Z" fill="#595757"/>
<path d="M180.242 35.0453C180.801 35.8199 181.266 36.6566 181.607 37.4777C181.994 38.5468 182.211 39.5383 182.211 40.4679C182.165 42.8539 181.188 44.0314 179.25 44.0314H178.32L177.886 42.0328V47.6723H175.436V28.4296H182.552L180.227 35.0453H180.242ZM179.235 30.8001H177.917V35.0763L179.235 30.8001ZM179.266 41.5525C179.576 41.5525 179.746 41.2116 179.762 40.4679C179.762 39.7552 179.607 39.0116 179.328 38.2369C179.049 37.4777 178.568 36.6721 177.901 35.8509V41.3046C178.444 41.475 178.894 41.5679 179.266 41.5679V41.5525ZM187.157 30.8001L185.855 31.4044H188.8C188.971 31.079 189.141 30.7381 189.296 30.3818C189.622 29.6381 189.901 28.9099 190.118 28.1663L192.754 29.0184C192.521 29.6226 192.211 30.2269 191.823 30.8621C191.699 31.079 191.591 31.2804 191.498 31.4044H194.459V33.6819H189.188C189.017 33.8988 188.847 34.0692 188.661 34.2396C189.203 34.8439 189.637 35.4481 189.978 36.1143C190.893 35.634 191.715 35.0453 192.49 34.3636L194.102 36.2228C193.141 36.9664 192.211 37.5707 191.281 38.051C191.513 38.9806 191.87 39.8017 192.319 40.5299C192.878 41.5215 193.73 42.606 194.862 43.7835L192.924 45.5652C192.257 44.7906 191.668 43.9849 191.172 43.1638C191.064 44.7286 190.723 45.8286 190.103 46.5258C189.389 47.2385 188.521 47.6103 187.498 47.6103C186.94 47.6103 186.149 47.5484 185.188 47.4399L184.692 44.899C185.715 45.1779 186.645 45.3173 187.498 45.3173C187.839 45.3173 188.165 45.1159 188.428 44.6821C188.692 44.2018 188.847 43.3342 188.847 42.0947V41.9243C188.103 42.575 187.343 43.1173 186.614 43.5666C185.358 44.3412 184.056 44.992 182.661 45.4723L181.56 43.2722C183.126 42.7454 184.506 42.0947 185.731 41.3665C186.754 40.8088 187.699 40.1116 188.614 39.3059C188.552 38.9961 188.49 38.7172 188.397 38.4383C187.746 38.9341 187.095 39.3679 186.444 39.7397C185.452 40.2975 184.382 40.7778 183.25 41.1496L182.165 38.9341C183.421 38.5623 184.568 38.1129 185.576 37.5707C186.227 37.2453 186.862 36.8735 187.451 36.4397C187.281 36.2228 187.11 35.9904 186.924 35.7734C185.576 36.7495 184.382 37.4467 183.343 37.8496L181.917 35.8044C182.909 35.4946 183.963 35.0298 185.048 34.3481C185.42 34.1312 185.762 33.9143 186.072 33.6819H182.01V31.4044H184.428C184.165 30.7072 183.839 30.0099 183.452 29.3592L185.762 28.2592C186.32 29.0339 186.8 29.886 187.188 30.8001H187.157Z" fill="#595757"/>
<path d="M47.3474 60.8419V57.5264H49.7969V60.8419H51.9984V63.2124H49.7969V66.6674C50.4015 66.497 51.0217 66.2956 51.5798 66.1096L51.9984 68.3097C51.2852 68.6196 50.5411 68.8674 49.7969 69.1308V73.8253C49.7969 75.0803 49.6264 75.9014 49.2698 76.3662C48.8512 76.893 48.1225 77.1409 47.0838 77.1409C46.4947 77.1409 45.952 77.0479 45.4714 76.8775L45.0374 74.3366C45.5955 74.5535 46.1691 74.6619 46.7273 74.6619C46.9598 74.6619 47.1148 74.569 47.2079 74.3831C47.3009 74.1507 47.3319 73.7478 47.3319 73.2366V69.921C46.7892 70.0914 46.2467 70.2309 45.704 70.3548L44.8513 67.9069C45.7195 67.7364 46.5412 67.535 47.3319 67.3491V63.2434H45.0219V60.8729H47.3319L47.3474 60.8419ZM63.6414 69.6576H61.1609V68.3717H54.7114V73.0351C54.7114 73.5774 55.037 73.9028 55.7037 73.9957C56.4789 74.1662 57.4556 74.2281 58.6649 74.2281C59.5331 74.2281 60.1377 74.2126 60.5098 74.1352C60.8509 74.0887 61.1454 73.9648 61.3314 73.7943C61.595 73.5309 61.781 72.6633 61.9205 71.176L64.4011 72.276C64.277 73.3605 64.029 74.3986 63.688 75.4056C63.4554 76.0099 62.9903 76.3817 62.2926 76.5521C61.5174 76.6761 60.3237 76.769 58.6649 76.769C56.5874 76.769 55.3471 76.6606 54.944 76.4901C53.1456 76.3817 52.2465 75.5296 52.2465 73.9802V58.1306H63.6259V69.6576H63.6414ZM54.7114 66.0012H56.6649V60.5785H54.7114V66.0012ZM61.1609 66.0012V60.5785H59.1455V66.0012H61.1609Z" fill="#595757"/>
<path d="M75.4861 60.6716V63.042H66.5872V60.6716H75.4861ZM74.6334 77.11H72.2614V76.2578H69.7188V77.11H67.3313V69.7351H74.6334V77.11ZM74.4008 66.59V68.976H67.6103V66.59H74.4008ZM74.4783 63.6463V66.0167H67.6878V63.6463H74.4783ZM74.4008 57.8673V60.1448H67.7809V57.8673H74.4008ZM72.2614 74.1507V71.9352H69.7188V74.1507H72.2614ZM85.3462 59.649C83.9509 60.0828 82.5091 60.4237 81.0053 60.7335V65.2266L85.6718 64.4829L85.9353 66.9308L81.0053 67.7365V73.469C81.0053 73.9648 81.1293 74.2282 81.4394 74.2747C81.61 74.3676 82.0285 74.3986 82.6952 74.3986C83.1758 74.3986 83.4704 74.3366 83.5634 74.1662C83.6719 74.0423 83.7649 73.7479 83.8269 73.3141C83.8734 73.0507 83.9354 72.6169 83.9819 72.0126L86.1989 73.2986C85.9353 74.9874 85.5632 75.9944 85.1291 76.3198C85.0051 76.4902 84.7106 76.6297 84.2455 76.6916C84.013 76.7381 83.4859 76.7846 82.6952 76.7846C81.734 76.7846 80.9743 76.6916 80.4627 76.5677C79.1759 76.4127 78.5557 75.5451 78.5557 73.9803V68.1393L75.4241 68.6351L74.99 66.1872L78.5557 65.6294V61.1983C77.8581 61.3223 77.1914 61.4307 76.5093 61.5237L75.3311 59.3081C78.1527 58.9673 80.9743 58.394 83.7959 57.6194L85.3307 59.6645L85.3462 59.649Z" fill="#595757"/>
<path d="M92.5398 63.1194L90.912 65.1645C90.0593 64.235 89.1911 63.4293 88.2764 62.7786L89.9042 61.0898C90.8654 61.6786 91.7336 62.3448 92.5398 63.1349V63.1194ZM93.0359 66.4195V72.9577C93.9506 73.6239 94.9893 73.9957 96.183 74.0887C97.0512 74.2591 99.2373 74.3211 102.741 74.3211C104.741 74.3211 106.462 74.1971 107.888 73.8873C107.408 74.7549 107.035 75.669 106.787 76.6916H100.462C98.183 76.6916 96.3537 76.5211 94.9894 76.1648C94.0126 75.9014 93.0514 75.3591 92.1057 74.5535C91.3615 75.4056 90.6484 76.2423 89.9042 77.1099C89.3616 76.2268 88.819 75.3901 88.2764 74.631C89.0825 74.2436 89.8887 73.8098 90.6639 73.376V68.79H88.2764V66.404H93.0359V66.4195ZM107.454 61.5081H105.578V62.7011H101.609V63.2899H106.012V69.9985H101.609V70.8506H106.958V72.7872H101.609V73.9802H99.3148V72.7872H94.0591V70.8506H99.3148V69.9985H94.8187V63.2899H99.3148V62.7011H95.1599V61.5081H93.625V59.7729L92.1987 61.6011C91.377 60.6715 90.5244 59.8658 89.6562 59.2151L91.2685 57.5264C92.1367 58.0841 92.9119 58.7038 93.6406 59.401V57.8827H107.47V61.5236L107.454 61.5081ZM99.3148 60.749V59.8968H95.842V60.749H99.3148ZM99.3148 65.7378V65.1491H97.0358V65.7378H99.3148ZM99.3148 68.1238V67.5195H97.0358V68.1238H99.3148ZM101.609 60.749H105.253V59.8968H101.609V60.749ZM101.609 65.7378H103.811V65.1491H101.609V65.7378ZM101.609 68.1238H103.811V67.5195H101.609V68.1238Z" fill="#595757"/>
<path d="M116.027 58.533C115.531 59.4316 114.88 60.3303 114.074 61.2444C112.973 62.3754 112.059 63.181 111.361 63.6303L109.749 61.5077C110.493 60.981 111.268 60.3148 112.09 59.4936C112.803 58.7499 113.376 58.0218 113.81 57.2781L116.027 58.533ZM117.454 63.1965C116.849 64.3275 116.043 65.474 115.004 66.6515V77.1095H112.524V68.9755C112.183 69.2544 111.873 69.4713 111.609 69.6417L109.888 67.4262C110.865 66.76 111.888 65.8923 112.973 64.8078C113.934 63.8472 114.663 62.8712 115.237 61.9261L117.454 63.212V63.1965ZM129.593 63.8782V66.3571H125.423V73.9798C125.423 75.2348 125.159 76.0559 124.678 76.4278C124.151 76.8771 123.252 77.125 121.95 77.125C120.911 77.125 119.95 77.032 119.066 76.8616L118.648 74.2277C119.733 74.5066 120.833 74.6461 121.95 74.6461C122.554 74.6461 122.88 74.3052 122.88 73.5615V66.3571H117.283V63.8782H129.593ZM128.57 58.2077V60.5782H118.384V58.2077H128.57Z" fill="#595757"/>
<path d="M140.182 59.1532V57.5264H142.554V59.1532H150.523V61.4307H144.926C145.562 61.8645 146.228 62.2518 146.926 62.6082C148.213 63.2589 149.732 63.8012 151.468 64.235L150.213 66.6829C148.383 66.0787 146.693 65.2265 145.128 64.1885C144.197 63.5842 143.345 62.9025 142.57 62.1744V65.4279H140.197V62.2983C139.453 62.9955 138.725 63.5997 137.934 64.1265C135.981 65.3195 134.291 66.1406 132.895 66.6054L131.609 64.3279C133.004 63.9406 134.446 63.3363 135.996 62.5462C136.709 62.1743 137.345 61.8025 137.872 61.4462H132.399V59.1687H140.197L140.182 59.1532ZM147.887 65.8308V68.1238C146.693 68.9449 145.283 69.7041 143.655 70.4013H151.034V72.7718H142.709V74.3986C142.709 75.4831 142.492 76.1958 142.104 76.5211C141.67 76.9085 140.911 77.1099 139.825 77.1099C139.128 77.1099 138.477 77.0634 137.872 77.0169L137.453 74.3986C138.229 74.6155 139.035 74.7239 139.825 74.7239C139.949 74.7239 140.058 74.6774 140.151 74.569C140.213 74.4296 140.259 74.1817 140.259 73.7943V72.7718H131.764V70.4013H140.259V68.9759L141.562 69.0689C142.275 68.759 142.926 68.4646 143.531 68.1393H135.143V65.8463H147.872L147.887 65.8308Z" fill="#595757"/>
<path d="M169.018 67.0234C168.057 68.8051 166.863 70.3855 165.437 71.7334C167.933 73.0348 170.491 73.9954 173.095 74.5531L171.638 77.0321C168.599 76.118 165.824 74.925 163.328 73.4221C160.894 75.0025 158.026 76.1954 154.677 77.0321L153.391 74.4912C156.367 73.8405 158.863 72.9264 160.91 71.7644C159.39 70.5714 158.042 69.2544 156.863 67.7981L158.91 66.2797C160.088 67.7981 161.452 69.1305 163.049 70.277C164.445 69.0995 165.592 67.7206 166.553 66.1093L169.003 67.0389L169.018 67.0234ZM164.429 57.3401V59.4627H172.398V61.8486H168.01C168.677 62.4994 169.375 63.0881 170.119 63.5684C170.894 64.0952 171.669 64.498 172.398 64.8079L170.971 67.3488C170.119 66.915 169.297 66.3882 168.522 65.7375C167.561 64.9938 166.693 64.1881 165.886 63.2895L167.607 61.8642H158.987L160.615 63.2121C159.949 64.0332 159.111 64.8698 158.135 65.6445C157.049 66.4501 156.057 67.0544 155.189 67.4417L153.84 65.0713C154.584 64.7614 155.453 64.2656 156.398 63.5684C157.173 63.0261 157.856 62.4684 158.414 61.8486H153.825V59.4627H161.716V57.3401H164.429Z" fill="#595757"/>
<path d="M177.576 70.5871C177.266 72.6477 176.987 74.3675 176.723 75.7464L174.599 75.1577C174.94 73.4689 175.235 71.7491 175.452 70.0604L177.576 70.5871ZM181.297 58.5334C180.336 60.0517 179.436 61.3531 178.584 62.4377C178.847 62.6081 179.08 62.763 179.343 62.887C180.041 61.9884 180.661 61.1052 181.235 60.2221L183.514 61.2447C181.994 63.2433 180.537 64.9941 179.173 66.5124C179.824 66.4659 180.429 66.404 181.002 66.342C180.909 66.0011 180.801 65.6448 180.723 65.3194L182.77 64.7152C183.157 65.9701 183.483 67.3645 183.7 68.8829L181.576 69.5491C181.529 69.1153 181.467 68.697 181.405 68.3096C181.018 68.3716 180.63 68.4336 180.227 68.4801V77.0943H178.01V68.7589C177.142 68.8674 176.274 68.9603 175.39 69.0378L174.956 66.8223C175.297 66.8068 175.669 66.7758 176.026 66.7603C176.677 66.0941 177.266 65.4434 177.824 64.7927C176.832 64.1265 175.824 63.4293 174.801 62.6856L176.15 60.9658C176.351 61.0898 176.522 61.1982 176.692 61.2912C177.607 60.0362 178.382 58.7503 179.033 57.4953L181.312 58.5179L181.297 58.5334ZM183.498 74.3985L181.374 74.8943C181.25 73.252 180.987 71.6872 180.615 70.2308L182.661 69.735C183.08 71.2688 183.359 72.8337 183.514 74.3985H183.498ZM190.366 58.1305C190.196 58.4559 190.041 58.7658 189.886 59.0601C190.661 59.9742 191.467 60.7799 192.289 61.4616C193.312 62.3292 194.304 63.0264 195.281 63.5377L193.917 65.9082C193.607 65.7378 193.327 65.5673 193.064 65.3504V66.4969H184.863V65.18C184.553 65.4124 184.273 65.6293 183.994 65.8307L182.305 64.1419C183.653 63.1194 184.739 62.0813 185.576 61.0123C186.552 59.8813 187.359 58.6883 187.994 57.4333L190.366 58.1305ZM193.777 77.1098H191.297V76.0873H186.801V77.1098H184.351V68.1237H193.777V77.1098ZM191.56 64.1419C191.343 63.9715 191.141 63.7701 190.955 63.5842C190.134 62.8095 189.343 61.9729 188.63 61.1053C188.351 61.5391 188.072 61.9264 187.762 62.2982C187.235 62.9645 186.692 63.5842 186.087 64.1419H191.56ZM191.297 73.8872V70.4167H186.801V73.8872H191.297Z" fill="#595757"/>
<path d="M198.846 62.0036V57.6809H201.218V62.0036H203.342V64.3895H201.218V70.4939C202.04 70.277 202.846 70.0601 203.606 69.8277L204.025 72.0122C202.025 72.7869 199.839 73.4686 197.42 74.0573L196.567 71.5164C197.343 71.3925 198.102 71.2066 198.846 71.0362V64.3895H196.8V62.0036H198.846ZM215.327 69.9516C215.202 70.6178 214.908 71.1446 214.474 71.5009C214.086 71.7333 213.699 71.8418 213.265 71.8418C212.83 71.8418 212.334 71.7798 211.838 71.6094L211.404 69.2234C211.838 69.4558 212.303 69.5643 212.768 69.5643C212.939 69.5643 213.078 69.3939 213.156 69.0375C213.28 68.0769 213.389 66.3417 213.482 63.8782L211.218 64.6374V72.9573H208.846V65.4276L207.234 65.9698V72.9573C207.234 73.732 207.513 74.1503 208.086 74.1658C208.35 74.2742 209.017 74.3207 210.086 74.3207C211.668 74.3207 212.474 74.3052 212.474 74.2588C212.784 74.2433 213.079 74.1968 213.389 74.1038C213.699 74.0573 213.916 73.4066 214.024 72.1052L216.412 73.1277C216.179 74.6306 215.854 75.6067 215.435 76.1025C215.156 76.3039 214.722 76.4278 214.133 76.4898C212.768 76.6137 211.42 76.6912 210.086 76.6912H208.939C208.117 76.6912 207.466 76.5982 206.955 76.4743C205.544 76.4278 204.846 75.5602 204.846 73.8869V66.7445L203.497 67.1938L202.908 65.1487L204.846 64.4515V59.1993H207.234V63.5994L208.846 63.0416V57.5105H211.218V62.205L215.807 60.5782C215.807 64.6994 215.637 67.829 215.327 69.9516Z" fill="#595757"/>
<path d="M220.21 58.5334V57.5108H222.598V58.5334H225.807V57.5108H228.195V58.5334H230.21V60.656H228.195V63.1969H225.311V63.8631H229.373V68.5266H225.311V69.1153H229.047V70.9745H225.311V71.5788H228.706V73.4535H225.311V74.1042C226.567 74.0112 227.745 73.9028 228.784 73.7788L228.908 74.538C229.683 73.4535 230.272 72.152 230.706 70.5872C231.187 68.9294 231.466 66.6364 231.559 63.6772H229.621V61.3997H231.574V57.4954H233.946V61.3997H238.024C237.977 67.3026 237.745 71.7337 237.311 74.7239C237.186 75.4211 236.876 75.9634 236.396 76.3507C235.869 76.7225 235.295 76.9085 234.613 76.9085C234.086 76.9085 233.512 76.8155 232.83 76.6451L232.598 74.1971C233.419 74.476 234.101 74.6155 234.613 74.6155C234.783 74.6155 234.923 74.507 235.001 74.2746C235.094 74.1197 235.171 73.6239 235.264 72.7718C235.435 69.9675 235.528 66.9308 235.543 63.6772H233.915C233.822 67.1012 233.481 69.9055 232.83 72.0746C232.272 73.9802 231.419 75.576 230.287 76.831L229.094 75.638V75.731C226.117 76.1648 222.815 76.5366 219.187 76.831L218.753 74.5225C220.257 74.4295 221.668 74.3521 222.985 74.2591V73.438H219.249V71.5633H222.985V70.959H219.017V69.0998H222.985V68.5111H219.017V63.8476H222.985V63.1814H220.179V60.6405H218.567V58.5179H220.179L220.21 58.5334ZM223.001 66.5899V65.8308H221.218V66.5899H223.001ZM222.598 61.3377H225.807V60.6715H222.598V61.3377ZM225.311 66.5899H227.187V65.8308H225.311V66.5899Z" fill="#595757"/>
<path d="M251.077 57.5108V62.4377C251.077 62.7011 251.062 62.918 251.062 63.1349C251.713 65.304 252.488 67.1787 253.403 68.728C254.705 71.0675 256.86 73.1591 259.837 74.9718L257.62 77.0944C255.341 75.4831 253.604 73.8098 252.38 71.9971C251.512 70.7886 250.767 69.3322 250.147 67.659C249.667 68.9139 249.046 70.0914 248.24 71.1914C246.504 73.5929 244.302 75.5605 241.682 77.0944L240.225 74.7859C243.093 73.0506 245.248 71.0985 246.628 68.9294C247.884 66.8533 248.535 64.6688 248.535 62.4222V57.4954H251.077V57.5108Z" fill="#595757"/>
<path d="M279.573 63.6467V74.1511H275.836C276.534 74.3061 277.247 74.43 277.991 74.523C278.983 74.6934 279.96 74.8328 280.921 74.9103L279.666 77.2033C278.642 77.0019 277.666 76.7695 276.72 76.5061C275.588 76.1962 274.518 75.8554 273.542 75.4835L274.829 74.1356H268.596L269.898 75.654C268.999 75.9638 268.038 76.2427 266.968 76.4751C265.868 76.692 264.643 76.9089 263.294 77.1103L262.271 74.8948C263.573 74.7708 264.72 74.6159 265.743 74.4455C266.302 74.3525 266.829 74.2751 267.325 74.1356H263.604V63.6312H279.573V63.6467ZM278.906 57.8677V63.0269H264.395V57.8677H278.906ZM277.123 66.4974V65.8312H266.085V66.4974H277.123ZM277.123 69.2243V68.558H266.085V69.2243H277.123ZM277.123 71.9356V71.2694H266.085V71.9356H277.123ZM276.425 60.8424V60.0677H266.844V60.8424H276.425Z" fill="#595757"/>
<path d="M293.898 57.5108V58.1151H300.843V60.0517H293.898V60.4856H302.719V64.1265H300.27V62.5152H293.727V63.1194L299.324 62.6856L299.494 64.6223L293.929 65.0561C294.146 65.2575 294.564 65.3659 295.122 65.3659C295.541 65.4124 296.115 65.4124 296.859 65.4124C298.146 65.4124 298.905 65.3969 299.138 65.3505C299.401 65.304 299.556 65.2265 299.618 65.0871C299.712 65.0251 299.774 64.7772 299.82 64.3899L302.115 65.6448C301.959 66.4505 301.665 66.9463 301.2 67.1632C300.89 67.2561 300.456 67.3181 299.898 67.3646C299.556 67.4111 298.533 67.4266 296.859 67.4266C295.929 67.4266 295.107 67.4111 294.363 67.3336C292.347 67.2871 291.34 66.6209 291.34 65.3195V65.273L287.696 65.5519V63.6152L291.34 63.3053V62.4997H287.169V68.4491C287.169 69.0998 287.154 69.7506 287.107 70.3858C287.433 69.9675 287.712 69.5646 287.929 69.1308C288.409 68.2632 288.704 67.3336 288.859 66.3265L290.983 66.8223C290.89 67.2561 290.813 67.6434 290.72 68.0153H294.363C293.975 70.4167 293.34 72.2295 292.456 73.4379C292.394 73.5309 292.347 73.5929 292.301 73.6394C293.433 74.414 295.557 74.7859 298.688 74.7859C300.378 74.7859 301.882 74.6929 303.2 74.5225L302.502 76.9084H298.673C295.138 76.9084 292.704 76.4746 291.402 75.607C291.2 75.4521 291.03 75.3281 290.875 75.1887C290.161 75.8239 289.34 76.4282 288.425 76.9859L286.735 75.1267C287.867 74.6309 288.782 74.1042 289.448 73.5774C289.138 73.1436 288.844 72.6943 288.58 72.1675C288.317 72.5084 288.037 72.8182 287.758 73.0816L286.875 72.2605C286.828 72.6013 286.766 72.9577 286.72 73.2985C286.487 74.5844 286.084 75.8549 285.541 77.1563L283.355 75.8704C283.898 74.2591 284.27 72.8802 284.456 71.7027C284.673 70.2773 284.782 68.8209 284.782 67.3646V60.4391H291.324V57.4644H293.867L293.898 57.5108ZM290.875 72.152C291.216 71.5478 291.51 70.8506 291.681 70.0759H290.006C289.944 70.1998 289.882 70.3393 289.836 70.4168H289.82C290.146 71.083 290.487 71.6717 290.89 72.152H290.875ZM300.611 68.0463V71.4393C300.611 71.9351 300.626 72.214 300.704 72.3069C300.75 72.3534 300.812 72.3689 300.905 72.3689C300.967 72.3689 301.029 72.3534 301.107 72.3069C301.169 72.2914 301.215 72.214 301.262 72.1055C301.308 71.9351 301.355 71.2999 301.386 70.2463L303.401 71.2689C303.339 72.6943 303.091 73.5619 302.688 73.9183C302.471 74.0887 302.254 74.1971 301.99 74.2436C301.603 74.3056 301.231 74.3366 300.905 74.3366C299.944 74.3366 299.355 74.2436 299.153 74.0267C298.595 73.9182 298.332 73.252 298.332 72.0281V70.0759H297.262C297.153 71.3309 296.89 72.2295 296.502 72.7872C296.115 73.4379 295.464 73.9337 294.502 74.3211L293.417 72.2759C293.944 72.059 294.347 71.7182 294.626 71.2534C294.936 70.7731 295.091 69.6886 295.107 68.0463H300.626H300.611Z" fill="#595757"/>
<path d="M312.13 58.4557V60.8417H309.913V64.5756H311.696V66.9461H309.913V71.6095C310.672 71.4391 311.386 71.2687 312.037 71.0828L312.3 73.3913C310.3 74.0265 308.114 74.5843 305.758 75.0801L305.324 72.5392C306.068 72.4152 306.781 72.2758 307.448 72.1208V66.9306H305.587V64.5601H307.448V60.8262H305.401V58.4402H312.114L312.13 58.4557ZM324.238 57.96V69.1306H319.649V70.3236H324.145V72.7096H319.649V74.3209H324.92V76.6913H311.758V74.3209H317.184V72.7096H312.517V70.3236H317.184V69.1306H312.595V57.96H324.207H324.238ZM317.215 62.1896V60.3304H315.106V62.1896H317.215ZM317.215 66.7601V64.5756H315.106V66.7601H317.215ZM319.664 62.1896H321.788V60.3304H319.664V62.1896ZM319.664 66.7601H321.788V64.5756H319.664V66.7601Z" fill="#595757"/>
<defs>
<linearGradient id="paint0_linear_20_208446" x1="239.992" y1="222.453" x2="239.992" y2="390.71" gradientUnits="userSpaceOnUse">
<stop stop-color="white"/>
<stop offset="1" stop-color="white" stop-opacity="0.6"/>
</linearGradient>
<linearGradient id="paint1_linear_20_208446" x1="165.049" y1="497.923" x2="165.049" y2="424.02" gradientUnits="userSpaceOnUse">
<stop stop-color="white"/>
<stop offset="1"/>
</linearGradient>
</defs>
</svg>
