<svg width="480" height="454" viewBox="0 0 480 454" fill="none" xmlns="http://www.w3.org/2000/svg">
<path opacity="0.8" d="M436.87 0H43.1304C19.3101 0 0 19.2976 0 43.1024V410.898C0 434.702 19.3101 454 43.1304 454H436.87C460.69 454 480 434.702 480 410.898V43.1024C480 19.2976 460.69 0 436.87 0Z" fill="url(#paint0_linear_20_208447)"/>
<mask id="mask0_20_208447" style="mask-type:luminance" maskUnits="userSpaceOnUse" x="17" y="99" width="446" height="340">
<path d="M17.5801 99.6067V398.86C17.5801 420.829 35.564 438.801 57.5478 438.801H422.435C444.419 438.801 462.403 420.829 462.403 398.86V99.6067H17.5801Z" fill="white"/>
</mask>
<g mask="url(#mask0_20_208447)">
<path d="M629.437 -7.51367H-207.916V547.301H629.437V-7.51367Z" fill="white"/>
<g opacity="0.35">
<path d="M627.282 -7.88574H-205.807V547.146H627.282V-7.88574Z" fill="#B5CFDF"/>
<path d="M627.282 15.7107H-205.807V431.985H627.282V15.7107Z" fill="#B5CFDF"/>
<g opacity="0.3">
<path d="M178.708 15.7107C175.731 20.9784 169.638 23.9531 164.119 26.7574C149.592 34.1322 135.035 44.7141 130.709 60.4089C129.283 65.5681 129.05 71.0527 127.221 76.0881C125.159 81.6966 121.19 86.4221 116.787 90.4503C110.291 96.3688 102.756 101.001 95.2528 105.572C67.0212 122.816 38.805 140.06 10.5889 157.304C3.62788 184.634 -10.8678 211.701 -35.4716 225.521C-55.0524 236.506 -79.5012 238.349 -96.741 252.712C-112.244 265.649 -118.771 286.069 -127.36 304.351C-135.112 320.882 -145.282 336.623 -159.437 348.15C-172.428 358.748 -189.141 365.503 -205.823 364.682V342.681C-201.978 336.871 -196.381 331.836 -190.459 328.257C-177.839 320.634 -163.018 316.652 -151.623 307.325C-132.058 291.274 -126.678 262.968 -108.446 245.414C-89.811 227.473 -61.0522 223.817 -41.5335 206.851C-19.3171 187.547 -13.6119 155.429 4.01548 131.879C13.1315 119.717 25.4256 109.972 39.3632 103.914C50.6186 99.0181 62.9438 96.4462 73.4861 90.1715C93.0204 78.536 103.206 56.4736 115.702 37.4788C120.833 29.6856 127.066 21.908 134.399 15.7107H178.661H178.708Z" fill="white"/>
<path d="M385.709 15.7107C384.282 24.0461 369.694 31.9941 363.089 34.6125C346.593 41.1972 332.702 54.0876 324.904 70.0302C320.005 80.0698 317.416 91.2715 311.215 100.567C298.471 119.64 273.991 126.271 251.635 131.477C229.279 136.667 204.784 143.236 191.994 162.293C179.638 180.683 181.715 206.03 169.157 224.281C150.879 250.837 111.299 250.79 85.4236 270.049C76.8967 276.385 69.9667 284.876 65.4398 294.482C57.8741 310.579 56.8819 329.791 46.0915 343.936C32.8207 361.335 8.99196 365.937 -12.6353 369.268C-10.7593 354.177 0.217039 341.86 11.9221 332.13C23.6116 322.385 36.7275 313.957 45.7349 301.686C57.285 285.914 61.1298 264.951 74.9278 251.116C91.3769 234.615 117.376 232.601 137.189 220.331C153.266 210.368 164.506 194.054 172.413 176.872C180.413 159.535 185.948 140.246 199.652 126.953C212.567 114.403 230.659 109.213 247.573 103.015C274.239 93.2237 300.595 79.0163 316.827 55.7299C324.734 44.3733 329.974 31.235 338.733 20.5446C339.989 19.0108 341.586 17.3685 343.415 15.7262H385.677L385.709 15.7107Z" fill="white"/>
<path d="M620.632 15.7107C619.531 20.2967 617.112 24.4489 614.492 28.3687C611.903 32.2575 611.097 36.2238 608.834 40.3141C604.245 48.6804 595.609 54.4284 587.284 58.6116C577.687 63.461 567.548 67.1794 557.114 69.7358C534.293 75.3134 508.899 75.7317 490.295 90.0785C478.342 99.3125 470.916 113.117 464.637 126.829C460.048 136.837 455.877 147.094 450.172 156.545C445.986 163.455 441.63 166.46 435.304 169.482C433.894 170.163 432.359 170.83 430.715 171.558C412.437 179.599 392.344 184.076 376.112 196.192C358.625 209.237 348.702 222.267 340.997 243.013C334.021 261.791 326.703 282.552 309.401 292.607C292.363 302.507 268.488 300.044 255.434 314.778C244.07 327.606 245 349.7 230.458 358.763C226.567 361.196 226.613 364.217 224.009 366.773C220.21 370.492 213.001 372.273 208.195 374.272C195.296 379.648 190.599 370.678 195.421 358.051C201.234 342.805 208.583 328.148 217.327 314.375C225.776 301.051 236.179 288.036 250.69 281.839C262.023 276.99 274.906 276.726 286.224 271.83C305.045 263.681 316.254 244.361 324.455 225.552C332.641 206.758 339.571 186.54 354.315 172.301C364.376 162.572 379.027 159.101 392.282 157.288C406.204 155.367 419.475 145.483 428.762 135.474C439.211 124.195 446.73 110.545 453.319 96.6477C459.474 83.6798 465.195 69.9527 475.706 60.161C489.876 46.9762 510.108 43.2113 529.115 39.6323C548.138 36.0534 568.401 31.3744 581.486 17.1206C581.904 16.6558 582.323 16.191 582.726 15.7262H620.663L620.632 15.7107Z" fill="white"/>
</g>
<path d="M305.153 15.7107H300.982V343.177H305.153V15.7107Z" fill="#70A4D8"/>
<path d="M340.686 348.692V232.306H412.638V348.692H413.335V231.408H339.989V348.692H340.686Z" fill="#70A4D8"/>
<path d="M363.864 236.969C363.864 236.969 363.864 236.892 363.879 236.845C363.926 236.489 364.05 235.807 363.476 235.978C363.383 236.009 363.306 236.04 363.228 236.086C362.624 236.396 362.019 236.659 361.352 236.83C360.872 236.954 360.376 237.031 359.88 237.093C359.755 237.093 359.631 237.109 359.507 237.124C359.383 237.124 359.259 237.109 359.135 237.093C358.639 237.047 358.143 236.954 357.663 236.83C357.197 236.721 356.732 236.582 356.298 236.334C356.05 236.194 355.864 235.962 355.57 236.009C355.446 236.024 355.322 236.071 355.213 236.133C354.965 236.241 355.104 236.628 355.135 236.861C355.135 236.907 355.135 236.938 355.151 236.985C355.104 237.202 355.089 237.418 355.089 237.635C355.073 238.426 355.291 239.216 355.709 239.882C356.174 240.61 356.872 241.106 357.554 241.602C357.678 241.695 357.802 241.788 357.926 241.881C358.019 242.004 358.112 242.128 358.221 242.237C358.484 242.547 358.794 242.81 359.228 242.826C359.321 242.826 359.43 242.826 359.523 242.826C359.616 242.826 359.709 242.841 359.818 242.826C360.236 242.795 360.562 242.547 360.825 242.237C360.918 242.113 361.027 242.004 361.12 241.881C361.244 241.788 361.368 241.695 361.492 241.602C362.174 241.106 362.872 240.595 363.337 239.882C363.755 239.216 363.972 238.426 363.957 237.635C363.957 237.418 363.926 237.202 363.895 236.985L363.864 236.969Z" fill="#B5CFDF"/>
<path d="M364.515 235.715H354.763V236.505H364.515V235.715Z" fill="#70A4D8"/>
<path d="M358.686 232.307C358.593 232.57 358.577 232.911 358.841 233.283C358.95 233.438 359.089 233.577 359.229 233.717C359.415 233.902 359.616 234.104 359.771 234.352C360.081 234.879 360.159 235.576 360.174 236.056C360.174 236.18 360.081 236.273 359.957 236.288C359.833 236.288 359.74 236.195 359.74 236.072C359.725 235.638 359.647 235.018 359.384 234.569C359.26 234.367 359.105 234.197 358.919 234.026C358.764 233.871 358.609 233.717 358.469 233.531C358.19 233.143 358.112 232.725 358.205 232.291C358.236 232.167 358.283 232.043 358.345 231.919C358.438 231.718 358.593 231.548 358.748 231.393C359.12 231.036 359.632 230.819 360.143 230.819C360.5 230.819 360.825 230.912 361.074 231.098C361.182 231.176 361.291 231.284 361.368 231.393H360.732C360.577 231.3 360.36 231.253 360.143 231.253C359.926 231.253 359.725 231.3 359.523 231.393C359.182 231.548 358.888 231.811 358.733 232.121C358.702 232.167 358.686 232.229 358.655 232.291L358.686 232.307Z" fill="#70A4D8"/>
<path d="M361.693 232.368C361.693 232.492 361.6 232.585 361.476 232.601C361.352 232.601 361.259 232.508 361.244 232.384C361.244 232.353 361.244 232.337 361.244 232.306H361.677C361.677 232.306 361.677 232.337 361.677 232.353L361.693 232.368Z" fill="#62818C"/>
<path d="M371.631 284.441C372.345 290.778 372.918 297.13 373.368 303.498C373.352 303.281 366.376 303.731 365.756 303.916C365.244 304.071 364.764 304.304 364.236 304.412C363.663 304.536 363.058 304.505 362.469 304.474C356.872 304.18 351.245 303.87 345.756 302.677C346.113 293.118 347.028 283.667 348.687 274.278L350.779 262.518C350.919 261.744 351.059 260.985 351.229 260.21C351.26 259.513 351.307 258.816 351.338 258.118C351.508 254.632 351.679 251.146 351.601 247.66C351.586 246.746 351.57 245.817 351.508 244.903C351.353 244.267 351.214 243.648 351.105 243.043C350.81 241.355 350.531 239.635 350.826 237.946C350.903 237.528 351.028 237.078 351.353 236.769C351.632 236.505 352.02 236.366 352.392 236.242C352.516 236.195 353.074 236.071 353.818 235.901C354.392 235.777 355.074 235.638 355.772 235.498C355.787 235.498 355.818 235.498 355.834 235.498C355.849 235.498 355.88 235.498 355.896 235.498C356.082 235.467 356.33 236.304 356.407 236.459C356.562 236.784 356.764 237.063 357.012 237.326C357.074 237.388 357.151 237.45 357.213 237.497C357.865 238.039 358.686 238.395 359.539 238.426C359.57 238.426 359.601 238.426 359.616 238.426C359.632 238.426 359.678 238.426 359.694 238.426C360.547 238.395 361.353 238.039 362.019 237.497C362.081 237.435 362.159 237.388 362.221 237.326C362.469 237.078 362.671 236.784 362.826 236.459C362.903 236.304 363.151 235.467 363.337 235.498C363.353 235.498 363.368 235.498 363.399 235.498C363.415 235.498 363.446 235.483 363.461 235.498C364.236 235.653 364.996 235.808 365.585 235.947C366.236 236.087 366.717 236.211 366.841 236.242C367.213 236.366 367.601 236.505 367.88 236.769C368.205 237.078 368.329 237.528 368.407 237.946C368.701 239.635 368.407 241.355 368.128 243.043C368.019 243.632 367.88 244.252 367.725 244.903C367.663 245.817 367.647 246.746 367.632 247.66C367.57 251.146 367.725 254.632 367.895 258.118C367.926 258.816 367.973 259.513 368.004 260.21C368.159 260.985 368.314 261.744 368.438 262.518C369.725 269.785 370.763 277.113 371.6 284.457L371.631 284.441Z" fill="#70A4D8"/>
<path d="M349.74 239.247C347.461 245.924 345.182 252.602 343.368 259.419C343.322 259.59 343.275 259.775 343.337 259.93C343.399 260.101 343.57 260.209 343.74 260.302C345.166 261.123 346.655 261.836 348.19 262.425C350.143 256.739 352.096 251.037 354.763 245.646C355.337 244.468 355.957 243.306 356.298 242.036C356.639 240.765 356.67 239.371 356.112 238.193C355.352 236.597 353.848 236.071 352.189 236.319C350.546 236.566 350.252 237.775 349.755 239.247H349.74Z" fill="#70A4D8"/>
<path d="M369.537 239.247C371.816 245.924 374.095 252.602 375.909 259.419C375.956 259.59 376.002 259.775 375.94 259.93C375.878 260.101 375.708 260.209 375.553 260.302C374.126 261.123 372.638 261.836 371.103 262.425C369.15 256.739 367.196 251.037 364.53 245.646C363.956 244.468 363.336 243.306 362.995 242.036C362.654 240.765 362.623 239.371 363.181 238.193C363.94 236.597 365.444 236.071 367.103 236.319C368.746 236.566 369.041 237.775 369.537 239.247Z" fill="#70A4D8"/>
<path d="M367.166 259.899H351.88C351.771 259.899 351.771 259.992 351.88 259.992H353.601C353.43 261.464 353.259 262.951 353.104 264.423L352.965 265.678C352.965 265.678 353.136 265.74 353.136 265.678C353.306 264.191 353.477 262.719 353.632 261.232C353.678 260.813 353.725 260.395 353.771 259.977H367.151C367.259 259.977 367.259 259.884 367.151 259.884L367.166 259.899Z" fill="#B5CFDF"/>
<path d="M366.624 263.866C366.531 263.278 366.438 262.689 366.345 262.1C366.345 262.038 366.159 262.038 366.174 262.1C366.5 264.192 366.809 266.283 367.088 268.375C367.166 268.964 367.243 269.552 367.321 270.157C367.321 270.219 367.507 270.219 367.491 270.157C367.212 268.065 366.918 265.974 366.608 263.882L366.624 263.866Z" fill="#B5CFDF"/>
<path d="M360.143 263.231C360.143 263.231 359.957 263.169 359.972 263.231C360.174 265.044 360.297 266.872 360.359 268.716C360.359 268.778 360.53 268.778 360.53 268.716C360.468 266.888 360.344 265.059 360.143 263.231Z" fill="#B5CFDF"/>
<path d="M365.6 235.932C365.491 238.333 365.336 240.75 365.15 243.136C365.119 243.477 365.088 243.818 365.073 244.159C365.057 244.376 365.073 244.701 364.902 244.825C364.763 244.918 364.592 244.856 364.468 244.778C364.282 244.685 364.096 244.577 363.91 244.453C363.166 243.942 362.53 243.183 361.926 242.423C361.197 241.494 360.468 240.564 359.74 239.635C359.011 240.564 358.282 241.509 357.554 242.423C356.949 243.183 356.313 243.942 355.569 244.453C355.383 244.577 355.197 244.685 355.011 244.778C354.872 244.84 354.717 244.918 354.577 244.825C354.407 244.716 354.422 244.391 354.407 244.159C354.376 243.818 354.345 243.477 354.329 243.136C354.127 240.719 353.988 238.302 353.879 235.885C354.453 235.761 355.135 235.622 355.833 235.482C355.848 235.482 355.879 235.482 355.895 235.482C355.91 235.482 355.941 235.482 355.957 235.482C356.143 235.451 356.391 236.288 356.468 236.443C356.624 236.768 356.825 237.047 357.073 237.311C357.135 237.373 357.213 237.435 357.275 237.481C357.926 238.023 358.747 238.38 359.6 238.411C359.631 238.411 359.662 238.411 359.678 238.411C359.693 238.411 359.74 238.411 359.755 238.411C360.608 238.38 361.414 238.023 362.081 237.481C362.143 237.419 362.22 237.373 362.282 237.311C362.53 237.063 362.732 236.768 362.887 236.443C362.964 236.288 363.212 235.451 363.398 235.482C363.414 235.482 363.43 235.482 363.461 235.482C363.476 235.482 363.507 235.467 363.522 235.482C364.298 235.637 365.057 235.792 365.646 235.932H365.6Z" fill="white"/>
<path d="M406.281 250.728C405.971 245.91 406.048 240.611 405.226 235.886H388.87C388.049 240.611 388.126 245.925 387.816 250.728C387.181 260.799 386.715 270.885 386.421 280.971C386.374 282.381 385.94 297.781 386.111 297.797C388.576 297.983 391.056 297.967 393.521 297.735C395.289 283.961 396.343 270.079 397.056 256.166C397.754 270.079 398.808 283.977 400.591 297.735C403.056 297.952 405.537 297.983 408.002 297.797C408.157 297.797 407.722 282.381 407.676 280.971C407.381 270.885 406.916 260.799 406.281 250.728Z" fill="#70A4D8"/>
<path d="M404.978 236.458H388.793C388.576 236.458 388.39 236.288 388.39 236.056C388.39 235.839 388.56 235.653 388.793 235.653H404.978C405.195 235.653 405.381 235.823 405.381 236.056C405.381 236.273 405.211 236.458 404.978 236.458Z" fill="#70A4D8"/>
<path d="M392.747 236.985H391.599C391.072 236.985 390.638 236.551 390.638 236.024C390.638 235.497 391.072 235.063 391.599 235.063H392.747C393.274 235.063 393.708 235.497 393.708 236.024C393.708 236.551 393.274 236.985 392.747 236.985Z" fill="#70A4D8"/>
<path d="M402.173 236.985H401.026C400.499 236.985 400.064 236.551 400.064 236.024C400.064 235.497 400.499 235.063 401.026 235.063H402.173C402.7 235.063 403.134 235.497 403.134 236.024C403.134 236.551 402.7 236.985 402.173 236.985Z" fill="#70A4D8"/>
<path d="M395.91 232.307C395.832 232.57 395.848 232.895 396.096 233.236C396.204 233.391 396.344 233.531 396.483 233.67C396.669 233.856 396.871 234.057 397.026 234.305C397.274 234.724 397.382 235.219 397.413 235.653C397.413 235.731 397.413 235.793 397.413 235.87C397.413 235.917 397.413 235.963 397.413 236.01C397.413 236.133 397.32 236.242 397.196 236.242C397.072 236.242 396.979 236.149 396.979 236.025C396.979 235.979 396.979 235.932 396.979 235.87C396.979 235.808 396.979 235.731 396.964 235.653C396.917 235.281 396.824 234.848 396.638 234.522C396.514 234.321 396.359 234.15 396.173 233.98C396.018 233.825 395.863 233.67 395.739 233.484C395.476 233.112 395.383 232.709 395.46 232.291C395.491 232.152 395.538 232.012 395.6 231.873C395.693 231.687 395.817 231.532 395.956 231.393C396.328 231.021 396.871 230.773 397.398 230.757C397.755 230.757 398.08 230.85 398.328 231.036C398.452 231.129 398.561 231.253 398.654 231.393H398.065C397.894 231.269 397.662 231.207 397.413 231.207C397.165 231.207 396.917 231.269 396.7 231.393C396.406 231.547 396.142 231.78 396.003 232.074C395.972 232.136 395.941 232.214 395.91 232.291V232.307Z" fill="#70A4D8"/>
<path d="M398.932 232.306C398.932 232.43 398.839 232.539 398.715 232.539C398.591 232.539 398.483 232.446 398.483 232.322L398.917 232.306H398.932Z" fill="#62818C"/>
<path d="M627.282 336.235H-205.807V547.146H627.282V336.235Z" fill="#B5CFDF"/>
<path d="M-205.807 336.235V336.514V336.592V336.654V336.7V337.258V337.32V337.847V337.909V338.234V338.296V339.52V339.613V344.571H627.282V339.613V339.52V338.296V338.234V337.909V337.847V337.32V337.258V336.7V336.654V336.592V336.514V336.235H-205.807Z" fill="#70A4D8"/>
<path d="M627.282 363.643H587.764L562.261 336.235H559.424L584.927 363.643H503.86L484.015 336.235H481.442L501.286 363.643H419.955L405.785 336.235H403.429L417.599 363.643H336.082L327.586 336.235H325.4L333.896 363.643H252.255L249.418 336.235H247.325L250.162 363.643H168.475L171.328 336.235H169.235L166.398 363.643H84.7568L93.2527 336.235H91.0667L82.5709 363.643H1.05409L15.2242 336.235H12.8677L-1.30243 363.643H-82.6332L-62.7888 336.235H-65.3624L-85.2067 363.643H-166.274L-140.771 336.235H-143.623L-169.127 363.643H-205.854V365.719H-171.064L-205.854 403.12V406.172L-168.212 365.719H-86.7105L-130.399 426.081H-205.807V428.157H-131.856L-199.653 521.814H-205.807V523.89H-201.156L-205.807 530.32V533.868L-198.583 523.89H-84.1215L-96.1521 547.13H-93.8111L-81.7805 523.89H32.867L25.6579 547.13H27.8439L35.053 523.89H149.84L147.437 547.13H149.53L151.933 523.89H266.766L269.169 547.13H271.262L268.859 523.89H383.646L390.855 547.13H393.041L385.832 523.89H500.48L512.51 547.13H514.852L502.821 523.89H617.282L627.282 537.71V534.162L619.856 523.89H627.282V521.814H618.352L550.556 428.157H627.282V426.081H549.052L505.363 365.719H586.865L627.282 409.147V406.095L589.702 365.719H627.282V363.643ZM418.7 365.719L449.892 426.081H355.461L336.749 365.719H418.7ZM334.578 365.719L353.291 426.081H258.736L252.503 365.719H334.578ZM168.289 365.719H250.41L256.643 426.081H162.057L168.289 365.719ZM84.1212 365.719H166.196L159.964 426.081H65.4086L84.1212 365.719ZM-0.0156487 365.719H81.9352L63.2226 426.081H-31.2084L-0.0156487 365.719ZM-84.0905 365.719H-2.34116L-33.5495 426.081H-127.779L-84.0905 365.719ZM-83.0517 521.83H-197.095L-129.298 428.173H-34.6347L-83.0673 521.83H-83.0517ZM33.5182 521.83H-80.7107L-32.2782 428.173H62.5715L33.5182 521.83ZM150.057 521.83H35.7041L64.7575 428.173H159.747L150.073 521.83H150.057ZM152.15 521.83L161.824 428.173H256.86L266.534 521.83H152.15ZM268.642 521.83L258.968 428.173H353.957L383.011 521.83H268.658H268.642ZM385.181 521.83L356.128 428.173H450.993L499.41 521.83H385.181ZM615.794 521.83H501.751L453.319 428.173H547.982L615.778 521.83H615.794ZM546.494 426.081H452.264L421.056 365.719H502.805L546.494 426.081Z" fill="#70A4D8"/>
</g>
<mask id="mask1_20_208447" style="mask-type:luminance" maskUnits="userSpaceOnUse" x="-206" y="376" width="242" height="166">
<path d="M35.7975 376.487H-205.807V541.614H35.7975V376.487Z" fill="white"/>
</mask>
<g mask="url(#mask1_20_208447)">
<path d="M17.3174 442.302C17.581 441.016 17.7205 439.73 17.3949 438.475C15.6896 432.045 5.13176 435.872 1.11639 437.344C-3.70516 439.126 -8.40268 441.388 -13.4878 442.317C-16.604 442.875 -19.7977 442.922 -22.8983 443.526C-27.8749 444.502 -32.5259 446.965 -36.0452 450.482C-39.7505 454.185 -42.107 458.895 -45.0527 463.187C-47.6882 467.029 -50.8199 470.608 -52.7888 474.791C-55.7965 481.174 -54.8198 487.403 -55.8585 494.049C-56.8507 500.324 -58.3546 505.871 -57.5019 512.393C-56.5252 519.892 -55.2849 527.391 -55.3469 534.983C-55.3779 539.135 -55.7965 543.256 -56.1531 547.393C-57.5639 564.482 -57.5949 581.648 -57.6259 598.784C-57.6259 600.287 -57.2538 601.511 -55.5484 601.557C-53.378 601.604 -53.409 599.745 -53.3935 598.242C-53.2229 580.703 -53.2384 563.165 -53.471 545.627C-53.5795 536.857 -53.7966 528.088 -53.9671 519.319C-54.0911 512.688 -48.1688 505.421 -43.5488 500.82C-40.8823 498.171 -37.8901 495.862 -34.6499 493.894C-31.5182 491.989 -28.2315 490.347 -24.9603 488.642C-19.8907 486.008 -14.7591 483.173 -10.7282 479.129C-6.75933 475.148 -3.61213 470.531 0.356737 466.518C1.5815 465.294 2.86828 464.085 4.40312 463.233C8.26346 461.095 11.4417 459.701 13.4881 455.549C14.5268 453.426 15.1004 451.148 15.6741 448.871C16.1081 447.151 16.5423 445.447 16.9764 443.727C17.1004 443.262 17.2089 442.782 17.3174 442.302Z" fill="#70A4D8"/>
</g>
<path d="M158.305 110.39H131.903V540.871H158.305V110.39Z" fill="#C7C8CA"/>
<path d="M166.987 88.1877H-102.307V151.152H166.987V88.1877Z" fill="#C7C8CA"/>
<path d="M164.459 94.7412H-99.7646V146.675H164.459V94.7412Z" fill="#47484A"/>
<path d="M14.8518 134.745V132.793H14.7743C14.2782 133.491 13.7666 134.033 13.2549 134.405C12.7433 134.776 12.0147 134.962 11.1 134.962C10.6504 134.962 10.1853 134.885 9.7357 134.761C9.2706 134.622 8.821 134.374 8.40241 133.986C7.98381 133.63 7.62722 133.134 7.36366 132.468C7.1001 131.802 6.97607 130.95 6.97607 129.896C6.97607 128.843 7.06912 127.882 7.23965 127.061C7.41019 126.255 7.73574 125.573 8.21635 125.016C8.66595 124.489 9.28609 124.102 10.0613 123.838C10.8364 123.575 11.8286 123.451 13.0224 123.451H13.441C13.596 123.451 13.7356 123.451 13.8596 123.482C13.9836 123.513 14.1387 123.513 14.3092 123.513C14.4797 123.513 14.6658 123.513 14.8673 123.544V121.561C14.8673 120.91 14.7278 120.368 14.4487 119.949C14.1697 119.531 13.6735 119.314 12.9449 119.314C12.4488 119.314 11.9837 119.485 11.5806 119.794C11.162 120.12 10.8984 120.6 10.7744 121.22H7.0536C7.14662 119.516 7.73575 118.137 8.77447 117.099C9.27058 116.603 9.87522 116.2 10.5729 115.921C11.2705 115.627 12.0612 115.487 12.9294 115.487C13.7356 115.487 14.4797 115.611 15.1774 115.859C15.875 116.107 16.4952 116.479 17.0223 116.99C17.5184 117.486 17.9215 118.121 18.216 118.865C18.5106 119.609 18.6656 120.492 18.6656 121.483V134.73H14.8363L14.8518 134.745ZM14.8518 126.565C14.4332 126.488 14.0766 126.457 13.7976 126.457C12.9759 126.457 12.2627 126.658 11.6736 127.045C11.0845 127.433 10.7899 128.145 10.7899 129.168C10.7899 129.896 10.9604 130.485 11.317 130.934C11.6736 131.383 12.1542 131.616 12.7743 131.616C13.3945 131.616 13.9371 131.399 14.2937 130.981C14.6502 130.562 14.8363 129.958 14.8363 129.183V126.596L14.8518 126.565Z" fill="#040000"/>
<path d="M21.4872 115.719V109.94H25.3166V115.719H27.6886V118.725H25.3166V129.26C25.3166 129.709 25.3631 130.066 25.4406 130.314C25.5336 130.562 25.6732 130.747 25.8747 130.871C26.0762 130.995 26.3243 131.073 26.6034 131.104C26.8979 131.135 27.2545 131.135 27.6731 131.135V134.729H26.0917C25.2081 134.729 24.4794 134.59 23.8903 134.311C23.3011 134.032 22.836 133.691 22.4795 133.257C22.1229 132.839 21.8748 132.359 21.7043 131.816C21.5493 131.274 21.4562 130.763 21.4562 130.267V118.709H19.5493V115.703H21.4562L21.4872 115.719Z" fill="#040000"/>
<path d="M40.2308 126.673H32.6496V129.261C32.6496 129.865 32.8202 130.33 33.1612 130.655C33.5023 130.98 33.9519 131.135 34.5255 131.135C35.2542 131.135 35.7348 130.918 35.9674 130.5C36.1999 130.082 36.355 129.648 36.4015 129.23H40.2308C40.2308 130.903 39.7192 132.251 38.696 133.289C38.1998 133.816 37.5952 134.234 36.8976 134.528C36.1999 134.823 35.4092 134.978 34.5255 134.978C33.3318 134.978 32.3086 134.73 31.4714 134.234C30.6342 133.738 29.9831 133.072 29.5335 132.251C29.2544 131.755 29.0684 131.182 28.9753 130.531C28.8823 129.88 28.8203 129.168 28.8203 128.393V122.134C28.8203 121.359 28.8668 120.646 28.9753 119.996C29.0684 119.345 29.2699 118.772 29.5335 118.276C29.9831 117.455 30.6342 116.789 31.4714 116.293C32.3086 115.797 33.3318 115.549 34.5255 115.549C35.3937 115.549 36.1999 115.704 36.9131 115.998C37.6262 116.293 38.2309 116.711 38.727 117.238C39.7347 118.369 40.2308 119.779 40.2308 121.483V126.735V126.673ZM32.6496 123.683H36.4015V121.514C36.4015 120.786 36.2309 120.244 35.8898 119.887C35.5488 119.531 35.0992 119.345 34.5255 119.345C33.9519 119.345 33.4868 119.531 33.1612 119.887C32.8202 120.244 32.6496 120.801 32.6496 121.514V123.683Z" fill="#040000"/>
<path d="M132.151 103.712L128.089 107.198V116.773L136.523 109.538L132.151 105.788V103.712Z" fill="#F5C021"/>
<path d="M144.957 107.198L140.895 103.712V105.788L136.523 109.538L144.957 116.773V107.198Z" fill="#F5C021"/>
<path d="M140.895 103.712L136.523 99.947L132.151 103.712V105.788L136.523 109.537L140.895 105.788V103.712Z" fill="#F5C021"/>
<path d="M139.84 107.539H133.189V140.121H139.84V107.539Z" fill="#F5C021"/>
<path d="M112.431 110.916H70.5405V133.041H112.431V110.916Z" fill="#232626"/>
<g style="mix-blend-mode:multiply">
<path d="M73.7032 113.504L70.5405 133.041V110.916H112.446L73.7032 113.504Z" fill="#232626"/>
</g>
<path d="M-66.3853 379.276H4.85276C4.85276 379.276 24.9296 378.718 10.5115 397.635L-64.6954 491.711C-64.6954 491.711 -66.1062 379.26 -66.3853 379.26V379.276Z" fill="#6B8292"/>
<path d="M-66.3853 381.615H0.341269C0.341269 381.615 19.1469 381.089 5.64342 398.813L-64.7884 486.923C-64.7884 486.923 -66.1062 381.615 -66.3697 381.615H-66.3853Z" fill="#87A3B8"/>
<path d="M131.066 379.276H59.8275C59.8275 379.276 39.7506 378.718 54.1688 397.635L129.376 491.711C129.376 491.711 130.786 379.26 131.066 379.26V379.276Z" fill="#6B8292"/>
<path d="M131.066 381.615H64.3392C64.3392 381.615 45.5336 381.089 59.037 398.813L129.469 486.923C129.469 486.923 130.787 381.615 131.05 381.615H131.066Z" fill="#87A3B8"/>
<g style="mix-blend-mode:screen">
<path d="M106.849 392.646C102.849 388.943 98.8182 385.256 94.7563 381.6H104.306C104.911 382.157 105.531 382.715 106.151 383.273C113.872 390.369 121.453 397.635 128.895 405.041C129.453 405.599 130.011 406.156 130.569 406.73C130.523 409.379 130.492 412.168 130.445 415.05C122.662 407.504 114.802 400.021 106.849 392.662V392.646Z" fill="#87A3B8"/>
</g>
<g style="mix-blend-mode:screen">
<path d="M107.547 430.946C100.012 424.268 92.4465 417.637 84.8189 411.052C77.2377 404.499 69.5945 397.992 61.9049 391.546C59.5329 389.563 57.1453 387.596 54.7578 385.628C56.1686 382.886 59.7499 382.003 62.1219 381.724C63.1296 382.607 64.1374 383.474 65.1451 384.357C72.9123 391.159 80.6175 398.038 88.2451 404.979C95.9348 411.967 103.547 419.031 111.097 426.174C117.469 432.201 123.763 438.29 130.011 444.441C129.98 446.625 129.949 448.794 129.918 450.917C122.477 444.224 115.019 437.561 107.516 430.93L107.547 430.946Z" fill="#87A3B8"/>
</g>
<g style="mix-blend-mode:multiply">
<path d="M113.965 379.275H131.065C130.786 379.275 129.375 491.726 129.375 491.726L113.965 472.452V379.275Z" fill="#6B8292"/>
</g>
<path d="M167.576 345.082H122.585V548.493H167.576V345.082Z" fill="#C7C8CA"/>
<path d="M167.576 345.082H122.585V352.844H167.576V345.082Z" fill="#909294"/>
<path d="M167.576 369.623H122.585V548.509H167.576V369.623Z" fill="#97989B"/>
<g style="mix-blend-mode:screen">
<path d="M124.802 372.489L122.585 548.509V369.623H167.576L124.802 372.489Z" fill="#97989B"/>
</g>
<path d="M162.863 384.172H128.941V402.624H162.863V384.172Z" fill="#212224"/>
<path d="M161.235 385.303H130.6V402.624H161.235V385.303Z" fill="#47484A"/>
<path d="M166.289 266.996H121.98V326.258H166.289V266.996Z" fill="#47484A"/>
<path d="M163.018 270.73H125.081V322.942H163.018V270.73Z" fill="#C7C8CA"/>
<path d="M208.753 110.39H182.351V540.871H208.753V110.39Z" fill="#C7C8CA"/>
<path d="M434.358 110.39H407.956V540.871H434.358V110.39Z" fill="#C7C8CA"/>
<path d="M443.039 88.1877H173.746V151.152H443.039V88.1877Z" fill="#C7C8CA"/>
<path d="M440.513 94.7412H176.289V146.675H440.513V94.7412Z" fill="#47484A"/>
<path d="M267.666 114.34C267.666 113.271 267.852 112.311 268.224 111.49C268.596 110.668 269.092 109.971 269.728 109.429C270.333 108.902 271.015 108.499 271.774 108.236C272.534 107.957 273.309 107.818 274.084 107.818C274.86 107.818 275.635 107.957 276.394 108.236C277.154 108.515 277.852 108.918 278.472 109.429C279.077 109.987 279.557 110.668 279.929 111.49C280.301 112.311 280.487 113.271 280.487 114.34V115.688H276.658V114.34C276.658 113.411 276.394 112.729 275.883 112.295C275.371 111.861 274.767 111.644 274.069 111.644C273.371 111.644 272.767 111.861 272.255 112.295C271.743 112.729 271.48 113.411 271.48 114.34V128.439C271.48 129.369 271.743 130.051 272.255 130.484C272.767 130.918 273.371 131.135 274.069 131.135C274.767 131.135 275.371 130.918 275.883 130.484C276.394 130.051 276.658 129.369 276.658 128.439V123.419H273.619V120.042H280.487V128.439C280.487 129.57 280.301 130.531 279.929 131.321C279.557 132.127 279.061 132.777 278.472 133.304C277.852 133.862 277.154 134.265 276.394 134.544C275.635 134.822 274.86 134.962 274.084 134.962C273.309 134.962 272.534 134.822 271.774 134.544C271.015 134.265 270.333 133.862 269.728 133.304C269.108 132.777 268.596 132.111 268.224 131.321C267.852 130.515 267.666 129.555 267.666 128.439V114.34Z" fill="#040000"/>
<path d="M290.905 134.745V132.793H290.827C290.331 133.491 289.82 134.033 289.308 134.405C288.797 134.776 288.068 134.962 287.153 134.962C286.704 134.962 286.238 134.885 285.789 134.761C285.324 134.622 284.874 134.374 284.456 133.986C284.037 133.63 283.68 133.134 283.417 132.468C283.153 131.802 283.029 130.95 283.029 129.896C283.029 128.843 283.122 127.882 283.293 127.061C283.463 126.255 283.789 125.573 284.27 125.016C284.719 124.489 285.339 124.102 286.114 123.838C286.89 123.575 287.882 123.451 289.076 123.451H289.494C289.649 123.451 289.789 123.451 289.913 123.482C290.037 123.513 290.192 123.513 290.362 123.513C290.533 123.513 290.719 123.513 290.921 123.544V121.561C290.921 120.91 290.781 120.368 290.502 119.949C290.223 119.531 289.727 119.314 288.998 119.314C288.502 119.314 288.037 119.485 287.634 119.794C287.215 120.12 286.952 120.6 286.828 121.22H283.107C283.2 119.516 283.789 118.137 284.828 117.099C285.324 116.603 285.928 116.2 286.626 115.921C287.324 115.627 288.114 115.487 288.983 115.487C289.789 115.487 290.533 115.611 291.231 115.859C291.928 116.107 292.548 116.479 293.075 116.99C293.572 117.486 293.975 118.121 294.269 118.865C294.564 119.609 294.719 120.492 294.719 121.483V134.73H290.89L290.905 134.745ZM290.905 126.565C290.486 126.488 290.13 126.457 289.851 126.457C289.029 126.457 288.316 126.658 287.727 127.045C287.138 127.433 286.843 128.145 286.843 129.168C286.843 129.896 287.014 130.485 287.37 130.934C287.727 131.383 288.207 131.616 288.828 131.616C289.448 131.616 289.99 131.399 290.347 130.981C290.703 130.562 290.89 129.958 290.89 129.183V126.596L290.905 126.565Z" fill="#040000"/>
<path d="M297.541 115.719V109.94H301.37V115.719H303.742V118.725H301.37V129.26C301.37 129.709 301.417 130.066 301.494 130.314C301.587 130.562 301.727 130.747 301.928 130.871C302.13 130.995 302.378 131.073 302.657 131.104C302.952 131.135 303.308 131.135 303.727 131.135V134.729H302.145C301.262 134.729 300.533 134.59 299.944 134.311C299.355 134.032 298.89 133.691 298.533 133.257C298.177 132.839 297.929 132.359 297.758 131.816C297.587 131.274 297.51 130.763 297.51 130.267V118.709H295.603V115.703H297.51L297.541 115.719Z" fill="#040000"/>
<path d="M316.268 126.673H308.687V129.261C308.687 129.865 308.858 130.33 309.199 130.655C309.54 130.98 309.99 131.135 310.563 131.135C311.292 131.135 311.772 130.918 312.005 130.5C312.238 130.082 312.393 129.648 312.439 129.23H316.268C316.268 130.903 315.757 132.251 314.734 133.289C314.237 133.816 313.633 134.234 312.935 134.528C312.238 134.823 311.447 134.978 310.563 134.978C309.369 134.978 308.346 134.73 307.509 134.234C306.672 133.738 306.021 133.072 305.571 132.251C305.292 131.755 305.106 131.182 305.013 130.531C304.92 129.88 304.858 129.168 304.858 128.393V122.134C304.858 121.359 304.904 120.646 305.013 119.996C305.106 119.345 305.308 118.772 305.571 118.276C306.021 117.455 306.672 116.789 307.509 116.293C308.346 115.797 309.369 115.549 310.563 115.549C311.431 115.549 312.238 115.704 312.951 115.998C313.664 116.293 314.268 116.711 314.765 117.238C315.772 118.369 316.268 119.779 316.268 121.483V126.735V126.673ZM308.687 123.683H312.439V121.514C312.439 120.786 312.269 120.244 311.927 119.887C311.586 119.531 311.137 119.345 310.563 119.345C309.99 119.345 309.524 119.531 309.199 119.887C308.858 120.244 308.687 120.801 308.687 121.514V123.683Z" fill="#040000"/>
<path d="M250.922 126.673H243.341V129.261C243.341 129.865 243.512 130.33 243.853 130.655C244.194 130.98 244.643 131.135 245.217 131.135C245.946 131.135 246.426 130.918 246.659 130.5C246.891 130.082 247.046 129.648 247.093 129.23H250.922C250.922 130.903 250.411 132.251 249.387 133.289C248.891 133.816 248.287 134.234 247.589 134.528C246.891 134.823 246.101 134.978 245.217 134.978C244.023 134.978 243 134.73 242.163 134.234C241.326 133.738 240.674 133.072 240.225 132.251C239.946 131.755 239.76 131.182 239.667 130.531C239.574 129.88 239.512 129.168 239.512 128.393V122.134C239.512 121.359 239.558 120.646 239.667 119.996C239.76 119.345 239.961 118.772 240.225 118.276C240.674 117.455 241.326 116.789 242.163 116.293C243 115.797 244.023 115.549 245.217 115.549C246.085 115.549 246.891 115.704 247.604 115.998C248.318 116.293 248.922 116.711 249.418 117.238C250.426 118.369 250.922 119.779 250.922 121.483V126.735V126.673ZM243.341 123.683H247.093V121.514C247.093 120.786 246.922 120.244 246.581 119.887C246.24 119.531 245.791 119.345 245.217 119.345C244.643 119.345 244.178 119.531 243.853 119.887C243.512 120.244 243.341 120.801 243.341 121.514V123.683Z" fill="#040000"/>
<path d="M263.154 122.815H254.891V126.332H263.154V122.815Z" fill="#040000"/>
<path d="M199.838 103.712L195.776 107.198V116.773L204.21 109.538L199.838 105.788V103.712Z" fill="#F5C021"/>
<path d="M212.644 107.198L208.582 103.712V105.788L204.21 109.538L212.644 116.773V107.198Z" fill="#F5C021"/>
<path d="M208.582 103.712L204.21 99.947L199.838 103.712V105.788L204.21 109.537L208.582 105.788V103.712Z" fill="#F5C021"/>
<path d="M207.544 107.539H200.893V140.121H207.544V107.539Z" fill="#F5C021"/>
<path d="M408.203 103.712L404.142 107.198V116.773L412.575 109.538L408.203 105.788V103.712Z" fill="#F5C021"/>
<path d="M421.01 107.198L416.933 103.712V105.788L412.576 109.538L421.01 116.773V107.198Z" fill="#F5C021"/>
<path d="M416.933 103.712L412.576 99.947L408.204 103.712V105.788L412.576 109.537L416.933 105.788V103.712Z" fill="#F5C021"/>
<path d="M415.893 107.539H409.242V140.121H415.893V107.539Z" fill="#F5C021"/>
<path d="M388.483 110.916H346.593V133.041H388.483V110.916Z" fill="#232626"/>
<g style="mix-blend-mode:multiply">
<path d="M349.756 113.504L346.593 133.041V110.916H388.483L349.756 113.504Z" fill="#232626"/>
</g>
<path d="M209.667 379.276H280.906C280.906 379.276 300.982 378.718 286.564 397.635L211.357 491.711C211.357 491.711 209.947 379.26 209.667 379.26V379.276Z" fill="#6B8292"/>
<path d="M209.667 381.615H276.394C276.394 381.615 295.2 381.089 281.696 398.813L211.264 486.923C211.264 486.923 209.947 381.615 209.683 381.615H209.667Z" fill="#87A3B8"/>
<g style="mix-blend-mode:screen">
<path d="M233.884 392.646C237.884 388.943 241.914 385.256 245.976 381.6H236.426C235.822 382.157 235.202 382.715 234.581 383.273C226.861 390.369 219.28 397.635 211.838 405.041C211.28 405.599 210.722 406.156 210.164 406.73C210.21 409.379 210.241 412.168 210.288 415.05C218.07 407.504 225.93 400.021 233.884 392.662V392.646Z" fill="#87A3B8"/>
</g>
<g style="mix-blend-mode:screen">
<path d="M233.186 430.946C240.721 424.268 248.286 417.637 255.914 411.052C263.495 404.499 271.138 397.992 278.828 391.546C281.2 389.563 283.588 387.596 285.975 385.628C284.564 382.886 280.983 382.003 278.611 381.724C277.603 382.607 276.596 383.474 275.588 384.357C267.821 391.159 260.115 398.038 252.488 404.979C244.798 411.967 237.186 419.031 229.636 426.174C223.264 432.201 216.97 438.29 210.722 444.441C210.753 446.625 210.784 448.794 210.815 450.917C218.256 444.224 225.713 437.561 233.217 430.93L233.186 430.946Z" fill="#87A3B8"/>
</g>
<g style="mix-blend-mode:multiply">
<path d="M226.768 379.275H209.667C209.947 379.275 211.357 491.726 211.357 491.726L226.768 472.452V379.275Z" fill="#6B8292"/>
</g>
<path d="M407.119 379.276H335.881C335.881 379.276 315.804 378.718 330.222 397.635L405.429 491.711C405.429 491.711 406.84 379.26 407.119 379.26V379.276Z" fill="#6B8292"/>
<path d="M407.118 381.615H340.392C340.392 381.615 321.586 381.089 335.09 398.813L405.522 486.923C405.522 486.923 406.839 381.615 407.103 381.615H407.118Z" fill="#87A3B8"/>
<g style="mix-blend-mode:screen">
<path d="M382.902 392.646C378.902 388.943 374.871 385.256 370.81 381.6H380.36C380.964 382.157 381.584 382.715 382.205 383.273C389.925 390.369 397.506 397.635 404.948 405.041C405.506 405.599 406.064 406.156 406.622 406.73C406.576 409.379 406.545 412.168 406.498 415.05C398.716 407.504 390.855 400.021 382.902 392.662V392.646Z" fill="#87A3B8"/>
</g>
<g style="mix-blend-mode:screen">
<path d="M383.6 430.946C376.065 424.268 368.5 417.637 360.872 411.052C353.291 404.499 345.648 397.992 337.958 391.546C335.586 389.563 333.199 387.596 330.811 385.628C332.222 382.886 335.803 382.003 338.175 381.724C339.183 382.607 340.191 383.474 341.198 384.357C348.965 391.159 356.671 398.038 364.298 404.979C371.988 411.967 379.6 419.031 387.15 426.174C393.522 432.201 399.817 438.29 406.08 444.441C406.049 446.625 406.018 448.794 405.987 450.917C398.545 444.224 391.088 437.561 383.584 430.93L383.6 430.946Z" fill="#87A3B8"/>
</g>
<g style="mix-blend-mode:multiply">
<path d="M390.018 379.275H407.118C406.839 379.275 405.428 491.726 405.428 491.726L390.018 472.452V379.275Z" fill="#6B8292"/>
</g>
<path d="M218.148 345.082H173.157V548.493H218.148V345.082Z" fill="#C7C8CA"/>
<path d="M218.148 345.082H173.157V352.844H218.148V345.082Z" fill="#909294"/>
<path d="M218.148 369.623H173.157V548.509H218.148V369.623Z" fill="#97989B"/>
<g style="mix-blend-mode:screen">
<path d="M175.359 372.489L173.157 548.509V369.623H218.148L175.359 372.489Z" fill="#97989B"/>
</g>
<path d="M213.435 384.172H179.513V402.624H213.435V384.172Z" fill="#212224"/>
<path d="M211.807 385.303H181.172V402.624H211.807V385.303Z" fill="#47484A"/>
<path d="M443.629 345.082H398.638V548.493H443.629V345.082Z" fill="#C7C8CA"/>
<path d="M443.629 345.082H398.638V352.844H443.629V345.082Z" fill="#909294"/>
<path d="M443.629 369.623H398.638V548.509H443.629V369.623Z" fill="#97989B"/>
<g style="mix-blend-mode:screen">
<path d="M400.84 372.489L398.638 548.509V369.623H443.629L400.84 372.489Z" fill="#97989B"/>
</g>
<path d="M438.916 384.172H404.995V402.624H438.916V384.172Z" fill="#212224"/>
<path d="M437.288 385.303H406.654V402.624H437.288V385.303Z" fill="#47484A"/>
<path d="M442.342 266.996H398.034V326.258H442.342V266.996Z" fill="#47484A"/>
<path d="M439.071 270.73H401.134V322.942H439.071V270.73Z" fill="#C7C8CA"/>
<path d="M213.931 477.751L169.669 520.699L106.431 465.372L131.825 432.139L213.931 477.751Z" fill="#F4A893"/>
<path d="M366.84 335.988C366.468 326.847 358.22 319.999 349.089 321.27L222.488 338.963C205.962 341.272 191.109 350.165 181.342 363.582L107.655 464.939L153.591 474.963L153.483 475.459L172.94 479.704C218.721 489.697 264.006 461.453 274.766 416.228L287.571 362.42L353.802 351.791C361.554 350.552 367.135 343.766 366.809 335.973L366.84 335.988Z" fill="#F4A893"/>
<path d="M380.22 239.465L322.997 375.976C322.532 377.076 321.26 377.588 320.16 377.123L224.349 337.29C223.248 336.825 222.721 335.57 223.186 334.47L280.409 197.958C282.533 192.876 288.409 190.491 293.54 192.613L374.809 226.404C379.925 228.527 382.359 234.383 380.22 239.449V239.465Z" fill="white"/>
<path d="M285.246 252.2L277.696 249.055L286.145 228.898L293.695 232.028L285.246 252.2Z" fill="#348AC2"/>
<path d="M298.61 255.547L291.06 252.417L298.734 234.12L306.284 237.265L298.61 255.547Z" fill="#348AC2"/>
<path d="M323.509 291.306L315.958 288.176L332.702 248.25L340.252 251.38L323.509 291.306Z" fill="#348AC2"/>
<path d="M327.586 320.34L320.036 317.21L346.531 253.998L354.081 257.143L327.586 320.34Z" fill="#348AC2"/>
<g opacity="0.46">
<path d="M380.189 239.527L376.437 248.466L276.626 206.96L280.393 197.974C282.533 192.892 288.378 190.49 293.463 192.597L374.793 226.419C379.909 228.542 382.313 234.414 380.173 239.527H380.189Z" fill="#348AC2"/>
</g>
<path d="M246.751 344.014L239.217 340.869L255.945 300.942L263.495 304.088L246.751 344.014Z" fill="#348AC2"/>
<path d="M259.34 349.235L251.79 346.105L268.533 306.179L276.083 309.309L259.34 349.235Z" fill="#348AC2"/>
<path d="M307.137 369.112L299.603 365.983L316.331 326.057L323.881 329.186L307.137 369.112Z" fill="#348AC2"/>
<path d="M289.897 270.73C289.742 270.483 289.479 270.343 289.184 270.343L279.836 270.219L282.642 262.968L286.564 262.302C286.564 262.302 286.688 262.271 286.75 262.256C286.967 262.178 287.138 262.008 287.231 261.791C287.355 261.496 287.308 261.171 287.107 260.908C286.952 260.706 286.688 260.582 286.425 260.567L282.115 260.334L278.921 257.437C278.735 257.267 278.471 257.158 278.208 257.189C277.882 257.236 277.619 257.437 277.495 257.716C277.371 257.995 277.417 258.305 277.588 258.553L279.867 261.791L276.673 268.871L270.022 262.349C269.805 262.147 269.526 262.054 269.232 262.116C268.952 262.178 268.72 262.364 268.596 262.628C268.487 262.875 268.503 263.17 268.658 263.402L274.642 273.287L272.301 278.4C271.867 279.345 271.79 280.367 272.115 281.142C272.239 281.467 272.487 281.886 272.983 282.103C273.464 282.304 273.96 282.18 274.27 282.041C275.045 281.715 275.727 280.941 276.099 279.965L278.099 274.712L289.37 272.001C289.634 271.939 289.866 271.753 289.975 271.49C290.084 271.226 290.053 270.932 289.897 270.684V270.73Z" fill="#348AC2"/>
<path d="M274.069 507.933L167.622 463.684C164.708 462.475 163.312 459.113 164.522 456.232L239.558 277.253C240.767 274.371 244.147 272.992 247.046 274.201L353.492 318.45C356.407 319.658 357.802 323.02 356.593 325.902L281.557 504.881C280.347 507.762 276.968 509.141 274.069 507.933Z" fill="#127667"/>
<path d="M201.916 419.544L206.055 421.295C207.172 421.759 207.993 422.224 208.52 422.643C209.048 423.076 209.389 423.51 209.559 423.975C209.73 424.44 209.761 424.92 209.668 425.447C209.575 425.958 209.327 426.717 208.908 427.709L208.319 429.088C207.9 430.095 207.482 430.792 207.079 431.164C206.675 431.536 206.148 431.737 205.482 431.753C204.815 431.753 204.04 431.582 203.141 431.21L202.04 430.746L199.358 437.113L195.25 435.378L201.916 419.559V419.544ZM204.893 423.975L203.203 428.003C203.311 428.065 203.42 428.112 203.497 428.143C203.869 428.298 204.179 428.313 204.396 428.189C204.629 428.065 204.862 427.709 205.11 427.12L205.652 425.819C205.885 425.276 205.947 424.889 205.838 424.657C205.745 424.424 205.42 424.192 204.893 423.975Z" fill="white"/>
<path d="M218.582 426.562L214.272 443.373L210.07 441.606L211.047 438.678L209.574 438.058L208.133 440.801L203.869 439.004L212.644 424.083L218.597 426.593L218.582 426.562ZM212.117 435.812C212.66 433.937 213.388 431.629 214.287 428.902C212.598 431.753 211.388 433.86 210.691 435.208L212.101 435.812H212.117Z" fill="white"/>
<path d="M228.334 436.308L224.52 434.696L225.016 433.519C225.248 432.976 225.341 432.605 225.31 432.419C225.279 432.233 225.14 432.078 224.923 431.985C224.675 431.876 224.442 431.907 224.225 432.047C224.008 432.202 223.822 432.481 223.652 432.884C223.435 433.41 223.342 433.844 223.357 434.17C223.388 434.495 223.636 434.975 224.117 435.626C225.497 437.485 226.272 438.864 226.442 439.763C226.613 440.661 226.396 441.885 225.729 443.434C225.248 444.565 224.768 445.34 224.287 445.758C223.791 446.177 223.093 446.409 222.194 446.456C221.295 446.502 220.334 446.316 219.326 445.882C218.225 445.418 217.373 444.813 216.768 444.07C216.163 443.326 215.884 442.582 215.915 441.839C215.946 441.095 216.21 440.119 216.706 438.941L217.14 437.903L220.954 439.515L220.148 441.436C219.9 442.025 219.791 442.427 219.822 442.644C219.853 442.861 220.008 443.032 220.287 443.14C220.566 443.249 220.814 443.233 221.032 443.078C221.249 442.923 221.45 442.629 221.636 442.211C222.024 441.281 222.163 440.615 222.024 440.227C221.884 439.825 221.45 439.081 220.706 437.981C219.977 436.881 219.497 436.091 219.295 435.657C219.094 435.208 219.001 434.665 219.001 434.046C219.001 433.41 219.187 432.682 219.543 431.846C220.055 430.637 220.582 429.816 221.125 429.382C221.667 428.948 222.349 428.731 223.171 428.7C223.993 428.669 224.892 428.871 225.869 429.289C226.938 429.738 227.776 430.296 228.38 430.962C228.985 431.629 229.295 432.264 229.326 432.899C229.357 433.534 229.093 434.464 228.566 435.719L228.303 436.339L228.334 436.308Z" fill="white"/>
<path d="M238.69 440.661L234.876 439.05L235.372 437.872C235.604 437.33 235.697 436.958 235.666 436.772C235.635 436.586 235.496 436.431 235.279 436.338C235.031 436.23 234.798 436.261 234.581 436.4C234.364 436.555 234.178 436.834 234.008 437.237C233.791 437.764 233.682 438.198 233.713 438.523C233.744 438.848 233.992 439.329 234.473 439.979C235.852 441.838 236.628 443.217 236.798 444.116C236.984 445.015 236.752 446.239 236.085 447.788C235.604 448.919 235.124 449.694 234.643 450.112C234.147 450.53 233.449 450.763 232.55 450.809C231.636 450.856 230.69 450.67 229.682 450.236C228.581 449.771 227.729 449.167 227.124 448.423C226.519 447.679 226.24 446.936 226.271 446.192C226.302 445.448 226.566 444.472 227.062 443.295L227.496 442.257L231.31 443.868L230.504 445.789C230.256 446.378 230.147 446.781 230.178 446.998C230.209 447.215 230.364 447.385 230.643 447.493C230.922 447.617 231.17 447.586 231.388 447.432C231.605 447.277 231.806 446.982 231.992 446.564C232.38 445.634 232.519 444.968 232.38 444.581C232.24 444.178 231.791 443.434 231.062 442.334C230.318 441.234 229.853 440.444 229.651 440.01C229.45 439.561 229.357 439.019 229.357 438.383C229.357 437.748 229.543 437.02 229.899 436.183C230.411 434.975 230.938 434.154 231.481 433.72C232.023 433.286 232.705 433.069 233.542 433.038C234.364 433.007 235.263 433.209 236.24 433.627C237.31 434.076 238.147 434.634 238.752 435.3C239.356 435.966 239.666 436.602 239.697 437.237C239.713 437.857 239.465 438.802 238.938 440.057L238.674 440.676L238.69 440.661Z" fill="white"/>
<path d="M242.333 436.57L246.472 438.321C247.588 438.786 248.41 439.251 248.953 439.669C249.48 440.103 249.821 440.537 249.991 441.001C250.162 441.466 250.193 441.946 250.1 442.473C250.007 442.985 249.759 443.744 249.34 444.735L248.751 446.114C248.332 447.121 247.914 447.818 247.511 448.19C247.108 448.562 246.581 448.764 245.914 448.779C245.247 448.779 244.472 448.609 243.573 448.237L242.472 447.772L239.79 454.14L235.682 452.404L242.348 436.586L242.333 436.57ZM245.309 441.001L243.619 445.03C243.728 445.092 243.836 445.138 243.914 445.169C244.286 445.324 244.596 445.34 244.813 445.216C245.03 445.092 245.278 444.735 245.526 444.147L246.069 442.845C246.301 442.303 246.363 441.915 246.255 441.683C246.146 441.451 245.836 441.218 245.309 441.001Z" fill="white"/>
<path d="M261.712 430.823C281.662 430.823 297.835 414.661 297.835 394.723C297.835 374.786 281.662 358.624 261.712 358.624C241.762 358.624 225.589 374.786 225.589 394.723C225.589 414.661 241.762 430.823 261.712 430.823Z" stroke="white" stroke-width="2.34" stroke-miterlimit="10"/>
<path d="M335.556 376.094L314.321 371.459C308.599 370.211 302.948 373.834 301.698 379.552L300.673 384.244C299.423 389.962 303.049 395.61 308.77 396.858L330.005 401.493C335.727 402.742 341.379 399.119 342.628 393.401L343.654 388.709C344.903 382.991 341.278 377.343 335.556 376.094Z" fill="#F4A893"/>
<path d="M329.58 403.428L308.344 398.793C302.623 397.545 296.971 401.168 295.722 406.886L294.696 411.578C293.447 417.296 297.072 422.944 302.794 424.192L324.029 428.827C329.751 430.076 335.402 426.453 336.652 420.735L337.677 416.043C338.927 410.325 335.301 404.677 329.58 403.428Z" fill="#F4A893"/>
<path d="M323.622 430.747L302.387 426.112C296.665 424.863 291.013 428.486 289.764 434.204L288.738 438.896C287.489 444.614 291.114 450.262 296.836 451.511L318.071 456.146C323.793 457.394 329.444 453.771 330.694 448.053L331.719 443.361C332.969 437.643 329.343 431.995 323.622 430.747Z" fill="#F4A893"/>
<path d="M270.487 401.014L174.335 380.036L174.041 385.877L173.188 385.272L153.592 474.963L169.219 478.372C169.219 478.372 169.312 474.607 169.762 469.788L169.328 478.387C188.816 482.632 208.04 470.408 212.257 451.072L218.427 422.859L263.557 432.713C272.379 434.634 281.076 429.103 282.998 420.349C284.905 411.595 279.309 402.935 270.487 401.014Z" fill="#F4A893"/>
<path d="M269.325 406.731C273.728 407.692 276.534 412.03 275.573 416.399L274.596 420.861C273.635 425.23 269.278 428.003 264.875 427.043L256.317 425.184C255.821 425.075 255.496 424.579 255.604 424.084L259.651 405.569C259.759 405.073 260.255 404.763 260.751 404.872L269.309 406.731H269.325ZM269.418 406.282L260.86 404.423C260.116 404.252 259.372 404.732 259.201 405.476L255.155 423.991C255 424.734 255.465 425.478 256.224 425.633L264.782 427.492C269.418 428.499 274.038 425.571 275.046 420.954L276.022 416.492C277.03 411.89 274.053 407.289 269.418 406.282Z" fill="#F1F2F1"/>
<path d="M323.323 378.006L319.711 394.568L312.006 392.879C308.424 392.105 306.145 388.572 306.921 385.009L307.727 381.337C308.502 377.789 312.052 375.527 315.634 376.302L323.339 377.99L323.323 378.006ZM323.866 377.665L315.711 375.883C311.882 375.047 308.083 377.464 307.246 381.259L306.44 384.931C305.618 388.727 308.068 392.508 311.882 393.344L320.036 395.126L323.85 377.665H323.866Z" fill="#F1F2F1"/>
<path d="M311.385 432.65L307.773 449.213L300.068 447.524C296.486 446.749 294.207 443.217 294.983 439.653L295.789 435.982C296.564 432.434 300.114 430.172 303.696 430.946L311.401 432.635L311.385 432.65ZM311.928 432.31L303.773 430.528C299.944 429.691 296.145 432.108 295.308 435.904L294.502 439.576C293.68 443.372 296.13 447.152 299.944 447.989L308.099 449.771L311.912 432.31H311.928Z" fill="#F1F2F1"/>
<path d="M317.354 405.336L313.742 421.898L306.037 420.209C302.455 419.435 300.176 415.902 300.951 412.339L301.758 408.667C302.533 405.119 306.083 402.857 309.664 403.632L317.369 405.32L317.354 405.336ZM317.897 404.98L309.742 403.198C305.912 402.361 302.114 404.778 301.277 408.574L300.471 412.246C299.649 416.042 302.099 419.822 305.912 420.659L314.067 422.44L317.881 404.98H317.897Z" fill="#F1F2F1"/>
</g>
<path d="M48.417 45.6123V32.7064H43.8125V30.0725H56.1532V32.7064H51.5487V45.6123H48.417Z" fill="#595757"/>
<path d="M57.7656 32.8459V30.0881H60.7423V32.8459H57.7656ZM57.7656 45.6124V34.3643H60.7423V45.6124H57.7656Z" fill="#595757"/>
<path d="M63.5796 34.3642H66.3237V35.8981C67.3004 34.7051 68.4787 34.1008 69.8274 34.1008C70.5406 34.1008 71.1762 34.2558 71.7033 34.5501C72.2305 34.8445 72.6646 35.2938 73.0056 35.8981C73.5018 35.2938 74.0289 34.8445 74.6025 34.5501C75.1761 34.2558 75.7807 34.1008 76.4319 34.1008C77.2536 34.1008 77.9512 34.2713 78.5248 34.5966C79.0985 34.9375 79.5171 35.4178 79.8116 36.0685C80.0132 36.5488 80.1217 37.3234 80.1217 38.3925V45.5814H77.145V39.1517C77.145 38.0361 77.0365 37.308 76.835 36.9981C76.5559 36.5798 76.1373 36.3629 75.5637 36.3629C75.1451 36.3629 74.7575 36.4868 74.3854 36.7502C74.0134 36.9981 73.7498 37.3699 73.5948 37.8657C73.4242 38.3615 73.3467 39.1362 73.3467 40.1897V45.5969H70.3701V39.4305C70.3701 38.3305 70.3236 37.6333 70.215 37.308C70.1065 36.9826 69.9515 36.7502 69.7189 36.5953C69.5019 36.4403 69.1918 36.3629 68.8197 36.3629C68.3546 36.3629 67.9515 36.4868 67.5795 36.7347C67.2074 36.9826 66.9438 37.3389 66.7888 37.8037C66.6337 38.2685 66.5562 39.0432 66.5562 40.1277V45.5969H63.5796V34.3487V34.3642Z" fill="#595757"/>
<path d="M89.6099 42.0334L92.5711 42.5292C92.1835 43.6137 91.5944 44.4504 90.7572 45.0081C89.9355 45.5814 88.8968 45.8603 87.672 45.8603C85.7186 45.8603 84.2613 45.225 83.3311 43.9391C82.5869 42.9165 82.2148 41.6151 82.2148 40.0658C82.2148 38.2066 82.6954 36.7347 83.6721 35.6812C84.6489 34.6276 85.8736 34.1008 87.3774 34.1008C89.0518 34.1008 90.3696 34.6586 91.3463 35.7586C92.3075 36.8586 92.7726 38.5629 92.7416 40.8404H85.2845C85.3 41.7235 85.5481 42.4052 85.9976 42.901C86.4627 43.3968 87.0364 43.6447 87.7185 43.6447C88.1836 43.6447 88.5712 43.5208 88.8968 43.2574C89.2069 43.0095 89.4549 42.5912 89.6099 42.0334ZM89.7805 39.0277C89.765 38.1601 89.5324 37.5094 89.1138 37.0601C88.6953 36.6107 88.1681 36.3939 87.5635 36.3939C86.9124 36.3939 86.3697 36.6262 85.9511 37.1065C85.5325 37.5713 85.3155 38.2221 85.331 39.0277H89.7805Z" fill="#595757"/>
<path d="M101.207 32.8459V30.0881H104.183V32.8459H101.207ZM101.207 45.6124V34.3643H104.183V45.6124H101.207Z" fill="#595757"/>
<path d="M106.182 42.4057L109.175 41.9564C109.299 42.5297 109.562 42.979 109.95 43.2734C110.337 43.5678 110.88 43.7227 111.578 43.7227C112.353 43.7227 112.926 43.5832 113.314 43.3044C113.578 43.1029 113.702 42.8396 113.702 42.5142C113.702 42.2818 113.624 42.0959 113.484 41.9564C113.329 41.817 113.004 41.6776 112.492 41.5691C110.089 41.0423 108.57 40.562 107.919 40.1127C107.035 39.5085 106.585 38.6564 106.585 37.5873C106.585 36.6112 106.973 35.7901 107.748 35.1239C108.523 34.4577 109.717 34.1323 111.33 34.1323C112.942 34.1323 114.012 34.3802 114.756 34.8915C115.5 35.3873 116.027 36.131 116.306 37.1225L113.5 37.6338C113.376 37.2 113.159 36.8591 112.818 36.6267C112.477 36.3943 111.996 36.2704 111.376 36.2704C110.585 36.2704 110.027 36.3788 109.686 36.5958C109.454 36.7507 109.345 36.9521 109.345 37.2C109.345 37.4169 109.438 37.5873 109.64 37.7423C109.903 37.9437 110.833 38.2225 112.415 38.5789C113.996 38.9352 115.112 39.3846 115.732 39.8958C116.353 40.4226 116.663 41.1663 116.663 42.1114C116.663 43.1339 116.229 44.0325 115.376 44.7762C114.508 45.5199 113.236 45.8917 111.547 45.8917C110.012 45.8917 108.802 45.5819 107.903 44.9621C107.004 44.3424 106.43 43.4903 106.151 42.4367L106.182 42.4057Z" fill="#595757"/>
<path d="M125.112 34.3642H127.856V35.8981C128.833 34.7051 130.011 34.1008 131.36 34.1008C132.073 34.1008 132.709 34.2558 133.236 34.5501C133.763 34.8445 134.197 35.2938 134.538 35.8981C135.034 35.2938 135.562 34.8445 136.135 34.5501C136.709 34.2558 137.313 34.1008 137.965 34.1008C138.786 34.1008 139.484 34.2713 140.058 34.5966C140.631 34.9375 141.05 35.4178 141.344 36.0685C141.546 36.5488 141.654 37.3234 141.654 38.3925V45.5814H138.678V39.1517C138.678 38.0361 138.569 37.308 138.368 36.9981C138.089 36.5798 137.67 36.3629 137.096 36.3629C136.678 36.3629 136.29 36.4868 135.918 36.7502C135.546 36.9981 135.283 37.3699 135.127 37.8657C134.957 38.3615 134.879 39.1362 134.879 40.1897V45.5969H131.903V39.4305C131.903 38.3305 131.856 37.6333 131.748 37.308C131.639 36.9826 131.484 36.7502 131.252 36.5953C131.035 36.4403 130.725 36.3629 130.352 36.3629C129.887 36.3629 129.484 36.4868 129.112 36.7347C128.74 36.9826 128.477 37.3389 128.321 37.8037C128.166 38.2685 128.089 39.0432 128.089 40.1277V45.5969H125.112V34.3487V34.3642Z" fill="#595757"/>
<path d="M143.949 39.8332C143.949 38.8417 144.197 37.8811 144.677 36.967C145.158 36.0374 145.856 35.3402 146.755 34.8444C147.654 34.3641 148.646 34.1162 149.747 34.1162C151.452 34.1162 152.848 34.674 153.933 35.774C155.018 36.874 155.561 38.2684 155.561 39.9572C155.561 41.646 155.018 43.0713 153.917 44.1869C152.817 45.3024 151.437 45.8601 149.762 45.8601C148.724 45.8601 147.747 45.6277 146.817 45.1629C145.887 44.6981 145.173 44.0164 144.677 43.1178C144.197 42.2192 143.949 41.1192 143.949 39.8332ZM146.987 39.9882C146.987 41.1037 147.251 41.9558 147.778 42.5446C148.305 43.1333 148.956 43.4277 149.731 43.4277C150.507 43.4277 151.158 43.1333 151.685 42.5446C152.212 41.9558 152.476 41.0882 152.476 39.9572C152.476 38.8262 152.212 38.005 151.685 37.4163C151.158 36.8275 150.507 36.5332 149.731 36.5332C148.956 36.5332 148.305 36.8275 147.778 37.4163C147.251 38.005 146.987 38.8572 146.987 39.9727V39.9882Z" fill="#595757"/>
<path d="M168.119 45.6124H165.142V39.8643C165.142 38.6559 165.08 37.8657 164.956 37.5094C164.832 37.153 164.615 36.8741 164.336 36.6727C164.057 36.4713 163.7 36.3783 163.297 36.3783C162.786 36.3783 162.32 36.5178 161.902 36.7967C161.499 37.0756 161.204 37.4474 161.065 37.9122C160.91 38.377 160.832 39.2446 160.832 40.4996V45.5969H157.855V34.3487H160.615V36.0065C161.592 34.7361 162.832 34.1008 164.32 34.1008C164.972 34.1008 165.576 34.2248 166.119 34.4572C166.661 34.6896 167.08 34.9995 167.359 35.3713C167.638 35.7431 167.84 36.1614 167.948 36.6262C168.057 37.091 168.119 37.7573 168.119 38.6249V45.6124Z" fill="#595757"/>
<path d="M177.669 42.0334L180.63 42.5292C180.243 43.6137 179.653 44.4504 178.816 45.0081C177.995 45.5814 176.956 45.8603 175.731 45.8603C173.778 45.8603 172.32 45.225 171.39 43.9391C170.646 42.9165 170.274 41.6151 170.274 40.0658C170.274 38.2066 170.755 36.7347 171.731 35.6812C172.708 34.6276 173.933 34.1008 175.437 34.1008C177.111 34.1008 178.429 34.6586 179.405 35.7586C180.367 36.8586 180.832 38.5629 180.801 40.8404H173.344C173.359 41.7235 173.607 42.4052 174.057 42.901C174.522 43.3968 175.08 43.6447 175.778 43.6447C176.243 43.6447 176.63 43.5208 176.956 43.2574C177.281 43.0095 177.514 42.5912 177.669 42.0334ZM177.84 39.0277C177.824 38.1601 177.592 37.5094 177.173 37.0601C176.754 36.6107 176.227 36.3939 175.623 36.3939C174.971 36.3939 174.429 36.6262 174.01 37.1065C173.592 37.5713 173.375 38.2221 173.39 39.0277H177.84Z" fill="#595757"/>
<path d="M181.808 34.3643H184.971L187.668 42.3433L190.304 34.3643H193.389L189.42 45.1941L188.707 47.1462C188.444 47.7969 188.195 48.3082 187.963 48.6491C187.73 48.9899 187.451 49.2688 187.141 49.4857C186.831 49.7026 186.459 49.873 186.01 49.997C185.56 50.1209 185.048 50.1829 184.49 50.1829C183.932 50.1829 183.358 50.1209 182.8 49.997L182.537 47.673C183.002 47.766 183.42 47.8124 183.793 47.8124C184.49 47.8124 185.002 47.611 185.327 47.2082C185.653 46.8054 185.917 46.2786 186.087 45.6589L181.808 34.3797V34.3643Z" fill="#595757"/>
<path d="M196.459 41.6151L195.684 33.7291V30.0881H198.909V33.7291L198.149 41.6151H196.459ZM195.808 45.6124V42.6377H198.785V45.6124H195.808Z" fill="#595757"/>
<path d="M47.9054 59.6033V57.4807H50.2929V59.6033H53.099V61.8808H50.2929V63.9259H53.5951V66.2344H50.882V68.4345H53.2695V70.65H50.882V73.5627C51.4867 73.7796 52.1223 73.9346 52.8199 73.9965C54.5098 74.2135 56.7733 74.3064 59.6104 74.3064C61.4398 74.3064 63.0677 74.2135 64.4475 74.043L63.6878 76.7544H59.6104C56.3082 76.7544 53.8277 76.6304 52.1378 76.367C50.7425 76.1501 49.5332 75.7628 48.51 75.1585C48.0294 74.8797 47.6108 74.5543 47.2232 74.167C46.9907 75.2515 46.6806 76.2431 46.293 77.1262L44.2466 75.8403C44.6342 74.9261 44.9132 73.8881 45.1303 72.6796C45.3473 71.3782 45.4713 69.5965 45.5178 67.3654H47.8279C47.8279 68.7598 47.7658 70.0303 47.6728 71.1613C47.9364 71.5021 48.2155 71.812 48.4945 72.0754V66.2809H44.5877V63.9724H47.8899V61.9273H45.2543V59.6498H47.8899L47.9054 59.6033ZM63.3467 66.0485V68.1556H59.967V69.1781H63.9669V71.3007H59.967V73.8416H57.595V71.3007H53.5951V69.1781H57.595V68.1556H54.2152V66.0485H63.3622H63.3467ZM63.6103 57.8216V65.3668H54.0292V57.8216H63.6103ZM61.3313 60.6258V59.9596H56.3082V60.6258H61.3313ZM61.3313 63.2442V62.578H56.3082V63.2442H61.3313Z" fill="#595757"/>
<path d="M75.9664 59.4329H73.1914V60.3625H75.9664V64.5301H73.1914V65.5217H75.9044V67.4739H75.1913L75.3928 67.5668C74.9742 68.2021 74.5866 68.7598 74.2456 69.2401C74.5556 69.3641 74.8502 69.5035 75.1293 69.612C76.168 68.7443 77.0827 67.8767 77.8889 67.0556C77.6098 67.164 77.3462 67.257 77.0827 67.3189L75.9044 65.1344C77.2222 64.7936 78.354 64.3132 79.2842 63.6625C78.4625 62.5315 77.8734 61.2921 77.5013 59.9751H76.6486V57.7596H85.1135V59.4483C84.4468 61.2766 83.6406 62.7019 82.7104 63.771C83.6251 64.4837 84.6639 65.1189 85.8886 65.6302L84.1057 67.8457C82.881 67.1795 81.7957 66.3739 80.8655 65.4597C80.0903 66.0175 79.2842 66.4978 78.416 66.8541L80.7105 67.8457C79.5788 68.9303 78.4935 69.9063 77.4548 70.774C78.5555 70.7275 79.6097 70.65 80.602 70.5571C80.4004 70.3402 80.2144 70.1077 80.0438 69.8908L82.1678 68.5274C83.16 69.6739 83.9662 70.8979 84.6173 72.1683L82.4004 73.4543C82.2298 73.0825 82.0283 72.7416 81.8422 72.3853C80.2299 72.5557 78.5865 72.7106 76.8967 72.8345V77.0022H74.3541V73.0515C72.1216 73.2219 69.7961 73.3923 67.4086 73.5318L66.9745 71.3162C68.9744 71.2233 70.8658 71.1458 72.6487 71.0528C71.5015 70.5725 70.3542 70.0922 69.1915 69.6274L70.6178 67.8457C71.0519 68.0162 71.486 68.1866 71.9046 68.3415C72.1216 68.0316 72.2922 67.7528 72.4627 67.4894H66.6489V57.4807H75.9664V59.4329ZM73.1914 75.298C72.4472 75.6389 71.641 75.9642 70.7573 76.2586C69.8426 76.522 68.8504 76.7853 67.7652 77.0022L66.7419 74.7092C67.7807 74.5853 68.7109 74.3994 69.548 74.1825C70.3232 74.0121 71.0519 73.7952 71.6565 73.5318L73.2068 75.3135L73.1914 75.298ZM70.8038 60.3625V59.4329H68.9279V60.3625H70.8038ZM73.951 62.8104V62.0512H68.9279V62.8104H73.951ZM70.8038 64.5301H68.9279V65.5217H70.8038V64.5301ZM82.1368 73.9965C83.005 74.2599 83.8732 74.4768 84.7259 74.6008L83.4391 76.8938C82.5554 76.6304 81.7027 76.3361 80.881 75.9797C79.8888 75.5459 78.9741 75.0811 78.1059 74.5853L79.5322 73.067C80.3539 73.4078 81.2221 73.7177 82.1368 73.9811V73.9965ZM82.4934 59.9441H79.7958C80.1058 60.7498 80.54 61.4625 81.0516 62.1132C81.6407 61.4625 82.1213 60.7188 82.4779 59.9441H82.4934Z" fill="#595757"/>
<path d="M92.0901 63.0738L90.4622 65.1189C89.6095 64.1893 88.7414 63.3837 87.8267 62.7329L89.4545 61.0442C90.4157 61.6329 91.2839 62.2991 92.0746 63.0893L92.0901 63.0738ZM92.6017 66.3738V72.912C93.5164 73.5782 94.5861 73.9501 95.7954 74.043C96.6791 74.2135 98.8961 74.2754 102.446 74.2754C104.508 74.2754 106.26 74.1515 107.702 73.8416C107.252 74.7093 106.88 75.6234 106.617 76.6459H100.167C97.8573 76.6459 96.0124 76.4755 94.6326 76.1191C93.6404 75.8558 92.6327 75.3135 91.6715 74.5078C90.9273 75.36 90.2142 76.1966 89.4855 77.0642C88.9429 76.1811 88.4003 75.3445 87.8577 74.5853C88.6638 74.198 89.47 73.7642 90.2452 73.3303V68.7443H87.8577V66.3584H92.6172L92.6017 66.3738ZM93.7954 59.5103L92.1831 61.5554C91.3149 60.6258 90.4002 59.8202 89.47 59.1695L91.0824 57.4807C92.0746 58.0695 92.9738 58.7357 93.7954 59.5258V59.5103ZM98.2914 58.2399C98.0744 58.7821 97.8573 59.2624 97.6558 59.6962H99.9968C100.214 58.999 100.384 58.2709 100.555 57.4807L103.097 58.2399C102.927 58.7666 102.756 59.2624 102.57 59.6962H106.834V61.8963H102.601V63.4456H106.167V65.6302H102.601V67.0866H106.167V69.2866H102.601V71.0683H106.927V73.2839H94.8032V64.4992C94.5396 64.84 94.2606 65.1654 93.9505 65.4752L91.9041 63.9569C92.7722 62.9963 93.5474 62.0202 94.1985 60.9822C94.9427 59.8047 95.5163 58.6427 95.9504 57.5117L98.2449 58.2709L98.2914 58.2399ZM100.245 61.8808H97.1907V63.4301H100.245V61.8808ZM100.245 65.6147H97.1907V67.0711H100.245V65.6147ZM100.245 69.2556H97.1907V71.0373H100.245V69.2556Z" fill="#595757"/>
<path d="M113.888 68.5889V66.6367H116.43V68.5889H120.074V71.0368H116.43V73.5312C117.795 73.4073 119.097 73.2523 120.322 73.0819L120.756 75.2974C117.717 75.8552 114.353 76.382 110.663 76.8158L109.733 74.1819C111.19 74.058 112.57 73.9185 113.903 73.7946V71.0368H110.4V68.5889H113.903H113.888ZM120.756 58.0844V60.4549H115.547L114.291 63.8014C115.423 63.7085 116.461 63.631 117.454 63.5225C117.19 63.0732 116.911 62.6084 116.601 62.1591L118.787 60.8112C119.826 62.3296 120.678 63.9409 121.329 65.6296L119.05 66.993C118.88 66.5128 118.678 66.0634 118.492 65.5986C115.981 66.0324 113.237 66.3733 110.245 66.6367L109.81 64.0958C110.415 64.0803 111.004 64.0338 111.562 63.9873L112.911 60.4549H110.058V58.0844H120.74H120.756ZM124.399 59.9436V72.3072H121.857V59.9436H124.399ZM128.632 57.3872V73.6706C128.632 74.9256 128.476 75.7467 128.197 76.227C127.825 76.7228 127.174 76.9862 126.259 76.9862C125.267 76.9862 124.322 76.8933 123.453 76.7228L123.019 74.1819C123.981 74.3988 124.957 74.5073 125.903 74.5073C125.965 74.5073 126.011 74.4143 126.027 74.2284C126.042 73.996 126.073 73.5932 126.073 73.0819V57.3872H128.616H128.632Z" fill="#595757"/>
<path d="M136.259 57.8213C136.197 57.9917 136.135 58.1621 136.088 58.317H141.018V60.0058C141.251 59.6959 141.468 59.4016 141.669 59.0917C142.119 58.441 142.476 57.8058 142.708 57.2325L145.08 57.8987C145.018 58.0536 144.972 58.1776 144.925 58.317H150.677V60.5326H147.762C148.088 60.8424 148.413 61.1213 148.724 61.3847L146.445 62.7326C145.917 61.9889 145.344 61.2608 144.693 60.5326H143.824C143.375 61.2763 142.894 61.927 142.367 62.4847L142.274 62.4228V62.8101H150.584V66.8073H148.134V65.0256H133.949V66.8073H131.499V62.8101H133.298L131.406 61.3847C131.949 60.7805 132.429 60.0988 132.833 59.3241C133.267 58.5649 133.608 57.8522 133.856 57.155L136.243 57.8213H136.259ZM139.561 62.8101V61.958H141.669L140.243 60.8734C140.352 60.765 140.46 60.6565 140.584 60.5326H138.429C138.646 60.8424 138.863 61.1213 139.065 61.3847L136.848 62.6706C136.476 61.9579 136.073 61.2453 135.623 60.5481H135.127L135.112 60.5945C134.677 61.4622 134.197 62.2058 133.685 62.8256H139.577L139.561 62.8101ZM147.53 70.7117H136.755V71.5638H148.631V76.9865H146.181V76.5526H136.755V77.0794H134.305V65.8003H147.53V70.7271V70.7117ZM145.08 68.6666V67.8144H136.755V68.6666H145.08ZM146.196 74.5075V73.5779H136.77V74.5075H146.196Z" fill="#595757"/>
<path d="M157.359 58.2399C157.235 58.7666 157.096 59.2314 156.941 59.6962H157.964V57.4807H160.336V59.6962H164.336V62.0667H160.336V63.678H165.173V65.9865H160.336V67.2725H164.925V72.7571C164.925 74.6318 163.995 75.5614 162.119 75.5614C161.809 75.5614 161.483 75.4994 161.096 75.4064L160.599 72.9275C161.142 73.1599 161.638 73.2684 162.119 73.2684C162.398 73.2684 162.553 72.8965 162.553 72.1684V69.457H160.336V77.0952H157.964V69.457H155.917V75.4064H153.545V67.2725H157.948V65.9865H153.189V63.678H154.708L152.925 62.3301C153.406 61.6794 153.809 60.9047 154.166 60.0371C154.553 59.1695 154.832 58.3638 155.049 57.5892L157.328 58.2554L157.359 58.2399ZM157.964 62.0512H156.057C155.793 62.6555 155.514 63.1822 155.235 63.6625H157.964V62.0512ZM168.305 59.5103V72.0599H165.933V59.5103H168.305ZM171.963 57.4807V73.8416C171.963 75.0346 171.793 75.8093 171.483 76.2431C171.095 76.7234 170.398 76.9868 169.421 76.9868C168.444 76.9868 167.545 76.8938 166.708 76.7234L166.289 74.2754C167.204 74.4923 168.134 74.6008 169.064 74.6008C169.281 74.6008 169.405 74.5078 169.483 74.3374C169.545 74.1205 169.591 73.7487 169.591 73.2529V57.4807H171.963Z" fill="#595757"/>
<path d="M174.661 60.0221V57.822H194.273V60.0221H177.808V73.4392C177.808 73.966 178.614 74.2139 180.211 74.2604C181.281 74.3534 183.172 74.3688 185.854 74.3688C188.537 74.3688 191.219 74.3224 193.916 74.1984V76.383C191.219 76.4914 188.537 76.5534 185.854 76.5534C184.459 76.5534 182.723 76.5379 180.645 76.4914C177.142 76.4449 175.405 75.5773 175.405 73.935V60.0221H174.646H174.661ZM185.436 66.9011V73.5167H178.754V66.9011H185.436ZM190.94 60.7967V66.2194H180.847V60.7967H190.94ZM183.064 71.3941V69.0237H181.11V71.3941H183.064ZM188.583 64.0968V62.9038H183.234V64.0968H188.583ZM192.986 66.9011V73.5167H186.211V66.9011H192.986ZM190.614 71.3941V69.0237H188.568V71.3941H190.614Z" fill="#595757"/>
<path d="M214.954 74.0114C214.954 76.0565 213.854 77.0791 211.637 77.0791C211.094 77.0791 210.458 77.0171 209.776 76.9087L209.28 74.2748C210.148 74.4917 210.923 74.6002 211.652 74.6002C212.179 74.6002 212.427 74.2128 212.427 73.4227V64.2661H207.993C208.164 65.2267 208.443 66.1098 208.846 66.9155C209.714 68.7747 210.861 70.2156 212.257 71.2071L210.799 73.3297C209.156 72.1367 207.823 70.5254 206.8 68.4958C206.629 68.124 206.474 67.7521 206.35 67.3958C206.024 68.093 205.683 68.7592 205.28 69.3789C204.149 71.2691 202.908 72.7255 201.559 73.7635L200.273 71.486C201.575 70.448 202.66 69.2085 203.513 67.7366C204.18 66.6676 204.722 65.5211 205.125 64.2816H200.102V77.0016H197.56V61.8957H205.311C205.265 61.3534 205.265 60.7956 205.265 60.2069H202.226V57.8364H207.652C207.652 59.1843 207.668 60.5323 207.745 61.8957H214.954V74.0269V74.0114Z" fill="#595757"/>
<defs>
<linearGradient id="paint0_linear_20_208447" x1="239.992" y1="222.453" x2="239.992" y2="390.71" gradientUnits="userSpaceOnUse">
<stop stop-color="white"/>
<stop offset="1" stop-color="white" stop-opacity="0.6"/>
</linearGradient>
</defs>
</svg>
