<svg width="482" height="454" viewBox="0 0 482 454" fill="none" xmlns="http://www.w3.org/2000/svg">
<path opacity="0.8" d="M436.87 0H43.1304C19.3101 0 0 19.2976 0 43.1024V410.898C0 434.702 19.3101 454 43.1304 454H436.87C460.69 454 480 434.702 480 410.898V43.1024C480 19.2976 460.69 0 436.87 0Z" fill="url(#paint0_linear_34_254300)"/>
<mask id="mask0_34_254300" style="mask-type:luminance" maskUnits="userSpaceOnUse" x="17" y="99" width="446" height="340">
<path d="M17.5806 99.6062V398.859C17.5806 420.829 35.5645 438.801 57.5483 438.801H422.436C444.42 438.801 462.403 420.829 462.403 398.859V99.6062H17.5806Z" fill="white"/>
</mask>
<g mask="url(#mask0_34_254300)">
<mask id="mask1_34_254300" style="mask-type:luminance" maskUnits="userSpaceOnUse" x="-131" y="73" width="718" height="404">
<path d="M586.616 73.1748H-130.399V476.233H586.616V73.1748Z" fill="white"/>
</mask>
<g mask="url(#mask1_34_254300)">
<path d="M586.616 73.1748H-130.399V476.233H586.616V73.1748Z" fill="#EBF1FA"/>
<path d="M107.531 213.483H141.654V267.12H156.506V198.64L184.087 176.066V237.203H194.365V335.306H-129.764L-130.399 146.66L-108.307 140.556L-92.7882 149.34L-92.1526 207.332L-80.184 208.432V171.015L-63.3783 167.173L-43.3325 171.015V214.629L-7.78322 218.874V208.525C-7.78322 188.074 7.30157 170.659 27.7815 167.514L40.1687 127.944V201.63L62.106 205.999V167.359H93.2988V241.556L107.515 243.896V213.452L107.531 213.483Z" fill="#CCDAF0"/>
<path d="M89.6561 171.311H87.5786V174.099H89.6561V171.311Z" fill="#EBF1FA"/>
<path d="M84.803 175.524H82.7256V178.313H84.803V175.524Z" fill="#EBF1FA"/>
<path d="M80.5238 171.311H78.4463V174.099H80.5238V171.311Z" fill="#EBF1FA"/>
<path d="M76.8348 171.311H74.7573V174.099H76.8348V171.311Z" fill="#EBF1FA"/>
<path d="M70.7728 171.311H68.6953V174.099H70.7728V171.311Z" fill="#EBF1FA"/>
<path d="M74.0901 179.925H72.0127V182.714H74.0901V179.925Z" fill="#EBF1FA"/>
<path d="M69.7337 176.918H67.6562V179.707H69.7337V176.918Z" fill="#EBF1FA"/>
<path d="M-130.399 448.903L199.59 365.456L494.092 334.656L200.582 477.457H-130.399V448.903Z" fill="#1C1D1B"/>
<path d="M-130.399 471.477L162.273 387.472L407.459 358.515L153.142 477.101H-130.399V471.477Z" fill="#040000"/>
<path d="M141.142 445.308L33.9673 439.7L38.5718 437.174L144.847 442.86L141.142 445.308Z" fill="#57595B"/>
<path d="M182.475 435.827L183.188 427.011L91.4701 421.387L90.0283 427.693L182.475 435.827Z" fill="#414344"/>
<path d="M183.188 427.011L91.4702 421.387L95.4081 418.877L186.351 424.563L183.188 427.011Z" fill="#57595B"/>
<path d="M186.351 424.562L187.994 431.24L182.475 435.826L183.188 427.01L186.351 424.562Z" fill="#353738"/>
<path d="M224.876 418.955L225.511 410.139L144.77 404.515L143.499 410.821L224.876 418.955Z" fill="#414344"/>
<path d="M225.512 410.139L144.77 404.515L148.227 402.005L228.302 407.691L225.512 410.139Z" fill="#57595B"/>
<path d="M228.302 407.691L229.744 414.368L224.876 418.954L225.512 410.139L228.302 407.691Z" fill="#353738"/>
<path d="M152.398 397.604L-107.392 477.503L-81.3769 477.488L164.228 398.085L152.398 397.604Z" fill="#969FAB"/>
<path d="M164.228 398.085L-81.377 477.488L-57.2692 477.457L182.847 399.108L164.228 398.085Z" fill="#75797C"/>
<path d="M242.054 402.004L52.897 477.457L74.8498 477.503L254.58 401.896L242.054 402.004Z" fill="#969FAB"/>
<path d="M254.581 401.896L74.8501 477.503L94.0123 477.441L264.425 403.538L254.581 401.896Z" fill="#75797C"/>
<path d="M-130.399 426.097L200.582 359.832V310.13L-130.399 304.118V426.097Z" fill="#A2AEBE"/>
<path d="M581.749 261.883V233.376L569.051 243.896V275.827H562.199V250.821H546.478V263.913H539.936V250.31V229.316H525.564V245.29H515.456V210.941L493.364 225.009V243.896H482.124V207.595H464.776V220.253H459.272V213.312H442.296V216.658H437.164V234.832H425.909V215.946L403.816 201.878V236.226H393.708V220.253H379.337V241.246V254.849H372.794V241.742H357.074V266.764H350.237V234.832L337.524 224.312V252.804H332.795V324.042H384.189H437.164V333.106H535.083H586.493V261.883H581.749Z" fill="#CCDAF0"/>
<path d="M321.524 157.598C321.524 157.598 303.618 136.186 259.867 135.303C259.867 135.303 198.505 129.726 144.786 155.259C144.786 155.259 125.996 162.881 118.957 196.626C118.957 196.626 106.849 251.193 106.927 286.983C107.004 322.509 108.694 351.233 137.453 370.011C137.453 370.011 136.569 375.573 137.623 379.896L138.46 384.079C140.057 392.027 146.848 397.884 154.956 398.317L257.325 403.632C265.821 404.065 274.317 402.671 282.223 399.51L460.977 328.071V274.681L321.524 157.629V157.598Z" fill="#040000"/>
<path d="M153.794 297.441C201.157 299.006 248.271 297.642 266.069 268.313C267.527 263.464 268.395 260.567 268.395 260.567C268.395 260.567 288.441 187.283 306.657 166.398C309.851 162.742 315.323 162.169 319.184 165.097L433.754 251.782L321.54 157.583C321.54 157.583 303.634 136.171 259.883 135.288C259.883 135.288 198.521 129.71 144.802 155.243C144.802 155.243 126.012 162.866 118.973 196.61C118.973 196.61 111.035 232.353 108.059 264.967C108.059 265.013 106.493 295.876 153.809 297.441H153.794Z" fill="#414042"/>
<path d="M107.392 273.349C107.454 272.466 107.516 271.583 107.578 270.699C107.516 271.583 107.454 272.481 107.392 273.349Z" fill="#414042"/>
<path d="M107.222 276.215C107.268 275.393 107.315 274.557 107.361 273.72C107.315 274.557 107.253 275.393 107.222 276.215Z" fill="#414042"/>
<path d="M108.043 264.967C107.965 265.896 107.872 266.826 107.795 267.755C107.872 266.826 107.95 265.896 108.043 264.967Z" fill="#414042"/>
<path d="M107.578 270.653C107.64 269.754 107.717 268.856 107.795 267.957C107.717 268.856 107.655 269.754 107.578 270.653Z" fill="#414042"/>
<path d="M107.098 278.803C107.129 277.982 107.175 277.145 107.206 276.308C107.16 277.145 107.129 277.966 107.098 278.803Z" fill="#414042"/>
<path d="M107.004 281.622C107.019 280.863 107.05 280.088 107.081 279.298C107.05 280.073 107.019 280.847 107.004 281.622Z" fill="#414042"/>
<path d="M137.623 379.88C137.53 379.462 137.437 379.044 137.375 378.625C137.437 379.059 137.53 379.477 137.623 379.88Z" fill="#414042"/>
<path d="M106.942 284.101C106.942 283.327 106.973 282.552 106.989 281.762C106.973 282.552 106.958 283.327 106.942 284.101Z" fill="#414042"/>
<path d="M141.282 384.668L260.472 391.128C260.472 391.128 274.27 392.306 290.13 387.906L460.993 328.055L516.789 315.366L321.54 157.598C321.54 157.598 303.634 136.186 259.883 135.303C259.883 135.303 198.521 129.725 144.802 155.258C144.802 155.258 126.011 162.881 118.973 196.625C118.973 196.625 106.865 251.193 106.942 286.982C107.02 322.508 108.71 351.233 137.468 370.011C137.468 370.011 135.406 382.917 141.282 384.683V384.668Z" fill="#3C3C3B"/>
<path d="M319.184 165.113C315.308 162.184 309.851 162.758 306.657 166.414C288.44 187.299 268.395 260.582 268.395 260.582C268.395 260.582 236.69 366.494 234.334 374.117C232.892 378.812 227.776 385.055 224.07 389.161L248.659 390.494C298.502 390.447 329.152 325.251 329.152 325.251L514.123 314.747L510.635 312.066L319.168 165.128L319.184 165.113Z" fill="#EDEDEC"/>
<path d="M127.19 188.987L202.645 181.365C202.645 181.365 193.25 213.049 190.909 248.249L116.337 252.355C116.337 252.355 116.337 213.343 127.205 188.987H127.19Z" fill="#859EAE"/>
<path d="M208.504 181.349L251.666 176.655L242.271 245.6L197.063 247.366C197.063 247.366 205.869 187.221 208.52 181.349H208.504Z" fill="#859EAE"/>
<path d="M258.596 176.19L273.247 174.656L260.813 245.104H248.287L258.596 176.19Z" fill="#859EAE"/>
<path d="M143.669 176.175L155.157 174.78C156.01 174.672 156.754 174.021 157.111 173.076L159.235 167.452C160.01 165.391 158.692 163.083 156.847 163.253L145.313 164.353C144.413 164.446 143.638 165.128 143.282 166.135L141.204 172.053C140.476 174.13 141.84 176.392 143.669 176.175Z" fill="#EDEDEC"/>
<path d="M143.422 176.608C142.646 176.608 141.918 176.237 141.375 175.57C140.585 174.594 140.367 173.153 140.802 171.914L142.879 165.996C143.298 164.818 144.212 164.028 145.267 163.935L156.801 162.835C157.685 162.757 158.537 163.145 159.127 163.919C159.886 164.926 160.088 166.367 159.623 167.591L157.499 173.215C157.08 174.315 156.196 175.059 155.204 175.183L143.716 176.577C143.623 176.577 143.515 176.593 143.422 176.593V176.608ZM157.065 163.656C157.065 163.656 156.956 163.656 156.91 163.656L145.375 164.756C144.646 164.834 143.995 165.407 143.701 166.259L141.623 172.177C141.282 173.153 141.453 174.269 142.057 175.028C142.491 175.555 143.05 175.818 143.639 175.741L155.127 174.346C155.824 174.269 156.444 173.711 156.739 172.906L158.863 167.281C159.235 166.305 159.08 165.19 158.491 164.415C158.103 163.919 157.607 163.641 157.065 163.641V163.656Z" fill="#3C3C3B"/>
<path d="M260.224 163.222L271.712 161.828C272.565 161.719 273.309 161.068 273.665 160.123L275.789 154.499C276.565 152.439 275.247 150.13 273.402 150.301L261.867 151.401C260.968 151.494 260.193 152.175 259.836 153.182L257.759 159.101C257.03 161.177 258.395 163.439 260.224 163.222Z" fill="#EDEDEC"/>
<path d="M259.976 163.656C259.201 163.656 258.472 163.284 257.929 162.618C257.139 161.642 256.922 160.201 257.356 158.962L259.433 153.043C259.852 151.866 260.766 151.076 261.821 150.983L273.355 149.883C274.239 149.805 275.092 150.192 275.681 150.967C276.44 151.974 276.642 153.415 276.177 154.639L274.053 160.263C273.634 161.363 272.751 162.107 271.758 162.231L260.27 163.625C260.177 163.625 260.069 163.641 259.976 163.641V163.656ZM273.619 150.704C273.619 150.704 273.51 150.704 273.464 150.704L261.929 151.804C261.201 151.881 260.549 152.454 260.255 153.307L258.177 159.225C257.836 160.201 258.007 161.317 258.612 162.076C259.046 162.603 259.604 162.85 260.193 162.788L271.681 161.394C272.379 161.301 272.999 160.759 273.293 159.953L275.417 154.329C275.789 153.353 275.634 152.238 275.045 151.463C274.658 150.967 274.161 150.688 273.619 150.688V150.704Z" fill="#3C3C3B"/>
<path d="M313.106 181.35C313.106 181.35 306.068 176.159 306.068 192.985L302.936 250.093L313.106 252.34V181.334V181.35Z" fill="#364F5D"/>
<path d="M333.865 195.727L346.578 204.14V262.953L333.865 258.32V195.727Z" fill="#364F5D"/>
<path d="M373.058 222.949L403.243 242.703C403.801 243.075 404.126 243.71 404.126 244.376V277.826C404.126 279.205 402.778 280.181 401.46 279.763L371.275 269.94C370.438 269.661 369.879 268.887 369.879 268.004V224.638C369.879 223.011 371.709 222.035 373.058 222.965V222.949Z" fill="#364F5D"/>
<path d="M424.606 257.298L444.172 269.816C444.528 270.064 444.745 270.467 444.745 270.901V292.39C444.745 293.289 443.877 293.924 443.024 293.645L423.459 286.595C422.917 286.425 422.544 285.914 422.544 285.341V258.367C422.544 257.313 423.738 256.678 424.606 257.282V257.298Z" fill="#364F5D"/>
<path d="M458.838 279.685L471.349 287.68C471.582 287.835 471.721 288.098 471.721 288.377V302.119C471.721 302.693 471.163 303.095 470.62 302.925L458.109 298.417C457.768 298.308 457.536 297.983 457.536 297.611V280.382C457.536 279.701 458.295 279.313 458.853 279.685H458.838Z" fill="#364F5D"/>
<path d="M179.188 159.489L176.956 166.708C176.057 169.637 178.413 172.534 181.452 172.24L221.389 168.413C223.032 168.258 224.443 167.173 225.001 165.624L227.652 158.373C228.737 155.414 226.35 152.346 223.218 152.64L182.878 156.498C181.157 156.669 179.7 157.846 179.188 159.489Z" fill="#EDEDEC"/>
<path d="M180.955 172.688C179.235 172.688 177.622 171.743 176.801 170.116C176.227 169.001 176.211 167.684 176.584 166.476L178.801 159.318C179.359 157.52 180.924 156.25 182.8 156.064L223.264 152.191C225.295 152.005 227.218 153.105 228.039 155.103C228.489 156.188 228.427 157.427 228.039 158.543L225.404 165.778C224.799 167.452 223.249 168.645 221.481 168.815L181.436 172.657C181.281 172.657 181.142 172.673 180.987 172.673L180.955 172.688ZM179.591 159.581L177.359 166.77C177.08 167.653 177.064 168.614 177.421 169.45C178.087 171.062 179.684 171.991 181.328 171.821L221.373 167.994C222.83 167.854 224.086 166.878 224.582 165.515L227.233 158.264C227.559 157.365 227.621 156.358 227.249 155.46C226.582 153.817 224.985 152.888 223.326 153.043L182.862 156.916C181.328 157.056 180.041 158.109 179.591 159.581Z" fill="#3C3C3B"/>
<path d="M281.448 385.567C283.836 385.133 286.316 384.591 288.859 383.893L456.776 325.081L331.85 329.264C329.214 334.377 322.021 347.391 310.796 360.576C301.525 371.468 291.649 379.85 281.448 385.582V385.567Z" fill="#1C1D1B"/>
<path d="M153.902 169.885C153.607 171.899 151.747 173.309 149.732 173.014C147.716 172.72 146.305 170.861 146.6 168.847C146.894 166.832 148.755 165.422 150.77 165.717C152.786 166.011 154.197 167.87 153.902 169.885Z" fill="#E98E14"/>
<path d="M270.456 157.289C270.162 159.303 268.301 160.713 266.286 160.418C264.27 160.124 262.86 158.265 263.154 156.251C263.449 154.236 265.309 152.827 267.34 153.121C269.355 153.415 270.766 155.274 270.472 157.289H270.456Z" fill="#E98E14"/>
<path d="M154.801 285.898C137.329 285.263 124.43 280.305 116.461 271.195C111.934 266.02 109.872 260.396 108.957 256.197C108.709 258.382 108.477 260.582 108.26 262.751C109.562 265.974 111.5 269.46 114.384 272.806C122.833 282.614 136.398 287.943 154.723 288.609C162.615 288.904 170.521 289.105 178.32 289.105C214.923 289.105 249.139 284.457 268.131 261.481C268.301 260.892 268.41 260.567 268.41 260.567C268.41 260.567 269.061 258.165 270.255 254.121C249.682 286.564 201.993 287.618 154.832 285.898H154.801Z" fill="#7E348F"/>
<path d="M185.172 298.432L185.25 297.921C185.978 293.273 203.187 183.952 206.148 177.383L206.241 177.166L206.474 177.135L255.511 171.806L236.814 296.418H236.473L185.157 298.432H185.172ZM206.83 177.957C203.776 186.09 187.451 289.384 186.164 297.549L236.116 295.613L254.55 172.766L206.846 177.957H206.83Z" fill="#404E50"/>
<path d="M224.07 389.161C227.791 385.055 232.892 378.812 234.333 374.117C236.287 367.749 258.72 292.855 266.069 268.329C246.721 297.658 201.156 299.021 153.793 297.456C106.446 295.892 108.043 264.998 108.043 264.982C107.345 272.667 106.911 280.166 106.927 286.983C107.004 322.509 108.694 351.234 137.453 370.011C137.453 370.011 135.391 382.917 141.267 384.684L243.201 390.199L224.055 389.161H224.07Z" fill="#6A338F"/>
<path d="M156.243 378.796C155.065 373.513 143.034 366.773 125.717 337.723C108.415 308.704 108.043 265.029 108.043 264.967C107.345 272.651 106.911 280.15 106.927 286.967C107.004 322.493 108.694 351.218 137.453 369.996C137.453 369.996 135.391 382.902 141.267 384.668L156.755 385.504C156.801 383.258 156.693 380.81 156.243 378.796Z" fill="#EDEDEC"/>
<path d="M183.265 372.94C172.475 372.94 161.824 370.043 152.739 364.233C145.53 359.616 138.91 352.923 137.747 343.611C135.003 321.704 149.096 317.396 159.468 317.396H209.373C209.373 317.396 229.729 318.171 229.729 336.562C229.729 354.952 205.668 372.94 186.49 372.94H183.265Z" fill="#040000"/>
<path d="M159.948 347.515V341.643L201.358 342.697V348.553L159.948 347.515Z" fill="#414042"/>
<path d="M168.134 339.21V317.38H162.274V339.055L168.134 339.21Z" fill="#414042"/>
<path d="M172.026 352.473L188.723 353.372C189.886 353.434 190.878 352.504 190.878 351.342V339.753C190.878 338.669 190.025 337.77 188.956 337.724L172.259 336.825C171.096 336.763 170.104 337.693 170.104 338.855V350.444C170.104 351.528 170.956 352.427 172.026 352.473Z" fill="#414042"/>
<path d="M199.032 339.985V317.38H193.172V339.846L199.032 339.985Z" fill="#414042"/>
<path d="M477.752 307.62L299.851 252.665V252.339L303.974 187.5C303.974 183.549 304.998 180.776 307.029 179.273C309.695 177.29 313.075 178.281 313.214 178.328L313.323 178.374L475.752 288.346V289.337L312.904 179.118C312.486 179.01 309.664 178.343 307.509 179.955C305.711 181.303 304.796 183.844 304.796 187.531L300.703 252.061L477.721 306.752V307.635L477.752 307.62Z" fill="#575857"/>
<path d="M268.487 259.529L269.309 256.275L499.193 314.391L495.162 314.53L268.487 259.529Z" fill="#7E348F"/>
<path d="M316.284 181.381L331.121 191.42V315.785L316.238 315.847L316.284 181.381Z" fill="#6D6E71"/>
<path d="M349.12 203.614L366.546 215.404V315.615L349.12 315.692V203.614Z" fill="#6D6E71"/>
<path d="M407.459 243.106L418.746 250.728V315.847H407.459V243.106Z" fill="#6D6E71"/>
<path d="M448.543 270.932L455.21 275.44V315.692L448.543 315.847V270.932Z" fill="#6D6E71"/>
<path opacity="0.6" d="M158.91 185.781L148.181 186.865C139.438 209.16 137.686 239.821 137.329 251.209L147.918 250.62C148.585 236.149 150.895 207.843 158.91 185.781Z" fill="url(#paint1_linear_34_254300)"/>
<path opacity="0.6" d="M164.894 185.176C157.235 207.254 154.693 234.569 153.84 250.294L160.072 249.953C160.522 237.357 162.429 207.688 170.583 184.603L164.878 185.176H164.894Z" fill="url(#paint2_linear_34_254300)"/>
<path d="M180.288 258.258H176.196L134.15 234.414C134.274 232.849 134.321 231.811 134.321 231.811C134.321 231.811 135.36 216.395 132.585 213.622L129.422 249.876C130.848 248.45 133.112 243.772 133.639 239.464L169.715 260.272C169.684 260.427 169.669 260.566 169.669 260.737V262.224C169.669 263.587 170.785 264.703 172.149 264.703H180.288C181.653 264.703 182.769 263.587 182.769 262.224V260.737C182.769 259.373 181.653 258.258 180.288 258.258ZM170.707 258.723L133.98 237.528L133.84 237.776C133.887 237.311 133.933 236.862 133.98 236.428L172.475 258.258H172.165C171.622 258.258 171.126 258.428 170.723 258.723H170.707Z" fill="#2B2B2A"/>
<path d="M511.828 314.917L299.2 315.94L299.014 316.59C298.967 316.776 293.618 328.087 283.51 346.895C267.325 376.968 249.558 386.853 237.14 389.874L242.039 390.137C253.48 387.039 269.371 376.89 285.076 347.701C294.208 330.736 298.037 322.013 300.517 317.722L511.813 315.816V314.933L511.828 314.917Z" fill="#6D6E71"/>
<path d="M587.965 426.097C332.144 426.097 351.151 403.694 351.151 403.694V318.667C351.151 318.667 373.337 330.426 587.965 332.703V426.097Z" fill="#969FAB"/>
<path d="M-130.399 295.132L107.298 305.961L107.577 313.104L-130.399 304.118V295.132Z" fill="#BBC7D3"/>
<path d="M-67.2698 140.943C-67.2698 140.943 -52.0455 145.575 -40.7745 144.692C-29.5191 143.809 -26.868 144.909 -16.9303 144.801C-6.99264 144.692 7.34798 144.491 22.3552 144.801C37.3625 145.126 49.7187 144.801 49.7187 144.801C49.7187 144.801 37.7966 136.512 29.6263 137.395C21.4561 138.278 17.7042 139.254 15.9368 137.333C14.1695 135.412 11.3013 131.662 4.89843 131.229C-1.50447 130.795 -4.15554 134.312 -4.15554 134.312C-4.15554 134.312 -5.47333 124.613 -18.2791 124.613C-31.0849 124.613 -31.7516 131.446 -31.7516 131.446C-31.7516 131.446 -38.3715 129.679 -44.5573 132.763C-50.7432 135.846 -50.2936 136.078 -54.495 135.846C-58.6964 135.629 -63.9831 135.412 -67.3008 136.512C-70.6185 137.612 -73.2541 139.161 -75.6881 139.378C-78.1221 139.595 -77.4555 141.361 -75.6881 141.361C-73.9207 141.361 -67.3008 140.927 -67.3008 140.927L-67.2698 140.943Z" fill="white"/>
<path d="M163.266 122.49C163.266 122.49 172.878 125.418 179.994 124.861C187.11 124.303 188.769 125 195.048 124.938C201.327 124.861 210.381 124.737 219.853 124.938C229.326 125.14 237.14 124.938 237.14 124.938C237.14 124.938 229.62 119.701 224.458 120.259C219.295 120.817 216.939 121.437 215.823 120.213C214.706 118.989 212.892 116.634 208.861 116.355C204.815 116.076 203.141 118.307 203.141 118.307C203.141 118.307 202.304 112.172 194.226 112.172C186.149 112.172 185.73 116.494 185.73 116.494C185.73 116.494 181.545 115.379 177.653 117.331C173.762 119.283 174.025 119.423 171.374 119.283C168.723 119.144 165.375 119.004 163.297 119.701C161.22 120.399 159.53 121.375 157.995 121.514C156.46 121.654 156.879 122.769 157.995 122.769C159.111 122.769 163.297 122.49 163.297 122.49H163.266Z" fill="white"/>
<path d="M354.857 148.643C354.857 148.643 364.004 151.432 370.763 150.89C377.523 150.363 379.12 151.029 385.088 150.952C391.057 150.89 399.677 150.766 408.685 150.952C417.692 151.137 425.118 150.952 425.118 150.952C425.118 150.952 417.956 145.978 413.057 146.505C408.158 147.032 405.894 147.62 404.84 146.458C403.786 145.296 402.049 143.05 398.204 142.787C394.36 142.523 392.763 144.646 392.763 144.646C392.763 144.646 391.972 138.82 384.282 138.82C376.593 138.82 376.19 142.926 376.19 142.926C376.19 142.926 372.205 141.872 368.5 143.716C364.795 145.575 365.058 145.699 362.531 145.575C360.004 145.451 356.826 145.312 354.841 145.978C352.857 146.644 351.26 147.574 349.803 147.698C348.345 147.837 348.749 148.891 349.803 148.891C350.857 148.891 354.841 148.628 354.841 148.628L354.857 148.643Z" fill="white"/>
<path opacity="0.55" d="M32.2156 104.889C32.2156 104.889 42.6028 108.05 50.277 107.446C57.9511 106.842 59.7495 107.601 66.5245 107.523C73.2995 107.446 83.0821 107.306 93.3144 107.523C103.547 107.74 111.98 107.523 111.98 107.523C111.98 107.523 103.857 101.884 98.2909 102.472C92.7252 103.077 90.1672 103.743 88.9579 102.426C87.7486 101.109 85.7952 98.5682 81.4388 98.2583C77.0823 97.9484 75.2684 100.365 75.2684 100.365C75.2684 100.365 74.3692 93.7498 65.6408 93.7498C56.9124 93.7498 56.4628 98.4133 56.4628 98.4133C56.4628 98.4133 51.9513 97.2048 47.7344 99.3119C43.5175 101.419 43.8276 101.574 40.9595 101.419C38.1068 101.264 34.4945 101.125 32.231 101.868C29.9676 102.612 28.1692 103.665 26.5103 103.82C24.8514 103.975 25.301 105.168 26.5103 105.168C27.7196 105.168 32.231 104.874 32.231 104.874L32.2156 104.889Z" fill="white"/>
<path opacity="0.55" d="M301.122 99.0023C301.122 99.0023 307.54 100.954 312.284 100.583C317.028 100.211 318.144 100.676 322.33 100.629C326.516 100.583 332.562 100.49 338.888 100.629C345.213 100.769 350.422 100.629 350.422 100.629C350.422 100.629 345.399 97.1431 341.957 97.515C338.516 97.8868 336.934 98.2896 336.19 97.484C335.446 96.6783 334.237 95.098 331.539 94.9121C328.842 94.7261 327.725 96.2135 327.725 96.2135C327.725 96.2135 327.167 92.1233 321.772 92.1233C316.377 92.1233 316.098 95.005 316.098 95.005C316.098 95.005 313.307 94.2614 310.703 95.5628C308.098 96.8642 308.284 96.9572 306.517 96.8642C304.749 96.7713 302.517 96.6783 301.122 97.1431C299.726 97.6079 298.61 98.2586 297.587 98.3516C296.564 98.4445 296.843 99.1882 297.587 99.1882C298.331 99.1882 301.122 99.0023 301.122 99.0023Z" fill="white"/>
<path d="M351.151 318.666C351.151 318.666 373.337 330.426 587.965 332.703V315.862L351.151 318.666Z" fill="#EBF1FA"/>
<path d="M491.1 275.657L463.861 252.99C461.721 251.286 458.683 250.217 455.272 250.186L436.048 250.093L438.838 252.355L455.272 252.432C458.047 252.463 460.559 253.316 462.326 254.648H462.342C463.923 255.857 464.9 257.468 464.9 259.234V319.735H471.814L494.914 318.821L495.24 283.404C495.271 280.274 493.72 277.377 491.116 275.641L491.1 275.657Z" fill="#634E42"/>
<path d="M493.659 318.666H461.83V320.696H493.659V318.666Z" fill="#838D97"/>
<path d="M464.869 318.249L461.83 318.667H464.869V318.249Z" fill="#A2AEBE"/>
<path d="M464.869 259.25C464.869 257.499 463.892 255.888 462.311 254.664H462.295C460.543 253.331 458.032 252.479 455.241 252.448L438.808 252.371L464.869 273.426V259.265V259.25Z" fill="#231B16"/>
</g>
</g>
<path d="M62.7034 37.6507C61.7461 39.4264 60.557 41.0014 59.1364 42.3448C61.6225 43.6418 64.1703 44.5992 66.7644 45.1551L65.3129 47.6257C62.2864 46.7146 59.5225 45.5257 57.0365 44.0279C54.6122 45.6029 51.7557 46.7918 48.4204 47.6257L47.1387 45.0933C50.1034 44.4448 52.5893 43.5338 54.6276 42.3757C53.1143 41.1867 51.771 39.8742 50.5975 38.4227L52.6358 36.9095C53.8093 38.4228 55.168 39.7507 56.7739 40.8933C58.1636 39.7198 59.3063 38.3455 60.2636 36.7397L62.7034 37.6661V37.6507ZM58.1327 28V30.1154H66.0695V32.4934H61.6997C62.3637 33.1419 63.0585 33.7287 63.7997 34.2073C64.5717 34.7323 65.3283 35.1338 66.0695 35.4426L64.649 37.975C63.7998 37.5426 62.9813 37.0176 62.2092 36.3691C61.2519 35.6279 60.3872 34.825 59.5997 33.9294L61.3137 32.5088H52.7283L54.3497 33.8522C53.6858 34.6706 52.852 35.5044 51.8792 36.2764C50.7983 37.0794 49.8101 37.6816 48.9453 38.0676L47.602 35.7051C48.3432 35.3963 49.2079 34.9022 50.1498 34.2073C50.9219 33.6669 51.6011 33.111 52.157 32.4934H47.5865V30.1154H55.446V28H58.1482H58.1327Z" fill="#595757"/>
<path d="M73.6666 36.7242V43.7345C74.5776 44.5065 75.6122 44.9698 76.8012 45.0779C77.6813 45.2477 79.874 45.3404 83.3791 45.3404C85.3865 45.3404 87.1004 45.2168 88.5209 44.9235C88.0731 45.7418 87.7024 46.6683 87.4399 47.7183H81.1091C78.8239 47.7183 76.971 47.5176 75.5967 47.1624C74.6085 46.8536 73.6048 46.2977 72.6474 45.433C71.8291 46.1896 71.0262 46.9463 70.2078 47.7337C69.6828 46.8536 69.1423 46.0198 68.5864 45.2632C69.4666 44.9235 70.3621 44.5683 71.2268 44.1823V39.1022H68.9415V36.7397H73.6821L73.6666 36.7242ZM73.8519 34.4235L72.2305 36.3691C71.3195 35.3809 70.3776 34.5316 69.3739 33.8368L70.9799 32.1537C72.0144 32.8022 72.9872 33.5588 73.8519 34.4235ZM73.929 30.2081L72.3078 32.1537C71.3968 31.1963 70.4549 30.3779 69.4512 29.714L71.057 28C72.0915 28.6331 73.0643 29.3588 73.929 30.2081ZM87.4554 28.4324V30.1154C86.3128 31.0882 85.0929 31.9375 83.7959 32.6478H87.5172V41.6036C87.5172 43.3485 86.6062 44.2132 84.815 44.2132C84.3364 44.2132 83.8267 44.1977 83.2091 44.1514L82.7924 41.8661C83.5335 42.036 84.1974 42.1286 84.7996 42.1286C85.0775 42.1286 85.232 41.8044 85.232 41.1095V41.0169H82.36V44.0588H80.0902V41.0169H77.2952V44.3058H75.01V32.6478H78.9473C78.4532 32.2 77.9284 31.7367 77.388 31.3044L78.5151 30.5478H75.2725V28.4324H87.4554ZM80.0902 35.875V34.8559H77.2952V35.875H80.0902ZM80.0902 38.9941V37.9132H77.2952V38.9941H80.0902ZM81.063 31.9838C81.974 31.536 82.7923 31.0573 83.549 30.5632H79.6269C80.1518 31.0419 80.6151 31.5206 81.0475 31.9838H81.063ZM85.2474 35.875V34.8559H82.3754V35.875H85.2474ZM85.2474 38.9941V37.9132H82.3754V38.9941H85.2474Z" fill="#595757"/>
<path d="M101.368 28.1702V30.7025H109.567V33.2503H98.3261C98.3261 34.0532 98.3106 34.7944 98.2797 35.4429H107.884C107.884 42.0208 107.544 45.6341 106.85 46.2826C106.294 47.0546 105.336 47.4561 103.993 47.4561C103.036 47.4561 101.924 47.3943 100.611 47.2863L100.025 44.6613C101.445 44.8311 102.68 44.9238 103.73 44.9238C104.209 44.9238 104.549 44.7076 104.75 44.2752C104.966 43.7811 105.136 41.6503 105.275 37.9135H98.1408C98.0327 38.9326 97.9092 39.7819 97.7702 40.4459C97.2916 42.2216 96.5812 43.6885 95.6239 44.8157C94.6666 45.8965 93.5085 46.8076 92.1651 47.5333L90.9143 45.248C92.0415 44.615 92.968 43.8429 93.7092 42.8855C94.4041 41.9745 94.8982 40.9245 95.2379 39.6892C95.5776 38.3922 95.7628 36.2459 95.7937 33.2657H90.729V30.718H98.7585V28.1856H101.383L101.368 28.1702Z" fill="#595757"/>
<path d="M122.662 31.4899C122.6 30.4245 122.569 29.3282 122.569 28.1855H125.179C125.179 29.3745 125.194 30.4863 125.24 31.4899H127.124C126.908 30.7951 126.646 30.1002 126.352 29.4517L128.73 28.2628C129.178 29.0039 129.579 29.8223 129.903 30.7024L128.298 31.4745H131.17V33.9142H125.379C125.487 35.3193 125.642 36.5546 125.858 37.6355C126.352 40.1833 126.954 42.1597 127.68 43.5803C128.112 44.4759 128.483 44.8928 128.745 44.8928C128.869 44.8928 128.962 44.7847 129.023 44.5686C129.116 44.2906 129.224 43.4877 129.332 42.1906L131.54 43.9664C131.216 45.6958 130.737 46.7766 130.135 47.1627C129.826 47.4406 129.378 47.595 128.745 47.595C127.927 47.595 127.124 46.9465 126.306 45.6958C125.318 44.1362 124.468 41.9744 123.773 39.2259C123.341 37.6201 123.032 35.8598 122.862 33.8987H112.27V31.4591H122.677L122.662 31.4899ZM122.229 36.5546V38.9171H119.033V43.5649C120.485 43.4413 121.797 43.3024 122.986 43.148L123.326 45.4178C120.129 45.8965 116.578 46.2825 112.687 46.6068L112.254 44.0744C113.768 43.9818 115.219 43.9046 116.563 43.7656V38.9017H113.274V36.5392H122.229V36.5546Z" fill="#595757"/>
<path d="M151.027 28.5251V38.5773H144.51V40.2604H152.879V42.6229H144.51V47.6258H141.978V42.6229H133.779V40.2604H141.978V38.5773H135.647V28.5251H151.027ZM148.587 32.4163V30.8722H138.102V32.4163H148.587ZM148.587 36.1994V34.5935H138.102V36.1994H148.587Z" fill="#595757"/>
<path d="M172.644 28.5251V38.5773H166.128V40.2604H174.497V42.6229H166.128V47.6258H163.595V42.6229H155.396V40.2604H163.595V38.5773H157.264V28.5251H172.644ZM170.204 32.4163V30.8722H159.72V32.4163H170.204ZM170.204 36.1994V34.5935H159.72V36.1994H170.204Z" fill="#595757"/>
<path d="M182.558 36.3694C183.052 35.2885 183.484 34.1613 183.87 32.9878L186.402 33.8371C186.094 34.7172 185.769 35.5665 185.445 36.3694H195.852V38.8091H191.961C191.529 40.3686 190.88 41.6657 189.969 42.7466C192.085 43.5649 194.015 44.4142 195.76 45.3252L194.154 47.7032C192.255 46.6223 190.108 45.6341 187.777 44.723C185.445 46.1899 182.31 47.2091 178.373 47.7958L177.277 45.4179C180.257 45.0319 182.727 44.4297 184.627 43.5804C183.762 43.3025 182.882 43.0245 181.986 42.7311C181.77 43.04 181.569 43.287 181.4 43.5495L179.037 42.2061C179.855 41.1253 180.612 39.998 181.291 38.8091H177.261V36.3694H182.542H182.558ZM187.838 28.1702V30.1158H195.605V34.7635H193.073V32.5555H180.072V34.7635H177.539V30.1158H185.213V28.1702H187.838ZM189.29 38.8245H184.364C184.04 39.4576 183.716 40.0444 183.391 40.6003C184.796 41.0172 186.14 41.4186 187.437 41.851C188.255 41.048 188.888 40.0289 189.29 38.8245Z" fill="#595757"/>
<path d="M200.592 31.3974V28.1702H202.954V31.3974H204.576V33.7599H202.954V37.0952C203.433 36.9253 203.881 36.7555 204.313 36.5547L204.637 38.593C204.082 38.9018 203.51 39.1952 202.954 39.4731V44.6613C202.954 45.804 202.785 46.5915 202.46 46.9929C202.074 47.4716 201.364 47.7032 200.345 47.7032C199.789 47.7032 199.249 47.6415 198.739 47.5334L198.307 45.1554C198.863 45.3253 199.449 45.4179 200.021 45.4179C200.237 45.4179 200.407 45.3253 200.499 45.1554C200.561 44.9238 200.607 44.5532 200.607 44.0746V40.4768C200.129 40.6775 199.65 40.8474 199.187 41.0172L198.322 38.5775C199.094 38.3614 199.882 38.1452 200.607 37.9136V33.7599H198.492V31.3974H200.607H200.592ZM210.552 28.1702V36.7091C210.552 39.1025 210.212 41.2952 209.563 43.2562C208.961 45.0782 208.204 46.5297 207.278 47.6878L205.163 46.0665C206.12 44.8929 206.83 43.5804 207.34 42.1135C206.49 42.4224 205.626 42.7003 204.73 42.9628L203.881 40.5231C205.348 40.2143 206.707 39.89 207.973 39.504C208.065 38.979 208.127 38.4694 208.174 37.8981H205.163V35.5202H208.22V33.482H205.085V31.1195H208.22V28.1548H210.582L210.552 28.1702ZM214.273 28.1702V31.1349H217.562V33.4974H214.273V35.5356H217.562V37.9136H214.273V40.2761H217.901V42.6385H214.273V47.7187H211.802V28.1857H214.273V28.1702Z" fill="#595757"/>
<path d="M228.911 41.6346L228.093 40.2294C228.741 39.967 229.328 39.5192 229.838 38.8243H228.263V35.7361H231.567V37.8978C231.567 39.4728 230.687 40.7235 228.911 41.6346Z" fill="#595757"/>
<path d="M250.576 28.3551V36.7859L252.351 37.3109C252.197 37.697 252.043 38.0212 251.919 38.33H258.868V47.7182H256.505V47.116H246.36V47.7182H243.998V38.33H249.248C249.34 38.0675 249.402 37.8359 249.464 37.5734H248.29V35.2418C247.874 35.5661 247.441 35.8749 247.009 36.1683C245.604 37.0793 244.353 37.7278 243.226 38.1602L242.129 36.2146C243.118 35.844 244.276 35.2573 245.573 34.4852C246.638 33.8367 247.534 33.1727 248.306 32.4779V31.397C247.765 31.8757 247.21 32.3234 246.592 32.7558C245.295 33.6205 244.106 34.269 243.071 34.7014L241.975 32.7558C242.902 32.4161 243.967 31.8293 245.156 31.0418C245.387 30.8874 245.635 30.733 245.851 30.5632H242.237V28.3551H250.591H250.576ZM256.505 41.6036V40.6153H246.36V41.6036H256.505ZM256.505 44.9234V43.8271H246.36V44.9234H256.505ZM251.441 30.6404V28.2625H260.041V37.6506H257.756V35.0102C257.37 35.319 256.953 35.6124 256.52 35.8903C255.177 36.755 253.942 37.3881 252.861 37.8205L251.765 35.8749C252.737 35.5352 253.834 34.9639 255.069 34.1918C256.104 33.5433 257.015 32.8948 257.756 32.2308V31.258C257.154 31.7984 256.459 32.3234 255.718 32.8021C254.328 33.6668 253.108 34.2999 252.012 34.7014L250.916 32.7558C251.888 32.4161 253.015 31.8448 254.266 31.0882C254.498 30.9646 254.714 30.8102 254.93 30.6558H251.425L251.441 30.6404Z" fill="#595757"/>
<path d="M281.875 30.9647H282.94V32.7404H281.751L281.581 35.211H270.464C270.51 35.3808 270.557 35.5198 270.587 35.6278L268.549 36.4771C268.426 35.983 268.271 35.5043 268.132 35.0256V47.641H265.77V34.7323C265.569 36.122 265.291 37.3881 264.92 38.608L262.882 37.5889C263.407 35.7205 263.747 33.8676 263.901 32.0146L265.754 32.4624V28.2007H268.117V32.4624L269.136 32.0146C269.615 32.9874 270.047 34.022 270.417 35.1492L270.726 32.7713H269.553V30.9955H270.943L271.251 28.5558H282.06L281.859 30.9955L281.875 30.9647ZM281.921 35.7977V45.016H280.238C280.362 45.0624 280.501 45.1087 280.624 45.1241C281.365 45.3403 282.122 45.4947 282.848 45.6028L281.566 47.8109C280.809 47.5947 280.068 47.3322 279.358 47.0388C278.509 46.6682 277.736 46.2822 276.995 45.8653L277.798 45.016H273.861L274.88 46.3594C273.49 46.9616 271.946 47.4403 270.248 47.8109L269.151 45.7727C270.186 45.6028 271.205 45.3403 272.24 45.016H270.402V35.7977H281.906H281.921ZM279.543 38.33V37.7433H272.795V38.33H279.543ZM279.543 40.6153V40.0903H272.795V40.6153H279.543ZM279.543 43.055V42.3911H272.795V43.055H279.543ZM275.019 32.7404H272.904L272.811 33.4043H274.911L275.019 32.7404ZM273.166 30.9647H275.312L275.42 30.3007H273.259L273.166 30.9647ZM277.212 32.7404L277.104 33.4043H279.389L279.451 32.7404H277.196H277.212ZM277.49 30.9647H279.651L279.713 30.3007H277.598L277.49 30.9647Z" fill="#595757"/>
<path d="M287.31 31.5672V28.1702H289.75V31.5672H291.865V33.9297H289.75V37.126C290.275 36.9716 290.784 36.8018 291.263 36.6319L291.603 38.7473C291 39.0562 290.367 39.3032 289.75 39.5657V44.3833C289.75 45.6341 289.58 46.4524 289.256 46.9157C288.823 47.4407 288.082 47.6877 287.047 47.6877C286.445 47.6877 285.874 47.626 285.364 47.5179L284.932 44.9855C285.519 45.1554 286.106 45.2172 286.708 45.2172C286.939 45.2172 287.094 45.1245 287.187 44.9392C287.279 44.7076 287.31 44.3061 287.31 43.7966V40.4613C286.754 40.662 286.183 40.8319 285.627 41.0017L284.762 38.4694C285.627 38.2687 286.492 38.0525 287.31 37.8363V33.8988H284.932V31.5363H287.31V31.5672ZM304.465 37.2187V39.4267H299.462V40.7701H303.353V42.9782H299.462V44.8774C300.311 44.9701 301.284 45.001 302.381 45.001C303.029 45.001 303.724 44.9547 304.45 44.8311L303.678 47.3635H302.381C299.509 47.3635 297.47 47.1318 296.266 46.6532C295.417 46.3752 294.737 46.0201 294.166 45.6186C293.733 46.3907 293.239 47.0855 292.714 47.7186L290.939 46.0355C291.68 45.1554 292.236 44.2444 292.668 43.3333C293.1 42.3451 293.378 41.2797 293.548 40.1062L295.725 40.6311C295.602 41.6503 295.401 42.5922 295.092 43.4723C295.54 43.812 296.05 44.1054 296.606 44.3216C296.729 44.3833 296.868 44.4297 296.992 44.476V39.4576H292.081V37.2495H304.434L304.465 37.2187ZM302.844 28.5253V36.4621H293.039V28.5253H302.844ZM300.497 31.49V30.6408H295.432V31.49H300.497ZM300.497 34.3466V33.4202H295.432V34.3466H300.497Z" fill="#595757"/>
<path d="M323.967 28.5251V38.5773H317.45V40.2604H325.819V42.6229H317.45V47.6258H314.918V42.6229H306.719V40.2604H314.918V38.5773H308.587V28.5251H323.967ZM321.527 32.4163V30.8722H311.042V32.4163H321.527ZM321.527 36.1994V34.5935H311.042V36.1994H321.527Z" fill="#595757"/>
<path d="M332.568 29.5443V35.0414H336.721V28.1855H339.161V35.0414H343.315V29.637H345.754V37.3112H339.161V44.2288H344.303V38.8245H346.773V47.6259H344.303V46.6068H331.564V47.7031H329.093V38.809H331.564V44.2134H336.706V37.2958H330.112V29.5289H332.552L332.568 29.5443Z" fill="#595757"/>
<path d="M354.85 32.6171C355.699 32.0304 356.455 31.3818 357.104 30.6561H350.804V28.448H360.285V29.2664C360.671 29.5752 361.057 29.8532 361.458 30.0848C362.431 29.6061 363.342 28.9576 364.161 28.1855L365.936 29.637C365.226 30.3319 364.439 30.9341 363.605 31.4591C363.944 31.6752 364.315 31.8914 364.686 32.0613C365.535 31.5671 366.307 30.9186 367.048 30.1311L368.994 31.6443C368.392 32.2465 367.758 32.787 367.094 33.2193C367.944 33.6054 368.762 33.9296 369.58 34.1921L368.33 36.462C367.465 36.1377 366.616 35.7671 365.797 35.3348V36.0451C365.797 36.5855 365.844 36.9098 365.967 37.0024C366.029 37.0487 366.122 37.0487 366.245 37.0487C366.307 37.0487 366.4 37.0487 366.477 37.0333C366.539 37.0333 366.6 37.0179 366.647 36.9715C366.693 36.8789 366.739 36.6473 366.77 36.2149L369.055 37.3112C368.963 38.2223 368.716 38.7781 368.237 38.9943C368.006 39.1024 367.743 39.1642 367.434 39.2105C367.002 39.2568 366.585 39.2568 366.23 39.2568C365.195 39.2568 364.547 39.1487 364.3 38.9171C363.697 38.809 363.389 38.0524 363.389 36.6473V36.0605H361.814C361.69 37.1259 361.428 37.898 361.042 38.3767C360.702 38.9017 360.13 39.3031 359.405 39.612H368.144V41.295C367.48 42.5766 366.693 43.6112 365.828 44.3832C366.786 44.723 367.882 44.9855 369.164 45.1553L368.237 47.6259C366.415 47.3171 364.855 46.8075 363.528 46.0509C362.169 46.7921 360.625 47.3479 358.942 47.7185L357.753 45.5105C359.173 45.2788 360.408 44.9237 361.474 44.4913C360.733 43.7502 360.084 42.8391 359.528 41.7892H358.54V39.5965H358.957L358.031 37.8826V39.9208H353.46L353.306 41.0171H358.278C358.077 44.0436 357.675 45.9119 357.042 46.6377C356.486 47.2862 355.683 47.6105 354.649 47.6105C353.985 47.6105 353.228 47.5178 352.364 47.348L351.777 44.8156C352.75 44.9854 353.568 45.0781 354.216 45.0781C354.711 45.0781 355.066 44.9854 355.282 44.8156C355.591 44.5994 355.807 44.059 355.93 43.2097H353.027L352.966 43.6266H350.588L351.283 37.7281H355.668V36.3693H353.553V35.937C352.472 36.462 351.391 36.8171 350.356 37.0333L349.6 35.1032C350.588 34.8407 351.545 34.4701 352.503 34.0068C352.086 33.5745 351.653 33.1576 351.206 32.7252L353.383 31.212C353.908 31.6443 354.402 32.0921 354.896 32.6017L354.85 32.6171ZM359.05 36.6782C359.358 36.2458 359.497 35.3193 359.528 33.837H363.157C361.875 33.0804 360.686 32.2774 359.59 31.4127C358.555 32.5399 357.536 33.4509 356.502 34.1767H358V37.4656C358.447 37.2958 358.803 37.0178 359.065 36.6627L359.05 36.6782ZM363.651 43.2715C364.253 42.8391 364.778 42.345 365.211 41.7737H362.092C362.57 42.3759 363.08 42.87 363.651 43.2715Z" fill="#595757"/>
<path d="M380.234 41.6346L379.416 40.2294C380.064 39.967 380.651 39.5192 381.16 38.8243H379.585V35.7361H382.89V37.8978C382.89 39.4728 382.01 40.7235 380.234 41.6346Z" fill="#595757"/>
<path d="M398.347 28.1702V31.2275H400.895V32.9723C401.203 32.4782 401.45 31.9533 401.698 31.3974C402.223 30.2702 402.624 29.1893 402.902 28.1702L405.28 28.865C405.126 29.3591 404.971 29.8378 404.801 30.2856H411.765V32.5555H403.875L403.828 32.6481C403.489 33.3893 403.118 34.0532 402.763 34.64C403.674 34.5165 404.77 34.3003 406.052 33.9915C407.256 33.7135 408.384 33.3429 409.403 32.9106L411.441 34.9488C410.36 35.2885 409.264 35.5819 408.106 35.8135C408.229 36.9407 408.414 37.9598 408.631 38.8245C409.341 38.3767 409.989 37.8363 410.592 37.2187L412.198 38.9944C411.225 39.8128 410.252 40.4613 409.295 40.9863C409.31 41.0789 409.341 41.1407 409.387 41.187C409.974 42.6848 411.07 44.2135 412.692 45.773L411.086 47.7186C409.264 45.9892 408.028 44.2135 407.364 42.376C406.716 40.801 406.237 38.7628 405.944 36.2613C405.527 36.354 405.141 36.3848 404.755 36.4312V44.3679C405.558 44.1672 406.315 43.951 407.04 43.7348L407.457 45.8502C405.82 46.4833 403.967 47.0392 401.96 47.5333L401.111 45.1554C401.543 45.0627 401.976 44.9855 402.393 44.8929V35.2268C402.223 35.5047 402.053 35.7518 401.867 35.9679L399.937 34.4393C400.138 34.1768 400.323 33.8988 400.524 33.59H397.328V35.4584H401.034C400.987 41.6811 400.648 45.3561 400.045 46.4679C399.613 47.1782 398.98 47.5488 398.192 47.5488C397.652 47.5488 397.096 47.487 396.478 47.3789L395.923 44.9547C395.552 46.0355 395.15 46.9465 394.718 47.7186L392.618 46.0973C393.39 44.5841 393.977 42.901 394.363 41.0326C394.703 39.2106 394.888 37.3267 394.888 35.3657V33.59H393.02V31.2275H395.815V28.1702H398.347ZM397.76 45.001C398.069 45.001 398.239 44.8002 398.285 44.4142C398.44 43.4569 398.563 41.2797 398.702 37.8209H397.281C397.158 39.5966 396.911 41.2179 396.571 42.7311C396.401 43.5032 396.201 44.198 395.984 44.8311C396.587 44.9547 397.173 45.001 397.776 45.001H397.76Z" fill="#595757"/>
<path d="M423.006 30.0383C422.141 30.4553 421.23 30.8104 420.304 31.1347V34.0067H422.928V36.3692H420.304V36.5236C421.431 37.5427 422.419 38.531 423.268 39.5037L421.739 41.6037C421.261 40.8626 420.782 40.1986 420.319 39.5964V47.6258H417.879V40.5074C417.292 41.6809 416.629 42.7618 415.841 43.7346L414.42 41.9589C415.069 41.2177 415.764 40.1677 416.49 38.8089C416.922 38.0368 417.308 37.2339 417.632 36.3846H414.915V34.0222H417.879V31.9222C417.231 32.1229 416.582 32.2927 415.934 32.4163L414.745 30.2082C417.015 29.7758 419.315 29.0656 421.601 28.0928L423.021 30.0383H423.006ZM433.83 38.2376C432.533 38.4383 431.174 38.6082 429.784 38.778V40.7699H433.475V43.0706H429.784V45.1089H434V47.3787H422.573V45.1089H427.314V43.0706H423.361V40.7699H427.314V39.0405C426.125 39.164 424.92 39.2567 423.685 39.3493L422.836 37.0486C426.403 36.8324 429.692 36.4927 432.718 36.0604L433.815 38.2376H433.83ZM433.475 28.5251V35.3655H423.438V28.5251H433.475ZM431.035 33.0802V30.795H425.893V33.0802H431.035Z" fill="#595757"/>
<path d="M51.3852 59.6389V57.5234H53.825V59.6389H56.6971V61.9087H53.825V64.0241H56.944V66.3094H53.7478V68.2396H56.5427V70.5248H53.7478V73.5976C54.2882 73.7984 54.875 73.9219 55.4926 73.9682C57.1294 74.1689 59.3683 74.2462 62.1785 74.2462C63.9697 74.2462 65.5602 74.1535 66.9191 73.9837L66.1625 76.6858H62.1785C58.9822 76.6858 56.5271 76.5623 54.8749 76.3461C53.5161 76.13 52.3425 75.7594 51.3543 75.2035C50.8602 74.9256 50.397 74.5704 49.9955 74.1844C49.7793 75.2498 49.4706 76.1917 49.1154 77.041L47 75.7594C47.4169 74.8483 47.7412 73.7675 47.9573 72.5322C48.189 71.1888 48.328 69.3976 48.3743 67.1432H50.6441C50.6441 68.7028 50.5823 70.077 50.4433 71.2969C50.7522 71.6829 51.0764 72.0072 51.4161 72.2697V66.294H47.5249V64.0087H51.4161V61.8933H48.0192V59.6234H51.4161L51.3852 59.6389ZM65.8381 67.1587H63.4603V66.6337H60.0015V70.2623C60.0015 70.7873 60.1248 71.0344 60.4182 71.0344C60.6807 71.0807 61.2367 71.0962 62.086 71.0962C62.8272 71.0962 63.2595 71.0807 63.3984 70.9881C63.5683 70.9418 63.769 70.8954 63.9388 70.8337C64.0469 70.741 64.1397 70.1388 64.2169 68.9962L66.5947 69.9844C66.4248 71.5131 66.1778 72.455 65.8844 72.7947C65.5602 73.0572 64.9271 73.227 63.9852 73.2888C63.5065 73.3351 62.8889 73.3505 62.086 73.3814C60.1404 73.3814 59.1213 73.366 59.0287 73.2734C58.1022 73.227 57.6389 72.4087 57.6389 70.7719V58.419H65.8381V67.1432V67.1587ZM59.986 64.5491H63.4448V60.7506H59.986V64.5491Z" fill="#595757"/>
<path d="M80.9395 57.4309V59.4691H86.2668V61.8471H80.9395V63.6845H87.8571V66.0625H80.5071V69.1816C80.5071 69.8764 80.4454 70.4632 80.3373 70.8955C81.7579 69.9845 83.0704 68.8264 84.2285 67.4058L86.6681 68.1625C85.1085 70.2779 83.1784 72.0073 80.8931 73.3815C78.3454 74.8948 75.2881 76.1146 71.7212 77.0565L70.5322 74.8485C73.1726 74.1845 75.458 73.397 77.3882 72.486C76.6933 72.486 76.0448 72.3316 75.4426 72.0536L75.0102 69.5213C75.705 69.861 76.4153 70.0154 77.1256 70.0154C77.4962 70.0154 77.7587 69.9228 77.8822 69.7375C77.9903 69.5059 78.052 69.1044 78.052 68.5948V66.0625H69.5903V63.6845H73.1419V59.1449H75.5197V63.6845H78.4844V57.4309H80.924H80.9395ZM75.8593 67.8382C74.6858 69.5213 73.3116 70.8492 71.7212 71.7911L69.9454 69.7838C71.6131 68.7956 72.9102 67.6838 73.8366 66.4794L75.8441 67.8382H75.8593Z" fill="#595757"/>
<path d="M109.475 57.7706V60.1331H101.276V61.1522H108.456V70.108H101.152C100.982 71.2506 100.627 72.208 100.118 72.9801C101.152 73.3661 102.326 73.6749 103.623 73.9065C105.368 74.2462 107.452 74.447 109.83 74.4933L109.228 76.8712C106.572 76.7786 104.318 76.547 102.48 76.1301C100.905 75.7595 99.4999 75.3117 98.2646 74.7867C96.6279 75.8212 94.2345 76.5624 91.1463 76.9484L90.4824 74.5705C92.7059 74.3389 94.4353 73.9374 95.6552 73.3815C94.8522 72.8565 94.1419 72.3161 93.5397 71.7139L95.5779 70.3551C96.2264 70.9573 96.9367 71.4514 97.7551 71.8837C98.1411 71.3896 98.4192 70.7874 98.6045 70.0926H91.9493V61.1367H98.7897V60.1176H90.7603V57.7551H109.506L109.475 57.7706ZM98.7434 64.4566V63.4375H94.4352V64.4566H98.7434ZM98.7434 67.8382V66.6492H94.4352V67.8382H98.7434ZM101.276 64.4566H105.924V63.4375H101.276V64.4566ZM101.276 67.8382H105.924V66.6492H101.276V67.8382Z" fill="#595757"/>
<path d="M117.705 65.7073C118.199 64.6264 118.631 63.4992 119.017 62.3257L121.549 63.175C121.241 64.0551 120.916 64.9044 120.592 65.7073H130.999V68.147H127.108C126.676 69.7065 126.027 71.0036 125.116 72.0845C127.232 72.9028 129.162 73.7521 130.907 74.6631L129.301 77.0411C127.402 75.9602 125.255 74.9719 122.924 74.0609C120.592 75.5278 117.457 76.5469 113.52 77.1337L112.424 74.7558C115.404 74.3698 117.874 73.7676 119.774 72.9183C118.909 72.6404 118.029 72.3624 117.133 72.069C116.917 72.3778 116.716 72.6249 116.547 72.8874L114.184 71.544C115.002 70.4632 115.759 69.3359 116.438 68.147H112.408V65.7073H117.689H117.705ZM122.985 57.5081V59.4537H130.752V64.1014H128.22V61.8933H115.219V64.1014H112.686V59.4537H120.36V57.5081H122.985ZM124.437 68.1624H119.511C119.187 68.7955 118.863 69.3823 118.538 69.9381C119.943 70.3551 121.287 70.7565 122.584 71.1889C123.402 70.3859 124.035 69.3668 124.437 68.1624Z" fill="#595757"/>
<path d="M137.763 64.7808C137.16 68.4557 136.465 71.5285 135.724 73.9991L133.285 72.7175C134.149 69.7682 134.813 66.8344 135.292 63.9315L137.763 64.7808ZM141.484 62.6808V72.98C141.484 73.5359 141.855 73.8447 142.627 73.8601C142.966 73.9065 143.445 73.9065 144.047 73.9065C145.437 73.9065 146.271 73.8601 146.533 73.752C146.811 73.5513 146.981 73.227 147.074 72.7947C147.166 72.5785 147.228 71.7601 147.29 70.355L149.822 71.7756C149.668 73.8447 149.343 75.1263 148.834 75.6513C148.494 75.8829 148.016 76.0682 147.413 76.1763C147.027 76.2844 145.9 76.3461 144.063 76.3461C143.198 76.3461 142.441 76.2998 141.746 76.2381C139.863 76.1917 138.936 75.3734 138.936 73.8138V62.6808H141.484ZM146.641 61.3219L144.696 63.6844C143.182 62.1249 141.607 60.7661 139.955 59.6389L141.808 57.7705C143.584 58.7896 145.19 59.9786 146.626 61.3219H146.641ZM153.296 71.7293L150.687 72.8101C150.1 69.83 149.374 67.1587 148.494 64.7808L150.764 63.6844C151.752 66.155 152.601 68.8263 153.296 71.7293Z" fill="#595757"/>
<path d="M166.993 69.2897C166.437 69.8456 165.742 70.139 164.955 70.139C164.167 70.139 163.488 69.861 162.917 69.2897C162.345 68.7184 162.067 68.0545 162.067 67.2515C162.067 66.4486 162.345 65.7846 162.917 65.2133C163.472 64.6574 164.152 64.364 164.955 64.364C165.758 64.364 166.422 64.642 166.993 65.2133C167.564 65.7846 167.842 66.464 167.842 67.2515C167.842 68.039 167.564 68.7184 166.993 69.2897ZM165.665 66.5566C165.464 66.3559 165.233 66.2478 164.97 66.2478C164.692 66.2478 164.445 66.3559 164.275 66.5566C164.059 66.7574 163.967 66.989 163.967 67.2515C163.967 67.5295 164.059 67.7765 164.275 67.9464C164.445 68.1625 164.692 68.2552 164.97 68.2552C165.233 68.2552 165.464 68.1625 165.665 67.9464C165.866 67.7765 165.974 67.5295 165.974 67.2515C165.974 66.989 165.866 66.7574 165.665 66.5566Z" fill="#595757"/>
<defs>
<linearGradient id="paint0_linear_34_254300" x1="239.992" y1="222.453" x2="239.992" y2="390.71" gradientUnits="userSpaceOnUse">
<stop stop-color="white"/>
<stop offset="1" stop-color="white" stop-opacity="0.6"/>
</linearGradient>
<linearGradient id="paint1_linear_34_254300" x1="148.119" y1="251.193" x2="148.119" y2="185.781" gradientUnits="userSpaceOnUse">
<stop offset="0.09" stop-color="white"/>
<stop offset="0.86" stop-color="white" stop-opacity="0.4"/>
</linearGradient>
<linearGradient id="paint2_linear_34_254300" x1="162.212" y1="250.294" x2="162.212" y2="184.603" gradientUnits="userSpaceOnUse">
<stop offset="0.09" stop-color="white"/>
<stop offset="0.86" stop-color="white" stop-opacity="0.4"/>
</linearGradient>
</defs>
</svg>
