<svg width="480" height="454" viewBox="0 0 480 454" fill="none" xmlns="http://www.w3.org/2000/svg">
<path opacity="0.8" d="M436.87 0H43.1304C19.3101 0 0 19.2976 0 43.1024V410.898C0 434.702 19.3101 454 43.1304 454H436.87C460.69 454 480 434.702 480 410.898V43.1024C480 19.2976 460.69 0 436.87 0Z" fill="url(#paint0_linear_86_62015)"/>
<mask id="mask0_86_62015" style="mask-type:luminance" maskUnits="userSpaceOnUse" x="18" y="97" width="447" height="341">
<path d="M18 97V397.846C18 419.932 36.0679 438 58.1543 438H424.745C446.832 438 464.899 419.932 464.899 397.846V97H18Z" fill="white"/>
</mask>
<g mask="url(#mask0_86_62015)">
<path d="M690.81 -363.295C919.821 -254.778 835.602 248.63 480.818 512.063C126.033 775.495 -467.31 801.554 -632.662 597.278C-798.014 393.002 -308.639 374.98 -130.499 186.623C47.6406 -1.73477 247.914 -573.178 690.795 -363.295H690.81Z" fill="#FDE9E4"/>
<path d="M149.208 95.5671L425.164 304.796C429.183 307.833 431.971 311.899 433.419 316.353C435.491 322.63 434.93 329.671 431.503 335.683C430.989 336.586 430.413 337.474 429.759 338.315L296.212 514.461C295.62 515.24 294.997 515.957 294.343 516.642C289.53 521.642 282.927 524.134 276.322 523.916C271.556 523.76 266.774 522.171 262.694 519.072L-13.2623 309.843C-17.4055 306.696 -20.2401 302.46 -21.6731 297.849C-23.1528 293.068 -23.1062 287.881 -21.4552 283.052C-20.6608 280.7 -19.4614 278.426 -17.8727 276.324L115.674 100.177C117.309 98.0124 119.256 96.1901 121.406 94.7571C125.642 91.9068 130.658 90.5361 135.673 90.723C140.408 90.8943 145.159 92.4675 149.224 95.5515L149.208 95.5671Z" fill="#7C546D"/>
<path d="M119.791 118.404L0.775621 275.372C-6.33952 284.756 -4.50018 298.131 4.88386 305.246L262.41 500.506C271.794 507.621 285.169 505.782 292.284 496.398L411.3 339.43C418.415 330.046 416.576 316.671 407.192 309.555L149.666 114.295C140.282 107.18 126.906 109.02 119.791 118.404Z" fill="#643D58"/>
<path d="M10.9893 241.294L-3.54296 230.282C-5.98835 228.428 -7.57687 225.718 -7.99741 222.665C-8.41796 219.612 -7.6237 216.591 -5.77019 214.13L59.0563 128.619C60.9098 126.173 63.6198 124.585 66.6727 124.164C69.7255 123.744 72.7472 124.538 75.2082 126.391L89.7405 137.404L10.9893 241.263V241.294ZM66.1585 129.086C64.8346 129.507 63.6666 130.332 62.7943 131.469L-2.03216 216.98C-3.13803 218.429 -3.60508 220.235 -3.35587 222.042C-3.10666 223.849 -2.17219 225.453 -0.708065 226.559L10.0858 234.736L83.1675 138.338L72.3733 130.161C70.9247 129.055 69.1179 128.588 67.3111 128.837C66.9217 128.884 66.5324 128.977 66.1585 129.102V129.086Z" fill="#42312F"/>
<path d="M-2.3438 259.751L-111.981 176.639C-116.311 173.352 -117.168 167.169 -113.882 162.839L-19.5395 38.404C-17.9508 36.3013 -15.6297 34.9618 -13.0286 34.5879C-10.4274 34.2297 -7.82636 34.9151 -5.73921 36.5038L103.898 119.616L-2.3594 259.751H-2.3438ZM-13.2624 39.4164C-14.2748 39.7435 -15.1469 40.351 -15.8011 41.2232L-110.144 165.658C-110.985 166.764 -111.327 168.119 -111.14 169.49C-110.953 170.86 -110.237 172.075 -109.147 172.901L-3.24694 253.194L97.341 120.519L-8.55852 40.2264C-9.6644 39.3853 -11.0194 39.0426 -12.3901 39.2295C-12.686 39.2763 -12.9821 39.3385 -13.2624 39.432V39.4164Z" fill="#42312F"/>
<path d="M431.83 363.221L423.403 374.326C421.238 377.192 417.329 378.111 414.105 376.507L404.572 371.756L424.26 345.792L431.409 353.688C433.824 356.352 433.995 360.355 431.83 363.221Z" fill="#42312F"/>
<path d="M318.361 -127.525L594.317 81.7046C598.335 84.7419 601.123 88.8072 602.572 93.2619C604.643 99.5389 604.083 106.579 600.656 112.591C600.142 113.495 599.566 114.383 598.911 115.224L465.365 291.37C464.773 292.149 464.15 292.865 463.496 293.55C458.683 298.55 452.079 301.042 445.475 300.824C440.708 300.669 435.927 299.08 431.846 295.98L155.89 86.7512C151.747 83.6049 148.912 79.3683 147.479 74.7579C145.999 69.9761 146.046 64.7894 147.697 59.9609C148.492 57.6089 149.691 55.3349 151.28 53.2321L284.826 -122.914C286.462 -125.079 288.409 -126.901 290.543 -128.334C294.779 -131.185 299.794 -132.555 304.81 -132.369C309.545 -132.197 314.296 -130.624 318.361 -127.54V-127.525Z" fill="#7C546D"/>
<path d="M580.362 116.252L461.347 273.224C454.229 282.616 440.85 284.454 431.473 277.336L173.943 82.0784C164.551 74.9603 162.713 61.5807 169.832 52.2041L288.846 -104.768C295.964 -114.161 309.344 -115.998 318.72 -108.88L576.25 86.3773C585.642 93.4955 587.48 106.875 580.362 116.252Z" fill="#643D58"/>
<path d="M191.797 111.259L182.471 123.558C181.053 125.43 181.419 128.097 183.291 129.516L210.943 150.483C212.815 151.902 215.482 151.535 216.901 149.663L226.227 137.363C227.646 135.492 227.279 132.825 225.408 131.406L197.755 110.439C195.884 109.02 193.216 109.387 191.797 111.259Z" fill="#42312F"/>
<path d="M370.131 246.462L360.805 258.762C359.387 260.634 359.753 263.301 361.625 264.72L389.277 285.687C391.149 287.105 393.816 286.739 395.235 284.867L404.561 272.567C405.98 270.696 405.613 268.029 403.742 266.61L376.089 245.643C374.218 244.224 371.55 244.591 370.131 246.462Z" fill="#42312F"/>
<path d="M60.2869 142.357L7.78111 211.606C5.36687 214.799 0.818735 215.422 -2.35872 213.008C-5.55175 210.594 -6.17463 206.046 -3.76039 202.868L48.7454 133.619C51.1597 130.426 55.7078 129.803 58.8853 132.217C62.0783 134.631 62.7012 139.179 60.2869 142.357Z" fill="#7C546D"/>
<path opacity="0.5" d="M459.011 250.172C459.011 250.172 451.815 263.489 446.13 265.016C440.445 266.542 432.922 265.623 425.742 256.184C418.561 246.761 423.888 233.21 431.551 233.615C439.215 234.02 459.011 250.172 459.011 250.172Z" fill="#B0C3DF"/>
<path d="M429.823 228.771L415.119 218.584C411.054 209.457 382.177 192.978 382.177 192.978C382.177 192.978 369.358 207.946 370.168 215.563C370.978 223.179 375.604 231.886 390.401 236.201C401.335 239.378 411.833 233.226 414.917 226.107L422.533 232.026C417.269 237.618 415.509 249.284 422.269 258.162C431.598 270.436 441.38 271.635 448.794 269.642C456.193 267.664 465.569 250.328 465.569 250.328C465.569 250.328 439.807 229.3 429.838 228.771H429.823ZM390.977 232.229C379.606 228.927 376.04 222.229 375.417 216.373C374.793 210.516 384.653 199.021 384.653 199.021C384.653 199.021 406.848 211.7 409.963 218.709C413.094 225.718 402.347 235.546 390.961 232.244L390.977 232.229ZM446.13 265.016C440.445 266.542 432.922 265.623 425.742 256.184C418.561 246.761 423.888 233.21 431.552 233.615C439.215 234.02 459.011 250.172 459.011 250.172C459.011 250.172 451.815 263.489 446.13 265.016Z" fill="#9D635B"/>
<path opacity="0.5" d="M390.975 232.229C379.605 228.927 376.038 222.229 375.415 216.373C374.792 210.516 384.651 199.021 384.651 199.021C384.651 199.021 406.847 211.7 409.962 218.709C413.093 225.718 402.345 235.546 390.96 232.244L390.975 232.229Z" fill="#B0C3DF"/>
<path d="M371.242 198.04C368.003 200.657 365.464 202.168 364.155 202.043C357.52 201.404 283.005 140.97 264.72 124.881C262.383 122.825 260.966 121.501 260.732 121.096C260.732 121.096 304.469 69.8982 306.385 66.1756C308.3 62.453 409.636 136.812 413.904 143.727C417.424 149.428 386.444 185.797 371.242 198.024V198.04Z" fill="#FCE1CB"/>
<path d="M391.211 342.77C385.339 343.86 376.399 330.403 365.76 321.369C355.122 312.335 313.581 286.744 311.557 280.405L313.971 276.916L318.472 270.436C318.472 270.436 319.22 269.112 320.372 267.259C321.961 264.751 324.329 261.293 326.618 258.988C327.942 257.664 329.235 256.714 330.341 256.558C334.796 255.904 354.452 273.723 360.698 278.722C364.421 281.697 380.682 293.021 393.968 302.226C403.017 308.503 410.696 313.799 412.051 314.78C415.431 317.21 397.052 341.68 391.196 342.77H391.211Z" fill="#BA987F"/>
<path d="M393.983 302.226C379.763 303.083 365.168 307.133 352.568 300.996C343.767 296.712 337.677 288.115 328.97 283.66C325.123 281.697 316.946 280.389 313.986 276.916L318.488 270.436C318.488 270.436 319.235 269.112 320.388 267.259L344.141 281.526C342.427 275.374 338.954 269.72 334.219 265.436C331.774 263.209 328.97 261.324 326.649 258.988C327.973 257.664 329.266 256.714 330.372 256.558C334.827 255.904 354.483 273.723 360.729 278.722C364.452 281.697 380.713 293.021 393.999 302.226H393.983Z" fill="#DABBA0"/>
<path d="M233.087 375.292C233.211 379.201 223.476 390.743 216.981 396.864C214.52 399.17 212.527 400.696 211.701 400.758C208.664 400.945 187.574 385.93 180.861 379.513C175.254 374.155 136.205 337.583 122.764 324.235C120.147 321.634 118.496 319.92 118.262 319.484C116.611 316.478 136.797 304.002 138.075 302.569C139.336 301.12 143.651 297.335 146.423 300.591C149.18 303.846 196.344 342.754 205.829 350.589C215.315 358.439 232.947 369.903 233.102 375.292H233.087Z" fill="#CC8639"/>
<path opacity="0.5" d="M211.919 382.55C211.95 386.102 214.1 389.217 215.626 392.425C216.265 393.78 216.779 395.322 216.981 396.849C214.52 399.154 212.527 400.681 211.701 400.743C208.664 400.93 187.574 385.915 180.861 379.497C175.254 374.139 136.206 337.568 122.764 324.219C123.48 317.895 136.361 323.16 141.003 321.743C143.479 320.995 145.473 318.721 148.059 318.721C150.177 318.721 151.937 320.278 153.495 321.743C168.338 335.589 184.21 348.346 200.938 359.841C206.686 363.797 213.227 368.875 212.9 375.837C212.791 378.096 211.935 380.292 211.95 382.566L211.919 382.55Z" fill="#EFB453"/>
<path d="M389.294 346.492C389.948 348.548 387.161 352.24 383.64 355.448C381.133 357.738 378.251 359.779 375.993 360.822C374.56 361.476 372.784 363.392 370.884 365.884C368.002 369.685 364.825 374.856 362.208 379.202C359.981 382.862 358.127 385.915 357.177 387.021C355.729 388.672 350.277 385.338 343.829 380.089C337.63 375.027 330.543 368.174 325.231 362.255C314.391 350.184 277.398 330.309 277.756 325.356C278.037 321.384 291.588 305.419 295.855 301.728C300.108 298.036 303.768 287.554 309.64 286.479C315.512 285.389 388.188 342.972 389.325 346.508L389.294 346.492Z" fill="#756A3A"/>
<path d="M336.992 350.822C344.235 361.227 352.708 370.775 362.194 379.186C359.966 382.846 358.113 385.899 357.163 387.005C355.714 388.656 350.263 385.323 343.814 380.074C343.347 378.719 342.864 377.395 342.319 376.102C337.195 364.124 326.416 355.667 316.059 347.77C309.486 342.754 310.809 340.044 302.694 338.44C297.991 337.521 284.206 333.985 292.336 327.599C297.585 323.487 300.405 328.72 305.545 330.73C310.264 332.568 314.968 334.421 319.687 336.259C322.662 337.427 325.669 338.596 328.239 340.496C331.883 343.175 334.407 347.1 336.992 350.822Z" fill="#868243"/>
<path d="M383.64 355.448C381.132 357.738 378.251 359.779 375.992 360.822C374.56 361.476 372.784 363.392 370.884 365.884C359.56 353.579 343.766 345.059 334.686 330.886C345.698 329.733 358.158 330.667 365.759 338.72C368.064 341.166 369.762 344.125 372.021 346.601C375.245 350.153 379.575 352.738 383.64 355.464V355.448Z" fill="#868243"/>
<path d="M277.897 313.659C272.711 316.867 269.066 327.334 263.193 328.44C257.321 329.53 228.039 298.488 221.077 293.722C214.114 288.94 176.281 258.334 174.801 255.67C172.963 252.368 178.617 250.577 178.617 250.577C178.617 250.577 187.293 231.512 190.346 231.31C191.343 231.247 193.773 232.852 196.888 235.266C203.383 240.25 212.884 248.646 218.834 252.508C227.058 257.866 278.598 294.859 286.448 301.229C286.994 301.681 287.336 301.977 287.429 302.102C288.816 303.986 283.099 310.466 277.912 313.674L277.897 313.659Z" fill="#BC5D59"/>
<path d="M286.434 301.214C286.434 301.214 286.402 301.307 286.387 301.369C285.297 304.111 281.231 303.239 278.49 302.102C273.537 300.03 268.257 298.753 262.914 298.317C255.313 297.694 247.666 298.768 240.065 298.223C232.464 297.678 224.457 295.139 219.925 289.018C215.86 283.535 215.268 276.199 211.779 270.327C209.692 266.838 206.639 263.957 204.894 260.296C203.788 257.96 203.243 255.405 202.652 252.882C201.281 246.979 198.789 241.122 196.857 235.25C203.353 240.235 212.853 248.63 218.803 252.493C227.027 257.851 278.568 294.843 286.418 301.214H286.434Z" fill="#E06257"/>
<path d="M247.454 291.968L194.901 250.953C193.978 250.233 192.647 250.397 191.927 251.32L176.087 271.617C175.367 272.539 175.531 273.87 176.453 274.59L229.007 315.605C229.929 316.325 231.26 316.161 231.98 315.238L247.821 294.941C248.54 294.019 248.376 292.688 247.454 291.968Z" fill="#B7B3A5"/>
<path d="M237.656 301.997L187.558 262.898C187.144 262.575 186.547 262.649 186.224 263.063L186.09 263.235C185.767 263.648 185.841 264.245 186.254 264.568L236.352 303.667C236.766 303.99 237.363 303.916 237.686 303.502L237.82 303.33C238.143 302.917 238.069 302.32 237.656 301.997Z" fill="#7F7F7F"/>
<path d="M219.346 278.987C218.256 280.389 216.216 280.638 214.814 279.548C213.412 278.458 213.163 276.417 214.253 275.015C215.343 273.613 217.384 273.364 218.785 274.455C220.187 275.545 220.437 277.585 219.346 278.987Z" fill="white"/>
<path d="M196.108 260.826C195.018 262.228 192.977 262.477 191.575 261.387C190.173 260.296 189.924 258.256 191.015 256.854C192.105 255.452 194.145 255.203 195.547 256.293C196.949 257.384 197.198 259.424 196.108 260.826Z" fill="white"/>
<path d="M207.727 269.906C206.637 271.308 204.596 271.557 203.194 270.467C201.793 269.377 201.544 267.336 202.634 265.935C203.724 264.533 205.765 264.284 207.166 265.374C208.568 266.464 208.818 268.505 207.727 269.906Z" fill="white"/>
<path d="M230.983 288.052C229.893 289.454 227.852 289.703 226.451 288.613C225.049 287.523 224.799 285.482 225.89 284.08C226.98 282.679 229.02 282.429 230.422 283.52C231.824 284.61 232.073 286.65 230.983 288.052Z" fill="white"/>
<path d="M242.602 297.133C241.512 298.535 239.471 298.784 238.07 297.694C236.668 296.603 236.418 294.563 237.509 293.161C238.599 291.759 240.64 291.51 242.042 292.6C243.443 293.691 243.692 295.731 242.602 297.133Z" fill="white"/>
<path d="M209.301 291.853C208.211 293.255 206.17 293.504 204.769 292.413C203.367 291.323 203.118 289.283 204.208 287.881C205.298 286.479 207.339 286.23 208.741 287.32C210.142 288.41 210.392 290.451 209.301 291.853Z" fill="white"/>
<path d="M186.061 273.707C184.971 275.109 182.93 275.358 181.529 274.268C180.127 273.177 179.877 271.137 180.968 269.735C182.058 268.333 184.099 268.084 185.501 269.174C186.902 270.265 187.151 272.305 186.061 273.707Z" fill="white"/>
<path d="M197.682 282.772C196.592 284.174 194.551 284.423 193.15 283.333C191.748 282.242 191.499 280.202 192.589 278.8C193.679 277.398 195.72 277.149 197.121 278.239C198.523 279.33 198.773 281.37 197.682 282.772Z" fill="white"/>
<path d="M220.936 300.918C219.846 302.32 217.805 302.569 216.403 301.479C215.002 300.388 214.753 298.348 215.843 296.946C216.933 295.544 218.973 295.295 220.375 296.385C221.777 297.476 222.027 299.516 220.936 300.918Z" fill="white"/>
<path d="M232.555 309.998C231.465 311.4 229.425 311.649 228.023 310.559C226.621 309.469 226.372 307.428 227.462 306.027C228.552 304.625 230.592 304.376 231.994 305.466C233.396 306.556 233.646 308.597 232.555 309.998Z" fill="white"/>
<path d="M271.817 281.456L219.264 240.441C218.341 239.722 217.01 239.886 216.29 240.808L200.45 261.105C199.73 262.027 199.894 263.358 200.816 264.078L253.37 305.093C254.292 305.813 255.624 305.649 256.343 304.727L272.184 284.43C272.904 283.507 272.739 282.176 271.817 281.456Z" fill="#D1CFC5"/>
<path d="M262.019 291.485L211.921 252.386C211.507 252.064 210.91 252.137 210.587 252.551L210.453 252.723C210.13 253.137 210.204 253.734 210.617 254.056L260.715 293.155C261.129 293.478 261.726 293.404 262.049 292.991L262.183 292.819C262.506 292.405 262.432 291.808 262.019 291.485Z" fill="#7F7F7F"/>
<path d="M243.708 268.473C242.617 269.875 240.577 270.124 239.175 269.034C237.773 267.944 237.524 265.903 238.614 264.502C239.705 263.1 241.745 262.851 243.147 263.941C244.549 265.031 244.798 267.072 243.708 268.473Z" fill="white"/>
<path d="M220.452 250.328C219.361 251.73 217.321 251.979 215.919 250.888C214.517 249.798 214.268 247.758 215.358 246.356C216.449 244.954 218.489 244.705 219.891 245.795C221.293 246.885 221.542 248.926 220.452 250.328Z" fill="white"/>
<path d="M232.088 259.408C230.998 260.81 228.958 261.059 227.556 259.969C226.154 258.879 225.905 256.838 226.995 255.437C228.085 254.035 230.126 253.786 231.528 254.876C232.93 255.966 233.179 258.007 232.088 259.408Z" fill="white"/>
<path d="M255.326 277.554C254.236 278.956 252.196 279.205 250.794 278.115C249.392 277.025 249.143 274.984 250.234 273.582C251.324 272.181 253.364 271.931 254.766 273.022C256.168 274.112 256.417 276.152 255.326 277.554Z" fill="white"/>
<path d="M266.962 286.619C265.871 288.021 263.831 288.27 262.429 287.18C261.027 286.09 260.778 284.049 261.868 282.647C262.959 281.246 264.999 280.996 266.401 282.087C267.803 283.177 268.052 285.217 266.962 286.619Z" fill="white"/>
<path d="M233.661 281.339C232.57 282.741 230.53 282.99 229.128 281.9C227.726 280.809 227.477 278.769 228.567 277.367C229.658 275.965 231.698 275.716 233.1 276.807C234.502 277.897 234.751 279.937 233.661 281.339Z" fill="white"/>
<path d="M210.423 263.193C209.332 264.595 207.292 264.844 205.89 263.754C204.488 262.664 204.239 260.623 205.329 259.222C206.42 257.82 208.46 257.57 209.862 258.661C211.263 259.751 211.513 261.791 210.423 263.193Z" fill="white"/>
<path d="M222.042 272.274C220.951 273.676 218.911 273.925 217.509 272.835C216.107 271.744 215.858 269.704 216.948 268.302C218.039 266.9 220.079 266.651 221.481 267.741C222.882 268.832 223.132 270.872 222.042 272.274Z" fill="white"/>
<path d="M245.295 290.42C244.205 291.822 242.165 292.071 240.763 290.98C239.361 289.89 239.112 287.85 240.202 286.448C241.292 285.046 243.333 284.797 244.735 285.887C246.137 286.977 246.386 289.018 245.295 290.42Z" fill="white"/>
<path d="M256.915 299.485C255.824 300.887 253.784 301.136 252.382 300.046C250.98 298.955 250.731 296.915 251.821 295.513C252.912 294.111 254.952 293.862 256.354 294.952C257.756 296.043 258.005 298.083 256.915 299.485Z" fill="white"/>
<path d="M252.668 269.418L280.344 281.967C281.408 282.449 281.881 283.707 281.398 284.771L279.359 289.268L247.825 274.969L249.864 270.472C250.346 269.409 251.604 268.936 252.668 269.418Z" fill="white"/>
<path d="M250.137 276.038L277.019 288.227L263.268 318.556C262.547 320.144 260.665 320.864 259.062 320.137L237.953 310.567C236.364 309.846 235.645 307.964 236.372 306.361L250.123 276.032L250.137 276.038Z" fill="#E97429"/>
<path d="M254.288 279.605L253.962 279.457C253.241 279.13 252.391 279.45 252.065 280.171L239.895 307.01C239.568 307.731 239.888 308.58 240.609 308.907L240.935 309.055C241.656 309.382 242.505 309.062 242.832 308.341L255.001 281.502C255.328 280.781 255.009 279.932 254.288 279.605Z" fill="white"/>
<path d="M254.32 270.156L251.406 276.582L253.236 277.412L256.15 270.985L254.32 270.156Z" fill="#D1CFC5"/>
<path d="M258.091 271.869L255.178 278.295L257.008 279.125L259.921 272.699L258.091 271.869Z" fill="#D1CFC5"/>
<path d="M261.861 273.583L258.947 280.009L260.777 280.839L263.691 274.413L261.861 273.583Z" fill="#D1CFC5"/>
<path d="M265.619 275.29L262.705 281.716L264.535 282.546L267.449 276.12L265.619 275.29Z" fill="#D1CFC5"/>
<path d="M269.39 276.988L266.477 283.414L268.306 284.244L271.22 277.818L269.39 276.988Z" fill="#D1CFC5"/>
<path d="M273.271 278.764L270.357 285.19L272.187 286.02L275.101 279.594L273.271 278.764Z" fill="#D1CFC5"/>
<path d="M276.933 280.409L274.02 286.835L275.849 287.665L278.763 281.239L276.933 280.409Z" fill="#D1CFC5"/>
<path d="M259.688 338.019C259.049 339.032 258.208 340.106 257.18 341.228C256.651 341.804 255.965 342.723 255.171 343.891C254.081 345.496 252.788 347.552 251.355 349.795C249.314 353.019 247.009 356.663 244.688 359.965C241.012 365.215 237.305 369.607 234.564 370.168C228.007 371.476 213.833 346.492 205.017 340.761C196.201 335.029 150.611 296.448 148.337 292.04C147.511 290.42 148.29 288.675 149.567 286.946C151.483 284.376 154.551 281.822 155.283 279.735C156 277.663 159.006 272.383 162.308 268.458C164.551 265.779 166.934 263.738 168.835 263.77C173.507 263.832 188.553 276.9 200.157 284.065C211.761 291.245 255.965 327.63 259.205 330.481C261.619 332.614 261.557 335.091 259.703 338.019H259.688Z" fill="#BA987F"/>
<path d="M186.59 294.173C180.936 293.831 175.282 293.473 169.628 293.13C166.03 292.912 162.37 292.678 158.943 291.51C156.155 290.56 152.448 289.065 149.566 286.931C151.482 284.361 154.551 281.806 155.283 279.719C155.999 277.648 159.005 272.367 162.307 268.442C166.84 271.059 171.279 273.847 175.22 277.243C180.453 281.744 184.846 287.491 186.59 294.173Z" fill="#DABBA0"/>
<path d="M241.79 333.767C244.75 339.25 247.18 345.262 251.354 349.779C249.314 353.003 247.009 356.648 244.688 359.95C244.298 359.327 243.94 358.673 243.535 358.081C238.411 350.231 235.638 342.349 233.504 333.237C233.364 332.646 233.224 332.038 233.317 331.431C233.598 329.499 236.199 328.674 237.99 329.468C239.781 330.263 240.872 332.054 241.806 333.767H241.79Z" fill="#DABBA0"/>
<path d="M259.688 338.019C259.049 339.032 258.208 340.106 257.18 341.228C256.65 341.804 255.965 342.723 255.171 343.891C253.862 339.935 252.289 336.088 250.467 332.35C252.554 331.041 255.108 333.004 256.759 334.826C257.741 335.885 258.722 336.96 259.688 338.035V338.019Z" fill="#DABBA0"/>
<path d="M319.919 443.14C320.308 449.215 296.119 473.232 292.053 479.961C287.988 486.69 283.175 495.989 275.496 493.777C267.802 491.565 205.109 438.561 205.109 438.561C203.38 437.486 202.929 435.446 203.225 433.016C203.926 427.299 208.707 419.387 210.545 416.63C211.994 414.449 216.386 404.512 221.448 395.977C225.576 388.999 230.155 382.94 233.94 382.784C237.772 382.628 247.912 389.746 258.659 398.033C271.571 407.986 285.34 419.636 290.028 422.377C294.203 424.823 301.274 428.343 307.489 432.019C314.093 435.928 319.732 440.009 319.934 443.14H319.919Z" fill="#A44746"/>
<path d="M239.407 451.286C239.796 452.766 240.092 454.541 239.064 455.678C237.445 457.47 234.532 455.943 232.71 454.355C223.505 446.364 214.439 437.564 203.24 433.016C203.941 427.299 208.723 419.387 210.561 416.63C212.009 414.449 216.402 404.512 221.464 395.977C223.099 407.409 226.76 417.082 231.495 428.063C234.735 435.586 237.382 443.358 239.438 451.286H239.407Z" fill="#BC5D59"/>
<path d="M307.473 432.019C307.473 432.798 307.473 433.576 307.426 434.355C307.301 436.707 306.958 439.09 306.008 441.255C302.94 448.218 294.077 452.049 292.972 459.572C292.66 461.675 293.018 463.871 292.489 465.927C291.944 467.999 289.919 469.961 287.894 469.323C286.881 469.011 286.165 468.139 285.542 467.282C281.461 461.582 279.639 454.619 277.614 447.891C273.735 435.041 268.813 422.564 263.549 410.213C261.882 406.303 260.387 402.051 258.643 398.033C271.555 407.986 285.324 419.636 290.012 422.377C294.186 424.823 301.258 428.343 307.473 432.019Z" fill="#BC5D59"/>
<path d="M340.232 411.817C334.298 417.596 326.557 437.143 321.65 436.365C316.744 435.586 284.767 413.172 274.113 404.138C263.475 395.104 241.42 381.943 240.08 377.706C239.114 374.7 241.077 370.635 244.083 366.554C248.849 360.075 256.217 353.502 258.693 350.823C262.073 347.131 266.886 335.901 271.512 332.272C272.415 331.586 273.287 331.166 274.16 331.135C279.533 330.963 342.273 381.647 348.737 387.348C355.216 393.048 346.151 406.039 340.232 411.802V411.817Z" fill="#B0C3DF"/>
<path opacity="0.5" d="M340.232 411.817C334.298 417.596 326.557 437.143 321.65 436.365C316.744 435.586 284.767 413.172 274.113 404.138C263.475 395.104 241.42 381.943 240.08 377.706C239.114 374.7 241.077 370.635 244.083 366.554C246.513 368.813 247.665 374.093 251.7 377.177C268.771 390.307 285.826 403.437 302.897 416.552C309.781 421.863 318.971 427.377 326.526 423.063C326.946 419.714 327.382 416.35 327.802 413.001C304.439 399.73 283.489 382.239 266.263 361.632C275.281 360.464 281.792 369.482 287.711 376.382C298.691 389.217 314.579 397.737 331.354 399.777C334.905 400.213 339.656 399.528 340.294 395.992C340.637 394.154 339.578 392.363 338.519 390.805C321.775 366.102 296.013 349.452 271.527 332.241C272.431 331.555 273.303 331.135 274.175 331.104C279.549 330.932 342.288 381.616 348.752 387.316C355.232 393.017 346.166 406.007 340.248 411.77L340.232 411.817Z" fill="#6E7699"/>
<path d="M493.622 49.4472C480.32 71.9698 428.671 131.298 422.332 133.323C417.192 134.958 396.133 117.903 383.424 105.645C377.552 99.9594 373.471 95.3023 373.564 93.9939C373.751 91.346 391.803 70.0851 410.401 49.2759C429.014 28.4667 448.172 8.10915 450.524 7.36151C454.262 6.16218 478.56 24.0743 490.429 34.8995C493.451 37.6564 495.678 39.9616 496.55 41.3634C497.22 42.4381 496.068 45.3352 493.622 49.4628V49.4472Z" fill="#B0C3DF"/>
<path opacity="0.5" d="M493.622 49.4472C480.321 71.9697 428.671 131.298 422.332 133.323C417.192 134.958 396.134 117.903 383.424 105.645C383.985 95.5047 387.115 85.7076 392.52 79.1969C394.794 76.4556 398.111 74.8201 401.367 73.3715C412.176 68.5742 423.5 64.9451 435.104 62.5776C454.714 58.5746 475.897 57.8425 493.638 49.4627L493.622 49.4472Z" fill="#91A5C3"/>
<path d="M5.9277 286.152C5.53831 280.062 64.5392 206.918 72.8411 198.834C81.143 190.75 82.1864 181.872 88.2765 181.498C94.3666 181.109 114.693 201.03 114.693 201.03C114.693 201.03 105.691 209.332 108.837 219.207C111.983 229.082 115.41 234.97 128.743 235.391C142.076 235.796 145.658 230.001 145.658 230.001C145.658 230.001 159.442 248.91 160.533 254.767C161.623 260.623 151.53 280.155 148.461 282.679C145.393 285.202 90.3481 341.57 87.4977 344.795C84.6474 348.034 75.3177 345.573 70.2245 341.757C65.1312 337.941 5.9277 286.152 5.9277 286.152Z" fill="#EFB453"/>
<path d="M76.0643 216.98C77.2013 217.229 78.0734 218.148 78.2603 219.301C79.5843 227.867 85.2073 262.337 90.908 265.28C96.2817 268.053 127.106 262.726 137.698 260.779C139.504 260.452 141.14 261.916 141.015 263.754L140.859 265.903C140.766 267.181 139.831 268.224 138.585 268.473C128.788 270.327 88.2445 277.616 83.8054 272.212C79.6155 267.118 74.3819 232.073 72.6997 220.126C72.4193 218.195 74.1641 216.575 76.0799 216.98H76.0643Z" fill="#CC8639"/>
<path d="M69.0872 250.468C69.8348 250.904 70.3331 251.652 70.4577 252.508C71.1897 257.68 73.9779 276.043 77.1709 277.694C79.3983 278.847 92.186 279.968 102.092 280.685C106.796 281.028 108.946 286.713 105.643 290.077C104.662 291.089 103.322 291.681 101.905 291.728C94.5066 292.008 70.9719 292.413 69.0872 286.479C67.4362 281.292 64.1962 261.916 62.6074 252.026C62.2336 249.674 64.7572 247.945 66.8132 249.144L69.0872 250.468Z" fill="#CC8639"/>
<path d="M139.802 242.384C137.388 243.147 134.74 243.77 131.983 244.113C124.772 245.016 114.523 244.378 106.548 236.201C100.505 229.986 98.5733 220.936 100.972 210.018C102.748 201.949 106.205 195.766 106.361 195.501C106.782 194.753 107.732 194.489 108.495 194.909C109.243 195.33 109.507 196.28 109.087 197.043C108.947 197.277 95.9254 220.812 108.791 234.02C115.862 241.278 125.099 241.839 131.594 241.013C139.491 240.032 145.939 236.777 147.979 234.768C148.602 234.16 149.584 234.176 150.191 234.799C150.799 235.422 150.783 236.403 150.16 237.01C148.338 238.786 144.522 240.873 139.787 242.384H139.802Z" fill="#CC8639"/>
<path d="M257.663 122.887C257.788 135.752 301.135 161.842 301.135 161.842C301.135 161.842 308.658 182.215 315.153 186.358C321.648 190.501 342.38 203.569 352.722 200.267C363.064 196.981 397.611 155.939 403.374 144.786C409.137 133.634 444.541 98.542 440.008 87.5611C435.476 76.5802 391.116 34.806 372.862 23.0307C354.607 11.2554 338.719 10.1028 331.804 14.3706C324.888 18.6383 287.086 68.9948 281.401 73.9011C275.716 78.8231 257.523 109.461 257.663 122.871V122.887Z" fill="#CFC7A0"/>
<path d="M403.95 146.656C403.358 146.842 402.703 146.749 402.174 146.36C402.002 146.235 385.695 133.883 376.225 126.672C366.739 119.429 343.079 100.177 342.846 99.9905C342.005 99.3052 341.88 98.0747 342.565 97.2492C343.251 96.4081 344.481 96.2835 345.307 96.9688C345.54 97.1557 369.153 116.376 378.592 123.588C388.047 130.799 404.37 143.151 404.526 143.276C405.382 143.93 405.554 145.145 404.899 146.017C404.65 146.344 404.308 146.578 403.934 146.702L403.95 146.656Z" fill="#B8AE84"/>
<path d="M347.223 193.648C345.307 194.255 341.538 193.725 331.133 188.165C324.981 184.863 319.249 181.249 319.186 181.218C318.267 180.642 318.003 179.442 318.579 178.523C319.155 177.605 320.355 177.34 321.274 177.916C321.32 177.947 326.694 181.343 332.566 184.505C340.354 188.71 343.765 189.707 345.182 189.909C343.983 188.383 339.497 184.364 322.706 175.159C311.507 169.022 300.402 163.649 300.293 163.602C299.327 163.135 298.922 161.966 299.389 161.001C299.857 160.035 301.025 159.63 301.991 160.097C302.1 160.16 313.797 165.814 325.323 172.153C332.114 175.891 337.55 179.147 341.444 181.826C348.562 186.716 349.528 188.928 349.513 190.579C349.497 191.81 348.905 192.838 347.877 193.398C347.69 193.492 347.487 193.585 347.254 193.663L347.223 193.648Z" fill="#B8AE84"/>
<path d="M357.985 177.869C357.471 178.041 356.879 177.978 356.381 177.682C353.531 175.938 339.154 167.044 336.896 163.384C336.335 162.465 334.84 160.051 344.777 145.082C347.986 140.254 351.521 135.519 354.481 132.077C359.559 126.189 361.583 125.581 363.032 125.815C367.814 126.563 376.988 138.696 379.698 142.403C380.336 143.276 380.15 144.49 379.277 145.129C378.405 145.768 377.19 145.581 376.552 144.709C371.583 137.902 364.932 130.426 362.611 129.725C361.163 130.316 356.412 135.145 349.886 144.522C343.516 153.696 340.509 159.942 340.369 161.561C342.16 163.882 351.864 170.362 358.422 174.38C359.34 174.941 359.636 176.14 359.076 177.059C358.826 177.48 358.437 177.76 358.001 177.9L357.985 177.869Z" fill="#B8AE84"/>
<path d="M368.28 102.919C368.81 104.601 367.891 106.408 366.194 106.953C364.496 107.498 362.704 106.563 362.159 104.866C361.614 103.184 362.549 101.377 364.247 100.832C365.929 100.286 367.735 101.221 368.28 102.919Z" fill="#F0ECD2"/>
<path d="M381.552 113.713C382.097 115.395 381.163 117.202 379.465 117.747C377.783 118.292 375.976 117.357 375.431 115.66C374.886 113.978 375.82 112.171 377.518 111.626C379.216 111.08 381.007 112.015 381.552 113.713Z" fill="#F0ECD2"/>
<path d="M398.218 127.03C398.764 128.712 397.829 130.519 396.131 131.064C394.449 131.609 392.642 130.675 392.097 128.977C391.552 127.279 392.486 125.488 394.184 124.943C395.866 124.398 397.673 125.332 398.218 127.03Z" fill="#F0ECD2"/>
<path d="M277.552 58.5746C269.048 72.328 270.653 108.401 288.596 119.242C306.539 130.083 338.765 123.962 345.385 118.759C352.005 113.541 344.092 98.4641 344.092 98.4641C344.092 98.4641 363.453 97.4673 363.92 85.9412C364.388 74.3996 354.388 52.7493 341.382 44.463C328.376 36.1767 291.898 35.3823 277.552 58.5902V58.5746Z" fill="#F0ECD2"/>
<path d="M281.82 65.5058C275.979 82.9039 283.113 108.573 300.854 112.249C318.579 115.924 344.092 98.4796 344.092 98.4796C344.092 98.4796 346.693 67.6241 334.03 57.1728C321.383 46.7058 307.287 41.4568 295.963 48.17C284.64 54.8831 281.82 65.5213 281.82 65.5213V65.5058Z" fill="#B8AE84"/>
<path d="M513.573 207.666C499.321 229.783 491.752 233.35 487.36 233.88C482.983 234.394 480.226 244.939 472.469 243.194C464.712 241.45 399.107 205.267 393.033 198.881C387.192 192.76 390.198 188.85 390.447 188.539C390.447 188.539 380.307 181.732 388.625 173.181C396.942 164.646 448.389 78.4025 455.741 79.929C462.578 81.3308 473.154 95.6294 499.664 109.367C515.458 117.544 524.71 121.142 530.489 124.585C534.414 126.921 536.75 129.18 538.417 132.762C542.575 141.593 533.993 147.948 533.993 147.948C533.993 147.948 541.018 154.661 539.6 161.499C538.183 168.321 527.794 185.564 513.542 207.681L513.573 207.666Z" fill="#A29E56"/>
<path opacity="0.3" d="M513.573 207.666C499.321 229.783 491.752 233.35 487.359 233.88C482.983 234.394 480.226 244.938 472.469 243.194C464.712 241.45 399.107 205.267 393.032 198.881C387.192 192.76 390.197 188.85 390.447 188.539C390.447 188.539 456.254 225.578 462.329 226.185C468.404 226.793 463.575 222.696 470.444 210.236C477.297 197.76 518.666 150.534 528.292 139.07C533.526 132.84 532.513 127.84 530.489 124.585C534.414 126.921 536.75 129.18 538.416 132.762C542.575 141.593 533.993 147.948 533.993 147.948C533.993 147.948 541.018 154.661 539.6 161.499C538.183 168.321 527.794 185.564 513.542 207.681L513.573 207.666Z" fill="#868243"/>
<path d="M461.317 90.6607C463.482 91.4395 455.819 103.012 454.604 101.533C453.389 100.053 451.862 94.6013 452.189 93.6824C452.517 92.7478 460.071 90.2246 461.317 90.6763V90.6607Z" fill="#756A3A"/>
<path d="M459.791 127.933C461.738 126.703 466.13 139.864 464.214 139.911C462.299 139.958 457.065 137.808 456.536 136.967C456.006 136.126 458.669 128.634 459.775 127.933H459.791Z" fill="#756A3A"/>
<path d="M472.001 116.158C471.83 118.448 458.638 114.133 459.744 112.56C460.849 111.003 465.693 108.074 466.675 108.152C467.656 108.23 472.095 114.834 471.986 116.158H472.001Z" fill="#756A3A"/>
<path d="M438.7 127.155C436.41 127.404 438.201 113.65 439.945 114.445C441.69 115.239 445.459 119.46 445.568 120.441C445.678 121.423 440.008 127.014 438.7 127.155Z" fill="#756A3A"/>
<path d="M450.242 220.313C448.637 218.662 460.615 211.653 461.051 213.522C461.487 215.391 460.459 220.952 459.758 221.637C459.042 222.322 451.16 221.263 450.242 220.313Z" fill="#756A3A"/>
<path d="M454.308 191.685C452.019 191.934 453.872 178.181 455.617 178.991C457.361 179.801 461.115 184.037 461.209 185.019C461.302 186 455.617 191.56 454.308 191.701V191.685Z" fill="#756A3A"/>
<path d="M438.171 196.872C439.339 194.894 449.276 204.582 447.594 205.501C445.912 206.42 440.273 206.903 439.417 206.404C438.56 205.906 437.501 198.009 438.171 196.887V196.872Z" fill="#756A3A"/>
<path d="M450.289 163.166C448.015 163.54 449.074 149.708 450.849 150.409C452.625 151.11 456.628 155.129 456.784 156.094C456.94 157.06 451.582 162.948 450.289 163.166Z" fill="#756A3A"/>
<path d="M417.283 195.345C415.523 196.841 409.323 184.427 411.208 184.115C413.093 183.804 418.591 185.19 419.23 185.938C419.868 186.685 418.295 194.489 417.283 195.345Z" fill="#756A3A"/>
<path d="M435.024 169.926C437.111 168.96 439.822 182.558 437.906 182.371C435.99 182.184 431.084 179.38 430.663 178.492C430.242 177.605 433.825 170.486 435.024 169.941V169.926Z" fill="#756A3A"/>
<path d="M434.199 143.945C436.177 145.114 426.536 155.082 425.617 153.4C424.698 151.718 424.184 146.079 424.683 145.238C425.181 144.381 433.062 143.291 434.199 143.961V143.945Z" fill="#756A3A"/>
<path d="M416.894 164.661C417.237 166.935 403.421 165.673 404.153 163.898C404.885 162.122 408.95 158.197 409.932 158.057C410.913 157.917 416.707 163.368 416.894 164.661Z" fill="#756A3A"/>
<path fill-rule="evenodd" clip-rule="evenodd" d="M103.9 153.369C111.812 142.964 127.077 143.338 137.279 150.534C142.762 154.334 146.796 159.412 149.724 165.502C161.484 180.065 176.203 189.131 192.947 194.193C208.554 200.875 210.64 210.765 206.31 218.849C200.36 230.032 188.601 230.827 178.928 226.154C160.129 217.089 119.912 202.37 107.732 188.04C99.2118 178.134 94.9282 165.159 103.915 153.353L103.9 153.369Z" fill="#1D282C"/>
<path fill-rule="evenodd" clip-rule="evenodd" d="M125.054 163.026C127.312 164.49 129.571 165.954 131.829 167.402C139.103 164.209 146.283 163.041 153.417 165.424C159.196 168.041 166.392 171.842 170.161 177.028C174.584 183.118 177.248 189.863 179.631 196.7C180.659 199.691 168.276 195.797 167.638 192.76C165.94 184.115 161.127 176.561 156.018 169.116C151.72 168.976 147.483 169.24 143.573 170.704C138.184 172.698 136.362 175.44 136.829 180.969C137.701 192.121 142.716 201.233 147.888 210.298C153.214 211.077 157.841 210.547 161.797 208.896C163.759 208.024 172.84 214.612 170.862 214.908C162.077 216.014 153.635 217.494 145.66 212.51C143.449 211.077 141.33 209.41 139.399 207.432C131.907 194.567 127.25 182.449 128.979 171.826C126.518 170.455 124.104 169.038 121.689 167.698C117.951 165.611 122.39 161.312 125.069 163.041L125.054 163.026Z" fill="#FBC200"/>
<path fill-rule="evenodd" clip-rule="evenodd" d="M167.386 173.96C168.414 174.957 169.379 175.969 170.158 177.028C174.582 183.118 177.245 189.863 179.628 196.7C180.656 199.691 168.274 195.797 167.635 192.76C165.984 184.146 161.124 176.561 156.016 169.116C156.016 169.116 159.426 168.711 167.37 173.96H167.386ZM147.885 210.282C153.212 211.061 157.838 210.532 161.794 208.881C163.757 208.008 172.837 214.597 170.859 214.893C165.735 215.532 160.813 216.31 155.938 215.827C155.704 215.75 155.408 215.641 155.081 215.594C148.524 213.553 147.869 210.298 147.869 210.298L147.885 210.282Z" fill="#EFB300"/>
<path fill-rule="evenodd" clip-rule="evenodd" d="M119.305 135.285C112.514 146.453 118.432 160.534 128.868 167.387C134.444 171.047 140.612 173.01 147.388 173.446C165.206 179.115 179.022 189.504 189.863 203.242C201.778 215.345 211.747 213.662 217.728 206.622C225.921 197.043 222.369 185.813 214.488 178.508C199.177 164.318 170.782 132.279 153.026 126.111C140.643 121.843 127.015 122.591 119.305 135.285Z" fill="#38474B"/>
<path fill-rule="evenodd" clip-rule="evenodd" d="M136.08 151.406C138.23 153.026 140.41 154.584 142.591 156.157C142.279 164.1 143.805 171.203 148.665 176.935C153.182 181.405 159.335 186.716 165.58 188.274C172.87 190.159 180.113 190.19 187.324 189.956C190.517 189.769 182.34 179.707 179.272 180.237C170.596 181.81 161.811 180.097 153.011 178.072C151.313 174.131 150.005 170.081 149.974 165.86C149.818 160.175 151.702 157.465 157.014 155.876C167.714 152.621 178.025 153.945 188.352 155.456C191.015 160.144 192.262 164.583 192.137 168.913C192.044 171.063 201.529 177.044 201.046 175.159C198.866 166.577 197.152 158.182 189.598 152.574C187.495 151.001 185.128 149.677 182.573 148.602C167.901 146.282 154.88 146.422 145.628 151.92C143.463 150.129 141.282 148.353 139.117 146.64C135.815 143.93 133.463 149.584 136.049 151.437L136.08 151.406Z" fill="#FBC200"/>
<path fill-rule="evenodd" clip-rule="evenodd" d="M161.686 186.857C162.994 187.464 164.287 187.978 165.595 188.274C172.885 190.159 180.127 190.19 187.339 189.956C190.532 189.769 182.355 179.707 179.286 180.237C170.657 181.857 161.826 180.097 153.025 178.072C153.025 178.072 153.882 181.389 161.686 186.872V186.857ZM188.367 155.425C191.03 160.113 192.276 164.552 192.152 168.882C192.058 171.032 201.544 177.013 201.061 175.128C199.784 170.113 198.709 165.253 196.482 160.907C196.326 160.705 196.155 160.424 195.952 160.191C191.7 154.77 188.382 155.425 188.382 155.425H188.367Z" fill="#EFB300"/>
<path fill-rule="evenodd" clip-rule="evenodd" d="M0.881697 290.373L40.3664 237.867C42.2043 235.422 45.7709 234.908 48.2318 236.761L120.488 291.089C122.996 292.974 123.51 296.541 121.656 298.986L82.1715 351.492C80.3335 353.938 76.7666 354.452 74.2589 352.567L2.00311 298.239C-0.442288 296.401 -0.956227 292.834 0.897288 290.373H0.881697Z" fill="#38474B"/>
<path fill-rule="evenodd" clip-rule="evenodd" d="M7.34738 292.99L44.6824 243.35C44.9005 243.054 45.3212 242.992 45.6327 243.21L106.285 288.815C106.581 289.033 106.705 289.501 106.472 289.797L69.1367 339.437C68.9186 339.733 68.3888 339.81 68.0928 339.592L7.44092 293.987C7.14498 293.769 7.12932 293.286 7.34738 292.99Z" fill="#596B72"/>
<path fill-rule="evenodd" clip-rule="evenodd" d="M19.2617 277.149L44.6655 243.35C44.8835 243.054 45.3043 242.992 45.6158 243.21L106.268 288.815C106.564 289.033 106.688 289.501 106.455 289.797L98.9004 299.843C66.3626 282.211 37.1583 277.85 19.2617 277.134V277.149Z" fill="#66787F"/>
<path d="M89.1655 319.032L92.4054 314.733C92.7636 314.251 93.3242 314.017 93.8382 313.939C94.4145 313.799 94.9597 313.939 95.4426 314.297L99.8039 317.584C100.287 317.942 100.567 318.441 100.598 319.017C100.676 319.546 100.598 320.138 100.24 320.621L97.0002 324.92C96.6419 325.403 96.0345 325.699 95.5205 325.777C94.991 325.855 94.4458 325.714 93.963 325.356L89.6017 322.07C89.1188 321.711 88.8384 321.213 88.7605 320.699C88.6826 320.169 88.8073 319.515 89.1655 319.032ZM93.6515 315.668L90.4116 319.967C90.2715 320.154 90.2405 320.31 90.2093 320.481C90.2872 320.637 90.365 320.777 90.474 320.87L94.8353 324.157C94.9599 324.25 95.1153 324.281 95.2867 324.313C95.4892 324.281 95.645 324.204 95.7852 324.032L99.0251 319.733C99.1185 319.609 99.1965 319.391 99.1186 319.235C99.0875 319.032 99.0094 318.877 98.9004 318.783L94.5391 315.497C94.4145 315.403 94.259 315.372 94.0409 315.403C93.9319 315.403 93.745 315.559 93.6515 315.668Z" fill="#2A383D"/>
<path fill-rule="evenodd" clip-rule="evenodd" d="M222.619 186.747L234.379 195.454C240.983 200.345 242.4 209.753 237.51 216.373C230.672 225.625 216.949 237.961 203.165 227.774L199.832 225.313C186.047 215.127 194.848 199.146 201.685 189.894C206.576 183.29 215.984 181.872 222.604 186.763L222.619 186.747Z" fill="#DE5E6D"/>
<path fill-rule="evenodd" clip-rule="evenodd" d="M239.737 212.027C239.254 213.538 238.522 215.002 237.525 216.357C233.585 221.684 227.37 228.023 220.19 230.515C226.171 228.304 232.027 219.114 229.706 216.108C227.385 213.102 216.342 205.423 208.726 200.205C201.125 194.971 195.471 206.233 195.003 213.398C194.536 220.562 201.514 226.528 201.514 226.528L199.848 225.297C186.063 215.111 194.863 199.13 201.701 189.878C202.215 189.193 202.76 188.57 203.368 187.994C205.33 188.975 208.181 190.408 208.477 190.626C208.928 190.953 234.348 204.317 235.485 206.139C236.045 207.058 237.977 209.535 239.737 212.027Z" fill="#DA5165"/>
<path fill-rule="evenodd" clip-rule="evenodd" d="M237.479 216.419C237.089 216.933 236.684 217.463 236.264 217.992L200.502 191.56C200.891 191 201.281 190.47 201.655 189.941L237.463 216.419H237.479Z" fill="#AF3749"/>
<path fill-rule="evenodd" clip-rule="evenodd" d="M222.618 186.747L234.378 195.454C240.982 200.345 242.399 209.753 237.509 216.373C237.384 216.544 237.259 216.715 237.119 216.887L201.311 190.408C201.435 190.236 201.56 190.065 201.684 189.894C206.575 183.29 215.983 181.872 222.603 186.763L222.618 186.747Z" fill="#B7CFD7"/>
<path fill-rule="evenodd" clip-rule="evenodd" d="M218.351 202.277C218.351 202.277 206.997 194.239 206.67 191.856C206.343 189.489 214.473 182.495 226.965 190.641C239.441 198.788 240.204 209.13 237.977 212.136C235.75 215.142 229.769 210.127 218.367 202.277H218.351Z" fill="#D0E4EE"/>
<path fill-rule="evenodd" clip-rule="evenodd" d="M213.415 197.043C212.154 195.813 208.649 192.526 209.537 190.517C210.425 188.508 217.73 186.078 226.919 191.498C236.109 196.918 213.275 189.613 213.415 197.043Z" fill="white"/>
<path d="M317.07 266.698L310.964 262.072L297.756 279.049L303.861 283.675C307.771 286.526 322.038 269.688 317.07 266.698Z" fill="#FDE9E4"/>
<path d="M310.95 262.087C315.918 265.094 301.651 281.915 297.742 279.065C293.832 276.215 305.607 258.863 310.95 262.087Z" fill="#DABBA0"/>
<path d="M311.276 254.751C311.276 254.751 255.001 206.731 252.089 205.812C247.977 204.504 224.613 241.886 226.684 244.238C228.756 246.59 290.312 281.604 290.312 281.604C296.557 284.548 316.728 257.415 311.276 254.751Z" fill="#E06257"/>
<path d="M265.999 227.977C268.413 228.132 289.643 244.44 290.422 245.967C291.201 247.477 279.846 264.689 277.51 264.533C275.174 264.393 252.9 249.471 252.386 248.272C251.872 247.057 264.831 227.899 265.999 227.977Z" fill="#FDE9E4"/>
<path d="M235.236 245.951C235.127 245.951 235.002 245.92 234.893 245.873C234.286 245.639 233.99 244.97 234.208 244.362C239.535 230.36 254.145 211.544 254.753 210.75C255.157 210.236 255.89 210.142 256.404 210.547C256.918 210.952 257.011 211.684 256.606 212.198C256.45 212.385 241.607 231.543 236.389 245.203C236.202 245.702 235.719 245.982 235.22 245.951H235.236Z" fill="#A44746"/>
<path d="M376.867 349.981L370.761 345.355L357.553 362.333L363.658 366.959C367.568 369.809 381.835 352.972 376.867 349.981Z" fill="#FDE9E4"/>
<path d="M370.745 345.355C375.713 348.361 361.446 365.183 357.536 362.333C353.627 359.483 365.402 342.131 370.745 345.355Z" fill="#DABBA0"/>
<path d="M371.071 338.019C371.071 338.019 314.796 289.999 311.883 289.08C307.771 287.772 284.408 325.154 286.479 327.506C288.551 329.858 350.106 364.872 350.106 364.872C356.352 367.816 376.523 340.683 371.071 338.019Z" fill="#E06257"/>
<path d="M325.793 311.244C328.207 311.4 349.436 327.708 350.215 329.235C350.994 330.745 339.639 347.957 337.303 347.801C334.966 347.645 312.693 332.739 312.179 331.54C311.665 330.34 324.624 311.167 325.793 311.244Z" fill="#FDE9E4"/>
<path d="M295.029 329.219C294.92 329.219 294.795 329.188 294.686 329.141C294.079 328.907 293.783 328.238 294.001 327.63C299.328 313.628 313.938 294.812 314.545 294.018C314.95 293.504 315.683 293.41 316.197 293.815C316.711 294.22 316.804 294.952 316.399 295.466C316.244 295.653 301.4 314.811 296.182 328.471C295.995 328.97 295.512 329.25 295.014 329.219H295.029Z" fill="#A44746"/>
<path d="M204.488 414.636C202.058 417.175 199.177 419.636 197.37 421.599C193.336 425.991 191.607 432.751 188.336 432.237C185.065 431.723 136.469 391.304 130.924 386.086C125.379 380.868 93.1373 360.074 91.7511 358.19C90.3181 356.212 91.6887 352.66 94.3677 348.595C95.863 346.321 97.7476 343.891 99.7724 341.477C103.464 337.069 107.591 332.77 110.488 329.686C111.766 328.331 112.794 327.225 113.464 326.431C117.981 321.12 148.696 351.71 167.901 368.096C187.106 384.497 206.295 400.899 208.569 405.602C209.831 408.204 207.494 411.49 204.473 414.636H204.488Z" fill="#6E7699"/>
<path opacity="0.5" d="M99.7871 341.477C103.479 337.069 107.606 332.77 110.503 329.686C120.113 345.558 132.449 360.386 149.411 369.155C155.314 373.08 161.623 376.725 165.968 382.332C162.043 382.94 158.352 380.588 155.081 378.329C141.39 368.906 127.683 359.498 113.992 350.075C109.444 346.944 104.787 343.767 99.7871 341.493V341.477Z" fill="#91A5C3"/>
<path opacity="0.5" d="M204.488 414.636C202.058 417.175 199.177 419.636 197.37 421.599C193.336 425.991 191.607 432.751 188.336 432.237C185.065 431.723 136.469 391.304 130.924 386.086C125.379 380.868 93.1373 360.075 91.7511 358.19C90.3181 356.212 91.6887 352.66 94.3677 348.595C95.458 349.639 96.6417 350.604 97.7943 351.446L148.525 388.765C161.125 398.033 174.147 407.503 189.317 411.334C185.984 404.356 182.651 397.378 179.334 390.416C184.972 395.509 190.61 400.587 196.264 405.68C199.27 408.39 202.354 411.256 204.473 414.636H204.488Z" fill="#91A5C3"/>
<path fill-rule="evenodd" clip-rule="evenodd" d="M136.687 304.547L200.205 352.302C201.467 353.252 201.716 355.012 200.766 356.274L163.789 405.447C162.839 406.708 161.079 406.958 159.818 406.007L96.2996 358.252C95.0847 357.333 94.7886 355.542 95.7387 354.28L132.716 305.108C133.666 303.846 135.473 303.628 136.687 304.547Z" fill="#FBC200"/>
<path fill-rule="evenodd" clip-rule="evenodd" d="M167.2 400.914L163.789 405.447C162.839 406.708 161.079 406.958 159.818 406.007L96.2996 358.252C95.0847 357.333 94.7886 355.542 95.7387 354.28L99.1501 349.748L167.2 400.914Z" fill="#F9BB00"/>
<path fill-rule="evenodd" clip-rule="evenodd" d="M116.129 345.402L134.617 320.824C135.801 319.235 138.028 318.923 139.602 320.123L141.657 321.665C143.246 322.848 143.604 325.107 142.421 326.696L123.932 351.274C122.749 352.863 120.428 353.19 118.855 351.991L116.798 350.449C115.21 349.265 114.945 346.991 116.129 345.402Z" fill="#FEF8DC"/>
<path fill-rule="evenodd" clip-rule="evenodd" d="M128.556 354.016L146.282 330.434C146.562 330.06 147.076 330.044 147.45 330.309C147.824 330.59 147.886 331.057 147.605 331.415L129.88 354.997C129.647 355.308 129.133 355.433 128.774 355.153C128.4 354.872 128.323 354.327 128.572 354L128.556 354.016Z" fill="#FDE785"/>
<path fill-rule="evenodd" clip-rule="evenodd" d="M133.355 357.629L151.08 334.047C151.361 333.674 151.875 333.658 152.248 333.923C152.622 334.203 152.685 334.655 152.404 335.029L134.679 358.61C134.445 358.922 133.947 359.047 133.573 358.766C133.199 358.486 133.122 357.941 133.371 357.614L133.355 357.629Z" fill="#FDE785"/>
<path fill-rule="evenodd" clip-rule="evenodd" d="M102.016 343.969L105.551 339.281C105.785 338.969 106.252 338.891 106.564 339.141L126.657 354.249L121.485 356.072L121.33 361.321L102.436 347.115C101.439 346.368 101.237 344.982 101.984 343.969H102.016Z" fill="#D0231B"/>
<path d="M414.325 333.58L399.201 332.318L222.743 317.584L219.363 317.303L201.794 315.839L198.242 315.543L14.4951 300.201L-0.738074 298.924C-3.21462 294.687 -4.13351 289.734 -3.38588 284.921L11.7225 286.027L192.401 299.251L195.906 299.5L213.211 300.762L217.058 301.042L397.347 314.251L412.456 315.357C415.773 320.792 416.49 327.521 414.34 333.565L414.325 333.58Z" fill="#FCE1CB"/>
<path d="M287.708 500.724C282.522 504.477 275.886 505.677 269.749 504.057L264.61 489.805L206.964 330.122L201.808 315.839L195.92 299.516L190.952 285.763L133.244 125.94L128.104 111.688C132.574 109.725 137.621 109.336 142.371 110.644L147.714 124.974L205.998 281.386L213.225 300.778L219.378 317.288L222.851 326.602L282.413 486.472L287.708 500.692V500.724Z" fill="#FCE1CB"/>
<path d="M203.725 330.839L225.64 325.995L209.893 280.264L187.885 286.65L203.725 330.839Z" fill="#5E5429"/>
<path d="M337.018 172.153L388.817 195.01C392.55 196.658 394.261 201.039 392.607 204.786L361.67 274.897C360.022 278.63 355.641 280.341 351.894 278.687L300.094 255.83L337.011 172.168L337.018 172.153Z" fill="#127667"/>
<path d="M344.217 191.124C343.687 192.308 342.488 192.651 341.071 192.028L339.856 191.498L339.171 193.056L338.174 192.62L340.557 187.215L342.784 188.196C344.202 188.819 344.762 189.941 344.233 191.14L344.217 191.124ZM343.205 190.673C343.501 189.987 343.22 189.395 342.348 189.006L341.18 188.492L340.23 190.641L341.398 191.155C342.286 191.545 342.909 191.358 343.205 190.673Z" fill="#F2DD96"/>
<path d="M347.473 195.221L344.779 194.037L343.688 195.049L342.66 194.598L347.473 190.268L348.454 190.704L348.517 197.183L347.473 196.716V195.221ZM347.489 194.286L347.52 191.483L345.464 193.398L347.489 194.302V194.286Z" fill="#F2DD96"/>
<path d="M349 196.716L349.685 196.093C349.966 196.638 350.542 197.183 351.212 197.479C352.053 197.853 352.536 197.713 352.722 197.308C353.236 196.14 349.685 195.486 350.573 193.476C350.963 192.604 351.975 192.168 353.454 192.822C354.109 193.102 354.701 193.585 355.043 194.099L354.389 194.738C354.031 194.239 353.563 193.866 353.081 193.663C352.24 193.289 351.772 193.476 351.585 193.881C351.071 195.034 354.607 195.704 353.735 197.682C353.346 198.538 352.318 198.974 350.838 198.32C349.997 197.946 349.265 197.323 349 196.732V196.716Z" fill="#F2DD96"/>
<path d="M353.857 198.85L354.543 198.227C354.823 198.772 355.4 199.317 356.069 199.613C356.911 199.987 357.393 199.847 357.58 199.442C358.094 198.274 354.543 197.619 355.431 195.626C355.82 194.753 356.833 194.317 358.312 194.972C358.966 195.252 359.558 195.735 359.901 196.249L359.247 196.887C358.889 196.389 358.421 196.015 357.938 195.813C357.097 195.439 356.63 195.626 356.443 196.031C355.929 197.183 359.465 197.853 358.593 199.831C358.219 200.703 357.175 201.124 355.696 200.47C354.855 200.096 354.122 199.473 353.857 198.881V198.85Z" fill="#F2DD96"/>
<path d="M364.979 200.283C364.45 201.467 363.25 201.809 361.833 201.186L360.618 200.641L359.933 202.199L358.936 201.747L361.319 196.342L363.546 197.323C364.964 197.946 365.524 199.068 364.995 200.267L364.979 200.283ZM363.966 199.831C364.262 199.146 363.982 198.554 363.11 198.165L361.942 197.651L360.992 199.8L362.16 200.314C363.032 200.703 363.671 200.516 363.966 199.831Z" fill="#F2DD96"/>
<path d="M365.323 201.373C366.023 199.769 367.783 199.146 369.466 199.878C371.148 200.61 371.864 202.339 371.148 203.943C370.447 205.547 368.687 206.17 367.005 205.438C365.323 204.706 364.622 202.977 365.323 201.373ZM370.136 203.491C370.618 202.386 370.166 201.233 369.076 200.75C367.986 200.267 366.833 200.703 366.335 201.809C365.852 202.915 366.304 204.068 367.394 204.551C368.485 205.033 369.637 204.597 370.136 203.491Z" fill="#F2DD96"/>
<path d="M374.559 208.663L374.154 206.591C374.154 206.591 374.014 206.544 373.936 206.513L372.721 205.968L372.02 207.541L371.023 207.105L373.407 201.7L375.634 202.682C377.052 203.305 377.612 204.426 377.083 205.625C376.724 206.451 376.039 206.856 375.182 206.825L375.649 209.145L374.575 208.663H374.559ZM375.198 203.523L374.03 203.009L373.08 205.158L374.248 205.672C375.136 206.061 375.758 205.859 376.054 205.174C376.35 204.488 376.07 203.896 375.198 203.507V203.523Z" fill="#F2DD96"/>
<path d="M379.683 205.501L377.892 204.706L378.266 203.85L382.845 205.875L382.471 206.716L380.68 205.921L378.671 210.469L377.674 210.033L379.683 205.485V205.501Z" fill="#F2DD96"/>
<mask id="mask1_86_62015" style="mask-type:luminance" maskUnits="userSpaceOnUse" x="331" y="212" width="33" height="33">
<path d="M361.832 234.69C358.297 242.742 348.889 246.418 340.836 242.867C332.784 239.331 329.108 229.923 332.659 221.871C336.195 213.818 345.603 210.142 353.655 213.694C361.708 217.229 365.384 226.637 361.832 234.69Z" fill="white"/>
</mask>
<g mask="url(#mask1_86_62015)">
<path d="M333.046 221.175L332.395 222.657L361.582 235.488L362.234 234.006L333.046 221.175Z" fill="#F2DD96"/>
<path d="M352.696 213.213L339.875 242.405L341.358 243.057L354.179 213.864L352.696 213.213Z" fill="#F2DD96"/>
<path d="M340.089 243.21C339.902 242.805 335.478 233.023 339.123 224.721C342.768 216.435 352.954 213.055 353.39 212.93L353.889 214.472C353.795 214.503 343.951 217.759 340.618 225.375C337.269 232.992 341.522 242.431 341.568 242.524L340.089 243.21Z" fill="#F2DD96"/>
<path d="M327.129 235.842L326.6 234.316C326.989 234.176 336.195 231.045 344.45 234.674C344.45 234.674 344.465 234.674 344.481 234.674C352.721 238.303 356.63 247.197 356.786 247.571L355.29 248.209C355.259 248.116 351.459 239.534 343.811 236.154C343.811 236.154 343.795 236.154 343.78 236.154C336.116 232.789 327.207 235.811 327.114 235.842H327.129Z" fill="#F2DD96"/>
<path d="M349.637 222.759C341.397 219.129 337.488 210.236 337.332 209.862L338.827 209.223C338.858 209.317 342.659 217.899 350.307 221.279C350.307 221.279 350.322 221.279 350.338 221.279C358.001 224.643 366.91 221.622 367.004 221.59L367.533 223.117C367.144 223.257 357.939 226.388 349.683 222.759C349.683 222.759 349.668 222.759 349.652 222.759H349.637Z" fill="#F2DD96"/>
<path d="M341.086 243.646L340.588 242.104C340.681 242.073 350.525 238.817 353.858 231.201C357.207 223.584 352.955 214.145 352.908 214.052L354.388 213.366C354.575 213.771 358.998 223.553 355.354 231.855C351.709 240.157 341.522 243.521 341.086 243.646Z" fill="#F2DD96"/>
</g>
<path d="M361.832 234.69C358.297 242.742 348.889 246.418 340.836 242.867C332.784 239.331 329.108 229.923 332.659 221.871C336.195 213.818 345.603 210.142 353.655 213.694C361.708 217.229 365.384 226.637 361.832 234.69Z" stroke="#F2DD96" stroke-width="1.36" stroke-miterlimit="10"/>
</g>
<path d="M57.0952 32.2159V34.473H50.3242V32.2159H57.0952ZM56.5348 47.145H52.8911V47.8826H50.7226V40.8607H56.5348V47.145ZM56.1955 38.0282V40.2116H50.796V38.0282H56.1955ZM56.2837 35.1959V35.9335C56.8591 35.4024 57.3167 34.8123 57.6707 34.237C58.0985 33.5731 58.4525 32.8945 58.718 32.2159L59.7506 32.4667V32.0537H57.0213V30.1064H59.7506V29.2213H61.9339V32.865H60.6506C60.5916 33.0716 60.5324 33.2338 60.4587 33.3666H62.8487C62.9962 33.0568 63.1142 32.7323 63.2027 32.393L63.8665 32.5405V29.236H66.035V30.0474H68.528V31.9947H66.035V32.7175H64.6336L65.4008 32.8798C65.3122 33.0863 65.2087 33.2486 65.135 33.3814H68.6314V35.1369H64.8252V35.6384H68.1444V37.2464H64.8252V37.7185H68.071V39.3559H64.8252V39.828H68.882V41.5983H57.8328V37.4087C57.7443 37.512 57.6706 37.6004 57.5821 37.6594L56.2837 36.2728V37.4087H50.8846V35.2254H56.2837V35.1959ZM56.1955 29.5606V31.6554H51.1061V29.5606H56.1955ZM54.3663 45.0502V42.9407H52.9058V45.0502H54.3663ZM68.3069 42.0556V43.4423C67.643 44.2536 66.8758 44.9322 66.0202 45.4633C66.9053 45.6698 67.9233 45.8173 69.0592 45.9354L68.233 47.8826C66.4628 47.6171 64.8695 47.204 63.4239 46.6582C61.8749 47.1893 60.1193 47.6023 58.1573 47.8826L57.1099 45.8616C58.5114 45.7436 59.7506 45.5666 60.857 45.3305C60.1784 44.8732 59.5736 44.3864 59.0573 43.8406H58.01V42.0703H68.3364L68.3069 42.0556ZM62.7453 35.1074H59.913V35.6089H62.7453V35.1074ZM62.7453 37.2169H59.913V37.689H62.7453V37.2169ZM62.7453 39.3264H59.913V39.7985H62.7453V39.3264ZM63.291 44.6667C64.0138 44.4159 64.6334 44.1503 65.1497 43.8406H61.5503C62.0519 44.1503 62.6271 44.4159 63.291 44.6667Z" fill="#595757"/>
<path d="M74.518 44.1651C74.1197 45.6108 73.6921 46.8057 73.2348 47.8089L70.9629 46.5845C71.4792 45.5076 71.892 44.4307 72.1871 43.3538L74.518 44.1651ZM78.2355 41.9818H73.7952V42.7194H71.6267V29.6343H78.2355V41.9671V41.9818ZM76.0523 34.7238V31.7291H73.7952V34.7238H76.0523ZM76.0523 39.887V36.8038H73.7952V39.887H76.0523ZM79.6074 46.6582L77.1882 47.7056C76.8342 46.4222 76.4062 45.3158 75.9046 44.3126L78.0731 43.339C78.6779 44.3569 79.1943 45.4485 79.6074 46.6434V46.6582ZM89.0489 29.7228C89.0489 33.2928 88.7833 35.2549 88.2818 35.6089C87.8687 36.0367 87.1456 36.2433 86.1572 36.2433C85.5966 36.2433 84.9625 36.1547 84.2102 35.9925L83.7085 33.7354C84.5494 33.9567 85.2722 34.0599 85.8918 34.0599C86.1425 34.0599 86.305 34.001 86.4082 33.8534C86.5262 33.6912 86.6294 33.0273 86.7032 31.8767H83.5756C83.4576 33.2781 83.1184 34.237 82.5873 34.7238C81.953 35.3434 81.0386 35.8744 79.8436 36.317L78.5453 34.296C79.4304 34.0304 80.1092 33.6911 80.6108 33.2781C80.9353 33.0126 81.1418 32.5405 81.2745 31.8767H79.1208V29.7081H89.0341L89.0489 29.7228ZM88.6506 36.494V42.7194H79.1208V36.494H88.6506ZM84.5347 46.6582L82.1004 47.7056C81.7316 46.4074 81.2744 45.2715 80.7433 44.2388L82.9118 43.2652C83.5462 44.2979 84.0921 45.4338 84.5495 46.6582H84.5347ZM86.3787 40.5213V38.6626H81.3776V40.5213H86.3787ZM89.5355 46.5845L86.9539 47.8089C86.5556 46.5254 86.0392 45.3305 85.4196 44.1651L87.7505 43.0292C88.4586 44.1061 89.0339 45.301 89.5207 46.5845H89.5355Z" fill="#595757"/>
<path d="M102.119 41.495C101.249 39.9313 99.8618 38.4413 97.9883 37.0251L99.5816 35.6384C101.352 36.9661 102.783 38.4118 103.86 40.0198L102.119 41.4802V41.495Z" fill="#595757"/>
<path d="M118.022 30.1949C117.549 31.0358 116.93 31.9061 116.163 32.7765C115.115 33.8534 114.245 34.6205 113.581 35.0483L112.047 33.0273C112.755 32.5258 113.493 31.8914 114.274 31.1095C114.953 30.4014 115.499 29.7081 115.912 29L118.022 30.1949ZM119.379 34.6353C118.803 35.7122 118.036 36.8038 117.048 37.925V47.8826H114.688V40.1378C114.363 40.4033 114.068 40.6099 113.817 40.7721L112.18 38.6626C113.109 38.0282 114.083 37.2021 115.115 36.1695C116.03 35.2548 116.723 34.3255 117.269 33.4256L119.379 34.65V34.6353ZM130.93 35.2844V37.6447H126.961V44.9027C126.961 46.0976 126.711 46.8794 126.253 47.2335C125.752 47.6613 124.896 47.8974 123.642 47.8974C122.654 47.8974 121.739 47.8089 120.898 47.6466L120.5 45.1387C121.532 45.4043 122.58 45.537 123.642 45.537C124.217 45.537 124.527 45.2125 124.527 44.5044V37.6447H119.202V35.2844H130.915H130.93ZM129.956 29.8851V32.1422H120.264V29.8851H129.956Z" fill="#595757"/>
<path d="M140.917 31.0062C140.091 31.4046 139.221 31.7439 138.335 32.0537V34.7975H140.843V37.0546H138.335V37.2021C139.412 38.1758 140.356 39.1199 141.168 40.0493L139.707 42.0556C139.25 41.3475 138.793 40.7131 138.35 40.1378V47.8088H136.019V41.0082C135.459 42.1293 134.825 43.162 134.072 44.0913L132.715 42.3948C133.334 41.6867 133.998 40.6836 134.692 39.3854C135.105 38.6478 135.474 37.8807 135.783 37.0694H133.187V34.8123H136.019V32.806C135.4 32.9978 134.78 33.1601 134.161 33.2781L133.025 31.1685C135.193 30.7555 137.391 30.0769 139.575 29.1475L140.932 31.0062H140.917ZM151.258 38.8396C150.019 39.0314 148.721 39.1936 147.393 39.3559V41.2589H150.934V43.4422H147.393V45.3895H151.421V47.558H140.504V45.3895H145.033V43.4422H141.256V41.2589H145.033V39.6067C143.897 39.7247 142.746 39.8133 141.566 39.9018L140.755 37.7184C144.162 37.5119 147.305 37.1874 150.196 36.7743L151.243 38.8691L151.258 38.8396ZM150.919 29.5606V36.0957H141.33V29.5606H150.919ZM148.588 33.9124V31.7291H143.676V33.9124H148.588Z" fill="#595757"/>
<path d="M164.076 41.495C163.206 39.9313 161.819 38.4413 159.945 37.0251L161.539 35.6384C163.309 36.9661 164.74 38.4118 165.817 40.0198L164.076 41.4802V41.495Z" fill="#595757"/>
<path d="M178.756 33.2781C178.254 34.2222 177.723 35.0778 177.148 35.7712C177.355 35.9334 177.561 36.081 177.767 36.2285C178.166 35.6531 178.505 35.0483 178.844 34.473L180.615 35.5204C179.7 36.9218 178.8 38.1167 177.886 39.1199C178.24 39.0756 178.594 39.0314 178.933 38.9724C178.874 38.7216 178.815 38.5003 178.741 38.2643L180.349 37.7627C180.467 38.0872 180.57 38.4413 180.674 38.7954V33.7354H181.972C182.09 33.2043 182.193 32.6585 182.282 32.1274L184.303 32.5257C184.199 32.9831 184.096 33.3666 183.978 33.7501H186.309V35.9039L186.811 35.2844C186.929 35.3729 187.032 35.4466 187.12 35.5351C187.784 34.709 188.359 33.8239 188.817 32.865L190.602 33.7501C189.923 34.9746 189.215 35.9334 188.492 36.6415C188.684 36.8333 188.861 36.9956 189.023 37.1579C189.761 36.2727 190.425 35.3434 191 34.3845L192.697 35.3581C192.033 36.3022 191.398 37.1726 190.779 37.925L192.062 37.5561C192.475 38.5298 192.785 39.6067 193.006 40.7868L191.251 41.3474C191.207 41.1852 191.192 41.0229 191.162 40.8459C189.702 41.2147 188.02 41.4065 186.147 41.4212L186.058 40.9491H180.659V40.7426L179.272 41.1704C179.257 41.0081 179.228 40.8459 179.213 40.6689C177.856 41.0377 176.322 41.2294 174.611 41.2442L174.286 39.3264C174.581 39.3264 174.891 39.3264 175.171 39.3116C175.643 38.8396 176.1 38.338 176.513 37.8512C175.732 37.2169 174.906 36.6563 174.035 36.1842L175.26 34.65C175.363 34.709 175.466 34.768 175.569 34.8418C176.071 34.1042 176.484 33.3813 176.794 32.629L178.741 33.2928L178.756 33.2781ZM182.223 41.908V41.2442H184.48V41.908H192.313V43.6783H187.091C187.519 43.8848 187.976 44.047 188.433 44.1946C189.672 44.6519 191.162 45.006 192.903 45.2862L191.767 47.4548C190.012 46.9827 188.374 46.3631 186.884 45.5813C186.014 45.1535 185.217 44.6519 184.494 44.1208V47.7941H182.237V44.3863C181.603 44.8584 180.939 45.2715 180.231 45.6403C178.284 46.5549 176.617 47.1745 175.215 47.5433L174.079 45.596C175.51 45.301 177.015 44.8732 178.608 44.2978C179.169 44.0913 179.685 43.8848 180.143 43.6783H174.832V41.908H182.252H182.223ZM179.007 29.9441V29.1328H181.337V29.9441H185.616V29.1328H187.946V29.9441H192.475V31.8914H187.946V32.9388H185.616V31.8914H181.337V32.9388H179.007V31.8914H174.566V29.9441H179.007ZM184.391 36.494V35.5204H182.636V36.494H184.391ZM184.391 39.1642V38.1167H182.636V39.1642H184.391ZM186.855 39.4592C187.179 39.1641 187.474 38.8839 187.74 38.5888C187.268 38.1315 186.796 37.7037 186.338 37.3349V39.4887C186.501 39.4887 186.692 39.4887 186.855 39.4739V39.4592ZM190.528 38.2495C190.203 38.6183 189.894 38.9724 189.599 39.2674C190.012 39.2231 190.425 39.1789 190.794 39.1051C190.705 38.7953 190.602 38.5003 190.528 38.2643V38.2495Z" fill="#595757"/>
<path d="M200.383 29.9441C200.265 30.3129 200.132 30.667 200.029 30.9915H211.683C211.683 37.0694 211.461 40.5803 211.004 41.5245C210.65 42.5718 209.809 43.0882 208.467 43.0882C207.965 43.0882 207.478 43.0439 207.006 42.9259L206.534 40.5951C207.316 40.7573 207.98 40.8459 208.482 40.8459C208.703 40.8459 208.85 40.6246 208.939 40.1673C209.057 39.3854 209.131 37.0694 209.131 33.2633H199.232C199.011 33.7797 198.804 34.2517 198.612 34.6648C198.568 34.7533 198.524 34.8271 198.509 34.8713H206.386V42.2916H199.527V44.2388C199.527 44.7109 199.748 44.9764 200.25 45.0207C200.56 45.1092 201.917 45.124 204.321 45.124C206.269 45.124 207.581 45.1092 208.245 45.0354C209.116 45.0207 209.809 44.947 210.355 44.8289C210.871 44.6224 211.181 43.9586 211.299 42.8522L213.659 43.9881C213.246 45.478 212.686 46.4221 211.963 46.8794C211.387 47.0712 210.812 47.1892 210.222 47.2335C208.467 47.322 206.505 47.381 204.307 47.381C201.681 47.381 200.014 47.322 199.306 47.2335C197.875 47.145 197.181 46.3041 197.181 44.7109V37.3496C196.96 37.7037 196.724 38.0282 196.517 38.338L194.6 36.8776C195.308 35.7417 195.927 34.5615 196.458 33.3223C197.078 31.8914 197.55 30.4899 197.904 29.1328L200.397 29.9441H200.383ZM199.497 37.1431V40.064H204.026V37.1431H199.497Z" fill="#595757"/>
<path d="M218.924 30.844V29.3983H221.196V30.844H223.94V32.1717C224.294 31.7734 224.604 31.3898 224.884 31.021L226.655 32.0537V30.1359H234.252C233.617 32.6142 232.85 34.886 231.965 36.9071C233.426 38.8248 234.178 40.5804 234.178 42.1588C234.178 44.3274 233.293 45.4042 231.508 45.4042C230.888 45.4042 230.387 45.3158 229.974 45.1535L229.649 42.5719C230.313 42.8964 230.932 43.0439 231.508 43.0439C231.655 43.0439 231.729 42.7489 231.729 42.1588C231.729 40.7131 231.05 39.0609 229.723 37.2464C230.342 35.6532 230.859 34.0452 231.257 32.4077H229V47.9121H226.64V32.3929C226.109 33.1305 225.504 33.8534 224.796 34.5763H226.079V36.6858H222.539C221.934 37.1579 221.388 37.6004 220.872 37.9692H225.519V47.9121H223.158V47.027H219.691V47.9121H217.361V40.2263C217.169 40.3295 217.007 40.4181 216.889 40.4771L215.502 38.7068C216.549 38.1462 217.626 37.4824 218.733 36.7006H215.591V34.591H218.895V32.9831H216.475V30.8735H218.895L218.924 30.844ZM223.202 41.495V40.0493H219.736V41.495H223.202ZM223.202 44.9764V43.5308H219.736V44.9764H223.202ZM223.217 32.9388H221.196V34.5468H221.491C222.126 34.0157 222.716 33.4699 223.232 32.9388H223.217Z" fill="#595757"/>
<path d="M241.998 37.866C242.308 37.2464 242.574 36.612 242.824 35.9482L245.155 36.7596C245.007 37.1579 244.86 37.5267 244.727 37.8807H254.611V40.064H250.908C250.407 41.3622 249.773 42.4539 249.005 43.3242C248.961 43.3832 248.902 43.4275 248.858 43.4718C250.805 44.1356 252.575 44.8142 254.183 45.537L252.649 47.8089C250.835 46.8942 248.799 46.0534 246.571 45.2863C246.04 45.5961 245.48 45.8911 244.86 46.1271C242.632 46.9975 240.257 47.5876 237.735 47.8826L236.997 45.6108C239.638 45.36 241.806 44.9027 243.459 44.2684C242.751 44.0618 242.028 43.8553 241.305 43.6488C241.187 43.811 241.054 43.9586 240.951 44.0766L238.768 42.7932C239.505 41.9228 240.198 41.0229 240.788 40.0493H236.422V37.866H241.983H241.998ZM246.025 32.0979C246.748 33.0126 247.353 33.9419 247.825 34.8861L245.494 36.2433C244.993 35.2106 244.359 34.2223 243.547 33.2634L245.288 32.1422C243.636 32.2602 241.895 32.3487 240.125 32.393C240.862 33.3371 241.467 34.3402 241.939 35.3434L239.579 36.7301C239.107 35.6089 238.458 34.5615 237.661 33.5732L239.431 32.4225C239.033 32.4372 238.664 32.4667 238.295 32.4667L237.573 30.1949C242.426 30.1949 247.309 29.8851 252.177 29.2213L253.298 31.2423C252.782 31.3308 252.28 31.4046 251.793 31.4636L253.549 32.0389C252.826 34.0452 252.015 35.7122 251.13 37.0399L248.71 35.7564C249.684 34.355 250.451 32.9535 250.982 31.5669C249.419 31.7734 247.751 31.9652 246.025 32.0832V32.0979ZM247.102 41.9375C247.56 41.4065 247.943 40.7574 248.283 40.064H243.695C243.37 40.6394 243.06 41.1999 242.721 41.7163C243.975 42.0408 245.185 42.3506 246.32 42.6899C246.615 42.4391 246.852 42.1883 247.102 41.9523V41.9375Z" fill="#595757"/>
<path d="M257.34 38.1167V36.0957H264.834V35.4614H258.786V33.5141H264.834V32.8798H257.886V30.8588H261.604C261.486 30.5342 261.338 30.1949 261.191 29.9146L263.463 29.177C263.713 29.7081 263.92 30.2981 264.082 30.8735H267.991C268.08 30.7555 268.139 30.6522 268.183 30.5489C268.39 30.1211 268.552 29.6638 268.714 29.1918L271.207 30.0031C271.06 30.2982 270.883 30.608 270.647 30.8882H274.349V32.9093H267.077V33.5436H273.465V35.4909H267.077V36.1252H274.91V38.1463H270.529L271.679 38.4708C271.532 38.8249 271.385 39.1346 271.252 39.4149H275.485V41.4359H256.824V39.4149H260.94C260.748 39.1641 260.571 38.9134 260.379 38.6921L261.25 38.1315H257.326L257.34 38.1167ZM273.479 47.8088H271.222V47.2335H260.969V47.8088H258.698V42.1441H273.479V47.8088ZM271.222 45.301V44.0766H260.969V45.301H271.222ZM268.758 39.3854C268.921 38.9724 269.083 38.5593 269.26 38.102H262.799C263.123 38.5151 263.418 38.9429 263.713 39.3854H268.773H268.758Z" fill="#595757"/>
<path d="M280.737 30.844V41.0376C281.46 40.9196 282.168 40.7426 282.831 40.5803V29.236H285.162V36.553C285.782 35.5794 286.313 34.5025 286.8 33.3223C287.419 31.8766 287.921 30.5194 288.246 29.236L290.576 29.9589C290.384 30.6817 290.178 31.3898 289.942 32.0684H296.079V34.3254H294.751C294.382 37.4234 293.659 40.005 292.538 42.0998C292.45 42.2178 292.391 42.3506 292.346 42.4243C293.394 43.7078 294.663 44.7551 296.153 45.6255L294.603 47.9858C293.069 46.8942 291.83 45.773 290.886 44.5781C289.809 45.8616 288.496 46.9385 286.932 47.8236L285.487 45.8763C287.065 45.0059 288.378 43.8995 289.455 42.5423C288.629 41.1852 287.95 39.5624 287.405 37.7037C287.198 38.0577 286.991 38.3823 286.785 38.6773L285.148 37.4381V47.8088H282.817V42.8226C281.415 43.2504 279.896 43.6488 278.288 44.0028L277.477 41.5835C277.772 41.5392 278.081 41.4949 278.361 41.4359V30.8292H280.722L280.737 30.844ZM290.694 39.9903C290.739 40.1083 290.797 40.1968 290.856 40.2853C291.638 38.6331 292.184 36.6415 292.464 34.3107H289.057C289.012 34.4287 288.968 34.532 288.939 34.6205C288.85 34.8123 288.791 34.9745 288.717 35.1221C289.234 36.9956 289.898 38.633 290.694 40.005V39.9903Z" fill="#595757"/>
<path d="M302.998 29.5606C302.85 30.549 302.703 31.5078 302.57 32.3929H306.229C306.125 34.9303 305.815 37.3054 305.299 39.5182C305.093 40.3591 304.871 41.1114 304.621 41.7753C305.447 42.5129 306.258 43.3095 307.04 44.0913L305.432 45.8763C304.812 45.1682 304.208 44.5339 303.617 43.929C303.499 44.1356 303.352 44.3421 303.219 44.5044C302.305 45.8321 301.213 46.9385 299.929 47.8973L298.646 46.1271C299.738 45.301 300.667 44.3273 301.419 43.1914C301.582 42.9702 301.773 42.6899 301.936 42.4096C301.522 42.085 301.11 41.7458 300.711 41.4212C300.608 41.79 300.505 42.1293 300.416 42.4096L298.233 41.9375C298.897 39.6509 299.457 37.1874 299.929 34.5763H298.145V32.4077H300.298C300.461 31.3751 300.608 30.3277 300.726 29.2508L302.998 29.5753V29.5606ZM303.204 39.2674C303.573 37.6742 303.839 36.1105 303.972 34.5615H302.201C301.892 36.2727 301.582 37.807 301.272 39.1642C301.803 39.5625 302.349 39.946 302.865 40.3148C302.983 39.9903 303.086 39.6362 303.219 39.2674H303.204ZM316.304 29.7966V31.8767C315.316 33.5141 314.15 34.9156 312.837 36.0957V37.3791H316.806V39.6362H312.837V45.1387C312.837 46.1714 312.616 46.8499 312.159 47.1597C311.657 47.5285 310.817 47.7203 309.622 47.7203C308.987 47.7203 308.382 47.6613 307.851 47.558L307.453 45.065C308.161 45.3305 308.884 45.4633 309.622 45.4633C309.872 45.4633 310.094 45.419 310.3 45.3452C310.418 45.2272 310.507 44.9469 310.507 44.5781V39.6657H306.14V37.4087H310.507V34.2517L311.451 34.3107C312.174 33.6764 312.852 32.924 313.472 32.0832H306.774V29.8261H316.304V29.7966Z" fill="#595757"/>
<path d="M327.235 42.0851L326.453 40.7426C327.073 40.4918 327.633 40.064 328.12 39.4002H326.615V36.4498H329.772V38.5151C329.772 40.0198 328.932 41.2294 327.235 42.0851Z" fill="#595757"/>
<path d="M54.2779 64.1983C53.7026 67.7093 53.0387 70.645 52.3306 73.0053L50 71.7809C50.8261 68.978 51.4602 66.1604 51.9175 63.387L54.2779 64.1983ZM57.8331 62.1921V72.0317C57.8331 72.5628 58.1871 72.8578 58.9247 72.8725C59.2492 72.9168 59.7068 72.9168 60.2821 72.9168C61.6098 72.9168 62.4062 72.8726 62.657 72.7693C62.9225 72.5775 63.085 72.2677 63.1735 71.8546C63.262 71.6481 63.3208 70.8663 63.3798 69.5238L65.7994 70.881C65.6518 72.8578 65.3419 74.0822 64.855 74.5838C64.5305 74.805 64.0733 74.9821 63.498 75.0853C63.1292 75.1886 62.0524 75.2476 60.2969 75.2476C59.4708 75.2476 58.7479 75.2034 58.0841 75.1444C56.2843 75.1001 55.3991 74.3182 55.3991 72.8283V62.1921H57.8331ZM62.7456 60.8939L60.8868 63.1509C59.4411 61.661 57.9363 60.3628 56.3579 59.2859L58.128 57.5157C59.8245 58.4893 61.3589 59.6252 62.7308 60.9087L62.7456 60.8939ZM69.1186 70.8367L66.6252 71.8694C66.0646 69.0223 65.3714 66.4701 64.5305 64.1983L66.699 63.1509C67.6432 65.5113 68.4547 68.0634 69.1186 70.8367Z" fill="#595757"/>
<path d="M79.4297 62.4133V68.6387H76.7891V72.9168C76.7891 74.0379 76.6415 74.7903 76.376 75.2181C76.0514 75.6754 75.4467 75.9262 74.6058 75.9262C74.0305 75.9262 73.4845 75.8672 72.9977 75.764L72.7027 74.1265C72.7027 74.1265 72.6584 74.1855 72.6584 74.2297L70.6523 73.1823C71.2277 71.8989 71.6849 70.645 72.0094 69.3763L74.1189 70.0991C73.7501 71.4416 73.3812 72.5775 72.9682 73.5364C73.396 73.6249 73.8387 73.6544 74.2665 73.6544C74.3255 73.6544 74.3695 73.5659 74.3843 73.4036C74.399 73.1823 74.4286 72.8283 74.4286 72.371V68.6535H71.6849V62.4281H79.4297V62.4133ZM76.8481 57.2501V59.1974H80.1821V61.4545H71.0503V59.1974H74.4434V57.2501H76.8629H76.8481ZM77.1874 66.4701V64.6114H73.9568V66.4701H77.1874ZM80.2264 71.6776C80.8017 70.8662 81.2738 70.0106 81.6721 69.096C82.1294 68.0044 82.4538 66.2636 82.6603 63.8885H80.0935V61.6167H82.7932C82.8522 60.289 82.8962 58.8433 82.8962 57.2501H85.1681C85.1534 58.8581 85.109 60.3038 85.0647 61.6167H89.5347V63.8885H84.947C84.9322 64.1393 84.9027 64.3901 84.8879 64.6114H86.6285V72.666C86.6285 73.1233 86.6434 73.3446 86.7171 73.3741C86.7319 73.4626 86.8203 73.4774 86.9678 73.4774C87.2334 73.4774 87.3957 73.3889 87.44 73.1823C87.499 73.0201 87.5434 72.6513 87.5876 72.1054C87.6319 71.7514 87.6464 71.1908 87.6907 70.409L89.7709 71.6334C89.5644 73.6101 89.2692 74.7755 88.93 75.1443C88.8267 75.3509 88.5759 75.4689 88.2071 75.5574C88.0006 75.6164 87.5874 75.6607 86.9678 75.6607C86.3482 75.6607 85.891 75.5721 85.5664 75.4541C84.7846 75.3361 84.3862 74.5248 84.3862 73.0791V68.2847C84.1797 69.2288 83.9289 69.9959 83.6781 70.586C82.7635 72.6955 81.4212 74.451 79.6952 75.9114L78.3381 73.8019C79.0019 73.2266 79.5919 72.5627 80.1083 71.8546L78.0871 72.8283C77.792 71.8104 77.4232 70.8515 76.9511 69.9369L78.9723 68.9632C79.4739 69.7894 79.8871 70.6745 80.2264 71.6629V71.6776ZM89.2102 60.0825L87.1302 61.3069C86.7319 60.4808 86.2155 59.699 85.5812 58.9466L87.6024 57.6632C88.2663 58.4303 88.7971 59.2269 89.2102 60.0825Z" fill="#595757"/>
<path d="M97.0735 65.0834C97.5456 64.0508 97.9584 62.9739 98.3272 61.8527L100.747 62.6641C100.452 63.505 100.142 64.3163 99.832 65.0834H109.775V67.4143H106.058C105.645 68.9042 105.025 70.1434 104.155 71.176C106.176 71.9579 108.02 72.7693 109.687 73.6397L108.152 75.9114C106.338 74.8788 104.287 73.9347 102.06 73.0643C99.832 74.4657 96.8375 75.4394 93.0758 75.9999L92.0284 73.7282C94.8756 73.3594 97.2359 72.784 99.0504 71.9727C98.2243 71.7071 97.3831 71.4416 96.5275 71.1613C96.321 71.4563 96.1294 71.6923 95.9671 71.9431L93.71 70.6597C94.4919 69.6271 95.2147 68.5502 95.8638 67.4143H92.0137V65.0834H97.0588H97.0735ZM102.119 57.2501V59.1089H109.539V63.5493H107.12V61.4397H94.6983V63.5493H92.2791V59.1089H99.6108V57.2501H102.119ZM103.505 67.4143H98.7994C98.4896 68.0191 98.18 68.5649 97.8702 69.1108C99.2126 69.5091 100.496 69.8926 101.735 70.3057C102.517 69.5386 103.122 68.565 103.505 67.4143Z" fill="#595757"/>
<path d="M128.097 63.0034V65.2605H122.934V67.7536H128.347V69.9369H122.934V73.1381C124.01 73.2266 125.25 73.2413 126.695 73.2413C128.23 73.2413 129.587 73.1528 130.767 72.9906L130.044 75.6607H126.695C124.011 75.6607 121.96 75.5427 120.573 75.2919C119.422 75.0854 118.419 74.7166 117.593 74.1412C117.018 73.7282 116.516 73.2561 116.088 72.6807C115.469 73.8757 114.731 74.9378 113.876 75.9262L112.105 74.2297C113.123 73.0348 113.905 71.8399 114.466 70.586C115.071 69.2435 115.454 67.7979 115.661 66.2194L117.932 66.6914C117.77 67.9896 117.475 69.1845 117.107 70.3057C117.52 70.9253 117.947 71.4268 118.405 71.7661C119.024 72.2972 119.762 72.6808 120.588 72.843V65.2458H115.012V62.9887H128.097V63.0034ZM122.845 57.1764V58.8138H130.427V62.6789H128.097V61.0709H115.012V62.6789H112.681V58.8138H120.352V57.1764H122.845Z" fill="#595757"/>
<path d="M141.641 57.914C141.39 58.2828 141.125 58.6221 140.829 58.9466H147.778V60.9677C146.288 62.2511 144.798 63.328 143.293 64.1836L144.857 64.995C144.488 65.408 144.09 65.7768 143.721 66.1309H149.961V68.2994C148.663 70.1582 146.834 71.6481 144.488 72.7693C141.995 74.0232 138.808 75.1001 134.943 76L133.896 73.7282C136.33 73.2266 138.484 72.6513 140.299 72.0169C139.9 71.4416 139.472 70.881 138.971 70.3499L141.081 69.0665C141.7 69.7304 142.216 70.3942 142.644 71.0728C142.836 70.9843 143.013 70.881 143.205 70.8073C144.739 70.0254 145.934 69.1698 146.804 68.2699H141.228C141.021 68.4322 140.815 68.5945 140.608 68.742C139.207 69.6861 137.702 70.5417 136.079 71.3236L134.693 69.2141C136.124 68.6387 137.496 67.9159 138.853 67.0013C139.635 66.4849 140.387 65.9538 141.066 65.3638C138.528 66.5587 136.05 67.3258 133.645 67.6798L132.834 65.585C134.678 65.2605 136.448 64.7589 138.159 64.1246C137.835 63.623 137.452 63.1509 137.038 62.6789L139.045 61.3955C139.576 61.9708 140.033 62.5756 140.402 63.1952C141.803 62.5756 143.042 61.838 144.119 60.9824H138.705C137.864 61.661 136.861 62.2806 135.725 62.8412L134.029 61.1447C135.253 60.5251 136.242 59.9055 137.024 59.2859C137.894 58.6221 138.617 57.9287 139.192 57.1764L141.611 57.914H141.641Z" fill="#595757"/>
<path d="M171.35 57.914V60.0825C169.403 61.9413 167.116 63.5492 164.49 64.8917V72.5775C164.49 73.8167 164.328 74.6281 164.033 75.0706C163.664 75.5722 163 75.8082 162.056 75.8082C160.935 75.8082 159.888 75.7197 158.914 75.5574L158.516 73.0643C159.548 73.2856 160.596 73.3889 161.658 73.3889C161.747 73.3889 161.805 73.3004 161.85 73.0938C161.894 72.8726 161.909 72.489 161.909 72.0022V62.8854H163.045C164.697 62.1183 166.202 61.2332 167.574 60.2153H154.725V57.8845H171.365L171.35 57.914Z" fill="#595757"/>
<path d="M185.468 68.4912C184.936 69.0223 184.273 69.3026 183.52 69.3026C182.768 69.3026 182.119 69.037 181.573 68.4912C181.027 67.9454 180.762 67.3111 180.762 66.5439C180.762 65.7768 181.027 65.1425 181.573 64.5967C182.104 64.0656 182.753 63.7853 183.52 63.7853C184.287 63.7853 184.922 64.0508 185.468 64.5967C186.013 65.1425 186.279 65.7916 186.279 66.5439C186.279 67.2963 186.013 67.9454 185.468 68.4912ZM184.184 65.8949C183.993 65.7031 183.771 65.5998 183.52 65.5998C183.255 65.5998 183.019 65.7031 182.856 65.8949C182.65 66.0866 182.561 66.3079 182.561 66.5587C182.561 66.8242 182.65 67.0603 182.856 67.2225C183.019 67.4291 183.255 67.5175 183.52 67.5175C183.771 67.5175 183.993 67.4291 184.184 67.2225C184.376 67.0603 184.479 66.8242 184.479 66.5587C184.479 66.3079 184.376 66.0866 184.184 65.8949Z" fill="#595757"/>
<defs>
<linearGradient id="paint0_linear_86_62015" x1="240.008" y1="222.468" x2="240.008" y2="390.725" gradientUnits="userSpaceOnUse">
<stop stop-color="white"/>
<stop offset="1" stop-color="white" stop-opacity="0.6"/>
</linearGradient>
</defs>
</svg>
