<svg width="481" height="454" viewBox="0 0 481 454" fill="none" xmlns="http://www.w3.org/2000/svg">
<path opacity="0.8" d="M437.162 0H43.4224C19.6021 0 0.291992 19.2976 0.291992 43.1024V410.898C0.291992 434.702 19.6021 454 43.4224 454H437.162C460.982 454 480.292 434.702 480.292 410.898V43.1024C480.292 19.2976 460.982 0 437.162 0Z" fill="url(#paint0_linear_86_168058)"/>
<mask id="mask0_86_168058" style="mask-type:luminance" maskUnits="userSpaceOnUse" x="17" y="100" width="445" height="339">
<path d="M17.292 100V399.081C17.292 421.038 35.2539 439 57.2108 439H421.651C443.608 439 461.57 421.038 461.57 399.081V100H17.292Z" fill="white"/>
</mask>
<g mask="url(#mask0_86_168058)">
<path d="M686.141 -357.595C913.808 -249.715 830.084 250.741 477.38 512.628C124.676 774.516 -465.186 800.421 -629.569 597.344C-793.951 394.266 -307.447 376.35 -130.352 189.097C46.7588 1.84436 245.842 -566.247 686.125 -357.595H686.141Z" fill="#D3EBED"/>
<path d="M147.732 98.5755L422.069 306.577C426.064 309.597 428.836 313.638 430.276 318.067C432.335 324.307 431.778 331.306 428.372 337.283C427.861 338.181 427.287 339.064 426.637 339.9L293.874 515.013C293.285 515.787 292.666 516.499 292.016 517.181C287.231 522.151 280.666 524.629 274.1 524.412C269.362 524.257 264.608 522.678 260.551 519.596L-13.7857 311.594C-17.9045 308.467 -20.7225 304.255 -22.1471 299.671C-23.6181 294.918 -23.5718 289.761 -21.9305 284.961C-21.1408 282.623 -19.9484 280.362 -18.369 278.272L114.394 103.159C116.02 101.006 117.956 99.1948 120.077 97.7703C124.289 94.9366 129.275 93.574 134.261 93.7598C138.968 93.9302 143.675 95.4941 147.732 98.56V98.5755Z" fill="#7C546D"/>
<path d="M408.194 340.922L289.878 496.974C282.802 506.311 269.5 508.138 260.179 501.062L4.15968 306.949C-5.17742 299.873 -7.00479 286.572 0.0715842 277.25L118.388 121.198C125.465 111.861 138.766 110.034 148.087 117.11L404.106 311.223C413.443 318.299 415.27 331.6 408.194 340.922Z" fill="#643D58"/>
<path d="M428.696 364.659L420.319 375.7C418.167 378.549 414.281 379.462 411.075 377.868L401.599 373.145L421.171 347.332L428.278 355.183C430.678 357.831 430.849 361.81 428.696 364.659Z" fill="#42312F"/>
<path d="M315.877 -123.208L590.214 84.7943C594.209 87.8138 596.981 91.8553 598.421 96.2838C600.48 102.524 599.923 109.523 596.516 115.5C596.005 116.398 595.432 117.281 594.782 118.117L462.019 293.23C461.43 294.004 460.811 294.716 460.16 295.398C455.376 300.368 448.81 302.846 442.245 302.629C437.507 302.474 432.753 300.895 428.696 297.813L154.359 89.8113C150.24 86.6834 147.422 82.4717 145.997 77.8883C144.526 73.1346 144.573 67.9783 146.214 63.1781C147.004 60.84 148.196 58.5792 149.776 56.4888L282.539 -118.624C284.165 -120.777 286.1 -122.588 288.222 -124.013C292.433 -126.846 297.419 -128.209 302.405 -128.023C307.112 -127.853 311.82 -126.289 315.877 -123.223V-123.208Z" fill="#7C546D"/>
<path d="M576.356 119.139L458.04 275.191C450.963 284.528 437.662 286.355 428.341 279.278L172.322 85.1659C162.984 78.0896 161.157 64.7885 168.234 55.4669L286.55 -100.585C293.626 -109.922 306.928 -111.749 316.249 -104.673L572.268 89.4397C581.605 96.516 583.433 109.817 576.356 119.139Z" fill="#643D58"/>
<path d="M190.076 114.172L180.805 126.4C179.394 128.261 179.759 130.912 181.619 132.323L209.11 153.167C210.97 154.577 213.622 154.212 215.032 152.352L224.304 140.124C225.714 138.264 225.35 135.612 223.489 134.202L195.999 113.358C194.138 111.947 191.487 112.312 190.076 114.172Z" fill="#42312F"/>
<path d="M367.357 248.596L358.085 260.824C356.675 262.684 357.039 265.336 358.9 266.746L386.39 287.59C388.251 289 390.902 288.636 392.313 286.775L401.584 274.548C402.995 272.687 402.63 270.036 400.77 268.625L373.279 247.781C371.419 246.371 368.767 246.735 367.357 248.596Z" fill="#42312F"/>
<path d="M231.101 376.66C231.225 380.546 221.547 392.02 215.09 398.106C212.644 400.397 210.661 401.915 209.841 401.977C206.821 402.163 185.856 387.236 179.182 380.856C173.608 375.529 134.788 339.172 121.425 325.902C118.824 323.316 117.182 321.613 116.95 321.179C115.309 318.191 135.377 305.788 136.646 304.363C137.901 302.923 142.19 299.16 144.946 302.397C147.687 305.633 194.574 344.313 204.004 352.102C213.434 359.906 230.962 371.302 231.117 376.66H231.101Z" fill="#CC8639"/>
<path opacity="0.5" d="M210.074 383.876C210.105 387.406 212.242 390.503 213.759 393.693C214.394 395.04 214.905 396.573 215.107 398.09C212.66 400.382 210.678 401.899 209.857 401.961C206.838 402.147 185.872 387.22 179.198 380.841C173.624 375.514 134.804 339.157 121.441 325.886C122.154 319.6 134.959 324.833 139.574 323.424C142.036 322.681 144.018 320.42 146.588 320.42C148.694 320.42 150.444 321.969 151.992 323.424C166.749 337.19 182.527 349.872 199.158 361.299C204.871 365.232 211.375 370.28 211.034 377.202C210.926 379.447 210.074 381.63 210.09 383.891L210.074 383.876Z" fill="#EFB453"/>
<path d="M317.426 444.11C317.813 450.149 293.766 474.026 289.724 480.715C285.683 487.404 280.898 496.648 273.265 494.45C265.615 492.251 203.29 439.557 203.29 439.557C201.571 438.489 201.122 436.461 201.417 434.045C202.113 428.362 206.867 420.496 208.694 417.755C210.134 415.588 214.501 405.709 219.533 397.223C223.637 390.286 228.189 384.263 231.952 384.108C235.761 383.953 245.842 391.029 256.526 399.267C269.362 409.162 283.05 420.744 287.711 423.469C291.861 425.9 298.891 429.4 305.069 433.054C311.635 436.941 317.24 440.997 317.442 444.11H317.426Z" fill="#A44746"/>
<path d="M237.387 452.208C237.774 453.679 238.069 455.444 237.047 456.575C235.436 458.355 232.541 456.838 230.729 455.259C221.578 447.315 212.566 438.566 201.433 434.045C202.129 428.362 206.883 420.496 208.71 417.755C210.15 415.588 214.517 405.709 219.549 397.223C221.175 408.589 224.814 418.204 229.522 429.121C232.742 436.6 235.374 444.327 237.418 452.208H237.387Z" fill="#BC5D59"/>
<path d="M305.07 433.054C305.07 433.828 305.07 434.602 305.024 435.377C304.9 437.715 304.559 440.084 303.614 442.236C300.564 449.158 291.753 452.967 290.654 460.446C290.344 462.536 290.7 464.72 290.174 466.764C289.632 468.823 287.619 470.774 285.606 470.139C284.6 469.829 283.887 468.962 283.268 468.111C279.211 462.443 277.399 455.522 275.386 448.833C271.531 436.058 266.638 423.655 261.404 411.376C259.747 407.489 258.261 403.262 256.526 399.267C269.363 409.162 283.051 420.744 287.712 423.469C291.862 425.9 298.891 429.4 305.07 433.054Z" fill="#BC5D59"/>
<path d="M337.618 412.971C331.718 418.715 324.022 438.148 319.145 437.374C314.267 436.6 282.478 414.318 271.886 405.337C261.311 396.356 239.385 383.272 238.053 379.06C237.093 376.071 239.044 372.03 242.032 367.973C246.771 361.532 254.095 354.997 256.557 352.334C259.917 348.664 264.702 337.5 269.301 333.892C270.199 333.211 271.066 332.792 271.933 332.762C277.275 332.591 339.646 382.977 346.072 388.645C352.514 394.312 343.502 407.226 337.618 412.955V412.971Z" fill="#B0C3DF"/>
<path opacity="0.5" d="M337.618 412.971C331.718 418.715 324.022 438.148 319.145 437.374C314.267 436.6 282.478 414.318 271.886 405.337C261.311 396.356 239.385 383.272 238.053 379.06C237.093 376.071 239.044 372.03 242.032 367.973C244.448 370.218 245.594 375.468 249.605 378.533C266.575 391.587 283.531 404.64 300.502 417.678C307.346 422.958 316.482 428.44 323.992 424.15C324.41 420.821 324.843 417.477 325.261 414.148C302.035 400.955 281.208 383.566 264.082 363.08C273.048 361.919 279.52 370.884 285.404 377.744C296.321 390.503 312.115 398.973 328.792 401.001C332.322 401.435 337.045 400.754 337.68 397.239C338.02 395.411 336.968 393.631 335.915 392.082C319.269 367.524 293.658 350.971 269.316 333.861C270.214 333.18 271.081 332.762 271.948 332.731C277.291 332.56 339.662 382.946 346.088 388.614C352.529 394.281 343.517 407.195 337.633 412.924L337.618 412.971Z" fill="#6E7699"/>
<path d="M58.4032 229.697C57.5516 223.689 110.384 146.654 117.987 137.999C125.59 129.358 125.946 120.47 131.954 119.619C137.962 118.767 159.64 136.946 159.64 136.946C159.64 136.946 151.356 145.865 155.227 155.403C159.098 164.942 162.954 170.516 176.208 169.897C189.463 169.277 192.56 163.254 192.56 163.254C192.56 163.254 207.673 180.921 209.221 186.651C210.754 192.38 202.268 212.494 199.404 215.25C196.539 218.007 146.354 278.086 143.769 281.524C141.198 284.946 131.753 283.227 126.411 279.836C121.068 276.445 58.3877 229.682 58.3877 229.682L58.4032 229.697Z" fill="#EFB453"/>
<path d="M122.602 155.728C123.747 155.883 124.692 156.735 124.955 157.865C126.922 166.258 135.159 199.983 141.028 202.46C146.571 204.798 176.704 197.134 187.063 194.393C188.828 193.928 190.562 195.26 190.578 197.087V199.224C190.593 200.494 189.757 201.609 188.534 201.934C178.965 204.52 139.356 214.879 134.524 209.862C129.972 205.139 122.091 170.81 119.505 159.088C119.087 157.184 120.681 155.45 122.617 155.713L122.602 155.728Z" fill="#CC8639"/>
<path d="M118.251 189.453C119.025 189.825 119.583 190.522 119.769 191.358C120.884 196.421 125.08 214.414 128.363 215.808C130.654 216.783 143.429 216.907 153.308 216.845C157.984 216.814 160.555 222.28 157.551 225.873C156.653 226.941 155.367 227.638 153.974 227.793C146.665 228.644 123.377 230.859 121.038 225.114C118.995 220.097 114.303 201.144 111.964 191.466C111.407 189.159 113.776 187.255 115.913 188.292L118.267 189.438L118.251 189.453Z" fill="#CC8639"/>
<path d="M187.73 175.982C185.392 176.927 182.806 177.747 180.112 178.305C173.035 179.76 162.816 179.915 154.299 172.421C147.827 166.738 145.225 157.912 146.758 146.902C147.888 138.773 150.846 132.362 150.97 132.099C151.326 131.325 152.255 130.984 153.029 131.356C153.804 131.712 154.144 132.641 153.788 133.415C153.68 133.663 142.578 157.989 156.343 170.098C163.9 176.741 173.097 176.586 179.477 175.27C187.234 173.675 193.366 169.959 195.24 167.822C195.813 167.187 196.789 167.109 197.439 167.682C198.089 168.255 198.151 169.231 197.578 169.881C195.906 171.786 192.283 174.155 187.715 175.997L187.73 175.982Z" fill="#CC8639"/>
<path d="M6.54688 289.235C6.65527 299.578 41.4794 320.544 41.4794 320.544C41.4794 320.544 47.5338 336.927 52.7521 340.256C57.9703 343.585 74.6315 354.084 82.9467 351.436C91.2618 348.788 119.025 315.806 123.655 306.856C128.285 297.891 156.745 269.694 153.107 260.867C149.468 252.041 113.807 218.471 99.1433 208.995C84.4796 199.518 71.7052 198.605 66.1463 202.042C60.5874 205.48 30.2068 245.94 25.6389 249.889C21.071 253.838 6.45398 278.473 6.56237 289.25L6.54688 289.235Z" fill="#CFC7A0"/>
<path d="M124.12 308.343C123.656 308.497 123.114 308.42 122.696 308.095C122.557 308.002 109.456 298.076 101.838 292.27C94.2198 286.448 75.2052 270.979 75.0039 270.824C74.3381 270.282 74.2295 269.291 74.7715 268.61C75.3134 267.944 76.3047 267.835 76.986 268.377C77.1718 268.532 96.1557 283.986 103.743 289.761C111.346 295.568 124.461 305.478 124.585 305.586C125.282 306.113 125.406 307.088 124.895 307.785C124.693 308.048 124.415 308.234 124.12 308.327V308.343Z" fill="#B8AE84"/>
<path d="M78.5175 346.109C76.9846 346.605 73.9495 346.171 65.5879 341.696C60.6484 339.048 56.0341 336.137 55.9877 336.106C55.2599 335.642 55.043 334.682 55.5076 333.938C55.9721 333.211 56.9324 332.994 57.6756 333.443C57.7221 333.474 62.0265 336.199 66.7493 338.738C73.005 342.114 75.7458 342.919 76.8916 343.09C75.9316 341.866 72.3238 338.63 58.8214 331.229C49.825 326.305 40.8903 321.984 40.7974 321.938C40.0232 321.566 39.6825 320.622 40.0697 319.847C40.4413 319.073 41.386 318.733 42.1602 319.12C42.2531 319.166 51.6519 323.703 60.9116 328.813C66.3776 331.817 70.7289 334.434 73.8722 336.586C79.6015 340.519 80.3756 342.284 80.3601 343.616C80.3601 344.607 79.8644 345.443 79.0438 345.877C78.8889 345.954 78.7343 346.032 78.533 346.094L78.5175 346.109Z" fill="#B8AE84"/>
<path d="M87.1899 333.412C86.7718 333.551 86.2921 333.505 85.8895 333.257C83.5978 331.848 72.0462 324.71 70.2191 321.752C69.77 321.024 68.5624 319.073 76.5523 307.042C79.1227 303.171 81.9719 299.362 84.3565 296.59C88.4289 291.852 90.0702 291.372 91.2315 291.558C95.0716 292.161 102.458 301.917 104.625 304.89C105.136 305.586 104.982 306.577 104.285 307.088C103.588 307.599 102.597 307.445 102.086 306.748C98.0911 301.282 92.749 295.258 90.8909 294.701C89.7296 295.181 85.9048 299.052 80.671 306.593C75.5457 313.963 73.1457 318.98 73.0218 320.297C74.4619 322.17 82.2658 327.373 87.5305 330.594C88.2738 331.043 88.5062 332.018 88.0571 332.746C87.8558 333.087 87.5461 333.319 87.1899 333.427V333.412Z" fill="#B8AE84"/>
<path d="M95.4578 273.178C95.8913 274.54 95.148 275.98 93.7853 276.414C92.4227 276.847 90.9829 276.104 90.5493 274.741C90.1158 273.379 90.8588 271.939 92.2214 271.505C93.584 271.072 95.0242 271.815 95.4578 273.178Z" fill="#F0ECD2"/>
<path d="M106.111 281.849C106.545 283.211 105.802 284.652 104.439 285.085C103.076 285.519 101.636 284.775 101.203 283.413C100.769 282.05 101.512 280.61 102.875 280.176C104.238 279.743 105.677 280.486 106.111 281.849Z" fill="#F0ECD2"/>
<path d="M119.521 292.564C119.954 293.927 119.211 295.367 117.848 295.8C116.486 296.234 115.045 295.491 114.612 294.128C114.178 292.765 114.922 291.325 116.284 290.892C117.647 290.458 119.087 291.201 119.521 292.564Z" fill="#F0ECD2"/>
<path d="M22.5259 237.548C15.6818 248.604 16.9825 277.591 31.3985 286.308C45.8299 295.026 71.7202 290.102 77.0313 285.921C82.358 281.725 75.9936 269.616 75.9936 269.616C75.9936 269.616 91.5555 268.826 91.9271 259.551C92.2988 250.276 84.2625 232.872 73.826 226.213C63.3895 219.555 34.0618 218.905 22.5259 237.563V237.548Z" fill="#F0ECD2"/>
<path d="M25.9634 243.107C21.2561 257.089 27.001 277.714 41.2622 280.672C55.5078 283.614 76.0091 269.601 76.0091 269.601C76.0091 269.601 78.0995 244.81 67.9263 236.402C57.753 227.994 46.4339 223.767 37.3291 229.155C28.2242 234.544 25.9634 243.107 25.9634 243.107Z" fill="#B8AE84"/>
<path d="M31.0273 258.607C31.0273 258.607 30.9191 258.638 30.8572 258.653C30.1759 258.777 29.5256 258.313 29.4017 257.631C28.4727 252.212 29.2002 246.451 31.4454 241.435C31.8944 240.444 32.5294 239.158 33.5049 238.074C34.4185 237.052 35.5179 236.325 36.5708 235.612C36.865 235.427 37.1438 235.225 37.4225 235.024C37.7632 234.792 38.1037 234.544 38.4444 234.296C39.4044 233.584 40.4109 232.856 41.5568 232.299C44.6846 230.797 48.3079 231.014 51.219 231.168C51.9158 231.215 52.4423 231.803 52.3958 232.5C52.3494 233.197 51.7612 233.723 51.0644 233.677C48.3082 233.522 45.1645 233.336 42.6251 234.559C41.696 235.008 40.8289 235.643 39.9153 236.309C39.5592 236.572 39.2031 236.836 38.847 237.083C38.5528 237.285 38.2433 237.486 37.9491 237.687C36.9736 238.338 36.0598 238.957 35.3475 239.731C34.6042 240.552 34.0777 241.605 33.7216 242.441C31.6776 247.024 31.0118 252.258 31.848 257.198C31.9564 257.817 31.5847 258.421 30.9963 258.607H31.0273Z" fill="#CFC7A0"/>
<path d="M281.72 318.438C267.551 340.426 260.026 343.972 255.659 344.499C251.308 345.01 248.567 355.493 240.856 353.758C233.145 352.024 167.925 316.054 161.886 309.705C156.079 303.62 159.068 299.733 159.315 299.424C159.315 299.424 149.235 292.657 157.504 284.156C165.772 275.671 216.917 189.933 224.226 191.451C231.023 192.844 241.538 207.059 267.892 220.716C283.593 228.846 292.791 232.423 298.535 235.845C302.438 238.167 304.76 240.413 306.417 243.974C310.551 252.754 302.019 259.071 302.019 259.071C302.019 259.071 309.003 265.745 307.594 272.543C306.185 279.325 295.857 296.466 281.689 318.454L281.72 318.438Z" fill="#A29E56"/>
<path opacity="0.3" d="M281.719 318.438C267.551 340.426 260.026 343.972 255.659 344.499C251.308 345.01 248.567 355.493 240.856 353.758C233.145 352.024 167.924 316.054 161.885 309.705C156.079 303.62 159.067 299.733 159.315 299.424C159.315 299.424 224.737 336.246 230.775 336.849C236.814 337.453 232.015 333.381 238.843 320.993C245.656 308.59 286.783 261.642 296.352 250.245C301.555 244.051 300.548 239.081 298.535 235.845C302.437 238.167 304.76 240.413 306.417 243.974C310.551 252.754 302.019 259.071 302.019 259.071C302.019 259.071 309.003 265.745 307.594 272.543C306.185 279.325 295.857 296.466 281.688 318.454L281.719 318.438Z" fill="#868243"/>
<path d="M238.905 343.508C238.177 343.244 237.589 342.687 237.202 341.882C236.567 340.519 236.567 337.918 241.475 328.937C244.681 323.068 249.388 315.574 255.102 307.274C267.443 289.312 281.379 271.908 291.49 261.843C303.924 249.471 303.537 245.321 303.119 244.33C302.577 243.045 300.347 243.045 300.332 243.045C299.48 243.045 298.768 242.379 298.752 241.527C298.737 240.676 299.402 239.964 300.254 239.948C301.849 239.902 304.853 240.536 305.968 243.122C307.717 247.226 303.707 254.085 293.673 264.057C283.841 273.843 270.183 290.861 258.059 308.451C244.077 328.736 239.617 338.754 240.02 340.581C240.577 340.504 243.163 339.559 251.045 329.556C255.752 323.579 261.667 315.264 269.115 304.131C289.353 273.921 294.618 268.61 297.699 269.012C298.613 269.136 299.34 269.755 299.665 270.731C299.944 271.552 300.424 272.93 294.633 284.264C291.459 290.489 286.845 298.789 281.673 307.646C272.568 323.177 260.893 341.696 256.743 345.645C256.123 346.233 255.132 346.217 254.544 345.598C253.956 344.979 253.971 343.988 254.591 343.399C257.827 340.318 267.876 324.973 278.483 306.934C289.167 288.739 295.284 276.631 296.476 272.682C295.284 273.611 292.837 276.058 288.068 282.406C284.026 287.795 278.979 295.026 271.701 305.881C249.14 339.544 242.977 343.957 239.694 343.709C239.416 343.694 239.152 343.632 238.92 343.539L238.905 343.508Z" fill="#868243"/>
<path d="M229.784 202.12C231.936 202.894 224.318 214.399 223.11 212.928C221.902 211.457 220.385 206.037 220.71 205.124C221.035 204.195 228.545 201.686 229.784 202.135V202.12Z" fill="#756A3A"/>
<path d="M228.266 239.174C230.201 237.951 234.584 251.035 232.663 251.081C230.759 251.128 225.556 248.991 225.029 248.155C224.503 247.319 227.151 239.871 228.25 239.174H228.266Z" fill="#756A3A"/>
<path d="M240.407 227.468C240.237 229.744 227.121 225.455 228.221 223.891C229.32 222.342 234.136 219.431 235.111 219.509C236.087 219.586 240.5 226.151 240.392 227.468H240.407Z" fill="#756A3A"/>
<path d="M244.356 262.865C246.214 261.533 251.339 274.339 249.435 274.494C247.53 274.649 242.219 272.821 241.646 272.016C241.073 271.211 243.287 263.624 244.356 262.865Z" fill="#756A3A"/>
<path d="M259.715 219.694C260.629 217.604 271.607 225.95 270.059 227.05C268.51 228.149 262.998 229.326 262.1 228.939C261.202 228.552 259.189 220.887 259.715 219.694Z" fill="#756A3A"/>
<path d="M255.008 250.137C253.568 251.917 245.191 240.954 246.988 240.304C248.784 239.654 254.389 239.979 255.147 240.598C255.906 241.218 255.829 249.13 255.008 250.137Z" fill="#756A3A"/>
<path d="M267.133 272.961C264.857 272.79 269.099 259.675 270.663 260.759C272.227 261.858 275.138 266.659 275.077 267.634C275.015 268.61 268.449 273.038 267.148 272.945L267.133 272.961Z" fill="#756A3A"/>
<path d="M273.497 246.9C272.196 245.011 285.079 240.103 285.203 241.992C285.327 243.897 283.407 249.177 282.602 249.734C281.796 250.292 274.224 247.969 273.481 246.885L273.497 246.9Z" fill="#756A3A"/>
<path d="M207.302 238.415C205.025 238.663 206.806 224.99 208.54 225.78C210.275 226.569 214.022 230.766 214.13 231.741C214.239 232.717 208.602 238.276 207.302 238.415Z" fill="#756A3A"/>
<path d="M218.776 331.027C217.181 329.386 229.089 322.418 229.522 324.276C229.956 326.134 228.934 331.662 228.237 332.343C227.525 333.025 219.689 331.972 218.776 331.027Z" fill="#756A3A"/>
<path d="M222.817 302.567C220.54 302.815 222.383 289.142 224.117 289.932C225.852 290.737 229.583 294.949 229.676 295.924C229.769 296.9 224.117 302.428 222.817 302.567Z" fill="#756A3A"/>
<path d="M206.76 307.708C207.921 305.741 217.801 315.373 216.128 316.286C214.456 317.2 208.851 317.68 207.999 317.184C207.147 316.689 206.094 308.838 206.76 307.723V307.708Z" fill="#756A3A"/>
<path d="M218.821 274.2C216.56 274.571 217.614 260.821 219.379 261.518C221.144 262.215 225.124 266.21 225.278 267.17C225.433 268.13 220.106 273.983 218.821 274.2Z" fill="#756A3A"/>
<path d="M186.01 306.19C184.261 307.677 178.098 295.336 179.972 295.026C181.845 294.716 187.311 296.094 187.946 296.838C188.581 297.581 187.017 305.339 186.01 306.19Z" fill="#756A3A"/>
<path d="M203.647 280.935C205.722 279.975 208.416 293.493 206.511 293.307C204.622 293.106 199.729 290.334 199.311 289.452C198.893 288.569 202.454 281.493 203.647 280.951V280.935Z" fill="#756A3A"/>
<path d="M202.826 255.092C204.793 256.253 195.208 266.163 194.294 264.491C193.381 262.818 192.869 257.213 193.365 256.377C193.86 255.525 201.696 254.441 202.826 255.107V255.092Z" fill="#756A3A"/>
<path d="M185.623 275.686C185.963 277.947 172.229 276.693 172.957 274.927C173.684 273.162 177.726 269.26 178.701 269.121C179.677 268.981 185.437 274.401 185.623 275.686Z" fill="#756A3A"/>
<path d="M253.801 291.279C255.954 292.053 248.335 303.558 247.127 302.071C245.92 300.6 244.402 295.181 244.727 294.252C245.068 293.323 252.563 290.83 253.801 291.263V291.279Z" fill="#756A3A"/>
<path d="M378.59 363.947C374.734 366.982 362.408 379.385 358.676 380.577C358.305 380.701 357.329 380.345 355.889 379.617C343.115 373.114 293.208 336.601 293.208 336.601C289.554 331.584 292.945 309.937 295.237 300.972C296.011 297.937 297.807 295.165 299.867 292.827C300.997 291.542 302.189 290.38 303.335 289.389C306.277 286.819 310.566 286.509 313.818 288.677C330.201 299.609 381.253 334.077 385.558 342.191C390.698 351.885 385.186 358.775 378.605 363.962L378.59 363.947Z" fill="#EFB453"/>
<path d="M366.356 359.441C365.891 359.58 365.381 359.519 364.963 359.209L303.459 313.963C302.762 313.452 302.622 312.477 303.133 311.796C303.644 311.114 304.62 310.959 305.301 311.47L366.805 356.716C367.502 357.227 367.641 358.202 367.13 358.884C366.929 359.162 366.65 359.348 366.356 359.441Z" fill="#CC8639"/>
<path d="M304.697 324.183C304.697 324.183 308.305 315.311 311.077 316.751C313.849 318.191 311.959 325.995 310.163 326.816C308.367 327.636 305.595 326.212 304.697 324.183Z" fill="#FCE1CB"/>
<path opacity="0.5" d="M378.59 363.947C374.735 366.982 362.409 379.385 358.677 380.577C358.305 380.701 357.33 380.345 355.89 379.617C357.159 377.79 359.142 376.18 361 374.926C368.587 369.738 376.639 364.086 379.922 355.508C380.417 354.192 380.804 352.767 380.572 351.389C380.278 349.732 379.163 348.354 378.033 347.1C364.437 331.972 345.407 322.821 330.681 308.792C324.394 302.815 318.371 295.63 309.901 293.741C306.618 293.013 303.227 293.168 299.883 292.812C301.013 291.527 302.205 290.365 303.351 289.374C306.293 286.804 310.583 286.494 313.834 288.662C330.217 299.594 381.269 334.062 385.574 342.176C390.714 351.869 385.202 358.76 378.621 363.947H378.59Z" fill="#CC8639"/>
<path d="M202.671 415.773C200.256 418.297 197.391 420.744 195.595 422.695C191.584 427.062 189.865 433.782 186.614 433.271C183.362 432.76 135.051 392.578 129.538 387.391C124.026 382.203 91.9735 361.532 90.5953 359.658C89.1708 357.691 90.5333 354.161 93.1966 350.12C94.6831 347.859 96.5567 345.443 98.5697 343.043C102.239 338.661 106.343 334.387 109.223 331.321C110.492 329.974 111.515 328.875 112.181 328.085C116.671 322.805 147.206 353.216 166.298 369.506C185.391 385.811 204.468 402.116 206.728 406.792C207.983 409.378 205.66 412.646 202.656 415.773H202.671Z" fill="#6E7699"/>
<path opacity="0.5" d="M98.585 343.043C102.255 338.661 106.358 334.387 109.238 331.321C118.792 347.1 131.056 361.841 147.918 370.559C153.787 374.461 160.058 378.084 164.378 383.659C160.476 384.263 156.806 381.924 153.555 379.679C139.944 370.311 126.317 360.959 112.707 351.591C108.185 348.478 103.555 345.319 98.585 343.059V343.043Z" fill="#91A5C3"/>
<path opacity="0.5" d="M202.671 415.773C200.256 418.297 197.391 420.744 195.595 422.695C191.584 427.061 189.865 433.782 186.614 433.271C183.362 432.76 135.051 392.578 129.538 387.391C124.026 382.203 91.9735 361.532 90.5953 359.658C89.1708 357.691 90.5333 354.161 93.1966 350.12C94.2805 351.157 95.4573 352.117 96.6031 352.953L147.036 390.054C159.563 399.267 172.508 408.682 187.589 412.491C184.276 405.554 180.962 398.617 177.649 391.695C183.254 396.759 188.859 401.806 194.48 406.87C197.468 409.564 200.534 412.413 202.64 415.773H202.671Z" fill="#91A5C3"/>
<path d="M315.748 174.713L367.243 197.436C370.955 199.074 372.655 203.429 371.011 207.155L340.256 276.854C338.618 280.566 334.263 282.266 330.537 280.622L279.041 257.899L315.742 174.728L315.748 174.713Z" fill="#127667"/>
<path d="M322.906 193.572C322.38 194.749 321.187 195.09 319.778 194.47L318.571 193.944L317.889 195.492L316.898 195.059L319.268 189.686L321.482 190.661C322.891 191.281 323.448 192.395 322.922 193.588L322.906 193.572ZM321.915 193.123C322.21 192.442 321.931 191.853 321.064 191.466L319.902 190.955L318.958 193.092L320.119 193.603C321.002 193.99 321.621 193.804 321.915 193.123Z" fill="#F2DD96"/>
<path d="M326.142 197.645L323.463 196.468L322.38 197.474L321.357 197.025L326.142 192.721L327.118 193.154L327.18 199.596L326.142 199.131V197.645ZM326.158 196.716L326.189 193.928L324.145 195.833L326.158 196.731V196.716Z" fill="#F2DD96"/>
<path d="M327.66 199.131L328.341 198.512C328.62 199.054 329.193 199.596 329.859 199.89C330.695 200.261 331.175 200.122 331.361 199.72C331.872 198.558 328.341 197.908 329.224 195.91C329.611 195.043 330.618 194.61 332.089 195.26C332.739 195.539 333.328 196.019 333.668 196.53L333.018 197.165C332.662 196.669 332.197 196.298 331.717 196.096C330.881 195.725 330.416 195.91 330.23 196.313C329.719 197.459 333.235 198.125 332.367 200.091C331.98 200.943 330.958 201.376 329.487 200.726C328.651 200.354 327.923 199.735 327.66 199.147V199.131Z" fill="#F2DD96"/>
<path d="M332.492 201.252L333.173 200.633C333.452 201.175 334.025 201.717 334.691 202.011C335.527 202.383 336.007 202.244 336.193 201.841C336.704 200.68 333.174 200.029 334.056 198.047C334.443 197.18 335.449 196.747 336.921 197.397C337.571 197.676 338.159 198.156 338.5 198.667L337.85 199.301C337.494 198.806 337.029 198.434 336.549 198.233C335.713 197.861 335.248 198.047 335.062 198.45C334.551 199.596 338.066 200.262 337.199 202.228C336.828 203.095 335.79 203.513 334.319 202.863C333.483 202.491 332.755 201.872 332.492 201.283V201.252Z" fill="#F2DD96"/>
<path d="M343.547 202.677C343.02 203.854 341.828 204.195 340.419 203.575L339.211 203.033L338.53 204.582L337.539 204.133L339.908 198.76L342.122 199.735C343.531 200.354 344.089 201.469 343.562 202.662L343.547 202.677ZM342.54 202.228C342.835 201.547 342.556 200.958 341.689 200.571L340.527 200.06L339.583 202.197L340.744 202.708C341.611 203.095 342.246 202.909 342.54 202.228Z" fill="#F2DD96"/>
<path d="M343.888 203.761C344.585 202.166 346.335 201.547 348.007 202.274C349.68 203.002 350.392 204.721 349.679 206.316C348.967 207.911 347.233 208.53 345.561 207.802C343.888 207.075 343.192 205.356 343.888 203.761ZM348.673 205.867C349.153 204.767 348.704 203.622 347.62 203.142C346.536 202.662 345.375 203.095 344.895 204.195C344.415 205.294 344.864 206.44 345.948 206.92C347.032 207.4 348.178 206.966 348.673 205.867Z" fill="#F2DD96"/>
<path d="M353.069 211.008L352.667 208.948C352.667 208.948 352.527 208.902 352.45 208.871L351.242 208.329L350.546 209.893L349.555 209.459L351.923 204.086L354.138 205.062C355.547 205.681 356.104 206.796 355.578 207.988C355.222 208.809 354.541 209.211 353.689 209.181L354.138 211.488L353.069 211.008ZM353.72 205.898L352.559 205.387L351.614 207.524L352.775 208.035C353.658 208.422 354.277 208.22 354.572 207.539C354.866 206.858 354.587 206.269 353.72 205.882V205.898Z" fill="#F2DD96"/>
<path d="M358.18 207.864L356.4 207.075L356.771 206.223L361.324 208.236L360.952 209.072L359.171 208.282L357.174 212.804L356.183 212.37L358.18 207.849V207.864Z" fill="#F2DD96"/>
<mask id="mask1_86_168058" style="mask-type:luminance" maskUnits="userSpaceOnUse" x="310" y="214" width="32" height="33">
<path d="M340.42 236.882C336.905 244.888 327.553 248.542 319.547 245.011C311.542 241.496 307.887 232.144 311.418 224.138C314.933 216.133 324.285 212.479 332.291 216.009C340.296 219.524 343.95 228.877 340.42 236.882Z" fill="white"/>
</mask>
<g mask="url(#mask1_86_168058)">
<path d="M311.797 223.451L311.149 224.925L340.166 237.681L340.814 236.206L311.797 223.451Z" fill="#F2DD96"/>
<path d="M331.3 215.513L318.555 244.534L320.029 245.182L332.775 216.161L331.3 215.513Z" fill="#F2DD96"/>
<path d="M318.819 245.352C318.633 244.949 314.235 235.225 317.859 226.972C321.482 218.734 331.609 215.374 332.043 215.25L332.538 216.783C332.445 216.814 322.659 220.051 319.345 227.622C316.016 235.194 320.243 244.578 320.29 244.671L318.819 245.352Z" fill="#F2DD96"/>
<path d="M305.921 238.028L305.395 236.511C305.782 236.371 314.933 233.259 323.14 236.867C323.14 236.867 323.155 236.867 323.171 236.867C331.362 240.475 335.248 249.316 335.403 249.688L333.917 250.323C333.886 250.23 330.107 241.698 322.504 238.338C322.504 238.338 322.489 238.338 322.474 238.338C314.856 234.993 305.998 237.997 305.905 238.028H305.921Z" fill="#F2DD96"/>
<path d="M328.295 225.021C320.104 221.413 316.217 212.572 316.062 212.2L317.549 211.565C317.58 211.658 321.358 220.19 328.961 223.55C328.961 223.55 328.977 223.55 328.992 223.55C336.61 226.895 345.467 223.891 345.56 223.86L346.087 225.377C345.7 225.517 336.548 228.629 328.342 225.021C328.342 225.021 328.326 225.021 328.311 225.021H328.295Z" fill="#F2DD96"/>
<path d="M319.793 245.786L319.298 244.253C319.391 244.222 329.177 240.986 332.491 233.414C335.82 225.842 331.592 216.458 331.546 216.365L333.017 215.684C333.203 216.087 337.6 225.811 333.977 234.064C330.354 242.317 320.227 245.662 319.793 245.786Z" fill="#F2DD96"/>
</g>
<path d="M340.42 236.882C336.905 244.888 327.553 248.542 319.547 245.011C311.542 241.496 307.887 232.144 311.418 224.138C314.933 216.133 324.285 212.479 332.291 216.009C340.296 219.524 343.95 228.877 340.42 236.882Z" stroke="#F2DD96" stroke-width="1.36" stroke-miterlimit="10"/>
</g>
<path d="M44.874 37.9193V24.2294H46.6788V37.9193H44.874Z" fill="#595757"/>
<path d="M61.4702 37.9193V36.4662C60.7054 37.5828 59.6502 38.1487 58.3195 38.1487C57.7382 38.1487 57.1875 38.0417 56.6827 37.8122C56.1779 37.5828 55.7956 37.3075 55.5508 36.971C55.3061 36.6344 55.1377 36.2214 55.0306 35.7167C54.9694 35.3802 54.9238 34.8601 54.9238 34.1412V27.9922H56.6062V33.4988C56.6062 34.3706 56.6369 34.9672 56.7133 35.2731C56.8204 35.7167 57.0498 36.0685 57.3863 36.3132C57.7228 36.558 58.1512 36.6956 58.6559 36.6956C59.1607 36.6956 59.6348 36.5733 60.0784 36.3132C60.5219 36.0532 60.828 35.7014 61.0116 35.2578C61.1951 34.8142 61.2868 34.1718 61.2868 33.3152V28.0075H62.9691V37.9193H61.4702Z" fill="#595757"/>
<path d="M64.9277 34.9519L66.5951 34.6919C66.6869 35.3649 66.9469 35.8696 67.3752 36.2214C67.8035 36.5733 68.3999 36.7568 69.1647 36.7568C69.9295 36.7568 70.511 36.6039 70.8781 36.2826C71.2452 35.9614 71.4438 35.5943 71.4438 35.1813C71.4438 34.7989 71.2758 34.5083 70.9546 34.2789C70.7252 34.1259 70.1438 33.9424 69.2413 33.7129C68.0023 33.407 67.1612 33.1317 66.6717 32.9023C66.1975 32.6728 65.8305 32.3669 65.5857 31.9539C65.341 31.5562 65.2186 31.1126 65.2186 30.6232C65.2186 30.1796 65.3256 29.7666 65.5245 29.3995C65.7233 29.0171 65.9987 28.7112 66.3505 28.4664C66.6106 28.2676 66.9623 28.1146 67.4212 27.977C67.88 27.8393 68.3541 27.7781 68.8742 27.7781C69.6543 27.7781 70.3428 27.8852 70.924 28.1146C71.5052 28.3441 71.9486 28.6347 72.2239 29.0324C72.4993 29.4148 72.6983 29.9195 72.8054 30.562L71.1686 30.7914C71.0921 30.2866 70.8781 29.889 70.5263 29.5983C70.1745 29.3077 69.6697 29.17 69.012 29.17C68.2472 29.17 67.6964 29.2924 67.3599 29.5524C67.0234 29.8125 66.8703 30.1031 66.8703 30.4549C66.8703 30.669 66.9317 30.8679 67.0694 31.0361C67.2071 31.2197 67.4211 31.3727 67.7117 31.4797C67.88 31.5409 68.3694 31.6786 69.1954 31.908C70.3884 32.2292 71.2146 32.4892 71.6888 32.6881C72.163 32.8869 72.53 33.1776 72.7901 33.5753C73.0501 33.9577 73.1878 34.4472 73.1878 35.0131C73.1878 35.5791 73.0194 36.0991 72.6982 36.5886C72.377 37.0781 71.9029 37.4605 71.2911 37.7358C70.6792 38.0111 69.9755 38.1488 69.1954 38.1488C67.9105 38.1488 66.9317 37.8887 66.2587 37.3534C65.5856 36.818 65.1572 36.0226 64.9584 34.9672L64.9277 34.9519Z" fill="#595757"/>
<path d="M81.9531 34.7225L83.6814 34.9366C83.4061 35.9461 82.9013 36.7415 82.1518 37.2922C81.4176 37.8581 80.4695 38.1334 79.307 38.1334C77.8539 38.1334 76.7067 37.6899 75.8654 36.7874C75.0088 35.9003 74.5957 34.646 74.5957 33.0246C74.5957 31.4032 75.0241 30.0572 75.8807 29.1395C76.7373 28.2217 77.8538 27.7628 79.2304 27.7628C80.6071 27.7628 81.6317 28.2217 82.473 29.1241C83.3142 30.0266 83.7273 31.2962 83.7273 32.9328C83.7273 33.0399 83.7273 33.1776 83.7273 33.3764H76.3396C76.4008 34.4624 76.7065 35.3037 77.2572 35.8849C77.8078 36.4662 78.4963 36.7568 79.3376 36.7568C79.9494 36.7568 80.4848 36.5885 80.9131 36.2673C81.3567 35.9461 81.6931 35.4261 81.9531 34.7225ZM76.4311 31.9998H81.9685C81.892 31.1585 81.6776 30.5467 81.3258 30.1184C80.7904 29.4759 80.1023 29.1547 79.2457 29.1547C78.4809 29.1547 77.8232 29.4148 77.3031 29.9348C76.7831 30.4549 76.4923 31.1432 76.4311 32.0151V31.9998Z" fill="#595757"/>
<path d="M92.2316 37.9193V36.665C91.6045 37.644 90.6866 38.1334 89.4629 38.1334C88.6676 38.1334 87.9488 37.9193 87.291 37.4757C86.6333 37.0474 86.1132 36.4356 85.7461 35.6555C85.379 34.8754 85.1953 33.973 85.1953 32.9634C85.1953 31.9539 85.3637 31.082 85.6849 30.2713C86.0214 29.4607 86.5108 28.8488 87.1685 28.4206C87.8263 27.9923 88.5604 27.7781 89.3864 27.7781C89.9829 27.7781 90.5183 27.9005 90.9772 28.1605C91.4361 28.4052 91.8185 28.7418 92.1091 29.1395V24.2294H93.7765V37.9193H92.2163H92.2316ZM86.9239 32.9634C86.9239 34.233 87.184 35.1813 87.7194 35.8085C88.2547 36.4356 88.8818 36.7568 89.616 36.7568C90.3503 36.7568 90.9773 36.4509 91.4821 35.8544C92.0022 35.2578 92.2469 34.3401 92.2469 33.1011C92.2469 31.7398 91.9869 30.7455 91.4668 30.1184C90.9467 29.4759 90.3043 29.17 89.5395 29.17C88.7747 29.17 88.1629 29.476 87.6734 30.0878C87.1687 30.6996 86.9239 31.6633 86.9239 32.9787V32.9634Z" fill="#595757"/>
<path d="M105.415 36.4203L105.66 37.904C105.186 37.9958 104.757 38.057 104.39 38.057C103.778 38.057 103.304 37.9652 102.968 37.7663C102.631 37.5675 102.387 37.3227 102.264 37.0015C102.127 36.6803 102.065 36.0226 102.065 35.0131V29.3077H100.826V28.0075H102.065V25.5602L103.733 24.5507V28.0075H105.415V29.3077H103.733V35.1048C103.733 35.579 103.763 35.885 103.824 36.0226C103.886 36.1603 103.977 36.2673 104.115 36.3438C104.253 36.4203 104.436 36.4662 104.696 36.4662C104.88 36.4662 105.124 36.4509 105.43 36.405L105.415 36.4203Z" fill="#595757"/>
<path d="M106.425 32.9635C106.425 31.1279 106.93 29.7666 107.955 28.8794C108.812 28.1452 109.852 27.7781 111.075 27.7781C112.437 27.7781 113.553 28.2217 114.41 29.1242C115.266 30.0266 115.71 31.2503 115.71 32.8257C115.71 34.0953 115.526 35.1048 115.129 35.8391C114.746 36.5733 114.18 37.1392 113.461 37.5369C112.727 37.9346 111.932 38.1488 111.06 38.1488C109.668 38.1488 108.552 37.7052 107.695 36.818C106.839 35.9308 106.41 34.646 106.41 32.9787L106.425 32.9635ZM108.154 32.9635C108.154 34.233 108.429 35.1813 108.98 35.8085C109.53 36.4356 110.234 36.7568 111.075 36.7568C111.917 36.7568 112.605 36.4356 113.156 35.8085C113.706 35.166 113.982 34.2024 113.982 32.9023C113.982 31.6786 113.706 30.7455 113.14 30.1184C112.59 29.4913 111.886 29.17 111.06 29.17C110.234 29.17 109.53 29.4913 108.964 30.1184C108.399 30.7455 108.138 31.6939 108.138 32.9635H108.154Z" fill="#595757"/>
<path d="M123.007 41.7127V27.9923H124.536V29.2771C124.904 28.7724 125.301 28.3899 125.76 28.1452C126.219 27.9005 126.77 27.7628 127.412 27.7628C128.254 27.7628 129.003 27.977 129.645 28.4205C130.288 28.8488 130.777 29.476 131.114 30.2713C131.45 31.0667 131.603 31.9386 131.603 32.8869C131.603 33.8965 131.42 34.8142 131.052 35.6249C130.685 36.4356 130.166 37.0627 129.462 37.491C128.774 37.9193 128.039 38.1334 127.274 38.1334C126.708 38.1334 126.204 38.0111 125.76 37.7817C125.317 37.5522 124.95 37.2463 124.659 36.8792V41.7127H122.977H123.007ZM124.521 33.0093C124.521 34.2789 124.781 35.2272 125.301 35.839C125.821 36.4509 126.449 36.7568 127.183 36.7568C127.917 36.7568 128.575 36.4356 129.095 35.8085C129.63 35.1813 129.89 34.2024 129.89 32.8717C129.89 31.5409 129.63 30.669 129.11 30.0266C128.59 29.3995 127.963 29.0783 127.244 29.0783C126.525 29.0783 125.898 29.4148 125.347 30.0878C124.796 30.7608 124.521 31.7245 124.521 33.0093Z" fill="#595757"/>
<path d="M140.107 36.6957C139.48 37.231 138.883 37.5981 138.317 37.8122C137.736 38.0264 137.124 38.1334 136.466 38.1334C135.38 38.1334 134.539 37.8734 133.958 37.3381C133.377 36.8027 133.086 36.1297 133.086 35.3037C133.086 34.8143 133.193 34.3706 133.422 33.9729C133.637 33.5752 133.927 33.2541 134.294 33.0093C134.646 32.7646 135.059 32.581 135.503 32.4587C135.839 32.3669 136.329 32.2904 137.002 32.2139C138.363 32.0457 139.357 31.8621 140 31.6327C140 31.4032 140 31.2503 140 31.1891C140 30.5008 139.847 30.0266 139.525 29.736C139.097 29.3536 138.455 29.17 137.613 29.17C136.818 29.17 136.237 29.3077 135.87 29.583C135.488 29.8583 135.212 30.3478 135.029 31.0515L133.392 30.822C133.545 30.1184 133.789 29.5524 134.126 29.1242C134.462 28.6959 134.968 28.3594 135.61 28.1299C136.252 27.9005 137.002 27.7781 137.858 27.7781C138.715 27.7781 139.388 27.8852 139.923 28.084C140.459 28.2829 140.841 28.5276 141.086 28.8335C141.33 29.1394 141.514 29.5218 141.606 29.9807C141.667 30.2713 141.682 30.7914 141.682 31.5256V33.7588C141.682 35.319 141.713 36.3133 141.789 36.7262C141.866 37.1392 142.003 37.5369 142.218 37.9193H140.459C140.29 37.5675 140.168 37.1698 140.122 36.6957H140.107ZM139.969 32.9328C139.357 33.1776 138.439 33.3917 137.231 33.5753C136.543 33.6671 136.053 33.7894 135.763 33.9118C135.472 34.0342 135.258 34.2177 135.105 34.4624C134.952 34.7072 134.875 34.9672 134.875 35.2578C134.875 35.7014 135.044 36.0838 135.38 36.3744C135.717 36.6803 136.222 36.818 136.864 36.818C137.506 36.818 138.088 36.6804 138.593 36.3897C139.097 36.0991 139.464 35.7167 139.709 35.2272C139.893 34.8448 139.984 34.2942 139.984 33.5447V32.9328H139.969Z" fill="#595757"/>
<path d="M150.737 34.2789L152.39 34.493C152.206 35.6249 151.747 36.5274 150.997 37.1698C150.248 37.8123 149.345 38.1334 148.259 38.1334C146.898 38.1334 145.812 37.6899 144.986 36.8027C144.16 35.9155 143.747 34.646 143.747 32.994C143.747 31.9233 143.931 30.9903 144.283 30.1796C144.634 29.3842 145.185 28.7724 145.904 28.3747C146.623 27.977 147.418 27.7781 148.275 27.7781C149.345 27.7781 150.232 28.0534 150.921 28.5888C151.609 29.1394 152.038 29.9042 152.236 30.9138L150.6 31.1585C150.447 30.4855 150.171 29.996 149.774 29.6595C149.376 29.323 148.902 29.1547 148.336 29.1547C147.495 29.1547 146.806 29.4607 146.271 30.0725C145.736 30.6843 145.476 31.6327 145.476 32.9481C145.476 34.2636 145.736 35.2425 146.241 35.8544C146.745 36.4509 147.418 36.7568 148.244 36.7568C148.902 36.7568 149.452 36.558 149.896 36.145C150.34 35.7473 150.615 35.1202 150.737 34.2789Z" fill="#595757"/>
<path d="M153.842 37.9193V24.2294H155.524V32.0304L159.501 27.9923H161.673L157.88 31.6633L162.056 37.904H159.991L156.717 32.8411L155.524 33.9882V37.9193H153.842Z" fill="#595757"/>
<path d="M172.366 36.4203L172.611 37.904C172.137 37.9958 171.709 38.057 171.341 38.057C170.73 38.057 170.256 37.9652 169.919 37.7663C169.582 37.5675 169.338 37.3227 169.215 37.0015C169.078 36.6803 169.016 36.0226 169.016 35.0131V29.3077H167.777V28.0075H169.016V25.5602L170.684 24.5507V28.0075H172.366V29.3077H170.684V35.1048C170.684 35.579 170.714 35.885 170.776 36.0226C170.837 36.1603 170.929 36.2673 171.066 36.3438C171.204 36.4203 171.387 36.4662 171.647 36.4662C171.831 36.4662 172.076 36.4509 172.381 36.405L172.366 36.4203Z" fill="#595757"/>
<path d="M174.019 37.9193V24.2294H175.701V29.1395C176.481 28.237 177.475 27.7781 178.669 27.7781C179.403 27.7781 180.045 27.9158 180.581 28.2064C181.116 28.497 181.514 28.8947 181.743 29.3995C181.973 29.9042 182.095 30.6538 182.095 31.6174V37.904H180.412V31.6174C180.412 30.7761 180.229 30.1643 179.862 29.7819C179.495 29.3995 178.975 29.2006 178.317 29.2006C177.812 29.2006 177.353 29.3383 176.91 29.583C176.466 29.843 176.16 30.1949 175.976 30.6384C175.793 31.082 175.701 31.6939 175.701 32.474V37.904H174.019V37.9193Z" fill="#595757"/>
<path d="M191.44 34.7225L193.169 34.9366C192.893 35.9461 192.389 36.7415 191.639 37.2922C190.905 37.8581 189.956 38.1334 188.794 38.1334C187.341 38.1334 186.194 37.6899 185.352 36.7874C184.496 35.9003 184.083 34.646 184.083 33.0246C184.083 31.4032 184.511 30.0572 185.368 29.1395C186.224 28.2217 187.341 27.7628 188.718 27.7628C190.094 27.7628 191.119 28.2217 191.96 29.1241C192.802 30.0266 193.215 31.2962 193.215 32.9328C193.215 33.0399 193.215 33.1776 193.215 33.3764H185.827C185.888 34.4624 186.194 35.3037 186.744 35.8849C187.295 36.4662 187.983 36.7568 188.825 36.7568C189.436 36.7568 189.972 36.5885 190.4 36.2673C190.844 35.9461 191.18 35.4261 191.44 34.7225ZM185.918 31.9998H191.455C191.379 31.1585 191.165 30.5467 190.813 30.1184C190.278 29.4759 189.59 29.1547 188.733 29.1547C187.968 29.1547 187.31 29.4148 186.79 29.9348C186.27 30.4549 185.98 31.1432 185.918 32.0151V31.9998Z" fill="#595757"/>
<path d="M202.147 37.9193H200.587V24.2294H202.269V29.1088C202.973 28.2217 203.891 27.7781 204.992 27.7781C205.604 27.7781 206.185 27.9005 206.721 28.1452C207.271 28.3899 207.715 28.7418 208.066 29.1853C208.418 29.6289 208.694 30.1643 208.893 30.7914C209.091 31.4185 209.198 32.0916 209.198 32.8105C209.198 34.5083 208.785 35.8238 207.944 36.7568C207.103 37.6899 206.093 38.1487 204.915 38.1487C203.738 38.1487 202.82 37.6593 202.162 36.6804V37.9193H202.147ZM202.132 32.8869C202.132 34.08 202.3 34.9366 202.621 35.4566C203.156 36.3285 203.86 36.7568 204.763 36.7568C205.497 36.7568 206.139 36.4356 206.675 35.7932C207.21 35.1507 207.485 34.2024 207.485 32.9481C207.485 31.6939 207.225 30.6996 206.721 30.0878C206.216 29.476 205.588 29.17 204.854 29.17C204.12 29.17 203.493 29.4913 202.942 30.1337C202.407 30.7761 202.147 31.6939 202.147 32.9023L202.132 32.8869Z" fill="#595757"/>
<path d="M217.704 36.6957C217.076 37.231 216.48 37.5981 215.914 37.8122C215.333 38.0264 214.721 38.1334 214.063 38.1334C212.977 38.1334 212.136 37.8734 211.555 37.3381C210.973 36.8027 210.683 36.1297 210.683 35.3037C210.683 34.8143 210.79 34.3706 211.019 33.9729C211.233 33.5752 211.524 33.2541 211.891 33.0093C212.243 32.7646 212.656 32.581 213.099 32.4587C213.436 32.3669 213.925 32.2904 214.598 32.2139C215.96 32.0457 216.954 31.8621 217.596 31.6327C217.596 31.4032 217.596 31.2503 217.596 31.1891C217.596 30.5008 217.443 30.0266 217.122 29.736C216.694 29.3536 216.051 29.17 215.21 29.17C214.415 29.17 213.834 29.3077 213.467 29.583C213.084 29.8583 212.809 30.3478 212.625 31.0515L210.988 30.822C211.141 30.1184 211.386 29.5524 211.723 29.1242C212.059 28.6959 212.564 28.3594 213.207 28.1299C213.849 27.9005 214.599 27.7781 215.455 27.7781C216.312 27.7781 216.984 27.8852 217.52 28.084C218.055 28.2829 218.438 28.5276 218.682 28.8335C218.927 29.1394 219.111 29.5218 219.203 29.9807C219.264 30.2713 219.279 30.7914 219.279 31.5256V33.7588C219.279 35.319 219.309 36.3133 219.386 36.7262C219.462 37.1392 219.6 37.5369 219.814 37.9193H218.055C217.887 37.5675 217.765 37.1698 217.719 36.6957H217.704ZM217.566 32.9328C216.954 33.1776 216.036 33.3917 214.828 33.5753C214.139 33.6671 213.65 33.7894 213.359 33.9118C213.069 34.0342 212.855 34.2177 212.702 34.4624C212.549 34.7072 212.472 34.9672 212.472 35.2578C212.472 35.7014 212.64 36.0838 212.977 36.3744C213.314 36.665 213.818 36.818 214.461 36.818C215.103 36.818 215.685 36.6804 216.189 36.3897C216.694 36.0991 217.061 35.7167 217.306 35.2272C217.489 34.8448 217.581 34.2942 217.581 33.5447V32.9328H217.566Z" fill="#595757"/>
<path d="M221.191 34.9519L222.858 34.6919C222.95 35.3649 223.21 35.8696 223.639 36.2214C224.067 36.5733 224.664 36.7568 225.428 36.7568C226.193 36.7568 226.774 36.6039 227.141 36.2826C227.508 35.9614 227.707 35.5943 227.707 35.1813C227.707 34.7989 227.539 34.5083 227.218 34.2789C226.988 34.1259 226.407 33.9424 225.505 33.7129C224.266 33.407 223.424 33.1317 222.935 32.9023C222.461 32.6728 222.094 32.3669 221.849 31.9539C221.604 31.5562 221.482 31.1126 221.482 30.6232C221.482 30.1796 221.589 29.7666 221.788 29.3995C221.987 29.0171 222.262 28.7112 222.614 28.4664C222.874 28.2676 223.226 28.1146 223.684 27.977C224.143 27.8393 224.617 27.7781 225.138 27.7781C225.918 27.7781 226.606 27.8852 227.187 28.1146C227.769 28.3441 228.212 28.6347 228.488 29.0324C228.763 29.4148 228.962 29.9195 229.069 30.562L227.432 30.7914C227.355 30.2866 227.141 29.889 226.79 29.5983C226.438 29.3077 225.933 29.17 225.275 29.17C224.511 29.17 223.96 29.2924 223.623 29.5524C223.287 29.8125 223.134 30.1031 223.134 30.4549C223.134 30.669 223.195 30.8679 223.333 31.0361C223.47 31.2197 223.684 31.3727 223.975 31.4797C224.143 31.5409 224.633 31.6786 225.459 31.908C226.652 32.2292 227.478 32.4892 227.952 32.6881C228.426 32.8869 228.793 33.1776 229.053 33.5753C229.313 33.9577 229.451 34.4472 229.451 35.0131C229.451 35.5791 229.283 36.0991 228.961 36.5886C228.64 37.0781 228.166 37.4605 227.554 37.7358C226.943 38.0111 226.239 38.1488 225.459 38.1488C224.174 38.1488 223.195 37.8887 222.522 37.3534C221.849 36.818 221.421 36.0226 221.222 34.9672L221.191 34.9519Z" fill="#595757"/>
<path d="M231.438 26.1567V24.2294H233.121V26.1567H231.438ZM231.438 37.9193V28.0075H233.121V37.9193H231.438Z" fill="#595757"/>
<path d="M242.147 34.2789L243.799 34.493C243.615 35.6249 243.156 36.5274 242.407 37.1698C241.657 37.8123 240.754 38.1334 239.668 38.1334C238.307 38.1334 237.221 37.6899 236.395 36.8027C235.569 35.9155 235.156 34.646 235.156 32.994C235.156 31.9233 235.34 30.9903 235.692 30.1796C236.044 29.3842 236.594 28.7724 237.313 28.3747C238.032 27.977 238.827 27.7781 239.684 27.7781C240.755 27.7781 241.642 28.0534 242.33 28.5888C243.018 29.1394 243.447 29.9042 243.646 30.9138L242.009 31.1585C241.856 30.4855 241.58 29.996 241.183 29.6595C240.785 29.323 240.311 29.1547 239.745 29.1547C238.904 29.1547 238.216 29.4607 237.68 30.0725C237.145 30.6843 236.885 31.6327 236.885 32.9481C236.885 34.2636 237.145 35.2425 237.65 35.8544C238.154 36.4509 238.827 36.7568 239.653 36.7568C240.311 36.7568 240.862 36.558 241.305 36.145C241.749 35.7473 242.024 35.1202 242.147 34.2789Z" fill="#595757"/>
<path d="M244.562 34.9519L246.23 34.6919C246.321 35.3649 246.581 35.8696 247.01 36.2214C247.438 36.5733 248.035 36.7568 248.8 36.7568C249.564 36.7568 250.145 36.6039 250.512 36.2826C250.88 35.9614 251.079 35.5943 251.079 35.1813C251.079 34.7989 250.91 34.5083 250.589 34.2789C250.36 34.1259 249.778 33.9424 248.876 33.7129C247.637 33.407 246.796 33.1317 246.306 32.9023C245.832 32.6728 245.465 32.3669 245.22 31.9539C244.975 31.5562 244.853 31.1126 244.853 30.6232C244.853 30.1796 244.96 29.7666 245.159 29.3995C245.358 29.0171 245.633 28.7112 245.985 28.4664C246.245 28.2676 246.597 28.1146 247.056 27.977C247.514 27.8393 247.989 27.7781 248.509 27.7781C249.289 27.7781 249.962 27.8852 250.558 28.1146C251.14 28.3441 251.583 28.6347 251.859 29.0324C252.134 29.4148 252.333 29.9195 252.44 30.562L250.803 30.7914C250.727 30.2866 250.512 29.889 250.161 29.5983C249.809 29.3077 249.304 29.17 248.646 29.17C247.882 29.17 247.331 29.2924 246.994 29.5524C246.658 29.8125 246.505 30.1031 246.505 30.4549C246.505 30.669 246.581 30.8679 246.704 31.0361C246.841 31.2197 247.055 31.3727 247.346 31.4797C247.514 31.5409 248.004 31.6786 248.83 31.908C250.023 32.2292 250.849 32.4892 251.323 32.6881C251.797 32.8869 252.164 33.1776 252.424 33.5753C252.684 33.9577 252.822 34.4472 252.822 35.0131C252.822 35.5791 252.654 36.0991 252.333 36.5886C252.011 37.0781 251.537 37.4605 250.925 37.7358C250.314 38.0111 249.61 38.1488 248.83 38.1488C247.545 38.1488 246.566 37.8887 245.893 37.3534C245.22 36.818 244.792 36.0226 244.593 34.9672L244.562 34.9519Z" fill="#595757"/>
<path d="M260.501 37.9193V29.3077H259.018V28.0075H260.501V26.9521C260.501 26.2791 260.562 25.7896 260.685 25.4684C260.853 25.0401 261.128 24.673 261.541 24.413C261.954 24.1376 262.52 24 263.255 24C263.729 24 264.249 24.0612 264.83 24.1683L264.57 25.6367C264.218 25.5755 263.897 25.5449 263.576 25.5449C263.071 25.5449 262.704 25.652 262.49 25.8661C262.276 26.0802 262.169 26.4932 262.169 27.0898V28.0075H264.096V29.3077H262.169V37.9193H260.501Z" fill="#595757"/>
<path d="M265.427 26.1567V24.2294H267.109V26.1567H265.427ZM265.427 37.9193V28.0075H267.109V37.9193H265.427Z" fill="#595757"/>
<path d="M269.649 37.9193V28.0075H271.163V29.5066C271.546 28.8029 271.913 28.3441 272.234 28.1146C272.555 27.8852 272.922 27.7781 273.305 27.7781C273.871 27.7781 274.452 27.9617 275.033 28.3135L274.452 29.8736C274.039 29.6289 273.626 29.5066 273.213 29.5066C272.846 29.5066 272.525 29.6136 272.219 29.8431C271.928 30.0572 271.714 30.3631 271.592 30.7608C271.408 31.3574 271.316 32.0151 271.316 32.7187V37.904H269.634L269.649 37.9193Z" fill="#595757"/>
<path d="M275.354 34.9519L277.022 34.6919C277.114 35.3649 277.374 35.8696 277.802 36.2214C278.23 36.5733 278.827 36.7568 279.591 36.7568C280.356 36.7568 280.938 36.6039 281.305 36.2826C281.672 35.9614 281.871 35.5943 281.871 35.1813C281.871 34.7989 281.702 34.5083 281.381 34.2789C281.152 34.1259 280.571 33.9424 279.668 33.7129C278.429 33.407 277.588 33.1317 277.098 32.9023C276.624 32.6728 276.257 32.3669 276.012 31.9539C275.767 31.5562 275.645 31.1126 275.645 30.6232C275.645 30.1796 275.752 29.7666 275.951 29.3995C276.15 29.0171 276.425 28.7112 276.777 28.4664C277.037 28.2676 277.389 28.1146 277.848 27.977C278.307 27.8393 278.781 27.7781 279.301 27.7781C280.081 27.7781 280.769 27.8852 281.35 28.1146C281.932 28.3441 282.375 28.6347 282.651 29.0324C282.926 29.4148 283.125 29.9195 283.232 30.562L281.595 30.7914C281.519 30.2866 281.304 29.889 280.953 29.5983C280.601 29.3077 280.096 29.17 279.438 29.17C278.674 29.17 278.123 29.2924 277.787 29.5524C277.45 29.8125 277.297 30.1031 277.297 30.4549C277.297 30.669 277.358 30.8679 277.496 31.0361C277.633 31.2197 277.848 31.3727 278.138 31.4797C278.307 31.5409 278.796 31.6786 279.622 31.908C280.815 32.2292 281.641 32.4892 282.115 32.6881C282.589 32.8869 282.957 33.1776 283.217 33.5753C283.477 33.9577 283.614 34.4472 283.614 35.0131C283.614 35.5791 283.446 36.0991 283.125 36.5886C282.804 37.0781 282.329 37.4605 281.717 37.7358C281.106 38.0111 280.402 38.1488 279.622 38.1488C278.337 38.1488 277.358 37.8887 276.67 37.3534C275.982 36.818 275.569 36.0226 275.385 34.9672L275.354 34.9519Z" fill="#595757"/>
<path d="M289.259 36.4203L289.503 37.904C289.029 37.9958 288.601 38.057 288.234 38.057C287.622 38.057 287.148 37.9652 286.811 37.7663C286.475 37.5675 286.245 37.3227 286.108 37.0015C285.97 36.6803 285.909 36.0226 285.909 35.0131V29.3077H284.67V28.0075H285.909V25.5602L287.576 24.5507V28.0075H289.259V29.3077H287.576V35.1048C287.576 35.579 287.607 35.885 287.668 36.0226C287.729 36.1603 287.821 36.2673 287.958 36.3438C288.096 36.4203 288.28 36.4662 288.54 36.4662C288.723 36.4662 288.968 36.4509 289.274 36.405L289.259 36.4203Z" fill="#595757"/>
<path d="M302.688 36.6957C302.061 37.231 301.464 37.5981 300.898 37.8122C300.317 38.0264 299.705 38.1334 299.047 38.1334C297.961 38.1334 297.12 37.8734 296.539 37.3381C295.958 36.8027 295.667 36.1297 295.667 35.3037C295.667 34.8143 295.774 34.3706 296.003 33.9729C296.218 33.5752 296.508 33.2541 296.875 33.0093C297.227 32.7646 297.64 32.581 298.084 32.4587C298.42 32.3669 298.91 32.2904 299.583 32.2139C300.944 32.0457 301.938 31.8621 302.581 31.6327C302.581 31.4032 302.581 31.2503 302.581 31.1891C302.581 30.5008 302.428 30.0266 302.107 29.736C301.678 29.3536 301.036 29.17 300.195 29.17C299.399 29.17 298.818 29.3077 298.451 29.583C298.069 29.8583 297.793 30.3478 297.61 31.0515L295.973 30.822C296.126 30.1184 296.371 29.5524 296.707 29.1242C297.044 28.6959 297.548 28.3594 298.191 28.1299C298.833 27.9005 299.583 27.7781 300.439 27.7781C301.296 27.7781 301.969 27.8852 302.504 28.084C303.04 28.2829 303.422 28.5276 303.667 28.8335C303.911 29.1394 304.095 29.5218 304.187 29.9807C304.248 30.2713 304.263 30.7914 304.263 31.5256V33.7588C304.263 35.319 304.294 36.3133 304.37 36.7262C304.447 37.1392 304.584 37.5369 304.799 37.9193H303.04C302.871 37.5675 302.749 37.1698 302.703 36.6957H302.688ZM302.55 32.9328C301.938 33.1776 301.021 33.3917 299.812 33.5753C299.124 33.6671 298.634 33.7894 298.344 33.9118C298.053 34.0342 297.839 34.2177 297.686 34.4624C297.533 34.7072 297.456 34.9672 297.456 35.2578C297.456 35.7014 297.625 36.0838 297.961 36.3744C298.298 36.6803 298.803 36.818 299.445 36.818C300.087 36.818 300.669 36.6804 301.174 36.3897C301.678 36.0991 302.046 35.7167 302.29 35.2272C302.474 34.8448 302.565 34.2942 302.565 33.5447V32.9328H302.55Z" fill="#595757"/>
<path d="M306.848 37.9193V28.0075H308.362V29.4148C309.096 28.3288 310.136 27.7781 311.513 27.7781C312.11 27.7781 312.66 27.8852 313.165 28.0993C313.669 28.3135 314.037 28.5888 314.297 28.9406C314.541 29.2924 314.725 29.7054 314.817 30.1796C314.878 30.4855 314.909 31.0362 314.909 31.8163V37.9193H313.226V31.8927C313.226 31.2044 313.165 30.6996 313.027 30.3631C312.905 30.0266 312.66 29.7513 312.339 29.5524C312.002 29.3536 311.62 29.2465 311.161 29.2465C310.442 29.2465 309.83 29.476 309.31 29.9348C308.79 30.3937 308.53 31.2503 308.53 32.5199V37.9346H306.848V37.9193Z" fill="#595757"/>
<path d="M323.918 37.9193V36.665C323.291 37.644 322.373 38.1334 321.149 38.1334C320.354 38.1334 319.635 37.9193 318.978 37.4757C318.32 37.0474 317.8 36.4356 317.433 35.6555C317.066 34.8754 316.882 33.973 316.882 32.9634C316.882 31.9539 317.05 31.082 317.371 30.2713C317.708 29.4607 318.197 28.8488 318.855 28.4206C319.513 27.9923 320.247 27.7781 321.073 27.7781C321.67 27.7781 322.205 27.9005 322.664 28.1605C323.123 28.4052 323.505 28.7418 323.796 29.1395V24.2294H325.463V37.9193H323.903H323.918ZM318.595 32.9634C318.595 34.233 318.855 35.1813 319.391 35.8085C319.926 36.4356 320.553 36.7568 321.287 36.7568C322.021 36.7568 322.649 36.4509 323.153 35.8544C323.673 35.2578 323.918 34.3401 323.918 33.1011C323.918 31.7398 323.658 30.7455 323.138 30.1184C322.618 29.4759 321.976 29.17 321.211 29.17C320.446 29.17 319.834 29.476 319.345 30.0878C318.84 30.6996 318.595 31.6633 318.595 32.9787V32.9634Z" fill="#595757"/>
<path d="M333.387 37.9193V24.2294H335.069V37.9193H333.387Z" fill="#595757"/>
<path d="M344.46 34.7225L346.188 34.9366C345.913 35.9461 345.408 36.7415 344.659 37.2922C343.924 37.8581 342.976 38.1334 341.813 38.1334C340.36 38.1334 339.213 37.6899 338.372 36.7874C337.515 35.9003 337.103 34.646 337.103 33.0246C337.103 31.4032 337.531 30.0572 338.387 29.1395C339.244 28.2217 340.36 27.7628 341.737 27.7628C343.114 27.7628 344.139 28.2217 344.98 29.1241C345.821 30.0266 346.234 31.2962 346.234 32.9328C346.234 33.0399 346.234 33.1776 346.234 33.3764H338.846C338.907 34.4624 339.213 35.3037 339.764 35.8849C340.315 36.4662 341.003 36.7568 341.844 36.7568C342.456 36.7568 342.991 36.5885 343.42 36.2673C343.863 35.9461 344.2 35.4261 344.46 34.7225ZM338.938 31.9998H344.475C344.398 31.1585 344.184 30.5467 343.848 30.1184C343.313 29.4759 342.624 29.1547 341.768 29.1547C341.003 29.1547 340.345 29.4148 339.825 29.9348C339.305 30.4549 339.014 31.1432 338.953 32.0151L338.938 31.9998Z" fill="#595757"/>
<path d="M351.972 36.4203L352.216 37.904C351.742 37.9958 351.314 38.057 350.947 38.057C350.335 38.057 349.861 37.9652 349.524 37.7663C349.188 37.5675 348.943 37.3227 348.821 37.0015C348.683 36.6803 348.621 36.0226 348.621 35.0131V29.3077H347.383V28.0075H348.621V25.5602L350.289 24.5507V28.0075H351.972V29.3077H350.289V35.1048C350.289 35.579 350.32 35.885 350.381 36.0226C350.442 36.1603 350.534 36.2673 350.671 36.3438C350.809 36.4203 350.993 36.4662 351.253 36.4662C351.436 36.4662 351.681 36.4509 351.987 36.405L351.972 36.4203Z" fill="#595757"/>
<path d="M362.601 36.4203L362.846 37.904C362.372 37.9958 361.944 38.057 361.577 38.057C360.965 38.057 360.49 37.9652 360.154 37.7663C359.817 37.5675 359.573 37.3227 359.45 37.0015C359.313 36.6803 359.252 36.0226 359.252 35.0131V29.3077H358.013V28.0075H359.252V25.5602L360.919 24.5507V28.0075H362.601V29.3077H360.919V35.1048C360.919 35.579 360.949 35.885 361.011 36.0226C361.072 36.1603 361.164 36.2673 361.301 36.3438C361.439 36.4203 361.623 36.4662 361.883 36.4662C362.066 36.4662 362.311 36.4509 362.617 36.405L362.601 36.4203Z" fill="#595757"/>
<path d="M364.238 37.9193V24.2294H365.921V29.1395C366.701 28.237 367.695 27.7781 368.888 27.7781C369.622 27.7781 370.265 27.9158 370.8 28.2064C371.335 28.497 371.733 28.8947 371.962 29.3995C372.192 29.9042 372.315 30.6538 372.315 31.6174V37.904H370.632V31.6174C370.632 30.7761 370.448 30.1643 370.081 29.7819C369.714 29.3995 369.194 29.2006 368.536 29.2006C368.031 29.2006 367.573 29.3383 367.129 29.583C366.685 29.843 366.38 30.1949 366.196 30.6384C366.013 31.082 365.921 31.6939 365.921 32.474V37.904H364.238V37.9193Z" fill="#595757"/>
<path d="M381.661 34.7225L383.39 34.9366C383.114 35.9461 382.61 36.7415 381.86 37.2922C381.126 37.8581 380.177 38.1334 379.015 38.1334C377.562 38.1334 376.415 37.6899 375.573 36.7874C374.717 35.9003 374.304 34.646 374.304 33.0246C374.304 31.4032 374.732 30.0572 375.589 29.1395C376.445 28.2217 377.562 27.7628 378.938 27.7628C380.315 27.7628 381.34 28.2217 382.181 29.1241C383.023 30.0266 383.435 31.2962 383.435 32.9328C383.435 33.0399 383.435 33.1776 383.435 33.3764H376.048C376.109 34.4624 376.415 35.3037 376.965 35.8849C377.516 36.4662 378.204 36.7568 379.046 36.7568C379.657 36.7568 380.193 36.5885 380.621 36.2673C381.065 35.9461 381.401 35.4261 381.661 34.7225ZM376.154 31.9998H381.692C381.615 31.1585 381.401 30.5467 381.049 30.1184C380.514 29.4759 379.826 29.1547 378.969 29.1547C378.204 29.1547 377.546 29.4148 377.026 29.9348C376.506 30.4549 376.216 31.1432 376.154 32.0151V31.9998Z" fill="#595757"/>
<path d="M390.807 37.9193V28.0075H392.322V29.5066C392.704 28.8029 393.071 28.3441 393.392 28.1146C393.713 27.8852 394.081 27.7781 394.463 27.7781C395.029 27.7781 395.61 27.9617 396.192 28.3135L395.61 29.8736C395.197 29.6289 394.784 29.5066 394.371 29.5066C394.004 29.5066 393.683 29.6136 393.377 29.8431C393.071 30.0725 392.872 30.3631 392.75 30.7608C392.566 31.3574 392.475 32.0151 392.475 32.7187V37.904H390.792L390.807 37.9193Z" fill="#595757"/>
<path d="M403.977 34.7225L405.72 34.9366C405.445 35.9461 404.94 36.7415 404.191 37.2922C403.441 37.8428 402.509 38.1334 401.346 38.1334C399.893 38.1334 398.746 37.6899 397.904 36.7874C397.048 35.9003 396.635 34.646 396.635 33.0246C396.635 31.4032 397.063 30.0572 397.92 29.1395C398.776 28.2217 399.893 27.7628 401.269 27.7628C402.646 27.7628 403.671 28.2217 404.512 29.1241C405.353 30.0266 405.766 31.2962 405.766 32.9328C405.766 33.0399 405.766 33.1776 405.766 33.3764H398.378C398.44 34.4624 398.746 35.3037 399.296 35.8849C399.847 36.4662 400.535 36.7568 401.361 36.7568C401.973 36.7568 402.508 36.5885 402.936 36.2673C403.365 35.9461 403.717 35.4261 403.977 34.7225ZM398.455 31.9998H403.992C403.916 31.1585 403.701 30.5467 403.35 30.1184C402.814 29.4759 402.126 29.1547 401.269 29.1547C400.505 29.1547 399.847 29.4148 399.327 29.9348C398.807 30.4549 398.516 31.1432 398.455 32.0151V31.9998Z" fill="#595757"/>
<path d="M407.159 34.9519L408.827 34.6919C408.918 35.3649 409.178 35.8696 409.607 36.2214C410.035 36.5733 410.631 36.7568 411.396 36.7568C412.161 36.7568 412.742 36.6039 413.11 36.2826C413.477 35.9614 413.675 35.5943 413.675 35.1813C413.675 34.7989 413.507 34.5083 413.186 34.2789C412.957 34.1259 412.375 33.9424 411.473 33.7129C410.234 33.407 409.393 33.1317 408.903 32.9023C408.429 32.6728 408.062 32.3669 407.817 31.9539C407.572 31.5562 407.45 31.1126 407.45 30.6232C407.45 30.1796 407.557 29.7666 407.756 29.3995C407.955 29.0171 408.23 28.7112 408.582 28.4664C408.842 28.2676 409.194 28.1146 409.653 27.977C410.096 27.8393 410.586 27.7781 411.106 27.7781C411.886 27.7781 412.574 27.8852 413.155 28.1146C413.737 28.3441 414.18 28.6347 414.455 29.0324C414.731 29.4148 414.93 29.9195 415.037 30.562L413.4 30.7914C413.324 30.2866 413.11 29.889 412.758 29.5983C412.406 29.3077 411.901 29.17 411.243 29.17C410.479 29.17 409.928 29.2924 409.591 29.5524C409.255 29.8125 409.102 30.1031 409.102 30.4549C409.102 30.669 409.163 30.8679 409.301 31.0361C409.438 31.2197 409.653 31.3727 409.943 31.4797C410.111 31.5409 410.601 31.6786 411.427 31.908C412.62 32.2292 413.446 32.4892 413.92 32.6881C414.394 32.8869 414.761 33.1776 415.022 33.5753C415.282 33.9577 415.419 34.4472 415.419 35.0131C415.419 35.5791 415.251 36.0991 414.93 36.5886C414.608 37.0781 414.134 37.4605 413.523 37.7358C412.911 38.0111 412.207 38.1488 411.427 38.1488C410.142 38.1488 409.163 37.8887 408.49 37.3534C407.817 36.818 407.389 36.0226 407.19 34.9672L407.159 34.9519Z" fill="#595757"/>
<path d="M421.049 36.4203L421.293 37.904C420.819 37.9958 420.391 38.057 420.024 38.057C419.412 38.057 418.938 37.9652 418.601 37.7663C418.265 37.5675 418.02 37.3227 417.898 37.0015C417.76 36.6803 417.699 36.0226 417.699 35.0131V29.3077H416.46V28.0075H417.699V25.5602L419.366 24.5507V28.0075H421.049V29.3077H419.366V35.1048C419.366 35.579 419.397 35.885 419.458 36.0226C419.519 36.1603 419.611 36.2673 419.748 36.3438C419.886 36.4203 420.07 36.4662 420.33 36.4662C420.513 36.4662 420.758 36.4509 421.064 36.405L421.049 36.4203Z" fill="#595757"/>
<path d="M50.8397 60.8632V59.4101C50.0749 60.5267 49.0194 61.0927 47.6886 61.0927C47.1074 61.0927 46.557 60.9856 46.0522 60.7562C45.5475 60.5267 45.1651 60.2514 44.9203 59.9149C44.6756 59.5784 44.5072 59.1654 44.4001 58.6606C44.3237 58.3241 44.293 57.804 44.293 57.0851V50.9362H45.9757V56.4427C45.9757 57.3146 46.0064 57.9111 46.0828 58.217C46.1899 58.6606 46.4193 59.0124 46.7558 59.2572C47.0923 59.5019 47.5207 59.6396 48.0255 59.6396C48.5302 59.6396 49.0043 59.5172 49.4479 59.2572C49.8915 58.9972 50.1972 58.6453 50.3807 58.2018C50.5643 57.7582 50.6563 57.1157 50.6563 56.2591V50.9515H52.3386V60.8632H50.8397Z" fill="#595757"/>
<path d="M54.9854 60.8632V50.9514H56.4996V52.3587C57.2338 51.2727 58.2741 50.722 59.6507 50.722C60.2472 50.722 60.798 50.8291 61.3028 51.0432C61.8075 51.2574 62.1746 51.5327 62.4347 51.8845C62.6794 52.2363 62.8631 52.6493 62.9549 53.1235C63.016 53.4294 63.0463 53.9801 63.0463 54.7602V60.8632H61.364V54.8366C61.364 54.1483 61.3026 53.6435 61.165 53.307C61.0426 52.9705 60.7979 52.6952 60.4767 52.4964C60.1402 52.2975 59.7578 52.1904 59.2989 52.1904C58.58 52.1904 57.9682 52.4199 57.4482 52.8787C56.9281 53.3376 56.6681 54.1942 56.6681 55.4638V60.8785H54.9854V60.8632Z" fill="#595757"/>
<path d="M66.0143 60.8632V52.2516H64.5303V50.9514H66.0143V49.896C66.0143 49.223 66.0753 48.7335 66.1977 48.4123C66.3659 47.984 66.6413 47.6169 67.0543 47.3569C67.4673 47.0816 68.0331 46.9439 68.7673 46.9439C69.2415 46.9439 69.7616 47.0051 70.3428 47.1122L70.0982 48.5806C69.7464 48.5194 69.425 48.4888 69.1037 48.4888C68.599 48.4888 68.2319 48.5959 68.0178 48.81C67.8036 49.0242 67.6966 49.4371 67.6966 50.0337V50.9514H69.6239V52.2516H67.6966V60.8632H66.0292H66.0143Z" fill="#595757"/>
<path d="M70.2966 55.9074C70.2966 54.0718 70.8013 52.7105 71.8262 51.8233C72.6827 51.0891 73.7229 50.722 74.9466 50.722C76.3079 50.722 77.4244 51.1656 78.281 52.0681C79.1376 52.9705 79.5813 54.1942 79.5813 55.7697C79.5813 57.0392 79.3979 58.0488 79.0002 58.783C78.6178 59.5172 78.0518 60.0831 77.3328 60.4808C76.5986 60.8785 75.8031 61.0927 74.9313 61.0927C73.5393 61.0927 72.4228 60.6491 71.5662 59.7619C70.7097 58.8748 70.2812 57.5899 70.2812 55.9226L70.2966 55.9074ZM72.0252 55.9074C72.0252 57.1769 72.3006 58.1253 72.8512 58.7524C73.4019 59.3795 74.1053 59.7007 74.9466 59.7007C75.7879 59.7007 76.4763 59.3795 77.027 58.7524C77.5777 58.11 77.853 57.1463 77.853 55.8462C77.853 54.6225 77.5776 53.6894 77.0117 53.0623C76.461 52.4352 75.7573 52.114 74.9313 52.114C74.1053 52.114 73.4019 52.4352 72.8359 53.0623C72.27 53.6894 72.0099 54.6378 72.0099 55.9074H72.0252Z" fill="#595757"/>
<path d="M81.5225 60.8632V47.1733H83.2052V60.8632H81.5225Z" fill="#595757"/>
<path d="M92.2462 60.8632V59.6089C91.6191 60.5879 90.7013 61.0773 89.4776 61.0773C88.6822 61.0773 87.9634 60.8632 87.3057 60.4196C86.648 59.9913 86.1279 59.3795 85.7608 58.5994C85.3937 57.8193 85.21 56.9169 85.21 55.9074C85.21 54.8978 85.3783 54.0259 85.6995 53.2153C86.036 52.4046 86.5255 51.7927 87.1832 51.3645C87.8409 50.9362 88.5751 50.722 89.401 50.722C89.9976 50.722 90.533 50.8444 90.9919 51.1044C91.4507 51.3491 91.8331 51.6857 92.1238 52.0834V47.1733H93.7911V60.8632H92.2309H92.2462ZM86.9386 55.9074C86.9386 57.1769 87.1987 58.1252 87.734 58.7524C88.2694 59.3795 88.8965 59.7007 89.6307 59.7007C90.3649 59.7007 90.992 59.3948 91.4968 58.7983C92.0168 58.2017 92.2616 57.284 92.2616 56.045C92.2616 54.6837 92.0015 53.6894 91.4814 53.0623C90.9614 52.4199 90.3189 52.1139 89.5541 52.1139C88.7893 52.1139 88.1776 52.4199 87.6881 53.0317C87.1833 53.6435 86.9386 54.6072 86.9386 55.9226V55.9074Z" fill="#595757"/>
<path d="M108.23 59.6396C107.603 60.1749 107.006 60.542 106.44 60.7561C105.859 60.9703 105.247 61.0774 104.59 61.0774C103.504 61.0774 102.662 60.8173 102.081 60.282C101.5 59.7466 101.209 59.0736 101.209 58.2476C101.209 57.7582 101.316 57.3145 101.546 56.9169C101.76 56.5192 102.05 56.198 102.417 55.9532C102.769 55.7085 103.182 55.5249 103.626 55.4026C103.962 55.3108 104.452 55.2343 105.125 55.1578C106.486 54.9896 107.48 54.806 108.123 54.5766C108.123 54.3471 108.123 54.1942 108.123 54.133C108.123 53.4447 107.97 52.9705 107.649 52.6799C107.221 52.2975 106.578 52.114 105.737 52.114C104.942 52.114 104.36 52.2516 103.993 52.5269C103.611 52.8023 103.335 53.2918 103.152 53.9954L101.515 53.7659C101.668 53.0623 101.913 52.4964 102.249 52.0681C102.586 51.6398 103.091 51.3033 103.733 51.0738C104.375 50.8444 105.125 50.722 105.981 50.722C106.838 50.722 107.511 50.8291 108.047 51.028C108.582 51.2268 108.964 51.4715 109.209 51.7774C109.454 52.0834 109.637 52.4658 109.729 52.9246C109.79 53.2153 109.805 53.7353 109.805 54.4695V56.7027C109.805 58.2629 109.836 59.2572 109.913 59.6701C109.989 60.0831 110.127 60.4808 110.341 60.8632H108.582C108.413 60.5114 108.291 60.1137 108.245 59.6396H108.23ZM108.092 55.8767C107.48 56.1215 106.563 56.3356 105.354 56.5192C104.666 56.611 104.176 56.7333 103.886 56.8557C103.595 56.9781 103.381 57.1616 103.228 57.4063C103.075 57.6511 102.999 57.9111 102.999 58.2018C102.999 58.6453 103.167 59.0277 103.503 59.3183C103.84 59.6089 104.345 59.7619 104.987 59.7619C105.63 59.7619 106.211 59.6243 106.716 59.3336C107.22 59.043 107.588 58.6606 107.832 58.1711C108.016 57.7887 108.107 57.2381 108.107 56.4886V55.8767H108.092Z" fill="#595757"/>
<path d="M112.36 60.8632V47.1733H114.043V60.8632H112.36Z" fill="#595757"/>
<path d="M116.015 55.9074C116.015 54.0718 116.52 52.7105 117.545 51.8233C118.401 51.0891 119.442 50.722 120.665 50.722C122.027 50.722 123.143 51.1656 124 52.0681C124.872 52.9552 125.3 54.1942 125.3 55.7697C125.3 57.0392 125.116 58.0488 124.719 58.783C124.336 59.5172 123.77 60.0831 123.051 60.4808C122.317 60.8785 121.522 61.0927 120.65 61.0927C119.258 61.0927 118.141 60.6491 117.285 59.7619C116.428 58.8748 116 57.5899 116 55.9226L116.015 55.9074ZM117.744 55.9074C117.744 57.1769 118.019 58.1253 118.57 58.7524C119.12 59.3795 119.824 59.7007 120.665 59.7007C121.507 59.7007 122.195 59.3795 122.745 58.7524C123.296 58.11 123.571 57.1463 123.571 55.8462C123.571 54.6225 123.296 53.6894 122.73 53.0623C122.179 52.4352 121.476 52.114 120.65 52.114C119.824 52.114 119.12 52.4352 118.554 53.0623C117.988 53.6894 117.728 54.6378 117.728 55.9074H117.744Z" fill="#595757"/>
<path d="M127.273 60.8632V50.9514H128.788V52.3587C129.522 51.2727 130.562 50.722 131.939 50.722C132.535 50.722 133.086 50.8291 133.591 51.0432C134.096 51.2574 134.463 51.5327 134.723 51.8845C134.967 52.2363 135.151 52.6493 135.243 53.1235C135.304 53.4294 135.334 53.9801 135.334 54.7602V60.8632H133.652V54.8366C133.652 54.1483 133.591 53.6435 133.453 53.307C133.331 52.9705 133.086 52.6952 132.765 52.4964C132.428 52.2975 132.046 52.1904 131.587 52.1904C130.868 52.1904 130.256 52.4199 129.736 52.8787C129.216 53.3376 128.956 54.1942 128.956 55.4638V60.8785H127.273V60.8632Z" fill="#595757"/>
<path d="M137.598 61.6739L139.235 61.9186C139.312 62.4234 139.495 62.7905 139.801 63.0199C140.214 63.3259 140.78 63.4941 141.514 63.4941C142.294 63.4941 142.891 63.3412 143.319 63.0199C143.747 62.714 144.023 62.2704 144.176 61.7198C144.268 61.3833 144.298 60.6644 144.298 59.563C143.564 60.4349 142.646 60.8632 141.56 60.8632C140.199 60.8632 139.143 60.3738 138.394 59.3948C137.644 58.4159 137.277 57.2381 137.277 55.8615C137.277 54.9131 137.446 54.0412 137.782 53.2458C138.119 52.4504 138.623 51.8233 139.266 51.395C139.924 50.9667 140.673 50.7373 141.56 50.7373C142.723 50.7373 143.702 51.2115 144.451 52.1598V50.9667H145.996V59.5325C145.996 61.0774 145.843 62.1634 145.522 62.8211C145.216 63.4635 144.711 63.9683 144.023 64.3507C143.335 64.7331 142.509 64.9166 141.514 64.9166C140.337 64.9166 139.373 64.6566 138.654 64.1213C137.92 63.5859 137.568 62.7905 137.598 61.7198V61.6739ZM138.991 55.7237C138.991 57.0239 139.251 57.9723 139.771 58.5688C140.291 59.1654 140.933 59.4713 141.713 59.4713C142.493 59.4713 143.136 59.1807 143.656 58.5841C144.176 57.9876 144.436 57.0545 144.436 55.7849C144.436 54.5154 144.161 53.6588 143.625 53.047C143.09 52.4351 142.432 52.1292 141.683 52.1292C140.933 52.1292 140.306 52.4352 139.771 53.0317C139.251 53.6435 138.991 54.546 138.991 55.7391V55.7237Z" fill="#595757"/>
<path d="M157.529 59.3642L157.774 60.8479C157.3 60.9397 156.872 61.0009 156.505 61.0009C155.893 61.0009 155.419 60.9091 155.082 60.7103C154.746 60.5114 154.501 60.2667 154.378 59.9455C154.24 59.6243 154.179 58.9665 154.179 57.957V52.2516H152.94V50.9514H154.179V48.5041L155.847 47.4946V50.9514H157.529V52.2516H155.847V58.0488C155.847 58.523 155.877 58.8289 155.938 58.9666C156 59.1042 156.092 59.2113 156.229 59.2878C156.367 59.3642 156.55 59.4101 156.81 59.4101C156.994 59.4101 157.239 59.3948 157.545 59.349L157.529 59.3642Z" fill="#595757"/>
<path d="M159.164 60.8632V47.1733H160.847V52.0834C161.627 51.1809 162.621 50.722 163.814 50.722C164.548 50.722 165.191 50.8597 165.726 51.1503C166.261 51.4409 166.659 51.8386 166.889 52.3434C167.118 52.8481 167.24 53.5977 167.24 54.5613V60.8479H165.558V54.5613C165.558 53.72 165.374 53.1082 165.007 52.7258C164.64 52.3434 164.12 52.1445 163.462 52.1445C162.958 52.1445 162.498 52.2822 162.055 52.5269C161.611 52.787 161.306 53.1388 161.122 53.5823C160.938 54.0259 160.847 54.6378 160.847 55.4179V60.8479H159.164V60.8632Z" fill="#595757"/>
<path d="M176.587 57.6664L178.315 57.8805C178.04 58.89 177.535 59.6854 176.786 60.2361C176.051 60.802 175.103 61.0773 173.94 61.0773C172.487 61.0773 171.34 60.6338 170.499 59.7313C169.642 58.8442 169.229 57.5899 169.229 55.9685C169.229 54.3471 169.658 53.0011 170.514 52.0834C171.371 51.1656 172.487 50.7067 173.864 50.7067C175.24 50.7067 176.265 51.1656 177.107 52.0681C177.948 52.9705 178.361 54.2401 178.361 55.8767C178.361 55.9838 178.361 56.1215 178.361 56.3203H170.973C171.034 57.4063 171.34 58.2476 171.891 58.8288C172.442 59.4101 173.13 59.7007 173.971 59.7007C174.583 59.7007 175.118 59.5325 175.547 59.2112C175.99 58.89 176.327 58.37 176.587 57.6664ZM171.065 54.9437H176.602C176.525 54.1024 176.311 53.4906 175.96 53.0623C175.424 52.4199 174.736 52.0986 173.879 52.0986C173.114 52.0986 172.457 52.3587 171.937 52.8787C171.417 53.3988 171.126 54.0871 171.065 54.959V54.9437Z" fill="#595757"/>
<path d="M183.608 64.7025L183.93 63.28C184.266 63.3717 184.526 63.4176 184.725 63.4176C185.061 63.4176 185.322 63.3106 185.49 63.0812C185.658 62.8517 185.734 62.2857 185.734 61.3833V50.9668H187.417V61.4292C187.417 62.6528 187.264 63.4941 186.943 63.9836C186.545 64.6107 185.872 64.9166 184.924 64.9166C184.465 64.9166 184.037 64.8555 183.608 64.7331V64.7025ZM185.734 49.1312V47.1733H187.417V49.1312H185.734Z" fill="#595757"/>
<path d="M189.359 55.9074C189.359 54.0718 189.864 52.7105 190.889 51.8233C191.745 51.0891 192.785 50.722 194.009 50.722C195.37 50.722 196.487 51.1656 197.343 52.0681C198.215 52.9552 198.644 54.1942 198.644 55.7697C198.644 57.0392 198.46 58.0488 198.062 58.783C197.68 59.5172 197.114 60.0831 196.395 60.4808C195.661 60.8785 194.866 61.0927 193.994 61.0927C192.602 61.0927 191.485 60.6491 190.629 59.7619C189.772 58.8748 189.344 57.5899 189.344 55.9226L189.359 55.9074ZM191.087 55.9074C191.087 57.1769 191.363 58.1253 191.913 58.7524C192.464 59.3795 193.168 59.7007 194.009 59.7007C194.85 59.7007 195.538 59.3795 196.089 58.7524C196.64 58.11 196.915 57.1463 196.915 55.8462C196.915 54.6225 196.64 53.6894 196.074 53.0623C195.523 52.4352 194.82 52.114 193.994 52.114C193.168 52.114 192.464 52.4352 191.898 53.0623C191.332 53.6894 191.072 54.6378 191.072 55.9074H191.087Z" fill="#595757"/>
<path d="M207.118 60.8632V59.4101C206.353 60.5267 205.298 61.0927 203.967 61.0927C203.386 61.0927 202.835 60.9856 202.33 60.7562C201.825 60.5267 201.443 60.2514 201.198 59.9149C200.954 59.5784 200.785 59.1654 200.678 58.6606C200.617 58.3241 200.571 57.804 200.571 57.0851V50.9362H202.254V56.4427C202.254 57.3146 202.284 57.9111 202.361 58.217C202.468 58.6606 202.697 59.0124 203.034 59.2572C203.37 59.5019 203.799 59.6396 204.303 59.6396C204.808 59.6396 205.282 59.5172 205.726 59.2572C206.169 58.9972 206.475 58.6453 206.659 58.2018C206.843 57.7582 206.934 57.1157 206.934 56.2591V50.9515H208.617V60.8632H207.118Z" fill="#595757"/>
<path d="M211.25 60.8632V50.9514H212.764V52.4505C213.146 51.7469 213.513 51.288 213.835 51.0585C214.156 50.8291 214.523 50.722 214.905 50.722C215.471 50.722 216.053 50.9056 216.634 51.2574L216.052 52.8176C215.639 52.5728 215.226 52.4505 214.813 52.4505C214.446 52.4505 214.11 52.5575 213.819 52.787C213.529 53.0164 213.315 53.307 213.192 53.7047C213.009 54.3013 212.917 54.959 212.917 55.6626V60.8479H211.234L211.25 60.8632Z" fill="#595757"/>
<path d="M217.627 60.8632V50.9514H219.141V52.3587C219.875 51.2727 220.915 50.722 222.292 50.722C222.889 50.722 223.439 50.8291 223.944 51.0432C224.449 51.2574 224.816 51.5327 225.076 51.8845C225.321 52.2363 225.504 52.6493 225.596 53.1235C225.657 53.4294 225.688 53.9801 225.688 54.7602V60.8632H224.005V54.8366C224.005 54.1483 223.944 53.6435 223.806 53.307C223.684 52.9705 223.439 52.6952 223.103 52.4964C222.766 52.2975 222.384 52.1904 221.925 52.1904C221.206 52.1904 220.594 52.4199 220.074 52.8787C219.554 53.3376 219.294 54.1942 219.294 55.4638V60.8785H217.611L217.627 60.8632Z" fill="#595757"/>
<path d="M235.048 57.6664L236.777 57.8805C236.502 58.89 235.997 59.6854 235.248 60.2361C234.513 60.802 233.565 61.0773 232.402 61.0773C230.949 61.0773 229.802 60.6338 228.961 59.7313C228.104 58.8442 227.691 57.5899 227.691 55.9685C227.691 54.3471 228.119 53.0011 228.976 52.0834C229.833 51.1656 230.949 50.7067 232.326 50.7067C233.703 50.7067 234.727 51.1656 235.569 52.0681C236.41 52.9705 236.823 54.2401 236.823 55.8767C236.823 55.9838 236.823 56.1215 236.823 56.3203H229.435C229.496 57.4063 229.802 58.2476 230.353 58.8288C230.904 59.4101 231.592 59.7007 232.433 59.7007C233.045 59.7007 233.58 59.5325 234.008 59.2112C234.452 58.89 234.788 58.37 235.048 57.6664ZM229.527 54.9437H235.064C234.987 54.1024 234.773 53.4906 234.421 53.0623C233.886 52.4199 233.198 52.0986 232.341 52.0986C231.577 52.0986 230.919 52.3587 230.399 52.8787C229.879 53.3988 229.588 54.0871 229.527 54.959V54.9437Z" fill="#595757"/>
<path d="M238.827 64.6719L238.644 63.0964C239.011 63.1882 239.332 63.2494 239.607 63.2494C239.975 63.2494 240.28 63.1882 240.51 63.0659C240.739 62.9435 240.923 62.7599 241.061 62.5458C241.168 62.3775 241.336 61.9645 241.58 61.2915C241.611 61.1997 241.657 61.0621 241.733 60.8785L237.971 50.9515H239.776L241.841 56.6874C242.101 57.4216 242.345 58.1864 242.559 58.9818C242.758 58.217 242.988 57.4523 243.248 56.7181L245.374 50.9362H247.056L243.278 61.0162C242.881 62.1022 242.559 62.8517 242.33 63.2647C242.024 63.8154 241.688 64.2283 241.305 64.4884C240.923 64.7484 240.464 64.8708 239.929 64.8708C239.607 64.8708 239.24 64.8096 238.843 64.6719H238.827Z" fill="#595757"/>
<path d="M247.516 60.8632V58.9512H249.428V60.8632H247.516Z" fill="#595757"/>
<defs>
<linearGradient id="paint0_linear_86_168058" x1="240.3" y1="222.468" x2="240.3" y2="390.725" gradientUnits="userSpaceOnUse">
<stop stop-color="white"/>
<stop offset="1" stop-color="white" stop-opacity="0.6"/>
</linearGradient>
</defs>
</svg>
