<svg width="480" height="454" viewBox="0 0 480 454" fill="none" xmlns="http://www.w3.org/2000/svg">
<path opacity="0.8" d="M436.87 0H43.1304C19.3101 0 0 19.2976 0 43.1024V410.898C0 434.702 19.3101 454 43.1304 454H436.87C460.69 454 480 434.702 480 410.898V43.1024C480 19.2976 460.69 0 436.87 0Z" fill="url(#paint0_linear_20_208443)"/>
<mask id="mask0_20_208443" style="mask-type:luminance" maskUnits="userSpaceOnUse" x="17" y="99" width="446" height="340">
<path d="M17.5806 99.6062V398.859C17.5806 420.829 35.5645 438.801 57.5483 438.801H422.436C444.42 438.801 462.403 420.829 462.403 398.859V99.6062H17.5806Z" fill="white"/>
</mask>
<g mask="url(#mask0_20_208443)">
<mask id="mask1_20_208443" style="mask-type:luminance" maskUnits="userSpaceOnUse" x="-131" y="73" width="718" height="404">
<path d="M586.616 73.1748H-130.399V476.233H586.616V73.1748Z" fill="white"/>
</mask>
<g mask="url(#mask1_20_208443)">
<path d="M586.616 73.1748H-130.399V476.233H586.616V73.1748Z" fill="#EBF1FA"/>
<path d="M107.531 213.483H141.654V267.12H156.506V198.64L184.087 176.066V237.203H194.365V335.306H-129.764L-130.399 146.66L-108.307 140.556L-92.7882 149.34L-92.1526 207.332L-80.184 208.432V171.015L-63.3783 167.173L-43.3325 171.015V214.629L-7.78322 218.874V208.525C-7.78322 188.074 7.30157 170.659 27.7815 167.514L40.1687 127.944V201.63L62.106 205.999V167.359H93.2988V241.556L107.515 243.896V213.452L107.531 213.483Z" fill="#CCDAF0"/>
<path d="M89.6561 171.311H87.5786V174.099H89.6561V171.311Z" fill="#EBF1FA"/>
<path d="M84.803 175.524H82.7256V178.313H84.803V175.524Z" fill="#EBF1FA"/>
<path d="M80.5238 171.311H78.4463V174.099H80.5238V171.311Z" fill="#EBF1FA"/>
<path d="M76.8348 171.311H74.7573V174.099H76.8348V171.311Z" fill="#EBF1FA"/>
<path d="M70.7728 171.311H68.6953V174.099H70.7728V171.311Z" fill="#EBF1FA"/>
<path d="M74.0901 179.925H72.0127V182.714H74.0901V179.925Z" fill="#EBF1FA"/>
<path d="M69.7337 176.918H67.6562V179.707H69.7337V176.918Z" fill="#EBF1FA"/>
<path d="M-130.399 448.903L199.59 365.456L494.092 334.656L200.582 477.457H-130.399V448.903Z" fill="#1C1D1B"/>
<path d="M-130.399 471.477L162.273 387.472L407.459 358.515L153.142 477.101H-130.399V471.477Z" fill="#040000"/>
<path d="M141.142 445.308L33.9673 439.7L38.5718 437.174L144.847 442.86L141.142 445.308Z" fill="#57595B"/>
<path d="M182.475 435.827L183.188 427.011L91.4701 421.387L90.0283 427.693L182.475 435.827Z" fill="#414344"/>
<path d="M183.188 427.011L91.4702 421.387L95.4081 418.877L186.351 424.563L183.188 427.011Z" fill="#57595B"/>
<path d="M186.351 424.562L187.994 431.24L182.475 435.826L183.188 427.01L186.351 424.562Z" fill="#353738"/>
<path d="M224.876 418.955L225.511 410.139L144.77 404.515L143.499 410.821L224.876 418.955Z" fill="#414344"/>
<path d="M225.512 410.139L144.77 404.515L148.227 402.005L228.302 407.691L225.512 410.139Z" fill="#57595B"/>
<path d="M228.302 407.691L229.744 414.368L224.876 418.954L225.512 410.139L228.302 407.691Z" fill="#353738"/>
<path d="M152.398 397.604L-107.392 477.503L-81.3769 477.488L164.228 398.085L152.398 397.604Z" fill="#969FAB"/>
<path d="M164.228 398.085L-81.377 477.488L-57.2692 477.457L182.847 399.108L164.228 398.085Z" fill="#75797C"/>
<path d="M242.054 402.004L52.897 477.457L74.8498 477.503L254.58 401.896L242.054 402.004Z" fill="#969FAB"/>
<path d="M254.581 401.896L74.8501 477.503L94.0123 477.441L264.425 403.538L254.581 401.896Z" fill="#75797C"/>
<path d="M-130.399 426.097L200.582 359.832V310.13L-130.399 304.118V426.097Z" fill="#A2AEBE"/>
<path d="M581.748 261.883V233.376L569.051 243.896V275.827H562.199V250.821H546.478V263.913H539.936V250.31V229.316H525.564V245.29H515.456V210.941L493.364 225.009V243.896H482.124V207.595H464.775V220.253H459.272V213.312H442.296V216.658H437.164V234.832H425.908V215.946L403.816 201.878V236.226H393.708V220.253H379.336V241.246V254.849H372.794V241.742H357.073V266.764H350.236V234.832L337.524 224.312V252.804H332.795V324.042H384.189H437.164V333.106H535.083H586.492V261.883H581.748Z" fill="#CCDAF0"/>
<path d="M321.524 157.598C321.524 157.598 303.618 136.186 259.867 135.303C259.867 135.303 198.505 129.726 144.786 155.259C144.786 155.259 125.996 162.881 118.957 196.626C118.957 196.626 106.849 251.193 106.927 286.983C107.004 322.509 108.694 351.233 137.453 370.011C137.453 370.011 136.569 375.573 137.623 379.896L138.46 384.079C140.057 392.027 146.848 397.884 154.956 398.317L257.325 403.632C265.821 404.065 274.317 402.671 282.223 399.51L460.977 328.071V274.681L321.524 157.629V157.598Z" fill="#040000"/>
<path d="M153.794 297.441C201.157 299.006 248.271 297.642 266.069 268.313C267.527 263.464 268.395 260.567 268.395 260.567C268.395 260.567 288.441 187.283 306.657 166.398C309.851 162.742 315.323 162.169 319.184 165.097L433.754 251.782L321.54 157.583C321.54 157.583 303.634 136.171 259.883 135.288C259.883 135.288 198.521 129.71 144.802 155.243C144.802 155.243 126.012 162.866 118.973 196.61C118.973 196.61 111.035 232.353 108.059 264.967C108.059 265.013 106.493 295.876 153.809 297.441H153.794Z" fill="#414042"/>
<path d="M107.392 273.349C107.454 272.466 107.516 271.583 107.578 270.699C107.516 271.583 107.454 272.481 107.392 273.349Z" fill="#414042"/>
<path d="M107.222 276.215C107.268 275.393 107.315 274.557 107.361 273.72C107.315 274.557 107.253 275.393 107.222 276.215Z" fill="#414042"/>
<path d="M108.043 264.967C107.965 265.896 107.872 266.826 107.795 267.755C107.872 266.826 107.95 265.896 108.043 264.967Z" fill="#414042"/>
<path d="M107.578 270.653C107.64 269.754 107.717 268.856 107.795 267.957C107.717 268.856 107.655 269.754 107.578 270.653Z" fill="#414042"/>
<path d="M107.098 278.803C107.129 277.982 107.175 277.145 107.206 276.308C107.16 277.145 107.129 277.966 107.098 278.803Z" fill="#414042"/>
<path d="M107.004 281.622C107.019 280.863 107.05 280.088 107.081 279.298C107.05 280.073 107.019 280.847 107.004 281.622Z" fill="#414042"/>
<path d="M137.623 379.88C137.53 379.462 137.437 379.044 137.375 378.625C137.437 379.059 137.53 379.477 137.623 379.88Z" fill="#414042"/>
<path d="M106.942 284.101C106.942 283.327 106.973 282.552 106.989 281.762C106.973 282.552 106.958 283.327 106.942 284.101Z" fill="#414042"/>
<path d="M141.282 384.668L260.472 391.128C260.472 391.128 274.27 392.306 290.13 387.906L460.993 328.055L516.789 315.366L321.54 157.598C321.54 157.598 303.634 136.186 259.883 135.303C259.883 135.303 198.521 129.725 144.802 155.258C144.802 155.258 126.011 162.881 118.973 196.625C118.973 196.625 106.865 251.193 106.942 286.982C107.02 322.508 108.71 351.233 137.468 370.011C137.468 370.011 135.406 382.917 141.282 384.683V384.668Z" fill="#3C3C3B"/>
<path d="M319.184 165.113C315.308 162.184 309.851 162.758 306.657 166.414C288.44 187.299 268.395 260.582 268.395 260.582C268.395 260.582 236.69 366.494 234.334 374.117C232.892 378.812 227.776 385.055 224.07 389.161L248.659 390.494C298.502 390.447 329.152 325.251 329.152 325.251L514.123 314.747L510.635 312.066L319.168 165.128L319.184 165.113Z" fill="#EDEDEC"/>
<path d="M127.19 188.987L202.645 181.365C202.645 181.365 193.25 213.049 190.909 248.249L116.337 252.355C116.337 252.355 116.337 213.343 127.205 188.987H127.19Z" fill="#859EAE"/>
<path d="M208.504 181.349L251.666 176.655L242.271 245.6L197.063 247.366C197.063 247.366 205.869 187.221 208.52 181.349H208.504Z" fill="#859EAE"/>
<path d="M258.596 176.19L273.247 174.656L260.813 245.104H248.287L258.596 176.19Z" fill="#859EAE"/>
<path d="M143.669 176.175L155.157 174.78C156.01 174.672 156.754 174.021 157.111 173.076L159.235 167.452C160.01 165.391 158.692 163.083 156.847 163.253L145.313 164.353C144.413 164.446 143.638 165.128 143.282 166.135L141.204 172.053C140.476 174.13 141.84 176.392 143.669 176.175Z" fill="#EDEDEC"/>
<path d="M143.422 176.608C142.646 176.608 141.918 176.237 141.375 175.57C140.585 174.594 140.367 173.153 140.802 171.914L142.879 165.996C143.298 164.818 144.212 164.028 145.267 163.935L156.801 162.835C157.685 162.757 158.537 163.145 159.127 163.919C159.886 164.926 160.088 166.367 159.623 167.591L157.499 173.215C157.08 174.315 156.196 175.059 155.204 175.183L143.716 176.577C143.623 176.577 143.515 176.593 143.422 176.593V176.608ZM157.065 163.656C157.065 163.656 156.956 163.656 156.91 163.656L145.375 164.756C144.646 164.834 143.995 165.407 143.701 166.259L141.623 172.177C141.282 173.153 141.453 174.269 142.057 175.028C142.491 175.555 143.05 175.818 143.639 175.741L155.127 174.346C155.824 174.269 156.444 173.711 156.739 172.906L158.863 167.281C159.235 166.305 159.08 165.19 158.491 164.415C158.103 163.919 157.607 163.641 157.065 163.641V163.656Z" fill="#3C3C3B"/>
<path d="M260.224 163.222L271.712 161.828C272.565 161.719 273.309 161.068 273.665 160.123L275.789 154.499C276.565 152.439 275.247 150.13 273.402 150.301L261.867 151.401C260.968 151.494 260.193 152.175 259.836 153.182L257.759 159.101C257.03 161.177 258.395 163.439 260.224 163.222Z" fill="#EDEDEC"/>
<path d="M259.976 163.656C259.201 163.656 258.472 163.284 257.929 162.618C257.139 161.642 256.922 160.201 257.356 158.962L259.433 153.043C259.852 151.866 260.766 151.076 261.821 150.983L273.355 149.883C274.239 149.805 275.092 150.192 275.681 150.967C276.44 151.974 276.642 153.415 276.177 154.639L274.053 160.263C273.634 161.363 272.751 162.107 271.758 162.231L260.27 163.625C260.177 163.625 260.069 163.641 259.976 163.641V163.656ZM273.619 150.704C273.619 150.704 273.51 150.704 273.464 150.704L261.929 151.804C261.201 151.881 260.549 152.454 260.255 153.307L258.177 159.225C257.836 160.201 258.007 161.317 258.612 162.076C259.046 162.603 259.604 162.85 260.193 162.788L271.681 161.394C272.379 161.301 272.999 160.759 273.293 159.953L275.417 154.329C275.789 153.353 275.634 152.238 275.045 151.463C274.658 150.967 274.161 150.688 273.619 150.688V150.704Z" fill="#3C3C3B"/>
<path d="M313.106 181.35C313.106 181.35 306.068 176.159 306.068 192.985L302.936 250.093L313.106 252.34V181.334V181.35Z" fill="#364F5D"/>
<path d="M333.865 195.727L346.578 204.14V262.953L333.865 258.32V195.727Z" fill="#364F5D"/>
<path d="M373.058 222.949L403.243 242.703C403.801 243.075 404.126 243.71 404.126 244.376V277.826C404.126 279.205 402.778 280.181 401.46 279.763L371.275 269.94C370.438 269.661 369.879 268.887 369.879 268.004V224.638C369.879 223.011 371.709 222.035 373.058 222.965V222.949Z" fill="#364F5D"/>
<path d="M424.606 257.298L444.172 269.816C444.528 270.064 444.745 270.467 444.745 270.901V292.39C444.745 293.289 443.877 293.924 443.024 293.645L423.459 286.595C422.917 286.425 422.544 285.914 422.544 285.341V258.367C422.544 257.313 423.738 256.678 424.606 257.282V257.298Z" fill="#364F5D"/>
<path d="M458.838 279.685L471.349 287.68C471.582 287.835 471.721 288.098 471.721 288.377V302.119C471.721 302.693 471.163 303.095 470.62 302.925L458.109 298.417C457.768 298.308 457.536 297.983 457.536 297.611V280.382C457.536 279.701 458.295 279.313 458.853 279.685H458.838Z" fill="#364F5D"/>
<path d="M179.188 159.489L176.956 166.708C176.057 169.637 178.413 172.534 181.452 172.24L221.389 168.413C223.032 168.258 224.443 167.173 225.001 165.624L227.652 158.373C228.737 155.414 226.35 152.346 223.218 152.64L182.878 156.498C181.157 156.669 179.7 157.846 179.188 159.489Z" fill="#EDEDEC"/>
<path d="M180.955 172.688C179.235 172.688 177.622 171.743 176.801 170.116C176.227 169.001 176.211 167.684 176.584 166.476L178.801 159.318C179.359 157.52 180.924 156.25 182.8 156.064L223.264 152.191C225.295 152.005 227.218 153.105 228.039 155.103C228.489 156.188 228.427 157.427 228.039 158.543L225.404 165.778C224.799 167.452 223.249 168.645 221.481 168.815L181.436 172.657C181.281 172.657 181.142 172.673 180.987 172.673L180.955 172.688ZM179.591 159.581L177.359 166.77C177.08 167.653 177.064 168.614 177.421 169.45C178.087 171.062 179.684 171.991 181.328 171.821L221.373 167.994C222.83 167.854 224.086 166.878 224.582 165.515L227.233 158.264C227.559 157.365 227.621 156.358 227.249 155.46C226.582 153.817 224.985 152.888 223.326 153.043L182.862 156.916C181.328 157.056 180.041 158.109 179.591 159.581Z" fill="#3C3C3B"/>
<path d="M281.448 385.567C283.836 385.133 286.317 384.591 288.859 383.893L456.776 325.081L331.85 329.264C329.214 334.377 322.021 347.391 310.796 360.576C301.525 371.468 291.65 379.85 281.448 385.582V385.567Z" fill="#1C1D1B"/>
<path d="M153.902 169.885C153.607 171.899 151.747 173.309 149.732 173.014C147.716 172.72 146.305 170.861 146.6 168.847C146.894 166.832 148.755 165.422 150.77 165.717C152.786 166.011 154.197 167.87 153.902 169.885Z" fill="#E98E14"/>
<path d="M270.456 157.289C270.162 159.303 268.301 160.713 266.286 160.418C264.271 160.124 262.86 158.265 263.154 156.251C263.449 154.236 265.309 152.827 267.34 153.121C269.356 153.415 270.767 155.274 270.472 157.289H270.456Z" fill="#E98E14"/>
<path d="M154.801 285.898C137.329 285.263 124.43 280.305 116.461 271.195C111.934 266.02 109.872 260.396 108.957 256.197C108.709 258.382 108.477 260.582 108.26 262.751C109.562 265.974 111.5 269.46 114.384 272.806C122.833 282.614 136.398 287.943 154.723 288.609C162.615 288.904 170.521 289.105 178.32 289.105C214.923 289.105 249.139 284.457 268.131 261.481C268.301 260.892 268.41 260.567 268.41 260.567C268.41 260.567 269.061 258.165 270.255 254.121C249.682 286.564 201.993 287.618 154.832 285.898H154.801Z" fill="#7E348F"/>
<path d="M185.172 298.432L185.25 297.921C185.978 293.273 203.187 183.952 206.148 177.383L206.241 177.166L206.474 177.135L255.511 171.806L236.814 296.418H236.473L185.157 298.432H185.172ZM206.83 177.957C203.776 186.09 187.451 289.384 186.164 297.549L236.116 295.613L254.55 172.766L206.846 177.957H206.83Z" fill="#404E50"/>
<path d="M224.07 389.161C227.791 385.055 232.892 378.812 234.333 374.117C236.287 367.749 258.72 292.855 266.069 268.329C246.721 297.658 201.156 299.021 153.793 297.456C106.446 295.892 108.043 264.998 108.043 264.982C107.345 272.667 106.911 280.166 106.927 286.983C107.004 322.509 108.694 351.234 137.453 370.011C137.453 370.011 135.391 382.917 141.267 384.684L243.201 390.199L224.055 389.161H224.07Z" fill="#6A338F"/>
<path d="M156.243 378.796C155.065 373.513 143.034 366.773 125.717 337.723C108.415 308.704 108.043 265.029 108.043 264.967C107.345 272.651 106.911 280.15 106.927 286.967C107.004 322.493 108.694 351.218 137.453 369.996C137.453 369.996 135.391 382.902 141.267 384.668L156.755 385.504C156.801 383.258 156.693 380.81 156.243 378.796Z" fill="#EDEDEC"/>
<path d="M183.265 372.94C172.475 372.94 161.824 370.043 152.739 364.233C145.53 359.616 138.91 352.923 137.747 343.611C135.003 321.704 149.096 317.396 159.468 317.396H209.373C209.373 317.396 229.729 318.171 229.729 336.562C229.729 354.952 205.668 372.94 186.49 372.94H183.265Z" fill="#040000"/>
<path d="M159.948 347.515V341.643L201.358 342.697V348.553L159.948 347.515Z" fill="#414042"/>
<path d="M168.134 339.21V317.38H162.274V339.055L168.134 339.21Z" fill="#414042"/>
<path d="M172.026 352.473L188.723 353.372C189.886 353.434 190.878 352.504 190.878 351.342V339.753C190.878 338.669 190.025 337.77 188.956 337.724L172.259 336.825C171.096 336.763 170.104 337.693 170.104 338.855V350.444C170.104 351.528 170.956 352.427 172.026 352.473Z" fill="#414042"/>
<path d="M199.032 339.985V317.38H193.172V339.846L199.032 339.985Z" fill="#414042"/>
<path d="M477.752 307.62L299.851 252.665V252.339L303.975 187.5C303.975 183.549 304.998 180.776 307.029 179.273C309.695 177.29 313.075 178.281 313.215 178.328L313.323 178.374L475.752 288.346V289.337L312.905 179.118C312.486 179.01 309.664 178.343 307.51 179.955C305.711 181.303 304.796 183.844 304.796 187.531L300.704 252.061L477.721 306.752V307.635L477.752 307.62Z" fill="#575857"/>
<path d="M268.487 259.529L269.309 256.275L499.193 314.391L495.162 314.53L268.487 259.529Z" fill="#7E348F"/>
<path d="M316.284 181.381L331.121 191.42V315.785L316.238 315.847L316.284 181.381Z" fill="#6D6E71"/>
<path d="M349.12 203.614L366.546 215.404V315.615L349.12 315.692V203.614Z" fill="#6D6E71"/>
<path d="M407.459 243.106L418.746 250.728V315.847H407.459V243.106Z" fill="#6D6E71"/>
<path d="M448.543 270.932L455.21 275.44V315.692L448.543 315.847V270.932Z" fill="#6D6E71"/>
<path opacity="0.6" d="M158.91 185.781L148.181 186.865C139.438 209.16 137.686 239.821 137.329 251.209L147.918 250.62C148.585 236.149 150.895 207.843 158.91 185.781Z" fill="url(#paint1_linear_20_208443)"/>
<path opacity="0.6" d="M164.894 185.176C157.235 207.254 154.693 234.569 153.84 250.294L160.072 249.953C160.522 237.357 162.429 207.688 170.583 184.603L164.878 185.176H164.894Z" fill="url(#paint2_linear_20_208443)"/>
<path d="M180.288 258.258H176.196L134.15 234.414C134.274 232.849 134.321 231.811 134.321 231.811C134.321 231.811 135.36 216.395 132.585 213.622L129.422 249.876C130.848 248.45 133.112 243.772 133.639 239.464L169.715 260.272C169.684 260.427 169.669 260.566 169.669 260.737V262.224C169.669 263.587 170.785 264.703 172.149 264.703H180.288C181.653 264.703 182.769 263.587 182.769 262.224V260.737C182.769 259.373 181.653 258.258 180.288 258.258ZM170.707 258.723L133.98 237.528L133.84 237.776C133.887 237.311 133.933 236.862 133.98 236.428L172.475 258.258H172.165C171.622 258.258 171.126 258.428 170.723 258.723H170.707Z" fill="#2B2B2A"/>
<path d="M511.828 314.917L299.2 315.94L299.014 316.59C298.967 316.776 293.618 328.087 283.51 346.895C267.325 376.968 249.558 386.853 237.14 389.874L242.039 390.137C253.48 387.039 269.371 376.89 285.076 347.701C294.208 330.736 298.037 322.013 300.517 317.722L511.813 315.816V314.933L511.828 314.917Z" fill="#6D6E71"/>
<path d="M587.965 426.097C332.144 426.097 351.151 403.694 351.151 403.694V318.667C351.151 318.667 373.337 330.426 587.965 332.703V426.097Z" fill="#969FAB"/>
<path d="M-130.399 295.132L107.298 305.961L107.577 313.104L-130.399 304.118V295.132Z" fill="#BBC7D3"/>
<path d="M-67.2698 140.943C-67.2698 140.943 -52.0455 145.575 -40.7745 144.692C-29.5191 143.809 -26.868 144.909 -16.9303 144.801C-6.99264 144.692 7.34798 144.491 22.3552 144.801C37.3625 145.126 49.7187 144.801 49.7187 144.801C49.7187 144.801 37.7966 136.512 29.6263 137.395C21.4561 138.278 17.7042 139.254 15.9368 137.333C14.1695 135.412 11.3013 131.662 4.89843 131.229C-1.50447 130.795 -4.15554 134.312 -4.15554 134.312C-4.15554 134.312 -5.47333 124.613 -18.2791 124.613C-31.0849 124.613 -31.7516 131.446 -31.7516 131.446C-31.7516 131.446 -38.3715 129.679 -44.5573 132.763C-50.7432 135.846 -50.2936 136.078 -54.495 135.846C-58.6964 135.629 -63.9831 135.412 -67.3008 136.512C-70.6185 137.612 -73.2541 139.161 -75.6881 139.378C-78.1221 139.595 -77.4555 141.361 -75.6881 141.361C-73.9207 141.361 -67.3008 140.927 -67.3008 140.927L-67.2698 140.943Z" fill="white"/>
<path d="M163.266 122.49C163.266 122.49 172.878 125.418 179.994 124.861C187.11 124.303 188.769 125 195.048 124.938C201.327 124.861 210.381 124.737 219.853 124.938C229.326 125.14 237.14 124.938 237.14 124.938C237.14 124.938 229.62 119.701 224.458 120.259C219.295 120.817 216.939 121.437 215.823 120.213C214.706 118.989 212.892 116.634 208.861 116.355C204.815 116.076 203.141 118.307 203.141 118.307C203.141 118.307 202.304 112.172 194.226 112.172C186.149 112.172 185.73 116.494 185.73 116.494C185.73 116.494 181.545 115.379 177.653 117.331C173.762 119.283 174.025 119.423 171.374 119.283C168.723 119.144 165.375 119.004 163.297 119.701C161.22 120.399 159.53 121.375 157.995 121.514C156.46 121.654 156.879 122.769 157.995 122.769C159.111 122.769 163.297 122.49 163.297 122.49H163.266Z" fill="white"/>
<path d="M354.857 148.643C354.857 148.643 364.004 151.432 370.763 150.89C377.523 150.363 379.119 151.029 385.088 150.952C391.057 150.89 399.677 150.766 408.684 150.952C417.692 151.137 425.118 150.952 425.118 150.952C425.118 150.952 417.955 145.978 413.056 146.505C408.157 147.032 405.894 147.62 404.84 146.458C403.785 145.296 402.049 143.05 398.204 142.787C394.359 142.523 392.762 144.646 392.762 144.646C392.762 144.646 391.972 138.82 384.282 138.82C376.592 138.82 376.189 142.926 376.189 142.926C376.189 142.926 372.205 141.872 368.5 143.716C364.794 145.575 365.058 145.699 362.531 145.575C360.004 145.451 356.826 145.312 354.841 145.978C352.857 146.644 351.26 147.574 349.803 147.698C348.345 147.837 348.748 148.891 349.803 148.891C350.857 148.891 354.841 148.628 354.841 148.628L354.857 148.643Z" fill="white"/>
<path opacity="0.55" d="M32.2156 104.889C32.2156 104.889 42.6028 108.05 50.277 107.446C57.9511 106.842 59.7495 107.601 66.5245 107.523C73.2995 107.446 83.0821 107.306 93.3144 107.523C103.547 107.74 111.98 107.523 111.98 107.523C111.98 107.523 103.857 101.884 98.2909 102.472C92.7252 103.077 90.1672 103.743 88.9579 102.426C87.7486 101.109 85.7952 98.5682 81.4388 98.2583C77.0823 97.9484 75.2684 100.365 75.2684 100.365C75.2684 100.365 74.3692 93.7498 65.6408 93.7498C56.9124 93.7498 56.4628 98.4133 56.4628 98.4133C56.4628 98.4133 51.9513 97.2048 47.7344 99.3119C43.5175 101.419 43.8276 101.574 40.9595 101.419C38.1068 101.264 34.4945 101.125 32.231 101.868C29.9676 102.612 28.1692 103.665 26.5103 103.82C24.8514 103.975 25.301 105.168 26.5103 105.168C27.7196 105.168 32.231 104.874 32.231 104.874L32.2156 104.889Z" fill="white"/>
<path opacity="0.55" d="M301.122 99.0023C301.122 99.0023 307.54 100.954 312.284 100.583C317.028 100.211 318.144 100.676 322.33 100.629C326.516 100.583 332.563 100.49 338.888 100.629C345.213 100.769 350.423 100.629 350.423 100.629C350.423 100.629 345.399 97.1431 341.958 97.515C338.516 97.8868 336.935 98.2896 336.19 97.484C335.446 96.6783 334.237 95.098 331.539 94.9121C328.842 94.7261 327.726 96.2135 327.726 96.2135C327.726 96.2135 327.167 92.1233 321.772 92.1233C316.377 92.1233 316.098 95.005 316.098 95.005C316.098 95.005 313.307 94.2614 310.703 95.5628C308.098 96.8642 308.284 96.9572 306.517 96.8642C304.75 96.7713 302.517 96.6783 301.122 97.1431C299.726 97.6079 298.61 98.2586 297.587 98.3516C296.564 98.4445 296.843 99.1882 297.587 99.1882C298.331 99.1882 301.122 99.0023 301.122 99.0023Z" fill="white"/>
<path d="M351.151 318.666C351.151 318.666 373.337 330.426 587.965 332.703V315.862L351.151 318.666Z" fill="#EBF1FA"/>
<path d="M491.1 275.657L463.861 252.99C461.721 251.286 458.683 250.217 455.272 250.186L436.048 250.093L438.838 252.355L455.272 252.432C458.047 252.463 460.559 253.316 462.326 254.648H462.342C463.923 255.857 464.9 257.468 464.9 259.234V319.735H471.814L494.914 318.821L495.24 283.404C495.271 280.274 493.72 277.377 491.116 275.641L491.1 275.657Z" fill="#634E42"/>
<path d="M493.658 318.666H461.83V320.696H493.658V318.666Z" fill="#838D97"/>
<path d="M464.868 318.249L461.83 318.667H464.868V318.249Z" fill="#A2AEBE"/>
<path d="M464.869 259.25C464.869 257.499 463.892 255.888 462.311 254.664H462.295C460.543 253.331 458.032 252.479 455.241 252.448L438.808 252.371L464.869 273.426V259.265V259.25Z" fill="#231B16"/>
</g>
</g>
<path d="M46.82 31.6374V28.074H49.192V31.6374H50.7114V33.9304H49.192V36.9207C49.7347 36.7502 50.2773 36.5798 50.8044 36.3784L50.9749 37.4629C52.0136 36.7967 52.9128 36.115 53.595 35.4178C54.6182 34.4882 55.4554 33.5121 56.1375 32.4586L58.5251 33.1558C58.401 33.3882 58.2615 33.6051 58.1375 33.822C58.9592 34.4262 59.8118 34.953 60.6955 35.4333C61.8738 36.084 62.99 36.5798 64.1218 36.9516L62.7575 39.3376C62.0443 39.0587 61.3622 38.7334 60.711 38.3615V39.3376H53.502V38.7024C52.9749 39.0897 52.4322 39.4461 51.8896 39.7404L50.7424 38.5939C50.2153 38.8573 49.7037 39.0897 49.1765 39.3066V44.4969C49.1765 45.6744 49.006 46.4645 48.6959 46.8983C48.3083 47.3786 47.6107 47.642 46.634 47.642C45.9828 47.642 45.3937 47.58 44.8511 47.4716L44.417 45.0236C45.0216 45.1941 45.6573 45.2561 46.2929 45.2561C46.4945 45.2561 46.6185 45.1631 46.7115 44.9927C46.7735 44.7603 46.82 44.3884 46.82 43.9081V40.2362C46.2929 40.4376 45.7968 40.6081 45.2852 40.763L44.4325 38.2221C45.2542 38.0517 46.0449 37.8348 46.82 37.6178V33.8995H44.603V31.6064H46.82V31.6374ZM53.0059 29.6233V28.074H55.4554V29.6233H58.9282V28.074H61.4087V29.6233H63.9513V31.9938H61.4087V33.5121H58.9282V31.9938H55.4554V33.4192H53.0059V31.9938H50.9594V29.6233H53.0059ZM62.928 47.673H60.5405V46.7434H54.3547V47.673H51.9826V40.4686H62.928V47.673ZM60.5405 44.5279V42.6532H54.3547V44.5279H60.5405ZM58.8351 37.246C58.091 36.7657 57.4088 36.2544 56.7577 35.7277C56.4476 36.0685 56.153 36.4249 55.8275 36.7657C55.6569 36.9361 55.5019 37.0911 55.3469 37.246H58.8351Z" fill="#595757"/>
<path d="M83.8731 30.2898C81.8576 30.4137 79.6407 30.5222 77.2531 30.6151V31.5447H85.4854V33.8532H77.2531V39.5858C78.1213 40.4069 79.16 41.1971 80.3848 41.9252C81.8576 42.8393 83.625 43.5675 85.656 44.1098L84.3692 46.4803C82.8654 46 81.408 45.3957 80.0282 44.5901C79.098 44.0633 78.1678 43.3971 77.2531 42.545V47.5803H74.8036V42.2196C73.9974 42.9633 73.1293 43.614 72.2146 44.1718C70.4317 45.2718 68.8038 46.062 67.331 46.5577L66.1372 44.4352C68.2612 43.6915 70.1061 42.8084 71.6564 41.7703C71.889 41.6154 72.106 41.4604 72.3231 41.321H71.4704V40.5463C70.1216 40.9337 68.6643 41.259 67.1449 41.5689L66.3853 39.2914C68.2147 39.0125 69.9045 38.6871 71.4704 38.3153V37.4322H67.0674V35.1547H71.4704V34.2871H73.9509V40.0815C74.261 39.8181 74.5401 39.5548 74.8036 39.3069V33.8842H66.4008V31.5757H74.8036V30.7081C72.9432 30.7701 70.9743 30.8166 68.9433 30.8166L68.1837 28.539C73.0052 28.539 77.8423 28.4151 82.6948 28.1052L83.8886 30.3208L83.8731 30.2898ZM80.5554 34.2715V35.697C81.6406 35.3251 82.6638 34.9223 83.625 34.442L85.0513 36.4871C83.656 37.0758 82.1677 37.5716 80.5554 38.0054C80.5709 38.3773 80.6639 38.5942 80.8189 38.6562C81.0204 38.7801 81.2685 38.8576 81.5786 38.8576C82.0592 38.8576 82.3848 38.8576 82.5708 38.8111C82.7723 38.8111 82.9119 38.7646 83.0204 38.6871C83.1444 38.5632 83.2529 38.1604 83.346 37.5097L85.7335 38.6097C85.625 39.2139 85.4544 39.8027 85.2064 40.3604C85.0358 40.7013 84.6793 40.9182 84.1832 41.0111C83.625 41.1041 82.7568 41.1351 81.5631 41.1351C80.4623 41.1351 79.8112 41.0421 79.6096 40.8717C78.6484 40.7787 78.1833 40.0196 78.1833 38.5942V34.2561H80.5554V34.2715Z" fill="#595757"/>
<path d="M93.3609 28.8486C93.0973 29.6233 92.7252 30.4599 92.2756 31.281C92.1516 31.5444 92.0121 31.7768 91.888 31.9937C92.7717 31.8853 93.6244 31.7304 94.4461 31.5444C94.136 31.0641 93.8415 30.5838 93.5314 30.1345L95.5779 28.8486C96.6166 30.305 97.4693 31.8233 98.1204 33.4346L95.9964 34.7206C95.8414 34.3332 95.6864 33.9614 95.5158 33.5896C93.3609 34.1318 90.9578 34.4727 88.2913 34.6276L87.7642 32.2571C88.1983 32.2571 88.6323 32.2571 89.0664 32.2416C89.33 31.7613 89.547 31.281 89.7641 30.7853C90.1517 29.8711 90.4772 28.9571 90.7408 28.012L93.3609 28.8641V28.8486ZM97.2677 44.7137C97.2677 46.5729 96.291 47.518 94.3841 47.518C93.857 47.518 93.2523 47.4251 92.6012 47.2546L92.1051 44.8067C92.9268 45.0856 93.6864 45.225 94.3841 45.225C94.6631 45.225 94.8182 44.8842 94.8182 44.1405V43.7067H90.9113V47.5335H88.4618V35.0769H97.2832V44.7292L97.2677 44.7137ZM94.8027 38.346V37.3234H90.8958V38.346H94.8027ZM94.8027 41.5531V40.4686H90.8958V41.5531H94.8027ZM100.74 28.0739V30.6613C102.26 30.181 103.671 29.6387 104.973 29.019L106.508 31.2346C104.725 31.9318 102.787 32.536 100.725 33.0318V33.8529C100.725 34.3022 100.958 34.5501 101.469 34.5966C101.779 34.6896 102.508 34.7051 103.702 34.7051C104.182 34.7051 104.461 34.6431 104.554 34.5037C104.663 34.3952 104.756 34.1628 104.818 33.8065C104.864 33.5896 104.926 33.2487 104.973 32.7374L107.267 34.0234C107.004 35.4797 106.632 36.3164 106.182 36.5798C106.058 36.7502 105.748 36.8586 105.267 36.9051C105.004 36.9516 104.492 36.9671 103.702 36.9671C102.446 36.9671 101.469 36.9051 100.771 36.7657C99.0971 36.6417 98.2754 35.8051 98.2754 34.2558V28.0739H100.725H100.74ZM100.911 37.5868V40.4221C102.694 39.8798 104.337 39.2446 105.903 38.5164L107.438 40.6235C105.423 41.4446 103.252 42.1573 100.896 42.7771V44.3574C100.896 44.8377 101.097 45.0701 101.485 45.1011C101.717 45.194 102.306 45.2095 103.268 45.2095C103.919 45.2095 104.291 45.1476 104.399 44.9926C104.554 44.8687 104.678 44.6053 104.771 44.218C104.833 43.9856 104.895 43.5827 104.973 43.025L107.267 44.2799C106.957 45.8447 106.554 46.7743 106.058 47.0842C105.934 47.2546 105.578 47.3631 105.035 47.4096C104.756 47.4715 104.167 47.518 103.283 47.518C102.151 47.518 101.283 47.4251 100.678 47.3011C99.2057 47.1617 98.4615 46.325 98.4615 44.8067V37.6023H100.911V37.5868Z" fill="#595757"/>
<path d="M113.717 33.2641L112.089 35.2782C111.268 34.3951 110.415 33.6359 109.547 33.0007L111.175 31.3119C112.089 31.8697 112.927 32.5204 113.717 33.2641ZM118.043 41.9093V40.8868H120.492V41.9093H129.066V44.2798H120.492V47.7658H118.043V44.2798H109.64V41.9093H118.043ZM115.407 36.0529C114.275 38.1754 113.113 39.8487 111.934 41.0727L109.888 39.291C111.283 37.8966 112.4 36.4092 113.283 34.7979L115.407 36.0529ZM115.237 29.7781L113.624 31.8232C112.756 30.9401 111.841 30.1809 110.911 29.5457L112.524 27.8569C113.516 28.4147 114.415 29.0499 115.237 29.7936V29.7781ZM119.64 28.6006C119.469 29.0189 119.314 29.3752 119.19 29.7006H121.671C121.934 29.0964 122.12 28.4611 122.275 27.8414L124.756 28.3372C124.585 28.8175 124.415 29.2668 124.229 29.7006H128.383V31.8852H123.887V32.6443H127.624V34.7669H123.887V35.5261H127.717V37.6487H123.887V38.4079H128.383V40.5924H116.26V34.7359C116.089 34.9528 115.919 35.1697 115.733 35.3402L113.795 33.9148C114.539 33.0007 115.19 32.0711 115.748 31.095C116.399 29.964 116.895 28.8795 117.268 27.8259L119.64 28.5851V28.6006ZM121.515 31.9006H118.632V32.6598H121.515V31.9006ZM121.515 34.7824H118.632V35.5416H121.515V34.7824ZM121.515 37.6797H118.632V38.4388H121.515V37.6797Z" fill="#595757"/>
<path d="M138.367 45.2866H135.995V44.1091H133.949V45.8908H131.577V29.437H138.352V45.2866H138.367ZM136.011 35.5413V31.7145H133.964V35.5413H136.011ZM136.011 41.8161V37.7569H133.964V41.8161H136.011ZM143.468 29.8553V27.9961H145.917V29.8553H150.584V32.2412H145.917V34.2554H150.243V36.6413H148.63V38.3301H150.584V40.7006H148.63V44.4345C148.63 45.7204 148.429 46.5415 148.041 46.8824C147.607 47.3317 146.863 47.5796 145.824 47.5796C145.065 47.5796 144.367 47.4867 143.716 47.3162L143.282 44.6979C144.134 44.9767 144.972 45.1162 145.824 45.1162C145.995 45.1162 146.088 44.7753 146.088 44.0316V40.7161H138.879V38.3456H146.088V36.6568H139.375V34.2709H143.452V32.2567H138.863V29.8708H143.452L143.468 29.8553ZM143.127 43.8612L140.755 44.8838C140.445 43.8922 140.088 42.9781 139.654 42.1724L141.871 41.1499C142.352 41.971 142.786 42.8851 143.127 43.8612Z" fill="#595757"/>
<path d="M155.437 31.4825V28.074H157.886V31.4825H160.01V33.9304H157.886V36.9516C158.476 36.7812 159.034 36.5798 159.576 36.3939L160.01 38.6869C159.313 38.9968 158.615 39.2911 157.886 39.5855V44.3574C157.886 45.6124 157.716 46.4335 157.359 46.8983C156.941 47.4251 156.212 47.673 155.158 47.673C154.507 47.673 153.918 47.58 153.375 47.4096L152.941 44.8687C153.546 45.0856 154.181 45.1941 154.817 45.1941C155.049 45.1941 155.204 45.1011 155.297 44.9152C155.39 44.6828 155.421 44.28 155.421 43.7687V40.4221C154.894 40.5926 154.383 40.7475 153.887 40.8715L152.956 38.2531C153.809 38.0827 154.631 37.8657 155.437 37.6488V33.9304H152.956V31.4825H155.437ZM171.716 30.2121C170.754 30.5219 169.592 30.7698 168.227 30.9557C168.227 32.3036 168.274 33.4966 168.32 34.5347H172.227V36.9207H168.475C168.522 37.5869 168.568 38.1756 168.646 38.7024C168.816 40.3757 169.126 41.832 169.514 43.087C169.731 43.7842 169.886 44.125 170.01 44.125C170.057 44.125 170.103 43.9701 170.181 43.6293C170.274 43.149 170.305 42.4827 170.351 41.6616L172.801 42.5912C172.382 44.4659 171.886 45.6434 171.281 46.1702C170.894 46.5575 170.46 46.7589 169.933 46.7589C169.452 46.7589 168.971 46.387 168.506 45.6744C167.7 44.4349 167.095 42.7151 166.661 40.5461C166.398 39.508 166.212 38.3151 166.072 36.9207H162.879V41.4602C164.026 41.2588 165.111 41.0419 166.119 40.8095L166.537 43.025C164.537 43.6293 162.351 44.1715 159.933 44.6363L159.08 42.0954C159.576 42.0334 160.057 41.9715 160.507 41.8785V29.205C162.615 29.143 164.413 29.0036 165.886 28.8177C167.359 28.6472 168.599 28.3993 169.576 28.105L171.7 30.2275L171.716 30.2121ZM167.809 44.9617V47.3322H159.313V44.9617H167.809ZM165.7 31.2346C164.832 31.3276 163.871 31.405 162.879 31.4515V34.5347H165.855C165.762 33.5121 165.731 32.4121 165.7 31.2346Z" fill="#595757"/>
<path d="M179.063 36.9821V43.2724C179.994 44.1401 181.079 44.6203 182.304 44.7288C183.218 44.9457 185.451 45.0542 189.032 45.0542C191.141 45.0542 192.939 44.9302 194.412 44.6204C193.962 45.488 193.59 46.4021 193.327 47.4246H186.753C184.412 47.4246 182.536 47.2077 181.125 46.7894C180.102 46.464 179.11 45.8288 178.133 44.8837C177.436 45.7978 176.722 46.7274 176.025 47.688C175.467 46.7274 174.893 45.8598 174.335 45.0542C175.141 44.6204 175.916 44.171 176.707 43.6907V39.6315H174.847V36.9821H179.079H179.063ZM179.156 34.2708L177.467 36.3934C176.598 35.4793 175.715 34.6737 174.754 34.0229L176.536 32.1482C177.498 32.7525 178.381 33.4497 179.156 34.2553V34.2708ZM179.994 30.1186L178.304 32.2412C177.42 31.3116 176.474 30.506 175.498 29.8552L177.188 28.0735C178.211 28.6622 179.141 29.3285 179.994 30.1186ZM185.869 29.0961V27.9031H188.241V29.0961H193.172V31.2186H188.241V32.0708H194.102V34.1934H191.451C191.389 34.3638 191.327 34.5652 191.28 34.7511C191.234 34.9216 191.187 35.061 191.156 35.1849H193.497V37.3075H188.241V38.0667H192.737V40.1893H188.241V40.9485H193.761V43.071H188.241V44.4964H185.869V43.071H180.35V40.9485H185.869V40.1893H181.374V38.0667H185.869V37.3075H180.614V35.1849H183.172L182.893 34.1934H180.273V32.0708H185.869V31.2186H181.203V29.0961H185.869ZM188.753 35.2004C188.8 35.03 188.862 34.8596 188.924 34.6737C188.97 34.5187 189.017 34.3638 189.048 34.1934H185.296L185.606 35.1849H188.753V35.2004Z" fill="#595757"/>
<path d="M199.172 47.0683H196.722V31.1412H198.676C198.955 30.1032 199.172 29.0651 199.342 27.9961L201.885 28.6003C201.714 29.5144 201.513 30.3511 201.28 31.1412H204.52V35.03C205.063 34.1159 205.544 33.1244 205.947 32.0089C206.551 30.599 207.016 29.2511 207.311 27.9961L209.854 28.7708C209.636 29.5764 209.419 30.3511 209.187 31.1412H215.295C215.295 39.4456 215.016 44.2641 214.489 45.5965C214.07 47.0219 213.078 47.7655 211.497 47.7655C210.675 47.7655 209.854 47.6416 209.016 47.4247L208.52 44.7908C209.729 45.0697 210.737 45.2091 211.497 45.2091C211.946 45.2091 212.257 44.8683 212.381 44.1711C212.613 42.9626 212.753 39.4146 212.753 33.5117H208.303C207.699 35.0765 207.047 36.3935 206.303 37.509L204.52 36.192V46.2472H202.071V45.0697H199.187V47.0838L199.172 47.0683ZM202.055 37.1526V33.5117H199.172V37.1526H202.055ZM202.055 39.4456H199.172V42.7457H202.055V39.4456ZM211.125 41.4133L208.505 42.2654C208.195 40.4682 207.699 38.8104 207.047 37.3385L209.435 36.5794C210.148 38.0357 210.722 39.6315 211.125 41.4133Z" fill="#595757"/>
<path d="M233.682 37.5864C232.721 39.3681 231.527 40.9484 230.101 42.2964C232.597 43.5978 235.155 44.5584 237.759 45.1161L236.302 47.5951C233.263 46.681 230.488 45.488 227.992 43.9851C225.558 45.5654 222.69 46.7584 219.341 47.5951L218.055 45.0542C221.031 44.4034 223.527 43.4893 225.574 42.3274C224.054 41.1344 222.706 39.8174 221.527 38.361L223.574 36.8427C224.752 38.3611 226.116 39.6935 227.729 40.84C229.124 39.6625 230.271 38.2836 231.233 36.6723L233.682 37.6019V37.5864ZM229.093 27.9031V30.0257H237.062V32.4116H232.674C233.341 33.0623 234.039 33.6511 234.783 34.1314C235.558 34.6582 236.318 35.061 237.062 35.3709L235.636 37.9118C234.783 37.4779 233.961 36.9512 233.186 36.3005C232.225 35.5568 231.357 34.7511 230.566 33.8525L232.287 32.4271H223.667L225.295 33.775C224.628 34.5962 223.791 35.4328 222.814 36.2075C221.729 37.0131 220.737 37.6174 219.869 38.0047L218.52 35.6342C219.264 35.3244 220.132 34.8286 221.078 34.1314C221.853 33.5891 222.535 33.0314 223.093 32.4116H218.504V30.0257H226.395V27.9031H229.109H229.093Z" fill="#595757"/>
<path d="M244.705 36.6568V43.6907C245.62 44.4654 246.659 44.9302 247.852 45.0387C248.736 45.2091 250.937 45.3021 254.457 45.3021C256.472 45.3021 258.193 45.1781 259.619 44.8837C259.17 45.7049 258.798 46.6345 258.534 47.688H252.178C249.883 47.688 248.023 47.4866 246.643 47.1303C245.651 46.8204 244.643 46.2626 243.682 45.395C242.86 46.1542 242.054 46.9134 241.232 47.7035C240.705 46.8204 240.163 45.9838 239.604 45.2246C240.488 44.8837 241.387 44.5274 242.256 44.1401V39.0428H239.961V36.6723H244.721L244.705 36.6568ZM244.876 34.3483L243.248 36.3005C242.333 35.3089 241.387 34.4568 240.38 33.7596L241.992 32.0708C243.031 32.7215 244.007 33.4807 244.876 34.3483ZM244.969 30.1186L243.341 32.0708C242.426 31.1102 241.48 30.289 240.473 29.6228L242.085 27.9031C243.124 28.5383 244.1 29.2665 244.969 30.1186ZM258.534 28.3369V30.0257C257.387 31.0018 256.162 31.8539 254.86 32.5666H258.596V41.5527C258.596 43.3034 257.681 44.171 255.883 44.171C255.402 44.171 254.891 44.1556 254.271 44.1091L253.852 41.8161C254.596 41.9865 255.263 42.0795 255.868 42.0795C256.147 42.0795 256.302 41.7541 256.302 41.0569V40.9639H253.418V44.0161H251.139V40.9639H248.333V44.264H246.038V32.5666H249.992C249.496 32.1173 248.969 31.6525 248.426 31.2186L249.558 30.4595H246.302V28.3369H258.534ZM251.154 35.8047V34.7821H248.348V35.8047H251.154ZM251.154 38.9343V37.8498H248.348V38.9343H251.154ZM252.131 31.9003C253.046 31.451 253.868 30.9708 254.627 30.475H250.689C251.217 30.9553 251.682 31.4356 252.116 31.9003H252.131ZM256.317 35.8047V34.7821H253.433V35.8047H256.317ZM256.317 38.9343V37.8498H253.433V38.9343H256.317Z" fill="#595757"/>
<path d="M279.975 29.5303V31.9782H272.503V44.1714H280.812V46.6504H261.635V44.1714H269.867V31.9782H262.487V29.5303H279.975Z" fill="#595757"/>
<path d="M300.486 41.7389H302.533V44.0319H297.773C298.254 44.2488 298.75 44.4192 299.277 44.5896C300.238 44.915 301.184 45.1784 302.099 45.3643L300.672 47.8122C299.711 47.5024 298.812 47.146 297.897 46.7122C296.812 46.1854 295.82 45.6432 294.905 45.0389L295.866 44.0164H290.27L291.262 45.1009C290.44 45.7051 289.541 46.2474 288.549 46.7122C287.526 47.146 286.394 47.5643 285.153 47.9052L284.053 45.5347C285.231 45.2558 286.27 44.8995 287.2 44.5121C287.587 44.3572 287.944 44.1868 288.285 44.0164H283.557V41.7234H285.758V28.5076H300.517V41.7234L300.486 41.7389ZM298.037 31.8076V30.7851H288.192V31.8076H298.037ZM298.037 35.0457V34.0232H288.192V35.0457H298.037ZM298.037 38.3458V37.2458H288.192V38.3458H298.037ZM298.037 41.7389V40.5614H288.192V41.7389H298.037Z" fill="#595757"/>
<path d="M46.9288 77.3114C46.1536 75.9635 45.5335 74.4762 45.0839 72.7719C44.6033 71.0832 44.3862 69.4873 44.3862 68.0155C44.3862 66.5436 44.6033 64.9788 45.0839 63.29C45.5335 61.6168 46.1536 60.0984 46.9288 58.7505H49.5334C47.7505 62.3914 46.8668 65.4746 46.8668 68.0465C46.8668 70.6184 47.7505 73.686 49.5334 77.3114H46.9288Z" fill="#595757"/>
<path d="M56.9126 57.8672C56.7421 58.8898 56.5871 59.8349 56.432 60.749H60.8195C60.6954 63.4448 60.3389 65.9392 59.7808 68.2787C59.5172 69.2393 59.2381 70.0604 58.9281 70.7886C59.7963 71.5323 60.6179 72.2605 61.4241 73.0196L59.6257 74.9718C58.9746 74.3056 58.3389 73.6704 57.7188 73.0661C57.5948 73.2366 57.4552 73.3915 57.3777 73.5154C56.339 74.9253 55.0987 76.1028 53.6259 77.0944L52.1996 75.1422C53.4864 74.2746 54.5406 73.252 55.3933 72.0746C55.5638 71.8731 55.7189 71.6562 55.8739 71.4238C55.3778 71.0365 54.8817 70.6492 54.3546 70.2773C54.246 70.6182 54.153 70.9435 54.0755 71.2379L51.688 70.7421C52.4322 68.3562 53.0523 65.8153 53.5794 63.1039H51.688V60.7335H54.0135C54.184 59.6644 54.3391 58.5799 54.4941 57.4954L56.9436 57.8362L56.9126 57.8672ZM57.4707 68.0308C57.9048 66.3885 58.2149 64.7307 58.3544 63.1194H55.9824C55.6414 64.9012 55.3158 66.4815 54.9592 67.8759C55.6569 68.3252 56.3235 68.8055 56.9746 69.2858C57.1297 68.8984 57.2847 68.4646 57.4552 68.0308H57.4707ZM70.4781 76.4282H67.9355V75.0803H64.1372V76.5986H61.5792V59.0602H70.4781V76.4282ZM67.951 72.7098V61.4306H64.1527V72.7098H67.951Z" fill="#595757"/>
<path d="M73.1445 68.5424V65.2268H76.4623V68.5424H73.1445ZM73.1445 75.3129V71.9974H76.4623V75.3129H73.1445Z" fill="#595757"/>
<path d="M80.3692 61.2447V57.5108H82.5862V61.2447H83.935V63.3673H82.5862V64.5448C83.4079 65.3195 84.121 66.0631 84.7567 66.7758L84.6016 65.9082C84.9272 65.9082 85.2528 65.9082 85.5628 65.8927C85.9969 65.2265 86.3845 64.5758 86.7411 63.9251C85.9194 63.2898 85.0512 62.7476 84.1055 62.2828L85.2993 60.7644C85.4233 60.8574 85.5318 60.9194 85.6714 60.9659C86.2605 59.8194 86.7566 58.6573 87.1752 57.5418L89.0356 58.394C88.3844 59.7419 87.7953 60.9039 87.2527 61.88C87.3767 61.9729 87.5163 62.0504 87.6403 62.1433C87.9194 61.5546 88.1829 60.9968 88.4155 60.4236L90.0588 61.1673C89.9968 60.0672 89.9503 58.8897 89.9503 57.6348L92.2293 57.4644C92.2293 58.9362 92.2448 60.2687 92.2913 61.4771L92.5704 60.9503C92.6634 61.0123 92.7719 61.0743 92.8494 61.1208C93.3765 59.9278 93.8106 58.7348 94.1672 57.5418L96.0276 58.394C95.423 59.8658 94.8804 61.1053 94.3842 62.1279C94.5083 62.2518 94.6478 62.3602 94.7718 62.4532C95.1439 61.6321 95.4695 60.8264 95.764 60.0208L97.6245 60.8729C97.1749 61.8645 96.7408 62.7631 96.3222 63.5842L97.1904 63.3208C97.6245 64.4053 97.9655 65.5828 98.2136 66.8843L96.5237 67.3801C96.4772 67.1787 96.4617 66.9927 96.4152 66.7913C96.1051 66.9153 95.8261 67.0082 95.5625 67.0547C96.0431 67.3646 96.4772 67.659 96.8648 67.9843L96.2602 68.6505H97.981V70.6956H93.5936C93.7176 71.1759 93.9036 71.6252 94.0742 72.0435C94.3377 71.7027 94.6013 71.3309 94.8339 70.9435L96.7873 71.8731C96.2602 72.8027 95.7175 73.5929 95.1594 74.2126C95.392 74.5844 95.5935 74.7549 95.764 74.7549C95.8106 74.7549 95.8571 74.6619 95.9191 74.4915C96.0121 74.2281 96.0741 73.8563 96.1206 73.407L98.2291 74.2591C97.857 75.4986 97.4074 76.3042 96.8803 76.6605C96.5392 76.9239 96.1361 77.0479 95.6866 77.0479C95.0509 77.0479 94.3998 76.6296 93.7486 75.8394C93.6866 75.7464 93.6246 75.6845 93.5781 75.607C92.7099 76.2113 91.7332 76.707 90.6945 77.1563L89.5937 75.2042C90.7875 74.7704 91.7487 74.2746 92.4773 73.7013C92.0587 72.8182 91.7177 71.8111 91.4386 70.7111H88.369C88.3535 71.021 88.3224 71.2689 88.3224 71.5168C89.3457 72.0436 90.2293 72.5083 91.02 72.9886L89.7643 74.7704C89.1751 74.3365 88.586 73.9492 88.0124 73.5774C87.9193 73.8873 87.8573 74.1661 87.7953 74.383C87.4852 75.4211 87.0512 76.3352 86.4465 77.1563L84.4311 75.8704C84.9582 75.2042 85.3613 74.445 85.6714 73.5464C85.8884 72.8027 86.0589 71.8576 86.152 70.7111H84.6791V68.666H90.958C90.8495 68.2167 90.7565 67.7519 90.6789 67.2716L89.1751 67.7209C89.1286 67.5195 89.1131 67.3491 89.0821 67.1787C87.8728 67.6125 86.4775 67.8449 84.9272 67.8914L84.8342 67.3956L83.5784 69.1463C83.2373 68.5576 82.8808 68.0153 82.5552 67.5195V77.1409H80.3382V69.828C80.0746 70.6492 79.7956 71.4083 79.4855 72.121L78.1367 70.4323C78.5708 69.5646 79.0204 68.3561 79.501 66.7913C79.8111 65.7998 80.0901 64.7462 80.3227 63.6462V63.4138H78.5398V61.2912H80.3227L80.3692 61.2447ZM88.4775 64.5913C88.2604 64.9631 88.0589 65.304 87.8728 65.6138C88.1829 65.5674 88.462 65.4899 88.7255 65.3969C88.6325 65.1336 88.5705 64.8547 88.493 64.5913H88.4775ZM90.1053 61.6166C89.6247 62.5307 89.1906 63.3673 88.7565 64.111L89.8883 63.7856C90.1053 64.3434 90.2759 64.9631 90.4464 65.5674C90.2759 64.3589 90.1673 63.0574 90.1053 61.6166ZM93.8571 68.1237L94.6168 67.2096C94.0897 67.3026 93.5936 67.3336 93.0975 67.3336L92.7564 65.4589C92.958 65.4589 93.144 65.4589 93.3455 65.4434C93.6091 64.9941 93.8416 64.5293 94.0587 64.049C93.5006 63.6152 92.9269 63.2279 92.4153 62.8715C92.5394 65.0561 92.7874 66.8688 93.082 68.2787C93.0975 68.4026 93.1285 68.5111 93.144 68.604H94.6013C94.3377 68.4336 94.1052 68.2632 93.8571 68.1083V68.1237ZM95.9036 64.5138C95.7796 64.7772 95.64 64.9941 95.5315 65.211C95.7331 65.1955 95.9036 65.149 96.0741 65.1026C96.0121 64.9011 95.9501 64.7152 95.9036 64.5138Z" fill="#595757"/>
<path d="M102.26 62.0969V57.6968H104.632V62.0969H106.756V64.4828H104.632V70.5872C105.283 70.4168 105.888 70.2154 106.492 69.9985L106.601 70.5562C107.159 70.1069 107.64 69.6266 108.027 69.0998C108.353 68.7125 108.632 68.2477 108.895 67.7829H105.981V65.7378H119.732V67.7829H111.453C111.36 67.9843 111.298 68.1548 111.236 68.2787H119.205C119.205 72.6168 118.973 75.1112 118.508 75.8084C118.166 76.5521 117.298 76.9394 115.903 76.9394C115.422 76.9394 114.926 76.8775 114.446 76.769L113.965 74.538C113.081 75.7465 112.105 76.769 111.05 77.6212L109.36 76.0098C110.446 75.0957 111.438 74.1197 112.337 72.9887C112.942 72.1675 113.484 71.2689 113.965 70.3238H113.112C112.678 71.2069 112.151 72.0591 111.5 72.8802C110.523 74.1352 109.423 75.1577 108.151 76.0098L106.539 74.4915C107.531 73.7943 108.446 73.0351 109.267 72.1675C109.764 71.6097 110.229 70.9745 110.616 70.3238H110.058C109.407 71.2534 108.647 72.0126 107.826 72.6323L106.802 71.7337L106.895 72.183C105.051 73.0041 103.004 73.7014 100.787 74.3056L99.9189 71.7647C100.694 71.5943 101.485 71.4238 102.213 71.2224V64.4673H100.167V62.0814H102.213L102.26 62.0969ZM118.538 57.7742V65.242H107.686V57.7742H118.538ZM116.166 60.5785V59.9123H110.043V60.5785H116.166ZM116.166 63.1194V62.5307H110.043V63.1194H116.166ZM114.585 73.6704C114.415 73.9492 114.244 74.2126 114.058 74.4295C114.818 74.5845 115.422 74.6464 115.903 74.6464C116.213 74.6464 116.399 74.507 116.492 74.2591C116.663 73.8253 116.756 72.5084 116.756 70.3238H116.275C115.841 71.5013 115.283 72.6013 114.585 73.6704Z" fill="#595757"/>
<path d="M124.042 60.8419V57.5264H126.321V60.8419H128.368V63.1194H126.321V66.2181C126.817 66.0477 127.298 65.8463 127.778 65.6603L128.104 67.7054C127.499 68.0463 126.91 68.3562 126.321 68.6196V74.0732C126.321 75.2197 126.166 76.0099 125.872 76.4127C125.484 76.893 124.833 77.1254 123.872 77.1254C123.283 77.1254 122.74 77.0634 122.259 76.9549L121.825 74.569C122.383 74.7394 122.957 74.8324 123.515 74.8324C123.732 74.8324 123.856 74.7394 123.934 74.569C123.996 74.3366 124.042 73.9648 124.042 73.4845V69.5801C123.562 69.7506 123.112 69.921 122.678 70.0759L121.825 67.628C122.585 67.4266 123.329 67.2097 124.042 66.9928V63.1349H121.825V60.8574H124.042V60.8419ZM133.375 58.6264V57.5264H135.747V58.6264H141.173V60.8419H135.747V61.6941H140.507V64.6533H141.437V66.7759H140.507V69.828H135.747V70.9126H140.336V73.0351H135.747V74.4296C136.724 74.5225 137.871 74.5535 139.173 74.5535C139.871 74.5535 140.631 74.507 141.437 74.3986L140.739 76.8465H139.173C136.026 76.8465 133.794 76.6141 132.461 76.1493C131.468 75.8394 130.631 75.4831 129.98 75.0183C129.592 75.793 129.205 76.4901 128.786 77.0944L126.662 75.4676C127.205 74.7549 127.685 73.9338 128.089 72.9732C128.523 72.0436 128.864 71.145 129.112 70.3083L131.499 70.9745C131.329 71.6098 131.127 72.214 130.91 72.8028C131.453 73.2366 132.088 73.5774 132.817 73.8408C132.972 73.9338 133.143 73.9648 133.36 74.0112V69.7971H129.189V67.6745H133.36V66.7449H128.337V64.6223H133.36V63.7702H129.36V61.6631H133.36V60.8109H128.43V58.5954H133.36L133.375 58.6264ZM135.747 64.6378H138.197V63.7856H135.747V64.6378ZM135.747 67.7054H138.197V66.7759H135.747V67.7054Z" fill="#595757"/>
<path d="M147.794 63.1194L146.166 65.1645C145.313 64.235 144.445 63.4293 143.53 62.7786L145.158 61.0898C146.119 61.6786 146.988 62.3448 147.778 63.1349L147.794 63.1194ZM148.29 66.4195V72.9577C149.204 73.6239 150.243 73.9957 151.437 74.0887C152.305 74.2591 154.507 74.3211 157.995 74.3211C159.995 74.3211 161.716 74.1971 163.142 73.8873C162.661 74.7549 162.289 75.669 162.041 76.6916H155.716C153.437 76.6916 151.608 76.5211 150.243 76.1648C149.267 75.9014 148.305 75.3591 147.36 74.5535C146.615 75.4056 145.902 76.2423 145.174 77.1099C144.631 76.2268 144.088 75.3901 143.546 74.631C144.352 74.2436 145.158 73.8098 145.933 73.376V68.79H143.546V66.404H148.305L148.29 66.4195ZM162.708 61.5081H160.848V62.7011H156.879V63.2899H161.282V69.9985H156.879V70.8506H162.227V72.7872H156.879V73.9802H154.584V72.7872H149.329V70.8506H154.584V69.9985H150.088V63.2899H154.584V62.7011H150.429V61.5081H148.894V59.7729L147.468 61.6011C146.646 60.6715 145.794 59.8658 144.926 59.2151L146.538 57.5264C147.406 58.0841 148.181 58.7038 148.91 59.401V57.8827H162.739V61.5236L162.708 61.5081ZM154.569 60.749V59.8968H151.096V60.749H154.569ZM154.569 65.7378V65.1491H152.29V65.7378H154.569ZM154.569 68.1238V67.5195H152.29V68.1238H154.569ZM156.863 60.749H160.506V59.8968H156.863V60.749ZM156.863 65.7378H159.065V65.1491H156.863V65.7378ZM156.863 68.1238H159.065V67.5195H156.863V68.1238Z" fill="#595757"/>
<path d="M169.654 72.7719C169.173 74.4607 168.568 75.9635 167.809 77.3114H165.204C166.987 73.686 167.871 70.6029 167.871 68.0465C167.871 65.4901 166.987 62.4069 165.204 58.7505H167.809C168.568 60.0984 169.173 61.6168 169.654 63.29C170.103 64.9788 170.351 66.5436 170.351 68.0155C170.351 69.4873 170.119 71.0677 169.654 72.7719Z" fill="#595757"/>
<defs>
<linearGradient id="paint0_linear_20_208443" x1="239.992" y1="222.453" x2="239.992" y2="390.71" gradientUnits="userSpaceOnUse">
<stop stop-color="white"/>
<stop offset="1" stop-color="white" stop-opacity="0.6"/>
</linearGradient>
<linearGradient id="paint1_linear_20_208443" x1="148.119" y1="251.193" x2="148.119" y2="185.781" gradientUnits="userSpaceOnUse">
<stop offset="0.09" stop-color="white"/>
<stop offset="0.86" stop-color="white" stop-opacity="0.4"/>
</linearGradient>
<linearGradient id="paint2_linear_20_208443" x1="162.212" y1="250.294" x2="162.212" y2="184.603" gradientUnits="userSpaceOnUse">
<stop offset="0.09" stop-color="white"/>
<stop offset="0.86" stop-color="white" stop-opacity="0.4"/>
</linearGradient>
</defs>
</svg>
