<svg width="480" height="454" viewBox="0 0 480 454" fill="none" xmlns="http://www.w3.org/2000/svg">
<path opacity="0.8" d="M436.87 0H43.1304C19.3101 0 0 19.2976 0 43.1024V410.898C0 434.702 19.3101 454 43.1304 454H436.87C460.69 454 480 434.702 480 410.898V43.1024C480 19.2976 460.69 0 436.87 0Z" fill="url(#paint0_linear_86_166473)"/>
<mask id="mask0_86_166473" style="mask-type:luminance" maskUnits="userSpaceOnUse" x="17" y="99" width="446" height="340">
<path d="M17.5967 99.6052V398.858C17.5967 420.828 35.5806 438.8 57.5644 438.8H422.452C444.436 438.8 462.42 420.828 462.42 398.858V99.6052H17.5967Z" fill="white"/>
</mask>
<g mask="url(#mask0_86_166473)">
<path d="M869.678 35.5879H216.04V414.662H869.678V35.5879Z" fill="#B9DCF1"/>
<path d="M326.549 227.906H293.527C290.504 227.906 288.039 225.443 288.039 222.422C288.039 219.4 290.504 216.937 293.527 216.937H326.549C329.573 216.937 332.038 219.4 332.038 222.422C332.038 225.443 329.573 227.906 326.549 227.906Z" fill="#C9E4F5"/>
<path d="M422.995 35.6189L216.149 242.485L216.04 242.578V217.944L216.149 217.851L398.375 35.6189H422.995Z" fill="#C9E4F5"/>
<path d="M494.047 35.6187L454.901 74.5533L449.785 79.6351L444.684 84.7169L329.959 198.84H306.208L444.684 60.3769L469.443 35.6187H494.047Z" fill="#C9E4F5"/>
<path d="M579.719 35.6187L439.289 176.05V153.166L555.084 35.6187H579.719Z" fill="#C9E4F5"/>
<path d="M438.994 220.78V250.047H414.623V220.47L421.026 214.071L425.599 200.066H345.804L350.377 214.071L356.78 220.47V250.047H259.14V228.775H248.349V250.047H235.559V237.404H216.071V411.425H455.242V220.78H439.01H438.994ZM374.795 240.147H364.997V227.69H374.795V240.147ZM390.732 240.147H380.934V227.69H390.732V240.147ZM406.654 240.147H396.856V227.69H406.654V240.147ZM379.694 200.066L386.546 146.831L393.399 200.066H379.694Z" fill="#A1CFEC"/>
<path d="M869.678 408.884H-241.526V525.502H869.678V408.884Z" fill="#DAE3E5"/>
<path d="M431.987 116.2L419.987 112.714C419.321 112.528 418.639 112.9 418.437 113.566C418.251 114.232 418.623 114.929 419.29 115.115L420.359 115.425L412.267 120.305L376.748 109.987C374.873 109.445 372.857 109.553 371.059 110.281C371.059 110.281 371.043 110.281 371.028 110.281L368.098 111.66C366.873 111.304 365.617 111.118 364.361 111.118C363.105 111.118 361.834 111.273 360.609 111.614L359.385 111.939C357.896 112.357 357.338 114.17 358.346 115.332C359.478 116.649 360.78 117.78 362.222 118.71C363.664 119.639 365.229 120.367 366.904 120.848L381.57 125.108L380.593 128.517L390.531 131.383C392.872 132.065 395.29 131.259 396.779 129.524L408.081 132.809C411.336 133.754 414.84 132.731 417.057 130.159L418.639 128.346L423.228 129.679C423.894 129.865 424.576 129.493 424.778 128.827C424.964 128.161 424.592 127.463 423.925 127.277L420.452 126.27L427.987 117.61L431.305 118.57C431.971 118.756 432.654 118.384 432.855 117.718C433.041 117.052 432.669 116.355 432.002 116.169L431.987 116.2Z" fill="#A1CFEC"/>
<path d="M278.193 115.998C278.193 119.299 275.511 121.979 272.209 121.979C268.907 121.979 266.225 119.299 266.225 115.998C266.225 112.698 268.907 110.018 272.209 110.018C275.511 110.018 278.193 112.698 278.193 115.998Z" fill="#C9E4F5"/>
<path d="M258.55 131.941C258.55 133.738 257.093 135.21 255.279 135.21C253.465 135.21 252.008 133.754 252.008 131.941C252.008 130.128 253.465 128.672 255.279 128.672C257.093 128.672 258.55 130.128 258.55 131.941Z" fill="#C9E4F5"/>
<path d="M347.059 240.223C347.059 242.02 345.602 243.492 343.788 243.492C341.974 243.492 340.517 242.035 340.517 240.223C340.517 238.41 341.974 236.954 343.788 236.954C345.602 236.954 347.059 238.41 347.059 240.223Z" fill="#C9E4F5"/>
<path d="M435.909 399.618C428.963 404.174 421.429 407.629 413.538 409.968C405.693 412.323 397.461 413.531 389.151 413.531H216.04V350.319H358.33C367.725 350.319 376.795 353.495 384.159 359.32C384.159 359.32 384.159 359.32 384.19 359.336C384.469 359.537 384.717 359.754 384.98 359.971L395.972 369.639C402.065 369.639 408.08 370.491 413.894 372.118C419.692 373.76 425.274 376.224 430.483 379.4L435.676 382.56C441.971 386.449 442.095 395.559 435.909 399.603V399.618Z" fill="#C9E4F5"/>
<path d="M315.463 394.458C315.463 397.774 312.781 400.454 309.463 400.454H218.288C217.497 400.454 216.738 400.299 216.04 400.005V388.912C216.738 388.633 217.497 388.463 218.288 388.463H309.463C311.122 388.463 312.626 389.129 313.696 390.213C314.781 391.298 315.463 392.801 315.463 394.443V394.458Z" fill="#A1CFEC"/>
<path d="M361.369 359.319C361.369 365.021 365.989 369.653 371.694 369.653H395.973L384.299 359.381C384.252 359.366 384.206 359.35 384.159 359.319H361.369Z" fill="#A1CFEC"/>
<path d="M332.843 369.654H339.106C340.99 369.654 342.517 368.128 342.517 366.245V362.728C342.517 360.846 340.99 359.32 339.106 359.32H332.843C330.959 359.32 329.432 360.846 329.432 362.728V366.245C329.432 368.128 330.959 369.654 332.843 369.654Z" fill="#A1CFEC"/>
<path d="M310.999 369.654H317.262C319.146 369.654 320.673 368.128 320.673 366.245V362.728C320.673 360.846 319.146 359.32 317.262 359.32H310.999C309.115 359.32 307.588 360.846 307.588 362.728V366.245C307.588 368.128 309.115 369.654 310.999 369.654Z" fill="#A1CFEC"/>
<path d="M289.154 369.654H295.417C297.301 369.654 298.828 368.128 298.828 366.245V362.728C298.828 360.846 297.301 359.32 295.417 359.32H289.154C287.27 359.32 285.743 360.846 285.743 362.728V366.245C285.743 368.128 287.27 369.654 289.154 369.654Z" fill="#A1CFEC"/>
<path d="M267.295 369.654H273.558C275.442 369.654 276.969 368.128 276.969 366.245V362.728C276.969 360.846 275.442 359.32 273.558 359.32H267.295C265.411 359.32 263.884 360.846 263.884 362.728V366.245C263.884 368.128 265.411 369.654 267.295 369.654Z" fill="#A1CFEC"/>
<path d="M245.45 369.654H251.713C253.597 369.654 255.124 368.128 255.124 366.245V362.728C255.124 360.846 253.597 359.32 251.713 359.32H245.45C243.566 359.32 242.039 360.846 242.039 362.728V366.245C242.039 368.128 243.566 369.654 245.45 369.654Z" fill="#A1CFEC"/>
<path d="M223.606 369.654H229.87C231.753 369.654 233.28 368.128 233.28 366.245V362.728C233.28 360.846 231.753 359.32 229.87 359.32H223.606C221.722 359.32 220.195 360.846 220.195 362.728V366.245C220.195 368.128 221.722 369.654 223.606 369.654Z" fill="#A1CFEC"/>
<path d="M-241.526 407.847V416.771L869.678 416.771V407.847L-241.526 407.847Z" fill="#81AECA"/>
<path d="M869.321 198.345H216.04V202.699H869.321V198.345Z" fill="#6189A0"/>
<path d="M869.321 202.699H216.04V207.052H869.321V202.699Z" fill="#81AECA"/>
<path d="M442.731 412.168L438.39 410.2V35.5879H442.731V412.168Z" fill="#6189A0"/>
<path d="M446.528 412.168L442.172 410.2V35.5879H446.528V412.168Z" fill="#81AECA"/>
<path d="M-241.263 44.4041V408.605H-28.7734H8.03159H156.166H329.138H317.355V44.4041H-241.263Z" fill="#52595E"/>
<path d="M-241.263 74.9404V408.604H-28.7734H8.03159H156.166H329.138H317.355V74.9404H-241.263Z" fill="#E09B74"/>
<path d="M296.518 74.9404H-131.871V408.712H-97.6861V408.604H-6.32475V408.712H296.518V74.9404Z" fill="#9B837A"/>
<g style="mix-blend-mode:multiply" opacity="0.57">
<path d="M26.1394 74.9404H-82.3223V346.429H26.1394V74.9404Z" fill="#9B837A"/>
</g>
<g style="mix-blend-mode:multiply" opacity="0.57">
<path d="M296.519 74.9404H206.646V346.429H296.519V74.9404Z" fill="#9B837A"/>
</g>
<g style="mix-blend-mode:multiply" opacity="0.7">
<path d="M296.503 74.9404H-191.838V124.55H296.503V74.9404Z" fill="#9B837A"/>
</g>
<path style="mix-blend-mode:screen" opacity="0.42" d="M34.6667 74.8625L-147.482 408.604H-97.6856H-21.8121L160.337 74.8625H34.6667Z" fill="url(#paint1_linear_86_166473)"/>
<path style="mix-blend-mode:screen" opacity="0.42" d="M269.527 74.8625L87.7962 408.309H41.6582L221.9 74.8625H269.527Z" fill="url(#paint2_linear_86_166473)"/>
<g style="mix-blend-mode:multiply" opacity="0.44">
<path d="M296.519 181.179H242.629V243.168H296.519V181.179Z" fill="#9B837A"/>
</g>
<g style="mix-blend-mode:overlay">
<path d="M72.913 276.262H-1.03809V359.879H72.913V276.262Z" fill="#F4BD7B"/>
</g>
<path d="M-152.351 149.433L296.519 149.433V74.9408L-152.351 74.9408V149.433Z" fill="#F7DCB6"/>
<g style="mix-blend-mode:multiply">
<path d="M93.6565 157.303H39.1621V379.214H93.6565V157.303Z" fill="#FAF5F0"/>
<path d="M93.7185 204.558H39.1621V209.314H93.7185V204.558Z" fill="#E09B74"/>
<path d="M93.6565 261.187H39.1621V265.943H93.6565V261.187Z" fill="#E09B74"/>
<path d="M93.6565 317.814H39.1621V322.57H93.6565V317.814Z" fill="#E09B74"/>
<path d="M18.7437 282.474H-55.626V287.231H18.7437V282.474Z" fill="#FAF5F0"/>
<path d="M93.6565 374.427H39.1621V379.199H93.6565V374.427Z" fill="#E09B74"/>
<path d="M83.1453 204.557H66.5412C65.3785 204.557 64.4018 203.689 64.2622 202.543L63.4561 195.865L65.2699 187.174H84.3856L86.1995 195.865L85.3933 202.543C85.2538 203.689 84.2771 204.557 83.1143 204.557H83.1453Z" fill="#684329"/>
<path d="M81.3467 195.866H80.2614V187.236L77.9359 178.854C77.8119 178.591 76.5871 178.142 74.5252 178.157C72.4787 178.173 71.4555 178.653 71.3315 178.854L69.6106 187.205V195.85H68.5254V187.05L70.2928 178.529C70.7269 177.258 73.3935 177.088 74.5097 177.073C75.4399 177.073 78.463 177.134 78.9592 178.482V178.529L81.3467 187.081V195.85V195.866Z" fill="#935F3A"/>
<path d="M70.1838 186.259H68.0908V189.451H70.1838V186.259Z" fill="#DC9461"/>
<path d="M81.8586 186.259H79.7656V189.451H81.8586V186.259Z" fill="#DC9461"/>
<path d="M79.7497 317.813H68.0292C66.4013 317.813 65.0215 316.605 64.8355 314.978L63.4092 303.141H84.3542L82.9279 314.978C82.7264 316.589 81.3621 317.813 79.7342 317.813H79.7497Z" fill="#D03F47"/>
<path d="M79.3781 310.471H78.4634V303.204L74.8976 292.374C74.7426 291.94 74.231 291.801 73.8434 291.801C73.4558 291.801 72.9597 291.972 72.8047 292.405L69.487 303.204V310.471H68.5723V303.065L71.9365 292.111C72.2001 291.367 72.9442 290.887 73.8279 290.871C74.7271 290.856 75.4868 291.336 75.7658 292.064L79.3781 303.049V310.455V310.471Z" fill="#EA5F66"/>
<path d="M69.9521 302.367H68.2002V305.063H69.9521V302.367Z" fill="#EF8C93"/>
<path d="M79.8113 302.367H78.0439V305.063H79.8113V302.367Z" fill="#EF8C93"/>
<path d="M76.587 261.185H57.3163C55.5644 261.185 54.2621 259.605 54.5722 257.885L56.7737 245.986C57.0217 244.669 58.169 243.708 59.5178 243.708H74.37C75.7188 243.708 76.866 244.669 77.1141 245.986L79.3156 257.885C79.6411 259.605 78.3234 261.185 76.5715 261.185H76.587Z" fill="#745353"/>
<path d="M73.2233 246.358H71.7504V241.432C71.7504 239.355 70.0606 237.667 67.9831 237.667H66.0917C64.0142 237.667 62.3244 239.355 62.3244 241.432V246.358H60.8516V241.432C60.8516 238.55 63.1926 236.195 66.0917 236.195H67.9831C70.8667 236.195 73.2233 238.534 73.2233 241.432V246.358Z" fill="#C88269"/>
<path d="M72.4784 247.566C71.8583 247.566 71.3467 247.055 71.3467 246.435V244.917H73.6102V246.435C73.6102 247.055 73.0986 247.566 72.4784 247.566Z" fill="#E09B74"/>
<path d="M61.7499 247.691C61.1298 247.691 60.6182 247.18 60.6182 246.56V245.042H62.8817V246.56C62.8817 247.18 62.3701 247.691 61.7499 247.691Z" fill="#E09B74"/>
<path d="M71.2696 253.562H62.6497C62.1846 253.562 61.8125 253.191 61.8125 252.726C61.8125 252.261 62.1846 251.889 62.6497 251.889H71.2696C71.7347 251.889 72.1067 252.261 72.1067 252.726C72.1067 253.191 71.7347 253.562 71.2696 253.562Z" fill="#E09B74"/>
<path d="M76.4165 374.427H58.4016C57.1458 374.427 56.0761 373.482 55.9366 372.242L55.0684 364.991L57.0373 355.556H77.7808L79.7497 364.991L78.8815 372.242C78.7265 373.497 77.6723 374.427 76.4165 374.427Z" fill="#8C8172"/>
<path d="M74.4789 364.99H73.3007V355.632L70.7891 346.538C70.6496 346.243 69.3318 345.763 67.0838 345.794C64.8513 345.825 63.7506 346.321 63.6265 346.553L61.7661 355.617V364.99H60.5879V355.431L62.5103 346.181C62.9909 344.802 65.8745 344.617 67.0838 344.601C68.0915 344.601 71.3782 344.663 71.9209 346.135V346.181L74.5099 355.462V364.975L74.4789 364.99Z" fill="#A29685"/>
<path d="M62.3553 354.563H60.0918V358.033H62.3553V354.563Z" fill="#6D655A"/>
<path d="M75.0213 354.563H72.7578V358.033H75.0213V354.563Z" fill="#6D655A"/>
<path d="M67.8906 198.594V203.133C67.8906 203.924 67.255 204.559 66.4643 204.559H48.0773C47.2866 204.559 46.651 203.924 46.651 203.133V198.594C46.651 197.804 47.2866 197.168 48.0773 197.168H66.4643C67.255 197.168 67.8906 197.804 67.8906 198.594Z" fill="#57565B"/>
<path d="M67.9062 196.734V197.911C67.9062 199.771 66.4024 201.274 64.542 201.274H50.0309C48.1705 201.274 46.6667 199.771 46.6667 197.911V196.734C46.6667 195.944 47.3023 195.309 48.0929 195.309H66.48C67.2706 195.309 67.9062 195.944 67.9062 196.734Z" fill="#67656B"/>
<path d="M53.6883 298.943H57.7346C58.4323 298.943 59.0059 299.516 59.0059 300.213V316.543C59.0059 317.24 58.4323 317.814 57.7346 317.814H53.6883C52.9906 317.814 52.417 317.24 52.417 316.543V300.213C52.417 299.516 52.9906 298.943 53.6883 298.943Z" fill="#954435"/>
<path d="M53.0843 317.814H52.0301C51.3324 317.814 50.7588 317.241 50.7588 316.543V300.213C50.7588 299.516 51.3324 298.943 52.0301 298.943H53.0843C54.7432 298.943 56.0765 300.275 56.0765 301.933V314.824C56.0765 316.481 54.7432 317.814 53.0843 317.814Z" fill="#C05847"/>
<path opacity="0.2" d="M18.7445 287.231H-55.6562V292.266H18.7445V287.231Z" fill="#221F20"/>
<path d="M17.8288 315.087V334.237H11.9841V373.048H-22.0458V334.237H-27.8906V315.087C-27.8906 308.921 -23.5652 303.762 -17.7979 302.46C-16.8832 302.243 -15.922 302.135 -14.9453 302.135H4.88351C5.86023 302.135 6.82143 302.243 7.73613 302.46C13.5034 303.762 17.8133 308.905 17.8133 315.087H17.8288Z" fill="#F7DCB6"/>
<path opacity="0.2" d="M93.7185 209.33H39.1621V214.365H93.7185V209.33Z" fill="#221F20"/>
<path opacity="0.2" d="M93.6565 265.943H39.1621V270.994H93.6565V265.943Z" fill="#221F20"/>
<path opacity="0.2" d="M93.6565 322.57H39.1621V327.621H93.6565V322.57Z" fill="#221F20"/>
</g>
<g style="mix-blend-mode:multiply">
<path d="M290.007 157.303H235.513V379.214H290.007V157.303Z" fill="#FAF5F0"/>
<path d="M290.069 204.558H235.513V209.314H290.069V204.558Z" fill="#E09B74"/>
<path d="M290.007 261.187H235.513V265.943H290.007V261.187Z" fill="#E09B74"/>
<path d="M290.007 317.814H235.513V322.57H290.007V317.814Z" fill="#E09B74"/>
<path d="M215.094 282.474H140.725V287.231H215.094V282.474Z" fill="#FAF5F0"/>
<path d="M290.007 374.427H235.513V379.199H290.007V374.427Z" fill="#E09B74"/>
<path d="M279.48 204.557H262.892C261.729 204.557 260.752 203.689 260.613 202.543L259.807 195.865L261.621 187.174H280.736L282.55 195.865L281.744 202.543C281.604 203.689 280.628 204.557 279.465 204.557H279.48Z" fill="#684329"/>
<path d="M277.697 195.866H276.612V187.236L274.287 178.854C274.163 178.591 272.938 178.142 270.876 178.157C268.829 178.173 267.806 178.653 267.682 178.854L265.961 187.205V195.85H264.876V187.05L266.643 178.529C267.077 177.258 269.744 177.088 270.86 177.073C271.791 177.073 274.814 177.134 275.31 178.482V178.529L277.697 187.081V195.85V195.866Z" fill="#935F3A"/>
<path d="M266.535 186.259H264.442V189.451H266.535V186.259Z" fill="#DC9461"/>
<path d="M278.209 186.259H276.116V189.451H278.209V186.259Z" fill="#DC9461"/>
<path d="M276.1 317.813H264.38C262.752 317.813 261.388 316.605 261.186 314.978L259.76 303.141H280.705L279.279 314.978C279.092 316.589 277.713 317.813 276.085 317.813H276.1Z" fill="#D03F47"/>
<path d="M275.728 310.471H274.813V303.204L271.247 292.374C271.092 291.94 270.581 291.801 270.193 291.801C269.805 291.801 269.309 291.972 269.154 292.405L265.837 303.204V310.471H264.922V303.065L268.286 292.111C268.55 291.367 269.278 290.887 270.178 290.871C271.077 290.856 271.836 291.336 272.115 292.064L275.728 303.049V310.455V310.471Z" fill="#EA5F66"/>
<path d="M266.318 302.367H264.551V305.063H266.318V302.367Z" fill="#EF8C93"/>
<path d="M276.131 302.367H274.379V305.063H276.131V302.367Z" fill="#EF8C93"/>
<path d="M272.938 261.185H253.667C251.915 261.185 250.613 259.605 250.923 257.885L253.124 245.986C253.372 244.669 254.52 243.709 255.868 243.709H270.721C272.069 243.709 273.217 244.669 273.465 245.986L275.666 257.885C275.992 259.605 274.674 261.185 272.922 261.185H272.938Z" fill="#745353"/>
<path d="M269.558 246.358H268.085V241.432C268.085 239.355 266.396 237.667 264.318 237.667H262.427C260.349 237.667 258.659 239.355 258.659 241.432V246.358H257.187V241.432C257.187 238.55 259.528 236.195 262.427 236.195H264.318C267.202 236.195 269.558 238.534 269.558 241.432V246.358Z" fill="#C88269"/>
<path d="M268.829 247.566C268.209 247.566 267.697 247.055 267.697 246.435V244.917H269.961V246.435C269.961 247.055 269.449 247.566 268.829 247.566Z" fill="#E09B74"/>
<path d="M258.086 247.691C257.466 247.691 256.954 247.18 256.954 246.56V245.042H259.218V246.56C259.218 247.18 258.706 247.691 258.086 247.691Z" fill="#E09B74"/>
<path d="M267.605 253.562H258.985C258.52 253.562 258.147 253.191 258.147 252.726C258.147 252.261 258.52 251.889 258.985 251.889H267.605C268.07 251.889 268.442 252.261 268.442 252.726C268.442 253.191 268.07 253.562 267.605 253.562Z" fill="#E09B74"/>
<path d="M272.752 374.427H254.737C253.481 374.427 252.411 373.481 252.272 372.242L251.403 364.991L253.372 355.556H274.116L276.085 364.991L275.217 372.242C275.061 373.497 274.007 374.427 272.752 374.427Z" fill="#8C8172"/>
<path d="M270.814 364.99H269.636V355.632L267.124 346.538C266.985 346.243 265.667 345.763 263.419 345.794C261.186 345.825 260.086 346.321 259.962 346.553L258.101 355.617V364.99H256.923V355.431L258.845 346.181C259.326 344.802 262.21 344.617 263.419 344.601C264.426 344.601 267.713 344.663 268.256 346.135V346.181L270.845 355.462V364.975L270.814 364.99Z" fill="#A29685"/>
<path d="M258.69 354.563H256.427V358.033H258.69V354.563Z" fill="#6D655A"/>
<path d="M271.356 354.563H269.093V358.033H271.356V354.563Z" fill="#6D655A"/>
<path d="M264.241 203.149V198.594C264.241 197.807 263.603 197.169 262.815 197.169H244.428C243.64 197.169 243.002 197.807 243.002 198.594V203.149C243.002 203.936 243.64 204.574 244.428 204.574H262.815C263.603 204.574 264.241 203.936 264.241 203.149Z" fill="#57565B"/>
<path d="M264.24 196.749V197.927C264.24 199.786 262.736 201.289 260.876 201.289H246.365C244.504 201.289 243.001 199.786 243.001 197.927V196.749C243.001 195.959 243.636 195.324 244.427 195.324H262.814C263.605 195.324 264.24 195.959 264.24 196.749Z" fill="#67656B"/>
<path d="M254.071 298.943H250.024C249.322 298.943 248.753 299.512 248.753 300.213V316.543C248.753 317.245 249.322 317.814 250.024 317.814H254.071C254.773 317.814 255.342 317.245 255.342 316.543V300.213C255.342 299.512 254.773 298.943 254.071 298.943Z" fill="#954435"/>
<path d="M249.435 317.814H248.381C247.683 317.814 247.109 317.241 247.109 316.543V300.213C247.109 299.516 247.683 298.943 248.381 298.943H249.435C251.094 298.943 252.427 300.275 252.427 301.933V314.824C252.427 316.481 251.094 317.814 249.435 317.814Z" fill="#C05847"/>
<path opacity="0.2" d="M212.986 170.07H140.693V175.105H212.986V170.07Z" fill="#221F20"/>
<path opacity="0.2" d="M215.094 287.231H140.693V292.266H215.094V287.231Z" fill="#221F20"/>
<path d="M212.986 165.298H140.693V170.287H212.986V165.298Z" fill="#FAF5F0"/>
<path d="M157.081 178.359H152.678V185.827H157.081V178.359Z" fill="#804721"/>
<path d="M153.639 185.33H155.856C158.306 185.33 160.274 187.313 160.274 189.746V265.725H149.205V189.746C149.205 187.298 151.189 185.33 153.624 185.33H153.639Z" fill="#F7DCB6"/>
<path d="M155.282 165.328H154.477V178.358H155.282V165.328Z" fill="#4B4B4C"/>
<path d="M172.956 178.359H168.553V185.827H172.956V178.359Z" fill="#804721"/>
<path d="M169.53 185.33H171.747C174.196 185.33 176.165 187.313 176.165 189.746V265.725H165.111V189.746C165.111 187.298 167.096 185.33 169.53 185.33Z" fill="#F7DCB6"/>
<path d="M171.173 165.328H170.367V178.358H171.173V165.328Z" fill="#4B4B4C"/>
<path d="M187.452 178.359H183.049V185.827H187.452V178.359Z" fill="#804721"/>
<path d="M184.01 185.33H186.227C188.677 185.33 190.646 187.313 190.646 189.746V265.725H179.592V189.746C179.592 187.298 181.576 185.33 184.01 185.33Z" fill="#C8A09F"/>
<path d="M185.653 165.328H184.848V178.358H185.653V165.328Z" fill="#4B4B4C"/>
<path d="M202.196 178.359H197.793V185.827H202.196V178.359Z" fill="#804721"/>
<path d="M199.328 185.33H200.413C203.173 185.33 205.405 187.561 205.405 190.319V270.342H194.336V190.319C194.336 187.561 196.568 185.33 199.328 185.33Z" fill="#6D4B37"/>
<path d="M200.396 165.328H199.591V178.358H200.396V165.328Z" fill="#4B4B4C"/>
<path d="M195.312 178.359H190.909V185.827H195.312V178.359Z" fill="#804721"/>
<path d="M191.871 185.33H194.088C196.537 185.33 198.506 187.313 198.506 189.746V265.725H187.452V189.746C187.452 187.298 189.437 185.33 191.871 185.33Z" fill="#825E5D"/>
<path d="M193.514 165.328H192.708V178.358H193.514V165.328Z" fill="#4B4B4C"/>
<path d="M162.197 294.978H157.965V302.136H162.197V294.978Z" fill="#986533"/>
<path d="M160.476 282.474H159.701V294.977H160.476V282.474Z" fill="#4B4B4C"/>
<path d="M172.475 302.46C171.561 302.243 170.599 302.135 169.623 302.135H149.778C148.802 302.135 147.84 302.243 146.926 302.46C144.523 303.002 142.383 304.211 140.693 305.884V334.237H142.678V373.047H176.708V334.237H182.552V315.087C182.552 308.921 178.243 303.761 172.475 302.46Z" fill="#525152"/>
<path d="M160.088 298.555L172.475 302.46L160.088 307.17L146.926 302.46L160.088 298.555Z" fill="#986533"/>
<path d="M170.508 294.978H166.275V302.136H170.508V294.978Z" fill="#986533"/>
<path d="M168.77 282.475H167.995V294.978H168.77V282.475Z" fill="#4B4B4C"/>
<path d="M190.863 315.087V334.237H185.018V373.048H150.988V334.237H145.144V315.087C145.144 308.921 149.469 303.762 155.236 302.46C156.151 302.243 157.112 302.135 158.089 302.135H177.933C178.91 302.135 179.871 302.243 180.786 302.46C186.553 303.762 190.863 308.905 190.863 315.087Z" fill="#6E6C6E"/>
<path d="M168.383 298.556L180.77 302.46L168.383 307.17L155.221 302.46L168.383 298.556Z" fill="#986533"/>
<path d="M176.429 294.978H172.196V302.136H176.429V294.978Z" fill="#804721"/>
<path d="M174.707 282.475H173.933V294.978H174.707V282.475Z" fill="#4B4B4C"/>
<path d="M196.785 315.087V334.237H190.94V373.048H156.91V334.237H151.065V315.087C151.065 308.921 155.391 303.762 161.158 302.46C162.073 302.243 163.034 302.135 164.011 302.135H183.855C184.832 302.135 185.793 302.243 186.708 302.46C192.475 303.762 196.785 308.905 196.785 315.087Z" fill="#E09B74"/>
<path d="M174.305 298.556L186.708 302.46L174.305 307.17L161.158 302.46L174.305 298.556Z" fill="#804721"/>
<path d="M183.731 294.978H179.499V302.136H183.731V294.978Z" fill="#986533"/>
<path d="M182.01 282.475H181.235V294.978H182.01V282.475Z" fill="#4B4B4C"/>
<path d="M204.087 315.087V334.237H198.242V373.048H164.212V334.237H158.367V315.087C158.367 308.921 162.693 303.762 168.46 302.46C169.375 302.243 170.336 302.135 171.312 302.135H191.157C192.134 302.135 193.095 302.243 194.009 302.46C199.777 303.762 204.087 308.905 204.087 315.087Z" fill="#DE8957"/>
<path d="M181.622 298.556L194.01 302.46L181.622 307.17L168.46 302.46L181.622 298.556Z" fill="#986533"/>
<path d="M193.824 294.978H189.592V302.136H193.824V294.978Z" fill="#804721"/>
<path d="M192.086 282.475H191.312V294.978H192.086V282.475Z" fill="#4B4B4C"/>
<path d="M214.164 315.087V334.237H208.319V373.048H174.289V334.237H168.444V315.087C168.444 308.921 172.77 303.762 178.537 302.46C179.452 302.243 180.413 302.135 181.39 302.135H201.234C202.211 302.135 203.172 302.243 204.087 302.46C209.854 303.762 214.164 308.905 214.164 315.087Z" fill="#F7DCB6"/>
<path d="M191.7 298.556L204.087 302.46L191.7 307.17L178.537 302.46L191.7 298.556Z" fill="#804721"/>
<path opacity="0.2" d="M290.069 209.33H235.513V214.365H290.069V209.33Z" fill="#221F20"/>
<path opacity="0.2" d="M290.007 265.943H235.513V270.994H290.007V265.943Z" fill="#221F20"/>
<path opacity="0.2" d="M290.007 322.57H235.513V327.621H290.007V322.57Z" fill="#221F20"/>
</g>
<path d="M371.183 283.417H363.663C340.052 283.417 320.89 264.268 320.89 240.671V227.332C320.89 222.374 324.921 218.346 329.882 218.346H342.966C358.547 218.346 371.183 230.988 371.183 246.543V283.417Z" fill="#F6D2A0"/>
<path d="M374.081 338.341V358.343C374.081 358.343 385.135 356.422 378.779 341.347L374.081 338.357V338.341Z" fill="#E69392"/>
<path d="M378.779 341.347L374.081 338.357L389.77 302.691L399.445 308.857C381.91 336.249 378.779 341.347 378.779 341.347Z" fill="#E96094"/>
<path d="M374.391 267.677C374.391 267.677 380.825 273.301 399.445 308.905L389.476 313.135L367.896 278.027L374.391 267.677Z" fill="#E96094"/>
<path d="M327.23 266.159C327.23 266.159 321.029 283.186 324.331 328.349C324.331 328.349 328.92 328.597 332.3 328.178L334.734 322.43L335.865 275.393L327.23 266.159Z" fill="#E96094"/>
<path d="M340.672 486.567H352.501C352.501 486.567 356.113 474.683 360.408 455.89C363.276 443.34 366.454 427.677 369.043 410.448C372.128 390.044 374.392 367.392 374.392 344.958H347.602L344.331 411.874L342.625 446.826L340.687 486.551L340.672 486.567Z" fill="#D58483"/>
<path d="M374.376 344.972H337.06C337.06 344.972 343.928 328.936 327.541 286.593L327.23 266.158L341.649 261.479L358.423 260.626L374.376 267.676V344.972Z" fill="#E96094"/>
<path d="M358.423 261.479C358.423 261.479 358.919 264.485 352.764 264.485C346.609 264.485 341.726 261.479 341.726 261.479V242.035H358.407V261.479H358.423Z" fill="#E69392"/>
<path d="M341.741 259.652V251.053H356.857C356.857 251.053 355.679 259.652 341.741 259.652Z" fill="#D16F6D"/>
<path d="M336.16 412.354C336.827 415.36 337.478 418.458 338.067 421.696C339.757 430.884 341.277 439.328 342.61 446.858C346.966 471.523 349.369 486.567 349.369 486.567H360.408V344.974H337.06C324.796 371.514 330.936 388.789 336.16 412.354Z" fill="#E69392"/>
<path d="M336.16 412.354L344.33 411.889L360.422 410.96L369.058 410.464C372.143 390.059 374.406 367.408 374.406 344.974H337.09C324.827 371.514 330.966 388.789 336.191 412.354H336.16Z" fill="#404264"/>
<path d="M333.307 361.364L327.307 373.743C325.85 376.764 321.137 375.664 321.354 372.318C321.524 369.576 323.121 366.09 327.772 361.999L333.307 361.349V361.364Z" fill="#E69392"/>
<path d="M327.773 362.016L333.308 361.365L334.734 322.43C328.44 323.174 323.541 321.346 324.285 327.636C326.92 350.008 327.773 362.016 327.773 362.016Z" fill="#E96094"/>
<path d="M360.036 246.358H358.423V235.296H362.826V243.569C362.826 245.118 361.57 246.358 360.036 246.358Z" fill="#EC9C9A"/>
<path d="M361.353 226.14V236.644H358.423V251.177C358.423 251.177 348.78 261.278 339.71 256.243C335.742 254.043 333.308 249.147 333.308 243.926V226.14C333.308 223.087 333.974 220.221 335.121 217.758C337.494 212.676 341.958 209.236 347.075 209.236H347.586C355.183 209.236 361.353 216.813 361.353 226.14Z" fill="#EC9C9A"/>
<path d="M338.548 243.539C337.85 243.539 337.183 243.198 336.703 242.594C336.191 241.943 335.959 241.06 336.067 240.177L336.191 239.17L337.509 239.371L337.385 240.378C337.323 240.843 337.447 241.292 337.711 241.633C337.928 241.912 338.222 242.067 338.548 242.067V243.539Z" fill="#D16F6D"/>
<path d="M350.036 247.319C350.036 247.319 348.951 252.927 344.052 252.927C339.153 252.927 338.067 247.319 338.067 247.319H350.021H350.036Z" fill="white"/>
<path d="M330.812 227.564C330.812 227.564 354.129 225.488 371.182 255.266V226.867C371.182 215.944 362.144 207.097 350.997 207.097C339.85 207.097 330.812 215.944 330.812 226.867V227.564Z" fill="#F6D2A0"/>
<path d="M360.237 275.563H357.013V259.032H371.183V264.625C371.183 270.668 366.268 275.563 360.237 275.563Z" fill="#F6D2A0"/>
<path d="M349.462 293.985C357.369 293.985 363.787 287.57 363.787 279.669V257.126H359.26C353.849 257.126 349.462 261.511 349.462 266.918V293.985Z" fill="#F6D2A0"/>
<path d="M222.908 238.209C227.714 238.209 231.621 234.32 231.621 229.501V215.418H219.109" fill="#AD3C49"/>
<path d="M255.821 239.959H224.226V209.469C224.226 204.371 228.365 200.235 233.466 200.235H242.907C252.318 200.235 259.93 207.857 259.93 217.246L255.821 239.959Z" fill="#AD3C49"/>
<path d="M240.179 242.594H227.203V213.839C227.203 209.036 231.343 205.131 236.443 205.131H245.885C255.295 205.131 262.907 212.32 262.907 221.167C262.907 232.988 252.737 242.579 240.179 242.579V242.594Z" fill="#AD3C49"/>
<path d="M311.339 288.996L283.139 316.698L278.891 306.767L306.781 283.295L311.339 288.996Z" fill="#F19F9E"/>
<path d="M258.829 258.66L255.496 260.968C255.496 260.968 282.069 315.164 283.139 316.713L291.681 308.316L269.806 262.455L258.845 258.66H258.829Z" fill="#F19F9E"/>
<path d="M284.642 293.583L272.891 300.493L261.977 275.905L269.79 262.457L284.642 293.583Z" fill="#563A42"/>
<path d="M306.505 279.546L314.806 274.086L317.406 278.034C319.741 281.58 318.754 286.365 315.205 288.699L311.307 291.263C310.245 291.961 308.806 291.665 308.108 290.603L305.142 286.1C303.71 283.925 304.316 280.985 306.492 279.555L306.505 279.546Z" fill="#F19F9E"/>
<path d="M269.79 262.456L251.341 253.749H229.218L210.056 262.456L213.745 358.158H266.488L269.79 262.456Z" fill="#563A42"/>
<path d="M252.442 254.259C252.442 254.259 249.248 258.489 240.272 258.489C231.295 258.489 228.102 254.259 228.102 254.259V226.914H252.442V254.259Z" fill="#F19F9E"/>
<path d="M252.442 252.787V241.617H232.334C232.334 241.617 235.884 251.672 252.442 252.787Z" fill="#D16F6D"/>
<path d="M213.746 358.158L212.815 488.503L223.389 487.713L245.093 358.158H213.746Z" fill="#C1DCED"/>
<path d="M266.473 358.158L264.163 483.452H251.28L236.536 358.158H266.473Z" fill="#C1DCED"/>
<path d="M210.056 262.457C210.056 262.457 202.413 283.187 202.413 317.179C202.413 319.038 202.444 322.323 202.491 324.213L214.118 322.787L215.296 304.567L210.056 262.457Z" fill="#F19F9E"/>
<path d="M263.558 277.717H244.721C243.052 277.717 241.698 279.069 241.698 280.738V312.127C241.698 313.796 243.052 315.149 244.721 315.149H263.558C265.228 315.149 266.581 313.796 266.581 312.127V280.738C266.581 279.069 265.228 277.717 263.558 277.717Z" fill="white"/>
<path d="M263.992 281.591C263.992 282.148 263.542 282.598 262.984 282.598C262.426 282.598 261.977 282.148 261.977 281.591C261.977 281.033 262.426 280.583 262.984 280.583C263.542 280.583 263.992 281.033 263.992 281.591Z" fill="#192636"/>
<path d="M242.458 306.006H252.396V310.732C252.396 314.977 248.938 318.432 244.691 318.432H237.729V310.732C237.729 308.113 239.853 306.006 242.458 306.006Z" fill="#F19F9E"/>
<path d="M239.172 318.434L214.118 322.787L211.746 311.136H239.172V318.434Z" fill="#F19F9E"/>
<path d="M257.279 248.218C240.737 253.966 230.893 241.943 230.893 241.943V215.636C230.893 212.475 233.187 209.903 236.009 209.903H245.481C255.357 209.903 257.295 218.13 257.279 223.77V248.218Z" fill="#F19F9E"/>
<path d="M253.651 234.676H250.38V233.205H252.023L251.667 230.028L253.124 229.874L253.651 234.676Z" fill="#D16F6D"/>
<path d="M216.646 372.66C223.312 372.66 228.738 367.237 228.738 360.575H227.234C227.234 366.416 222.49 371.157 216.646 371.157V372.66Z" fill="#AEC7D7"/>
<path d="M263.357 372.366V371.451C261.558 371.451 259.558 366.989 259.558 360.575H258.644C258.644 367.191 260.705 372.366 263.357 372.366Z" fill="#AEC7D7"/>
<path d="M241.792 380.748L245.032 377.525V365.316H244.102V377.138L241.141 380.097L241.792 380.748Z" fill="#AEC7D7"/>
<path d="M234.985 224.373H219.125V215.496C219.125 210.724 222.272 206.85 226.148 206.85H235.233C237.791 206.85 239.853 209.391 239.853 212.536C239.853 219.075 235.311 215.434 234.985 224.373Z" fill="#AD3C49"/>
<path d="M230.458 232.678C232.954 232.678 234.985 230.649 234.985 228.154V224.374H230.458V232.678Z" fill="#AD3C49"/>
<path d="M227.264 223.274C225.466 223.274 224.009 224.731 224.009 226.528V233.237C224.009 235.034 225.466 236.49 227.264 236.49H230.551V226.574C230.551 224.762 229.078 223.29 227.264 223.29V223.274Z" fill="#F19F9E"/>
<path d="M215.296 304.567L201.653 303.514C201.653 303.514 206.987 266.252 210.056 262.457L215.296 304.567Z" fill="#563A42"/>
<path style="mix-blend-mode:screen" d="M204.366 355.804H34.4336L109.222 44.3736H129.578L204.366 355.804Z" fill="url(#paint3_linear_86_166473)"/>
<path d="M326.983 362.667C326.983 362.667 321.696 367.966 320.89 369.716C320.1 371.467 318.952 375.852 322.906 376.208C326.859 376.565 328.44 375.96 328.999 374.07C329.557 372.18 330.673 365.905 330.673 365.905L326.968 362.683L326.983 362.667Z" fill="#E69392"/>
<path d="M313.79 391.206C313.495 391.144 313.247 390.896 313.216 390.586C313.17 390.137 312.084 379.431 316.999 373.776C318.859 371.638 321.324 370.522 324.348 370.429C332.874 370.166 334.068 377.913 335.122 384.73C335.743 388.711 336.316 392.492 338.13 394.769C338.378 395.079 338.316 395.529 338.006 395.776C337.696 396.024 337.246 395.962 336.998 395.652C334.952 393.065 334.316 388.928 333.712 384.931C332.657 378.083 331.665 371.622 324.394 371.839C321.79 371.917 319.666 372.877 318.084 374.69C313.573 379.865 314.627 390.307 314.643 390.4C314.689 390.788 314.394 391.144 314.007 391.19C313.929 391.19 313.852 391.19 313.79 391.19V391.206Z" fill="#5A8BC9"/>
<path d="M284.953 387.781L278.752 450.622L290.55 451.242L295.93 455.58L293.062 388.013L284.953 387.781Z" fill="#98AAD7"/>
<path d="M293.062 388.014H363.385L372.036 453.628L295.93 455.58L293.062 388.014Z" fill="#F18C37"/>
<path d="M318.596 393.189C318.286 393.189 318.007 392.988 317.914 392.693C317.774 392.259 314.611 381.972 318.332 375.465C319.743 373.017 321.945 371.421 324.875 370.739C333.2 368.818 335.882 376.177 338.254 382.669C339.634 386.465 340.952 390.044 343.169 391.934C343.463 392.198 343.51 392.647 343.246 392.941C342.983 393.236 342.533 393.282 342.238 393.019C339.727 390.881 338.301 386.961 336.905 383.149C334.533 376.642 332.285 370.491 325.2 372.134C322.673 372.722 320.766 374.07 319.573 376.177C316.162 382.127 319.247 392.167 319.278 392.259C319.402 392.631 319.185 393.034 318.813 393.158C318.735 393.174 318.673 393.189 318.596 393.189Z" fill="#84ACDC"/>
<path d="M290.55 451.242V388.014H293.061L295.929 455.58L290.55 451.242Z" fill="#98AAD7"/>
<path d="M324.921 364.79C324.921 364.79 321.247 366.649 320.379 367.873C319.511 369.112 317.96 370.739 318.906 370.94C319.867 371.142 322.689 369.035 322.689 369.035L324.921 364.79Z" fill="#E69392"/>
<path d="M320.906 372.52C320.906 372.52 324.239 370.087 326.301 370.955C328.363 371.823 328.533 375.076 327.898 375.758C327.262 376.44 322.053 377.183 320.657 375.355C319.262 373.527 320.906 372.52 320.906 372.52Z" fill="#E69392"/>
<path d="M153.778 409.781L153.964 347.065L157.685 341.44L191.467 341.719L193.327 345.67L193.141 409.781H191.312L191.545 345.903L189.312 343.687H159.018L155.701 348.01L155.189 409.781H153.778Z" fill="white"/>
<path d="M164.646 340.852L164.072 344.415H184.599L185.172 341.069L164.646 340.852Z" fill="#356A7C"/>
<path d="M147.173 494.685H198.427C200.542 494.685 202.257 492.972 202.257 490.858V411.223C202.257 409.109 200.542 407.396 198.427 407.396H147.173C145.058 407.396 143.344 409.109 143.344 411.223V490.858C143.344 492.972 145.058 494.685 147.173 494.685Z" fill="#356A7C"/>
<path d="M148.553 414.663L149.08 438.91C149.096 439.498 149.36 439.963 149.67 439.948L170.072 439.622C170.382 439.622 170.63 439.157 170.646 438.584L171.157 415.127C171.173 414.508 170.909 413.981 170.584 413.981L149.143 413.516C148.801 413.516 148.538 414.043 148.553 414.663Z" fill="#529AB0"/>
<path d="M150.972 415.687L151.22 417.127L169.746 417.298V416.492L150.972 415.687Z" fill="#366770"/>
<path d="M174.615 414.663L175.142 438.91C175.158 439.498 175.421 439.963 175.731 439.948L196.134 439.622C196.444 439.622 196.692 439.158 196.707 438.584L197.219 415.127C197.234 414.508 196.971 413.981 196.645 413.981L175.204 413.516C174.863 413.516 174.599 414.043 174.615 414.663Z" fill="#529AB0"/>
<path d="M177.033 415.687L177.281 417.127L195.808 417.298V416.492L177.033 415.687Z" fill="#366770"/>
<path d="M208.614 397.65L202.258 407.396H145.004L137.872 393.808L145.949 371.839L152.941 372.009L200.413 373.14L208.614 397.65Z" fill="#7DC1D2"/>
<path d="M208.614 397.65L202.257 407.395H155.685L158.972 393.808L152.026 371.978L200.412 373.14L208.614 397.65Z" fill="#89C8DA"/>
<path d="M157.561 377.168L166.025 390.755C167.576 393.234 170.273 394.737 173.203 394.737H192.381C199.218 394.737 208.334 392.63 199.311 381.459L195.668 376.254L193.001 376.424L194.009 378.175C202.753 391.7 193.42 390.445 187.141 390.802L175.312 391.452C172.506 391.607 169.793 390.352 168.103 388.106L159.855 377.183H157.576L157.561 377.168Z" fill="#6DB5CA"/>
</g>
<path d="M25.823 43.9626V29.2466H30.887C32.0379 29.2466 32.9095 29.3124 33.5015 29.4603C34.34 29.6577 35.0636 30.003 35.6555 30.5127C36.4283 31.1704 37.0035 32.0089 37.3981 33.0283C37.7763 34.0478 37.9738 35.2152 37.9738 36.5306C37.9738 37.6487 37.8423 38.6352 37.5792 39.5067C37.3161 40.3617 36.9871 41.0852 36.576 41.6443C36.1649 42.2033 35.7213 42.6473 35.228 42.9761C34.7347 43.305 34.1591 43.5515 33.4685 43.7159C32.778 43.8804 31.9888 43.9626 31.1009 43.9626H25.79H25.823ZM27.7795 42.2362H30.9199C31.89 42.2362 32.6466 42.1375 33.2056 41.973C33.7647 41.7922 34.1918 41.5456 34.5207 41.2168C34.9811 40.7564 35.3431 40.1315 35.6062 39.3587C35.8692 38.586 35.9843 37.6322 35.9843 36.5306C35.9843 34.985 35.7377 33.8176 35.228 32.9791C34.7183 32.1569 34.1097 31.5979 33.3863 31.3184C32.8601 31.121 32.0215 31.0224 30.8705 31.0224H27.7795V42.269V42.2362Z" fill="#595757"/>
<path d="M39.7666 38.6352C39.7666 36.6621 40.3092 35.1988 41.4108 34.2451C42.3316 33.4559 43.4494 33.0612 44.7648 33.0612C46.2282 33.0612 47.4288 33.5381 48.366 34.5082C49.3032 35.4618 49.7634 36.7936 49.7634 38.4872C49.7634 39.8519 49.5498 40.9372 49.1387 41.7264C48.7277 42.5157 48.1356 43.124 47.3464 43.5515C46.5571 43.979 45.702 44.2093 44.7648 44.2093C43.2685 44.2093 42.0683 43.7324 41.1475 42.7788C40.2267 41.8251 39.7666 40.4439 39.7666 38.6517V38.6352ZM41.6244 38.6352C41.6244 40 41.9204 41.0194 42.5124 41.6935C43.1043 42.3677 43.8604 42.7129 44.7648 42.7129C45.6691 42.7129 46.4092 42.3677 47.0011 41.6935C47.5931 41.0029 47.8891 39.967 47.8891 38.5694C47.8891 37.254 47.593 36.2511 46.9847 35.577C46.3927 34.9028 45.6362 34.5575 44.7483 34.5575C43.8604 34.5575 43.1043 34.9028 42.4959 35.577C41.904 36.2511 41.608 37.2705 41.608 38.6352H41.6244Z" fill="#595757"/>
<path d="M51.867 43.9626V33.3079H53.4948V34.8206C54.2841 33.6532 55.4023 33.0612 56.8821 33.0612C57.5233 33.0612 58.1154 33.1764 58.658 33.4065C59.2006 33.6367 59.5952 33.9327 59.8747 34.3109C60.1378 34.689 60.3349 35.133 60.4335 35.6427C60.4993 35.9715 60.5323 36.5635 60.5323 37.4021V43.9626H58.7234V37.4843C58.7234 36.7443 58.6579 36.2017 58.5099 35.84C58.3619 35.4783 58.1153 35.1824 57.7536 34.9686C57.3918 34.7549 56.9808 34.6397 56.4875 34.6397C55.7147 34.6397 55.057 34.8864 54.498 35.3797C53.939 35.8729 53.6594 36.7936 53.6594 38.1583V43.9791H51.8506L51.867 43.9626Z" fill="#595757"/>
<path d="M63.31 34.4588L62.8496 31.713V29.2466H64.9049V31.713L64.4284 34.4588H63.31Z" fill="#595757"/>
<path d="M71.171 42.3513L71.4344 43.9462C70.9246 44.0448 70.4641 44.1107 70.0695 44.1107C69.4118 44.1107 68.9022 44.012 68.5405 43.7982C68.1787 43.5845 67.9318 43.3214 67.7838 42.9761C67.6358 42.6308 67.5702 41.9237 67.5702 40.8385V34.7055H66.2383V33.3079H67.5702V30.6771L69.3626 29.5919V33.3079H71.171V34.7055H69.3626V40.9372C69.3626 41.4469 69.3952 41.7758 69.4609 41.9238C69.5267 42.0718 69.6257 42.1868 69.7737 42.269C69.9216 42.3512 70.1188 42.4006 70.3983 42.4006C70.5956 42.4006 70.8586 42.3842 71.1875 42.3348L71.171 42.3513Z" fill="#595757"/>
<path d="M78.6511 43.9626V33.3079H80.2624V34.8041C80.5913 34.278 81.0353 33.8669 81.5943 33.538C82.1534 33.2092 82.778 33.0612 83.4851 33.0612C84.2743 33.0612 84.9159 33.2256 85.4256 33.5545C85.9353 33.8833 86.2804 34.3438 86.4942 34.9357C87.3327 33.6861 88.4344 33.0612 89.7827 33.0612C90.835 33.0612 91.6571 33.3572 92.2161 33.9327C92.7916 34.5246 93.0712 35.4125 93.0712 36.6457V43.9626H91.2788V37.254C91.2788 36.5306 91.2133 36.0044 91.0982 35.692C90.9831 35.3796 90.7691 35.1165 90.4567 34.9192C90.1443 34.7219 89.7827 34.6233 89.3716 34.6233C88.6153 34.6233 88.0067 34.8699 87.5134 35.3632C87.0201 35.8565 86.7736 36.6621 86.7736 37.7637V43.9626H84.9651V37.0403C84.9651 36.2346 84.8171 35.6427 84.5212 35.2316C84.2252 34.837 83.7482 34.6233 83.074 34.6233C82.5643 34.6233 82.1041 34.7548 81.6602 35.0179C81.2162 35.281 80.9202 35.6756 80.7228 36.1853C80.5255 36.695 80.427 37.4349 80.427 38.405V43.9297H78.6182L78.6511 43.9626Z" fill="#595757"/>
<path d="M95.7686 31.3348V29.2631H97.5774V31.3348H95.7686ZM95.7686 43.9626V33.3079H97.5774V43.9626H95.7686Z" fill="#595757"/>
<path d="M99.6162 40.7892L101.409 40.5097C101.507 41.2332 101.787 41.7758 102.247 42.154C102.708 42.5322 103.349 42.7294 104.171 42.7294C104.993 42.7294 105.618 42.565 106.012 42.2197C106.407 41.8744 106.621 41.4798 106.621 41.0358C106.621 40.6247 106.44 40.3124 106.094 40.0658C105.848 39.9013 105.223 39.704 104.253 39.4574C102.921 39.1285 102.017 38.8325 101.49 38.5859C100.981 38.3393 100.586 38.0104 100.323 37.5665C100.06 37.139 99.9285 36.6621 99.9285 36.136C99.9285 35.6591 100.044 35.2152 100.257 34.8206C100.471 34.4095 100.767 34.0807 101.145 33.8176C101.425 33.6039 101.803 33.4394 102.296 33.2915C102.773 33.1435 103.299 33.0777 103.859 33.0777C104.697 33.0777 105.437 33.1927 106.062 33.4394C106.686 33.686 107.163 33.9985 107.459 34.426C107.755 34.8371 107.969 35.3961 108.084 36.0702L106.325 36.3168C106.243 35.7742 106.012 35.3468 105.634 35.0344C105.256 34.722 104.713 34.5739 104.006 34.5739C103.184 34.5739 102.592 34.7055 102.231 34.985C101.869 35.2645 101.704 35.577 101.704 35.9551C101.704 36.1853 101.77 36.3991 101.918 36.58C102.066 36.7773 102.296 36.9417 102.609 37.0568C102.79 37.1225 103.316 37.2706 104.204 37.5172C105.486 37.8625 106.374 38.142 106.884 38.3558C107.393 38.5695 107.788 38.8819 108.067 39.3094C108.347 39.7204 108.495 40.2466 108.495 40.855C108.495 41.4633 108.314 42.0224 107.969 42.5486C107.624 43.0747 107.114 43.4858 106.456 43.7818C105.798 44.0777 105.042 44.2256 104.204 44.2256C102.823 44.2256 101.77 43.9462 101.03 43.3707C100.291 42.7952 99.8464 41.9402 99.6491 40.8057L99.6162 40.7892Z" fill="#595757"/>
<path d="M109.893 40.7892L111.685 40.5097C111.784 41.2332 112.063 41.7758 112.524 42.154C112.984 42.5322 113.625 42.7294 114.447 42.7294C115.269 42.7294 115.894 42.565 116.289 42.2197C116.683 41.8744 116.897 41.4798 116.897 41.0358C116.897 40.6247 116.716 40.3124 116.371 40.0658C116.124 39.9013 115.5 39.704 114.529 39.4574C113.198 39.1285 112.293 38.8325 111.767 38.5859C111.257 38.3393 110.863 38.0104 110.599 37.5665C110.336 37.139 110.205 36.6621 110.205 36.136C110.205 35.6591 110.32 35.2152 110.534 34.8206C110.747 34.4095 111.043 34.0807 111.422 33.8176C111.701 33.6039 112.079 33.4394 112.573 33.2915C113.049 33.1435 113.576 33.0777 114.135 33.0777C114.973 33.0777 115.713 33.1927 116.338 33.4394C116.963 33.686 117.44 33.9985 117.736 34.426C118.032 34.8371 118.245 35.3961 118.36 36.0702L116.601 36.3168C116.519 35.7742 116.289 35.3468 115.91 35.0344C115.532 34.722 114.99 34.5739 114.283 34.5739C113.46 34.5739 112.869 34.7055 112.507 34.985C112.145 35.2645 111.981 35.577 111.981 35.9551C111.981 36.1853 112.046 36.3991 112.194 36.58C112.342 36.7773 112.573 36.9417 112.885 37.0568C113.066 37.1225 113.592 37.2706 114.48 37.5172C115.763 37.8625 116.65 38.142 117.16 38.3558C117.67 38.5695 118.064 38.8819 118.344 39.3094C118.623 39.7204 118.771 40.2466 118.771 40.855C118.771 41.4633 118.591 42.0224 118.245 42.5486C117.9 43.0747 117.39 43.4858 116.733 43.7818C116.075 44.0777 115.319 44.2256 114.48 44.2256C113.099 44.2256 112.047 43.9462 111.307 43.3707C110.567 42.7952 110.123 41.9402 109.925 40.8057L109.893 40.7892Z" fill="#595757"/>
<path d="M130.543 42.3513L130.806 43.9462C130.296 44.0448 129.836 44.1107 129.441 44.1107C128.783 44.1107 128.274 44.012 127.912 43.7982C127.55 43.5845 127.304 43.3214 127.156 42.9761C127.008 42.6308 126.942 41.9237 126.942 40.8385V34.7055H125.61V33.3079H126.942V30.6771L128.734 29.5919V33.3079H130.543V34.7055H128.734V40.9372C128.734 41.4469 128.767 41.7758 128.833 41.9238C128.899 42.0718 128.997 42.1868 129.145 42.269C129.293 42.3512 129.491 42.4006 129.77 42.4006C129.968 42.4006 130.231 42.3842 130.56 42.3348L130.543 42.3513Z" fill="#595757"/>
<path d="M132.304 43.9626V29.2466H134.113V34.5247C134.951 33.5545 136.02 33.0613 137.302 33.0613C138.092 33.0613 138.782 33.2093 139.358 33.5217C139.933 33.8341 140.361 34.2615 140.607 34.8041C140.854 35.3468 140.985 36.1525 140.985 37.1883V43.9462H139.177V37.1883C139.177 36.284 138.979 35.6263 138.585 35.2152C138.19 34.8041 137.648 34.5904 136.924 34.5904C136.382 34.5904 135.888 34.7219 135.412 35.0015C134.935 35.281 134.606 35.6592 134.408 36.136C134.211 36.6128 134.113 37.2705 134.113 38.1091V43.9462H132.304V43.9626Z" fill="#595757"/>
<path d="M151.031 40.5425L152.905 40.7727C152.609 41.858 152.067 42.7129 151.261 43.3049C150.472 43.9132 149.453 44.2093 148.203 44.2093C146.641 44.2093 145.408 43.7324 144.504 42.7623C143.583 41.8087 143.139 40.4603 143.139 38.7174C143.139 36.9745 143.599 35.5276 144.52 34.5411C145.441 33.5545 146.641 33.0612 148.121 33.0612C149.601 33.0612 150.702 33.5381 151.607 34.5246C152.511 35.4947 152.955 36.8594 152.955 38.6188C152.955 38.7174 152.955 38.8818 152.955 39.0956H145.013C145.079 40.263 145.408 41.1674 146 41.7922C146.592 42.417 147.332 42.7294 148.22 42.7294C148.877 42.7294 149.453 42.5485 149.913 42.2032C150.374 41.8579 150.752 41.2989 151.031 40.5425ZM145.095 37.6158H151.048C150.965 36.7115 150.735 36.0537 150.357 35.5933C149.782 34.9027 149.042 34.5575 148.121 34.5575C147.299 34.5575 146.592 34.837 146.033 35.396C145.474 35.9551 145.161 36.6951 145.095 37.6323V37.6158Z" fill="#595757"/>
<path d="M164.827 42.3513L165.091 43.9462C164.581 44.0448 164.12 44.1107 163.726 44.1107C163.068 44.1107 162.558 44.012 162.197 43.7982C161.835 43.5845 161.588 43.3214 161.44 42.9761C161.292 42.6308 161.226 41.9237 161.226 40.8385V34.7055H159.895V33.3079H161.226V30.6771L163.019 29.5919V33.3079H164.827V34.7055H163.019V40.9372C163.019 41.4469 163.052 41.7758 163.118 41.9238C163.183 42.0718 163.282 42.1868 163.43 42.269C163.578 42.3512 163.775 42.4006 164.055 42.4006C164.252 42.4006 164.515 42.3842 164.844 42.3348L164.827 42.3513Z" fill="#595757"/>
<path d="M166.603 31.3348V29.2631H168.411V31.3348H166.603ZM166.603 43.9626V33.3079H168.411V43.9626H166.603Z" fill="#595757"/>
<path d="M171.158 43.9626V33.3079H172.769V34.8041C173.098 34.278 173.542 33.8669 174.101 33.538C174.66 33.2092 175.285 33.0612 175.992 33.0612C176.781 33.0612 177.422 33.2256 177.932 33.5545C178.442 33.8833 178.787 34.3438 179.001 34.9357C179.84 33.6861 180.941 33.0612 182.29 33.0612C183.342 33.0612 184.164 33.3572 184.723 33.9327C185.298 34.5246 185.578 35.4125 185.578 36.6457V43.9626H183.786V37.254C183.786 36.5306 183.72 36.0044 183.605 35.692C183.49 35.3796 183.276 35.1165 182.964 34.9192C182.651 34.7219 182.29 34.6233 181.878 34.6233C181.122 34.6233 180.514 34.8699 180.02 35.3632C179.527 35.8565 179.28 36.6621 179.28 37.7637V43.9626H177.472V37.0403C177.472 36.2346 177.324 35.6427 177.028 35.2316C176.732 34.837 176.255 34.6233 175.581 34.6233C175.071 34.6233 174.611 34.7548 174.167 35.0179C173.723 35.281 173.427 35.6756 173.23 36.1853C173.032 36.695 172.934 37.4349 172.934 38.405V43.9297H171.125L171.158 43.9626Z" fill="#595757"/>
<path d="M195.574 40.5425L197.433 40.7727C197.137 41.858 196.594 42.7129 195.788 43.3049C194.999 43.9132 193.979 44.2093 192.729 44.2093C191.167 44.2093 189.934 43.7324 189.03 42.7623C188.109 41.8087 187.665 40.4603 187.665 38.7174C187.665 36.9745 188.126 35.5276 189.047 34.5411C189.968 33.5545 191.168 33.0612 192.648 33.0612C194.127 33.0612 195.229 33.5381 196.134 34.5246C197.038 35.4947 197.482 36.8594 197.482 38.6188C197.482 38.7174 197.482 38.8818 197.482 39.0956H189.54C189.605 40.263 189.934 41.1674 190.526 41.7922C191.118 42.417 191.858 42.7294 192.762 42.7294C193.42 42.7294 193.996 42.5485 194.456 42.2032C194.933 41.8579 195.294 41.2989 195.574 40.5425ZM189.638 37.6158H195.591C195.509 36.7115 195.279 36.0537 194.9 35.5933C194.325 34.9027 193.584 34.5575 192.664 34.5575C191.841 34.5575 191.134 34.837 190.575 35.396C190.016 35.9551 189.704 36.6951 189.638 37.6323V37.6158Z" fill="#595757"/>
<path d="M207.083 43.9626H205.406V29.2466H207.215V34.4917C207.971 33.5381 208.958 33.0613 210.142 33.0613C210.8 33.0613 211.425 33.1928 212 33.4559C212.592 33.7189 213.069 34.0971 213.447 34.5739C213.825 35.0508 214.121 35.6263 214.335 36.3005C214.549 36.9746 214.664 37.698 214.664 38.4708C214.664 40.2959 214.203 41.71 213.315 42.713C212.411 43.716 211.326 44.2093 210.06 44.2093C208.794 44.2093 207.807 43.6831 207.1 42.6308V43.9626H207.083ZM207.067 38.5531C207.067 39.8356 207.248 40.7564 207.593 41.3154C208.169 42.2526 208.925 42.713 209.895 42.713C210.684 42.713 211.375 42.3677 211.95 41.6771C212.526 40.9865 212.822 39.9671 212.822 38.6188C212.822 37.2705 212.543 36.2018 212 35.5441C211.441 34.8864 210.783 34.5576 209.994 34.5576C209.205 34.5576 208.514 34.9028 207.938 35.5934C207.363 36.2839 207.083 37.2705 207.083 38.5694L207.067 38.5531Z" fill="#595757"/>
<path d="M224.135 40.5425L226.01 40.7727C225.714 41.858 225.171 42.7129 224.366 43.3049C223.576 43.9132 222.556 44.2093 221.307 44.2093C219.745 44.2093 218.512 43.7324 217.607 42.7623C216.686 41.8087 216.243 40.4603 216.243 38.7174C216.243 36.9745 216.703 35.5276 217.624 34.5411C218.545 33.5545 219.745 33.0612 221.225 33.0612C222.705 33.0612 223.807 33.5381 224.711 34.5246C225.615 35.4947 226.059 36.8594 226.059 38.6188C226.059 38.7174 226.059 38.8818 226.059 39.0956H218.117C218.183 40.263 218.512 41.1674 219.104 41.7922C219.696 42.417 220.436 42.7294 221.324 42.7294C221.981 42.7294 222.556 42.5485 223.017 42.2032C223.477 41.8579 223.856 41.2989 224.135 40.5425ZM218.216 37.6158H224.168C224.086 36.7115 223.855 36.0537 223.494 35.5933C222.918 34.9027 222.179 34.5575 221.258 34.5575C220.436 34.5575 219.729 34.837 219.17 35.396C218.611 35.9551 218.298 36.6951 218.233 37.6323L218.216 37.6158Z" fill="#595757"/>
<path d="M228.706 43.9626V34.7055H227.111V33.3079H228.706V32.1734C228.706 31.4499 228.772 30.9237 228.903 30.5784C229.084 30.118 229.38 29.7234 229.824 29.4439C230.268 29.1479 230.877 29 231.666 29C232.176 29 232.734 29.0657 233.359 29.1808L233.08 30.7593C232.702 30.6935 232.356 30.6606 232.011 30.6606C231.469 30.6606 231.074 30.7757 230.844 31.0059C230.614 31.2361 230.499 31.6801 230.499 32.3213V33.3079H232.57V34.7055H230.499V43.9626H228.706Z" fill="#595757"/>
<path d="M233.309 38.6352C233.309 36.6621 233.851 35.1988 234.953 34.2451C235.874 33.4559 236.992 33.0612 238.307 33.0612C239.771 33.0612 240.971 33.5381 241.908 34.5082C242.845 35.4618 243.306 36.7936 243.306 38.4872C243.306 39.8519 243.091 40.9372 242.68 41.7264C242.269 42.5157 241.678 43.124 240.888 43.5515C240.099 43.979 239.244 44.2093 238.307 44.2093C236.811 44.2093 235.61 43.7324 234.69 42.7788C233.769 41.8251 233.309 40.4439 233.309 38.6517V38.6352ZM235.166 38.6352C235.166 40 235.462 41.0194 236.054 41.6935C236.646 42.3677 237.403 42.7129 238.307 42.7129C239.212 42.7129 239.951 42.3677 240.543 41.6935C241.135 41.0029 241.431 39.967 241.431 38.5694C241.431 37.254 241.135 36.2511 240.527 35.577C239.935 34.9028 239.178 34.5575 238.29 34.5575C237.402 34.5575 236.647 34.9028 236.038 35.577C235.446 36.2511 235.15 37.2705 235.15 38.6352H235.166Z" fill="#595757"/>
<path d="M245.396 43.9626V33.3079H247.023V34.9192C247.434 34.1629 247.812 33.6696 248.174 33.423C248.519 33.1764 248.914 33.0612 249.342 33.0612C249.95 33.0612 250.575 33.2585 251.199 33.6367L250.575 35.3138C250.131 35.0508 249.687 34.9192 249.243 34.9192C248.848 34.9192 248.487 35.0343 248.174 35.2809C247.862 35.5276 247.631 35.84 247.5 36.2675C247.302 36.9088 247.204 37.6158 247.204 38.3721V43.9461H245.396V43.9626Z" fill="#595757"/>
<path d="M259.552 40.5425L261.409 40.7727C261.113 41.858 260.571 42.7129 259.765 43.3049C258.976 43.9132 257.957 44.2093 256.707 44.2093C255.145 44.2093 253.912 43.7324 253.007 42.7623C252.087 41.8087 251.643 40.4603 251.643 38.7174C251.643 36.9745 252.103 35.5276 253.023 34.5411C253.944 33.5545 255.145 33.0612 256.625 33.0612C258.105 33.0612 259.206 33.5381 260.11 34.5246C261.015 35.4947 261.459 36.8594 261.459 38.6188C261.459 38.7174 261.459 38.8818 261.459 39.0956H253.517C253.583 40.263 253.912 41.1674 254.504 41.7922C255.096 42.417 255.836 42.7294 256.74 42.7294C257.398 42.7294 257.973 42.5485 258.433 42.2032C258.91 41.8579 259.272 41.2989 259.552 40.5425ZM253.632 37.6158H259.584C259.502 36.7115 259.272 36.0537 258.894 35.5933C258.318 34.9027 257.578 34.5575 256.657 34.5575C255.835 34.5575 255.129 34.837 254.57 35.396C254.011 35.9551 253.698 36.6951 253.632 37.6323V37.6158Z" fill="#595757"/>
<path d="M271.062 43.9626H269.385V29.2466H271.194V34.4917C271.95 33.5381 272.936 33.0613 274.12 33.0613C274.778 33.0613 275.402 33.1928 275.978 33.4559C276.57 33.7189 277.047 34.0971 277.425 34.5739C277.804 35.0508 278.1 35.6263 278.313 36.3005C278.527 36.9746 278.642 37.698 278.642 38.4708C278.642 40.2959 278.182 41.71 277.294 42.713C276.389 43.716 275.304 44.2093 274.038 44.2093C272.772 44.2093 271.785 43.6831 271.078 42.6308V43.9626H271.062ZM271.045 38.5531C271.045 39.8356 271.226 40.7564 271.572 41.3154C272.147 42.2526 272.903 42.713 273.874 42.713C274.663 42.713 275.353 42.3677 275.929 41.6771C276.504 40.9865 276.8 39.9671 276.8 38.6188C276.8 37.2705 276.52 36.2018 275.978 35.5441C275.419 34.8864 274.762 34.5576 273.972 34.5576C273.183 34.5576 272.492 34.9028 271.917 35.5934C271.341 36.2839 271.062 37.2705 271.062 38.5694L271.045 38.5531Z" fill="#595757"/>
<path d="M280.154 38.6352C280.154 36.6621 280.697 35.1988 281.799 34.2451C282.719 33.4559 283.837 33.0612 285.153 33.0612C286.616 33.0612 287.816 33.5381 288.754 34.5082C289.691 35.4618 290.151 36.7936 290.151 38.4872C290.151 39.8519 289.938 40.9372 289.527 41.7264C289.116 42.5157 288.524 43.124 287.735 43.5515C286.946 43.979 286.09 44.2093 285.153 44.2093C283.657 44.2093 282.457 43.7324 281.536 42.7788C280.615 41.8251 280.154 40.4439 280.154 38.6517V38.6352ZM282.013 38.6352C282.013 40 282.309 41.0194 282.901 41.6935C283.493 42.3677 284.249 42.7129 285.153 42.7129C286.057 42.7129 286.798 42.3677 287.39 41.6935C287.982 41.0029 288.278 39.967 288.278 38.5694C288.278 37.254 287.981 36.2511 287.373 35.577C286.781 34.9028 286.025 34.5575 285.137 34.5575C284.249 34.5575 283.492 34.9028 282.884 35.577C282.292 36.2511 281.996 37.2705 281.996 38.6352H282.013Z" fill="#595757"/>
<path d="M299.227 42.6473C298.552 43.2227 297.911 43.6173 297.303 43.8475C296.678 44.0777 296.02 44.1929 295.313 44.1929C294.146 44.1929 293.241 43.9133 292.617 43.3378C291.992 42.7623 291.68 42.0388 291.68 41.1509C291.68 40.6248 291.794 40.1479 292.041 39.7204C292.271 39.2929 292.584 38.9476 292.979 38.6846C293.357 38.4215 293.801 38.2242 294.278 38.0927C294.639 37.994 295.166 37.9118 295.889 37.8132C297.352 37.6323 298.421 37.435 299.112 37.1883C299.112 36.9417 299.112 36.7773 299.112 36.7115C299.112 35.9716 298.947 35.4619 298.602 35.1495C298.142 34.7384 297.451 34.5411 296.547 34.5411C295.692 34.5411 295.067 34.689 294.672 34.985C294.261 35.281 293.965 35.8072 293.768 36.5635L292.008 36.3168C292.172 35.5605 292.436 34.9521 292.798 34.4917C293.16 34.0314 293.702 33.6697 294.393 33.423C295.083 33.1764 295.889 33.0448 296.81 33.0448C297.731 33.0448 298.454 33.1435 299.029 33.3737C299.605 33.5874 300.016 33.8505 300.279 34.1793C300.542 34.5082 300.739 34.9192 300.838 35.4125C300.904 35.7249 300.937 36.284 300.937 37.0732V39.4739C300.937 41.151 300.969 42.2198 301.051 42.6637C301.134 43.1077 301.282 43.5351 301.512 43.9462H299.622C299.441 43.568 299.309 43.1405 299.259 42.6308L299.227 42.6473ZM299.062 38.6188C298.404 38.8819 297.418 39.1121 296.119 39.3094C295.379 39.408 294.853 39.5396 294.54 39.6712C294.228 39.8027 293.998 40 293.834 40.2631C293.669 40.5262 293.587 40.8057 293.587 41.1181C293.587 41.5949 293.767 42.006 294.129 42.3184C294.491 42.6472 295.034 42.7952 295.724 42.7952C296.415 42.7952 297.04 42.6472 297.582 42.3348C298.125 42.0224 298.519 41.6114 298.783 41.0852C298.98 40.6741 299.079 40.0822 299.079 39.2766V38.6188H299.062Z" fill="#595757"/>
<path d="M303.684 43.9626V33.3079H305.312V34.9192C305.723 34.1629 306.101 33.6696 306.462 33.423C306.808 33.1764 307.202 33.0612 307.63 33.0612C308.238 33.0612 308.863 33.2585 309.488 33.6367L308.863 35.3138C308.419 35.0508 307.976 34.9192 307.532 34.9192C307.137 34.9192 306.775 35.0343 306.462 35.2809C306.15 35.5276 305.92 35.84 305.789 36.2675C305.591 36.9088 305.492 37.6158 305.492 38.3721V43.9461H303.684V43.9626Z" fill="#595757"/>
<path d="M317.462 43.9626V42.6143C316.788 43.6666 315.801 44.1928 314.486 44.1928C313.631 44.1928 312.857 43.9627 312.15 43.4858C311.443 43.0254 310.885 42.3677 310.49 41.5292C310.096 40.6906 309.898 39.7205 309.898 38.6353C309.898 37.5501 310.079 36.6128 310.424 35.7414C310.786 34.8699 311.313 34.2122 312.02 33.7518C312.727 33.2914 313.515 33.0613 314.403 33.0613C315.045 33.0613 315.62 33.1928 316.113 33.4723C316.607 33.7518 317.018 34.0972 317.33 34.5247V29.2466H319.122V43.9626H317.445H317.462ZM311.739 38.6517C311.739 40.0165 312.019 41.0359 312.594 41.71C313.17 42.3842 313.844 42.7294 314.634 42.7294C315.423 42.7294 316.097 42.4005 316.64 41.7593C317.199 41.118 317.462 40.1315 317.462 38.7997C317.462 37.3363 317.182 36.2675 316.623 35.5934C316.064 34.9192 315.374 34.5739 314.552 34.5739C313.73 34.5739 313.072 34.9028 312.545 35.5605C312.003 36.2182 311.739 37.2541 311.739 38.6682V38.6517Z" fill="#595757"/>
<path d="M321.984 31.3348V29.2631H323.792V31.3348H321.984ZM321.984 43.9626V33.3079H323.792V43.9626H321.984Z" fill="#595757"/>
<path d="M326.539 43.9626V33.3079H328.167V34.8206C328.956 33.6532 330.074 33.0612 331.554 33.0612C332.195 33.0612 332.787 33.1764 333.33 33.4065C333.872 33.6367 334.267 33.9327 334.546 34.3109C334.809 34.689 335.007 35.133 335.106 35.6427C335.172 35.9715 335.204 36.5635 335.204 37.4021V43.9626H333.396V37.4843C333.396 36.7443 333.329 36.2017 333.181 35.84C333.05 35.4783 332.787 35.1824 332.425 34.9686C332.063 34.7549 331.652 34.6397 331.159 34.6397C330.386 34.6397 329.729 34.8864 329.169 35.3797C328.61 35.8729 328.331 36.7936 328.331 38.1583V43.9791H326.522L326.539 43.9626Z" fill="#595757"/>
<path d="M337.637 44.8505L339.397 45.1136C339.463 45.6562 339.677 46.0508 340.006 46.2974C340.45 46.6263 341.074 46.8072 341.847 46.8072C342.685 46.8072 343.327 46.6427 343.787 46.2974C344.247 45.9686 344.544 45.4918 344.708 44.8999C344.807 44.5381 344.84 43.7653 344.84 42.5814C344.05 43.5186 343.064 43.9791 341.896 43.9791C340.433 43.9791 339.298 43.4529 338.492 42.4006C337.687 41.3483 337.292 40.0822 337.292 38.6024C337.292 37.5829 337.473 36.6458 337.852 35.7908C338.213 34.9358 338.755 34.2616 339.446 33.8012C340.137 33.3408 340.959 33.0942 341.912 33.0942C343.178 33.0942 344.215 33.6039 345.02 34.6233V33.3408H346.681V42.5486C346.681 44.2093 346.517 45.3767 346.172 46.0837C345.826 46.7743 345.3 47.3169 344.56 47.7279C343.82 48.1225 342.932 48.3363 341.847 48.3363C340.581 48.3363 339.545 48.0568 338.772 47.4813C337.983 46.9059 337.604 46.0508 337.637 44.8999V44.8505ZM339.134 38.4544C339.134 39.8521 339.414 40.8715 339.973 41.5127C340.532 42.154 341.222 42.4828 342.061 42.4828C342.9 42.4828 343.59 42.1704 344.149 41.5292C344.708 40.8879 344.987 39.8849 344.987 38.5202C344.987 37.1555 344.692 36.2347 344.116 35.577C343.541 34.9193 342.834 34.5904 342.028 34.5904C341.222 34.5904 340.548 34.9193 339.973 35.5605C339.414 36.2182 339.134 37.1883 339.134 38.4708V38.4544Z" fill="#595757"/>
<path d="M349.871 43.9626V41.9073H351.926V43.9626C351.926 44.719 351.794 45.3273 351.531 45.7877C351.268 46.2481 350.841 46.6099 350.249 46.873L349.739 46.1001C350.117 45.9357 350.397 45.689 350.577 45.3602C350.758 45.0313 350.857 44.571 350.874 43.9626H349.854H349.871ZM349.871 35.3632V33.3079H351.926V35.3632H349.871Z" fill="#595757"/>
<path d="M362.795 43.9626L359.539 33.3079H361.414L363.107 39.4574L363.732 41.7429C363.764 41.6278 363.946 40.8878 364.291 39.5396L365.984 33.2914H367.842L369.437 39.4738L369.963 41.5127L370.572 39.4574L372.397 33.2914H374.157L370.818 43.9461H368.944L367.25 37.5664L366.839 35.7578L364.685 43.9626H362.795Z" fill="#595757"/>
<path d="M382.625 42.6473C381.951 43.2227 381.31 43.6173 380.701 43.8475C380.076 44.0777 379.419 44.1929 378.712 44.1929C377.544 44.1929 376.64 43.9133 376.015 43.3378C375.39 42.7623 375.077 42.0388 375.077 41.1509C375.077 40.6248 375.193 40.1479 375.439 39.7204C375.669 39.2929 375.982 38.9476 376.376 38.6846C376.754 38.4215 377.198 38.2242 377.675 38.0927C378.037 37.994 378.563 37.9118 379.287 37.8132C380.75 37.6323 381.819 37.435 382.509 37.1883C382.509 36.9417 382.509 36.7773 382.509 36.7115C382.509 35.9716 382.345 35.4619 382 35.1495C381.54 34.7384 380.849 34.5411 379.945 34.5411C379.09 34.5411 378.465 34.689 378.07 34.985C377.659 35.281 377.363 35.8072 377.165 36.5635L375.406 36.3168C375.571 35.5605 375.834 34.9521 376.196 34.4917C376.557 34.0314 377.1 33.6697 377.791 33.423C378.481 33.1764 379.287 33.0448 380.207 33.0448C381.128 33.0448 381.852 33.1435 382.427 33.3737C383.003 33.5874 383.413 33.8505 383.677 34.1793C383.94 34.5082 384.137 34.9192 384.236 35.4125C384.302 35.7249 384.335 36.284 384.335 37.0732V39.4739C384.335 41.151 384.367 42.2198 384.45 42.6637C384.532 43.1077 384.68 43.5351 384.91 43.9462H383.019C382.838 43.568 382.707 43.1405 382.658 42.6308L382.625 42.6473ZM382.46 38.6188C381.803 38.8819 380.816 39.1121 379.517 39.3094C378.777 39.408 378.251 39.5396 377.939 39.6712C377.626 39.8027 377.396 40 377.231 40.2631C377.067 40.5262 376.985 40.8057 376.985 41.1181C376.985 41.5949 377.166 42.006 377.527 42.3184C377.889 42.6472 378.432 42.7952 379.123 42.7952C379.813 42.7952 380.438 42.6472 380.981 42.3348C381.523 42.0224 381.918 41.6114 382.181 41.0852C382.378 40.6741 382.476 40.0822 382.476 39.2766V38.6188H382.46Z" fill="#595757"/>
<path d="M387.046 43.9626V29.2466H388.855V43.9626H387.046Z" fill="#595757"/>
<path d="M391.668 43.9626V29.2466H393.477V37.6323L397.751 33.2915H400.087L396.008 37.2376L400.498 43.9462H398.261L394.743 38.5037L393.46 39.7369V43.9626H391.651H391.668Z" fill="#595757"/>
<path d="M32.5468 67.311C31.8727 67.8864 31.2316 68.281 30.6232 68.5112C29.9984 68.7414 29.3408 68.8565 28.6337 68.8565C27.4663 68.8565 26.5617 68.577 25.9369 68.0015C25.3121 67.426 25 66.7025 25 65.8146C25 65.2885 25.115 64.8116 25.3617 64.3841C25.5919 63.9566 25.904 63.6113 26.2986 63.3483C26.6768 63.0852 27.1208 62.8879 27.5976 62.7564C27.9594 62.6577 28.4855 62.5755 29.209 62.4769C30.6724 62.296 31.741 62.0987 32.4316 61.852C32.4316 61.6054 32.4316 61.441 32.4316 61.3752C32.4316 60.6353 32.2675 60.1256 31.9222 59.8132C31.4618 59.4021 30.7712 59.2048 29.8669 59.2048C29.0119 59.2048 28.3869 59.3527 27.9922 59.6487C27.5812 59.9447 27.2851 60.4709 27.0878 61.2272L25.3288 60.9805C25.4932 60.2242 25.7562 59.6158 26.118 59.1554C26.4797 58.6951 27.0223 58.3334 27.7128 58.0867C28.4034 57.8401 29.2091 57.7085 30.1298 57.7085C31.0506 57.7085 31.7743 57.8072 32.3497 58.0374C32.9252 58.2511 33.3363 58.5142 33.5994 58.843C33.8625 59.1719 34.0595 59.5829 34.1582 60.0762C34.2239 60.3886 34.2569 60.9477 34.2569 61.7369V64.1376C34.2569 65.8147 34.2899 66.8835 34.3721 67.3274C34.4543 67.7714 34.6024 68.1988 34.8326 68.6099H32.9414C32.7606 68.2317 32.6291 67.8042 32.5798 67.2945L32.5468 67.311ZM32.3991 63.2825C31.7414 63.5456 30.7548 63.7758 29.4558 63.9731C28.7159 64.0717 28.1898 64.2033 27.8774 64.3349C27.565 64.4664 27.3345 64.6637 27.1701 64.9268C27.0057 65.1898 26.9236 65.4694 26.9236 65.7818C26.9236 66.2586 27.1046 66.6697 27.4664 66.9821C27.8281 67.3109 28.3707 67.4589 29.0612 67.4589C29.7518 67.4589 30.3765 67.3109 30.9191 66.9985C31.4617 66.6861 31.8562 66.2751 32.1193 65.7489C32.3166 65.3378 32.4152 64.7459 32.4152 63.9403V63.2825H32.3991Z" fill="#595757"/>
<path d="M37.0029 68.6263V57.9717H38.6307V59.583C39.0418 58.8266 39.4203 58.3334 39.782 58.0868C40.1273 57.8401 40.5219 57.725 40.9494 57.725C41.5577 57.725 42.1824 57.9222 42.8072 58.3004L42.1826 59.9776C41.7386 59.7145 41.2946 59.583 40.8506 59.583C40.456 59.583 40.0944 59.698 39.782 59.9447C39.4696 60.1749 39.2392 60.5038 39.1076 60.9313C38.9103 61.5725 38.8118 62.2795 38.8118 63.0359V68.6099H37.0029V68.6263Z" fill="#595757"/>
<path d="M43.201 63.299C43.201 61.3259 43.7436 59.8626 44.8453 58.9089C45.7661 58.1196 46.8842 57.725 48.1996 57.725C49.663 57.725 50.8632 58.2018 51.784 59.1719C52.7212 60.1256 53.1817 61.4574 53.1817 63.151C53.1817 64.5157 52.9842 65.601 52.5567 66.3902C52.1456 67.1794 51.5375 67.7878 50.7647 68.2153C49.9755 68.6428 49.1204 68.873 48.1831 68.873C46.6869 68.873 45.4867 68.3962 44.5659 67.4425C43.6451 66.4889 43.1846 65.1077 43.1846 63.3155L43.201 63.299ZM45.0592 63.299C45.0592 64.6637 45.3553 65.6831 45.9472 66.3573C46.5391 67.0314 47.2953 67.3767 48.1996 67.3767C49.1039 67.3767 49.844 67.0314 50.436 66.3573C51.0279 65.6667 51.3235 64.6308 51.3235 63.2332C51.3235 61.9178 51.0279 60.9149 50.4195 60.2407C49.8276 59.5666 49.071 59.2213 48.1831 59.2213C47.2953 59.2213 46.5391 59.5666 45.9307 60.2407C45.3388 60.9149 45.0428 61.9343 45.0428 63.299H45.0592Z" fill="#595757"/>
<path d="M62.2923 68.6263V67.0643C61.4702 68.2646 60.3356 68.873 58.9051 68.873C58.2803 68.873 57.6882 68.7578 57.1456 68.5112C56.603 68.2646 56.192 67.9686 55.9289 67.6069C55.6658 67.2452 55.4852 66.8012 55.3701 66.2751C55.2879 65.9133 55.2549 65.3542 55.2549 64.5814V57.9716H57.0637V63.8909C57.0637 64.8281 57.0963 65.4694 57.1785 65.7983C57.2936 66.2751 57.5402 66.6533 57.9019 66.9163C58.2636 67.1794 58.7242 67.3274 59.2668 67.3274C59.8094 67.3274 60.319 67.1959 60.7958 66.9163C61.2726 66.6368 61.6016 66.2586 61.799 65.7818C61.9963 65.305 62.0948 64.6143 62.0948 63.6936V57.9881H63.9036V68.6428H62.2923V68.6263Z" fill="#595757"/>
<path d="M66.7313 68.6263V57.9717H68.3591V59.4843C69.1483 58.3169 70.2665 57.725 71.7463 57.725C72.3876 57.725 72.9793 57.8401 73.5219 58.0703C74.0645 58.3005 74.4595 58.5964 74.739 58.9746C75.0021 59.3528 75.1991 59.7967 75.2978 60.3065C75.3635 60.6353 75.3965 61.2272 75.3965 62.0658V68.6263H73.5877V62.148C73.5877 61.4081 73.5221 60.8655 73.3741 60.5038C73.2426 60.142 72.9796 59.8461 72.6178 59.6324C72.2561 59.4186 71.845 59.3035 71.3517 59.3035C70.5789 59.3035 69.9213 59.5501 69.3623 60.0434C68.8032 60.5367 68.5237 61.4574 68.5237 62.8221V68.6428H66.7148L66.7313 68.6263Z" fill="#595757"/>
<path d="M85.0798 68.6263V67.278C84.4056 68.3303 83.4029 68.8565 82.104 68.8565C81.249 68.8565 80.4759 68.6264 79.7524 68.1495C79.0454 67.6891 78.4863 67.0314 78.0917 66.1929C77.6971 65.3543 77.5 64.3842 77.5 63.299C77.5 62.2138 77.681 61.2765 78.0263 60.4051C78.3716 59.5336 78.9141 58.8759 79.6211 58.4155C80.3282 57.9551 81.1173 57.7249 82.0052 57.7249C82.6465 57.7249 83.222 57.8565 83.7153 58.136C84.225 58.4155 84.6196 58.7608 84.9485 59.1884V53.9103H86.7405V68.6263H85.0633H85.0798ZM79.3743 63.3154C79.3743 64.6802 79.6538 65.6996 80.2293 66.3737C80.8048 67.0479 81.4789 67.3931 82.2682 67.3931C83.0574 67.3931 83.7315 67.0642 84.2741 66.423C84.8167 65.7817 85.0962 64.7952 85.0962 63.4634C85.0962 62 84.8167 60.9312 84.2576 60.2571C83.6986 59.5829 83.008 59.2376 82.1859 59.2376C81.3637 59.2376 80.7061 59.5665 80.1799 60.2242C79.6373 60.8819 79.3743 61.9178 79.3743 63.3319V63.3154Z" fill="#595757"/>
<path d="M90.0629 68.6264V66.571H92.1182V68.6264C92.1182 69.3827 91.9867 69.9911 91.7236 70.4514C91.4605 70.9118 91.033 71.2736 90.4411 71.5367L89.9316 70.7639C90.3098 70.5994 90.5894 70.3528 90.7702 70.0239C90.9511 69.6951 91.0496 69.2347 91.0661 68.6264H90.0464H90.0629Z" fill="#595757"/>
<path d="M100.997 68.6263V57.9717H102.625V59.583C103.036 58.8266 103.414 58.3334 103.776 58.0868C104.121 57.8401 104.516 57.725 104.943 57.725C105.551 57.725 106.177 57.9222 106.801 58.3004L106.176 59.9776C105.732 59.7145 105.288 59.583 104.844 59.583C104.45 59.583 104.088 59.698 103.776 59.9447C103.463 60.1913 103.233 60.5038 103.102 60.9313C102.904 61.5725 102.806 62.2795 102.806 63.0359V68.6099H100.997V68.6263Z" fill="#595757"/>
<path d="M115.153 65.2063L117.011 65.4365C116.715 66.5217 116.173 67.3767 115.367 67.9686C114.578 68.577 113.558 68.873 112.309 68.873C110.747 68.873 109.513 68.3962 108.609 67.4261C107.688 66.4724 107.244 65.1241 107.244 63.3812C107.244 61.6383 107.705 60.1914 108.625 59.2048C109.546 58.2183 110.746 57.725 112.226 57.725C113.706 57.725 114.808 58.2018 115.712 59.1884C116.617 60.1585 117.061 61.5232 117.061 63.2825C117.061 63.3812 117.061 63.5456 117.061 63.7593H109.119C109.185 64.9268 109.513 65.8311 110.105 66.4559C110.697 67.0807 111.437 67.3932 112.341 67.3932C112.999 67.3932 113.575 67.2123 114.035 66.867C114.512 66.5217 114.874 65.9626 115.153 65.2063ZM109.218 62.2796H115.17C115.087 61.3752 114.857 60.7175 114.479 60.2571C113.904 59.5665 113.163 59.2213 112.243 59.2213C111.421 59.2213 110.714 59.5007 110.154 60.0598C109.595 60.6188 109.283 61.3588 109.218 62.296V62.2796Z" fill="#595757"/>
<path d="M118.574 65.453L120.367 65.1735C120.465 65.897 120.744 66.4396 121.205 66.8177C121.665 67.1959 122.307 67.3932 123.129 67.3932C123.951 67.3932 124.576 67.2288 124.97 66.8835C125.365 66.5382 125.579 66.1435 125.579 65.6996C125.579 65.2885 125.398 64.9761 125.052 64.7295C124.806 64.5651 124.181 64.3678 123.211 64.1211C121.879 63.7923 120.975 63.4963 120.448 63.2496C119.939 63.003 119.544 62.6742 119.281 62.2302C119.018 61.8027 118.887 61.3259 118.887 60.7997C118.887 60.3229 119.002 59.879 119.215 59.4844C119.429 59.0733 119.725 58.7445 120.103 58.4814C120.383 58.2676 120.761 58.1032 121.254 57.9552C121.731 57.8072 122.257 57.7415 122.817 57.7415C123.655 57.7415 124.378 57.8565 125.02 58.1031C125.644 58.3498 126.121 58.6622 126.417 59.0898C126.713 59.5008 126.927 60.0599 127.042 60.734L125.283 60.9806C125.201 60.438 124.97 60.0105 124.592 59.6981C124.214 59.3857 123.671 59.2377 122.964 59.2377C122.142 59.2377 121.55 59.3692 121.189 59.6487C120.827 59.9283 120.662 60.2407 120.662 60.6189C120.662 60.8491 120.728 61.0628 120.876 61.2437C121.024 61.441 121.254 61.6054 121.567 61.7205C121.748 61.7863 122.274 61.9343 123.162 62.1809C124.444 62.5262 125.332 62.8058 125.842 63.0195C126.351 63.2333 126.746 63.5456 127.025 63.9731C127.305 64.3842 127.453 64.9103 127.453 65.5187C127.453 66.1271 127.272 66.6862 126.927 67.2123C126.582 67.7385 126.072 68.1496 125.414 68.4455C124.756 68.7415 124 68.8894 123.162 68.8894C121.781 68.8894 120.728 68.61 119.988 68.0345C119.248 67.459 118.804 66.604 118.607 65.4694L118.574 65.453Z" fill="#595757"/>
<path d="M133.504 67.015L133.767 68.6099C133.257 68.7085 132.797 68.7744 132.402 68.7744C131.744 68.7744 131.235 68.6757 130.873 68.4619C130.511 68.2482 130.265 67.9851 130.117 67.6398C129.969 67.2945 129.903 66.5874 129.903 65.5022V59.3692H128.571V57.9716H129.903V55.3408L131.695 54.2556V57.9716H133.504V59.3692H131.695V65.6009C131.695 66.1106 131.728 66.4395 131.794 66.5875C131.86 66.7355 131.958 66.8505 132.106 66.9327C132.254 67.0149 132.451 67.0643 132.731 67.0643C132.928 67.0643 133.192 67.0479 133.52 66.9985L133.504 67.015Z" fill="#595757"/>
<path d="M134.605 63.299C134.605 61.3259 135.148 59.8626 136.25 58.9089C137.17 58.1196 138.289 57.725 139.604 57.725C141.067 57.725 142.268 58.2018 143.205 59.1719C144.142 60.1256 144.603 61.4574 144.603 63.151C144.603 64.5157 144.389 65.601 143.978 66.3902C143.567 67.1794 142.974 67.7878 142.185 68.2153C141.396 68.6428 140.541 68.873 139.604 68.873C138.108 68.873 136.908 68.3962 135.987 67.4425C135.066 66.4889 134.605 65.1077 134.605 63.3155V63.299ZM136.463 63.299C136.463 64.6637 136.759 65.6831 137.351 66.3573C137.943 67.0314 138.7 67.3767 139.604 67.3767C140.508 67.3767 141.248 67.0314 141.84 66.3573C142.432 65.6667 142.728 64.6308 142.728 63.2332C142.728 61.9178 142.432 60.9149 141.824 60.2407C141.232 59.5666 140.475 59.2213 139.588 59.2213C138.7 59.2213 137.943 59.5666 137.335 60.2407C136.743 60.9149 136.447 61.9343 136.447 63.299H136.463Z" fill="#595757"/>
<path d="M153.662 64.7295L155.437 64.9597C155.24 66.1765 154.747 67.1466 153.941 67.8372C153.136 68.5277 152.165 68.873 150.998 68.873C149.535 68.873 148.367 68.3962 147.479 67.4426C146.592 66.4889 146.147 65.1241 146.147 63.3483C146.147 62.1973 146.345 61.1944 146.723 60.3229C147.101 59.4679 147.676 58.8102 148.466 58.3827C149.239 57.9552 150.094 57.7415 151.014 57.7415C152.165 57.7415 153.119 58.0374 153.859 58.6129C154.599 59.2048 155.059 60.0269 155.273 61.1121L153.514 61.3753C153.349 60.6518 153.053 60.1256 152.626 59.7638C152.198 59.4021 151.689 59.2213 151.08 59.2213C150.176 59.2213 149.436 59.5501 148.86 60.2078C148.285 60.8655 148.005 61.885 148.005 63.299C148.005 64.7131 148.285 65.7653 148.827 66.423C149.37 67.0643 150.094 67.3932 150.981 67.3932C151.688 67.3932 152.281 67.1794 152.757 66.7354C153.234 66.3079 153.53 65.6338 153.662 64.7295Z" fill="#595757"/>
<path d="M157 68.6263V53.9103H158.809V62.296L163.084 57.9552H165.419L161.341 61.9013L165.83 68.6099H163.593L160.075 63.1674L158.792 64.4006V68.6263H156.983H157Z" fill="#595757"/>
<path d="M172.242 65.453L174.035 65.1735C174.133 65.897 174.413 66.4396 174.873 66.8177C175.334 67.1959 175.975 67.3932 176.797 67.3932C177.619 67.3932 178.244 67.2288 178.639 66.8835C179.033 66.5382 179.247 66.1435 179.247 65.6996C179.247 65.2885 179.066 64.9761 178.721 64.7295C178.474 64.5651 177.849 64.3678 176.879 64.1211C175.547 63.7923 174.643 63.4963 174.117 63.2496C173.607 63.003 173.213 62.6742 172.95 62.2302C172.686 61.8027 172.555 61.3259 172.555 60.7997C172.555 60.3229 172.67 59.879 172.884 59.4844C173.097 59.0733 173.393 58.7445 173.772 58.4814C174.051 58.2676 174.429 58.1032 174.923 57.9552C175.416 57.8072 175.925 57.7415 176.484 57.7415C177.323 57.7415 178.063 57.8565 178.688 58.1031C179.313 58.3498 179.789 58.6622 180.085 59.0898C180.381 59.5008 180.595 60.0599 180.71 60.734L178.951 60.9806C178.869 60.438 178.639 60.0105 178.26 59.6981C177.882 59.3857 177.34 59.2377 176.633 59.2377C175.81 59.2377 175.218 59.3692 174.857 59.6487C174.495 59.9283 174.33 60.2407 174.33 60.6189C174.33 60.8491 174.396 61.0628 174.544 61.2437C174.692 61.441 174.922 61.6054 175.235 61.7205C175.416 61.7863 175.942 61.9343 176.83 62.1809C178.112 62.5262 179 62.8058 179.51 63.0195C180.02 63.2333 180.414 63.5456 180.694 63.9731C180.973 64.3842 181.121 64.9103 181.121 65.5187C181.121 66.1271 180.94 66.6862 180.595 67.2123C180.25 67.7385 179.74 68.1496 179.083 68.4455C178.425 68.7415 177.668 68.8894 176.83 68.8894C175.449 68.8894 174.396 68.61 173.656 68.0345C172.917 67.459 172.472 66.604 172.275 65.4694L172.242 65.453Z" fill="#595757"/>
<path d="M190.23 68.6263V67.0643C189.408 68.2646 188.274 68.873 186.843 68.873C186.218 68.873 185.627 68.7578 185.084 68.5112C184.541 68.2646 184.13 67.9686 183.867 67.6069C183.604 67.2452 183.423 66.8012 183.308 66.2751C183.242 65.9133 183.193 65.3542 183.193 64.5814V57.9716H185.002V63.8909C185.002 64.8281 185.035 65.4694 185.117 65.7983C185.232 66.2751 185.479 66.6533 185.84 66.9163C186.202 67.1794 186.663 67.3274 187.205 67.3274C187.748 67.3274 188.258 67.1959 188.735 66.9163C189.212 66.6368 189.54 66.2586 189.737 65.7818C189.935 65.305 190.034 64.6143 190.034 63.6936V57.9881H191.842V68.6428H190.23V68.6263Z" fill="#595757"/>
<path d="M194.686 72.7205V57.9717H196.33V59.3528C196.725 58.8102 197.153 58.3991 197.646 58.136C198.14 57.873 198.732 57.725 199.422 57.725C200.327 57.725 201.132 57.9552 201.823 58.432C202.513 58.8924 203.04 59.5666 203.401 60.4216C203.763 61.2766 203.927 62.2137 203.927 63.2332C203.927 64.3184 203.73 65.305 203.335 66.1764C202.941 67.0479 202.382 67.722 201.625 68.1824C200.885 68.6428 200.096 68.873 199.274 68.873C198.665 68.873 198.14 68.7414 197.646 68.4948C197.153 68.2481 196.775 67.9194 196.462 67.5247V72.7205H194.653H194.686ZM196.314 63.3647C196.314 64.7295 196.594 65.749 197.153 66.4067C197.712 67.0644 198.386 67.3932 199.175 67.3932C199.964 67.3932 200.671 67.0479 201.23 66.3737C201.806 65.6996 202.085 64.6473 202.085 63.2168C202.085 61.7863 201.806 60.849 201.247 60.1584C200.688 59.4843 200.014 59.139 199.241 59.139C198.468 59.139 197.794 59.5008 197.202 60.2243C196.61 60.9477 196.314 61.9836 196.314 63.3647Z" fill="#595757"/>
<path d="M206.114 72.7205V57.9717H207.758V59.3528C208.153 58.8102 208.58 58.3991 209.073 58.136C209.567 57.873 210.159 57.725 210.849 57.725C211.754 57.725 212.559 57.9552 213.25 58.432C213.94 58.8924 214.466 59.5666 214.828 60.4216C215.19 61.2766 215.355 62.2137 215.355 63.2332C215.355 64.3184 215.157 65.305 214.762 66.1764C214.368 67.0479 213.809 67.722 213.053 68.1824C212.313 68.6428 211.524 68.873 210.701 68.873C210.093 68.873 209.567 68.7414 209.073 68.4948C208.58 68.2481 208.202 67.9194 207.89 67.5247V72.7205H206.081H206.114ZM207.741 63.3647C207.741 64.7295 208.021 65.749 208.58 66.4067C209.139 67.0644 209.813 67.3932 210.603 67.3932C211.392 67.3932 212.099 67.0479 212.658 66.3737C213.234 65.6996 213.513 64.6473 213.513 63.2168C213.513 61.7863 213.233 60.849 212.674 60.1584C212.115 59.4843 211.441 59.139 210.669 59.139C209.896 59.139 209.221 59.5008 208.629 60.2243C208.037 60.9477 207.741 61.9836 207.741 63.3647Z" fill="#595757"/>
<path d="M217.509 68.6263V53.9103H219.317V68.6263H217.509Z" fill="#595757"/>
<path d="M222.112 55.9985V53.9268H223.921V55.9985H222.112ZM222.112 68.6263V57.9716H223.921V68.6263H222.112Z" fill="#595757"/>
<path d="M233.967 65.2063L235.842 65.4365C235.546 66.5217 235.003 67.3767 234.198 67.9686C233.408 68.577 232.389 68.873 231.14 68.873C229.578 68.873 228.344 68.3962 227.44 67.4261C226.519 66.4724 226.075 65.1241 226.075 63.3812C226.075 61.6383 226.535 60.1914 227.456 59.2048C228.377 58.2183 229.577 57.725 231.057 57.725C232.537 57.725 233.639 58.2018 234.543 59.1884C235.447 60.1585 235.891 61.5232 235.891 63.2825C235.891 63.3812 235.891 63.5456 235.891 63.7593H227.949C228.015 64.9268 228.344 65.8311 228.936 66.4559C229.528 67.0807 230.268 67.3932 231.156 67.3932C231.813 67.3932 232.388 67.2123 232.849 66.867C233.309 66.5217 233.688 65.9626 233.967 65.2063ZM228.032 62.2796H233.984C233.902 61.3752 233.671 60.7175 233.293 60.2571C232.717 59.5665 231.978 59.2213 231.057 59.2213C230.235 59.2213 229.528 59.5007 228.969 60.0598C228.41 60.6188 228.098 61.3588 228.032 62.296V62.2796Z" fill="#595757"/>
<path d="M237.388 65.453L239.18 65.1735C239.278 65.897 239.558 66.4396 240.019 66.8177C240.479 67.1959 241.12 67.3932 241.942 67.3932C242.764 67.3932 243.389 67.2288 243.784 66.8835C244.179 66.5382 244.392 66.1435 244.392 65.6996C244.392 65.2885 244.211 64.9761 243.866 64.7295C243.619 64.5651 242.994 64.3678 242.024 64.1211C240.692 63.7923 239.789 63.4963 239.262 63.2496C238.753 63.003 238.358 62.6742 238.095 62.2302C237.832 61.8027 237.7 61.3259 237.7 60.7997C237.7 60.3229 237.815 59.879 238.029 59.4844C238.243 59.0733 238.539 58.7445 238.917 58.4814C239.197 58.2676 239.574 58.1032 240.068 57.9552C240.561 57.8072 241.071 57.7415 241.63 57.7415C242.469 57.7415 243.208 57.8565 243.833 58.1031C244.458 58.3498 244.935 58.6622 245.231 59.0898C245.527 59.5008 245.74 60.0599 245.855 60.734L244.096 60.9806C244.014 60.438 243.784 60.0105 243.406 59.6981C243.028 59.3857 242.485 59.2377 241.778 59.2377C240.956 59.2377 240.364 59.3692 240.002 59.6487C239.64 59.9283 239.476 60.2407 239.476 60.6189C239.476 60.8491 239.542 61.0628 239.689 61.2437C239.837 61.441 240.068 61.6054 240.38 61.7205C240.561 61.7863 241.087 61.9343 241.975 62.1809C243.258 62.5262 244.145 62.8058 244.655 63.0195C245.165 63.2333 245.56 63.5456 245.839 63.9731C246.119 64.3842 246.266 64.9103 246.266 65.5187C246.266 66.1271 246.086 66.6862 245.741 67.2123C245.395 67.7385 244.886 68.1496 244.228 68.4455C243.57 68.7415 242.814 68.8894 241.975 68.8894C240.594 68.8894 239.541 68.61 238.802 68.0345C238.062 67.459 237.618 66.604 237.421 65.4694L237.388 65.453Z" fill="#595757"/>
<path d="M247.021 64.0389V62.5755H267.575V64.0389H247.021Z" fill="#595757"/>
<path d="M272.87 67.015L273.133 68.6099C272.623 68.7085 272.163 68.7744 271.769 68.7744C271.111 68.7744 270.601 68.6757 270.239 68.4619C269.878 68.2482 269.631 67.9851 269.483 67.6398C269.335 67.2945 269.269 66.5874 269.269 65.5022V59.3692H267.938V57.9716H269.269V55.3408L271.061 54.2556V57.9716H272.87V59.3692H271.061V65.6009C271.061 66.1106 271.094 66.4395 271.16 66.5875C271.226 66.7355 271.324 66.8505 271.472 66.9327C271.62 67.0149 271.818 67.0643 272.097 67.0643C272.294 67.0643 272.557 67.0479 272.886 66.9985L272.87 67.015Z" fill="#595757"/>
<path d="M274.646 68.6263V53.9103H276.455V59.1884C277.293 58.2182 278.363 57.7249 279.645 57.7249C280.434 57.7249 281.125 57.873 281.7 58.1854C282.276 58.4978 282.703 58.9252 282.95 59.4678C283.196 60.0104 283.328 60.8161 283.328 61.852V68.6099H281.519V61.852C281.519 60.9477 281.322 60.29 280.927 59.8789C280.533 59.4678 279.99 59.2541 279.266 59.2541C278.724 59.2541 278.23 59.3856 277.754 59.6651C277.277 59.9447 276.948 60.3229 276.751 60.7997C276.553 61.2765 276.455 61.9342 276.455 62.7728V68.6099H274.646V68.6263Z" fill="#595757"/>
<path d="M293.374 65.2063L295.248 65.4365C294.952 66.5217 294.41 67.3767 293.604 67.9686C292.815 68.577 291.795 68.873 290.546 68.873C288.984 68.873 287.751 68.3962 286.846 67.4261C285.926 66.4724 285.481 65.1241 285.481 63.3812C285.481 61.6383 285.942 60.1914 286.862 59.2048C287.783 58.2183 288.983 57.725 290.463 57.725C291.943 57.725 293.045 58.2018 293.949 59.1884C294.854 60.1585 295.297 61.5232 295.297 63.2825C295.297 63.3812 295.297 63.5456 295.297 63.7593H287.356C287.422 64.9268 287.75 65.8311 288.342 66.4559C288.934 67.0807 289.674 67.3932 290.562 67.3932C291.22 67.3932 291.796 67.2123 292.256 66.867C292.716 66.5217 293.094 65.9626 293.374 65.2063ZM287.438 62.2796H293.39C293.308 61.3752 293.078 60.7175 292.7 60.2571C292.124 59.5665 291.384 59.2213 290.463 59.2213C289.641 59.2213 288.934 59.5007 288.375 60.0598C287.816 60.6188 287.504 61.3588 287.438 62.296V62.2796Z" fill="#595757"/>
<path d="M303.222 72.7205V57.9717H304.867V59.3528C305.261 58.8102 305.688 58.3991 306.182 58.136C306.675 57.873 307.267 57.725 307.958 57.725C308.862 57.725 309.668 57.9552 310.358 58.432C311.049 58.8924 311.575 59.5666 311.937 60.4216C312.298 61.2766 312.463 62.2137 312.463 63.2332C312.463 64.3184 312.265 65.305 311.871 66.1764C311.476 67.0479 310.917 67.722 310.161 68.1824C309.421 68.6428 308.632 68.873 307.81 68.873C307.202 68.873 306.675 68.7414 306.182 68.4948C305.688 68.2481 305.311 67.9194 304.998 67.5247V72.7205H303.189H303.222ZM304.85 63.3647C304.85 64.7295 305.13 65.749 305.689 66.4067C306.248 67.0644 306.922 67.3932 307.711 67.3932C308.5 67.3932 309.207 67.0479 309.766 66.3737C310.342 65.6996 310.621 64.6473 310.621 63.2168C310.621 61.7863 310.342 60.849 309.783 60.1584C309.223 59.4843 308.55 59.139 307.777 59.139C307.004 59.139 306.33 59.5008 305.738 60.2243C305.146 60.9477 304.85 61.9836 304.85 63.3647Z" fill="#595757"/>
<path d="M321.605 67.311C320.931 67.8864 320.29 68.281 319.682 68.5112C319.057 68.7414 318.399 68.8565 317.692 68.8565C316.525 68.8565 315.621 68.577 314.996 68.0015C314.372 67.426 314.059 66.7025 314.059 65.8146C314.059 65.2885 314.174 64.8116 314.421 64.3841C314.651 63.9566 314.963 63.6113 315.358 63.3483C315.736 63.0852 316.18 62.8879 316.657 62.7564C317.018 62.6577 317.544 62.5755 318.268 62.4769C319.731 62.296 320.8 62.0987 321.491 61.852C321.491 61.6054 321.491 61.441 321.491 61.3752C321.491 60.6353 321.326 60.1256 320.981 59.8132C320.52 59.4021 319.83 59.2048 318.926 59.2048C318.07 59.2048 317.446 59.3527 317.052 59.6487C316.641 59.9447 316.344 60.4709 316.147 61.2272L314.388 60.9805C314.552 60.2242 314.815 59.6158 315.177 59.1554C315.539 58.6951 316.081 58.3334 316.771 58.0867C317.462 57.8401 318.268 57.7085 319.189 57.7085C320.11 57.7085 320.833 57.8072 321.409 58.0374C321.984 58.2511 322.395 58.5142 322.658 58.843C322.921 59.1719 323.119 59.5829 323.218 60.0762C323.283 60.3886 323.316 60.9477 323.316 61.7369V64.1376C323.316 65.8147 323.349 66.8835 323.431 67.3274C323.513 67.7714 323.661 68.1988 323.891 68.6099H322C321.82 68.2317 321.688 67.8042 321.638 67.2945L321.605 67.311ZM321.458 63.2825C320.8 63.5456 319.813 63.7758 318.514 63.9731C317.775 64.0717 317.248 64.2033 316.936 64.3349C316.624 64.4664 316.394 64.6637 316.23 64.9268C316.065 65.1898 315.982 65.4694 315.982 65.7818C315.982 66.2586 316.163 66.6697 316.525 66.9821C316.887 67.3109 317.43 67.4589 318.12 67.4589C318.811 67.4589 319.435 67.3109 319.978 66.9985C320.521 66.6861 320.915 66.2751 321.178 65.7489C321.376 65.3378 321.475 64.7459 321.475 63.9403V63.2825H321.458Z" fill="#595757"/>
<path d="M333.032 64.7295L334.808 64.9597C334.611 66.1765 334.118 67.1466 333.312 67.8372C332.506 68.5277 331.536 68.873 330.369 68.873C328.905 68.873 327.738 68.3962 326.85 67.4426C325.963 66.4889 325.519 65.1241 325.519 63.3483C325.519 62.1973 325.716 61.1944 326.094 60.3229C326.472 59.4679 327.047 58.8102 327.836 58.3827C328.609 57.9552 329.465 57.7415 330.385 57.7415C331.536 57.7415 332.49 58.0374 333.23 58.6129C333.97 59.2048 334.43 60.0269 334.644 61.1121L332.885 61.3753C332.72 60.6518 332.424 60.1256 331.997 59.7638C331.569 59.4021 331.06 59.2213 330.451 59.2213C329.547 59.2213 328.807 59.5501 328.231 60.2078C327.656 60.8655 327.376 61.885 327.376 63.299C327.376 64.7131 327.656 65.7653 328.198 66.423C328.741 67.0643 329.465 67.3932 330.353 67.3932C331.06 67.3932 331.652 67.1794 332.128 66.7354C332.605 66.3079 332.901 65.6338 333.032 64.7295Z" fill="#595757"/>
<path d="M343.655 65.2063L345.529 65.4365C345.233 66.5217 344.691 67.3767 343.885 67.9686C343.096 68.577 342.077 68.873 340.827 68.873C339.265 68.873 338.032 68.3962 337.128 67.4261C336.207 66.4724 335.763 65.1241 335.763 63.3812C335.763 61.6383 336.223 60.1914 337.144 59.2048C338.064 58.2183 339.265 57.725 340.744 57.725C342.224 57.725 343.326 58.2018 344.23 59.1884C345.135 60.1585 345.578 61.5232 345.578 63.2825C345.578 63.3812 345.578 63.5456 345.578 63.7593H337.637C337.702 64.9268 338.031 65.8311 338.623 66.4559C339.215 67.0807 339.955 67.3932 340.843 67.3932C341.501 67.3932 342.077 67.2123 342.537 66.867C342.998 66.5217 343.375 65.9626 343.655 65.2063ZM337.719 62.2796H343.672C343.589 61.3752 343.359 60.7175 342.98 60.2571C342.405 59.5665 341.665 59.2213 340.744 59.2213C339.922 59.2213 339.215 59.5007 338.656 60.0598C338.097 60.6188 337.785 61.3588 337.719 62.296V62.2796Z" fill="#595757"/>
<path d="M353.505 55.9985V53.9268H355.313V55.9985H353.505ZM353.505 68.6263V57.9716H355.313V68.6263H353.505Z" fill="#595757"/>
<path d="M357.336 65.453L359.128 65.1735C359.227 65.897 359.506 66.4396 359.966 66.8177C360.426 67.1959 361.068 67.3932 361.89 67.3932C362.712 67.3932 363.337 67.2288 363.731 66.8835C364.126 66.5382 364.34 66.1435 364.34 65.6996C364.34 65.2885 364.159 64.9761 363.814 64.7295C363.568 64.5651 362.943 64.3678 361.972 64.1211C360.641 63.7923 359.736 63.4963 359.21 63.2496C358.7 63.003 358.306 62.6742 358.042 62.2302C357.779 61.8027 357.648 61.3259 357.648 60.7997C357.648 60.3229 357.763 59.879 357.977 59.4844C358.19 59.0733 358.486 58.7445 358.865 58.4814C359.144 58.2676 359.523 58.1032 360.016 57.9552C360.509 57.8072 361.018 57.7415 361.577 57.7415C362.416 57.7415 363.14 57.8565 363.781 58.1031C364.406 58.3498 364.882 58.6622 365.178 59.0898C365.474 59.5008 365.689 60.0599 365.804 60.734L364.044 60.9806C363.962 60.438 363.732 60.0105 363.353 59.6981C362.975 59.3857 362.433 59.2377 361.726 59.2377C360.904 59.2377 360.312 59.3692 359.95 59.6487C359.588 59.9283 359.423 60.2407 359.423 60.6189C359.423 60.8491 359.49 61.0628 359.638 61.2437C359.786 61.441 360.016 61.6054 360.328 61.7205C360.509 61.7863 361.035 61.9343 361.923 62.1809C363.205 62.5262 364.094 62.8058 364.603 63.0195C365.113 63.2333 365.507 63.5456 365.787 63.9731C366.066 64.3842 366.215 64.9103 366.215 65.5187C366.215 66.1271 366.033 66.6862 365.688 67.2123C365.343 67.7385 364.833 68.1496 364.175 68.4455C363.518 68.7415 362.761 68.8894 361.923 68.8894C360.541 68.8894 359.49 68.61 358.75 68.0345C358.01 67.459 357.565 66.604 357.368 65.4694L357.336 65.453Z" fill="#595757"/>
<path d="M371.755 72.7699L372.101 71.2407C372.463 71.3394 372.742 71.3886 372.956 71.3886C373.318 71.3886 373.597 71.2736 373.778 71.027C373.959 70.7803 374.041 70.1719 374.041 69.2018V58.0044H375.849V69.2511C375.849 70.5665 375.685 71.4709 375.34 71.997C374.912 72.6712 374.189 73 373.17 73C372.676 73 372.215 72.9342 371.755 72.8027V72.7699ZM374.041 56.015V53.9103H375.849V56.015H374.041Z" fill="#595757"/>
<path d="M385.599 68.6263V67.0643C384.777 68.2646 383.643 68.873 382.212 68.873C381.587 68.873 380.995 68.7578 380.452 68.5112C379.91 68.2646 379.499 67.9686 379.236 67.6069C378.973 67.2452 378.792 66.8012 378.677 66.2751C378.611 65.9133 378.562 65.3542 378.562 64.5814V57.9716H380.37V63.8909C380.37 64.8281 380.403 65.4694 380.485 65.7983C380.6 66.2751 380.847 66.6533 381.209 66.9163C381.57 67.1794 382.031 67.3274 382.573 67.3274C383.116 67.3274 383.626 67.1959 384.103 66.9163C384.58 66.6368 384.908 66.2586 385.106 65.7818C385.303 65.305 385.402 64.6143 385.402 63.6936V57.9881H387.211V68.6428H385.599V68.6263Z" fill="#595757"/>
<path d="M389.333 65.453L391.125 65.1735C391.224 65.897 391.503 66.4396 391.963 66.8177C392.424 67.1959 393.065 67.3932 393.888 67.3932C394.71 67.3932 395.334 67.2288 395.729 66.8835C396.123 66.5382 396.337 66.1435 396.337 65.6996C396.337 65.2885 396.157 64.9761 395.811 64.7295C395.565 64.5651 394.94 64.3678 393.969 64.1211C392.638 63.7923 391.733 63.4963 391.207 63.2496C390.697 63.003 390.303 62.6742 390.04 62.2302C389.776 61.8027 389.645 61.3259 389.645 60.7997C389.645 60.3229 389.76 59.879 389.974 59.4844C390.187 59.0733 390.483 58.7445 390.862 58.4814C391.141 58.2676 391.52 58.1032 392.013 57.9552C392.506 57.8072 393.015 57.7415 393.574 57.7415C394.413 57.7415 395.154 57.8565 395.778 58.1031C396.403 58.3498 396.88 58.6622 397.176 59.0898C397.472 59.5008 397.686 60.0599 397.801 60.734L396.041 60.9806C395.959 60.438 395.729 60.0105 395.35 59.6981C394.972 59.3857 394.43 59.2377 393.723 59.2377C392.901 59.2377 392.309 59.3692 391.947 59.6487C391.585 59.9283 391.421 60.2407 391.421 60.6189C391.421 60.8491 391.487 61.0628 391.635 61.2437C391.783 61.441 392.013 61.6054 392.325 61.7205C392.506 61.7863 393.033 61.9343 393.921 62.1809C395.203 62.5262 396.091 62.8058 396.6 63.0195C397.11 63.2333 397.504 63.5456 397.784 63.9731C398.063 64.3842 398.212 64.9103 398.212 65.5187C398.212 66.1271 398.03 66.6862 397.685 67.2123C397.34 67.7385 396.83 68.1496 396.173 68.4455C395.515 68.7415 394.759 68.8894 393.921 68.8894C392.539 68.8894 391.487 68.61 390.747 68.0345C390.007 67.459 389.563 66.604 389.366 65.4694L389.333 65.453Z" fill="#595757"/>
<path d="M404.263 67.015L404.526 68.6099C404.016 68.7085 403.556 68.7744 403.161 68.7744C402.504 68.7744 401.994 68.6757 401.633 68.4619C401.271 68.2482 401.024 67.9851 400.876 67.6398C400.728 67.2945 400.662 66.5874 400.662 65.5022V59.3692H399.33V57.9716H400.662V55.3408L402.455 54.2556V57.9716H404.263V59.3692H402.455V65.6009C402.455 66.1106 402.488 66.4395 402.554 66.5875C402.619 66.7355 402.718 66.8505 402.866 66.9327C403.014 67.0149 403.211 67.0643 403.49 67.0643C403.688 67.0643 403.951 67.0479 404.28 66.9985L404.263 67.015Z" fill="#595757"/>
<path d="M411.726 68.6263V57.9717H413.354V59.583C413.765 58.8266 414.143 58.3334 414.505 58.0868C414.85 57.8401 415.245 57.725 415.656 57.725C416.264 57.725 416.889 57.9222 417.514 58.3004L416.889 59.9776C416.445 59.7145 416.001 59.583 415.557 59.583C415.163 59.583 414.801 59.698 414.489 59.9447C414.176 60.1913 413.946 60.5038 413.814 60.9313C413.617 61.5725 413.519 62.2795 413.519 63.0359V68.6099H411.71L411.726 68.6263Z" fill="#595757"/>
<path d="M418.6 55.9985V53.9268H420.408V55.9985H418.6ZM418.6 68.6263V57.9716H420.408V68.6263H418.6Z" fill="#595757"/>
<path d="M422.826 69.5142L424.586 69.7773C424.651 70.3199 424.864 70.7145 425.193 70.9611C425.637 71.29 426.262 71.4708 427.035 71.4708C427.874 71.4708 428.515 71.3064 428.976 70.9611C429.436 70.6323 429.732 70.1555 429.896 69.5636C429.995 69.2018 430.028 68.429 430.028 67.2451C429.239 68.1823 428.252 68.6428 427.085 68.6428C425.621 68.6428 424.486 68.1166 423.681 67.0643C422.875 66.012 422.48 64.7459 422.48 63.2661C422.48 62.2466 422.662 61.3095 423.04 60.4545C423.402 59.5995 423.944 58.9253 424.635 58.4649C425.325 58.0045 426.147 57.7579 427.101 57.7579C428.367 57.7579 429.403 58.2676 430.209 59.287V58.0045H431.869V67.2123C431.869 68.873 431.705 70.0403 431.359 70.7474C431.014 71.438 430.488 71.9806 429.748 72.3916C429.008 72.7862 428.12 73 427.035 73C425.769 73 424.733 72.7205 423.96 72.145C423.171 71.5696 422.793 70.7145 422.826 69.5636V69.5142ZM424.322 63.1181C424.322 64.5157 424.602 65.5352 425.161 66.1764C425.72 66.8177 426.41 67.1465 427.249 67.1465C428.087 67.1465 428.778 66.8341 429.337 66.1929C429.896 65.5516 430.176 64.5486 430.176 63.1839C430.176 61.8191 429.879 60.8984 429.304 60.2407C428.728 59.583 428.022 59.2541 427.217 59.2541C426.411 59.2541 425.737 59.583 425.161 60.2242C424.602 60.8819 424.322 61.852 424.322 63.1345V63.1181Z" fill="#595757"/>
<path d="M434.582 68.6263V53.9103H436.39V59.1884C437.229 58.2182 438.297 57.7249 439.58 57.7249C440.369 57.7249 441.06 57.873 441.635 58.1854C442.211 58.4978 442.639 58.9252 442.885 59.4678C443.132 60.0104 443.263 60.8161 443.263 61.852V68.6099H441.454V61.852C441.454 60.9477 441.257 60.29 440.863 59.8789C440.468 59.4678 439.925 59.2541 439.202 59.2541C438.659 59.2541 438.166 59.3856 437.689 59.6651C437.212 59.9447 436.884 60.3229 436.686 60.7997C436.489 61.2765 436.39 61.9342 436.39 62.7728V68.6099H434.582V68.6263Z" fill="#595757"/>
<path d="M449.954 67.015L450.218 68.6099C449.708 68.7085 449.247 68.7744 448.853 68.7744C448.195 68.7744 447.686 68.6757 447.324 68.4619C446.962 68.2482 446.715 67.9851 446.567 67.6398C446.419 67.2945 446.353 66.5874 446.353 65.5022V59.3692H445.021V57.9716H446.353V55.3408L448.146 54.2556V57.9716H449.954V59.3692H448.146V65.6009C448.146 66.1106 448.178 66.4395 448.244 66.5875C448.31 66.7355 448.409 66.8505 448.557 66.9327C448.705 67.0149 448.902 67.0643 449.182 67.0643C449.379 67.0643 449.642 67.0479 449.971 66.9985L449.954 67.015Z" fill="#595757"/>
<path d="M452.241 68.6264V66.571H454.297V68.6264H452.241Z" fill="#595757"/>
<defs>
<linearGradient id="paint0_linear_86_166473" x1="239.992" y1="222.453" x2="239.992" y2="390.71" gradientUnits="userSpaceOnUse">
<stop stop-color="white"/>
<stop offset="1" stop-color="white" stop-opacity="0.6"/>
</linearGradient>
<linearGradient id="paint1_linear_86_166473" x1="111.176" y1="48.2761" x2="-98.1105" y2="435.304" gradientUnits="userSpaceOnUse">
<stop stop-color="white"/>
<stop offset="0.1" stop-color="#F1F1F1"/>
<stop offset="0.29" stop-color="#CDCDCD"/>
<stop offset="0.55" stop-color="#939292"/>
<stop offset="0.87" stop-color="#444243"/>
<stop offset="1" stop-color="#221F20"/>
</linearGradient>
<linearGradient id="paint2_linear_86_166473" x1="251.109" y1="64.9004" x2="60.0361" y2="418.252" gradientUnits="userSpaceOnUse">
<stop stop-color="white"/>
<stop offset="0.1" stop-color="#F1F1F1"/>
<stop offset="0.29" stop-color="#CDCDCD"/>
<stop offset="0.55" stop-color="#939292"/>
<stop offset="0.87" stop-color="#444243"/>
<stop offset="1" stop-color="#221F20"/>
</linearGradient>
<linearGradient id="paint3_linear_86_166473" x1="119.408" y1="63.3529" x2="119.408" y2="246.561" gradientUnits="userSpaceOnUse">
<stop stop-color="white"/>
<stop offset="0.27" stop-color="#F4BD7B"/>
<stop offset="1" stop-color="#040000"/>
</linearGradient>
</defs>
</svg>
