<svg width="480" height="454" viewBox="0 0 480 454" fill="none" xmlns="http://www.w3.org/2000/svg">
<path opacity="0.8" d="M436.87 0H43.1304C19.3101 0 0 19.2976 0 43.1024V410.898C0 434.702 19.3101 454 43.1304 454H436.87C460.69 454 480 434.702 480 410.898V43.1024C480 19.2976 460.69 0 436.87 0Z" fill="url(#paint0_linear_20_204365)"/>
<path d="M57.0697 31.3143V33.6405H50.0913V31.3143H57.0697ZM56.492 46.6851H52.7367V47.4453H50.5018V40.2084H56.492V46.6851ZM56.1575 37.3045V39.5547H50.593V37.3045H56.1575ZM56.2335 34.3854V35.1456C56.8264 34.5983 57.2977 33.9901 57.6626 33.3972C58.1035 32.7131 58.4684 32.0137 58.7421 31.3143L59.8063 31.5728V31.1471H56.9937V29.1402H59.8063V28.228H62.0565V31.9833H60.7338C60.673 32.1961 60.6121 32.3634 60.5361 32.5002H62.9991C63.1511 32.1809 63.2727 31.8465 63.3639 31.4968L64.0481 31.6488V28.2432H66.283V29.0794H68.8524V31.0863H66.283V31.8313H64.8387L65.6293 31.9985C65.5381 32.2114 65.4316 32.3786 65.3556 32.5154H68.9589V34.3246H65.0363V34.8416H68.4571V36.4987H65.0363V36.9853H68.3811V38.6728H65.0363V39.1594H69.2173V40.9838H57.8299V36.666C57.7387 36.7724 57.6626 36.8636 57.5714 36.9244L56.2335 35.4953V36.666H50.669V34.4159H56.2335V34.3854ZM56.1575 28.5625V30.7214H50.9123V28.5625H56.1575ZM54.2571 44.5414V42.3673H52.7519V44.5414H54.2571ZM68.6396 41.4551V42.8842C67.9554 43.7204 67.1648 44.4198 66.283 44.9671C67.1952 45.18 68.2443 45.332 69.415 45.4536L68.5636 47.4605C66.7391 47.1868 65.0971 46.7611 63.6072 46.1986C62.0108 46.7459 60.2016 47.1716 58.1795 47.4605L57.1001 45.3776C58.5444 45.256 59.8215 45.0735 60.9618 44.8303C60.2624 44.359 59.6391 43.8572 59.107 43.2947H58.0275V41.4703H68.67L68.6396 41.4551ZM62.9079 34.2942H59.9888V34.8111H62.9079V34.2942ZM62.9079 36.4684H59.9888V36.9548H62.9079V36.4684ZM62.9079 38.6424H59.9888V39.129H62.9079V38.6424ZM63.4552 44.1309C64.2001 43.8724 64.8387 43.5988 65.3708 43.2795H61.6612C62.1781 43.5988 62.771 43.8724 63.4552 44.1309Z" fill="#595757"/>
<path d="M75.0249 43.6291C74.6144 45.1191 74.1735 46.3505 73.7022 47.3844L71.3608 46.1225C71.893 45.0126 72.3186 43.9027 72.6227 42.7929L75.0249 43.6291ZM78.8714 41.3638H74.2951V42.124H72.0602V28.6384H78.8714V41.3486V41.3638ZM76.6061 33.8989V30.8126H74.2799V33.8989H76.6061ZM76.6061 39.2201V36.0426H74.2799V39.2201H76.6061ZM80.2701 46.1985L77.7767 47.2779C77.4118 45.9552 76.9709 44.815 76.454 43.7812L78.6889 42.7777C79.3123 43.8268 79.8444 44.9518 80.2701 46.1833V46.1985ZM90.0004 28.7449C90.0004 32.4241 89.7267 34.4462 89.2097 34.811C88.784 35.252 88.0391 35.4648 87.0204 35.4648C86.4427 35.4648 85.789 35.3736 85.0136 35.2064L84.4967 32.8802C85.3633 33.1083 86.1082 33.2147 86.7468 33.2147C87.0052 33.2147 87.1725 33.1539 87.2789 33.0019C87.4005 32.8346 87.507 32.1504 87.583 30.9646H84.3598C84.2382 32.4089 83.8885 33.3972 83.3412 33.8989C82.6875 34.5374 81.7448 35.0847 80.5133 35.5408L79.1755 33.458C80.0877 33.1843 80.787 32.8346 81.3039 32.4089C81.6384 32.1353 81.8512 31.6487 81.9881 30.9646H79.7684V28.7296H89.9851L90.0004 28.7449ZM89.6051 35.7233V42.1392H79.7836V35.7233H89.6051ZM85.3633 46.1985L82.8547 47.2779C82.4746 45.94 82.0033 44.7694 81.456 43.7051L83.6909 42.7017C84.3446 43.7659 84.9072 44.9366 85.3785 46.1985H85.3633ZM87.2485 39.8738V37.9582H82.0945V39.8738H87.2485ZM90.5173 46.1225L87.8567 47.3844C87.4462 46.0617 86.914 44.8302 86.2755 43.6291L88.6777 42.4585C89.4074 43.5683 90.0003 44.7998 90.5021 46.1225H90.5173Z" fill="#595757"/>
<path d="M103.471 40.8776C102.574 39.266 101.145 37.7305 99.2139 36.2709L100.856 34.8418C102.68 36.2101 104.155 37.7001 105.265 39.3572L103.471 40.8624V40.8776Z" fill="#595757"/>
<path d="M119.86 29.2315C119.374 30.0981 118.735 30.9951 117.944 31.8921C116.865 33.002 115.968 33.7925 115.284 34.2334L113.703 32.1505C114.432 31.6336 115.193 30.9799 115.998 30.1741C116.698 29.4443 117.26 28.7298 117.686 28L119.86 29.2315ZM121.259 33.8078C120.666 34.9176 119.875 36.0426 118.857 37.1981V47.4605H116.424V39.4786C116.09 39.7523 115.785 39.9651 115.527 40.1324L113.839 37.9583C114.797 37.3045 115.801 36.4531 116.865 35.3889C117.808 34.4463 118.522 33.4885 119.085 32.5611L121.259 33.8229V33.8078ZM133.163 34.4615V36.8941H129.073V44.3742C129.073 45.6056 128.815 46.4115 128.344 46.7763C127.827 47.2172 126.945 47.4605 125.653 47.4605C124.634 47.4605 123.691 47.3693 122.825 47.202L122.414 44.6174C123.478 44.8911 124.558 45.0279 125.653 45.0279C126.246 45.0279 126.565 44.6935 126.565 43.9637V36.8941H121.076V34.4615H133.148H133.163ZM132.175 28.9122V31.2384H122.186V28.9122H132.175Z" fill="#595757"/>
<path d="M143.471 30.0526C142.62 30.4631 141.723 30.8128 140.811 31.1321V33.9599H143.395V36.286H140.811V36.4381C141.92 37.4415 142.893 38.4145 143.73 39.3723L142.225 41.44C141.753 40.7103 141.282 40.0565 140.826 39.4636V47.3694H138.424V40.3606C137.846 41.5161 137.192 42.5803 136.417 43.5381L135.018 41.7897C135.657 41.06 136.341 40.0261 137.055 38.6882C137.481 37.928 137.861 37.1374 138.18 36.3012H135.505V33.9751H138.424V31.9075C137.785 32.1051 137.147 32.2723 136.508 32.3939L135.337 30.2198C137.572 29.7941 139.838 29.0948 142.088 28.137L143.486 30.0526H143.471ZM154.114 38.1257C152.837 38.3233 151.499 38.4906 150.13 38.6578V40.619H153.779V42.8692H150.13V44.876H154.281V47.111H143.03V44.876H147.698V42.8692H143.806V40.619H147.698V38.9162C146.527 39.0379 145.341 39.1291 144.125 39.2203L143.289 36.9702C146.801 36.7573 150.039 36.4229 153.019 35.9972L154.098 38.1561L154.114 38.1257ZM153.779 28.5627V35.2978H143.897V28.5627H153.779ZM151.362 33.0629V30.8128H146.299V33.0629H151.362Z" fill="#595757"/>
<path d="M167.326 40.8776C166.429 39.266 165 37.7305 163.069 36.2709L164.711 34.8418C166.535 36.2101 168.01 37.7001 169.12 39.3572L167.326 40.8624V40.8776Z" fill="#595757"/>
<path d="M182.453 32.3939C181.936 33.367 181.389 34.2488 180.796 34.9633C181.009 35.1306 181.222 35.2826 181.434 35.4346C181.845 34.8417 182.195 34.2183 182.544 33.6254L184.369 34.7049C183.426 36.1492 182.499 37.3807 181.556 38.4146C181.921 38.3689 182.286 38.3233 182.635 38.2625C182.575 38.004 182.514 37.776 182.438 37.5327L184.095 37.0158C184.217 37.3503 184.323 37.7152 184.429 38.0801V32.8652H185.767C185.889 32.3179 185.995 31.7554 186.087 31.2081L188.17 31.6186C188.063 32.0899 187.957 32.4852 187.835 32.8805H190.237V35.1002L190.754 34.4616C190.876 34.5528 190.982 34.6288 191.073 34.7201C191.758 33.8687 192.351 32.9565 192.822 31.9682L194.661 32.8805C193.962 34.1423 193.232 35.1306 192.487 35.8603C192.685 36.058 192.867 36.2252 193.035 36.3925C193.795 35.4802 194.479 34.5224 195.072 33.5342L196.82 34.5376C196.136 35.5107 195.482 36.4077 194.844 37.1831L196.167 36.803C196.592 37.8064 196.912 38.9162 197.14 40.1325L195.33 40.7102C195.285 40.543 195.27 40.3758 195.239 40.1933C193.734 40.5734 192.001 40.7711 190.07 40.7863L189.979 40.2998H184.414V40.0869L182.985 40.5278C182.97 40.3606 182.94 40.1933 182.924 40.0109C181.526 40.391 179.944 40.5887 178.181 40.6039L177.846 38.6274C178.15 38.6274 178.47 38.6274 178.759 38.6122C179.245 38.1256 179.716 37.6087 180.142 37.107C179.336 36.4533 178.485 35.8755 177.588 35.389L178.85 33.8079C178.956 33.8687 179.063 33.9295 179.169 34.0055C179.686 33.2453 180.112 32.5003 180.431 31.725L182.438 32.4091L182.453 32.3939ZM186.041 41.3032V40.619H188.367V41.3032H196.44V43.1276H191.058C191.499 43.3405 191.97 43.5077 192.442 43.6597C193.719 44.131 195.254 44.496 197.048 44.7848L195.878 47.0197C194.069 46.5332 192.381 45.8947 190.845 45.0889C189.948 44.648 189.127 44.1311 188.382 43.5837V47.3694H186.056V43.8574C185.403 44.3439 184.718 44.7696 183.989 45.1497C181.982 46.0923 180.264 46.7309 178.819 47.111L177.649 45.1041C179.123 44.8 180.674 44.3591 182.316 43.7662C182.894 43.5533 183.426 43.3405 183.897 43.1276H178.424V41.3032H186.071H186.041ZM182.711 28.9731V28.137H185.114V28.9731H189.523V28.137H191.925V28.9731H196.592V30.98H191.925V32.0594H189.523V30.98H185.114V32.0594H182.711V30.98H178.135V28.9731H182.711ZM188.276 35.7235V34.7201H186.467V35.7235H188.276ZM188.276 38.4753V37.3959H186.467V38.4753H188.276ZM190.8 38.7642C191.134 38.4601 191.438 38.1713 191.712 37.8672C191.225 37.3959 190.739 36.955 190.268 36.5749V38.7946C190.435 38.7946 190.633 38.7946 190.8 38.7794V38.7642ZM194.601 37.5327C194.266 37.9128 193.947 38.2777 193.643 38.5818C194.068 38.5362 194.494 38.4906 194.874 38.4146C194.783 38.0953 194.677 37.7912 194.601 37.5479V37.5327Z" fill="#595757"/>
<path d="M204.741 28.9731C204.62 29.3532 204.483 29.7181 204.377 30.0526H216.387C216.387 36.3165 216.159 39.9349 215.688 40.9079C215.323 41.9874 214.457 42.5195 213.073 42.5195C212.556 42.5195 212.054 42.4739 211.568 42.3523L211.081 39.9501C211.887 40.1173 212.571 40.2086 213.088 40.2086C213.316 40.2086 213.468 39.9805 213.56 39.5092C213.681 38.7034 213.757 36.3164 213.757 32.3939H203.556C203.328 32.926 203.115 33.4126 202.917 33.8383C202.872 33.9295 202.826 34.0055 202.811 34.0511H210.929V41.6985H203.86V43.7053C203.86 44.1919 204.088 44.4655 204.605 44.5111C204.924 44.6023 206.323 44.6176 208.801 44.6176C210.808 44.6176 212.161 44.6024 212.845 44.5263C213.742 44.5111 214.457 44.4351 215.019 44.3135C215.551 44.1006 215.87 43.4165 215.992 42.2762L218.425 43.4469C217.999 44.9825 217.421 45.9555 216.676 46.4268C216.083 46.6244 215.49 46.746 214.882 46.7917C213.073 46.8829 211.051 46.9437 208.786 46.9437C206.079 46.9437 204.361 46.8829 203.632 46.7917C202.157 46.7004 201.442 45.8338 201.442 44.1919V36.6053C201.214 36.9702 200.971 37.3047 200.758 37.6239L198.782 36.1188C199.512 34.9481 200.15 33.7318 200.697 32.4548C201.336 30.98 201.822 29.5357 202.187 28.137L204.757 28.9731H204.741ZM203.829 36.3773V39.3876H208.497V36.3773H203.829Z" fill="#595757"/>
<path d="M223.852 29.8854V28.3955H226.193V29.8854H229.021V31.2537C229.386 30.8432 229.705 30.4479 229.994 30.0679L231.819 31.1321V29.1557H239.648C238.995 31.7099 238.204 34.0512 237.292 36.1341C238.797 38.1105 239.572 39.9198 239.572 41.5465C239.572 43.7815 238.66 44.8913 236.821 44.8913C236.182 44.8913 235.665 44.8001 235.239 44.6328L234.905 41.9722C235.589 42.3067 236.228 42.4588 236.821 42.4588C236.973 42.4588 237.049 42.1547 237.049 41.5465C237.049 40.0566 236.349 38.3538 234.981 36.4837C235.619 34.8418 236.152 33.1846 236.562 31.497H234.236V47.4759H231.803V31.4818C231.256 32.242 230.633 32.9869 229.903 33.7319H231.226V35.906H227.577C226.953 36.3925 226.391 36.8487 225.859 37.2287H230.648V47.4759H228.215V46.5637H224.643V47.4759H222.24V39.5549C222.043 39.6613 221.875 39.7525 221.754 39.8133L220.325 37.9889C221.404 37.4112 222.514 36.727 223.654 35.9212H220.416V33.7471H223.822V32.0899H221.328V29.9159H223.822L223.852 29.8854ZM228.261 40.8776V39.3876H224.688V40.8776H228.261ZM228.261 44.4504V42.9604H224.688V44.4504H228.261ZM228.291 32.0595H226.208V33.7167H226.513C227.166 33.1694 227.774 32.6068 228.307 32.0595H228.291Z" fill="#595757"/>
<path d="M247.63 37.1221C247.95 36.4835 248.223 35.8298 248.482 35.1456L250.884 35.9818C250.732 36.3923 250.58 36.7724 250.443 37.1373H260.629V39.3874H256.813C256.296 40.7253 255.643 41.8504 254.852 42.7474C254.806 42.8082 254.746 42.8538 254.7 42.8994C256.707 43.5836 258.531 44.2829 260.188 45.0279L258.607 47.3692C256.737 46.4266 254.639 45.56 252.343 44.7695C251.796 45.0887 251.218 45.3928 250.58 45.6361C248.284 46.5331 245.836 47.1412 243.236 47.4453L242.476 45.1039C245.198 44.8455 247.433 44.3742 249.135 43.7204C248.406 43.5076 247.661 43.2947 246.916 43.0818C246.794 43.2491 246.657 43.4011 246.551 43.5228L244.301 42.2001C245.061 41.303 245.775 40.3756 246.384 39.3722H241.883V37.1221H247.615H247.63ZM251.781 31.1927C252.526 32.1353 253.149 33.0931 253.636 34.0662L251.233 35.4649C250.717 34.4007 250.063 33.382 249.227 32.3938L251.021 31.2383C249.318 31.36 247.524 31.4512 245.699 31.4968C246.46 32.4698 247.083 33.5036 247.569 34.5375L245.137 35.9666C244.65 34.8111 243.981 33.7317 243.16 32.7131L244.985 31.5272C244.574 31.5424 244.194 31.5728 243.814 31.5728L243.069 29.2315C248.071 29.2315 253.104 28.9122 258.121 28.228L259.276 30.3109C258.744 30.4021 258.227 30.4781 257.725 30.5389L259.535 31.1319C258.79 33.1996 257.953 34.9176 257.041 36.2859L254.548 34.9632C255.551 33.5188 256.342 32.0745 256.889 30.6454C255.278 30.8582 253.56 31.0559 251.781 31.1775V31.1927ZM252.891 41.3183C253.362 40.7709 253.757 40.102 254.107 39.3874H249.379C249.044 39.9803 248.725 40.5581 248.375 41.0902C249.668 41.4247 250.914 41.7439 252.085 42.0936C252.389 41.8352 252.632 41.5767 252.891 41.3334V41.3183Z" fill="#595757"/>
<path d="M263.442 37.3803V35.2974H271.166V34.6437H264.932V32.6368H271.166V31.9831H264.005V29.9002H267.836C267.714 29.5657 267.562 29.216 267.41 28.9272L269.752 28.167C270.01 28.7143 270.223 29.3225 270.39 29.9154H274.419C274.51 29.7938 274.571 29.6874 274.617 29.581C274.83 29.1401 274.997 28.6687 275.164 28.1822L277.734 29.0184C277.582 29.3225 277.399 29.6417 277.156 29.9306H280.972V32.0135H273.477V32.6673H280.06V34.6741H273.477V35.3279H281.55V37.4108H277.034L278.22 37.7452C278.068 38.1101 277.916 38.4294 277.779 38.7182H282.143V40.8011H262.91V38.7182H267.152C266.954 38.4598 266.772 38.2013 266.574 37.9733L267.471 37.3955H263.427L263.442 37.3803ZM280.075 47.369H277.749V46.7761H267.182V47.369H264.841V41.5309H280.075V47.369ZM277.749 44.7996V43.5378H267.182V44.7996H277.749ZM275.225 38.7031C275.392 38.2774 275.559 37.8516 275.742 37.3803H269.083C269.417 37.806 269.721 38.247 270.025 38.7031H275.24H275.225Z" fill="#595757"/>
<path d="M287.555 29.8852V40.3908C288.3 40.2692 289.03 40.0868 289.714 39.9195V28.228H292.116V35.769C292.755 34.7655 293.302 33.6557 293.804 32.4394C294.442 30.9494 294.959 29.5507 295.294 28.228L297.696 28.973C297.498 29.718 297.286 30.4478 297.042 31.1471H303.367V33.4733H301.999C301.619 36.666 300.874 39.3266 299.718 41.4855C299.627 41.6071 299.566 41.744 299.52 41.82C300.6 43.1427 301.907 44.2221 303.443 45.1192L301.847 47.5517C300.265 46.4266 298.988 45.2712 298.015 44.0397C296.905 45.3624 295.552 46.4722 293.941 47.3845L292.451 45.3776C294.078 44.4806 295.431 43.3403 296.541 41.9416C295.689 40.5429 294.99 38.8705 294.427 36.9548C294.214 37.3197 294.002 37.6542 293.789 37.9583L292.101 36.6812V47.3692H289.699V42.2304C288.255 42.6713 286.689 43.0819 285.031 43.4468L284.195 40.9534C284.499 40.9077 284.819 40.8621 285.108 40.8013V29.87H287.54L287.555 29.8852ZM297.833 39.3266C297.879 39.4482 297.939 39.5394 298 39.6307C298.806 37.9279 299.368 35.8754 299.657 33.4733H296.145C296.1 33.5949 296.054 33.7013 296.024 33.7925C295.932 33.9902 295.872 34.1574 295.796 34.3094C296.328 36.2403 297.012 37.9279 297.833 39.3418V39.3266Z" fill="#595757"/>
<path d="M310.512 28.5624C310.36 29.5811 310.208 30.5693 310.071 31.4815H313.842C313.735 34.0965 313.416 36.5443 312.884 38.8248C312.671 39.6914 312.443 40.4668 312.185 41.1509C313.036 41.9111 313.872 42.7321 314.678 43.5379L313.021 45.3775C312.382 44.6477 311.759 43.994 311.151 43.3706C311.029 43.5835 310.877 43.7963 310.74 43.9636C309.798 45.3319 308.673 46.4721 307.35 47.4604L306.027 45.636C307.152 44.7846 308.11 43.7811 308.885 42.6105C309.053 42.3824 309.25 42.0935 309.418 41.8047C308.992 41.4702 308.566 41.1205 308.156 40.7861C308.049 41.1661 307.943 41.5158 307.852 41.8047L305.601 41.3182C306.286 38.9616 306.863 36.4226 307.35 33.7316H305.51V31.4967H307.73C307.897 30.4324 308.049 29.353 308.171 28.2432L310.512 28.5776V28.5624ZM310.725 38.5815C311.105 36.9396 311.379 35.328 311.516 33.7316H309.691C309.372 35.4952 309.053 37.0764 308.733 38.4751C309.281 38.8856 309.843 39.2809 310.375 39.661C310.497 39.3265 310.603 38.9616 310.74 38.5815H310.725ZM324.226 28.8209V30.9646C323.207 32.6521 322.006 34.0965 320.653 35.3128V36.6355H324.743V38.9616H320.653V44.6325C320.653 45.6968 320.425 46.3961 319.954 46.7154C319.437 47.0955 318.57 47.2932 317.339 47.2932C316.685 47.2932 316.062 47.2323 315.514 47.1259L315.104 44.5565C315.833 44.8302 316.578 44.967 317.339 44.967C317.597 44.967 317.825 44.9214 318.038 44.8454C318.16 44.7237 318.251 44.4349 318.251 44.0548V38.992H313.751V36.6659H318.251V33.4123L319.224 33.4732C319.969 32.8194 320.668 32.044 321.307 31.1774H314.404V28.8513H324.226V28.8209Z" fill="#595757"/>
<path d="M335.477 41.4703L334.671 40.0868C335.309 39.8283 335.887 39.3875 336.389 38.7033H334.838V35.6626H338.092V37.7911C338.092 39.3418 337.225 40.5885 335.477 41.4703Z" fill="#595757"/>
<path d="M352.154 35.3889C351.561 39.0074 350.877 42.0329 350.147 44.4654L347.745 43.2036C348.597 40.3149 349.25 37.411 349.722 34.5528L352.154 35.3889ZM355.818 33.3213V43.462C355.818 44.0093 356.183 44.3134 356.943 44.3286C357.278 44.3742 357.749 44.3742 358.342 44.3742C359.71 44.3742 360.531 44.3286 360.79 44.2222C361.063 44.0245 361.231 43.7053 361.322 43.2796C361.413 43.0667 361.474 42.2609 361.535 40.8774L364.028 42.2761C363.876 44.3134 363.557 45.5753 363.055 46.0922C362.721 46.3203 362.249 46.5027 361.656 46.6091C361.276 46.7156 360.166 46.7764 358.357 46.7764C357.506 46.7764 356.761 46.7308 356.077 46.67C354.222 46.6243 353.31 45.8185 353.31 44.283V33.3213H355.818ZM360.896 31.9681L358.981 34.2943C357.491 32.7587 355.94 31.4208 354.313 30.311L356.137 28.4866C357.886 29.49 359.467 30.6607 360.881 31.9834L360.896 31.9681ZM367.449 42.2153L364.88 43.2796C364.302 40.3453 363.587 37.7151 362.721 35.3738L364.956 34.2943C365.929 36.7268 366.765 39.3571 367.449 42.2153Z" fill="#595757"/>
<path d="M378.092 33.5493V39.9651H375.371V44.3741C375.371 45.5296 375.219 46.305 374.945 46.7459C374.61 47.2172 373.987 47.4757 373.12 47.4757C372.527 47.4757 371.965 47.4148 371.463 47.3084L371.159 45.6208C371.159 45.6208 371.114 45.6817 371.114 45.7273L369.046 44.6478C369.639 43.3251 370.11 42.0328 370.445 40.7253L372.619 41.4703C372.239 42.8538 371.859 44.0245 371.433 45.0127C371.874 45.1039 372.33 45.1343 372.771 45.1343C372.832 45.1343 372.877 45.0431 372.892 44.8759C372.908 44.6478 372.938 44.2829 372.938 43.8116V39.9804H370.11V33.5645H378.092V33.5493ZM375.431 28.228V30.2349H378.867V32.561H369.456V30.2349H372.953V28.228H375.447H375.431ZM375.766 37.7302V35.8146H372.436V37.7302H375.766ZM378.898 43.0971C379.491 42.2609 379.977 41.3791 380.388 40.4364C380.859 39.3114 381.194 37.5174 381.406 35.0696H378.761V32.7283H381.543C381.604 31.3599 381.65 29.87 381.65 28.228H383.991C383.976 29.8852 383.93 31.3751 383.885 32.7283H388.491V35.0696H383.763C383.748 35.3281 383.717 35.5865 383.702 35.8146H385.496V44.1157C385.496 44.587 385.511 44.815 385.587 44.8455C385.603 44.9367 385.694 44.9519 385.846 44.9519C386.119 44.9519 386.287 44.8606 386.332 44.6478C386.393 44.4806 386.439 44.1005 386.484 43.538C386.53 43.1731 386.545 42.5954 386.591 41.7896L388.734 43.0515C388.522 45.0887 388.218 46.2898 387.868 46.6699C387.761 46.8827 387.503 47.0044 387.123 47.0956C386.91 47.1564 386.484 47.202 385.846 47.202C385.207 47.202 384.736 47.1108 384.401 46.9892C383.596 46.8675 383.185 46.0314 383.185 44.5414V39.6003C382.972 40.5733 382.714 41.3639 382.455 41.972C381.513 44.1461 380.129 45.9553 378.35 47.4605L376.952 45.2864C377.636 44.6934 378.244 44.0093 378.776 43.2795L376.693 44.2829C376.389 43.2339 376.009 42.2457 375.523 41.3031L377.605 40.2996C378.122 41.151 378.548 42.0632 378.898 43.0818V43.0971ZM388.157 31.1471L386.013 32.409C385.603 31.5576 385.07 30.7518 384.417 29.9764L386.5 28.6537C387.184 29.4443 387.731 30.2653 388.157 31.1471Z" fill="#595757"/>
<path d="M396.26 36.3011C396.746 35.2368 397.172 34.127 397.552 32.9715L400.045 33.8077C399.741 34.6743 399.422 35.5105 399.103 36.3011H409.35V38.7033H405.519C405.093 40.2388 404.454 41.5159 403.557 42.5801C405.64 43.3859 407.541 44.2221 409.259 45.1192L407.678 47.4605C405.808 46.3962 403.694 45.4232 401.399 44.5262C399.103 45.9705 396.016 46.9739 392.14 47.5517L391.06 45.2104C393.994 44.8303 396.427 44.2373 398.297 43.4011C397.446 43.1275 396.579 42.8538 395.697 42.5649C395.484 42.869 395.287 43.1123 395.119 43.3707L392.793 42.048C393.599 40.9838 394.344 39.8739 395.013 38.7033H391.045V36.3011H396.244H396.26ZM401.459 28.228V30.1437H409.107V34.7199H406.613V32.5458H393.812V34.7199H391.319V30.1437H398.875V28.228H401.459ZM402.888 38.7033H398.038C397.719 39.3266 397.4 39.8891 397.081 40.4517C398.464 40.8622 399.787 41.2574 401.064 41.6831C401.87 40.8926 402.493 39.8891 402.888 38.7033Z" fill="#595757"/>
<path d="M428.248 34.1424V36.4685H422.927V39.0379H428.507V41.288H422.927V44.5872C424.037 44.6784 425.314 44.6936 426.804 44.6936C428.385 44.6936 429.784 44.6024 431 44.4351L430.255 47.187H426.804C424.037 47.187 421.924 47.0653 420.494 46.8069C419.309 46.594 418.275 46.2139 417.423 45.621C416.83 45.1953 416.313 44.7088 415.872 44.1159C415.234 45.3474 414.474 46.442 413.592 47.4606L411.768 45.7122C412.817 44.4807 413.622 43.2492 414.2 41.9569C414.823 40.5734 415.219 39.0835 415.432 37.4567L417.773 37.9432C417.606 39.2812 417.302 40.5126 416.921 41.6681C417.347 42.3066 417.788 42.8235 418.259 43.1732C418.898 43.7205 419.658 44.1158 420.51 44.2831V36.4533H414.763V34.1271H428.248V34.1424ZM422.836 28.137V29.8245H430.65V33.8079H428.248V32.1507H414.763V33.8079H412.36V29.8245H420.266V28.137H422.836Z" fill="#595757"/>
<path d="M59.0765 57.7992C58.818 58.1793 58.5443 58.529 58.2403 58.8635H65.4011V60.9463C63.8656 62.269 62.33 63.3789 60.7793 64.2607L62.3909 65.0969C62.0108 65.5226 61.6002 65.9027 61.2202 66.2676H67.6513V68.5025C66.3133 70.4181 64.4281 71.9537 62.0108 73.1091C59.4414 74.4014 56.1574 75.5113 52.1741 76.4387L51.0947 74.0974C53.6032 73.5805 55.8229 72.9875 57.693 72.3338C57.2825 71.7409 56.8415 71.1631 56.3246 70.6158L58.4988 69.2931C59.1373 69.9772 59.6694 70.6614 60.1103 71.3607C60.308 71.2695 60.4904 71.1631 60.6881 71.0871C62.2692 70.2813 63.5007 69.3995 64.3977 68.4721H58.6508C58.438 68.6393 58.2251 68.8066 58.0122 68.9586C56.5679 69.9316 55.0171 70.8134 53.3447 71.6192L51.9156 69.4451C53.3904 68.8522 54.8043 68.1072 56.203 67.1646C57.0088 66.6325 57.7842 66.0851 58.4835 65.477C55.8685 66.7085 53.3143 67.4991 50.8362 67.864L50 65.705C51.9004 65.3706 53.7248 64.8537 55.4884 64.1999C55.154 63.683 54.7587 63.1965 54.333 62.7099L56.4007 61.3872C56.948 61.9802 57.4193 62.6035 57.7994 63.2421C59.2437 62.6035 60.5208 61.8434 61.6307 60.9615H56.051C55.1844 61.6609 54.1505 62.2995 52.9799 62.8772L51.2315 61.1288C52.4934 60.4903 53.512 59.8517 54.3178 59.2132C55.2148 58.529 55.9598 57.8144 56.5527 57.0391L59.0461 57.7992H59.0765Z" fill="#595757"/>
<path d="M89.6812 57.7992V60.0342C87.6744 61.9498 85.3178 63.6069 82.6116 64.9905V72.9115C82.6116 74.1886 82.4444 75.0248 82.1403 75.4809C81.7602 75.9978 81.076 76.2411 80.103 76.2411C78.9476 76.2411 77.8681 76.1499 76.8647 75.9826L76.4542 73.4132C77.5184 73.6413 78.5979 73.7477 79.6925 73.7477C79.7838 73.7477 79.8445 73.6565 79.8901 73.4436C79.9358 73.2156 79.951 72.8203 79.951 72.3186V62.9228H81.1217C82.8245 62.1322 84.3752 61.22 85.7891 60.171H72.5469V57.7688H89.6964L89.6812 57.7992Z" fill="#595757"/>
<path d="M104.247 68.7C103.7 69.2473 103.015 69.5362 102.24 69.5362C101.465 69.5362 100.796 69.2626 100.233 68.7C99.6706 68.1375 99.397 67.4837 99.397 66.6931C99.397 65.9026 99.6706 65.2488 100.233 64.6863C100.78 64.139 101.449 63.8501 102.24 63.8501C103.031 63.8501 103.684 64.1238 104.247 64.6863C104.809 65.2488 105.083 65.9178 105.083 66.6931C105.083 67.4685 104.809 68.1375 104.247 68.7ZM102.924 66.009C102.727 65.8114 102.498 65.7049 102.24 65.7049C101.966 65.7049 101.723 65.8114 101.556 66.009C101.343 66.2067 101.252 66.4347 101.252 66.6931C101.252 66.9668 101.343 67.2101 101.556 67.3773C101.723 67.5902 101.966 67.6814 102.24 67.6814C102.498 67.6814 102.727 67.5902 102.924 67.3773C103.122 67.2101 103.228 66.9668 103.228 66.6931C103.228 66.4347 103.122 66.2067 102.924 66.009Z" fill="#595757"/>
<mask id="mask0_20_204365" style="mask-type:luminance" maskUnits="userSpaceOnUse" x="18" y="99" width="445" height="339">
<path d="M18 99V398.081C18 420.038 35.9619 438 57.9188 438H422.36C444.317 438 462.278 420.038 462.278 398.081V99H18Z" fill="white"/>
</mask>
<g mask="url(#mask0_20_204365)">
<path d="M688.598 -359.168C916.265 -251.288 832.541 249.168 479.838 511.055C127.134 772.943 -462.729 798.848 -627.111 595.77C-791.494 392.693 -304.989 374.777 -127.894 187.524C49.2164 0.271302 248.299 -567.82 688.583 -359.168H688.598Z" fill="#FDE9E4"/>
<path d="M148.44 97.5907L422.777 305.593C426.772 308.612 429.544 312.654 430.984 317.082C433.044 323.322 432.486 330.321 429.08 336.298C428.569 337.196 427.996 338.079 427.345 338.915L294.582 514.028C293.994 514.802 293.374 515.515 292.724 516.196C287.939 521.166 281.374 523.644 274.808 523.427C270.07 523.272 265.316 521.693 261.26 518.612L-13.0776 310.61C-17.1964 307.482 -20.0146 303.27 -21.4392 298.687C-22.9102 293.933 -22.8637 288.777 -21.2224 283.976C-20.4327 281.638 -19.2404 279.378 -17.661 277.287L115.102 102.174C116.728 100.022 118.664 98.2101 120.801 96.7855C125.012 93.9518 129.998 92.5892 134.984 92.775C139.692 92.9454 144.414 94.5093 148.456 97.5752L148.44 97.5907Z" fill="#7C546D"/>
<path d="M119.12 120.25L0.802169 276.297C-6.27124 285.626 -4.44271 298.923 4.8863 305.996L260.902 500.111C270.231 507.185 283.528 505.356 290.601 496.027L408.919 339.98C415.992 330.651 414.164 317.354 404.835 310.281L148.819 116.165C139.49 109.092 126.193 110.921 119.12 120.25Z" fill="#643D58"/>
<path d="M11.0317 242.463L-3.41525 231.515C-5.8463 229.673 -7.42569 226.978 -7.84377 223.943C-8.26185 220.908 -7.47215 217.904 -5.62951 215.458L58.8166 130.449C60.6592 128.017 63.3535 126.438 66.3885 126.02C69.4234 125.602 72.4274 126.392 74.8739 128.234L89.3209 139.182L11.0317 242.432V242.463ZM65.8775 130.913C64.5613 131.331 63.4 132.152 62.5329 133.282L-1.91326 218.292C-3.01266 219.732 -3.47715 221.528 -3.2294 223.324C-2.98165 225.12 -2.05261 226.715 -0.597079 227.814L10.1336 235.944L82.7864 140.111L72.0558 131.981C70.6157 130.882 68.8195 130.418 67.0233 130.665C66.6362 130.712 66.2491 130.805 65.8775 130.929V130.913Z" fill="#42312F"/>
<path d="M-2.23866 260.796L-111.233 178.172C-115.538 174.904 -116.39 168.757 -113.122 164.452L-19.3335 40.7474C-17.754 38.657 -15.4468 37.3254 -12.8609 36.9537C-10.275 36.5976 -7.68916 37.2789 -5.61425 38.8583L103.38 121.483L-2.25416 260.796H-2.23866ZM-13.0932 41.7539C-14.0997 42.0791 -14.9668 42.683 -15.6172 43.5501L-109.406 167.255C-110.242 168.354 -110.583 169.702 -110.397 171.064C-110.211 172.427 -109.499 173.635 -108.415 174.455L-3.13673 254.277L96.8615 122.381L-8.41692 42.5591C-9.51631 41.7229 -10.8634 41.3823 -12.2261 41.5681C-12.5203 41.6146 -12.8145 41.6765 -13.0932 41.7694V41.7539Z" fill="#42312F"/>
<path d="M429.404 363.659L421.027 374.699C418.875 377.549 414.988 378.462 411.783 376.867L402.307 372.145L421.879 346.332L428.986 354.183C431.386 356.83 431.557 360.81 429.404 363.659Z" fill="#42312F"/>
<path d="M316.585 -124.208L590.922 83.7941C594.917 86.8135 597.689 90.855 599.129 95.2835C601.189 101.524 600.631 108.523 597.225 114.5C596.714 115.398 596.141 116.28 595.49 117.117L462.727 292.23C462.139 293.004 461.519 293.716 460.869 294.397C456.084 299.368 449.519 301.845 442.953 301.629C438.215 301.474 433.461 299.894 429.405 296.813L155.067 88.811C150.949 85.6832 148.13 81.4714 146.706 76.888C145.235 72.1343 145.281 66.978 146.923 62.1779C147.712 59.8397 148.905 57.579 150.484 55.4886L283.247 -119.624C284.873 -121.777 286.809 -123.589 288.93 -125.013C293.142 -127.847 298.128 -129.209 303.114 -129.024C307.821 -128.853 312.544 -127.289 316.585 -124.223V-124.208Z" fill="#7C546D"/>
<path d="M577.064 118.154L458.747 274.206C451.671 283.543 438.37 285.37 429.048 278.294L173.029 84.1812C163.692 77.1048 161.865 63.8037 168.941 54.4821L287.258 -101.57C294.334 -110.907 307.635 -112.734 316.957 -105.658L572.976 88.4549C582.313 95.5313 584.14 108.832 577.064 118.154Z" fill="#643D58"/>
<path d="M190.712 113.134L181.441 125.362C180.031 127.222 180.395 129.874 182.256 131.284L209.746 152.128C211.607 153.539 214.258 153.174 215.669 151.314L224.94 139.086C226.35 137.226 225.986 134.574 224.125 133.164L196.635 112.32C194.775 110.909 192.123 111.274 190.712 113.134Z" fill="#42312F"/>
<path d="M367.992 247.558L358.721 259.785C357.31 261.645 357.675 264.297 359.535 265.708L387.026 286.551C388.886 287.962 391.537 287.597 392.948 285.737L402.219 273.509C403.63 271.649 403.265 268.997 401.405 267.587L373.914 246.743C372.054 245.332 369.402 245.697 367.992 247.558Z" fill="#42312F"/>
<path d="M60.0395 144.106L7.84161 212.949C5.44152 216.124 0.920064 216.743 -2.23875 214.343C-5.41306 211.943 -6.03242 207.421 -3.63234 204.263L48.5656 135.419C50.9656 132.245 55.4871 131.625 58.6459 134.025C61.8202 136.425 62.4396 140.947 60.0395 144.106Z" fill="#7C546D"/>
<path opacity="0.5" d="M458.686 247.093C458.686 247.093 451.935 260.549 446.345 262.237C440.74 263.925 433.245 263.243 425.828 254.092C418.411 244.941 423.273 231.314 430.907 231.485C438.541 231.64 458.702 247.093 458.702 247.093H458.686Z" fill="#B0C3DF"/>
<path d="M429.018 226.715L414.091 217.053C409.771 208.119 380.568 192.619 380.568 192.619C380.568 192.619 368.288 207.902 369.341 215.427C370.379 222.968 375.241 231.485 390.09 235.309C401.053 238.127 411.289 231.686 414.138 224.532L421.88 230.168C416.832 235.882 415.438 247.542 422.422 256.151C432.069 268.059 441.839 268.941 449.132 266.742C456.426 264.559 465.19 247.031 465.19 247.031C465.19 247.031 438.944 226.932 429.018 226.715ZM390.524 231.361C379.128 228.419 375.38 221.884 374.575 216.078C373.785 210.286 383.215 198.549 383.215 198.549C383.215 198.549 405.652 210.457 408.981 217.316C412.311 224.191 401.936 234.287 390.524 231.345V231.361ZM446.345 262.237C440.74 263.924 433.245 263.243 425.828 254.092C418.411 244.94 423.273 231.314 430.907 231.485C438.541 231.639 458.702 247.093 458.702 247.093C458.702 247.093 451.951 260.549 446.361 262.237H446.345Z" fill="#9D635B"/>
<path opacity="0.5" d="M390.524 231.361C379.128 228.419 375.38 221.884 374.575 216.078C373.786 210.286 383.216 198.549 383.216 198.549C383.216 198.549 405.653 210.457 408.982 217.316C412.311 224.191 401.936 234.287 390.524 231.345V231.361Z" fill="#B0C3DF"/>
<path d="M369.155 199.447C365.934 202.048 363.411 203.55 362.11 203.426C355.513 202.792 281.436 142.712 263.257 126.717C260.935 124.673 259.526 123.357 259.293 122.954C259.293 122.954 302.774 72.0568 304.678 68.356C306.583 64.6553 407.324 138.578 411.567 145.453C415.066 151.12 384.268 187.276 369.155 199.431V199.447Z" fill="#FCE1CB"/>
<path d="M389.021 343.344C383.184 344.428 374.296 331.049 363.72 322.068C353.144 313.087 311.847 287.646 309.834 281.344L312.234 277.876L316.709 271.434C316.709 271.434 317.452 270.118 318.598 268.275C320.178 265.782 322.531 262.345 324.807 260.053C326.124 258.737 327.409 257.792 328.508 257.638C332.937 256.987 352.478 274.701 358.687 279.672C362.388 282.629 378.554 293.887 391.762 303.038C400.758 309.278 408.392 314.543 409.739 315.518C413.099 317.934 394.828 342.26 389.006 343.344H389.021Z" fill="#BA987F"/>
<path d="M391.778 303.038C377.641 303.889 363.132 307.915 350.605 301.815C341.856 297.556 335.802 289.009 327.146 284.58C323.321 282.629 315.192 281.329 312.25 277.876L316.725 271.434C316.725 271.434 317.468 270.118 318.614 268.275L342.228 282.459C340.525 276.343 337.072 270.722 332.364 266.464C329.933 264.249 327.146 262.376 324.839 260.053C326.155 258.737 327.44 257.792 328.54 257.638C332.968 256.987 352.509 274.701 358.719 279.672C362.419 282.629 378.585 293.887 391.793 303.038H391.778Z" fill="#DABBA0"/>
<path d="M231.808 375.66C231.932 379.546 222.255 391.02 215.798 397.106C213.351 399.397 211.369 400.915 210.548 400.977C207.529 401.162 186.563 386.235 179.889 379.856C174.315 374.529 135.495 338.172 122.132 324.902C119.531 322.316 117.89 320.613 117.657 320.179C116.016 317.191 136.084 304.788 137.354 303.363C138.608 301.923 142.897 298.16 145.653 301.396C148.394 304.633 195.281 343.313 204.711 351.101C214.141 358.906 231.669 370.302 231.824 375.66H231.808Z" fill="#CC8639"/>
<path opacity="0.5" d="M210.766 382.891C210.796 386.421 212.933 389.518 214.451 392.708C215.086 394.055 215.597 395.588 215.798 397.106C213.351 399.397 211.369 400.915 210.549 400.977C207.529 401.163 186.563 386.236 179.89 379.856C174.315 374.529 135.496 338.172 122.133 324.902C122.845 318.615 135.651 323.849 140.265 322.44C142.727 321.697 144.709 319.436 147.279 319.436C149.385 319.436 151.135 320.984 152.684 322.44C167.44 336.205 183.219 348.887 199.849 360.315C205.563 364.248 212.066 369.296 211.741 376.217C211.633 378.462 210.781 380.646 210.797 382.906L210.766 382.891Z" fill="#EFB453"/>
<path d="M387.102 347.045C387.752 349.088 384.98 352.758 381.481 355.948C378.988 358.224 376.123 360.253 373.878 361.29C372.453 361.94 370.688 363.845 368.799 366.323C365.934 370.101 362.776 375.242 360.174 379.562C357.96 383.201 356.117 386.236 355.173 387.335C353.733 388.976 348.313 385.663 341.903 380.444C335.74 375.412 328.695 368.599 323.414 362.715C312.637 350.714 275.862 330.956 276.218 326.032C276.497 322.084 289.968 306.212 294.211 302.542C298.438 298.873 302.077 288.452 307.914 287.383C313.752 286.299 386.002 343.545 387.133 347.06L387.102 347.045Z" fill="#756A3A"/>
<path d="M335.105 351.349C342.305 361.693 350.729 371.185 360.159 379.546C357.945 383.185 356.102 386.22 355.157 387.32C353.717 388.961 348.298 385.647 341.887 380.429C341.423 379.082 340.943 377.766 340.401 376.481C335.306 364.573 324.591 356.165 314.294 348.314C307.76 343.328 309.076 340.634 301.008 339.039C296.332 338.126 282.628 334.611 290.711 328.262C295.93 324.174 298.732 329.377 303.842 331.375C308.534 333.202 313.21 335.044 317.902 336.871C320.859 338.033 323.848 339.194 326.403 341.083C330.026 343.747 332.535 347.649 335.105 351.349Z" fill="#868243"/>
<path d="M381.481 355.948C378.988 358.224 376.123 360.253 373.878 361.29C372.454 361.94 370.688 363.845 368.799 366.322C357.542 354.09 341.841 345.62 332.813 331.529C343.761 330.383 356.148 331.312 363.705 339.318C365.997 341.749 367.684 344.691 369.93 347.153C373.135 350.683 377.44 353.254 381.481 355.963V355.948Z" fill="#868243"/>
<path d="M276.357 314.388C271.201 317.578 267.577 327.983 261.74 329.082C255.902 330.166 226.792 299.306 219.87 294.568C212.948 289.814 175.337 259.387 173.866 256.739C172.039 253.457 177.66 251.676 177.66 251.676C177.66 251.676 186.284 232.723 189.319 232.522C190.31 232.46 192.726 234.055 195.823 236.455C202.28 241.41 211.725 249.756 217.64 253.596C225.816 258.923 277.054 295.698 284.858 302.031C285.4 302.48 285.741 302.774 285.834 302.898C287.212 304.772 281.529 311.213 276.373 314.403L276.357 314.388Z" fill="#BC5D59"/>
<path d="M284.857 302.016C284.857 302.016 284.826 302.109 284.811 302.17C283.727 304.896 279.686 304.029 276.96 302.898C272.036 300.839 266.787 299.569 261.476 299.136C253.92 298.516 246.317 299.585 238.76 299.043C231.204 298.501 223.245 295.977 218.739 289.891C214.698 284.441 214.109 277.148 210.641 271.31C208.566 267.842 205.531 264.977 203.797 261.338C202.697 259.015 202.155 256.476 201.567 253.968C200.204 248.099 197.727 242.277 195.807 236.439C202.264 241.394 211.709 249.74 217.624 253.58C225.8 258.907 277.038 295.682 284.842 302.016H284.857Z" fill="#E06257"/>
<path d="M258.256 338.606C257.621 339.612 256.785 340.681 255.763 341.796C255.236 342.368 254.555 343.282 253.765 344.443C252.681 346.038 251.396 348.082 249.972 350.312C247.943 353.517 245.651 357.141 243.344 360.423C239.69 365.641 236.005 370.008 233.279 370.566C226.76 371.866 212.67 347.029 203.905 341.331C195.141 335.633 149.818 297.278 147.558 292.896C146.737 291.285 147.511 289.551 148.781 287.832C150.686 285.277 153.736 282.738 154.464 280.663C155.176 278.604 158.165 273.354 161.447 269.452C163.677 266.789 166.046 264.761 167.935 264.792C172.581 264.854 187.538 277.845 199.074 284.968C210.61 292.106 254.555 328.278 257.776 331.111C260.176 333.233 260.114 335.695 258.271 338.606H258.256Z" fill="#BA987F"/>
<path d="M185.588 295.033C179.967 294.692 174.346 294.336 168.725 293.995C165.148 293.778 161.509 293.546 158.103 292.385C155.331 291.44 151.646 289.954 148.781 287.832C150.686 285.277 153.736 282.738 154.464 280.663C155.176 278.604 158.165 273.354 161.447 269.452C165.953 272.054 170.366 274.826 174.284 278.201C179.487 282.676 183.853 288.39 185.588 295.033Z" fill="#DABBA0"/>
<path d="M240.464 334.394C243.406 339.845 245.822 345.822 249.972 350.312C247.943 353.517 245.652 357.141 243.344 360.423C242.957 359.804 242.601 359.154 242.199 358.565C237.104 350.761 234.348 342.926 232.227 333.868C232.087 333.279 231.948 332.675 232.041 332.071C232.32 330.151 234.905 329.331 236.686 330.12C238.467 330.91 239.551 332.691 240.48 334.394H240.464Z" fill="#DABBA0"/>
<path d="M258.256 338.606C257.621 339.612 256.785 340.681 255.763 341.796C255.236 342.369 254.555 343.282 253.765 344.444C252.464 340.511 250.901 336.686 249.089 332.97C251.164 331.669 253.703 333.62 255.345 335.432C256.32 336.485 257.296 337.553 258.256 338.621V338.606Z" fill="#DABBA0"/>
<path d="M318.134 443.109C318.521 449.148 294.474 473.025 290.433 479.715C286.391 486.404 281.607 495.648 273.973 493.449C266.324 491.251 203.999 438.557 203.999 438.557C202.28 437.489 201.831 435.46 202.125 433.045C202.822 427.362 207.576 419.496 209.403 416.755C210.843 414.587 215.209 404.708 220.242 396.223C224.345 389.286 228.898 383.262 232.66 383.107C236.47 382.953 246.55 390.029 257.234 398.267C270.071 408.161 283.759 419.744 288.42 422.469C292.57 424.9 299.599 428.399 305.778 432.054C312.343 435.94 317.949 439.997 318.15 443.109H318.134Z" fill="#A44746"/>
<path d="M238.095 451.224C238.483 452.695 238.777 454.46 237.755 455.59C236.144 457.371 233.249 455.853 231.437 454.274C222.286 446.331 213.274 437.582 202.141 433.06C202.837 427.378 207.591 419.512 209.418 416.771C210.858 414.603 215.225 404.724 220.257 396.239C221.883 407.604 225.522 417.22 230.229 428.136C233.45 435.615 236.082 443.342 238.126 451.224H238.095Z" fill="#BC5D59"/>
<path d="M305.762 432.069C305.762 432.843 305.762 433.618 305.716 434.392C305.592 436.73 305.251 439.099 304.307 441.251C301.256 448.173 292.446 451.982 291.346 459.461C291.037 461.552 291.393 463.735 290.866 465.779C290.324 467.838 288.311 469.789 286.299 469.154C285.292 468.845 284.58 467.978 283.96 467.126C279.903 461.459 278.092 454.537 276.079 447.848C272.223 435.073 267.33 422.67 262.096 410.391C260.44 406.504 258.953 402.277 257.219 398.282C270.055 408.177 283.744 419.759 288.404 422.484C292.554 424.915 299.584 428.415 305.762 432.069Z" fill="#BC5D59"/>
<path d="M338.325 411.986C332.426 417.731 324.73 437.164 319.853 436.389C314.975 435.615 283.185 413.333 272.594 404.352C262.018 395.371 240.092 382.287 238.761 378.075C237.801 375.087 239.752 371.045 242.74 366.988C247.478 360.547 254.803 354.012 257.265 351.349C260.625 347.679 265.409 336.515 270.008 332.907C270.906 332.226 271.774 331.808 272.641 331.777C277.983 331.606 340.354 381.993 346.78 387.66C353.221 393.327 344.21 406.241 338.325 411.971V411.986Z" fill="#B0C3DF"/>
<path opacity="0.5" d="M338.325 411.986C332.426 417.731 324.73 437.164 319.853 436.389C314.975 435.615 283.185 413.333 272.594 404.352C262.018 395.371 240.092 382.287 238.761 378.075C237.801 375.087 239.752 371.045 242.74 366.988C245.156 369.234 246.302 374.483 250.312 377.549C267.283 390.602 284.238 403.655 301.209 416.693C308.053 421.973 317.189 427.455 324.699 423.166C325.117 419.837 325.551 416.492 325.969 413.163C302.742 399.97 281.916 382.581 264.79 362.095C273.756 360.934 280.228 369.899 286.112 376.759C297.029 389.518 312.823 397.988 329.499 400.017C333.03 400.45 337.752 399.769 338.387 396.254C338.728 394.427 337.675 392.646 336.622 391.098C319.976 366.539 294.365 349.986 270.024 332.876C270.922 332.195 271.789 331.777 272.656 331.746C277.998 331.575 340.369 381.962 346.795 387.629C353.237 393.296 344.225 406.21 338.341 411.939L338.325 411.986Z" fill="#6E7699"/>
<path d="M490.816 51.7415C477.593 74.132 426.246 133.112 419.944 135.125C414.834 136.751 393.899 119.795 381.264 107.609C375.426 101.957 371.37 97.3276 371.463 96.0269C371.648 93.3945 389.595 72.2583 408.083 51.5712C426.587 30.884 445.633 10.6459 447.971 9.90265C451.687 8.71035 475.843 26.5174 487.642 37.2791C490.646 40.0198 492.86 42.3115 493.727 43.7051C494.393 44.7736 493.247 47.6536 490.816 51.757V51.7415Z" fill="#B0C3DF"/>
<path opacity="0.5" d="M490.816 51.7415C477.593 74.1319 426.246 133.112 419.944 135.125C414.834 136.751 393.899 119.795 381.264 107.609C381.822 97.5288 384.934 87.7891 390.307 81.3166C392.568 78.5914 395.866 76.9655 399.102 75.5255C409.848 70.7563 421.106 67.1484 432.641 64.7948C452.136 60.8153 473.195 60.0875 490.832 51.7569L490.816 51.7415Z" fill="#91A5C3"/>
<path d="M5.98433 287.058C5.59722 281.004 64.2522 208.289 72.5054 200.252C80.7585 192.216 81.796 183.39 87.8504 183.018C93.9048 182.631 114.112 202.436 114.112 202.436C114.112 202.436 105.162 210.689 108.29 220.506C111.418 230.323 114.824 236.176 128.079 236.594C141.333 236.997 144.895 231.237 144.895 231.237C144.895 231.237 158.599 250.035 159.683 255.857C160.766 261.679 150.733 281.096 147.682 283.605C144.632 286.113 89.9098 342.151 87.0761 345.357C84.2425 348.578 74.9673 346.131 69.9039 342.337C64.8405 338.544 5.98433 287.058 5.98433 287.058Z" fill="#EFB453"/>
<path d="M75.7102 218.292C76.8405 218.539 77.7077 219.453 77.8935 220.599C79.2096 229.115 84.7995 263.382 90.4668 266.309C95.8089 269.065 126.453 263.769 136.982 261.834C138.778 261.509 140.404 262.964 140.28 264.791L140.125 266.928C140.032 268.198 139.103 269.235 137.865 269.483C128.125 271.326 87.819 278.572 83.4059 273.199C79.2406 268.136 74.0378 233.296 72.3655 221.42C72.0868 219.499 73.8211 217.889 75.7257 218.292H75.7102Z" fill="#CC8639"/>
<path d="M68.7729 251.583C69.5161 252.017 70.0116 252.76 70.1355 253.612C70.8632 258.753 73.635 277.009 76.8093 278.65C79.0235 279.796 91.7362 280.911 101.584 281.623C106.261 281.964 108.397 287.616 105.115 290.96C104.139 291.967 102.808 292.555 101.398 292.602C94.0434 292.88 70.6465 293.283 68.7729 287.383C67.1315 282.227 63.9108 262.964 62.3314 253.132C61.9597 250.794 64.4682 249.075 66.5121 250.267L68.7729 251.583Z" fill="#CC8639"/>
<path d="M139.073 243.531C136.673 244.29 134.04 244.91 131.299 245.25C124.13 246.148 113.941 245.513 106.013 237.384C100.005 231.206 98.0854 222.209 100.47 211.355C102.235 203.334 105.673 197.187 105.828 196.923C106.246 196.18 107.19 195.917 107.949 196.335C108.692 196.753 108.955 197.698 108.537 198.456C108.398 198.689 95.453 222.085 108.243 235.216C115.273 242.432 124.455 242.989 130.912 242.169C138.763 241.193 145.173 237.957 147.202 235.96C147.821 235.356 148.797 235.371 149.401 235.99C150.005 236.61 149.989 237.585 149.37 238.189C147.558 239.954 143.764 242.029 139.057 243.531H139.073Z" fill="#CC8639"/>
<path d="M256.243 124.75C256.367 137.541 299.46 163.477 299.46 163.477C299.46 163.477 306.939 183.731 313.396 187.849C319.853 191.968 340.463 204.96 350.744 201.677C361.026 198.41 395.37 157.608 401.1 146.522C406.829 135.435 442.025 100.548 437.519 89.6318C433.013 78.7153 388.913 37.1861 370.766 25.4799C352.618 13.7737 336.824 12.6279 329.949 16.8706C323.074 21.1133 285.493 71.1744 279.841 76.052C274.189 80.945 256.104 111.403 256.243 124.735V124.75Z" fill="#CFC7A0"/>
<path d="M401.687 148.379C401.099 148.565 400.449 148.472 399.922 148.085C399.752 147.961 383.54 135.682 374.125 128.513C364.695 121.313 341.174 102.174 340.942 101.988C340.106 101.307 339.982 100.083 340.663 99.2628C341.345 98.4267 342.568 98.3028 343.389 98.9841C343.621 99.1699 367.095 118.278 376.479 125.447C385.878 132.616 402.105 144.895 402.26 145.019C403.112 145.67 403.282 146.877 402.632 147.745C402.384 148.07 402.043 148.302 401.672 148.426L401.687 148.379Z" fill="#B8AE84"/>
<path d="M345.278 195.096C343.374 195.7 339.626 195.173 329.283 189.646C323.167 186.363 317.468 182.77 317.406 182.739C316.493 182.167 316.23 180.974 316.802 180.061C317.375 179.147 318.568 178.884 319.481 179.457C319.528 179.488 324.87 182.863 330.708 186.007C338.45 190.187 341.841 191.178 343.25 191.38C342.058 189.862 337.598 185.867 320.906 176.716C309.773 170.615 298.732 165.273 298.624 165.227C297.664 164.762 297.261 163.601 297.726 162.641C298.19 161.681 299.352 161.278 300.312 161.743C300.42 161.805 312.049 167.425 323.507 173.728C330.258 177.444 335.663 180.68 339.534 183.343C346.61 188.205 347.57 190.404 347.555 192.046C347.539 193.269 346.951 194.291 345.929 194.848C345.743 194.941 345.542 195.034 345.309 195.112L345.278 195.096Z" fill="#B8AE84"/>
<path d="M355.993 179.41C355.482 179.581 354.894 179.519 354.399 179.225C351.565 177.49 337.273 168.649 335.028 165.01C334.47 164.096 332.984 161.696 342.863 146.816C346.052 142.016 349.567 137.308 352.509 133.886C357.557 128.033 359.57 127.429 361.01 127.662C365.764 128.405 374.884 140.467 377.579 144.152C378.214 145.02 378.028 146.227 377.161 146.862C376.294 147.497 375.086 147.311 374.451 146.444C369.511 139.677 362.899 132.245 360.592 131.548C359.152 132.136 354.43 136.937 347.942 146.258C341.608 155.379 338.62 161.588 338.481 163.198C340.261 165.505 349.908 171.947 356.427 175.942C357.341 176.499 357.635 177.692 357.077 178.605C356.83 179.023 356.442 179.302 356.009 179.441L355.993 179.41Z" fill="#B8AE84"/>
<path d="M366.213 104.899C366.74 106.572 365.826 108.368 364.138 108.91C362.45 109.452 360.67 108.523 360.128 106.835C359.586 105.163 360.515 103.366 362.203 102.824C363.875 102.282 365.671 103.212 366.213 104.899Z" fill="#F0ECD2"/>
<path d="M379.406 115.614C379.948 117.287 379.019 119.083 377.331 119.625C375.659 120.167 373.862 119.238 373.321 117.55C372.779 115.878 373.708 114.081 375.395 113.54C377.083 112.998 378.864 113.927 379.406 115.614Z" fill="#F0ECD2"/>
<path d="M395.974 128.869C396.516 130.542 395.587 132.338 393.899 132.88C392.227 133.422 390.431 132.493 389.889 130.805C389.347 129.117 390.276 127.336 391.964 126.794C393.636 126.252 395.432 127.182 395.974 128.869Z" fill="#F0ECD2"/>
<path d="M276.016 60.8153C267.562 74.4881 269.156 110.35 286.994 121.127C304.832 131.904 336.87 125.819 343.451 120.647C350.031 115.46 342.165 100.471 342.165 100.471C342.165 100.471 361.413 99.4799 361.877 88.0214C362.342 76.5475 352.401 55.0242 339.471 46.7865C326.542 38.5488 290.277 37.7591 276.016 60.8308V60.8153Z" fill="#F0ECD2"/>
<path d="M280.259 67.6903C274.453 84.9864 281.544 110.505 299.181 114.159C316.802 117.813 342.166 100.471 342.166 100.471C342.166 100.471 344.752 69.7962 332.163 59.4061C319.59 49.0006 305.576 43.7824 294.319 50.4561C283.062 57.1299 280.259 67.7058 280.259 67.7058V67.6903Z" fill="#B8AE84"/>
<path d="M539.221 164.127C525.052 186.115 517.527 189.661 513.16 190.188C508.809 190.699 506.068 201.182 498.357 199.447C490.646 197.713 425.426 161.743 419.387 155.394C413.58 149.309 416.569 145.422 416.816 145.113C416.816 145.113 406.736 138.346 415.005 129.845C423.273 121.359 474.418 35.6223 481.727 37.1398C488.525 38.5334 499.039 52.7481 525.393 66.4053C541.094 74.5346 550.292 78.1115 556.037 81.5336C559.939 83.8562 562.261 86.1015 563.918 89.6629C568.053 98.4425 559.521 104.76 559.521 104.76C559.521 104.76 566.504 111.434 565.095 118.232C563.686 125.014 553.358 142.155 539.19 164.143L539.221 164.127Z" fill="#A29E56"/>
<path opacity="0.3" d="M539.22 164.127C525.052 186.115 517.526 189.661 513.16 190.187C508.809 190.698 506.068 201.181 498.357 199.447C490.646 197.713 425.425 161.743 419.386 155.394C413.58 149.309 416.568 145.422 416.816 145.112C416.816 145.112 482.238 181.934 488.277 182.538C494.315 183.142 489.515 179.07 496.344 166.682C503.157 154.279 544.284 107.33 553.853 95.9339C559.056 89.7402 558.049 84.7697 556.036 81.5334C559.938 83.8561 562.261 86.1013 563.918 89.6628C568.052 98.4424 559.52 104.76 559.52 104.76C559.52 104.76 566.504 111.434 565.095 118.231C563.686 125.014 553.357 142.155 539.189 164.143L539.22 164.127Z" fill="#868243"/>
<path d="M443.496 151.879C441.746 153.366 435.583 141.024 437.457 140.715C439.331 140.405 444.797 141.783 445.431 142.526C446.066 143.27 444.502 151.027 443.496 151.879Z" fill="#756A3A"/>
<path d="M461.132 126.624C463.207 125.664 465.901 139.182 463.997 138.996C462.108 138.795 457.215 136.023 456.797 135.14C456.379 134.258 459.94 127.181 461.132 126.64V126.624Z" fill="#756A3A"/>
<path d="M460.312 100.796C462.278 101.957 452.694 111.867 451.78 110.195C450.866 108.523 450.355 102.917 450.851 102.081C451.346 101.245 459.182 100.146 460.312 100.812V100.796Z" fill="#756A3A"/>
<path d="M443.109 121.375C443.449 123.636 429.715 122.381 430.442 120.616C431.17 118.851 435.212 114.949 436.187 114.81C437.163 114.67 442.923 120.09 443.109 121.375Z" fill="#756A3A"/>
<path d="M301.473 262.391C297.617 265.426 285.292 277.829 281.56 279.022C281.188 279.146 280.213 278.789 278.773 278.062C265.998 271.558 216.092 235.046 216.092 235.046C212.437 230.029 215.828 208.382 218.12 199.416C218.894 196.381 220.691 193.61 222.75 191.272C223.88 189.986 225.073 188.825 226.218 187.834C229.161 185.264 233.45 184.954 236.701 187.122C253.084 198.054 304.136 232.522 308.441 240.636C313.582 250.329 308.069 257.22 301.488 262.407L301.473 262.391Z" fill="#EFB453"/>
<path d="M289.24 257.886C288.776 258.025 288.265 257.963 287.847 257.653L226.343 212.408C225.646 211.897 225.506 210.921 226.017 210.24C226.528 209.543 227.504 209.404 228.185 209.915L289.689 255.16C290.386 255.671 290.525 256.647 290.014 257.328C289.813 257.607 289.534 257.793 289.24 257.886Z" fill="#CC8639"/>
<path d="M227.581 222.643C227.581 222.643 231.188 213.771 233.96 215.211C236.732 216.651 234.843 224.455 233.047 225.275C231.25 226.096 228.479 224.672 227.581 222.643Z" fill="#FCE1CB"/>
<path opacity="0.5" d="M301.472 262.392C297.617 265.426 285.291 277.83 281.559 279.022C281.188 279.146 280.212 278.79 278.772 278.062C280.042 276.235 282.024 274.624 283.882 273.37C291.469 268.183 299.521 262.531 302.804 253.953C303.3 252.636 303.687 251.212 303.454 249.834C303.16 248.177 302.045 246.799 300.915 245.544C287.32 230.416 268.289 221.265 253.564 207.236C247.277 201.259 241.254 194.074 232.784 192.185C229.501 191.457 226.11 191.612 222.765 191.256C223.895 189.971 225.088 188.81 226.234 187.819C229.176 185.248 233.465 184.939 236.717 187.106C253.099 198.038 304.151 232.507 308.456 240.62C313.597 250.314 308.084 257.204 301.503 262.392H301.472Z" fill="#CC8639"/>
<path d="M214.45 178.187L170.444 233.884L91.4888 172.597L95.4373 167.317L122.69 130.975L134.814 114.794L154.619 130.557L204.308 170.119L214.45 178.187Z" fill="#B0C3DF"/>
<path opacity="0.5" d="M214.45 178.187L170.444 233.885L91.4888 172.597L95.4373 167.317C95.5457 167.456 95.6696 167.596 95.778 167.735C108.723 183.684 125.462 196.536 144.213 204.944C147.217 206.276 151.537 207.097 153.086 204.201C153.984 202.513 153.303 200.454 152.621 198.658C145.452 179.968 138.267 161.278 131.098 142.589C129.193 137.649 125.508 134.428 122.705 130.96L134.83 114.779L154.619 130.542C161.014 148.581 167.378 166.589 173.757 184.629C174.795 187.555 176.529 190.993 179.626 191.039C181.051 191.055 182.351 190.281 183.559 189.506C189.737 185.48 195.296 180.541 200.019 174.874C201.382 173.248 202.729 171.498 204.308 170.104L214.45 178.172V178.187Z" fill="#6E7699"/>
<path d="M412 334.208L396.965 332.954L221.542 318.306L218.182 318.027L200.716 316.571L197.185 316.277L14.5157 301.025L-0.628051 299.755C-3.09007 295.543 -4.00367 290.619 -3.26042 285.835L11.7595 286.934L191.378 300.08L194.862 300.328L212.066 301.582L215.89 301.861L395.122 314.992L410.142 316.091C413.44 321.495 414.153 328.185 412.016 334.192L412 334.208Z" fill="#FCE1CB"/>
<path d="M286.112 500.371C280.956 504.103 274.359 505.295 268.259 503.685L263.149 489.517L205.841 330.771L200.716 316.571L194.862 300.344L189.923 286.671L132.553 127.786L127.443 113.617C131.887 111.666 136.904 111.279 141.627 112.58L146.938 126.825L204.881 282.32L212.066 301.598L218.182 318.011L221.635 327.271L280.847 486.203L286.112 500.34V500.371Z" fill="#FCE1CB"/>
<path d="M202.636 331.483L224.422 326.667L208.768 281.189L186.888 287.538L202.636 331.483Z" fill="#5E5429"/>
<path d="M477.824 214.173C482.764 217.162 468.58 233.885 464.693 231.051C460.807 228.218 472.513 210.968 477.824 214.173Z" fill="#DABBA0"/>
<path d="M478.15 206.88C478.15 206.88 422.204 159.142 419.309 158.228C415.221 156.927 391.994 194.09 394.054 196.428C396.113 198.766 457.308 233.575 457.308 233.575C463.517 236.502 483.569 209.528 478.15 206.88Z" fill="#E06257"/>
<path d="M433.136 180.247C435.536 180.402 456.641 196.614 457.416 198.131C458.19 199.633 446.902 216.744 444.579 216.589C442.256 216.434 420.114 201.615 419.603 200.423C419.092 199.231 431.975 180.169 433.136 180.247Z" fill="#FDE9E4"/>
<path d="M402.554 198.131C402.446 198.131 402.322 198.1 402.214 198.054C401.61 197.822 401.316 197.156 401.532 196.552C406.828 182.632 421.352 163.926 421.956 163.137C422.359 162.626 423.087 162.533 423.598 162.935C424.109 163.338 424.202 164.066 423.799 164.577C423.644 164.763 408.888 183.808 403.7 197.388C403.514 197.884 403.034 198.162 402.539 198.131H402.554Z" fill="#A44746"/>
<path d="M508.329 164.902C508.329 164.902 452.384 117.163 449.488 116.25C445.4 114.949 422.174 152.112 424.233 154.45C426.292 156.788 487.487 191.597 487.487 191.597C493.696 194.523 513.748 167.55 508.329 164.902Z" fill="#E06257"/>
<path d="M463.301 138.284C465.701 138.439 486.806 154.651 487.58 156.168C488.354 157.67 477.066 174.781 474.743 174.626C472.421 174.486 450.278 159.652 449.767 158.46C449.256 157.268 462.139 138.207 463.301 138.284Z" fill="#FDE9E4"/>
<path d="M432.719 156.153C432.61 156.153 432.486 156.122 432.378 156.075C431.774 155.843 431.48 155.177 431.697 154.573C436.992 140.653 451.517 121.948 452.12 121.158C452.523 120.647 453.251 120.554 453.762 120.957C454.273 121.359 454.366 122.087 453.963 122.598C453.808 122.784 439.052 141.83 433.864 155.41C433.679 155.905 433.199 156.184 432.703 156.153H432.719Z" fill="#A44746"/>
<path d="M203.379 414.789C200.963 417.313 198.099 419.759 196.303 421.71C192.292 426.077 190.573 432.797 187.322 432.286C184.07 431.775 135.759 391.593 130.246 386.406C124.734 381.219 92.681 360.547 91.3028 358.673C89.8783 356.707 91.2409 353.176 93.9042 349.135C95.3907 346.874 97.2643 344.459 99.2773 342.059C102.947 337.677 107.05 333.403 109.931 330.337C111.2 328.99 112.222 327.89 112.888 327.101C117.379 321.821 147.914 352.232 167.006 368.521C186.098 384.827 205.175 401.132 207.436 405.808C208.69 408.394 206.367 411.661 203.364 414.789H203.379Z" fill="#6E7699"/>
<path opacity="0.5" d="M99.293 342.043C102.963 337.661 107.066 333.387 109.946 330.321C119.5 346.1 131.764 360.841 148.626 369.559C154.495 373.461 160.766 377.084 165.086 382.659C161.184 383.262 157.514 380.924 154.263 378.679C140.652 369.311 127.026 359.958 113.415 350.59C108.893 347.478 104.263 344.319 99.293 342.058V342.043Z" fill="#91A5C3"/>
<path opacity="0.5" d="M203.379 414.789C200.963 417.313 198.099 419.759 196.303 421.71C192.292 426.077 190.573 432.797 187.322 432.286C184.07 431.775 135.759 391.593 130.246 386.406C124.734 381.219 92.681 360.547 91.3028 358.673C89.8783 356.707 91.2409 353.176 93.9042 349.135C94.9881 350.172 96.165 351.132 97.3108 351.969L147.743 389.069C160.27 398.283 173.215 407.697 188.297 411.506C184.983 404.569 181.67 397.632 178.372 390.711C183.977 395.774 189.582 400.822 195.203 405.885C198.192 408.58 201.258 411.429 203.364 414.789H203.379Z" fill="#91A5C3"/>
</g>
<path d="M255.256 241L308.517 259.204C312.355 260.516 314.424 264.709 313.107 268.562L288.468 340.651C287.156 344.49 282.963 346.559 279.11 345.242L225.849 327.038L255.251 241.015L255.256 241Z" fill="#127667"/>
<path d="M263.921 259.189C263.503 260.412 262.342 260.861 260.886 260.35L259.632 259.916L259.09 261.527L258.053 261.171L259.957 255.612L262.249 256.386C263.704 256.882 264.355 257.934 263.937 259.173L263.921 259.189ZM262.884 258.833C263.116 258.136 262.791 257.563 261.893 257.253L260.685 256.835L259.926 259.034L261.134 259.452C262.032 259.762 262.652 259.514 262.884 258.817V258.833Z" fill="#F2DD96"/>
<path d="M267.498 262.983L264.726 262.038L263.735 263.137L262.667 262.781L267.065 258.074L268.087 258.415L268.69 264.825L267.607 264.454L267.483 262.983H267.498ZM267.436 262.053L267.219 259.266L265.346 261.341L267.436 262.053Z" fill="#F2DD96"/>
<path d="M269.14 264.314L269.774 263.633C270.1 264.144 270.719 264.639 271.4 264.872C272.267 265.166 272.732 264.98 272.871 264.562C273.274 263.37 269.712 263.013 270.409 260.954C270.719 260.056 271.694 259.545 273.212 260.056C273.878 260.288 274.513 260.691 274.9 261.186L274.296 261.883C273.893 261.419 273.398 261.093 272.918 260.923C272.066 260.629 271.602 260.846 271.447 261.264C271.044 262.441 274.606 262.797 273.909 264.841C273.599 265.723 272.624 266.25 271.091 265.723C270.223 265.429 269.449 264.856 269.124 264.299L269.14 264.314Z" fill="#F2DD96"/>
<path d="M274.126 266.017L274.761 265.336C275.086 265.847 275.705 266.342 276.387 266.574C277.254 266.869 277.718 266.683 277.858 266.265C278.26 265.072 274.699 264.716 275.396 262.657C275.705 261.759 276.681 261.248 278.198 261.759C278.864 261.991 279.499 262.394 279.886 262.889L279.282 263.586C278.879 263.121 278.384 262.796 277.904 262.626C277.052 262.332 276.588 262.549 276.433 262.967C276.03 264.143 279.592 264.5 278.895 266.544C278.585 267.426 277.61 267.953 276.077 267.426C275.21 267.132 274.436 266.559 274.11 266.017H274.126Z" fill="#F2DD96"/>
<path d="M285.259 266.482C284.841 267.705 283.679 268.154 282.224 267.643L280.97 267.209L280.428 268.82L279.39 268.464L281.295 262.905L283.586 263.679C285.042 264.175 285.692 265.227 285.274 266.466L285.259 266.482ZM284.221 266.126C284.454 265.429 284.128 264.856 283.23 264.546L282.023 264.128L281.264 266.342L282.472 266.76C283.37 267.07 283.989 266.822 284.221 266.126Z" fill="#F2DD96"/>
<path d="M285.708 267.535C286.266 265.894 287.954 265.119 289.672 265.708C291.391 266.296 292.258 267.938 291.685 269.594C291.128 271.251 289.44 272.025 287.721 271.437C286.003 270.849 285.151 269.192 285.708 267.55V267.535ZM290.648 269.223C291.035 268.092 290.478 266.993 289.363 266.606C288.248 266.219 287.133 266.761 286.746 267.891C286.359 269.021 286.916 270.136 288.031 270.508C289.146 270.895 290.261 270.353 290.648 269.223Z" fill="#F2DD96"/>
<path d="M295.463 273.976L294.89 271.963C294.89 271.963 294.751 271.917 294.673 271.901L293.419 271.468L292.862 273.094L291.824 272.737L293.729 267.178L296.02 267.953C297.476 268.448 298.126 269.501 297.708 270.74C297.414 271.576 296.779 272.056 295.928 272.087L296.578 274.348L295.463 273.961V273.976ZM295.664 268.82L294.457 268.402L293.698 270.616L294.906 271.034C295.804 271.344 296.423 271.096 296.655 270.399C296.888 269.702 296.562 269.129 295.664 268.82Z" fill="#F2DD96"/>
<path d="M300.279 270.384L298.436 269.749L298.73 268.882L303.438 270.492L303.143 271.359L301.301 270.724L299.706 275.401L298.668 275.045L300.263 270.368L300.279 270.384Z" fill="#F2DD96"/>
<mask id="mask1_20_204365" style="mask-type:luminance" maskUnits="userSpaceOnUse" x="254" y="279" width="33" height="33">
<path d="M285.197 300.842C282.379 309.126 273.382 313.554 265.098 310.752C256.814 307.934 252.386 298.937 255.188 290.653C258.006 282.369 267.003 277.94 275.287 280.743C283.571 283.561 288 292.558 285.197 300.842Z" fill="white"/>
</mask>
<g mask="url(#mask1_20_204365)">
<path d="M255.494 289.941L254.976 291.466L284.983 301.675L285.502 300.151L255.494 289.941Z" fill="#F2DD96"/>
<path d="M274.499 280.42L264.3 310.431L265.825 310.949L276.024 280.938L274.499 280.42Z" fill="#F2DD96"/>
<path d="M264.402 311.139C264.185 310.752 258.967 301.446 261.862 292.914C264.758 284.382 274.559 280.186 274.977 280L275.597 281.486C275.504 281.533 266.043 285.59 263.38 293.425C260.716 301.26 265.733 310.241 265.795 310.334L264.402 311.123V311.139Z" fill="#F2DD96"/>
<path d="M250.914 304.945L250.248 303.474C250.62 303.304 259.477 299.417 267.962 302.297C267.962 302.297 267.978 302.297 267.993 302.297C276.463 305.193 281.093 313.647 281.279 314.019L279.854 314.778C279.808 314.7 275.317 306.509 267.451 303.815C267.451 303.815 267.436 303.815 267.42 303.815C259.554 301.136 250.976 304.899 250.883 304.945H250.914Z" fill="#F2DD96"/>
<path d="M272.097 290.064C263.627 287.169 258.997 278.714 258.812 278.343L260.236 277.584C260.283 277.661 264.773 285.853 272.639 288.547C272.639 288.547 272.655 288.547 272.67 288.547C280.536 291.226 289.115 287.463 289.207 287.417L289.873 288.888C289.502 289.058 280.645 292.945 272.159 290.064C272.159 290.064 272.144 290.064 272.128 290.064H272.097Z" fill="#F2DD96"/>
<path d="M265.408 311.495L264.789 310.009C264.881 309.962 274.342 305.905 277.006 298.07C279.669 290.235 274.652 281.254 274.59 281.161L275.984 280.356C276.201 280.743 281.419 290.049 278.523 298.581C275.628 307.113 265.826 311.309 265.408 311.495Z" fill="#F2DD96"/>
</g>
<path d="M285.197 300.842C282.379 309.126 273.382 313.554 265.098 310.752C256.814 307.934 252.386 298.937 255.188 290.653C258.006 282.369 267.003 277.94 275.287 280.743C283.571 283.561 288 292.558 285.197 300.842Z" stroke="#F2DD96" stroke-width="1.36" stroke-miterlimit="10"/>
<path d="M271.128 319.437L208.975 342.441C207.884 342.844 207.327 344.056 207.731 345.147L216.615 369.151C217.019 370.242 218.23 370.799 219.321 370.395L281.474 347.392C282.565 346.988 283.122 345.776 282.718 344.686L273.834 320.681C273.43 319.591 272.219 319.034 271.128 319.437Z" fill="#D1CFC5"/>
<path d="M274.481 332.957L215.232 354.885C214.743 355.066 214.493 355.61 214.675 356.099L214.75 356.302C214.931 356.791 215.474 357.041 215.963 356.86L275.212 334.932C275.701 334.751 275.951 334.207 275.77 333.718L275.695 333.515C275.514 333.026 274.97 332.776 274.481 332.957Z" fill="#7F7F7F"/>
<path d="M245.387 336.239C246.006 337.896 245.155 339.738 243.498 340.358C241.841 340.977 239.998 340.125 239.379 338.469C238.76 336.812 239.611 334.969 241.268 334.35C242.925 333.73 244.768 334.582 245.387 336.239Z" fill="white"/>
<path d="M217.902 346.412C218.521 348.069 217.669 349.912 216.013 350.531C214.356 351.15 212.513 350.299 211.894 348.642C211.274 346.985 212.126 345.142 213.783 344.523C215.44 343.904 217.282 344.755 217.902 346.412Z" fill="white"/>
<path d="M231.652 341.333C232.271 342.99 231.419 344.833 229.763 345.452C228.106 346.072 226.263 345.22 225.644 343.563C225.024 341.906 225.876 340.064 227.533 339.444C229.19 338.825 231.032 339.677 231.652 341.333Z" fill="white"/>
<path d="M259.137 331.16C259.756 332.817 258.905 334.659 257.248 335.279C255.591 335.898 253.748 335.047 253.129 333.39C252.51 331.733 253.361 329.89 255.018 329.271C256.675 328.652 258.518 329.503 259.137 331.16Z" fill="white"/>
<path d="M272.887 326.066C273.506 327.722 272.655 329.565 270.998 330.184C269.341 330.804 267.498 329.952 266.879 328.295C266.26 326.638 267.111 324.796 268.768 324.176C270.425 323.557 272.268 324.409 272.887 326.066Z" fill="white"/>
<path d="M251.022 351.46C251.642 353.117 250.79 354.959 249.133 355.579C247.476 356.198 245.634 355.346 245.014 353.69C244.395 352.033 245.247 350.19 246.903 349.571C248.56 348.951 250.403 349.803 251.022 351.46Z" fill="white"/>
<path d="M223.523 361.633C224.142 363.29 223.29 365.133 221.634 365.752C219.977 366.371 218.134 365.52 217.515 363.863C216.895 362.206 217.747 360.363 219.404 359.744C221.061 359.125 222.903 359.976 223.523 361.633Z" fill="white"/>
<path d="M237.273 356.554C237.892 358.211 237.04 360.054 235.384 360.673C233.727 361.292 231.884 360.441 231.265 358.784C230.645 357.127 231.497 355.284 233.154 354.665C234.811 354.046 236.653 354.897 237.273 356.554Z" fill="white"/>
<path d="M264.773 346.366C265.393 348.023 264.541 349.865 262.884 350.485C261.227 351.104 259.385 350.252 258.765 348.596C258.146 346.939 258.998 345.096 260.654 344.477C262.311 343.857 264.154 344.709 264.773 346.366Z" fill="white"/>
<path d="M278.523 341.287C279.143 342.944 278.291 344.786 276.634 345.406C274.977 346.025 273.135 345.173 272.515 343.516C271.896 341.86 272.748 340.017 274.404 339.398C276.061 338.778 277.904 339.63 278.523 341.287Z" fill="white"/>
<path d="M252.968 315.691L281.299 305.206C282.389 304.802 283.602 305.36 284.005 306.45L285.709 311.053L253.427 323.001L251.724 318.397C251.321 317.308 251.878 316.095 252.968 315.691Z" fill="white"/>
<path d="M255.824 322.119L283.342 311.934L294.833 342.982C295.435 344.608 294.608 346.433 292.967 347.041L271.359 355.038C269.732 355.64 267.907 354.813 267.3 353.172L255.809 322.125L255.824 322.119Z" fill="#E97429"/>
<path d="M261.281 322.111L260.947 322.235C260.209 322.508 259.832 323.327 260.105 324.065L270.274 351.54C270.547 352.278 271.367 352.655 272.105 352.382L272.439 352.258C273.176 351.985 273.553 351.165 273.28 350.428L263.111 322.952C262.838 322.215 262.019 321.838 261.281 322.111Z" fill="white"/>
<path d="M256.551 314.377L254.678 315.07L257.112 321.648L258.986 320.955L256.551 314.377Z" fill="#D1CFC5"/>
<path d="M260.409 312.942L258.536 313.635L260.971 320.214L262.844 319.521L260.409 312.942Z" fill="#D1CFC5"/>
<path d="M264.274 311.517L262.401 312.21L264.836 318.789L266.709 318.095L264.274 311.517Z" fill="#D1CFC5"/>
<path d="M268.138 310.081L266.265 310.775L268.7 317.353L270.573 316.66L268.138 310.081Z" fill="#D1CFC5"/>
<path d="M271.988 308.661L270.114 309.354L272.549 315.933L274.422 315.239L271.988 308.661Z" fill="#D1CFC5"/>
<path d="M275.853 307.241L273.979 307.934L276.414 314.513L278.288 313.819L275.853 307.241Z" fill="#D1CFC5"/>
<path d="M279.697 305.791L277.823 306.484L280.258 313.063L282.131 312.369L279.697 305.791Z" fill="#D1CFC5"/>
<defs>
<linearGradient id="paint0_linear_20_204365" x1="240.008" y1="222.468" x2="240.008" y2="390.725" gradientUnits="userSpaceOnUse">
<stop stop-color="white"/>
<stop offset="1" stop-color="white" stop-opacity="0.6"/>
</linearGradient>
</defs>
</svg>
