<svg width="1440" height="900" viewBox="0 0 1440 900" fill="none" xmlns="http://www.w3.org/2000/svg">
<g clip-path="url(#clip0_20_194345)">
<mask id="mask0_20_194345" style="mask-type:alpha" maskUnits="userSpaceOnUse" x="0" y="0" width="1440" height="900">
<path d="M0 150C0 67.1573 67.1573 0 150 0H1440V900H0V150Z" fill="#D9D9D9"/>
</mask>
<g mask="url(#mask0_20_194345)">
<rect width="1440" height="900" fill="white"/>
<path d="M156.772 0H1440V900H0.00019896L0 150C0 76.5 53.6854 0 156.772 0Z" fill="url(#paint0_radial_20_194345)"/>
<g opacity="0.2">
<mask id="mask1_20_194345" style="mask-type:luminance" maskUnits="userSpaceOnUse" x="17" y="131" width="1406" height="769">
<path d="M1422.85 131H17V899.933H1422.85V131Z" fill="white"/>
</mask>
<g mask="url(#mask1_20_194345)">
<path d="M1376.03 593.465C1376.03 815.619 1173.12 995.706 729.745 995.706C286.368 995.706 83.4766 815.602 83.4766 593.465C83.4766 371.328 286.385 191.224 729.763 191.224C1173.14 191.224 1376.05 371.31 1376.05 593.465H1376.03Z" fill="#3BAFBB"/>
<g opacity="0.3">
<mask id="mask2_20_194345" style="mask-type:luminance" maskUnits="userSpaceOnUse" x="83" y="191" width="1294" height="805">
<path d="M1376.03 593.465C1376.03 815.619 1173.12 995.706 729.745 995.706C286.368 995.706 83.4766 815.602 83.4766 593.465C83.4766 371.328 286.385 191.224 729.763 191.224C1173.14 191.224 1376.05 371.31 1376.05 593.465H1376.03Z" fill="white"/>
</mask>
<g mask="url(#mask2_20_194345)">
<path d="M408.5 149.369C408.5 149.369 187.215 354.842 187.215 568.15C187.215 798.298 408.5 1037.54 408.5 1037.54" stroke="#D2E9EB" stroke-width="2.25" stroke-miterlimit="10"/>
<path d="M488.802 149.369C488.802 149.369 322.838 354.842 322.838 568.15C322.838 798.298 488.802 1037.54 488.802 1037.54" stroke="#D2E9EB" stroke-width="2.25" stroke-miterlimit="10"/>
<path d="M569.122 149.369C569.122 149.369 458.48 354.842 458.48 568.15C458.48 798.298 569.122 1037.54 569.122 1037.54" stroke="#D2E9EB" stroke-width="2.25" stroke-miterlimit="10"/>
<path d="M649.443 149.369C649.443 149.369 594.122 354.842 594.122 568.15C594.122 798.298 649.443 1037.54 649.443 1037.54" stroke="#D2E9EB" stroke-width="2.25" stroke-miterlimit="10"/>
<path d="M729.763 149.369V1037.54" stroke="#D2E9EB" stroke-width="2.25" stroke-miterlimit="10"/>
<path d="M810.065 149.369C810.065 149.369 865.387 354.842 865.387 568.15C865.387 798.298 810.065 1037.54 810.065 1037.54" stroke="#D2E9EB" stroke-width="2.25" stroke-miterlimit="10"/>
<path d="M890.386 149.369C890.386 149.369 1001.03 354.842 1001.03 568.15C1001.03 798.298 890.386 1037.54 890.386 1037.54" stroke="#D2E9EB" stroke-width="2.25" stroke-miterlimit="10"/>
<path d="M970.706 149.369C970.706 149.369 1136.67 354.842 1136.67 568.15C1136.67 798.298 970.706 1037.54 970.706 1037.54" stroke="#D2E9EB" stroke-width="2.25" stroke-miterlimit="10"/>
<path d="M1051.03 149.369C1051.03 149.369 1272.31 354.842 1272.31 568.15C1272.31 798.298 1051.03 1037.54 1051.03 1037.54" stroke="#D2E9EB" stroke-width="2.25" stroke-miterlimit="10"/>
<path d="M42.5962 593.465H1416.93" stroke="#D2E9EB" stroke-width="1.66" stroke-miterlimit="10"/>
<path d="M42.5962 482.628H1416.93" stroke="#D2E9EB" stroke-width="1.66" stroke-miterlimit="10"/>
<path d="M42.5962 371.808H1416.93" stroke="#D2E9EB" stroke-width="1.66" stroke-miterlimit="10"/>
<path d="M42.5962 260.971H1416.93" stroke="#D2E9EB" stroke-width="1.66" stroke-miterlimit="10"/>
<path d="M42.5962 815.122H1416.93" stroke="#D2E9EB" stroke-width="1.66" stroke-miterlimit="10"/>
<path d="M42.5962 704.285H1416.93" stroke="#D2E9EB" stroke-width="1.66" stroke-miterlimit="10"/>
</g>
</g>
<path d="M89.7308 371.897L63.4844 387.814C56.791 391.882 55.2626 401.014 60.2519 407.09L66.5236 414.693C70.0372 418.957 70.4588 425.032 67.5425 429.74L55.0694 449.922C52.4342 454.185 52.5045 459.604 55.2275 463.814L65.3817 479.43C69.2642 485.399 77.1873 487.015 83.0725 483.071L105.893 467.687C109.354 465.342 113.746 464.88 117.629 466.425L173.67 488.792C176.059 489.751 178.097 491.403 179.538 493.535L210 539.014C212.337 542.514 212.846 546.938 211.335 550.881L196.526 589.592C194.418 595.099 196.28 601.335 201.058 604.746L249.774 639.53C251.179 640.525 252.356 641.804 253.27 643.278L285.964 696.823C287.492 699.31 289.793 701.193 292.517 702.188L375.876 732.194C383.483 734.929 386.663 744.043 382.481 751.007L370.202 771.401C367.812 775.363 367.725 780.32 369.973 784.37L388.771 818.319C389.983 820.505 391.775 822.263 393.971 823.436L416.071 835.143C422.185 838.376 424.627 845.944 421.588 852.198L387.506 922.584C386.171 925.355 385.855 928.517 386.628 931.502L402.017 990.909C403.475 996.576 408.535 1000.52 414.332 1000.52C421.359 1000.52 427.051 994.764 427.051 987.658V942.41C427.051 938.182 429.107 934.22 432.55 931.822L523.042 868.72C525.958 866.677 527.908 863.497 528.418 859.943L538.01 792.045C538.994 785.134 534.321 778.685 527.504 777.53L495.39 772.112C490.7 771.313 486.835 767.937 485.376 763.354L473.993 727.521C472.833 723.844 470.092 720.895 466.526 719.491L431.338 705.51C426.63 703.645 421.271 704.764 417.687 708.388L411.275 714.872C407.27 718.923 401.086 719.811 396.132 717.04L342.638 687.141C340.038 685.684 338.017 683.357 336.946 680.568L329.62 661.612C326.405 653.316 332.308 644.309 341.127 644.06L378.353 643.048C383.659 642.905 388.314 639.441 390.036 634.378L404.301 592.399C405.531 588.792 408.271 585.915 411.802 584.564L466.386 563.53C473.255 560.883 476.487 552.924 473.43 546.174L444.9 482.965C443.46 479.785 440.824 477.333 437.557 476.179L396.641 461.576C389.649 459.088 382.042 463.121 380.127 470.369L373.434 495.525C372.275 499.877 368.937 503.306 364.65 504.55L354.847 507.374C350.209 508.707 345.238 507.286 341.97 503.697L318.289 477.564C313.334 472.093 313.967 463.53 319.676 458.857L346.397 437.042C350.982 433.293 352.423 426.844 349.876 421.462L339.019 398.598C335.944 392.113 328.214 389.449 321.855 392.664L289.266 409.133C284.523 411.531 278.814 410.696 274.931 407.072L240.164 374.508C236.721 371.293 231.82 370.244 227.392 371.79L182.507 387.388C180.275 388.17 177.886 388.294 175.585 387.779L99.112 370.422C95.9322 369.694 92.5767 370.244 89.7835 371.95L89.7308 371.897Z" fill="#79902E"/>
<path d="M673.616 614.925L612.673 661.879C608.211 665.307 605.611 670.655 605.611 676.322V701.176C605.611 707.393 608.755 713.185 613.956 716.507L651.199 740.366C655.31 742.995 660.282 743.83 665.008 742.675L679.677 739.104C692.642 735.942 704.377 747.685 701.373 760.831L700.952 762.643C698.966 771.366 703.552 780.249 711.773 783.571L718.695 786.378C729.78 790.855 733.522 804.836 726.197 814.376C722.683 818.941 721.541 824.928 723.105 830.489L737.95 883.216C739.741 889.576 744.801 894.444 751.178 895.936L772.839 900.999C780.604 902.811 788.615 899.24 792.515 892.205L828.494 827.522C831.129 822.779 831.533 817.094 829.566 812.031C824.102 798.014 814.124 769.909 820.606 767.298C826.527 764.899 849.47 755.129 863.402 749.177C870.042 746.335 874.364 739.762 874.364 732.46V725.816C874.364 715.796 866.335 707.66 856.41 707.66H834.38C827.106 707.66 820.536 703.219 817.778 696.397L799.173 650.545C796.415 643.74 789.845 639.281 782.572 639.281H749.351C743.483 639.281 737.985 636.386 734.629 631.518L725.986 618.994C722.63 614.126 717.132 611.23 711.264 611.23H684.491C680.555 611.23 676.743 612.527 673.616 614.943V614.925Z" fill="#79902E"/>
<path d="M766.128 382.911L722.297 438.978C721.19 440.382 719.697 441.412 717.992 441.945L682.857 452.729C678.412 454.096 675.812 458.733 676.936 463.281L685.422 497.586C686.388 501.512 689.866 504.248 693.872 504.248H729.236C732.152 504.248 734.858 502.773 736.474 500.322L762.896 460.243C765.865 455.731 772.137 454.985 776.054 458.68L786.753 468.717C790.161 471.915 790.477 477.262 787.473 480.851L756.571 517.785C755.359 519.242 753.708 520.254 751.881 520.681L689.515 535.23C687.934 535.603 686.476 536.421 685.316 537.575L665.324 557.792C662.759 560.386 662.056 564.294 663.55 567.634L672.825 588.473C674.916 593.163 680.503 595.046 684.965 592.577L720.856 572.626C724.44 570.636 728.902 571.436 731.59 574.527L756.571 603.325C760.138 607.428 766.497 607.304 769.888 603.04L802.336 562.34C804.901 559.125 809.345 558.148 812.999 559.995L842.742 575.025C846.097 576.712 847.995 580.39 847.467 584.138L840.599 632.762C840.054 636.599 842.057 640.347 845.535 641.982L889.947 662.945C891.106 663.495 892.353 663.762 893.636 663.762H934.2C937.837 663.762 941.087 666.054 942.352 669.5L964.944 730.897C966.63 735.462 971.655 737.772 976.152 736.066L985.446 732.531C990.698 730.542 992.736 724.128 989.627 719.403L978.858 703.076C976.556 699.577 977.013 694.94 979.947 691.973L1004.98 666.658C1007.7 663.904 1011.9 663.282 1015.28 665.148L1044.19 680.994C1048.15 683.162 1049.81 688.011 1048.04 692.204L1042.98 704.142C1041.63 707.322 1042.26 711 1044.56 713.558L1058.55 728.996C1059.39 729.937 1060.02 731.039 1060.41 732.247L1061.81 736.67C1064.22 744.221 1074.51 744.949 1077.94 737.79C1079.56 734.414 1078.87 730.382 1076.25 727.735L1065.22 716.578C1062.95 714.286 1062.11 710.929 1063.04 707.82L1070.4 683.019C1071.35 679.822 1074.01 677.441 1077.27 676.873L1124.04 668.772C1128.78 667.955 1131.98 663.371 1131.14 658.574L1121.53 603.04C1120.91 599.487 1122.51 595.899 1125.55 594.016L1163.5 570.494C1164.87 569.642 1166.45 569.198 1168.05 569.198H1203.09C1206.62 569.198 1209.82 567.03 1211.16 563.726L1222.24 536.243C1223.63 532.814 1222.73 528.87 1220.03 526.383L1194.71 503.217C1191.11 499.913 1190.87 494.264 1194.2 490.675L1209.42 474.26C1212.19 471.275 1216.62 470.618 1220.13 472.661L1241.44 485.132C1244.8 487.087 1249.02 486.589 1251.83 483.871L1261.61 474.42C1268.18 468.078 1278.76 474.846 1275.89 483.569L1274.19 488.774C1273.51 490.835 1272.12 492.558 1270.26 493.642L1257.5 501.014C1252.93 503.661 1251.7 509.773 1254.9 514.001L1266.9 529.883C1269.48 533.312 1274.16 534.324 1277.92 532.299L1316.32 511.585C1320.32 509.417 1322.01 504.514 1320.2 500.304L1310.05 476.676C1307.94 471.791 1310.59 466.141 1315.67 464.685L1358.55 452.48C1360.48 451.929 1362.17 450.721 1363.33 449.051L1380.27 424.571C1383.23 420.289 1381.86 414.356 1377.35 411.815L1326.14 383.195C1322.52 381.17 1318 382.005 1315.32 385.167L1304.14 398.349C1301.28 401.724 1296.36 402.417 1292.71 399.948L1229.66 357.436C1227.53 355.997 1224.9 355.588 1222.44 356.299L1180.68 368.361C1178.78 368.912 1176.76 368.788 1174.93 368.024L1120.28 345C1117.24 343.721 1115.18 340.825 1114.94 337.503L1112.25 299.361C1112 295.968 1109.86 293.037 1106.73 291.793L1075.96 279.606C1073.44 278.611 1070.61 278.86 1068.31 280.263L1005.35 318.459C1003.59 319.525 1002.26 321.195 1001.59 323.149L983.671 376.018C982.547 379.322 979.595 381.65 976.135 381.934L919.25 386.606C918.196 386.695 917.177 386.979 916.211 387.423L853.722 417.447C850.454 419.01 846.572 418.371 843.954 415.848L807.641 380.602C805.92 378.932 803.583 378.043 801.194 378.168L772.488 379.553C769.976 379.678 767.639 380.886 766.076 382.893L766.128 382.911Z" fill="#79902E"/>
<path d="M1170.93 810.698L1148.11 833.296C1145.88 835.499 1142.89 836.725 1139.78 836.725H1115.92C1110.6 836.725 1105.91 840.295 1104.47 845.483L1100.88 858.327C1099.44 863.443 1101.52 868.915 1105.96 871.775L1109.88 874.28C1114.6 877.3 1116.61 883.252 1114.69 888.563L1114.2 889.914C1111.97 896.132 1115.11 903.007 1121.25 905.316C1125.23 906.808 1129.73 906.027 1133 903.273L1154.59 885.082C1157.33 882.772 1160.93 881.83 1164.43 882.506L1182.15 885.916C1184.79 886.432 1187.18 887.817 1188.93 889.86L1211.33 916.046C1213.93 919.084 1217.83 920.594 1221.77 920.115L1236.46 918.303C1240.06 917.858 1243.25 915.78 1245.15 912.671C1250.6 903.717 1261.47 885.561 1260.98 884.069C1260.44 882.417 1251.3 862.004 1248.28 855.289C1247.65 853.886 1246.75 852.607 1245.64 851.541L1224.16 830.898C1222.31 829.121 1221.08 826.794 1220.63 824.271L1219.13 815.761C1218.13 810.006 1213.2 805.813 1207.42 805.813H1204.43C1202.69 805.813 1200.97 806.204 1199.4 806.95L1196.03 808.531C1193.45 809.739 1190.53 809.988 1187.79 809.206L1182.4 807.678C1178.31 806.524 1173.9 807.661 1170.86 810.663L1170.93 810.698Z" fill="#79902E"/>
<path d="M1109 741.005L1099.18 752.411C1098.72 752.944 1098.09 753.263 1097.41 753.334L1078.84 755.075C1076.99 755.253 1075.89 757.207 1076.66 758.913L1085.06 777.246C1085.57 778.348 1086.72 778.97 1087.9 778.774L1105.82 775.879C1106.89 775.701 1107.75 774.901 1108 773.836L1109.76 766.41C1110.02 765.344 1110.88 764.527 1111.97 764.367L1119.59 763.23C1120.91 763.034 1121.88 761.897 1121.88 760.547V754.756C1121.88 753.583 1121.14 752.553 1120.05 752.197L1117.96 751.487C1115.85 750.776 1115.47 747.916 1117.33 746.672C1119.17 745.429 1118.8 742.569 1116.7 741.858L1111.88 740.241C1110.86 739.904 1109.72 740.206 1109.02 741.023L1109 741.005Z" fill="#79902E"/>
<path d="M1032.95 735.711H1038.25C1040.24 735.711 1041.91 737.168 1042.22 739.14L1044.05 750.545C1044.19 751.451 1044.63 752.269 1045.3 752.89L1068.35 774.28C1069.74 775.559 1070.05 777.655 1069.12 779.307L1066.29 784.299C1065.01 786.573 1061.95 787.053 1060.06 785.259L1040.94 767.334C1040.29 766.73 1039.85 765.912 1039.71 765.042L1037.78 753.654C1037.52 752.073 1036.36 750.794 1034.83 750.403L1030.96 749.391C1028.94 748.858 1027.66 746.833 1028.01 744.754L1028.98 739.122C1029.31 737.168 1030.98 735.747 1032.95 735.747V735.711Z" fill="#79902E"/>
<path d="M1074.18 782.807L1073.41 784.121C1072.21 786.164 1073.67 788.74 1076.03 788.74H1076.29C1077.4 788.74 1078.41 789.362 1078.96 790.339L1079.84 791.956C1080.36 792.933 1081.38 793.555 1082.51 793.555H1104.63C1105.66 793.555 1106.63 793.022 1107.17 792.151C1108.47 790.108 1107.01 787.426 1104.63 787.426H1104.4C1102.97 787.426 1101.73 786.413 1101.43 784.992L1101.15 783.713C1100.85 782.291 1099.62 781.279 1098.18 781.279H1076.8C1075.73 781.279 1074.73 781.847 1074.18 782.789V782.807Z" fill="#79902E"/>
<path d="M1115.78 790.393C1114.87 792.08 1115.64 794.177 1117.4 794.87L1119.44 795.669C1120.86 796.22 1122.46 795.669 1123.25 794.372L1123.72 793.573C1125 791.459 1123.49 788.74 1121.05 788.74H1118.54C1117.4 788.74 1116.34 789.38 1115.78 790.393Z" fill="#56682F"/>
<path d="M1136.62 792.063V793.022C1136.62 795.012 1138.22 796.628 1140.18 796.628H1145.75C1146.3 796.628 1146.86 796.504 1147.35 796.255L1150.69 794.568C1151.9 793.964 1152.66 792.702 1152.66 791.352C1152.66 789.238 1150.88 787.586 1148.81 787.764L1139.9 788.492C1138.06 788.652 1136.62 790.215 1136.62 792.081V792.063Z" fill="#56682F"/>
<path d="M1125.99 759.659L1122.3 770.851C1122.04 771.633 1121.44 772.255 1120.65 772.521L1115.85 774.138C1114.8 774.493 1114.08 775.506 1114.08 776.625V777.247C1114.08 778.366 1114.78 779.361 1115.83 779.734L1118.61 780.711C1119.66 781.084 1120.37 782.079 1120.37 783.198V785.277H1126.66C1128.1 785.277 1129.26 784.104 1129.26 782.647C1129.26 780.889 1130.92 779.627 1132.59 780.125L1134.33 780.64C1135.63 781.031 1137 780.338 1137.5 779.059L1137.76 778.348C1138.32 776.891 1137.5 775.275 1136 774.866L1134.37 774.422C1133.16 774.102 1132.37 772.948 1132.45 771.704L1132.59 769.839C1132.68 768.613 1133.6 767.618 1134.81 767.423L1139.2 766.747C1140.46 766.552 1141.41 765.451 1141.41 764.154V761.738C1141.41 760.405 1140.43 759.286 1139.11 759.126L1128.76 757.9C1127.53 757.758 1126.39 758.504 1125.99 759.677V759.659Z" fill="#79902E"/>
<path d="M1168.15 757.882L1160.35 761.489C1159.37 761.951 1158.73 762.945 1158.73 764.029C1158.73 765.575 1159.98 766.836 1161.51 766.836H1161.67C1162.9 766.836 1163.97 767.653 1164.32 768.826L1165.22 771.864C1165.5 772.805 1166.25 773.534 1167.2 773.782L1176.99 776.216C1178.5 776.589 1179.41 778.17 1178.99 779.68L1176.94 787.159C1176.67 788.137 1176.94 789.185 1177.64 789.895L1183.63 795.953C1184.07 796.397 1184.63 796.682 1185.24 796.753L1200.63 798.707C1201.28 798.796 1201.93 798.636 1202.48 798.28L1210.81 792.844C1211.58 792.347 1212.55 792.258 1213.39 792.613L1220.12 795.474C1221.61 796.113 1223.31 795.331 1223.82 793.768L1224.74 790.997C1225.16 789.7 1224.6 788.279 1223.4 787.639L1212.35 781.706C1211.86 781.439 1211.47 781.048 1211.21 780.551L1207.19 772.929C1206.71 772.023 1205.76 771.455 1204.75 771.455H1188.02C1187.05 771.455 1186.16 770.94 1185.65 770.105L1184.56 768.293C1183.89 767.191 1182.57 766.694 1181.36 767.085L1178.06 768.133C1176.51 768.63 1174.9 767.689 1174.53 766.09L1173.11 759.819C1172.81 758.54 1171.7 757.651 1170.4 757.651H1169.31C1168.91 757.651 1168.52 757.74 1168.17 757.9L1168.15 757.882Z" fill="#79902E"/>
<path d="M1125.3 698.315L1121.42 700.483C1120.77 700.838 1120.4 701.566 1120.49 702.295L1121.6 712.226C1121.74 713.451 1122.98 714.198 1124.11 713.718L1128.99 711.639C1129.66 711.355 1130.1 710.68 1130.1 709.952V702.615C1130.1 702.188 1129.96 701.797 1129.7 701.46L1127.59 698.795C1127.04 698.102 1126.06 697.907 1125.29 698.333L1125.3 698.315Z" fill="#56682F"/>
<path d="M1131.38 721.499L1128.94 722.263C1127.64 722.671 1126.83 724.004 1127.08 725.372L1127.24 726.242C1127.52 727.806 1129.03 728.8 1130.56 728.427L1133.31 727.752C1135.02 727.326 1135.88 725.425 1135.11 723.844L1134.63 722.885C1134.03 721.676 1132.66 721.09 1131.38 721.481V721.499Z" fill="#56682F"/>
<path d="M1144.79 733.384L1138.87 735.054C1137.53 735.427 1136.62 736.653 1136.62 738.056V740.206C1136.62 741.218 1137.11 742.178 1137.93 742.746L1143.54 746.726C1144.24 747.223 1145.12 747.401 1145.96 747.223L1149.11 746.53C1150.97 746.122 1152.02 744.114 1151.32 742.338L1148.49 735.214C1147.91 733.739 1146.31 732.94 1144.8 733.366L1144.79 733.384Z" fill="#56682F"/>
<path d="M478.156 170.67L434.36 199.058C429.985 201.901 427.086 206.591 426.507 211.814L418.777 281.24C417.793 290.141 423.608 298.366 432.269 300.267L450.276 304.246C455.546 305.419 459.991 309.008 462.257 313.964L487.362 368.663C490.419 375.325 489.031 383.195 483.901 388.383L472.113 400.303C466.491 405.988 465.437 414.817 469.53 421.693L497.498 468.557C501.434 475.166 509.199 478.364 516.595 476.463L520.266 475.521C530.508 472.874 536.007 461.647 531.914 451.787L528.945 444.663C524.816 434.75 530.438 423.451 540.768 420.893L573.602 412.757C580.383 411.069 585.496 405.437 586.567 398.456L593.718 351.946C593.84 351.182 593.999 350.418 594.227 349.672L619.173 264.381C620.473 259.922 619.964 255.126 617.768 251.057L611.233 238.924C607.842 232.635 608.58 224.871 613.13 219.364L621.51 209.202C627.237 202.256 626.78 192.041 620.456 185.646C615.431 180.565 607.825 179.108 601.307 181.986L587.34 188.168C578.205 192.201 567.612 187.635 564.186 178.166L560.356 167.632C557.861 160.739 551.379 156.173 544.123 156.173H506.44C503.261 156.173 500.134 157.061 497.428 158.731L478.174 170.634L478.156 170.67Z" fill="#79902E"/>
<path d="M327.986 192.947L317.972 201.865C308.784 210.037 307.959 224.214 316.11 233.434C320.713 238.639 322.628 245.71 321.31 252.55L320.116 258.696C318.535 266.833 321.574 275.183 327.969 280.352L343.885 293.214C345.835 294.778 348.013 296.021 350.368 296.838L350.596 296.927C362.63 301.191 375.7 294.262 379.091 281.827L381.445 273.193C382.605 268.929 382.482 264.417 381.111 260.224L378.09 251.057C374.4 239.865 379.969 227.714 390.809 223.344L400.014 219.613C406.62 216.948 411.539 211.21 413.225 204.228L419.48 178.344C422.413 166.193 414.877 153.97 402.79 151.305L399.733 150.63C390.001 148.481 380.04 153.206 375.472 162.16L368.919 174.969C365.3 182.057 358.203 186.641 350.332 186.996L341.548 187.387C336.542 187.618 331.746 189.554 327.986 192.912V192.947Z" fill="#56682F"/>
<path d="M231.433 280.779L221.894 292.308C219.663 295.009 219.557 298.917 221.648 301.724L230.133 313.165C232.224 315.972 235.93 316.967 239.128 315.563L257.521 307.48C261 305.952 262.792 302.044 261.72 298.384L257.381 283.515C256.432 280.299 253.516 278.078 250.196 278.078H237.195C234.982 278.078 232.874 279.073 231.451 280.796L231.433 280.779Z" fill="#56682F"/>
<path d="M298.384 308.386L285.155 324.641C284.101 325.938 284.47 327.892 285.946 328.692L293.623 332.849C294.589 333.382 295.784 333.24 296.61 332.493L306.448 323.753C307.273 323.025 307.554 321.852 307.186 320.822L302.917 309.15C302.214 307.213 299.702 306.787 298.402 308.386H298.384Z" fill="#79902E"/>
<path d="M364.053 328.585L355.48 332.245C353.372 333.151 352.001 335.229 352.001 337.557V343.686C352.001 347.132 354.988 349.815 358.379 349.406L371.15 347.86C375.103 347.381 377.369 343.064 375.542 339.493L371.326 331.232C369.956 328.55 366.794 327.395 364.035 328.567L364.053 328.585Z" fill="#56682F"/>
<path d="M337.174 573.07L317.322 581.562C312.439 583.658 309.259 588.49 309.259 593.856V608.068C309.259 616.062 316.163 622.28 324.033 621.321L353.653 617.75C362.806 616.648 368.058 606.647 363.825 598.368L354.057 579.235C350.895 573.035 343.534 570.334 337.174 573.052V573.07Z" fill="#56682F"/>
<path d="M371.449 366.62L359.678 378.026C358.168 379.482 357.641 381.685 358.291 383.675L360.311 389.804C361.576 393.641 366.389 394.796 369.235 391.936L376.421 384.67C378.142 382.929 380.777 382.574 382.886 383.782L403.897 395.844C406.216 397.177 407.217 400.019 406.251 402.542L400.857 416.63C400.383 417.873 399.487 418.886 398.31 419.49L385.468 426.223C383.676 427.164 382.569 429.03 382.569 431.055V435.23C382.569 438.961 386.206 441.59 389.702 440.382L398.521 437.308C401.244 436.367 404.213 437.735 405.267 440.435L409.817 451.929C410.643 453.99 412.61 455.358 414.824 455.358H427.578C431.303 455.358 433.903 451.609 432.638 448.056L421.658 417.251C421.201 415.955 421.236 414.533 421.781 413.254C423.256 409.754 427.736 408.831 430.459 411.478L435.642 416.505C438.312 419.099 442.722 418.246 444.268 414.853L446.288 410.394C447.412 407.907 446.534 404.958 444.25 403.501L418.935 387.512C417.723 386.748 416.862 385.523 416.546 384.119L413.787 372.003C413.383 370.262 412.171 368.841 410.537 368.166L396.237 362.392C394.603 361.735 393.391 360.314 392.987 358.591L392.003 354.362C391.424 351.911 389.263 350.17 386.768 350.17H379.513C376.807 350.17 374.523 352.195 374.172 354.913L373.083 363.387C372.925 364.613 372.362 365.75 371.466 366.62H371.449Z" fill="#79902E"/>
<path d="M215.095 326.506H220.857C223.124 326.506 225.214 327.803 226.233 329.864L228.763 334.998C229.782 337.059 231.855 338.356 234.121 338.356C239.269 338.356 242.027 344.485 238.636 348.411L223.616 365.821C221.859 367.864 218.995 368.468 216.571 367.331L208.806 363.689C205.468 362.126 204.291 357.915 206.346 354.824L209.684 349.761C210.475 348.553 210.826 347.096 210.65 345.657L209.157 333.328C208.718 329.704 211.511 326.524 215.113 326.524L215.095 326.506Z" fill="#56682F"/>
<path d="M867.038 462.642V443.633C867.038 436.953 861.68 431.535 855.075 431.535H842.865C841.126 431.535 839.404 431.926 837.823 432.654L809.486 445.942C805.252 447.932 802.547 452.213 802.547 456.921V473.425C802.547 480.105 807.905 485.523 814.511 485.523C821.116 485.523 826.474 490.942 826.474 497.621V518.798C826.474 522.813 828.442 526.579 831.745 528.817L857.464 546.387C859.449 547.737 861.768 548.466 864.157 548.466H872.116C878.721 548.466 884.079 543.047 884.079 536.367V488.455C884.079 484.884 882.516 481.508 879.828 479.199L871.237 471.88C868.532 469.588 866.986 466.195 866.986 462.624L867.038 462.642Z" fill="#56682F"/>
<path d="M755.64 671.081H781.781C790.969 671.081 798.418 678.614 798.418 687.905V705.066C798.418 707.518 797.891 709.934 796.872 712.137L778.602 751.984C775.879 757.936 769.976 761.737 763.493 761.737H740.796C731.608 761.737 724.159 754.205 724.159 744.914C724.159 735.623 716.71 728.09 707.522 728.09H678.412C672.878 728.09 667.713 725.319 664.621 720.682L640.448 684.494C638.586 681.705 637.602 678.436 637.602 675.079V663.886C637.602 654.595 645.051 647.063 654.239 647.063H720.136C725.037 647.063 729.693 649.248 732.855 653.05L742.921 665.112C746.084 668.914 750.739 671.099 755.64 671.099V671.081Z" fill="#EFCB7E"/>
<path d="M925.153 607.393H939.031C939.611 607.393 940.156 607.571 940.63 607.908L951.786 616.062C952.523 616.595 952.945 617.484 952.91 618.39L952.383 632.637C952.33 634.112 951.118 635.284 949.66 635.284H940.841C939.33 635.284 938.118 634.059 938.118 632.531V624.377C938.118 623.701 937.872 623.044 937.433 622.547L933.269 617.857C932.76 617.27 932.022 616.933 931.249 616.933H925.17C923.66 616.933 922.447 615.707 922.447 614.179V610.147C922.447 608.619 923.66 607.393 925.17 607.393H925.153Z" fill="#596A2F"/>
<path d="M946.462 412.668H971.532C978.137 412.668 983.495 418.086 983.495 424.766V427.875C983.495 434.555 988.854 439.973 995.459 439.973H1008.74C1015.35 439.973 1020.7 445.392 1020.7 452.071V486.323C1020.7 488.916 1019.88 491.439 1018.35 493.518L999.552 519.171C997.304 522.244 993.737 524.074 989.943 524.074H970.372C963.767 524.074 958.408 518.655 958.408 511.976V492.665C958.408 485.985 953.05 480.567 946.445 480.567C939.839 480.567 934.481 475.148 934.481 468.469V424.784C934.481 418.104 939.839 412.686 946.445 412.686L946.462 412.668Z" fill="#596A2F"/>
<path d="M302.038 488.383L284.312 506.309C279.639 511.034 272.067 511.034 267.394 506.309L265.216 504.106C260.543 499.38 252.971 499.38 248.298 504.106L238.917 513.592C234.244 518.318 226.672 518.318 221.999 513.592L198.054 489.378C196.245 487.549 195.05 485.168 194.681 482.61L190.043 451.041C189.481 447.257 190.728 443.42 193.416 440.702L207.242 426.72C211.915 421.995 219.487 421.995 224.16 426.72L237.669 440.382C242.343 445.107 249.914 445.107 254.587 440.382C259.26 435.656 266.832 435.656 271.505 440.382L302.056 471.276C306.729 476.001 306.729 483.658 302.056 488.383H302.038Z" fill="#596A2F"/>
<path d="M874.364 571.347V615.796C874.364 621.658 879.072 626.42 884.869 626.42H899.17C904.967 626.42 909.675 621.658 909.675 615.796V598.475C909.675 592.612 914.383 587.851 920.181 587.851H923.993C929.79 587.851 934.499 583.09 934.499 577.228V571.347C934.499 565.485 929.79 560.724 923.993 560.724H884.869C879.072 560.724 874.364 565.485 874.364 571.347Z" fill="#EFCB7E"/>
<path d="M287.65 669.056L300.861 670.601C301.968 670.726 302.952 671.383 303.514 672.36L314.758 692.026C315.706 693.678 317.762 694.282 319.431 693.412C321.1 692.541 321.802 690.481 321.029 688.757L315.214 675.878C314.687 674.705 314.828 673.337 315.566 672.289L317.973 668.931C318.886 667.652 318.869 665.911 317.92 664.65L310.717 655.163C309.909 654.097 308.591 653.582 307.291 653.813L290.514 656.816C289.214 657.047 287.896 656.531 287.088 655.465L276.407 641.378C275.089 639.637 272.524 639.494 271.031 641.093L270.82 641.324C269.679 642.55 269.538 644.415 270.469 645.801L285.138 667.51C285.718 668.363 286.631 668.931 287.65 669.038V669.056Z" fill="#EFCB7E"/>
<path d="M757.748 861.525H758.644C763.844 861.525 768.043 865.788 768.043 871.029C768.043 876.288 772.259 880.534 777.442 880.534H790.073C795.273 880.534 799.472 876.27 799.472 871.029V859.784C799.472 856.657 797.961 853.744 795.414 851.967L776.318 838.59C774.737 837.488 772.874 836.902 770.959 836.902H757.731C752.531 836.902 748.332 841.166 748.332 846.406V852.003C748.332 857.261 752.548 861.507 757.731 861.507L757.748 861.525Z" fill="#596A2F"/>
<path d="M460.413 800.305H459.517C454.317 800.305 450.118 796.042 450.118 790.801C450.118 785.543 445.902 781.297 440.719 781.297H428.088C422.888 781.297 418.689 785.56 418.689 790.801V802.046C418.689 805.173 420.2 808.087 422.747 809.863L441.843 823.24C443.424 824.342 445.287 824.928 447.202 824.928H460.43C465.63 824.928 469.829 820.664 469.829 815.424V809.828C469.829 804.569 465.613 800.323 460.43 800.323L460.413 800.305Z" fill="#EFCB7E"/>
<path d="M820.343 727.717L826.773 734.344C827.264 734.841 827.528 735.516 827.528 736.227V741.805C827.528 743.67 825.701 744.967 823.979 744.328L812.911 740.313C811.857 739.922 811.155 738.927 811.155 737.79V735.783C811.155 734.521 810.276 733.42 809.047 733.153L804.69 732.23C803.46 731.963 802.582 730.879 802.582 729.6C802.582 728.126 803.776 726.918 805.234 726.918H818.445C819.166 726.918 819.833 727.202 820.343 727.717Z" fill="#EFCB7E"/>
<path d="M762.281 768.755L776.44 783.34C777.512 784.441 778.109 785.934 778.109 787.479V799.773C778.109 803.859 774.104 806.719 770.292 805.351L745.89 796.522C743.553 795.687 742.008 793.448 742.008 790.943V786.52C742.008 783.713 740.075 781.297 737.352 780.728L727.76 778.685C725.055 778.117 723.104 775.701 723.104 772.894C723.104 769.625 725.722 766.978 728.955 766.978H758.082C759.646 766.978 761.156 767.618 762.263 768.755H762.281Z" fill="#596A2F"/>
<path d="M1139.9 871.349L1150.92 870.496C1152.36 870.39 1153.66 871.385 1153.94 872.806C1154.25 874.387 1153.22 875.915 1151.65 876.199L1140.87 878.189C1140.34 878.278 1139.81 878.224 1139.3 878.029L1130.61 874.565C1128.99 873.925 1128.32 871.989 1129.17 870.461L1129.47 869.928C1130.19 868.649 1131.75 868.116 1133.09 868.702L1138.53 871.1C1138.95 871.296 1139.43 871.367 1139.88 871.331L1139.9 871.349Z" fill="#596A2F"/>
<path d="M1213.14 856.977V857.51C1213.14 859.055 1214.13 860.423 1215.57 860.903L1221 862.715C1222.45 863.195 1223.42 864.563 1223.42 866.108V876.856C1223.42 877.904 1223.88 878.917 1224.68 879.592L1227.18 881.706C1227.97 882.381 1228.44 883.394 1228.44 884.442V896.558C1228.44 897.571 1228.87 898.548 1229.62 899.223L1231.01 900.466C1232.03 901.39 1233.47 901.639 1234.72 901.106L1241.85 898.121C1244.08 897.197 1244.75 894.337 1243.18 892.472L1242.45 891.601C1242.04 891.122 1241.76 890.536 1241.66 889.896L1239.97 880.338C1239.85 879.645 1239.93 878.917 1240.21 878.26L1242.43 873.179C1242.88 872.131 1242.81 870.923 1242.25 869.946L1233.43 854.561C1233.26 854.259 1233.13 853.939 1233.05 853.584L1231.99 849.054C1231.61 847.437 1230.18 846.3 1228.55 846.3H1226.21C1224.46 846.3 1222.96 847.597 1222.72 849.356C1222.51 850.777 1221.47 851.949 1220.08 852.305L1215.8 853.406C1214.23 853.815 1213.12 855.236 1213.12 856.87L1213.14 856.977Z" fill="#596A2F"/>
<path d="M795.959 787.692L802.564 786.236C803.618 786.005 804.708 786.484 805.252 787.426L806.868 790.18C807.272 790.872 807.325 791.707 807.027 792.436L801.651 805.529C801.212 806.595 800.122 807.216 798.998 807.057L793.956 806.346C792.568 806.15 791.602 804.836 791.83 803.432L794.044 789.735C794.202 788.705 794.975 787.888 795.976 787.675L795.959 787.692Z" fill="#EFCB7E"/>
<path d="M559.478 257.63L568.929 250.435C570.44 249.281 572.495 249.245 574.059 250.329L578.609 253.527C579.733 254.326 580.436 255.605 580.489 256.991L581.402 281.791C581.473 283.799 580.19 285.611 578.293 286.197L569.755 288.791C567.401 289.501 564.924 288.116 564.274 285.735L557.914 262.32C557.44 260.579 558.072 258.714 559.495 257.613L559.478 257.63Z" fill="#EFCB7E"/>
<path d="M253.551 538.908L269.397 535.426C271.927 534.875 274.527 536.012 275.845 538.268L279.71 544.895C280.676 546.547 280.816 548.537 280.079 550.313L267.166 581.758C266.112 584.298 263.512 585.826 260.807 585.435L248.685 583.73C245.347 583.268 243.045 580.105 243.59 576.748L248.913 543.864C249.317 541.413 251.144 539.441 253.551 538.908Z" fill="#EFCB7E"/>
<path d="M494.758 796.806L503.085 786.591C504.684 784.619 507.565 784.335 509.532 785.916L514.311 789.789C515.4 790.677 516.033 792.009 516.033 793.413V840.846C516.033 841.61 515.839 842.356 515.488 843.031L502.839 866.979C501.68 869.164 499.044 870.052 496.831 869.004C494.617 867.956 493.598 865.362 494.494 863.07L503.208 840.81C503.946 838.91 503.384 836.742 501.82 835.463L499.8 833.811C498.465 832.727 497.832 830.986 498.166 829.299L500.503 817.094C500.696 816.117 500.555 815.086 500.134 814.18L494.196 801.745C493.405 800.11 493.651 798.156 494.793 796.753L494.758 796.806Z" fill="#596A2F"/>
<path d="M918.828 513.272L922.851 514.143C924.011 514.392 924.995 515.138 925.574 516.186L930.423 525.228C930.739 525.832 930.915 526.508 930.915 527.183V530.825C930.915 533.081 929.105 534.928 926.857 534.928H919.39C917.985 534.928 916.685 534.2 915.947 532.992L914.524 530.682C914.12 530.043 913.927 529.297 913.927 528.533V517.305C913.927 514.694 916.298 512.757 918.828 513.29V513.272Z" fill="#596A2F"/>
<path d="M236.545 401.885L240.569 402.755C241.728 403.004 242.712 403.75 243.292 404.798L248.14 413.841C248.456 414.445 248.632 415.12 248.632 415.795V419.437C248.632 421.693 246.823 423.54 244.574 423.54H237.108C235.702 423.54 234.402 422.812 233.664 421.604L232.241 419.294C231.837 418.655 231.644 417.909 231.644 417.145V405.917C231.644 403.306 234.016 401.369 236.545 401.902V401.885Z" fill="#596A2F"/>
<path d="M313.563 507.25L320.906 508.831C323.015 509.293 324.824 510.643 325.861 512.562L334.715 529.03C335.312 530.132 335.611 531.357 335.611 532.601V539.228C335.611 543.349 332.308 546.689 328.232 546.689H314.617C312.052 546.689 309.681 545.356 308.328 543.154L305.745 538.925C305.025 537.753 304.639 536.385 304.639 534.999V514.552C304.639 509.808 308.96 506.255 313.563 507.25Z" fill="#596A2F"/>
<path d="M1310.63 601.424L1314.9 594.673C1315.72 593.376 1317.13 592.594 1318.66 592.594H1332.66C1333.94 592.594 1335.17 593.145 1336.01 594.122L1349.93 610.129C1350.65 610.946 1351.03 612.012 1351.03 613.113V622.174C1351.03 624.821 1348.78 626.917 1346.17 626.668L1328.32 625.034C1326.02 624.821 1324.26 622.866 1324.26 620.539C1324.26 618.052 1322.27 616.045 1319.81 616.027L1300.93 615.92C1298.47 615.92 1296.48 613.895 1296.48 611.408V611.266C1296.48 609.436 1297.57 607.802 1299.24 607.091L1308.57 603.165C1309.41 602.81 1310.13 602.205 1310.63 601.424Z" fill="#596A2F"/>
<path d="M441.264 860.245L445.533 853.495C446.358 852.198 447.764 851.416 449.292 851.416H463.294C464.576 851.416 465.806 851.967 466.649 852.944L480.563 868.95C481.283 869.768 481.67 870.833 481.67 871.935V880.995C481.67 883.642 479.421 885.738 476.803 885.49L458.955 883.855C456.653 883.642 454.896 881.688 454.896 879.361C454.896 876.874 452.911 874.866 450.452 874.848L431.566 874.742C429.107 874.742 427.122 872.717 427.122 870.229V870.087C427.122 868.257 428.211 866.623 429.88 865.912L439.208 861.986C440.052 861.631 440.772 861.027 441.264 860.245Z" fill="#596A2F"/>
<path d="M1010.34 602.33L1018.84 588.864C1020.48 586.27 1023.32 584.707 1026.36 584.707H1054.31C1056.88 584.707 1059.32 585.826 1061.01 587.762L1088.78 619.722C1090.2 621.374 1090.99 623.488 1090.99 625.673V643.776C1090.99 649.07 1086.5 653.227 1081.28 652.748L1045.65 649.479C1041.07 649.053 1037.53 645.162 1037.53 640.507C1037.53 635.551 1033.58 631.518 1028.66 631.501L990.962 631.27C986.061 631.234 982.09 627.219 982.09 622.263V621.978C982.09 618.336 984.251 615.05 987.589 613.646L1006.23 605.812C1007.92 605.101 1009.34 603.893 1010.32 602.348L1010.34 602.33Z" fill="#EFCB7E"/>
<path d="M1220.13 569.908L1220.33 570.903C1220.56 572.058 1221.36 573.017 1222.45 573.408L1234.96 577.991C1235.33 578.116 1235.7 578.187 1236.09 578.187H1250.09C1251.44 578.187 1252.67 579.022 1253.16 580.301C1254.02 582.486 1256.78 583.108 1258.49 581.527L1263.28 577.085C1263.97 576.446 1264.35 575.558 1264.35 574.616V567.119C1264.35 565.556 1263.28 564.188 1261.77 563.85L1239.46 558.716C1238.74 558.556 1237.98 558.627 1237.32 558.947L1221.96 566.231C1220.57 566.888 1219.82 568.398 1220.12 569.926L1220.13 569.908Z" fill="#596A2F"/>
<path d="M534.953 368.788L538.256 367.438C542.12 365.856 544.861 362.357 545.511 358.2L552.96 310.66C553.171 309.292 553.153 307.888 552.89 306.521L543.438 256.778C542.525 251.963 544.598 247.078 548.673 244.413C555.648 239.865 555.981 229.686 549.323 224.676L530.649 210.677C527.978 208.67 524.605 207.906 521.338 208.527L495.32 213.591C489.874 214.656 485.886 219.364 485.71 224.978L482.952 307.675C482.864 310.358 483.655 312.969 485.218 315.137L520.916 364.737C524.113 369.196 529.911 370.866 534.97 368.805L534.953 368.788Z" fill="#596A2F"/>
<path d="M1050.99 395.151L1051.41 397.354C1051.9 399.912 1053.71 402.027 1056.14 402.915L1083.95 413.077C1084.76 413.379 1085.6 413.521 1086.46 413.521H1117.57C1120.58 413.521 1123.3 415.368 1124.41 418.193C1126.32 423.025 1132.44 424.429 1136.23 420.911L1146.88 411.033C1148.4 409.63 1149.27 407.623 1149.27 405.544V388.898C1149.27 385.416 1146.88 382.396 1143.52 381.632L1093.96 370.227C1092.36 369.854 1090.68 370.049 1089.2 370.742L1055.08 386.944C1052.03 388.401 1050.32 391.776 1050.99 395.134V395.151Z" fill="#596A2F"/>
<path d="M1141.92 843.511L1131.82 857.528C1130.29 859.642 1131.79 862.626 1134.39 862.626H1184.21C1184.96 862.626 1185.68 862.36 1186.26 861.862L1204.97 845.856C1207.27 843.884 1205.82 840.1 1202.81 840.207L1144.4 842.196C1143.42 842.232 1142.52 842.711 1141.94 843.511H1141.92Z" fill="#EFCB7E"/>
<path d="M990.241 539.725L982.266 561.647C981.774 563.015 982.617 564.508 984.022 564.774L1011.01 569.731C1011.74 569.873 1012.5 569.624 1013.04 569.109L1041.38 541.2C1041.84 540.755 1042.08 540.151 1042.08 539.512V532.726C1042.08 531.269 1040.8 530.167 1039.38 530.398L992.033 538.197C991.208 538.339 990.523 538.908 990.224 539.707L990.241 539.725Z" fill="#EFCB7E"/>
<path d="M1269.31 618.727H1275.21C1275.67 618.727 1276.11 618.869 1276.46 619.135L1287 626.863C1288.46 627.929 1288.03 630.239 1286.28 630.701L1276.51 633.277C1275.63 633.508 1274.68 633.152 1274.19 632.371L1267.52 622.067C1266.58 620.628 1267.6 618.727 1269.31 618.727Z" fill="#596A2F"/>
<path d="M1360.29 478.559V497.728C1360.29 502.009 1357.46 505.758 1353.39 506.895L1346.41 508.849C1342.34 509.986 1339.51 513.752 1339.51 518.016V525.46C1339.51 528.035 1338.47 530.505 1336.64 532.299L1319.67 548.945C1319.55 549.07 1319.43 549.176 1319.31 549.283L1299.86 566.426C1298.61 567.528 1297.66 568.949 1297.13 570.53L1296.98 570.992C1295.62 575.007 1297.05 579.43 1300.47 581.864C1303.6 584.085 1307.73 584.174 1310.96 582.095L1326.88 571.791C1330.29 569.588 1334.69 569.837 1337.84 572.395L1339.53 573.763C1342.51 576.179 1346.64 576.535 1349.98 574.669L1357.06 570.708C1361.45 568.256 1363.17 562.749 1360.96 558.201L1359.96 556.122C1357.92 551.894 1359.24 546.813 1363.05 544.131L1367 541.342C1369.53 539.565 1371.04 536.634 1371.04 533.525V522.795C1371.04 519.188 1373.06 515.902 1376.24 514.285L1384.31 510.199C1387.49 508.582 1389.51 505.296 1389.51 501.69V482.308C1389.51 480.282 1388.87 478.328 1387.7 476.694L1382.18 469.055C1379.04 464.702 1372.94 463.85 1368.74 467.189L1363.84 471.098C1361.57 472.91 1360.26 475.663 1360.26 478.577L1360.29 478.559Z" fill="#79902E"/>
<path d="M128.117 405.864C128.907 403.643 129.751 401.44 130.629 399.255" stroke="white" stroke-width="1.59" stroke-miterlimit="10"/>
<path d="M136.075 386.731C162.883 330.22 213.865 285.931 272.84 266.069C334.047 245.444 420.094 255.694 481.266 283.017" stroke="white" stroke-width="1.59" stroke-miterlimit="10" stroke-dasharray="7.71 7.71"/>
<path d="M487.432 285.878C489.558 286.89 491.648 287.938 493.704 289.004" stroke="white" stroke-width="1.59" stroke-miterlimit="10"/>
<path d="M493.721 289.004C493.721 289.004 495.97 287.903 500.081 286.073" stroke="white" stroke-width="1.59" stroke-miterlimit="10"/>
<path d="M513.327 280.477C555.665 263.511 657.629 230.308 730.219 269.267C808.168 311.122 848.89 443.42 860.38 486.749" stroke="white" stroke-width="1.59" stroke-miterlimit="10" stroke-dasharray="8.17 8.17"/>
<path d="M862.189 493.802C863.296 498.225 863.841 500.677 863.841 500.677" stroke="white" stroke-width="1.59" stroke-miterlimit="10"/>
<path d="M662.794 666.907C662.794 666.907 663.128 664.384 664.042 659.96" stroke="white" stroke-width="1.59" stroke-miterlimit="10"/>
<path d="M667.502 645.961C679.853 602.33 721.647 505.314 849.681 500.784" stroke="white" stroke-width="1.59" stroke-miterlimit="10" stroke-dasharray="8.12 8.12"/>
<path d="M856.832 500.623C859.133 500.606 861.469 500.623 863.824 500.659" stroke="white" stroke-width="1.59" stroke-miterlimit="10"/>
<path d="M958.672 560.724C958.672 560.724 961.202 560.866 965.629 561.417" stroke="white" stroke-width="1.59" stroke-miterlimit="10"/>
<path d="M979.859 563.815C1024.92 573.141 1125.22 609.702 1113.5 750.048" stroke="white" stroke-width="1.59" stroke-miterlimit="10" stroke-dasharray="8.22 8.22"/>
<path d="M1112.81 757.35C1112.57 759.659 1112.29 762.004 1111.97 764.367" stroke="white" stroke-width="1.59" stroke-miterlimit="10"/>
<path d="M958.672 560.724C958.672 560.724 956.195 561.008 951.75 561.772" stroke="white" stroke-width="1.59" stroke-miterlimit="10"/>
<path d="M937.397 564.703C891.861 575.327 786.331 611.852 752.091 726.083" stroke="white" stroke-width="1.59" stroke-miterlimit="10" stroke-dasharray="8.34 8.34"/>
<path d="M750.071 733.224C749.474 735.48 748.894 737.772 748.35 740.082" stroke="white" stroke-width="1.59" stroke-miterlimit="10"/>
<path d="M748.35 740.081C748.35 740.081 746.048 739.069 741.867 737.434" stroke="white" stroke-width="1.59" stroke-miterlimit="10"/>
<path d="M729.148 732.762C675.742 714.233 526.029 675.149 474.713 796.806" stroke="white" stroke-width="1.59" stroke-miterlimit="10" stroke-dasharray="7.7 7.7"/>
<path d="M472.183 803.166C471.358 805.333 470.585 807.554 469.812 809.828" stroke="white" stroke-width="1.59" stroke-miterlimit="10"/>
<path d="M511.552 402.773C513.537 401.458 515.523 400.197 517.473 399.006" stroke="white" stroke-width="1.59" stroke-miterlimit="10"/>
<path d="M529.823 392.078C630.083 340.861 685.527 439.937 702.111 476.907" stroke="white" stroke-width="1.59" stroke-miterlimit="10" stroke-dasharray="8.03 8.03"/>
<path d="M704.904 483.427C706.608 487.566 707.452 490 707.452 490" stroke="white" stroke-width="1.59" stroke-miterlimit="10"/>
<path d="M319.975 560.368C319.975 560.368 319.8 557.792 319.835 553.298" stroke="white" stroke-width="1.59" stroke-miterlimit="10"/>
<path d="M320.538 538.659C324.526 491.919 349.823 387.104 497.376 401.121" stroke="white" stroke-width="1.59" stroke-miterlimit="10" stroke-dasharray="8.26 8.26"/>
<path d="M504.613 401.885C506.897 402.151 509.216 402.453 511.553 402.773" stroke="white" stroke-width="1.59" stroke-miterlimit="10"/>
<path d="M958.672 560.723C957.987 558.45 957.354 556.176 956.81 553.902" stroke="white" stroke-width="1.59" stroke-miterlimit="10"/>
<path d="M954.227 539.618C941.824 435.07 1072.25 347.611 1139.13 402.293" stroke="white" stroke-width="1.59" stroke-miterlimit="10" stroke-dasharray="8.17 8.17"/>
<path d="M1144.49 407.125C1146.12 408.742 1147.72 410.465 1149.27 412.295" stroke="white" stroke-width="1.59" stroke-miterlimit="10"/>
<path d="M962.08 560.368C964.329 559.693 966.577 559.071 968.826 558.467" stroke="white" stroke-width="1.59" stroke-miterlimit="10"/>
<path d="M982.722 555.199C1172.7 516.115 1367.16 709.383 1235 848.769" stroke="white" stroke-width="1.59" stroke-miterlimit="10" stroke-dasharray="8.12 8.12"/>
<path d="M1229.97 853.886C1228.32 855.503 1226.62 857.137 1224.88 858.736" stroke="white" stroke-width="1.59" stroke-miterlimit="10"/>
<path d="M1111.97 764.367C1113.08 762.341 1114.27 760.298 1115.57 758.291" stroke="white" stroke-width="1.59" stroke-miterlimit="10"/>
<path d="M1124.07 746.939C1136.2 732.904 1152.55 721.819 1169.75 720.344C1177.01 719.723 1184.4 720.22 1191.43 722.192C1220.84 730.488 1237.83 763.532 1238.21 794.408C1238.41 810.254 1236.58 829.778 1230.83 845.891" stroke="white" stroke-width="1.59" stroke-miterlimit="10" stroke-dasharray="8.03 8.03"/>
<path d="M1228.16 852.483C1227.16 854.668 1226.07 856.764 1224.9 858.736" stroke="white" stroke-width="1.59" stroke-miterlimit="10"/>
<path d="M748.35 740.081C749.386 742.213 750.44 744.309 751.529 746.388" stroke="white" stroke-width="1.59" stroke-miterlimit="10"/>
<path d="M758.275 758.486C834.625 886.929 1004.49 908.763 1118.28 867.672" stroke="white" stroke-width="1.59" stroke-miterlimit="10" stroke-dasharray="7.82 7.82"/>
<path d="M1124.71 865.255C1126.9 864.403 1129.06 863.532 1131.21 862.626" stroke="white" stroke-width="1.59" stroke-miterlimit="10"/>
<path d="M504.245 289.004C504.245 283.124 499.536 278.345 493.704 278.345C487.871 278.345 483.163 283.106 483.163 289.004C483.163 294.902 487.871 299.663 493.704 299.663C499.536 299.663 504.245 294.902 504.245 289.004Z" fill="white"/>
<path d="M142.979 405.864C142.979 399.984 138.271 395.205 132.438 395.205C126.606 395.205 121.897 399.966 121.897 405.864C121.897 411.762 126.606 416.523 132.438 416.523C138.271 416.523 142.979 411.762 142.979 405.864Z" fill="white"/>
<path d="M522.093 402.773C522.093 396.892 517.385 392.114 511.552 392.114C505.72 392.114 501.012 396.875 501.012 402.773C501.012 408.671 505.72 413.432 511.552 413.432C517.385 413.432 522.093 408.671 522.093 402.773Z" fill="white"/>
<path d="M330.516 560.368C330.516 554.488 325.808 549.709 319.975 549.709C314.143 549.709 309.435 554.47 309.435 560.368C309.435 566.266 314.143 571.028 319.975 571.028C325.808 571.028 330.516 566.266 330.516 560.368Z" fill="white"/>
<path d="M717.993 490.018C717.993 484.138 713.284 479.359 707.452 479.359C701.619 479.359 696.911 484.12 696.911 490.018C696.911 495.916 701.619 500.677 707.452 500.677C713.284 500.677 717.993 495.916 717.993 490.018Z" fill="white"/>
<path d="M874.364 500.659C874.364 494.779 869.655 490 863.823 490C857.99 490 853.282 494.761 853.282 500.659C853.282 506.557 857.99 511.318 863.823 511.318C869.655 511.318 874.364 506.557 874.364 500.659Z" fill="white"/>
<path d="M673.317 666.906C673.317 661.026 668.609 656.247 662.777 656.247C656.944 656.247 652.236 661.008 652.236 666.906C652.236 672.804 656.944 677.565 662.777 677.565C668.609 677.565 673.317 672.804 673.317 666.906Z" fill="white"/>
<path d="M480.352 809.828C480.352 803.948 475.644 799.169 469.811 799.169C463.979 799.169 459.271 803.93 459.271 809.828C459.271 815.726 463.979 820.487 469.811 820.487C475.644 820.487 480.352 815.726 480.352 809.828Z" fill="white"/>
<path d="M758.891 740.082C758.891 734.201 754.182 729.422 748.35 729.422C742.517 729.422 737.809 734.183 737.809 740.082C737.809 745.98 742.517 750.741 748.35 750.741C754.182 750.741 758.891 745.98 758.891 740.082Z" fill="white"/>
<path d="M1119.59 763.23C1119.59 757.349 1114.89 752.571 1109.05 752.571C1103.22 752.571 1098.51 757.332 1098.51 763.23C1098.51 769.128 1103.22 773.889 1109.05 773.889C1114.89 773.889 1119.59 769.128 1119.59 763.23Z" fill="white"/>
<path d="M969.213 560.724C969.213 554.843 964.505 550.064 958.672 550.064C952.84 550.064 948.131 554.826 948.131 560.724C948.131 566.622 952.84 571.383 958.672 571.383C964.505 571.383 969.213 566.622 969.213 560.724Z" fill="white"/>
<path d="M1149.27 422.954C1155.09 422.954 1159.81 418.182 1159.81 412.295C1159.81 406.408 1155.09 401.636 1149.27 401.636C1143.44 401.636 1138.73 406.408 1138.73 412.295C1138.73 418.182 1143.44 422.954 1149.27 422.954Z" fill="white"/>
<path d="M1224.88 869.395C1230.7 869.395 1235.42 864.622 1235.42 858.736C1235.42 852.849 1230.7 848.076 1224.88 848.076C1219.06 848.076 1214.34 852.849 1214.34 858.736C1214.34 864.622 1219.06 869.395 1224.88 869.395Z" fill="white"/>
<path d="M1131.21 873.285C1137.03 873.285 1141.75 868.513 1141.75 862.626C1141.75 856.739 1137.03 851.967 1131.21 851.967C1125.38 851.967 1120.67 856.739 1120.67 862.626C1120.67 868.513 1125.38 873.285 1131.21 873.285Z" fill="white"/>
<path d="M469.811 809.828C469.302 807.518 468.827 805.209 468.371 802.9" stroke="white" stroke-width="1.59" stroke-miterlimit="10"/>
<path d="M465.911 789.256C436.31 607.908 547.11 488.082 693.626 489.521" stroke="white" stroke-width="1.59" stroke-miterlimit="10" stroke-dasharray="7.81 7.81"/>
<path d="M700.478 489.68C702.796 489.769 705.133 489.876 707.47 490.018" stroke="white" stroke-width="1.59" stroke-miterlimit="10"/>
</g>
</g>
</g>
</g>
<defs>
<radialGradient id="paint0_radial_20_194345" cx="0" cy="0" r="1" gradientUnits="userSpaceOnUse" gradientTransform="translate(718.081 857.623) scale(976.655 974.627)">
<stop offset="0.28" stop-color="white"/>
<stop offset="1" stop-color="#92D1D5"/>
</radialGradient>
<clipPath id="clip0_20_194345">
<rect width="1440" height="900" fill="white"/>
</clipPath>
</defs>
</svg>
