<svg width="1458" height="101" viewBox="0 0 1458 101" fill="none" xmlns="http://www.w3.org/2000/svg">
<path d="M1458 101C1457.14 91.1952 1448.45 83 1437.74 83C1435.43 83 1433.4 84.3325 1431.34 85C1431.34 84.733 1431.34 84.2818 1431.34 84C1431.34 73.4684 1422.34 65 1411.07 65C1409.99 65 1408.9 64.8517 1407.87 65C1408.46 62.4487 1408.94 59.7145 1408.94 57C1408.94 36.5597 1390.28 20 1368.41 20C1354.74 20 1343.52 26.1655 1336.41 36C1334.49 35.6737 1332.03 36 1330.01 36C1312.66 36 1298.23 48.0987 1296.95 64C1285.54 64.6823 1276.84 73.4684 1275.62 84H1225.49C1221.85 73.5425 1212.29 66 1199.89 66C1189.45 66 1180.15 71.0642 1175.36 79C1172.95 78.2732 1170.58 78 1167.89 78C1161.56 78 1155.21 80.3658 1150.83 84H1114.56C1112.39 80.0247 1107.93 77 1102.83 77C1101.21 77 1099.99 77.4957 1098.57 78C1097.76 66.5635 1087.55 57 1075.1 57C1062.66 57 1051.64 66.8664 1051.64 79C1051.64 78.9852 1051.64 79.0297 1051.64 79C1050.16 78.466 1047.99 79 1046.3 79C1042.29 79 1039.12 80.3597 1036.71 83C1036.29 76.5772 1030.89 71 1023.91 71C1022.38 71 1020.99 71.555 1019.64 72C1016.29 65.592 1008.58 61 1000.44 61C990.458 61 982.082 68.2038 980.177 77C978.907 76.6143 978.374 76 976.977 76C971.47 76 966.115 79.4907 964.178 84H541.817C539.452 81.8343 535.805 80 532.218 80C529.948 80 528.742 81.0507 526.885 82C526.917 81.5995 526.885 80.4153 526.885 80C526.885 69.3645 516.934 61 505.554 61C495.57 61 487.194 68.2038 485.289 77C484.019 76.6143 483.486 76 482.089 76C476.581 76 471.227 79.4907 469.29 84H459.691C459.691 83.8072 459.691 83.1928 459.691 83C459.691 76.2212 454.146 71 446.892 71C445.083 71 443.131 71.377 441.56 72C438.163 65.7107 431.475 61 423.428 61C413.301 61 404.909 67.9962 403.163 77C400.973 75.4573 398.649 75 395.697 75C389.602 75 384.374 78.7193 382.898 84H254.91C254.815 77.2953 249.301 72 242.111 72C240.762 72 239.083 71.644 237.845 72C235.924 60.786 225.853 52 213.314 52C210.695 52 208.229 52.3028 205.848 53C203.086 45.5537 195.554 41 186.65 41C184.507 41 182.187 41.4215 180.25 42C175.028 18.2815 152.775 0 125.855 0C95.0625 0 70.3936 23.2234 70.3936 52C70.3936 57.34 70.9236 62.1643 72.5267 67C71.2886 66.822 70.6127 67 69.327 67C58.6607 67 49.529 73.2335 45.8625 82C41.7991 80.3832 36.6953 80 31.9971 80C17.1087 80 4.58715 88.5549 0 101H1458Z" fill="white"/>
</svg>
