<svg width="602" height="52" viewBox="0 0 602 52" fill="none" xmlns="http://www.w3.org/2000/svg">
<path d="M575.331 50.71H26.0888C12.1346 50.71 0.709961 39.4559 0.709961 25.71C0.709961 11.964 12.1346 0.709961 26.0888 0.709961H575.331C589.285 0.709961 600.71 11.964 600.71 25.71C600.71 39.4559 589.285 50.71 575.331 50.71Z" fill="#1CACC6"/>
<path d="M575.331 50.71H26.0888C12.1346 50.71 0.709961 39.4559 0.709961 25.71C0.709961 11.964 12.1346 0.709961 26.0888 0.709961H575.331C589.285 0.709961 600.71 11.964 600.71 25.71C600.71 39.4559 589.285 50.71 575.331 50.71Z" stroke="#1493A4" stroke-width="1.42" stroke-miterlimit="10"/>
<path d="M21.14 31.2597C20.2518 31.2597 19.4262 31.1096 18.6631 30.8093C17.9 30.5091 17.212 30.0712 16.624 29.4957C16.036 28.9203 15.5607 28.1822 15.2229 27.269C14.8851 26.3683 14.71 25.3425 14.71 24.2166C14.71 23.0908 14.8852 22.1024 15.2354 21.1892C15.5857 20.276 16.0736 19.513 16.6741 18.9125C17.2746 18.312 17.975 17.8492 18.7631 17.5239C19.5513 17.1987 20.3769 17.036 21.2526 17.036C22.466 17.036 23.5795 17.3988 24.6053 18.1369C24.868 18.312 25.0055 18.5872 25.0055 18.925C25.0055 19.1877 24.918 19.4253 24.7554 19.6505L24.3551 20.1009C24.1925 20.3135 23.9548 20.4387 23.6545 20.4762H23.5294C23.2793 20.4762 23.054 20.4136 22.8413 20.276C22.366 19.9883 21.8531 19.8507 21.3152 19.8507C20.402 19.8507 19.6389 20.2384 19.0259 21.014C18.413 21.7897 18.1002 22.8279 18.1002 24.1165C18.1002 25.405 18.3879 26.5309 18.9508 27.294C19.5263 28.0571 20.3019 28.4324 21.2776 28.4324C21.9156 28.4324 22.5162 28.2448 23.0916 27.857C23.2918 27.7069 23.5294 27.6443 23.7921 27.6443H23.8672C24.155 27.6693 24.3926 27.7819 24.5677 27.9821L24.9431 28.4324C25.1182 28.6451 25.2182 28.8953 25.2182 29.183C25.2182 29.5083 25.0931 29.771 24.8554 29.9711C23.8171 30.8218 22.5787 31.2472 21.1526 31.2472L21.14 31.2597Z" fill="white"/>
<path d="M28.4211 31.0095C28.1208 31.0095 27.8705 30.9094 27.6703 30.6967C27.4702 30.484 27.3701 30.2339 27.3701 29.9462V17.3488C27.3701 17.0486 27.4702 16.7984 27.6703 16.5983C27.8705 16.3981 28.1208 16.2855 28.4211 16.2855H29.5593C29.8471 16.2855 30.0972 16.3856 30.3099 16.5983C30.5226 16.7984 30.6226 17.0486 30.6226 17.3488V19.8132L30.4851 21.5396C30.4851 21.5396 30.4851 21.5772 30.5226 21.5897C30.5476 21.5897 30.5602 21.5897 30.5727 21.5897C31.561 20.7015 32.5993 20.2636 33.6876 20.2636C34.776 20.2636 35.6141 20.6389 36.1395 21.377C36.6774 22.115 36.9402 23.1659 36.9402 24.5295V29.9462C36.9402 30.2339 36.8401 30.484 36.6399 30.6967C36.4398 30.9094 36.1896 31.0095 35.8894 31.0095H34.7384C34.4382 31.0095 34.188 30.9094 33.9879 30.6967C33.7877 30.484 33.6876 30.2339 33.6876 29.9462V24.9297C33.6876 24.2292 33.5876 23.7539 33.3999 23.4787C33.2123 23.2035 32.8995 23.0783 32.4617 23.0783C32.1364 23.0783 31.8487 23.1409 31.611 23.2785C31.3608 23.4161 31.0731 23.6288 30.7353 23.929C30.6728 23.9916 30.6477 24.0665 30.6477 24.1416V29.9587C30.6477 30.2464 30.5476 30.4966 30.3349 30.7092C30.1223 30.9219 29.8721 31.022 29.5844 31.022H28.4459L28.4211 31.0095Z" fill="white"/>
<path d="M44.2081 31.2597C42.6569 31.2597 41.3808 30.7717 40.38 29.7834C39.3792 28.7952 38.8789 27.4692 38.8789 25.7678C38.8789 24.9422 39.0165 24.1791 39.3042 23.4786C39.5919 22.778 39.9547 22.1901 40.4176 21.7397C40.8805 21.2768 41.4059 20.9141 42.0064 20.6639C42.5943 20.4012 43.2198 20.276 43.8453 20.276C45.3089 20.276 46.4222 20.7389 47.1978 21.6771C47.9609 22.6153 48.3488 23.8414 48.3488 25.3425V25.6802C48.3488 25.9804 48.2111 26.2307 47.9734 26.4309C47.7357 26.631 47.4606 26.7311 47.1479 26.7311H42.1939C42.1939 26.7311 42.1314 26.7435 42.1064 26.781C42.0814 26.8061 42.0814 26.8437 42.0939 26.8812C42.3941 28.1447 43.2574 28.7702 44.671 28.7702C45.1088 28.7702 45.5216 28.6951 45.9345 28.5575C46.0846 28.5075 46.2222 28.4825 46.3848 28.4825C46.5099 28.4825 46.6474 28.4949 46.785 28.5325C47.0603 28.62 47.2729 28.7827 47.4105 29.0329L47.4606 29.1454C47.5732 29.3206 47.6233 29.5083 47.6233 29.6834C47.6233 29.7835 47.6107 29.871 47.5732 29.9711C47.4981 30.2714 47.3355 30.484 47.0727 30.5966C46.1345 31.0344 45.1837 31.2597 44.233 31.2597H44.2081ZM42.0064 24.5168C42.0064 24.5168 42.0439 24.6044 42.1314 24.6044H45.4215C45.5216 24.6044 45.5591 24.5669 45.5591 24.4793C45.5341 23.9414 45.384 23.5285 45.1213 23.2283C44.8461 22.9281 44.4456 22.7654 43.9077 22.7654C43.4449 22.7654 43.0321 22.903 42.7068 23.1907C42.244 23.5785 42.0064 24.0164 42.0064 24.5043V24.5168Z" fill="white"/>
<path d="M55.0663 31.2597C53.5401 31.2597 52.2891 30.7718 51.3133 29.7835C50.3375 28.7952 49.8496 27.4692 49.8496 25.7679C49.8496 24.6545 50.1125 23.6663 50.6254 22.8156C51.1383 21.9649 51.8138 21.3269 52.6394 20.9016C53.4651 20.4762 54.3782 20.2635 55.354 20.2635C56.1546 20.2635 56.8927 20.4387 57.5432 20.789C57.7934 20.9391 57.9435 21.1518 57.9935 21.4396C57.9935 21.5021 58.006 21.5645 58.006 21.6146C58.006 21.8397 57.9311 22.0524 57.7684 22.24L57.4932 22.6404C57.2931 22.9157 56.9802 23.0532 56.5799 23.0532C56.3923 23.0532 56.1796 23.0283 55.9544 22.9657C55.8168 22.9282 55.6792 22.9156 55.5166 22.9156C54.8035 22.9156 54.2406 23.1783 53.8153 23.6912C53.3899 24.2041 53.1773 24.9047 53.1773 25.7804C53.1773 26.6561 53.3899 27.3192 53.8028 27.8446C54.2281 28.37 54.7535 28.6327 55.4041 28.6327C55.7043 28.6327 56.0045 28.5701 56.3172 28.4325C56.4799 28.3574 56.6551 28.32 56.8427 28.32C56.9428 28.32 57.0303 28.3198 57.1304 28.3574C57.4181 28.4199 57.6308 28.57 57.7559 28.8077L57.9561 29.133C58.0687 29.3206 58.1187 29.5209 58.1187 29.721C58.1187 29.8086 58.1187 29.8836 58.1062 29.9712C58.0437 30.2839 57.881 30.5091 57.6183 30.6342C56.8427 31.0471 55.9795 31.2597 55.0412 31.2597H55.0663Z" fill="white"/>
<path d="M61.3839 31.0095C61.0837 31.0095 60.8335 30.9094 60.6334 30.6967C60.4332 30.484 60.333 30.2339 60.333 29.9462V17.3488C60.333 17.0486 60.4332 16.7984 60.6334 16.5983C60.8335 16.3981 61.0837 16.2855 61.3839 16.2855H62.4472C62.735 16.2855 62.9851 16.3856 63.1978 16.5983C63.4105 16.7984 63.5106 17.0486 63.5106 17.3488V24.4543C63.5106 24.4543 63.5106 24.5044 63.5481 24.5044C63.5856 24.5044 63.5857 24.5044 63.5982 24.4668L66.1002 21.3394C66.538 20.789 67.1135 20.5138 67.8265 20.5138H69.265C69.4652 20.5138 69.6154 20.6139 69.703 20.8016C69.7906 20.9892 69.7655 21.1642 69.6279 21.3269L66.7131 24.742C66.6506 24.8171 66.6506 24.8797 66.7006 24.9547L70.0158 30.0963C70.0908 30.2089 70.1283 30.3089 70.1283 30.4215C70.1283 30.5091 70.1032 30.5966 70.0406 30.6967C69.9281 30.8969 69.7655 30.9969 69.5404 30.9969H68.1017C67.7765 30.9969 67.4762 30.9094 67.1885 30.7468C66.9008 30.5842 66.6756 30.359 66.5129 30.0837L64.8367 27.1314C64.7991 27.0564 64.7491 27.0564 64.6866 27.1189L63.6106 28.3449C63.548 28.4199 63.5231 28.4951 63.5231 28.5826V29.9462C63.5231 30.2339 63.423 30.484 63.2103 30.6967C62.9977 30.9094 62.7475 31.0095 62.4598 31.0095H61.3965H61.3839Z" fill="white"/>
<path d="M80.7615 31.2597C80.0859 31.2597 79.4479 31.1346 78.8224 30.8844C78.2094 30.6342 77.659 30.2839 77.1711 29.8211C76.6958 29.3707 76.3079 28.7827 76.0327 28.0822C75.745 27.3816 75.6074 26.6061 75.6074 25.7679C75.6074 24.9297 75.745 24.1542 76.0327 23.4411C76.3204 22.728 76.6958 22.1526 77.1711 21.7022C77.6465 21.2519 78.1969 20.8891 78.8224 20.6389C79.4354 20.3887 80.0859 20.2635 80.7615 20.2635C81.437 20.2635 82.0625 20.3887 82.663 20.6389C83.276 20.8891 83.8138 21.2393 84.3017 21.7022C84.7771 22.1526 85.1649 22.7405 85.4401 23.4411C85.7279 24.1542 85.8654 24.9172 85.8654 25.7679C85.8654 26.6186 85.7279 27.3816 85.4401 28.0822C85.1524 28.7827 84.7771 29.3582 84.3017 29.8211C83.8263 30.2714 83.276 30.6342 82.663 30.8844C82.05 31.1346 81.412 31.2597 80.7615 31.2597ZM80.7615 28.6202C81.3494 28.6202 81.7872 28.3699 82.0874 27.8695C82.3752 27.3691 82.5254 26.6686 82.5254 25.7679C82.5254 24.8672 82.3752 24.1666 82.0874 23.6662C81.7997 23.1658 81.3494 22.9156 80.7615 22.9156C80.1735 22.9156 79.7105 23.1658 79.4103 23.6662C79.1101 24.1666 78.96 24.8672 78.96 25.7679C78.96 26.6686 79.1101 27.3691 79.4103 27.8695C79.7105 28.3699 80.161 28.6202 80.7615 28.6202Z" fill="white"/>
<path d="M91.0953 31.2598C89.9819 31.2598 89.1562 30.897 88.6307 30.1589C88.1053 29.4208 87.8428 28.37 87.8428 27.0189V21.5897C87.8428 21.302 87.9428 21.0516 88.143 20.839C88.3432 20.6263 88.5933 20.5262 88.8936 20.5262H90.0444C90.3321 20.5262 90.5824 20.6263 90.7951 20.839C91.0077 21.0516 91.1078 21.302 91.1078 21.5897V26.6061C91.1078 27.3192 91.1954 27.807 91.383 28.0697C91.5706 28.3449 91.8834 28.4701 92.3087 28.4701C92.6715 28.4701 92.9717 28.395 93.2219 28.2448C93.4721 28.0947 93.7223 27.8446 93.9725 27.4943C94.035 27.4192 94.0601 27.3441 94.0601 27.2565V21.5646C94.0601 21.2769 94.1602 21.0268 94.3603 20.8141C94.5605 20.6014 94.8107 20.5013 95.1109 20.5013H96.2619C96.5496 20.5013 96.7998 20.6014 97.0124 20.8141C97.2251 21.0268 97.3252 21.2769 97.3252 21.5646V29.9336C97.3252 30.2214 97.2251 30.4715 97.0124 30.6842C96.7998 30.8969 96.5496 30.9969 96.2619 30.9969H95.7239C95.4111 30.9969 95.1359 30.8969 94.9107 30.6967C94.673 30.4966 94.5354 30.2464 94.4854 29.9462L94.4353 29.5835C94.4353 29.5835 94.4104 29.5459 94.3854 29.5459C94.3604 29.5459 94.3478 29.546 94.3353 29.5835C93.8724 30.1214 93.372 30.5342 92.8591 30.8219C92.3462 31.1097 91.7458 31.2472 91.0828 31.2472L91.0953 31.2598Z" fill="white"/>
<path d="M104.106 31.2597C102.83 31.2597 101.904 30.8969 101.303 30.1713C100.703 29.4458 100.403 28.4324 100.403 27.1189V23.2158C100.403 23.1282 100.365 23.0907 100.278 23.0907H100.04C99.7523 23.0907 99.502 22.9907 99.2893 22.778C99.0766 22.5653 98.9766 22.3152 98.9766 22.0274V21.7147C98.9766 21.4145 99.0766 21.1518 99.2768 20.9391C99.4769 20.7139 99.7273 20.5888 100.027 20.5763L100.44 20.5387C100.54 20.5387 100.59 20.4761 100.603 20.3886L100.803 18.7998C100.853 18.4996 100.991 18.2494 101.216 18.0492C101.441 17.8491 101.704 17.749 102.004 17.749H102.617C102.905 17.749 103.155 17.8491 103.368 18.0492C103.58 18.2494 103.68 18.5121 103.68 18.7998V20.3635C103.68 20.4511 103.718 20.4888 103.805 20.4888H105.081C105.369 20.4888 105.619 20.5888 105.832 20.8015C106.045 21.0142 106.145 21.2643 106.145 21.5521V22.0024C106.145 22.2901 106.045 22.5403 105.832 22.753C105.619 22.9656 105.369 23.0657 105.081 23.0657H103.805C103.718 23.0657 103.68 23.1032 103.68 23.1908V27.0564C103.68 28.0947 104.093 28.6451 104.919 28.6701C105.219 28.6701 105.494 28.7577 105.732 28.9078C105.97 29.058 106.12 29.2581 106.182 29.5083L106.257 29.796C106.257 29.8961 106.27 29.9836 106.27 30.0712C106.27 30.2588 106.22 30.4466 106.107 30.6342C105.957 30.8969 105.732 31.0595 105.444 31.0971C105.006 31.1846 104.556 31.2221 104.093 31.2221L104.106 31.2597Z" fill="white"/>
<path d="M116.502 31.2597C115.226 31.2597 114.3 30.8969 113.7 30.1713C113.099 29.4458 112.799 28.4324 112.799 27.1189V23.2158C112.799 23.1282 112.762 23.0907 112.674 23.0907H112.436C112.149 23.0907 111.898 22.9907 111.686 22.778C111.473 22.5653 111.373 22.3152 111.373 22.0274V21.7147C111.373 21.4145 111.473 21.1518 111.673 20.9391C111.873 20.7139 112.124 20.5888 112.424 20.5763L112.837 20.5387C112.937 20.5387 112.987 20.4761 112.999 20.3886L113.199 18.7998C113.249 18.4996 113.387 18.2494 113.612 18.0492C113.838 17.8491 114.1 17.749 114.4 17.749H115.013C115.301 17.749 115.551 17.8491 115.764 18.0492C115.977 18.2494 116.077 18.5121 116.077 18.7998V20.3635C116.077 20.4511 116.114 20.4888 116.202 20.4888H117.478C117.766 20.4888 118.016 20.5888 118.228 20.8015C118.441 21.0142 118.541 21.2643 118.541 21.5521V22.0024C118.541 22.2901 118.441 22.5403 118.228 22.753C118.016 22.9656 117.766 23.0657 117.478 23.0657H116.202C116.114 23.0657 116.077 23.1032 116.077 23.1908V27.0564C116.077 28.0947 116.49 28.6451 117.315 28.6701C117.615 28.6701 117.891 28.7577 118.128 28.9078C118.366 29.058 118.516 29.2581 118.579 29.5083L118.654 29.796C118.654 29.8961 118.666 29.9836 118.666 30.0712C118.666 30.2588 118.616 30.4466 118.504 30.6342C118.353 30.8969 118.128 31.0595 117.841 31.0971C117.403 31.1846 116.952 31.2221 116.49 31.2221L116.502 31.2597Z" fill="white"/>
<path d="M121.631 31.0095C121.331 31.0095 121.08 30.9094 120.88 30.6967C120.68 30.484 120.58 30.2339 120.58 29.9462V17.3488C120.58 17.0486 120.68 16.7984 120.88 16.5983C121.08 16.3981 121.331 16.2855 121.631 16.2855H122.769C123.057 16.2855 123.307 16.3856 123.52 16.5983C123.733 16.7984 123.833 17.0486 123.833 17.3488V19.8132L123.695 21.5396C123.695 21.5396 123.695 21.5772 123.733 21.5897C123.758 21.5897 123.77 21.5897 123.783 21.5897C124.771 20.7015 125.809 20.2636 126.898 20.2636C127.986 20.2636 128.824 20.6389 129.349 21.377C129.887 22.115 130.15 23.1659 130.15 24.5295V29.9462C130.15 30.2339 130.05 30.484 129.85 30.6967C129.65 30.9094 129.4 31.0095 129.099 31.0095H127.948C127.648 31.0095 127.398 30.9094 127.198 30.6967C126.998 30.484 126.898 30.2339 126.898 29.9462V24.9297C126.898 24.2292 126.798 23.7539 126.61 23.4787C126.422 23.2035 126.11 23.0783 125.672 23.0783C125.346 23.0783 125.059 23.1409 124.821 23.2785C124.571 23.4161 124.283 23.6288 123.945 23.929C123.883 23.9916 123.858 24.0665 123.858 24.1416V29.9587C123.858 30.2464 123.758 30.4966 123.545 30.7092C123.332 30.9219 123.082 31.022 122.794 31.022H121.656L121.631 31.0095Z" fill="white"/>
<path d="M137.406 31.2597C135.855 31.2597 134.579 30.7717 133.578 29.7834C132.577 28.7952 132.077 27.4692 132.077 25.7678C132.077 24.9422 132.215 24.1791 132.502 23.4786C132.79 22.778 133.153 22.1901 133.616 21.7397C134.079 21.2768 134.604 20.9141 135.205 20.6639C135.793 20.4012 136.418 20.276 137.044 20.276C138.507 20.276 139.62 20.7389 140.396 21.6771C141.159 22.6153 141.547 23.8414 141.547 25.3425V25.6802C141.547 25.9804 141.409 26.2307 141.172 26.4309C140.934 26.631 140.659 26.7311 140.346 26.7311H135.392C135.392 26.7311 135.33 26.7435 135.305 26.781C135.28 26.8061 135.28 26.8437 135.292 26.8812C135.592 28.1447 136.456 28.7702 137.869 28.7702C138.307 28.7702 138.72 28.6951 139.133 28.5575C139.283 28.5075 139.42 28.4825 139.583 28.4825C139.708 28.4825 139.846 28.4949 139.983 28.5325C140.259 28.62 140.471 28.7827 140.609 29.0329L140.659 29.1454C140.771 29.3206 140.822 29.5083 140.822 29.6834C140.822 29.7835 140.809 29.871 140.771 29.9711C140.696 30.2714 140.534 30.484 140.271 30.5966C139.333 31.0344 138.382 31.2597 137.431 31.2597H137.406ZM135.217 24.5168C135.217 24.5168 135.255 24.6044 135.342 24.6044H138.632C138.732 24.6044 138.77 24.5669 138.77 24.4793C138.745 23.9414 138.595 23.5285 138.332 23.2283C138.057 22.9281 137.656 22.7654 137.118 22.7654C136.656 22.7654 136.243 22.903 135.918 23.1907C135.455 23.5785 135.217 24.0164 135.217 24.5043V24.5168Z" fill="white"/>
<path d="M151.98 31.2597C150.704 31.2597 149.778 30.8969 149.177 30.1713C148.577 29.4458 148.277 28.4324 148.277 27.1189V23.2158C148.277 23.1282 148.239 23.0907 148.152 23.0907H147.914C147.626 23.0907 147.376 22.9907 147.163 22.778C146.951 22.5653 146.851 22.3152 146.851 22.0274V21.7147C146.851 21.4145 146.951 21.1518 147.151 20.9391C147.351 20.7139 147.601 20.5888 147.901 20.5763L148.314 20.5387C148.414 20.5387 148.464 20.4761 148.477 20.3886L148.677 18.7998C148.727 18.4996 148.865 18.2494 149.09 18.0492C149.315 17.8491 149.578 17.749 149.878 17.749H150.491C150.779 17.749 151.029 17.8491 151.242 18.0492C151.454 18.2494 151.554 18.5121 151.554 18.7998V20.3635C151.554 20.4511 151.592 20.4888 151.679 20.4888H152.955C153.243 20.4888 153.493 20.5888 153.706 20.8015C153.919 21.0142 154.019 21.2643 154.019 21.5521V22.0024C154.019 22.2901 153.919 22.5403 153.706 22.753C153.493 22.9656 153.243 23.0657 152.955 23.0657H151.679C151.592 23.0657 151.554 23.1032 151.554 23.1908V27.0564C151.554 28.0947 151.967 28.6451 152.793 28.6701C153.093 28.6701 153.368 28.7577 153.606 28.9078C153.844 29.058 153.994 29.2581 154.056 29.5083L154.131 29.796C154.131 29.8961 154.144 29.9836 154.144 30.0712C154.144 30.2588 154.094 30.4466 153.981 30.6342C153.831 30.8969 153.606 31.0595 153.318 31.0971C152.88 31.1846 152.43 31.2221 151.967 31.2221L151.98 31.2597Z" fill="white"/>
<path d="M157.11 31.0094C156.809 31.0094 156.559 30.9094 156.359 30.6967C156.159 30.484 156.059 30.2339 156.059 29.9461V21.5771C156.059 21.2894 156.159 21.0393 156.359 20.8266C156.559 20.6139 156.809 20.5138 157.11 20.5138H157.647C157.948 20.5138 158.21 20.6139 158.435 20.8266C158.661 21.0393 158.798 21.2769 158.836 21.5771L158.923 22.3152C158.923 22.3152 158.936 22.3527 158.973 22.3527C159.011 22.3527 159.023 22.3527 159.036 22.3152C159.411 21.6396 159.862 21.1393 160.387 20.789C160.913 20.4387 161.45 20.2635 161.988 20.2635H162.239C162.526 20.2635 162.751 20.4136 162.926 20.6763C163.039 20.8515 163.089 21.0517 163.089 21.2644C163.089 21.352 163.089 21.427 163.077 21.5145L162.926 22.2526C162.864 22.5278 162.714 22.7405 162.476 22.9031C162.251 23.0532 161.988 23.1409 161.701 23.1409H161.575C161.15 23.1409 160.75 23.2784 160.35 23.5662C159.949 23.8539 159.624 24.2918 159.361 24.8923C159.324 24.9798 159.311 25.0674 159.311 25.1675V29.9587C159.311 30.2464 159.211 30.4966 158.998 30.7092C158.786 30.9219 158.536 31.022 158.248 31.022H157.11V31.0094Z" fill="white"/>
<path d="M166.679 31.2597C165.741 31.2597 164.991 30.9595 164.415 30.3465C163.84 29.7335 163.564 28.9828 163.564 28.0821C163.564 26.9813 164.015 26.1182 164.928 25.5052C165.829 24.8922 167.28 24.4794 169.256 24.2417C169.357 24.2417 169.394 24.1791 169.382 24.0916C169.256 23.2784 168.744 22.8655 167.818 22.8655C167.28 22.8655 166.68 23.0157 166.016 23.316C165.866 23.391 165.704 23.4285 165.529 23.4285C165.416 23.4285 165.303 23.416 165.191 23.3784C164.916 23.2909 164.703 23.1158 164.565 22.8531L164.415 22.5778C164.328 22.4152 164.29 22.2401 164.29 22.0775C164.29 21.9649 164.29 21.8648 164.328 21.7522C164.415 21.4645 164.59 21.2644 164.853 21.1393C166.066 20.5513 167.255 20.251 168.431 20.251C171.258 20.251 172.672 21.8523 172.672 25.0423V29.9336C172.672 30.2213 172.572 30.4715 172.359 30.6841C172.146 30.8968 171.896 30.9969 171.608 30.9969H170.958C170.67 30.9969 170.42 30.9094 170.207 30.7342C169.995 30.5591 169.857 30.3339 169.794 30.0586V29.9837C169.794 29.9837 169.744 29.9461 169.719 29.9461C169.694 29.9461 169.682 29.9461 169.669 29.9586C168.693 30.8093 167.705 31.2346 166.679 31.2346V31.2597ZM167.818 28.7327C168.331 28.7327 168.831 28.4825 169.307 27.9946C169.369 27.9321 169.394 27.8569 169.394 27.7569V26.3558C169.394 26.2807 169.357 26.2432 169.282 26.2432H169.244C167.53 26.4934 166.667 27.0189 166.667 27.832C166.667 28.1322 166.767 28.3573 166.967 28.5074C167.167 28.6575 167.443 28.7327 167.805 28.7327H167.818Z" fill="white"/>
<path d="M178.664 31.0094C178.351 31.0094 178.063 30.9219 177.813 30.7342C177.55 30.5466 177.375 30.309 177.263 30.0087L174.46 21.5395C174.435 21.452 174.423 21.377 174.423 21.2894C174.423 21.1393 174.473 20.9891 174.573 20.864C174.723 20.6513 174.936 20.5387 175.186 20.5387H176.374C176.687 20.5387 176.962 20.6389 177.213 20.8266C177.463 21.0142 177.625 21.2644 177.713 21.5646L178.701 25.38C178.789 25.7178 178.914 26.2432 179.089 26.9437C179.264 27.6568 179.402 28.1822 179.489 28.545C179.489 28.5825 179.502 28.5951 179.539 28.5951C179.577 28.5951 179.589 28.5825 179.602 28.545C179.752 27.907 180.002 26.8562 180.352 25.38L181.378 21.5646C181.466 21.2644 181.628 21.0142 181.879 20.8266C182.129 20.6389 182.404 20.5387 182.717 20.5387H183.743C184.005 20.5387 184.218 20.6513 184.368 20.864C184.468 21.0016 184.506 21.1517 184.506 21.3143C184.506 21.3894 184.506 21.4645 184.468 21.5521L181.729 30.0212C181.628 30.3215 181.453 30.5591 181.203 30.7468C180.94 30.9344 180.665 31.0219 180.352 31.0219H178.676L178.664 31.0094Z" fill="white"/>
<path d="M190.91 31.2597C189.359 31.2597 188.083 30.7717 187.082 29.7834C186.082 28.7952 185.581 27.4692 185.581 25.7678C185.581 24.9422 185.719 24.1791 186.006 23.4786C186.294 22.778 186.657 22.1901 187.12 21.7397C187.583 21.2768 188.108 20.9141 188.709 20.6639C189.296 20.4012 189.922 20.276 190.548 20.276C192.011 20.276 193.124 20.7389 193.888 21.6771C194.651 22.6153 195.039 23.8414 195.039 25.3425V25.6802C195.039 25.9804 194.901 26.2307 194.663 26.4309C194.426 26.631 194.15 26.7311 193.838 26.7311H188.884C188.884 26.7311 188.821 26.7435 188.796 26.781C188.771 26.8061 188.771 26.8437 188.784 26.8812C189.084 28.1447 189.947 28.7702 191.361 28.7702C191.786 28.7702 192.211 28.6951 192.624 28.5575C192.762 28.5075 192.912 28.4825 193.075 28.4825C193.212 28.4825 193.337 28.4949 193.475 28.5325C193.75 28.62 193.963 28.7827 194.1 29.0329L194.15 29.1454C194.263 29.3206 194.313 29.5083 194.313 29.6834C194.313 29.7835 194.3 29.871 194.263 29.9711C194.188 30.2714 194.025 30.484 193.763 30.5966C192.824 31.0344 191.886 31.2597 190.923 31.2597H190.91ZM188.721 24.5168C188.721 24.5168 188.759 24.6044 188.846 24.6044H192.136C192.236 24.6044 192.286 24.5669 192.286 24.4793C192.261 23.9414 192.111 23.5285 191.848 23.2283C191.573 22.9281 191.173 22.7654 190.635 22.7654C190.172 22.7654 189.759 22.903 189.434 23.1907C188.971 23.5785 188.734 24.0164 188.734 24.5043L188.721 24.5168Z" fill="white"/>
<path d="M200.142 31.2597C199.079 31.2597 198.316 30.947 197.853 30.309C197.39 29.671 197.165 28.7702 197.165 27.6068V17.3488C197.165 17.0486 197.265 16.7984 197.465 16.5983C197.665 16.3981 197.916 16.2855 198.216 16.2855H199.354C199.642 16.2855 199.892 16.3856 200.105 16.5983C200.318 16.7984 200.418 17.0486 200.418 17.3488V27.7319C200.418 28.1447 200.53 28.4075 200.755 28.5451C200.755 28.5451 200.818 28.5952 200.931 28.6452C201.031 28.6953 201.093 28.7328 201.131 28.7578C201.156 28.7828 201.206 28.8203 201.281 28.8703C201.343 28.9204 201.393 28.9704 201.431 29.0204C201.456 29.0705 201.481 29.1331 201.494 29.2081L201.606 29.9462C201.606 30.0212 201.619 30.0963 201.619 30.1589C201.619 30.3841 201.556 30.5967 201.443 30.7844C201.281 31.0471 201.043 31.1972 200.743 31.2347C200.568 31.2347 200.368 31.2472 200.167 31.2472L200.142 31.2597Z" fill="white"/>
<path d="M207.987 31.2597C206.436 31.2597 205.16 30.7717 204.159 29.7834C203.159 28.7952 202.658 27.4692 202.658 25.7678C202.658 24.9422 202.796 24.1791 203.084 23.4786C203.371 22.778 203.734 22.1901 204.197 21.7397C204.66 21.2768 205.185 20.9141 205.786 20.6639C206.374 20.4012 206.999 20.276 207.625 20.276C209.088 20.276 210.202 20.7389 210.965 21.6771C211.728 22.6153 212.116 23.8414 212.116 25.3425V25.6802C212.116 25.9804 211.978 26.2307 211.74 26.4309C211.503 26.631 211.227 26.7311 210.915 26.7311H205.961C205.961 26.7311 205.898 26.7435 205.873 26.781C205.848 26.8061 205.848 26.8437 205.861 26.8812C206.161 28.1447 207.024 28.7702 208.438 28.7702C208.863 28.7702 209.288 28.6951 209.701 28.5575C209.839 28.5075 209.989 28.4825 210.152 28.4825C210.289 28.4825 210.414 28.4949 210.552 28.5325C210.827 28.62 211.04 28.7827 211.177 29.0329L211.227 29.1454C211.34 29.3206 211.39 29.5083 211.39 29.6834C211.39 29.7835 211.378 29.871 211.34 29.9711C211.265 30.2714 211.102 30.484 210.84 30.5966C209.901 31.0344 208.963 31.2597 208 31.2597H207.987ZM205.798 24.5168C205.798 24.5168 205.836 24.6044 205.923 24.6044H209.213C209.313 24.6044 209.363 24.5669 209.363 24.4793C209.338 23.9414 209.188 23.5285 208.926 23.2283C208.663 22.9281 208.25 22.7654 207.712 22.7654C207.249 22.7654 206.837 22.903 206.511 23.1907C206.048 23.5785 205.811 24.0164 205.811 24.5043L205.798 24.5168Z" fill="white"/>
<path d="M215.292 31.0094C214.992 31.0094 214.742 30.9094 214.541 30.6967C214.341 30.484 214.241 30.2339 214.241 29.9461V21.5771C214.241 21.2894 214.341 21.0393 214.541 20.8266C214.742 20.6139 214.992 20.5138 215.292 20.5138H215.83C216.13 20.5138 216.393 20.6139 216.618 20.8266C216.843 21.0267 216.981 21.2769 217.018 21.5771L217.106 22.3152C217.106 22.3152 217.119 22.3527 217.156 22.3527C217.194 22.3527 217.206 22.3527 217.219 22.3152C217.594 21.6396 218.044 21.1393 218.57 20.789C219.095 20.4387 219.633 20.2635 220.171 20.2635H220.421C220.709 20.2635 220.934 20.4136 221.109 20.6763C221.222 20.8515 221.272 21.0517 221.272 21.2644C221.272 21.352 221.272 21.427 221.259 21.5145L221.109 22.2526C221.047 22.5278 220.896 22.7405 220.659 22.9031C220.434 23.0532 220.171 23.1409 219.883 23.1409H219.758C219.345 23.1409 218.932 23.2784 218.532 23.5662C218.132 23.8539 217.807 24.2918 217.544 24.8923C217.506 24.9798 217.494 25.0674 217.494 25.1675V29.9587C217.494 30.2464 217.394 30.4966 217.181 30.7092C216.968 30.9219 216.718 31.022 216.43 31.022H215.292V31.0094Z" fill="white"/>
<path d="M222.873 26.8437C222.585 26.8437 222.335 26.7436 222.122 26.5309C221.91 26.3183 221.81 26.0681 221.81 25.7804V25.6052C221.81 25.305 221.91 25.0548 222.122 24.8547C222.335 24.6545 222.585 24.5544 222.873 24.5544H225.963C226.25 24.5544 226.501 24.6545 226.713 24.8547C226.926 25.0548 227.026 25.3175 227.026 25.6052V25.7804C227.026 26.0681 226.926 26.3183 226.713 26.5309C226.501 26.7436 226.25 26.8437 225.963 26.8437H222.873Z" fill="white"/>
<path d="M234.908 16.1354C235.196 16.1854 235.409 16.3355 235.559 16.5982C235.659 16.7608 235.709 16.9484 235.709 17.136C235.709 17.2361 235.709 17.3237 235.671 17.4237L235.596 17.7866C235.521 18.0493 235.371 18.2494 235.133 18.3745C234.896 18.5246 234.633 18.5872 234.345 18.5872H234.27C233.507 18.5872 233.119 19.0626 233.119 20.0259V20.3886C233.119 20.4761 233.157 20.5138 233.244 20.5138H233.907C234.208 20.5138 234.458 20.6139 234.658 20.8265C234.858 21.0392 234.958 21.2894 234.958 21.5771V22.0274C234.958 22.3152 234.858 22.5653 234.658 22.778C234.458 22.9907 234.195 23.0907 233.907 23.0907H233.244C233.157 23.0907 233.119 23.1282 233.119 23.2158V29.9461C233.119 30.2338 233.019 30.484 232.807 30.6967C232.594 30.9093 232.344 31.0094 232.056 31.0094H230.893C230.605 31.0094 230.355 30.9093 230.142 30.6967C229.929 30.484 229.829 30.2338 229.829 29.9461V23.2158C229.829 23.1282 229.792 23.0907 229.704 23.0907H229.504C229.204 23.0907 228.954 22.9907 228.753 22.778C228.553 22.5653 228.453 22.3152 228.453 22.0274V21.7147C228.453 21.4144 228.553 21.1517 228.753 20.9391C228.954 20.7139 229.204 20.5888 229.492 20.5762H229.704C229.792 20.5512 229.829 20.5012 229.829 20.4136V20.1259C229.829 19.5505 229.904 19.025 230.042 18.5371C230.192 18.0618 230.405 17.6239 230.717 17.2361C231.018 16.8483 231.443 16.5481 231.956 16.3354C232.481 16.1227 233.094 16.0101 233.795 16.0101C234.17 16.0101 234.533 16.0478 234.908 16.1228V16.1354Z" fill="white"/>
<path d="M237.66 31.0094C237.36 31.0094 237.11 30.9094 236.91 30.6967C236.709 30.484 236.609 30.2339 236.609 29.9461V21.5771C236.609 21.2894 236.709 21.0393 236.91 20.8266C237.11 20.6139 237.36 20.5138 237.66 20.5138H238.198C238.498 20.5138 238.761 20.6139 238.986 20.8266C239.211 21.0267 239.349 21.2769 239.387 21.5771L239.474 22.3152C239.474 22.3152 239.487 22.3527 239.524 22.3527C239.562 22.3527 239.574 22.3527 239.587 22.3152C239.962 21.6396 240.412 21.1393 240.938 20.789C241.463 20.4387 242.001 20.2635 242.539 20.2635H242.789C243.077 20.2635 243.302 20.4136 243.477 20.6763C243.59 20.8515 243.64 21.0517 243.64 21.2644C243.64 21.352 243.64 21.427 243.627 21.5145L243.477 22.2526C243.415 22.5278 243.265 22.7405 243.027 22.9031C242.802 23.0532 242.539 23.1409 242.251 23.1409H242.126C241.701 23.1409 241.301 23.2784 240.9 23.5662C240.5 23.8539 240.175 24.2918 239.912 24.8923C239.874 24.9798 239.862 25.0674 239.862 25.1675V29.9587C239.862 30.2464 239.762 30.4966 239.549 30.7092C239.336 30.9219 239.086 31.022 238.799 31.022H237.66V31.0094Z" fill="white"/>
<path d="M246.78 19.0627C246.229 19.0627 245.779 18.9125 245.416 18.5998C245.066 18.2871 244.891 17.8866 244.891 17.3988C244.891 16.9109 245.066 16.4981 245.416 16.1853C245.766 15.8726 246.217 15.71 246.78 15.71C247.343 15.71 247.768 15.8726 248.106 16.1853C248.444 16.4981 248.631 16.9109 248.631 17.3988C248.631 17.8866 248.456 18.2871 248.106 18.5998C247.755 18.9125 247.318 19.0627 246.78 19.0627ZM246.204 31.0095C245.904 31.0095 245.654 30.9094 245.454 30.6967C245.254 30.484 245.153 30.2339 245.153 29.9461V21.5771C245.153 21.2894 245.254 21.0393 245.454 20.8266C245.654 20.6139 245.904 20.5138 246.204 20.5138H247.343C247.63 20.5138 247.881 20.6139 248.093 20.8266C248.306 21.0393 248.406 21.2894 248.406 21.5771V29.9461C248.406 30.2339 248.306 30.484 248.093 30.6967C247.881 30.9094 247.63 31.0095 247.343 31.0095H246.204Z" fill="white"/>
<path d="M255.775 31.2597C254.223 31.2597 252.947 30.7717 251.946 29.7834C250.946 28.7952 250.445 27.4692 250.445 25.7678C250.445 24.9422 250.583 24.1791 250.871 23.4786C251.158 22.778 251.521 22.1901 251.984 21.7397C252.447 21.2768 252.972 20.9141 253.573 20.6639C254.161 20.4012 254.786 20.276 255.412 20.276C256.875 20.276 257.989 20.7389 258.752 21.6771C259.515 22.6153 259.903 23.8414 259.903 25.3425V25.6802C259.903 25.9804 259.765 26.2307 259.527 26.4309C259.29 26.631 259.015 26.7311 258.702 26.7311H253.748C253.748 26.7311 253.685 26.7435 253.66 26.781C253.635 26.8061 253.635 26.8437 253.648 26.8812C253.948 28.1447 254.811 28.7702 256.225 28.7702C256.65 28.7702 257.076 28.6951 257.488 28.5575C257.626 28.5075 257.776 28.4825 257.939 28.4825C258.076 28.4825 258.201 28.4949 258.339 28.5325C258.614 28.62 258.827 28.7827 258.964 29.0329L259.015 29.1454C259.127 29.3206 259.177 29.5083 259.177 29.6834C259.177 29.7835 259.165 29.871 259.127 29.9711C259.052 30.2714 258.889 30.484 258.627 30.5966C257.688 31.0344 256.75 31.2597 255.787 31.2597H255.775ZM253.585 24.5168C253.585 24.5168 253.623 24.6044 253.71 24.6044H257C257.101 24.6044 257.151 24.5669 257.151 24.4793C257.126 23.9414 256.975 23.5285 256.713 23.2283C256.438 22.9281 256.037 22.7654 255.499 22.7654C255.036 22.7654 254.624 22.903 254.298 23.1907C253.835 23.5785 253.598 24.0164 253.598 24.5043L253.585 24.5168Z" fill="white"/>
<path d="M263.08 31.0094C262.78 31.0094 262.53 30.9094 262.33 30.6967C262.129 30.484 262.029 30.2339 262.029 29.9461V21.5771C262.029 21.2894 262.129 21.0393 262.33 20.8266C262.53 20.6139 262.78 20.5138 263.08 20.5138H263.618C263.931 20.5138 264.206 20.6139 264.431 20.8141C264.669 21.0142 264.806 21.2644 264.857 21.5771L264.894 21.7897C264.894 21.7897 264.907 21.8273 264.944 21.8273C264.982 21.8273 264.994 21.8273 265.007 21.8148C266.057 20.789 267.171 20.2635 268.334 20.2635C269.498 20.2635 270.261 20.6389 270.786 21.3769C271.324 22.115 271.587 23.1659 271.587 24.5294V29.9461C271.587 30.2339 271.487 30.484 271.286 30.6967C271.086 30.9094 270.836 31.0094 270.536 31.0094H269.385C269.085 31.0094 268.835 30.9094 268.634 30.6967C268.434 30.484 268.334 30.2339 268.334 29.9461V24.9297C268.334 24.2291 268.234 23.7539 268.046 23.4787C267.859 23.2034 267.546 23.0783 267.108 23.0783C266.783 23.0783 266.495 23.1409 266.258 23.2785C266.007 23.4161 265.72 23.6288 265.382 23.929C265.319 23.9915 265.294 24.0665 265.294 24.1416V29.9587C265.294 30.2464 265.194 30.4966 264.982 30.7092C264.769 30.9219 264.519 31.022 264.231 31.022H263.093L263.08 31.0094Z" fill="white"/>
<path d="M277.892 31.2597C276.579 31.2597 275.528 30.7718 274.752 29.796C273.977 28.8203 273.589 27.4818 273.589 25.7804C273.589 24.9548 273.714 24.1792 273.952 23.4787C274.202 22.7656 274.527 22.1901 274.927 21.7273C275.34 21.2769 275.791 20.9141 276.316 20.6514C276.829 20.3887 277.367 20.2636 277.917 20.2636C278.43 20.2636 278.881 20.3512 279.243 20.5138C279.619 20.6765 279.981 20.9266 280.344 21.2519C280.344 21.2769 280.369 21.2769 280.394 21.2644C280.419 21.2644 280.419 21.2393 280.407 21.2143L280.294 19.7757V17.3488C280.294 17.0486 280.394 16.7984 280.607 16.5983C280.82 16.3981 281.057 16.2855 281.357 16.2855H282.533C282.834 16.2855 283.084 16.3856 283.284 16.5983C283.484 16.8109 283.597 17.0486 283.597 17.3488V29.9462C283.597 30.2339 283.497 30.484 283.284 30.6967C283.084 30.9094 282.834 31.0095 282.533 31.0095H281.845C281.57 31.0095 281.332 30.9219 281.12 30.7593C280.907 30.5967 280.769 30.3715 280.719 30.1088V30.0338C280.719 30.0338 280.669 29.9962 280.644 29.9962C280.619 29.9962 280.607 29.9963 280.594 30.0088C280.207 30.3966 279.781 30.6968 279.293 30.922C278.818 31.1471 278.343 31.2597 277.867 31.2597H277.892ZM278.755 28.5826C279.381 28.5826 279.881 28.3199 280.244 27.807C280.294 27.732 280.319 27.6568 280.319 27.5567V23.7038C280.319 23.6037 280.282 23.5287 280.206 23.4661C279.781 23.1034 279.268 22.9282 278.693 22.9282C278.205 22.9282 277.792 23.1659 277.454 23.6413C277.117 24.1167 276.954 24.8046 276.954 25.7178C276.954 27.6193 277.554 28.5826 278.755 28.5826Z" fill="white"/>
<path d="M289.226 31.2597C288.163 31.2597 287.4 30.947 286.937 30.309C286.474 29.671 286.249 28.7702 286.249 27.6068V17.3488C286.249 17.0486 286.349 16.7984 286.549 16.5983C286.749 16.3981 287 16.2855 287.3 16.2855H288.438C288.726 16.2855 288.976 16.3856 289.189 16.5983C289.401 16.8109 289.502 17.0486 289.502 17.3488V27.7319C289.502 28.1447 289.614 28.4075 289.839 28.5451C289.839 28.5451 289.902 28.5952 290.014 28.6452C290.115 28.6953 290.177 28.7328 290.215 28.7578C290.24 28.7828 290.29 28.8203 290.365 28.8703C290.427 28.9204 290.477 28.9704 290.515 29.0204C290.54 29.0705 290.565 29.1331 290.577 29.2081L290.69 29.9462C290.69 30.0212 290.702 30.0963 290.702 30.1589C290.702 30.3841 290.64 30.5967 290.527 30.7844C290.365 31.0471 290.127 31.1972 289.827 31.2347C289.652 31.2347 289.452 31.2472 289.251 31.2472L289.226 31.2597Z" fill="white"/>
<path d="M293.642 35.1002C293.467 35.1002 293.292 35.1002 293.142 35.0877C292.854 35.0626 292.629 34.9251 292.479 34.6749C292.366 34.5123 292.316 34.3245 292.316 34.1369C292.316 34.0368 292.316 33.9493 292.354 33.8617L292.466 33.449C292.529 33.1862 292.679 32.9736 292.916 32.8235C293.154 32.6733 293.429 32.5608 293.742 32.5107C294.455 32.4106 294.918 32.0103 295.143 31.2848L295.268 30.8719C295.293 30.7843 295.281 30.7093 295.256 30.6217L291.678 21.5771C291.64 21.4771 291.628 21.3895 291.628 21.2894C291.628 21.1518 291.666 21.0266 291.753 20.889C291.903 20.6889 292.091 20.5888 292.341 20.5888H293.529C293.842 20.5888 294.13 20.6763 294.38 20.864C294.643 21.0516 294.818 21.2894 294.905 21.5897L295.969 24.9172C296.044 25.1298 296.307 26.1057 296.782 27.8446C296.782 27.8696 296.82 27.882 296.845 27.882C296.87 27.882 296.895 27.8821 296.895 27.8446C297.02 27.2691 297.245 26.2932 297.583 24.9172L298.496 21.6022C298.583 21.2894 298.746 21.0391 298.996 20.8515C299.246 20.6638 299.534 20.5763 299.847 20.5763H300.835C301.098 20.5763 301.298 20.6764 301.448 20.8765C301.561 21.0266 301.611 21.1642 301.611 21.3143C301.611 21.4019 301.598 21.4896 301.561 21.5771L298.308 31.0595C297.77 32.4857 297.157 33.5114 296.482 34.1494C295.806 34.7749 294.868 35.0877 293.667 35.0877L293.642 35.1002Z" fill="white"/>
<path d="M310.805 31.2598C309.741 31.2598 308.678 30.972 307.64 30.3965C307.389 30.2464 307.239 30.0338 307.189 29.7336C307.189 29.6711 307.177 29.6085 307.177 29.5584C307.177 29.3333 307.252 29.1206 307.389 28.933L307.602 28.6202C307.765 28.3825 308.002 28.2323 308.29 28.1948C308.365 28.1948 308.428 28.1822 308.503 28.1822C308.715 28.1822 308.928 28.2323 309.116 28.3449C309.729 28.6952 310.317 28.8703 310.88 28.8703C311.705 28.8703 312.118 28.5951 312.118 28.0447C312.118 27.9571 312.106 27.8821 312.068 27.807C312.031 27.732 311.968 27.6569 311.88 27.5818C311.793 27.5067 311.705 27.4443 311.643 27.3943C311.568 27.3442 311.455 27.2817 311.305 27.2191C311.155 27.1566 311.03 27.094 310.942 27.0565C310.855 27.019 310.705 26.9564 310.492 26.8813C310.279 26.8063 310.129 26.7437 310.054 26.7062C309.691 26.5561 309.366 26.4059 309.078 26.2433C308.791 26.0807 308.503 25.8806 308.228 25.6429C307.952 25.4052 307.727 25.1174 307.564 24.7671C307.402 24.4293 307.327 24.0416 307.327 23.6288C307.327 22.628 307.702 21.8273 308.44 21.2143C309.178 20.6014 310.167 20.3011 311.393 20.3011C312.406 20.3011 313.357 20.5513 314.257 21.0517C314.508 21.2018 314.658 21.4145 314.708 21.7022C314.708 21.7648 314.72 21.8274 314.72 21.8774C314.72 22.1026 314.645 22.3152 314.507 22.4904L314.307 22.7405C314.145 22.9657 313.907 23.1158 313.607 23.1783C313.519 23.1783 313.444 23.1908 313.357 23.1908C313.156 23.1908 312.956 23.1408 312.756 23.0407C312.306 22.8155 311.88 22.7031 311.493 22.7031C310.755 22.7031 310.379 22.9533 310.379 23.4536C310.379 23.5287 310.379 23.5911 310.417 23.6537C310.442 23.7162 310.479 23.7663 310.529 23.8289C310.579 23.8789 310.629 23.9289 310.679 23.979C310.729 24.029 310.792 24.0665 310.88 24.1166C310.967 24.1541 311.055 24.1917 311.117 24.2293C311.192 24.2668 311.293 24.3043 311.418 24.3543C311.543 24.4044 311.643 24.4418 311.73 24.4669C311.818 24.4919 311.931 24.5295 312.068 24.5796C312.218 24.6296 312.331 24.6671 312.431 24.7046C312.819 24.8547 313.144 24.9923 313.432 25.1424C313.707 25.2926 313.995 25.4927 314.295 25.7304C314.582 25.9806 314.808 26.2808 314.958 26.631C315.108 26.9813 315.183 27.3943 315.183 27.8446C315.183 28.8579 314.808 29.671 314.045 30.309C313.282 30.947 312.218 31.2598 310.83 31.2598H310.805Z" fill="white"/>
<path d="M321.801 31.2597C320.25 31.2597 318.974 30.7717 317.973 29.7834C316.972 28.7952 316.472 27.4692 316.472 25.7678C316.472 24.9422 316.609 24.1791 316.897 23.4786C317.185 22.778 317.548 22.1901 318.011 21.7397C318.473 21.2768 318.999 20.9141 319.599 20.6639C320.187 20.4012 320.813 20.276 321.438 20.276C322.902 20.276 324.015 20.7389 324.778 21.6771C325.541 22.6153 325.929 23.8414 325.929 25.3425V25.6802C325.929 25.9804 325.792 26.2307 325.554 26.4309C325.316 26.631 325.041 26.7311 324.728 26.7311H319.774C319.774 26.7311 319.712 26.7435 319.687 26.781C319.662 26.8061 319.662 26.8437 319.674 26.8812C319.975 28.1447 320.838 28.7702 322.251 28.7702C322.677 28.7702 323.102 28.6951 323.515 28.5575C323.652 28.5075 323.803 28.4825 323.965 28.4825C324.103 28.4825 324.228 28.4949 324.365 28.5325C324.641 28.62 324.853 28.7827 324.991 29.0329L325.041 29.1454C325.154 29.3206 325.204 29.5083 325.204 29.6834C325.204 29.7835 325.191 29.871 325.154 29.9711C325.079 30.2714 324.916 30.484 324.653 30.5966C323.715 31.0344 322.777 31.2597 321.813 31.2597H321.801ZM319.599 24.5168C319.599 24.5168 319.637 24.6044 319.724 24.6044H323.014C323.115 24.6044 323.165 24.5669 323.165 24.4793C323.14 23.9414 322.989 23.5285 322.727 23.2283C322.451 22.9281 322.051 22.7654 321.513 22.7654C321.05 22.7654 320.638 22.903 320.312 23.1907C319.849 23.5785 319.612 24.0164 319.612 24.5043L319.599 24.5168Z" fill="white"/>
<path d="M329.108 31.0094C328.807 31.0094 328.557 30.9094 328.357 30.6967C328.157 30.484 328.057 30.2339 328.057 29.9461V21.5771C328.057 21.2894 328.157 21.0393 328.357 20.8266C328.557 20.6139 328.807 20.5138 329.108 20.5138H329.645C329.946 20.5138 330.208 20.6139 330.434 20.8266C330.659 21.0267 330.796 21.2769 330.834 21.5771L330.921 22.3152C330.921 22.3152 330.934 22.3527 330.972 22.3527C331.009 22.3527 331.021 22.3527 331.034 22.3152C331.409 21.6396 331.86 21.1393 332.385 20.789C332.911 20.4387 333.448 20.2635 333.986 20.2635H334.237C334.524 20.2635 334.749 20.4136 334.925 20.6763C335.037 20.8515 335.087 21.0517 335.087 21.2644C335.087 21.352 335.087 21.427 335.075 21.5145L334.925 22.2526C334.862 22.5278 334.712 22.7405 334.474 22.9031C334.249 23.0532 333.986 23.1409 333.699 23.1409H333.574C333.161 23.1409 332.748 23.2784 332.348 23.5662C331.947 23.8539 331.622 24.2918 331.359 24.8923C331.322 24.9798 331.309 25.0674 331.309 25.1675V29.9587C331.309 30.2464 331.209 30.4966 330.997 30.7092C330.784 30.9219 330.534 31.022 330.246 31.022H329.108V31.0094Z" fill="white"/>
<path d="M340.052 31.0094C339.74 31.0094 339.452 30.9219 339.202 30.7342C338.939 30.5466 338.764 30.309 338.651 30.0087L335.849 21.5395C335.824 21.452 335.812 21.377 335.812 21.2894C335.812 21.1393 335.862 20.9891 335.949 20.864C336.099 20.6513 336.312 20.5387 336.562 20.5387H337.75C338.063 20.5387 338.338 20.6389 338.589 20.8266C338.839 21.0142 339.002 21.2644 339.089 21.5646L340.077 25.38C340.165 25.7178 340.29 26.2432 340.465 26.9437C340.64 27.6568 340.778 28.1822 340.865 28.545C340.865 28.5825 340.878 28.5951 340.915 28.5951C340.953 28.5951 340.966 28.5825 340.978 28.545C341.116 27.907 341.378 26.8562 341.729 25.38L342.754 21.5646C342.842 21.2644 343.005 21.0142 343.255 20.8266C343.505 20.6389 343.78 20.5387 344.093 20.5387H345.119C345.381 20.5387 345.594 20.6513 345.744 20.864C345.844 21.0016 345.882 21.1517 345.882 21.3143C345.882 21.3894 345.882 21.4645 345.844 21.5521L343.105 30.0212C343.005 30.3215 342.829 30.5591 342.579 30.7468C342.317 30.9344 342.041 31.0219 341.729 31.0219H340.052V31.0094Z" fill="white"/>
<path d="M349.398 19.0627C348.847 19.0627 348.397 18.9125 348.034 18.5998C347.684 18.2871 347.509 17.8866 347.509 17.3988C347.509 16.9109 347.684 16.4981 348.034 16.1853C348.385 15.8726 348.835 15.71 349.398 15.71C349.961 15.71 350.386 15.8726 350.724 16.1853C351.074 16.4981 351.249 16.9109 351.249 17.3988C351.249 17.8866 351.074 18.2871 350.724 18.5998C350.373 18.9125 349.936 19.0627 349.398 19.0627ZM348.822 31.0095C348.522 31.0095 348.272 30.9094 348.072 30.6967C347.872 30.484 347.771 30.2339 347.771 29.9461V21.5771C347.771 21.2894 347.872 21.0393 348.072 20.8266C348.272 20.6139 348.522 20.5138 348.822 20.5138H349.961C350.248 20.5138 350.499 20.6139 350.711 20.8266C350.924 21.0393 351.024 21.2894 351.024 21.5771V29.9461C351.024 30.2339 350.924 30.484 350.711 30.6967C350.499 30.9094 350.248 31.0095 349.961 31.0095H348.822Z" fill="white"/>
<path d="M358.279 31.2597C356.753 31.2597 355.502 30.7718 354.526 29.7835C353.55 28.7952 353.062 27.4692 353.062 25.7679C353.062 24.6545 353.325 23.6663 353.838 22.8156C354.351 21.9649 355.027 21.3269 355.852 20.9016C356.678 20.4762 357.579 20.2635 358.567 20.2635C359.367 20.2635 360.106 20.4387 360.756 20.789C361.006 20.9391 361.156 21.1518 361.206 21.4396C361.206 21.5021 361.219 21.5645 361.219 21.6146C361.219 21.8397 361.144 22.0524 360.981 22.24L360.706 22.6404C360.506 22.9157 360.193 23.0532 359.793 23.0532C359.605 23.0532 359.392 23.0283 359.167 22.9657C359.03 22.9282 358.892 22.9156 358.742 22.9156C358.029 22.9156 357.466 23.1783 357.041 23.6912C356.615 24.2041 356.403 24.9047 356.403 25.7804C356.403 26.6561 356.615 27.3192 357.028 27.8446C357.454 28.37 357.979 28.6327 358.629 28.6327C358.93 28.6327 359.23 28.5701 359.543 28.4325C359.705 28.3574 359.88 28.32 360.068 28.32C360.168 28.32 360.256 28.3198 360.356 28.3574C360.644 28.4199 360.856 28.57 360.981 28.8077L361.182 29.133C361.294 29.3206 361.344 29.5209 361.344 29.721C361.344 29.8086 361.344 29.8836 361.332 29.9712C361.269 30.2839 361.106 30.5091 360.844 30.6342C360.068 31.0471 359.205 31.2597 358.267 31.2597H358.279Z" fill="white"/>
<path d="M367.712 31.2597C366.161 31.2597 364.885 30.7717 363.884 29.7834C362.883 28.7952 362.383 27.4692 362.383 25.7678C362.383 24.9422 362.52 24.1791 362.808 23.4786C363.096 22.778 363.459 22.1901 363.921 21.7397C364.384 21.2894 364.91 20.9141 365.51 20.6639C366.098 20.4012 366.724 20.276 367.349 20.276C368.813 20.276 369.926 20.7389 370.689 21.6771C371.452 22.6153 371.84 23.8414 371.84 25.3425V25.6802C371.84 25.9804 371.703 26.2307 371.465 26.4309C371.227 26.631 370.952 26.7311 370.639 26.7311H365.698C365.698 26.7311 365.635 26.7435 365.61 26.781C365.585 26.8061 365.585 26.8437 365.598 26.8812C365.898 28.1447 366.761 28.7702 368.175 28.7702C368.6 28.7702 369.026 28.6951 369.438 28.5575C369.576 28.5075 369.726 28.4825 369.889 28.4825C370.026 28.4825 370.151 28.4949 370.289 28.5325C370.564 28.62 370.777 28.7827 370.914 29.0329L370.965 29.1454C371.077 29.3206 371.127 29.5083 371.127 29.6834C371.127 29.7835 371.115 29.871 371.077 29.9711C371.002 30.2714 370.839 30.484 370.577 30.5966C369.638 31.0344 368.7 31.2597 367.737 31.2597H367.712ZM365.523 24.5168C365.523 24.5168 365.56 24.6044 365.648 24.6044H368.938C369.038 24.6044 369.088 24.5669 369.088 24.4793C369.063 23.9414 368.913 23.5285 368.65 23.2283C368.388 22.9281 367.975 22.7654 367.437 22.7654C366.974 22.7654 366.561 22.903 366.236 23.1907C365.773 23.5785 365.535 24.0164 365.535 24.5043L365.523 24.5168Z" fill="white"/>
<path d="M377.095 31.2598C376.031 31.2598 374.968 30.972 373.93 30.3965C373.679 30.2464 373.529 30.0338 373.479 29.7336C373.479 29.6711 373.467 29.6085 373.467 29.5584C373.467 29.3333 373.542 29.1206 373.68 28.933L373.892 28.6202C374.055 28.3825 374.292 28.2323 374.58 28.1948C374.655 28.1948 374.718 28.1822 374.793 28.1822C375.005 28.1822 375.218 28.2323 375.406 28.3449C376.019 28.6952 376.607 28.8703 377.17 28.8703C377.995 28.8703 378.408 28.5951 378.408 28.0447C378.408 27.9571 378.396 27.8821 378.358 27.807C378.321 27.732 378.258 27.6569 378.171 27.5818C378.083 27.5067 377.995 27.4443 377.933 27.3943C377.858 27.3442 377.745 27.2817 377.595 27.2191C377.445 27.1566 377.32 27.094 377.232 27.0565C377.145 27.019 376.995 26.9564 376.782 26.8813C376.569 26.8063 376.419 26.7437 376.344 26.7062C375.981 26.5561 375.656 26.4059 375.368 26.2433C375.081 26.0807 374.793 25.8806 374.518 25.6429C374.242 25.4052 374.017 25.1174 373.855 24.7671C373.692 24.4293 373.617 24.0416 373.617 23.6288C373.617 22.628 373.992 21.8273 374.73 21.2143C375.468 20.6014 376.457 20.3011 377.683 20.3011C378.696 20.3011 379.647 20.5513 380.547 21.0517C380.798 21.2018 380.948 21.4145 380.998 21.7022C380.998 21.7648 381.01 21.8274 381.01 21.8774C381.01 22.1026 380.935 22.3152 380.798 22.4904L380.597 22.7405C380.435 22.9657 380.197 23.1158 379.897 23.1783C379.809 23.1783 379.734 23.1908 379.647 23.1908C379.446 23.1908 379.246 23.1408 379.046 23.0407C378.596 22.8155 378.17 22.7031 377.783 22.7031C377.045 22.7031 376.669 22.9533 376.669 23.4536C376.669 23.5287 376.669 23.5911 376.707 23.6537C376.732 23.7162 376.769 23.7663 376.819 23.8289C376.87 23.8789 376.92 23.9289 376.97 23.979C377.02 24.029 377.082 24.0665 377.17 24.1166C377.257 24.1541 377.345 24.1917 377.407 24.2293C377.482 24.2668 377.583 24.3043 377.708 24.3543C377.833 24.4044 377.933 24.4418 378.02 24.4669C378.108 24.4919 378.221 24.5295 378.358 24.5796C378.508 24.6296 378.621 24.6671 378.721 24.7046C379.109 24.8547 379.434 24.9923 379.722 25.1424C379.997 25.2926 380.285 25.4927 380.585 25.7304C380.873 25.9806 381.098 26.2808 381.248 26.631C381.398 26.9813 381.473 27.3943 381.473 27.8446C381.473 28.8579 381.098 29.671 380.335 30.309C379.572 30.947 378.508 31.2598 377.12 31.2598H377.095Z" fill="white"/>
<path d="M388.616 34.8626C388.316 34.8626 388.066 34.7625 387.866 34.5499C387.665 34.3372 387.565 34.087 387.565 33.7993V21.6146C387.565 21.3269 387.665 21.0767 387.866 20.864C388.066 20.6514 388.316 20.5513 388.616 20.5513H389.304C389.567 20.5513 389.805 20.639 390.017 20.8141C390.23 20.9892 390.368 21.2019 390.418 21.4521V21.5396C390.418 21.5396 390.455 21.5772 390.48 21.5772C390.505 21.5772 390.53 21.5771 390.543 21.5396C391.494 20.714 392.457 20.3011 393.458 20.3011C394.721 20.3011 395.709 20.7891 396.447 21.7523C397.185 22.7156 397.548 24.0166 397.548 25.6303C397.548 26.506 397.423 27.3066 397.185 28.0321C396.935 28.7577 396.61 29.3583 396.197 29.8336C395.784 30.309 395.309 30.6718 394.784 30.922C394.258 31.1722 393.708 31.2973 393.145 31.2973C392.294 31.2973 391.518 30.972 390.805 30.309C390.805 30.309 390.78 30.309 390.755 30.309C390.73 30.309 390.718 30.3341 390.718 30.3466L390.805 31.8602V33.7993C390.805 34.087 390.705 34.3372 390.493 34.5499C390.28 34.7625 390.03 34.8626 389.742 34.8626H388.604H388.616ZM392.382 28.6202C392.92 28.6202 393.357 28.3824 393.683 27.8945C394.008 27.4192 394.183 26.6811 394.183 25.6803C394.183 24.7546 394.045 24.0792 393.77 23.6413C393.495 23.2035 393.07 22.9783 392.494 22.9783C391.956 22.9783 391.431 23.241 390.905 23.7539C390.843 23.8289 390.818 23.9039 390.818 23.9915V27.882C390.818 27.9696 390.855 28.0322 390.93 28.0947C391.368 28.445 391.844 28.6202 392.394 28.6202H392.382Z" fill="white"/>
<path d="M400.727 31.0094C400.426 31.0094 400.176 30.9094 399.976 30.6967C399.776 30.484 399.676 30.2339 399.676 29.9461V21.5771C399.676 21.2894 399.776 21.0393 399.976 20.8266C400.176 20.6139 400.426 20.5138 400.727 20.5138H401.265C401.565 20.5138 401.828 20.6139 402.053 20.8266C402.278 21.0267 402.416 21.2769 402.453 21.5771L402.541 22.3152C402.541 22.3152 402.553 22.3527 402.591 22.3527C402.628 22.3527 402.641 22.3527 402.653 22.3152C403.028 21.6396 403.479 21.1393 404.004 20.789C404.53 20.4387 405.068 20.2635 405.605 20.2635H405.856C406.143 20.2635 406.369 20.4136 406.544 20.6763C406.656 20.8515 406.706 21.0517 406.706 21.2644C406.706 21.352 406.706 21.427 406.694 21.5145L406.544 22.2526C406.481 22.5278 406.331 22.7405 406.093 22.9031C405.868 23.0532 405.605 23.1409 405.318 23.1409H405.193C404.767 23.1409 404.367 23.2784 403.967 23.5662C403.566 23.8539 403.241 24.2918 402.978 24.8923C402.941 24.9798 402.928 25.0674 402.928 25.1675V29.9587C402.928 30.2464 402.828 30.4966 402.616 30.7092C402.403 30.9219 402.153 31.022 401.865 31.022H400.727V31.0094Z" fill="white"/>
<path d="M412.774 31.2597C411.222 31.2597 409.946 30.7717 408.945 29.7834C407.945 28.7952 407.444 27.4692 407.444 25.7678C407.444 24.9422 407.582 24.1791 407.87 23.4786C408.157 22.778 408.52 22.1901 408.983 21.7397C409.446 21.2768 409.971 20.9141 410.572 20.6639C411.16 20.4012 411.785 20.276 412.411 20.276C413.874 20.276 414.988 20.7389 415.751 21.6771C416.514 22.6153 416.902 23.8414 416.902 25.3425V25.6802C416.902 25.9804 416.764 26.2307 416.526 26.4309C416.289 26.631 416.014 26.7311 415.701 26.7311H410.747C410.747 26.7311 410.684 26.7435 410.659 26.781C410.634 26.8061 410.634 26.8437 410.647 26.8812C410.947 28.1447 411.81 28.7702 413.224 28.7702C413.649 28.7702 414.075 28.6951 414.487 28.5575C414.625 28.5075 414.775 28.4825 414.938 28.4825C415.075 28.4825 415.2 28.4949 415.338 28.5325C415.613 28.62 415.826 28.7827 415.963 29.0329L416.014 29.1454C416.126 29.3206 416.176 29.5083 416.176 29.6834C416.176 29.7835 416.164 29.871 416.126 29.9711C416.051 30.2714 415.888 30.484 415.626 30.5966C414.687 31.0344 413.749 31.2597 412.786 31.2597H412.774ZM410.572 24.5168C410.572 24.5168 410.609 24.6044 410.697 24.6044H413.987C414.087 24.6044 414.137 24.5669 414.137 24.4793C414.112 23.9414 413.962 23.5285 413.699 23.2283C413.424 22.9281 413.024 22.7654 412.486 22.7654C412.023 22.7654 411.61 22.903 411.285 23.1907C410.822 23.5785 410.584 24.0164 410.584 24.5043L410.572 24.5168Z" fill="white"/>
<path d="M420.078 34.8626C419.778 34.8626 419.528 34.7625 419.328 34.5499C419.127 34.3372 419.027 34.087 419.027 33.7993V21.6146C419.027 21.3269 419.127 21.0767 419.328 20.864C419.528 20.6514 419.778 20.5513 420.078 20.5513H420.766C421.029 20.5513 421.267 20.639 421.479 20.8141C421.692 20.9892 421.829 21.2019 421.879 21.4521V21.5396C421.879 21.5396 421.917 21.5772 421.942 21.5772C421.967 21.5772 421.992 21.5771 422.005 21.5396C422.955 20.714 423.919 20.3011 424.919 20.3011C426.183 20.3011 427.171 20.7891 427.909 21.7523C428.647 22.7156 429.01 24.0166 429.01 25.6303C429.01 26.506 428.885 27.3066 428.647 28.0321C428.397 28.7577 428.072 29.3583 427.659 29.8336C427.246 30.309 426.771 30.6718 426.245 30.922C425.72 31.1722 425.17 31.2973 424.607 31.2973C423.756 31.2973 422.98 30.972 422.267 30.309C422.267 30.309 422.242 30.309 422.217 30.309C422.192 30.309 422.18 30.3341 422.18 30.3466L422.267 31.8602V33.7993C422.267 34.087 422.167 34.3372 421.955 34.5499C421.742 34.7625 421.492 34.8626 421.204 34.8626H420.066H420.078ZM423.831 28.6202C424.369 28.6202 424.807 28.3824 425.132 27.8945C425.457 27.4192 425.632 26.6811 425.632 25.6803C425.632 24.7546 425.495 24.0792 425.22 23.6413C424.944 23.2035 424.519 22.9783 423.944 22.9783C423.406 22.9783 422.88 23.241 422.355 23.7539C422.292 23.8289 422.267 23.9039 422.267 23.9915V27.882C422.267 27.9696 422.305 28.0322 422.38 28.0947C422.818 28.445 423.293 28.6202 423.844 28.6202H423.831Z" fill="white"/>
<path d="M433.59 31.2597C432.651 31.2597 431.901 30.9595 431.338 30.3465C430.763 29.7335 430.487 28.9828 430.487 28.0821C430.487 26.9813 430.938 26.1182 431.851 25.5052C432.752 24.8922 434.203 24.4794 436.179 24.2417C436.279 24.2417 436.317 24.1791 436.304 24.0916C436.179 23.2784 435.666 22.8655 434.741 22.8655C434.203 22.8655 433.602 23.0157 432.939 23.316C432.789 23.391 432.627 23.4285 432.451 23.4285C432.339 23.4285 432.226 23.416 432.114 23.3784C431.838 23.2909 431.626 23.1158 431.488 22.8531L431.338 22.5778C431.25 22.4152 431.213 22.2401 431.213 22.0775C431.213 21.9649 431.213 21.8648 431.25 21.7522C431.338 21.4645 431.513 21.2644 431.776 21.1393C432.989 20.5513 434.178 20.251 435.354 20.251C438.181 20.251 439.594 21.8523 439.594 25.0423V29.9336C439.594 30.2213 439.494 30.4715 439.282 30.6841C439.069 30.8968 438.819 30.9969 438.531 30.9969H437.881C437.593 30.9969 437.343 30.9094 437.13 30.7342C436.917 30.5591 436.78 30.3339 436.717 30.0586V29.9837C436.717 29.9837 436.667 29.9461 436.642 29.9461C436.617 29.9461 436.605 29.9461 436.592 29.9586C435.616 30.8093 434.628 31.2346 433.602 31.2346L433.59 31.2597ZM434.716 28.7327C435.229 28.7327 435.729 28.4825 436.204 27.9946C436.267 27.9321 436.292 27.8569 436.292 27.7569V26.3558C436.292 26.2807 436.254 26.2432 436.179 26.2432H436.142C434.428 26.4934 433.565 27.0189 433.565 27.832C433.565 28.1322 433.665 28.3573 433.865 28.5074C434.065 28.6575 434.34 28.7327 434.703 28.7327H434.716Z" fill="white"/>
<path d="M443.159 31.0094C442.859 31.0094 442.609 30.9094 442.409 30.6967C442.208 30.484 442.108 30.2339 442.108 29.9461V21.5771C442.108 21.2894 442.208 21.0393 442.409 20.8266C442.609 20.6139 442.859 20.5138 443.159 20.5138H443.697C443.997 20.5138 444.26 20.6139 444.485 20.8266C444.71 21.0267 444.848 21.2769 444.886 21.5771L444.973 22.3152C444.973 22.3152 444.986 22.3527 445.023 22.3527C445.061 22.3527 445.073 22.3527 445.086 22.3152C445.461 21.6396 445.911 21.1393 446.437 20.789C446.962 20.4387 447.5 20.2635 448.038 20.2635H448.288C448.576 20.2635 448.801 20.4136 448.976 20.6763C449.089 20.8515 449.139 21.0517 449.139 21.2644C449.139 21.352 449.139 21.427 449.126 21.5145L448.976 22.2526C448.914 22.5278 448.764 22.7405 448.526 22.9031C448.301 23.0532 448.038 23.1409 447.75 23.1409H447.625C447.212 23.1409 446.8 23.2784 446.399 23.5662C445.999 23.8539 445.674 24.2918 445.411 24.8923C445.373 24.9798 445.361 25.0674 445.361 25.1675V29.9587C445.361 30.2464 445.261 30.4966 445.048 30.7092C444.836 30.9219 444.585 31.022 444.298 31.022H443.159V31.0094Z" fill="white"/>
<path d="M455.192 31.2597C453.641 31.2597 452.365 30.7717 451.365 29.7834C450.364 28.7952 449.863 27.4692 449.863 25.7678C449.863 24.9422 450.001 24.1791 450.289 23.4786C450.576 22.778 450.939 22.1901 451.402 21.7397C451.865 21.2768 452.39 20.9141 452.991 20.6639C453.579 20.4012 454.204 20.276 454.83 20.276C456.293 20.276 457.407 20.7389 458.17 21.6771C458.933 22.6153 459.321 23.8414 459.321 25.3425V25.6802C459.321 25.9804 459.183 26.2307 458.945 26.4309C458.708 26.631 458.433 26.7311 458.12 26.7311H453.166C453.166 26.7311 453.103 26.7435 453.078 26.781C453.053 26.8061 453.053 26.8437 453.066 26.8812C453.366 28.1447 454.229 28.7702 455.643 28.7702C456.068 28.7702 456.493 28.6951 456.906 28.5575C457.044 28.5075 457.194 28.4825 457.357 28.4825C457.494 28.4825 457.619 28.4949 457.757 28.5325C458.032 28.62 458.245 28.7827 458.383 29.0329L458.433 29.1454C458.545 29.3206 458.595 29.5083 458.595 29.6834C458.595 29.7835 458.583 29.871 458.545 29.9711C458.47 30.2714 458.307 30.484 458.045 30.5966C457.107 31.0344 456.168 31.2597 455.205 31.2597H455.192ZM453.003 24.5168C453.003 24.5168 453.041 24.6044 453.128 24.6044H456.418C456.518 24.6044 456.569 24.5669 456.569 24.4793C456.544 23.9414 456.393 23.5285 456.131 23.2283C455.868 22.9281 455.455 22.7654 454.917 22.7654C454.454 22.7654 454.042 22.903 453.716 23.1907C453.254 23.5785 453.016 24.0164 453.016 24.5043L453.003 24.5168Z" fill="white"/>
<path d="M465.201 31.2597C463.887 31.2597 462.836 30.7718 462.061 29.796C461.285 28.8203 460.897 27.4818 460.897 25.7804C460.897 24.9548 461.023 24.1792 461.26 23.4787C461.51 22.7656 461.836 22.1901 462.236 21.7273C462.649 21.2769 463.099 20.9141 463.625 20.6514C464.137 20.3887 464.675 20.2636 465.226 20.2636C465.739 20.2636 466.189 20.3512 466.552 20.5138C466.927 20.6765 467.29 20.9266 467.653 21.2519C467.653 21.2769 467.678 21.2769 467.703 21.2644C467.728 21.2644 467.728 21.2393 467.715 21.2143L467.603 19.7757V17.3488C467.603 17.0486 467.703 16.7984 467.915 16.5983C468.128 16.3981 468.366 16.2855 468.666 16.2855H469.842C470.142 16.2855 470.392 16.3856 470.593 16.5983C470.793 16.8109 470.905 17.0486 470.905 17.3488V29.9462C470.905 30.2339 470.805 30.484 470.593 30.6967C470.392 30.9094 470.142 31.0095 469.842 31.0095H469.154C468.879 31.0095 468.629 30.9219 468.428 30.7593C468.216 30.5967 468.078 30.3715 468.028 30.1088V30.0338C468.028 30.0338 467.978 29.9962 467.953 29.9962C467.928 29.9962 467.915 29.9963 467.903 30.0088C467.515 30.3966 467.09 30.6968 466.602 30.922C466.126 31.1471 465.651 31.2597 465.176 31.2597H465.201ZM466.064 28.5826C466.69 28.5826 467.19 28.3199 467.553 27.807C467.603 27.732 467.628 27.6568 467.628 27.5567V23.7038C467.628 23.6037 467.59 23.5287 467.515 23.4661C467.09 23.1034 466.577 22.9282 466.001 22.9282C465.514 22.9282 465.101 23.1659 464.763 23.6413C464.425 24.1167 464.263 24.8046 464.263 25.7178C464.263 27.6193 464.863 28.5826 466.064 28.5826Z" fill="white"/>
<path d="M477.222 35.1377C476.91 35.1377 476.634 35.1252 476.372 35.0876C476.084 35.0501 475.859 34.9125 475.709 34.6498C475.609 34.4747 475.559 34.2871 475.559 34.087C475.559 33.9869 475.559 33.8993 475.596 33.7992L475.671 33.4615C475.796 32.9736 476.222 32.6609 476.972 32.5483C477.272 32.4982 477.485 32.3481 477.61 32.0854C477.735 31.8227 477.798 31.4348 477.798 30.9219V21.6396C477.798 21.3393 477.898 21.0892 478.111 20.889C478.323 20.6889 478.573 20.5888 478.861 20.5888H480.037C480.337 20.5888 480.588 20.6889 480.788 20.889C480.988 21.0892 481.101 21.3393 481.101 21.6396V30.8219C481.101 31.4349 481.038 31.9853 480.913 32.4857C480.788 32.986 480.575 33.4364 480.287 33.8492C480 34.262 479.599 34.5748 479.086 34.7999C478.574 35.0251 477.948 35.1377 477.235 35.1377H477.222ZM479.449 19.1251C478.899 19.1251 478.448 18.9625 478.086 18.6497C477.735 18.337 477.56 17.9367 477.56 17.4488C477.56 16.9609 477.735 16.5356 478.086 16.2104C478.436 15.8976 478.899 15.735 479.449 15.735C480 15.735 480.437 15.8976 480.788 16.2104C481.138 16.5231 481.313 16.9359 481.313 17.4488C481.313 17.9617 481.138 18.3245 480.788 18.6497C480.437 18.9625 479.987 19.1251 479.449 19.1251Z" fill="white"/>
<path d="M486.831 31.2598C485.717 31.2598 484.892 30.897 484.366 30.1589C483.841 29.4208 483.578 28.37 483.578 27.0189V21.5897C483.578 21.302 483.678 21.0516 483.878 20.839C484.079 20.6263 484.329 20.5262 484.629 20.5262H485.78C486.068 20.5262 486.318 20.6263 486.53 20.839C486.743 21.0516 486.843 21.302 486.843 21.5897V26.6061C486.843 27.3192 486.931 27.807 487.118 28.0697C487.306 28.3449 487.619 28.4701 488.044 28.4701C488.407 28.4701 488.707 28.395 488.957 28.2448C489.207 28.0947 489.458 27.8446 489.708 27.4943C489.771 27.4192 489.795 27.3441 489.795 27.2565V21.5646C489.795 21.2769 489.896 21.0268 490.108 20.8141C490.308 20.6014 490.559 20.5013 490.859 20.5013H492.01C492.297 20.5013 492.548 20.6014 492.76 20.8141C492.973 21.0268 493.073 21.2769 493.073 21.5646V29.9336C493.073 30.2214 492.973 30.4715 492.76 30.6842C492.548 30.8969 492.297 30.9969 492.01 30.9969H491.472C491.159 30.9969 490.884 30.8969 490.659 30.6967C490.421 30.4966 490.283 30.2464 490.233 29.9462L490.183 29.5835C490.183 29.5835 490.158 29.5459 490.133 29.5459C490.108 29.5459 490.096 29.546 490.083 29.5835C489.62 30.1214 489.12 30.5342 488.607 30.8219C488.094 31.1097 487.494 31.2472 486.831 31.2472V31.2598Z" fill="white"/>
<path d="M498.84 31.2598C497.776 31.2598 496.713 30.972 495.675 30.3965C495.425 30.2464 495.274 30.0338 495.224 29.7336C495.224 29.6711 495.212 29.6085 495.212 29.5584C495.212 29.3333 495.287 29.1206 495.425 28.933L495.637 28.6202C495.8 28.3825 496.038 28.2323 496.325 28.1948C496.4 28.1948 496.463 28.1822 496.538 28.1822C496.751 28.1822 496.963 28.2323 497.151 28.3449C497.764 28.6952 498.352 28.8703 498.915 28.8703C499.741 28.8703 500.153 28.5951 500.153 28.0447C500.153 27.9571 500.141 27.8821 500.103 27.807C500.066 27.732 500.003 27.6569 499.916 27.5818C499.828 27.5067 499.741 27.4443 499.678 27.3943C499.603 27.3442 499.49 27.2817 499.34 27.2191C499.19 27.1566 499.065 27.094 498.977 27.0565C498.89 27.019 498.74 26.9564 498.527 26.8813C498.314 26.8063 498.164 26.7437 498.089 26.7062C497.726 26.5561 497.401 26.4059 497.113 26.2433C496.826 26.0807 496.538 25.8806 496.263 25.6429C495.988 25.4052 495.762 25.1174 495.6 24.7671C495.437 24.4293 495.362 24.0416 495.362 23.6288C495.362 22.628 495.737 21.8273 496.475 21.2143C497.213 20.6014 498.202 20.3011 499.428 20.3011C500.441 20.3011 501.392 20.5513 502.293 21.0517C502.543 21.2018 502.693 21.4145 502.743 21.7022C502.743 21.7648 502.755 21.8274 502.755 21.8774C502.755 22.1026 502.68 22.3152 502.543 22.4904L502.343 22.7405C502.18 22.9657 501.942 23.1158 501.642 23.1783C501.554 23.1783 501.479 23.1908 501.392 23.1908C501.192 23.1908 500.992 23.1408 500.791 23.0407C500.341 22.8155 499.916 22.7031 499.528 22.7031C498.79 22.7031 498.415 22.9533 498.415 23.4536C498.415 23.5287 498.415 23.5911 498.452 23.6537C498.477 23.7162 498.515 23.7663 498.565 23.8289C498.615 23.8789 498.665 23.9289 498.715 23.979C498.765 24.029 498.827 24.0665 498.915 24.1166C499.002 24.1541 499.09 24.1917 499.153 24.2293C499.228 24.2668 499.328 24.3043 499.453 24.3543C499.578 24.4044 499.678 24.4418 499.766 24.4669C499.853 24.4919 499.966 24.5295 500.103 24.5796C500.253 24.6296 500.366 24.6671 500.466 24.7046C500.854 24.8547 501.179 24.9923 501.467 25.1424C501.742 25.2926 502.042 25.4927 502.33 25.7304C502.618 25.9806 502.843 26.2808 502.993 26.631C503.143 26.9813 503.218 27.3943 503.218 27.8446C503.218 28.8579 502.843 29.671 502.08 30.309C501.317 30.947 500.253 31.2598 498.865 31.2598H498.84Z" fill="white"/>
<path d="M509.224 31.2597C507.948 31.2597 507.022 30.8969 506.422 30.1713C505.821 29.4458 505.521 28.4324 505.521 27.1189V23.2158C505.521 23.1282 505.483 23.0907 505.396 23.0907H505.158C504.87 23.0907 504.62 22.9907 504.407 22.778C504.195 22.5653 504.095 22.3152 504.095 22.0274V21.7147C504.095 21.4145 504.195 21.1518 504.395 20.9391C504.595 20.7139 504.858 20.5888 505.146 20.5763L505.558 20.5387C505.658 20.5387 505.708 20.4761 505.721 20.3886L505.921 18.7998C505.971 18.4996 506.109 18.2494 506.334 18.0492C506.559 17.8491 506.822 17.749 507.122 17.749H507.735C508.023 17.749 508.273 17.8491 508.486 18.0492C508.698 18.2494 508.798 18.5121 508.798 18.7998V20.3635C508.798 20.4511 508.836 20.4888 508.923 20.4888H510.2C510.487 20.4888 510.737 20.5888 510.95 20.8015C511.163 21.0142 511.263 21.2643 511.263 21.5521V22.0024C511.263 22.2901 511.163 22.5403 510.95 22.753C510.737 22.9656 510.487 23.0657 510.2 23.0657H508.923C508.836 23.0657 508.798 23.1032 508.798 23.1908V27.0564C508.798 28.0947 509.211 28.6451 510.037 28.6701C510.337 28.6701 510.612 28.7577 510.85 28.9078C511.088 29.058 511.238 29.2581 511.3 29.5083L511.375 29.796C511.375 29.8961 511.388 29.9836 511.388 30.0712C511.388 30.2588 511.338 30.4466 511.225 30.6342C511.075 30.8969 510.85 31.0595 510.562 31.0971C510.124 31.1846 509.674 31.2221 509.211 31.2221L509.224 31.2597Z" fill="white"/>
<path d="M523.134 16.1354C523.422 16.1854 523.634 16.3355 523.784 16.5982C523.884 16.7608 523.934 16.9484 523.934 17.136C523.934 17.2361 523.934 17.3237 523.897 17.4237L523.822 17.7866C523.747 18.0493 523.597 18.2494 523.359 18.3745C523.121 18.5246 522.859 18.5872 522.571 18.5872H522.496C521.733 18.5872 521.345 19.0626 521.345 20.0259V20.3886C521.345 20.4761 521.382 20.5138 521.47 20.5138H522.133C522.433 20.5138 522.683 20.6139 522.884 20.8265C523.084 21.0392 523.184 21.2894 523.184 21.5771V22.0274C523.184 22.3152 523.084 22.5653 522.884 22.778C522.683 22.9907 522.421 23.0907 522.133 23.0907H521.47C521.382 23.0907 521.345 23.1282 521.345 23.2158V29.9461C521.345 30.2338 521.245 30.484 521.032 30.6967C520.819 30.9093 520.569 31.0094 520.282 31.0094H519.118C518.83 31.0094 518.58 30.9093 518.368 30.6967C518.155 30.484 518.055 30.2338 518.055 29.9461V23.2158C518.055 23.1282 518.017 23.0907 517.93 23.0907H517.729C517.429 23.0907 517.179 22.9907 516.979 22.778C516.779 22.5653 516.679 22.3152 516.679 22.0274V21.7147C516.679 21.4144 516.779 21.1517 516.979 20.9391C517.179 20.7139 517.429 20.5888 517.717 20.5762H517.93C518.017 20.5512 518.055 20.5012 518.055 20.4136V20.1259C518.055 19.5505 518.13 19.025 518.267 18.5371C518.418 18.0618 518.63 17.6239 518.943 17.2361C519.243 16.8483 519.669 16.5481 520.182 16.3354C520.707 16.1227 521.32 16.0101 522.02 16.0101C522.396 16.0101 522.759 16.0478 523.134 16.1228V16.1354Z" fill="white"/>
<path d="M529.202 31.2597C528.526 31.2597 527.888 31.1346 527.263 30.8844C526.65 30.6342 526.099 30.2839 525.612 29.8211C525.136 29.3707 524.748 28.7827 524.473 28.0822C524.185 27.3816 524.048 26.6061 524.048 25.7679C524.048 24.9297 524.185 24.1542 524.473 23.4411C524.761 22.728 525.136 22.1526 525.612 21.7022C526.087 21.2519 526.637 20.8891 527.263 20.6389C527.876 20.3887 528.526 20.2635 529.202 20.2635C529.877 20.2635 530.503 20.3887 531.103 20.6389C531.716 20.8891 532.267 21.2393 532.742 21.7022C533.217 22.1526 533.605 22.7405 533.881 23.4411C534.156 24.1542 534.306 24.9172 534.306 25.7679C534.306 26.6186 534.168 27.3816 533.881 28.0822C533.593 28.7827 533.217 29.3582 532.742 29.8211C532.267 30.2714 531.716 30.6342 531.103 30.8844C530.49 31.1346 529.852 31.2597 529.202 31.2597ZM529.202 28.6202C529.79 28.6202 530.228 28.3699 530.528 27.8695C530.816 27.3691 530.966 26.6686 530.966 25.7679C530.966 24.8672 530.816 24.1666 530.528 23.6662C530.228 23.1658 529.79 22.9156 529.202 22.9156C528.614 22.9156 528.151 23.1658 527.851 23.6662C527.551 24.1666 527.401 24.8672 527.401 25.7679C527.401 26.6686 527.551 27.3691 527.851 27.8695C528.151 28.3699 528.601 28.6202 529.202 28.6202Z" fill="white"/>
<path d="M537.444 31.0094C537.144 31.0094 536.894 30.9094 536.694 30.6967C536.494 30.484 536.394 30.2339 536.394 29.9461V21.5771C536.394 21.2894 536.494 21.0393 536.694 20.8266C536.894 20.6139 537.144 20.5138 537.444 20.5138H537.982C538.283 20.5138 538.545 20.6139 538.77 20.8266C538.996 21.0267 539.133 21.2769 539.171 21.5771L539.258 22.3152C539.258 22.3152 539.271 22.3527 539.308 22.3527C539.346 22.3527 539.358 22.3527 539.371 22.3152C539.746 21.6396 540.196 21.1393 540.722 20.789C541.247 20.4387 541.785 20.2635 542.323 20.2635H542.573C542.861 20.2635 543.086 20.4136 543.261 20.6763C543.374 20.8515 543.424 21.0517 543.424 21.2644C543.424 21.352 543.424 21.427 543.412 21.5145L543.261 22.2526C543.199 22.5278 543.049 22.7405 542.811 22.9031C542.586 23.0532 542.323 23.1409 542.035 23.1409H541.91C541.498 23.1409 541.085 23.2784 540.684 23.5662C540.284 23.8539 539.959 24.2918 539.696 24.8923C539.659 24.9798 539.646 25.0674 539.646 25.1675V29.9587C539.646 30.2464 539.546 30.4966 539.333 30.7092C539.121 30.9219 538.87 31.022 538.583 31.022H537.444V31.0094Z" fill="white"/>
<path d="M550.43 35.1002C550.255 35.1002 550.08 35.1002 549.93 35.0877C549.642 35.0626 549.417 34.9251 549.267 34.6749C549.154 34.5123 549.104 34.3245 549.104 34.1369C549.104 34.0368 549.104 33.9493 549.142 33.8617L549.254 33.449C549.317 33.1862 549.467 32.9736 549.705 32.8235C549.942 32.6733 550.218 32.5608 550.53 32.5107C551.243 32.4106 551.706 32.0103 551.931 31.2848L552.056 30.8719C552.081 30.7843 552.069 30.7093 552.044 30.6217L548.466 21.5771C548.429 21.4771 548.416 21.3895 548.416 21.2894C548.416 21.1518 548.454 21.0266 548.541 20.889C548.691 20.6889 548.879 20.5888 549.129 20.5888H550.318C550.63 20.5888 550.918 20.6763 551.168 20.864C551.431 21.0516 551.606 21.2894 551.694 21.5897L552.757 24.9172C552.832 25.1298 553.095 26.1057 553.57 27.8446C553.57 27.8696 553.608 27.882 553.633 27.882C553.658 27.882 553.683 27.8821 553.683 27.8446C553.808 27.2691 554.033 26.2932 554.371 24.9172L555.284 21.6022C555.371 21.2894 555.534 21.0391 555.784 20.8515C556.035 20.6638 556.322 20.5763 556.635 20.5763H557.623C557.886 20.5763 558.086 20.6764 558.236 20.8765C558.349 21.0266 558.399 21.1642 558.399 21.3143C558.399 21.4019 558.386 21.4896 558.349 21.5771L555.096 31.0595C554.558 32.4857 553.945 33.5114 553.27 34.1494C552.594 34.7749 551.656 35.0877 550.455 35.0877L550.43 35.1002Z" fill="white"/>
<path d="M564.629 31.2597C563.953 31.2597 563.315 31.1346 562.69 30.8844C562.077 30.6342 561.526 30.2839 561.038 29.8211C560.563 29.3707 560.175 28.7827 559.9 28.0822C559.612 27.3816 559.475 26.6061 559.475 25.7679C559.475 24.9297 559.612 24.1542 559.9 23.4411C560.188 22.728 560.563 22.1526 561.038 21.7022C561.514 21.2519 562.064 20.8891 562.69 20.6389C563.303 20.3887 563.953 20.2635 564.629 20.2635C565.304 20.2635 565.93 20.3887 566.53 20.6389C567.143 20.8891 567.694 21.2393 568.169 21.7022C568.644 22.1526 569.032 22.7405 569.307 23.4411C569.583 24.1542 569.733 24.9172 569.733 25.7679C569.733 26.6186 569.595 27.3816 569.307 28.0822C569.02 28.7827 568.644 29.3582 568.169 29.8211C567.694 30.2714 567.143 30.6342 566.53 30.8844C565.917 31.1346 565.279 31.2597 564.629 31.2597ZM564.629 28.6202C565.217 28.6202 565.655 28.3699 565.955 27.8695C566.242 27.3691 566.393 26.6686 566.393 25.7679C566.393 24.8672 566.242 24.1666 565.955 23.6662C565.655 23.1658 565.217 22.9156 564.629 22.9156C564.041 22.9156 563.578 23.1658 563.278 23.6662C562.977 24.1666 562.827 24.8672 562.827 25.7679C562.827 26.6686 562.977 27.3691 563.278 27.8695C563.578 28.3699 564.028 28.6202 564.629 28.6202Z" fill="white"/>
<path d="M574.95 31.2598C573.836 31.2598 573.011 30.897 572.485 30.1589C571.96 29.4208 571.697 28.37 571.697 27.0189V21.5897C571.697 21.302 571.797 21.0516 571.997 20.839C572.198 20.6263 572.448 20.5262 572.748 20.5262H573.899C574.187 20.5262 574.437 20.6263 574.65 20.839C574.862 21.0516 574.962 21.302 574.962 21.5897V26.6061C574.962 27.3192 575.05 27.807 575.238 28.0697C575.425 28.3449 575.738 28.4701 576.163 28.4701C576.526 28.4701 576.826 28.395 577.077 28.2448C577.327 28.0947 577.577 27.8446 577.827 27.4943C577.89 27.4192 577.915 27.3441 577.915 27.2565V21.5646C577.915 21.2769 578.015 21.0268 578.228 20.8141C578.428 20.6014 578.678 20.5013 578.978 20.5013H580.129C580.417 20.5013 580.667 20.6014 580.88 20.8141C581.092 21.0268 581.192 21.2769 581.192 21.5646V29.9336C581.192 30.2214 581.092 30.4715 580.88 30.6842C580.667 30.8969 580.417 30.9969 580.129 30.9969H579.591C579.278 30.9969 579.003 30.8969 578.778 30.6967C578.54 30.4966 578.403 30.2464 578.353 29.9462L578.302 29.5835C578.302 29.5835 578.277 29.5459 578.252 29.5459C578.227 29.5459 578.215 29.546 578.202 29.5835C577.74 30.1214 577.239 30.5342 576.726 30.8219C576.213 31.1097 575.613 31.2472 574.95 31.2472V31.2598Z" fill="white"/>
<path d="M585.746 31.2597C585.183 31.2597 584.72 31.0596 584.357 30.6718C583.994 30.284 583.807 29.7961 583.807 29.2206C583.807 28.6452 583.994 28.1572 584.357 27.7694C584.72 27.3816 585.183 27.1815 585.746 27.1815C586.309 27.1815 586.771 27.3816 587.147 27.7694C587.522 28.1572 587.71 28.6452 587.71 29.2206C587.71 29.7961 587.522 30.284 587.147 30.6718C586.771 31.0596 586.309 31.2597 585.746 31.2597Z" fill="white"/>
</svg>
