<svg width="602" height="52" viewBox="0 0 602 52" fill="none" xmlns="http://www.w3.org/2000/svg">
<path d="M575.331 50.71H26.0888C12.1346 50.71 0.709961 39.4559 0.709961 25.71C0.709961 11.964 12.1346 0.709961 26.0888 0.709961H575.331C589.285 0.709961 600.71 11.964 600.71 25.71C600.71 39.4559 589.285 50.71 575.331 50.71Z" fill="#70D44B"/>
<path d="M575.331 50.71H26.0888C12.1346 50.71 0.709961 39.4559 0.709961 25.71C0.709961 11.964 12.1346 0.709961 26.0888 0.709961H575.331C589.285 0.709961 600.71 11.964 600.71 25.71C600.71 39.4559 589.285 50.71 575.331 50.71Z" stroke="#51AC34" stroke-width="1.42" stroke-miterlimit="10"/>
<path d="M13.8202 31.6864C13.5197 31.6864 13.2586 31.5818 13.0365 31.3598C12.8145 31.1377 12.71 30.8765 12.71 30.576V18.4794C12.71 18.1789 12.8145 17.9177 13.0365 17.6956C13.2586 17.4735 13.5197 17.369 13.8202 17.369H16.8248C19.1109 17.369 20.8876 17.9437 22.1678 19.1064C23.448 20.269 24.0881 22.0457 24.0881 24.4494C24.0881 25.6643 23.9184 26.7354 23.5787 27.676C23.2391 28.6035 22.7556 29.3611 22.1286 29.949C21.5015 30.5368 20.757 30.9679 19.9079 31.2553C19.0587 31.5427 18.0921 31.6864 17.034 31.6864H13.8332H13.8202ZM16.1455 28.7733C16.1455 28.8778 16.1979 28.93 16.2893 28.93H16.6028C17.8569 28.93 18.8235 28.5905 19.5159 27.8981C20.2082 27.2058 20.5479 26.0693 20.5479 24.4625C20.5479 23.6395 20.4565 22.9341 20.2606 22.3462C20.0777 21.7584 19.7901 21.3142 19.4244 21.0007C19.0586 20.6871 18.6406 20.465 18.1965 20.3213C17.7393 20.1907 17.2168 20.1123 16.6028 20.1123H16.2893C16.1848 20.1123 16.1455 20.1514 16.1455 20.2429V28.7733Z" fill="white"/>
<path d="M28.1764 19.211C27.6016 19.211 27.1315 19.0542 26.7527 18.7277C26.3869 18.4011 26.2041 17.9829 26.2041 17.4735C26.2041 16.964 26.3869 16.533 26.7527 16.2064C27.1184 15.8798 27.6016 15.71 28.1764 15.71C28.7511 15.71 29.2084 15.8798 29.5611 16.2064C29.9269 16.533 30.11 16.964 30.11 17.4735C30.11 17.9829 29.9269 18.4011 29.5611 18.7277C29.1954 19.0542 28.7381 19.211 28.1764 19.211ZM27.5755 31.6864C27.262 31.6864 27.0009 31.5819 26.7919 31.3598C26.5829 31.1377 26.4784 30.8765 26.4784 30.576V21.8367C26.4784 21.5363 26.5829 21.275 26.7919 21.053C27.0009 20.8309 27.262 20.7264 27.5755 20.7264H28.7645C29.0649 20.7264 29.326 20.8309 29.5481 21.053C29.7701 21.275 29.8746 21.5363 29.8746 21.8367V30.576C29.8746 30.8765 29.7701 31.1377 29.5481 31.3598C29.326 31.5819 29.0649 31.6864 28.7645 31.6864H27.5755Z" fill="white"/>
<path d="M35.8969 31.9477C34.7866 31.9477 33.6761 31.6472 32.5919 31.0463C32.3306 30.8895 32.1737 30.6676 32.1215 30.3541C32.1215 30.2887 32.1084 30.2234 32.1084 30.1712C32.1084 29.936 32.187 29.7139 32.3307 29.518L32.5527 29.1914C32.7225 28.9432 32.9708 28.7863 33.2712 28.7471C33.3496 28.7471 33.4279 28.7341 33.4932 28.7341C33.7153 28.7341 33.9373 28.7863 34.1333 28.9039C34.7734 29.2697 35.3876 29.4526 35.9754 29.4526C36.8376 29.4526 37.2687 29.1652 37.2687 28.5904C37.2687 28.4989 37.2555 28.4206 37.2164 28.3423C37.1772 28.2639 37.1117 28.1854 37.0202 28.107C36.9288 28.0287 36.8374 27.9635 36.7721 27.9112C36.6937 27.859 36.5761 27.7936 36.4194 27.7283C36.2626 27.663 36.1319 27.5977 36.0405 27.5585C35.949 27.5193 35.7924 27.454 35.5704 27.3756C35.3483 27.2972 35.1914 27.2319 35.113 27.1927C34.7342 27.0359 34.3945 26.8792 34.094 26.7093C33.7936 26.5395 33.4932 26.3305 33.2058 26.0823C32.9054 25.8341 32.6833 25.5336 32.5134 25.1678C32.3436 24.802 32.2653 24.4102 32.2653 23.9792C32.2653 22.9341 32.6571 22.098 33.4278 21.4579C34.1985 20.8178 35.2307 20.5043 36.5109 20.5043C37.569 20.5043 38.5619 20.7655 39.5024 21.288C39.7637 21.4448 39.9203 21.6669 39.9725 21.9674C39.9725 22.0327 39.9856 22.098 39.9856 22.1503C39.9856 22.3854 39.9073 22.6075 39.7636 22.7904L39.5547 23.0516C39.3849 23.2867 39.1366 23.4434 38.8231 23.5087C38.7317 23.5087 38.6534 23.5218 38.5619 23.5218C38.3529 23.5218 38.1439 23.4696 37.948 23.3651C37.4777 23.1299 37.0335 23.0125 36.6286 23.0125C35.8578 23.0125 35.4658 23.2737 35.4658 23.7963C35.4658 23.8746 35.4658 23.9398 35.505 24.0051C35.5311 24.0705 35.5704 24.1227 35.6227 24.1881C35.6749 24.2403 35.727 24.2926 35.7793 24.3448C35.8315 24.3971 35.8971 24.4362 36.0016 24.4885C36.093 24.5277 36.1844 24.567 36.2497 24.6062C36.3281 24.6454 36.4326 24.6845 36.5632 24.7368C36.6938 24.789 36.7983 24.8282 36.8898 24.8543C36.9812 24.8804 37.0988 24.9197 37.2425 24.972C37.3862 25.0242 37.5169 25.0634 37.6214 25.1026C38.0264 25.2593 38.3657 25.403 38.6662 25.5598C38.9667 25.7165 39.2543 25.9255 39.5678 26.1737C39.8683 26.435 40.1031 26.7485 40.2599 27.1142C40.4166 27.48 40.4953 27.9112 40.4953 28.3815C40.4953 29.4396 40.1032 30.2887 39.3063 30.9549C38.5094 31.6211 37.3993 31.9477 35.9493 31.9477H35.8969Z" fill="white"/>
<path d="M47.2627 31.9477C45.669 31.9477 44.3627 31.4381 43.3437 30.4061C42.3248 29.3741 41.8154 27.9895 41.8154 26.2129C41.8154 25.0502 42.0896 24.0182 42.6252 23.1299C43.1608 22.2416 43.8663 21.5754 44.7285 21.1312C45.5907 20.6871 46.5442 20.465 47.5632 20.465C48.3992 20.465 49.1699 20.6479 49.8492 21.0137C50.1105 21.1704 50.2674 21.3925 50.3197 21.693C50.3197 21.7583 50.3327 21.8235 50.3327 21.8757C50.3327 22.1109 50.2541 22.333 50.0843 22.5289L49.7969 22.947C49.5879 23.2344 49.2614 23.3781 48.8433 23.3781C48.6474 23.3781 48.4253 23.352 48.1902 23.2867C48.0465 23.2475 47.903 23.2344 47.7331 23.2344C46.9885 23.2344 46.4005 23.5087 45.9564 24.0443C45.5122 24.5799 45.2902 25.3115 45.2902 26.2259C45.2902 27.1404 45.5122 27.8327 45.9433 28.3814C46.3875 28.9301 46.9362 29.2044 47.6155 29.2044C47.929 29.2044 48.2425 29.139 48.5691 28.9953C48.7389 28.917 48.9217 28.8778 49.1176 28.8778C49.2221 28.8778 49.3135 28.8777 49.418 28.9169C49.7185 28.9822 49.9406 29.1389 50.0712 29.3871L50.2804 29.7268C50.398 29.9228 50.4501 30.1319 50.4501 30.3409C50.4501 30.4323 50.4501 30.5107 50.437 30.6021C50.3717 30.9287 50.202 31.1639 49.9277 31.2945C49.1178 31.7256 48.2163 31.9477 47.2366 31.9477H47.2627Z" fill="white"/>
<path d="M56.9161 31.9477C56.2107 31.9477 55.5447 31.817 54.8915 31.5557C54.2514 31.2944 53.6766 30.9287 53.1671 30.4454C52.6707 29.9751 52.2658 29.3611 51.9784 28.6295C51.678 27.898 51.5342 27.0881 51.5342 26.2129C51.5342 25.3376 51.678 24.5277 51.9784 23.7831C52.2789 23.0385 52.6707 22.4376 53.1671 21.9673C53.6635 21.497 54.2384 21.1182 54.8915 20.8569C55.5316 20.5957 56.2107 20.465 56.9161 20.465C57.6215 20.465 58.2747 20.5957 58.9017 20.8569C59.5418 21.1182 60.1036 21.4839 60.6131 21.9673C61.1095 22.4376 61.5147 23.0516 61.8021 23.7831C62.0895 24.5277 62.246 25.3245 62.246 26.2129C62.246 27.1012 62.1025 27.898 61.8021 28.6295C61.5016 29.3611 61.1095 29.962 60.6131 30.4454C60.1167 30.9156 59.5418 31.2944 58.9017 31.5557C58.2616 31.817 57.5954 31.9477 56.9161 31.9477ZM56.9161 29.1913C57.5301 29.1913 57.9874 28.9299 58.3009 28.4074C58.6013 27.8849 58.7582 27.1534 58.7582 26.2129C58.7582 25.2723 58.6013 24.5407 58.3009 24.0181C58.0004 23.4956 57.5301 23.2344 56.9161 23.2344C56.3021 23.2344 55.819 23.4956 55.5055 24.0181C55.192 24.5407 55.0351 25.2723 55.0351 26.2129C55.0351 27.1534 55.192 27.8849 55.5055 28.4074C55.819 28.9299 56.2891 29.1913 56.9161 29.1913Z" fill="white"/>
<path d="M67.8502 31.6863C67.5236 31.6863 67.2232 31.5949 66.962 31.3989C66.6877 31.203 66.5045 30.9549 66.387 30.6413L63.4608 21.7974C63.4347 21.706 63.4219 21.6277 63.4219 21.5362C63.4219 21.3795 63.474 21.2226 63.5785 21.092C63.7352 20.8699 63.9573 20.7523 64.2186 20.7523H65.4595C65.7861 20.7523 66.0737 20.857 66.335 21.0529C66.5962 21.2489 66.7659 21.5101 66.8574 21.8236L67.8894 25.8078C67.9809 26.1605 68.1116 26.7092 68.2945 27.4407C68.4773 28.1853 68.6208 28.734 68.7123 29.1129C68.7123 29.1521 68.7254 29.1652 68.7646 29.1652C68.8038 29.1652 68.8169 29.1521 68.8299 29.1129C68.9867 28.4466 69.2481 27.3493 69.6139 25.8078L70.6848 21.8236C70.7763 21.5101 70.9463 21.2489 71.2076 21.0529C71.4688 20.857 71.7561 20.7523 72.0827 20.7523H73.154C73.4283 20.7523 73.6504 20.8699 73.8071 21.092C73.9116 21.2357 73.9637 21.3924 73.9637 21.5622C73.9637 21.6406 73.9637 21.7191 73.9245 21.8105L71.0637 30.6544C70.9592 30.9679 70.7764 31.2161 70.5152 31.412C70.2408 31.608 69.9535 31.6994 69.6269 31.6994H67.8763L67.8502 31.6863Z" fill="white"/>
<path d="M80.6519 31.9478C79.032 31.9478 77.6995 31.4382 76.6544 30.4062C75.6094 29.3742 75.0869 27.9896 75.0869 26.213C75.0869 25.3508 75.2304 24.554 75.5309 23.8224C75.8313 23.0909 76.2103 22.4769 76.6937 22.0066C77.177 21.5363 77.7257 21.1445 78.3527 20.8832C78.9667 20.6089 79.6198 20.4781 80.273 20.4781C81.8014 20.4781 82.964 20.9615 83.7739 21.9412C84.5707 22.921 84.9759 24.2013 84.9759 25.7689V26.1214C84.9759 26.4349 84.8322 26.6963 84.584 26.9054C84.3358 27.1144 84.0482 27.2189 83.7216 27.2189H78.5616C78.5616 27.2189 78.4962 27.2318 78.4701 27.271C78.444 27.2971 78.4443 27.3364 78.4573 27.3756C78.7709 28.695 79.672 29.3482 81.1481 29.3482C81.6054 29.3482 82.0365 29.2697 82.4676 29.1261C82.6243 29.0738 82.7682 29.0478 82.938 29.0478C83.0817 29.0478 83.2124 29.0607 83.3561 29.0999C83.6435 29.1913 83.8656 29.3612 84.0093 29.6225L84.0612 29.74C84.1788 29.9229 84.2312 30.1189 84.2312 30.3018C84.2312 30.4063 84.2181 30.4977 84.1789 30.6022C84.1005 30.9157 83.9309 31.1378 83.6565 31.2554C82.6768 31.7126 81.6839 31.9478 80.6911 31.9478H80.6519ZM78.3527 24.9066C78.3527 24.9066 78.3917 24.998 78.4832 24.998H81.919C82.0235 24.998 82.0625 24.9588 82.0625 24.8674C82.0364 24.3057 81.8798 23.8746 81.6055 23.5611C81.3181 23.2476 80.9001 23.0777 80.3384 23.0777C79.855 23.0777 79.424 23.2214 79.0844 23.5218C78.601 23.9268 78.3527 24.3841 78.3527 24.8936V24.9066Z" fill="white"/>
<path d="M88.2807 31.6863C87.9672 31.6863 87.7061 31.5818 87.4971 31.3597C87.2881 31.1376 87.1836 30.8764 87.1836 30.576V21.8367C87.1836 21.5362 87.2881 21.275 87.4971 21.0529C87.7061 20.8308 87.9672 20.7263 88.2807 20.7263H88.8427C89.1562 20.7263 89.4304 20.8308 89.6655 21.0529C89.9006 21.2619 90.0444 21.5232 90.0836 21.8367L90.1751 22.6074C90.1751 22.6074 90.1879 22.6466 90.2271 22.6466C90.2663 22.6466 90.2794 22.6466 90.2925 22.6074C90.6844 21.9019 91.1548 21.3795 91.7034 21.0137C92.2521 20.6479 92.8139 20.465 93.3756 20.465H93.6368C93.9372 20.465 94.1725 20.6217 94.3553 20.896C94.4729 21.0789 94.525 21.288 94.525 21.5101C94.525 21.6015 94.525 21.6799 94.5119 21.7713L94.3553 22.542C94.29 22.8294 94.1331 23.0515 93.8849 23.2213C93.6498 23.3781 93.3756 23.4696 93.0752 23.4696H92.9444C92.5002 23.4696 92.0822 23.6132 91.6642 23.9137C91.2462 24.2142 90.9065 24.6714 90.6322 25.2985C90.593 25.3899 90.5799 25.4813 90.5799 25.5858V30.589C90.5799 30.8895 90.4754 31.1507 90.2533 31.3728C90.0312 31.5949 89.7701 31.6994 89.4697 31.6994H88.2807V31.6863Z" fill="white"/>
<path d="M104.793 31.9477C103.46 31.9477 102.493 31.5688 101.866 30.8112C101.239 30.0535 100.926 28.9953 100.926 27.6236V23.5479C100.926 23.4564 100.887 23.4173 100.795 23.4173H100.547C100.247 23.4173 99.9852 23.3128 99.7631 23.0907C99.541 22.8686 99.4365 22.6074 99.4365 22.3069V21.9804C99.4365 21.6668 99.541 21.3925 99.75 21.1704C99.959 20.9353 100.22 20.8046 100.534 20.7916L100.965 20.7523C101.07 20.7523 101.122 20.687 101.135 20.5956L101.344 18.9365C101.396 18.623 101.54 18.3618 101.775 18.1527C102.01 17.9437 102.285 17.8392 102.598 17.8392H103.238C103.539 17.8392 103.8 17.9437 104.022 18.1527C104.244 18.3618 104.348 18.6361 104.348 18.9365V20.5694C104.348 20.6609 104.388 20.7002 104.479 20.7002H105.812C106.112 20.7002 106.373 20.8047 106.595 21.0268C106.817 21.2488 106.922 21.5101 106.922 21.8105V22.2808C106.922 22.5812 106.817 22.8425 106.595 23.0646C106.373 23.2866 106.112 23.3911 105.812 23.3911H104.479C104.388 23.3911 104.348 23.4303 104.348 23.5217V27.5584C104.348 28.6427 104.779 29.2173 105.642 29.2435C105.955 29.2435 106.243 29.335 106.491 29.4918C106.739 29.6485 106.896 29.8575 106.961 30.1188L107.039 30.4192C107.039 30.5237 107.053 30.6151 107.053 30.7066C107.053 30.9025 107 31.0986 106.883 31.2945C106.726 31.5688 106.491 31.7386 106.19 31.7778C105.733 31.8693 105.263 31.9084 104.78 31.9084L104.793 31.9477Z" fill="white"/>
<path d="M110.149 31.6864C109.835 31.6864 109.574 31.5819 109.365 31.3598C109.156 31.1378 109.052 30.8765 109.052 30.5761V17.4214C109.052 17.1079 109.156 16.8466 109.365 16.6376C109.574 16.4286 109.835 16.311 110.149 16.311H111.338C111.638 16.311 111.899 16.4155 112.121 16.6376C112.344 16.8466 112.448 17.1079 112.448 17.4214V19.9948L112.305 21.7976C112.305 21.7976 112.305 21.8368 112.344 21.8499C112.37 21.8499 112.383 21.8499 112.396 21.8499C113.428 20.9224 114.512 20.4651 115.649 20.4651C116.785 20.4651 117.66 20.857 118.209 21.6277C118.771 22.3985 119.045 23.4958 119.045 24.9197V30.5761C119.045 30.8765 118.941 31.1378 118.732 31.3598C118.523 31.5819 118.261 31.6864 117.948 31.6864H116.746C116.432 31.6864 116.171 31.5819 115.962 31.3598C115.753 31.1378 115.649 30.8765 115.649 30.5761V25.3377C115.649 24.6061 115.544 24.1098 115.348 23.8224C115.152 23.535 114.826 23.4043 114.369 23.4043C114.029 23.4043 113.728 23.4697 113.48 23.6134C113.219 23.7571 112.918 23.9792 112.566 24.2927C112.5 24.358 112.474 24.4363 112.474 24.5147V30.5891C112.474 30.8896 112.37 31.1508 112.148 31.3729C111.926 31.595 111.664 31.6995 111.364 31.6995H110.175L110.149 31.6864Z" fill="white"/>
<path d="M126.622 31.9478C125.002 31.9478 123.669 31.4382 122.624 30.4062C121.579 29.3742 121.057 27.9896 121.057 26.213C121.057 25.3508 121.2 24.554 121.501 23.8224C121.801 23.0909 122.18 22.4769 122.663 22.0066C123.147 21.5363 123.695 21.1445 124.322 20.8832C124.936 20.6089 125.59 20.4781 126.243 20.4781C127.771 20.4781 128.934 20.9615 129.744 21.9412C130.54 22.921 130.946 24.2013 130.946 25.7689V26.1214C130.946 26.4349 130.802 26.6963 130.554 26.9054C130.305 27.1144 130.018 27.2189 129.692 27.2189H124.518C124.518 27.2189 124.453 27.2318 124.427 27.271C124.401 27.2971 124.401 27.3364 124.414 27.3756C124.728 28.695 125.629 29.3482 127.105 29.3482C127.562 29.3482 127.993 29.2697 128.425 29.1261C128.581 29.0738 128.725 29.0478 128.895 29.0478C129.025 29.0478 129.169 29.0607 129.313 29.0999C129.6 29.1913 129.822 29.3612 129.966 29.6225L130.018 29.74C130.136 29.9229 130.188 30.1189 130.188 30.3018C130.188 30.4063 130.175 30.4977 130.136 30.6022C130.057 30.9157 129.888 31.1378 129.613 31.2554C128.633 31.7126 127.641 31.9478 126.648 31.9478H126.622ZM124.336 24.9066C124.336 24.9066 124.375 24.998 124.466 24.998H127.902C128.006 24.998 128.046 24.9588 128.046 24.8674C128.02 24.3057 127.863 23.8746 127.588 23.5611C127.301 23.2476 126.883 23.0777 126.321 23.0777C125.838 23.0777 125.407 23.2214 125.067 23.5218C124.584 23.9268 124.336 24.3841 124.336 24.8936V24.9066Z" fill="white"/>
<path d="M146.504 31.6864C146.177 31.6864 145.89 31.5819 145.629 31.3859C145.368 31.19 145.198 30.9288 145.106 30.6152L144.597 28.5251C144.571 28.4337 144.506 28.3945 144.414 28.3945H140.469C140.364 28.3945 140.312 28.4337 140.299 28.5251L139.777 30.6152C139.685 30.9288 139.515 31.19 139.254 31.3859C138.993 31.5819 138.705 31.6864 138.379 31.6864H137.099C136.824 31.6864 136.602 31.5688 136.445 31.3467C136.328 31.203 136.275 31.0463 136.275 30.8764C136.275 30.7981 136.275 30.7198 136.315 30.6283L140.116 18.4141C140.221 18.1006 140.404 17.8523 140.665 17.6564C140.926 17.4604 141.226 17.369 141.566 17.369H143.46C143.787 17.369 144.087 17.4604 144.349 17.6564C144.61 17.8523 144.793 18.1006 144.897 18.4141L148.699 30.6283C148.725 30.7198 148.738 30.7981 148.738 30.8764C148.738 31.0463 148.686 31.203 148.568 31.3467C148.411 31.5688 148.189 31.6864 147.915 31.6864H146.53H146.504ZM141.018 25.599C141.018 25.599 141.018 25.6773 141.031 25.7034C141.057 25.7295 141.083 25.7557 141.122 25.7557H143.748C143.748 25.7557 143.813 25.7426 143.839 25.7034C143.865 25.6773 143.865 25.6382 143.852 25.599L143.565 24.5277C143.434 24.0313 143.251 23.2474 143.003 22.2024C142.755 21.1573 142.572 20.4127 142.455 19.9555C142.455 19.9294 142.428 19.9163 142.402 19.9163C142.376 19.9163 142.363 19.9163 142.363 19.9555C141.867 22.0848 141.501 23.6002 141.279 24.5277L140.991 25.599H141.018Z" fill="white"/>
<path d="M151.939 19.211C151.365 19.211 150.894 19.0542 150.515 18.7277C150.15 18.4011 149.967 17.9829 149.967 17.4735C149.967 16.964 150.15 16.533 150.515 16.2064C150.881 15.8798 151.365 15.71 151.939 15.71C152.514 15.71 152.971 15.8798 153.324 16.2064C153.69 16.533 153.873 16.964 153.873 17.4735C153.873 17.9829 153.69 18.4011 153.324 18.7277C152.958 19.0542 152.501 19.211 151.939 19.211ZM151.338 31.6864C151.025 31.6864 150.764 31.5819 150.555 31.3598C150.346 31.1377 150.241 30.8765 150.241 30.576V21.8367C150.241 21.5363 150.346 21.275 150.555 21.053C150.764 20.8309 151.025 20.7264 151.338 20.7264H152.527C152.828 20.7264 153.089 20.8309 153.311 21.053C153.533 21.275 153.637 21.5363 153.637 21.8367V30.576C153.637 30.8765 153.533 31.1377 153.311 31.3598C153.089 31.5819 152.828 31.6864 152.527 31.6864H151.338Z" fill="white"/>
<path d="M157.491 31.6863C157.177 31.6863 156.916 31.5818 156.707 31.3597C156.498 31.1376 156.394 30.8764 156.394 30.576V21.8367C156.394 21.5362 156.498 21.275 156.707 21.0529C156.916 20.8308 157.177 20.7263 157.491 20.7263H158.053C158.366 20.7263 158.64 20.8308 158.875 21.0529C159.111 21.2619 159.254 21.5232 159.294 21.8367L159.385 22.6074C159.385 22.6074 159.398 22.6466 159.437 22.6466C159.477 22.6466 159.489 22.6466 159.502 22.6074C159.894 21.9019 160.365 21.3795 160.913 21.0137C161.462 20.6479 162.024 20.465 162.586 20.465H162.847C163.147 20.465 163.382 20.6217 163.565 20.896C163.683 21.0789 163.735 21.288 163.735 21.5101C163.735 21.6015 163.735 21.6799 163.722 21.7713L163.565 22.542C163.5 22.8294 163.343 23.0515 163.095 23.2213C162.86 23.3781 162.586 23.4696 162.285 23.4696H162.154C161.71 23.4696 161.292 23.6132 160.874 23.9137C160.456 24.2142 160.116 24.6714 159.842 25.2985C159.803 25.3899 159.79 25.4813 159.79 25.5858V30.589C159.79 30.8895 159.685 31.1507 159.463 31.3728C159.241 31.5949 158.98 31.6994 158.68 31.6994H157.491V31.6863Z" fill="white"/>
<path d="M166.426 35.71C166.113 35.71 165.852 35.6055 165.643 35.3834C165.434 35.1613 165.329 34.9001 165.329 34.5996V21.8758C165.329 21.5754 165.434 21.3141 165.643 21.0921C165.852 20.87 166.113 20.7655 166.426 20.7655H167.145C167.419 20.7655 167.667 20.857 167.889 21.0399C168.112 21.2228 168.255 21.4449 168.307 21.7062V21.7975C168.307 21.7975 168.347 21.8368 168.373 21.8368C168.399 21.8368 168.425 21.8367 168.438 21.7975C169.431 20.9353 170.437 20.5043 171.482 20.5043C172.801 20.5043 173.846 21.0138 174.617 22.0197C175.388 23.0255 175.767 24.3841 175.767 26.0693C175.767 26.9837 175.636 27.8196 175.388 28.5773C175.127 29.335 174.787 29.9621 174.356 30.4585C173.925 30.9549 173.428 31.3337 172.879 31.595C172.331 31.8563 171.756 31.987 171.168 31.987C170.28 31.987 169.47 31.6473 168.725 30.9549C168.725 30.9549 168.699 30.9549 168.673 30.9549C168.647 30.9549 168.634 30.9811 168.634 30.9941L168.725 32.5748V34.5996C168.725 34.9001 168.621 35.1613 168.399 35.3834C168.177 35.6055 167.916 35.71 167.615 35.71H166.426ZM170.345 29.1914C170.907 29.1914 171.364 28.9431 171.704 28.4336C172.043 27.9372 172.226 27.1665 172.226 26.1214C172.226 25.1547 172.083 24.4494 171.795 23.9922C171.508 23.535 171.064 23.2998 170.463 23.2998C169.901 23.2998 169.352 23.5742 168.804 24.1098C168.739 24.1881 168.712 24.2664 168.712 24.3579V28.4206C168.712 28.512 168.752 28.5774 168.83 28.6427C169.287 29.0085 169.783 29.1914 170.358 29.1914H170.345Z" fill="white"/>
<path d="M182.715 31.9477C182.01 31.9477 181.343 31.817 180.69 31.5557C180.05 31.2944 179.475 30.9287 178.966 30.4454C178.47 29.9751 178.064 29.3611 177.777 28.6295C177.477 27.898 177.333 27.0881 177.333 26.2129C177.333 25.3376 177.477 24.5277 177.777 23.7831C178.077 23.0385 178.47 22.4376 178.966 21.9673C179.462 21.497 180.037 21.1182 180.69 20.8569C181.33 20.5957 182.01 20.465 182.715 20.465C183.42 20.465 184.074 20.5957 184.714 20.8569C185.354 21.1182 185.929 21.4839 186.425 21.9673C186.921 22.4376 187.326 23.0516 187.614 23.7831C187.901 24.5277 188.058 25.3245 188.058 26.2129C188.058 27.1012 187.914 27.898 187.614 28.6295C187.313 29.3611 186.921 29.962 186.425 30.4454C185.929 30.9156 185.354 31.2944 184.714 31.5557C184.074 31.817 183.407 31.9477 182.715 31.9477ZM182.715 29.1913C183.329 29.1913 183.786 28.9299 184.1 28.4074C184.413 27.8849 184.557 27.1534 184.557 26.2129C184.557 25.2723 184.4 24.5407 184.1 24.0181C183.786 23.4956 183.329 23.2344 182.715 23.2344C182.101 23.2344 181.618 23.4956 181.304 24.0181C180.991 24.5407 180.834 25.2723 180.834 26.2129C180.834 27.1534 180.991 27.8849 181.304 28.4074C181.618 28.9299 182.088 29.1913 182.715 29.1913Z" fill="white"/>
<path d="M191.311 31.6863C190.998 31.6863 190.736 31.5818 190.527 31.3597C190.318 31.1376 190.214 30.8764 190.214 30.576V21.8367C190.214 21.5362 190.318 21.275 190.527 21.0529C190.736 20.8308 190.998 20.7263 191.311 20.7263H191.873C192.186 20.7263 192.461 20.8308 192.696 21.0529C192.931 21.2619 193.075 21.5232 193.114 21.8367L193.205 22.6074C193.205 22.6074 193.219 22.6466 193.258 22.6466C193.297 22.6466 193.31 22.6466 193.323 22.6074C193.715 21.9019 194.185 21.3795 194.734 21.0137C195.282 20.6479 195.844 20.465 196.406 20.465H196.667C196.968 20.465 197.203 20.6217 197.386 20.896C197.503 21.0789 197.556 21.288 197.556 21.5101C197.556 21.6015 197.556 21.6799 197.543 21.7713L197.386 22.542C197.32 22.8294 197.164 23.0515 196.916 23.2213C196.68 23.3781 196.406 23.4696 196.105 23.4696H195.975C195.544 23.4696 195.113 23.6132 194.695 23.9137C194.277 24.2142 193.937 24.6714 193.663 25.2985C193.624 25.3899 193.61 25.4813 193.61 25.5858V30.589C193.61 30.8895 193.506 31.1507 193.284 31.3728C193.062 31.5949 192.8 31.6994 192.5 31.6994H191.311V31.6863Z" fill="white"/>
<path d="M203.435 31.9477C202.103 31.9477 201.136 31.5688 200.509 30.8112C199.882 30.0535 199.568 28.9953 199.568 27.6236V23.5479C199.568 23.4564 199.529 23.4173 199.438 23.4173H199.19C198.889 23.4173 198.628 23.3128 198.406 23.0907C198.184 22.8686 198.079 22.6074 198.079 22.3069V21.9804C198.079 21.6668 198.184 21.3925 198.393 21.1704C198.602 20.9353 198.876 20.8046 199.177 20.7916L199.608 20.7523C199.712 20.7523 199.764 20.687 199.777 20.5956L199.986 18.9365C200.039 18.623 200.182 18.3618 200.417 18.1527C200.653 17.9437 200.927 17.8392 201.241 17.8392H201.881C202.181 17.8392 202.442 17.9437 202.664 18.1527C202.886 18.3618 202.991 18.6361 202.991 18.9365V20.5694C202.991 20.6609 203.03 20.7002 203.122 20.7002H204.454C204.755 20.7002 205.016 20.8047 205.238 21.0268C205.46 21.2488 205.564 21.5101 205.564 21.8105V22.2808C205.564 22.5812 205.46 22.8425 205.238 23.0646C205.016 23.2866 204.755 23.3911 204.454 23.3911H203.122C203.03 23.3911 202.991 23.4303 202.991 23.5217V27.5584C202.991 28.6427 203.422 29.2173 204.284 29.2435C204.598 29.2435 204.885 29.335 205.133 29.4918C205.382 29.6485 205.538 29.8575 205.604 30.1188L205.682 30.4192C205.682 30.5237 205.695 30.6151 205.695 30.7066C205.695 30.9025 205.643 31.0986 205.525 31.2945C205.368 31.5688 205.134 31.7386 204.833 31.7778C204.376 31.8693 203.905 31.9084 203.422 31.9084L203.435 31.9477Z" fill="white"/>
<path d="M216.798 31.9477C215.152 31.9477 213.663 31.4904 212.304 30.576C212.056 30.4192 211.912 30.1711 211.886 29.8576C211.886 29.8184 211.873 29.7791 211.873 29.7399C211.873 29.4787 211.964 29.2436 212.134 29.0215L212.683 28.3684C212.866 28.1463 213.127 28.0156 213.441 27.9764H213.611C213.846 27.9764 214.068 28.0417 214.29 28.1593C215.191 28.708 216.053 28.9823 216.889 28.9823C217.503 28.9823 217.96 28.8778 218.274 28.6557C218.587 28.4336 218.744 28.1202 218.744 27.7283C218.744 27.3756 218.614 27.1143 218.352 26.9184C218.091 26.7355 217.634 26.5003 216.981 26.226C216.863 26.1737 216.785 26.1346 216.733 26.1084L214.891 25.3376C214.055 24.9979 213.362 24.5015 212.814 23.8484C212.265 23.1952 211.991 22.3853 211.991 21.4186C211.991 20.2037 212.474 19.1848 213.454 18.3488C214.433 17.5127 215.675 17.0947 217.177 17.0947C218.575 17.0947 219.855 17.4866 220.991 18.2574C221.239 18.4272 221.383 18.6884 221.409 19.015V19.1325C221.409 19.3938 221.318 19.629 221.148 19.8511L220.808 20.2821C220.639 20.5042 220.39 20.648 220.077 20.7002C219.998 20.7002 219.933 20.7133 219.855 20.7133C219.633 20.7133 219.411 20.661 219.202 20.5435C218.562 20.2038 217.895 20.034 217.19 20.034C216.654 20.034 216.236 20.1385 215.936 20.3475C215.635 20.5565 215.492 20.8569 215.492 21.2357C215.492 21.3925 215.531 21.5232 215.596 21.6407C215.662 21.7583 215.74 21.8628 215.831 21.9542C215.923 22.0457 216.067 22.1371 216.276 22.2416C216.485 22.3461 216.654 22.4246 216.798 22.4899C216.942 22.5421 217.164 22.6335 217.464 22.7642C217.556 22.7903 217.621 22.8165 217.673 22.8426L219.463 23.561C221.344 24.3187 222.284 25.625 222.284 27.4931C222.284 28.094 222.167 28.6688 221.919 29.2044C221.67 29.74 221.318 30.2233 220.86 30.6283C220.403 31.0463 219.829 31.3729 219.136 31.608C218.444 31.8432 217.673 31.9608 216.837 31.9608L216.798 31.9477Z" fill="white"/>
<path d="M229.312 31.9478C227.692 31.9478 226.36 31.4382 225.315 30.4062C224.27 29.3742 223.747 27.9896 223.747 26.213C223.747 25.3508 223.891 24.554 224.191 23.8224C224.491 23.0909 224.87 22.4769 225.354 22.0066C225.837 21.5233 226.386 21.1445 227.013 20.8832C227.627 20.6089 228.28 20.4781 228.933 20.4781C230.462 20.4781 231.624 20.9615 232.421 21.9412C233.218 22.921 233.623 24.2013 233.623 25.7689V26.1214C233.623 26.4349 233.479 26.6963 233.231 26.9054C232.983 27.1144 232.695 27.2189 232.369 27.2189H227.196C227.196 27.2189 227.13 27.2318 227.104 27.271C227.078 27.2971 227.078 27.3364 227.091 27.3756C227.405 28.695 228.306 29.3482 229.782 29.3482C230.226 29.3482 230.67 29.2697 231.102 29.1261C231.245 29.0738 231.402 29.0478 231.572 29.0478C231.716 29.0478 231.846 29.0607 231.99 29.0999C232.277 29.1913 232.499 29.3612 232.643 29.6225L232.695 29.74C232.813 29.9229 232.865 30.1189 232.865 30.3018C232.865 30.4063 232.852 30.4977 232.813 30.6022C232.735 30.9157 232.565 31.1378 232.29 31.2554C231.31 31.7126 230.331 31.9478 229.325 31.9478H229.312ZM227.013 24.9066C227.013 24.9066 227.052 24.998 227.143 24.998H230.579C230.684 24.998 230.736 24.9588 230.736 24.8674C230.71 24.3057 230.553 23.8746 230.279 23.5611C230.004 23.2476 229.573 23.0777 229.012 23.0777C228.528 23.0777 228.097 23.2214 227.757 23.5218C227.274 23.9268 227.026 24.3841 227.026 24.8936L227.013 24.9066Z" fill="white"/>
<path d="M236.942 31.6863C236.628 31.6863 236.367 31.5818 236.158 31.3597C235.949 31.1376 235.845 30.8764 235.845 30.576V21.8367C235.845 21.5362 235.949 21.275 236.158 21.0529C236.367 20.8308 236.628 20.7263 236.942 20.7263H237.504C237.817 20.7263 238.091 20.8308 238.327 21.0529C238.562 21.2619 238.706 21.5232 238.745 21.8367L238.836 22.6074C238.836 22.6074 238.849 22.6466 238.888 22.6466C238.927 22.6466 238.941 22.6466 238.954 22.6074C239.346 21.9019 239.816 21.3795 240.365 21.0137C240.913 20.6479 241.475 20.465 242.037 20.465H242.298C242.598 20.465 242.834 20.6217 243.016 20.896C243.134 21.0789 243.186 21.288 243.186 21.5101C243.186 21.6015 243.186 21.6799 243.173 21.7713L243.016 22.542C242.951 22.8294 242.794 23.0515 242.546 23.2213C242.311 23.3781 242.037 23.4696 241.736 23.4696H241.606C241.174 23.4696 240.743 23.6132 240.325 23.9137C239.907 24.2142 239.568 24.6714 239.293 25.2985C239.254 25.3899 239.241 25.4813 239.241 25.5858V30.589C239.241 30.8895 239.136 31.1507 238.914 31.3728C238.692 31.5949 238.431 31.6994 238.131 31.6994H236.942V31.6863Z" fill="white"/>
<path d="M248.372 31.6863C248.045 31.6863 247.745 31.5949 247.483 31.3989C247.209 31.203 247.026 30.9549 246.909 30.6413L243.983 21.7974C243.956 21.706 243.943 21.6277 243.943 21.5362C243.943 21.3795 243.995 21.2226 244.087 21.092C244.244 20.8699 244.466 20.7523 244.727 20.7523H245.968C246.295 20.7523 246.582 20.857 246.843 21.0529C247.105 21.2489 247.274 21.5101 247.366 21.8236L248.398 25.8078C248.489 26.1605 248.62 26.7092 248.803 27.4407C248.986 28.1853 249.13 28.734 249.221 29.1129C249.221 29.1521 249.234 29.1652 249.273 29.1652C249.312 29.1652 249.325 29.1521 249.338 29.1129C249.482 28.4466 249.757 27.3493 250.122 25.8078L251.194 21.8236C251.285 21.5101 251.455 21.2489 251.716 21.0529C251.977 20.857 252.265 20.7523 252.591 20.7523H253.662C253.937 20.7523 254.159 20.8699 254.316 21.092C254.42 21.2357 254.459 21.3924 254.459 21.5622C254.459 21.6406 254.459 21.7191 254.42 21.8105L251.559 30.6544C251.455 30.9679 251.272 31.2161 251.01 31.412C250.736 31.608 250.449 31.6994 250.122 31.6994H248.372V31.6863Z" fill="white"/>
<path d="M258.13 19.211C257.555 19.211 257.085 19.0542 256.706 18.7277C256.34 18.4011 256.157 17.9829 256.157 17.4735C256.157 16.964 256.34 16.533 256.706 16.2064C257.072 15.8798 257.542 15.71 258.13 15.71C258.718 15.71 259.162 15.8798 259.515 16.2064C259.867 16.533 260.063 16.964 260.063 17.4735C260.063 17.9829 259.88 18.4011 259.515 18.7277C259.149 19.0542 258.692 19.211 258.13 19.211ZM257.529 31.6864C257.215 31.6864 256.954 31.5819 256.745 31.3598C256.536 31.1377 256.432 30.8765 256.432 30.576V21.8367C256.432 21.5363 256.536 21.275 256.745 21.053C256.954 20.8309 257.215 20.7264 257.529 20.7264H258.718C259.018 20.7264 259.279 20.8309 259.502 21.053C259.724 21.275 259.828 21.5363 259.828 21.8367V30.576C259.828 30.8765 259.724 31.1377 259.502 31.3598C259.279 31.5819 259.018 31.6864 258.718 31.6864H257.529Z" fill="white"/>
<path d="M267.405 31.9477C265.812 31.9477 264.505 31.4381 263.486 30.4061C262.467 29.3741 261.958 27.9895 261.958 26.2129C261.958 25.0502 262.232 24.0182 262.768 23.1299C263.303 22.2416 264.009 21.5754 264.871 21.1312C265.733 20.6871 266.674 20.465 267.706 20.465C268.542 20.465 269.313 20.6479 269.992 21.0137C270.253 21.1704 270.41 21.3925 270.462 21.693C270.462 21.7583 270.475 21.8235 270.475 21.8757C270.475 22.1109 270.397 22.333 270.227 22.5289L269.94 22.947C269.73 23.2344 269.404 23.3781 268.986 23.3781C268.79 23.3781 268.568 23.352 268.333 23.2867C268.189 23.2475 268.045 23.2344 267.888 23.2344C267.144 23.2344 266.556 23.5087 266.112 24.0443C265.668 24.5799 265.446 25.3115 265.446 26.2259C265.446 27.1404 265.668 27.8327 266.099 28.3814C266.53 28.9301 267.092 29.2044 267.771 29.2044C268.085 29.2044 268.398 29.139 268.725 28.9953C268.895 28.917 269.077 28.8778 269.273 28.8778C269.378 28.8778 269.469 28.8777 269.574 28.9169C269.874 28.9822 270.096 29.1389 270.227 29.3871L270.436 29.7268C270.554 29.9228 270.606 30.1319 270.606 30.3409C270.606 30.4323 270.606 30.5107 270.593 30.6021C270.527 30.9287 270.358 31.1639 270.083 31.2945C269.273 31.7256 268.372 31.9477 267.392 31.9477H267.405Z" fill="white"/>
<path d="M277.255 31.9478C275.636 31.9478 274.303 31.4382 273.258 30.4062C272.213 29.3742 271.69 27.9896 271.69 26.213C271.69 25.3508 271.834 24.554 272.134 23.8224C272.435 23.0909 272.814 22.4769 273.297 22.0066C273.781 21.5233 274.329 21.1445 274.956 20.8832C275.57 20.6089 276.223 20.4781 276.877 20.4781C278.405 20.4781 279.567 20.9615 280.364 21.9412C281.161 22.921 281.566 24.2013 281.566 25.7689V26.1214C281.566 26.4349 281.423 26.6963 281.174 26.9054C280.926 27.1144 280.639 27.2189 280.312 27.2189H275.139C275.139 27.2189 275.074 27.2318 275.048 27.271C275.022 27.2971 275.022 27.3364 275.035 27.3756C275.348 28.695 276.249 29.3482 277.726 29.3482C278.17 29.3482 278.614 29.2697 279.045 29.1261C279.189 29.0738 279.346 29.0478 279.515 29.0478C279.659 29.0478 279.79 29.0607 279.933 29.0999C280.221 29.1913 280.443 29.3612 280.587 29.6225L280.639 29.74C280.756 29.9229 280.809 30.1189 280.809 30.3018C280.809 30.4063 280.795 30.4977 280.756 30.6022C280.678 30.9157 280.508 31.1378 280.234 31.2554C279.254 31.7126 278.274 31.9478 277.268 31.9478H277.255ZM274.969 24.9066C274.969 24.9066 275.008 24.998 275.1 24.998H278.536C278.64 24.998 278.692 24.9588 278.692 24.8674C278.666 24.3057 278.509 23.8746 278.235 23.5611C277.948 23.2476 277.53 23.0777 276.968 23.0777C276.485 23.0777 276.054 23.2214 275.714 23.5218C275.231 23.9268 274.982 24.3841 274.982 24.8936L274.969 24.9066Z" fill="white"/>
<path d="M287.04 31.9477C285.929 31.9477 284.819 31.6472 283.734 31.0463C283.473 30.8895 283.316 30.6676 283.264 30.3541C283.264 30.2887 283.251 30.2234 283.251 30.1712C283.251 29.936 283.33 29.7139 283.473 29.518L283.695 29.1914C283.865 28.9432 284.113 28.7863 284.414 28.7471C284.492 28.7471 284.557 28.7341 284.636 28.7341C284.858 28.7341 285.08 28.7863 285.276 28.9039C285.916 29.2697 286.53 29.4526 287.118 29.4526C287.98 29.4526 288.411 29.1652 288.411 28.5904C288.411 28.4989 288.398 28.4206 288.359 28.3423C288.32 28.2639 288.254 28.1854 288.163 28.107C288.071 28.0287 287.98 27.9635 287.915 27.9112C287.836 27.859 287.719 27.7936 287.562 27.7283C287.405 27.663 287.274 27.5977 287.183 27.5585C287.092 27.5193 286.935 27.454 286.713 27.3756C286.491 27.2972 286.334 27.2319 286.256 27.1927C285.877 27.0359 285.537 26.8792 285.237 26.7093C284.936 26.5395 284.636 26.3305 284.348 26.0823C284.061 25.8341 283.826 25.5336 283.656 25.1678C283.486 24.8151 283.408 24.4102 283.408 23.9792C283.408 22.9341 283.8 22.098 284.57 21.4579C285.341 20.8178 286.373 20.5043 287.653 20.5043C288.712 20.5043 289.704 20.7655 290.645 21.288C290.906 21.4448 291.063 21.6669 291.115 21.9674C291.115 22.0327 291.128 22.098 291.128 22.1503C291.128 22.3854 291.05 22.6075 290.906 22.7904L290.697 23.0516C290.527 23.2867 290.279 23.4434 289.966 23.5087C289.874 23.5087 289.796 23.5218 289.704 23.5218C289.495 23.5218 289.286 23.4696 289.077 23.3651C288.607 23.1299 288.163 23.0125 287.758 23.0125C286.987 23.0125 286.595 23.2737 286.595 23.7963C286.595 23.8746 286.595 23.9398 286.634 24.0051C286.661 24.0705 286.7 24.1227 286.752 24.1881C286.804 24.2403 286.857 24.2926 286.909 24.3448C286.961 24.3971 287.027 24.4362 287.131 24.4885C287.223 24.5277 287.314 24.567 287.379 24.6062C287.458 24.6454 287.562 24.6845 287.693 24.7368C287.823 24.789 287.928 24.8282 288.019 24.8543C288.111 24.8804 288.228 24.9197 288.372 24.972C288.529 25.0242 288.646 25.0634 288.751 25.1026C289.156 25.2593 289.495 25.403 289.796 25.5598C290.083 25.7165 290.397 25.9255 290.697 26.1737C290.998 26.435 291.233 26.7485 291.39 27.1142C291.546 27.48 291.625 27.9112 291.625 28.3815C291.625 29.4396 291.233 30.2887 290.436 30.9549C289.639 31.6211 288.529 31.9477 287.079 31.9477H287.04Z" fill="white"/>
<path d="M309.953 28.9038C310.24 29.0083 310.462 29.1913 310.606 29.4525C310.71 29.6093 310.762 29.7791 310.762 29.962C310.762 30.0665 310.749 30.1579 310.71 30.2625L310.54 30.9025C310.436 31.203 310.253 31.4382 309.992 31.5949C309.822 31.6994 309.639 31.7517 309.469 31.7517C309.352 31.7517 309.247 31.7386 309.143 31.6994C308.333 31.4512 307.484 31.0855 306.608 30.6152C306.517 30.576 306.439 30.5891 306.36 30.6283C305.08 31.5166 303.617 31.9607 301.958 31.9607C300.416 31.9607 299.228 31.5688 298.378 30.7719C297.529 29.9881 297.111 29.0084 297.111 27.8458C297.111 26.9575 297.333 26.1998 297.764 25.5858C298.196 24.9719 298.809 24.4101 299.593 23.9006C299.672 23.8484 299.685 23.783 299.632 23.7177C299.11 22.6857 298.849 21.7451 298.849 20.896C298.849 19.8379 299.214 18.9366 299.933 18.205C300.664 17.4735 301.618 17.1208 302.82 17.1208C303.904 17.1208 304.779 17.4212 305.446 18.0091C306.099 18.61 306.438 19.4069 306.438 20.3998C306.438 20.8439 306.36 21.2488 306.216 21.6407C306.06 22.0326 305.838 22.3852 305.55 22.7118C305.25 23.0384 304.962 23.3258 304.675 23.561C304.388 23.8092 304.035 24.0704 303.604 24.3578C303.525 24.4101 303.525 24.4623 303.591 24.5276C304.283 25.2853 305.119 26.043 306.125 26.8006C306.203 26.8529 306.269 26.84 306.334 26.7616C306.804 26.0953 307.196 25.3768 307.497 24.5799C307.627 24.2664 307.823 24.0183 308.084 23.8223C308.346 23.6264 308.646 23.5348 308.973 23.5348H309.874C310.149 23.5348 310.371 23.6524 310.527 23.8745C310.632 24.0182 310.671 24.162 310.671 24.3057C310.671 24.3971 310.658 24.4885 310.619 24.593C310.136 25.9124 309.482 27.1143 308.659 28.2247C308.607 28.303 308.633 28.3553 308.711 28.3945C309.156 28.6166 309.574 28.7993 309.953 28.9169V28.9038ZM300.364 27.6367C300.364 28.1462 300.547 28.5643 300.913 28.8778C301.278 29.1913 301.762 29.3481 302.376 29.3481C302.872 29.3481 303.395 29.2043 303.93 28.93C304.009 28.8908 304.009 28.8385 303.93 28.7732C302.977 28.0025 302.101 27.1272 301.305 26.1606C301.239 26.0822 301.174 26.0822 301.096 26.1475C300.612 26.6439 300.364 27.1403 300.364 27.6367ZM301.997 19.7726C301.762 20.0469 301.644 20.4128 301.644 20.8831C301.644 21.3534 301.775 21.8496 302.023 22.3722C302.075 22.4636 302.141 22.4767 302.206 22.4245C302.728 22.111 303.134 21.7975 303.408 21.4839C303.682 21.1704 303.826 20.8047 303.826 20.3998C303.826 19.7074 303.512 19.3677 302.885 19.3677C302.532 19.3677 302.245 19.4983 301.997 19.7726Z" fill="white"/>
<path d="M318.587 31.6864C318.286 31.6864 318.025 31.5818 317.803 31.3598C317.581 31.1377 317.477 30.8765 317.477 30.576V18.4794C317.477 18.1789 317.581 17.9177 317.803 17.6956C318.025 17.4735 318.286 17.369 318.587 17.369H325.497C325.811 17.369 326.072 17.4735 326.281 17.6956C326.49 17.9177 326.595 18.1789 326.595 18.4794V19.1195C326.595 19.4199 326.49 19.6813 326.281 19.9034C326.072 20.1255 325.798 20.23 325.497 20.23H321.069C320.964 20.23 320.912 20.2691 320.912 20.3606V23.2214C320.912 23.3259 320.964 23.365 321.069 23.365H324.701C325.014 23.365 325.275 23.4695 325.484 23.6916C325.693 23.9137 325.811 24.162 325.811 24.4755V25.1156C325.811 25.4291 325.706 25.6904 325.484 25.8994C325.275 26.1084 325.014 26.2129 324.701 26.2129H321.069C320.964 26.2129 320.912 26.2652 320.912 26.3697V30.576C320.912 30.8765 320.808 31.1377 320.599 31.3598C320.39 31.5818 320.128 31.6864 319.815 31.6864H318.6H318.587Z" fill="white"/>
<path d="M330.828 31.9477C329.848 31.9477 329.064 31.6342 328.476 30.9941C327.875 30.354 327.588 29.5701 327.588 28.6295C327.588 27.48 328.058 26.5787 329.012 25.9386C329.952 25.2985 331.467 24.8674 333.531 24.6192C333.636 24.6192 333.675 24.5539 333.662 24.4624C333.532 23.6133 332.996 23.1821 332.029 23.1821C331.468 23.1821 330.841 23.339 330.148 23.6525C329.991 23.7309 329.821 23.77 329.639 23.77C329.521 23.77 329.403 23.7569 329.286 23.7177C328.998 23.6263 328.776 23.4435 328.633 23.1692L328.476 22.8817C328.385 22.7118 328.345 22.5291 328.345 22.3593C328.345 22.2417 328.345 22.1372 328.385 22.0196C328.476 21.7191 328.659 21.5101 328.933 21.3795C330.201 20.7655 331.441 20.4519 332.669 20.4519C335.622 20.4519 337.098 22.1241 337.098 25.4553V30.5629C337.098 30.8633 336.994 31.1246 336.771 31.3467C336.549 31.5687 336.288 31.6732 335.988 31.6732H335.308C335.008 31.6732 334.746 31.5818 334.524 31.399C334.302 31.2161 334.159 30.9809 334.093 30.6935V30.6152C334.093 30.6152 334.041 30.576 334.015 30.576C333.989 30.576 333.976 30.576 333.963 30.589C332.944 31.4773 331.912 31.9215 330.841 31.9215L330.828 31.9477ZM332.003 29.3089C332.539 29.3089 333.061 29.0476 333.558 28.5382C333.623 28.4729 333.649 28.3944 333.649 28.2899V26.8268C333.649 26.7484 333.61 26.7093 333.531 26.7093H333.493C331.703 26.9705 330.801 27.5192 330.801 28.3683C330.801 28.6819 330.906 28.9169 331.115 29.0737C331.324 29.2304 331.611 29.3089 331.99 29.3089H332.003Z" fill="white"/>
<path d="M344.544 31.9477C342.951 31.9477 341.644 31.4381 340.625 30.4061C339.606 29.3741 339.097 27.9895 339.097 26.2129C339.097 25.0502 339.371 24.0182 339.907 23.1299C340.442 22.2416 341.148 21.5754 342.01 21.1312C342.872 20.6871 343.813 20.465 344.845 20.465C345.681 20.465 346.452 20.6479 347.131 21.0137C347.392 21.1704 347.549 21.3925 347.601 21.693C347.601 21.7583 347.614 21.8235 347.614 21.8757C347.614 22.1109 347.536 22.333 347.366 22.5289L347.079 22.947C346.869 23.2344 346.543 23.3781 346.125 23.3781C345.929 23.3781 345.707 23.352 345.472 23.2867C345.328 23.2475 345.184 23.2344 345.027 23.2344C344.283 23.2344 343.695 23.5087 343.251 24.0443C342.807 24.5799 342.585 25.3115 342.585 26.2259C342.585 27.1404 342.807 27.8327 343.238 28.3814C343.682 28.9301 344.231 29.2044 344.91 29.2044C345.224 29.2044 345.537 29.139 345.864 28.9953C346.034 28.917 346.216 28.8778 346.412 28.8778C346.517 28.8778 346.608 28.8777 346.713 28.9169C347.013 28.9822 347.235 29.1389 347.366 29.3871L347.575 29.7268C347.692 29.9228 347.745 30.1319 347.745 30.3409C347.745 30.4323 347.745 30.5107 347.732 30.6021C347.666 30.9287 347.497 31.1639 347.222 31.2945C346.412 31.7256 345.511 31.9477 344.531 31.9477H344.544Z" fill="white"/>
<path d="M351.741 19.211C351.166 19.211 350.696 19.0542 350.317 18.7277C349.951 18.4011 349.769 17.9829 349.769 17.4735C349.769 16.964 349.951 16.533 350.317 16.2064C350.683 15.8798 351.153 15.71 351.741 15.71C352.329 15.71 352.773 15.8798 353.126 16.2064C353.491 16.533 353.674 16.964 353.674 17.4735C353.674 17.9829 353.491 18.4011 353.126 18.7277C352.76 19.0542 352.303 19.211 351.741 19.211ZM351.14 31.6864C350.827 31.6864 350.565 31.5819 350.356 31.3598C350.147 31.1377 350.043 30.8765 350.043 30.576V21.8367C350.043 21.5363 350.147 21.275 350.356 21.053C350.565 20.8309 350.827 20.7264 351.14 20.7264H352.329C352.629 20.7264 352.891 20.8309 353.113 21.053C353.335 21.275 353.439 21.5363 353.439 21.8367V30.576C353.439 30.8765 353.335 31.1377 353.113 31.3598C352.891 31.5819 352.629 31.6864 352.329 31.6864H351.14Z" fill="white"/>
<path d="M359.306 31.9478C358.195 31.9478 357.398 31.6212 356.915 30.955C356.431 30.2887 356.196 29.3481 356.196 28.1332V17.4214C356.196 17.1079 356.301 16.8466 356.51 16.6376C356.719 16.4286 356.98 16.311 357.294 16.311H358.482C358.783 16.311 359.044 16.4155 359.266 16.6376C359.488 16.8466 359.593 17.1079 359.593 17.4214V28.2638C359.593 28.6949 359.71 28.9693 359.946 29.113C359.946 29.113 360.011 29.1653 360.128 29.2176C360.233 29.2698 360.298 29.309 360.337 29.3351C360.363 29.3612 360.416 29.4004 360.494 29.4526C360.559 29.5049 360.612 29.5571 360.651 29.6094C360.677 29.6616 360.703 29.727 360.716 29.8054L360.834 30.5761C360.834 30.6544 360.847 30.7329 360.847 30.7982C360.847 31.0333 360.781 31.2554 360.664 31.4514C360.494 31.7257 360.246 31.8824 359.933 31.9216C359.75 31.9216 359.54 31.9347 359.331 31.9347L359.306 31.9478Z" fill="white"/>
<path d="M364.268 19.211C363.694 19.211 363.224 19.0542 362.845 18.7277C362.479 18.4011 362.296 17.9829 362.296 17.4735C362.296 16.964 362.479 16.533 362.845 16.2064C363.211 15.8798 363.681 15.71 364.268 15.71C364.856 15.71 365.301 15.8798 365.653 16.2064C366.006 16.533 366.202 16.964 366.202 17.4735C366.202 17.9829 366.019 18.4011 365.653 18.7277C365.287 19.0542 364.83 19.211 364.268 19.211ZM363.668 31.6864C363.354 31.6864 363.093 31.5819 362.884 31.3598C362.675 31.1377 362.57 30.8765 362.57 30.576V21.8367C362.57 21.5363 362.675 21.275 362.884 21.053C363.093 20.8309 363.354 20.7264 363.668 20.7264H364.857C365.157 20.7264 365.418 20.8309 365.64 21.053C365.862 21.275 365.967 21.5363 365.967 21.8367V30.576C365.967 30.8765 365.862 31.1377 365.64 31.3598C365.418 31.5819 365.157 31.6864 364.857 31.6864H363.668Z" fill="white"/>
<path d="M373.022 31.9477C371.69 31.9477 370.723 31.5688 370.096 30.8112C369.469 30.0535 369.155 28.9953 369.155 27.6236V23.5479C369.155 23.4564 369.116 23.4173 369.025 23.4173H368.777C368.476 23.4173 368.215 23.3128 367.993 23.0907C367.771 22.8686 367.666 22.6074 367.666 22.3069V21.9804C367.666 21.6668 367.771 21.3925 367.98 21.1704C368.189 20.9353 368.463 20.8046 368.763 20.7916L369.194 20.7523C369.299 20.7523 369.351 20.687 369.364 20.5956L369.573 18.9365C369.625 18.623 369.769 18.3618 370.004 18.1527C370.24 17.9437 370.514 17.8392 370.827 17.8392H371.467C371.768 17.8392 372.029 17.9437 372.251 18.1527C372.473 18.3618 372.578 18.6361 372.578 18.9365V20.5694C372.578 20.6609 372.617 20.7002 372.709 20.7002H374.041C374.341 20.7002 374.603 20.8047 374.825 21.0268C375.047 21.2488 375.151 21.5101 375.151 21.8105V22.2808C375.151 22.5812 375.047 22.8425 374.825 23.0646C374.603 23.2866 374.341 23.3911 374.041 23.3911H372.709C372.617 23.3911 372.578 23.4303 372.578 23.5217V27.5584C372.578 28.6427 373.009 29.2173 373.871 29.2435C374.185 29.2435 374.472 29.335 374.72 29.4918C374.968 29.6485 375.125 29.8575 375.19 30.1188L375.269 30.4192C375.269 30.5237 375.282 30.6151 375.282 30.7066C375.282 30.9025 375.23 31.0986 375.112 31.2945C374.955 31.5688 374.72 31.7386 374.42 31.7778C373.962 31.8693 373.492 31.9084 373.009 31.9084L373.022 31.9477Z" fill="white"/>
<path d="M378.979 19.211C378.405 19.211 377.935 19.0542 377.556 18.7277C377.19 18.4011 377.007 17.9829 377.007 17.4735C377.007 16.964 377.19 16.533 377.556 16.2064C377.921 15.8798 378.392 15.71 378.979 15.71C379.567 15.71 380.011 15.8798 380.364 16.2064C380.73 16.533 380.913 16.964 380.913 17.4735C380.913 17.9829 380.73 18.4011 380.364 18.7277C379.998 19.0542 379.541 19.211 378.979 19.211ZM378.379 31.6864C378.065 31.6864 377.804 31.5819 377.595 31.3598C377.386 31.1377 377.281 30.8765 377.281 30.576V21.8367C377.281 21.5363 377.386 21.275 377.595 21.053C377.804 20.8309 378.065 20.7264 378.379 20.7264H379.568C379.868 20.7264 380.129 20.8309 380.351 21.053C380.573 21.275 380.678 21.5363 380.678 21.8367V30.576C380.678 30.8765 380.573 31.1377 380.351 31.3598C380.129 31.5819 379.868 31.6864 379.568 31.6864H378.379Z" fill="white"/>
<path d="M388.373 31.9478C386.753 31.9478 385.42 31.4382 384.375 30.4062C383.33 29.3742 382.808 27.9896 382.808 26.213C382.808 25.3508 382.951 24.554 383.252 23.8224C383.552 23.0909 383.931 22.4769 384.414 22.0066C384.898 21.5363 385.446 21.1445 386.073 20.8832C386.687 20.6089 387.341 20.4781 387.994 20.4781C389.522 20.4781 390.685 20.9615 391.482 21.9412C392.278 22.921 392.683 24.2013 392.683 25.7689V26.1214C392.683 26.4349 392.54 26.6963 392.292 26.9054C392.043 27.1144 391.756 27.2189 391.429 27.2189H386.256C386.256 27.2189 386.191 27.2318 386.165 27.271C386.139 27.2971 386.139 27.3364 386.152 27.3756C386.465 28.695 387.367 29.3482 388.843 29.3482C389.287 29.3482 389.731 29.2697 390.162 29.1261C390.306 29.0738 390.463 29.0478 390.633 29.0478C390.776 29.0478 390.907 29.0607 391.05 29.0999C391.338 29.1913 391.56 29.3612 391.703 29.6225L391.756 29.74C391.873 29.9229 391.926 30.1189 391.926 30.3018C391.926 30.4063 391.913 30.4977 391.873 30.6022C391.795 30.9157 391.625 31.1378 391.351 31.2554C390.371 31.7126 389.392 31.9478 388.386 31.9478H388.373ZM386.087 24.9066C386.087 24.9066 386.126 24.998 386.217 24.998H389.653C389.757 24.998 389.809 24.9588 389.809 24.8674C389.783 24.3057 389.627 23.8746 389.352 23.5611C389.078 23.2476 388.647 23.0777 388.085 23.0777C387.602 23.0777 387.171 23.2214 386.831 23.5218C386.348 23.9268 386.1 24.3841 386.1 24.8936L386.087 24.9066Z" fill="white"/>
<path d="M398.169 31.9477C397.059 31.9477 395.949 31.6472 394.864 31.0463C394.603 30.8895 394.446 30.6676 394.394 30.3541C394.394 30.2887 394.381 30.2234 394.381 30.1712C394.381 29.936 394.459 29.7139 394.603 29.518L394.825 29.1914C394.995 28.9432 395.243 28.7863 395.544 28.7471C395.622 28.7471 395.687 28.7341 395.766 28.7341C395.988 28.7341 396.21 28.7863 396.406 28.9039C397.046 29.2697 397.66 29.4526 398.248 29.4526C399.11 29.4526 399.541 29.1652 399.541 28.5904C399.541 28.4989 399.528 28.4206 399.489 28.3423C399.45 28.2639 399.384 28.1854 399.293 28.107C399.201 28.0287 399.11 27.9635 399.045 27.9112C398.966 27.859 398.849 27.7936 398.692 27.7283C398.535 27.663 398.404 27.5977 398.313 27.5585C398.221 27.5193 398.065 27.454 397.843 27.3756C397.621 27.2972 397.464 27.2319 397.385 27.1927C397.007 27.0359 396.667 26.8792 396.367 26.7093C396.066 26.5395 395.766 26.3305 395.478 26.0823C395.191 25.8341 394.956 25.5336 394.786 25.1678C394.616 24.8151 394.538 24.4102 394.538 23.9792C394.538 22.9341 394.93 22.098 395.7 21.4579C396.471 20.8178 397.503 20.5043 398.783 20.5043C399.841 20.5043 400.834 20.7655 401.775 21.288C402.036 21.4448 402.193 21.6669 402.245 21.9674C402.245 22.0327 402.258 22.098 402.258 22.1503C402.258 22.3854 402.18 22.6075 402.036 22.7904L401.827 23.0516C401.657 23.2867 401.409 23.4434 401.096 23.5087C401.004 23.5087 400.926 23.5218 400.834 23.5218C400.625 23.5218 400.416 23.4696 400.207 23.3651C399.737 23.1299 399.293 23.0125 398.888 23.0125C398.117 23.0125 397.725 23.2737 397.725 23.7963C397.725 23.8746 397.725 23.9398 397.764 24.0051C397.79 24.0705 397.829 24.1227 397.882 24.1881C397.934 24.2403 397.986 24.2926 398.039 24.3448C398.091 24.3971 398.156 24.4362 398.248 24.4885C398.339 24.5277 398.431 24.567 398.496 24.6062C398.574 24.6454 398.679 24.6845 398.809 24.7368C398.94 24.789 399.045 24.8282 399.136 24.8543C399.228 24.8804 399.345 24.9197 399.489 24.972C399.646 25.0242 399.763 25.0634 399.867 25.1026C400.272 25.2593 400.612 25.403 400.913 25.5598C401.2 25.7165 401.513 25.9255 401.814 26.1737C402.114 26.435 402.349 26.7485 402.506 27.1142C402.663 27.48 402.742 27.9112 402.742 28.3815C402.742 29.4396 402.349 30.2887 401.553 30.9549C400.756 31.6211 399.645 31.9477 398.195 31.9477H398.169Z" fill="white"/>
<path d="M413.244 31.6864C412.931 31.6864 412.669 31.5818 412.46 31.3598C412.251 31.1377 412.147 30.8765 412.147 30.576V20.3606C412.147 20.2691 412.095 20.23 411.99 20.23H409.377C409.064 20.23 408.803 20.1255 408.594 19.9034C408.385 19.6813 408.28 19.4199 408.28 19.1195V18.4794C408.28 18.1789 408.385 17.9177 408.594 17.6956C408.803 17.4735 409.064 17.369 409.377 17.369H418.365C418.666 17.369 418.927 17.4735 419.149 17.6956C419.371 17.9177 419.475 18.1789 419.475 18.4794V19.1195C419.475 19.4199 419.371 19.6813 419.149 19.9034C418.927 20.1255 418.666 20.23 418.365 20.23H415.713C415.622 20.23 415.582 20.2691 415.582 20.3606V30.576C415.582 30.8765 415.478 31.1377 415.256 31.3598C415.034 31.5818 414.773 31.6864 414.472 31.6864H413.257H413.244Z" fill="white"/>
<path d="M422.519 31.6864C422.206 31.6864 421.944 31.5819 421.735 31.3598C421.526 31.1378 421.422 30.8765 421.422 30.5761V17.4214C421.422 17.1079 421.526 16.8466 421.735 16.6376C421.944 16.4286 422.206 16.311 422.519 16.311H423.708C424.008 16.311 424.27 16.4155 424.492 16.6376C424.714 16.8597 424.818 17.1079 424.818 17.4214V19.9948L424.662 21.7976C424.662 21.7976 424.662 21.8368 424.701 21.8499C424.727 21.8499 424.74 21.8499 424.753 21.8499C425.785 20.9224 426.869 20.4651 428.006 20.4651C429.142 20.4651 430.018 20.857 430.566 21.6277C431.128 22.3985 431.402 23.4958 431.402 24.9197V30.5761C431.402 30.8765 431.298 31.1378 431.089 31.3598C430.88 31.5819 430.619 31.6864 430.305 31.6864H429.103C428.79 31.6864 428.528 31.5819 428.319 31.3598C428.11 31.1378 428.006 30.8765 428.006 30.5761V25.3377C428.006 24.6061 427.901 24.1098 427.705 23.8224C427.509 23.535 427.183 23.4043 426.726 23.4043C426.386 23.4043 426.086 23.4697 425.837 23.6134C425.576 23.7571 425.276 23.9792 424.923 24.2927C424.858 24.358 424.832 24.4363 424.832 24.5147V30.5891C424.832 30.8896 424.727 31.1508 424.505 31.3729C424.283 31.595 424.021 31.6995 423.721 31.6995H422.532L422.519 31.6864Z" fill="white"/>
<path d="M436.81 31.9477C435.83 31.9477 435.046 31.6342 434.459 30.9941C433.858 30.354 433.57 29.5701 433.57 28.6295C433.57 27.48 434.041 26.5787 434.994 25.9386C435.935 25.2985 437.45 24.8674 439.514 24.6192C439.619 24.6192 439.658 24.5539 439.645 24.4624C439.514 23.6133 438.979 23.1821 438.012 23.1821C437.45 23.1821 436.823 23.339 436.131 23.6525C435.974 23.7309 435.804 23.77 435.621 23.77C435.504 23.77 435.386 23.7569 435.269 23.7177C434.981 23.6263 434.759 23.4435 434.615 23.1692L434.459 22.8817C434.367 22.7118 434.328 22.5291 434.328 22.3593C434.328 22.2417 434.328 22.1372 434.367 22.0196C434.459 21.7191 434.642 21.5101 434.916 21.3795C436.183 20.7655 437.424 20.4519 438.652 20.4519C441.604 20.4519 443.08 22.1241 443.08 25.4553V30.5629C443.08 30.8633 442.976 31.1246 442.754 31.3467C442.532 31.5687 442.27 31.6732 441.97 31.6732H441.291C440.99 31.6732 440.729 31.5818 440.507 31.399C440.285 31.2161 440.141 30.9809 440.076 30.6935V30.6152C440.076 30.6152 440.023 30.576 439.997 30.576C439.971 30.576 439.958 30.576 439.945 30.589C438.926 31.4773 437.894 31.9215 436.823 31.9215L436.81 31.9477ZM437.999 29.3089C438.535 29.3089 439.057 29.0476 439.553 28.5382C439.619 28.4729 439.645 28.3944 439.645 28.2899V26.8268C439.645 26.7484 439.606 26.7093 439.527 26.7093H439.488C437.698 26.9705 436.797 27.5192 436.797 28.3683C436.797 28.6819 436.901 28.9169 437.11 29.0737C437.319 29.2304 437.607 29.3089 437.986 29.3089H437.999Z" fill="white"/>
<path d="M450.005 31.9477C448.672 31.9477 447.705 31.5688 447.078 30.8112C446.451 30.0535 446.138 28.9953 446.138 27.6236V23.5479C446.138 23.4564 446.099 23.4173 446.007 23.4173H445.759C445.458 23.4173 445.197 23.3128 444.975 23.0907C444.753 22.8686 444.648 22.6074 444.648 22.3069V21.9804C444.648 21.6668 444.753 21.3925 444.962 21.1704C445.171 20.9353 445.445 20.8046 445.746 20.7916L446.177 20.7523C446.282 20.7523 446.334 20.687 446.347 20.5956L446.556 18.9365C446.608 18.623 446.752 18.3618 446.987 18.1527C447.222 17.9437 447.496 17.8392 447.81 17.8392H448.45C448.751 17.8392 449.012 17.9437 449.234 18.1527C449.456 18.3618 449.56 18.6361 449.56 18.9365V20.5694C449.56 20.6609 449.6 20.7002 449.691 20.7002H451.023C451.324 20.7002 451.585 20.8047 451.807 21.0268C452.029 21.2488 452.134 21.5101 452.134 21.8105V22.2808C452.134 22.5812 452.029 22.8425 451.807 23.0646C451.585 23.2866 451.324 23.3911 451.023 23.3911H449.691C449.6 23.3911 449.56 23.4303 449.56 23.5217V27.5584C449.56 28.6427 449.991 29.2173 450.854 29.2435C451.167 29.2435 451.455 29.335 451.703 29.4918C451.951 29.6485 452.108 29.8575 452.173 30.1188L452.251 30.4192C452.251 30.5237 452.264 30.6151 452.264 30.7066C452.264 30.9025 452.212 31.0986 452.094 31.2945C451.938 31.5688 451.703 31.7386 451.402 31.7778C450.945 31.8693 450.475 31.9084 449.991 31.9084L450.005 31.9477Z" fill="white"/>
<path d="M463.356 31.9477C461.71 31.9477 460.22 31.4904 458.862 30.576C458.614 30.4192 458.47 30.1711 458.444 29.8576C458.444 29.8184 458.431 29.7791 458.431 29.7399C458.431 29.4787 458.522 29.2436 458.692 29.0215L459.241 28.3684C459.424 28.1463 459.685 28.0156 459.998 27.9764H460.168C460.403 27.9764 460.625 28.0417 460.848 28.1593C461.749 28.708 462.611 28.9823 463.447 28.9823C464.061 28.9823 464.518 28.8778 464.832 28.6557C465.145 28.4336 465.302 28.1202 465.302 27.7283C465.302 27.3756 465.171 27.1143 464.91 26.9184C464.649 26.7355 464.191 26.5003 463.538 26.226C463.421 26.1737 463.342 26.1346 463.29 26.1084L461.448 25.3376C460.612 24.9979 459.92 24.5015 459.371 23.8484C458.823 23.1952 458.548 22.3853 458.548 21.4186C458.548 20.2037 459.032 19.1848 460.011 18.3488C460.991 17.5127 462.232 17.0947 463.734 17.0947C465.132 17.0947 466.412 17.4866 467.549 18.2574C467.797 18.4272 467.941 18.6884 467.967 19.015V19.1325C467.967 19.3938 467.876 19.629 467.706 19.8511L467.366 20.2821C467.196 20.5042 466.948 20.648 466.634 20.7002C466.556 20.7002 466.491 20.7133 466.412 20.7133C466.19 20.7133 465.968 20.661 465.759 20.5435C465.119 20.2038 464.453 20.034 463.748 20.034C463.212 20.034 462.794 20.1385 462.493 20.3475C462.193 20.5565 462.049 20.8569 462.049 21.2357C462.049 21.3925 462.089 21.5232 462.154 21.6407C462.219 21.7583 462.297 21.8628 462.389 21.9542C462.48 22.0457 462.624 22.1371 462.833 22.2416C463.042 22.3461 463.212 22.4246 463.356 22.4899C463.499 22.5421 463.721 22.6335 464.022 22.7642C464.113 22.7903 464.178 22.8165 464.231 22.8426L466.021 23.561C467.902 24.3187 468.842 25.625 468.842 27.4931C468.842 28.094 468.724 28.6688 468.476 29.2044C468.228 29.74 467.876 30.2233 467.418 30.6283C466.961 31.0463 466.386 31.3729 465.694 31.608C465.002 31.8432 464.231 31.9608 463.395 31.9608L463.356 31.9477Z" fill="white"/>
<path d="M474.223 31.9477C473.06 31.9477 472.198 31.5688 471.649 30.7981C471.101 30.0274 470.826 28.93 470.826 27.5192V21.8498C470.826 21.5493 470.931 21.2879 471.14 21.0658C471.349 20.8438 471.61 20.7392 471.924 20.7392H473.125C473.426 20.7392 473.687 20.8438 473.909 21.0658C474.131 21.2879 474.236 21.5493 474.236 21.8498V27.0882C474.236 27.8328 474.327 28.3421 474.523 28.6165C474.719 28.9039 475.046 29.0346 475.49 29.0346C475.869 29.0346 476.182 28.9561 476.443 28.7994C476.705 28.6426 476.966 28.3814 477.227 28.0156C477.292 27.9372 477.319 27.8588 477.319 27.7673V21.8236C477.319 21.5231 477.423 21.2619 477.645 21.0398C477.854 20.8178 478.116 20.7133 478.429 20.7133H479.631C479.931 20.7133 480.193 20.8178 480.415 21.0398C480.637 21.2619 480.741 21.5231 480.741 21.8236V30.5629C480.741 30.8633 480.637 31.1246 480.415 31.3466C480.193 31.5687 479.931 31.6732 479.631 31.6732H479.069C478.743 31.6732 478.455 31.5687 478.22 31.3597C477.972 31.1507 477.828 30.8895 477.776 30.576L477.724 30.1972C477.724 30.1972 477.697 30.158 477.671 30.158C477.645 30.158 477.632 30.158 477.619 30.1972C477.136 30.759 476.613 31.19 476.078 31.4905C475.542 31.7909 474.915 31.9346 474.223 31.9346V31.9477Z" fill="white"/>
<path d="M485.209 19.211C484.634 19.211 484.164 19.0542 483.785 18.7277C483.419 18.4011 483.236 17.9829 483.236 17.4735C483.236 16.964 483.419 16.533 483.785 16.2064C484.151 15.8798 484.621 15.71 485.209 15.71C485.797 15.71 486.241 15.8798 486.594 16.2064C486.959 16.533 487.142 16.964 487.142 17.4735C487.142 17.9829 486.959 18.4011 486.594 18.7277C486.228 19.0542 485.771 19.211 485.209 19.211ZM484.608 31.6864C484.295 31.6864 484.033 31.5819 483.824 31.3598C483.615 31.1377 483.511 30.8765 483.511 30.576V21.8367C483.511 21.5363 483.615 21.275 483.824 21.053C484.033 20.8309 484.295 20.7264 484.608 20.7264H485.797C486.097 20.7264 486.359 20.8309 486.581 21.053C486.803 21.275 486.907 21.5363 486.907 21.8367V30.576C486.907 30.8765 486.803 31.1377 486.581 31.3598C486.359 31.5819 486.097 31.6864 485.797 31.6864H484.608Z" fill="white"/>
<path d="M493.962 31.9477C492.63 31.9477 491.663 31.5688 491.036 30.8112C490.409 30.0535 490.096 28.9953 490.096 27.6236V23.5479C490.096 23.4564 490.056 23.4173 489.965 23.4173H489.717C489.416 23.4173 489.155 23.3128 488.933 23.0907C488.711 22.8686 488.606 22.6074 488.606 22.3069V21.9804C488.606 21.6668 488.711 21.3925 488.92 21.1704C489.129 20.9353 489.403 20.8046 489.704 20.7916L490.135 20.7523C490.239 20.7523 490.291 20.687 490.304 20.5956L490.514 18.9365C490.566 18.623 490.709 18.3618 490.945 18.1527C491.18 17.9437 491.454 17.8392 491.768 17.8392H492.408C492.708 17.8392 492.97 17.9437 493.192 18.1527C493.414 18.3618 493.518 18.6361 493.518 18.9365V20.5694C493.518 20.6609 493.557 20.7002 493.649 20.7002H494.981C495.282 20.7002 495.543 20.8047 495.765 21.0268C495.987 21.2488 496.092 21.5101 496.092 21.8105V22.2808C496.092 22.5812 495.987 22.8425 495.765 23.0646C495.543 23.2866 495.282 23.3911 494.981 23.3911H493.649C493.557 23.3911 493.518 23.4303 493.518 23.5217V27.5584C493.518 28.6427 493.949 29.2173 494.812 29.2435C495.125 29.2435 495.412 29.335 495.661 29.4918C495.909 29.6485 496.066 29.8575 496.131 30.1188L496.209 30.4192C496.209 30.5237 496.222 30.6151 496.222 30.7066C496.222 30.9025 496.17 31.0986 496.052 31.2945C495.896 31.5688 495.661 31.7386 495.36 31.7778C494.903 31.8693 494.432 31.9084 493.949 31.9084L493.962 31.9477Z" fill="white"/>
<path d="M506.464 31.6863C506.163 31.6863 505.902 31.5818 505.68 31.3598C505.458 31.1377 505.353 30.8764 505.353 30.576V26.7616C505.353 26.6702 505.34 26.5917 505.301 26.5002L501.526 18.388C501.473 18.2704 501.447 18.1659 501.447 18.0745C501.447 17.9438 501.487 17.8262 501.565 17.7217C501.709 17.4997 501.905 17.3821 502.166 17.3821H503.616C503.943 17.3821 504.243 17.4735 504.517 17.6694C504.792 17.8654 504.987 18.1137 505.105 18.4141L505.915 20.5565C506.02 20.8439 506.398 21.902 507.065 23.7178C507.065 23.7439 507.078 23.757 507.117 23.757C507.156 23.757 507.169 23.7569 507.169 23.7178C507.261 23.4957 507.652 22.4377 508.358 20.5565L509.168 18.4141C509.285 18.1137 509.468 17.8654 509.756 17.6694C510.03 17.4735 510.343 17.3821 510.683 17.3821H512.055C512.316 17.3821 512.512 17.4997 512.656 17.7217C512.734 17.8393 512.773 17.9569 512.773 18.0745C512.773 18.179 512.747 18.2835 512.695 18.388L508.894 26.5002C508.854 26.5917 508.841 26.6702 508.841 26.7616V30.576C508.841 30.8764 508.737 31.1377 508.515 31.3598C508.293 31.5818 508.031 31.6863 507.731 31.6863H506.516H506.464Z" fill="white"/>
<path d="M517.907 31.9477C517.201 31.9477 516.535 31.817 515.882 31.5557C515.242 31.2944 514.667 30.9287 514.157 30.4454C513.661 29.9751 513.256 29.3611 512.969 28.6295C512.668 27.898 512.524 27.0881 512.524 26.2129C512.524 25.3376 512.668 24.5277 512.969 23.7831C513.269 23.0385 513.661 22.4376 514.157 21.9673C514.654 21.497 515.229 21.1182 515.882 20.8569C516.522 20.5957 517.201 20.465 517.907 20.465C518.612 20.465 519.265 20.5957 519.892 20.8569C520.532 21.1182 521.107 21.4839 521.604 21.9673C522.1 22.4376 522.505 23.0516 522.792 23.7831C523.08 24.5277 523.237 25.3245 523.237 26.2129C523.237 27.1012 523.093 27.898 522.792 28.6295C522.492 29.3611 522.1 29.962 521.604 30.4454C521.107 30.9156 520.532 31.2944 519.892 31.5557C519.252 31.817 518.586 31.9477 517.907 31.9477ZM517.907 29.1913C518.521 29.1913 518.978 28.9299 519.291 28.4074C519.592 27.8849 519.748 27.1534 519.748 26.2129C519.748 25.2723 519.592 24.5407 519.291 24.0181C518.978 23.4956 518.521 23.2344 517.907 23.2344C517.293 23.2344 516.809 23.4956 516.496 24.0181C516.182 24.5407 516.026 25.2723 516.026 26.2129C516.026 27.1534 516.182 27.8849 516.496 28.4074C516.809 28.9299 517.28 29.1913 517.907 29.1913Z" fill="white"/>
<path d="M528.685 31.9477C527.522 31.9477 526.66 31.5688 526.111 30.7981C525.563 30.0274 525.288 28.93 525.288 27.5192V21.8498C525.288 21.5493 525.393 21.2879 525.602 21.0658C525.811 20.8438 526.072 20.7392 526.386 20.7392H527.587C527.888 20.7392 528.149 20.8438 528.371 21.0658C528.593 21.2879 528.698 21.5493 528.698 21.8498V27.0882C528.698 27.8328 528.789 28.3421 528.985 28.6165C529.181 28.9039 529.508 29.0346 529.952 29.0346C530.331 29.0346 530.644 28.9561 530.905 28.7994C531.167 28.6426 531.428 28.3814 531.689 28.0156C531.755 27.9372 531.781 27.8588 531.781 27.7673V21.8236C531.781 21.5231 531.885 21.2619 532.107 21.0398C532.316 20.8178 532.578 20.7133 532.891 20.7133H534.093C534.393 20.7133 534.655 20.8178 534.877 21.0398C535.099 21.2619 535.203 21.5231 535.203 21.8236V30.5629C535.203 30.8633 535.099 31.1246 534.877 31.3466C534.655 31.5687 534.393 31.6732 534.093 31.6732H533.531C533.205 31.6732 532.917 31.5687 532.682 31.3597C532.434 31.1507 532.29 30.8895 532.238 30.576L532.186 30.1972C532.186 30.1972 532.159 30.158 532.133 30.158C532.107 30.158 532.094 30.158 532.081 30.1972C531.598 30.759 531.075 31.19 530.54 31.4905C530.004 31.7909 529.377 31.9346 528.685 31.9346V31.9477Z" fill="white"/>
<path d="M543.735 31.6864C543.434 31.6864 543.173 31.5818 542.951 31.3598C542.729 31.1377 542.624 30.8765 542.624 30.576V18.4794C542.624 18.1789 542.729 17.9177 542.951 17.6956C543.173 17.4735 543.434 17.369 543.735 17.369H547.627C551.181 17.369 552.957 18.5577 552.957 20.9222C552.957 21.5754 552.787 22.1894 552.448 22.7772C552.108 23.3651 551.677 23.7701 551.128 23.9922C551.102 23.9922 551.089 24.0052 551.089 24.0443C551.089 24.0835 551.089 24.0967 551.128 24.0967C551.886 24.3057 552.487 24.6976 552.944 25.2593C553.401 25.821 553.637 26.5525 553.637 27.4539C553.637 28.3552 553.388 29.1914 552.879 29.8445C552.369 30.4977 551.703 30.9679 550.88 31.2553C550.057 31.5427 549.104 31.6864 548.045 31.6864H543.748H543.735ZM546.073 22.9209C546.073 23.0124 546.125 23.0515 546.23 23.0515H547.51C548.228 23.0515 548.751 22.9079 549.103 22.6336C549.456 22.3462 549.626 21.9542 549.626 21.4448C549.626 20.9353 549.456 20.5826 549.103 20.3475C548.764 20.1124 548.228 19.9948 547.497 19.9948H546.216C546.112 19.9948 546.06 20.047 546.06 20.1515V22.934L546.073 22.9209ZM546.073 28.9039C546.073 29.0084 546.125 29.0606 546.23 29.0606H547.784C549.456 29.0606 550.305 28.4468 550.305 27.2188C550.305 26.644 550.096 26.2259 549.691 25.9646C549.287 25.7034 548.646 25.5859 547.784 25.5859H546.23C546.125 25.5859 546.073 25.6381 546.073 25.7426V28.9169V28.9039Z" fill="white"/>
<path d="M560.664 31.9478C559.044 31.9478 557.711 31.4382 556.666 30.4062C555.621 29.3742 555.099 27.9896 555.099 26.213C555.099 25.3508 555.242 24.554 555.543 23.8224C555.843 23.0909 556.222 22.4769 556.705 22.0066C557.189 21.5363 557.737 21.1445 558.364 20.8832C558.978 20.6089 559.632 20.4781 560.285 20.4781C561.813 20.4781 562.976 20.9615 563.773 21.9412C564.569 22.921 564.975 24.2013 564.975 25.7689V26.1214C564.975 26.4349 564.831 26.6963 564.583 26.9054C564.334 27.1144 564.047 27.2189 563.721 27.2189H558.547C558.547 27.2189 558.482 27.2318 558.456 27.271C558.43 27.2971 558.43 27.3364 558.443 27.3756C558.756 28.695 559.658 29.3482 561.134 29.3482C561.578 29.3482 562.022 29.2697 562.453 29.1261C562.597 29.0738 562.754 29.0478 562.924 29.0478C563.067 29.0478 563.198 29.0607 563.342 29.0999C563.629 29.1913 563.851 29.3612 563.995 29.6225L564.047 29.74C564.165 29.9229 564.217 30.1189 564.217 30.3018C564.217 30.4063 564.204 30.4977 564.164 30.6022C564.086 30.9157 563.916 31.1378 563.642 31.2554C562.662 31.7126 561.683 31.9478 560.677 31.9478H560.664ZM558.378 24.9066C558.378 24.9066 558.417 24.998 558.508 24.998H561.944C562.048 24.998 562.101 24.9588 562.101 24.8674C562.075 24.3057 561.918 23.8746 561.643 23.5611C561.369 23.2476 560.938 23.0777 560.376 23.0777C559.893 23.0777 559.462 23.2214 559.122 23.5218C558.639 23.9268 558.391 24.3841 558.391 24.8936L558.378 24.9066Z" fill="white"/>
<path d="M570.461 31.9477C569.351 31.9477 568.24 31.6472 567.156 31.0463C566.895 30.8895 566.738 30.6676 566.686 30.3541C566.686 30.2887 566.673 30.2234 566.673 30.1712C566.673 29.936 566.751 29.7139 566.895 29.518L567.117 29.1914C567.287 28.9432 567.535 28.7863 567.835 28.7471C567.914 28.7471 567.979 28.7341 568.057 28.7341C568.279 28.7341 568.501 28.7863 568.697 28.9039C569.338 29.2697 569.952 29.4526 570.54 29.4526C571.402 29.4526 571.833 29.1652 571.833 28.5904C571.833 28.4989 571.82 28.4206 571.78 28.3423C571.741 28.2639 571.676 28.1854 571.585 28.107C571.493 28.0287 571.402 27.9635 571.336 27.9112C571.258 27.859 571.14 27.7936 570.983 27.7283C570.827 27.663 570.696 27.5977 570.605 27.5585C570.513 27.5193 570.357 27.454 570.135 27.3756C569.912 27.2972 569.756 27.2319 569.677 27.1927C569.298 27.0359 568.959 26.8792 568.658 26.7093C568.358 26.5395 568.057 26.3305 567.77 26.0823C567.483 25.8341 567.247 25.5336 567.078 25.1678C566.908 24.8151 566.829 24.4102 566.829 23.9792C566.829 22.9341 567.222 22.098 567.992 21.4579C568.763 20.8178 569.795 20.5043 571.075 20.5043C572.133 20.5043 573.126 20.7655 574.067 21.288C574.328 21.4448 574.485 21.6669 574.537 21.9674C574.537 22.0327 574.55 22.098 574.55 22.1503C574.55 22.3854 574.471 22.6075 574.328 22.7904L574.119 23.0516C573.949 23.2867 573.701 23.4434 573.387 23.5087C573.296 23.5087 573.217 23.5218 573.126 23.5218C572.917 23.5218 572.708 23.4696 572.499 23.3651C572.029 23.1299 571.585 23.0125 571.18 23.0125C570.409 23.0125 570.017 23.2737 570.017 23.7963C570.017 23.8746 570.017 23.9398 570.056 24.0051C570.082 24.0705 570.121 24.1227 570.174 24.1881C570.226 24.2403 570.278 24.2926 570.33 24.3448C570.383 24.3971 570.448 24.4362 570.553 24.4885C570.644 24.5277 570.735 24.567 570.801 24.6062C570.879 24.6454 570.984 24.6845 571.114 24.7368C571.245 24.789 571.349 24.8282 571.441 24.8543C571.532 24.8804 571.65 24.9197 571.794 24.972C571.95 25.0242 572.068 25.0634 572.172 25.1026C572.577 25.2593 572.917 25.403 573.218 25.5598C573.505 25.7165 573.805 25.9255 574.119 26.1737C574.419 26.435 574.655 26.7485 574.811 27.1142C574.968 27.48 575.046 27.9112 575.046 28.3815C575.046 29.4396 574.655 30.2887 573.858 30.9549C573.061 31.6211 571.95 31.9477 570.5 31.9477H570.461Z" fill="white"/>
<path d="M581.303 31.9477C579.971 31.9477 579.004 31.5688 578.377 30.8112C577.75 30.0535 577.437 28.9953 577.437 27.6236V23.5479C577.437 23.4564 577.397 23.4173 577.306 23.4173H577.058C576.757 23.4173 576.496 23.3128 576.274 23.0907C576.052 22.8686 575.947 22.6074 575.947 22.3069V21.9804C575.947 21.6668 576.052 21.3925 576.261 21.1704C576.47 20.9353 576.744 20.8046 577.045 20.7916L577.476 20.7523C577.58 20.7523 577.632 20.687 577.646 20.5956L577.854 18.9365C577.907 18.623 578.051 18.3618 578.286 18.1527C578.521 17.9437 578.795 17.8392 579.109 17.8392H579.749C580.049 17.8392 580.31 17.9437 580.532 18.1527C580.755 18.3618 580.859 18.6361 580.859 18.9365V20.5694C580.859 20.6609 580.898 20.7002 580.99 20.7002H582.322C582.623 20.7002 582.884 20.8047 583.106 21.0268C583.328 21.2488 583.433 21.5101 583.433 21.8105V22.2808C583.433 22.5812 583.328 22.8425 583.106 23.0646C582.884 23.2866 582.623 23.3911 582.322 23.3911H580.99C580.898 23.3911 580.859 23.4303 580.859 23.5217V27.5584C580.859 28.6427 581.29 29.2173 582.152 29.2435C582.466 29.2435 582.753 29.335 583.002 29.4918C583.25 29.6485 583.406 29.8575 583.472 30.1188L583.55 30.4192C583.55 30.5237 583.563 30.6151 583.563 30.7066C583.563 30.9025 583.511 31.0986 583.393 31.2945C583.237 31.5688 583.002 31.7386 582.701 31.7778C582.244 31.8693 581.774 31.9084 581.29 31.9084L581.303 31.9477Z" fill="white"/>
<path d="M587.536 31.9477C586.948 31.9477 586.464 31.7388 586.085 31.3338C585.707 30.9288 585.511 30.4193 585.511 29.8184C585.511 29.2175 585.707 28.708 586.085 28.303C586.464 27.8981 586.948 27.6891 587.536 27.6891C588.123 27.6891 588.607 27.8981 588.999 28.303C589.39 28.708 589.586 29.2175 589.586 29.8184C589.586 30.4193 589.39 30.9288 588.999 31.3338C588.607 31.7388 588.123 31.9477 587.536 31.9477Z" fill="white"/>
</svg>
