<svg width="1440" height="157" viewBox="0 0 1440 157" fill="none" xmlns="http://www.w3.org/2000/svg">
<g clip-path="url(#clip0_86_58181)">
<path d="M762.257 156.643C762.257 156.643 744.17 141.899 731.882 139.683C719.593 137.467 711.976 145.084 700.179 143.611C688.382 142.138 677.566 135.994 665.039 136.233C652.512 136.485 629.223 156.656 629.223 156.656L762.257 156.629V156.643Z" fill="#ED9026"/>
<path d="M679.278 156.616L697.976 124.25L716.674 156.616H679.278Z" fill="#FDF7D3"/>
<path d="M703.298 156.603L729.122 111.882L754.932 156.603H703.298Z" fill="#FAD5B4"/>
<path d="M729.121 111.895L736.128 156.589H754.905L729.121 111.895Z" fill="#FDF7D3"/>
<path d="M697.976 124.25L694.685 156.629L679.278 156.642L697.976 124.25Z" fill="#FAD5B4"/>
<path d="M592.254 103.986C592.958 101.517 596.633 99.8852 597.098 99.6862C597.098 99.6862 597.098 99.6729 597.124 99.6862C597.138 99.6862 597.151 99.6862 597.151 99.6862C597.615 99.8985 601.278 101.531 601.995 103.999C602.751 106.627 600.641 108.763 600.641 108.763H593.634C593.634 108.763 591.525 106.627 592.281 103.999L592.254 103.986Z" fill="#FAD5B4"/>
<path d="M547.957 115.438C550.133 110.13 559.741 106.507 559.833 106.467C559.94 106.507 569.548 110.13 571.711 115.438C573.9 120.773 568.075 127.567 568.075 127.567H551.579C551.579 127.567 545.754 120.773 547.943 115.438H547.957Z" fill="#F6B89A"/>
<path d="M549.961 135.158H570.013V126.267H549.961V135.158Z" fill="#E99978"/>
<path d="M541.879 156.669H576.488V129.186H541.879V156.669Z" fill="#FDF7D3"/>
<path d="M575.598 156.682H587.488V125.152H575.598V156.682Z" fill="#FAD5B4"/>
<path d="M576.871 125.139H586.12V122.79H576.871V125.139Z" fill="#E99978"/>
<path d="M531.941 156.682H543.831V125.152H531.941V156.682Z" fill="#FAD5B4"/>
<path d="M575.016 117.296C575.958 114.456 580.881 112.572 581.492 112.346V112.32C581.492 112.32 581.492 112.32 581.518 112.32C581.532 112.32 581.545 112.32 581.545 112.32V112.346C582.155 112.572 587.065 114.456 588.021 117.296C589.029 120.322 586.203 122.79 586.203 122.79H576.82C576.82 122.79 573.994 120.322 575.003 117.296H575.016Z" fill="#F6B89A"/>
<path d="M533.625 125.139H542.874V122.79H533.625V125.139Z" fill="#E99978"/>
<path d="M531.753 117.296C532.695 114.456 537.619 112.572 538.229 112.346V112.32C538.229 112.32 538.229 112.32 538.256 112.32C538.269 112.32 538.282 112.32 538.282 112.32V112.346C538.893 112.572 543.803 114.456 544.758 117.296C545.767 120.322 542.94 122.79 542.94 122.79H533.558C533.558 122.79 530.731 120.322 531.74 117.296H531.753Z" fill="#F6B89A"/>
<path d="M553.796 136.79C555.681 134.348 559.874 133.751 560.086 133.724C560.299 133.751 564.479 134.348 566.377 136.803C567.465 138.21 567.77 140.93 567.77 140.93V156.629H552.39V140.93C552.39 140.93 552.695 138.21 553.783 136.803L553.796 136.79Z" fill="#E99978"/>
<path d="M584.33 135.875H579.42V132.026C579.42 130.845 580.389 129.876 581.57 129.876H582.18C583.361 129.876 584.33 130.845 584.33 132.026V135.875Z" fill="#E99978"/>
<path d="M584.33 145.907H579.42V142.058C579.42 140.877 580.389 139.908 581.57 139.908H582.18C583.361 139.908 584.33 140.877 584.33 142.058V145.907Z" fill="#E99978"/>
<path d="M540.207 135.875H535.297V132.026C535.297 130.845 536.266 129.876 537.447 129.876H538.057C539.238 129.876 540.207 130.845 540.207 132.026V135.875Z" fill="#E99978"/>
<path d="M540.207 145.907H535.297V142.058C535.297 140.877 536.266 139.908 537.447 139.908H538.057C539.238 139.908 540.207 140.877 540.207 142.058V145.907Z" fill="#E99978"/>
<path d="M559.74 107.874H559.952C560.062 107.874 560.151 107.785 560.151 107.675V101.398C560.151 101.288 560.062 101.199 559.952 101.199H559.74C559.63 101.199 559.541 101.288 559.541 101.398V107.675C559.541 107.785 559.63 107.874 559.74 107.874Z" fill="#F6B89A"/>
<path d="M581.424 115.81H581.636C581.746 115.81 581.835 115.721 581.835 115.611V109.334C581.835 109.224 581.746 109.135 581.636 109.135H581.424C581.314 109.135 581.225 109.224 581.225 109.334V115.611C581.225 115.721 581.314 115.81 581.424 115.81Z" fill="#F6B89A"/>
<path d="M597.056 102.765H597.269C597.379 102.765 597.468 102.676 597.468 102.566V96.2891C597.468 96.1791 597.379 96.09 597.269 96.09H597.056C596.946 96.09 596.857 96.1791 596.857 96.2891V102.566C596.857 102.676 596.946 102.765 597.056 102.765Z" fill="#FAD5B4"/>
<path d="M538.069 114.284H538.282C538.391 114.284 538.48 114.195 538.48 114.085V107.808C538.48 107.698 538.391 107.609 538.282 107.609H538.069C537.959 107.609 537.87 107.698 537.87 107.808V114.085C537.87 114.195 537.959 114.284 538.069 114.284Z" fill="#F6B89A"/>
<path d="M592.822 156.616H601.062V117.084H592.822V156.616Z" fill="#FDF7D3"/>
<path d="M591.695 127.992H602.364V108.75H591.695V127.992Z" fill="#F6B89A"/>
<path d="M594.602 122.219H599.512V115.372C599.512 114.018 598.41 112.917 597.056 112.917C595.703 112.917 594.602 114.018 594.602 115.372V122.219Z" fill="#E99978"/>
<path d="M592.875 135.211H601.062V133.871H592.875V135.211Z" fill="#E99978"/>
<path d="M592.875 145.217H601.062V143.876H592.875V145.217Z" fill="#E99978"/>
<path d="M519.492 103.986C520.195 101.517 523.871 99.8852 524.335 99.6862C524.335 99.6862 524.335 99.6729 524.362 99.6862C524.375 99.6862 524.388 99.6862 524.388 99.6862C524.853 99.8985 528.516 101.531 529.232 103.999C529.989 106.627 527.879 108.763 527.879 108.763H520.872C520.872 108.763 518.762 106.627 519.518 103.999L519.492 103.986Z" fill="#FAD5B4"/>
<path d="M524.296 102.765H524.508C524.618 102.765 524.707 102.676 524.707 102.566V96.2891C524.707 96.1791 524.618 96.09 524.508 96.09H524.296C524.186 96.09 524.097 96.1791 524.097 96.2891V102.566C524.097 102.676 524.186 102.765 524.296 102.765Z" fill="#FAD5B4"/>
<path d="M520.064 156.616H528.305V117.084H520.064V156.616Z" fill="#FDF7D3"/>
<path d="M518.934 127.992H529.604V108.75H518.934V127.992Z" fill="#F6B89A"/>
<path d="M521.841 122.219H526.751V115.372C526.751 114.018 525.649 112.917 524.296 112.917C522.942 112.917 521.841 114.018 521.841 115.372V122.219Z" fill="#E99978"/>
<path d="M520.116 135.211H528.304V133.871H520.116V135.211Z" fill="#E99978"/>
<path d="M520.116 145.217H528.304V143.876H520.116V145.217Z" fill="#E99978"/>
<path d="M831.992 141.952H803.314V125.325C803.314 117.402 809.737 110.993 817.646 110.993C825.569 110.993 831.978 117.416 831.978 125.325V141.952H831.992Z" fill="#FDF7D3"/>
<path d="M833.985 138.86H801.685V143.691H833.985V138.86Z" fill="#FAD5B4"/>
<path d="M816.481 91.6578L814.065 109.161H821.125L818.219 91.6445L816.481 91.6578Z" fill="#FDF7D3"/>
<path d="M822.652 108.591H812.115V112.068H822.652V108.591Z" fill="#FAD5B4"/>
<path d="M813.206 121.736L809.612 118.142L806.018 121.736L809.612 125.33L813.206 121.736Z" fill="#E99978"/>
<path d="M813.205 131.611L809.611 128.017L806.017 131.61L809.611 135.204L813.205 131.611Z" fill="#E99978"/>
<path d="M828.187 120.782L824.593 117.188L820.999 120.782L824.593 124.376L828.187 120.782Z" fill="#E99978"/>
<path d="M828.201 131.703L824.607 128.109L821.014 131.703L824.607 135.297L828.201 131.703Z" fill="#E99978"/>
<path d="M820.99 116.877L817.396 113.284L813.803 116.878L817.396 120.471L820.99 116.877Z" fill="#E99978"/>
<path d="M820.995 127.13L817.401 123.536L813.808 127.13L817.401 130.724L820.995 127.13Z" fill="#E99978"/>
<path d="M799.083 142.218H779.629V130.938C779.629 125.564 783.982 121.211 789.356 121.211C794.731 121.211 799.083 125.564 799.083 130.938V142.218Z" fill="#FDF7D3"/>
<path d="M800.423 140.121H778.514V143.399H800.423V140.121Z" fill="#FAD5B4"/>
<path d="M788.56 108.1L786.914 119.977H791.704L789.74 108.087L788.56 108.1Z" fill="#FDF7D3"/>
<path d="M792.752 119.579H785.6V121.941H792.752V119.579Z" fill="#FAD5B4"/>
<path d="M786.333 128.504L783.894 126.064L781.454 128.503L783.894 130.943L786.333 128.504Z" fill="#E99978"/>
<path d="M786.341 135.197L783.901 132.757L781.462 135.197L783.901 137.636L786.341 135.197Z" fill="#E99978"/>
<path d="M796.432 127.897L793.992 125.457L791.552 127.897L793.992 130.336L796.432 127.897Z" fill="#E99978"/>
<path d="M796.508 135.265L794.068 132.826L791.629 135.265L794.068 137.705L796.508 135.265Z" fill="#E99978"/>
<path d="M791.586 125.23L789.146 122.791L786.707 125.23L789.147 127.67L791.586 125.23Z" fill="#E99978"/>
<path d="M791.591 132.191L789.151 129.751L786.712 132.191L789.151 134.631L791.591 132.191Z" fill="#E99978"/>
<path d="M855.707 142.218H836.253V130.938C836.253 125.564 840.606 121.211 845.98 121.211C851.355 121.211 855.707 125.564 855.707 130.938V142.218Z" fill="#FDF7D3"/>
<path d="M857.046 140.121H835.137V143.399H857.046V140.121Z" fill="#FAD5B4"/>
<path d="M845.172 108.1L843.526 119.977H848.317L846.353 108.087L845.172 108.1Z" fill="#FDF7D3"/>
<path d="M849.364 119.579H842.211V121.941H849.364V119.579Z" fill="#FAD5B4"/>
<path d="M843.031 128.457L840.592 126.018L838.152 128.458L840.592 130.897L843.031 128.457Z" fill="#E99978"/>
<path d="M843.025 135.151L840.585 132.711L838.145 135.151L840.585 137.59L843.025 135.151Z" fill="#E99978"/>
<path d="M853.045 127.9L850.605 125.46L848.166 127.9L850.605 130.339L853.045 127.9Z" fill="#E99978"/>
<path d="M853.122 135.268L850.683 132.829L848.243 135.269L850.683 137.708L853.122 135.268Z" fill="#E99978"/>
<path d="M848.2 125.237L845.761 122.798L843.321 125.238L845.761 127.677L848.2 125.237Z" fill="#E99978"/>
<path d="M848.194 132.185L845.755 129.745L843.315 132.185L845.755 134.625L848.194 132.185Z" fill="#E99978"/>
<path d="M880.655 156.536C880.655 156.536 867.915 144.805 855.627 142.589C843.339 140.373 830.374 144.991 818.576 143.518C806.779 142.045 793.655 142.045 781.128 142.297C768.6 142.549 747.62 156.576 747.62 156.576L880.655 156.549V156.536Z" fill="url(#paint0_linear_86_58181)"/>
<path d="M761.634 120.932L781.499 130.884C781.499 130.884 775.156 117.057 761.634 120.932Z" fill="#88BD43"/>
<path d="M760.599 121.914L768.932 136.339C768.932 136.339 770.658 125.073 760.599 121.914Z" fill="#88BD43"/>
<path d="M760.585 120.693L781.565 113.049C781.565 113.049 767.472 105.406 760.585 120.693Z" fill="#88BD43"/>
<path d="M759.245 120.242L762.244 102.248C762.244 102.248 750.553 108.989 759.245 120.242Z" fill="#88BD43"/>
<path d="M758.634 121.291L740.414 124.741C740.414 124.741 747.978 114.244 758.634 121.291Z" fill="#88BD43"/>
<path d="M759.841 122.339C759.841 122.339 754.931 143.545 755.064 156.669H746.584C746.584 156.669 748.973 134.932 759.841 122.339Z" fill="#9A8477"/>
<path d="M671.328 105.897V108.193H653.758H620.304V105.897H654.608H671.328Z" fill="#868686"/>
<path d="M671.328 108.193L670.041 110.488L668.833 112.638H648.835H642.783H622.785L621.578 110.488L620.304 108.193H653.758H671.328Z" fill="#F6B89A"/>
<path d="M632.779 112.638H626.476V115.067H632.779V112.638Z" fill="#F6B89A"/>
<path d="M631.452 146.08V155.966H627.816V115.067H631.452V121.755V146.08Z" fill="#F6B89A"/>
<path d="M665.146 112.638H658.843V115.067H665.146V112.638Z" fill="#F6B89A"/>
<path d="M663.819 115.067H660.183V155.953H663.819V115.067Z" fill="#F6B89A"/>
<path d="M669.033 118.703V121.755H647.137H631.452H622.601V118.703H669.033Z" fill="#F6B89A"/>
<path d="M633.788 157.346H625.48L626.98 150.963L626.993 150.883H632.275L633.788 157.346Z" fill="#868686"/>
<path d="M666.154 157.346H657.834L659.36 150.883H664.641L664.655 150.963L666.154 157.346Z" fill="#868686"/>
<path d="M673.467 110.488H618.156L620.306 108.193H653.76H671.33L673.467 110.488Z" fill="#868686"/>
<path d="M629.302 140.068H621.632V142.549H629.302V140.068Z" fill="#F6B89A"/>
<path d="M629.302 148.481H621.632V150.963H629.302V148.481Z" fill="#F6B89A"/>
<path d="M627.711 135.569H615.979L621.845 132.517L627.711 135.569Z" fill="#868686"/>
<path d="M623.664 136.193H620.041V155.103H623.664V136.193Z" fill="#F6B89A"/>
<path d="M625.681 135.516H618.011V137.998H625.681V135.516Z" fill="#F6B89A"/>
<path d="M626.011 160H617.69L619.11 153.975L619.216 153.551H624.485L626.011 160Z" fill="#868686"/>
<path d="M670.04 140.068H662.37V142.549H670.04V140.068Z" fill="#F6B89A"/>
<path d="M670.04 148.481H662.37V150.963H670.04V148.481Z" fill="#F6B89A"/>
<path d="M675.695 135.569H663.964L669.83 132.517L675.695 135.569Z" fill="#868686"/>
<path d="M671.647 153.537V155.103H668.024V136.193H671.634V137.998L671.647 153.537Z" fill="#F6B89A"/>
<path d="M673.663 135.516H665.993V137.998H673.663V135.516Z" fill="#F6B89A"/>
<path d="M673.983 160H665.676L667.189 153.537H672.47L673.983 160Z" fill="#868686"/>
<path d="M648.85 118.424V120.229H642.785V112.638H648.836L648.85 118.424Z" fill="#868686"/>
<g style="mix-blend-mode:soft-light" opacity="0.6">
<path d="M624.485 153.55L626.011 160H617.69L619.11 153.975C619.389 153.829 619.668 153.683 619.946 153.55C619.973 153.537 619.999 153.524 620.039 153.511C621.273 152.874 622.494 152.21 623.662 151.533V153.564H624.485V153.55Z" fill="#868686"/>
</g>
<g style="mix-blend-mode:soft-light" opacity="0.6">
<path d="M632.275 150.883L633.801 157.346H625.481L626.98 150.963H624.618C625.759 150.286 626.847 149.596 627.829 148.933C628.055 148.787 628.267 148.627 628.48 148.481C629.661 147.645 630.669 146.836 631.466 146.079V150.897H632.288L632.275 150.883Z" fill="#868686"/>
</g>
<g style="mix-blend-mode:soft-light" opacity="0.6">
<path d="M672.471 153.537L673.984 160H665.664L667.19 153.537H668.012V150.963H664.642L666.141 157.346H657.821L659.347 150.897H660.17V121.768H647.125C647.39 121.264 647.656 120.746 647.908 120.242C648.173 119.738 648.426 119.22 648.691 118.716C648.731 118.623 648.784 118.53 648.824 118.437V118.716H660.157V115.08H658.816V112.652H651.65C651.995 111.935 652.34 111.218 652.672 110.502C653.031 109.732 653.389 108.976 653.734 108.206C653.84 107.98 653.946 107.755 654.052 107.529C654.238 107.118 654.411 106.547 654.596 105.924H671.303V108.219L673.44 110.515H670.016L668.809 112.665H665.12V115.093H663.779V118.729H668.994V121.782H663.779V140.095H667.986V138.024H665.955V135.596H663.925L669.791 132.53L675.656 135.596H673.626V138.024H671.595V153.564H672.432L672.471 153.537Z" fill="#868686"/>
</g>
<path d="M436.299 110.143H442.602C445.747 110.143 448.309 112.704 448.309 115.85V131.973C448.309 133.114 447.38 134.043 446.238 134.043H432.663C431.522 134.043 430.593 133.114 430.593 131.973V115.85C430.593 112.704 433.154 110.143 436.299 110.143Z" fill="#868686"/>
<path d="M429.212 122.803H430.592V131.455H429.212C428.495 131.455 427.925 130.871 427.925 130.168V124.104C427.925 123.387 428.509 122.816 429.212 122.816V122.803Z" fill="#4C4B4B"/>
<path d="M448.309 122.803H449.688C450.405 122.803 450.976 123.387 450.976 124.09V130.155C450.976 130.872 450.392 131.442 449.688 131.442H448.309V122.79V122.803Z" fill="#4C4B4B"/>
<path d="M446.677 116.699H432.358V119.247H446.677V116.699Z" fill="#656666"/>
<path d="M442.098 131.455H436.922C436.219 131.455 435.648 130.885 435.648 130.181C435.648 129.478 436.219 128.907 436.922 128.907H442.098C442.801 128.907 443.372 129.478 443.372 130.181C443.372 130.885 442.801 131.455 442.098 131.455Z" fill="#656666"/>
<path d="M441.249 119.247H437.772V127.474H441.249V119.247Z" fill="#656666"/>
<path d="M437.772 122.339H435.45C433.738 122.339 432.358 120.959 432.358 119.247H437.772V122.339Z" fill="#4C4B4B"/>
<path d="M441.249 122.339H443.571C445.283 122.339 446.663 120.959 446.663 119.247H441.249V122.339Z" fill="#4C4B4B"/>
<path d="M435.729 134.03H443.174C447.155 134.03 450.393 137.268 450.393 141.249V156.682H428.523V141.249C428.523 137.268 431.761 134.03 435.742 134.03H435.729Z" fill="#656666"/>
<path d="M411.385 94.3829L420.063 94.4117C424.389 94.4261 427.894 97.9544 427.88 102.28L427.804 125.225C427.8 126.366 426.868 127.292 425.727 127.288L405.503 127.221C404.362 127.217 403.436 126.285 403.44 125.144L403.516 102.2C403.53 97.8736 407.058 94.3686 411.385 94.3829Z" fill="#656666"/>
<path d="M401.639 111.602L403.537 111.608L403.498 123.498L401.6 123.492C400.618 123.489 399.824 122.69 399.828 121.708L399.855 113.361C399.859 112.379 400.657 111.585 401.639 111.589L401.639 111.602Z" fill="#4C4B4B"/>
<path d="M427.848 111.901L429.745 111.908C430.727 111.911 431.521 112.71 431.518 113.692L431.49 122.039C431.487 123.021 430.688 123.814 429.706 123.811L427.808 123.805L427.848 111.915L427.848 111.901Z" fill="#4C4B4B"/>
<path d="M425.635 103.414L405.941 103.349L405.93 106.852L425.623 106.918L425.635 103.414Z" fill="#868686"/>
<path d="M419.288 123.692L412.162 123.666C411.193 123.666 410.41 122.869 410.41 121.914C410.41 120.945 411.206 120.162 412.162 120.162L419.288 120.189C420.257 120.189 421.04 120.985 421.04 121.94C421.04 122.909 420.243 123.692 419.288 123.692Z" fill="#868686"/>
<path d="M418.149 106.932L413.372 106.917L413.335 118.236L418.112 118.252L418.149 106.932Z" fill="#868686"/>
<path d="M413.37 111.125H410.171C407.822 111.112 405.925 109.201 405.925 106.839L413.383 106.865V111.125H413.37Z" fill="#4C4B4B"/>
<path d="M418.161 111.138H421.359C423.708 111.152 425.619 109.254 425.632 106.905L418.174 106.879V111.138H418.161Z" fill="#4C4B4B"/>
<path d="M410.729 127.211L420.337 127.243C425.472 127.26 429.625 131.441 429.608 136.576L429.542 156.482L401.33 156.388L401.396 136.483C401.413 131.347 405.594 127.194 410.729 127.211Z" fill="#4C4B4B"/>
<path d="M397.896 156.669H373.771L373.784 81.0682L397.909 81.0416L397.896 156.669Z" fill="#F6B89A"/>
<path d="M386.748 45.862L385.673 41.0051L384.598 45.862L377.379 48.5294V52.0592H394.007V48.5294L386.748 45.862Z" fill="#F6B89A"/>
<path d="M399.832 52.2849L371.858 52.3113L374.34 49.9094H397.324L399.832 52.2849Z" fill="#F6B89A"/>
<path d="M399.819 86.7743H371.858V52.2982L399.832 52.2849L399.819 86.7743Z" fill="#F6B89A"/>
<path d="M402.527 55.3768H369.152V83.2577H402.527V55.3768Z" fill="#E99978"/>
<path d="M397.974 69.2841C397.974 76.0122 392.52 81.4795 385.778 81.4795C379.037 81.4795 373.583 76.0254 373.583 69.2841C373.583 62.5428 379.037 57.0887 385.778 57.0887C392.52 57.0887 397.974 62.5428 397.974 69.2841Z" fill="#F0F0F0"/>
<path d="M387.37 69.2841C387.37 70.16 386.667 70.8633 385.791 70.8633C384.915 70.8633 384.212 70.16 384.212 69.2841C384.212 68.4083 384.915 67.705 385.791 67.705C386.667 67.705 387.37 68.4083 387.37 69.2841Z" fill="#F6B89A"/>
<path d="M386.191 57.885H385.515V59.6633H386.191V57.885Z" fill="#F6B89A"/>
<path d="M386.191 79.1439H385.515V80.9221H386.191V79.1439Z" fill="#F6B89A"/>
<path d="M397.364 69.0586H395.586V69.7354H397.364V69.0586Z" fill="#F6B89A"/>
<path d="M376.105 69.0586H374.327V69.7354H376.105V69.0586Z" fill="#F6B89A"/>
<path d="M393.866 61.2249L392.607 62.4808L393.085 62.9599L394.344 61.704L393.866 61.2249Z" fill="#F6B89A"/>
<path d="M378.669 75.9931L377.409 77.2482L377.887 77.7277L379.147 76.4726L378.669 75.9931Z" fill="#F6B89A"/>
<path d="M392.903 75.9412L392.425 76.4202L393.683 77.6765L394.161 77.1975L392.903 75.9412Z" fill="#F6B89A"/>
<path d="M377.936 61.0129L377.457 61.4915L378.714 62.7488L379.193 62.2702L377.936 61.0129Z" fill="#F6B89A"/>
<path d="M379.037 88.9242H376.675V94.6304H379.037V88.9242Z" fill="#E99978"/>
<path d="M384.399 88.9242H382.037V94.6304H384.399V88.9242Z" fill="#E99978"/>
<path d="M389.748 88.9242H387.386V94.6304H389.748V88.9242Z" fill="#E99978"/>
<path d="M395.109 88.9242H392.747V94.6304H395.109V88.9242Z" fill="#E99978"/>
<path d="M379.037 100.217H376.675V105.923H379.037V100.217Z" fill="#E99978"/>
<path d="M384.399 100.217H382.037V105.923H384.399V100.217Z" fill="#E99978"/>
<path d="M389.748 100.217H387.386V105.923H389.748V100.217Z" fill="#E99978"/>
<path d="M395.109 100.217H392.747V105.923H395.109V100.217Z" fill="#E99978"/>
<path d="M379.037 111.524H376.675V117.23H379.037V111.524Z" fill="#E99978"/>
<path d="M384.399 111.524H382.037V117.23H384.399V111.524Z" fill="#E99978"/>
<path d="M389.748 111.524H387.386V117.23H389.748V111.524Z" fill="#E99978"/>
<path d="M395.109 111.524H392.747V117.23H395.109V111.524Z" fill="#E99978"/>
<path d="M379.037 122.816H376.675V128.523H379.037V122.816Z" fill="#E99978"/>
<path d="M384.399 122.816H382.037V128.523H384.399V122.816Z" fill="#E99978"/>
<path d="M389.748 122.816H387.386V128.523H389.748V122.816Z" fill="#E99978"/>
<path d="M395.109 122.816H392.747V128.523H395.109V122.816Z" fill="#E99978"/>
<path d="M379.037 134.123H376.675V139.829H379.037V134.123Z" fill="#E99978"/>
<path d="M384.399 134.123H382.037V139.829H384.399V134.123Z" fill="#E99978"/>
<path d="M389.748 134.123H387.386V139.829H389.748V134.123Z" fill="#E99978"/>
<path d="M395.109 134.123H392.747V139.829H395.109V134.123Z" fill="#E99978"/>
<path d="M379.037 145.416H376.675V151.122H379.037V145.416Z" fill="#E99978"/>
<path d="M384.399 145.416H382.037V151.122H384.399V145.416Z" fill="#E99978"/>
<path d="M389.748 145.416H387.386V151.122H389.748V145.416Z" fill="#E99978"/>
<path d="M395.109 145.416H392.747V151.122H395.109V145.416Z" fill="#E99978"/>
<path d="M395.096 96.5812H376.77V98.2797H395.096V96.5812Z" fill="#E99978"/>
<path d="M395.096 107.861H376.77V109.559H395.096V107.861Z" fill="#E99978"/>
<path d="M395.096 119.154H376.77V120.852H395.096V119.154Z" fill="#E99978"/>
<path d="M395.096 130.46H376.77V132.159H395.096V130.46Z" fill="#E99978"/>
<path d="M395.096 141.859H376.77V143.558H395.096V141.859Z" fill="#E99978"/>
<path d="M504.735 59.1193V62.981C498.246 66.471 467.233 86.4693 467.233 149.954H504.735V154.679H507.111V59.1325H504.735V59.1193Z" fill="#F0F0F0"/>
<path d="M481.339 149.954C482.082 111.524 491.544 85.5404 491.544 85.5404H480.158C471.983 98.9567 464.817 119.419 464.817 149.954H481.339Z" fill="#33ACC7"/>
<path d="M515.815 147.605H459.031V156.682H515.815V147.605Z" fill="#F0F0F0"/>
<path d="M490.164 138.263H507.11V134.508H490.509C490.39 135.742 490.27 137.003 490.164 138.263Z" fill="#33ACC7"/>
<path d="M490.842 131.27H507.111V127.501H491.267C491.121 128.735 490.974 129.996 490.842 131.27Z" fill="#33ACC7"/>
<path d="M491.677 124.276H507.11V120.507H492.194C492.022 121.742 491.849 122.989 491.677 124.276Z" fill="#33ACC7"/>
<path d="M489.647 145.27H507.111V141.514H489.913C489.82 142.749 489.727 144.009 489.647 145.27Z" fill="#33ACC7"/>
<path d="M499.347 85.5271C499.029 86.6816 498.697 87.9422 498.339 89.2958H507.097V85.5271H499.334H499.347Z" fill="#33ACC7"/>
<path d="M496.639 96.2892H507.096V92.5205H497.515C497.223 93.7148 496.931 94.9755 496.626 96.2892H496.639Z" fill="#33ACC7"/>
<path d="M493.812 110.276H507.096V106.521H494.503C494.264 107.741 494.038 109.002 493.812 110.276Z" fill="#33ACC7"/>
<path d="M492.658 117.283H507.096V113.527H493.255C493.056 114.761 492.857 116.009 492.658 117.283Z" fill="#33ACC7"/>
<path d="M495.14 103.283H507.109V99.5272H495.923C495.657 100.735 495.405 101.996 495.14 103.283Z" fill="#33ACC7"/>
<path d="M482.519 99.62H470.735C470.271 100.907 469.833 102.221 469.408 103.588H481.63C481.935 102.194 482.227 100.867 482.532 99.62H482.519Z" fill="#78CADB"/>
<path d="M480.727 107.98H468.134C467.789 109.267 467.457 110.594 467.139 111.948H479.997C480.236 110.581 480.489 109.254 480.741 107.98H480.727Z" fill="#78CADB"/>
<path d="M484.711 91.2598H474.161C473.564 92.5337 472.993 93.8607 472.423 95.2276H483.61C483.994 93.7413 484.366 92.4276 484.698 91.2598H484.711Z" fill="#78CADB"/>
<path d="M479.253 116.327H466.182C465.93 117.615 465.691 118.942 465.466 120.295H478.656C478.842 118.942 479.041 117.615 479.253 116.327Z" fill="#78CADB"/>
<path d="M476.615 141.395H463.451C463.411 142.695 463.384 144.022 463.371 145.363H476.429C476.482 144.022 476.535 142.709 476.615 141.395Z" fill="#78CADB"/>
<path d="M477.212 133.048H463.915C463.809 134.348 463.729 135.675 463.649 137.016H476.893C476.986 135.675 477.092 134.348 477.212 133.048Z" fill="#78CADB"/>
<path d="M478.087 124.688H464.803C464.631 125.988 464.471 127.302 464.325 128.655H477.635C477.781 127.302 477.927 125.988 478.087 124.688Z" fill="#78CADB"/>
<path d="M1194.8 22.5994C1194.8 30.4554 1187.61 36.5996 1187.61 36.5996H1183.92H1180.35C1180.35 36.5996 1173.16 30.4422 1173.16 22.5994C1173.16 15.5927 1176.77 12.7396 1179.82 11.5984C1182.07 10.7491 1184.03 10.8154 1184.03 10.8154C1184.03 10.8154 1184.18 10.8287 1184.3 10.8287C1184.97 10.8552 1186.39 10.9879 1187.97 11.5586C1191.06 12.6733 1194.77 15.4998 1194.77 22.6127L1194.8 22.5994Z" fill="#ED7452"/>
<path d="M1184.32 10.8153V36.6128H1183.92H1180.35C1180.35 36.6128 1173.16 30.4553 1173.16 22.6126C1173.16 15.6059 1176.77 12.7528 1179.82 11.6115C1182.07 10.7622 1184.03 10.8286 1184.03 10.8286C1184.03 10.8286 1184.18 10.8419 1184.3 10.8419L1184.32 10.8153Z" fill="#E99978"/>
<path d="M1186.4 36.5995H1183.93H1181.45C1177.05 23.9662 1178.29 15.8581 1179.83 11.5851C1182.09 10.7358 1184.04 10.8021 1184.04 10.8021C1184.48 10.8154 1186.12 10.8685 1187.98 11.5452C1189.53 15.8183 1190.81 23.9264 1186.39 36.6128L1186.4 36.5995Z" fill="#FAD5B4"/>
<path d="M1186.4 36.5995H1184.05V10.8021C1184.49 10.8021 1186.14 10.8552 1187.99 11.5453C1189.55 15.8183 1190.82 23.9264 1186.4 36.6128V36.5995Z" fill="#F8C6A1"/>
<path d="M1181.07 41.0848H1186.91V44.2829C1186.91 45.4375 1185.96 46.3664 1184.82 46.3664H1183.16C1182.01 46.3664 1181.08 45.4242 1181.08 44.2829V41.0848H1181.07Z" fill="#716658"/>
<path d="M1187.09 40.7133H1180.95V42.2527H1187.09V40.7133Z" fill="#9A8477"/>
<path d="M1180.95 40.7134L1180.35 36.5996H1181.05L1181.64 40.7134H1180.95Z" fill="#C0B39A"/>
<path d="M1187.03 40.7134L1187.61 36.5996H1186.91L1186.32 40.7134H1187.03Z" fill="#C0B39A"/>
<path d="M1213.29 50.6792C1213.29 52.5769 1211.75 54.103 1209.86 54.103C1207.98 54.103 1206.43 52.5636 1206.43 50.6792C1206.43 48.7948 1207.97 47.2422 1209.86 47.2422C1211.76 47.2422 1213.29 48.7816 1213.29 50.6792Z" fill="#33ACC7"/>
<path d="M1213.73 49.0204H1205.94V54.3948H1213.73V49.0204Z" fill="#33ACC7"/>
<path d="M1214.51 49.8164H1205.15V51.6212H1214.51V49.8164Z" fill="#33ACC7"/>
<path d="M1193.41 53.466C1194.18 55.1911 1193.41 57.2215 1191.67 57.9912C1189.95 58.7608 1187.91 57.9912 1187.14 56.2528C1186.38 54.5276 1187.14 52.4972 1188.88 51.7276C1190.61 50.9579 1192.64 51.7275 1193.41 53.466Z" fill="#33ACC7"/>
<path d="M1193.07 51.4758L1185.95 54.644L1188.14 59.5538L1195.25 56.3856L1193.07 51.4758Z" fill="#33ACC7"/>
<path d="M1194.12 52.0316L1185.57 55.8369L1186.31 57.4978L1194.86 53.6925L1194.12 52.0316Z" fill="#33ACC7"/>
<path d="M1176.37 64.0954C1177.78 65.3694 1177.9 67.5324 1176.62 68.9391C1175.35 70.3457 1173.19 70.4652 1171.78 69.1912C1170.37 67.9306 1170.25 65.7542 1171.53 64.3475C1172.8 62.9409 1174.96 62.8215 1176.37 64.0954Z" fill="#33ACC7"/>
<path d="M1175.39 62.6068L1170.18 68.3958L1174.18 71.992L1179.39 66.2031L1175.39 62.6068Z" fill="#33ACC7"/>
<path d="M1176.42 62.4605L1170.16 69.4131L1171.5 70.6207L1177.76 63.6681L1176.42 62.4605Z" fill="#33ACC7"/>
<path d="M1165.12 80.7232C1166.92 81.307 1167.9 83.2445 1167.32 85.0493C1166.74 86.854 1164.8 87.836 1162.99 87.2521C1161.19 86.6682 1160.21 84.7307 1160.79 82.926C1161.37 81.1212 1163.31 80.1393 1165.12 80.7232Z" fill="#33ACC7"/>
<path d="M1163.77 79.8479L1161.36 87.2557L1166.47 88.9174L1168.88 81.5096L1163.77 79.8479Z" fill="#33ACC7"/>
<path d="M1164.81 79.3896L1161.92 88.2874L1163.64 88.845L1166.53 79.9473L1164.81 79.3896Z" fill="#33ACC7"/>
<path d="M1161.61 100.496C1163.5 100.297 1165.18 101.664 1165.38 103.548C1165.58 105.432 1164.21 107.118 1162.33 107.317C1160.44 107.516 1158.76 106.149 1158.56 104.265C1158.36 102.38 1159.73 100.695 1161.61 100.496Z" fill="#33ACC7"/>
<path d="M1165.25 99.827L1159.9 100.387L1160.71 108.134L1166.06 107.574L1165.25 99.827Z" fill="#33ACC7"/>
<path d="M1162.45 99.053L1160.65 99.2419L1161.63 108.546L1163.43 108.357L1162.45 99.053Z" fill="#33ACC7"/>
<path d="M1166.46 119.99C1168.1 119.048 1170.2 119.605 1171.14 121.25C1172.08 122.896 1171.53 124.993 1169.88 125.935C1168.24 126.89 1166.14 126.32 1165.2 124.687C1164.25 123.042 1164.81 120.945 1166.46 120.003V119.99Z" fill="#33ACC7"/>
<path d="M1169.4 117.602L1164.75 120.289L1168.64 127.035L1173.3 124.348L1169.4 117.602Z" fill="#33ACC7"/>
<path d="M1166.59 118.268L1165.03 119.17L1169.71 127.272L1171.27 126.369L1166.59 118.268Z" fill="#33ACC7"/>
<path d="M1178.81 135.821C1179.92 134.295 1182.07 133.95 1183.6 135.065C1185.13 136.18 1185.47 138.33 1184.36 139.856C1183.24 141.395 1181.11 141.727 1179.57 140.612C1178.03 139.497 1177.7 137.348 1178.81 135.821Z" fill="#33ACC7"/>
<path d="M1180.51 132.413L1177.35 136.76L1183.65 141.34L1186.81 136.993L1180.51 132.413Z" fill="#33ACC7"/>
<path d="M1178.51 134.489L1177.44 135.96L1185.01 141.459L1186.08 139.988L1178.51 134.489Z" fill="#33ACC7"/>
<path d="M1196.53 145.269C1196.92 143.412 1198.74 142.23 1200.6 142.629C1202.46 143.027 1203.64 144.845 1203.24 146.689C1202.84 148.547 1201.03 149.728 1199.18 149.33C1197.32 148.932 1196.14 147.114 1196.54 145.256L1196.53 145.269Z" fill="#33ACC7"/>
<path d="M1197.12 141.65L1196 146.906L1203.62 148.529L1204.74 143.272L1197.12 141.65Z" fill="#33ACC7"/>
<path d="M1195.81 144.211L1195.44 145.976L1204.59 147.923L1204.96 146.158L1195.81 144.211Z" fill="#33ACC7"/>
<path d="M1216.57 146.69C1216.17 144.832 1217.36 143.014 1219.21 142.616C1221.07 142.218 1222.88 143.399 1223.27 145.257C1223.67 147.114 1222.49 148.932 1220.63 149.331C1218.77 149.729 1216.95 148.548 1216.55 146.69H1216.57Z" fill="#33ACC7"/>
<path d="M1222.99 141.272L1215.37 142.891L1216.48 148.148L1224.1 146.53L1222.99 141.272Z" fill="#33ACC7"/>
<path d="M1224.32 144.053L1215.17 145.998L1215.54 147.777L1224.7 145.831L1224.32 144.053Z" fill="#33ACC7"/>
<path d="M1235.44 139.829C1234.32 138.303 1234.67 136.153 1236.19 135.039C1237.72 133.924 1239.87 134.269 1240.98 135.795C1242.1 137.321 1241.77 139.471 1240.23 140.585C1238.69 141.7 1236.55 141.355 1235.44 139.829Z" fill="#33ACC7"/>
<path d="M1239.3 132.71L1232.99 137.286L1236.15 141.635L1242.45 137.059L1239.3 132.71Z" fill="#33ACC7"/>
<path d="M1241.45 134.26L1233.89 139.759L1234.95 141.23L1242.52 135.731L1241.45 134.26Z" fill="#33ACC7"/>
<path d="M1249.9 125.895C1248.27 124.953 1247.7 122.856 1248.64 121.211C1249.58 119.565 1251.68 119.008 1253.32 119.963C1254.97 120.906 1255.53 123.002 1254.58 124.648C1253.63 126.293 1251.53 126.851 1249.9 125.908V125.895Z" fill="#33ACC7"/>
<path d="M1250.49 117.8L1246.6 124.546L1251.25 127.234L1255.15 120.488L1250.49 117.8Z" fill="#33ACC7"/>
<path d="M1253.35 118.555L1248.67 126.657L1250.23 127.56L1254.91 119.458L1253.35 118.555Z" fill="#33ACC7"/>
<path d="M1257.44 107.29C1255.55 107.091 1254.19 105.406 1254.39 103.521C1254.58 101.637 1256.27 100.27 1258.15 100.469C1260.04 100.668 1261.41 102.354 1261.21 104.238C1261.01 106.122 1259.32 107.489 1257.44 107.29Z" fill="#33ACC7"/>
<path d="M1254.29 99.5029L1253.47 107.25L1258.82 107.812L1259.63 100.065L1254.29 99.5029Z" fill="#33ACC7"/>
<path d="M1257.63 99.1917L1256.65 108.496L1258.45 108.685L1259.43 99.3804L1257.63 99.1917Z" fill="#33ACC7"/>
<path d="M1256.75 87.2124C1254.94 87.7963 1253.01 86.8143 1252.42 85.0095C1251.84 83.2047 1252.82 81.2673 1254.63 80.6967C1256.43 80.1128 1258.37 81.0948 1258.95 82.8996C1259.54 84.7043 1258.55 86.6417 1256.75 87.2256V87.2124Z" fill="#33ACC7"/>
<path d="M1256.05 79.6632L1250.94 81.324L1253.34 88.7324L1258.46 87.0715L1256.05 79.6632Z" fill="#33ACC7"/>
<path d="M1255.05 79.0931L1253.33 79.651L1256.22 88.5482L1257.94 87.9903L1255.05 79.0931Z" fill="#33ACC7"/>
<path d="M1247.96 69.1514C1246.56 70.412 1244.39 70.3059 1243.12 68.8992C1241.86 67.4926 1241.96 65.3163 1243.37 64.0556C1244.78 62.7817 1246.95 62.9011 1248.21 64.3077C1249.49 65.7144 1249.37 67.8907 1247.96 69.1514Z" fill="#33ACC7"/>
<path d="M1244.3 62.6264L1240.3 66.2224L1245.51 72.0112L1249.51 68.4152L1244.3 62.6264Z" fill="#33ACC7"/>
<path d="M1243.23 62.6641L1241.89 63.8718L1248.15 70.8244L1249.49 69.6167L1243.23 62.6641Z" fill="#33ACC7"/>
<path d="M1232.6 56.2393C1231.83 57.9645 1229.8 58.7474 1228.07 57.9777C1226.35 57.2081 1225.56 55.1777 1226.33 53.4526C1227.1 51.7142 1229.13 50.9312 1230.86 51.7142C1232.6 52.4839 1233.37 54.5142 1232.6 56.2393Z" fill="#33ACC7"/>
<path d="M1226.47 51.6807L1224.29 56.5909L1231.4 59.758L1233.59 54.8478L1226.47 51.6807Z" fill="#33ACC7"/>
<path d="M1225.43 52.097L1224.7 53.7457L1233.25 57.5495L1233.98 55.9008L1225.43 52.097Z" fill="#33ACC7"/>
<path d="M1209.84 122.299C1196.93 122.299 1186.43 111.802 1186.43 98.89C1186.43 85.978 1196.93 75.4812 1209.84 75.4812C1222.75 75.4812 1233.25 85.978 1233.25 98.89C1233.25 111.802 1222.75 122.299 1209.84 122.299ZM1209.84 77.7239C1198.16 77.7239 1188.67 87.2254 1188.67 98.89C1188.67 110.555 1198.17 120.056 1209.84 120.056C1221.5 120.056 1231 110.555 1231 98.89C1231 87.2254 1221.5 77.7239 1209.84 77.7239Z" fill="#77C0CB"/>
<path d="M1255.47 99.4342C1255.38 99.4342 1255.3 99.3546 1255.3 99.2617V98.4788C1255.3 98.3859 1255.38 98.3063 1255.47 98.3063C1255.57 98.3063 1255.65 98.3859 1255.65 98.4788V99.2617C1255.65 99.3546 1255.57 99.4342 1255.47 99.4342ZM1164.39 99.2617V98.4788C1164.39 98.3859 1164.31 98.3063 1164.21 98.3063C1164.12 98.3063 1164.04 98.3859 1164.04 98.4788V99.2617C1164.04 99.3546 1164.12 99.4342 1164.21 99.4342C1164.31 99.4342 1164.39 99.3546 1164.39 99.2617ZM1212.45 59.5571C1212.45 59.5571 1212.49 59.4376 1212.45 59.3845L1209.9 53.9968C1209.85 53.8774 1209.65 53.8774 1209.58 53.9968L1207.04 59.3845C1207.04 59.3845 1207.01 59.504 1207.04 59.5571C1207.06 59.6101 1207.13 59.6367 1207.18 59.6367H1212.27C1212.27 59.6367 1212.38 59.6101 1212.41 59.5571H1212.45ZM1209.77 54.4878L1212.04 59.2916H1207.5L1209.77 54.4878ZM1201.78 60.3665L1206.81 59.6632C1206.81 59.6632 1206.92 59.6234 1206.94 59.5571C1206.97 59.504 1206.96 59.4376 1206.94 59.3845L1203.68 54.4082C1203.68 54.4082 1203.57 54.3286 1203.51 54.3286C1203.44 54.3286 1203.39 54.3817 1203.36 54.448L1201.6 60.1277C1201.6 60.1277 1201.6 60.2471 1201.64 60.2869C1201.68 60.3267 1201.72 60.3532 1201.77 60.3532C1201.77 60.3532 1201.78 60.3532 1201.79 60.3532L1201.78 60.3665ZM1206.49 59.3448L1202.01 59.9817L1203.59 54.9125L1206.51 59.358L1206.49 59.3448ZM1196.49 61.8395L1201.37 60.4329C1201.37 60.4329 1201.48 60.3665 1201.49 60.3135C1201.5 60.2604 1201.49 60.194 1201.45 60.1542L1197.52 55.6822C1197.52 55.6822 1197.42 55.6157 1197.35 55.629C1197.28 55.6423 1197.24 55.6954 1197.23 55.7618L1196.27 61.6405C1196.27 61.6405 1196.27 61.7599 1196.33 61.7997C1196.35 61.8263 1196.41 61.8395 1196.45 61.8395C1196.46 61.8395 1196.47 61.8395 1196.5 61.8395H1196.49ZM1201.01 60.1807L1196.66 61.4281L1197.51 56.1864L1201.01 60.1807ZM1191.44 64.0424L1196.09 61.9723C1196.09 61.9723 1196.18 61.8926 1196.19 61.8395C1196.19 61.7864 1196.19 61.7201 1196.14 61.6803L1191.63 57.7921C1191.63 57.7921 1191.51 57.7391 1191.44 57.7656C1191.38 57.7921 1191.34 57.8585 1191.34 57.9248L1191.21 63.8832C1191.21 63.8832 1191.23 64.0026 1191.28 64.0291C1191.31 64.0557 1191.35 64.0557 1191.38 64.0557C1191.4 64.0557 1191.43 64.0557 1191.44 64.0424ZM1195.7 61.7732L1191.56 63.6178L1191.68 58.3096L1195.7 61.7732ZM1186.76 66.922L1191.07 64.2282C1191.07 64.2282 1191.15 64.1353 1191.15 64.0822C1191.15 64.0158 1191.13 63.9628 1191.07 63.9362L1186.07 60.7116C1186.07 60.7116 1185.94 60.6717 1185.88 60.7116C1185.83 60.7514 1185.79 60.8177 1185.8 60.8841L1186.51 66.8027C1186.51 66.8027 1186.55 66.9088 1186.6 66.9353C1186.63 66.9353 1186.65 66.9486 1186.68 66.9486C1186.71 66.9486 1186.75 66.9486 1186.77 66.922H1186.76ZM1190.66 64.0822L1186.81 66.4841L1186.19 61.2158L1190.66 64.0822ZM1182.53 70.4254L1186.43 67.1609C1186.43 67.1609 1186.49 67.068 1186.48 67.0017C1186.48 66.9353 1186.44 66.8955 1186.37 66.869L1180.96 64.3742C1180.96 64.3742 1180.83 64.3609 1180.77 64.4007C1180.72 64.4405 1180.7 64.5069 1180.72 64.5733L1182.23 70.3325C1182.23 70.3325 1182.3 70.4387 1182.35 70.452C1182.37 70.452 1182.39 70.452 1182.41 70.452C1182.45 70.452 1182.49 70.4519 1182.51 70.4121L1182.53 70.4254ZM1185.99 67.068L1182.51 69.9875L1181.16 64.8519L1185.99 67.068ZM1178.82 74.4861L1182.22 70.7041C1182.22 70.7041 1182.27 70.598 1182.26 70.5449C1182.25 70.4918 1182.19 70.4387 1182.14 70.4254L1176.44 68.7136C1176.37 68.7003 1176.3 68.7135 1176.25 68.7666C1176.21 68.8197 1176.2 68.8861 1176.22 68.9524L1178.52 74.4463C1178.52 74.4463 1178.59 74.5392 1178.65 74.5524H1178.68C1178.73 74.5524 1178.77 74.5259 1178.81 74.4994L1178.82 74.4861ZM1181.78 70.6775L1178.74 74.0482L1176.7 69.1514L1181.78 70.6775ZM1175.72 79.0245L1178.56 74.8046C1178.56 74.8046 1178.6 74.6984 1178.57 74.6321C1178.55 74.579 1178.49 74.5392 1178.44 74.526L1172.56 73.6235C1172.56 73.6235 1172.43 73.6368 1172.39 73.7031C1172.35 73.7562 1172.35 73.8359 1172.39 73.8889L1175.43 79.0112C1175.43 79.0112 1175.51 79.0909 1175.57 79.0909C1175.57 79.0909 1175.68 79.0643 1175.72 79.0112V79.0245ZM1178.12 74.8444L1175.59 78.5999L1172.87 74.0349L1178.12 74.8444ZM1173.14 84.054C1173.14 84.054 1173.25 84.0142 1173.28 83.9611L1175.51 79.3961C1175.51 79.3961 1175.53 79.2767 1175.51 79.2236C1175.48 79.1705 1175.43 79.144 1175.36 79.144L1169.4 79.0644C1169.34 79.0644 1169.27 79.1042 1169.24 79.1573C1169.22 79.2236 1169.22 79.2899 1169.27 79.343L1173 83.9876C1173 83.9876 1173.08 84.054 1173.13 84.054H1173.14ZM1175.08 79.4757L1173.09 83.5497L1169.77 79.4094L1175.08 79.4757ZM1171.42 89.2825C1171.42 89.2825 1171.53 89.2294 1171.54 89.163L1173.1 84.3326C1173.1 84.3326 1173.1 84.2132 1173.08 84.1734C1173.04 84.1336 1172.97 84.1071 1172.92 84.1071L1167.01 84.8635C1166.95 84.8635 1166.89 84.9165 1166.87 84.9829C1166.84 85.0492 1166.87 85.1156 1166.91 85.1687L1171.25 89.2559C1171.25 89.2559 1171.33 89.309 1171.37 89.309C1171.38 89.309 1171.39 89.309 1171.41 89.309L1171.42 89.2825ZM1172.71 84.4787L1171.3 88.7915L1167.44 85.1554L1172.71 84.4787ZM1170.45 94.71C1170.45 94.71 1170.54 94.6437 1170.56 94.5773L1171.45 89.5744C1171.45 89.5744 1171.45 89.455 1171.39 89.4152C1171.35 89.3754 1171.29 89.3621 1171.23 89.3753L1165.49 90.9413C1165.49 90.9413 1165.37 91.0076 1165.37 91.074C1165.37 91.1403 1165.38 91.2067 1165.43 91.2465L1170.29 94.6834C1170.29 94.6834 1170.36 94.7233 1170.4 94.7233C1170.42 94.7233 1170.44 94.7233 1170.46 94.71H1170.45ZM1171.05 89.7735L1170.26 94.2456L1165.93 91.1801L1171.05 89.7735ZM1170.24 100.204C1170.24 100.204 1170.32 100.124 1170.32 100.058L1170.49 94.9754C1170.49 94.9754 1170.46 94.856 1170.41 94.8295C1170.36 94.7897 1170.29 94.7896 1170.24 94.8162L1164.77 97.1651C1164.77 97.1651 1164.66 97.2447 1164.66 97.3243C1164.66 97.3906 1164.7 97.457 1164.76 97.4835L1170.05 100.217C1170.05 100.217 1170.11 100.23 1170.13 100.23C1170.16 100.23 1170.2 100.23 1170.22 100.204H1170.24ZM1170.15 95.2408L1169.99 99.7793L1165.26 97.3508L1170.15 95.2541V95.2408ZM1170.8 105.685C1170.8 105.685 1170.86 105.592 1170.86 105.525L1170.33 100.469C1170.33 100.469 1170.29 100.363 1170.24 100.337C1170.19 100.31 1170.12 100.31 1170.07 100.337L1164.98 103.429C1164.98 103.429 1164.89 103.535 1164.9 103.601C1164.9 103.667 1164.96 103.721 1165.02 103.747L1170.64 105.711C1170.64 105.711 1170.68 105.711 1170.69 105.711C1170.73 105.711 1170.77 105.711 1170.8 105.671V105.685ZM1170.01 100.788L1170.49 105.3L1165.47 103.548L1170.01 100.788ZM1172.11 111.046C1172.11 111.046 1172.16 110.94 1172.15 110.886L1170.91 105.95C1170.91 105.95 1170.86 105.844 1170.81 105.831C1170.76 105.817 1170.69 105.831 1170.64 105.857L1166.03 109.626C1166.03 109.626 1165.95 109.732 1165.98 109.798C1165.99 109.865 1166.04 109.918 1166.11 109.931L1171.95 111.099C1171.95 111.099 1171.98 111.099 1171.99 111.099C1172.04 111.099 1172.08 111.086 1172.12 111.046H1172.11ZM1170.65 106.295L1171.75 110.701L1166.55 109.666L1170.66 106.308L1170.65 106.295ZM1174.17 116.155C1174.17 116.155 1174.21 116.049 1174.19 115.982L1172.28 111.271C1172.28 111.271 1172.22 111.178 1172.15 111.165C1172.1 111.165 1172.03 111.165 1171.99 111.218L1167.96 115.597C1167.96 115.597 1167.9 115.717 1167.92 115.783C1167.93 115.85 1168 115.889 1168.06 115.889L1174.01 116.234C1174.06 116.234 1174.11 116.208 1174.15 116.155H1174.17ZM1172.06 111.656L1173.75 115.863L1168.45 115.558L1172.04 111.656H1172.06ZM1170.84 121.516L1176.77 121.025C1176.77 121.025 1176.87 120.985 1176.91 120.932C1176.94 120.879 1176.94 120.813 1176.91 120.76L1174.37 116.354C1174.37 116.354 1174.29 116.274 1174.22 116.261C1174.17 116.261 1174.1 116.287 1174.07 116.341L1170.69 121.237C1170.69 121.237 1170.65 121.37 1170.69 121.423C1170.72 121.476 1170.78 121.516 1170.84 121.516C1170.84 121.516 1170.84 121.516 1170.85 121.516H1170.84ZM1176.46 120.707L1171.17 121.144L1174.19 116.778L1176.46 120.707ZM1174.35 126.705L1180.16 125.391C1180.16 125.391 1180.27 125.338 1180.28 125.285C1180.31 125.232 1180.28 125.165 1180.26 125.125L1177.13 121.118C1177.13 121.118 1177.03 121.038 1176.97 121.052C1176.9 121.052 1176.86 121.091 1176.82 121.144L1174.15 126.466C1174.15 126.466 1174.13 126.598 1174.17 126.652C1174.21 126.691 1174.25 126.718 1174.3 126.718C1174.31 126.718 1174.33 126.718 1174.34 126.718L1174.35 126.705ZM1179.81 125.112L1174.63 126.28L1177.02 121.543L1179.81 125.112ZM1178.56 131.362L1184.13 129.253C1184.13 129.253 1184.23 129.186 1184.24 129.12C1184.24 129.067 1184.24 129 1184.19 128.961L1180.52 125.431C1180.52 125.431 1180.42 125.378 1180.36 125.391C1180.31 125.404 1180.26 125.444 1180.24 125.51L1178.33 131.15C1178.33 131.15 1178.33 131.283 1178.37 131.336C1178.41 131.363 1178.45 131.389 1178.49 131.389C1178.51 131.389 1178.53 131.389 1178.56 131.389V131.362ZM1183.75 129.027L1178.78 130.911L1180.48 125.882L1183.75 129.027ZM1183.38 135.383L1188.59 132.517C1188.59 132.517 1188.68 132.437 1188.68 132.371C1188.68 132.305 1188.66 132.252 1188.62 132.225L1184.5 129.239C1184.5 129.239 1184.4 129.199 1184.34 129.213C1184.29 129.239 1184.25 129.279 1184.24 129.345L1183.14 135.198C1183.14 135.198 1183.14 135.33 1183.2 135.37C1183.23 135.397 1183.27 135.397 1183.31 135.397C1183.34 135.397 1183.36 135.397 1183.39 135.37L1183.38 135.383ZM1188.18 132.344L1183.52 134.892L1184.5 129.677L1188.18 132.344ZM1188.7 138.688L1193.47 135.131C1193.47 135.131 1193.55 135.038 1193.54 134.972C1193.54 134.919 1193.5 134.866 1193.45 134.826L1188.96 132.437C1188.96 132.437 1188.84 132.411 1188.79 132.437C1188.74 132.464 1188.71 132.517 1188.7 132.583L1188.42 138.528C1188.42 138.595 1188.44 138.661 1188.51 138.688C1188.54 138.688 1188.56 138.714 1188.59 138.714C1188.63 138.714 1188.66 138.714 1188.7 138.674V138.688ZM1193.04 135.012L1188.78 138.183L1189.03 132.875L1193.04 134.999V135.012ZM1194.43 141.236L1198.66 137.042C1198.66 137.042 1198.73 136.936 1198.72 136.883C1198.7 136.83 1198.66 136.777 1198.61 136.75L1193.83 135.012C1193.83 135.012 1193.71 135.012 1193.67 135.038C1193.62 135.078 1193.61 135.131 1193.61 135.198L1194.15 141.129C1194.15 141.196 1194.2 141.249 1194.27 141.275C1194.28 141.275 1194.31 141.275 1194.32 141.275C1194.36 141.275 1194.42 141.262 1194.44 141.222L1194.43 141.236ZM1198.23 136.989L1194.46 140.731L1193.97 135.45L1198.23 137.002V136.989ZM1200.47 142.948L1204.08 138.21C1204.08 138.21 1204.12 138.104 1204.1 138.037C1204.08 137.984 1204.04 137.945 1203.97 137.931L1199 136.87C1199 136.87 1198.88 136.87 1198.84 136.923C1198.8 136.963 1198.78 137.029 1198.8 137.082L1200.16 142.881C1200.16 142.881 1200.23 143.001 1200.3 143.014C1200.3 143.014 1200.32 143.014 1200.34 143.014C1200.39 143.014 1200.44 142.987 1200.47 142.948ZM1203.63 138.21L1200.41 142.43L1199.19 137.268L1203.64 138.21H1203.63ZM1206.68 143.81L1209.6 138.621C1209.6 138.621 1209.62 138.502 1209.6 138.449C1209.57 138.396 1209.52 138.369 1209.45 138.356L1204.38 137.998C1204.38 137.998 1204.26 138.024 1204.22 138.064C1204.18 138.117 1204.18 138.17 1204.2 138.236L1206.36 143.783C1206.36 143.783 1206.44 143.89 1206.51 143.89C1206.51 143.89 1206.63 143.85 1206.65 143.797L1206.68 143.81ZM1209.15 138.674L1206.55 143.306L1204.62 138.356L1209.15 138.674ZM1212.8 143.903C1212.86 143.903 1212.93 143.85 1212.94 143.797L1215.11 138.25C1215.11 138.25 1215.1 138.13 1215.08 138.077C1215.04 138.024 1214.99 137.998 1214.92 138.011L1209.85 138.369C1209.85 138.369 1209.73 138.409 1209.7 138.462C1209.68 138.515 1209.68 138.582 1209.7 138.635L1212.61 143.823C1212.61 143.823 1212.7 143.916 1212.76 143.916L1212.8 143.903ZM1214.68 138.369L1212.76 143.319L1210.16 138.688L1214.68 138.369ZM1219.02 143.027C1219.02 143.027 1219.14 142.961 1219.15 142.894L1220.52 137.095C1220.52 137.095 1220.52 136.976 1220.48 136.936C1220.44 136.896 1220.37 136.87 1220.32 136.883L1215.34 137.945C1215.34 137.945 1215.24 137.998 1215.22 138.051C1215.2 138.104 1215.22 138.17 1215.25 138.223L1218.86 142.961C1218.86 142.961 1218.94 143.027 1218.99 143.027C1218.99 143.027 1219.02 143.027 1219.03 143.027H1219.02ZM1220.12 137.294L1218.9 142.47L1215.69 138.25L1220.12 137.308V137.294ZM1225.06 141.302C1225.06 141.302 1225.16 141.222 1225.18 141.156L1225.72 135.224C1225.72 135.224 1225.71 135.105 1225.65 135.065C1225.6 135.025 1225.55 135.012 1225.48 135.038L1220.71 136.777C1220.71 136.777 1220.61 136.843 1220.6 136.896C1220.6 136.949 1220.6 137.016 1220.65 137.056L1224.89 141.249C1224.89 141.249 1224.96 141.302 1225 141.302C1225.03 141.302 1225.04 141.302 1225.07 141.302H1225.06ZM1225.35 135.476L1224.86 140.758L1221.09 137.016L1225.35 135.463V135.476ZM1230.8 138.754C1230.8 138.754 1230.9 138.661 1230.9 138.595L1230.62 132.65C1230.62 132.65 1230.58 132.53 1230.53 132.504C1230.47 132.477 1230.41 132.477 1230.35 132.504L1225.87 134.892C1225.87 134.892 1225.77 134.972 1225.77 135.038C1225.77 135.105 1225.8 135.158 1225.84 135.198L1230.62 138.754C1230.62 138.754 1230.68 138.794 1230.72 138.794C1230.75 138.794 1230.78 138.794 1230.8 138.767V138.754ZM1230.29 132.942L1230.54 138.25L1226.28 135.078L1230.29 132.942ZM1236.14 135.436C1236.14 135.436 1236.22 135.33 1236.2 135.264L1235.1 129.412C1235.1 129.412 1235.05 129.306 1235 129.279C1234.94 129.253 1234.88 129.266 1234.84 129.306L1230.72 132.291C1230.72 132.291 1230.64 132.384 1230.66 132.437C1230.66 132.49 1230.7 132.544 1230.75 132.583L1235.97 135.45C1235.97 135.45 1236.02 135.476 1236.05 135.476C1236.09 135.476 1236.11 135.476 1236.15 135.436H1236.14ZM1234.81 129.744L1235.79 134.959L1231.14 132.411L1234.81 129.744ZM1240.97 131.402C1240.97 131.402 1241.04 131.283 1241.01 131.217L1239.1 125.577C1239.1 125.577 1239.03 125.47 1238.98 125.457C1238.93 125.457 1238.86 125.457 1238.82 125.497L1235.16 129.027C1235.16 129.027 1235.09 129.133 1235.1 129.186C1235.1 129.239 1235.16 129.292 1235.21 129.319L1240.78 131.429C1240.78 131.429 1240.82 131.429 1240.85 131.429C1240.89 131.429 1240.94 131.416 1240.97 131.376V131.402ZM1238.86 125.948L1240.56 130.978L1235.59 129.093L1238.86 125.948ZM1245.18 126.731C1245.18 126.731 1245.23 126.612 1245.19 126.545L1242.51 121.224C1242.51 121.224 1242.43 121.131 1242.36 121.131C1242.3 121.131 1242.24 121.144 1242.2 121.198L1239.07 125.205C1239.07 125.205 1239.02 125.311 1239.04 125.364C1239.06 125.417 1239.11 125.457 1239.16 125.47L1244.98 126.784C1244.98 126.784 1245 126.784 1245.02 126.784C1245.07 126.784 1245.12 126.758 1245.15 126.718L1245.18 126.731ZM1242.34 121.635L1244.72 126.386L1239.55 125.218L1242.34 121.649V121.635ZM1248.69 121.529C1248.69 121.529 1248.72 121.397 1248.69 121.343L1245.31 116.447C1245.31 116.447 1245.24 116.38 1245.16 116.367C1245.11 116.367 1245.04 116.407 1245.02 116.447L1242.47 120.852C1242.47 120.852 1242.44 120.972 1242.47 121.025C1242.5 121.078 1242.55 121.118 1242.61 121.118L1248.55 121.609H1248.56C1248.56 121.609 1248.68 121.569 1248.71 121.516L1248.69 121.529ZM1245.16 116.871L1248.19 121.237L1242.89 120.799L1245.16 116.871ZM1245.36 116.327L1251.31 115.982C1251.37 115.982 1251.43 115.929 1251.45 115.876C1251.48 115.81 1251.45 115.743 1251.41 115.69L1247.38 111.311C1247.38 111.311 1247.29 111.245 1247.22 111.258C1247.15 111.258 1247.11 111.311 1247.09 111.364L1245.19 116.075C1245.19 116.075 1245.18 116.195 1245.22 116.234C1245.24 116.288 1245.29 116.314 1245.36 116.314V116.327ZM1250.92 115.664L1245.63 115.969L1247.33 111.762L1250.92 115.664ZM1247.43 111.205L1253.27 110.037C1253.34 110.024 1253.39 109.971 1253.4 109.904C1253.42 109.838 1253.4 109.772 1253.35 109.732L1248.75 105.963C1248.75 105.963 1248.64 105.91 1248.59 105.937C1248.53 105.95 1248.48 106.003 1248.47 106.056L1247.23 110.993C1247.23 110.993 1247.23 111.112 1247.27 111.152C1247.31 111.192 1247.35 111.205 1247.4 111.205C1247.4 111.205 1247.43 111.205 1247.44 111.205H1247.43ZM1252.85 109.772L1247.63 110.807L1248.73 106.401L1252.85 109.772ZM1248.77 105.831L1254.4 103.867C1254.4 103.867 1254.5 103.787 1254.52 103.721C1254.52 103.654 1254.49 103.588 1254.44 103.548L1249.36 100.456C1249.36 100.456 1249.24 100.416 1249.18 100.456C1249.13 100.483 1249.09 100.536 1249.09 100.589L1248.56 105.645C1248.56 105.645 1248.57 105.764 1248.63 105.804C1248.65 105.83 1248.69 105.844 1248.73 105.844C1248.75 105.844 1248.77 105.844 1248.79 105.844L1248.77 105.831ZM1253.93 103.654L1248.92 105.406L1249.4 100.894L1253.93 103.654ZM1249.34 100.323L1254.64 97.5896C1254.64 97.5896 1254.73 97.4967 1254.73 97.4304C1254.73 97.364 1254.69 97.2977 1254.62 97.2712L1249.16 94.9224C1249.16 94.9224 1249.04 94.909 1248.98 94.9356C1248.93 94.9754 1248.9 95.0285 1248.9 95.0816L1249.08 100.164C1249.08 100.164 1249.12 100.284 1249.16 100.31C1249.18 100.323 1249.21 100.337 1249.25 100.337C1249.28 100.337 1249.3 100.337 1249.33 100.31L1249.34 100.323ZM1254.16 97.457L1249.44 99.8854L1249.28 95.3469L1254.16 97.4437V97.457ZM1249.16 94.8029L1254.01 91.3659C1254.01 91.3659 1254.09 91.2598 1254.08 91.1934C1254.08 91.1271 1254.01 91.0739 1253.96 91.0607L1248.21 89.4948C1248.21 89.4948 1248.1 89.4948 1248.06 89.5346C1248.02 89.5745 1247.99 89.6408 1248 89.6939L1248.89 94.71C1248.89 94.71 1248.94 94.8162 1249 94.8428C1249.02 94.8428 1249.04 94.856 1249.06 94.856C1249.1 94.856 1249.13 94.856 1249.17 94.8295L1249.16 94.8029ZM1253.51 91.2862L1249.17 94.3517L1248.39 89.8796L1253.51 91.2862ZM1248.19 89.3488L1252.53 85.2616C1252.53 85.2616 1252.59 85.1421 1252.57 85.0758C1252.54 85.0094 1252.49 84.9696 1252.42 84.9564L1246.52 84.2C1246.52 84.2 1246.4 84.2132 1246.36 84.2663C1246.32 84.3061 1246.3 84.3725 1246.33 84.4255L1247.9 89.2692C1247.9 89.2692 1247.96 89.3753 1248.02 89.3886C1248.03 89.3886 1248.04 89.3886 1248.06 89.3886C1248.1 89.3886 1248.13 89.3754 1248.17 89.3356L1248.19 89.3488ZM1252.02 85.2616L1248.16 88.8976L1246.75 84.5848L1252.02 85.2616ZM1246.48 84.0938L1250.2 79.4492C1250.2 79.4492 1250.26 79.3297 1250.23 79.2634C1250.2 79.197 1250.14 79.1706 1250.07 79.1706L1244.11 79.2369C1244.11 79.2369 1243.99 79.2634 1243.97 79.3165C1243.94 79.3696 1243.93 79.4359 1243.97 79.489L1246.2 84.0672C1246.2 84.0672 1246.28 84.1601 1246.33 84.1601C1246.33 84.1601 1246.33 84.1601 1246.34 84.1601C1246.4 84.1601 1246.45 84.1336 1246.48 84.0938ZM1249.7 79.5155L1246.38 83.6558L1244.39 79.5819L1249.7 79.5155ZM1243.91 79.197C1243.91 79.197 1244.03 79.1572 1244.06 79.1174L1247.1 73.9951C1247.1 73.9951 1247.13 73.8624 1247.1 73.8093C1247.06 73.7562 1246.99 73.7297 1246.93 73.7297L1241.04 74.6321C1241.04 74.6321 1240.93 74.6852 1240.9 74.7383C1240.88 74.7913 1240.89 74.8577 1240.92 74.9108L1243.76 79.1307C1243.76 79.1307 1243.84 79.2103 1243.9 79.2103L1243.91 79.197ZM1246.61 74.1411L1243.9 78.706L1241.37 74.9373L1246.62 74.1411H1246.61ZM1240.82 74.6321C1240.82 74.6321 1240.93 74.579 1240.96 74.526L1243.25 69.032C1243.25 69.032 1243.26 68.8993 1243.22 68.8462C1243.18 68.7932 1243.11 68.7799 1243.04 68.7932L1237.33 70.505C1237.33 70.505 1237.23 70.5714 1237.21 70.6245C1237.2 70.6776 1237.21 70.7439 1237.25 70.7837L1240.66 74.5657C1240.66 74.5657 1240.74 74.6188 1240.8 74.6188H1240.82V74.6321ZM1242.8 69.2443L1240.74 74.1411L1237.7 70.7705L1242.79 69.2443H1242.8ZM1237.13 70.5449C1237.13 70.5449 1237.24 70.4785 1237.25 70.4254L1238.77 64.6661C1238.77 64.6661 1238.77 64.5334 1238.71 64.4936C1238.66 64.4537 1238.59 64.4405 1238.53 64.4671L1233.11 66.9486C1233.11 66.9486 1233.02 67.0282 1233.01 67.0813C1233.01 67.1344 1233.02 67.2007 1233.07 67.2405L1236.97 70.505C1236.97 70.505 1237.04 70.5449 1237.08 70.5449C1237.09 70.5449 1237.12 70.5449 1237.13 70.5449ZM1238.34 64.9315L1236.99 70.0671L1233.51 67.1476L1238.34 64.9315ZM1232.91 67.0017C1232.91 67.0017 1233.01 66.9221 1233.01 66.869L1233.7 60.9504C1233.7 60.8841 1233.67 60.8177 1233.62 60.7779C1233.56 60.7381 1233.48 60.7381 1233.43 60.7779L1228.42 63.9894C1228.42 63.9894 1228.34 64.0822 1228.34 64.1353C1228.34 64.2017 1228.36 64.2547 1228.42 64.2813L1232.73 66.9752C1232.73 66.9752 1232.79 67.0017 1232.82 67.0017C1232.85 67.0017 1232.87 67.0016 1232.9 66.9884L1232.91 67.0017ZM1233.33 61.2689L1232.7 66.5372L1228.85 64.1353L1233.33 61.2689ZM1228.24 64.0822C1228.24 64.0822 1228.32 63.9893 1228.32 63.9362L1228.19 57.9779C1228.19 57.9115 1228.15 57.8452 1228.08 57.8186C1228.02 57.7921 1227.95 57.8054 1227.9 57.8452L1223.39 61.7334C1223.39 61.7334 1223.32 61.8263 1223.33 61.8926C1223.33 61.9457 1223.39 61.9988 1223.44 62.0253L1228.08 64.0955C1228.08 64.0955 1228.12 64.1087 1228.15 64.1087C1228.19 64.1087 1228.22 64.1087 1228.24 64.0822ZM1227.84 58.3495L1227.96 63.6576L1223.82 61.813L1227.84 58.3495ZM1223.21 61.8395C1223.21 61.8395 1223.28 61.7466 1223.27 61.6803L1222.31 55.8015C1222.31 55.8015 1222.26 55.6821 1222.19 55.6689C1222.13 55.6556 1222.06 55.6688 1222.02 55.7219L1218.09 60.194C1218.09 60.194 1218.04 60.3002 1218.05 60.3532C1218.06 60.4063 1218.12 60.4594 1218.17 60.4727L1223.07 61.8793C1223.07 61.8793 1223.09 61.8793 1223.12 61.8793C1223.16 61.8793 1223.2 61.866 1223.24 61.8395H1223.21ZM1222.02 56.2262L1222.87 61.468L1218.5 60.2206L1222.01 56.2262H1222.02ZM1217.92 60.3267C1217.92 60.3267 1217.97 60.2206 1217.96 60.1675L1216.19 54.4878C1216.19 54.4878 1216.11 54.3817 1216.05 54.3684C1215.98 54.3684 1215.91 54.3949 1215.87 54.448L1212.61 59.4244C1212.61 59.4244 1212.57 59.5305 1212.61 59.5969C1212.64 59.65 1212.69 59.6897 1212.74 59.703L1217.79 60.4064C1217.79 60.4064 1217.8 60.4064 1217.81 60.4064C1217.87 60.4064 1217.92 60.3798 1217.95 60.34L1217.92 60.3267ZM1215.95 54.9257L1217.53 59.995L1213.03 59.358L1215.95 54.9125V54.9257Z" fill="#34AEC9"/>
<path d="M1209.84 138.568C1187.95 138.568 1170.16 120.773 1170.16 98.89C1170.16 77.0073 1187.95 59.2118 1209.84 59.2118C1231.72 59.2118 1249.52 77.0073 1249.52 98.89C1249.52 120.773 1231.72 138.568 1209.84 138.568ZM1209.84 60.8175C1188.84 60.8175 1171.76 77.8964 1171.76 98.89C1171.76 119.884 1188.84 136.962 1209.84 136.962C1230.83 136.962 1247.91 119.884 1247.91 98.89C1247.91 77.8964 1230.83 60.8175 1209.84 60.8175Z" fill="#34AEC9"/>
<path d="M1209.84 145.615C1184.08 145.615 1163.11 124.661 1163.11 98.8902C1163.11 73.1193 1184.08 52.1655 1209.84 52.1655C1235.59 52.1655 1256.56 73.1193 1256.56 98.8902C1256.56 124.661 1235.59 145.615 1209.84 145.615ZM1209.84 54.7665C1185.5 54.7665 1165.7 74.5658 1165.7 98.9035C1165.7 123.241 1185.5 143.04 1209.84 143.04C1234.17 143.04 1253.97 123.241 1253.97 98.9035C1253.97 74.5658 1234.17 54.7665 1209.84 54.7665Z" fill="#F0F0F0"/>
<path d="M1209.84 99.2882L1189.93 155.727H1229.74L1209.84 99.2882ZM1209.84 105.976L1226.6 153.497H1193.08L1209.84 105.976Z" fill="#77C0CB"/>
<path d="M1224.08 98.9036C1224.08 106.773 1217.71 113.143 1209.84 113.143C1201.97 113.143 1195.6 106.76 1195.6 98.9036C1195.6 91.0476 1201.98 84.6646 1209.84 84.6646C1217.69 84.6646 1224.08 91.0476 1224.08 98.9036Z" fill="#F0F0F0"/>
<path d="M1209.84 115.372C1200.76 115.372 1193.37 107.98 1193.37 98.9035C1193.37 89.8266 1200.76 82.4351 1209.84 82.4351C1218.92 82.4351 1226.31 89.8266 1226.31 98.9035C1226.31 107.98 1218.92 115.372 1209.84 115.372ZM1209.84 84.8635C1202.1 84.8635 1195.8 91.1537 1195.8 98.9035C1195.8 106.653 1202.09 112.943 1209.84 112.943C1217.59 112.943 1223.88 106.64 1223.88 98.9035C1223.88 91.1669 1217.59 84.8635 1209.84 84.8635Z" fill="#33ACC7"/>
<path d="M1240.8 152.024H1178.86V156.894H1240.8V152.024Z" fill="#77C0CB"/>
<path d="M901.409 98.89L915.078 145.416H945.36C945.36 145.416 946.103 108.484 901.422 98.89H901.409Z" fill="#FDF7D3"/>
<path d="M901.438 99.0626C901.438 99.0626 905.937 116.792 894.418 145.402C894.391 145.469 915.08 145.469 915.093 145.402C918.729 125.895 901.425 99.0626 901.425 99.0626H901.438Z" fill="#808284"/>
<path d="M886.655 116.778L895.069 145.429H913.714C913.714 145.429 914.165 122.697 886.655 116.778Z" fill="#FAD5B4"/>
<path d="M886.669 116.885C886.669 116.885 889.442 127.806 882.343 145.416C882.33 145.456 895.069 145.456 895.082 145.416C897.325 133.406 886.669 116.885 886.669 116.885Z" fill="#808284"/>
<path d="M952.475 122.936L945.866 145.442H931.229C931.229 145.442 930.871 127.581 952.475 122.936Z" fill="#FAD5B4"/>
<path d="M952.461 123.015C952.461 123.015 954.186 131.814 955.858 145.429C955.858 145.469 945.853 145.455 945.853 145.429C948.029 136.113 952.461 123.015 952.461 123.015Z" fill="#808284"/>
<path d="M879.753 130.765L884.066 145.429H893.607C893.607 145.429 893.846 133.791 879.753 130.765Z" fill="#F6B89A"/>
<path d="M879.768 130.832C879.768 130.832 881.188 136.418 877.552 145.442C877.552 145.469 884.067 145.469 884.067 145.442C885.209 139.298 879.755 130.832 879.755 130.832H879.768Z" fill="#808284"/>
<path d="M956.151 144.686H877.498V156.669H956.151V144.686Z" fill="#FAD5B4"/>
<path d="M893.752 148.428H886.36V156.549H893.752V148.428Z" fill="#808284"/>
<path d="M911.231 148.428H903.839V156.549H911.231V148.428Z" fill="#808284"/>
<path d="M928.707 148.428H921.315V156.549H928.707V148.428Z" fill="#808284"/>
<path d="M946.186 148.428H938.794V156.549H946.186V148.428Z" fill="#808284"/>
<path d="M1011.58 150.737C1011.65 147.565 1009.01 145.004 1005.85 145.004C1005.38 145.004 1004.93 145.071 1004.51 145.163C1004 142.509 1001.68 140.506 998.868 140.506C995.697 140.506 993.136 143.08 993.136 146.238C993.136 146.358 993.136 146.49 993.149 146.61C992.127 145.654 990.76 145.071 989.247 145.071C986.076 145.071 983.515 147.645 983.515 150.803C983.515 151.414 983.621 152.011 983.793 152.568C983.767 152.568 983.74 152.582 983.74 152.582C983.74 152.582 983.94 153.391 984.722 154.32C985.386 155.169 986.275 155.82 987.297 156.191C987.655 156.35 988.04 156.496 988.478 156.616H1007.79C1007.79 156.616 1011.49 155.183 1011.58 150.724V150.737Z" fill="#88BD43"/>
<path d="M1043.38 19.1622H1037.21V14.2123L1040.24 12.3147L1043.38 14.2123V19.1622Z" fill="#E99978"/>
<path d="M1043.22 21.272H1039.04V21.2985H1037.25C1037.25 21.2985 1041.05 89.3485 1004.22 156.669H1023.44C1023.44 156.669 1027.48 142.403 1040.24 142.416C1052.97 142.416 1056.99 156.655 1056.99 156.655H1076.22C1039.38 89.3352 1043.19 21.2853 1043.19 21.2853L1043.22 21.272ZM1040.03 120.905H1028.01C1028.01 120.905 1031.46 97.4699 1040.01 97.4699C1047.33 97.4699 1051.95 120.905 1051.95 120.905H1040.02H1040.03Z" fill="#E99978"/>
<path d="M1061.8 125.404H1018.62L1015.67 120.905H1064.39L1061.8 125.404Z" fill="#FAD5B4"/>
<path d="M1052.89 97.4567H1026.88L1025.11 92.9713H1054.45L1052.89 97.4567Z" fill="#FAD5B4"/>
<path d="M1040.17 17.782C1039.49 17.7289 1035.04 17.7953 1035.04 17.7953V19.7062L1037.22 24.0589H1043.11L1045.29 19.7062V17.7953C1045.29 17.7953 1040.84 17.7157 1040.17 17.782Z" fill="#FAD5B4"/>
<path d="M1040.62 7.86926H1039.87V12.8324H1040.62V7.86926Z" fill="#E99978"/>
<path d="M1101.31 120.932L1121.18 130.884C1121.18 130.884 1114.84 117.057 1101.31 120.932Z" fill="#88BD43"/>
<path d="M1100.26 121.914L1108.6 136.339C1108.6 136.339 1110.32 125.072 1100.26 121.914Z" fill="#88BD43"/>
<path d="M1100.26 120.693L1121.25 113.049C1121.25 113.049 1107.15 105.406 1100.26 120.693Z" fill="#88BD43"/>
<path d="M1098.91 120.242L1101.91 102.247C1101.91 102.247 1090.22 108.989 1098.91 120.242Z" fill="#88BD43"/>
<path d="M1098.32 121.29L1080.1 124.741C1080.1 124.741 1087.66 114.244 1098.32 121.29Z" fill="#88BD43"/>
<path d="M1099.51 122.339C1099.51 122.339 1094.6 143.545 1094.73 156.669H1086.25C1086.25 156.669 1088.64 134.932 1099.51 122.339Z" fill="#9A8477"/>
<path d="M205.936 46.5839L194.829 46.5723L194.821 53.8975L205.929 53.9091L205.936 46.5839Z" fill="#97C5CB"/>
<path d="M222.882 76.0746L214.401 67.2925L203.538 77.7829L212.019 86.565L222.882 76.0746Z" fill="#97C5CB"/>
<path d="M218.528 82.2342L216.075 79.5867C215.581 79.0545 214.75 79.0228 214.218 79.516L211.21 82.3031C210.678 82.7963 210.646 83.6275 211.14 84.1597L213.593 86.8072C214.086 87.3394 214.918 87.3713 215.45 86.8781L218.457 84.091C218.99 83.5978 219.021 82.7664 218.528 82.2342Z" fill="#9FCED5"/>
<path d="M200.419 20.4097L197.99 29.115H200.406H202.834L200.419 20.4097Z" fill="#9FCED5"/>
<path d="M188.17 25.8372L193.013 33.4808L194.632 31.6761L196.265 29.8846L188.17 25.8372Z" fill="#9FCED5"/>
<path d="M184.017 38.5902L192.934 40.0897L192.682 37.6878L192.43 35.2726L184.017 38.5902Z" fill="#9FCED5"/>
<path d="M216.78 38.6165L208.38 35.2858L208.128 37.701L207.862 40.1029L216.78 38.6165Z" fill="#9FCED5"/>
<path d="M212.655 25.8638L204.56 29.8847L206.179 31.6894L207.797 33.4942L212.655 25.8638Z" fill="#9FCED5"/>
<path d="M209.549 37.0507C209.549 42.0934 205.449 46.1806 200.406 46.1673C195.363 46.1673 191.276 42.0669 191.289 37.0242C191.289 31.9815 195.39 27.8942 200.432 27.9075C205.475 27.9075 209.562 32.008 209.549 37.0507Z" fill="#9FCED5"/>
<path d="M201.507 50.7323H199.278C195.761 50.7323 192.921 47.8792 192.935 44.3626V37.409C192.935 33.2819 196.292 29.9378 200.419 29.9511C204.546 29.9511 207.89 33.3085 207.877 37.4223V44.3759C207.877 47.8925 205.024 50.7324 201.507 50.7191V50.7323Z" fill="#BCE2EC"/>
<path d="M189.713 53.2683L204.761 53.2841C209.512 53.289 213.357 57.1414 213.352 61.8922L213.347 66.1121L189.699 66.0874L189.713 53.2683Z" fill="#9FCED5"/>
<path d="M213.36 66.0991L188.531 66.0731L188.478 116.739L213.307 116.765L213.36 66.0991Z" fill="#C4C3C4"/>
<path d="M196.198 53.1739L191.129 43.2478L190.306 40.7662H186.948C182.888 40.7662 179.597 44.3757 179.597 48.8478C179.597 53.7711 182.012 58.2962 185.926 60.6849V63.9627C185.926 66.5504 187.824 68.6603 190.186 68.6603V70.067H199.542L196.211 53.1606L196.198 53.1739Z" fill="#9FCED5"/>
<path d="M186.207 48.8879C183.951 48.8879 182.133 47.0566 182.133 44.8139L182.159 24.9615H190.307L190.281 44.8272C190.281 47.0831 188.45 48.9011 186.207 48.9011V48.8879Z" fill="#BCE2EC"/>
<path d="M188.396 17.7158H182.928C181.873 17.7158 181.018 18.5714 181.018 19.6267V25.2931C181.018 26.3485 181.873 27.2041 182.928 27.2041H188.396C189.451 27.2041 190.307 26.3485 190.307 25.2931V19.6267C190.307 18.5714 189.451 17.7158 188.396 17.7158Z" fill="#BCE2EC"/>
<path d="M190.39 14.2546L179.92 14.2436C179.414 14.2431 179.003 14.6526 179.003 15.1583L179.001 16.8702C179.001 17.3759 179.41 17.7862 179.916 17.7868L190.386 17.7977C190.892 17.7983 191.302 17.3887 191.303 16.883L191.305 15.1712C191.305 14.6655 190.896 14.2551 190.39 14.2546Z" fill="#BCE2EC"/>
<path d="M188.86 7.48446L185.052 0L181.376 7.64369C180.872 8.38683 180.566 9.27593 180.566 10.2447C180.566 12.7925 182.623 14.8494 185.171 14.8494C187.719 14.8494 189.776 12.7925 189.776 10.2447C189.776 9.20957 189.431 8.25413 188.847 7.48446H188.86Z" fill="#BCE2EC"/>
<path d="M205.872 53.2538L188.541 68.5942L186.696 80.4711L188.528 83.0986L186.112 92.0295L188.514 95.4665L186.67 114.231L188.501 116.633L213.33 116.659L213.383 65.9932V61.7733C213.383 57.3941 210.118 53.7713 205.872 53.2405V53.2538Z" fill="#BCE2EC"/>
<path d="M194.328 77.7374C194.116 77.7374 193.891 77.6578 193.718 77.4986C193.346 77.1535 193.32 76.5829 193.652 76.2113L207.837 60.5125C208.182 60.141 208.753 60.1144 209.125 60.4462C209.496 60.7912 209.523 61.3619 209.191 61.7335L195.005 77.4321C194.819 77.6312 194.581 77.7374 194.328 77.7374Z" fill="#9FCED5"/>
<path d="M197.777 99.7527C197.564 99.7527 197.339 99.6731 197.166 99.5138C196.795 99.1688 196.768 98.5982 197.1 98.2267L207.65 86.5488C207.995 86.1773 208.565 86.1507 208.937 86.4824C209.308 86.8275 209.335 87.3981 209.003 87.7697L198.453 99.4475C198.268 99.6466 198.029 99.7527 197.777 99.7527Z" fill="#9FCED5"/>
<path d="M191.74 93.4494C191.527 93.4494 191.302 93.3698 191.129 93.2105C190.758 92.8655 190.731 92.2949 191.063 91.9233L205.249 76.2246C205.594 75.853 206.164 75.8265 206.536 76.1582C206.907 76.5033 206.934 77.0739 206.602 77.4454L192.416 93.1442C192.231 93.3432 191.992 93.4494 191.74 93.4494Z" fill="#9FCED5"/>
<path d="M185.583 56.3193C185.078 56.3193 184.667 55.908 184.667 55.4037C184.667 54.8994 185.078 54.488 185.583 54.488C190.055 54.488 190.506 51.2368 190.533 50.8653C190.586 50.361 191.024 49.9894 191.528 50.0425C192.032 50.0823 192.404 50.5202 192.364 51.0245C192.205 52.8558 190.599 56.3326 185.583 56.3193Z" fill="#97C5CB"/>
<path d="M192.935 38.0592C197.062 38.0592 200.406 34.7284 200.406 30.6013V29.9644H192.935V38.0725V38.0592Z" fill="#9FCED5"/>
<path d="M207.877 38.0725C203.75 38.0725 200.406 34.7151 200.419 30.6013V29.9644H207.89V38.0725H207.877Z" fill="#9FCED5"/>
<path d="M216.757 116.755L185.532 116.723L185.52 128.626L216.744 128.659L216.757 116.755Z" fill="#97C5CB"/>
<path d="M1024.24 71.3659L984.95 66.403L974.183 151.637L1013.47 156.6L1024.24 71.3659Z" fill="white"/>
<path d="M1025.88 65.2244L984.886 60.0452C984.057 59.9405 983.3 60.5276 983.195 61.3565L982.784 64.6084C982.68 65.4373 983.267 66.1942 984.096 66.2989L1025.09 71.4781C1025.92 71.5828 1026.68 70.9957 1026.78 70.1668L1027.19 66.915C1027.3 66.086 1026.71 65.3291 1025.88 65.2244Z" fill="#D2D2D2"/>
<path d="M1021.35 44.4508L994.426 41.0495C993.917 40.9852 993.453 41.3457 993.388 41.8547L992.831 46.2652C992.767 46.7742 993.127 47.2389 993.636 47.3032L1020.56 50.7044C1021.07 50.7687 1021.53 50.4082 1021.6 49.8993L1022.16 45.4888C1022.22 44.9798 1021.86 44.5151 1021.35 44.4508Z" fill="#D2D2D2"/>
<path d="M1020.46 50.6948L993.735 47.3185L992.014 60.9449L1018.74 64.3212L1020.46 50.6948Z" fill="white"/>
<path d="M1020.3 109.363L979.303 104.184C978.474 104.079 977.717 104.666 977.612 105.495L977.201 108.747C977.097 109.576 977.684 110.333 978.513 110.437L1019.51 115.617C1020.34 115.721 1021.1 115.134 1021.2 114.305L1021.61 111.054C1021.72 110.225 1021.13 109.468 1020.3 109.363Z" fill="#D2D2D2"/>
<path d="M1022.98 88.1166L981.986 82.9374C981.157 82.8327 980.4 83.4198 980.296 84.2487L979.885 87.5007C979.78 88.3296 980.367 89.0864 981.196 89.1911L1022.19 94.3703C1023.02 94.475 1023.78 93.888 1023.88 93.0591L1024.3 89.8072C1024.4 88.9783 1023.81 88.2214 1022.98 88.1166Z" fill="#D2D2D2"/>
<path d="M1017.35 132.787L976.352 127.608C975.523 127.503 974.766 128.09 974.661 128.919L974.25 132.171C974.145 133 974.733 133.757 975.562 133.861L1016.56 139.041C1017.39 139.145 1018.15 138.558 1018.25 137.729L1018.66 134.477C1018.77 133.648 1018.18 132.892 1017.35 132.787Z" fill="#D2D2D2"/>
<path d="M990.705 74.1279C989.218 73.9421 987.865 74.9905 987.679 76.4768L986.776 83.6162L992.151 84.293L993.054 77.1536C993.239 75.6673 992.191 74.3137 990.705 74.1279Z" fill="#8A8A8A"/>
<path d="M999.37 75.2293C997.884 75.0436 996.531 76.0919 996.345 77.5782L995.442 84.7176L1000.82 85.3943L1001.72 78.255C1001.9 76.7687 1000.86 75.4151 999.37 75.2293Z" fill="#8A8A8A"/>
<path d="M1008.04 76.3175C1006.55 76.1317 1005.2 77.1801 1005.01 78.6663L1004.11 85.8057L1009.48 86.4825L1010.39 79.3431C1010.57 77.8568 1009.52 76.5033 1008.04 76.3175Z" fill="#8A8A8A"/>
<path d="M1006.59 52.882C1005.1 52.6963 1003.75 53.7446 1003.56 55.2309L1002.66 62.3703L1008.04 63.0471L1008.94 55.9077C1009.12 54.4214 1008.08 53.0678 1006.59 52.882Z" fill="#8A8A8A"/>
<path d="M998.628 51.8868C997.142 51.701 995.788 52.7494 995.602 54.2357L994.7 61.3751L1000.07 62.0519L1000.98 54.9125C1001.16 53.4262 1000.11 52.0726 998.628 51.8868Z" fill="#8A8A8A"/>
<path d="M1014.56 53.8905C1013.08 53.7047 1011.72 54.7531 1011.54 56.2393L1010.64 63.3787L1016.01 64.0555L1016.91 56.9161C1017.1 55.4299 1016.05 54.0763 1014.56 53.8905Z" fill="#8A8A8A"/>
<path d="M1016.7 77.419C1015.22 77.2333 1013.86 78.2815 1013.68 79.7678L1012.77 86.9072L1018.15 87.584L1019.05 80.4446C1019.24 78.9583 1018.19 77.6048 1016.7 77.419Z" fill="#8A8A8A"/>
<path d="M988.012 95.3869C986.526 95.2011 985.172 96.2495 984.986 97.7358L984.084 104.875L989.458 105.552L990.361 98.4126C990.547 96.9263 989.498 95.5727 988.012 95.3869Z" fill="#8A8A8A"/>
<path d="M996.69 96.4884C995.204 96.3026 993.85 97.3509 993.664 98.8372L992.762 105.977L998.136 106.653L999.039 99.514C999.224 98.0277 998.176 96.6742 996.69 96.4884Z" fill="#8A8A8A"/>
<path d="M1005.35 97.5766C1003.87 97.3908 1002.52 98.4391 1002.33 99.9254L1001.43 107.065L1006.8 107.742L1007.7 100.602C1007.89 99.1159 1006.84 97.7624 1005.35 97.5766Z" fill="#8A8A8A"/>
<path d="M1014.02 98.6778C1012.53 98.492 1011.18 99.5404 1011 101.027L1010.09 108.166L1015.47 108.843L1016.37 101.703C1016.56 100.217 1015.51 98.8636 1014.02 98.6778Z" fill="#8A8A8A"/>
<path d="M985.051 118.809C983.565 118.623 982.211 119.671 982.026 121.158L981.123 128.297L986.498 128.974L987.4 121.835C987.586 120.348 986.538 118.995 985.051 118.809Z" fill="#8A8A8A"/>
<path d="M993.731 119.897C992.244 119.711 990.891 120.76 990.705 122.246L989.803 129.385L995.177 130.062L996.08 122.923C996.265 121.436 995.217 120.083 993.731 119.897Z" fill="#8A8A8A"/>
<path d="M1002.4 120.999C1000.91 120.813 999.556 121.861 999.37 123.347L998.468 130.487L1003.84 131.164L1004.74 124.024C1004.93 122.538 1003.88 121.184 1002.4 120.999Z" fill="#8A8A8A"/>
<path d="M1011.06 122.1C1009.58 121.914 1008.22 122.963 1008.04 124.449L1007.13 131.588L1012.51 132.265L1013.41 125.126C1013.6 123.639 1012.55 122.286 1011.06 122.1Z" fill="#8A8A8A"/>
<path d="M982.04 142.722C980.554 142.536 979.2 143.584 979.015 145.071L978.112 152.21L983.487 152.887L984.389 145.748C984.575 144.261 983.527 142.908 982.04 142.722Z" fill="#8A8A8A"/>
<path d="M990.705 143.823C989.218 143.637 987.865 144.686 987.679 146.172L986.776 153.311L992.151 153.988L993.054 146.849C993.239 145.362 992.191 144.009 990.705 143.823Z" fill="#8A8A8A"/>
<path d="M999.37 144.925C997.884 144.739 996.531 145.787 996.345 147.274L995.442 154.413L1000.82 155.09L1001.72 147.95C1001.9 146.464 1000.86 145.111 999.37 144.925Z" fill="#8A8A8A"/>
<path d="M1008.04 146.013C1006.55 145.827 1005.2 146.876 1005.01 148.362L1004.11 155.501L1009.48 156.178L1010.39 149.039C1010.57 147.552 1009.52 146.199 1008.04 146.013Z" fill="#8A8A8A"/>
<path d="M351.957 107.847C352.581 105.671 355.819 104.238 356.217 104.065C356.217 104.065 356.217 104.052 356.243 104.065H356.27C356.668 104.251 359.906 105.698 360.53 107.861C361.193 110.183 359.335 112.067 359.335 112.067H353.165C353.165 112.067 351.307 110.183 351.97 107.861L351.957 107.847Z" fill="#FAD5B4"/>
<path d="M312.94 117.946C314.851 113.275 323.318 110.077 323.41 110.037C323.503 110.077 331.956 113.262 333.88 117.946C335.805 122.644 330.669 128.629 330.669 128.629H316.138C316.138 128.629 311.016 122.644 312.927 117.946H312.94Z" fill="#F6B89A"/>
<path d="M314.72 135.33H332.383V127.501H314.72V135.33Z" fill="#E99978"/>
<path d="M307.591 154.28H338.073V130.062H307.591V154.28Z" fill="#FDF7D3"/>
<path d="M337.28 154.267H347.75V126.492H337.28V154.267Z" fill="#FAD5B4"/>
<path d="M338.406 126.492H346.554V124.422H338.406V126.492Z" fill="#E99978"/>
<path d="M298.82 154.267H309.29V126.492H298.82V154.267Z" fill="#FAD5B4"/>
<path d="M336.774 119.578C337.61 117.07 341.936 115.411 342.48 115.212V115.186C342.48 115.186 342.48 115.186 342.507 115.186C342.52 115.186 342.533 115.186 342.533 115.186V115.212C343.077 115.411 347.404 117.07 348.24 119.578C349.129 122.246 346.634 124.422 346.634 124.422H338.367C338.367 124.422 335.872 122.246 336.761 119.578H336.774Z" fill="#F6B89A"/>
<path d="M300.321 126.492H308.469V124.422H300.321V126.492Z" fill="#E99978"/>
<path d="M298.663 119.578C299.499 117.07 303.825 115.411 304.369 115.212V115.186C304.369 115.186 304.369 115.186 304.395 115.186C304.409 115.186 304.422 115.186 304.422 115.186V115.212C304.966 115.411 309.292 117.07 310.128 119.578C311.017 122.246 308.523 124.422 308.523 124.422H300.255C300.255 124.422 297.76 122.246 298.65 119.578H298.663Z" fill="#F6B89A"/>
<path d="M318.075 136.75C319.748 134.6 323.423 134.07 323.609 134.043C323.795 134.07 327.484 134.6 329.143 136.75C330.098 137.984 330.377 140.386 330.377 140.386V154.227H316.828V140.386C316.828 140.386 317.107 137.984 318.062 136.75H318.075Z" fill="#E99978"/>
<path d="M344.988 135.954H340.662V132.557C340.662 131.508 341.511 130.659 342.56 130.659H343.091C344.139 130.659 344.988 131.508 344.988 132.557V135.954Z" fill="#E99978"/>
<path d="M344.988 144.779H340.662V141.381C340.662 140.333 341.511 139.484 342.56 139.484H343.091C344.139 139.484 344.988 140.333 344.988 141.381V144.779Z" fill="#E99978"/>
<path d="M306.12 135.954H301.794V132.557C301.794 131.508 302.643 130.659 303.692 130.659H304.223C305.271 130.659 306.12 131.508 306.12 132.557V135.954Z" fill="#E99978"/>
<path d="M306.12 144.779H301.794V141.381C301.794 140.333 302.643 139.484 303.692 139.484H304.223C305.271 139.484 306.12 140.333 306.12 141.381V144.779Z" fill="#E99978"/>
<path d="M323.331 111.298H323.517C323.612 111.298 323.689 111.22 323.689 111.125V105.592C323.689 105.496 323.612 105.419 323.517 105.419H323.331C323.236 105.419 323.159 105.496 323.159 105.592V111.125C323.159 111.22 323.236 111.298 323.331 111.298Z" fill="#F6B89A"/>
<path d="M342.414 118.278H342.6C342.695 118.278 342.772 118.201 342.772 118.105V112.572C342.772 112.476 342.695 112.399 342.6 112.399H342.414C342.319 112.399 342.241 112.476 342.241 112.572V118.105C342.241 118.201 342.319 118.278 342.414 118.278Z" fill="#F6B89A"/>
<path d="M356.201 106.786H356.387C356.482 106.786 356.56 106.709 356.56 106.613V101.079C356.56 100.984 356.482 100.907 356.387 100.907H356.201C356.106 100.907 356.029 100.984 356.029 101.079V106.613C356.029 106.709 356.106 106.786 356.201 106.786Z" fill="#FAD5B4"/>
<path d="M304.251 116.924H304.437C304.532 116.924 304.609 116.847 304.609 116.751V111.218C304.609 111.122 304.532 111.045 304.437 111.045H304.251C304.156 111.045 304.078 111.122 304.078 111.218V116.751C304.078 116.847 304.156 116.924 304.251 116.924Z" fill="#F6B89A"/>
<path d="M352.461 154.214H359.72V119.393H352.461V154.214Z" fill="#FDF7D3"/>
<path d="M351.466 129H360.861V112.054H351.466V129Z" fill="#F6B89A"/>
<path d="M354.04 123.918H358.366V117.88C358.366 116.685 357.397 115.717 356.203 115.717C355.009 115.717 354.04 116.685 354.04 117.88V123.918Z" fill="#E99978"/>
<path d="M352.514 135.357H359.72V134.176H352.514V135.357Z" fill="#E99978"/>
<path d="M352.514 144.168H359.72V142.987H352.514V144.168Z" fill="#E99978"/>
<path d="M287.859 107.847C288.483 105.671 291.721 104.238 292.119 104.065C292.119 104.065 292.119 104.052 292.146 104.065H292.172C292.57 104.251 295.808 105.698 296.432 107.861C297.095 110.183 295.238 112.067 295.238 112.067H289.067C289.067 112.067 287.209 110.183 287.873 107.861L287.859 107.847Z" fill="#FAD5B4"/>
<path d="M292.094 106.786H292.28C292.375 106.786 292.452 106.709 292.452 106.613V101.079C292.452 100.984 292.375 100.907 292.28 100.907H292.094C291.999 100.907 291.921 100.984 291.921 101.079V106.613C291.921 106.709 291.999 106.786 292.094 106.786Z" fill="#FAD5B4"/>
<path d="M288.365 154.214H295.624V119.393H288.365V154.214Z" fill="#FDF7D3"/>
<path d="M287.37 129H296.765V112.054H287.37V129Z" fill="#F6B89A"/>
<path d="M289.932 123.918H294.258V117.88C294.258 116.685 293.289 115.717 292.095 115.717C290.9 115.717 289.932 116.685 289.932 117.88V123.918Z" fill="#E99978"/>
<path d="M288.418 135.357H295.624V134.176H288.418V135.357Z" fill="#E99978"/>
<path d="M288.418 144.168H295.624V142.987H288.418V144.168Z" fill="#E99978"/>
</g>
<defs>
<linearGradient id="paint0_linear_86_58181" x1="-2536.67" y1="141.965" x2="-2535.34" y2="156.563" gradientUnits="userSpaceOnUse">
<stop stop-color="#F9EB47"/>
<stop offset="0.08" stop-color="#E6E346"/>
<stop offset="0.25" stop-color="#C4D545"/>
<stop offset="0.43" stop-color="#AACA44"/>
<stop offset="0.62" stop-color="#97C343"/>
<stop offset="0.8" stop-color="#8BBE43"/>
<stop offset="1" stop-color="#88BD43"/>
</linearGradient>
<clipPath id="clip0_86_58181">
<rect width="1440" height="157" fill="white"/>
</clipPath>
</defs>
</svg>
