<svg width="353" height="31" viewBox="0 0 353 31" fill="none" xmlns="http://www.w3.org/2000/svg">
<path d="M19 1H334" stroke="#70D44B" stroke-width="2" stroke-miterlimit="10"/>
<path d="M8.3036 11.4822V19.6252L10.0222 20.1231C9.87761 20.4925 9.73304 20.8137 9.60455 21.1028H16.3021V30.1613H14.0214V29.5831H4.2241V30.1613H1.94344V21.1028H7.01873C7.09903 20.8458 7.16328 20.621 7.22753 20.364H6.10323V18.1154C5.7017 18.4366 5.28408 18.7258 4.86648 19.0149C3.51735 19.8982 2.29676 20.5246 1.22066 20.9422L0.160573 19.063C1.12424 18.7097 2.23248 18.1475 3.48525 17.3927C4.51316 16.7663 5.38049 16.1238 6.1193 15.4493V14.4053C5.58928 14.8711 5.05922 15.3047 4.46496 15.7223C3.21218 16.5575 2.05579 17.1839 1.05999 17.6015L0 15.7223C0.899426 15.385 1.9273 14.8229 3.06764 14.068C3.2925 13.9235 3.53349 13.7789 3.74228 13.6022H0.256936V11.4661H8.31968L8.3036 11.4822ZM14.0214 24.2829V23.3192H4.2241V24.2829H14.0214ZM14.0214 27.4791V26.4191H4.2241V27.4791H14.0214ZM9.13881 13.6986V11.4019H17.4424V20.4604H15.226V17.9066C14.8566 18.1957 14.455 18.4848 14.0375 18.7579C12.7365 19.5931 11.5479 20.2034 10.504 20.621L9.44398 18.7418C10.3916 18.4045 11.4516 17.8584 12.6401 17.1196C13.6359 16.4932 14.5193 15.8669 15.226 15.2244V14.2768C14.6478 14.8068 13.9732 15.3047 13.2665 15.7544C11.9335 16.5896 10.7449 17.1999 9.70091 17.5854L8.64092 15.7062C9.58853 15.369 10.6646 14.8229 11.8692 14.1001C12.0941 13.9716 12.3028 13.8271 12.5116 13.6825H9.12273L9.13881 13.6986Z" fill="#595757"/>
<path d="M38.5305 14.0035H39.5585V15.7221H38.4181L38.2575 18.0991H27.5287C27.5768 18.2598 27.6089 18.3882 27.6571 18.5007L25.6977 19.3198C25.5692 18.8379 25.4246 18.3882 25.2961 17.9225V30.0968H23.0155V17.6334C22.8227 18.9665 22.5497 20.2032 22.1963 21.3756L20.2368 20.3959C20.7347 18.5971 21.0721 16.7982 21.2166 15.0154L23.0155 15.4491V11.3374H25.2961V15.4491L26.2758 15.0154C26.7416 15.9469 27.1592 16.9588 27.5126 18.0349L27.8017 15.7381H26.6774V14.0196H28.0105L28.2996 11.6586H38.7393L38.5466 14.0196L38.5305 14.0035ZM38.5787 18.6613V27.5592H36.9566C37.085 27.6074 37.2135 27.6395 37.3259 27.6555C38.0326 27.8643 38.7715 28.0089 39.4782 28.1213L38.2414 30.2575C37.5026 30.0487 36.7959 29.7917 36.1053 29.5026C35.2861 29.1492 34.5474 28.7798 33.8246 28.3783L34.5955 27.5592H30.789L31.7687 28.8601C30.4357 29.4383 28.926 29.9041 27.3038 30.2575L26.2437 28.298C27.2395 28.1374 28.2193 27.8804 29.2311 27.5752H27.4643V18.6773H38.5787V18.6613ZM36.2819 21.1026V20.5404H29.7611V21.1026H36.2819ZM36.2819 23.319V22.8211H29.7611V23.319H36.2819ZM36.2819 25.68V25.0376H29.7611V25.68H36.2819ZM31.9133 15.7221H29.8735L29.7932 16.3645H31.817L31.9133 15.7221ZM30.1145 14.0035H32.1863L32.2827 13.3611H30.1948L30.1145 14.0035ZM34.0334 15.7221L33.921 16.3645H36.1374L36.2016 15.7221H34.0334ZM34.2903 14.0035H36.3784L36.4426 13.3611H34.4028L34.2903 14.0035Z" fill="#595757"/>
<path d="M44.2007 11.562V21.3593C44.2007 23.2385 44.0561 24.9731 43.7831 26.515C43.5261 27.9283 43.2048 29.0847 42.8194 30.0002L41.0205 28.6029C41.3899 27.6071 41.6951 26.4507 41.9039 25.1819C42.0645 23.9452 42.177 22.6763 42.177 21.3593V11.562H44.2007ZM46.6419 12.879V27.3019H44.6986V12.879H46.6419ZM49.3242 11.562V29.0205H47.2202V11.562H49.3242ZM60.2778 11.562V13.6981H56.375L56.1181 14.8224H59.7799V26.5792H58.1096C58.4469 26.8522 58.7842 27.0771 59.1536 27.2698C59.6355 27.5589 60.1172 27.7998 60.5991 27.9605L59.3945 30.1769C58.8163 29.8878 58.2703 29.5505 57.7402 29.1811C57.0978 28.7153 56.5035 28.2174 55.9735 27.6553L57.2744 26.5953H53.0503L54.3513 27.6553C53.3555 28.6511 52.1348 29.4863 50.7536 30.1769L49.5169 28.0408C50.4806 27.6714 51.38 27.1895 52.183 26.5792H50.2396V14.8224H53.7731L54.0301 13.6981H49.9344V11.562H60.2939H60.2778ZM57.4993 18.0989V16.9586H52.5364V18.0989H57.4993ZM57.4993 21.279V20.1226H52.5364V21.279H57.4993ZM57.4993 24.4431V23.3188H52.5364V24.4431H57.4993Z" fill="#595757"/>
<path d="M68.3242 17.3444C67.9066 18.2438 67.4087 19.1112 66.7824 19.9945V30.0809H64.4213V22.6607C64.2125 22.8695 64.0198 23.014 63.8592 23.1425L62.2852 21.1027C62.9918 20.4924 63.7629 19.7054 64.5659 18.7257C65.2565 17.8423 65.8026 16.9911 66.2202 16.1398L68.3242 17.3444ZM67.8424 12.6385C67.4248 13.4737 66.8787 14.3249 66.1881 15.2083C65.2726 16.2683 64.5177 17.0232 63.9395 17.4408L62.3655 15.4171C62.9759 14.9192 63.6182 14.2928 64.3089 13.4898C64.8871 12.7991 65.3528 12.1085 65.7062 11.4018L67.8424 12.6385ZM76.0175 19.4003V21.7612H80.1773V24.058H76.0175V27.1257C76.9009 27.2542 77.9609 27.3184 79.1655 27.3184C79.8079 27.3184 80.4986 27.2702 81.2374 27.1578L80.4183 29.8561H79.1655C76.2905 29.8561 74.2347 29.5188 73.0301 28.8924C72.1307 28.4748 71.4079 27.9769 70.8297 27.3666C70.4924 28.4106 70.0428 29.3421 69.4806 30.1773L67.2803 28.8603C67.9066 28.009 68.4045 26.9972 68.7579 25.8408C69.1112 24.6041 69.32 22.9177 69.3843 20.7815H71.7613C71.7613 22.2431 71.6489 23.544 71.4883 24.6683C72.0344 25.4071 72.6767 25.9693 73.4316 26.3547C73.4959 26.4029 73.5601 26.435 73.6243 26.4511V19.4003H76.0015H76.0175ZM72.982 11.8997C72.8856 12.7509 72.725 13.554 72.5643 14.3089C72.7731 14.5819 72.998 14.8389 73.2389 15.0477C73.6565 15.4492 74.058 15.7544 74.4435 15.9792L73.0622 18.3402C72.6446 18.0029 72.227 17.5853 71.8255 17.0874C71.7613 17.0232 71.7131 16.959 71.6971 16.9268C71.1992 18.1154 70.5889 19.1754 69.8822 20.1391L68.1636 18.5169C68.9024 17.4729 69.4806 16.3807 69.8982 15.3046C70.3158 14.1001 70.6049 12.7991 70.7816 11.4178L72.982 11.9157V11.8997ZM78.8603 11.8997C78.7318 12.8634 78.5713 13.7307 78.3143 14.5498C78.6837 15.0156 79.0692 15.4331 79.4386 15.7865C80.0489 16.3647 80.6432 16.8465 81.2374 17.1999L79.8401 19.5609C79.2298 19.0951 78.6515 18.5329 78.0894 17.8423C77.8324 17.5532 77.5915 17.2641 77.3505 16.9268C76.8848 17.7781 76.3869 18.549 75.8408 19.2236L74.0419 17.505C74.7486 16.6056 75.3108 15.6901 75.7124 14.7264C76.13 13.6985 76.419 12.5903 76.5636 11.3857L78.8442 11.8836L78.8603 11.8997Z" fill="#595757"/>
<path d="M92.7211 11.7388C92.4962 12.3491 92.2553 12.8792 92.0305 13.361H100.639V30.0807H98.198V28.844H86.8588V30.0807H84.4175V13.361H89.3804C89.7016 12.6061 89.9585 11.8191 90.1995 11L92.7211 11.7388ZM98.1819 17.6815V15.6417H86.8427V17.6815H98.1819ZM98.1819 22.0983V19.9621H86.8427V22.0983H98.1819ZM98.1819 26.5793V24.3629H86.8427V26.5793H98.1819Z" fill="#595757"/>
<path d="M120.7 11.8998V22.0023H118.259V20.7013H107.979V26.1461C107.979 26.8528 108.734 27.2061 110.26 27.2382C110.726 27.2864 112.123 27.3025 114.452 27.3025C116.139 27.3025 117.038 27.2864 117.118 27.2222C118.58 27.174 119.415 27.0776 119.608 26.9491C119.817 26.66 119.977 25.7767 120.138 24.3633L122.659 25.7606C122.435 27.431 122.081 28.5231 121.599 29.0532C121.342 29.3101 120.652 29.4707 119.56 29.551C119.27 29.6153 117.568 29.6474 114.468 29.6474C111.368 29.6474 109.313 29.5832 108.686 29.5029C106.598 29.4226 105.554 28.5392 105.554 26.8688V18.3082H118.275V14.2287H105.554V11.8677H120.716L120.7 11.8998Z" fill="#595757"/>
<path d="M127.718 29.5829H125.357V14.2606H127.237C127.51 13.2648 127.718 12.253 127.879 11.225L130.32 11.8032C130.16 12.6866 129.967 13.4897 129.742 14.2445H132.858V17.9868C133.372 17.1034 133.838 16.1558 134.239 15.0797C134.818 13.7306 135.267 12.4296 135.556 11.209L137.998 11.9639C137.789 12.7348 137.58 13.4897 137.355 14.2445H143.217C143.217 22.243 142.944 26.8847 142.447 28.1535C142.045 29.5348 141.097 30.2415 139.572 30.2415C138.785 30.2415 137.981 30.113 137.194 29.9042L136.713 27.3826C137.885 27.6556 138.849 27.7841 139.572 27.7841C140.005 27.7841 140.294 27.4468 140.423 26.7883C140.648 25.6159 140.776 22.2109 140.776 16.5413H136.488C135.91 18.051 135.283 19.3199 134.56 20.3799L132.842 19.1111V28.7799H130.481V27.6556H127.702V29.599L127.718 29.5829ZM130.481 20.0426V16.5413H127.702V20.0426H130.481ZM130.481 22.2591H127.702V25.4392H130.481V22.2591ZM139.218 24.1382L136.697 24.9573C136.408 23.2227 135.926 21.6327 135.299 20.2193L137.596 19.4805C138.287 20.8778 138.833 22.4197 139.218 24.1382Z" fill="#595757"/>
<path d="M156.58 23.1258C157.078 22.5797 157.528 22.0336 157.945 21.5196C157.512 19.5602 157.239 17.3598 157.11 14.9024H149.24V21.102C149.24 22.8527 149.096 24.5231 148.839 26.1613C148.63 27.4783 148.277 28.7954 147.779 30.1766L145.675 28.9399C146.173 27.2535 146.51 25.7919 146.671 24.5552C146.863 23.0455 146.96 21.5196 146.96 20.0099V12.7181H157.03C157.014 12.2523 157.014 11.7705 157.014 11.3208H159.536V12.7181H160.419C160.258 12.5093 160.098 12.3166 159.937 12.1399L161.736 11.0156C162.218 11.5617 162.635 12.1399 162.989 12.7342H164.258V14.9185H159.6C159.648 16.3158 159.712 17.5686 159.825 18.6608C160.435 17.6007 160.933 16.5567 161.334 15.5128L163.615 16.2516C162.78 18.1789 161.961 19.7529 161.174 21.0057C160.917 21.4233 160.644 21.8248 160.387 22.1942C160.724 23.9128 161.126 25.3101 161.559 26.3701C161.897 27.2535 162.186 27.6711 162.394 27.6711C162.475 27.6711 162.523 27.5586 162.555 27.3177C162.603 27.0286 162.668 26.1935 162.716 24.8122L164.852 26.5307C164.563 28.2814 164.161 29.3735 163.615 29.759C163.342 30.0481 162.924 30.1927 162.378 30.1927C161.672 30.1927 160.965 29.5663 160.242 28.3296C159.632 27.2856 159.102 25.9525 158.636 24.3464C158.508 24.491 158.411 24.6194 158.299 24.7158C158.556 25.294 158.781 25.8883 158.941 26.5147L157.223 27.0768C157.014 26.0971 156.693 25.1977 156.243 24.3785L157.399 24.0412L156.42 23.3345C156.42 23.3345 156.516 23.2061 156.564 23.1739H151.923V23.4791H149.819V18.1789H156.58V23.1418V23.1258ZM151.457 24.6998C151.328 26.2898 151.023 27.7514 150.557 29.1005L148.839 28.2814C149.305 26.9483 149.61 25.6152 149.738 24.2661L151.457 24.6837V24.6998ZM156.677 15.5609V17.6007H149.835V15.5609H156.677ZM153.641 23.977V27.1571C153.641 27.5908 153.786 27.8317 154.107 27.8478C154.235 27.8959 154.428 27.8959 154.669 27.8959C155.215 27.8959 155.52 27.8799 155.649 27.8317C155.729 27.7674 155.793 27.6711 155.841 27.5265C155.89 27.4462 155.906 27.1732 155.954 26.6913L157.913 27.8156C157.817 28.7311 157.624 29.2933 157.351 29.5502C157.142 29.6627 156.885 29.743 156.564 29.7751C156.339 29.8233 155.713 29.8554 154.685 29.8554C154.203 29.8554 153.77 29.8072 153.384 29.7751C152.324 29.7269 151.794 29.0684 151.794 27.8156V23.9931H153.657L153.641 23.977ZM154.46 21.1984V20.1384H151.939V21.1984H154.46ZM156.5 25.9365L154.701 26.4986C154.492 25.5349 154.203 24.6837 153.802 23.8967L155.424 23.3988C155.89 24.1697 156.243 25.021 156.484 25.9525L156.5 25.9365Z" fill="#595757"/>
<path d="M184.157 13.3618C183.387 13.4903 182.616 13.6188 181.813 13.6991L183.917 14.4379C183.435 15.53 182.937 16.5098 182.439 17.361H185.298V21.6012H182.857V19.6578H169.381V21.6012H166.94V17.361H169.992C169.622 16.6865 169.172 16.044 168.658 15.4176L170.008 14.5664C169.445 14.5824 168.883 14.6146 168.337 14.6146L167.582 12.3981C172.722 12.3981 177.862 12.0287 183.017 11.2417L184.141 13.3778L184.157 13.3618ZM182.6 20.782V22.5809C181.62 24.1067 180.447 25.3595 179.114 26.3231C180.785 26.9495 182.792 27.4314 185.121 27.8008L183.82 30.3224C181.026 29.7442 178.584 28.909 176.528 27.8168C174.312 28.909 171.774 29.6799 168.883 30.1778L167.647 27.8811C170.2 27.5438 172.369 27.0298 174.167 26.3553C172.867 25.4398 171.806 24.3637 170.971 23.1591H169.702V20.782H182.584H182.6ZM175.227 17.345C174.81 16.6383 174.312 15.9476 173.702 15.3213L175.292 14.2933C173.975 14.3736 172.626 14.4539 171.244 14.5021C171.726 15.1767 172.144 15.8834 172.497 16.6061L171.26 17.3289H175.227V17.345ZM176.673 25.1989C177.717 24.6207 178.616 23.93 179.339 23.1591H173.894C174.649 23.9461 175.581 24.6207 176.673 25.1989ZM179.596 17.345C180.287 16.1404 180.833 14.9358 181.218 13.7794C179.644 13.9721 178.022 14.1167 176.336 14.2452C176.946 14.9518 177.46 15.6906 177.878 16.4616L176.352 17.361H179.58L179.596 17.345Z" fill="#595757"/>
<path d="M195.738 13.8436V11.2417H198.259V13.8436H205.519V16.1404H198.259V19.5614H206.515V21.8421H196.492C196.171 22.6612 195.754 23.6249 195.224 24.7492C194.854 25.5201 194.469 26.2107 194.099 26.7889C196.557 26.6444 198.95 26.3874 201.279 26.018C200.861 25.3434 200.444 24.701 199.978 24.0585L202.194 22.9985C203.672 24.7973 204.925 26.7729 205.936 28.9572L203.334 30.1939C203.078 29.5193 202.788 28.8608 202.483 28.2023C198.532 28.9411 194.051 29.3908 188.992 29.5996L188.414 26.9977C189.377 26.9977 190.309 26.9977 191.24 26.9495C191.674 26.2428 192.124 25.4398 192.574 24.5725C193.039 23.6088 193.425 22.7094 193.762 21.8581H187.691V19.5775H195.77V16.1564H189.008V13.8597H195.77L195.738 13.8436Z" fill="#595757"/>
<path d="M215.075 12.2201V14.5169H212.939V18.1145H214.657V20.3953H212.939V24.8763C213.678 24.7157 214.352 24.539 214.979 24.3784L215.236 26.5949C213.308 27.2052 211.204 27.7352 208.956 28.217L208.538 25.7757C209.245 25.6472 209.935 25.5188 210.578 25.3742V20.3792H208.779V18.0985H210.578V14.5008H208.618V12.204H215.075V12.2201ZM226.719 11.7383V22.4993H222.319V23.6396H226.639V25.9364H222.319V27.4782H227.394V29.7589H214.738V27.4782H219.958V25.9364H215.461V23.6396H219.958V22.4993H215.557V11.7383H226.735H226.719ZM219.958 15.8018V14.0029H217.934V15.8018H219.958ZM219.958 20.2186V18.1145H217.934V20.2186H219.958ZM222.319 15.8018H224.358V14.0029H222.319V15.8018ZM222.319 20.2186H224.358V18.1145H222.319V20.2186Z" fill="#595757"/>
<path d="M233.995 11.739C233.915 11.9478 233.835 12.1406 233.771 12.3012H237.754V14.0197C237.433 14.6301 237.111 15.1601 236.774 15.6419H238.734V27.5593C238.734 29.2296 238.027 30.0809 236.597 30.0809C235.955 30.0809 235.248 30.0006 234.461 29.8239L233.979 27.4629C234.766 27.736 235.457 27.8645 236.019 27.8645C236.389 27.8645 236.581 27.6396 236.581 27.1256V25.5035H232.486C232.438 26.3386 232.357 27.1096 232.229 27.8163C232.068 28.6996 231.811 29.4706 231.522 30.1612L229.386 29.3421C229.675 28.6514 229.916 27.8323 230.077 26.8526C230.269 25.9371 230.366 24.7486 230.366 23.287V17.5853C230.221 17.7459 230.093 17.8744 229.964 18.0029L228.824 15.8668C230.205 14.357 231.201 12.7509 231.827 11.0645L233.963 11.7069L233.995 11.739ZM234.268 15.6419C234.542 15.2725 234.799 14.871 235.023 14.4373H232.678C232.534 14.6622 232.405 14.871 232.277 15.0797C232.148 15.2885 232.02 15.4813 231.924 15.6419H234.268ZM233.514 19.5608V17.762H232.534V19.5608H233.514ZM233.514 23.3834V21.5845H232.534V23.3834H233.514ZM235.537 19.5608H236.597V17.762H235.537V19.5608ZM235.537 23.3834H236.597V21.5845H235.537V23.3834ZM248.194 11.8996C248.194 15.4652 247.92 17.4408 247.423 17.762C247.005 18.1956 246.314 18.4044 245.335 18.4044C244.837 18.4044 244.226 18.3562 243.536 18.2438L243.054 16.0595C243.841 16.2201 244.515 16.3165 245.078 16.3165C245.302 16.3165 245.479 16.2522 245.56 16.0916C245.688 15.9471 245.768 15.2564 245.816 14.0197H243.472C243.311 14.9031 243.038 15.674 242.652 16.3004C242.122 17.1998 241.352 17.9065 240.356 18.4366L238.878 16.5574C239.665 16.2201 240.275 15.7383 240.693 15.144C240.902 14.8388 241.062 14.4534 241.191 14.0358H239.296V11.9318H248.194V11.8996ZM241.094 23.9777L238.958 23.3352C239.488 21.7773 239.89 20.2193 240.195 18.6775L242.379 19.2396C242.299 19.6411 242.219 19.9945 242.122 20.2996H242.958V18.7578H245.238V20.2996H247.84V22.5H245.238V24.5398H248.418V26.7562H245.238V30.097H242.958V26.7562H239.119V24.5398H242.958V22.5H241.56C241.4 23.0461 241.223 23.544 241.078 23.9777H241.094Z" fill="#595757"/>
<path d="M259.757 13.105C258.761 13.5386 257.621 13.9241 256.416 14.2293V16.8633H259.757V19.144H256.416V19.7865C257.75 20.7501 258.922 21.6656 259.918 22.565L258.456 24.6048C257.766 23.8339 257.075 23.1272 256.416 22.5008V30.162H253.975V23.4805C253.365 24.5245 252.658 25.456 251.871 26.3233L250.394 24.5245C251.084 23.8178 251.807 22.8381 252.61 21.5532C253.092 20.7822 253.509 19.9631 253.863 19.1279H250.474V16.8473H253.975V14.7593C253.156 14.9199 252.321 15.0966 251.454 15.2251L250.394 12.9283C252.048 12.7356 253.525 12.5107 254.826 12.2216C256.063 11.9646 257.171 11.6595 258.151 11.3062L259.773 13.105H259.757ZM268.655 29.5035H266.294V28.0419H262.616V29.7604H260.255V12.9444H268.655V29.5035ZM266.294 25.7612V15.2411H262.616V25.7612H266.294Z" fill="#595757"/>
<path d="M275.578 19.9619V26.2418C276.461 26.9485 277.457 27.3661 278.629 27.4464C279.464 27.607 281.568 27.7034 284.957 27.7034C286.917 27.7034 288.571 27.5749 289.952 27.3018C289.486 28.137 289.133 29.0204 288.892 30.0001H282.773C280.556 30.0001 278.79 29.8074 277.441 29.4701C276.477 29.1971 275.513 28.651 274.598 27.864C273.923 28.5707 273.233 29.2774 272.574 30.0001C272.076 29.1489 271.546 28.3458 271.016 27.6391C271.771 27.3179 272.526 26.9967 273.233 26.6594V22.2586H271.434V19.9619H275.594H275.578ZM275.658 17.3439L274.036 19.3837C273.2 18.5485 272.317 17.8418 271.434 17.2475L273.152 15.4648C274.068 16.0108 274.903 16.6051 275.674 17.3279L275.658 17.3439ZM276.172 13.2001L274.517 15.2399C273.698 14.4047 272.863 13.698 271.996 13.1038L273.618 11.3852C274.534 11.8831 275.401 12.4934 276.172 13.1841V13.2001ZM284.218 11.2246V12.381H289.358V14.5172H286.949C286.804 14.8544 286.66 15.1917 286.515 15.4969C286.451 15.6254 286.419 15.7217 286.371 15.8181H289.278V25.1175C289.278 26.6594 288.426 27.4143 286.756 27.4143H285.632L285.214 25.3745C285.776 25.503 286.306 25.5351 286.756 25.5351C286.965 25.5351 287.093 25.246 287.093 24.6357V17.9542H279.095V26.9164H276.895V15.8342H279.304L278.966 14.5332H276.654V12.3971H281.793V11.2407H284.234L284.218 11.2246ZM281.954 18.8376V18.0988H284.138V18.8376H286.66V20.7168H284.138V21.2789H286.274V25.1818H281.777V26.0009H279.818V21.2789H281.954V20.7168H279.512V18.8376H281.954ZM284.01 15.8021C284.09 15.5451 284.202 15.3202 284.283 15.0632C284.347 14.8705 284.411 14.6938 284.443 14.5011H281.36L281.713 15.8021H284.01ZM284.315 23.5596V22.9171H281.793V23.5596H284.315Z" fill="#595757"/>
<path d="M295.253 20.782C295.253 22.5809 295.108 24.3155 294.851 25.9859C294.642 27.335 294.305 28.7002 293.855 30.0975L291.751 28.8608C292.217 27.1423 292.538 25.6486 292.715 24.3958C292.876 22.8539 292.972 21.2799 292.972 19.7381V12.3017H300.971V11.2417H303.332V12.3017H310.848V14.4379H305.564L307.17 14.8394C307.106 15.1125 307.026 15.3694 306.945 15.5782H310.35V17.618H306.608V18.1801H309.692V20.0593H306.608V20.6375H309.692V22.5006H306.608V23.0788H310.431V25.1025H304.102C304.44 25.4558 304.793 25.8413 305.13 26.2429L303.187 27.7847C302.753 27.1583 302.255 26.5319 301.709 25.9216L302.898 25.0864H300.087V19.8826C299.959 20.0272 299.862 20.1557 299.75 20.2841L298.706 18.3247C299.67 17.088 300.36 15.8031 300.81 14.4218H298.369L299.686 14.8234C299.348 15.5782 298.979 16.301 298.545 16.9916V24.9419H296.409V19.722C296.265 19.8665 296.136 19.995 296.008 20.1235L295.269 18.7905V20.782H295.253ZM298.256 26.1625C297.887 27.6241 297.485 28.8287 297.052 29.8405L294.835 28.7002C295.365 27.6081 295.767 26.532 296.072 25.4398L298.272 26.1786L298.256 26.1625ZM295.253 14.4218V17.6019C296.216 16.574 296.923 15.514 297.421 14.4218H295.253ZM300.954 25.6807V27.2226C300.954 27.7205 301.228 27.9775 301.774 27.9935C302.031 28.0417 302.352 28.0417 302.801 28.0417C303.974 28.0417 304.681 28.0417 304.905 27.9935C305.13 27.9293 305.275 27.8329 305.339 27.6883C305.403 27.6241 305.468 27.3511 305.532 26.9013L307.732 28.1381C307.604 29.0535 307.315 29.6157 306.881 29.8566C306.592 29.953 306.19 30.0493 305.676 30.1136C305.339 30.1618 304.375 30.1939 302.818 30.1939C302.127 30.1939 301.501 30.1457 300.954 30.0815C299.445 30.0333 298.706 29.3266 298.706 27.9774V25.6968H300.987L300.954 25.6807ZM301.741 14.4218L302.834 14.743C302.721 15.0321 302.625 15.3052 302.512 15.5622H304.536C304.665 15.1928 304.745 14.8073 304.825 14.4379H301.741V14.4218ZM304.376 17.6019H302.175V18.1641H304.376V17.6019ZM304.376 20.0432H302.175V20.6214H304.376V20.0432ZM304.376 22.4845H302.175V23.0627H304.376V22.4845ZM311.057 28.379L309.033 29.5836C308.535 28.5396 307.893 27.5438 307.074 26.5801L309.033 25.3434C309.868 26.3071 310.543 27.3029 311.057 28.3629V28.379Z" fill="#595757"/>
<path d="M319.296 12.0434V14.2599H317.337V18.5H318.959V20.7165H317.337V25.0209C317.963 24.8924 318.573 24.7639 319.135 24.6193L319.392 26.8036C317.513 27.3497 315.49 27.8476 313.273 28.2813L312.855 25.84C313.61 25.7115 314.317 25.6151 314.992 25.4866V20.7004H313.273V18.484H314.992V14.2438H313.113V12.0274H319.312L319.296 12.0434ZM330.973 19.6404V24.0411H327.744C327.937 24.5872 328.178 25.0691 328.499 25.4866C328.644 25.3742 328.772 25.2778 328.869 25.1975C329.142 24.9405 329.366 24.6514 329.575 24.3623L331.374 25.5991C331.005 26.0809 330.539 26.5145 329.977 26.9C329.929 26.9482 329.896 26.9643 329.88 26.9643C330.426 27.43 331.069 27.8476 331.808 28.217L330.234 30.0962C329.029 29.3413 327.985 28.3777 327.118 27.2213C326.411 26.2576 325.929 25.2136 325.64 24.0733H325.335C324.869 24.6193 324.436 25.069 323.97 25.4706V27.5425C324.885 27.3819 325.72 27.1891 326.491 26.9964L326.652 28.7952C324.869 29.2931 322.942 29.7589 320.854 30.1926L320.533 28.1528C320.966 28.0885 321.416 28.0243 321.834 27.944V26.884C321.352 27.157 320.918 27.3658 320.533 27.5103L319.473 25.6312C320.228 25.3742 321.047 25.0209 321.914 24.523C322.171 24.3784 322.396 24.2339 322.605 24.0893H320.452V19.6886H330.973V19.6404ZM331.615 17.1991V19.1425H319.633V17.1991H331.615ZM331.374 11.7383V16.7012H320.292V11.7383H331.374ZM323.295 14.822V13.6174H322.396V14.822H323.295ZM328.852 22.178V21.5356H322.572V22.178H328.852ZM325.335 14.822H326.234V13.6174H325.335V14.822ZM328.274 14.822H329.254V13.6174H328.274V14.822Z" fill="#595757"/>
<path d="M335.534 15.6414V11.4816H337.83V15.6414H339.549V17.9382H337.83V23.7684C338.505 23.5756 339.147 23.3668 339.774 23.158L340.191 25.2621C338.441 26.017 336.513 26.6594 334.409 27.2215L333.59 24.7802C334.265 24.6518 334.907 24.5072 335.534 24.3466V17.9382H333.815V15.6414H335.534ZM351.691 18.3397V25.4388H348.351V26.7558C348.351 27.1894 348.415 27.4464 348.543 27.5267C348.688 27.6552 348.881 27.7194 349.121 27.7194C349.491 27.7194 349.748 27.7194 349.908 27.6713C350.069 27.6713 350.182 27.607 350.262 27.5106C350.39 27.3821 350.471 26.9646 350.535 26.2579L352.816 27.3179C352.735 27.9443 352.591 28.5546 352.35 29.1328C352.205 29.4701 351.916 29.695 351.45 29.8074C350.952 29.8877 350.149 29.9359 349.105 29.9359C348.061 29.9359 347.499 29.8556 347.339 29.6789C346.455 29.5986 346.038 28.8598 346.038 27.4785V25.4388H345.09C344.833 26.3542 344.399 27.1573 343.821 27.864C342.842 28.908 341.3 29.6628 339.18 30.0965L338.36 27.7998C340.015 27.5267 341.171 27.093 341.846 26.4827C342.183 26.1454 342.456 25.8082 342.665 25.4388H340.497V18.3397H351.659H351.691ZM347.371 11.2246V12.5416H351.916V14.5814H350.374C350.294 14.7902 350.23 14.999 350.149 15.2078C350.069 15.4326 349.989 15.6254 349.892 15.786H352.334V17.8258H339.935V15.786H342.504L342.215 14.5814H340.352V12.5416H344.994V11.2246H347.371ZM349.314 20.9416V20.3795H342.89V20.9416H349.314ZM349.314 23.3829V22.8208H342.89V23.3829H349.314ZM347.403 15.8021C347.483 15.5933 347.563 15.3844 347.676 15.1275C347.756 14.9347 347.82 14.7581 347.869 14.5814H344.592L344.93 15.786H347.419L347.403 15.8021Z" fill="#595757"/>
</svg>
