<svg width="344" height="115" viewBox="0 0 344 115" fill="none" xmlns="http://www.w3.org/2000/svg">
<path d="M22.3572 92.6287C22.2869 92.787 22.3398 92.875 22.4805 92.8926L24.3455 93.1214C24.8206 93.1917 25.1724 93.4205 25.3836 93.8428C25.4891 94.0363 25.5421 94.2298 25.5421 94.4234C25.5421 94.6345 25.4717 94.8457 25.3485 95.0392C25.2782 95.1976 25.2078 95.3383 25.1198 95.4967C25.1022 95.5495 25.1022 95.5847 25.1198 95.6199C25.1374 95.6726 25.1901 95.6902 25.2429 95.6902H33.4775C34.023 95.6902 34.4803 95.8838 34.8498 96.2709C35.2193 96.658 35.4129 97.0979 35.4129 97.6257V108.042C35.4129 108.587 35.2193 109.045 34.8498 109.414C34.4803 109.784 34.023 109.978 33.4775 109.978H31.3483C31.0668 109.978 30.8206 109.872 30.6271 109.678C30.4336 109.485 30.3279 109.239 30.3279 108.957C30.3279 108.887 30.2928 108.851 30.2048 108.851H17.2196C17.2196 108.851 17.0963 108.887 17.0963 108.957C17.0963 109.239 16.9907 109.485 16.7971 109.678C16.6036 109.872 16.3574 109.978 16.0759 109.978H14.2107C13.6652 109.978 13.2077 109.784 12.8382 109.414C12.4687 109.045 12.2752 108.587 12.2752 108.042V97.6257C12.2752 97.0979 12.4687 96.658 12.8382 96.2709C13.2077 95.8838 13.6652 95.6902 14.2107 95.6902H19.8939C20.0698 95.6902 20.1755 95.6199 20.2283 95.4615C20.3163 95.2152 20.4394 94.8281 20.6153 94.2474C20.6153 94.2122 20.6153 94.1595 20.5625 94.1243C20.5273 94.0891 20.4922 94.0715 20.457 94.0891C19.9116 94.2474 19.2079 94.3354 18.3281 94.353H18.2224C17.7298 94.353 17.2722 94.1947 16.8499 93.8603C16.3925 93.526 16.0583 93.0862 15.8647 92.5231C15.7416 92.224 15.6008 91.8897 15.4425 91.5378C15.3721 91.3794 15.2664 91.3442 15.108 91.4146C13.894 91.9601 12.5744 92.5055 11.1844 93.0862C10.938 93.1917 10.6916 93.2445 10.4453 93.2445C10.199 93.2445 9.95276 93.1917 9.70642 93.0862C9.21376 92.8926 8.8617 92.5407 8.66816 92.048L8.50986 91.6609C8.40429 91.4498 8.35156 91.2211 8.35156 91.0099C8.35156 90.7636 8.42192 90.5173 8.54508 90.2533C8.75623 89.7959 9.10807 89.4967 9.58314 89.3384C10.6037 89.0393 11.7825 88.6698 13.1022 88.2299C13.1374 88.2123 13.1726 88.1771 13.1902 88.1243C13.1902 88.0715 13.1902 88.0188 13.1374 87.9836C12.6447 87.5261 11.8881 86.9806 10.9204 86.3472C10.4981 86.0657 10.2519 85.6786 10.1287 85.2035V84.8692C10.1287 84.4997 10.2518 84.1654 10.4805 83.8487L10.8149 83.4264C10.8149 83.4264 10.8677 83.3384 10.8502 83.3032C10.8326 83.2681 10.7797 83.2329 10.7269 83.2329H10.5686C10.0759 83.2329 9.63604 83.0569 9.26655 82.6874C8.89705 82.3355 8.70338 81.8956 8.70338 81.3854C8.70338 80.8751 8.89705 80.4352 9.26655 80.0657C9.63604 79.6962 10.0759 79.5027 10.5686 79.5027H20.6858C21.2312 79.5027 21.6888 79.6962 22.0583 80.0833C22.4278 80.4704 22.6212 80.9103 22.6212 81.4382V90.6052C22.6212 91.5026 22.5156 92.1712 22.322 92.6287H22.3572ZM16.8852 89.5847C16.9556 89.8662 16.9205 90.1478 16.7797 90.4117C16.639 90.6756 16.4453 90.8692 16.1813 90.9747C16.1813 91.0275 16.1814 91.0451 16.2165 91.0451H17.8178C18.1521 91.0451 18.3105 90.8868 18.3105 90.5524V83.4616C18.3105 83.2856 18.2401 83.1977 18.0817 83.1977H13.1902C13.1902 83.1977 13.1198 83.1977 13.1198 83.2505C13.1198 83.3032 13.1198 83.3033 13.155 83.3384C13.5597 83.5496 13.9645 83.7783 14.334 84.0247C14.7738 84.3062 15.0201 84.7108 15.0904 85.2387C15.108 85.3443 15.1257 85.4499 15.1257 85.5378C15.1257 85.9601 14.9849 86.3296 14.7034 86.6815L13.7884 87.8956C13.7884 87.8956 13.7708 87.9484 13.7884 87.9836C13.806 88.0188 13.8413 88.0188 13.8941 87.9836L14.7738 87.6845C14.9498 87.6141 15.108 87.5789 15.2663 87.5789C15.5303 87.5789 15.7943 87.6492 16.0583 87.8076C16.4453 88.0539 16.6916 88.3882 16.8147 88.8457L16.938 89.5671L16.8852 89.5847ZM30.0992 100.494C30.2751 100.494 30.3631 100.406 30.3631 100.23V99.5436C30.3631 99.3852 30.2751 99.3148 30.0992 99.3148H17.3603C17.1843 99.3148 17.0963 99.3852 17.0963 99.5436V100.23C17.0963 100.406 17.1843 100.494 17.3603 100.494H30.0992ZM17.1139 104.963C17.1139 105.139 17.2019 105.227 17.3779 105.227H30.1168C30.2927 105.227 30.3807 105.139 30.3807 104.963V104.312C30.3807 104.136 30.2927 104.048 30.1168 104.048H17.3779C17.2019 104.048 17.1139 104.136 17.1139 104.312V104.963ZM36.0111 79.5027C36.5566 79.5027 37.0141 79.6962 37.3836 80.0833C37.7531 80.4704 37.9465 80.9103 37.9465 81.4382V90.4469C37.9465 91.4322 37.8235 92.1712 37.5947 92.6815C37.3484 93.1917 36.9261 93.5964 36.2927 93.9131C35.5537 94.2474 34.4804 94.4234 33.0552 94.4762H32.9848C32.4569 94.4762 31.9994 94.3178 31.5771 93.9835C31.1196 93.6316 30.803 93.1741 30.6271 92.6111C30.4511 92.1184 30.2751 91.6609 30.0639 91.2387C29.9936 91.1155 29.8705 91.0627 29.7121 91.1155C29.5186 91.2035 28.4628 91.5906 26.5449 92.2944C26.2986 92.3824 26.0698 92.4175 25.8587 92.4175C25.5771 92.4175 25.2957 92.3647 25.0494 92.2592C24.5567 92.048 24.1872 91.6785 23.9761 91.1859L23.9409 91.1507C23.8529 90.9043 23.8178 90.6756 23.8178 90.4645C23.8178 90.2181 23.8705 89.9894 23.9761 89.7431C24.1872 89.2856 24.5391 88.9865 25.0141 88.8281C26.0346 88.529 27.0904 88.1947 28.1813 87.8076C28.2517 87.79 28.2868 87.7548 28.2868 87.702C28.2868 87.6493 28.2694 87.614 28.2166 87.5789C27.7239 87.1918 27.0903 86.7519 26.3162 86.2768C25.8763 85.9953 25.6124 85.6082 25.5245 85.1331C25.5069 85.01 25.4892 84.8868 25.4892 84.7812C25.4892 84.4293 25.6123 84.1126 25.8411 83.7959L26.1402 83.444C26.1402 83.444 26.1578 83.356 26.1402 83.3208C26.1227 83.2856 26.0874 83.2505 26.0346 83.2505C25.5419 83.2505 25.1021 83.0745 24.7502 82.7226C24.3983 82.3707 24.2048 81.9484 24.2048 81.4557V81.3854C24.2048 80.8927 24.3807 80.4528 24.7678 80.0833C25.1373 79.7138 25.5771 79.5203 26.0698 79.5203H35.9935L36.0111 79.5027ZM30.5566 87.0158C30.7326 86.9454 30.9086 86.9103 31.0846 86.9103C31.3485 86.9103 31.5947 86.9806 31.8411 87.1038C32.2458 87.3501 32.5098 87.6844 32.5977 88.1419C32.6329 88.3003 32.668 88.441 32.668 88.5994C32.668 88.9337 32.5802 89.2504 32.4042 89.5495C32.1579 90.007 31.8058 90.3237 31.3307 90.4997L30.6095 90.7988C30.6095 90.7988 30.5743 90.7988 30.5743 90.8516C30.5743 90.9043 30.5743 90.9043 30.6095 90.9043C31.2429 90.9219 31.9994 90.9395 32.8967 90.9395C33.0903 90.9219 33.231 90.8692 33.319 90.7988C33.407 90.7284 33.4423 90.6052 33.4423 90.4293V83.5144C33.4423 83.3384 33.3719 83.2505 33.2135 83.2505H28.7443C28.7443 83.2505 28.7091 83.2505 28.6915 83.3032C28.6915 83.3384 28.6915 83.356 28.6915 83.3912C29.0786 83.6024 29.4482 83.8135 29.765 84.007C30.2224 84.271 30.4863 84.6757 30.5566 85.2211C30.5742 85.3091 30.5919 85.4147 30.5919 85.5202C30.5919 85.9425 30.4688 86.312 30.2048 86.6287L29.8176 87.1566C29.8176 87.1566 29.8 87.2094 29.8176 87.2446C29.8352 87.2798 29.8528 87.2974 29.888 87.2974C30.0816 87.227 30.3103 87.1566 30.5743 87.0686L30.5566 87.0158Z" fill="#1CACC6"/>
<path d="M70.3916 82.1418C70.3916 82.3177 70.462 82.4057 70.6203 82.4057H71.0074C71.5528 82.4057 72.0103 82.5992 72.3798 82.9687C72.7493 83.3382 72.9428 83.7957 72.9428 84.3412V84.5347C72.9428 85.0802 72.7493 85.5376 72.3798 85.9071C72.0103 86.2766 71.5528 86.4702 71.0074 86.4702H70.3563C70.1804 86.4702 70.0924 86.5582 70.0924 86.7341L69.9869 87.913C69.9693 88.4584 69.7582 88.9159 69.3535 89.2854C68.9488 89.6549 68.4736 89.8485 67.9282 89.8485H55.4005C54.9078 89.8485 54.468 89.6549 54.1337 89.2678C53.7993 88.9335 53.6409 88.564 53.6409 88.1241C53.6409 88.0538 53.641 88.001 53.6762 87.9306L53.7816 86.7517C53.7992 86.5757 53.7288 86.4878 53.5529 86.4878H51.9166C51.9166 86.4878 51.7935 86.523 51.7583 86.5758C51.7232 86.6285 51.7055 86.6813 51.7231 86.7517C52.0046 87.7194 52.1981 88.6168 52.3037 89.4966C52.3213 89.5845 52.3389 89.6725 52.3389 89.7605C52.3389 90.0948 52.2333 90.3939 52.0397 90.6754C51.7934 91.0273 51.4768 91.2561 51.0545 91.3968C50.7026 91.52 50.3858 91.4848 50.0691 91.2913C49.7699 91.0801 49.5941 90.7986 49.5413 90.4291C49.4534 89.7605 49.3301 89.0215 49.1893 88.2473C49.1893 88.2297 49.1893 88.2121 49.1541 88.2121C49.1189 88.2121 49.1191 88.2121 49.1191 88.2473V108.024C49.1191 108.57 48.9254 109.027 48.5559 109.397C48.1864 109.766 47.7289 109.96 47.1834 109.96H46.6557C46.1279 109.96 45.6879 109.766 45.3008 109.397C44.9138 109.027 44.7377 108.57 44.7377 108.024V90.5523V90.5171C44.7377 90.5171 44.7377 90.5171 44.7377 90.5523C44.5793 91.6608 44.3858 92.6461 44.1219 93.5258C44.0163 93.9129 43.7701 94.1945 43.4006 94.3704C43.2071 94.4584 43.0134 94.4936 42.8199 94.4936C42.6263 94.4936 42.4329 94.4584 42.2393 94.3704C41.8698 94.212 41.5881 93.9481 41.4298 93.561C41.3242 93.3147 41.2715 93.086 41.2715 92.8396C41.2715 92.6637 41.3068 92.4877 41.3772 92.3118C41.7643 90.8162 42.0281 88.9863 42.1689 86.8221C42.1865 86.3294 42.3975 85.8895 42.7846 85.5552C43.119 85.2737 43.4708 85.1329 43.8579 85.1329C43.9459 85.1329 44.0339 85.133 44.1219 85.1681L44.5794 85.2385C44.7377 85.2561 44.8081 85.1857 44.8081 85.0098V80.1183C44.8081 79.5905 45.0018 79.1506 45.3713 78.7635C45.7584 78.3764 46.1981 78.1829 46.7259 78.1829H47.2539C47.7993 78.1829 48.2569 78.3764 48.6264 78.7635C48.9959 79.1506 49.1893 79.5905 49.1893 80.1183V84.3588C49.1893 84.4819 49.2597 84.5347 49.3828 84.4819L50.1395 84.2532C50.3507 84.218 50.5618 84.2532 50.7553 84.3412C50.9488 84.4467 51.0896 84.5875 51.1776 84.781C51.1776 84.7986 51.1776 84.8162 51.1776 84.8162C51.1776 84.8162 51.1776 84.8162 51.1776 84.781V84.394C51.1776 83.8485 51.3536 83.391 51.7407 83.0215C52.1102 82.652 52.5675 82.4585 53.113 82.4585H53.9225C54.0985 82.4585 54.1863 82.3705 54.2215 82.1946L54.3272 81.1213C54.3624 80.5758 54.5911 80.1183 54.9958 79.7488C55.4005 79.3793 55.8754 79.1858 56.4209 79.1858H68.7375C69.2654 79.1858 69.6876 79.3793 70.0395 79.7664C70.3914 80.1535 70.5322 80.5934 70.497 81.1213L70.4268 82.1946L70.3916 82.1418ZM70.6203 102.658C70.6203 103.203 70.4266 103.661 70.0571 104.03C69.6701 104.4 69.2301 104.593 68.7023 104.593H68.5088C68.5088 104.593 68.4385 104.593 68.4209 104.646C68.4209 104.681 68.421 104.699 68.4738 104.734C69.5119 105.297 70.462 105.825 71.2889 106.3C71.6936 106.546 71.9047 106.898 71.9047 107.373C71.9047 107.813 71.7111 108.147 71.3416 108.394L70.7258 108.851C70.2507 109.186 69.7228 109.344 69.1422 109.344C68.5615 109.344 68.0338 109.186 67.5588 108.851C66.6262 108.218 65.6935 107.62 64.7434 107.057C64.2859 106.775 64.0573 106.353 64.0573 105.807C64.0573 105.403 64.2155 105.051 64.5498 104.787V104.752C64.5498 104.752 64.585 104.699 64.5498 104.646C64.5498 104.611 64.5148 104.576 64.462 104.576H59.3418C59.3418 104.576 59.3065 104.576 59.3065 104.628C59.3065 104.681 59.3066 104.681 59.3418 104.681L59.4648 104.752C59.9047 104.875 60.1688 105.174 60.2567 105.596C60.2743 105.684 60.292 105.772 60.292 105.86C60.292 106.194 60.1512 106.441 59.8697 106.652C58.6028 107.655 57.1071 108.57 55.3652 109.397C55.0309 109.52 54.6967 109.59 54.3448 109.59C54.1512 109.59 53.9401 109.573 53.729 109.52C53.1835 109.361 52.7084 109.08 52.3213 108.64C52.1278 108.447 51.9343 108.235 51.7407 108.024C51.5472 107.813 51.4415 107.549 51.4415 107.268C51.4415 107.18 51.4416 107.074 51.4768 106.969C51.5823 106.564 51.8285 106.282 52.2332 106.159C53.5881 105.754 54.7319 105.262 55.6996 104.716C55.7172 104.699 55.7348 104.664 55.6996 104.628C55.6996 104.593 55.6644 104.576 55.6468 104.576H55.3476C54.8198 104.576 54.3798 104.4 53.9928 104.013C53.6057 103.643 53.4298 103.186 53.4298 102.64V92.4525C53.4298 91.9247 53.6233 91.4848 53.9928 91.0977C54.3798 90.7106 54.8198 90.5171 55.3476 90.5171H68.6673C69.1951 90.5171 69.6348 90.7106 70.0219 91.0977C70.409 91.4848 70.5851 91.9247 70.5851 92.4525V102.64L70.6203 102.658ZM58.2332 85.8368C58.0749 85.8368 57.9869 85.9071 57.9693 86.0655L57.899 86.5581C57.899 86.7341 57.9694 86.8221 58.1278 86.8221H59.3418C59.5177 86.8221 59.6058 86.7341 59.6409 86.5581L59.7112 86.0655C59.7288 85.9071 59.6584 85.8368 59.4824 85.8368H58.2332ZM58.2332 93.5434C58.0749 93.5434 58.0045 93.6138 58.0045 93.7722V94.1241C58.0045 94.2824 58.0749 94.3528 58.2332 94.3528H65.5705C65.7289 94.3528 65.7993 94.2824 65.7993 94.1241V93.7722C65.7993 93.6138 65.7289 93.5434 65.5705 93.5434H58.2332ZM58.2332 97.1329C58.0749 97.1329 58.0045 97.2208 58.0045 97.3968V97.7311C58.0045 97.907 58.0749 97.995 58.2332 97.995H65.5705C65.7289 97.995 65.7993 97.907 65.7993 97.7311V97.3968C65.7993 97.2208 65.7289 97.1329 65.5705 97.1329H58.2332ZM58.2332 100.757C58.0749 100.757 58.0045 100.828 58.0045 100.986V101.338C58.0045 101.496 58.0749 101.567 58.2332 101.567H65.5705C65.7289 101.567 65.7993 101.496 65.7993 101.338V100.986C65.7993 100.828 65.7289 100.757 65.5705 100.757H58.2332ZM60.0456 82.4057C60.0456 82.2298 59.9752 82.1418 59.8169 82.1418H58.5677C58.4093 82.1418 58.3213 82.2298 58.3037 82.4057L58.2685 82.7928C58.2685 82.9511 58.3389 83.0215 58.4972 83.0215H59.7464C59.9048 83.0215 59.9928 82.9511 60.0104 82.7928L60.0456 82.4057ZM63.6351 86.5581C63.6175 86.7341 63.6702 86.8221 63.8286 86.8221H65.5177C65.676 86.8221 65.764 86.7341 65.7816 86.5581L65.8169 86.0655C65.8169 85.9071 65.7465 85.8368 65.5881 85.8368H63.9517C63.7933 85.8368 63.7053 85.9071 63.6877 86.0655L63.6175 86.5581H63.6351ZM65.7464 83.0391C65.9048 83.0391 65.9928 82.9688 66.0104 82.8104L66.0456 82.4233C66.0456 82.2474 65.9752 82.1594 65.8169 82.1594H64.3563C64.1804 82.1594 64.0925 82.2474 64.0573 82.4233L64.0221 82.8104C64.0045 82.9688 64.0573 83.0391 64.2156 83.0391H65.7464Z" fill="#1CACC6"/>
<path d="M105.476 93.0859C105.476 93.6138 105.283 94.0537 104.913 94.4408C104.526 94.8279 104.086 95.0038 103.558 95.0038H100.426C100.268 95.0038 100.18 95.0742 100.127 95.2326C99.2477 97.8366 98.0865 100.071 96.6261 101.901C96.5205 102.024 96.5379 102.13 96.6963 102.2C98.9837 103.133 100.937 104.048 102.573 104.91C103.013 105.121 103.259 105.473 103.33 105.948V106.177C103.33 106.564 103.189 106.898 102.907 107.197L101.658 108.447C101.271 108.834 100.778 109.062 100.215 109.098C100.11 109.115 100.004 109.133 99.9163 109.133C99.4589 109.133 99.0364 109.01 98.6493 108.781C97.0834 107.866 95.0777 106.863 92.6495 105.772C92.4912 105.702 92.3504 105.719 92.2273 105.807C89.4472 107.549 85.6465 108.816 80.8254 109.625C80.7023 109.643 80.5615 109.661 80.4032 109.661C80.0161 109.661 79.6289 109.555 79.2594 109.361C78.7668 109.098 78.3622 108.71 78.0455 108.218C77.8343 107.831 77.5879 107.426 77.324 107.039C77.2008 106.845 77.1305 106.634 77.1305 106.423C77.1305 106.265 77.1658 106.106 77.2538 105.93C77.4121 105.561 77.6936 105.35 78.0983 105.315C81.5294 104.945 84.3621 104.329 86.5615 103.449C86.5967 103.449 86.6319 103.432 86.6319 103.379C86.6319 103.326 86.6142 103.309 86.5615 103.274C85.4706 102.869 84.6261 102.552 84.0103 102.359C83.9223 102.341 83.8696 102.359 83.852 102.429C83.7288 102.64 83.5351 102.816 83.2888 102.922C83.0425 103.027 82.7963 103.045 82.5499 102.957L80.1042 102.341C79.6467 102.218 79.3299 101.919 79.154 101.461C79.066 101.285 79.0309 101.109 79.0309 100.898C79.0309 100.652 79.1013 100.423 79.2244 100.177C80.157 98.558 81.0894 96.9041 82.0044 95.215C82.022 95.1798 82.0044 95.127 82.0044 95.0918C81.9692 95.0566 81.9165 95.0214 81.8637 95.0214H77.4649C76.937 95.0214 76.4971 94.8279 76.11 94.4584C75.7229 94.0713 75.5469 93.6314 75.5469 93.1035V92.3469C75.5469 91.8191 75.7405 91.3792 76.11 90.9921C76.4971 90.605 76.937 90.4115 77.4649 90.4115H84.2214C84.3973 90.4115 84.5204 90.3411 84.5732 90.2179L85.8402 87.4731C86.0865 86.9452 86.4561 86.5757 86.9487 86.3294C87.3006 86.1359 87.6525 86.0303 88.022 86.0303C88.1804 86.0303 88.3385 86.0479 88.5145 86.1007L89.887 86.3998C90.362 86.4878 90.7139 86.7517 90.925 87.1916C91.0482 87.4379 91.1188 87.6666 91.1188 87.8778C91.1188 88.0889 91.0658 88.3177 90.9603 88.5288C90.7667 88.9511 90.4853 89.5141 90.1509 90.2179C90.1334 90.2707 90.1509 90.3059 90.1509 90.3411C90.1861 90.3939 90.2212 90.4115 90.2564 90.4115H103.541C104.069 90.4115 104.509 90.605 104.896 90.9921C105.283 91.3792 105.459 91.8191 105.459 92.3469V93.1035L105.476 93.0859ZM81.2653 85.3089C81.0894 85.3089 81.0015 85.3793 81.0015 85.5376V87.2092C81.0015 87.7546 80.8079 88.2121 80.4384 88.5816C80.0689 88.9511 79.6114 89.1446 79.0659 89.1446H77.9926C77.4472 89.1446 76.9897 88.9687 76.6202 88.5816C76.2507 88.2121 76.0572 87.7546 76.0572 87.2092V82.74C76.0572 82.2121 76.2507 81.7723 76.6202 81.3852C76.9897 80.9981 77.4472 80.8045 77.9926 80.8045H87.5293C87.6876 80.8045 87.758 80.7341 87.758 80.5758V80.0127C87.758 79.4849 87.9515 79.045 88.321 78.6579C88.7081 78.2708 89.148 78.0773 89.6758 78.0773H91.0483C91.5762 78.0773 92.0161 78.2708 92.4032 78.6579C92.7903 79.045 92.9661 79.4849 92.9661 80.0127V80.5758C92.9661 80.7341 93.0365 80.8045 93.1949 80.8045H103.048C103.594 80.8045 104.051 80.9981 104.421 81.3852C104.79 81.7723 104.984 82.2121 104.984 82.74V87.2092C104.984 87.7546 104.79 88.2121 104.421 88.5816C104.051 88.9511 103.594 89.1446 103.048 89.1446H101.711C101.165 89.1446 100.708 88.9687 100.339 88.5816C99.9691 88.2121 99.7754 87.7546 99.7754 87.2092V85.5376C99.7754 85.3793 99.6874 85.3089 99.5115 85.3089H81.2303H81.2653ZM94.4793 95.2326C94.4793 95.2326 94.4793 95.1094 94.4441 95.0742C94.4089 95.039 94.3386 95.0038 94.2858 95.0038H88.057C87.8811 95.0038 87.758 95.0742 87.7052 95.1974C87.2829 95.9891 86.7726 96.9569 86.1392 98.1357C86.0688 98.2941 86.1217 98.3821 86.2625 98.4349C87.846 98.9099 89.5879 99.4906 91.453 100.159C91.6113 100.212 91.7344 100.159 91.84 100.054C93.0365 98.6988 93.9162 97.0977 94.4793 95.215V95.2326Z" fill="#1CACC6"/>
<path d="M116.385 92.6634C116.544 92.6282 116.684 92.593 116.843 92.593C117.177 92.593 117.476 92.6986 117.757 92.9273C118.197 93.2089 118.444 93.596 118.514 94.1062L118.585 94.6341C118.602 94.7396 118.62 94.8452 118.62 94.9684C118.62 95.4083 118.496 95.8129 118.268 96.1824C117.969 96.6399 117.546 96.939 117.019 97.0974C116.755 97.1678 116.473 97.2382 116.174 97.3261C115.998 97.3789 115.91 97.4845 115.91 97.6604V104.98C115.91 106.071 115.804 106.933 115.576 107.567C115.364 108.2 114.978 108.693 114.432 109.062C113.728 109.52 112.761 109.801 111.494 109.907C111.423 109.924 111.371 109.942 111.3 109.942C110.843 109.942 110.42 109.784 110.051 109.449C109.628 109.097 109.347 108.64 109.206 108.077C109.136 107.813 109.083 107.549 109.013 107.285C108.925 107.003 108.925 106.722 109.013 106.458C109.101 106.194 109.259 105.965 109.488 105.789C109.717 105.613 109.98 105.525 110.279 105.525C110.561 105.525 110.772 105.525 110.93 105.49C111.124 105.49 111.265 105.455 111.335 105.385C111.406 105.314 111.441 105.174 111.441 104.98V98.8745C111.441 98.8745 111.423 98.7513 111.37 98.7161C111.335 98.6809 111.265 98.6634 111.212 98.681L110.596 98.8393C110.42 98.8921 110.262 98.9097 110.104 98.9097C109.769 98.9097 109.453 98.8217 109.154 98.6458C108.714 98.3818 108.45 97.9948 108.344 97.4669L108.151 96.5871C108.115 96.4288 108.08 96.288 108.08 96.1648C108.08 95.8129 108.186 95.4786 108.414 95.1443C108.696 94.7044 109.101 94.4229 109.628 94.2998C109.752 94.2822 109.998 94.2294 110.368 94.1414C110.719 94.0534 111.019 93.9831 111.23 93.9479C111.388 93.9303 111.458 93.8247 111.458 93.6487V89.0212C111.458 88.8453 111.388 88.7573 111.23 88.7573H110.244C109.699 88.7573 109.241 88.5813 108.872 88.1942C108.502 87.8247 108.309 87.3673 108.309 86.8218V86.2412C108.309 85.6957 108.485 85.2383 108.872 84.8688C109.241 84.4993 109.699 84.3057 110.244 84.3057H111.23C111.388 84.3057 111.458 84.2177 111.458 84.0418V80.1532C111.458 79.6078 111.652 79.1503 112.022 78.7808C112.409 78.4113 112.848 78.2178 113.376 78.2178H113.957C114.502 78.2178 114.96 78.4113 115.329 78.7808C115.699 79.1503 115.892 79.6078 115.892 80.1532V84.0418C115.892 84.2177 115.98 84.3057 116.156 84.3057H116.649C117.194 84.3057 117.652 84.4993 118.021 84.8688C118.391 85.2383 118.585 85.6957 118.585 86.2412V86.8218C118.585 87.3673 118.391 87.8247 118.021 88.1942C117.652 88.5637 117.194 88.7573 116.649 88.7573H116.156C115.98 88.7573 115.892 88.8453 115.892 89.0212V92.5754C115.892 92.5754 115.928 92.6986 115.981 92.7338C116.033 92.7866 116.104 92.7866 116.156 92.769L116.385 92.6986V92.6634ZM123.441 83.4963C123.617 83.4963 123.705 83.4259 123.705 83.2676V80.0301C123.705 79.5022 123.881 79.0623 124.268 78.6752C124.637 78.2882 125.095 78.0946 125.64 78.0946H126.098C126.626 78.0946 127.065 78.2882 127.452 78.6752C127.839 79.0623 128.016 79.5022 128.016 80.0301V92.3467C128.016 94.1062 127.963 95.6546 127.857 96.9742C127.752 98.2939 127.523 99.6839 127.206 101.162C126.872 102.64 126.379 104.012 125.693 105.279C125.007 106.546 124.127 107.672 123.071 108.675C122.719 109.009 122.315 109.168 121.857 109.168H121.699C121.171 109.132 120.714 108.904 120.291 108.517C120.08 108.323 119.851 108.13 119.64 107.936C119.288 107.602 119.112 107.215 119.095 106.722C119.095 106.247 119.271 105.842 119.64 105.508C120.573 104.593 121.347 103.537 121.963 102.341C121.98 102.323 121.98 102.288 121.963 102.253C121.945 102.218 121.91 102.218 121.857 102.253C121.523 102.376 121.188 102.517 120.837 102.64C120.573 102.745 120.326 102.798 120.08 102.798C119.816 102.798 119.57 102.745 119.323 102.64C118.831 102.429 118.461 102.059 118.25 101.567L117.986 100.951C117.881 100.74 117.828 100.511 117.828 100.3C117.828 100.036 117.898 99.807 118.021 99.5783C118.233 99.1208 118.585 98.8217 119.06 98.6634C119.957 98.3994 121.329 97.9771 123.177 97.3965C123.353 97.3613 123.441 97.2557 123.476 97.0974C123.546 96.4464 123.582 95.7778 123.599 95.074C123.617 94.898 123.546 94.81 123.37 94.81H121.312C120.766 94.81 120.309 94.6341 119.939 94.247C119.57 93.8775 119.376 93.42 119.376 92.8746V92.4875C119.376 91.9596 119.552 91.5197 119.939 91.1326C120.309 90.7455 120.766 90.552 121.312 90.552H123.441C123.617 90.552 123.705 90.4816 123.705 90.3233V88.1063C123.705 87.9303 123.617 87.8423 123.441 87.8423H121.03C120.485 87.8423 120.027 87.6664 119.658 87.2793C119.288 86.9098 119.095 86.4523 119.095 85.9069V85.4142C119.095 84.8863 119.288 84.4465 119.658 84.0594C120.027 83.6723 120.485 83.4787 121.03 83.4787H123.441V83.4963ZM137.798 97.7132C138.344 97.7132 138.801 97.9068 139.171 98.2763C139.54 98.6458 139.734 99.1032 139.734 99.6487V100.177C139.734 100.704 139.54 101.144 139.171 101.531C138.801 101.918 138.344 102.094 137.798 102.094H134.526C134.35 102.094 134.262 102.165 134.262 102.323V107.936C134.262 108.481 134.068 108.939 133.699 109.308C133.329 109.678 132.872 109.871 132.326 109.871H131.605C131.077 109.871 130.637 109.678 130.25 109.308C129.863 108.939 129.687 108.481 129.687 107.936V80.0301C129.687 79.5022 129.881 79.0623 130.25 78.6752C130.637 78.2882 131.077 78.0946 131.605 78.0946H132.326C132.872 78.0946 133.329 78.2882 133.699 78.6752C134.068 79.0623 134.262 79.5022 134.262 80.0301V83.2676C134.262 83.4259 134.35 83.4963 134.526 83.4963H137.271C137.798 83.4963 138.238 83.6899 138.625 84.077C139.013 84.4641 139.188 84.9039 139.188 85.4318V85.9245C139.188 86.4699 138.995 86.9274 138.625 87.2969C138.238 87.6664 137.798 87.8599 137.271 87.8599H134.526C134.35 87.8599 134.262 87.9479 134.262 88.1239V90.3408C134.262 90.4992 134.35 90.5696 134.526 90.5696H136.883C137.411 90.5696 137.851 90.7631 138.238 91.1502C138.625 91.5373 138.801 91.9772 138.801 92.505V92.8921C138.801 93.4376 138.608 93.8951 138.238 94.2646C137.851 94.6341 137.411 94.8276 136.883 94.8276H134.526C134.35 94.8276 134.262 94.9156 134.262 95.0915V97.5021C134.262 97.678 134.35 97.766 134.526 97.766H137.798V97.7132Z" fill="#1CACC6"/>
<path d="M151.874 104.083C152.173 104.452 152.332 104.874 152.332 105.332V105.49C152.297 106.018 152.068 106.458 151.645 106.828L150.273 108.006C149.904 108.306 149.481 108.464 149.041 108.464H148.883C148.355 108.429 147.933 108.2 147.581 107.813C146.191 106.264 144.713 104.751 143.147 103.238C142.795 102.904 142.619 102.499 142.619 101.989C142.619 101.479 142.813 101.039 143.2 100.687L144.502 99.5431C144.907 99.1912 145.399 99.0153 145.962 99.0153C146.525 99.0153 147.001 99.2088 147.423 99.5783C148.989 101.021 150.484 102.517 151.892 104.083H151.874Z" fill="#1CACC6"/>
<path d="M198.695 88.6872C198.695 88.8456 198.765 88.916 198.924 88.916H204.73C205.205 88.916 205.61 89.0919 205.944 89.4262C206.278 89.7605 206.437 90.1652 206.437 90.6403C206.437 91.1154 206.278 91.52 205.944 91.8544C205.61 92.1887 205.223 92.3646 204.73 92.3646H188.63C188.173 92.3646 187.768 92.1887 187.434 91.8544C187.1 91.52 186.924 91.1154 186.924 90.6403C186.924 90.1652 187.1 89.7605 187.434 89.4262C187.768 89.0919 188.173 88.916 188.63 88.916H193.856C194.015 88.916 194.085 88.8456 194.085 88.6872V88.1594C194.085 87.9834 194.015 87.8954 193.856 87.8954H190.267C189.827 87.8954 189.458 87.7371 189.158 87.4379C188.859 87.1388 188.701 86.7694 188.701 86.3295C188.701 85.8896 188.859 85.5201 189.158 85.2034C189.458 84.8867 189.827 84.7283 190.267 84.7283H193.856C194.015 84.7283 194.085 84.6579 194.085 84.4996V84.0773C194.085 83.9189 194.015 83.8485 193.856 83.8485H189.809C189.264 83.8485 188.806 83.655 188.437 83.2855C188.067 82.8984 187.874 82.4585 187.874 81.9307V81.0861C187.874 81.0861 187.874 81.0509 187.839 81.0509C187.804 81.0509 187.804 81.0509 187.804 81.0861C186.765 84.6052 186.185 86.4878 186.115 86.7342C185.956 87.262 185.639 87.6315 185.164 87.8778C184.865 88.0538 184.548 88.1418 184.214 88.1418C184.021 88.1418 183.827 88.1066 183.634 88.0362H183.563C183.563 88.0362 183.44 88.0362 183.405 88.0362C183.37 88.0714 183.334 88.1242 183.334 88.177V88.9863C183.334 89.1447 183.405 89.2151 183.563 89.2151H184.32C184.848 89.2151 185.288 89.4086 185.675 89.7957C186.062 90.1828 186.238 90.6227 186.238 91.1505V91.8367C186.238 92.3646 186.044 92.8045 185.675 93.1916C185.288 93.5787 184.848 93.7546 184.32 93.7546H183.44C183.44 93.7546 183.334 93.7898 183.334 93.8602V93.9306C183.44 93.8602 183.546 93.8778 183.634 93.9658C184.267 94.6696 185.305 95.954 186.766 97.8543C187.1 98.2942 187.258 98.7868 187.258 99.3147C187.258 99.8953 187.065 100.441 186.695 100.916L186.115 101.637C185.868 101.919 185.586 102.06 185.27 102.06H185.076C184.636 101.989 184.355 101.76 184.196 101.373C183.95 100.845 183.704 100.318 183.44 99.7722C183.422 99.737 183.405 99.7194 183.37 99.7194C183.352 99.7194 183.334 99.7546 183.334 99.7722V107.831C183.334 108.376 183.141 108.834 182.771 109.203C182.384 109.573 181.944 109.766 181.417 109.766H180.994C180.449 109.766 179.991 109.573 179.622 109.203C179.252 108.834 179.059 108.376 179.059 107.831V101.831C179.059 101.831 179.059 101.796 179.006 101.778C178.971 101.778 178.953 101.778 178.953 101.778C178.496 102.939 178.021 103.96 177.546 104.875C177.37 105.209 177.088 105.35 176.719 105.315C176.331 105.279 176.068 105.086 175.927 104.716C175.751 104.241 175.54 103.731 175.276 103.186C175.065 102.728 174.941 102.253 174.941 101.778C174.941 101.145 175.135 100.511 175.522 99.8777C176.543 98.2238 177.475 96.2531 178.337 93.9658C178.355 93.8954 178.337 93.8426 178.302 93.8074C178.267 93.7722 178.214 93.737 178.179 93.737H177C176.455 93.737 175.997 93.5435 175.628 93.174C175.258 92.7869 175.065 92.347 175.065 91.8192V91.1329C175.065 90.6051 175.241 90.1652 175.628 89.7781C175.997 89.391 176.455 89.1975 177 89.1975H178.795C178.971 89.1975 179.059 89.1271 179.059 88.9687V88.2121C179.059 88.0538 178.971 88.001 178.795 88.0186L178.038 88.2121C177.915 88.2649 177.774 88.2825 177.651 88.2825C177.317 88.2825 177 88.177 176.701 87.9482C176.314 87.6491 176.085 87.2444 176.015 86.7342C175.857 85.3441 175.592 83.9189 175.223 82.4585C175.205 82.3354 175.188 82.1946 175.188 82.0362C175.188 81.7723 175.258 81.5084 175.417 81.2445C175.628 80.875 175.944 80.6286 176.367 80.5231C176.525 80.4879 176.666 80.4527 176.789 80.4527C177.088 80.4527 177.37 80.5231 177.634 80.6814C178.021 80.8926 178.267 81.2269 178.39 81.6667C178.601 82.4761 178.795 83.3383 178.971 84.2708H179.041V80.1888C179.041 79.6433 179.235 79.1858 179.604 78.8163C179.974 78.4468 180.431 78.2533 180.977 78.2533H181.399C181.927 78.2533 182.367 78.4468 182.754 78.8163C183.141 79.1858 183.317 79.6433 183.317 80.1888V84.6579V84.6931C183.317 84.6931 183.317 84.6931 183.317 84.6579C183.51 83.7078 183.669 82.7577 183.809 81.8251C183.897 81.2973 184.144 80.8926 184.566 80.611C184.9 80.3647 185.235 80.2591 185.604 80.2591C185.71 80.2591 185.833 80.2591 185.956 80.2943L187.786 80.6462C187.786 80.6462 187.821 80.6462 187.821 80.611C187.821 80.4527 187.892 80.3823 188.05 80.3823H193.804C193.962 80.3823 194.032 80.3119 194.032 80.1536V80.0832C194.032 79.5377 194.226 79.0803 194.595 78.7108C194.982 78.3413 195.422 78.1477 195.95 78.1477H196.707C197.234 78.1477 197.674 78.3413 198.061 78.7108C198.449 79.0803 198.625 79.5377 198.625 80.0832V80.1536C198.625 80.3119 198.695 80.3823 198.853 80.3823H203.815C204.273 80.3823 204.677 80.5407 205.012 80.875C205.346 81.2093 205.522 81.5964 205.522 82.0714C205.522 82.5465 205.346 82.9512 205.012 83.2855C204.677 83.6198 204.273 83.7958 203.815 83.7958H198.853C198.695 83.7958 198.625 83.8662 198.625 84.0245V84.4468C198.625 84.6051 198.695 84.6755 198.853 84.6755H203.199C203.657 84.6755 204.044 84.8339 204.343 85.1506C204.642 85.4673 204.801 85.8368 204.801 86.2767C204.801 86.7166 204.642 87.086 204.343 87.3852C204.044 87.6843 203.657 87.8427 203.199 87.8427H198.853C198.695 87.8427 198.625 87.9306 198.625 88.1066V88.6344L198.695 88.6872ZM202.707 93.3148C203.234 93.3148 203.674 93.5083 204.061 93.8954C204.449 94.2825 204.624 94.7224 204.624 95.2502V105.737C204.624 106.74 204.501 107.496 204.273 108.042C204.026 108.57 203.604 108.992 203.006 109.291C202.249 109.643 201.158 109.854 199.768 109.907H199.663C199.17 109.907 198.713 109.749 198.29 109.414C197.85 109.045 197.551 108.587 197.375 108.042C197.358 108.007 197.34 107.954 197.34 107.919C197.27 107.76 197.235 107.62 197.235 107.461C197.235 107.197 197.323 106.951 197.499 106.705C197.762 106.335 198.114 106.142 198.537 106.142C198.836 106.159 199.17 106.177 199.522 106.177C199.733 106.177 199.892 106.142 199.98 106.071C200.067 106.001 200.103 105.86 200.103 105.667V105.315C200.103 105.156 200.015 105.086 199.839 105.086H193.17C193.012 105.086 192.941 105.156 192.941 105.315V108.059C192.941 108.605 192.748 109.062 192.378 109.432C191.991 109.801 191.551 109.995 191.023 109.995H190.408C189.88 109.995 189.44 109.801 189.053 109.432C188.666 109.062 188.49 108.605 188.49 108.059V95.2678C188.49 94.74 188.683 94.3001 189.053 93.913C189.44 93.5259 189.88 93.3323 190.408 93.3323H202.689L202.707 93.3148ZM200.12 96.9394C200.12 96.781 200.032 96.7106 199.856 96.7106H193.188C193.029 96.7106 192.959 96.781 192.959 96.9394V97.5552C192.959 97.7311 193.029 97.8191 193.188 97.8191H199.856C200.032 97.8191 200.12 97.7311 200.12 97.5552V96.9394ZM192.976 101.743C192.976 101.919 193.047 102.007 193.205 102.007H199.874C200.05 102.007 200.138 101.919 200.138 101.743V101.127C200.138 100.969 200.05 100.898 199.874 100.898H193.205C193.047 100.898 192.976 100.969 192.976 101.127V101.743Z" fill="#1CACC6"/>
<path d="M237.774 100.229C238.32 100.229 238.777 100.423 239.147 100.81C239.516 101.197 239.71 101.637 239.71 102.165V102.622C239.71 103.168 239.516 103.625 239.147 103.995C238.777 104.364 238.32 104.558 237.774 104.558H226.777C226.619 104.558 226.548 104.646 226.548 104.822V107.989C226.548 108.534 226.355 108.992 225.985 109.361C225.598 109.731 225.158 109.924 224.631 109.924H223.452C222.924 109.924 222.484 109.731 222.097 109.361C221.71 108.992 221.534 108.534 221.534 107.989V104.822C221.534 104.646 221.463 104.558 221.305 104.558H210.801C210.273 104.558 209.833 104.382 209.446 103.995C209.059 103.625 208.883 103.168 208.883 102.622V102.165C208.883 101.637 209.076 101.197 209.446 100.81C209.833 100.423 210.273 100.229 210.801 100.229H221.305C221.463 100.229 221.534 100.159 221.534 100.001V98.8568C221.534 98.6985 221.463 98.6281 221.305 98.6281C220.83 98.6281 220.425 98.4521 220.073 98.1178C219.739 97.7835 219.563 97.3788 219.563 96.8862V89.2147C219.563 89.2147 219.563 89.1795 219.528 89.1619C219.51 89.1619 219.493 89.1619 219.458 89.1619C219.246 89.373 218.983 89.4786 218.683 89.461C218.384 89.4434 218.138 89.3378 217.944 89.1267C217.047 88.2645 216.22 87.5079 215.463 86.8745C215.358 86.7865 215.252 86.8041 215.129 86.9449L214.337 88.0182C214.038 88.4581 213.616 88.7044 213.07 88.7748C212.965 88.7924 212.842 88.81 212.719 88.81C212.332 88.81 211.962 88.7044 211.61 88.5109C211.082 88.1765 210.519 87.8598 209.921 87.5255C209.481 87.2792 209.217 86.9273 209.112 86.4522C209.094 86.3291 209.076 86.1883 209.076 86.0651C209.076 85.7308 209.182 85.4317 209.411 85.1502L209.534 84.9566C209.886 84.4992 210.343 84.2001 210.906 84.0417C211.1 84.0065 211.311 83.9713 211.522 83.9713C211.856 83.9713 212.173 84.0417 212.508 84.1649C213.722 84.7279 214.724 85.2558 215.481 85.7308C215.604 85.8188 215.745 85.8012 215.868 85.6956C217.874 84.0945 219.563 82.071 220.953 79.6605C221.235 79.1678 221.622 78.7983 222.132 78.5872C222.431 78.4816 222.748 78.4288 223.047 78.4288C223.258 78.4288 223.487 78.464 223.698 78.5344L224.718 78.8335C225.211 78.9919 225.563 79.291 225.757 79.7485C225.844 79.9596 225.88 80.1708 225.88 80.3643C225.88 80.6282 225.809 80.8746 225.686 81.1209C225.651 81.1913 225.598 81.2617 225.563 81.3496C225.545 81.4024 225.545 81.4376 225.563 81.4728C225.581 81.5256 225.616 81.5432 225.669 81.5432H227.586C227.762 81.5432 227.886 81.4728 227.938 81.3144C228.132 80.9097 228.326 80.4699 228.519 80.0124C228.73 79.4846 229.082 79.0799 229.557 78.7983C229.927 78.5872 230.314 78.464 230.701 78.464C230.824 78.464 230.965 78.464 231.088 78.4992L232.548 78.7279C233.006 78.7983 233.34 79.0271 233.534 79.4494C233.604 79.6429 233.639 79.8365 233.639 80.0124C233.639 80.2236 233.569 80.4523 233.446 80.6634C233.287 80.8746 233.147 81.1033 232.988 81.3496C232.971 81.4024 232.971 81.4376 232.988 81.4728C233.006 81.5256 233.059 81.5432 233.111 81.5432H236.507C237.035 81.5432 237.475 81.7191 237.827 82.0886C238.179 82.4581 238.372 82.8804 238.372 83.3907C238.372 83.9009 238.196 84.3408 237.827 84.7103C237.475 85.0798 237.035 85.2733 236.507 85.2733H232.161C232.003 85.2733 231.932 85.3437 231.932 85.5021V86.0651C231.932 86.2235 232.003 86.2939 232.161 86.2939H235.451C235.909 86.2939 236.296 86.4522 236.613 86.7865C236.93 87.1208 237.088 87.5079 237.088 87.9654C237.088 88.4229 236.93 88.81 236.613 89.1443C236.296 89.4786 235.909 89.6369 235.451 89.6369H232.161C232.003 89.6369 231.932 89.7073 231.932 89.8657V90.3584C231.932 90.5167 232.003 90.5871 232.161 90.5871H235.451C235.909 90.5871 236.296 90.7455 236.613 91.0798C236.93 91.4141 237.088 91.8012 237.088 92.2586C237.088 92.7161 236.93 93.1032 236.613 93.4375C236.296 93.7718 235.909 93.9302 235.451 93.9302H232.161C232.003 93.9302 231.932 94.0006 231.932 94.1589V94.6868C231.932 94.8627 232.003 94.9507 232.161 94.9507H237.229C237.756 94.9507 238.196 95.1266 238.566 95.4961C238.935 95.848 239.129 96.2879 239.129 96.8158C239.129 97.3436 238.935 97.7835 238.566 98.1354C238.196 98.4873 237.756 98.6809 237.229 98.6809H226.742C226.584 98.6809 226.513 98.7688 226.513 98.9448V100.053C226.513 100.212 226.584 100.282 226.742 100.282H237.739L237.774 100.229ZM214.654 90.2176C214.988 89.8657 215.375 89.6898 215.868 89.6898H215.938C216.431 89.7073 216.853 89.9185 217.188 90.3056L217.346 90.4991C217.698 90.939 217.874 91.4317 217.874 91.9947C217.874 92.5578 217.698 93.068 217.346 93.4903C216.15 94.9331 214.936 96.3583 213.721 97.7659C213.37 98.1354 212.93 98.329 212.419 98.3466C211.892 98.3466 211.469 98.1706 211.117 97.7835L210.361 96.9741C210.026 96.6222 209.868 96.2175 209.868 95.7249C209.868 95.1618 210.079 94.6868 210.519 94.2821C211.804 93.1032 213.194 91.7308 214.672 90.1648L214.654 90.2176ZM216.642 79.6429C217.1 79.8892 217.364 80.2587 217.452 80.7866C217.469 80.9097 217.487 81.0329 217.487 81.1385C217.487 81.5256 217.364 81.8951 217.135 82.2118L216.748 82.7045C216.449 83.1444 216.026 83.3907 215.499 83.4611C215.393 83.4786 215.288 83.4962 215.164 83.4962C214.742 83.4962 214.373 83.3731 214.021 83.1444C213.493 82.81 212.93 82.4933 212.331 82.159C211.892 81.9479 211.628 81.596 211.522 81.1209C211.487 80.9977 211.452 80.857 211.452 80.7338C211.452 80.3995 211.557 80.1004 211.786 79.8189L211.944 79.5901C212.296 79.1326 212.736 78.8335 213.282 78.6752C213.528 78.6048 213.757 78.5696 213.968 78.5696C214.267 78.5696 214.584 78.64 214.918 78.7983C215.534 79.0623 216.097 79.3438 216.642 79.6429ZM227.094 86.2939C227.252 86.2939 227.323 86.2235 227.323 86.0651V85.5021C227.323 85.3437 227.252 85.2733 227.094 85.2733H224.507C224.331 85.2733 224.243 85.3437 224.243 85.5021V86.0651C224.243 86.2235 224.331 86.2939 224.507 86.2939H227.094ZM227.094 90.5695C227.252 90.5695 227.323 90.4991 227.323 90.3408V89.8481C227.323 89.6897 227.252 89.6194 227.094 89.6194H224.507C224.331 89.6194 224.243 89.6897 224.243 89.8481V90.3408C224.243 90.4991 224.331 90.5695 224.507 90.5695H227.094ZM224.507 93.895C224.331 93.895 224.243 93.9654 224.243 94.1237V94.6516C224.243 94.8275 224.331 94.9155 224.507 94.9155H227.094C227.252 94.9155 227.323 94.8275 227.323 94.6516V94.1237C227.323 93.9654 227.252 93.895 227.094 93.895H224.507Z" fill="#1CACC6"/>
<path d="M264.837 84.3057C264.837 84.4641 264.925 84.5345 265.101 84.5345H269.148C269.675 84.5345 270.098 84.728 270.45 85.0975C270.802 85.467 270.978 85.9069 270.978 86.3995L270.854 94.7572V98.4874C270.925 102.71 271.101 104.892 271.382 105.05C271.417 105.068 271.47 104.822 271.505 104.276C271.541 103.748 271.593 103.027 271.629 102.13C271.629 101.848 271.769 101.672 272.051 101.584C272.332 101.514 272.544 101.584 272.702 101.831C272.807 101.954 272.913 102.094 273.001 102.218C273.722 103.221 274.074 104.171 274.074 105.086C274.074 105.262 274.074 105.438 274.039 105.613C273.74 107.531 273.177 108.798 272.367 109.432C271.91 109.784 271.417 109.959 270.872 109.959C270.432 109.959 269.975 109.854 269.5 109.625C267.951 108.921 267.001 105.86 266.667 100.423C266.667 100.388 266.649 100.352 266.596 100.335C266.561 100.335 266.526 100.335 266.491 100.388L266.227 100.74C265.963 101.162 265.576 101.391 265.083 101.426H264.925C264.485 101.426 264.115 101.267 263.816 100.968C263.711 100.88 263.605 100.792 263.517 100.704C263.394 100.616 263.306 100.652 263.253 100.81C262.25 103.942 260.79 106.528 258.855 108.587C258.485 108.957 258.045 109.15 257.517 109.15H257.482C256.937 109.15 256.462 108.957 256.039 108.587C255.793 108.393 255.564 108.2 255.318 108.024C254.896 107.69 254.702 107.267 254.702 106.757C254.702 106.317 254.86 105.948 255.16 105.613C257.148 103.572 258.52 100.951 259.312 97.7836C259.347 97.6077 259.312 97.4845 259.189 97.3965C258.309 96.7807 257.552 96.2704 256.901 95.8657C256.866 95.8481 256.813 95.8481 256.761 95.8657C256.708 95.8833 256.673 95.9361 256.673 95.9889V96.4464C256.673 96.9742 256.479 97.4141 256.11 97.8012C255.74 98.1883 255.283 98.3643 254.737 98.3643H252.151C251.992 98.3643 251.922 98.4522 251.922 98.6282V99.8071C251.922 99.9654 251.992 100.036 252.151 100.036H254.403C254.948 100.036 255.406 100.229 255.775 100.616C256.145 101.004 256.338 101.443 256.338 101.971V102.165C256.338 102.71 256.145 103.168 255.775 103.537C255.406 103.907 254.948 104.1 254.403 104.1H252.151C251.992 104.1 251.922 104.188 251.922 104.364V107.883C251.922 108.429 251.728 108.886 251.359 109.256C250.972 109.625 250.532 109.819 250.004 109.819H249.388C248.843 109.819 248.385 109.625 248.016 109.256C247.646 108.886 247.453 108.429 247.453 107.883V104.364C247.453 104.188 247.365 104.1 247.189 104.1H244.673C244.145 104.1 243.705 103.924 243.318 103.537C242.931 103.168 242.755 102.71 242.755 102.165V101.971C242.755 101.443 242.949 101.004 243.318 100.616C243.705 100.229 244.145 100.036 244.673 100.036H247.189C247.365 100.036 247.453 99.9654 247.453 99.8071V98.6282C247.453 98.4522 247.365 98.3643 247.189 98.3643H244.409C243.881 98.3643 243.441 98.1707 243.054 97.8012C242.667 97.4141 242.491 96.9742 242.491 96.4464V96.2528C242.491 95.725 242.685 95.2851 243.054 94.898C243.441 94.5109 243.881 94.3174 244.409 94.3174C244.585 94.3174 244.655 94.247 244.602 94.0886C244.479 93.3496 244.268 92.5754 243.987 91.7661C243.899 91.4845 243.934 91.203 244.075 90.9567C244.215 90.6928 244.426 90.5168 244.708 90.4288V90.3936H243.635C243.089 90.3936 242.632 90.2177 242.262 89.8306C241.893 89.4611 241.699 89.0036 241.699 88.4582V88.2646C241.699 87.7368 241.875 87.2969 242.262 86.9098C242.632 86.5227 243.089 86.3292 243.635 86.3292H247.189C247.365 86.3292 247.453 86.2588 247.453 86.1004V85.0623C247.453 84.8864 247.365 84.7984 247.189 84.7984H245.007C244.462 84.7984 244.004 84.6224 243.635 84.2353C243.265 83.8658 243.072 83.4084 243.072 82.8629V82.7397C243.072 82.2119 243.248 81.772 243.635 81.3849C244.004 80.9978 244.462 80.8043 245.007 80.8043H247.189C247.365 80.8043 247.453 80.7339 247.453 80.5755V79.9949C247.453 79.467 247.629 79.0272 248.016 78.6401C248.385 78.253 248.843 78.0594 249.388 78.0594H250.004C250.532 78.0594 250.972 78.253 251.359 78.6401C251.746 79.0272 251.922 79.467 251.922 79.9949V80.5755C251.922 80.7339 251.992 80.8043 252.151 80.8043H254.104C254.632 80.8043 255.071 80.9978 255.459 81.3849C255.846 81.772 256.022 82.2119 256.022 82.7397V82.8629C256.022 83.4084 255.828 83.8658 255.459 84.2353C255.071 84.6048 254.632 84.7984 254.104 84.7984H252.151C251.992 84.7984 251.922 84.8864 251.922 85.0623V86.1004C251.922 86.2588 251.992 86.3292 252.151 86.3292H256.462C256.585 86.3292 256.655 86.2588 256.655 86.1356C256.655 85.6781 256.814 85.291 257.148 84.9743C257.482 84.6576 257.851 84.4993 258.291 84.4993H260.051C260.227 84.4993 260.315 84.4289 260.315 84.2705V80.1181C260.315 79.5726 260.508 79.1152 260.878 78.7457C261.265 78.3762 261.705 78.1826 262.233 78.1826H262.884C263.429 78.1826 263.887 78.3762 264.256 78.7457C264.626 79.1152 264.819 79.5726 264.819 80.1181V84.2705L264.837 84.3057ZM251.904 90.6752C251.94 90.4992 251.887 90.4112 251.711 90.4112H247.752C247.752 90.4112 247.664 90.4464 247.646 90.4992C247.611 90.552 247.594 90.6048 247.594 90.64C248.033 91.7485 248.333 92.7162 248.509 93.508C248.544 93.684 248.508 93.8423 248.42 94.0007C248.315 94.159 248.192 94.247 248.016 94.2998V94.335H251.517V94.2998C251.341 94.2646 251.218 94.159 251.13 93.983C251.042 93.8247 251.025 93.6664 251.095 93.508C251.429 92.5755 251.693 91.6253 251.904 90.6752ZM256.286 94.335C256.444 94.335 256.567 94.2646 256.673 94.1414L257.289 93.2265C257.588 92.8218 257.992 92.5579 258.503 92.4347C258.661 92.3995 258.802 92.3643 258.96 92.3643C259.312 92.3643 259.646 92.4523 259.981 92.6282C260.016 92.681 260.068 92.681 260.104 92.6282C260.139 92.5931 260.174 92.5578 260.209 92.5051C260.297 91.5197 260.332 90.4464 260.332 89.2324C260.332 89.0564 260.244 88.9684 260.068 88.9684H257.552C257.447 88.9684 257.394 89.0212 257.394 89.1268C257.394 89.4787 257.271 89.7778 257.025 90.0066C256.778 90.2529 256.479 90.3584 256.162 90.3584H255.142V90.3936C255.406 90.464 255.599 90.6048 255.705 90.8511C255.828 91.0974 255.828 91.3262 255.705 91.5725C255.582 91.8716 255.388 92.3115 255.16 92.857C254.931 93.42 254.772 93.8071 254.684 94.0534C254.667 94.1238 254.684 94.1766 254.684 94.2118C254.72 94.2646 254.755 94.2822 254.79 94.2822H256.233L256.286 94.335ZM266.403 89.2676C266.403 89.0916 266.333 89.0036 266.174 89.0036H265.101C264.925 89.0036 264.837 89.0916 264.837 89.2676C264.837 91.379 264.714 93.3848 264.485 95.2675C264.467 95.4259 264.52 95.549 264.643 95.6194C265.277 96.0945 265.822 96.5168 266.315 96.8863C266.332 96.9391 266.368 96.9391 266.421 96.9215C266.456 96.9039 266.491 96.8687 266.491 96.8159C266.456 95.1443 266.421 92.6106 266.421 89.25L266.403 89.2676Z" fill="#1CACC6"/>
<path d="M282.818 86.3998C283.117 85.9423 283.539 85.6256 284.067 85.4497C284.331 85.3617 284.577 85.3265 284.823 85.3265C285.105 85.3265 285.386 85.3793 285.633 85.4497L286.653 85.8368C287.129 86.0127 287.445 86.347 287.603 86.8221C287.674 86.998 287.709 87.174 287.709 87.3499C287.709 87.6315 287.621 87.913 287.445 88.1593C286.706 89.2854 285.949 90.3763 285.158 91.432C285.052 91.5552 284.999 91.7135 284.999 91.8543V107.232C284.999 107.76 284.806 108.2 284.436 108.587C284.049 108.974 283.609 109.15 283.082 109.15H282.043C281.515 109.15 281.076 108.957 280.689 108.587C280.302 108.2 280.125 107.76 280.125 107.232V97.344C280.125 97.344 280.108 97.2736 280.055 97.256C280.02 97.256 279.967 97.256 279.932 97.256C279.826 97.3616 279.668 97.5199 279.439 97.7135C279.14 97.995 278.771 98.1358 278.366 98.1358C278.296 98.1358 278.225 98.1358 278.137 98.1006C277.645 98.0302 277.24 97.8015 276.923 97.3792C276.624 96.9745 276.307 96.5698 275.973 96.1651C275.692 95.8132 275.551 95.4437 275.551 95.0214C275.551 94.9511 275.551 94.8983 275.586 94.8279C275.621 94.3 275.85 93.8953 276.237 93.5786C277.433 92.5933 278.612 91.4848 279.791 90.2179C280.97 88.9511 281.991 87.6667 282.853 86.3646L282.818 86.3998ZM281.41 78.9218C281.779 78.482 282.237 78.2004 282.782 78.0421C282.994 77.9717 283.222 77.9365 283.433 77.9365C283.732 77.9365 284.049 78.0069 284.348 78.1301L285.492 78.5875C285.932 78.7811 286.213 79.1154 286.337 79.5729C286.354 79.6961 286.372 79.8368 286.372 79.96C286.372 80.2591 286.266 80.5582 286.037 80.8397C285.035 82.001 283.944 83.1447 282.747 84.306C281.568 85.4321 280.407 86.4526 279.246 87.3499C278.947 87.5963 278.612 87.7018 278.261 87.7018C278.137 87.7018 277.996 87.6842 277.873 87.6314C277.381 87.5259 276.976 87.2444 276.695 86.8221C276.536 86.5406 276.378 86.2766 276.202 86.0303C275.955 85.696 275.85 85.3441 275.85 84.957C275.85 84.8514 275.85 84.7459 275.885 84.6227C275.973 84.13 276.219 83.7253 276.642 83.4086C277.486 82.7576 278.348 82.0186 279.228 81.1916C280.073 80.3823 280.812 79.6257 281.41 78.9043V78.9218ZM304.671 88.5112C305.199 88.5112 305.638 88.7048 306.026 89.0918C306.413 89.4789 306.589 89.9188 306.589 90.4467V91.2385C306.589 91.7663 306.395 92.2062 306.026 92.5933C305.638 92.9804 305.199 93.1563 304.671 93.1563H302.489C302.313 93.1563 302.225 93.2443 302.225 93.4203V103.696C302.225 104.998 302.084 106.001 301.785 106.687C301.486 107.373 300.941 107.901 300.131 108.271C299.234 108.693 297.65 108.939 295.363 109.027H295.257C294.765 109.027 294.307 108.869 293.92 108.535C293.498 108.165 293.216 107.708 293.075 107.162C292.97 106.74 292.847 106.318 292.724 105.895C292.653 105.737 292.618 105.596 292.618 105.438C292.618 105.174 292.706 104.945 292.882 104.716C293.128 104.347 293.463 104.153 293.903 104.153H293.938C294.677 104.171 295.521 104.189 296.454 104.189C296.982 104.189 297.246 103.977 297.246 103.573V93.4203C297.246 93.2443 297.175 93.1563 297.017 93.1563H290.032C289.504 93.1563 289.064 92.9628 288.677 92.5933C288.29 92.2062 288.114 91.7663 288.114 91.2385V90.4467C288.114 89.9188 288.307 89.4789 288.677 89.0918C289.064 88.7048 289.504 88.5112 290.032 88.5112H304.688H304.671ZM303.844 79.2386C304.372 79.2386 304.811 79.4321 305.199 79.8192C305.586 80.2063 305.762 80.6462 305.762 81.174V81.9306C305.762 82.4585 305.568 82.8984 305.199 83.2855C304.811 83.6726 304.372 83.8485 303.844 83.8485H291.404C290.876 83.8485 290.436 83.655 290.049 83.2855C289.662 82.8984 289.486 82.4585 289.486 81.9306V81.174C289.486 80.6462 289.68 80.2063 290.049 79.8192C290.436 79.4321 290.876 79.2386 291.404 79.2386H303.844Z" fill="#1CACC6"/>
<path d="M327.299 106.089C326.543 106.776 325.61 107.11 324.484 107.11C323.358 107.11 322.408 106.776 321.651 106.089C320.895 105.403 320.525 104.523 320.525 103.468C320.525 102.412 320.895 101.55 321.651 100.846C322.408 100.142 323.341 99.7902 324.484 99.7902C325.628 99.7902 326.56 100.142 327.299 100.846C328.056 101.55 328.426 102.429 328.426 103.468C328.426 104.506 328.056 105.403 327.299 106.089ZM324.343 97.8548C323.78 97.8548 323.288 97.6788 322.883 97.2917C322.461 96.9222 322.232 96.4647 322.162 95.9193L321.053 87.2625L320.93 83.6379C320.912 83.11 321.071 82.6701 321.44 82.283C321.81 81.8959 322.232 81.7024 322.76 81.7024H326.261C326.789 81.7024 327.229 81.8959 327.581 82.283C327.933 82.6701 328.126 83.11 328.126 83.6379L327.968 87.2625L326.86 95.9193C326.789 96.4647 326.56 96.9222 326.138 97.2917C325.716 97.6612 325.241 97.8548 324.695 97.8548H324.361H324.343Z" fill="#1CACC6"/>
<g filter="url(#filter0_d_86_149678)">
<path d="M18.2577 6.25375C19.3486 7.11591 19.9291 8.06607 19.9291 9.15697C20.0171 10.1071 19.7885 11.198 19.2079 12.4825C18.4865 14.2948 17.8354 15.9135 17.1668 17.3387V37.9779C17.2196 37.8371 17.2547 37.6963 17.3075 37.5908C18.4512 34.6524 19.4542 31.0805 20.2988 26.9809C20.6859 25.5029 21.6711 24.7463 23.2899 24.7463C24.328 24.7463 25.3308 25.0278 26.281 25.5029C27.1431 25.89 27.5656 26.6466 27.5656 27.7375C27.5656 28.8284 27.372 30.3591 27.0376 32.3474C26.4746 35.1978 25.9996 37.4324 25.5597 38.9632C25.7533 38.7696 25.982 38.6816 26.2283 38.6816C26.5099 38.6816 26.9498 38.7696 27.5656 38.8752C28.1286 38.8752 28.4627 38.6465 28.4627 38.1538V23.0747C28.5507 21.2624 30.0816 20.3651 32.932 20.3123C35.976 20.3651 37.4892 21.2624 37.5947 23.0747V41.8488C37.5947 43.9954 37.067 45.5086 36.1168 46.4059C35.1139 47.3033 33.46 47.7783 31.0846 47.7783C28.85 47.7783 27.1432 47.4968 25.9468 47.0218C24.7151 46.4587 24.0465 45.3502 23.9937 43.6963C23.9937 43.1684 24.0464 42.6933 24.1344 42.2183C23.4658 42.8869 22.7092 43.2564 21.7591 43.3092C20.721 43.3092 19.5774 42.8869 18.3281 42.0247C17.7123 41.6904 17.3251 41.3561 17.1316 40.9866V43.8898C17.1316 45.315 16.7094 46.3707 15.9 46.9866C15.2314 47.6552 14.1403 47.9895 12.6623 47.9895C11.1843 47.9895 10.1463 47.6552 9.47771 46.9866C8.61555 46.4235 8.1933 45.3678 8.1933 43.8898V28.67C7.29595 28.4765 6.34582 27.9486 5.34289 27.192C4.11123 26.2947 3.53059 25.239 3.58338 24.0073C3.58338 23.3387 3.91759 22.5821 4.58621 21.7199C7.1551 17.8138 9.44244 13.1687 11.3779 7.64378C11.765 6.02503 12.7504 5.16286 14.334 5.02209C15.7064 5.11007 16.9908 5.49718 18.2401 6.21858L18.2577 6.25375ZM30.0992 6.20097C31.1373 6.67604 31.6652 7.62619 31.6652 8.96342C31.6652 9.15697 31.6123 9.3505 31.6123 9.52645H42.2223C43.8938 9.52645 45.1782 9.86078 46.0755 10.4766C47.0784 11.374 47.5887 12.5704 47.5887 13.9956C47.5887 15.0338 46.8674 17.7082 45.5478 21.9838C45.0727 23.8313 44.0346 24.7463 42.4158 24.7463C41.3249 24.6583 40.234 24.2712 39.0903 23.7082C37.9466 23.1451 37.4188 22.3357 37.4188 21.2273C37.4188 20.8402 37.7004 19.8548 38.3162 18.2889C38.3162 17.9018 37.9819 17.7258 37.4188 17.7258H29.149C28.1109 20.1012 27.1961 21.6671 26.4395 22.3885C25.6301 23.585 24.5392 24.2008 23.114 24.236C21.9175 24.236 20.6329 23.7609 19.2605 22.7052C18.1168 21.9838 17.5538 21.1393 17.5538 20.1363C17.5538 19.5733 17.7825 18.8519 18.3631 18.0425C20.0347 15.1921 21.4951 11.8666 22.7443 8.06608C23.2194 6.21859 24.4512 5.26843 26.4571 5.26843C27.7943 5.26843 28.9731 5.60275 30.1168 6.21858L30.0992 6.20097ZM44.8263 26.2595C45.6357 27.7375 46.3922 30.8166 47.1488 35.4793C47.5359 37.5204 47.7648 39.3327 47.7648 40.8986C47.712 41.6552 47.3776 42.1831 46.7265 42.4646C45.9172 42.9397 44.967 43.1332 43.8761 43.1332C42.8732 43.0804 42.1167 42.9397 41.5537 42.6581C40.9906 42.3766 40.6034 41.8488 40.3571 41.0922C39.6885 36.623 39.1256 33.104 38.545 30.6231C38.2634 29.6201 38.1227 28.5292 38.1227 27.3504C38.1755 26.7873 38.5449 26.2595 39.319 25.8724C39.9349 25.5909 40.6916 25.3973 41.6417 25.3093C42.979 25.3973 44.0697 25.6964 44.8263 26.2595Z" fill="#231815" stroke="white" stroke-width="7.14" stroke-linecap="round" stroke-linejoin="round"/>
<path d="M91.6302 24.2184C92.6683 24.2184 93.4778 24.4471 93.9528 24.9398C94.3751 25.4149 94.6215 26.277 94.6215 27.5615C94.6215 28.5996 94.4278 29.3738 94.0583 29.8488C93.5305 30.5702 92.7211 30.8869 91.6302 30.8869H77.167V32.0306H89.3779C90.3281 32.0306 90.944 32.2242 91.2783 32.5937C91.6127 33.016 91.8061 33.7374 91.8061 34.7755C91.8061 35.8136 91.6653 36.535 91.3838 36.9573C90.9967 37.5203 90.3457 37.7666 89.3779 37.7666H77.167V39.8077H78.6802C80.6684 39.8077 83.3958 39.7197 86.7213 39.4734C89.3429 39.1919 91.0495 39.0511 91.8061 39.0511C92.809 39.0511 93.5657 39.3854 94.1288 40.054C94.6038 40.7754 94.8853 41.62 94.9909 42.5701C94.9029 43.9953 94.5687 45.139 93.9881 45.8956C93.2315 46.705 91.9821 47.1273 90.3281 47.2329H78.2931C74.6333 47.2329 71.6422 47.0393 69.302 46.705C66.7331 46.2299 64.4106 45.4205 62.3168 44.2769C62.2288 44.1889 62.123 44.1361 62.123 44.1361C61.7008 44.9983 61.3138 45.5613 60.9795 45.9484C60.2229 47.0921 59.1319 47.7079 57.7947 47.7959C56.5982 47.7959 55.3137 47.268 53.9941 46.3179C52.7976 45.6493 52.2346 44.8399 52.2346 43.8898C52.2346 43.4147 52.4281 42.8517 52.9032 42.1831C54.2756 39.8957 55.4722 37.186 56.5103 34.0541C56.9326 32.3473 58.129 31.4324 60.0293 31.4324C61.261 31.4324 62.352 31.7139 63.4077 32.2946C64.3578 32.7168 64.8856 33.5262 64.8856 34.7755C64.8856 35.057 64.8328 35.3913 64.8328 35.6728C65.8709 36.8165 66.9267 37.6787 68.0176 38.2417V30.8693H55.0324C53.9942 30.8693 53.22 30.623 52.7449 30.1128C52.2698 29.6377 52.0234 28.7755 52.0234 27.5439C52.0234 26.3122 52.2522 25.3972 52.7449 24.9222C53.22 24.4471 53.9766 24.2008 55.0324 24.2008H91.5949L91.6302 24.2184ZM87.5482 5.05725C90.3986 5.05725 91.8237 6.48245 91.8237 9.33286V19.1686C91.8237 22.019 90.3986 23.4442 87.5482 23.4442H60.6275C57.7771 23.4442 56.352 22.019 56.352 19.1686V9.33286C56.352 6.48245 57.7771 5.05725 60.6275 5.05725H87.5482ZM83.1142 11.5675V11.3739C83.1142 10.8109 82.7798 10.4766 82.164 10.4766H65.9941C65.3783 10.4766 65.0967 10.8109 65.0967 11.3739V11.5675H83.1142ZM83.1142 17.1451V16.9516H65.0967V17.1451C65.0967 17.8137 65.3783 18.0953 65.9941 18.0953H82.164C82.7798 18.0953 83.1142 17.8137 83.1142 17.1451Z" fill="#231815" stroke="white" stroke-width="7.14" stroke-linecap="round" stroke-linejoin="round"/>
<path d="M109.752 5.44446C110.984 6.06029 111.565 6.72892 111.512 7.48551V7.67906H118.409C119.447 7.67906 120.221 7.90777 120.591 8.34765C120.873 8.73475 121.066 9.35058 121.119 10.1072C122.21 8.57639 123.213 7.06322 124.163 5.44446C124.55 4.91661 125.166 4.63509 126.01 4.54712C126.96 4.5999 128.104 4.9342 129.529 5.49725C130.814 6.16586 131.43 6.86968 131.377 7.67906V7.8726H139.171C140.315 7.8726 141.125 8.11892 141.494 8.59398C141.916 9.12184 142.162 9.96642 142.162 11.2157C142.162 12.3594 141.969 13.1687 141.635 13.6438C141.16 14.3124 140.297 14.5939 139.171 14.5939H136.69C136.831 15.0162 136.919 15.4033 136.919 15.6848C136.919 16.2479 136.778 16.6878 136.497 17.0221C139.259 17.4092 140.632 19.0631 140.632 22.0191V38.7169C140.632 41.0043 140.298 42.5703 139.735 43.4148C138.696 44.6113 137.254 45.2271 135.459 45.2271C133.083 45.2271 131.271 44.9456 130.092 44.4177V45.4207C129.899 47.1274 128.579 48.0775 126.01 48.2183C123.389 48.0775 122.016 47.1274 121.928 45.4207V44.9456C121.541 45.4734 121.066 45.8957 120.415 46.2828C119.13 46.9514 117.934 47.2858 116.896 47.2858C115.946 47.2858 115.048 46.5643 114.274 45.2447C110.474 46.5819 106.849 47.2858 103.33 47.2858C101.905 47.2858 100.902 46.9515 100.286 46.3884C99.6175 45.7198 99.2832 44.7168 99.248 43.3972C99.3008 42.3063 99.635 41.4442 100.198 40.7755C100.48 40.3885 100.919 40.1597 101.482 40.0189V20.717C101.482 19.0983 102.098 18.0074 103.33 17.3388C102.573 17.11 101.817 16.723 101.008 16.1951C99.9694 15.5265 99.4416 14.8227 99.4416 14.0485C99.4944 13.3271 99.8638 12.4825 100.532 11.4796C102.098 9.57931 103.524 7.57348 104.861 5.47966C105.248 4.95181 105.758 4.67027 106.532 4.58229C107.394 4.63508 108.485 4.91662 109.77 5.47966L109.752 5.44446ZM110.509 16.5646C109.946 15.808 109.471 15.0866 109.084 14.5236C108.996 14.3828 108.89 14.2948 108.837 14.1893H108.556C108.133 14.7523 107.694 15.2274 107.324 15.7024C106.937 16.0895 106.655 16.371 106.374 16.5646H110.509ZM112.99 24.0249V23.2684C112.99 22.7933 112.603 22.5118 111.899 22.5118H110.227C109.471 22.5118 109.084 22.7933 109.084 23.2684V24.0249H112.99ZM111.899 31.063C112.62 31.063 112.99 30.8343 112.99 30.3416V29.585H109.084V31.063H111.881H111.899ZM113.324 37.0102H109.084V39.2976C109.981 39.2096 110.896 39.104 111.741 39.016C111.829 38.3474 112.356 37.6788 113.307 37.0278L113.324 37.0102ZM121.928 22.371C121.928 20.0836 122.491 18.5177 123.688 17.7083C122.79 17.6203 121.699 17.1804 120.45 16.371C119.412 15.808 118.937 15.1394 118.937 14.3652C118.937 14.2772 118.937 14.2245 118.99 14.1365C118.761 14.1893 118.567 14.1893 118.427 14.1893H117.864C117.952 14.5236 118.057 14.8051 118.057 15.0866C118.057 15.7024 117.811 16.2303 117.441 16.6526C119.588 17.0397 120.679 18.3593 120.679 20.6467V32.9105C120.679 34.6172 120.063 35.8137 118.919 36.3768C119.201 36.6583 119.482 36.9398 119.676 37.3269C120.714 39.2272 121.488 40.7052 121.963 41.7081V22.3534L121.928 22.371ZM126.397 16.9517H129.107C128.544 16.1951 128.069 15.5793 127.682 14.9986C127.4 15.3329 127.119 15.6145 126.872 15.896C126.345 16.3711 125.869 16.7581 125.447 17.0397C125.729 16.9869 126.01 16.9517 126.397 16.9517ZM132.538 36.3064C132.626 36.3064 132.731 36.0776 132.731 35.5498V24.7639H130.11V36.6935C130.778 36.4471 131.588 36.3064 132.538 36.3064Z" fill="#231815" stroke="white" stroke-width="7.14" stroke-linecap="round" stroke-linejoin="round"/>
<path d="M162.873 6.39517C162.873 6.2544 162.926 6.11364 162.961 6.00807C163.437 4.4421 164.774 3.63274 166.868 3.57996C168.345 3.57996 169.577 3.86146 170.58 4.4421C171.389 4.91717 171.812 5.58579 171.864 6.39517H186.222C187.12 6.39517 187.788 6.62391 188.21 7.06379C188.598 7.45088 188.774 8.20748 188.774 9.35117C188.774 10.3013 188.58 10.9699 188.299 11.3922C187.823 12.0608 187.155 12.3423 186.205 12.3423H170.615C170.475 12.6766 170.334 12.9582 170.228 13.2397H184.867C185.729 13.2397 186.381 13.486 186.768 13.8555C187.102 14.2426 187.295 14.9992 187.295 16.0373C187.295 16.9875 187.155 17.6561 186.873 18.0256C186.398 18.6942 185.729 18.9757 184.867 18.9757H178.357C178.639 19.31 178.973 19.6443 179.307 19.9259H186.908C187.911 19.9259 188.615 20.1546 189.09 20.5945C189.477 21.0168 189.706 21.8261 189.706 23.0754C189.706 24.0255 189.513 24.7469 189.178 25.222C188.65 25.9434 187.894 26.2601 186.891 26.2601C187.612 26.7352 188.263 27.1575 188.932 27.5446C189.794 28.0196 190.304 28.5475 190.41 29.2161C190.357 30.5533 189.847 31.697 188.897 32.6471C188.281 33.3158 187.7 33.7381 187.137 33.9316C187.7 34.0196 188.14 34.2131 188.422 34.4946C188.756 34.8817 188.95 35.5855 188.95 36.6413C188.95 37.5914 188.809 38.26 188.527 38.6823C188.052 39.3509 187.384 39.6324 186.521 39.6324H178.34C180.715 40.5298 183.952 41.392 188.035 42.2541C188.598 42.6412 188.932 43.1163 188.932 43.7321C188.932 44.823 188.404 45.9667 187.454 47.1104C186.451 48.1485 185.466 48.7291 184.463 48.7291C183.565 48.7291 181.806 48.3068 179.237 47.4447C175.718 46.1602 172.252 44.5415 168.821 42.5884C168.486 42.3949 168.205 42.2541 167.958 42.2541C167.677 42.2541 167.483 42.3421 167.29 42.5004C163.436 44.8758 159.829 46.6353 156.504 47.779C154.991 48.2541 153.706 48.5356 152.704 48.5356C151.472 48.5356 150.222 47.9198 148.991 46.6881C148.234 45.738 147.9 44.8758 147.9 44.1192C147.9 43.257 148.181 42.6412 148.797 42.2717C152.651 41.3743 155.747 40.5122 158.017 39.65H150.504C149.642 39.65 149.026 39.4213 148.657 38.9286C148.269 38.5415 148.094 37.7849 148.094 36.6413C148.094 35.6031 148.287 34.8818 148.657 34.4595C148.938 34.1779 149.378 33.9844 149.941 33.9316C149.184 33.5973 148.463 33.0694 147.794 32.4008C146.844 31.5387 146.369 30.6941 146.422 29.7792C146.422 29.1105 146.668 28.6355 147.143 28.3012C148.182 27.6325 149.184 26.9639 150.134 26.2601H149.941C148.991 26.2601 148.269 26.0314 147.794 25.5035C147.319 25.0812 147.126 24.2719 147.126 23.0754C147.126 21.8789 147.319 21.0871 147.794 20.5945C148.217 20.1722 148.938 19.9259 149.941 19.9259H156.592C156.68 19.8379 156.733 19.7323 156.838 19.6443C156.979 19.4508 157.12 19.2221 157.313 18.9757H152.176C151.313 18.9757 150.698 18.7822 150.328 18.3071C149.941 17.8848 149.765 17.1106 149.765 16.0197C149.765 14.9288 149.959 14.2074 150.328 13.8379C150.715 13.4508 151.331 13.2221 152.176 13.2221H160.445C160.586 12.9406 160.727 12.6063 160.832 12.3248H150.662C149.8 12.3248 149.149 12.0784 148.709 11.6033C148.287 11.2163 148.094 10.4597 148.094 9.31597C148.094 8.17228 148.287 7.41571 148.709 6.99342C149.096 6.60633 149.747 6.37758 150.662 6.37758H162.838L162.873 6.39517ZM163.929 33.8788V32.7351H158.703C157.894 32.7351 157.278 32.5416 156.891 32.1193C156.75 32.0313 156.645 31.8906 156.61 31.697C156.328 31.9258 156.047 32.1193 155.747 32.3129C154.604 33.0695 153.601 33.5973 152.756 33.8788H163.929ZM174.909 27.175C174.522 26.8935 174.24 26.5592 173.958 26.2777H162.31C162.029 26.612 161.783 26.8935 161.501 27.175H174.909ZM171.777 18.9933H167.448C167.255 19.3276 167.061 19.6619 166.885 19.9435H171.02C171.213 19.6092 171.495 19.2748 171.777 18.9933ZM172.287 33.8788H184.181C183.319 33.5973 182.474 33.1574 181.612 32.5944C181.137 32.3128 180.75 32.0665 180.416 31.785C180.416 31.8378 180.363 31.873 180.363 31.873C179.888 32.436 179.219 32.7351 178.375 32.7351H172.287V33.8788Z" fill="#231815" stroke="white" stroke-width="7.14" stroke-linecap="round" stroke-linejoin="round"/>
<path d="M209.429 7.29229C212.28 7.29229 213.705 8.71748 213.705 11.5679V34.5824C214.655 30.254 215.183 25.5912 215.183 20.647V12.131C215.183 8.04888 217.277 5.99023 221.5 5.99023H230.772C234.96 5.99023 237.089 8.13684 237.089 12.3069V39.597C237.089 42.7289 236.808 44.8228 236.227 45.8785C235.47 47.1101 234.326 47.7787 232.796 47.7787C229.47 47.7787 226.989 47.3565 225.476 46.5823C224.139 45.8257 223.523 44.5412 223.523 42.7289C223.523 40.9166 223.805 39.7729 224.473 38.9284C224.86 38.4005 225.423 38.119 226.286 38.119H227.957C228.344 38.119 228.52 37.8375 228.52 37.1689V34.7407H222.767C222.204 38.6468 221.289 41.7788 220.145 44.2421C219.476 46.4239 217.91 47.5676 215.535 47.5676C212.632 47.3741 211.066 46.1424 210.872 43.855C210.872 43.5735 210.872 43.3799 210.96 43.0984C210.432 43.2392 209.922 43.292 209.394 43.292H199.928C197.078 43.292 195.652 41.8668 195.652 39.0164V11.5327C195.652 8.68228 197.078 7.25709 199.928 7.25709H209.394L209.429 7.29229ZM206.245 21.0341V16.952C206.245 16.0899 205.822 15.6676 204.96 15.6676H204.397C203.535 15.6676 203.113 16.0899 203.113 16.952V21.0341H206.245ZM206.245 33.685V29.4094H203.113V33.685C203.113 34.5472 203.535 34.9695 204.397 34.9695H204.96C205.822 34.9695 206.245 34.5472 206.245 33.685ZM228.555 26.9813V24.5531H223.699C223.646 25.4153 223.611 26.2247 223.611 26.9813H228.555ZM228.555 16.7585V15.474C228.555 14.7526 228.309 14.3831 227.834 14.3831H224.843C224.086 14.3831 223.752 14.7174 223.752 15.2805V16.7585H228.555Z" fill="#231815" stroke="white" stroke-width="7.14" stroke-linecap="round" stroke-linejoin="round"/>
<path d="M266.789 7.87352C266.877 7.592 266.93 7.25768 267.018 6.92337C267.405 5.63892 268.531 4.9703 270.343 4.88232C271.628 4.88232 272.718 5.16386 273.616 5.63893C274.372 6.114 274.812 6.72984 274.812 7.48643V7.87352H281.129C283.839 7.87352 285.211 9.91455 285.211 14.0142V14.9116C285.211 15.9497 284.877 16.6183 284.261 17.0054C283.645 17.4805 282.783 17.7268 281.639 17.7268C280.742 17.7268 280.02 17.6388 279.492 17.4453C279.545 17.6388 279.581 17.7796 279.581 17.9203C279.581 18.1139 279.528 18.3426 279.44 18.6418H281.815C282.818 18.6418 283.487 18.8881 283.856 19.3104C284.243 19.7854 284.419 20.542 284.419 21.6329C284.419 22.7238 284.226 23.4452 283.944 23.9203C283.522 24.4833 282.8 24.7825 281.798 24.7825H278.279V25.9262H281.27C282.273 25.9262 282.941 26.1549 283.258 26.542C283.645 27.0171 283.821 27.7736 283.821 28.8645C283.821 29.9554 283.627 30.712 283.346 31.1871C282.959 31.7502 282.255 32.0493 281.252 32.0493H278.261V33.1402H281.058C282.097 33.1402 282.818 33.3865 283.205 33.8088C283.592 34.2838 283.821 35.146 283.821 36.3249C283.821 37.5038 283.627 38.2779 283.346 38.753C282.871 39.3688 282.114 39.6504 281.058 39.6504H278.261V40.9348H281.78C283.874 40.9348 284.965 42.0257 284.965 44.1195C284.965 46.2134 283.874 47.445 281.78 47.445H263.956C260.965 47.445 259.487 45.9319 259.487 42.9759V30.9936C259.346 31.0464 259.258 31.0815 259.153 31.0815C258.73 31.0815 258.343 30.9936 258.009 30.8528V42.0785C258.009 45.5096 256.865 47.2691 254.683 47.2691H249.123C246.273 47.2691 244.848 45.5096 244.848 42.0785V31.9437C243.898 31.715 243.035 31.0815 242.226 30.0434C241.469 29.0053 241.029 28.0376 240.941 27.193C240.941 26.2429 241.223 25.4335 241.839 24.7649C243.51 22.196 244.689 19.9086 245.358 17.9203C245.639 17.0582 245.921 16.1081 246.167 15.1227H245.921C244.725 15.1227 243.774 14.7884 243.123 14.0846C242.367 13.5216 242.032 12.3779 242.032 10.6535C242.032 8.92921 242.367 7.71516 243.123 7.04655C243.651 6.51869 244.601 6.23716 245.921 6.23716H254.666C255.95 6.23716 256.9 6.57146 257.516 7.1345C257.798 7.36324 257.991 7.66237 258.185 8.03187C258.572 7.9439 258.941 7.89111 259.328 7.89111H266.701L266.789 7.87352ZM251.762 38.6826C252.15 38.6826 252.326 38.1548 252.326 37.0111V28.6358C252.326 28.1607 252.132 27.9144 251.762 27.9144H251.235C250.848 27.9144 250.672 28.3367 250.672 29.1989V36.9935C250.672 38.1372 250.865 38.6651 251.235 38.6651H251.762V38.6826ZM254.191 19.3807C256.672 19.3807 257.991 20.5244 258.097 22.8118C259.715 21.3866 261.088 19.8206 262.32 18.1139C263.076 17.0758 263.745 15.9321 264.361 14.5949H263.323C262.654 14.5949 262.372 14.9292 262.372 15.4922V16.4424C262.372 17.3045 262.091 17.8676 261.616 18.1139C261.053 18.501 260.138 18.6418 258.853 18.6418C257.569 18.6418 256.76 18.4482 256.232 17.9731C255.616 17.4981 255.334 16.7767 255.334 15.8793V15.0699C255.141 15.1227 254.947 15.1227 254.771 15.1227H253.909C253.628 16.6007 253.293 18.0259 252.906 19.3983H254.191V19.3807ZM270.924 24.7473H267.211V25.891H270.924V24.7473ZM270.924 32.0141H267.211V33.105H270.924V32.0141ZM270.924 39.6328H267.211C267.211 40.4949 267.545 40.9172 268.302 40.9172H270.924V39.6328ZM271.117 18.6066H271.979C272.067 18.2722 272.226 17.8852 272.402 17.5157C272.965 16.1784 274.214 15.5274 276.114 15.4746C276.976 15.4746 277.68 15.6154 278.208 15.8617C278.155 15.7737 278.155 15.633 278.155 15.4746C278.155 14.9116 277.768 14.5773 277.064 14.5773H273.018C272.455 15.9145 271.821 17.2869 271.117 18.6242V18.6066Z" fill="#231815" stroke="white" stroke-width="7.14" stroke-linecap="round" stroke-linejoin="round"/>
<path d="M304.654 5.67305C305.516 6.14812 305.939 6.90469 306.026 7.85483C306.026 8.24193 305.886 9.05131 305.604 10.283H306.414C309.37 10.283 310.883 11.7082 311.024 14.4706C312.167 12.0953 313.012 9.66715 313.645 7.09825C314.032 6.00735 315.07 5.39152 316.83 5.25076C318.255 5.25076 319.54 5.58505 320.683 6.20088C321.88 6.95748 322.496 7.87244 322.584 8.96334C322.584 9.35043 322.531 9.71992 322.496 10.107H325.152C329.622 10.107 331.856 12.3944 331.856 16.9515V39.2446C331.856 42.0422 331.293 43.9953 330.185 45.2446C328.619 46.6698 326.331 47.4264 323.287 47.4264C321.106 47.3736 319.205 47.1448 317.534 46.6698C316.337 46.3354 315.44 45.8076 314.824 45.051C314.261 44.2944 313.927 43.2387 313.821 41.8663C313.909 40.5291 314.296 39.4382 314.859 38.6288C315.475 37.8722 316.372 37.4323 317.516 37.3971C318.273 37.3971 319.188 37.4851 320.226 37.5907C320.982 37.7314 321.739 37.7842 322.548 37.7842C323.27 37.7842 323.639 37.2563 323.639 36.1127V21.9837C323.639 19.8899 322.883 18.799 321.405 18.799H319.364C319.17 19.1333 319.029 19.4149 318.941 19.6084C317.798 21.5087 316.373 22.5116 314.56 22.5116C313.469 22.5116 312.273 22.1245 311.041 21.3327V41.6903C311.041 44.7343 309.475 46.3003 306.379 46.3003H295.206C292.109 46.3003 290.596 44.7343 290.596 41.6903V14.9281C290.596 11.8841 292.109 10.3182 295.206 10.3182H296.437C296.684 9.45601 296.965 8.50585 297.247 7.52052C297.968 6.00734 299.428 5.19798 301.716 5.09241C302.947 5.09241 303.898 5.32113 304.619 5.70822L304.654 5.67305ZM303.071 23.6553V19.9427C303.071 18.9926 302.543 18.4647 301.557 18.4647H300.079C299.076 18.4647 298.601 18.9926 298.601 19.9427V23.6553H303.071ZM303.071 36.6405V32.5585H298.601V36.6405C298.601 37.6786 299.076 38.1537 300.079 38.1537H301.557C302.56 38.1537 303.071 37.6786 303.071 36.6405ZM319.909 24.6934C321.897 28.3532 322.953 30.4998 322.953 31.0629C322.865 32.2945 322.144 33.2446 320.859 33.966C319.575 34.6347 318.378 34.969 317.34 34.969C315.862 34.969 314.543 33.5966 313.346 30.8341C312.15 28.5995 311.587 27.1215 311.587 26.4529C311.587 25.5908 312.308 24.6934 313.821 23.796C314.965 23.2154 316.056 22.8987 317.147 22.8987C318.378 22.9867 319.293 23.5673 319.909 24.711V24.6934Z" fill="#231815" stroke="white" stroke-width="7.14" stroke-linecap="round" stroke-linejoin="round"/>
</g>
<path d="M18.2577 6.25375C19.3486 7.11591 19.9291 8.06607 19.9291 9.15697C20.0171 10.1071 19.7885 11.198 19.2079 12.4825C18.4865 14.2948 17.8354 15.9135 17.1668 17.3387V37.9779C17.2196 37.8371 17.2547 37.6963 17.3075 37.5908C18.4512 34.6524 19.4542 31.0805 20.2988 26.9809C20.6859 25.5029 21.6711 24.7463 23.2899 24.7463C24.328 24.7463 25.3308 25.0278 26.281 25.5029C27.1431 25.89 27.5656 26.6466 27.5656 27.7375C27.5656 28.8284 27.372 30.3591 27.0376 32.3474C26.4746 35.1978 25.9996 37.4324 25.5597 38.9632C25.7533 38.7696 25.982 38.6816 26.2283 38.6816C26.5099 38.6816 26.9498 38.7696 27.5656 38.8752C28.1286 38.8752 28.4627 38.6465 28.4627 38.1538V23.0747C28.5507 21.2624 30.0816 20.3651 32.932 20.3123C35.976 20.3651 37.4892 21.2624 37.5947 23.0747V41.8488C37.5947 43.9954 37.067 45.5086 36.1168 46.4059C35.1139 47.3033 33.46 47.7783 31.0846 47.7783C28.85 47.7783 27.1432 47.4968 25.9468 47.0218C24.7151 46.4587 24.0465 45.3502 23.9937 43.6963C23.9937 43.1684 24.0464 42.6933 24.1344 42.2183C23.4658 42.8869 22.7092 43.2564 21.7591 43.3092C20.721 43.3092 19.5774 42.8869 18.3281 42.0247C17.7123 41.6904 17.3251 41.3561 17.1316 40.9866V43.8898C17.1316 45.315 16.7094 46.3707 15.9 46.9866C15.2314 47.6552 14.1403 47.9895 12.6623 47.9895C11.1843 47.9895 10.1463 47.6552 9.47771 46.9866C8.61555 46.4235 8.1933 45.3678 8.1933 43.8898V28.67C7.29595 28.4765 6.34582 27.9486 5.34289 27.192C4.11123 26.2947 3.53059 25.239 3.58338 24.0073C3.58338 23.3387 3.91759 22.5821 4.58621 21.7199C7.1551 17.8138 9.44244 13.1687 11.3779 7.64378C11.765 6.02503 12.7504 5.16286 14.334 5.02209C15.7064 5.11007 16.9908 5.49718 18.2401 6.21858L18.2577 6.25375ZM30.0992 6.20097C31.1373 6.67604 31.6652 7.62619 31.6652 8.96342C31.6652 9.15697 31.6123 9.3505 31.6123 9.52645H42.2223C43.8938 9.52645 45.1782 9.86078 46.0755 10.4766C47.0784 11.374 47.5887 12.5704 47.5887 13.9956C47.5887 15.0338 46.8674 17.7082 45.5478 21.9838C45.0727 23.8313 44.0346 24.7463 42.4158 24.7463C41.3249 24.6583 40.234 24.2712 39.0903 23.7082C37.9466 23.1451 37.4188 22.3357 37.4188 21.2273C37.4188 20.8402 37.7004 19.8548 38.3162 18.2889C38.3162 17.9018 37.9819 17.7258 37.4188 17.7258H29.149C28.1109 20.1012 27.1961 21.6671 26.4395 22.3885C25.6301 23.585 24.5392 24.2008 23.114 24.236C21.9175 24.236 20.6329 23.7609 19.2605 22.7052C18.1168 21.9838 17.5538 21.1393 17.5538 20.1363C17.5538 19.5733 17.7825 18.8519 18.3631 18.0425C20.0347 15.1921 21.4951 11.8666 22.7443 8.06608C23.2194 6.21859 24.4512 5.26843 26.4571 5.26843C27.7943 5.26843 28.9731 5.60275 30.1168 6.21858L30.0992 6.20097ZM44.8263 26.2595C45.6357 27.7375 46.3922 30.8166 47.1488 35.4793C47.5359 37.5204 47.7648 39.3327 47.7648 40.8986C47.712 41.6552 47.3776 42.1831 46.7265 42.4646C45.9172 42.9397 44.967 43.1332 43.8761 43.1332C42.8732 43.0804 42.1167 42.9397 41.5537 42.6581C40.9906 42.3766 40.6034 41.8488 40.3571 41.0922C39.6885 36.623 39.1256 33.104 38.545 30.6231C38.2634 29.6201 38.1227 28.5292 38.1227 27.3504C38.1755 26.7873 38.5449 26.2595 39.319 25.8724C39.9349 25.5909 40.6916 25.3973 41.6417 25.3093C42.979 25.3973 44.0697 25.6964 44.8263 26.2595Z" fill="#76777A"/>
<path d="M91.6302 24.2184C92.6683 24.2184 93.4778 24.4471 93.9528 24.9398C94.3751 25.4149 94.6215 26.277 94.6215 27.5615C94.6215 28.5996 94.4278 29.3738 94.0583 29.8488C93.5305 30.5702 92.7211 30.8869 91.6302 30.8869H77.167V32.0306H89.3779C90.3281 32.0306 90.944 32.2242 91.2783 32.5937C91.6127 33.016 91.8061 33.7374 91.8061 34.7755C91.8061 35.8136 91.6653 36.535 91.3838 36.9573C90.9967 37.5203 90.3457 37.7666 89.3779 37.7666H77.167V39.8077H78.6802C80.6684 39.8077 83.3958 39.7197 86.7213 39.4734C89.3429 39.1919 91.0495 39.0511 91.8061 39.0511C92.809 39.0511 93.5657 39.3854 94.1288 40.054C94.6038 40.7754 94.8853 41.62 94.9909 42.5701C94.9029 43.9953 94.5687 45.139 93.9881 45.8956C93.2315 46.705 91.9821 47.1273 90.3281 47.2329H78.2931C74.6333 47.2329 71.6422 47.0393 69.302 46.705C66.7331 46.2299 64.4106 45.4205 62.3168 44.2769C62.2288 44.1889 62.123 44.1361 62.123 44.1361C61.7008 44.9983 61.3138 45.5613 60.9795 45.9484C60.2229 47.0921 59.1319 47.7079 57.7947 47.7959C56.5982 47.7959 55.3137 47.268 53.9941 46.3179C52.7976 45.6493 52.2346 44.8399 52.2346 43.8898C52.2346 43.4147 52.4281 42.8517 52.9032 42.1831C54.2756 39.8957 55.4722 37.186 56.5103 34.0541C56.9326 32.3473 58.129 31.4324 60.0293 31.4324C61.261 31.4324 62.352 31.7139 63.4077 32.2946C64.3578 32.7168 64.8856 33.5262 64.8856 34.7755C64.8856 35.057 64.8328 35.3913 64.8328 35.6728C65.8709 36.8165 66.9267 37.6787 68.0176 38.2417V30.8693H55.0324C53.9942 30.8693 53.22 30.623 52.7449 30.1128C52.2698 29.6377 52.0234 28.7755 52.0234 27.5439C52.0234 26.3122 52.2522 25.3972 52.7449 24.9222C53.22 24.4471 53.9766 24.2008 55.0324 24.2008H91.5949L91.6302 24.2184ZM87.5482 5.05725C90.3986 5.05725 91.8237 6.48245 91.8237 9.33286V19.1686C91.8237 22.019 90.3986 23.4442 87.5482 23.4442H60.6275C57.7771 23.4442 56.352 22.019 56.352 19.1686V9.33286C56.352 6.48245 57.7771 5.05725 60.6275 5.05725H87.5482ZM83.1142 11.5675V11.3739C83.1142 10.8109 82.7798 10.4766 82.164 10.4766H65.9941C65.3783 10.4766 65.0967 10.8109 65.0967 11.3739V11.5675H83.1142ZM83.1142 17.1451V16.9516H65.0967V17.1451C65.0967 17.8137 65.3783 18.0953 65.9941 18.0953H82.164C82.7798 18.0953 83.1142 17.8137 83.1142 17.1451Z" fill="#76777A"/>
<path d="M109.752 5.44446C110.984 6.06029 111.565 6.72892 111.512 7.48551V7.67906H118.409C119.447 7.67906 120.221 7.90777 120.591 8.34765C120.873 8.73475 121.066 9.35058 121.119 10.1072C122.21 8.57639 123.213 7.06322 124.163 5.44446C124.55 4.91661 125.166 4.63509 126.01 4.54712C126.96 4.5999 128.104 4.9342 129.529 5.49725C130.814 6.16586 131.43 6.86968 131.377 7.67906V7.8726H139.171C140.315 7.8726 141.125 8.11892 141.494 8.59398C141.916 9.12184 142.162 9.96642 142.162 11.2157C142.162 12.3594 141.969 13.1687 141.635 13.6438C141.16 14.3124 140.297 14.5939 139.171 14.5939H136.69C136.831 15.0162 136.919 15.4033 136.919 15.6848C136.919 16.2479 136.778 16.6878 136.497 17.0221C139.259 17.4092 140.632 19.0631 140.632 22.0191V38.7169C140.632 41.0043 140.298 42.5703 139.735 43.4148C138.696 44.6113 137.254 45.2271 135.459 45.2271C133.083 45.2271 131.271 44.9456 130.092 44.4177V45.4207C129.899 47.1274 128.579 48.0775 126.01 48.2183C123.389 48.0775 122.016 47.1274 121.928 45.4207V44.9456C121.541 45.4734 121.066 45.8957 120.415 46.2828C119.13 46.9514 117.934 47.2858 116.896 47.2858C115.946 47.2858 115.048 46.5643 114.274 45.2447C110.474 46.5819 106.849 47.2858 103.33 47.2858C101.905 47.2858 100.902 46.9515 100.286 46.3884C99.6175 45.7198 99.2832 44.7168 99.248 43.3972C99.3008 42.3063 99.635 41.4442 100.198 40.7755C100.48 40.3885 100.919 40.1597 101.482 40.0189V20.717C101.482 19.0983 102.098 18.0074 103.33 17.3388C102.573 17.11 101.817 16.723 101.008 16.1951C99.9694 15.5265 99.4416 14.8227 99.4416 14.0485C99.4944 13.3271 99.8638 12.4825 100.532 11.4796C102.098 9.57931 103.524 7.57348 104.861 5.47966C105.248 4.95181 105.758 4.67027 106.532 4.58229C107.394 4.63508 108.485 4.91662 109.77 5.47966L109.752 5.44446ZM110.509 16.5646C109.946 15.808 109.471 15.0866 109.084 14.5236C108.996 14.3828 108.89 14.2948 108.837 14.1893H108.556C108.133 14.7523 107.694 15.2274 107.324 15.7024C106.937 16.0895 106.655 16.371 106.374 16.5646H110.509ZM112.99 24.0249V23.2684C112.99 22.7933 112.603 22.5118 111.899 22.5118H110.227C109.471 22.5118 109.084 22.7933 109.084 23.2684V24.0249H112.99ZM111.899 31.063C112.62 31.063 112.99 30.8343 112.99 30.3416V29.585H109.084V31.063H111.881H111.899ZM113.324 37.0102H109.084V39.2976C109.981 39.2096 110.896 39.104 111.741 39.016C111.829 38.3474 112.356 37.6788 113.307 37.0278L113.324 37.0102ZM121.928 22.371C121.928 20.0836 122.491 18.5177 123.688 17.7083C122.79 17.6203 121.699 17.1804 120.45 16.371C119.412 15.808 118.937 15.1394 118.937 14.3652C118.937 14.2772 118.937 14.2245 118.99 14.1365C118.761 14.1893 118.567 14.1893 118.427 14.1893H117.864C117.952 14.5236 118.057 14.8051 118.057 15.0866C118.057 15.7024 117.811 16.2303 117.441 16.6526C119.588 17.0397 120.679 18.3593 120.679 20.6467V32.9105C120.679 34.6172 120.063 35.8137 118.919 36.3768C119.201 36.6583 119.482 36.9398 119.676 37.3269C120.714 39.2272 121.488 40.7052 121.963 41.7081V22.3534L121.928 22.371ZM126.397 16.9517H129.107C128.544 16.1951 128.069 15.5793 127.682 14.9986C127.4 15.3329 127.119 15.6145 126.872 15.896C126.345 16.3711 125.869 16.7581 125.447 17.0397C125.729 16.9869 126.01 16.9517 126.397 16.9517ZM132.538 36.3064C132.626 36.3064 132.731 36.0776 132.731 35.5498V24.7639H130.11V36.6935C130.778 36.4471 131.588 36.3064 132.538 36.3064Z" fill="#76777A"/>
<path d="M162.873 6.39517C162.873 6.2544 162.926 6.11364 162.961 6.00807C163.437 4.4421 164.774 3.63274 166.868 3.57996C168.345 3.57996 169.577 3.86146 170.58 4.4421C171.389 4.91717 171.812 5.58579 171.864 6.39517H186.222C187.12 6.39517 187.788 6.62391 188.21 7.06379C188.598 7.45088 188.774 8.20748 188.774 9.35117C188.774 10.3013 188.58 10.9699 188.299 11.3922C187.823 12.0608 187.155 12.3423 186.205 12.3423H170.615C170.475 12.6766 170.334 12.9582 170.228 13.2397H184.867C185.729 13.2397 186.381 13.486 186.768 13.8555C187.102 14.2426 187.295 14.9992 187.295 16.0373C187.295 16.9875 187.155 17.6561 186.873 18.0256C186.398 18.6942 185.729 18.9757 184.867 18.9757H178.357C178.639 19.31 178.973 19.6443 179.307 19.9259H186.908C187.911 19.9259 188.615 20.1546 189.09 20.5945C189.477 21.0168 189.706 21.8261 189.706 23.0754C189.706 24.0255 189.513 24.7469 189.178 25.222C188.65 25.9434 187.894 26.2601 186.891 26.2601C187.612 26.7352 188.263 27.1575 188.932 27.5446C189.794 28.0196 190.304 28.5475 190.41 29.2161C190.357 30.5533 189.847 31.697 188.897 32.6471C188.281 33.3158 187.7 33.7381 187.137 33.9316C187.7 34.0196 188.14 34.2131 188.422 34.4946C188.756 34.8817 188.95 35.5855 188.95 36.6413C188.95 37.5914 188.809 38.26 188.527 38.6823C188.052 39.3509 187.384 39.6324 186.521 39.6324H178.34C180.715 40.5298 183.952 41.392 188.035 42.2541C188.598 42.6412 188.932 43.1163 188.932 43.7321C188.932 44.823 188.404 45.9667 187.454 47.1104C186.451 48.1485 185.466 48.7291 184.463 48.7291C183.565 48.7291 181.806 48.3068 179.237 47.4447C175.718 46.1602 172.252 44.5415 168.821 42.5884C168.486 42.3949 168.205 42.2541 167.958 42.2541C167.677 42.2541 167.483 42.3421 167.29 42.5004C163.436 44.8758 159.829 46.6353 156.504 47.779C154.991 48.2541 153.706 48.5356 152.704 48.5356C151.472 48.5356 150.222 47.9198 148.991 46.6881C148.234 45.738 147.9 44.8758 147.9 44.1192C147.9 43.257 148.181 42.6412 148.797 42.2717C152.651 41.3743 155.747 40.5122 158.017 39.65H150.504C149.642 39.65 149.026 39.4213 148.657 38.9286C148.269 38.5415 148.094 37.7849 148.094 36.6413C148.094 35.6031 148.287 34.8818 148.657 34.4595C148.938 34.1779 149.378 33.9844 149.941 33.9316C149.184 33.5973 148.463 33.0694 147.794 32.4008C146.844 31.5387 146.369 30.6941 146.422 29.7792C146.422 29.1105 146.668 28.6355 147.143 28.3012C148.182 27.6325 149.184 26.9639 150.134 26.2601H149.941C148.991 26.2601 148.269 26.0314 147.794 25.5035C147.319 25.0812 147.126 24.2719 147.126 23.0754C147.126 21.8789 147.319 21.0871 147.794 20.5945C148.217 20.1722 148.938 19.9259 149.941 19.9259H156.592C156.68 19.8379 156.733 19.7323 156.838 19.6443C156.979 19.4508 157.12 19.2221 157.313 18.9757H152.176C151.313 18.9757 150.698 18.7822 150.328 18.3071C149.941 17.8848 149.765 17.1106 149.765 16.0197C149.765 14.9288 149.959 14.2074 150.328 13.8379C150.715 13.4508 151.331 13.2221 152.176 13.2221H160.445C160.586 12.9406 160.727 12.6063 160.832 12.3248H150.662C149.8 12.3248 149.149 12.0784 148.709 11.6033C148.287 11.2163 148.094 10.4597 148.094 9.31597C148.094 8.17228 148.287 7.41571 148.709 6.99342C149.096 6.60633 149.747 6.37758 150.662 6.37758H162.838L162.873 6.39517ZM163.929 33.8788V32.7351H158.703C157.894 32.7351 157.278 32.5416 156.891 32.1193C156.75 32.0313 156.645 31.8906 156.61 31.697C156.328 31.9258 156.047 32.1193 155.747 32.3129C154.604 33.0695 153.601 33.5973 152.756 33.8788H163.929ZM174.909 27.175C174.522 26.8935 174.24 26.5592 173.958 26.2777H162.31C162.029 26.612 161.783 26.8935 161.501 27.175H174.909ZM171.777 18.9933H167.448C167.255 19.3276 167.061 19.6619 166.885 19.9435H171.02C171.213 19.6092 171.495 19.2748 171.777 18.9933ZM172.287 33.8788H184.181C183.319 33.5973 182.474 33.1574 181.612 32.5944C181.137 32.3128 180.75 32.0665 180.416 31.785C180.416 31.8378 180.363 31.873 180.363 31.873C179.888 32.436 179.219 32.7351 178.375 32.7351H172.287V33.8788Z" fill="#76777A"/>
<path d="M209.429 7.29229C212.28 7.29229 213.705 8.71748 213.705 11.5679V34.5824C214.655 30.254 215.183 25.5912 215.183 20.647V12.131C215.183 8.04888 217.277 5.99023 221.5 5.99023H230.772C234.96 5.99023 237.089 8.13684 237.089 12.3069V39.597C237.089 42.7289 236.808 44.8228 236.227 45.8785C235.47 47.1101 234.326 47.7787 232.796 47.7787C229.47 47.7787 226.989 47.3565 225.476 46.5823C224.139 45.8257 223.523 44.5412 223.523 42.7289C223.523 40.9166 223.805 39.7729 224.473 38.9284C224.86 38.4005 225.423 38.119 226.286 38.119H227.957C228.344 38.119 228.52 37.8375 228.52 37.1689V34.7407H222.767C222.204 38.6468 221.289 41.7788 220.145 44.2421C219.476 46.4239 217.91 47.5676 215.535 47.5676C212.632 47.3741 211.066 46.1424 210.872 43.855C210.872 43.5735 210.872 43.3799 210.96 43.0984C210.432 43.2392 209.922 43.292 209.394 43.292H199.928C197.078 43.292 195.652 41.8668 195.652 39.0164V11.5327C195.652 8.68228 197.078 7.25709 199.928 7.25709H209.394L209.429 7.29229ZM206.245 21.0341V16.952C206.245 16.0899 205.822 15.6676 204.96 15.6676H204.397C203.535 15.6676 203.113 16.0899 203.113 16.952V21.0341H206.245ZM206.245 33.685V29.4094H203.113V33.685C203.113 34.5472 203.535 34.9695 204.397 34.9695H204.96C205.822 34.9695 206.245 34.5472 206.245 33.685ZM228.555 26.9813V24.5531H223.699C223.646 25.4153 223.611 26.2247 223.611 26.9813H228.555ZM228.555 16.7585V15.474C228.555 14.7526 228.309 14.3831 227.834 14.3831H224.843C224.086 14.3831 223.752 14.7174 223.752 15.2805V16.7585H228.555Z" fill="#76777A"/>
<path d="M266.789 7.87352C266.877 7.592 266.93 7.25768 267.018 6.92337C267.405 5.63892 268.531 4.9703 270.343 4.88232C271.628 4.88232 272.718 5.16386 273.616 5.63893C274.372 6.114 274.812 6.72984 274.812 7.48643V7.87352H281.129C283.839 7.87352 285.211 9.91455 285.211 14.0142V14.9116C285.211 15.9497 284.877 16.6183 284.261 17.0054C283.645 17.4805 282.783 17.7268 281.639 17.7268C280.742 17.7268 280.02 17.6388 279.492 17.4453C279.545 17.6388 279.581 17.7796 279.581 17.9203C279.581 18.1139 279.528 18.3426 279.44 18.6418H281.815C282.818 18.6418 283.487 18.8881 283.856 19.3104C284.243 19.7854 284.419 20.542 284.419 21.6329C284.419 22.7238 284.226 23.4452 283.944 23.9203C283.522 24.4833 282.8 24.7825 281.798 24.7825H278.279V25.9262H281.27C282.273 25.9262 282.941 26.1549 283.258 26.542C283.645 27.0171 283.821 27.7736 283.821 28.8645C283.821 29.9554 283.627 30.712 283.346 31.1871C282.959 31.7502 282.255 32.0493 281.252 32.0493H278.261V33.1402H281.058C282.097 33.1402 282.818 33.3865 283.205 33.8088C283.592 34.2838 283.821 35.146 283.821 36.3249C283.821 37.5038 283.627 38.2779 283.346 38.753C282.871 39.3688 282.114 39.6504 281.058 39.6504H278.261V40.9348H281.78C283.874 40.9348 284.965 42.0257 284.965 44.1195C284.965 46.2134 283.874 47.445 281.78 47.445H263.956C260.965 47.445 259.487 45.9319 259.487 42.9759V30.9936C259.346 31.0464 259.258 31.0815 259.153 31.0815C258.73 31.0815 258.343 30.9936 258.009 30.8528V42.0785C258.009 45.5096 256.865 47.2691 254.683 47.2691H249.123C246.273 47.2691 244.848 45.5096 244.848 42.0785V31.9437C243.898 31.715 243.035 31.0815 242.226 30.0434C241.469 29.0053 241.029 28.0376 240.941 27.193C240.941 26.2429 241.223 25.4335 241.839 24.7649C243.51 22.196 244.689 19.9086 245.358 17.9203C245.639 17.0582 245.921 16.1081 246.167 15.1227H245.921C244.725 15.1227 243.774 14.7884 243.123 14.0846C242.367 13.5216 242.032 12.3779 242.032 10.6535C242.032 8.92921 242.367 7.71516 243.123 7.04655C243.651 6.51869 244.601 6.23716 245.921 6.23716H254.666C255.95 6.23716 256.9 6.57146 257.516 7.1345C257.798 7.36324 257.991 7.66237 258.185 8.03187C258.572 7.9439 258.941 7.89111 259.328 7.89111H266.701L266.789 7.87352ZM251.762 38.6826C252.15 38.6826 252.326 38.1548 252.326 37.0111V28.6358C252.326 28.1607 252.132 27.9144 251.762 27.9144H251.235C250.848 27.9144 250.672 28.3367 250.672 29.1989V36.9935C250.672 38.1372 250.865 38.6651 251.235 38.6651H251.762V38.6826ZM254.191 19.3807C256.672 19.3807 257.991 20.5244 258.097 22.8118C259.715 21.3866 261.088 19.8206 262.32 18.1139C263.076 17.0758 263.745 15.9321 264.361 14.5949H263.323C262.654 14.5949 262.372 14.9292 262.372 15.4922V16.4424C262.372 17.3045 262.091 17.8676 261.616 18.1139C261.053 18.501 260.138 18.6418 258.853 18.6418C257.569 18.6418 256.76 18.4482 256.232 17.9731C255.616 17.4981 255.334 16.7767 255.334 15.8793V15.0699C255.141 15.1227 254.947 15.1227 254.771 15.1227H253.909C253.628 16.6007 253.293 18.0259 252.906 19.3983H254.191V19.3807ZM270.924 24.7473H267.211V25.891H270.924V24.7473ZM270.924 32.0141H267.211V33.105H270.924V32.0141ZM270.924 39.6328H267.211C267.211 40.4949 267.545 40.9172 268.302 40.9172H270.924V39.6328ZM271.117 18.6066H271.979C272.067 18.2722 272.226 17.8852 272.402 17.5157C272.965 16.1784 274.214 15.5274 276.114 15.4746C276.976 15.4746 277.68 15.6154 278.208 15.8617C278.155 15.7737 278.155 15.633 278.155 15.4746C278.155 14.9116 277.768 14.5773 277.064 14.5773H273.018C272.455 15.9145 271.821 17.2869 271.117 18.6242V18.6066Z" fill="#76777A"/>
<path d="M304.654 5.67305C305.516 6.14812 305.939 6.90469 306.026 7.85483C306.026 8.24193 305.886 9.05131 305.604 10.283H306.414C309.37 10.283 310.883 11.7082 311.024 14.4706C312.167 12.0953 313.012 9.66715 313.645 7.09825C314.032 6.00735 315.07 5.39152 316.83 5.25076C318.255 5.25076 319.54 5.58505 320.683 6.20088C321.88 6.95748 322.496 7.87244 322.584 8.96334C322.584 9.35043 322.531 9.71992 322.496 10.107H325.152C329.622 10.107 331.856 12.3944 331.856 16.9515V39.2446C331.856 42.0422 331.293 43.9953 330.185 45.2446C328.619 46.6698 326.331 47.4264 323.287 47.4264C321.106 47.3736 319.205 47.1448 317.534 46.6698C316.337 46.3354 315.44 45.8076 314.824 45.051C314.261 44.2944 313.927 43.2387 313.821 41.8663C313.909 40.5291 314.296 39.4382 314.859 38.6288C315.475 37.8722 316.372 37.4323 317.516 37.3971C318.273 37.3971 319.188 37.4851 320.226 37.5907C320.982 37.7314 321.739 37.7842 322.548 37.7842C323.27 37.7842 323.639 37.2563 323.639 36.1127V21.9837C323.639 19.8899 322.883 18.799 321.405 18.799H319.364C319.17 19.1333 319.029 19.4149 318.941 19.6084C317.798 21.5087 316.373 22.5116 314.56 22.5116C313.469 22.5116 312.273 22.1245 311.041 21.3327V41.6903C311.041 44.7343 309.475 46.3003 306.379 46.3003H295.206C292.109 46.3003 290.596 44.7343 290.596 41.6903V14.9281C290.596 11.8841 292.109 10.3182 295.206 10.3182H296.437C296.684 9.45601 296.965 8.50585 297.247 7.52052C297.968 6.00734 299.428 5.19798 301.716 5.09241C302.947 5.09241 303.898 5.32113 304.619 5.70822L304.654 5.67305ZM303.071 23.6553V19.9427C303.071 18.9926 302.543 18.4647 301.557 18.4647H300.079C299.076 18.4647 298.601 18.9926 298.601 19.9427V23.6553H303.071ZM303.071 36.6405V32.5585H298.601V36.6405C298.601 37.6786 299.076 38.1537 300.079 38.1537H301.557C302.56 38.1537 303.071 37.6786 303.071 36.6405ZM319.909 24.6934C321.897 28.3532 322.953 30.4998 322.953 31.0629C322.865 32.2945 322.144 33.2446 320.859 33.966C319.575 34.6347 318.378 34.969 317.34 34.969C315.862 34.969 314.543 33.5966 313.346 30.8341C312.15 28.5995 311.587 27.1215 311.587 26.4529C311.587 25.5908 312.308 24.6934 313.821 23.796C314.965 23.2154 316.056 22.8987 317.147 22.8987C318.378 22.9867 319.293 23.5673 319.909 24.711V24.6934Z" fill="#76777A"/>
<defs>
<filter id="filter0_d_86_149678" x="-0.000234365" y="9.77516e-06" width="340.496" height="57.3691" filterUnits="userSpaceOnUse" color-interpolation-filters="sRGB">
<feFlood flood-opacity="0" result="BackgroundImageFix"/>
<feColorMatrix in="SourceAlpha" type="matrix" values="0 0 0 0 0 0 0 0 0 0 0 0 0 0 0 0 0 0 127 0" result="hardAlpha"/>
<feOffset dx="2.53" dy="2.53"/>
<feGaussianBlur stdDeviation="1.27"/>
<feColorMatrix type="matrix" values="0 0 0 0 0.137255 0 0 0 0 0.0941176 0 0 0 0 0.0823529 0 0 0 0.75 0"/>
<feBlend mode="normal" in2="BackgroundImageFix" result="effect1_dropShadow_86_149678"/>
<feBlend mode="normal" in="SourceGraphic" in2="effect1_dropShadow_86_149678" result="shape"/>
</filter>
</defs>
</svg>
