<svg width="408" height="64" viewBox="0 0 408 64" fill="none" xmlns="http://www.w3.org/2000/svg">
<g filter="url(#filter0_d_99_72657)">
<path d="M62.251 16.17L56.1409 7.87012C55.8409 7.46012 55.6309 6.98013 55.6309 6.38013C55.6309 5.27013 56.5509 4.38013 57.7109 4.38013C58.6609 4.38013 59.251 4.89015 59.761 5.65015L64.3511 12.2701L69.021 5.6001C69.531 4.8401 70.151 4.36011 71.021 4.36011C72.291 4.36011 73.051 5.25014 73.051 6.39014C73.051 6.96014 72.781 7.4701 72.511 7.8501L66.4009 16.0901V21.55C66.4009 22.71 65.481 23.6301 64.321 23.6301C63.161 23.6301 62.241 22.71 62.241 21.55V16.17H62.251Z" fill="#231815" stroke="white" stroke-width="7.14" stroke-linecap="round" stroke-linejoin="round"/>
<path d="M73.001 16.3102V16.2603C73.001 12.1003 76.3508 8.72021 80.8608 8.72021C85.3708 8.72021 88.6709 12.0402 88.6709 16.2102V16.2603C88.6709 20.4203 85.321 23.8002 80.811 23.8002C76.301 23.8002 73.001 20.4802 73.001 16.3102ZM84.6208 16.3102V16.2603C84.6208 14.1303 83.081 12.2603 80.811 12.2603C78.541 12.2603 77.051 14.0702 77.051 16.2102V16.2603C77.051 18.3903 78.5908 20.2603 80.8608 20.2603C83.1308 20.2603 84.6208 18.4502 84.6208 16.3102Z" fill="#231815" stroke="white" stroke-width="7.14" stroke-linecap="round" stroke-linejoin="round"/>
<path d="M104.811 21.5801C104.811 22.7101 103.891 23.6301 102.761 23.6301C101.631 23.6301 100.711 22.7101 100.711 21.5801V21.42C99.7607 22.64 98.5507 23.7401 96.4707 23.7401C93.3607 23.7401 91.5508 21.6901 91.5508 18.3601V10.8701C91.5508 9.74012 92.4708 8.82007 93.6008 8.82007C94.7308 8.82007 95.6506 9.74012 95.6506 10.8701V17.0601C95.6506 19.0101 96.5706 20.0101 98.1406 20.0101C99.7106 20.0101 100.711 19.0101 100.711 17.0601V10.8701C100.711 9.74012 101.631 8.82007 102.761 8.82007C103.891 8.82007 104.811 9.74012 104.811 10.8701V21.5701V21.5801Z" fill="#231815" stroke="white" stroke-width="7.14" stroke-linecap="round" stroke-linejoin="round"/>
<path d="M115.741 19.3101V19.2601C115.741 16.1001 118.151 14.6401 121.581 14.6401C123.041 14.6401 124.091 14.8801 125.121 15.2301V14.9901C125.121 13.2901 124.071 12.3401 122.011 12.3401C120.881 12.3401 119.961 12.5001 119.171 12.7501C118.931 12.8301 118.761 12.8601 118.581 12.8601C117.631 12.8601 116.881 12.1301 116.881 11.1801C116.881 10.4501 117.341 9.83009 117.991 9.59009C119.291 9.10009 120.691 8.83008 122.611 8.83008C124.851 8.83008 126.471 9.42007 127.501 10.4501C128.581 11.5301 129.071 13.1301 129.071 15.0701V21.66C129.071 22.77 128.181 23.6301 127.071 23.6301C125.881 23.6301 125.101 22.7901 125.101 21.9301V21.9001C124.101 23.0101 122.721 23.7401 120.721 23.7401C117.991 23.7401 115.751 22.1701 115.751 19.3101H115.741ZM125.171 18.3601V17.6301C124.471 17.3101 123.551 17.0901 122.551 17.0901C120.791 17.0901 119.711 17.7901 119.711 19.0901V19.1401C119.711 20.2501 120.631 20.9001 121.951 20.9001C123.871 20.9001 125.171 19.8501 125.171 18.3601Z" fill="#231815" stroke="white" stroke-width="7.14" stroke-linecap="round" stroke-linejoin="round"/>
<path d="M132.602 10.8801C132.602 9.75013 133.521 8.83008 134.651 8.83008C135.781 8.83008 136.701 9.75013 136.701 10.8801V11.53C137.291 10.12 138.271 8.83008 139.481 8.83008C140.691 8.83008 141.481 9.67008 141.481 10.8301C141.481 11.9101 140.781 12.5601 139.941 12.7501C137.861 13.2401 136.701 14.8301 136.701 17.7501V21.5901C136.701 22.7201 135.781 23.6401 134.651 23.6401C133.521 23.6401 132.602 22.7201 132.602 21.5901V10.8901V10.8801Z" fill="#231815" stroke="white" stroke-width="7.14" stroke-linecap="round" stroke-linejoin="round"/>
<path d="M150.361 23.7899C146.011 23.7899 142.791 20.7399 142.791 16.2999V16.25C142.791 12.12 145.741 8.70996 149.951 8.70996C154.791 8.70996 156.921 12.6799 156.921 15.6799C156.921 16.8699 156.081 17.65 155.001 17.65H146.871C147.281 19.51 148.571 20.49 150.411 20.49C151.551 20.49 152.491 20.14 153.331 19.52C153.631 19.3 153.901 19.2 154.331 19.2C155.251 19.2 155.921 19.8999 155.921 20.8199C155.921 21.3599 155.681 21.7699 155.381 22.0399C154.111 23.1199 152.461 23.7999 150.351 23.7999L150.361 23.7899ZM153.011 15.09C152.771 13.25 151.691 12.01 149.961 12.01C148.231 12.01 147.151 13.23 146.831 15.09H153.021H153.011Z" fill="#231815" stroke="white" stroke-width="7.14" stroke-linecap="round" stroke-linejoin="round"/>
<path d="M168.851 19.3601V12.5001H168.711C167.741 12.5001 166.951 11.7201 166.951 10.7401C166.951 9.76011 167.731 8.9801 168.711 8.9801H168.851V7.17004C168.851 6.04004 169.771 5.12012 170.901 5.12012C172.031 5.12012 172.951 6.04004 172.951 7.17004V8.9801H174.761C175.731 8.9801 176.521 9.76011 176.521 10.7401C176.521 11.7201 175.741 12.5001 174.761 12.5001H172.951V18.6901C172.951 19.6401 173.361 20.1001 174.271 20.1001C174.401 20.1001 174.681 20.0701 174.761 20.0701C175.681 20.0701 176.461 20.8301 176.461 21.7701C176.461 22.5001 175.971 23.0901 175.411 23.3101C174.651 23.6101 173.951 23.7201 173.061 23.7201C170.551 23.7201 168.841 22.7201 168.841 19.3701L168.851 19.3601Z" fill="#231815" stroke="white" stroke-width="7.14" stroke-linecap="round" stroke-linejoin="round"/>
<path d="M179.391 5.63013C179.391 4.49013 180.311 3.58008 181.441 3.58008C182.571 3.58008 183.491 4.50013 183.491 5.63013V11.03C184.441 9.81003 185.651 8.71008 187.731 8.71008C190.841 8.71008 192.651 10.7601 192.651 14.0901V21.5801C192.651 22.7101 191.731 23.6301 190.601 23.6301C189.471 23.6301 188.551 22.7101 188.551 21.5801V15.3901C188.551 13.4401 187.631 12.4401 186.061 12.4401C184.491 12.4401 183.491 13.4401 183.491 15.3901V21.5801C183.491 22.7101 182.571 23.6301 181.441 23.6301C180.311 23.6301 179.391 22.7101 179.391 21.5801V5.64014V5.63013Z" fill="#231815" stroke="white" stroke-width="7.14" stroke-linecap="round" stroke-linejoin="round"/>
<path d="M203.092 23.7899C198.742 23.7899 195.521 20.7399 195.521 16.2999V16.25C195.521 12.12 198.471 8.70996 202.681 8.70996C207.521 8.70996 209.651 12.6799 209.651 15.6799C209.651 16.8699 208.811 17.65 207.731 17.65H199.602C200.012 19.51 201.301 20.49 203.141 20.49C204.271 20.49 205.222 20.14 206.062 19.52C206.362 19.3 206.632 19.2 207.062 19.2C207.982 19.2 208.651 19.8999 208.651 20.8199C208.651 21.3599 208.411 21.7699 208.111 22.0399C206.841 23.1199 205.192 23.7999 203.082 23.7999L203.092 23.7899ZM205.741 15.09C205.501 13.25 204.421 12.01 202.691 12.01C200.961 12.01 199.882 13.23 199.562 15.09H205.751H205.741Z" fill="#231815" stroke="white" stroke-width="7.14" stroke-linecap="round" stroke-linejoin="round"/>
<path d="M221.331 6.63013C221.331 5.47013 222.251 4.55005 223.411 4.55005H234.001C235.051 4.55005 235.891 5.39006 235.891 6.44006C235.891 7.49006 235.051 8.33008 234.001 8.33008H225.491V12.3601H232.791C233.841 12.3601 234.681 13.2001 234.681 14.2501C234.681 15.3001 233.841 16.1401 232.791 16.1401H225.491V21.54C225.491 22.7 224.571 23.6201 223.411 23.6201C222.251 23.6201 221.331 22.7 221.331 21.54V6.62012V6.63013Z" fill="#231815" stroke="white" stroke-width="7.14" stroke-linecap="round" stroke-linejoin="round"/>
<path d="M238.631 10.8801C238.631 9.75013 239.551 8.83008 240.681 8.83008C241.811 8.83008 242.731 9.75013 242.731 10.8801V11.53C243.321 10.12 244.301 8.83008 245.511 8.83008C246.721 8.83008 247.511 9.67008 247.511 10.8301C247.511 11.9101 246.811 12.5601 245.971 12.7501C243.891 13.2401 242.731 14.8301 242.731 17.7501V21.5901C242.731 22.7201 241.811 23.6401 240.681 23.6401C239.551 23.6401 238.631 22.7201 238.631 21.5901V10.8901V10.8801Z" fill="#231815" stroke="white" stroke-width="7.14" stroke-linecap="round" stroke-linejoin="round"/>
<path d="M256.391 23.7899C252.041 23.7899 248.821 20.7399 248.821 16.2999V16.25C248.821 12.12 251.771 8.70996 255.981 8.70996C260.821 8.70996 262.951 12.6799 262.951 15.6799C262.951 16.8699 262.111 17.65 261.031 17.65H252.901C253.311 19.51 254.601 20.49 256.441 20.49C257.581 20.49 258.521 20.14 259.361 19.52C259.661 19.3 259.931 19.2 260.361 19.2C261.281 19.2 261.951 19.8999 261.951 20.8199C261.951 21.3599 261.711 21.7699 261.411 22.0399C260.141 23.1199 258.491 23.7999 256.381 23.7999L256.391 23.7899ZM259.041 15.09C258.801 13.25 257.721 12.01 255.991 12.01C254.261 12.01 253.181 13.23 252.861 15.09H259.051H259.041Z" fill="#231815" stroke="white" stroke-width="7.14" stroke-linecap="round" stroke-linejoin="round"/>
<path d="M272.961 23.7899C268.611 23.7899 265.391 20.7399 265.391 16.2999V16.25C265.391 12.12 268.341 8.70996 272.551 8.70996C277.391 8.70996 279.521 12.6799 279.521 15.6799C279.521 16.8699 278.681 17.65 277.601 17.65H269.471C269.881 19.51 271.171 20.49 273.011 20.49C274.151 20.49 275.091 20.14 275.931 19.52C276.231 19.3 276.501 19.2 276.931 19.2C277.851 19.2 278.521 19.8999 278.521 20.8199C278.521 21.3599 278.281 21.7699 277.981 22.0399C276.711 23.1199 275.061 23.7999 272.951 23.7999L272.961 23.7899ZM275.611 15.09C275.371 13.25 274.291 12.01 272.561 12.01C270.831 12.01 269.751 13.23 269.431 15.09H275.621H275.611Z" fill="#231815" stroke="white" stroke-width="7.14" stroke-linecap="round" stroke-linejoin="round"/>
<path d="M282.011 15.0901C282.011 14.0101 282.901 13.1201 283.981 13.1201H288.681C289.761 13.1201 290.651 14.0101 290.651 15.0901C290.651 16.1701 289.761 17.0601 288.681 17.0601H283.981C282.901 17.0601 282.011 16.1701 282.011 15.0901Z" fill="#231815" stroke="white" stroke-width="7.14" stroke-linecap="round" stroke-linejoin="round"/>
<path d="M293.741 21.4701C293.281 21.1501 292.961 20.5501 292.961 19.9001C292.961 18.8201 293.821 17.9801 294.911 17.9801C295.451 17.9801 295.831 18.1701 296.101 18.3601C297.531 19.4101 299.101 20.0601 300.941 20.0601C302.641 20.0601 303.671 19.39 303.671 18.28V18.2301C303.671 17.1801 303.021 16.6401 299.861 15.8201C296.051 14.8501 293.591 13.79 293.591 10.04V9.99011C293.591 6.56011 296.351 4.29004 300.211 4.29004C302.511 4.29004 304.511 4.88009 306.211 5.97009C306.671 6.24009 307.131 6.81012 307.131 7.62012C307.131 8.70012 306.261 9.54004 305.181 9.54004C304.771 9.54004 304.451 9.43011 304.131 9.24011C302.751 8.43011 301.461 7.97009 300.161 7.97009C298.571 7.97009 297.731 8.70012 297.731 9.62012V9.67004C297.731 10.91 298.541 11.32 301.811 12.16C305.651 13.16 307.811 14.5401 307.811 17.8401V17.8901C307.811 21.6501 304.941 23.7501 300.861 23.7501C298.371 23.7501 295.861 22.9901 293.751 21.4801L293.741 21.4701Z" fill="#231815" stroke="white" stroke-width="7.14" stroke-linecap="round" stroke-linejoin="round"/>
<path d="M310.991 10.8802C310.991 9.75025 311.911 8.8302 313.041 8.8302C314.171 8.8302 315.091 9.75025 315.091 10.8802V11.0702C316.091 9.72019 317.471 8.72021 319.601 8.72021C322.981 8.72021 326.191 11.3702 326.191 16.2102V16.2603C326.191 21.1003 323.031 23.7502 319.601 23.7502C317.411 23.7502 316.061 22.7502 315.091 21.5902V25.9102C315.091 27.0502 314.171 27.9602 313.041 27.9602C311.911 27.9602 310.991 27.0402 310.991 25.9102V10.8903V10.8802ZM322.091 16.2502V16.2002C322.091 13.7902 320.471 12.2002 318.551 12.2002C316.631 12.2002 315.041 13.7902 315.041 16.2002V16.2502C315.041 18.6502 316.631 20.2502 318.551 20.2502C320.471 20.2502 322.091 18.6802 322.091 16.2502Z" fill="#231815" stroke="white" stroke-width="7.14" stroke-linecap="round" stroke-linejoin="round"/>
<path d="M329.181 5.53003C329.181 4.34003 330.181 3.61011 331.481 3.61011C332.781 3.61011 333.781 4.34003 333.781 5.53003V5.58008C333.781 6.77008 332.781 7.53003 331.481 7.53003C330.181 7.53003 329.181 6.77008 329.181 5.58008V5.53003ZM329.421 10.8801C329.421 9.75013 330.341 8.83008 331.471 8.83008C332.601 8.83008 333.521 9.75013 333.521 10.8801V21.5801C333.521 22.7101 332.601 23.6301 331.471 23.6301C330.341 23.6301 329.421 22.7101 329.421 21.5801V10.8801Z" fill="#231815" stroke="white" stroke-width="7.14" stroke-linecap="round" stroke-linejoin="round"/>
<path d="M337.391 10.8801C337.391 9.75013 338.311 8.83008 339.441 8.83008C340.571 8.83008 341.491 9.75013 341.491 10.8801V11.53C342.081 10.12 343.061 8.83008 344.271 8.83008C345.481 8.83008 346.271 9.67008 346.271 10.8301C346.271 11.9101 345.571 12.5601 344.731 12.7501C342.651 13.2401 341.491 14.8301 341.491 17.7501V21.5901C341.491 22.7201 340.571 23.6401 339.441 23.6401C338.311 23.6401 337.391 22.7201 337.391 21.5901V10.8901V10.8801Z" fill="#231815" stroke="white" stroke-width="7.14" stroke-linecap="round" stroke-linejoin="round"/>
<path d="M348.641 5.53003C348.641 4.34003 349.641 3.61011 350.941 3.61011C352.241 3.61011 353.241 4.34003 353.241 5.53003V5.58008C353.241 6.77008 352.241 7.53003 350.941 7.53003C349.641 7.53003 348.641 6.77008 348.641 5.58008V5.53003ZM348.881 10.8801C348.881 9.75013 349.801 8.83008 350.931 8.83008C352.061 8.83008 352.981 9.75013 352.981 10.8801V21.5801C352.981 22.7101 352.061 23.6301 350.931 23.6301C349.801 23.6301 348.881 22.7101 348.881 21.5801V10.8801Z" fill="#231815" stroke="white" stroke-width="7.14" stroke-linecap="round" stroke-linejoin="round"/>
<path d="M357.531 19.3601V12.5001H357.401C356.431 12.5001 355.641 11.7201 355.641 10.7401C355.641 9.76011 356.421 8.9801 357.401 8.9801H357.531V7.17004C357.531 6.04004 358.451 5.12012 359.581 5.12012C360.711 5.12012 361.631 6.04004 361.631 7.17004V8.9801H363.441C364.411 8.9801 365.201 9.76011 365.201 10.7401C365.201 11.7201 364.421 12.5001 363.441 12.5001H361.631V18.6901C361.631 19.6401 362.041 20.1001 362.951 20.1001C363.091 20.1001 363.361 20.0701 363.441 20.0701C364.361 20.0701 365.141 20.8301 365.141 21.7701C365.141 22.5001 364.651 23.0901 364.091 23.3101C363.331 23.6101 362.631 23.7201 361.741 23.7201C359.231 23.7201 357.521 22.7201 357.521 19.3701L357.531 19.3601Z" fill="#231815" stroke="white" stroke-width="7.14" stroke-linecap="round" stroke-linejoin="round"/>
<path d="M374.531 23.7899C370.181 23.7899 366.961 20.7399 366.961 16.2999V16.25C366.961 12.12 369.911 8.70996 374.121 8.70996C378.961 8.70996 381.091 12.6799 381.091 15.6799C381.091 16.8699 380.251 17.65 379.171 17.65H371.041C371.451 19.51 372.741 20.49 374.581 20.49C375.721 20.49 376.661 20.14 377.501 19.52C377.801 19.3 378.071 19.2 378.501 19.2C379.421 19.2 380.091 19.8999 380.091 20.8199C380.091 21.3599 379.851 21.7699 379.551 22.0399C378.281 23.1199 376.631 23.7999 374.521 23.7999L374.531 23.7899ZM377.181 15.09C376.941 13.25 375.861 12.01 374.131 12.01C372.401 12.01 371.321 13.23 371.001 15.09H377.191H377.181Z" fill="#231815" stroke="white" stroke-width="7.14" stroke-linecap="round" stroke-linejoin="round"/>
<path d="M398.802 21.5801C398.802 22.7101 397.881 23.6301 396.751 23.6301C395.621 23.6301 394.701 22.7101 394.701 21.5801V21.3901C393.701 22.7401 392.321 23.7401 390.191 23.7401C386.811 23.7401 383.602 21.0901 383.602 16.2501V16.2001C383.602 11.3601 386.761 8.71008 390.191 8.71008C392.381 8.71008 393.731 9.71012 394.701 10.8701V5.63013C394.701 4.49013 395.621 3.58008 396.751 3.58008C397.881 3.58008 398.802 4.50013 398.802 5.63013V21.5701V21.5801ZM387.691 16.2001V16.2501C387.691 18.6501 389.311 20.2501 391.231 20.2501C393.151 20.2501 394.741 18.6601 394.741 16.2501V16.2001C394.741 13.7901 393.151 12.2001 391.231 12.2001C389.311 12.2001 387.691 13.7701 387.691 16.2001Z" fill="#231815" stroke="white" stroke-width="7.14" stroke-linecap="round" stroke-linejoin="round"/>
</g>
<path d="M62.251 16.17L56.1409 7.87012C55.8409 7.46012 55.6309 6.98013 55.6309 6.38013C55.6309 5.27013 56.5509 4.38013 57.7109 4.38013C58.6609 4.38013 59.251 4.89015 59.761 5.65015L64.3511 12.2701L69.021 5.6001C69.531 4.8401 70.151 4.36011 71.021 4.36011C72.291 4.36011 73.051 5.25014 73.051 6.39014C73.051 6.96014 72.781 7.4701 72.511 7.8501L66.4009 16.0901V21.55C66.4009 22.71 65.481 23.6301 64.321 23.6301C63.161 23.6301 62.241 22.71 62.241 21.55V16.17H62.251Z" fill="#76777A"/>
<path d="M73.001 16.3102V16.2603C73.001 12.1003 76.3508 8.72021 80.8608 8.72021C85.3708 8.72021 88.6709 12.0402 88.6709 16.2102V16.2603C88.6709 20.4203 85.321 23.8002 80.811 23.8002C76.301 23.8002 73.001 20.4802 73.001 16.3102ZM84.6208 16.3102V16.2603C84.6208 14.1303 83.081 12.2603 80.811 12.2603C78.541 12.2603 77.051 14.0702 77.051 16.2102V16.2603C77.051 18.3903 78.5908 20.2603 80.8608 20.2603C83.1308 20.2603 84.6208 18.4502 84.6208 16.3102Z" fill="#76777A"/>
<path d="M104.811 21.5801C104.811 22.7101 103.891 23.6301 102.761 23.6301C101.631 23.6301 100.711 22.7101 100.711 21.5801V21.42C99.7607 22.64 98.5507 23.7401 96.4707 23.7401C93.3607 23.7401 91.5508 21.6901 91.5508 18.3601V10.8701C91.5508 9.74012 92.4708 8.82007 93.6008 8.82007C94.7308 8.82007 95.6506 9.74012 95.6506 10.8701V17.0601C95.6506 19.0101 96.5706 20.0101 98.1406 20.0101C99.7106 20.0101 100.711 19.0101 100.711 17.0601V10.8701C100.711 9.74012 101.631 8.82007 102.761 8.82007C103.891 8.82007 104.811 9.74012 104.811 10.8701V21.5701V21.5801Z" fill="#76777A"/>
<path d="M115.741 19.3101V19.2601C115.741 16.1001 118.151 14.6401 121.581 14.6401C123.041 14.6401 124.091 14.8801 125.121 15.2301V14.9901C125.121 13.2901 124.071 12.3401 122.011 12.3401C120.881 12.3401 119.961 12.5001 119.171 12.7501C118.931 12.8301 118.761 12.8601 118.581 12.8601C117.631 12.8601 116.881 12.1301 116.881 11.1801C116.881 10.4501 117.341 9.83009 117.991 9.59009C119.291 9.10009 120.691 8.83008 122.611 8.83008C124.851 8.83008 126.471 9.42007 127.501 10.4501C128.581 11.5301 129.071 13.1301 129.071 15.0701V21.66C129.071 22.77 128.181 23.6301 127.071 23.6301C125.881 23.6301 125.101 22.7901 125.101 21.9301V21.9001C124.101 23.0101 122.721 23.7401 120.721 23.7401C117.991 23.7401 115.751 22.1701 115.751 19.3101H115.741ZM125.171 18.3601V17.6301C124.471 17.3101 123.551 17.0901 122.551 17.0901C120.791 17.0901 119.711 17.7901 119.711 19.0901V19.1401C119.711 20.2501 120.631 20.9001 121.951 20.9001C123.871 20.9001 125.171 19.8501 125.171 18.3601Z" fill="#76777A"/>
<path d="M132.602 10.8801C132.602 9.75013 133.521 8.83008 134.651 8.83008C135.781 8.83008 136.701 9.75013 136.701 10.8801V11.53C137.291 10.12 138.271 8.83008 139.481 8.83008C140.691 8.83008 141.481 9.67008 141.481 10.8301C141.481 11.9101 140.781 12.5601 139.941 12.7501C137.861 13.2401 136.701 14.8301 136.701 17.7501V21.5901C136.701 22.7201 135.781 23.6401 134.651 23.6401C133.521 23.6401 132.602 22.7201 132.602 21.5901V10.8901V10.8801Z" fill="#76777A"/>
<path d="M150.361 23.7899C146.011 23.7899 142.791 20.7399 142.791 16.2999V16.25C142.791 12.12 145.741 8.70996 149.951 8.70996C154.791 8.70996 156.921 12.6799 156.921 15.6799C156.921 16.8699 156.081 17.65 155.001 17.65H146.871C147.281 19.51 148.571 20.49 150.411 20.49C151.551 20.49 152.491 20.14 153.331 19.52C153.631 19.3 153.901 19.2 154.331 19.2C155.251 19.2 155.921 19.8999 155.921 20.8199C155.921 21.3599 155.681 21.7699 155.381 22.0399C154.111 23.1199 152.461 23.7999 150.351 23.7999L150.361 23.7899ZM153.011 15.09C152.771 13.25 151.691 12.01 149.961 12.01C148.231 12.01 147.151 13.23 146.831 15.09H153.021H153.011Z" fill="#76777A"/>
<path d="M168.851 19.3601V12.5001H168.711C167.741 12.5001 166.951 11.7201 166.951 10.7401C166.951 9.76011 167.731 8.9801 168.711 8.9801H168.851V7.17004C168.851 6.04004 169.771 5.12012 170.901 5.12012C172.031 5.12012 172.951 6.04004 172.951 7.17004V8.9801H174.761C175.731 8.9801 176.521 9.76011 176.521 10.7401C176.521 11.7201 175.741 12.5001 174.761 12.5001H172.951V18.6901C172.951 19.6401 173.361 20.1001 174.271 20.1001C174.401 20.1001 174.681 20.0701 174.761 20.0701C175.681 20.0701 176.461 20.8301 176.461 21.7701C176.461 22.5001 175.971 23.0901 175.411 23.3101C174.651 23.6101 173.951 23.7201 173.061 23.7201C170.551 23.7201 168.841 22.7201 168.841 19.3701L168.851 19.3601Z" fill="#76777A"/>
<path d="M179.391 5.63013C179.391 4.49013 180.311 3.58008 181.441 3.58008C182.571 3.58008 183.491 4.50013 183.491 5.63013V11.03C184.441 9.81003 185.651 8.71008 187.731 8.71008C190.841 8.71008 192.651 10.7601 192.651 14.0901V21.5801C192.651 22.7101 191.731 23.6301 190.601 23.6301C189.471 23.6301 188.551 22.7101 188.551 21.5801V15.3901C188.551 13.4401 187.631 12.4401 186.061 12.4401C184.491 12.4401 183.491 13.4401 183.491 15.3901V21.5801C183.491 22.7101 182.571 23.6301 181.441 23.6301C180.311 23.6301 179.391 22.7101 179.391 21.5801V5.64014V5.63013Z" fill="#76777A"/>
<path d="M203.092 23.7899C198.742 23.7899 195.521 20.7399 195.521 16.2999V16.25C195.521 12.12 198.471 8.70996 202.681 8.70996C207.521 8.70996 209.651 12.6799 209.651 15.6799C209.651 16.8699 208.811 17.65 207.731 17.65H199.602C200.012 19.51 201.301 20.49 203.141 20.49C204.271 20.49 205.222 20.14 206.062 19.52C206.362 19.3 206.632 19.2 207.062 19.2C207.982 19.2 208.651 19.8999 208.651 20.8199C208.651 21.3599 208.411 21.7699 208.111 22.0399C206.841 23.1199 205.192 23.7999 203.082 23.7999L203.092 23.7899ZM205.741 15.09C205.501 13.25 204.421 12.01 202.691 12.01C200.961 12.01 199.882 13.23 199.562 15.09H205.751H205.741Z" fill="#76777A"/>
<path d="M221.331 6.63013C221.331 5.47013 222.251 4.55005 223.411 4.55005H234.001C235.051 4.55005 235.891 5.39006 235.891 6.44006C235.891 7.49006 235.051 8.33008 234.001 8.33008H225.491V12.3601H232.791C233.841 12.3601 234.681 13.2001 234.681 14.2501C234.681 15.3001 233.841 16.1401 232.791 16.1401H225.491V21.54C225.491 22.7 224.571 23.6201 223.411 23.6201C222.251 23.6201 221.331 22.7 221.331 21.54V6.62012V6.63013Z" fill="#76777A"/>
<path d="M238.631 10.8801C238.631 9.75013 239.551 8.83008 240.681 8.83008C241.811 8.83008 242.731 9.75013 242.731 10.8801V11.53C243.321 10.12 244.301 8.83008 245.511 8.83008C246.721 8.83008 247.511 9.67008 247.511 10.8301C247.511 11.9101 246.811 12.5601 245.971 12.7501C243.891 13.2401 242.731 14.8301 242.731 17.7501V21.5901C242.731 22.7201 241.811 23.6401 240.681 23.6401C239.551 23.6401 238.631 22.7201 238.631 21.5901V10.8901V10.8801Z" fill="#76777A"/>
<path d="M256.391 23.7899C252.041 23.7899 248.821 20.7399 248.821 16.2999V16.25C248.821 12.12 251.771 8.70996 255.981 8.70996C260.821 8.70996 262.951 12.6799 262.951 15.6799C262.951 16.8699 262.111 17.65 261.031 17.65H252.901C253.311 19.51 254.601 20.49 256.441 20.49C257.581 20.49 258.521 20.14 259.361 19.52C259.661 19.3 259.931 19.2 260.361 19.2C261.281 19.2 261.951 19.8999 261.951 20.8199C261.951 21.3599 261.711 21.7699 261.411 22.0399C260.141 23.1199 258.491 23.7999 256.381 23.7999L256.391 23.7899ZM259.041 15.09C258.801 13.25 257.721 12.01 255.991 12.01C254.261 12.01 253.181 13.23 252.861 15.09H259.051H259.041Z" fill="#76777A"/>
<path d="M272.961 23.7899C268.611 23.7899 265.391 20.7399 265.391 16.2999V16.25C265.391 12.12 268.341 8.70996 272.551 8.70996C277.391 8.70996 279.521 12.6799 279.521 15.6799C279.521 16.8699 278.681 17.65 277.601 17.65H269.471C269.881 19.51 271.171 20.49 273.011 20.49C274.151 20.49 275.091 20.14 275.931 19.52C276.231 19.3 276.501 19.2 276.931 19.2C277.851 19.2 278.521 19.8999 278.521 20.8199C278.521 21.3599 278.281 21.7699 277.981 22.0399C276.711 23.1199 275.061 23.7999 272.951 23.7999L272.961 23.7899ZM275.611 15.09C275.371 13.25 274.291 12.01 272.561 12.01C270.831 12.01 269.751 13.23 269.431 15.09H275.621H275.611Z" fill="#76777A"/>
<path d="M282.011 15.0901C282.011 14.0101 282.901 13.1201 283.981 13.1201H288.681C289.761 13.1201 290.651 14.0101 290.651 15.0901C290.651 16.1701 289.761 17.0601 288.681 17.0601H283.981C282.901 17.0601 282.011 16.1701 282.011 15.0901Z" fill="#76777A"/>
<path d="M293.741 21.4701C293.281 21.1501 292.961 20.5501 292.961 19.9001C292.961 18.8201 293.821 17.9801 294.911 17.9801C295.451 17.9801 295.831 18.1701 296.101 18.3601C297.531 19.4101 299.101 20.0601 300.941 20.0601C302.641 20.0601 303.671 19.39 303.671 18.28V18.2301C303.671 17.1801 303.021 16.6401 299.861 15.8201C296.051 14.8501 293.591 13.79 293.591 10.04V9.99011C293.591 6.56011 296.351 4.29004 300.211 4.29004C302.511 4.29004 304.511 4.88009 306.211 5.97009C306.671 6.24009 307.131 6.81012 307.131 7.62012C307.131 8.70012 306.261 9.54004 305.181 9.54004C304.771 9.54004 304.451 9.43011 304.131 9.24011C302.751 8.43011 301.461 7.97009 300.161 7.97009C298.571 7.97009 297.731 8.70012 297.731 9.62012V9.67004C297.731 10.91 298.541 11.32 301.811 12.16C305.651 13.16 307.811 14.5401 307.811 17.8401V17.8901C307.811 21.6501 304.941 23.7501 300.861 23.7501C298.371 23.7501 295.861 22.9901 293.751 21.4801L293.741 21.4701Z" fill="#76777A"/>
<path d="M310.991 10.8802C310.991 9.75025 311.911 8.8302 313.041 8.8302C314.171 8.8302 315.091 9.75025 315.091 10.8802V11.0702C316.091 9.72019 317.471 8.72021 319.601 8.72021C322.981 8.72021 326.191 11.3702 326.191 16.2102V16.2603C326.191 21.1003 323.031 23.7502 319.601 23.7502C317.411 23.7502 316.061 22.7502 315.091 21.5902V25.9102C315.091 27.0502 314.171 27.9602 313.041 27.9602C311.911 27.9602 310.991 27.0402 310.991 25.9102V10.8903V10.8802ZM322.091 16.2502V16.2002C322.091 13.7902 320.471 12.2002 318.551 12.2002C316.631 12.2002 315.041 13.7902 315.041 16.2002V16.2502C315.041 18.6502 316.631 20.2502 318.551 20.2502C320.471 20.2502 322.091 18.6802 322.091 16.2502Z" fill="#76777A"/>
<path d="M329.181 5.53003C329.181 4.34003 330.181 3.61011 331.481 3.61011C332.781 3.61011 333.781 4.34003 333.781 5.53003V5.58008C333.781 6.77008 332.781 7.53003 331.481 7.53003C330.181 7.53003 329.181 6.77008 329.181 5.58008V5.53003ZM329.421 10.8801C329.421 9.75013 330.341 8.83008 331.471 8.83008C332.601 8.83008 333.521 9.75013 333.521 10.8801V21.5801C333.521 22.7101 332.601 23.6301 331.471 23.6301C330.341 23.6301 329.421 22.7101 329.421 21.5801V10.8801Z" fill="#76777A"/>
<path d="M337.391 10.8801C337.391 9.75013 338.311 8.83008 339.441 8.83008C340.571 8.83008 341.491 9.75013 341.491 10.8801V11.53C342.081 10.12 343.061 8.83008 344.271 8.83008C345.481 8.83008 346.271 9.67008 346.271 10.8301C346.271 11.9101 345.571 12.5601 344.731 12.7501C342.651 13.2401 341.491 14.8301 341.491 17.7501V21.5901C341.491 22.7201 340.571 23.6401 339.441 23.6401C338.311 23.6401 337.391 22.7201 337.391 21.5901V10.8901V10.8801Z" fill="#76777A"/>
<path d="M348.641 5.53003C348.641 4.34003 349.641 3.61011 350.941 3.61011C352.241 3.61011 353.241 4.34003 353.241 5.53003V5.58008C353.241 6.77008 352.241 7.53003 350.941 7.53003C349.641 7.53003 348.641 6.77008 348.641 5.58008V5.53003ZM348.881 10.8801C348.881 9.75013 349.801 8.83008 350.931 8.83008C352.061 8.83008 352.981 9.75013 352.981 10.8801V21.5801C352.981 22.7101 352.061 23.6301 350.931 23.6301C349.801 23.6301 348.881 22.7101 348.881 21.5801V10.8801Z" fill="#76777A"/>
<path d="M357.531 19.3601V12.5001H357.401C356.431 12.5001 355.641 11.7201 355.641 10.7401C355.641 9.76011 356.421 8.9801 357.401 8.9801H357.531V7.17004C357.531 6.04004 358.451 5.12012 359.581 5.12012C360.711 5.12012 361.631 6.04004 361.631 7.17004V8.9801H363.441C364.411 8.9801 365.201 9.76011 365.201 10.7401C365.201 11.7201 364.421 12.5001 363.441 12.5001H361.631V18.6901C361.631 19.6401 362.041 20.1001 362.951 20.1001C363.091 20.1001 363.361 20.0701 363.441 20.0701C364.361 20.0701 365.141 20.8301 365.141 21.7701C365.141 22.5001 364.651 23.0901 364.091 23.3101C363.331 23.6101 362.631 23.7201 361.741 23.7201C359.231 23.7201 357.521 22.7201 357.521 19.3701L357.531 19.3601Z" fill="#76777A"/>
<path d="M374.531 23.7899C370.181 23.7899 366.961 20.7399 366.961 16.2999V16.25C366.961 12.12 369.911 8.70996 374.121 8.70996C378.961 8.70996 381.091 12.6799 381.091 15.6799C381.091 16.8699 380.251 17.65 379.171 17.65H371.041C371.451 19.51 372.741 20.49 374.581 20.49C375.721 20.49 376.661 20.14 377.501 19.52C377.801 19.3 378.071 19.2 378.501 19.2C379.421 19.2 380.091 19.8999 380.091 20.8199C380.091 21.3599 379.851 21.7699 379.551 22.0399C378.281 23.1199 376.631 23.7999 374.521 23.7999L374.531 23.7899ZM377.181 15.09C376.941 13.25 375.861 12.01 374.131 12.01C372.401 12.01 371.321 13.23 371.001 15.09H377.191H377.181Z" fill="#76777A"/>
<path d="M398.802 21.5801C398.802 22.7101 397.881 23.6301 396.751 23.6301C395.621 23.6301 394.701 22.7101 394.701 21.5801V21.3901C393.701 22.7401 392.321 23.7401 390.191 23.7401C386.811 23.7401 383.602 21.0901 383.602 16.2501V16.2001C383.602 11.3601 386.761 8.71008 390.191 8.71008C392.381 8.71008 393.731 9.71012 394.701 10.8701V5.63013C394.701 4.49013 395.621 3.58008 396.751 3.58008C397.881 3.58008 398.802 4.50013 398.802 5.63013V21.5701V21.5801ZM387.691 16.2001V16.2501C387.691 18.6501 389.311 20.2501 391.231 20.2501C393.151 20.2501 394.741 18.6601 394.741 16.2501V16.2001C394.741 13.7901 393.151 12.2001 391.231 12.2001C389.311 12.2001 387.691 13.7701 387.691 16.2001Z" fill="#76777A"/>
<path d="M5.92993 59.6C5.10993 59.6 4.34989 59.4599 3.63989 59.1799C2.92989 58.8999 2.30001 58.5 1.76001 57.97C1.21001 57.44 0.779971 56.7599 0.469971 55.9199C0.149971 55.0799 0 54.15 0 53.11C0 52.07 0.15999 51.1599 0.48999 50.3099C0.81999 49.4599 1.26007 48.76 1.82007 48.21C2.38007 47.66 3.02 47.2299 3.75 46.9299C4.47 46.6299 5.24005 46.48 6.05005 46.48C7.17005 46.48 8.19989 46.82 9.13989 47.49C9.37989 47.66 9.51001 47.9 9.51001 48.22C9.51001 48.46 9.43003 48.68 9.28003 48.88L8.90991 49.2899C8.74991 49.4899 8.54001 49.61 8.26001 49.64H8.13989C7.90989 49.64 7.70001 49.58 7.51001 49.46C7.07001 49.19 6.6001 49.0599 6.1001 49.0599C5.2601 49.0599 4.54998 49.42 3.97998 50.13C3.40998 50.84 3.11987 51.8 3.11987 52.99C3.11987 54.18 3.37991 55.2199 3.90991 55.9199C4.43991 56.6199 5.15006 56.97 6.06006 56.97C6.65006 56.97 7.20999 56.7899 7.73999 56.4399C7.92999 56.3099 8.13989 56.24 8.38989 56.24H8.45996C8.72996 56.26 8.93986 56.3699 9.10986 56.5599L9.45996 56.98C9.62996 57.18 9.70996 57.4099 9.70996 57.6799C9.70996 57.9799 9.59988 58.2199 9.37988 58.4099C8.41988 59.1999 7.27996 59.59 5.95996 59.59L5.92993 59.6Z" fill="#70D44B"/>
<path d="M14.4199 59.6C13.3899 59.6 12.6299 59.26 12.1499 58.58C11.6599 57.9 11.4199 56.9299 11.4199 55.6799V50.6699C11.4199 50.3999 11.51 50.17 11.7 49.98C11.89 49.79 12.1199 49.6899 12.3999 49.6899H13.46C13.73 49.6899 13.9599 49.79 14.1499 49.98C14.3399 50.17 14.4399 50.3999 14.4399 50.6699V55.2999C14.4399 55.9499 14.53 56.4 14.7 56.65C14.87 56.9 15.16 57.02 15.55 57.02C15.88 57.02 16.1599 56.9499 16.3999 56.8099C16.6399 56.6699 16.8601 56.44 17.1001 56.12C17.1601 56.05 17.1799 55.98 17.1799 55.9V50.65C17.1799 50.38 17.27 50.15 17.46 49.96C17.65 49.77 17.8799 49.6699 18.1599 49.6699H19.22C19.49 49.6699 19.7199 49.77 19.9099 49.96C20.0999 50.15 20.2 50.38 20.2 50.65V58.37C20.2 58.64 20.0999 58.8699 19.9099 59.0599C19.7199 59.2499 19.49 59.35 19.22 59.35H18.72C18.43 59.35 18.18 59.26 17.96 59.08C17.74 58.9 17.6101 58.67 17.5701 58.39L17.52 58.0599C17.52 58.0599 17.49 58.0299 17.47 58.0299C17.45 58.0299 17.4299 58.0399 17.4199 58.0599C16.9899 58.5599 16.5301 58.94 16.0601 59.2C15.5801 59.46 15.0399 59.59 14.4199 59.59V59.6Z" fill="#70D44B"/>
<path d="M23.6003 59.36C23.3203 59.36 23.0901 59.2599 22.9001 59.0699C22.7101 58.8799 22.6201 58.65 22.6201 58.38V50.6599C22.6201 50.3899 22.7101 50.16 22.9001 49.97C23.0901 49.78 23.3203 49.6799 23.6003 49.6799H24.1003C24.3803 49.6799 24.6203 49.77 24.8303 49.96C25.0403 50.15 25.1602 50.3799 25.2002 50.6599L25.2803 51.34C25.2803 51.34 25.2903 51.37 25.3203 51.37C25.3503 51.37 25.3701 51.36 25.3801 51.34C25.7201 50.72 26.1401 50.2499 26.6301 49.9299C27.1201 49.6099 27.6101 49.45 28.1101 49.45H28.3403C28.6103 49.46 28.8202 49.59 28.9702 49.83C29.0702 50 29.1201 50.18 29.1201 50.38C29.1201 50.46 29.1203 50.54 29.1003 50.61L28.9702 51.2899C28.9102 51.5399 28.7803 51.74 28.5503 51.89C28.3403 52.03 28.1003 52.11 27.8403 52.11H27.7202C27.3302 52.11 26.9603 52.24 26.5903 52.5C26.2203 52.76 25.9202 53.17 25.6802 53.72C25.6502 53.8 25.6301 53.88 25.6301 53.97V58.39C25.6301 58.66 25.5303 58.89 25.3403 59.08C25.1503 59.27 24.9201 59.37 24.6501 59.37H23.6003V59.36Z" fill="#70D44B"/>
<path d="M32.0095 48.34C31.4995 48.34 31.0795 48.1999 30.7595 47.9099C30.4295 47.6199 30.2695 47.2499 30.2695 46.7999C30.2695 46.3499 30.4295 45.9699 30.7595 45.6799C31.0895 45.3899 31.4995 45.24 32.0095 45.24C32.5195 45.24 32.9195 45.3899 33.2395 45.6799C33.5595 45.9699 33.7195 46.3499 33.7195 46.7999C33.7195 47.2499 33.5595 47.6299 33.2395 47.9099C32.9195 48.1999 32.5095 48.34 32.0095 48.34ZM31.4795 59.36C31.1995 59.36 30.9695 59.2599 30.7795 59.0699C30.5895 58.8799 30.4995 58.65 30.4995 58.38V50.6599C30.4995 50.3899 30.5895 50.16 30.7795 49.97C30.9695 49.78 31.1995 49.6799 31.4795 49.6799H32.5295C32.7995 49.6799 33.0295 49.78 33.2195 49.97C33.4095 50.16 33.5095 50.3899 33.5095 50.6599V58.38C33.5095 58.65 33.4095 58.8799 33.2195 59.0699C33.0295 59.2599 32.7995 59.36 32.5295 59.36H31.4795Z" fill="#70D44B"/>
<path d="M40.1501 59.6C39.5301 59.6 38.9401 59.48 38.3701 59.25C37.8001 59.02 37.2903 58.69 36.8503 58.27C36.4103 57.85 36.0603 57.3199 35.8003 56.6699C35.5403 56.0199 35.4102 55.3099 35.4102 54.5399C35.4102 53.7699 35.5403 53.05 35.8003 52.4C36.0603 51.75 36.4103 51.2099 36.8503 50.7899C37.2903 50.3699 37.8001 50.0399 38.3701 49.8099C38.9401 49.5799 39.5301 49.46 40.1501 49.46C40.7701 49.46 41.3502 49.5799 41.9102 49.8099C42.4702 50.0399 42.9802 50.3699 43.4202 50.7899C43.8602 51.2099 44.2102 51.75 44.4702 52.4C44.7302 53.05 44.8601 53.7699 44.8601 54.5399C44.8601 55.3099 44.7302 56.0299 44.4702 56.6699C44.2102 57.3199 43.8602 57.85 43.4202 58.27C42.9802 58.69 42.4702 59.02 41.9102 59.25C41.3502 59.48 40.7601 59.6 40.1501 59.6ZM40.1501 57.1599C40.6901 57.1599 41.1001 56.93 41.3701 56.47C41.6401 56.01 41.7803 55.3699 41.7803 54.5399C41.7803 53.7099 41.6401 53.06 41.3701 52.6C41.1001 52.14 40.6901 51.9 40.1501 51.9C39.6101 51.9 39.1801 52.13 38.9001 52.6C38.6201 53.06 38.4902 53.7099 38.4902 54.5399C38.4902 55.3699 38.6301 56.02 38.9001 56.47C39.1801 56.93 39.5901 57.1599 40.1501 57.1599Z" fill="#70D44B"/>
<path d="M49.6797 59.6C48.6497 59.6 47.8897 59.26 47.4097 58.58C46.9197 57.9 46.6797 56.9299 46.6797 55.6799V50.6699C46.6797 50.3999 46.7697 50.17 46.9597 49.98C47.1497 49.79 47.3797 49.6899 47.6597 49.6899H48.7197C48.9897 49.6899 49.2197 49.79 49.4097 49.98C49.5997 50.17 49.6997 50.3999 49.6997 50.6699V55.2999C49.6997 55.9499 49.7897 56.4 49.9597 56.65C50.1297 56.9 50.4198 57.02 50.8198 57.02C51.1498 57.02 51.4297 56.9499 51.6697 56.8099C51.9097 56.6699 52.1296 56.44 52.3696 56.12C52.4296 56.05 52.4497 55.98 52.4497 55.9V50.65C52.4497 50.38 52.5397 50.15 52.7297 49.96C52.9197 49.77 53.1497 49.6699 53.4297 49.6699H54.4897C54.7597 49.6699 54.9897 49.77 55.1797 49.96C55.3697 50.15 55.4697 50.38 55.4697 50.65V58.37C55.4697 58.64 55.3697 58.8699 55.1797 59.0599C54.9897 59.2499 54.7597 59.35 54.4897 59.35H53.9897C53.6997 59.35 53.4497 59.26 53.2297 59.08C53.0097 58.9 52.8798 58.67 52.8398 58.39L52.7898 58.0599C52.7898 58.0599 52.7597 58.0299 52.7397 58.0299C52.7197 58.0299 52.6997 58.0399 52.6897 58.0599C52.2597 58.5599 51.7998 58.94 51.3298 59.2C50.8498 59.46 50.3097 59.59 49.6897 59.59L49.6797 59.6Z" fill="#70D44B"/>
<path d="M60.7703 59.6C59.7803 59.6 58.8103 59.3299 57.8503 58.7999C57.6203 58.6699 57.4802 58.4599 57.4302 58.1899C57.4202 58.1399 57.4102 58.08 57.4102 58.02C57.4102 57.81 57.4801 57.6199 57.6101 57.4399L57.8103 57.1599C57.9603 56.9399 58.1802 56.81 58.4402 56.76C58.5102 56.75 58.5701 56.74 58.6401 56.74C58.8401 56.74 59.0302 56.79 59.2002 56.89C59.7602 57.21 60.3103 57.37 60.8303 57.37C61.5903 57.37 61.9802 57.12 61.9802 56.61C61.9802 56.53 61.9602 56.46 61.9302 56.39C61.9002 56.32 61.8403 56.2499 61.7603 56.1799C61.6803 56.1099 61.6003 56.06 61.5403 56.01C61.4803 55.96 61.3702 55.9 61.2202 55.84C61.0802 55.78 60.9601 55.7299 60.8801 55.6899C60.8001 55.6499 60.6602 55.6 60.4602 55.52C60.2702 55.45 60.1303 55.4 60.0503 55.36C59.7203 55.23 59.4201 55.0899 59.1501 54.9399C58.8801 54.7899 58.6201 54.61 58.3601 54.38C58.1001 54.16 57.9002 53.89 57.7502 53.58C57.6002 53.27 57.5303 52.9099 57.5303 52.5299C57.5303 51.6099 57.8703 50.8699 58.5603 50.3099C59.2503 49.7499 60.1503 49.46 61.2803 49.46C62.2103 49.46 63.0902 49.6899 63.9202 50.1599C64.1502 50.2899 64.2903 50.49 64.3303 50.76C64.3403 50.82 64.3503 50.8699 64.3503 50.9299C64.3503 51.1399 64.2801 51.33 64.1501 51.49L63.9702 51.72C63.8102 51.93 63.6003 52.06 63.3203 52.12C63.2403 52.13 63.1603 52.14 63.0903 52.14C62.9003 52.14 62.7203 52.1 62.5403 52.01C62.1203 51.8 61.7301 51.6899 61.3801 51.6899C60.6901 51.6899 60.3503 51.92 60.3503 52.39C60.3503 52.46 60.3601 52.5199 60.3801 52.5699C60.4001 52.6299 60.4402 52.68 60.4802 52.73C60.5202 52.78 60.5701 52.83 60.6101 52.87C60.6501 52.91 60.7203 52.96 60.8003 52.99C60.8803 53.03 60.9603 53.06 61.0203 53.1C61.0803 53.14 61.1803 53.17 61.2903 53.22C61.4103 53.26 61.5003 53.3 61.5803 53.33C61.6603 53.36 61.7601 53.3899 61.9001 53.4399C62.0301 53.4799 62.1402 53.5199 62.2302 53.5599C62.5802 53.6899 62.8901 53.83 63.1501 53.97C63.4101 54.11 63.6802 54.29 63.9502 54.52C64.2202 54.75 64.4303 55.02 64.5603 55.35C64.7003 55.68 64.7703 56.05 64.7703 56.47C64.7703 57.4 64.4202 58.16 63.7202 58.74C63.0202 59.33 62.0303 59.62 60.7603 59.62L60.7703 59.6Z" fill="#70D44B"/>
<path d="M68.45 59.41C68.46 59.32 68.4201 59.28 68.3301 59.28H68.3C67.81 59.28 67.39 59.1301 67.04 58.8201C66.69 58.5201 66.51 58.1001 66.51 57.5801C66.51 57.0601 66.69 56.6801 67.05 56.3601C67.41 56.0401 67.8599 55.8901 68.3899 55.8901C69.0499 55.8901 69.5599 56.1401 69.9199 56.6301C70.2699 57.1201 70.45 57.8201 70.45 58.7101C70.45 59.6701 70.21 60.5201 69.73 61.2501C69.25 61.9801 68.5499 62.5501 67.6499 62.9601C67.5399 63.0001 67.4301 63.03 67.3301 63.03C67.2101 63.03 67.09 63.0001 66.98 62.9501C66.77 62.8501 66.62 62.6801 66.53 62.4501C66.49 62.3501 66.46 62.2501 66.46 62.1501C66.46 62.0401 66.49 61.92 66.54 61.8C66.64 61.58 66.79 61.41 67 61.3C67.91 60.8 68.3899 60.17 68.4399 59.41H68.45Z" fill="#70D44B"/>
<path d="M81.5896 45.6399C81.8596 45.6799 82.0495 45.8298 82.1895 46.0698C82.2795 46.2298 82.3196 46.3898 82.3196 46.5698C82.3196 46.6598 82.3096 46.7498 82.2896 46.8398L82.2195 47.1698C82.1495 47.4098 82.0096 47.5998 81.7896 47.7198C81.5696 47.8498 81.3296 47.9198 81.0596 47.9198H80.9895C80.2795 47.9198 79.9294 48.3599 79.9294 49.2499V49.5798C79.9294 49.6598 79.9696 49.6998 80.0496 49.6998H80.6594C80.9394 49.6998 81.1694 49.7999 81.3594 49.9899C81.5494 50.1799 81.6394 50.4098 81.6394 50.6798V51.0999C81.6394 51.3699 81.5494 51.5998 81.3594 51.7898C81.1694 51.9798 80.9394 52.0798 80.6594 52.0798H80.0496C79.9696 52.0798 79.9294 52.1198 79.9294 52.1998V58.4098C79.9294 58.6798 79.8294 58.9099 79.6394 59.0999C79.4494 59.2899 79.2195 59.3899 78.9495 59.3899H77.8694C77.5994 59.3899 77.3694 59.2899 77.1794 59.0999C76.9894 58.9099 76.8894 58.6798 76.8894 58.4098V52.1998C76.8894 52.1198 76.8495 52.0798 76.7695 52.0798H76.5896C76.3096 52.0798 76.0794 51.9798 75.8894 51.7898C75.6994 51.5998 75.6094 51.3699 75.6094 51.0999V50.8198C75.6094 50.5398 75.6994 50.2999 75.8894 50.0999C76.0794 49.8899 76.2996 49.7799 76.5696 49.7599L76.7695 49.7399C76.8495 49.7299 76.8894 49.6899 76.8894 49.6099V49.3398C76.8894 48.8098 76.9596 48.3199 77.0896 47.8799C77.2196 47.4399 77.4295 47.0398 77.7095 46.6798C77.9895 46.3298 78.3694 46.0499 78.8594 45.8499C79.3394 45.6499 79.9096 45.5498 80.5596 45.5498C80.8996 45.5498 81.2496 45.5799 81.5896 45.6499V45.6399Z" fill="#70D44B"/>
<path d="M85.8997 59.6001C84.9097 59.6001 84.2098 59.3101 83.7798 58.7201C83.3498 58.1301 83.1396 57.3001 83.1396 56.2301V46.7701C83.1396 46.4901 83.2297 46.2601 83.4197 46.0701C83.6097 45.8801 83.8396 45.79 84.1196 45.79H85.1697C85.4397 45.79 85.6696 45.8801 85.8596 46.0701C86.0496 46.2601 86.1497 46.4901 86.1497 46.7701V56.3501C86.1497 56.7301 86.2497 56.9801 86.4697 57.1001C86.4797 57.1101 86.5296 57.1401 86.6296 57.1901C86.7196 57.2401 86.7798 57.28 86.8098 57.3C86.8398 57.32 86.8797 57.3601 86.9397 57.4001C86.9997 57.4401 87.0398 57.49 87.0698 57.54C87.0998 57.59 87.1196 57.6501 87.1296 57.7101L87.2297 58.3901C87.2397 58.4601 87.2498 58.5201 87.2498 58.5901C87.2498 58.8001 87.1898 58.99 87.0798 59.17C86.9198 59.41 86.7097 59.5501 86.4297 59.5901C86.2597 59.6001 86.0897 59.6101 85.8997 59.6101V59.6001Z" fill="#70D44B"/>
<path d="M93.1396 59.6C91.7096 59.6 90.5396 59.15 89.6096 58.24C88.6896 57.33 88.2197 56.0999 88.2197 54.5399C88.2197 53.7799 88.3496 53.0699 88.6096 52.4199C88.8696 51.7699 89.2096 51.2399 89.6396 50.8099C90.0696 50.3799 90.5499 50.0499 91.0999 49.8099C91.6499 49.5699 92.2098 49.45 92.7998 49.45C94.1498 49.45 95.1796 49.88 95.8896 50.75C96.5996 51.61 96.9497 52.74 96.9497 54.14V54.46C96.9397 54.74 96.8199 54.97 96.5999 55.15C96.3799 55.33 96.1198 55.4199 95.8398 55.4199H91.2698C91.2698 55.4199 91.2097 55.43 91.1897 55.46C91.1697 55.49 91.1597 55.5199 91.1697 55.5499C91.4497 56.7099 92.2398 57.2899 93.5398 57.2899C93.9398 57.2899 94.3297 57.22 94.6997 57.09C94.8297 57.05 94.9696 57.02 95.1196 57.02C95.2396 57.02 95.3597 57.0399 95.4897 57.0699C95.7397 57.1499 95.9398 57.2999 96.0698 57.5299L96.1196 57.63C96.2196 57.8 96.2698 57.96 96.2698 58.13C96.2698 58.22 96.2497 58.31 96.2197 58.4C96.1497 58.68 95.9998 58.87 95.7598 58.98C94.8998 59.39 94.0196 59.59 93.1396 59.59V59.6ZM91.1196 53.37C91.1196 53.43 91.1597 53.45 91.2397 53.45H94.2798C94.3698 53.45 94.4097 53.41 94.4097 53.33V53.3099C94.3897 52.8299 94.2498 52.4599 93.9998 52.1699C93.7498 51.8799 93.3796 51.75 92.8796 51.75C92.4496 51.75 92.0798 51.88 91.7698 52.15C91.3398 52.5 91.1196 52.91 91.1196 53.36V53.37Z" fill="#70D44B"/>
<path d="M98.5903 59.36C98.3803 59.36 98.2201 59.27 98.1101 59.08C98.0501 58.99 98.0303 58.8999 98.0303 58.8099C98.0303 58.7199 98.0601 58.62 98.1101 58.52L100.52 54.4399C100.56 54.3699 100.56 54.3 100.52 54.22L98.3003 50.5299C98.2403 50.4299 98.2202 50.34 98.2202 50.25C98.2202 50.16 98.2503 50.07 98.3003 49.97C98.4003 49.78 98.5603 49.6899 98.7803 49.6899H100.06C100.36 49.6899 100.64 49.7699 100.9 49.9199C101.16 50.0799 101.36 50.2899 101.51 50.5499L101.84 51.1799C102.09 51.7099 102.35 52.2499 102.62 52.7899C102.63 52.8199 102.65 52.84 102.69 52.84C102.73 52.84 102.74 52.8199 102.74 52.7899C102.82 52.5899 102.93 52.2999 103.08 51.9199C103.23 51.5399 103.32 51.2899 103.35 51.1799L103.6 50.6C103.7 50.32 103.87 50.0999 104.12 49.9399C104.37 49.7699 104.64 49.6899 104.93 49.6899H106.11C106.33 49.6899 106.5 49.78 106.61 49.97C106.67 50.07 106.69 50.17 106.69 50.27C106.69 50.36 106.66 50.4499 106.61 50.5499L104.35 54.5699C104.32 54.6399 104.32 54.7099 104.37 54.7899L106.74 58.5399C106.8 58.6399 106.82 58.7299 106.82 58.8199C106.82 58.9099 106.79 59 106.74 59.09C106.64 59.28 106.49 59.37 106.28 59.37H104.99C104.69 59.37 104.41 59.3 104.14 59.15C103.87 59 103.67 58.7899 103.53 58.5299L103.13 57.87C102.7 57.04 102.41 56.5 102.27 56.24C102.26 56.22 102.24 56.21 102.21 56.21C102.18 56.21 102.16 56.22 102.15 56.24C101.94 56.69 101.71 57.24 101.45 57.87L101.18 58.48C101.06 58.76 100.87 58.98 100.62 59.14C100.37 59.3 100.1 59.38 99.8003 59.38H98.6003L98.5903 59.36Z" fill="#70D44B"/>
<path d="M110.24 48.34C109.73 48.34 109.31 48.1999 108.99 47.9099C108.66 47.6199 108.5 47.2499 108.5 46.7999C108.5 46.3499 108.66 45.9699 108.99 45.6799C109.32 45.3899 109.73 45.24 110.24 45.24C110.75 45.24 111.15 45.3899 111.47 45.6799C111.79 45.9699 111.95 46.3499 111.95 46.7999C111.95 47.2499 111.79 47.6299 111.47 47.9099C111.15 48.1999 110.74 48.34 110.24 48.34ZM109.71 59.36C109.43 59.36 109.2 59.2599 109.01 59.0699C108.82 58.8799 108.73 58.65 108.73 58.38V50.6599C108.73 50.3899 108.82 50.16 109.01 49.97C109.2 49.78 109.43 49.6799 109.71 49.6799H110.76C111.03 49.6799 111.26 49.78 111.45 49.97C111.64 50.16 111.74 50.3899 111.74 50.6599V58.38C111.74 58.65 111.64 58.8799 111.45 59.0699C111.26 59.2599 111.03 59.36 110.76 59.36H109.71Z" fill="#70D44B"/>
<path d="M119.34 59.5999C118.45 59.5999 117.63 59.1799 116.87 58.3499C116.85 58.3399 116.83 58.3298 116.8 58.3298C116.77 58.3298 116.77 58.3399 116.77 58.3599L116.75 58.4398C116.68 58.7098 116.54 58.9199 116.33 59.0999C116.11 59.2699 115.87 59.3599 115.59 59.3599H115.16C114.88 59.3599 114.65 59.2598 114.46 59.0698C114.27 58.8798 114.18 58.6499 114.18 58.3799V46.7599C114.18 46.4799 114.27 46.2498 114.46 46.0598C114.65 45.8698 114.88 45.7798 115.16 45.7798H116.21C116.48 45.7798 116.71 45.8698 116.9 46.0598C117.09 46.2498 117.19 46.4799 117.19 46.7599V49.0298L117.12 50.3599C117.12 50.3599 117.13 50.3998 117.15 50.4098C117.17 50.4198 117.19 50.4198 117.2 50.4098C117.95 49.7698 118.75 49.4498 119.61 49.4498C120.77 49.4498 121.7 49.8998 122.38 50.7898C123.07 51.6798 123.41 52.8699 123.41 54.3499C123.41 55.1599 123.3 55.8998 123.07 56.5698C122.84 57.2498 122.54 57.7999 122.16 58.2299C121.78 58.6599 121.34 58.9999 120.86 59.2299C120.37 59.4699 119.87 59.5898 119.35 59.5898L119.34 59.5999ZM118.62 57.1199C119.12 57.1199 119.52 56.8998 119.82 56.4598C120.12 56.0198 120.28 55.3398 120.28 54.4198C120.28 53.5698 120.15 52.9398 119.9 52.5298C119.65 52.1198 119.25 51.9198 118.72 51.9198C118.22 51.9198 117.73 52.1599 117.26 52.6499C117.2 52.7199 117.18 52.7899 117.18 52.8699V56.4598C117.18 56.5398 117.21 56.5998 117.28 56.6598C117.68 56.9798 118.13 57.1399 118.62 57.1399V57.1199Z" fill="#70D44B"/>
<path d="M128.1 59.6001C127.11 59.6001 126.41 59.3101 125.98 58.7201C125.55 58.1301 125.34 57.3001 125.34 56.2301V46.7701C125.34 46.4901 125.43 46.2601 125.62 46.0701C125.81 45.8801 126.04 45.79 126.32 45.79H127.37C127.64 45.79 127.87 45.8801 128.06 46.0701C128.25 46.2601 128.35 46.4901 128.35 46.7701V56.3501C128.35 56.7301 128.45 56.9801 128.67 57.1001C128.68 57.1101 128.73 57.1401 128.83 57.1901C128.92 57.2401 128.98 57.28 129.01 57.3C129.04 57.32 129.08 57.3601 129.14 57.4001C129.2 57.4401 129.24 57.49 129.27 57.54C129.3 57.59 129.32 57.6501 129.33 57.7101L129.43 58.3901C129.44 58.4601 129.45 58.5201 129.45 58.5901C129.45 58.8001 129.39 58.99 129.28 59.17C129.12 59.41 128.91 59.5501 128.63 59.5901C128.46 59.6001 128.29 59.6101 128.1 59.6101V59.6001Z" fill="#70D44B"/>
<path d="M135.34 59.6C133.91 59.6 132.74 59.15 131.81 58.24C130.89 57.33 130.42 56.0999 130.42 54.5399C130.42 53.7799 130.55 53.0699 130.81 52.4199C131.07 51.7699 131.41 51.2399 131.84 50.8099C132.27 50.3799 132.75 50.0499 133.3 49.8099C133.85 49.5699 134.41 49.45 135 49.45C136.35 49.45 137.38 49.88 138.09 50.75C138.8 51.61 139.15 52.74 139.15 54.14V54.46C139.14 54.74 139.02 54.97 138.8 55.15C138.58 55.33 138.32 55.4199 138.04 55.4199H133.47C133.47 55.4199 133.41 55.43 133.39 55.46C133.37 55.49 133.36 55.5199 133.37 55.5499C133.65 56.7099 134.44 57.2899 135.74 57.2899C136.14 57.2899 136.53 57.22 136.9 57.09C137.03 57.05 137.17 57.02 137.32 57.02C137.44 57.02 137.56 57.0399 137.69 57.0699C137.94 57.1499 138.14 57.2999 138.27 57.5299L138.32 57.63C138.42 57.8 138.47 57.96 138.47 58.13C138.47 58.22 138.45 58.31 138.42 58.4C138.35 58.68 138.2 58.87 137.96 58.98C137.1 59.39 136.22 59.59 135.34 59.59V59.6ZM133.32 53.37C133.32 53.43 133.36 53.45 133.44 53.45H136.48C136.57 53.45 136.61 53.41 136.61 53.33V53.3099C136.59 52.8299 136.45 52.4599 136.2 52.1699C135.95 51.8899 135.58 51.75 135.08 51.75C134.65 51.75 134.28 51.88 133.97 52.15C133.54 52.5 133.32 52.91 133.32 53.36V53.37Z" fill="#70D44B"/>
<path d="M143.01 59.41C143.02 59.32 142.979 59.28 142.889 59.28H142.859C142.369 59.28 141.95 59.1301 141.6 58.8201C141.25 58.5101 141.07 58.1001 141.07 57.5801C141.07 57.0601 141.249 56.6801 141.609 56.3601C141.969 56.0401 142.409 55.8901 142.949 55.8901C143.609 55.8901 144.119 56.1401 144.479 56.6301C144.839 57.1201 145.01 57.8201 145.01 58.7101C145.01 59.6701 144.77 60.5201 144.29 61.2501C143.81 61.9801 143.109 62.5501 142.209 62.9601C142.099 63.0001 141.989 63.03 141.889 63.03C141.769 63.03 141.65 63.0001 141.54 62.9501C141.33 62.8501 141.18 62.6801 141.09 62.4501C141.05 62.3501 141.02 62.2501 141.02 62.1501C141.02 62.0401 141.05 61.92 141.1 61.8C141.2 61.58 141.35 61.41 141.56 61.3C142.47 60.8 142.95 60.17 143 59.41H143.01Z" fill="#70D44B"/>
<path d="M153.389 59.6C152.529 59.6 151.83 59.32 151.31 58.75C150.78 58.19 150.52 57.4899 150.52 56.6599C150.52 55.6399 150.94 54.8499 151.77 54.2899C152.61 53.7299 153.94 53.34 155.76 53.13C155.85 53.12 155.889 53.08 155.879 53C155.769 52.25 155.289 51.87 154.439 51.87C153.939 51.87 153.39 52.0099 152.78 52.2899C152.64 52.3599 152.49 52.39 152.33 52.39C152.23 52.39 152.12 52.37 152.01 52.34C151.76 52.26 151.559 52.1 151.429 51.86L151.3 51.61C151.22 51.46 151.179 51.3 151.179 51.15C151.179 51.05 151.189 50.95 151.209 50.85C151.289 50.58 151.449 50.3999 151.689 50.2899C152.809 49.7499 153.91 49.48 154.99 49.48C157.6 49.48 158.909 50.95 158.909 53.9V58.4199C158.909 58.6899 158.809 58.92 158.619 59.11C158.429 59.3 158.199 59.4 157.929 59.4H157.33C157.06 59.4 156.829 59.3199 156.629 59.1599C156.429 58.9999 156.3 58.7899 156.25 58.5399L156.229 58.47C156.229 58.47 156.199 58.4399 156.179 58.4399C156.159 58.4399 156.139 58.44 156.129 58.46C155.229 59.25 154.309 59.64 153.369 59.64L153.389 59.6ZM154.429 57.26C154.909 57.26 155.37 57.03 155.81 56.58C155.87 56.53 155.889 56.45 155.889 56.36V55.0699C155.889 54.9999 155.86 54.97 155.79 54.97H155.76C154.18 55.2 153.389 55.6899 153.389 56.4299C153.389 56.7099 153.479 56.9099 153.659 57.0499C153.839 57.1899 154.099 57.26 154.429 57.26Z" fill="#70D44B"/>
<path d="M162.22 59.36C161.94 59.36 161.71 59.2599 161.52 59.0699C161.33 58.8799 161.24 58.65 161.24 58.38V50.6599C161.24 50.3899 161.33 50.16 161.52 49.97C161.71 49.78 161.94 49.6799 162.22 49.6799H162.72C163.01 49.6799 163.26 49.77 163.48 49.95C163.7 50.13 163.83 50.37 163.87 50.65L163.9 50.85C163.9 50.85 163.91 50.88 163.94 50.88C163.97 50.88 163.99 50.88 164 50.86C164.97 49.91 166 49.4299 167.07 49.4299C168.14 49.4299 168.84 49.77 169.34 50.46C169.83 51.15 170.08 52.12 170.08 53.37V58.37C170.08 58.64 169.99 58.8699 169.8 59.0599C169.61 59.2499 169.38 59.35 169.1 59.35H168.04C167.76 59.35 167.53 59.2499 167.34 59.0599C167.15 58.8699 167.06 58.64 167.06 58.37V53.74C167.06 53.1 166.97 52.65 166.79 52.4C166.61 52.15 166.33 52.0299 165.93 52.0299C165.63 52.0299 165.37 52.09 165.14 52.21C164.91 52.33 164.64 52.5299 164.33 52.8099C164.27 52.8699 164.25 52.93 164.25 53.01V58.37C164.25 58.64 164.15 58.8699 163.96 59.0599C163.77 59.2499 163.54 59.35 163.27 59.35H162.22V59.36Z" fill="#70D44B"/>
<path d="M175.88 59.6001C174.66 59.6001 173.7 59.1501 172.98 58.2501C172.27 57.3501 171.91 56.11 171.91 54.54C171.91 53.78 172.02 53.07 172.25 52.42C172.48 51.77 172.78 51.2301 173.15 50.8101C173.53 50.3901 173.95 50.0601 174.43 49.8201C174.91 49.5801 175.4 49.4601 175.91 49.4601C176.39 49.4601 176.8 49.5401 177.14 49.6901C177.48 49.8501 177.82 50.0701 178.15 50.3701C178.16 50.3901 178.18 50.4001 178.2 50.3901C178.22 50.3801 178.23 50.3601 178.22 50.3401L178.12 49.0101V46.7701C178.12 46.4901 178.21 46.2601 178.4 46.0701C178.59 45.8801 178.82 45.79 179.1 45.79H180.18C180.46 45.79 180.69 45.8801 180.88 46.0701C181.07 46.2601 181.16 46.4901 181.16 46.7701V58.3901C181.16 58.6601 181.07 58.8901 180.88 59.0801C180.69 59.2701 180.46 59.3701 180.18 59.3701H179.55C179.3 59.3701 179.07 59.2901 178.88 59.1401C178.69 58.9901 178.56 58.79 178.51 58.54L178.49 58.4701C178.49 58.4701 178.46 58.4401 178.44 58.4401C178.42 58.4401 178.4 58.4401 178.39 58.4601C178.04 58.8101 177.64 59.09 177.19 59.3C176.75 59.5 176.31 59.6101 175.88 59.6101V59.6001ZM176.68 57.1201C177.26 57.1201 177.72 56.88 178.06 56.41C178.1 56.34 178.13 56.2701 178.13 56.1801V52.6301C178.13 52.5401 178.1 52.47 178.03 52.41C177.63 52.08 177.17 51.91 176.64 51.91C176.19 51.91 175.8 52.1301 175.49 52.5701C175.18 53.0101 175.03 53.6501 175.03 54.4901C175.03 56.2501 175.58 57.1301 176.69 57.1301L176.68 57.1201Z" fill="#70D44B"/>
<path d="M189.91 59.6C189.05 59.6 188.35 59.32 187.83 58.75C187.3 58.19 187.04 57.4899 187.04 56.6599C187.04 55.6399 187.46 54.8499 188.29 54.2899C189.13 53.7299 190.46 53.34 192.28 53.13C192.37 53.12 192.41 53.08 192.4 53C192.29 52.25 191.81 51.87 190.96 51.87C190.46 51.87 189.91 52.0099 189.3 52.2899C189.16 52.3599 189.01 52.39 188.85 52.39C188.75 52.39 188.64 52.37 188.53 52.34C188.28 52.26 188.08 52.1 187.95 51.86L187.82 51.61C187.74 51.46 187.7 51.3 187.7 51.15C187.7 51.05 187.71 50.95 187.73 50.85C187.81 50.58 187.97 50.3999 188.21 50.2899C189.33 49.7499 190.43 49.48 191.51 49.48C194.12 49.48 195.43 50.95 195.43 53.9V58.4199C195.43 58.6899 195.33 58.92 195.14 59.11C194.95 59.3 194.72 59.4 194.45 59.4H193.85C193.58 59.4 193.35 59.3199 193.15 59.1599C192.95 58.9999 192.82 58.7899 192.77 58.5399L192.75 58.47C192.75 58.47 192.72 58.4399 192.7 58.4399C192.68 58.4399 192.66 58.44 192.65 58.46C191.75 59.25 190.83 59.64 189.89 59.64L189.91 59.6ZM190.96 57.26C191.44 57.26 191.9 57.03 192.34 56.58C192.4 56.53 192.42 56.45 192.42 56.36V55.0699C192.42 54.9999 192.39 54.97 192.32 54.97H192.29C190.71 55.2 189.92 55.6899 189.92 56.4299C189.92 56.7099 190.01 56.9099 190.19 57.0499C190.37 57.1899 190.63 57.26 190.96 57.26Z" fill="#70D44B"/>
<path d="M201.23 59.6001C200.01 59.6001 199.05 59.1501 198.33 58.2501C197.62 57.3501 197.26 56.11 197.26 54.54C197.26 53.78 197.37 53.07 197.6 52.42C197.83 51.77 198.13 51.2301 198.5 50.8101C198.88 50.3901 199.3 50.0601 199.78 49.8201C200.26 49.5801 200.75 49.4601 201.26 49.4601C201.74 49.4601 202.15 49.5401 202.49 49.6901C202.83 49.8501 203.17 50.0701 203.5 50.3701C203.51 50.3901 203.53 50.4001 203.55 50.3901C203.57 50.3801 203.58 50.3601 203.57 50.3401L203.47 49.0101V46.7701C203.47 46.4901 203.56 46.2601 203.75 46.0701C203.94 45.8801 204.17 45.79 204.45 45.79H205.53C205.81 45.79 206.04 45.8801 206.23 46.0701C206.42 46.2601 206.51 46.4901 206.51 46.7701V58.3901C206.51 58.6601 206.42 58.8901 206.23 59.0801C206.04 59.2701 205.81 59.3701 205.53 59.3701H204.9C204.65 59.3701 204.42 59.2901 204.23 59.1401C204.04 58.9901 203.91 58.79 203.86 58.54L203.84 58.4701C203.84 58.4701 203.81 58.4401 203.79 58.4401C203.77 58.4401 203.75 58.4401 203.74 58.4601C203.39 58.8101 202.99 59.09 202.54 59.3C202.1 59.5 201.66 59.6101 201.23 59.6101V59.6001ZM202.03 57.1201C202.61 57.1201 203.07 56.88 203.41 56.41C203.45 56.34 203.48 56.2701 203.48 56.1801V52.6301C203.48 52.5401 203.45 52.47 203.38 52.41C202.98 52.08 202.52 51.91 201.99 51.91C201.54 51.91 201.15 52.1301 200.84 52.5701C200.53 53.0101 200.38 53.6501 200.38 54.4901C200.38 56.2501 200.93 57.1301 202.04 57.1301L202.03 57.1201Z" fill="#70D44B"/>
<path d="M212.14 59.36C211.85 59.36 211.59 59.28 211.35 59.1C211.11 58.93 210.94 58.6999 210.84 58.4299L208.25 50.61C208.23 50.53 208.22 50.46 208.22 50.38C208.22 50.24 208.26 50.1 208.35 49.98C208.49 49.78 208.68 49.6799 208.91 49.6799H210.01C210.3 49.6799 210.55 49.77 210.78 49.95C211.01 50.13 211.16 50.35 211.24 50.63L212.15 54.15C212.23 54.46 212.35 54.94 212.51 55.59C212.67 56.24 212.79 56.7399 212.88 57.0699C212.88 57.0999 212.89 57.12 212.92 57.12C212.95 57.12 212.97 57.0999 212.98 57.0699C213.11 56.4799 213.35 55.51 213.68 54.15L214.63 50.63C214.71 50.35 214.86 50.13 215.09 49.95C215.32 49.77 215.57 49.6799 215.86 49.6799H216.81C217.05 49.6799 217.25 49.78 217.39 49.98C217.48 50.11 217.52 50.25 217.52 50.4C217.52 50.47 217.51 50.54 217.49 50.62L214.97 58.4399C214.88 58.7199 214.72 58.94 214.48 59.11C214.24 59.28 213.98 59.37 213.69 59.37H212.15L212.14 59.36Z" fill="#70D44B"/>
<path d="M223.45 59.6C222.02 59.6 220.85 59.15 219.92 58.24C219 57.33 218.53 56.0999 218.53 54.5399C218.53 53.7799 218.66 53.0699 218.92 52.4199C219.18 51.7699 219.52 51.2399 219.95 50.8099C220.38 50.3799 220.86 50.0499 221.41 49.8099C221.96 49.5699 222.52 49.45 223.11 49.45C224.46 49.45 225.49 49.88 226.2 50.75C226.91 51.61 227.26 52.74 227.26 54.14V54.46C227.25 54.74 227.13 54.97 226.91 55.15C226.69 55.33 226.43 55.4199 226.15 55.4199H221.58C221.58 55.4199 221.52 55.43 221.5 55.46C221.48 55.49 221.47 55.5199 221.48 55.5499C221.76 56.7099 222.55 57.2899 223.85 57.2899C224.25 57.2899 224.64 57.22 225.01 57.09C225.14 57.05 225.28 57.02 225.43 57.02C225.55 57.02 225.67 57.0399 225.8 57.0699C226.05 57.1499 226.25 57.2999 226.38 57.5299L226.43 57.63C226.53 57.8 226.58 57.96 226.58 58.13C226.58 58.22 226.56 58.31 226.53 58.4C226.46 58.68 226.31 58.87 226.07 58.98C225.21 59.39 224.33 59.59 223.45 59.59V59.6ZM221.42 53.37C221.42 53.43 221.46 53.45 221.54 53.45H224.58C224.67 53.45 224.71 53.41 224.71 53.33V53.3099C224.69 52.8299 224.55 52.4599 224.3 52.1699C224.05 51.8899 223.68 51.75 223.18 51.75C222.75 51.75 222.38 51.88 222.07 52.15C221.64 52.5 221.42 52.91 221.42 53.36V53.37Z" fill="#70D44B"/>
<path d="M230.19 59.36C229.91 59.36 229.68 59.2599 229.49 59.0699C229.3 58.8799 229.21 58.65 229.21 58.38V50.6599C229.21 50.3899 229.3 50.16 229.49 49.97C229.68 49.78 229.91 49.6799 230.19 49.6799H230.69C230.98 49.6799 231.23 49.77 231.45 49.95C231.67 50.13 231.8 50.37 231.84 50.65L231.87 50.85C231.87 50.85 231.88 50.88 231.91 50.88C231.94 50.88 231.96 50.88 231.97 50.86C232.94 49.91 233.97 49.4299 235.04 49.4299C236.11 49.4299 236.81 49.77 237.31 50.46C237.8 51.15 238.05 52.12 238.05 53.37V58.37C238.05 58.64 237.96 58.8699 237.77 59.0599C237.58 59.2499 237.35 59.35 237.07 59.35H236.01C235.73 59.35 235.5 59.2499 235.31 59.0599C235.12 58.8699 235.03 58.64 235.03 58.37V53.74C235.03 53.1 234.94 52.65 234.76 52.4C234.58 52.15 234.3 52.0299 233.9 52.0299C233.6 52.0299 233.34 52.09 233.11 52.21C232.88 52.33 232.61 52.5299 232.3 52.8099C232.24 52.8699 232.22 52.93 232.22 53.01V58.37C232.22 58.64 232.12 58.8699 231.93 59.0599C231.74 59.2499 231.51 59.35 231.24 59.35H230.19V59.36Z" fill="#70D44B"/>
<path d="M244.179 59.6C243.009 59.6 242.14 59.27 241.59 58.6C241.04 57.93 240.76 56.9899 240.76 55.7899V52.1899C240.76 52.1099 240.719 52.0699 240.639 52.0699H240.419C240.149 52.0699 239.919 51.9699 239.729 51.7799C239.539 51.5899 239.439 51.36 239.439 51.09V50.8099C239.439 50.5299 239.529 50.29 239.719 50.09C239.909 49.89 240.139 49.77 240.419 49.75L240.8 49.72C240.89 49.71 240.939 49.67 240.949 49.59L241.129 48.13C241.169 47.85 241.3 47.6199 241.51 47.4399C241.72 47.2599 241.96 47.1699 242.24 47.1699H242.8C243.07 47.1699 243.3 47.26 243.49 47.45C243.68 47.64 243.78 47.87 243.78 48.15V49.59C243.78 49.67 243.819 49.71 243.899 49.71H245.08C245.35 49.71 245.58 49.81 245.77 50C245.96 50.19 246.06 50.4199 246.06 50.6899V51.11C246.06 51.38 245.96 51.6099 245.77 51.7999C245.58 51.9899 245.35 52.09 245.08 52.09H243.899C243.819 52.09 243.78 52.13 243.78 52.21V55.7799C243.78 56.7399 244.159 57.24 244.929 57.27C245.209 57.28 245.459 57.36 245.679 57.49C245.899 57.63 246.04 57.8099 246.09 58.0499L246.159 58.3199C246.169 58.4099 246.179 58.4899 246.179 58.5699C246.179 58.7499 246.13 58.92 246.03 59.08C245.89 59.32 245.679 59.47 245.419 59.51C245.009 59.59 244.599 59.63 244.169 59.63L244.179 59.6Z" fill="#70D44B"/>
<path d="M250.84 59.6C249.81 59.6 249.05 59.26 248.57 58.58C248.08 57.9 247.84 56.9299 247.84 55.6799V50.6699C247.84 50.3999 247.93 50.17 248.12 49.98C248.31 49.79 248.54 49.6899 248.82 49.6899H249.88C250.15 49.6899 250.38 49.79 250.57 49.98C250.76 50.17 250.86 50.3999 250.86 50.6699V55.2999C250.86 55.9499 250.95 56.4 251.12 56.65C251.29 56.9 251.58 57.02 251.97 57.02C252.3 57.02 252.58 56.9499 252.82 56.8099C253.05 56.6699 253.28 56.44 253.52 56.12C253.58 56.05 253.6 55.98 253.6 55.9V50.65C253.6 50.38 253.69 50.15 253.88 49.96C254.07 49.77 254.3 49.6699 254.58 49.6699H255.64C255.91 49.6699 256.14 49.77 256.33 49.96C256.52 50.15 256.62 50.38 256.62 50.65V58.37C256.62 58.64 256.52 58.8699 256.33 59.0599C256.14 59.2499 255.91 59.35 255.64 59.35H255.14C254.85 59.35 254.6 59.26 254.39 59.08C254.17 58.9 254.04 58.67 254 58.39L253.95 58.0599C253.95 58.0599 253.92 58.0299 253.9 58.0299C253.88 58.0299 253.86 58.0399 253.85 58.0599C253.42 58.5599 252.96 58.94 252.49 59.2C252.01 59.46 251.47 59.59 250.85 59.59L250.84 59.6Z" fill="#70D44B"/>
<path d="M260.02 59.36C259.74 59.36 259.51 59.2599 259.32 59.0699C259.13 58.8799 259.04 58.65 259.04 58.38V50.6599C259.04 50.3899 259.13 50.16 259.32 49.97C259.51 49.78 259.74 49.6799 260.02 49.6799H260.52C260.8 49.6799 261.04 49.77 261.25 49.96C261.46 50.15 261.58 50.3799 261.62 50.6599L261.7 51.34C261.7 51.34 261.71 51.37 261.74 51.37C261.77 51.37 261.79 51.36 261.8 51.34C262.14 50.72 262.56 50.2499 263.05 49.9299C263.54 49.6099 264.03 49.45 264.53 49.45H264.76C265.03 49.46 265.24 49.59 265.39 49.83C265.49 50 265.54 50.18 265.54 50.38C265.54 50.46 265.54 50.54 265.52 50.61L265.39 51.2899C265.33 51.5399 265.2 51.74 264.97 51.89C264.76 52.03 264.52 52.11 264.26 52.11H264.14C263.75 52.11 263.38 52.24 263.01 52.5C262.64 52.76 262.34 53.17 262.1 53.72C262.07 53.8 262.05 53.88 262.05 53.97V58.39C262.05 58.66 261.95 58.89 261.76 59.08C261.57 59.27 261.34 59.37 261.07 59.37H260.02V59.36Z" fill="#70D44B"/>
<path d="M270.96 59.6C270.34 59.6 269.75 59.48 269.18 59.25C268.61 59.02 268.1 58.69 267.66 58.27C267.22 57.85 266.87 57.3199 266.61 56.6699C266.35 56.0199 266.22 55.3099 266.22 54.5399C266.22 53.7699 266.35 53.05 266.61 52.4C266.87 51.75 267.22 51.2099 267.66 50.7899C268.1 50.3699 268.61 50.0399 269.18 49.8099C269.75 49.5799 270.34 49.46 270.96 49.46C271.58 49.46 272.16 49.5799 272.72 49.8099C273.28 50.0399 273.79 50.3699 274.23 50.7899C274.67 51.2099 275.02 51.75 275.28 52.4C275.54 53.05 275.67 53.7699 275.67 54.5399C275.67 55.3099 275.54 56.0299 275.28 56.6699C275.02 57.3199 274.67 57.85 274.23 58.27C273.79 58.69 273.28 59.02 272.72 59.25C272.16 59.48 271.57 59.6 270.96 59.6ZM270.96 57.1599C271.5 57.1599 271.91 56.93 272.18 56.47C272.45 56.01 272.59 55.3699 272.59 54.5399C272.59 53.7099 272.45 53.06 272.18 52.6C271.91 52.14 271.5 51.9 270.96 51.9C270.42 51.9 269.99 52.13 269.71 52.6C269.43 53.06 269.3 53.7099 269.3 54.5399C269.3 55.3699 269.44 56.02 269.71 56.47C269.99 56.93 270.4 57.1599 270.96 57.1599Z" fill="#70D44B"/>
<path d="M280.49 59.6C279.46 59.6 278.7 59.26 278.22 58.58C277.73 57.9 277.49 56.9299 277.49 55.6799V50.6699C277.49 50.3999 277.58 50.17 277.77 49.98C277.96 49.79 278.19 49.6899 278.47 49.6899H279.53C279.8 49.6899 280.03 49.79 280.22 49.98C280.41 50.17 280.51 50.3999 280.51 50.6699V55.2999C280.51 55.9499 280.6 56.4 280.77 56.65C280.94 56.9 281.23 57.02 281.62 57.02C281.95 57.02 282.23 56.9499 282.47 56.8099C282.71 56.6699 282.93 56.44 283.17 56.12C283.23 56.05 283.25 55.98 283.25 55.9V50.65C283.25 50.38 283.34 50.15 283.53 49.96C283.72 49.77 283.95 49.6699 284.23 49.6699H285.29C285.56 49.6699 285.79 49.77 285.98 49.96C286.17 50.15 286.27 50.38 286.27 50.65V58.37C286.27 58.64 286.17 58.8699 285.98 59.0599C285.79 59.2499 285.56 59.35 285.29 59.35H284.79C284.5 59.35 284.25 59.26 284.04 59.08C283.82 58.9 283.69 58.67 283.65 58.39L283.6 58.0599C283.6 58.0599 283.57 58.0299 283.55 58.0299C283.53 58.0299 283.51 58.0399 283.5 58.0599C283.07 58.5599 282.61 58.94 282.14 59.2C281.66 59.46 281.12 59.59 280.5 59.59L280.49 59.6Z" fill="#70D44B"/>
<path d="M291.581 59.6C290.591 59.6 289.62 59.3299 288.66 58.7999C288.43 58.6699 288.29 58.4599 288.25 58.1899C288.24 58.1399 288.23 58.08 288.23 58.02C288.23 57.81 288.3 57.6199 288.43 57.4399L288.63 57.1599C288.79 56.9399 289 56.81 289.26 56.76C289.33 56.75 289.39 56.74 289.46 56.74C289.66 56.74 289.851 56.79 290.021 56.89C290.581 57.21 291.13 57.37 291.65 57.37C292.41 57.37 292.801 57.12 292.801 56.61C292.801 56.53 292.78 56.46 292.75 56.39C292.72 56.32 292.661 56.2499 292.581 56.1799C292.501 56.1099 292.42 56.06 292.36 56.01C292.29 55.96 292.191 55.9 292.041 55.84C291.901 55.78 291.78 55.7299 291.7 55.6899C291.62 55.6499 291.481 55.6 291.281 55.52C291.091 55.45 290.95 55.4 290.87 55.36C290.54 55.23 290.24 55.0899 289.97 54.9399C289.7 54.7899 289.44 54.61 289.18 54.38C288.92 54.16 288.721 53.89 288.571 53.58C288.421 53.27 288.351 52.9099 288.351 52.5299C288.351 51.6099 288.69 50.8699 289.38 50.3099C290.07 49.7499 290.971 49.46 292.101 49.46C293.031 49.46 293.91 49.6899 294.74 50.1599C294.97 50.2899 295.11 50.49 295.15 50.76C295.16 50.82 295.17 50.8699 295.17 50.9299C295.17 51.1399 295.1 51.33 294.97 51.49L294.791 51.72C294.631 51.93 294.42 52.06 294.14 52.12C294.06 52.13 293.98 52.14 293.91 52.14C293.72 52.14 293.54 52.1 293.36 52.01C292.94 51.8 292.55 51.6899 292.2 51.6899C291.51 51.6899 291.17 51.92 291.17 52.39C291.17 52.46 291.18 52.5199 291.2 52.5699C291.22 52.6299 291.261 52.68 291.301 52.73C291.341 52.78 291.39 52.83 291.43 52.87C291.47 52.91 291.54 52.96 291.62 52.99C291.7 53.03 291.781 53.06 291.841 53.1C291.901 53.14 292 53.17 292.11 53.22C292.23 53.26 292.32 53.3 292.4 53.33C292.48 53.36 292.58 53.3899 292.72 53.4399C292.85 53.4799 292.961 53.5199 293.051 53.5599C293.401 53.6899 293.71 53.83 293.97 53.97C294.23 54.11 294.501 54.29 294.771 54.52C295.041 54.75 295.25 55.02 295.38 55.35C295.52 55.68 295.591 56.05 295.591 56.47C295.591 57.4 295.241 58.16 294.541 58.74C293.841 59.33 292.851 59.62 291.581 59.62V59.6Z" fill="#70D44B"/>
<path d="M302.75 48.34C302.24 48.34 301.82 48.1999 301.5 47.9099C301.17 47.6199 301.01 47.2499 301.01 46.7999C301.01 46.3499 301.17 45.9699 301.5 45.6799C301.83 45.3899 302.24 45.24 302.75 45.24C303.26 45.24 303.66 45.3899 303.98 45.6799C304.3 45.9699 304.46 46.3499 304.46 46.7999C304.46 47.2499 304.3 47.6299 303.98 47.9099C303.66 48.1999 303.25 48.34 302.75 48.34ZM302.22 59.36C301.94 59.36 301.71 59.2599 301.52 59.0699C301.33 58.8799 301.24 58.65 301.24 58.38V50.6599C301.24 50.3899 301.33 50.16 301.52 49.97C301.71 49.78 301.94 49.6799 302.22 49.6799H303.27C303.54 49.6799 303.77 49.78 303.96 49.97C304.15 50.16 304.25 50.3899 304.25 50.6599V58.38C304.25 58.65 304.15 58.8799 303.96 59.0699C303.77 59.2599 303.54 59.36 303.27 59.36H302.22Z" fill="#70D44B"/>
<path d="M307.669 59.36C307.389 59.36 307.159 59.2599 306.969 59.0699C306.779 58.8799 306.689 58.65 306.689 58.38V50.6599C306.689 50.3899 306.779 50.16 306.969 49.97C307.159 49.78 307.389 49.6799 307.669 49.6799H308.169C308.459 49.6799 308.709 49.77 308.929 49.95C309.149 50.13 309.28 50.37 309.32 50.65L309.35 50.85C309.35 50.85 309.359 50.88 309.389 50.88C309.419 50.88 309.439 50.88 309.449 50.86C310.419 49.91 311.45 49.4299 312.52 49.4299C313.59 49.4299 314.29 49.77 314.79 50.46C315.28 51.15 315.53 52.12 315.53 53.37V58.37C315.53 58.64 315.44 58.8699 315.25 59.0599C315.06 59.2499 314.83 59.35 314.55 59.35H313.49C313.21 59.35 312.98 59.2499 312.79 59.0599C312.6 58.8699 312.51 58.64 312.51 58.37V53.74C312.51 53.1 312.42 52.65 312.24 52.4C312.06 52.15 311.779 52.0299 311.379 52.0299C311.079 52.0299 310.82 52.09 310.59 52.21C310.36 52.33 310.09 52.5299 309.78 52.8099C309.72 52.8699 309.699 52.93 309.699 53.01V58.37C309.699 58.64 309.599 58.8699 309.409 59.0599C309.219 59.2499 308.989 59.35 308.719 59.35H307.669V59.36Z" fill="#70D44B"/>
<path d="M324.63 59.6C323.64 59.6 322.67 59.3299 321.71 58.7999C321.48 58.6699 321.34 58.4599 321.3 58.1899C321.29 58.1399 321.28 58.08 321.28 58.02C321.28 57.81 321.35 57.6199 321.48 57.4399L321.68 57.1599C321.84 56.9399 322.05 56.81 322.31 56.76C322.38 56.75 322.44 56.74 322.51 56.74C322.71 56.74 322.9 56.79 323.07 56.89C323.63 57.21 324.18 57.37 324.7 57.37C325.46 57.37 325.85 57.12 325.85 56.61C325.85 56.53 325.83 56.46 325.8 56.39C325.77 56.32 325.71 56.2499 325.63 56.1799C325.55 56.1099 325.47 56.06 325.41 56.01C325.35 55.96 325.24 55.9 325.09 55.84C324.95 55.78 324.83 55.7299 324.75 55.6899C324.67 55.6499 324.53 55.6 324.33 55.52C324.14 55.45 324 55.4 323.92 55.36C323.59 55.23 323.29 55.0899 323.02 54.9399C322.75 54.7899 322.49 54.61 322.23 54.38C321.97 54.16 321.77 53.89 321.62 53.58C321.47 53.27 321.4 52.9099 321.4 52.5299C321.4 51.6099 321.74 50.8699 322.43 50.3099C323.12 49.7499 324.02 49.46 325.15 49.46C326.08 49.46 326.96 49.6899 327.79 50.1599C328.02 50.2899 328.16 50.49 328.21 50.76C328.22 50.82 328.23 50.8699 328.23 50.9299C328.23 51.1399 328.16 51.33 328.03 51.49L327.85 51.72C327.69 51.93 327.48 52.06 327.2 52.12C327.12 52.13 327.04 52.14 326.97 52.14C326.78 52.14 326.6 52.1 326.42 52.01C326 51.8 325.61 51.6899 325.26 51.6899C324.57 51.6899 324.23 51.92 324.23 52.39C324.23 52.46 324.24 52.5199 324.26 52.5699C324.28 52.6299 324.32 52.68 324.36 52.73C324.4 52.78 324.45 52.83 324.49 52.87C324.53 52.91 324.6 52.96 324.68 52.99C324.76 53.03 324.84 53.06 324.9 53.1C324.96 53.14 325.06 53.17 325.17 53.22C325.29 53.26 325.38 53.3 325.46 53.33C325.54 53.36 325.64 53.3899 325.78 53.4399C325.91 53.4799 326.02 53.5199 326.11 53.5599C326.46 53.6899 326.77 53.83 327.03 53.97C327.29 54.11 327.56 54.29 327.83 54.52C328.1 54.75 328.31 55.02 328.44 55.35C328.58 55.68 328.65 56.05 328.65 56.47C328.65 57.4 328.3 58.16 327.6 58.74C326.9 59.33 325.91 59.62 324.64 59.62L324.63 59.6Z" fill="#70D44B"/>
<path d="M331.39 62.9199C331.11 62.9199 330.88 62.82 330.69 62.63C330.5 62.44 330.41 62.2099 330.41 61.9399V50.7C330.41 50.43 330.5 50.2 330.69 50.01C330.88 49.82 331.11 49.72 331.39 49.72H332.02C332.26 49.72 332.48 49.8 332.68 49.96C332.87 50.12 333 50.3199 333.05 50.5499L333.07 50.63C333.07 50.63 333.08 50.6599 333.11 50.6599C333.14 50.6599 333.16 50.65 333.17 50.63C334.04 49.87 334.94 49.48 335.86 49.48C337.02 49.48 337.94 49.9299 338.62 50.8199C339.3 51.7099 339.64 52.9 339.64 54.4C339.64 55.21 339.53 55.95 339.3 56.62C339.07 57.29 338.77 57.8399 338.39 58.2799C338.01 58.7199 337.57 59.0499 337.09 59.2799C336.6 59.5099 336.1 59.63 335.58 59.63C334.79 59.63 334.08 59.33 333.42 58.72C333.41 58.71 333.39 58.71 333.37 58.72C333.35 58.73 333.34 58.74 333.34 58.75L333.42 60.14V61.9299C333.42 62.1999 333.32 62.43 333.13 62.62C332.94 62.81 332.71 62.9099 332.44 62.9099H331.39V62.9199ZM334.86 57.1599C335.36 57.1599 335.76 56.94 336.06 56.5C336.36 56.06 336.52 55.38 336.52 54.46C336.52 53.61 336.39 52.98 336.14 52.58C335.89 52.18 335.49 51.97 334.96 51.97C334.46 51.97 333.97 52.2099 333.5 52.6799C333.44 52.7499 333.42 52.82 333.42 52.9V56.49C333.42 56.57 333.45 56.6299 333.52 56.6899C333.92 57.0099 334.37 57.1699 334.86 57.1699V57.1599Z" fill="#70D44B"/>
<path d="M343.09 48.34C342.58 48.34 342.16 48.1999 341.84 47.9099C341.51 47.6199 341.35 47.2499 341.35 46.7999C341.35 46.3499 341.51 45.9699 341.84 45.6799C342.17 45.3899 342.58 45.24 343.09 45.24C343.6 45.24 344 45.3899 344.32 45.6799C344.64 45.9699 344.8 46.3499 344.8 46.7999C344.8 47.2499 344.64 47.6299 344.32 47.9099C344 48.1999 343.59 48.34 343.09 48.34ZM342.56 59.36C342.28 59.36 342.049 59.2599 341.859 59.0699C341.669 58.8799 341.58 58.65 341.58 58.38V50.6599C341.58 50.3899 341.669 50.16 341.859 49.97C342.049 49.78 342.28 49.6799 342.56 49.6799H343.609C343.879 49.6799 344.11 49.78 344.3 49.97C344.49 50.16 344.59 50.3899 344.59 50.6599V58.38C344.59 58.65 344.49 58.8799 344.3 59.0699C344.11 59.2599 343.879 59.36 343.609 59.36H342.56Z" fill="#70D44B"/>
<path d="M348.01 59.36C347.73 59.36 347.5 59.2599 347.31 59.0699C347.12 58.8799 347.03 58.65 347.03 58.38V50.6599C347.03 50.3899 347.12 50.16 347.31 49.97C347.5 49.78 347.73 49.6799 348.01 49.6799H348.51C348.79 49.6799 349.03 49.77 349.24 49.96C349.45 50.15 349.57 50.3799 349.61 50.6599L349.69 51.34C349.69 51.34 349.7 51.37 349.73 51.37C349.76 51.37 349.78 51.36 349.79 51.34C350.13 50.72 350.55 50.2499 351.04 49.9299C351.53 49.6099 352.02 49.45 352.52 49.45H352.75C353.02 49.46 353.23 49.59 353.38 49.83C353.48 50 353.53 50.18 353.53 50.38C353.53 50.46 353.53 50.54 353.51 50.61L353.38 51.2899C353.32 51.5399 353.19 51.74 352.97 51.89C352.76 52.03 352.52 52.11 352.26 52.11H352.14C351.75 52.11 351.38 52.24 351.01 52.5C350.64 52.76 350.34 53.17 350.1 53.72C350.07 53.8 350.05 53.88 350.05 53.97V58.39C350.05 58.66 349.95 58.89 349.76 59.08C349.57 59.27 349.34 59.37 349.07 59.37H348.02L348.01 59.36Z" fill="#70D44B"/>
<path d="M356.429 48.34C355.919 48.34 355.499 48.1999 355.179 47.9099C354.849 47.6199 354.689 47.2499 354.689 46.7999C354.689 46.3499 354.849 45.9699 355.179 45.6799C355.509 45.3899 355.919 45.24 356.429 45.24C356.939 45.24 357.339 45.3899 357.659 45.6799C357.979 45.9699 358.139 46.3499 358.139 46.7999C358.139 47.2499 357.979 47.6299 357.659 47.9099C357.339 48.1999 356.929 48.34 356.429 48.34ZM355.889 59.36C355.609 59.36 355.379 59.2599 355.189 59.0699C354.999 58.8799 354.909 58.65 354.909 58.38V50.6599C354.909 50.3899 354.999 50.16 355.189 49.97C355.379 49.78 355.609 49.6799 355.889 49.6799H356.939C357.209 49.6799 357.439 49.78 357.629 49.97C357.819 50.16 357.919 50.3899 357.919 50.6599V58.38C357.919 58.65 357.819 58.8799 357.629 59.0699C357.439 59.2599 357.209 59.36 356.939 59.36H355.889Z" fill="#70D44B"/>
<path d="M364.16 59.6C362.99 59.6 362.12 59.27 361.57 58.6C361.02 57.93 360.74 56.9899 360.74 55.7899V52.1899C360.74 52.1099 360.7 52.0699 360.62 52.0699H360.4C360.13 52.0699 359.9 51.9699 359.71 51.7799C359.52 51.5899 359.42 51.36 359.42 51.09V50.8099C359.42 50.5299 359.51 50.29 359.7 50.09C359.89 49.89 360.12 49.77 360.4 49.75L360.78 49.72C360.87 49.71 360.92 49.67 360.93 49.59L361.11 48.13C361.15 47.85 361.28 47.6199 361.49 47.4399C361.7 47.2599 361.94 47.1699 362.22 47.1699H362.78C363.05 47.1699 363.28 47.26 363.47 47.45C363.66 47.64 363.76 47.87 363.76 48.15V49.59C363.76 49.67 363.8 49.71 363.88 49.71H365.06C365.33 49.71 365.56 49.81 365.75 50C365.94 50.19 366.04 50.4199 366.04 50.6899V51.11C366.04 51.38 365.94 51.6099 365.75 51.7999C365.56 51.9899 365.33 52.09 365.06 52.09H363.88C363.8 52.09 363.76 52.13 363.76 52.21V55.7799C363.76 56.7399 364.14 57.24 364.91 57.27C365.19 57.28 365.44 57.36 365.66 57.49C365.88 57.63 366.02 57.8099 366.07 58.0499L366.14 58.3199C366.15 58.4099 366.16 58.4899 366.16 58.5699C366.16 58.7499 366.11 58.92 366.01 59.08C365.87 59.32 365.66 59.47 365.4 59.51C364.99 59.59 364.58 59.63 364.15 59.63L364.16 59.6Z" fill="#70D44B"/>
<defs>
<filter id="filter0_d_99_72657" x="52.0505" y="9.77516e-06" width="355.391" height="36.6003" filterUnits="userSpaceOnUse" color-interpolation-filters="sRGB">
<feFlood flood-opacity="0" result="BackgroundImageFix"/>
<feColorMatrix in="SourceAlpha" type="matrix" values="0 0 0 0 0 0 0 0 0 0 0 0 0 0 0 0 0 0 127 0" result="hardAlpha"/>
<feOffset dx="2.53" dy="2.53"/>
<feGaussianBlur stdDeviation="1.27"/>
<feColorMatrix type="matrix" values="0 0 0 0 0.137255 0 0 0 0 0.0941176 0 0 0 0 0.0823529 0 0 0 0.75 0"/>
<feBlend mode="normal" in2="BackgroundImageFix" result="effect1_dropShadow_99_72657"/>
<feBlend mode="normal" in="SourceGraphic" in2="effect1_dropShadow_99_72657" result="shape"/>
</filter>
</defs>
</svg>
