<svg width="393" height="64" viewBox="0 0 393 64" fill="none" xmlns="http://www.w3.org/2000/svg">
<g filter="url(#filter0_d_99_72569)">
<path d="M62.2596 16.17L56.1497 7.87012C55.8497 7.46012 55.6396 6.98013 55.6396 6.38013C55.6396 5.27013 56.5597 4.38013 57.7197 4.38013C58.6697 4.38013 59.2597 4.89015 59.7697 5.65015L64.3596 12.2701L69.0297 5.6001C69.5397 4.8401 70.1597 4.36011 71.0297 4.36011C72.2997 4.36011 73.0597 5.25014 73.0597 6.39014C73.0597 6.96014 72.7897 7.4701 72.5197 7.8501L66.4097 16.0901V21.55C66.4097 22.71 65.4897 23.6301 64.3297 23.6301C63.1697 23.6301 62.2496 22.71 62.2496 21.55V16.17H62.2596Z" fill="#231815" stroke="white" stroke-width="7.14" stroke-linecap="round" stroke-linejoin="round"/>
<path d="M73.0098 16.3102V16.2603C73.0098 12.1003 76.3598 8.72021 80.8698 8.72021C85.3798 8.72021 88.6798 12.0402 88.6798 16.2102V16.2603C88.6798 20.4203 85.3298 23.8002 80.8198 23.8002C76.3098 23.8002 73.0098 20.4802 73.0098 16.3102ZM84.6298 16.3102V16.2603C84.6298 14.1303 83.0898 12.2603 80.8198 12.2603C78.5498 12.2603 77.0598 14.0702 77.0598 16.2102V16.2603C77.0598 18.3903 78.5998 20.2603 80.8698 20.2603C83.1398 20.2603 84.6298 18.4502 84.6298 16.3102Z" fill="#231815" stroke="white" stroke-width="7.14" stroke-linecap="round" stroke-linejoin="round"/>
<path d="M104.82 21.5801C104.82 22.7101 103.9 23.6301 102.77 23.6301C101.64 23.6301 100.72 22.7101 100.72 21.5801V21.42C99.7696 22.64 98.5596 23.7401 96.4796 23.7401C93.3696 23.7401 91.5596 21.6901 91.5596 18.3601V10.8701C91.5596 9.74012 92.4795 8.82007 93.6095 8.82007C94.7395 8.82007 95.6595 9.74012 95.6595 10.8701V17.0601C95.6595 19.0101 96.5795 20.0101 98.1495 20.0101C99.7195 20.0101 100.72 19.0101 100.72 17.0601V10.8701C100.72 9.74012 101.64 8.82007 102.77 8.82007C103.9 8.82007 104.82 9.74012 104.82 10.8701V21.5701V21.5801Z" fill="#231815" stroke="white" stroke-width="7.14" stroke-linecap="round" stroke-linejoin="round"/>
<path d="M115.75 19.3101V19.2601C115.75 16.1001 118.16 14.6401 121.59 14.6401C123.05 14.6401 124.1 14.8801 125.13 15.2301V14.9901C125.13 13.2901 124.08 12.3401 122.02 12.3401C120.89 12.3401 119.97 12.5001 119.18 12.7501C118.94 12.8301 118.77 12.8601 118.59 12.8601C117.64 12.8601 116.89 12.1301 116.89 11.1801C116.89 10.4501 117.35 9.83009 118 9.59009C119.3 9.10009 120.7 8.83008 122.62 8.83008C124.86 8.83008 126.48 9.42007 127.51 10.4501C128.59 11.5301 129.08 13.1301 129.08 15.0701V21.66C129.08 22.77 128.19 23.6301 127.08 23.6301C125.89 23.6301 125.11 22.7901 125.11 21.9301V21.9001C124.11 23.0101 122.73 23.7401 120.73 23.7401C118 23.7401 115.76 22.1701 115.76 19.3101H115.75ZM125.18 18.3601V17.6301C124.48 17.3101 123.56 17.0901 122.56 17.0901C120.8 17.0901 119.72 17.7901 119.72 19.0901V19.1401C119.72 20.2501 120.64 20.9001 121.96 20.9001C123.88 20.9001 125.18 19.8501 125.18 18.3601Z" fill="#231815" stroke="white" stroke-width="7.14" stroke-linecap="round" stroke-linejoin="round"/>
<path d="M132.609 10.8801C132.609 9.75013 133.529 8.83008 134.659 8.83008C135.789 8.83008 136.709 9.75013 136.709 10.8801V11.53C137.299 10.12 138.279 8.83008 139.489 8.83008C140.699 8.83008 141.489 9.67008 141.489 10.8301C141.489 11.9101 140.789 12.5601 139.949 12.7501C137.869 13.2401 136.709 14.8301 136.709 17.7501V21.5901C136.709 22.7201 135.789 23.6401 134.659 23.6401C133.529 23.6401 132.609 22.7201 132.609 21.5901V10.8901V10.8801Z" fill="#231815" stroke="white" stroke-width="7.14" stroke-linecap="round" stroke-linejoin="round"/>
<path d="M150.37 23.7899C146.02 23.7899 142.8 20.7399 142.8 16.2999V16.25C142.8 12.12 145.75 8.70996 149.96 8.70996C154.8 8.70996 156.93 12.6799 156.93 15.6799C156.93 16.8699 156.09 17.65 155.01 17.65H146.88C147.29 19.51 148.58 20.49 150.42 20.49C151.56 20.49 152.5 20.14 153.34 19.52C153.64 19.3 153.91 19.2 154.34 19.2C155.26 19.2 155.93 19.8999 155.93 20.8199C155.93 21.3599 155.69 21.7699 155.39 22.0399C154.12 23.1199 152.47 23.7999 150.36 23.7999L150.37 23.7899ZM153.02 15.09C152.78 13.25 151.7 12.01 149.97 12.01C148.24 12.01 147.16 13.23 146.84 15.09H153.03H153.02Z" fill="#231815" stroke="white" stroke-width="7.14" stroke-linecap="round" stroke-linejoin="round"/>
<path d="M168.86 19.3601V12.5001H168.72C167.75 12.5001 166.96 11.7201 166.96 10.7401C166.96 9.76011 167.74 8.9801 168.72 8.9801H168.86V7.17004C168.86 6.04004 169.78 5.12012 170.91 5.12012C172.04 5.12012 172.96 6.04004 172.96 7.17004V8.9801H174.77C175.74 8.9801 176.53 9.76011 176.53 10.7401C176.53 11.7201 175.75 12.5001 174.77 12.5001H172.96V18.6901C172.96 19.6401 173.37 20.1001 174.28 20.1001C174.42 20.1001 174.69 20.0701 174.77 20.0701C175.69 20.0701 176.47 20.8301 176.47 21.7701C176.47 22.5001 175.98 23.0901 175.42 23.3101C174.66 23.6101 173.96 23.7201 173.07 23.7201C170.56 23.7201 168.85 22.7201 168.85 19.3701L168.86 19.3601Z" fill="#231815" stroke="white" stroke-width="7.14" stroke-linecap="round" stroke-linejoin="round"/>
<path d="M179.399 5.63013C179.399 4.49013 180.319 3.58008 181.449 3.58008C182.579 3.58008 183.499 4.50013 183.499 5.63013V11.03C184.449 9.81003 185.659 8.71008 187.739 8.71008C190.849 8.71008 192.659 10.7601 192.659 14.0901V21.5801C192.659 22.7101 191.739 23.6301 190.609 23.6301C189.479 23.6301 188.559 22.7101 188.559 21.5801V15.3901C188.559 13.4401 187.639 12.4401 186.069 12.4401C184.499 12.4401 183.499 13.4401 183.499 15.3901V21.5801C183.499 22.7101 182.579 23.6301 181.449 23.6301C180.319 23.6301 179.399 22.7101 179.399 21.5801V5.64014V5.63013Z" fill="#231815" stroke="white" stroke-width="7.14" stroke-linecap="round" stroke-linejoin="round"/>
<path d="M203.099 23.7899C198.749 23.7899 195.529 20.7399 195.529 16.2999V16.25C195.529 12.12 198.479 8.70996 202.689 8.70996C207.529 8.70996 209.659 12.6799 209.659 15.6799C209.659 16.8699 208.819 17.65 207.739 17.65H199.609C200.019 19.51 201.309 20.49 203.149 20.49C204.289 20.49 205.229 20.14 206.069 19.52C206.369 19.3 206.639 19.2 207.069 19.2C207.989 19.2 208.659 19.8999 208.659 20.8199C208.659 21.3599 208.419 21.7699 208.119 22.0399C206.849 23.1199 205.199 23.7999 203.089 23.7999L203.099 23.7899ZM205.749 15.09C205.509 13.25 204.429 12.01 202.699 12.01C200.969 12.01 199.889 13.23 199.569 15.09H205.759H205.749Z" fill="#231815" stroke="white" stroke-width="7.14" stroke-linecap="round" stroke-linejoin="round"/>
<path d="M220.51 14.0599V14.01C220.51 8.63001 224.56 4.22998 230.37 4.22998C233.21 4.22998 235.13 4.99002 236.69 6.15002C237.12 6.47002 237.5 7.06993 237.5 7.79993C237.5 8.93993 236.58 9.82996 235.45 9.82996C234.88 9.82996 234.5 9.60992 234.21 9.41992C233.05 8.54992 231.83 8.06995 230.35 8.06995C227.16 8.06995 224.86 10.72 224.86 13.96V14.01C224.86 17.25 227.1 19.96 230.35 19.96C232.11 19.96 233.27 19.42 234.46 18.47C234.78 18.2 235.22 18.01 235.7 18.01C236.75 18.01 237.65 18.8799 237.65 19.9299C237.65 20.5799 237.33 21.0899 236.95 21.4199C235.25 22.9099 233.25 23.7999 230.22 23.7999C224.65 23.7999 220.52 19.4999 220.52 14.0699L220.51 14.0599Z" fill="#231815" stroke="white" stroke-width="7.14" stroke-linecap="round" stroke-linejoin="round"/>
<path d="M241.05 5.63013C241.05 4.49013 241.97 3.58008 243.1 3.58008C244.23 3.58008 245.15 4.50013 245.15 5.63013V21.5701C245.15 22.7001 244.23 23.6201 243.1 23.6201C241.97 23.6201 241.05 22.7001 241.05 21.5701V5.63013Z" fill="#231815" stroke="white" stroke-width="7.14" stroke-linecap="round" stroke-linejoin="round"/>
<path d="M255.889 23.7899C251.539 23.7899 248.319 20.7399 248.319 16.2999V16.25C248.319 12.12 251.269 8.70996 255.479 8.70996C260.319 8.70996 262.449 12.6799 262.449 15.6799C262.449 16.8699 261.609 17.65 260.529 17.65H252.399C252.809 19.51 254.099 20.49 255.939 20.49C257.079 20.49 258.019 20.14 258.859 19.52C259.159 19.3 259.429 19.2 259.859 19.2C260.779 19.2 261.449 19.8999 261.449 20.8199C261.449 21.3599 261.209 21.7699 260.909 22.0399C259.639 23.1199 257.989 23.7999 255.879 23.7999L255.889 23.7899ZM258.529 15.09C258.289 13.25 257.209 12.01 255.479 12.01C253.749 12.01 252.669 13.23 252.349 15.09H258.539H258.529Z" fill="#231815" stroke="white" stroke-width="7.14" stroke-linecap="round" stroke-linejoin="round"/>
<path d="M264.72 19.3101V19.2601C264.72 16.1001 267.13 14.6401 270.56 14.6401C272.02 14.6401 273.07 14.8801 274.1 15.2301V14.9901C274.1 13.2901 273.05 12.3401 270.99 12.3401C269.86 12.3401 268.94 12.5001 268.15 12.7501C267.91 12.8301 267.74 12.8601 267.56 12.8601C266.61 12.8601 265.86 12.1301 265.86 11.1801C265.86 10.4501 266.32 9.83009 266.97 9.59009C268.27 9.10009 269.67 8.83008 271.59 8.83008C273.83 8.83008 275.45 9.42007 276.48 10.4501C277.56 11.5301 278.05 13.1301 278.05 15.0701V21.66C278.05 22.77 277.16 23.6301 276.05 23.6301C274.86 23.6301 274.08 22.7901 274.08 21.9301V21.9001C273.08 23.0101 271.7 23.7401 269.7 23.7401C266.97 23.7401 264.73 22.1701 264.73 19.3101H264.72ZM274.16 18.3601V17.6301C273.46 17.3101 272.54 17.0901 271.54 17.0901C269.78 17.0901 268.7 17.7901 268.7 19.0901V19.1401C268.7 20.2501 269.62 20.9001 270.94 20.9001C272.86 20.9001 274.16 19.8501 274.16 18.3601Z" fill="#231815" stroke="white" stroke-width="7.14" stroke-linecap="round" stroke-linejoin="round"/>
<path d="M281.59 10.8801C281.59 9.75013 282.51 8.83008 283.64 8.83008C284.77 8.83008 285.69 9.75013 285.69 10.8801V11.53C286.28 10.12 287.26 8.83008 288.47 8.83008C289.68 8.83008 290.47 9.67008 290.47 10.8301C290.47 11.9101 289.77 12.5601 288.93 12.7501C286.85 13.2401 285.69 14.8301 285.69 17.7501V21.5901C285.69 22.7201 284.77 23.6401 283.64 23.6401C282.51 23.6401 281.59 22.7201 281.59 21.5901V10.8901V10.8801Z" fill="#231815" stroke="white" stroke-width="7.14" stroke-linecap="round" stroke-linejoin="round"/>
<path d="M292.239 15.0901C292.239 14.0101 293.129 13.1201 294.209 13.1201H298.909C299.989 13.1201 300.879 14.0101 300.879 15.0901C300.879 16.1701 299.989 17.0601 298.909 17.0601H294.209C293.129 17.0601 292.239 16.1701 292.239 15.0901Z" fill="#231815" stroke="white" stroke-width="7.14" stroke-linecap="round" stroke-linejoin="round"/>
<path d="M304.35 6.63013C304.35 5.47013 305.27 4.55005 306.43 4.55005H312.08C316.59 4.55005 319.32 7.22009 319.32 11.0901V11.1401C319.32 15.5201 315.92 17.79 311.67 17.79H308.51V21.55C308.51 22.71 307.59 23.6301 306.43 23.6301C305.27 23.6301 304.35 22.71 304.35 21.55V6.63013ZM311.81 14.0901C313.89 14.0901 315.109 12.8501 315.109 11.2301V11.1801C315.109 9.32005 313.81 8.32007 311.73 8.32007H308.51V14.1001H311.81V14.0901Z" fill="#231815" stroke="white" stroke-width="7.14" stroke-linecap="round" stroke-linejoin="round"/>
<path d="M320.84 19.3101V19.2601C320.84 16.1001 323.25 14.6401 326.68 14.6401C328.14 14.6401 329.19 14.8801 330.22 15.2301V14.9901C330.22 13.2901 329.17 12.3401 327.11 12.3401C325.98 12.3401 325.06 12.5001 324.27 12.7501C324.03 12.8301 323.86 12.8601 323.68 12.8601C322.73 12.8601 321.98 12.1301 321.98 11.1801C321.98 10.4501 322.44 9.83009 323.09 9.59009C324.39 9.10009 325.79 8.83008 327.71 8.83008C329.95 8.83008 331.57 9.42007 332.6 10.4501C333.68 11.5301 334.17 13.1301 334.17 15.0701V21.66C334.17 22.77 333.28 23.6301 332.17 23.6301C330.98 23.6301 330.2 22.7901 330.2 21.9301V21.9001C329.2 23.0101 327.82 23.7401 325.82 23.7401C323.09 23.7401 320.85 22.1701 320.85 19.3101H320.84ZM330.27 18.3601V17.6301C329.57 17.3101 328.65 17.0901 327.65 17.0901C325.89 17.0901 324.81 17.7901 324.81 19.0901V19.1401C324.81 20.2501 325.73 20.9001 327.05 20.9001C328.97 20.9001 330.27 19.8501 330.27 18.3601Z" fill="#231815" stroke="white" stroke-width="7.14" stroke-linecap="round" stroke-linejoin="round"/>
<path d="M337 16.3102V16.2603C337 12.1303 340.16 8.72021 344.59 8.72021C346.78 8.72021 348.32 9.31021 349.54 10.3402C349.81 10.5602 350.19 11.0402 350.19 11.7502C350.19 12.7802 349.35 13.5902 348.33 13.5902C347.79 13.5902 347.38 13.3702 347.14 13.1802C346.41 12.6102 345.65 12.2603 344.57 12.2603C342.52 12.2603 341.06 14.0702 341.06 16.2102V16.2603C341.06 18.4803 342.49 20.2603 344.74 20.2603C345.82 20.2603 346.66 19.8803 347.44 19.2603C347.66 19.1003 348.06 18.8802 348.55 18.8802C349.52 18.8802 350.28 19.6603 350.28 20.6403C350.28 21.1803 350.04 21.6102 349.69 21.9402C348.47 23.0502 346.93 23.8002 344.56 23.8002C340.21 23.8002 337.02 20.4502 337.02 16.3102H337Z" fill="#231815" stroke="white" stroke-width="7.14" stroke-linecap="round" stroke-linejoin="round"/>
<path d="M359.59 23.7899C355.24 23.7899 352.02 20.7399 352.02 16.2999V16.25C352.02 12.12 354.97 8.70996 359.18 8.70996C364.02 8.70996 366.15 12.6799 366.15 15.6799C366.15 16.8699 365.31 17.65 364.23 17.65H356.1C356.51 19.51 357.8 20.49 359.64 20.49C360.78 20.49 361.72 20.14 362.56 19.52C362.86 19.3 363.13 19.2 363.56 19.2C364.48 19.2 365.15 19.8999 365.15 20.8199C365.15 21.3599 364.909 21.7699 364.609 22.0399C363.339 23.1199 361.69 23.7999 359.58 23.7999L359.59 23.7899ZM362.24 15.09C362 13.25 360.92 12.01 359.19 12.01C357.46 12.01 356.38 13.23 356.06 15.09H362.25H362.24Z" fill="#231815" stroke="white" stroke-width="7.14" stroke-linecap="round" stroke-linejoin="round"/>
<path d="M383.86 21.5801C383.86 22.7101 382.94 23.6301 381.81 23.6301C380.68 23.6301 379.76 22.7101 379.76 21.5801V21.3901C378.76 22.7401 377.38 23.7401 375.25 23.7401C371.87 23.7401 368.66 21.0901 368.66 16.2501V16.2001C368.66 11.3601 371.82 8.71008 375.25 8.71008C377.44 8.71008 378.79 9.71012 379.76 10.8701V5.63013C379.76 4.49013 380.68 3.58008 381.81 3.58008C382.94 3.58008 383.86 4.50013 383.86 5.63013V21.5701V21.5801ZM372.76 16.2001V16.2501C372.76 18.6501 374.38 20.2501 376.3 20.2501C378.22 20.2501 379.81 18.6601 379.81 16.2501V16.2001C379.81 13.7901 378.22 12.2001 376.3 12.2001C374.38 12.2001 372.76 13.7701 372.76 16.2001Z" fill="#231815" stroke="white" stroke-width="7.14" stroke-linecap="round" stroke-linejoin="round"/>
</g>
<path d="M62.2596 16.17L56.1497 7.87012C55.8497 7.46012 55.6396 6.98013 55.6396 6.38013C55.6396 5.27013 56.5597 4.38013 57.7197 4.38013C58.6697 4.38013 59.2597 4.89015 59.7697 5.65015L64.3596 12.2701L69.0297 5.6001C69.5397 4.8401 70.1597 4.36011 71.0297 4.36011C72.2997 4.36011 73.0597 5.25014 73.0597 6.39014C73.0597 6.96014 72.7897 7.4701 72.5197 7.8501L66.4097 16.0901V21.55C66.4097 22.71 65.4897 23.6301 64.3297 23.6301C63.1697 23.6301 62.2496 22.71 62.2496 21.55V16.17H62.2596Z" fill="#76777A"/>
<path d="M73.0098 16.3102V16.2603C73.0098 12.1003 76.3598 8.72021 80.8698 8.72021C85.3798 8.72021 88.6798 12.0402 88.6798 16.2102V16.2603C88.6798 20.4203 85.3298 23.8002 80.8198 23.8002C76.3098 23.8002 73.0098 20.4802 73.0098 16.3102ZM84.6298 16.3102V16.2603C84.6298 14.1303 83.0898 12.2603 80.8198 12.2603C78.5498 12.2603 77.0598 14.0702 77.0598 16.2102V16.2603C77.0598 18.3903 78.5998 20.2603 80.8698 20.2603C83.1398 20.2603 84.6298 18.4502 84.6298 16.3102Z" fill="#76777A"/>
<path d="M104.82 21.5801C104.82 22.7101 103.9 23.6301 102.77 23.6301C101.64 23.6301 100.72 22.7101 100.72 21.5801V21.42C99.7696 22.64 98.5596 23.7401 96.4796 23.7401C93.3696 23.7401 91.5596 21.6901 91.5596 18.3601V10.8701C91.5596 9.74012 92.4795 8.82007 93.6095 8.82007C94.7395 8.82007 95.6595 9.74012 95.6595 10.8701V17.0601C95.6595 19.0101 96.5795 20.0101 98.1495 20.0101C99.7195 20.0101 100.72 19.0101 100.72 17.0601V10.8701C100.72 9.74012 101.64 8.82007 102.77 8.82007C103.9 8.82007 104.82 9.74012 104.82 10.8701V21.5701V21.5801Z" fill="#76777A"/>
<path d="M115.75 19.3101V19.2601C115.75 16.1001 118.16 14.6401 121.59 14.6401C123.05 14.6401 124.1 14.8801 125.13 15.2301V14.9901C125.13 13.2901 124.08 12.3401 122.02 12.3401C120.89 12.3401 119.97 12.5001 119.18 12.7501C118.94 12.8301 118.77 12.8601 118.59 12.8601C117.64 12.8601 116.89 12.1301 116.89 11.1801C116.89 10.4501 117.35 9.83009 118 9.59009C119.3 9.10009 120.7 8.83008 122.62 8.83008C124.86 8.83008 126.48 9.42007 127.51 10.4501C128.59 11.5301 129.08 13.1301 129.08 15.0701V21.66C129.08 22.77 128.19 23.6301 127.08 23.6301C125.89 23.6301 125.11 22.7901 125.11 21.9301V21.9001C124.11 23.0101 122.73 23.7401 120.73 23.7401C118 23.7401 115.76 22.1701 115.76 19.3101H115.75ZM125.18 18.3601V17.6301C124.48 17.3101 123.56 17.0901 122.56 17.0901C120.8 17.0901 119.72 17.7901 119.72 19.0901V19.1401C119.72 20.2501 120.64 20.9001 121.96 20.9001C123.88 20.9001 125.18 19.8501 125.18 18.3601Z" fill="#76777A"/>
<path d="M132.609 10.8801C132.609 9.75013 133.529 8.83008 134.659 8.83008C135.789 8.83008 136.709 9.75013 136.709 10.8801V11.53C137.299 10.12 138.279 8.83008 139.489 8.83008C140.699 8.83008 141.489 9.67008 141.489 10.8301C141.489 11.9101 140.789 12.5601 139.949 12.7501C137.869 13.2401 136.709 14.8301 136.709 17.7501V21.5901C136.709 22.7201 135.789 23.6401 134.659 23.6401C133.529 23.6401 132.609 22.7201 132.609 21.5901V10.8901V10.8801Z" fill="#76777A"/>
<path d="M150.37 23.7899C146.02 23.7899 142.8 20.7399 142.8 16.2999V16.25C142.8 12.12 145.75 8.70996 149.96 8.70996C154.8 8.70996 156.93 12.6799 156.93 15.6799C156.93 16.8699 156.09 17.65 155.01 17.65H146.88C147.29 19.51 148.58 20.49 150.42 20.49C151.56 20.49 152.5 20.14 153.34 19.52C153.64 19.3 153.91 19.2 154.34 19.2C155.26 19.2 155.93 19.8999 155.93 20.8199C155.93 21.3599 155.69 21.7699 155.39 22.0399C154.12 23.1199 152.47 23.7999 150.36 23.7999L150.37 23.7899ZM153.02 15.09C152.78 13.25 151.7 12.01 149.97 12.01C148.24 12.01 147.16 13.23 146.84 15.09H153.03H153.02Z" fill="#76777A"/>
<path d="M168.86 19.3601V12.5001H168.72C167.75 12.5001 166.96 11.7201 166.96 10.7401C166.96 9.76011 167.74 8.9801 168.72 8.9801H168.86V7.17004C168.86 6.04004 169.78 5.12012 170.91 5.12012C172.04 5.12012 172.96 6.04004 172.96 7.17004V8.9801H174.77C175.74 8.9801 176.53 9.76011 176.53 10.7401C176.53 11.7201 175.75 12.5001 174.77 12.5001H172.96V18.6901C172.96 19.6401 173.37 20.1001 174.28 20.1001C174.42 20.1001 174.69 20.0701 174.77 20.0701C175.69 20.0701 176.47 20.8301 176.47 21.7701C176.47 22.5001 175.98 23.0901 175.42 23.3101C174.66 23.6101 173.96 23.7201 173.07 23.7201C170.56 23.7201 168.85 22.7201 168.85 19.3701L168.86 19.3601Z" fill="#76777A"/>
<path d="M179.399 5.63013C179.399 4.49013 180.319 3.58008 181.449 3.58008C182.579 3.58008 183.499 4.50013 183.499 5.63013V11.03C184.449 9.81003 185.659 8.71008 187.739 8.71008C190.849 8.71008 192.659 10.7601 192.659 14.0901V21.5801C192.659 22.7101 191.739 23.6301 190.609 23.6301C189.479 23.6301 188.559 22.7101 188.559 21.5801V15.3901C188.559 13.4401 187.639 12.4401 186.069 12.4401C184.499 12.4401 183.499 13.4401 183.499 15.3901V21.5801C183.499 22.7101 182.579 23.6301 181.449 23.6301C180.319 23.6301 179.399 22.7101 179.399 21.5801V5.64014V5.63013Z" fill="#76777A"/>
<path d="M203.099 23.7899C198.749 23.7899 195.529 20.7399 195.529 16.2999V16.25C195.529 12.12 198.479 8.70996 202.689 8.70996C207.529 8.70996 209.659 12.6799 209.659 15.6799C209.659 16.8699 208.819 17.65 207.739 17.65H199.609C200.019 19.51 201.309 20.49 203.149 20.49C204.289 20.49 205.229 20.14 206.069 19.52C206.369 19.3 206.639 19.2 207.069 19.2C207.989 19.2 208.659 19.8999 208.659 20.8199C208.659 21.3599 208.419 21.7699 208.119 22.0399C206.849 23.1199 205.199 23.7999 203.089 23.7999L203.099 23.7899ZM205.749 15.09C205.509 13.25 204.429 12.01 202.699 12.01C200.969 12.01 199.889 13.23 199.569 15.09H205.759H205.749Z" fill="#76777A"/>
<path d="M220.51 14.0599V14.01C220.51 8.63001 224.56 4.22998 230.37 4.22998C233.21 4.22998 235.13 4.99002 236.69 6.15002C237.12 6.47002 237.5 7.06993 237.5 7.79993C237.5 8.93993 236.58 9.82996 235.45 9.82996C234.88 9.82996 234.5 9.60992 234.21 9.41992C233.05 8.54992 231.83 8.06995 230.35 8.06995C227.16 8.06995 224.86 10.72 224.86 13.96V14.01C224.86 17.25 227.1 19.96 230.35 19.96C232.11 19.96 233.27 19.42 234.46 18.47C234.78 18.2 235.22 18.01 235.7 18.01C236.75 18.01 237.65 18.8799 237.65 19.9299C237.65 20.5799 237.33 21.0899 236.95 21.4199C235.25 22.9099 233.25 23.7999 230.22 23.7999C224.65 23.7999 220.52 19.4999 220.52 14.0699L220.51 14.0599Z" fill="#76777A"/>
<path d="M241.05 5.63013C241.05 4.49013 241.97 3.58008 243.1 3.58008C244.23 3.58008 245.15 4.50013 245.15 5.63013V21.5701C245.15 22.7001 244.23 23.6201 243.1 23.6201C241.97 23.6201 241.05 22.7001 241.05 21.5701V5.63013Z" fill="#76777A"/>
<path d="M255.889 23.7899C251.539 23.7899 248.319 20.7399 248.319 16.2999V16.25C248.319 12.12 251.269 8.70996 255.479 8.70996C260.319 8.70996 262.449 12.6799 262.449 15.6799C262.449 16.8699 261.609 17.65 260.529 17.65H252.399C252.809 19.51 254.099 20.49 255.939 20.49C257.079 20.49 258.019 20.14 258.859 19.52C259.159 19.3 259.429 19.2 259.859 19.2C260.779 19.2 261.449 19.8999 261.449 20.8199C261.449 21.3599 261.209 21.7699 260.909 22.0399C259.639 23.1199 257.989 23.7999 255.879 23.7999L255.889 23.7899ZM258.529 15.09C258.289 13.25 257.209 12.01 255.479 12.01C253.749 12.01 252.669 13.23 252.349 15.09H258.539H258.529Z" fill="#76777A"/>
<path d="M264.72 19.3101V19.2601C264.72 16.1001 267.13 14.6401 270.56 14.6401C272.02 14.6401 273.07 14.8801 274.1 15.2301V14.9901C274.1 13.2901 273.05 12.3401 270.99 12.3401C269.86 12.3401 268.94 12.5001 268.15 12.7501C267.91 12.8301 267.74 12.8601 267.56 12.8601C266.61 12.8601 265.86 12.1301 265.86 11.1801C265.86 10.4501 266.32 9.83009 266.97 9.59009C268.27 9.10009 269.67 8.83008 271.59 8.83008C273.83 8.83008 275.45 9.42007 276.48 10.4501C277.56 11.5301 278.05 13.1301 278.05 15.0701V21.66C278.05 22.77 277.16 23.6301 276.05 23.6301C274.86 23.6301 274.08 22.7901 274.08 21.9301V21.9001C273.08 23.0101 271.7 23.7401 269.7 23.7401C266.97 23.7401 264.73 22.1701 264.73 19.3101H264.72ZM274.16 18.3601V17.6301C273.46 17.3101 272.54 17.0901 271.54 17.0901C269.78 17.0901 268.7 17.7901 268.7 19.0901V19.1401C268.7 20.2501 269.62 20.9001 270.94 20.9001C272.86 20.9001 274.16 19.8501 274.16 18.3601Z" fill="#76777A"/>
<path d="M281.59 10.8801C281.59 9.75013 282.51 8.83008 283.64 8.83008C284.77 8.83008 285.69 9.75013 285.69 10.8801V11.53C286.28 10.12 287.26 8.83008 288.47 8.83008C289.68 8.83008 290.47 9.67008 290.47 10.8301C290.47 11.9101 289.77 12.5601 288.93 12.7501C286.85 13.2401 285.69 14.8301 285.69 17.7501V21.5901C285.69 22.7201 284.77 23.6401 283.64 23.6401C282.51 23.6401 281.59 22.7201 281.59 21.5901V10.8901V10.8801Z" fill="#76777A"/>
<path d="M292.239 15.0901C292.239 14.0101 293.129 13.1201 294.209 13.1201H298.909C299.989 13.1201 300.879 14.0101 300.879 15.0901C300.879 16.1701 299.989 17.0601 298.909 17.0601H294.209C293.129 17.0601 292.239 16.1701 292.239 15.0901Z" fill="#76777A"/>
<path d="M304.35 6.63013C304.35 5.47013 305.27 4.55005 306.43 4.55005H312.08C316.59 4.55005 319.32 7.22009 319.32 11.0901V11.1401C319.32 15.5201 315.92 17.79 311.67 17.79H308.51V21.55C308.51 22.71 307.59 23.6301 306.43 23.6301C305.27 23.6301 304.35 22.71 304.35 21.55V6.63013ZM311.81 14.0901C313.89 14.0901 315.109 12.8501 315.109 11.2301V11.1801C315.109 9.32005 313.81 8.32007 311.73 8.32007H308.51V14.1001H311.81V14.0901Z" fill="#76777A"/>
<path d="M320.84 19.3101V19.2601C320.84 16.1001 323.25 14.6401 326.68 14.6401C328.14 14.6401 329.19 14.8801 330.22 15.2301V14.9901C330.22 13.2901 329.17 12.3401 327.11 12.3401C325.98 12.3401 325.06 12.5001 324.27 12.7501C324.03 12.8301 323.86 12.8601 323.68 12.8601C322.73 12.8601 321.98 12.1301 321.98 11.1801C321.98 10.4501 322.44 9.83009 323.09 9.59009C324.39 9.10009 325.79 8.83008 327.71 8.83008C329.95 8.83008 331.57 9.42007 332.6 10.4501C333.68 11.5301 334.17 13.1301 334.17 15.0701V21.66C334.17 22.77 333.28 23.6301 332.17 23.6301C330.98 23.6301 330.2 22.7901 330.2 21.9301V21.9001C329.2 23.0101 327.82 23.7401 325.82 23.7401C323.09 23.7401 320.85 22.1701 320.85 19.3101H320.84ZM330.27 18.3601V17.6301C329.57 17.3101 328.65 17.0901 327.65 17.0901C325.89 17.0901 324.81 17.7901 324.81 19.0901V19.1401C324.81 20.2501 325.73 20.9001 327.05 20.9001C328.97 20.9001 330.27 19.8501 330.27 18.3601Z" fill="#76777A"/>
<path d="M337 16.3102V16.2603C337 12.1303 340.16 8.72021 344.59 8.72021C346.78 8.72021 348.32 9.31021 349.54 10.3402C349.81 10.5602 350.19 11.0402 350.19 11.7502C350.19 12.7802 349.35 13.5902 348.33 13.5902C347.79 13.5902 347.38 13.3702 347.14 13.1802C346.41 12.6102 345.65 12.2603 344.57 12.2603C342.52 12.2603 341.06 14.0702 341.06 16.2102V16.2603C341.06 18.4803 342.49 20.2603 344.74 20.2603C345.82 20.2603 346.66 19.8803 347.44 19.2603C347.66 19.1003 348.06 18.8802 348.55 18.8802C349.52 18.8802 350.28 19.6603 350.28 20.6403C350.28 21.1803 350.04 21.6102 349.69 21.9402C348.47 23.0502 346.93 23.8002 344.56 23.8002C340.21 23.8002 337.02 20.4502 337.02 16.3102H337Z" fill="#76777A"/>
<path d="M359.59 23.7899C355.24 23.7899 352.02 20.7399 352.02 16.2999V16.25C352.02 12.12 354.97 8.70996 359.18 8.70996C364.02 8.70996 366.15 12.6799 366.15 15.6799C366.15 16.8699 365.31 17.65 364.23 17.65H356.1C356.51 19.51 357.8 20.49 359.64 20.49C360.78 20.49 361.72 20.14 362.56 19.52C362.86 19.3 363.13 19.2 363.56 19.2C364.48 19.2 365.15 19.8999 365.15 20.8199C365.15 21.3599 364.909 21.7699 364.609 22.0399C363.339 23.1199 361.69 23.7999 359.58 23.7999L359.59 23.7899ZM362.24 15.09C362 13.25 360.92 12.01 359.19 12.01C357.46 12.01 356.38 13.23 356.06 15.09H362.25H362.24Z" fill="#76777A"/>
<path d="M383.86 21.5801C383.86 22.7101 382.94 23.6301 381.81 23.6301C380.68 23.6301 379.76 22.7101 379.76 21.5801V21.3901C378.76 22.7401 377.38 23.7401 375.25 23.7401C371.87 23.7401 368.66 21.0901 368.66 16.2501V16.2001C368.66 11.3601 371.82 8.71008 375.25 8.71008C377.44 8.71008 378.79 9.71012 379.76 10.8701V5.63013C379.76 4.49013 380.68 3.58008 381.81 3.58008C382.94 3.58008 383.86 4.50013 383.86 5.63013V21.5701V21.5801ZM372.76 16.2001V16.2501C372.76 18.6501 374.38 20.2501 376.3 20.2501C378.22 20.2501 379.81 18.6601 379.81 16.2501V16.2001C379.81 13.7901 378.22 12.2001 376.3 12.2001C374.38 12.2001 372.76 13.7701 372.76 16.2001Z" fill="#76777A"/>
<path d="M10.01 57.8199C8.95001 58.9999 7.54005 59.6 5.80005 59.6C4.06005 59.6 2.65009 59.0099 1.59009 57.8199C0.530088 56.6399 0 55.02 0 52.97C0 50.92 0.530088 49.34 1.59009 48.2C2.65009 47.05 4.05006 46.48 5.81006 46.48C7.57006 46.48 8.97003 47.05 10.03 48.2C11.09 49.35 11.62 50.94 11.62 52.97C11.62 55 11.09 56.6299 10.03 57.8199H10.01ZM3.83008 55.9099C4.31008 56.6299 4.96005 56.99 5.80005 56.99C6.64005 56.99 7.29003 56.63 7.78003 55.9C8.26003 55.18 8.5 54.2 8.5 52.97C8.5 51.74 8.26003 50.8 7.78003 50.11C7.30003 49.42 6.64005 49.0699 5.80005 49.0699C4.96005 49.0699 4.31008 49.42 3.83008 50.11C3.35008 50.8 3.12 51.76 3.12 52.97C3.12 54.18 3.36008 55.1899 3.83008 55.9099Z" fill="#1CACC6"/>
<path d="M14.6802 59.36C14.4002 59.36 14.1702 59.2599 13.9802 59.0699C13.7902 58.8799 13.7002 58.65 13.7002 58.38V50.6599C13.7002 50.3899 13.7902 50.16 13.9802 49.97C14.1702 49.78 14.4002 49.6799 14.6802 49.6799H15.1802C15.4602 49.6799 15.7002 49.77 15.9102 49.96C16.1202 50.15 16.2402 50.3799 16.2802 50.6599L16.3601 51.34C16.3601 51.34 16.3701 51.37 16.4001 51.37C16.4301 51.37 16.4502 51.36 16.4602 51.34C16.8002 50.72 17.2202 50.2499 17.7102 49.9299C18.2002 49.6099 18.6902 49.45 19.1902 49.45H19.4202C19.6902 49.46 19.9002 49.59 20.0502 49.83C20.1502 50 20.2002 50.18 20.2002 50.38C20.2002 50.46 20.2002 50.54 20.1802 50.61L20.0502 51.2899C19.9902 51.5399 19.8601 51.74 19.6401 51.89C19.4301 52.03 19.1902 52.11 18.9302 52.11H18.8102C18.4202 52.11 18.0502 52.24 17.6802 52.5C17.3102 52.76 17.0101 53.17 16.7701 53.72C16.7401 53.8 16.7202 53.88 16.7202 53.97V58.39C16.7202 58.66 16.6202 58.89 16.4302 59.08C16.2402 59.27 16.0101 59.37 15.7401 59.37H14.6902L14.6802 59.36Z" fill="#1CACC6"/>
<path d="M24.89 63.48C24.12 63.48 23.4301 63.4 22.8401 63.24C22.2501 63.08 21.76 62.8099 21.39 62.4299C21.01 62.0499 20.8301 61.5899 20.8301 61.0399C20.8301 60.6499 20.94 60.3 21.17 59.98C21.4 59.66 21.73 59.3899 22.17 59.1699C22.19 59.1499 22.2001 59.12 22.2001 59.1C22.2001 59.08 22.19 59.0499 22.17 59.0399C21.61 58.6499 21.3201 58.11 21.3201 57.4C21.3201 57.07 21.4101 56.7399 21.6001 56.4299C21.7901 56.1099 22.0401 55.85 22.3501 55.62C22.3701 55.6 22.38 55.5799 22.38 55.5499C22.38 55.5199 22.3701 55.51 22.3501 55.5C21.9801 55.23 21.6801 54.89 21.4401 54.45C21.2001 54.02 21.0701 53.54 21.0701 53.02C21.0701 52.27 21.27 51.6199 21.66 51.0699C22.05 50.5199 22.55 50.12 23.15 49.87C23.75 49.62 24.41 49.5 25.13 49.5C25.64 49.5 26.11 49.57 26.54 49.7C26.63 49.72 26.71 49.73 26.79 49.73H29.2301C29.5101 49.73 29.7401 49.83 29.9301 50.02C30.1201 50.21 30.2101 50.44 30.2101 50.71V50.9399C30.2101 51.2199 30.1201 51.45 29.9301 51.64C29.7401 51.83 29.5101 51.9199 29.2301 51.9199H28.8501C28.8501 51.9199 28.79 51.93 28.78 51.96C28.76 51.99 28.76 52.0099 28.78 52.0299C28.92 52.3399 29 52.69 29 53.09C29 54.16 28.6401 54.97 27.9301 55.52C27.2201 56.07 26.29 56.34 25.15 56.34C24.83 56.34 24.49 56.2899 24.14 56.1899C24.05 56.1699 23.98 56.19 23.92 56.26C23.78 56.42 23.7001 56.61 23.7001 56.84C23.7001 57.07 23.81 57.24 24.03 57.34C24.25 57.44 24.62 57.49 25.13 57.49H26.66C29.14 57.49 30.38 58.32 30.38 59.98C30.38 61.01 29.88 61.85 28.89 62.5C27.9 63.15 26.57 63.47 24.91 63.47L24.89 63.48ZM25.3501 61.59C25.9701 61.59 26.48 61.4899 26.87 61.2799C27.26 61.0799 27.4601 60.82 27.4601 60.51C27.4601 60.24 27.35 60.06 27.12 59.96C26.89 59.86 26.54 59.8099 26.05 59.8099H25.14C24.58 59.8099 24.15 59.78 23.88 59.73H23.8301C23.7601 59.73 23.7101 59.7499 23.6801 59.7799C23.4301 60.0199 23.3 60.2799 23.3 60.5599C23.3 60.8999 23.49 61.16 23.86 61.33C24.23 61.5 24.73 61.59 25.36 61.59H25.3501ZM25.12 54.5299C25.49 54.5299 25.78 54.4 26.01 54.14C26.24 53.88 26.3501 53.51 26.3501 53.02C26.3501 52.53 26.24 52.1599 26.01 51.9099C25.78 51.6599 25.49 51.5299 25.12 51.5299C24.75 51.5299 24.4601 51.6599 24.2301 51.9199C24.0001 52.1799 23.89 52.55 23.89 53.02C23.89 53.49 24.0001 53.88 24.2301 54.14C24.4601 54.4 24.75 54.5299 25.12 54.5299Z" fill="#1CACC6"/>
<path d="M33.9805 59.6C33.1205 59.6 32.4204 59.32 31.9004 58.75C31.3704 58.19 31.1104 57.4899 31.1104 56.6599C31.1104 55.6399 31.5304 54.8499 32.3604 54.2899C33.2004 53.7299 34.5305 53.34 36.3505 53.13C36.4405 53.12 36.4805 53.08 36.4705 53C36.3605 52.25 35.8804 51.87 35.0304 51.87C34.5304 51.87 33.9804 52.0099 33.3704 52.2899C33.2304 52.3599 33.0804 52.39 32.9204 52.39C32.8204 52.39 32.7205 52.37 32.6005 52.34C32.3505 52.26 32.1504 52.1 32.0204 51.86L31.8904 51.61C31.8104 51.46 31.7704 51.3 31.7704 51.15C31.7704 51.05 31.7804 50.95 31.8004 50.85C31.8804 50.58 32.0404 50.3999 32.2804 50.2899C33.4004 49.7499 34.5004 49.48 35.5804 49.48C38.1904 49.48 39.5004 50.95 39.5004 53.9V58.4199C39.5004 58.6899 39.4004 58.92 39.2104 59.11C39.0204 59.3 38.7904 59.4 38.5204 59.4H37.9204C37.6504 59.4 37.4205 59.3199 37.2205 59.1599C37.0205 58.9999 36.8905 58.7899 36.8405 58.5399L36.8204 58.47C36.8204 58.47 36.7904 58.4399 36.7704 58.4399C36.7504 58.4399 36.7305 58.44 36.7205 58.46C35.8205 59.25 34.9004 59.64 33.9604 59.64L33.9805 59.6ZM35.0304 57.26C35.5104 57.26 35.9704 57.03 36.4104 56.58C36.4704 56.53 36.4904 56.45 36.4904 56.36V55.0699C36.4904 54.9999 36.4604 54.97 36.3904 54.97H36.3604C34.7804 55.2 33.9904 55.6899 33.9904 56.4299C33.9904 56.7099 34.0804 56.9099 34.2604 57.0499C34.4404 57.1899 34.7004 57.26 35.0304 57.26Z" fill="#1CACC6"/>
<path d="M42.8198 59.36C42.5398 59.36 42.3098 59.2599 42.1198 59.0699C41.9298 58.8799 41.8398 58.65 41.8398 58.38V50.6599C41.8398 50.3899 41.9298 50.16 42.1198 49.97C42.3098 49.78 42.5398 49.6799 42.8198 49.6799H43.3198C43.6098 49.6799 43.8598 49.77 44.0798 49.95C44.2998 50.13 44.4298 50.37 44.4698 50.65L44.4998 50.85C44.4998 50.85 44.5098 50.88 44.5398 50.88C44.5698 50.88 44.5899 50.88 44.5999 50.86C45.5699 49.91 46.5998 49.4299 47.6698 49.4299C48.6898 49.4299 49.4398 49.77 49.9398 50.46C50.4298 51.15 50.6798 52.12 50.6798 53.37V58.37C50.6798 58.64 50.5898 58.8699 50.3998 59.0599C50.2098 59.2499 49.9798 59.35 49.6998 59.35H48.6398C48.3598 59.35 48.1298 59.2499 47.9398 59.0599C47.7498 58.8699 47.6598 58.64 47.6598 58.37V53.74C47.6598 53.1 47.5698 52.65 47.3898 52.4C47.2098 52.15 46.9298 52.0299 46.5298 52.0299C46.2298 52.0299 45.9697 52.09 45.7397 52.21C45.5097 52.33 45.2398 52.5299 44.9298 52.8099C44.8698 52.8699 44.8499 52.93 44.8499 53.01V58.37C44.8499 58.64 44.7498 58.8699 44.5598 59.0599C44.3698 59.2499 44.1398 59.35 43.8698 59.35H42.8198V59.36Z" fill="#1CACC6"/>
<path d="M54.5203 48.34C54.0103 48.34 53.5903 48.1999 53.2703 47.9099C52.9403 47.6199 52.7803 47.2499 52.7803 46.7999C52.7803 46.3499 52.9403 45.9699 53.2703 45.6799C53.6003 45.3899 54.0103 45.24 54.5203 45.24C55.0303 45.24 55.4302 45.3899 55.7502 45.6799C56.0702 45.9699 56.2303 46.3499 56.2303 46.7999C56.2303 47.2499 56.0702 47.6299 55.7502 47.9099C55.4302 48.1999 55.0203 48.34 54.5203 48.34ZM53.9902 59.36C53.7102 59.36 53.4803 59.2599 53.2903 59.0699C53.1003 58.8799 53.0103 58.65 53.0103 58.38V50.6599C53.0103 50.3899 53.1003 50.16 53.2903 49.97C53.4803 49.78 53.7102 49.6799 53.9902 49.6799H55.0403C55.3103 49.6799 55.5403 49.78 55.7303 49.97C55.9203 50.16 56.0203 50.3899 56.0203 50.6599V58.38C56.0203 58.65 55.9203 58.8799 55.7303 59.0699C55.5403 59.2599 55.3103 59.36 55.0403 59.36H53.9902Z" fill="#1CACC6"/>
<path d="M58.7904 59.36C58.5704 59.36 58.3805 59.28 58.2205 59.13C58.0605 58.98 57.9805 58.7799 57.9805 58.5499C57.9805 58.0199 58.1304 57.53 58.4404 57.09L61.8304 52.1599C61.8304 52.1599 61.8504 52.12 61.8304 52.09C61.8104 52.07 61.7904 52.0599 61.7704 52.0599H59.4004C59.1204 52.0599 58.8904 51.96 58.7004 51.77C58.5104 51.58 58.4204 51.35 58.4204 51.08V50.6599C58.4204 50.3899 58.5104 50.16 58.7004 49.97C58.8904 49.78 59.1204 49.6799 59.4004 49.6799H64.8604C65.0804 49.6799 65.2704 49.7599 65.4304 49.9199C65.5904 50.0799 65.6704 50.27 65.6704 50.49C65.6704 51.03 65.5104 51.53 65.2104 51.97L61.8204 56.88C61.8204 56.88 61.8004 56.93 61.8204 56.96C61.8404 56.99 61.8604 57 61.8804 57H64.8204C65.1004 57 65.3304 57.0899 65.5204 57.2799C65.7104 57.4699 65.8004 57.7 65.8004 57.98V58.38C65.8004 58.65 65.7104 58.8799 65.5204 59.0699C65.3304 59.2599 65.1004 59.36 64.8204 59.36H58.7904Z" fill="#1CACC6"/>
<path d="M71.6896 59.6C70.2596 59.6 69.0895 59.15 68.1595 58.24C67.2395 57.33 66.7695 56.0999 66.7695 54.5399C66.7695 53.7799 66.8995 53.0699 67.1595 52.4199C67.4195 51.7699 67.7596 51.2399 68.1896 50.8099C68.6196 50.3799 69.0995 50.0499 69.6495 49.8099C70.1995 49.5699 70.7596 49.45 71.3496 49.45C72.6996 49.45 73.7296 49.88 74.4396 50.75C75.1496 51.61 75.4995 52.74 75.4995 54.14V54.46C75.4895 54.74 75.3695 54.97 75.1495 55.15C74.9295 55.33 74.6695 55.4199 74.3895 55.4199H69.8196C69.8196 55.4199 69.7595 55.43 69.7395 55.46C69.7195 55.49 69.7096 55.5199 69.7196 55.5499C69.9996 56.7099 70.7896 57.2899 72.0896 57.2899C72.4896 57.2899 72.8795 57.22 73.2495 57.09C73.3795 57.05 73.5196 57.02 73.6696 57.02C73.7896 57.02 73.9096 57.0399 74.0396 57.0699C74.2896 57.1499 74.4895 57.2999 74.6195 57.5299L74.6696 57.63C74.7696 57.8 74.8196 57.96 74.8196 58.13C74.8196 58.22 74.7995 58.31 74.7695 58.4C74.6995 58.68 74.5496 58.87 74.3096 58.98C73.4496 59.39 72.5696 59.59 71.6896 59.59V59.6ZM69.6595 53.37C69.6595 53.43 69.6995 53.45 69.7795 53.45H72.8196C72.9096 53.45 72.9496 53.41 72.9496 53.33V53.3099C72.9296 52.8299 72.7896 52.4599 72.5396 52.1699C72.2896 51.8899 71.9196 51.75 71.4196 51.75C70.9896 51.75 70.6196 51.88 70.3096 52.15C69.8796 52.5 69.6595 52.91 69.6595 53.36V53.37Z" fill="#1CACC6"/>
<path d="M80.9202 59.6001C79.7002 59.6001 78.7401 59.1501 78.0201 58.2501C77.3101 57.3501 76.9502 56.11 76.9502 54.54C76.9502 53.78 77.0602 53.07 77.2902 52.42C77.5202 51.77 77.8202 51.2301 78.1902 50.8101C78.5702 50.3901 78.9902 50.0601 79.4702 49.8201C79.9502 49.5801 80.4402 49.4601 80.9502 49.4601C81.4302 49.4601 81.8402 49.5401 82.1802 49.6901C82.5202 49.8501 82.8602 50.0701 83.1902 50.3701C83.2002 50.3901 83.2201 50.4001 83.2401 50.3901C83.2601 50.3801 83.2701 50.3601 83.2601 50.3401L83.1602 49.0101V46.7701C83.1602 46.4901 83.2502 46.2601 83.4402 46.0701C83.6302 45.8801 83.8601 45.79 84.1401 45.79H85.2202C85.5002 45.79 85.7302 45.8801 85.9202 46.0701C86.1102 46.2601 86.2002 46.4901 86.2002 46.7701V58.3901C86.2002 58.6601 86.1102 58.8901 85.9202 59.0801C85.7302 59.2701 85.5002 59.3701 85.2202 59.3701H84.5902C84.3402 59.3701 84.1102 59.2901 83.9202 59.1401C83.7302 58.9901 83.6002 58.79 83.5502 58.54L83.5302 58.4701C83.5302 58.4701 83.5002 58.4401 83.4802 58.4401C83.4602 58.4401 83.4402 58.4401 83.4302 58.4601C83.0802 58.8101 82.6802 59.09 82.2302 59.3C81.7902 59.5 81.3502 59.6101 80.9202 59.6101V59.6001ZM81.7102 57.1201C82.2902 57.1201 82.7402 56.88 83.0902 56.41C83.1302 56.34 83.1602 56.2701 83.1602 56.1801V52.6301C83.1602 52.5401 83.1302 52.47 83.0602 52.41C82.6602 52.08 82.2002 51.91 81.6702 51.91C81.2202 51.91 80.8301 52.1301 80.5201 52.5701C80.2101 53.0101 80.0602 53.6501 80.0602 54.4901C80.0602 56.2501 80.6102 57.1301 81.7202 57.1301L81.7102 57.1201Z" fill="#1CACC6"/>
<path d="M90.53 59.41C90.54 59.32 90.5 59.28 90.41 59.28H90.38C89.89 59.28 89.47 59.1301 89.12 58.8201C88.77 58.5201 88.5901 58.1001 88.5901 57.5801C88.5901 57.0601 88.77 56.6801 89.13 56.3601C89.49 56.0401 89.9401 55.8901 90.4701 55.8901C91.1301 55.8901 91.64 56.1401 92 56.6301C92.35 57.1201 92.53 57.8201 92.53 58.7101C92.53 59.6701 92.2901 60.5201 91.8101 61.2501C91.3301 61.9801 90.6301 62.5501 89.7301 62.9601C89.6201 63.0001 89.51 63.03 89.41 63.03C89.29 63.03 89.1701 63.0001 89.0601 62.9501C88.8501 62.8501 88.7 62.6801 88.61 62.4501C88.57 62.3501 88.54 62.2501 88.54 62.1501C88.54 62.0401 88.57 61.92 88.62 61.8C88.72 61.58 88.8701 61.41 89.0801 61.3C89.9901 60.8 90.47 60.17 90.52 59.41H90.53Z" fill="#1CACC6"/>
<path d="M99.4399 62.9199C99.1599 62.9199 98.9299 62.82 98.7399 62.63C98.5499 62.44 98.46 62.2099 98.46 61.9399V50.7C98.46 50.43 98.5499 50.2 98.7399 50.01C98.9299 49.82 99.1599 49.72 99.4399 49.72H100.07C100.31 49.72 100.53 49.8 100.73 49.96C100.92 50.12 101.05 50.3199 101.1 50.5499L101.12 50.63C101.12 50.63 101.13 50.6599 101.16 50.6599C101.19 50.6599 101.21 50.65 101.22 50.63C102.09 49.87 102.99 49.48 103.91 49.48C105.07 49.48 105.99 49.9299 106.67 50.8199C107.35 51.7099 107.69 52.9 107.69 54.4C107.69 55.21 107.58 55.95 107.35 56.62C107.12 57.29 106.82 57.8399 106.44 58.2799C106.06 58.7199 105.62 59.0499 105.14 59.2799C104.65 59.5099 104.15 59.63 103.63 59.63C102.84 59.63 102.12 59.33 101.47 58.72C101.46 58.71 101.44 58.71 101.42 58.72C101.4 58.73 101.39 58.74 101.39 58.75L101.47 60.14V61.9299C101.47 62.1999 101.37 62.43 101.18 62.62C100.99 62.81 100.76 62.9099 100.49 62.9099H99.4399V62.9199ZM102.91 57.1599C103.41 57.1599 103.81 56.94 104.11 56.5C104.41 56.06 104.57 55.38 104.57 54.46C104.57 53.61 104.44 52.98 104.19 52.58C103.94 52.18 103.54 51.97 103.01 51.97C102.51 51.97 102.02 52.2099 101.55 52.6799C101.49 52.7499 101.47 52.82 101.47 52.9V56.49C101.47 56.57 101.5 56.6299 101.57 56.6899C101.97 57.0099 102.42 57.1699 102.91 57.1699V57.1599Z" fill="#1CACC6"/>
<path d="M110.62 59.36C110.34 59.36 110.11 59.2599 109.92 59.0699C109.73 58.8799 109.64 58.65 109.64 58.38V50.6599C109.64 50.3899 109.73 50.16 109.92 49.97C110.11 49.78 110.34 49.6799 110.62 49.6799H111.12C111.4 49.6799 111.64 49.77 111.85 49.96C112.06 50.15 112.18 50.3799 112.22 50.6599L112.3 51.34C112.3 51.34 112.31 51.37 112.34 51.37C112.37 51.37 112.39 51.36 112.4 51.34C112.74 50.72 113.16 50.2499 113.65 49.9299C114.14 49.6099 114.63 49.45 115.13 49.45H115.36C115.63 49.46 115.84 49.59 115.99 49.83C116.09 50 116.14 50.18 116.14 50.38C116.14 50.46 116.14 50.54 116.12 50.61L115.99 51.2899C115.93 51.5399 115.8 51.74 115.57 51.89C115.36 52.03 115.12 52.11 114.86 52.11H114.74C114.35 52.11 113.98 52.24 113.61 52.5C113.24 52.76 112.94 53.17 112.7 53.72C112.67 53.8 112.65 53.88 112.65 53.97V58.39C112.65 58.66 112.55 58.89 112.36 59.08C112.17 59.27 111.94 59.37 111.67 59.37H110.62V59.36Z" fill="#1CACC6"/>
<path d="M121.72 59.6C120.29 59.6 119.12 59.15 118.19 58.24C117.27 57.33 116.8 56.0999 116.8 54.5399C116.8 53.7799 116.93 53.0699 117.19 52.4199C117.45 51.7699 117.79 51.2399 118.22 50.8099C118.65 50.3799 119.13 50.0499 119.68 49.8099C120.23 49.5699 120.79 49.45 121.38 49.45C122.73 49.45 123.76 49.88 124.47 50.75C125.18 51.61 125.53 52.74 125.53 54.14V54.46C125.52 54.74 125.4 54.97 125.18 55.15C124.96 55.33 124.7 55.4199 124.42 55.4199H119.85C119.85 55.4199 119.79 55.43 119.77 55.46C119.75 55.49 119.74 55.5199 119.75 55.5499C120.03 56.7099 120.82 57.2899 122.12 57.2899C122.52 57.2899 122.91 57.22 123.28 57.09C123.41 57.05 123.55 57.02 123.69 57.02C123.81 57.02 123.93 57.0399 124.06 57.0699C124.31 57.1499 124.51 57.2999 124.64 57.5299L124.69 57.63C124.79 57.8 124.84 57.96 124.84 58.13C124.84 58.22 124.82 58.31 124.79 58.4C124.72 58.68 124.57 58.87 124.33 58.98C123.47 59.39 122.59 59.59 121.71 59.59L121.72 59.6ZM119.7 53.37C119.7 53.43 119.74 53.45 119.82 53.45H122.86C122.95 53.45 122.99 53.41 122.99 53.33V53.3099C122.97 52.8299 122.83 52.4599 122.58 52.1699C122.33 51.8799 121.96 51.75 121.46 51.75C121.03 51.75 120.66 51.88 120.35 52.15C119.92 52.5 119.7 52.91 119.7 53.36V53.37Z" fill="#1CACC6"/>
<path d="M128.46 62.9199C128.18 62.9199 127.95 62.82 127.76 62.63C127.57 62.44 127.48 62.2099 127.48 61.9399V50.7C127.48 50.43 127.57 50.2 127.76 50.01C127.95 49.82 128.18 49.72 128.46 49.72H129.09C129.33 49.72 129.55 49.8 129.75 49.96C129.94 50.12 130.07 50.3199 130.12 50.5499L130.14 50.63C130.14 50.63 130.15 50.6599 130.18 50.6599C130.21 50.6599 130.23 50.65 130.24 50.63C131.11 49.87 132.01 49.48 132.93 49.48C134.09 49.48 135.01 49.9299 135.69 50.8199C136.37 51.7099 136.71 52.9 136.71 54.4C136.71 55.21 136.6 55.95 136.37 56.62C136.14 57.29 135.84 57.8399 135.46 58.2799C135.08 58.7199 134.64 59.0499 134.16 59.2799C133.67 59.5099 133.17 59.63 132.65 59.63C131.86 59.63 131.14 59.33 130.49 58.72C130.48 58.71 130.46 58.71 130.44 58.72C130.42 58.73 130.41 58.74 130.41 58.75L130.49 60.14V61.9299C130.49 62.1999 130.39 62.43 130.2 62.62C130.01 62.81 129.78 62.9099 129.51 62.9099H128.46V62.9199ZM131.93 57.1599C132.43 57.1599 132.83 56.94 133.13 56.5C133.43 56.06 133.59 55.38 133.59 54.46C133.59 53.61 133.46 52.98 133.21 52.58C132.96 52.18 132.56 51.97 132.03 51.97C131.53 51.97 131.04 52.2099 130.57 52.6799C130.51 52.7499 130.49 52.82 130.49 52.9V56.49C130.49 56.57 130.52 56.6299 130.59 56.6899C130.99 57.0099 131.44 57.1699 131.93 57.1699V57.1599Z" fill="#1CACC6"/>
<path d="M140.931 59.6C140.071 59.6 139.371 59.32 138.851 58.75C138.321 58.19 138.061 57.4899 138.061 56.6599C138.061 55.6399 138.481 54.8499 139.311 54.2899C140.151 53.7299 141.481 53.34 143.301 53.13C143.391 53.12 143.431 53.08 143.421 53C143.311 52.25 142.831 51.87 141.981 51.87C141.481 51.87 140.931 52.0099 140.321 52.2899C140.181 52.3599 140.03 52.39 139.87 52.39C139.77 52.39 139.661 52.37 139.551 52.34C139.301 52.26 139.101 52.1 138.971 51.86L138.841 51.61C138.761 51.46 138.721 51.3 138.721 51.15C138.721 51.05 138.73 50.95 138.75 50.85C138.83 50.58 138.991 50.3999 139.231 50.2899C140.351 49.7499 141.451 49.48 142.531 49.48C145.141 49.48 146.451 50.95 146.451 53.9V58.4199C146.451 58.6899 146.351 58.92 146.161 59.11C145.971 59.3 145.741 59.4 145.471 59.4H144.87C144.6 59.4 144.371 59.3199 144.171 59.1599C143.971 58.9999 143.841 58.7899 143.791 58.5399L143.771 58.47C143.771 58.47 143.741 58.4399 143.721 58.4399C143.701 58.4399 143.681 58.44 143.671 58.46C142.771 59.25 141.851 59.64 140.911 59.64L140.931 59.6ZM141.981 57.26C142.461 57.26 142.92 57.03 143.36 56.58C143.42 56.53 143.441 56.45 143.441 56.36V55.0699C143.441 54.9999 143.411 54.97 143.341 54.97H143.311C141.731 55.2 140.941 55.6899 140.941 56.4299C140.941 56.7099 141.031 56.9099 141.211 57.0499C141.391 57.1899 141.651 57.26 141.981 57.26Z" fill="#1CACC6"/>
<path d="M149.76 59.36C149.48 59.36 149.25 59.2599 149.06 59.0699C148.87 58.8799 148.78 58.65 148.78 58.38V50.6599C148.78 50.3899 148.87 50.16 149.06 49.97C149.25 49.78 149.48 49.6799 149.76 49.6799H150.26C150.54 49.6799 150.78 49.77 150.99 49.96C151.2 50.15 151.32 50.3799 151.36 50.6599L151.44 51.34C151.44 51.34 151.45 51.37 151.48 51.37C151.51 51.37 151.53 51.36 151.54 51.34C151.88 50.72 152.3 50.2499 152.79 49.9299C153.28 49.6099 153.77 49.45 154.27 49.45H154.5C154.77 49.46 154.98 49.59 155.13 49.83C155.23 50 155.28 50.18 155.28 50.38C155.28 50.46 155.28 50.54 155.26 50.61L155.13 51.2899C155.07 51.5399 154.94 51.74 154.71 51.89C154.5 52.03 154.26 52.11 154 52.11H153.88C153.49 52.11 153.12 52.24 152.75 52.5C152.38 52.76 152.08 53.17 151.84 53.72C151.81 53.8 151.79 53.88 151.79 53.97V58.39C151.79 58.66 151.69 58.89 151.5 59.08C151.31 59.27 151.08 59.37 150.81 59.37H149.76V59.36Z" fill="#1CACC6"/>
<path d="M160.87 59.6C159.44 59.6 158.27 59.15 157.34 58.24C156.42 57.33 155.95 56.0999 155.95 54.5399C155.95 53.7799 156.08 53.0699 156.34 52.4199C156.6 51.7699 156.94 51.2399 157.37 50.8099C157.8 50.3799 158.28 50.0499 158.83 49.8099C159.38 49.5699 159.94 49.45 160.53 49.45C161.88 49.45 162.91 49.88 163.62 50.75C164.33 51.61 164.68 52.74 164.68 54.14V54.46C164.67 54.74 164.55 54.97 164.33 55.15C164.11 55.33 163.85 55.4199 163.57 55.4199H159C159 55.4199 158.94 55.43 158.92 55.46C158.9 55.49 158.89 55.5199 158.9 55.5499C159.18 56.7099 159.97 57.2899 161.27 57.2899C161.67 57.2899 162.06 57.22 162.43 57.09C162.56 57.05 162.7 57.02 162.85 57.02C162.97 57.02 163.09 57.0399 163.22 57.0699C163.47 57.1499 163.67 57.2999 163.8 57.5299L163.85 57.63C163.95 57.8 164 57.96 164 58.13C164 58.22 163.98 58.31 163.95 58.4C163.88 58.68 163.73 58.87 163.49 58.98C162.63 59.39 161.75 59.59 160.87 59.59V59.6ZM158.84 53.37C158.84 53.43 158.88 53.45 158.96 53.45H162C162.09 53.45 162.13 53.41 162.13 53.33V53.3099C162.11 52.8299 161.97 52.4599 161.72 52.1699C161.47 51.8899 161.1 51.75 160.6 51.75C160.17 51.75 159.8 51.88 159.49 52.15C159.06 52.5 158.84 52.91 158.84 53.36V53.37Z" fill="#1CACC6"/>
<path d="M170.1 59.6001C168.88 59.6001 167.92 59.1501 167.2 58.2501C166.49 57.3501 166.13 56.11 166.13 54.54C166.13 53.78 166.24 53.07 166.47 52.42C166.7 51.77 167 51.2301 167.37 50.8101C167.75 50.3901 168.17 50.0601 168.65 49.8201C169.13 49.5801 169.62 49.4601 170.13 49.4601C170.61 49.4601 171.02 49.5401 171.36 49.6901C171.7 49.8501 172.04 50.0701 172.37 50.3701C172.38 50.3901 172.4 50.4001 172.42 50.3901C172.44 50.3801 172.45 50.3601 172.44 50.3401L172.34 49.0101V46.7701C172.34 46.4901 172.43 46.2601 172.62 46.0701C172.81 45.8801 173.04 45.79 173.32 45.79H174.4C174.68 45.79 174.91 45.8801 175.1 46.0701C175.29 46.2601 175.38 46.4901 175.38 46.7701V58.3901C175.38 58.6601 175.29 58.8901 175.1 59.0801C174.91 59.2701 174.68 59.3701 174.4 59.3701H173.77C173.52 59.3701 173.29 59.2901 173.1 59.1401C172.91 58.9901 172.78 58.79 172.73 58.54L172.71 58.4701C172.71 58.4701 172.68 58.4401 172.66 58.4401C172.64 58.4401 172.62 58.4401 172.61 58.4601C172.26 58.8101 171.86 59.09 171.41 59.3C170.97 59.5 170.53 59.6101 170.1 59.6101V59.6001ZM170.9 57.1201C171.48 57.1201 171.93 56.88 172.28 56.41C172.32 56.34 172.35 56.2701 172.35 56.1801V52.6301C172.35 52.5401 172.32 52.47 172.25 52.41C171.85 52.08 171.39 51.91 170.86 51.91C170.41 51.91 170.02 52.1301 169.71 52.5701C169.4 53.0101 169.25 53.6501 169.25 54.4901C169.25 56.2501 169.8 57.1301 170.91 57.1301L170.9 57.1201Z" fill="#1CACC6"/>
<path d="M179.71 59.41C179.72 59.32 179.68 59.28 179.59 59.28H179.56C179.07 59.28 178.65 59.1301 178.3 58.8201C177.95 58.5201 177.77 58.1001 177.77 57.5801C177.77 57.0601 177.95 56.6801 178.31 56.3601C178.67 56.0401 179.12 55.8901 179.65 55.8901C180.31 55.8901 180.82 56.1401 181.18 56.6301C181.53 57.1201 181.71 57.8201 181.71 58.7101C181.71 59.6701 181.47 60.5201 180.99 61.2501C180.51 61.9801 179.81 62.5501 178.91 62.9601C178.8 63.0001 178.69 63.03 178.59 63.03C178.47 63.03 178.35 63.0001 178.24 62.9501C178.03 62.8501 177.88 62.6801 177.79 62.4501C177.75 62.3501 177.72 62.2501 177.72 62.1501C177.72 62.0401 177.75 61.92 177.8 61.8C177.9 61.58 178.05 61.41 178.26 61.3C179.17 60.8 179.65 60.17 179.7 59.41H179.71Z" fill="#1CACC6"/>
<path d="M190.09 59.6C189.23 59.6 188.53 59.32 188.01 58.75C187.48 58.19 187.22 57.4899 187.22 56.6599C187.22 55.6399 187.64 54.8499 188.47 54.2899C189.31 53.7299 190.64 53.34 192.46 53.13C192.55 53.12 192.59 53.08 192.58 53C192.47 52.25 191.99 51.87 191.14 51.87C190.64 51.87 190.09 52.0099 189.48 52.2899C189.34 52.3599 189.19 52.39 189.03 52.39C188.93 52.39 188.83 52.37 188.71 52.34C188.46 52.26 188.26 52.1 188.13 51.86L188 51.61C187.92 51.46 187.88 51.3 187.88 51.15C187.88 51.05 187.89 50.95 187.91 50.85C187.99 50.58 188.15 50.3999 188.39 50.2899C189.51 49.7499 190.61 49.48 191.69 49.48C194.3 49.48 195.61 50.95 195.61 53.9V58.4199C195.61 58.6899 195.51 58.92 195.32 59.11C195.13 59.3 194.9 59.4 194.63 59.4H194.03C193.76 59.4 193.53 59.3199 193.33 59.1599C193.13 58.9999 193 58.7899 192.95 58.5399L192.93 58.47C192.93 58.47 192.9 58.4399 192.88 58.4399C192.86 58.4399 192.84 58.44 192.83 58.46C191.93 59.25 191.01 59.64 190.07 59.64L190.09 59.6ZM191.13 57.26C191.61 57.26 192.07 57.03 192.51 56.58C192.57 56.53 192.59 56.45 192.59 56.36V55.0699C192.59 54.9999 192.56 54.97 192.49 54.97H192.46C190.88 55.2 190.09 55.6899 190.09 56.4299C190.09 56.7099 190.18 56.9099 190.36 57.0499C190.54 57.1899 190.8 57.26 191.13 57.26Z" fill="#1CACC6"/>
<path d="M198.92 59.36C198.64 59.36 198.41 59.2599 198.22 59.0699C198.03 58.8799 197.94 58.65 197.94 58.38V50.6599C197.94 50.3899 198.03 50.16 198.22 49.97C198.41 49.78 198.64 49.6799 198.92 49.6799H199.42C199.71 49.6799 199.96 49.77 200.18 49.95C200.4 50.13 200.53 50.37 200.57 50.65L200.6 50.85C200.6 50.85 200.61 50.88 200.64 50.88C200.67 50.88 200.69 50.88 200.7 50.86C201.67 49.91 202.7 49.4299 203.77 49.4299C204.79 49.4299 205.54 49.77 206.04 50.46C206.53 51.15 206.78 52.12 206.78 53.37V58.37C206.78 58.64 206.69 58.8699 206.5 59.0599C206.31 59.2499 206.08 59.35 205.8 59.35H204.74C204.46 59.35 204.23 59.2499 204.04 59.0599C203.85 58.8699 203.76 58.64 203.76 58.37V53.74C203.76 53.1 203.67 52.65 203.49 52.4C203.31 52.15 203.03 52.0299 202.63 52.0299C202.33 52.0299 202.07 52.09 201.84 52.21C201.61 52.33 201.34 52.5299 201.03 52.8099C200.97 52.8699 200.95 52.93 200.95 53.01V58.37C200.95 58.64 200.85 58.8699 200.66 59.0599C200.47 59.2499 200.24 59.35 199.97 59.35H198.92V59.36Z" fill="#1CACC6"/>
<path d="M212.58 59.6001C211.36 59.6001 210.4 59.1501 209.68 58.2501C208.97 57.3501 208.61 56.11 208.61 54.54C208.61 53.78 208.72 53.07 208.95 52.42C209.18 51.77 209.48 51.2301 209.85 50.8101C210.23 50.3901 210.65 50.0601 211.13 49.8201C211.61 49.5801 212.1 49.4601 212.61 49.4601C213.09 49.4601 213.5 49.5401 213.84 49.6901C214.18 49.8501 214.52 50.0701 214.85 50.3701C214.86 50.3901 214.88 50.4001 214.9 50.3901C214.92 50.3801 214.93 50.3601 214.92 50.3401L214.82 49.0101V46.7701C214.82 46.4901 214.91 46.2601 215.1 46.0701C215.29 45.8801 215.52 45.79 215.8 45.79H216.88C217.16 45.79 217.39 45.8801 217.58 46.0701C217.77 46.2601 217.86 46.4901 217.86 46.7701V58.3901C217.86 58.6601 217.77 58.8901 217.58 59.0801C217.39 59.2701 217.16 59.3701 216.88 59.3701H216.25C216 59.3701 215.77 59.2901 215.58 59.1401C215.39 58.9901 215.26 58.79 215.21 58.54L215.19 58.4701C215.19 58.4701 215.16 58.4401 215.14 58.4401C215.12 58.4401 215.1 58.4401 215.09 58.4601C214.74 58.8101 214.34 59.09 213.89 59.3C213.45 59.5 213.01 59.6101 212.58 59.6101V59.6001ZM213.38 57.1201C213.96 57.1201 214.41 56.88 214.76 56.41C214.8 56.34 214.83 56.2701 214.83 56.1801V52.6301C214.83 52.5401 214.8 52.47 214.73 52.41C214.33 52.08 213.87 51.91 213.34 51.91C212.89 51.91 212.5 52.1301 212.19 52.5701C211.88 53.0101 211.73 53.6501 211.73 54.4901C211.73 56.2501 212.28 57.1301 213.39 57.1301L213.38 57.1201Z" fill="#1CACC6"/>
<path d="M227.06 59.6C226.07 59.6 225.1 59.3299 224.14 58.7999C223.91 58.6699 223.77 58.4599 223.73 58.1899C223.72 58.1399 223.71 58.08 223.71 58.02C223.71 57.81 223.78 57.6199 223.91 57.4399L224.11 57.1599C224.26 56.9399 224.48 56.81 224.74 56.76C224.81 56.75 224.87 56.74 224.94 56.74C225.14 56.74 225.33 56.79 225.5 56.89C226.06 57.21 226.61 57.37 227.13 57.37C227.89 57.37 228.28 57.12 228.28 56.61C228.28 56.53 228.26 56.46 228.23 56.39C228.2 56.32 228.14 56.2499 228.06 56.1799C227.98 56.1099 227.9 56.06 227.84 56.01C227.78 55.96 227.67 55.9 227.52 55.84C227.38 55.78 227.26 55.7299 227.18 55.6899C227.1 55.6499 226.96 55.6 226.77 55.52C226.58 55.45 226.44 55.4 226.36 55.36C226.03 55.23 225.73 55.0899 225.46 54.9399C225.19 54.7899 224.93 54.61 224.67 54.38C224.41 54.16 224.21 53.89 224.06 53.58C223.91 53.27 223.84 52.9099 223.84 52.5299C223.84 51.6099 224.18 50.8699 224.87 50.3099C225.56 49.7499 226.46 49.46 227.59 49.46C228.52 49.46 229.4 49.6899 230.23 50.1599C230.46 50.2899 230.6 50.49 230.65 50.76C230.66 50.82 230.67 50.8699 230.67 50.9299C230.67 51.1399 230.6 51.33 230.47 51.49L230.29 51.72C230.13 51.93 229.92 52.06 229.64 52.12C229.56 52.13 229.48 52.14 229.41 52.14C229.22 52.14 229.04 52.1 228.86 52.01C228.44 51.8 228.05 51.6899 227.7 51.6899C227.01 51.6899 226.67 51.92 226.67 52.39C226.67 52.46 226.68 52.5199 226.7 52.5699C226.72 52.6299 226.76 52.68 226.8 52.73C226.84 52.78 226.89 52.83 226.93 52.87C226.97 52.91 227.04 52.96 227.12 52.99C227.2 53.03 227.28 53.06 227.34 53.1C227.4 53.14 227.5 53.17 227.61 53.22C227.73 53.26 227.82 53.3 227.9 53.33C227.98 53.36 228.08 53.3899 228.22 53.4399C228.35 53.4799 228.46 53.5199 228.55 53.5599C228.9 53.6899 229.21 53.83 229.47 53.97C229.73 54.11 230 54.29 230.27 54.52C230.54 54.75 230.75 55.02 230.88 55.35C231.02 55.68 231.09 56.05 231.09 56.47C231.09 57.4 230.74 58.16 230.04 58.74C229.34 59.33 228.35 59.62 227.08 59.62L227.06 59.6Z" fill="#1CACC6"/>
<path d="M236.64 59.6C235.47 59.6 234.6 59.27 234.05 58.6C233.5 57.93 233.22 56.9899 233.22 55.7899V52.1899C233.22 52.1099 233.18 52.0699 233.1 52.0699H232.88C232.61 52.0699 232.38 51.9699 232.19 51.7799C232 51.5899 231.9 51.36 231.9 51.09V50.8099C231.9 50.5299 231.99 50.29 232.18 50.09C232.37 49.88 232.6 49.77 232.88 49.75L233.26 49.72C233.35 49.71 233.4 49.67 233.41 49.59L233.59 48.13C233.63 47.85 233.76 47.6199 233.97 47.4399C234.18 47.2599 234.42 47.1699 234.7 47.1699H235.26C235.53 47.1699 235.76 47.26 235.95 47.45C236.14 47.64 236.24 47.87 236.24 48.15V49.59C236.24 49.67 236.28 49.71 236.36 49.71H237.54C237.81 49.71 238.04 49.81 238.23 50C238.42 50.19 238.52 50.4199 238.52 50.6899V51.11C238.52 51.38 238.42 51.6099 238.23 51.7999C238.04 51.9899 237.81 52.09 237.54 52.09H236.36C236.28 52.09 236.24 52.13 236.24 52.21V55.7799C236.24 56.7399 236.62 57.24 237.39 57.27C237.67 57.28 237.92 57.36 238.14 57.49C238.36 57.63 238.5 57.8099 238.55 58.0499L238.62 58.3199C238.63 58.4099 238.64 58.4899 238.64 58.5699C238.64 58.7499 238.59 58.92 238.49 59.08C238.35 59.32 238.14 59.47 237.88 59.51C237.47 59.59 237.06 59.63 236.63 59.63L236.64 59.6Z" fill="#1CACC6"/>
<path d="M244.59 59.6C243.16 59.6 241.99 59.15 241.06 58.24C240.14 57.33 239.67 56.0999 239.67 54.5399C239.67 53.7799 239.8 53.0699 240.06 52.4199C240.32 51.7699 240.66 51.2399 241.09 50.8099C241.52 50.3799 242 50.0499 242.55 49.8099C243.1 49.5699 243.66 49.45 244.25 49.45C245.6 49.45 246.63 49.88 247.34 50.75C248.05 51.61 248.4 52.74 248.4 54.14V54.46C248.39 54.74 248.27 54.97 248.05 55.15C247.83 55.33 247.57 55.4199 247.29 55.4199H242.72C242.72 55.4199 242.66 55.43 242.64 55.46C242.62 55.49 242.61 55.5199 242.62 55.5499C242.9 56.7099 243.69 57.2899 244.99 57.2899C245.39 57.2899 245.78 57.22 246.15 57.09C246.28 57.05 246.42 57.02 246.57 57.02C246.69 57.02 246.81 57.0399 246.94 57.0699C247.19 57.1499 247.39 57.2999 247.52 57.5299L247.57 57.63C247.67 57.8 247.72 57.96 247.72 58.13C247.72 58.22 247.7 58.31 247.67 58.4C247.6 58.68 247.45 58.87 247.21 58.98C246.35 59.39 245.47 59.59 244.59 59.59V59.6ZM242.57 53.37C242.57 53.43 242.61 53.45 242.69 53.45H245.73C245.82 53.45 245.86 53.41 245.86 53.33V53.3099C245.84 52.8299 245.7 52.4599 245.45 52.1699C245.2 51.8899 244.83 51.75 244.33 51.75C243.9 51.75 243.53 51.88 243.22 52.15C242.79 52.5 242.57 52.91 242.57 53.36V53.37Z" fill="#1CACC6"/>
<path d="M252.63 59.6C251.77 59.6 251.07 59.32 250.55 58.75C250.02 58.19 249.76 57.4899 249.76 56.6599C249.76 55.6399 250.18 54.8499 251.01 54.2899C251.85 53.7299 253.18 53.34 255 53.13C255.09 53.12 255.13 53.08 255.12 53C255.01 52.25 254.53 51.87 253.68 51.87C253.18 51.87 252.63 52.0099 252.02 52.2899C251.88 52.3599 251.73 52.39 251.57 52.39C251.47 52.39 251.36 52.37 251.25 52.34C251 52.26 250.8 52.1 250.67 51.86L250.54 51.61C250.46 51.46 250.42 51.3 250.42 51.15C250.42 51.05 250.43 50.95 250.45 50.85C250.53 50.58 250.69 50.3999 250.93 50.2899C252.05 49.7499 253.15 49.48 254.23 49.48C256.84 49.48 258.15 50.95 258.15 53.9V58.4199C258.15 58.6899 258.05 58.92 257.86 59.11C257.67 59.3 257.44 59.4 257.17 59.4H256.57C256.3 59.4 256.07 59.3199 255.87 59.1599C255.67 58.9999 255.54 58.7899 255.49 58.5399L255.47 58.47C255.47 58.47 255.44 58.4399 255.42 58.4399C255.4 58.4399 255.38 58.44 255.37 58.46C254.47 59.25 253.55 59.64 252.61 59.64L252.63 59.6ZM253.67 57.26C254.15 57.26 254.61 57.03 255.05 56.58C255.11 56.53 255.13 56.45 255.13 56.36V55.0699C255.13 54.9999 255.1 54.97 255.03 54.97H255C253.42 55.2 252.63 55.6899 252.63 56.4299C252.63 56.7099 252.72 56.9099 252.9 57.0499C253.08 57.1899 253.34 57.26 253.67 57.26Z" fill="#1CACC6"/>
<path d="M263.95 59.6001C262.73 59.6001 261.77 59.1501 261.05 58.2501C260.34 57.3501 259.98 56.11 259.98 54.54C259.98 53.78 260.09 53.07 260.32 52.42C260.55 51.77 260.85 51.2301 261.22 50.8101C261.6 50.3901 262.02 50.0601 262.5 49.8201C262.98 49.5801 263.47 49.4601 263.98 49.4601C264.46 49.4601 264.87 49.5401 265.21 49.6901C265.55 49.8501 265.89 50.0701 266.22 50.3701C266.23 50.3901 266.25 50.4001 266.27 50.3901C266.29 50.3801 266.3 50.3601 266.29 50.3401L266.19 49.0101V46.7701C266.19 46.4901 266.28 46.2601 266.47 46.0701C266.66 45.8801 266.89 45.79 267.17 45.79H268.25C268.53 45.79 268.76 45.8801 268.95 46.0701C269.14 46.2601 269.23 46.4901 269.23 46.7701V58.3901C269.23 58.6601 269.14 58.8901 268.95 59.0801C268.76 59.2701 268.53 59.3701 268.25 59.3701H267.62C267.37 59.3701 267.14 59.2901 266.95 59.1401C266.76 58.9901 266.63 58.79 266.58 58.54L266.56 58.4701C266.56 58.4701 266.53 58.4401 266.51 58.4401C266.49 58.4401 266.47 58.4401 266.46 58.4601C266.11 58.8101 265.71 59.09 265.26 59.3C264.82 59.5 264.38 59.6101 263.95 59.6101V59.6001ZM264.74 57.1201C265.32 57.1201 265.77 56.88 266.12 56.41C266.16 56.34 266.19 56.2701 266.19 56.1801V52.6301C266.19 52.5401 266.16 52.47 266.09 52.41C265.69 52.08 265.23 51.91 264.7 51.91C264.25 51.91 263.86 52.1301 263.55 52.5701C263.24 53.0101 263.09 53.6501 263.09 54.4901C263.09 56.2501 263.64 57.1301 264.75 57.1301L264.74 57.1201Z" fill="#1CACC6"/>
<path d="M272.85 63.13C272.68 63.13 272.53 63.13 272.39 63.11C272.12 63.09 271.92 62.96 271.78 62.73C271.68 62.57 271.63 62.41 271.63 62.23C271.63 62.14 271.64 62.06 271.66 61.98L271.76 61.6C271.82 61.36 271.95 61.16 272.18 61.02C272.4 60.88 272.66 60.78 272.94 60.74C273.59 60.65 274.02 60.28 274.24 59.61L274.36 59.23C274.38 59.15 274.38 59.08 274.34 59L271.04 50.65C271.01 50.56 270.99 50.47 270.99 50.38C270.99 50.26 271.03 50.14 271.11 50.01C271.24 49.82 271.43 49.73 271.66 49.73H272.76C273.05 49.73 273.31 49.82 273.55 49.99C273.79 50.16 273.95 50.3899 274.04 50.6599L275.02 53.73C275.09 53.93 275.34 54.8299 275.77 56.4399C275.78 56.4599 275.8 56.47 275.83 56.47C275.86 56.47 275.87 56.4599 275.87 56.4399C275.98 55.9099 276.19 55.01 276.5 53.73L277.35 50.6799C277.43 50.3899 277.58 50.16 277.81 49.99C278.04 49.82 278.3 49.73 278.59 49.73H279.5C279.74 49.73 279.93 49.82 280.06 50.01C280.16 50.14 280.21 50.2799 280.21 50.4099C280.21 50.4899 280.19 50.5699 280.16 50.6599L277.16 59.4099C276.66 60.7299 276.1 61.68 275.47 62.26C274.84 62.84 273.98 63.13 272.87 63.13H272.85Z" fill="#1CACC6"/>
<path d="M287.31 48.34C286.8 48.34 286.38 48.1999 286.06 47.9099C285.73 47.6199 285.57 47.2499 285.57 46.7999C285.57 46.3499 285.73 45.9699 286.06 45.6799C286.39 45.3899 286.8 45.24 287.31 45.24C287.82 45.24 288.22 45.3899 288.54 45.6799C288.86 45.9699 289.02 46.3499 289.02 46.7999C289.02 47.2499 288.86 47.6299 288.54 47.9099C288.22 48.1999 287.81 48.34 287.31 48.34ZM286.78 59.36C286.5 59.36 286.27 59.2599 286.08 59.0699C285.89 58.8799 285.8 58.65 285.8 58.38V50.6599C285.8 50.3899 285.89 50.16 286.08 49.97C286.27 49.78 286.5 49.6799 286.78 49.6799H287.83C288.1 49.6799 288.33 49.78 288.52 49.97C288.71 50.16 288.81 50.3899 288.81 50.6599V58.38C288.81 58.65 288.71 58.8799 288.52 59.0699C288.33 59.2599 288.1 59.36 287.83 59.36H286.78Z" fill="#1CACC6"/>
<path d="M292.22 59.36C291.94 59.36 291.71 59.2599 291.52 59.0699C291.33 58.8799 291.24 58.65 291.24 58.38V50.6599C291.24 50.3899 291.33 50.16 291.52 49.97C291.71 49.78 291.94 49.6799 292.22 49.6799H292.72C293.01 49.6799 293.26 49.77 293.48 49.95C293.7 50.13 293.83 50.37 293.87 50.65L293.9 50.85C293.9 50.85 293.91 50.88 293.94 50.88C293.97 50.88 293.99 50.88 294 50.86C294.97 49.91 296 49.4299 297.07 49.4299C298.09 49.4299 298.84 49.77 299.34 50.46C299.83 51.15 300.08 52.12 300.08 53.37V58.37C300.08 58.64 299.99 58.8699 299.8 59.0599C299.61 59.2499 299.38 59.35 299.1 59.35H298.04C297.76 59.35 297.53 59.2499 297.34 59.0599C297.15 58.8699 297.06 58.64 297.06 58.37V53.74C297.06 53.1 296.97 52.65 296.79 52.4C296.61 52.15 296.33 52.0299 295.93 52.0299C295.63 52.0299 295.37 52.09 295.14 52.21C294.91 52.33 294.64 52.5299 294.33 52.8099C294.27 52.8699 294.25 52.93 294.25 53.01V58.37C294.25 58.64 294.15 58.8699 293.96 59.0599C293.77 59.2499 293.54 59.35 293.27 59.35H292.22V59.36Z" fill="#1CACC6"/>
<path d="M310.66 59.6C309.23 59.6 308.06 59.15 307.13 58.24C306.21 57.33 305.74 56.0999 305.74 54.5399C305.74 53.7799 305.87 53.0699 306.13 52.4199C306.39 51.7699 306.73 51.2399 307.16 50.8099C307.59 50.3799 308.07 50.0499 308.62 49.8099C309.17 49.5699 309.73 49.45 310.32 49.45C311.67 49.45 312.7 49.88 313.41 50.75C314.12 51.61 314.47 52.74 314.47 54.14V54.46C314.46 54.74 314.34 54.97 314.12 55.15C313.9 55.33 313.64 55.4199 313.36 55.4199H308.79C308.79 55.4199 308.73 55.43 308.71 55.46C308.69 55.49 308.68 55.5199 308.69 55.5499C308.97 56.7099 309.76 57.2899 311.06 57.2899C311.46 57.2899 311.85 57.22 312.22 57.09C312.35 57.05 312.49 57.02 312.64 57.02C312.76 57.02 312.88 57.0399 313.01 57.0699C313.26 57.1499 313.46 57.2999 313.59 57.5299L313.64 57.63C313.74 57.8 313.79 57.96 313.79 58.13C313.79 58.22 313.77 58.31 313.74 58.4C313.67 58.68 313.52 58.87 313.28 58.98C312.42 59.39 311.54 59.59 310.66 59.59V59.6ZM308.64 53.37C308.64 53.43 308.68 53.45 308.76 53.45H311.8C311.89 53.45 311.93 53.41 311.93 53.33V53.3099C311.91 52.8299 311.77 52.4599 311.52 52.1699C311.27 51.8899 310.9 51.75 310.4 51.75C309.97 51.75 309.6 51.88 309.29 52.15C308.86 52.5 308.64 52.91 308.64 53.36V53.37Z" fill="#1CACC6"/>
<path d="M316.11 59.36C315.9 59.36 315.74 59.27 315.63 59.08C315.57 58.99 315.55 58.8999 315.55 58.8099C315.55 58.7199 315.58 58.62 315.63 58.52L318.04 54.4399C318.08 54.3699 318.08 54.3 318.04 54.22L315.82 50.5299C315.76 50.4299 315.74 50.34 315.74 50.25C315.74 50.16 315.77 50.07 315.82 49.97C315.92 49.78 316.08 49.6899 316.3 49.6899H317.58C317.88 49.6899 318.16 49.7699 318.42 49.9199C318.68 50.0799 318.88 50.2899 319.03 50.5499L319.36 51.1799C319.61 51.7099 319.87 52.2499 320.14 52.7899C320.15 52.8199 320.17 52.84 320.21 52.84C320.25 52.84 320.26 52.8199 320.26 52.7899C320.34 52.5899 320.45 52.2999 320.6 51.9199C320.75 51.5399 320.84 51.2899 320.87 51.1799L321.12 50.6C321.22 50.32 321.39 50.0999 321.64 49.9399C321.89 49.7799 322.16 49.6899 322.45 49.6899H323.63C323.85 49.6899 324.02 49.78 324.13 49.97C324.19 50.07 324.21 50.17 324.21 50.27C324.21 50.36 324.18 50.4499 324.13 50.5499L321.87 54.5699C321.84 54.6399 321.84 54.7099 321.89 54.7899L324.26 58.5399C324.32 58.6399 324.34 58.7299 324.34 58.8199C324.34 58.9099 324.31 59 324.26 59.09C324.16 59.28 324.01 59.37 323.8 59.37H322.51C322.21 59.37 321.93 59.3 321.66 59.15C321.39 59 321.19 58.7899 321.05 58.5299L320.65 57.87C320.22 57.04 319.93 56.5 319.79 56.24C319.78 56.22 319.76 56.21 319.73 56.21C319.7 56.21 319.68 56.22 319.67 56.24C319.46 56.69 319.23 57.24 318.97 57.87L318.7 58.48C318.58 58.76 318.39 58.98 318.14 59.14C317.89 59.3 317.62 59.38 317.32 59.38H316.12L316.11 59.36Z" fill="#1CACC6"/>
<path d="M330.11 59.6C328.68 59.6 327.51 59.15 326.58 58.24C325.66 57.33 325.19 56.0999 325.19 54.5399C325.19 53.7799 325.32 53.0699 325.58 52.4199C325.84 51.7699 326.18 51.2399 326.61 50.8099C327.04 50.3799 327.52 50.0499 328.07 49.8099C328.62 49.5699 329.18 49.45 329.77 49.45C331.12 49.45 332.15 49.88 332.86 50.75C333.57 51.61 333.92 52.74 333.92 54.14V54.46C333.91 54.74 333.79 54.97 333.57 55.15C333.35 55.33 333.09 55.4199 332.81 55.4199H328.24C328.24 55.4199 328.18 55.43 328.16 55.46C328.14 55.49 328.13 55.5199 328.14 55.5499C328.42 56.7099 329.21 57.2899 330.51 57.2899C330.91 57.2899 331.3 57.22 331.67 57.09C331.8 57.05 331.94 57.02 332.08 57.02C332.2 57.02 332.32 57.0399 332.45 57.0699C332.7 57.1499 332.9 57.2999 333.03 57.5299L333.08 57.63C333.18 57.8 333.23 57.96 333.23 58.13C333.23 58.22 333.21 58.31 333.18 58.4C333.11 58.68 332.96 58.87 332.72 58.98C331.86 59.39 330.98 59.59 330.1 59.59L330.11 59.6ZM328.08 53.37C328.08 53.43 328.12 53.45 328.2 53.45H331.24C331.33 53.45 331.37 53.41 331.37 53.33V53.3099C331.35 52.8299 331.21 52.4599 330.96 52.1699C330.71 51.8799 330.34 51.75 329.84 51.75C329.41 51.75 329.04 51.88 328.73 52.15C328.3 52.5 328.08 52.91 328.08 53.36V53.37Z" fill="#1CACC6"/>
<path d="M340.13 59.6C338.72 59.6 337.57 59.15 336.67 58.24C335.77 57.33 335.32 56.0999 335.32 54.5399C335.32 53.5099 335.56 52.5999 336.03 51.8199C336.51 51.0299 337.13 50.4399 337.89 50.0499C338.65 49.6599 339.49 49.46 340.4 49.46C341.14 49.46 341.82 49.6199 342.43 49.9399C342.66 50.0699 342.8 50.2699 342.84 50.5399C342.85 50.5999 342.86 50.65 342.86 50.71C342.86 50.92 342.79 51.1099 342.64 51.2899L342.39 51.6599C342.2 51.9099 341.92 52.0399 341.54 52.0399C341.36 52.0399 341.17 52.01 340.96 51.96C340.84 51.93 340.71 51.9099 340.56 51.9099C339.91 51.9099 339.38 52.15 338.99 52.62C338.6 53.1 338.4 53.7399 338.4 54.5499C338.4 55.3599 338.59 55.97 338.98 56.45C339.37 56.93 339.86 57.1699 340.46 57.1699C340.74 57.1699 341.02 57.11 341.31 56.99C341.46 56.92 341.63 56.89 341.79 56.89C341.88 56.89 341.97 56.8999 342.06 56.9199C342.33 56.9799 342.52 57.11 342.64 57.34L342.82 57.64C342.92 57.82 342.97 57.9999 342.97 58.1899C342.97 58.2699 342.97 58.3499 342.95 58.4199C342.89 58.7099 342.74 58.9099 342.5 59.0299C341.78 59.4199 340.99 59.61 340.13 59.61V59.6Z" fill="#1CACC6"/>
<path d="M347.89 59.6C346.86 59.6 346.1 59.26 345.62 58.58C345.13 57.9 344.89 56.9299 344.89 55.6799V50.6699C344.89 50.3999 344.98 50.17 345.17 49.98C345.36 49.79 345.59 49.6899 345.87 49.6899H346.93C347.2 49.6899 347.43 49.79 347.62 49.98C347.81 50.17 347.91 50.3999 347.91 50.6699V55.2999C347.91 55.9499 348 56.4 348.17 56.65C348.34 56.9 348.63 57.02 349.03 57.02C349.36 57.02 349.64 56.9499 349.88 56.8099C350.12 56.6699 350.34 56.44 350.58 56.12C350.64 56.05 350.66 55.98 350.66 55.9V50.65C350.66 50.38 350.75 50.15 350.94 49.96C351.13 49.77 351.36 49.6699 351.64 49.6699H352.7C352.97 49.6699 353.2 49.77 353.39 49.96C353.58 50.15 353.68 50.38 353.68 50.65V58.37C353.68 58.64 353.58 58.8699 353.39 59.0599C353.2 59.2499 352.97 59.35 352.7 59.35H352.2C351.91 59.35 351.66 59.26 351.44 59.08C351.22 58.9 351.09 58.67 351.05 58.39L351 58.0599C351 58.0599 350.97 58.0299 350.95 58.0299C350.93 58.0299 350.91 58.0399 350.9 58.0599C350.47 58.5599 350.01 58.94 349.54 59.2C349.06 59.46 348.52 59.59 347.9 59.59L347.89 59.6Z" fill="#1CACC6"/>
<path d="M359.89 59.6C358.72 59.6 357.85 59.27 357.3 58.6C356.75 57.93 356.47 56.9899 356.47 55.7899V52.1899C356.47 52.1099 356.43 52.0699 356.35 52.0699H356.13C355.86 52.0699 355.63 51.9699 355.44 51.7799C355.25 51.5899 355.15 51.36 355.15 51.09V50.8099C355.15 50.5299 355.24 50.29 355.43 50.09C355.62 49.88 355.85 49.77 356.13 49.75L356.51 49.72C356.6 49.71 356.65 49.67 356.66 49.59L356.84 48.13C356.88 47.85 357.01 47.6199 357.22 47.4399C357.43 47.2599 357.67 47.1699 357.95 47.1699H358.51C358.78 47.1699 359.01 47.26 359.2 47.45C359.39 47.64 359.49 47.87 359.49 48.15V49.59C359.49 49.67 359.53 49.71 359.61 49.71H360.79C361.06 49.71 361.29 49.81 361.48 50C361.67 50.19 361.77 50.4199 361.77 50.6899V51.11C361.77 51.38 361.67 51.6099 361.48 51.7999C361.29 51.9899 361.06 52.09 360.79 52.09H359.61C359.53 52.09 359.49 52.13 359.49 52.21V55.7799C359.49 56.7399 359.87 57.24 360.64 57.27C360.92 57.28 361.17 57.36 361.39 57.49C361.61 57.63 361.75 57.8099 361.8 58.0499L361.87 58.3199C361.88 58.4099 361.89 58.4899 361.89 58.5699C361.89 58.7499 361.84 58.92 361.74 59.08C361.6 59.32 361.39 59.47 361.13 59.51C360.72 59.59 360.31 59.63 359.88 59.63L359.89 59.6Z" fill="#1CACC6"/>
<path d="M365.15 48.34C364.64 48.34 364.22 48.1999 363.9 47.9099C363.57 47.6199 363.41 47.2499 363.41 46.7999C363.41 46.3499 363.57 45.9699 363.9 45.6799C364.23 45.3899 364.64 45.24 365.15 45.24C365.66 45.24 366.06 45.3899 366.38 45.6799C366.7 45.9699 366.86 46.3499 366.86 46.7999C366.86 47.2499 366.7 47.6299 366.38 47.9099C366.06 48.1999 365.65 48.34 365.15 48.34ZM364.62 59.36C364.34 59.36 364.11 59.2599 363.92 59.0699C363.73 58.8799 363.64 58.65 363.64 58.38V50.6599C363.64 50.3899 363.73 50.16 363.92 49.97C364.11 49.78 364.34 49.6799 364.62 49.6799H365.67C365.94 49.6799 366.17 49.78 366.36 49.97C366.55 50.16 366.65 50.3899 366.65 50.6599V58.38C366.65 58.65 366.55 58.8799 366.36 59.0699C366.17 59.2599 365.94 59.36 365.67 59.36H364.62Z" fill="#1CACC6"/>
<path d="M373.29 59.6C372.67 59.6 372.08 59.48 371.51 59.25C370.94 59.02 370.43 58.69 369.99 58.27C369.55 57.85 369.2 57.3199 368.94 56.6699C368.68 56.0199 368.55 55.3099 368.55 54.5399C368.55 53.7699 368.68 53.05 368.94 52.4C369.2 51.75 369.55 51.2099 369.99 50.7899C370.43 50.3699 370.94 50.0399 371.51 49.8099C372.08 49.5799 372.67 49.46 373.29 49.46C373.91 49.46 374.49 49.5799 375.05 49.8099C375.61 50.0399 376.12 50.3699 376.56 50.7899C377 51.2099 377.35 51.75 377.61 52.4C377.87 53.05 378 53.7699 378 54.5399C378 55.3099 377.87 56.0299 377.61 56.6699C377.35 57.3199 377 57.85 376.56 58.27C376.12 58.69 375.61 59.02 375.05 59.25C374.49 59.48 373.9 59.6 373.29 59.6ZM373.29 57.1599C373.83 57.1599 374.24 56.93 374.51 56.47C374.78 56.01 374.92 55.3699 374.92 54.5399C374.92 53.7099 374.78 53.06 374.51 52.6C374.24 52.14 373.83 51.9 373.29 51.9C372.75 51.9 372.32 52.13 372.04 52.6C371.76 53.06 371.62 53.7099 371.62 54.5399C371.62 55.3699 371.76 56.02 372.04 56.47C372.32 56.93 372.73 57.1599 373.29 57.1599Z" fill="#1CACC6"/>
<path d="M380.89 59.36C380.61 59.36 380.38 59.2599 380.19 59.0699C380 58.8799 379.91 58.65 379.91 58.38V50.6599C379.91 50.3899 380 50.16 380.19 49.97C380.38 49.78 380.61 49.6799 380.89 49.6799H381.39C381.68 49.6799 381.93 49.77 382.15 49.95C382.37 50.13 382.5 50.37 382.54 50.65L382.57 50.85C382.57 50.85 382.58 50.88 382.61 50.88C382.64 50.88 382.66 50.88 382.67 50.86C383.64 49.91 384.67 49.4299 385.74 49.4299C386.76 49.4299 387.51 49.77 388.01 50.46C388.5 51.15 388.75 52.12 388.75 53.37V58.37C388.75 58.64 388.66 58.8699 388.47 59.0599C388.28 59.2499 388.05 59.35 387.77 59.35H386.71C386.43 59.35 386.2 59.2499 386.01 59.0599C385.82 58.8699 385.73 58.64 385.73 58.37V53.74C385.73 53.1 385.64 52.65 385.46 52.4C385.28 52.15 385 52.0299 384.6 52.0299C384.3 52.0299 384.04 52.09 383.81 52.21C383.58 52.33 383.31 52.5299 383 52.8099C382.94 52.8699 382.92 52.93 382.92 53.01V58.37C382.92 58.64 382.82 58.8699 382.63 59.0599C382.44 59.2499 382.21 59.35 381.94 59.35H380.89V59.36Z" fill="#1CACC6"/>
<defs>
<filter id="filter0_d_99_72569" x="52.0593" y="9.77516e-06" width="340.44" height="32.4401" filterUnits="userSpaceOnUse" color-interpolation-filters="sRGB">
<feFlood flood-opacity="0" result="BackgroundImageFix"/>
<feColorMatrix in="SourceAlpha" type="matrix" values="0 0 0 0 0 0 0 0 0 0 0 0 0 0 0 0 0 0 127 0" result="hardAlpha"/>
<feOffset dx="2.53" dy="2.53"/>
<feGaussianBlur stdDeviation="1.27"/>
<feColorMatrix type="matrix" values="0 0 0 0 0.137255 0 0 0 0 0.0941176 0 0 0 0 0.0823529 0 0 0 0.75 0"/>
<feBlend mode="normal" in2="BackgroundImageFix" result="effect1_dropShadow_99_72569"/>
<feBlend mode="normal" in="SourceGraphic" in2="effect1_dropShadow_99_72569" result="shape"/>
</filter>
</defs>
</svg>
