<svg width="344" height="113" viewBox="0 0 344 113" fill="none" xmlns="http://www.w3.org/2000/svg">
<g filter="url(#filter0_d_86_154000)">
<path d="M18.2451 5.8831C19.3351 6.74453 19.9152 7.6937 19.9152 8.78368C20.0031 9.73302 19.7747 10.823 19.1945 12.1064C18.4737 13.9172 17.8234 15.5346 17.1553 16.9586V37.5803C17.2081 37.4396 17.243 37.2991 17.2957 37.1936C18.4384 34.2577 19.4408 30.6888 20.2847 26.5926C20.6715 25.1158 21.6559 24.3601 23.2733 24.3601C24.3105 24.3601 25.3125 24.6412 26.2618 25.1159C27.1233 25.5027 27.5452 26.2586 27.5452 27.3486C27.5452 28.4386 27.3517 29.9681 27.0177 31.9547C26.4551 34.8027 25.9807 37.0354 25.5412 38.5649C25.7346 38.3715 25.9629 38.2835 26.2091 38.2835C26.4903 38.2835 26.9299 38.3714 27.5452 38.4769C28.1077 38.4769 28.4418 38.2485 28.4418 37.7563V22.6898C28.5297 20.879 30.0593 19.9825 32.9073 19.9298C35.9487 19.9825 37.4604 20.879 37.5659 22.6898V41.4481C37.5659 43.5929 37.0388 45.1047 36.0894 46.0013C35.0873 46.8979 33.4346 47.3727 31.0612 47.3727C28.8285 47.3727 27.1234 47.0913 25.9279 46.6166C24.6973 46.054 24.0291 44.9465 23.9763 43.2939C23.9763 42.7665 24.0292 42.2919 24.1171 41.8172C23.449 42.4853 22.6929 42.8544 21.7436 42.9072C20.7063 42.9072 19.5637 42.4853 18.3155 41.6239C17.7002 41.2898 17.3135 40.9559 17.1202 40.5867V43.4875C17.1202 44.9115 16.6983 45.9661 15.8896 46.5814C15.2216 47.2495 14.1314 47.5836 12.6547 47.5836C11.1779 47.5836 10.1406 47.2495 9.47253 46.5814C8.61109 46.0188 8.1892 44.9642 8.1892 43.4875V28.2804C7.2926 28.0871 6.34349 27.5595 5.34141 26.8035C4.11078 25.9069 3.53063 24.8522 3.58337 23.6216C3.58337 22.9535 3.91709 22.1975 4.58514 21.3361C7.15187 17.4332 9.43751 12.792 11.3713 7.2718C11.7581 5.65441 12.7425 4.79299 14.3247 4.65234C15.696 4.74025 16.9793 5.12711 18.2275 5.8479L18.2451 5.8831ZM30.0766 5.8303C31.1139 6.30497 31.6415 7.25422 31.6415 8.59032C31.6415 8.78371 31.5887 8.97721 31.5887 9.15301H42.1897C43.8599 9.15301 45.1431 9.48689 46.0397 10.1022C47.0418 10.9988 47.5518 12.1943 47.5518 13.6183C47.5518 14.6555 46.8308 17.3278 45.5122 21.5998C45.0376 23.4458 44.0003 24.3601 42.3829 24.3601C41.2929 24.2722 40.2031 23.8852 39.0604 23.3227C37.9177 22.7601 37.3903 21.9515 37.3903 20.844C37.3903 20.4572 37.6716 19.4726 38.287 17.908C38.287 17.5212 37.9529 17.3453 37.3903 17.3453H29.1272C28.09 19.7186 27.1762 21.2833 26.4202 22.0041C25.6115 23.1996 24.5213 23.815 23.0973 23.8502C21.9018 23.8502 20.6186 23.3755 19.2473 22.3207C18.1046 21.5999 17.5421 20.7561 17.5421 19.754C17.5421 19.1914 17.7705 18.4705 18.3507 17.6618C20.0208 14.8138 21.48 11.4911 22.7282 7.69371C23.2028 5.84777 24.4337 4.89849 26.4378 4.89849C27.7739 4.89849 28.9515 5.23259 30.0942 5.8479L30.0766 5.8303ZM44.7916 25.8719C45.6003 27.3487 46.3564 30.4252 47.1123 35.084C47.4991 37.1233 47.7274 38.934 47.7274 40.4987C47.6746 41.2546 47.3405 41.7821 46.69 42.0634C45.8813 42.538 44.9322 42.7314 43.8422 42.7314C42.8401 42.6787 42.084 42.538 41.5215 42.2567C40.9589 41.9754 40.5722 41.448 40.3261 40.692C39.6581 36.2266 39.0954 32.7107 38.5153 30.2318C38.234 29.2297 38.0934 28.1398 38.0934 26.9619C38.1461 26.3993 38.5152 25.8718 39.2887 25.485C39.904 25.2037 40.6601 25.0104 41.6095 24.9225C42.9456 25.0104 44.0356 25.3094 44.7916 25.8719Z" fill="#231815" stroke="white" stroke-width="7.14" stroke-linecap="round" stroke-linejoin="round"/>
<path d="M91.5538 23.8325C92.5911 23.8325 93.3999 24.0611 93.8746 24.5534C94.2965 25.028 94.5428 25.8895 94.5428 27.1728C94.5428 28.2101 94.3493 28.9835 93.9801 29.4581C93.4527 30.1789 92.6438 30.4955 91.5538 30.4955H77.1028V31.6381H89.3039C90.2533 31.6381 90.8683 31.8316 91.2023 32.2008C91.5363 32.6227 91.7298 33.3435 91.7298 34.3807C91.7298 35.418 91.5892 36.1387 91.3079 36.5607C90.9211 37.1232 90.2708 37.3693 89.3039 37.3693H77.1028V39.4087H78.6149C80.6015 39.4087 83.3266 39.3209 86.6493 39.0748C89.2688 38.7935 90.9739 38.6528 91.7298 38.6528C92.7319 38.6528 93.488 38.9868 94.0505 39.6548C94.5252 40.3756 94.8065 41.2196 94.912 42.1689C94.8241 43.5929 94.4899 44.7355 93.9098 45.4914C93.1538 46.3001 91.9055 46.722 90.2529 46.8275H78.2282C74.5715 46.8275 71.5827 46.6343 69.2445 46.3002C66.6778 45.8256 64.3572 45.0169 62.2651 43.8742C62.1772 43.7862 62.0716 43.7334 62.0716 43.7334C61.6496 44.5948 61.263 45.1574 60.929 45.5442C60.1731 46.6869 59.083 47.3023 57.7469 47.3902C56.5514 47.3902 55.2682 46.8627 53.9497 45.9133C52.7542 45.2453 52.1916 44.4368 52.1916 43.4874C52.1916 43.0128 52.3848 42.45 52.8595 41.782C54.2308 39.4965 55.4263 36.7892 56.4635 33.6599C56.8855 31.9546 58.0809 31.0404 59.9796 31.0404C61.2102 31.0404 62.3005 31.3217 63.3553 31.9018C64.3047 32.3238 64.8318 33.1325 64.8318 34.3807C64.8318 34.662 64.779 34.9961 64.779 35.2773C65.8162 36.4201 66.8712 37.2814 67.9612 37.844V30.4779H54.9871C53.9498 30.4779 53.1762 30.2317 52.7015 29.7219C52.2269 29.2472 51.9805 28.3859 51.9805 27.1552C51.9805 25.9246 52.2093 25.0104 52.7015 24.5358C53.1762 24.0611 53.9322 23.8149 54.9871 23.8149H91.5186L91.5538 23.8325ZM87.4755 4.6875C90.3235 4.6875 91.7474 6.1116 91.7474 8.95962V18.787C91.7474 21.635 90.3235 23.0589 87.4755 23.0589H60.5775C57.7295 23.0589 56.3056 21.635 56.3056 18.787V8.95962C56.3056 6.1116 57.7295 4.6875 60.5775 4.6875H87.4755ZM83.0452 11.1921V10.9988C83.0452 10.4362 82.7111 10.1022 82.0958 10.1022H65.9396C65.3243 10.1022 65.043 10.4362 65.043 10.9988V11.1921H83.0452ZM83.0452 16.7476V16.5542H65.043V16.7476C65.043 17.4156 65.3243 17.697 65.9396 17.697H82.0958C82.7111 17.697 83.0452 17.4156 83.0452 16.7476Z" fill="#231815" stroke="white" stroke-width="7.14" stroke-linecap="round" stroke-linejoin="round"/>
<path d="M122.971 4.49417C124.167 5.10948 124.782 6.16419 124.782 7.6761C124.782 7.86948 124.694 8.15079 124.536 8.57271H134.082C137.792 8.57271 139.637 10.4715 139.637 14.181V41.2547C139.637 44.9642 137.792 46.81 134.082 46.81H107.518C103.809 46.81 101.963 44.9642 101.963 41.2547V14.181C101.963 10.4715 103.809 8.57271 107.518 8.57271H114.357C114.691 7.71128 115.025 6.86749 115.306 6.00605C115.781 4.47656 117.012 3.68544 119.016 3.57996C120.44 3.57996 121.723 3.914 122.954 4.47657L122.971 4.49417ZM130.706 18.8046V18.2419C130.706 17.3805 130.285 16.9586 129.423 16.9586H112.177C111.28 16.9586 110.841 17.3805 110.841 18.2419V18.8046H130.706ZM130.706 28.6319V26.3992H110.841V28.6319H130.706ZM130.706 37.176V36.2268H110.841V37.176C110.841 38.0374 111.263 38.4593 112.177 38.4593H129.423C130.285 38.4593 130.706 38.0374 130.706 37.176Z" fill="#231815" stroke="white" stroke-width="7.14" stroke-linecap="round" stroke-linejoin="round"/>
<path d="M158.466 9.15301C158.659 8.39705 158.888 7.58835 159.134 6.72691C159.661 5.05678 161.032 4.21278 163.212 4.16003C164.83 4.16003 166.166 4.44152 167.291 5.02167C168.24 5.60182 168.768 6.35765 168.768 7.30698C168.768 7.83439 168.68 8.44979 168.574 9.15301H184.731C186.207 9.15301 187.298 9.53971 187.966 10.1902C188.528 10.8055 188.827 12.001 188.827 13.7942C188.827 15.2182 188.546 16.2729 188.071 16.9234C187.35 17.9255 186.26 18.4003 184.748 18.4003H165.27C164.707 19.543 164.039 20.7208 163.371 21.8636C162.562 23.1469 161.753 24.2896 160.997 25.3268V43.8566C160.997 45.3861 160.575 46.4233 159.767 47.0913C159.046 47.7594 157.921 48.0935 156.391 48.0935C154.862 48.0935 153.737 47.7594 153.068 47.0913C152.172 46.4233 151.732 45.3861 151.732 43.8566V32.6403C150.168 32.4469 148.744 31.6381 147.46 30.3196C146.177 29.2296 145.562 28.087 145.614 26.9443C145.614 26.0829 145.949 25.3796 146.705 24.9049C149.553 23.0941 151.978 20.967 153.93 18.4003H151.363C149.992 18.4003 148.937 18.0663 148.269 17.3103C147.601 16.695 147.267 15.4995 147.267 13.7942C147.267 12.0889 147.601 10.8407 148.269 10.1902C148.884 9.52213 149.939 9.15301 151.363 9.15301H158.483H158.466ZM171.581 23.8325V23.4458C171.581 21.8812 171.915 20.7384 172.618 20.0703C173.233 19.3495 174.429 18.9804 176.187 18.9804C177.945 18.9804 179.14 19.3671 179.756 20.0175C180.477 20.7383 180.846 21.8636 180.846 23.4458V23.8325H184.924C186.26 23.8325 187.245 24.1666 187.825 24.782C188.352 25.3445 188.634 26.4521 188.634 28.0519C188.634 29.388 188.405 30.3372 187.966 31.0053C187.298 31.9018 186.26 32.3414 184.924 32.3414H180.846V37.7563H185.874C187.245 37.7563 188.247 38.0902 188.915 38.7582C189.495 39.3208 189.776 40.4634 189.776 42.1863C189.776 43.5224 189.495 44.5598 189.021 45.2279C188.353 46.1772 187.315 46.6518 185.891 46.6518H165.463C164.127 46.6518 163.142 46.2651 162.474 45.6146C161.859 44.9993 161.578 43.8565 161.578 42.1863C161.578 40.5162 161.859 39.3384 162.474 38.723C163.089 38.1077 164.091 37.7739 165.463 37.7739H171.598V32.359H166.236C164.953 32.359 164.004 32.025 163.388 31.357C162.773 30.7944 162.492 29.6869 162.492 28.0695C162.492 26.4521 162.773 25.3621 163.388 24.7468C163.951 24.1842 164.9 23.8501 166.236 23.8501H171.598L171.581 23.8325Z" fill="#231815" stroke="white" stroke-width="7.14" stroke-linecap="round" stroke-linejoin="round"/>
<path d="M197.389 7.67607C197.442 5.7774 198.813 4.7754 201.468 4.6875C204.122 4.6875 205.547 5.68949 205.74 7.67607V11.3329C206.162 11.4208 206.548 11.5614 206.83 11.7548C206.918 7.57071 208.06 5.44355 210.346 5.44355H233.569C236.048 5.44355 237.279 7.72902 237.279 12.2823V13.9876C237.279 14.9369 236.945 15.5521 236.382 15.8862C235.82 16.3608 234.959 16.5542 233.904 16.5542C232.673 16.5542 231.811 16.3609 231.284 15.9918C230.897 15.6577 230.757 15.1829 230.757 14.5149V13.9876C230.757 13.2316 230.37 12.8448 229.614 12.8448V16.0267C229.614 16.8882 230.036 17.3103 230.95 17.3103H233.71C235.556 17.3103 236.506 18.4882 236.506 20.8263C236.506 23.1645 235.556 24.3424 233.71 24.3424H228.155C227.012 24.3424 226.116 24.2017 225.447 23.8677C225.729 24.3951 225.922 25.0105 225.922 25.6785V25.8719H233.569C234.747 25.8719 235.609 26.1532 236.189 26.7333C236.663 27.2607 236.91 28.2452 236.91 29.7747C236.91 30.9526 236.664 31.814 236.294 32.3941C235.679 33.2556 234.765 33.6775 233.587 33.6775H232.778C235.538 38.7054 236.91 41.659 236.91 42.5556C236.822 43.5929 236.154 44.507 235.011 45.1751C233.868 45.7377 232.831 46.0717 231.882 46.0717C229.842 46.0717 227.979 43.5577 226.379 38.6176C226.186 38.2309 226.045 37.8969 225.957 37.5277V44.0323C225.957 44.9817 225.676 45.7904 225.096 46.4584C224.34 47.3198 223.144 47.7945 221.527 47.7945C219.998 47.7945 218.82 47.3726 218.064 46.5112C217.396 45.8431 217.062 44.9992 217.062 44.0323V37.8088C216.394 39.9536 215.778 41.659 215.216 42.9423C214.213 44.9817 212.93 46.0365 211.313 46.0717C210.223 46.0717 209.027 45.6496 207.709 44.8409C206.478 44.1729 205.898 43.4171 205.898 42.5556C205.898 42.0282 206.038 41.4655 206.285 40.8854C208.043 38.5648 209.467 36.1387 210.522 33.6599H210.381C209.238 33.6599 208.43 33.3786 207.867 32.7633C207.586 32.5171 207.392 32.2007 207.304 31.7261C206.83 32.1128 206.355 32.3414 205.792 32.4469V41.0963C205.792 45.2804 204.087 47.4078 200.765 47.4078C198.76 47.2672 197.248 46.7925 196.211 46.0365C195.262 45.3684 194.84 44.2785 194.84 42.7666C194.84 40.9558 194.98 39.6723 195.315 38.9164C195.561 38.389 196.123 38.1077 197.073 38.1077C197.319 38.1077 197.459 37.8791 197.459 37.3869V33.7831C196.422 33.6424 195.614 33.2556 195.139 32.6403C194.471 31.9722 194.137 30.8294 194.102 29.212C194.102 27.5419 194.488 26.3113 195.297 25.5554C195.719 25.0807 196.44 24.7466 197.477 24.606V20.0879C196.615 20 195.912 19.6661 195.385 19.0859C194.629 18.4706 194.295 17.3277 194.295 15.6576C194.295 13.8996 194.629 12.7042 195.385 12.0538C195.807 11.5791 196.528 11.3328 197.477 11.2449V7.67607H197.389ZM217.062 25.6785C217.062 24.5358 217.483 23.6392 218.345 22.9711C219.013 22.303 220.05 21.9689 221.527 21.9689C222.283 21.9689 222.951 22.1097 223.513 22.303C222.898 21.4416 222.617 20.2637 222.617 18.787V12.8448H221.808C221.527 15.0248 220.947 16.9761 220.138 18.7342C218.802 21.3888 217.149 23.3402 215.251 24.6763C214.249 25.3444 213.352 25.6785 212.596 25.6785C211.453 25.6258 210.416 25.151 209.361 24.2544C208.5 23.4985 208.131 22.7249 208.131 21.9689C208.131 21.4063 208.324 20.8789 208.693 20.457C211.172 18.8396 212.877 17.2751 213.774 15.7456C214.249 14.9896 214.583 13.9875 214.864 12.8448H214.055C213.581 12.8448 213.334 13.2316 213.334 13.9876V14.7082C213.334 15.5169 213.106 16.0443 212.614 16.2729C212.051 16.6069 211.19 16.7476 209.959 16.7476C209.203 16.7476 208.623 16.6596 208.254 16.4662C208.166 17.5562 208.008 18.3122 207.726 18.699C207.252 19.367 206.584 19.7889 205.74 19.9823V23.4984C206.601 23.5863 207.357 24.026 208.025 24.7819C208.306 25.2039 208.553 25.6784 208.693 26.153C209.168 25.9596 209.695 25.8719 210.363 25.8719H217.062V25.6785Z" fill="#231815" stroke="white" stroke-width="7.14" stroke-linecap="round" stroke-linejoin="round"/>
<path d="M258.674 7.11361C258.762 6.16427 259.201 5.35567 260.01 4.79309C260.625 4.26568 261.716 3.98425 263.28 3.98425C264.845 3.98425 265.9 4.26568 266.568 4.79309C267.324 5.40841 267.745 6.16427 267.851 7.11361H281.44C282.583 7.11361 283.392 7.39482 283.92 7.92223C284.394 8.3969 284.64 9.29357 284.64 10.6297C284.64 11.7197 284.447 12.5284 284.078 13.0558C283.515 13.8117 282.601 14.1985 281.458 14.1985H267.921V15.0951H279.085C282.408 15.0951 284.078 16.9058 284.078 20.457V21.2131C284.078 22.4437 283.656 23.2525 282.882 23.692C282.126 24.2545 281.036 24.5534 279.612 24.5534C277.942 24.5534 276.764 24.3071 276.096 23.7445C275.569 23.3226 275.34 22.6546 275.34 21.7931V21.5998C275.34 21.1251 274.813 20.844 273.864 20.844H263.931C263.983 21.1252 264.019 21.4064 264.019 21.5998C264.019 22.2678 263.79 22.9711 263.298 23.6392C262.208 24.7292 260.977 25.8191 259.588 26.9091C260.063 27.2431 260.591 27.577 261.153 27.9111C263.245 25.9597 265.003 24.1138 266.427 22.303C267.095 21.7405 267.798 21.4064 268.466 21.4064C269.468 21.4064 270.559 21.8283 271.701 22.6898C273.125 23.5864 273.846 24.5356 273.846 25.485C273.846 25.8717 273.617 26.3465 273.125 26.8563C272.369 27.7177 271.314 28.7023 270.084 29.7923C271.42 29.7044 272.703 29.5988 273.934 29.5109C273.688 29.089 273.547 28.7023 273.459 28.421C273.459 27.4716 273.987 26.6629 275.129 25.9421C276.167 25.3795 277.274 25.0807 278.505 25.0807C280.034 25.0807 280.983 25.6434 281.458 26.7509C282.214 28.3683 283.075 30.4604 284.078 32.9216C284.359 33.7831 284.552 34.4336 284.64 34.9082C284.587 35.7169 284.078 36.3848 283.076 36.9474C281.933 37.6154 280.931 37.8968 280.175 37.8968C278.03 37.8968 276.852 37.2816 276.659 35.9982C276.571 35.8048 276.518 35.6641 276.466 35.4707C273.846 35.9454 271.051 36.3674 268.097 36.6663C267.904 36.719 267.816 36.7188 267.711 36.7188V43.4698C267.711 45.0872 267.324 46.2299 266.568 46.8979C265.812 47.6539 264.616 48.0935 263.104 48.0935C261.592 48.0935 260.344 47.6715 259.588 46.8979C258.832 46.2299 258.446 45.0872 258.446 43.4698V37.5803C256.74 37.6682 254.982 37.7737 253.259 37.8264C253.646 38.0198 253.98 38.2483 254.297 38.4417C255.633 39.391 256.248 40.3932 256.195 41.4305C256.283 41.993 256.054 42.5204 255.527 43.1005C254.296 44.296 252.627 45.4213 250.535 46.564C249.497 47.0387 248.688 47.3199 248.02 47.3726C246.596 47.2847 245.313 46.6518 244.17 45.5266C243.133 44.3311 242.606 43.2061 242.659 42.1513C242.606 41.5888 242.799 41.1139 243.221 40.6744C245.401 39.7778 247.3 38.8637 248.829 37.9144H247.124C245.453 37.9144 244.223 37.6331 243.467 37.053C242.606 36.3849 242.131 35.3828 242.096 34.1522C242.096 32.9216 242.324 31.9723 242.905 31.357C243.326 30.8296 244.188 30.5483 245.471 30.4604C247.37 30.4604 249.181 30.4603 250.939 30.4076C249.761 29.9329 248.565 29.3702 247.335 28.7901C246.298 28.122 245.823 27.3133 245.823 26.364C245.823 25.7487 246.052 25.1335 246.544 24.5182C245.208 24.5182 244.223 24.237 243.59 23.7096C242.834 23.147 242.5 22.2855 242.5 21.1955V20.4394C242.5 16.8706 244.118 15.0776 247.352 15.0776H258.656V14.1809H245.12C244.03 14.1809 243.221 13.8997 242.694 13.3195C242.166 12.8448 241.938 11.9482 241.938 10.6121C241.938 9.27597 242.166 8.32673 242.694 7.85206C243.168 7.37739 243.977 7.09601 245.12 7.09601H258.709L258.674 7.11361ZM252.837 23.0765C253.699 22.3205 254.508 21.5472 255.264 20.844H252.31C251.554 20.844 251.22 21.1251 251.22 21.5998V21.7931C251.22 22.0744 251.167 22.3206 251.167 22.514C251.642 22.6546 252.204 22.8479 252.837 23.0765ZM275.832 37.0882C278.012 38.1254 280.245 39.2681 282.443 40.6042C283.199 41.0262 283.585 41.5536 283.673 42.1689C283.673 43.2062 283.146 44.3137 282.162 45.4036C280.825 46.8277 279.735 47.5836 278.891 47.5836C278.171 47.5836 277.467 47.3024 276.747 46.775C274.461 45.2103 272.334 43.8741 270.435 42.7314C269.626 42.204 269.24 41.5886 269.24 40.8854C269.24 40.1294 269.767 39.2152 270.717 38.2307C271.754 37.1935 272.809 36.6135 273.846 36.6135C274.268 36.6135 274.936 36.8069 275.85 37.0882H275.832Z" fill="#231815" stroke="white" stroke-width="7.14" stroke-linecap="round" stroke-linejoin="round"/>
<path d="M304.401 5.30285C305.263 5.77752 305.685 6.53346 305.772 7.4828C305.772 7.86957 305.632 8.67827 305.351 9.90889H306.159C309.095 9.90889 310.625 11.3329 310.765 14.093C311.908 11.7197 312.752 9.29369 313.385 6.72696C313.772 5.63698 314.809 5.02158 316.567 4.88094C317.991 4.88094 319.274 5.21504 320.417 5.83035C321.613 6.5863 322.228 7.50039 322.315 8.59037C322.315 8.97714 322.263 9.34637 322.228 9.73313H324.883C329.348 9.73313 331.58 12.0186 331.58 16.5719V38.8463C331.58 41.6416 331.018 43.5928 329.91 44.841C328.346 46.265 326.06 47.021 323.019 47.021C320.839 46.9682 318.94 46.7398 317.27 46.2651C316.075 45.9311 315.178 45.4036 314.563 44.6477C314 43.8917 313.666 42.837 313.56 41.4657C313.648 40.1296 314.035 39.0395 314.598 38.2308C315.213 37.4748 316.127 37.0354 317.253 37.0003C318.008 37.0003 318.923 37.0881 319.96 37.1936C320.716 37.3343 321.489 37.387 322.28 37.387C323.001 37.387 323.37 36.8597 323.37 35.7169V21.5999C323.37 19.5078 322.614 18.4179 321.138 18.4179H319.099C318.905 18.752 318.765 19.0332 318.677 19.2266C317.534 21.1252 316.11 22.1274 314.299 22.1274C313.209 22.1274 312.014 21.7405 310.783 20.9494V41.29C310.783 44.3314 309.218 45.896 306.124 45.896H294.961C291.867 45.896 290.354 44.3314 290.354 41.29V14.5501C290.354 11.5087 291.867 9.94409 294.961 9.94409H296.191C296.437 9.08265 296.719 8.13337 297 7.14887C297.721 5.63696 299.18 4.82826 301.465 4.72278C302.696 4.72278 303.645 4.95128 304.366 5.33805L304.401 5.30285ZM302.819 23.2701V19.5605C302.819 18.6111 302.291 18.0838 301.289 18.0838H299.813C298.811 18.0838 298.336 18.6111 298.336 19.5605V23.2701H302.802H302.819ZM302.819 36.2268V32.1481H298.354V36.2268C298.354 37.2641 298.828 37.7387 299.831 37.7387H301.307C302.309 37.7387 302.837 37.2641 302.837 36.2268H302.819ZM319.643 24.3073C321.63 27.964 322.685 30.1088 322.685 30.6714C322.597 31.902 321.876 32.8514 320.593 33.5722C319.309 34.2402 318.114 34.5742 317.077 34.5742C315.6 34.5742 314.281 33.2029 313.086 30.4428C311.89 28.2101 311.328 26.7334 311.328 26.0653C311.328 25.2039 312.049 24.3073 313.56 23.4107C314.703 22.8305 315.793 22.5141 316.883 22.5141C318.114 22.602 319.028 23.1822 319.643 24.3249V24.3073Z" fill="#231815" stroke="white" stroke-width="7.14" stroke-linecap="round" stroke-linejoin="round"/>
</g>
<path d="M18.2451 5.8831C19.3351 6.74453 19.9152 7.6937 19.9152 8.78368C20.0031 9.73302 19.7747 10.823 19.1945 12.1064C18.4737 13.9172 17.8234 15.5346 17.1553 16.9586V37.5803C17.2081 37.4396 17.243 37.2991 17.2957 37.1936C18.4384 34.2577 19.4408 30.6888 20.2847 26.5926C20.6715 25.1158 21.6559 24.3601 23.2733 24.3601C24.3105 24.3601 25.3125 24.6412 26.2618 25.1159C27.1233 25.5027 27.5452 26.2586 27.5452 27.3486C27.5452 28.4386 27.3517 29.9681 27.0177 31.9547C26.4551 34.8027 25.9807 37.0354 25.5412 38.5649C25.7346 38.3715 25.9629 38.2835 26.2091 38.2835C26.4903 38.2835 26.9299 38.3714 27.5452 38.4769C28.1077 38.4769 28.4418 38.2485 28.4418 37.7563V22.6898C28.5297 20.879 30.0593 19.9825 32.9073 19.9298C35.9487 19.9825 37.4604 20.879 37.5659 22.6898V41.4481C37.5659 43.5929 37.0388 45.1047 36.0894 46.0013C35.0873 46.8979 33.4346 47.3727 31.0612 47.3727C28.8285 47.3727 27.1234 47.0913 25.9279 46.6166C24.6973 46.054 24.0291 44.9465 23.9763 43.2939C23.9763 42.7665 24.0292 42.2919 24.1171 41.8172C23.449 42.4853 22.6929 42.8544 21.7436 42.9072C20.7063 42.9072 19.5637 42.4853 18.3155 41.6239C17.7002 41.2898 17.3135 40.9559 17.1202 40.5867V43.4875C17.1202 44.9115 16.6983 45.9661 15.8896 46.5814C15.2216 47.2495 14.1314 47.5836 12.6547 47.5836C11.1779 47.5836 10.1406 47.2495 9.47253 46.5814C8.61109 46.0188 8.1892 44.9642 8.1892 43.4875V28.2804C7.2926 28.0871 6.34349 27.5595 5.34141 26.8035C4.11078 25.9069 3.53063 24.8522 3.58337 23.6216C3.58337 22.9535 3.91709 22.1975 4.58514 21.3361C7.15187 17.4332 9.43751 12.792 11.3713 7.2718C11.7581 5.65441 12.7425 4.79299 14.3247 4.65234C15.696 4.74025 16.9793 5.12711 18.2275 5.8479L18.2451 5.8831ZM30.0766 5.8303C31.1139 6.30497 31.6415 7.25422 31.6415 8.59032C31.6415 8.78371 31.5887 8.97721 31.5887 9.15301H42.1897C43.8599 9.15301 45.1431 9.48689 46.0397 10.1022C47.0418 10.9988 47.5518 12.1943 47.5518 13.6183C47.5518 14.6555 46.8308 17.3278 45.5122 21.5998C45.0376 23.4458 44.0003 24.3601 42.3829 24.3601C41.2929 24.2722 40.2031 23.8852 39.0604 23.3227C37.9177 22.7601 37.3903 21.9515 37.3903 20.844C37.3903 20.4572 37.6716 19.4726 38.287 17.908C38.287 17.5212 37.9529 17.3453 37.3903 17.3453H29.1272C28.09 19.7186 27.1762 21.2833 26.4202 22.0041C25.6115 23.1996 24.5213 23.815 23.0973 23.8502C21.9018 23.8502 20.6186 23.3755 19.2473 22.3207C18.1046 21.5999 17.5421 20.7561 17.5421 19.754C17.5421 19.1914 17.7705 18.4705 18.3507 17.6618C20.0208 14.8138 21.48 11.4911 22.7282 7.69371C23.2028 5.84777 24.4337 4.89849 26.4378 4.89849C27.7739 4.89849 28.9515 5.23259 30.0942 5.8479L30.0766 5.8303ZM44.7916 25.8719C45.6003 27.3487 46.3564 30.4252 47.1123 35.084C47.4991 37.1233 47.7274 38.934 47.7274 40.4987C47.6746 41.2546 47.3405 41.7821 46.69 42.0634C45.8813 42.538 44.9322 42.7314 43.8422 42.7314C42.8401 42.6787 42.084 42.538 41.5215 42.2567C40.9589 41.9754 40.5722 41.448 40.3261 40.692C39.6581 36.2266 39.0954 32.7107 38.5153 30.2318C38.234 29.2297 38.0934 28.1398 38.0934 26.9619C38.1461 26.3993 38.5152 25.8718 39.2887 25.485C39.904 25.2037 40.6601 25.0104 41.6095 24.9225C42.9456 25.0104 44.0356 25.3094 44.7916 25.8719Z" fill="#76777A"/>
<path d="M91.5538 23.8325C92.5911 23.8325 93.3999 24.0611 93.8746 24.5534C94.2965 25.028 94.5428 25.8895 94.5428 27.1728C94.5428 28.2101 94.3493 28.9835 93.9801 29.4581C93.4527 30.1789 92.6438 30.4955 91.5538 30.4955H77.1028V31.6381H89.3039C90.2533 31.6381 90.8683 31.8316 91.2023 32.2008C91.5363 32.6227 91.7298 33.3435 91.7298 34.3807C91.7298 35.418 91.5892 36.1387 91.3079 36.5607C90.9211 37.1232 90.2708 37.3693 89.3039 37.3693H77.1028V39.4087H78.6149C80.6015 39.4087 83.3266 39.3209 86.6493 39.0748C89.2688 38.7935 90.9739 38.6528 91.7298 38.6528C92.7319 38.6528 93.488 38.9868 94.0505 39.6548C94.5252 40.3756 94.8065 41.2196 94.912 42.1689C94.8241 43.5929 94.4899 44.7355 93.9098 45.4914C93.1538 46.3001 91.9055 46.722 90.2529 46.8275H78.2282C74.5715 46.8275 71.5827 46.6343 69.2445 46.3002C66.6778 45.8256 64.3572 45.0169 62.2651 43.8742C62.1772 43.7862 62.0716 43.7334 62.0716 43.7334C61.6496 44.5948 61.263 45.1574 60.929 45.5442C60.1731 46.6869 59.083 47.3023 57.7469 47.3902C56.5514 47.3902 55.2682 46.8627 53.9497 45.9133C52.7542 45.2453 52.1916 44.4368 52.1916 43.4874C52.1916 43.0128 52.3848 42.45 52.8595 41.782C54.2308 39.4965 55.4263 36.7892 56.4635 33.6599C56.8855 31.9546 58.0809 31.0404 59.9796 31.0404C61.2102 31.0404 62.3005 31.3217 63.3553 31.9018C64.3047 32.3238 64.8318 33.1325 64.8318 34.3807C64.8318 34.662 64.779 34.9961 64.779 35.2773C65.8162 36.4201 66.8712 37.2814 67.9612 37.844V30.4779H54.9871C53.9498 30.4779 53.1762 30.2317 52.7015 29.7219C52.2269 29.2472 51.9805 28.3859 51.9805 27.1552C51.9805 25.9246 52.2093 25.0104 52.7015 24.5358C53.1762 24.0611 53.9322 23.8149 54.9871 23.8149H91.5186L91.5538 23.8325ZM87.4755 4.6875C90.3235 4.6875 91.7474 6.1116 91.7474 8.95962V18.787C91.7474 21.635 90.3235 23.0589 87.4755 23.0589H60.5775C57.7295 23.0589 56.3056 21.635 56.3056 18.787V8.95962C56.3056 6.1116 57.7295 4.6875 60.5775 4.6875H87.4755ZM83.0452 11.1921V10.9988C83.0452 10.4362 82.7111 10.1022 82.0958 10.1022H65.9396C65.3243 10.1022 65.043 10.4362 65.043 10.9988V11.1921H83.0452ZM83.0452 16.7476V16.5542H65.043V16.7476C65.043 17.4156 65.3243 17.697 65.9396 17.697H82.0958C82.7111 17.697 83.0452 17.4156 83.0452 16.7476Z" fill="#76777A"/>
<path d="M122.971 4.49417C124.167 5.10948 124.782 6.16419 124.782 7.6761C124.782 7.86948 124.694 8.15079 124.536 8.57271H134.082C137.792 8.57271 139.637 10.4715 139.637 14.181V41.2547C139.637 44.9642 137.792 46.81 134.082 46.81H107.518C103.809 46.81 101.963 44.9642 101.963 41.2547V14.181C101.963 10.4715 103.809 8.57271 107.518 8.57271H114.357C114.691 7.71128 115.025 6.86749 115.306 6.00605C115.781 4.47656 117.012 3.68544 119.016 3.57996C120.44 3.57996 121.723 3.914 122.954 4.47657L122.971 4.49417ZM130.706 18.8046V18.2419C130.706 17.3805 130.285 16.9586 129.423 16.9586H112.177C111.28 16.9586 110.841 17.3805 110.841 18.2419V18.8046H130.706ZM130.706 28.6319V26.3992H110.841V28.6319H130.706ZM130.706 37.176V36.2268H110.841V37.176C110.841 38.0374 111.263 38.4593 112.177 38.4593H129.423C130.285 38.4593 130.706 38.0374 130.706 37.176Z" fill="#76777A"/>
<path d="M158.466 9.15301C158.659 8.39705 158.888 7.58835 159.134 6.72691C159.661 5.05678 161.032 4.21278 163.212 4.16003C164.83 4.16003 166.166 4.44152 167.291 5.02167C168.24 5.60182 168.768 6.35765 168.768 7.30698C168.768 7.83439 168.68 8.44979 168.574 9.15301H184.731C186.207 9.15301 187.298 9.53971 187.966 10.1902C188.528 10.8055 188.827 12.001 188.827 13.7942C188.827 15.2182 188.546 16.2729 188.071 16.9234C187.35 17.9255 186.26 18.4003 184.748 18.4003H165.27C164.707 19.543 164.039 20.7208 163.371 21.8636C162.562 23.1469 161.753 24.2896 160.997 25.3268V43.8566C160.997 45.3861 160.575 46.4233 159.767 47.0913C159.046 47.7594 157.921 48.0935 156.391 48.0935C154.862 48.0935 153.737 47.7594 153.068 47.0913C152.172 46.4233 151.732 45.3861 151.732 43.8566V32.6403C150.168 32.4469 148.744 31.6381 147.46 30.3196C146.177 29.2296 145.562 28.087 145.614 26.9443C145.614 26.0829 145.949 25.3796 146.705 24.9049C149.553 23.0941 151.978 20.967 153.93 18.4003H151.363C149.992 18.4003 148.937 18.0663 148.269 17.3103C147.601 16.695 147.267 15.4995 147.267 13.7942C147.267 12.0889 147.601 10.8407 148.269 10.1902C148.884 9.52213 149.939 9.15301 151.363 9.15301H158.483H158.466ZM171.581 23.8325V23.4458C171.581 21.8812 171.915 20.7384 172.618 20.0703C173.233 19.3495 174.429 18.9804 176.187 18.9804C177.945 18.9804 179.14 19.3671 179.756 20.0175C180.477 20.7383 180.846 21.8636 180.846 23.4458V23.8325H184.924C186.26 23.8325 187.245 24.1666 187.825 24.782C188.352 25.3445 188.634 26.4521 188.634 28.0519C188.634 29.388 188.405 30.3372 187.966 31.0053C187.298 31.9018 186.26 32.3414 184.924 32.3414H180.846V37.7563H185.874C187.245 37.7563 188.247 38.0902 188.915 38.7582C189.495 39.3208 189.776 40.4634 189.776 42.1863C189.776 43.5224 189.495 44.5598 189.021 45.2279C188.353 46.1772 187.315 46.6518 185.891 46.6518H165.463C164.127 46.6518 163.142 46.2651 162.474 45.6146C161.859 44.9993 161.578 43.8565 161.578 42.1863C161.578 40.5162 161.859 39.3384 162.474 38.723C163.089 38.1077 164.091 37.7739 165.463 37.7739H171.598V32.359H166.236C164.953 32.359 164.004 32.025 163.388 31.357C162.773 30.7944 162.492 29.6869 162.492 28.0695C162.492 26.4521 162.773 25.3621 163.388 24.7468C163.951 24.1842 164.9 23.8501 166.236 23.8501H171.598L171.581 23.8325Z" fill="#76777A"/>
<path d="M197.389 7.67607C197.442 5.7774 198.813 4.7754 201.468 4.6875C204.122 4.6875 205.547 5.68949 205.74 7.67607V11.3329C206.162 11.4208 206.548 11.5614 206.83 11.7548C206.918 7.57071 208.06 5.44355 210.346 5.44355H233.569C236.048 5.44355 237.279 7.72902 237.279 12.2823V13.9876C237.279 14.9369 236.945 15.5521 236.382 15.8862C235.82 16.3608 234.959 16.5542 233.904 16.5542C232.673 16.5542 231.811 16.3609 231.284 15.9918C230.897 15.6577 230.757 15.1829 230.757 14.5149V13.9876C230.757 13.2316 230.37 12.8448 229.614 12.8448V16.0267C229.614 16.8882 230.036 17.3103 230.95 17.3103H233.71C235.556 17.3103 236.506 18.4882 236.506 20.8263C236.506 23.1645 235.556 24.3424 233.71 24.3424H228.155C227.012 24.3424 226.116 24.2017 225.447 23.8677C225.729 24.3951 225.922 25.0105 225.922 25.6785V25.8719H233.569C234.747 25.8719 235.609 26.1532 236.189 26.7333C236.663 27.2607 236.91 28.2452 236.91 29.7747C236.91 30.9526 236.664 31.814 236.294 32.3941C235.679 33.2556 234.765 33.6775 233.587 33.6775H232.778C235.538 38.7054 236.91 41.659 236.91 42.5556C236.822 43.5929 236.154 44.507 235.011 45.1751C233.868 45.7377 232.831 46.0717 231.882 46.0717C229.842 46.0717 227.979 43.5577 226.379 38.6176C226.186 38.2309 226.045 37.8969 225.957 37.5277V44.0323C225.957 44.9817 225.676 45.7904 225.096 46.4584C224.34 47.3198 223.144 47.7945 221.527 47.7945C219.998 47.7945 218.82 47.3726 218.064 46.5112C217.396 45.8431 217.062 44.9992 217.062 44.0323V37.8088C216.394 39.9536 215.778 41.659 215.216 42.9423C214.213 44.9817 212.93 46.0365 211.313 46.0717C210.223 46.0717 209.027 45.6496 207.709 44.8409C206.478 44.1729 205.898 43.4171 205.898 42.5556C205.898 42.0282 206.038 41.4655 206.285 40.8854C208.043 38.5648 209.467 36.1387 210.522 33.6599H210.381C209.238 33.6599 208.43 33.3786 207.867 32.7633C207.586 32.5171 207.392 32.2007 207.304 31.7261C206.83 32.1128 206.355 32.3414 205.792 32.4469V41.0963C205.792 45.2804 204.087 47.4078 200.765 47.4078C198.76 47.2672 197.248 46.7925 196.211 46.0365C195.262 45.3684 194.84 44.2785 194.84 42.7666C194.84 40.9558 194.98 39.6723 195.315 38.9164C195.561 38.389 196.123 38.1077 197.073 38.1077C197.319 38.1077 197.459 37.8791 197.459 37.3869V33.7831C196.422 33.6424 195.614 33.2556 195.139 32.6403C194.471 31.9722 194.137 30.8294 194.102 29.212C194.102 27.5419 194.488 26.3113 195.297 25.5554C195.719 25.0807 196.44 24.7466 197.477 24.606V20.0879C196.615 20 195.912 19.6661 195.385 19.0859C194.629 18.4706 194.295 17.3277 194.295 15.6576C194.295 13.8996 194.629 12.7042 195.385 12.0538C195.807 11.5791 196.528 11.3328 197.477 11.2449V7.67607H197.389ZM217.062 25.6785C217.062 24.5358 217.483 23.6392 218.345 22.9711C219.013 22.303 220.05 21.9689 221.527 21.9689C222.283 21.9689 222.951 22.1097 223.513 22.303C222.898 21.4416 222.617 20.2637 222.617 18.787V12.8448H221.808C221.527 15.0248 220.947 16.9761 220.138 18.7342C218.802 21.3888 217.149 23.3402 215.251 24.6763C214.249 25.3444 213.352 25.6785 212.596 25.6785C211.453 25.6258 210.416 25.151 209.361 24.2544C208.5 23.4985 208.131 22.7249 208.131 21.9689C208.131 21.4063 208.324 20.8789 208.693 20.457C211.172 18.8396 212.877 17.2751 213.774 15.7456C214.249 14.9896 214.583 13.9875 214.864 12.8448H214.055C213.581 12.8448 213.334 13.2316 213.334 13.9876V14.7082C213.334 15.5169 213.106 16.0443 212.614 16.2729C212.051 16.6069 211.19 16.7476 209.959 16.7476C209.203 16.7476 208.623 16.6596 208.254 16.4662C208.166 17.5562 208.008 18.3122 207.726 18.699C207.252 19.367 206.584 19.7889 205.74 19.9823V23.4984C206.601 23.5863 207.357 24.026 208.025 24.7819C208.306 25.2039 208.553 25.6784 208.693 26.153C209.168 25.9596 209.695 25.8719 210.363 25.8719H217.062V25.6785Z" fill="#76777A"/>
<path d="M258.674 7.11361C258.762 6.16427 259.201 5.35567 260.01 4.79309C260.625 4.26568 261.716 3.98425 263.28 3.98425C264.845 3.98425 265.9 4.26568 266.568 4.79309C267.324 5.40841 267.745 6.16427 267.851 7.11361H281.44C282.583 7.11361 283.392 7.39482 283.92 7.92223C284.394 8.3969 284.64 9.29357 284.64 10.6297C284.64 11.7197 284.447 12.5284 284.078 13.0558C283.515 13.8117 282.601 14.1985 281.458 14.1985H267.921V15.0951H279.085C282.408 15.0951 284.078 16.9058 284.078 20.457V21.2131C284.078 22.4437 283.656 23.2525 282.882 23.692C282.126 24.2545 281.036 24.5534 279.612 24.5534C277.942 24.5534 276.764 24.3071 276.096 23.7445C275.569 23.3226 275.34 22.6546 275.34 21.7931V21.5998C275.34 21.1251 274.813 20.844 273.864 20.844H263.931C263.983 21.1252 264.019 21.4064 264.019 21.5998C264.019 22.2678 263.79 22.9711 263.298 23.6392C262.208 24.7292 260.977 25.8191 259.588 26.9091C260.063 27.2431 260.591 27.577 261.153 27.9111C263.245 25.9597 265.003 24.1138 266.427 22.303C267.095 21.7405 267.798 21.4064 268.466 21.4064C269.468 21.4064 270.559 21.8283 271.701 22.6898C273.125 23.5864 273.846 24.5356 273.846 25.485C273.846 25.8717 273.617 26.3465 273.125 26.8563C272.369 27.7177 271.314 28.7023 270.084 29.7923C271.42 29.7044 272.703 29.5988 273.934 29.5109C273.688 29.089 273.547 28.7023 273.459 28.421C273.459 27.4716 273.987 26.6629 275.129 25.9421C276.167 25.3795 277.274 25.0807 278.505 25.0807C280.034 25.0807 280.983 25.6434 281.458 26.7509C282.214 28.3683 283.075 30.4604 284.078 32.9216C284.359 33.7831 284.552 34.4336 284.64 34.9082C284.587 35.7169 284.078 36.3848 283.076 36.9474C281.933 37.6154 280.931 37.8968 280.175 37.8968C278.03 37.8968 276.852 37.2816 276.659 35.9982C276.571 35.8048 276.518 35.6641 276.466 35.4707C273.846 35.9454 271.051 36.3674 268.097 36.6663C267.904 36.719 267.816 36.7188 267.711 36.7188V43.4698C267.711 45.0872 267.324 46.2299 266.568 46.8979C265.812 47.6539 264.616 48.0935 263.104 48.0935C261.592 48.0935 260.344 47.6715 259.588 46.8979C258.832 46.2299 258.446 45.0872 258.446 43.4698V37.5803C256.74 37.6682 254.982 37.7737 253.259 37.8264C253.646 38.0198 253.98 38.2483 254.297 38.4417C255.633 39.391 256.248 40.3932 256.195 41.4305C256.283 41.993 256.054 42.5204 255.527 43.1005C254.296 44.296 252.627 45.4213 250.535 46.564C249.497 47.0387 248.688 47.3199 248.02 47.3726C246.596 47.2847 245.313 46.6518 244.17 45.5266C243.133 44.3311 242.606 43.2061 242.659 42.1513C242.606 41.5888 242.799 41.1139 243.221 40.6744C245.401 39.7778 247.3 38.8637 248.829 37.9144H247.124C245.453 37.9144 244.223 37.6331 243.467 37.053C242.606 36.3849 242.131 35.3828 242.096 34.1522C242.096 32.9216 242.324 31.9723 242.905 31.357C243.326 30.8296 244.188 30.5483 245.471 30.4604C247.37 30.4604 249.181 30.4603 250.939 30.4076C249.761 29.9329 248.565 29.3702 247.335 28.7901C246.298 28.122 245.823 27.3133 245.823 26.364C245.823 25.7487 246.052 25.1335 246.544 24.5182C245.208 24.5182 244.223 24.237 243.59 23.7096C242.834 23.147 242.5 22.2855 242.5 21.1955V20.4394C242.5 16.8706 244.118 15.0776 247.352 15.0776H258.656V14.1809H245.12C244.03 14.1809 243.221 13.8997 242.694 13.3195C242.166 12.8448 241.938 11.9482 241.938 10.6121C241.938 9.27597 242.166 8.32673 242.694 7.85206C243.168 7.37739 243.977 7.09601 245.12 7.09601H258.709L258.674 7.11361ZM252.837 23.0765C253.699 22.3205 254.508 21.5472 255.264 20.844H252.31C251.554 20.844 251.22 21.1251 251.22 21.5998V21.7931C251.22 22.0744 251.167 22.3206 251.167 22.514C251.642 22.6546 252.204 22.8479 252.837 23.0765ZM275.832 37.0882C278.012 38.1254 280.245 39.2681 282.443 40.6042C283.199 41.0262 283.585 41.5536 283.673 42.1689C283.673 43.2062 283.146 44.3137 282.162 45.4036C280.825 46.8277 279.735 47.5836 278.891 47.5836C278.171 47.5836 277.467 47.3024 276.747 46.775C274.461 45.2103 272.334 43.8741 270.435 42.7314C269.626 42.204 269.24 41.5886 269.24 40.8854C269.24 40.1294 269.767 39.2152 270.717 38.2307C271.754 37.1935 272.809 36.6135 273.846 36.6135C274.268 36.6135 274.936 36.8069 275.85 37.0882H275.832Z" fill="#76777A"/>
<path d="M304.401 5.30285C305.263 5.77752 305.685 6.53346 305.772 7.4828C305.772 7.86957 305.632 8.67827 305.351 9.90889H306.159C309.095 9.90889 310.625 11.3329 310.765 14.093C311.908 11.7197 312.752 9.29369 313.385 6.72696C313.772 5.63698 314.809 5.02158 316.567 4.88094C317.991 4.88094 319.274 5.21504 320.417 5.83035C321.613 6.5863 322.228 7.50039 322.315 8.59037C322.315 8.97714 322.263 9.34637 322.228 9.73313H324.883C329.348 9.73313 331.58 12.0186 331.58 16.5719V38.8463C331.58 41.6416 331.018 43.5928 329.91 44.841C328.346 46.265 326.06 47.021 323.019 47.021C320.839 46.9682 318.94 46.7398 317.27 46.2651C316.075 45.9311 315.178 45.4036 314.563 44.6477C314 43.8917 313.666 42.837 313.56 41.4657C313.648 40.1296 314.035 39.0395 314.598 38.2308C315.213 37.4748 316.127 37.0354 317.253 37.0003C318.008 37.0003 318.923 37.0881 319.96 37.1936C320.716 37.3343 321.489 37.387 322.28 37.387C323.001 37.387 323.37 36.8597 323.37 35.7169V21.5999C323.37 19.5078 322.614 18.4179 321.138 18.4179H319.099C318.905 18.752 318.765 19.0332 318.677 19.2266C317.534 21.1252 316.11 22.1274 314.299 22.1274C313.209 22.1274 312.014 21.7405 310.783 20.9494V41.29C310.783 44.3314 309.218 45.896 306.124 45.896H294.961C291.867 45.896 290.354 44.3314 290.354 41.29V14.5501C290.354 11.5087 291.867 9.94409 294.961 9.94409H296.191C296.437 9.08265 296.719 8.13337 297 7.14887C297.721 5.63696 299.18 4.82826 301.465 4.72278C302.696 4.72278 303.645 4.95128 304.366 5.33805L304.401 5.30285ZM302.819 23.2701V19.5605C302.819 18.6111 302.291 18.0838 301.289 18.0838H299.813C298.811 18.0838 298.336 18.6111 298.336 19.5605V23.2701H302.802H302.819ZM302.819 36.2268V32.1481H298.354V36.2268C298.354 37.2641 298.828 37.7387 299.831 37.7387H301.307C302.309 37.7387 302.837 37.2641 302.837 36.2268H302.819ZM319.643 24.3073C321.63 27.964 322.685 30.1088 322.685 30.6714C322.597 31.902 321.876 32.8514 320.593 33.5722C319.309 34.2402 318.114 34.5742 317.077 34.5742C315.6 34.5742 314.281 33.2029 313.086 30.4428C311.89 28.2101 311.328 26.7334 311.328 26.0653C311.328 25.2039 312.049 24.3073 313.56 23.4107C314.703 22.8305 315.793 22.5141 316.883 22.5141C318.114 22.602 319.028 23.1822 319.643 24.3249V24.3073Z" fill="#76777A"/>
<path d="M24.8555 83.413C24.6973 83.413 24.5566 83.4656 24.3984 83.536L23.1327 84.3798C22.8514 84.5556 22.5702 84.6435 22.2889 84.6435C22.1131 84.6435 21.9548 84.6085 21.7966 84.5382C21.3219 84.4151 20.9529 84.1339 20.6892 83.6943C20.3024 82.9911 19.8101 82.2878 19.2475 81.5494C19.2299 81.5142 19.1947 81.4968 19.1419 81.4968C19.1068 81.4968 19.0715 81.5318 19.0363 81.5846C18.1573 85.3468 17.4189 88.2476 16.8212 90.2694C16.786 90.4276 16.8037 90.5682 16.8916 90.6913C18.1398 92.7658 18.7552 95.104 18.7552 97.741C18.7552 100.062 18.2628 101.609 17.2607 102.365C16.8739 102.716 16.3291 102.962 15.661 103.12C15.538 103.138 15.415 103.156 15.3095 103.156C14.9403 103.156 14.6062 103.015 14.2897 102.734C13.903 102.365 13.6394 101.89 13.5339 101.327C13.4636 100.958 13.3758 100.624 13.2704 100.308C13.2704 100.29 13.2703 100.272 13.2352 100.272C13.2 100.272 13.2 100.273 13.2 100.308V107.551C13.2 108.096 13.0065 108.553 12.6373 108.922C12.2505 109.291 11.811 109.485 11.2836 109.485H10.9496C10.4046 109.485 9.9475 109.291 9.57832 108.922C9.20913 108.553 9.01562 108.096 9.01562 107.551V81.0923C9.01562 80.5473 9.19155 80.0904 9.57832 79.7212C9.9475 79.352 10.4046 79.1585 10.9496 79.1585H15.7138C15.7138 79.1585 15.8019 79.1584 15.837 79.1233C16.1886 79.0354 16.5047 79.0882 16.8212 79.2465L18.7728 80.3892C18.931 80.4596 19.0716 80.4419 19.1947 80.354L20.3373 79.6332C20.7064 79.3871 21.0935 79.2817 21.5154 79.2817C21.6209 79.2817 21.7439 79.2815 21.867 79.3166C22.4119 79.4045 22.8515 79.6508 23.2031 80.0727C23.5723 80.5474 23.8888 81.0045 24.1525 81.4088C24.1701 81.4264 24.1877 81.444 24.2053 81.444C24.2053 81.444 24.2053 81.444 24.2053 81.4088C24.2053 81.0748 24.3283 80.7935 24.5568 80.565C24.8029 80.3189 25.0842 80.2133 25.4006 80.2133H26.7367C26.9126 80.2133 27.0003 80.1429 27.0355 79.9847C27.0706 79.8616 27.1235 79.721 27.1587 79.5628C27.2817 79.0354 27.563 78.6311 28.0025 78.3147C28.3541 78.0685 28.7231 77.9631 29.1098 77.9631C29.2153 77.9631 29.3211 77.963 29.4442 77.9981H29.6021C30.0768 78.086 30.4638 78.3322 30.7451 78.719C30.9385 79.0003 31.0438 79.2991 31.0438 79.598C31.0438 79.721 31.0262 79.8793 30.9735 80.0199C30.9383 80.143 30.9736 80.2133 31.1318 80.2133H37.8124C38.252 80.2133 38.6209 80.3715 38.9198 80.688C39.2187 81.0044 39.3769 81.3736 39.3769 81.8131C39.3769 82.2526 39.2187 82.6218 38.9198 82.9383C38.6209 83.2547 38.252 83.413 37.8124 83.413H30.1824C30.0242 83.413 29.9188 83.4833 29.8485 83.6416L29.7429 83.8701C29.7429 83.8701 29.7429 83.9931 29.7429 84.0283C29.7781 84.081 29.831 84.0987 29.8837 84.0987H36.9686C37.3378 84.0987 37.6539 84.2393 37.9352 84.503C38.1989 84.7667 38.3395 85.1006 38.3395 85.4698C38.3395 85.8389 38.1989 86.1555 37.9352 86.4368C37.6715 86.7005 37.3378 86.8411 36.9686 86.8411H35.7201C35.5618 86.8411 35.4917 86.929 35.4917 87.1048V87.3334C35.4917 87.5092 35.5618 87.5971 35.7201 87.5971H38.0408C38.4276 87.5971 38.7617 87.7201 39.0254 87.9838C39.2891 88.2475 39.4121 88.5641 39.4121 88.9508C39.4121 89.3376 39.2891 89.654 39.0254 89.9352C38.7617 90.1989 38.4451 90.3395 38.0408 90.3395H29.233C28.7056 90.3395 28.2661 90.1638 27.9145 89.7771C27.5629 89.4079 27.3694 88.9684 27.3694 88.441C27.3694 88.4234 27.3522 88.4057 27.2994 88.3882C27.2643 88.3882 27.229 88.3882 27.229 88.3882C27.0708 88.564 26.9302 88.7399 26.8071 88.9508C26.4731 89.3376 26.0512 89.5309 25.5062 89.5309C24.9612 89.5309 24.4865 89.355 24.0997 89.0034C23.8536 88.7925 23.6248 88.5992 23.4138 88.4234C23.3962 88.4058 23.379 88.4058 23.3615 88.4234C23.3615 88.4234 23.3615 88.4586 23.3615 88.4761C23.3966 88.5289 23.4491 88.5816 23.4842 88.6343C23.7303 88.9683 23.8357 89.3023 23.8357 89.6715C23.8357 89.7946 23.8361 89.9528 23.801 90.0934C23.6955 90.6208 23.4138 91.0429 22.9567 91.3593L22.6228 91.5879C22.3415 91.7813 22.0426 91.8866 21.7086 91.8866C21.5504 91.8866 21.4097 91.8866 21.2867 91.8514C20.812 91.7284 20.4254 91.4472 20.1441 91.0428C19.8453 90.5681 19.4935 90.076 19.1067 89.5837C18.843 89.2497 18.72 88.8805 18.72 88.4761V88.2124C18.7903 87.7201 19.0363 87.3157 19.4758 87.0344L19.511 86.9995C19.8978 86.7182 20.3197 86.5773 20.7768 86.5773C20.8647 86.5773 20.9352 86.5774 21.0055 86.6125C21.5681 86.6653 22.0429 86.8938 22.4121 87.2982C22.4296 87.3509 22.4645 87.3862 22.5172 87.4214C22.6227 87.5444 22.7461 87.5618 22.8692 87.4563C23.9767 86.4367 24.9082 85.1534 25.6818 83.6064C25.6993 83.5712 25.6993 83.5185 25.6818 83.4834C25.6642 83.4482 25.6117 83.413 25.559 83.413H24.7675H24.8555ZM14.5537 83.6943C14.5889 83.5361 14.5359 83.4658 14.3601 83.4658H13.4459C13.2877 83.4658 13.2176 83.5361 13.2176 83.6943V90.4803V90.5155C13.2176 90.5155 13.2176 90.5155 13.2176 90.4803C13.6043 88.7926 14.0438 86.5248 14.5185 83.6943H14.5537ZM13.3051 91.1484C13.3051 91.1484 13.3055 91.1308 13.2528 91.1484C13.2176 91.1484 13.2 91.1834 13.2 91.201V99.2001C13.2 99.3583 13.2701 99.4287 13.4283 99.4287H13.7622C14.0435 99.4287 14.2723 99.3407 14.4481 99.1649C14.7294 98.8661 14.87 98.1806 14.87 97.1082C14.87 94.9106 14.3424 92.924 13.3051 91.166V91.1484ZM30.3408 102.558C30.3408 103.085 30.1473 103.525 29.7781 103.912C29.3913 104.299 28.9518 104.474 28.4244 104.474H27.6334C27.6334 104.474 27.5982 104.474 27.5982 104.509C27.5982 104.527 27.5982 104.562 27.6334 104.58C28.3366 104.844 29.1274 105.002 30.0065 105.072C30.8679 105.125 31.7998 105.142 32.7843 105.142C34.3841 105.142 36.1245 105.09 37.9704 104.984H38.076C38.4627 104.984 38.7969 105.142 39.0606 105.476C39.2364 105.722 39.3241 105.986 39.3241 106.267C39.3241 106.391 39.3065 106.531 39.2537 106.689C39.2186 106.848 39.1661 106.988 39.131 107.146C38.9728 107.691 38.6915 108.149 38.252 108.518C37.8124 108.887 37.32 109.08 36.7751 109.098C35.562 109.133 34.4194 109.168 33.347 109.168C32.046 109.168 30.8329 109.133 29.7253 109.063C28.231 108.975 26.9301 108.641 25.8225 108.043C24.7326 107.445 23.7654 106.549 22.9743 105.353C22.8688 105.23 22.7635 105.23 22.6756 105.353C21.9372 106.267 21.1988 107.129 20.4604 107.955C20.1967 108.254 19.8802 108.412 19.511 108.412H19.3179C18.8608 108.342 18.5266 108.113 18.2981 107.691L17.9114 106.971C17.7356 106.619 17.6478 106.25 17.6478 105.863C17.6478 105.705 17.6651 105.547 17.7178 105.371C17.8233 104.826 18.0873 104.369 18.5093 104C19.1773 103.384 19.8276 102.786 20.4604 102.171C20.5659 102.066 20.6188 101.925 20.6188 101.749V97.8288C20.6188 97.7057 20.5483 97.6354 20.4252 97.6354C20.0033 97.6354 19.652 97.4948 19.3707 97.1959C19.0894 96.8971 18.9312 96.5455 18.9312 96.106V95.6488C18.9312 95.1214 19.1067 94.6819 19.4934 94.2951C19.8626 93.9084 20.3198 93.7151 20.8648 93.7151H22.7636C23.291 93.7151 23.7305 93.9084 24.1173 94.2951C24.5041 94.6819 24.68 95.1214 24.68 95.6488V101.362C24.68 101.538 24.7148 101.697 24.7851 101.82C25.1367 102.54 25.5939 103.138 26.1565 103.648C26.1916 103.701 26.2445 103.701 26.2796 103.683C26.3148 103.666 26.35 103.63 26.35 103.578V92.9766C26.35 92.4492 26.5431 92.0096 26.9123 91.6229C27.2991 91.2361 27.7386 91.0428 28.266 91.0428H36.3179C36.8454 91.0428 37.2849 91.2361 37.6717 91.6229C38.0584 92.0096 38.2344 92.4492 38.2344 92.9766V101.204C38.2344 102.031 38.1462 102.663 37.9528 103.085C37.7594 103.507 37.4433 103.859 36.9862 104.105C36.4588 104.386 35.7729 104.562 34.8938 104.632H34.7711C34.3492 104.632 33.9797 104.492 33.6633 104.21C33.2941 103.929 33.0129 103.542 32.8547 103.068C32.8371 102.98 32.8195 102.892 32.8195 102.769C32.8195 102.329 33.1713 101.925 33.8921 101.521C33.9975 101.485 34.05 101.363 34.05 101.187V100.993C34.05 100.818 33.9623 100.73 33.7865 100.73H30.5515C30.3933 100.73 30.3232 100.818 30.3232 100.993V102.558H30.3408ZM31.4834 87.0872C31.4834 86.9114 31.3956 86.8235 31.2198 86.8235H30.2C29.9012 86.8235 29.6375 86.7181 29.409 86.4896C29.1804 86.261 29.0751 85.9972 29.0751 85.6983C29.0751 85.6807 29.0574 85.6633 29.0047 85.6633C28.6531 86.3314 28.3365 86.9115 28.0201 87.351C28.0025 87.4037 28.0025 87.4388 28.0201 87.4915C28.0377 87.5443 28.0905 87.5795 28.1433 87.5795H31.2022C31.378 87.5795 31.4658 87.4916 31.4658 87.3158V87.0872H31.4834ZM34.05 94.137C34.05 93.9612 33.9623 93.8732 33.7865 93.8732H30.5515C30.3933 93.8732 30.3232 93.9612 30.3232 94.137V94.4007C30.3232 94.5765 30.3933 94.6645 30.5515 94.6645H33.7865C33.9623 94.6645 34.05 94.5765 34.05 94.4007V94.137ZM30.3408 97.7586C30.3408 97.9168 30.4109 97.9872 30.5691 97.9872H33.8041C33.9799 97.9872 34.0676 97.9168 34.0676 97.7586V97.5301C34.0676 97.3718 33.9799 97.3015 33.8041 97.3015H30.5691C30.4109 97.3015 30.3408 97.3718 30.3408 97.5301V97.7586Z" fill="#70D44B"/>
<path d="M65.1846 103.595C65.1846 103.753 65.2552 103.824 65.4134 103.824H70.8283C71.3733 103.824 71.83 104.017 72.1992 104.404C72.5684 104.791 72.7619 105.23 72.7619 105.758V106.549C72.7619 107.076 72.5684 107.516 72.1992 107.902C71.83 108.289 71.3733 108.465 70.8283 108.465H53.5995C53.0721 108.465 52.6325 108.271 52.2457 107.902C51.859 107.516 51.683 107.076 51.683 106.549V105.758C51.683 105.23 51.8766 104.791 52.2457 104.404C52.6325 104.017 53.0721 103.824 53.5995 103.824H60.0865C60.2447 103.824 60.3148 103.753 60.3148 103.595V98.3035C60.3148 98.1277 60.2447 98.0398 60.0865 98.0398H56.1133C55.5859 98.0398 55.1464 97.8641 54.7596 97.4773C54.3728 97.1081 54.1969 96.651 54.1969 96.106V95.4555C54.1969 94.9105 54.3904 94.4534 54.7596 94.0842C55.1464 93.715 55.5859 93.5217 56.1133 93.5217H60.0865C60.2447 93.5217 60.3148 93.4338 60.3148 93.258V89.0738C60.3148 88.898 60.2447 88.8101 60.0865 88.8101H57.6078C57.432 88.8101 57.3262 88.898 57.2735 89.0738C57.0098 89.9177 56.7461 90.6913 56.4649 91.3946C56.2715 91.8692 55.9201 92.1855 55.4279 92.3437C55.2345 92.3965 55.041 92.4141 54.8652 92.4141C54.5663 92.4141 54.2675 92.3438 53.9862 92.1856C53.617 91.9922 53.23 91.7989 52.8432 91.6055C52.4564 91.4297 52.1752 91.1308 52.0346 90.7265C51.9642 90.5331 51.9294 90.3396 51.9294 90.1638C51.9294 89.9528 51.9819 89.7243 52.0874 89.5133C52.1049 89.4782 52.0874 89.4431 52.0874 89.408C52.0522 89.3904 52.0345 89.3728 51.9994 89.3728L51.9294 89.408C51.7184 89.5134 51.5073 89.5661 51.3139 89.5661C51.0678 89.5661 50.8394 89.5134 50.6285 89.408C50.189 89.197 49.9073 88.8453 49.7842 88.3882C49.7842 88.3706 49.7846 88.353 49.7495 88.353C49.7143 88.353 49.7143 88.353 49.7143 88.3882V107.463C49.7143 108.008 49.5208 108.465 49.1516 108.834C48.7648 109.203 48.3253 109.397 47.7979 109.397H46.7605C46.2331 109.397 45.7935 109.203 45.4067 108.834C45.02 108.465 44.8445 108.008 44.8445 107.463V91.3242C44.8445 91.3242 44.8444 91.289 44.8093 91.289C44.739 91.7109 44.6684 92.0801 44.5805 92.4317C44.4926 92.9416 44.229 93.3108 43.7719 93.5393C43.5082 93.6624 43.2446 93.7327 42.9809 93.7327C42.7875 93.7327 42.5763 93.6974 42.3654 93.6271C41.8907 93.4513 41.5218 93.1349 41.2932 92.6427C41.135 92.3438 41.0645 92.0273 41.0645 91.6933C41.0645 91.5175 41.0821 91.3418 41.1348 91.166C41.4865 89.6893 41.7677 87.9839 41.9787 86.0501C42.049 85.5227 42.2778 85.1008 42.6997 84.7843C43.0513 84.5206 43.4203 84.3974 43.8071 84.3974H44.1058L44.6333 84.4678C44.7915 84.4854 44.8621 84.4327 44.8621 84.2744V79.5804C44.8621 79.053 45.0552 78.6134 45.4243 78.2267C45.8111 77.8399 46.2507 77.6466 46.7781 77.6466H47.8155C48.3429 77.6466 48.7824 77.8399 49.1692 78.2267C49.5559 78.6134 49.7319 79.053 49.7319 79.5804V83.8525C49.7319 83.8525 49.7491 83.9579 49.8018 83.9755C49.837 83.9931 49.8899 83.9931 49.925 83.9755C50.1887 83.87 50.4347 83.8173 50.6808 83.8173C50.8918 83.8173 51.1206 83.87 51.3667 83.9403C51.8414 84.1161 52.1756 84.4326 52.3865 84.8897C52.5975 85.4171 52.8082 85.9269 53.0016 86.4192C53.0192 86.4719 53.0544 86.472 53.1072 86.472C53.1423 86.472 53.1775 86.4368 53.1775 86.4192C53.6171 84.8018 53.9684 83.0437 54.2145 81.1099C54.2848 80.5825 54.5137 80.1782 54.9356 79.8617C55.2696 79.598 55.6386 79.475 56.0429 79.475H56.3069L57.2211 79.598C57.7661 79.6859 58.2056 79.9497 58.522 80.3892C58.7857 80.7408 58.9088 81.1099 58.9088 81.5318C58.9088 81.6197 58.9087 81.7253 58.8736 81.8307C58.7681 82.6219 58.6451 83.3426 58.522 84.0107C58.5045 84.1689 58.5746 84.2392 58.7504 84.2392H60.1217C60.2799 84.2392 60.35 84.1689 60.35 84.0107V79.8266C60.35 79.2816 60.5435 78.8244 60.9127 78.4552C61.2995 78.086 61.739 77.8928 62.2664 77.8928H63.2862C63.8137 77.8928 64.2532 78.086 64.64 78.4552C65.0267 78.8244 65.2022 79.2816 65.2022 79.8266V84.0107C65.2022 84.1689 65.2728 84.2392 65.431 84.2392H69.6677C70.2127 84.2392 70.6698 84.4325 71.039 84.8193C71.4082 85.2061 71.6017 85.6456 71.6017 86.173V86.8939C71.6017 87.4389 71.4082 87.896 71.039 88.2652C70.6698 88.6344 70.2127 88.8277 69.6677 88.8277H65.431C65.2728 88.8277 65.2022 88.9156 65.2022 89.0914V93.2756C65.2022 93.4514 65.2728 93.5393 65.431 93.5393H68.9823C69.5097 93.5393 69.9492 93.7326 70.336 94.1018C70.7227 94.471 70.8982 94.9281 70.8982 95.4731V96.1236C70.8982 96.6686 70.7052 97.1257 70.336 97.4949C69.9492 97.8641 69.5097 98.0574 68.9823 98.0574H65.431C65.2728 98.0574 65.2022 98.1453 65.2022 98.3211V103.613L65.1846 103.595Z" fill="#70D44B"/>
<path d="M82.8877 92.2207C83.0459 92.1856 83.1866 92.1503 83.3448 92.1503C83.6788 92.1503 83.9777 92.2559 84.259 92.4845C84.6985 92.7657 84.9445 93.1524 85.0149 93.6622L85.0853 94.1897C85.1028 94.2952 85.1205 94.4006 85.1205 94.5236C85.1205 94.9631 84.9975 95.3676 84.7689 95.7368C84.4701 96.1939 84.0482 96.4928 83.5208 96.651C83.2571 96.7213 82.9758 96.7916 82.677 96.8795C82.5012 96.9323 82.413 97.0377 82.413 97.2135V104.527C82.413 105.617 82.3076 106.478 82.0791 107.111C81.8681 107.744 81.4815 108.236 80.9365 108.606C80.2333 109.063 79.2661 109.344 78.0003 109.449C77.93 109.467 77.8775 109.485 77.8072 109.485C77.3501 109.485 76.9282 109.326 76.559 108.992C76.1371 108.641 75.8554 108.184 75.7148 107.621C75.6445 107.357 75.592 107.094 75.5217 106.83C75.4338 106.549 75.4338 106.267 75.5217 106.004C75.6096 105.74 75.7678 105.511 75.9964 105.336C76.2249 105.16 76.4885 105.072 76.7874 105.072C77.0687 105.072 77.2798 105.072 77.4381 105.037C77.6314 105.037 77.7721 105.002 77.8424 104.931C77.9127 104.861 77.9475 104.72 77.9475 104.527V98.4266C77.9475 98.4266 77.9303 98.3034 77.8776 98.2683C77.8424 98.2331 77.7719 98.2155 77.7192 98.2331L77.1037 98.3914C76.9279 98.4442 76.7696 98.4616 76.6114 98.4616C76.2774 98.4616 75.9613 98.3739 75.6624 98.1981C75.2229 97.9344 74.9589 97.5475 74.8534 97.0201L74.6602 96.1411C74.6251 95.9829 74.5898 95.8422 74.5898 95.7192C74.5898 95.3676 74.6952 95.0334 74.9238 94.6994C75.2051 94.2599 75.6093 93.9786 76.1367 93.8556C76.2598 93.838 76.5062 93.7853 76.8754 93.6974C77.227 93.6095 77.5258 93.5392 77.7368 93.504C77.895 93.4865 77.9651 93.3809 77.9651 93.2051V88.5815C77.9651 88.4057 77.895 88.3179 77.7368 88.3179H76.7522C76.2072 88.3179 75.7501 88.142 75.3809 87.7552C75.0117 87.3861 74.8182 86.9289 74.8182 86.3839V85.8038C74.8182 85.2589 74.9941 84.8017 75.3809 84.4325C75.7501 84.0633 76.2072 83.8701 76.7522 83.8701H77.7368C77.895 83.8701 77.9651 83.7821 77.9651 83.6063V79.7211C77.9651 79.1761 78.1586 78.719 78.5278 78.3498C78.9146 77.9806 79.3541 77.7871 79.8815 77.7871H80.4618C81.0068 77.7871 81.464 77.9806 81.8332 78.3498C82.2023 78.719 82.3954 79.1761 82.3954 79.7211V83.6063C82.3954 83.7821 82.4836 83.8701 82.6594 83.8701H83.1517C83.6967 83.8701 84.1534 84.0633 84.5226 84.4325C84.8918 84.8017 85.0853 85.2589 85.0853 85.8038V86.3839C85.0853 86.9289 84.8918 87.3861 84.5226 87.7552C84.1534 88.1244 83.6967 88.3179 83.1517 88.3179H82.6594C82.4836 88.3179 82.3954 88.4057 82.3954 88.5815V92.1327C82.3954 92.1327 82.4307 92.2557 82.4834 92.2909C82.5361 92.3436 82.5891 92.3437 82.6594 92.3261L82.8877 92.2559V92.2207ZM105.725 97.4948C105.725 98.0398 105.531 98.497 105.162 98.8661C104.775 99.2353 104.336 99.4286 103.809 99.4286H100.749C100.749 99.4286 100.679 99.4463 100.644 99.499C100.609 99.5517 100.626 99.5868 100.644 99.622C101.945 101.151 103.422 102.452 105.074 103.578C105.461 103.859 105.689 104.228 105.76 104.685V104.878C105.76 105.265 105.637 105.617 105.373 105.916C105.109 106.197 104.863 106.478 104.617 106.76C104.266 107.182 103.826 107.428 103.316 107.516C103.211 107.533 103.105 107.551 102.982 107.551C102.595 107.551 102.226 107.428 101.91 107.164C100.556 106.056 99.2904 104.703 98.095 103.085C98.0774 103.05 98.0421 103.033 97.9894 103.033C97.9542 103.033 97.919 103.068 97.919 103.12V107.498C97.919 108.043 97.7255 108.5 97.3563 108.869C96.9871 109.238 96.53 109.432 95.985 109.432H95.0708C94.5434 109.432 94.1038 109.238 93.7171 108.869C93.3303 108.5 93.1548 108.043 93.1548 107.498V103.033C93.1548 103.033 93.1547 102.962 93.102 102.945C93.0668 102.945 93.0316 102.945 92.9788 102.945C91.5196 104.843 89.8846 106.408 88.0562 107.639C87.7222 107.85 87.3885 107.973 87.0193 107.973C86.861 107.973 86.7204 107.955 86.5622 107.902C86.0699 107.797 85.6305 107.516 85.2964 107.094C85.0855 106.83 84.8743 106.584 84.6809 106.338C84.4348 106.074 84.3294 105.775 84.3294 105.424C84.3294 105.336 84.3295 105.248 84.3646 105.125C84.4349 104.685 84.6633 104.351 85.0853 104.105C87.1246 102.945 88.9178 101.45 90.4297 99.6044C90.4649 99.5692 90.4825 99.5166 90.4649 99.4814C90.4474 99.4462 90.4121 99.411 90.3594 99.411H87.494C86.949 99.411 86.4918 99.2353 86.1227 98.8485C85.7535 98.4794 85.56 98.0222 85.56 97.4772V97.0201C85.56 96.4927 85.7359 96.0532 86.1227 95.6664C86.4918 95.2796 86.949 95.0863 87.494 95.0863H92.9084C93.0842 95.0863 93.1724 94.9984 93.1724 94.8226V93.8732C93.1724 93.3282 93.3655 92.871 93.7346 92.5018C94.1214 92.1327 94.561 91.9394 95.0884 91.9394H96.7588C96.7588 91.9394 96.8288 91.9217 96.864 91.869C96.8992 91.8162 96.864 91.7988 96.8288 91.7636C96.2838 91.1307 96.0202 89.8825 96.0202 88.019V85.6633C96.0202 85.1183 96.2137 84.6612 96.5829 84.292C96.9696 83.9228 97.4092 83.7293 97.9366 83.7293H98.3937C98.9387 83.7293 99.3958 83.9228 99.765 84.292C100.134 84.6612 100.327 85.1183 100.327 85.6633V87.9838C100.327 88.4057 100.363 88.6518 100.433 88.7748C100.503 88.8803 100.661 88.9332 100.925 88.9332H101.91C102.173 88.9332 102.349 88.81 102.437 88.5463C102.56 88.1068 102.824 87.7905 103.193 87.5971C103.404 87.474 103.632 87.4037 103.843 87.4037C104.002 87.4037 104.16 87.4388 104.336 87.5091C104.406 87.5618 104.459 87.5795 104.529 87.6147C105.074 87.8081 105.496 88.142 105.795 88.5991C105.988 88.9331 106.094 89.2496 106.094 89.5837C106.094 89.7419 106.076 89.9002 106.023 90.076C105.742 91.078 105.32 91.7636 104.775 92.1679C104.213 92.5547 103.457 92.748 102.472 92.748H100.152C99.4134 92.748 98.7627 92.6777 98.2353 92.5546C98.0595 92.5195 97.9718 92.5722 97.9718 92.748V94.8402C97.9718 95.016 98.0595 95.1039 98.2353 95.1039H103.843C104.371 95.1039 104.81 95.2972 105.197 95.684C105.584 96.0708 105.76 96.5103 105.76 97.0377V97.4948H105.725ZM90.0606 83.1492C89.9024 83.1492 89.8319 83.2371 89.8319 83.4129V84.4853C89.8319 85.0127 89.6388 85.4523 89.2696 85.839C88.8828 86.2258 88.4433 86.4015 87.9159 86.4015H87.6871C87.1421 86.4015 86.685 86.2082 86.3158 85.839C85.9466 85.4523 85.7535 85.0127 85.7535 84.4853V80.9869C85.7535 80.4594 85.929 80.0199 86.3158 79.6331C86.685 79.2464 87.1421 79.0531 87.6871 79.0531H103.809C104.336 79.0531 104.775 79.2464 105.162 79.6331C105.549 80.0199 105.725 80.4594 105.725 80.9869V84.2744C105.725 84.8018 105.531 85.2413 105.162 85.6281C104.775 86.0149 104.336 86.1906 103.809 86.1906H103.386C102.859 86.1906 102.42 85.9973 102.033 85.6281C101.646 85.2413 101.47 84.8018 101.47 84.2744V83.3954C101.47 83.2195 101.382 83.1316 101.206 83.1316H90.0782L90.0606 83.1492ZM90.4649 85.7511C90.5528 85.2061 90.7988 84.7489 91.1856 84.3797C91.5724 84.0106 92.0295 83.8173 92.5569 83.8173H93.0844C93.6294 83.8173 94.0689 84.0106 94.4205 84.3797C94.7194 84.7138 94.8776 85.083 94.8776 85.5225V85.7511C94.6315 87.597 94.1214 89.109 93.3127 90.2517C92.504 91.412 91.133 92.3261 89.1992 92.9941C88.9882 93.0821 88.7595 93.1173 88.5485 93.1173C88.2672 93.1173 87.986 93.047 87.7047 92.924C87.2125 92.6778 86.7906 92.3261 86.4566 91.8514C86.4214 91.7635 86.3509 91.6758 86.2982 91.5878C86.14 91.3417 86.0699 91.1131 86.0699 90.867C86.0699 90.7088 86.0875 90.5681 86.1402 90.4451C86.2633 90.0407 86.5445 89.7595 86.9489 89.6365C88.1268 89.2497 88.9705 88.7397 89.4803 88.142C89.9902 87.5266 90.3243 86.7356 90.4825 85.7687L90.4649 85.7511Z" fill="#70D44B"/>
<path d="M137.633 98.7783C138.002 99.0771 138.195 99.4815 138.195 99.9562C138.195 100.501 137.984 100.941 137.58 101.292L137.053 101.679C136.683 101.96 136.279 102.101 135.84 102.101H135.716C135.224 102.083 134.785 101.89 134.416 101.538C134.31 101.433 134.169 101.38 134.029 101.398C133.871 101.398 131.321 101.503 126.364 101.679C126.205 101.697 126.135 101.785 126.135 101.943V107.48C126.135 108.025 125.942 108.483 125.573 108.852C125.186 109.221 124.746 109.414 124.219 109.414H123.199C122.672 109.414 122.232 109.221 121.845 108.852C121.459 108.483 121.283 108.025 121.283 107.48V102.101C121.283 101.943 121.213 101.872 121.054 101.872L116.659 102.031C116.659 102.031 116.624 102.031 116.624 102.066C116.624 102.083 116.624 102.119 116.659 102.136L118.347 102.751C118.786 102.927 119.05 103.226 119.138 103.666C119.156 103.754 119.174 103.841 119.174 103.929C119.174 104.263 119.05 104.545 118.786 104.773C117.239 106.127 115.499 107.322 113.565 108.395C113.196 108.588 112.809 108.694 112.387 108.694C112.264 108.694 112.124 108.694 111.965 108.658C111.403 108.57 110.91 108.324 110.506 107.902C110.225 107.639 109.944 107.375 109.662 107.111C109.399 106.865 109.276 106.584 109.276 106.267C109.276 106.197 109.276 106.127 109.311 106.039C109.381 105.635 109.609 105.336 109.996 105.195C112.036 104.299 113.723 103.314 115.024 102.224C115.06 102.206 115.077 102.171 115.06 102.119C115.042 102.083 115.007 102.048 114.954 102.048C114.216 102.066 113.002 102.101 111.297 102.154H111.227C110.7 102.154 110.26 101.978 109.891 101.626C109.504 101.257 109.276 100.8 109.24 100.255V99.7978C109.205 99.2704 109.346 98.8309 109.715 98.4441C110.084 98.0573 110.506 97.864 111.034 97.864H116.325C116.501 97.864 116.659 97.829 116.782 97.7411C116.87 97.7059 117.081 97.5827 117.398 97.4069C117.433 97.3894 117.468 97.3543 117.485 97.3016C117.485 97.2488 117.486 97.1959 117.433 97.1608C116.308 96.3345 115.024 95.5084 113.583 94.6821C113.301 94.5063 113.143 94.2601 113.108 93.9085C113.073 93.5744 113.179 93.2932 113.425 93.0822C113.442 93.0647 113.46 93.0294 113.425 92.9942C113.425 92.9591 113.39 92.9415 113.372 92.9415H111.016C110.489 92.9415 110.049 92.7657 109.662 92.379C109.276 92.0098 109.1 91.5527 109.1 91.0077V87.5444C109.1 87.017 109.293 86.5774 109.662 86.1907C110.049 85.8039 110.489 85.6106 111.016 85.6106H121.037C121.195 85.6106 121.265 85.5403 121.265 85.382V84.4678C121.265 84.292 121.195 84.2041 121.037 84.2041H111.456C110.911 84.2041 110.453 84.0284 110.084 83.6416C109.715 83.2724 109.522 82.8153 109.522 82.2703V81.9713C109.522 81.4439 109.697 81.0046 110.084 80.6178C110.453 80.2311 110.911 80.0375 111.456 80.0375H121.037C121.195 80.0375 121.265 79.9672 121.265 79.809V79.5452C121.265 79.0178 121.459 78.5785 121.828 78.1917C122.215 77.805 122.654 77.6115 123.181 77.6115H124.166C124.693 77.6115 125.133 77.805 125.52 78.1917C125.907 78.5785 126.082 79.0178 126.082 79.5452V79.809C126.082 79.9672 126.153 80.0375 126.311 80.0375H136.156C136.701 80.0375 137.158 80.2311 137.527 80.6178C137.897 81.0046 138.09 81.4439 138.09 81.9713V82.2703C138.09 82.8153 137.897 83.2724 137.527 83.6416C137.158 84.0108 136.701 84.2041 136.156 84.2041H126.311C126.153 84.2041 126.082 84.292 126.082 84.4678V85.382C126.082 85.5403 126.153 85.6106 126.311 85.6106H136.683C137.211 85.6106 137.65 85.8039 138.037 86.1907C138.424 86.5774 138.599 87.017 138.599 87.5444V91.0077C138.599 91.5527 138.406 92.0098 138.037 92.379C137.65 92.7482 137.211 92.9415 136.683 92.9415H135.699C135.171 92.9415 134.732 92.7657 134.345 92.379C133.958 92.0098 133.782 91.5527 133.782 91.0077V89.9001C133.782 89.7243 133.712 89.6366 133.554 89.6366H124.06H124.026C124.026 89.6366 124.025 89.6716 124.06 89.6891C124.254 89.777 124.377 89.9353 124.395 90.1638C124.43 90.3924 124.359 90.5859 124.184 90.7265C122.865 91.8341 121.564 92.8361 120.298 93.7327C120.263 93.7503 120.246 93.8029 120.246 93.8557C120.246 93.926 120.281 93.9613 120.334 93.9789C120.703 94.225 121.037 94.4535 121.353 94.6645C121.477 94.77 121.617 94.7874 121.775 94.6995C123.533 93.504 125.045 92.3967 126.311 91.377C126.768 91.0254 127.296 90.8143 127.876 90.7615C127.981 90.7439 128.087 90.7265 128.174 90.7265C128.632 90.7265 129.071 90.8495 129.511 91.0781L130.425 91.5704C130.829 91.7813 131.04 92.1505 131.04 92.6427C131.04 93.0295 130.882 93.346 130.548 93.5921C128.456 95.0337 126.311 96.3873 124.096 97.6707C124.061 97.6883 124.043 97.7235 124.043 97.7587C124.043 97.7938 124.078 97.8112 124.131 97.8112L129.651 97.7411C129.651 97.7411 129.687 97.741 129.704 97.6883C129.704 97.6531 129.704 97.6355 129.704 97.6003C129.353 97.3366 129.177 96.985 129.177 96.5631C129.177 96.1588 129.335 95.8072 129.669 95.5435L129.968 95.315C130.425 94.9634 130.935 94.7874 131.497 94.7523H131.603C132.148 94.7523 132.64 94.9105 133.079 95.2094C134.978 96.5103 136.507 97.6706 137.703 98.7079L137.633 98.7783ZM113.882 89.6715C113.724 89.6715 113.653 89.7595 113.653 89.9353V92.6427C113.653 92.6427 113.671 92.7129 113.723 92.7481C113.759 92.7657 113.794 92.7483 113.829 92.7131L114.514 92.1328C114.796 91.8867 115.13 91.7461 115.499 91.7109C115.587 91.6933 115.675 91.6757 115.763 91.6757C116.044 91.6757 116.325 91.746 116.571 91.8691C116.659 91.9394 116.73 91.9394 116.8 91.8691C117.591 91.201 118.294 90.5156 118.945 89.8475C118.98 89.8299 118.998 89.7947 118.98 89.7419C118.962 89.7068 118.927 89.6715 118.874 89.6715H113.882ZM128.913 104.914C128.526 104.668 128.333 104.334 128.333 103.877C128.333 103.42 128.526 103.121 128.895 102.892L129.352 102.558C129.844 102.259 130.407 102.083 131.023 102.066H131.128C131.69 102.066 132.218 102.189 132.693 102.452C134.591 103.525 136.191 104.492 137.527 105.353C137.897 105.617 138.09 105.969 138.09 106.426C138.09 106.9 137.896 107.27 137.51 107.533L136.701 108.096C136.262 108.377 135.787 108.518 135.259 108.518H135.136C134.574 108.5 134.064 108.307 133.607 107.955C132.359 107.041 130.829 106.021 128.983 104.896L128.913 104.914Z" fill="#70D44B"/>
<path d="M151.75 103.63C152.049 104 152.207 104.421 152.207 104.879V105.037C152.172 105.564 151.944 106.004 151.522 106.373L150.151 107.551C149.781 107.85 149.36 108.008 148.92 108.008H148.762C148.234 107.973 147.812 107.744 147.461 107.357C146.072 105.81 144.595 104.298 143.03 102.787C142.679 102.453 142.503 102.048 142.503 101.538C142.503 101.028 142.696 100.589 143.083 100.237L144.384 99.0945C144.806 98.7429 145.281 98.5673 145.843 98.5673C146.406 98.5673 146.881 98.7606 147.303 99.1297C148.867 100.571 150.361 102.066 151.768 103.63H151.75Z" fill="#70D44B"/>
<path d="M192.238 80.9693C192.238 80.9693 192.238 81.0923 192.238 81.1275C192.273 81.1802 192.308 81.1979 192.344 81.1979H201.345C201.872 81.1979 202.312 81.3912 202.699 81.778C203.085 82.1647 203.261 82.6043 203.261 83.1317V106.725C203.261 107.252 203.068 107.692 202.699 108.078C202.312 108.465 201.872 108.641 201.345 108.641H199.481C199.095 108.641 198.76 108.5 198.479 108.236C198.198 107.955 198.075 107.639 198.075 107.234C198.075 107.129 198.022 107.076 197.916 107.076H183.395C183.29 107.076 183.237 107.129 183.237 107.234C183.237 107.621 183.096 107.955 182.833 108.236C182.551 108.5 182.235 108.641 181.831 108.641H180.231C179.703 108.641 179.264 108.447 178.877 108.078C178.49 107.709 178.297 107.252 178.297 106.725V83.1317C178.297 82.6043 178.49 82.1647 178.877 81.778C179.264 81.3912 179.703 81.1979 180.231 81.1979H186.665C186.841 81.1979 186.946 81.1276 186.999 80.9693C187.157 80.1782 187.28 79.4751 187.386 78.8246C187.474 78.2972 187.72 77.8751 188.142 77.5586C188.511 77.2773 188.915 77.1367 189.355 77.1367H189.583L191.676 77.3653C192.15 77.418 192.519 77.6466 192.783 78.0509C192.941 78.2971 193.012 78.5433 193.012 78.807C193.012 78.9828 192.977 79.1585 192.889 79.3695C192.713 79.8265 192.502 80.3716 192.238 81.0045V80.9693ZM198.11 86.0501C198.11 85.8918 198.022 85.8215 197.846 85.8215H183.501C183.342 85.8215 183.272 85.8918 183.272 86.0501V88.142C183.272 88.3178 183.342 88.4058 183.501 88.4058H197.846C198.022 88.4058 198.11 88.3178 198.11 88.142V86.0501ZM198.11 93.0998C198.11 92.9416 198.022 92.8713 197.846 92.8713H183.501C183.342 92.8713 183.272 92.9416 183.272 93.0998V95.2446C183.272 95.4028 183.342 95.4731 183.501 95.4731H197.846C198.022 95.4731 198.11 95.4028 198.11 95.2446V93.0998ZM183.255 102.365C183.255 102.523 183.325 102.593 183.483 102.593H197.829C198.005 102.593 198.092 102.523 198.092 102.365V100.22C198.092 100.044 198.005 99.9562 197.829 99.9562H183.483C183.325 99.9562 183.255 100.044 183.255 100.22V102.365Z" fill="#70D44B"/>
<path d="M223.549 81.3384C223.461 81.6021 223.408 81.778 223.391 81.8307C223.373 81.8835 223.391 81.9361 223.391 81.9889C223.426 82.0416 223.479 82.0769 223.531 82.0769H237.174C237.701 82.0769 238.141 82.2702 238.527 82.6393C238.914 83.0085 239.09 83.4657 239.09 84.0107V84.8019C239.09 85.3293 238.897 85.7686 238.527 86.1554C238.141 86.5422 237.701 86.7181 237.174 86.7181H221.58C221.404 86.7181 221.281 86.7884 221.228 86.9467C220.156 89.1794 218.961 91.2186 217.642 93.047C217.537 93.17 217.484 93.3283 217.484 93.4689V107.498C217.484 108.043 217.29 108.5 216.921 108.869C216.552 109.238 216.095 109.432 215.55 109.432H214.513C213.968 109.432 213.511 109.238 213.141 108.869C212.772 108.5 212.579 108.043 212.579 107.498V98.7958C212.579 98.7958 212.561 98.7254 212.508 98.6902C212.473 98.6726 212.42 98.6726 212.385 98.6902C212.139 98.9012 211.911 99.1123 211.665 99.2705C211.401 99.4815 211.12 99.6044 210.821 99.6044C210.663 99.6044 210.522 99.5868 210.364 99.534C209.907 99.3758 209.572 99.0945 209.344 98.655C209.15 98.2155 208.94 97.7936 208.729 97.3541C208.553 97.0201 208.465 96.7037 208.465 96.3697C208.465 96.1939 208.482 96.018 208.535 95.8422C208.658 95.3148 208.957 94.8929 209.379 94.5413C211.788 92.6426 213.897 90.1111 215.673 86.9115C215.691 86.8763 215.673 86.8234 215.673 86.7883C215.638 86.7531 215.603 86.7181 215.55 86.7181H210.926C210.399 86.7181 209.959 86.5246 209.573 86.1554C209.186 85.7686 208.992 85.3293 208.992 84.8019V84.0107C208.992 83.4657 209.186 83.0085 209.573 82.6393C209.959 82.2702 210.399 82.0769 210.926 82.0769H217.677C217.853 82.0769 217.959 82.0065 218.011 81.8483C218.293 81.1275 218.556 80.3541 218.802 79.5278C218.961 79.0356 219.259 78.6311 219.717 78.3498C220.051 78.1565 220.384 78.0509 220.736 78.0509C220.894 78.0509 221.035 78.0686 221.193 78.1213L222.529 78.4552C223.021 78.5607 223.408 78.8422 223.672 79.2993C223.83 79.5805 223.9 79.8618 223.9 80.1431C223.9 80.3189 223.866 80.4946 223.795 80.7056C223.725 80.8638 223.654 81.0747 223.567 81.3384H223.549ZM231.759 97.4949C231.583 97.4949 231.495 97.5652 231.495 97.7234V103.859C231.495 104.017 231.583 104.087 231.759 104.087H237.015C237.543 104.087 237.982 104.281 238.369 104.668C238.756 105.054 238.932 105.494 238.932 106.021V106.672C238.932 107.199 238.738 107.639 238.369 108.025C237.982 108.412 237.543 108.588 237.015 108.588H220.841C220.314 108.588 219.875 108.395 219.488 108.025C219.101 107.639 218.908 107.199 218.908 106.672V106.021C218.908 105.494 219.101 105.054 219.488 104.668C219.875 104.281 220.314 104.087 220.841 104.087H226.362C226.538 104.087 226.625 104.017 226.625 103.859V97.7234C226.625 97.5652 226.538 97.4949 226.362 97.4949H222.125C221.597 97.4949 221.158 97.3014 220.771 96.9322C220.384 96.5454 220.191 96.1059 220.191 95.5785V94.928C220.191 94.4006 220.384 93.9613 220.771 93.5745C221.158 93.1877 221.597 92.9942 222.125 92.9942H226.362C226.538 92.9942 226.625 92.9239 226.625 92.7656V89.9C226.625 89.355 226.819 88.8981 227.188 88.5289C227.557 88.1597 228.014 87.9662 228.559 87.9662H229.596C230.141 87.9662 230.599 88.1597 230.968 88.5289C231.337 88.8981 231.53 89.355 231.53 89.9V92.7656C231.53 92.9239 231.618 92.9942 231.794 92.9942H235.767C236.295 92.9942 236.734 93.1877 237.121 93.5745C237.508 93.9613 237.684 94.4006 237.684 94.928V95.5785C237.684 96.1059 237.49 96.5454 237.121 96.9322C236.734 97.3189 236.295 97.4949 235.767 97.4949H231.794H231.759Z" fill="#70D44B"/>
<path d="M269.047 93.2579C269.398 92.8887 269.838 92.6778 270.348 92.6427H270.506C270.963 92.6427 271.367 92.8009 271.719 93.0998L272.246 93.5921C272.633 93.9437 272.826 94.3832 272.826 94.893C272.826 95.4028 272.633 95.8423 272.246 96.1939C271.174 97.1257 270.136 97.9871 269.117 98.7782C268.994 98.8837 268.959 99.0242 269.012 99.1649C269.891 101.239 270.963 102.874 272.246 104.087C272.668 104.457 272.862 104.931 272.862 105.494C272.862 105.933 272.721 106.303 272.44 106.637C272.141 107.006 271.842 107.375 271.561 107.744C271.227 108.166 270.84 108.412 270.348 108.5C270.242 108.518 270.154 108.535 270.084 108.535C269.697 108.535 269.346 108.377 269.047 108.078C267.5 106.531 266.269 104.597 265.337 102.259C264.405 99.9209 263.685 97.1256 263.14 93.8908C263.122 93.7326 263.034 93.6975 262.876 93.7678L262.753 93.803C262.595 93.8733 262.524 93.9963 262.524 94.1545V107.463C262.524 108.008 262.331 108.465 261.962 108.834C261.575 109.203 261.135 109.397 260.608 109.397H259.852C259.324 109.397 258.885 109.203 258.499 108.834C258.112 108.465 257.918 108.008 257.918 107.463V95.596C257.918 95.596 257.848 95.6136 257.813 95.596C257.092 94.2072 256.266 92.9942 255.334 91.9394C255.316 91.9218 255.281 91.9218 255.228 91.9394C255.193 91.9394 255.158 91.9746 255.158 92.0274C255.088 97.5652 255 101.415 254.859 103.525C254.736 105.652 254.473 107.006 254.068 107.621C253.488 108.5 252.714 109.027 251.748 109.221C251.361 109.309 250.868 109.379 250.288 109.414H250.165C249.691 109.414 249.251 109.238 248.864 108.887C248.477 108.535 248.196 108.078 248.055 107.516C247.968 107.146 247.862 106.795 247.739 106.443C247.616 106.092 247.493 105.775 247.37 105.494C247.352 105.459 247.317 105.424 247.264 105.424C247.212 105.424 247.194 105.441 247.159 105.494C246.772 106.373 246.315 107.199 245.823 108.008C245.559 108.43 245.172 108.658 244.645 108.694H244.522C244.065 108.694 243.66 108.553 243.309 108.272C243.115 108.096 242.905 107.92 242.694 107.744C242.272 107.41 242.025 106.988 241.938 106.478C241.92 106.355 241.902 106.232 241.902 106.127C241.902 105.74 242.008 105.371 242.237 105.054C243.362 103.191 244.135 101.222 244.522 99.1825C244.909 97.1432 245.102 94.9633 245.102 92.6602V87.4037C245.102 87.2279 245.032 87.14 244.874 87.14H243.889C243.344 87.14 242.887 86.9641 242.518 86.5773C242.149 86.2081 241.955 85.7512 241.955 85.2062V84.5907C241.955 84.0633 242.149 83.624 242.518 83.2372C242.887 82.8504 243.344 82.6569 243.889 82.6569H246.297C246.456 82.6569 246.526 82.5866 246.526 82.4284V79.6156C246.526 79.0881 246.719 78.6486 247.106 78.2618C247.493 77.8751 247.932 77.6818 248.46 77.6818H249.269C249.796 77.6818 250.235 77.8751 250.622 78.2618C251.009 78.6486 251.185 79.0881 251.185 79.6156V82.4284C251.185 82.5866 251.255 82.6569 251.414 82.6569H254.015C254.543 82.6569 254.982 82.8504 255.369 83.2372C255.756 83.624 255.931 84.0633 255.931 84.5907V84.7491C255.931 84.7491 255.931 84.8193 255.984 84.8369C256.019 84.8369 256.037 84.837 256.072 84.7843C256.986 83.2548 257.707 81.5318 258.252 79.598C258.41 79.0705 258.692 78.6663 259.131 78.3498C259.483 78.1564 259.835 78.0509 260.204 78.0509C260.327 78.0509 260.467 78.0509 260.59 78.0861L261.627 78.2794C262.12 78.3673 262.524 78.6312 262.806 79.0883C262.999 79.3696 263.104 79.6682 263.104 80.0023C263.104 80.1605 263.087 80.3188 263.034 80.4946C262.946 80.7759 262.858 81.0571 262.77 81.3032C262.753 81.3735 262.77 81.4264 262.806 81.4616C262.841 81.5143 262.893 81.5318 262.928 81.5318H270.629C271.156 81.5318 271.596 81.7253 271.982 82.112C272.369 82.4988 272.545 82.9384 272.545 83.4658V83.993C272.545 84.538 272.352 84.9952 271.982 85.3644C271.596 85.7336 271.156 85.9268 270.629 85.9268H261.17C261.012 85.9268 260.907 85.9972 260.819 86.1554C260.186 87.3684 259.5 88.476 258.727 89.4781C258.428 89.9 258.006 90.1286 257.461 90.1638H257.338C256.846 90.1638 256.406 90.0055 256.037 89.7067C255.457 89.232 254.894 88.8101 254.367 88.4409C254.174 88.3179 254.068 88.1246 254.033 87.8784C253.998 87.6323 254.068 87.4212 254.226 87.2454C254.244 87.2278 254.261 87.2104 254.226 87.1752C254.226 87.1576 254.191 87.14 254.173 87.14H249.55C249.374 87.14 249.286 87.2279 249.286 87.4037V89.5837C249.286 89.7419 249.374 89.8122 249.55 89.8122H253.523C253.963 89.8122 254.332 89.9705 254.63 90.2693C254.929 90.5682 255.088 90.9374 255.088 91.3769C255.088 91.5 255.158 91.5702 255.281 91.5351C257.285 91.1307 259.342 90.5153 261.452 89.6891C263.562 88.8804 265.372 87.9837 266.902 87.0344C267.394 86.7355 267.939 86.5773 268.502 86.5773C269.064 86.5773 269.556 86.7356 270.031 87.0696L270.383 87.3334C270.77 87.6322 270.963 88.0365 270.963 88.5463C270.963 89.0034 270.769 89.3726 270.4 89.6539C269.451 90.3219 268.379 90.99 267.201 91.6405C267.042 91.7284 266.99 91.8515 267.007 91.9922C267.201 93.1173 267.359 93.9611 267.499 94.5061C267.499 94.5764 267.535 94.6117 267.587 94.6292C267.64 94.6292 267.693 94.6292 267.728 94.5764C268.168 94.1369 268.572 93.7151 268.941 93.3107L269.047 93.2579ZM250.816 94.4007C250.816 94.2249 250.746 94.1369 250.587 94.1369H249.638C249.462 94.1369 249.374 94.2249 249.374 94.4007C249.251 98.5496 248.601 102.048 247.458 104.879C247.388 105.037 247.44 105.125 247.581 105.142C248.214 105.213 248.777 105.248 249.269 105.248C249.656 105.248 249.972 105.072 250.218 104.72C250.394 104.386 250.517 103.49 250.605 101.995C250.693 100.501 250.763 97.9695 250.798 94.4183L250.816 94.4007Z" fill="#70D44B"/>
<path d="M282.583 85.9444C282.882 85.4873 283.304 85.171 283.814 84.9952C284.077 84.9073 284.323 84.872 284.57 84.872C284.851 84.872 285.132 84.9249 285.378 84.9952L286.398 85.3819C286.873 85.5577 287.189 85.8917 287.347 86.3663C287.418 86.5421 287.453 86.718 287.453 86.8938C287.453 87.1751 287.365 87.4563 287.189 87.7025C286.451 88.8276 285.695 89.9175 284.904 90.9724C284.798 91.0954 284.746 91.2539 284.746 91.3945V106.76C284.746 107.287 284.552 107.726 284.183 108.113C283.796 108.5 283.357 108.676 282.829 108.676H281.792C281.265 108.676 280.825 108.482 280.438 108.113C280.052 107.744 279.858 107.287 279.858 106.76V96.8796C279.858 96.8796 279.841 96.8091 279.788 96.7916C279.753 96.7916 279.7 96.7916 279.665 96.7916C279.559 96.897 279.401 97.0553 279.173 97.2487C278.874 97.53 278.504 97.6706 278.1 97.6706C278.03 97.6706 277.959 97.6705 277.871 97.6354C277.379 97.5651 276.975 97.3365 276.658 96.9145C276.36 96.5102 276.043 96.1059 275.709 95.7016C275.428 95.35 275.287 94.9808 275.287 94.5588C275.287 94.4885 275.287 94.4358 275.322 94.3655C275.357 93.8381 275.586 93.4338 275.973 93.1173C277.168 92.1328 278.346 91.0252 279.524 89.7594C280.702 88.4936 281.722 87.2102 282.583 85.9092V85.9444ZM281.177 78.4904C281.546 78.0509 282.003 77.7696 282.548 77.6114C282.759 77.541 282.987 77.506 283.198 77.506C283.497 77.506 283.814 77.5763 284.112 77.6993L285.255 78.1564C285.695 78.3498 285.976 78.6837 286.099 79.1408C286.117 79.2639 286.134 79.4047 286.134 79.5278C286.134 79.8266 286.029 80.1255 285.8 80.4068C284.798 81.5671 283.708 82.7098 282.513 83.8701C281.335 84.9952 280.175 86.0148 279.014 86.9114C278.715 87.1575 278.381 87.2629 278.03 87.2629C277.907 87.2629 277.766 87.2455 277.643 87.1928C277.151 87.0873 276.747 86.8059 276.465 86.3839C276.307 86.1026 276.149 85.839 275.973 85.5929C275.727 85.2589 275.621 84.9073 275.621 84.5205C275.621 84.415 275.621 84.3094 275.657 84.1864C275.745 83.6941 275.991 83.2899 276.412 82.9734C277.256 82.323 278.118 81.5846 278.997 80.7583C279.841 79.9496 280.579 79.1936 281.177 78.4728V78.4904ZM304.418 88.0718C304.945 88.0718 305.385 88.2651 305.772 88.6519C306.158 89.0386 306.334 89.4782 306.334 90.0056V90.7966C306.334 91.324 306.141 91.7636 305.772 92.1503C305.385 92.5371 304.945 92.713 304.418 92.713H302.238C302.062 92.713 301.974 92.8008 301.974 92.9766V103.244C301.974 104.545 301.834 105.547 301.535 106.232C301.236 106.918 300.691 107.445 299.882 107.814C298.985 108.236 297.403 108.482 295.118 108.57H295.012C294.52 108.57 294.063 108.412 293.677 108.078C293.255 107.709 292.973 107.252 292.832 106.707C292.727 106.285 292.604 105.863 292.481 105.441C292.41 105.283 292.375 105.142 292.375 104.984C292.375 104.72 292.463 104.492 292.639 104.263C292.885 103.894 293.219 103.701 293.659 103.701H293.694C294.432 103.718 295.276 103.736 296.208 103.736C296.735 103.736 296.999 103.525 296.999 103.12V92.9766C296.999 92.8008 296.928 92.713 296.77 92.713H289.791C289.263 92.713 288.824 92.5195 288.437 92.1503C288.05 91.7636 287.857 91.324 287.857 90.7966V90.0056C287.857 89.4782 288.05 89.0386 288.437 88.6519C288.824 88.2651 289.263 88.0718 289.791 88.0718H304.435H304.418ZM303.592 78.8069C304.119 78.8069 304.559 79.0002 304.945 79.387C305.332 79.7738 305.508 80.2133 305.508 80.7407V81.4968C305.508 82.0242 305.315 82.4635 304.945 82.8503C304.559 83.237 304.119 83.413 303.592 83.413H291.162C290.635 83.413 290.195 83.2194 289.808 82.8503C289.422 82.4635 289.229 82.0242 289.229 81.4968V80.7407C289.229 80.2133 289.422 79.7738 289.808 79.387C290.195 79.0002 290.635 78.8069 291.162 78.8069H303.592Z" fill="#70D44B"/>
<defs>
<filter id="filter0_d_86_154000" x="-0.000234365" y="9.77516e-06" width="340.221" height="56.7334" filterUnits="userSpaceOnUse" color-interpolation-filters="sRGB">
<feFlood flood-opacity="0" result="BackgroundImageFix"/>
<feColorMatrix in="SourceAlpha" type="matrix" values="0 0 0 0 0 0 0 0 0 0 0 0 0 0 0 0 0 0 127 0" result="hardAlpha"/>
<feOffset dx="2.53" dy="2.53"/>
<feGaussianBlur stdDeviation="1.27"/>
<feColorMatrix type="matrix" values="0 0 0 0 0.137255 0 0 0 0 0.0941176 0 0 0 0 0.0823529 0 0 0 0.75 0"/>
<feBlend mode="normal" in2="BackgroundImageFix" result="effect1_dropShadow_86_154000"/>
<feBlend mode="normal" in="SourceGraphic" in2="effect1_dropShadow_86_154000" result="shape"/>
</filter>
</defs>
</svg>
