<svg width="321" height="32" viewBox="0 0 321 32" fill="none" xmlns="http://www.w3.org/2000/svg">
<path d="M0 1H321" stroke="#1CACC6" stroke-width="2" stroke-miterlimit="10"/>
<path d="M27.7498 11.4211V20.0017L29.5608 20.5263C29.4084 20.9156 29.2561 21.2541 29.1207 21.5587H36.1781V31.104H33.7749V30.4947H23.4511V31.104H21.0478V21.5587H26.3959C26.4805 21.2879 26.5482 21.051 26.6159 20.7802H25.4312V18.4108C25.0081 18.7493 24.5681 19.0539 24.1281 19.3586C22.6895 20.2894 21.4201 20.9494 20.2862 21.3895L19.1692 19.4093C20.1847 19.037 21.3525 18.4446 22.6725 17.6492C23.7557 16.9891 24.6696 16.3122 25.4482 15.6014V14.5013C24.8897 14.9921 24.3312 15.449 23.705 15.8891C22.3849 16.7691 21.1832 17.4292 20.117 17.8692L19 15.8891C19.9478 15.5337 21.0309 14.9413 22.2326 14.1459C22.4695 13.9935 22.7233 13.8412 22.9433 13.655H19.2708V11.4041H27.7668L27.7498 11.4211ZM33.7749 24.9097V23.8943H23.4511V24.9097H33.7749ZM33.7749 28.2777V27.1607H23.4511V28.2777H33.7749ZM28.6299 13.7566V11.3364H37.3798V20.8817H35.0442V18.1908C34.655 18.4954 34.2319 18.8001 33.7918 19.0878C32.421 19.9678 31.1685 20.611 30.0685 21.051L28.9515 19.0708C29.9331 18.7154 31.067 18.14 32.3194 17.3615C33.3687 16.7014 34.2995 16.0414 35.0442 15.3644V14.3659C34.4349 14.9244 33.7242 15.449 32.9795 15.9229C31.5748 16.803 30.3223 17.4461 29.2222 17.8523L28.1053 15.8721C29.1038 15.5167 30.2378 14.9413 31.5071 14.1797C31.744 14.0443 31.964 13.892 32.184 13.7397H28.613L28.6299 13.7566Z" fill="#595757"/>
<path d="M59.6013 14.0799H60.6845V15.8908H59.4828L59.3136 18.3956H48.0082C48.0589 18.5649 48.0927 18.7003 48.1435 18.8187L46.0788 19.6819C45.9434 19.1741 45.7911 18.7003 45.6557 18.2095V31.0381H43.2524V17.9048C43.0493 19.3096 42.7616 20.6127 42.3893 21.8482L40.3245 20.8158C40.8491 18.9203 41.2045 17.0248 41.3568 15.1462L43.2524 15.6031V11.2705H45.6557V15.6031L46.688 15.1462C47.1788 16.1278 47.6189 17.194 47.9912 18.3279L48.2959 15.9078H47.1111V14.0969H48.5159L48.8205 11.609H59.8213L59.6182 14.0969L59.6013 14.0799ZM59.6521 18.988V28.364H57.9427C58.0781 28.4148 58.2135 28.4487 58.332 28.4656C59.0766 28.6856 59.8552 28.8379 60.5999 28.9564L59.2967 31.2073C58.5181 30.9873 57.7734 30.7165 57.0457 30.4119C56.1826 30.0396 55.3871 29.6503 54.6425 29.2272L55.4548 28.364H51.4438L52.4761 29.7349C51.0714 30.3442 49.4806 30.835 47.7712 31.2073L46.6541 29.1426C47.7034 28.9733 48.7359 28.7025 49.8021 28.381H47.9235V19.0049H59.6352L59.6521 18.988ZM57.2318 21.5605V20.9681H50.3606V21.5605H57.2318ZM57.2318 23.896V23.3714H50.3606V23.896H57.2318ZM57.2318 26.3839V25.7069H50.3606V26.3839H57.2318ZM52.6285 15.8908H50.4791L50.3945 16.5678H52.5269L52.6285 15.8908ZM50.733 14.0799H52.9162L53.0177 13.403H50.8176L50.733 14.0799ZM54.8456 15.8908L54.744 16.5678H57.0796L57.1472 15.8908H54.8625H54.8456ZM55.1332 14.0799H57.3334L57.4011 13.403H55.2517L55.1502 14.0799H55.1332Z" fill="#595757"/>
<path d="M64.8816 14.5187V11.2354H67.2848V14.5187H68.9435V16.9219H67.2848V20.3068C67.7756 20.1375 68.2326 19.9514 68.6726 19.7652L68.9942 21.83C68.4188 22.1346 67.8433 22.4392 67.2848 22.7269V28.0074C67.2848 29.1751 67.1156 29.9706 66.7771 30.3767C66.3879 30.8676 65.6601 31.1045 64.6277 31.1045C64.0523 31.1045 63.5108 31.0368 63.003 30.9353L62.563 28.5151C63.1384 28.6843 63.7308 28.7859 64.3062 28.7859C64.5263 28.7859 64.6955 28.7012 64.797 28.5151C64.8647 28.2781 64.9155 27.9058 64.9155 27.415V23.7593C64.4247 23.9624 63.9508 24.1317 63.46 24.3178L62.5799 21.83C63.3754 21.6099 64.1708 21.3899 64.9155 21.153V16.9219H62.7661V14.5187H64.9155H64.8816ZM75.0362 11.2523V19.9344C75.0362 22.3715 74.6808 24.6056 74.0208 26.6026C73.4115 28.4474 72.633 29.9198 71.6852 31.1214L69.5358 29.4628C70.5005 28.2781 71.2282 26.9242 71.7529 25.4349C70.8897 25.7395 70.0097 26.0272 69.0957 26.298L68.2326 23.8101C69.7219 23.5055 71.1098 23.167 72.396 22.7777C72.4806 22.2531 72.5483 21.7284 72.5991 21.153H69.5358V18.7328H72.633V16.668H69.4512V14.2648H72.633V11.2523H75.0362ZM78.8103 11.2523V14.2648H82.1614V16.668H78.8103V18.7328H82.1614V21.153H78.8103V23.5563H82.4999V25.9595H78.8103V31.1383H76.3055V11.2692H78.8103V11.2523Z" fill="#595757"/>
<path d="M101.59 17.3631V19.7663H96.09V22.4235H101.861V24.759H96.09V28.1777C97.2409 28.2623 98.5609 28.2793 100.101 28.2793C101.726 28.2793 103.181 28.1947 104.434 28.0085L103.655 30.8518H100.084C97.2239 30.8518 95.0407 30.7164 93.5683 30.4625C92.3328 30.2425 91.2835 29.8532 90.4035 29.227C89.7942 28.787 89.2526 28.2793 88.7956 27.67C88.1356 28.9393 87.3401 30.0732 86.4431 31.1226L84.5476 29.3116C85.6308 28.0423 86.46 26.7561 87.0524 25.436C87.6955 24.0143 88.1017 22.4742 88.3217 20.7987L90.742 21.3064C90.5727 22.6942 90.2511 23.9636 89.8619 25.1652C90.3019 25.8252 90.7589 26.3499 91.2497 26.7222C91.9097 27.2976 92.7052 27.6869 93.5852 27.8731V19.7833H87.6448V17.38H101.573L101.59 17.3631ZM95.9885 11.1519V12.8951H104.061V17.0077H101.573V15.2983H87.6448V17.0077H85.1569V12.8951H93.3144V11.1519H95.9715H95.9885Z" fill="#595757"/>
<path d="M115.079 14.4353V16.8386H106.736V14.4353H115.079ZM114.301 31.1227H111.999V30.2596H109.85V31.1227H107.514V23.6422H114.318V31.1227H114.301ZM114.132 17.5156V19.8511H107.683V17.5156H114.132ZM114.03 20.5281V22.8636H107.667V20.5281H114.03ZM114.03 11.609V13.9107H107.853V11.609H114.03ZM111.999 28.0087V25.8593H109.85V28.0087H111.999ZM119.97 13.5891L118.312 14.3676H121.104C121.544 13.386 121.934 12.3367 122.272 11.2705L125.115 12.049C124.726 12.9122 124.303 13.6738 123.88 14.3846H126.232V16.6863H122.12V18.9372H126.063V21.2558H122.12V23.9976H126.588V26.3331H122.12V31.1566H119.615V26.3331H115.232V23.9976H119.615V21.2558H115.739V18.9372H119.615V16.6863H115.418V14.3846H117.398C117.093 13.6738 116.721 13.0137 116.281 12.4044L118.6 11.2874C119.124 11.9982 119.581 12.7768 119.987 13.623L119.97 13.5891Z" fill="#595757"/>
<path d="M134.407 12.2013C133.679 13.7922 133.002 15.1631 132.359 16.3139C132.63 16.517 132.867 16.6863 133.087 16.8725C133.645 15.8231 134.136 14.7908 134.576 13.7753L136.979 14.7907C135.828 16.9401 134.762 18.8357 133.73 20.4604C134.119 20.4096 134.508 20.3927 134.881 20.3589C134.796 20.0542 134.678 19.7496 134.593 19.428L136.742 18.7511C137.047 19.6819 137.284 20.6635 137.504 21.679V12.1336H148.149V31.055H145.746V29.8365H139.89V31.055H137.487V28.144L135.236 28.8887C135.033 27.5009 134.745 26.2316 134.373 25.03V31.0381H131.97V24.81C131.614 26.7393 131.259 28.3471 130.937 29.6503L128.686 28.9733C129.126 27.2132 129.482 25.47 129.719 23.7437L131.97 24.3191V22.9314C131.073 23.0498 130.142 23.1344 129.228 23.2191L128.788 20.8158C129.516 20.765 130.21 20.7312 130.87 20.6804C131.191 20.1558 131.513 19.648 131.817 19.1234C130.717 18.2602 129.6 17.414 128.449 16.5339L129.905 14.6384C130.074 14.7738 130.277 14.9092 130.447 15.0108C131.107 13.7584 131.665 12.506 132.139 11.2705L134.356 12.2183L134.407 12.2013ZM137.521 22.6436L135.456 23.2868C135.405 22.999 135.372 22.7113 135.321 22.4575C135.016 22.5082 134.712 22.5421 134.424 22.5929V24.1499L136.319 23.5576C136.827 24.8269 137.216 26.2147 137.538 27.6871V22.6436H137.521ZM141.633 19.5803V14.4353H139.924V19.5803H141.633ZM141.633 27.5009V21.9159H139.924V27.5009H141.633ZM144.054 19.5803H145.763V14.4353H144.054V19.5803ZM145.763 27.5009V21.9159H144.054V27.5009H145.763Z" fill="#595757"/>
<path d="M160.284 14.434V16.9219H150.908V14.434H160.284ZM159.421 31.0199H157.001V30.2414H153.836V31.0199H151.433V23.6239H159.421V31.0199ZM159.252 17.5143V19.9344H151.5V17.5143H159.252ZM159.167 20.5268V22.947H151.602V20.5268H159.167ZM159.167 11.5061V13.9094H151.856V11.5061H159.167ZM157.001 28.0074V25.9426H153.836V28.0074H157.001ZM163.973 18.0389V11.2354H166.546V18.0389H170.591V20.6114H166.546V31.0199H163.973V20.6114H159.742V18.0389H163.973Z" fill="#595757"/>
<path d="M181.422 11.6913V11.082H183.741V11.6913H190.798V14.0099H192.508V15.7193H190.798V18.0548H183.741V18.4102H190.714V20.1196H183.741V20.5427H192.169V22.3536H173.011V20.5427H181.439V20.1196H174.636V18.4102H181.439V18.0548H175.076V16.1593H181.439V15.7193H172.926V14.0099H181.439V13.5868H175.076V11.6913H181.439H181.422ZM192.339 29.2249V31.1204H172.909V29.2249H192.339ZM190.798 22.6921V28.8695H174.619V22.6921H190.798ZM181.524 24.9092V24.4861H177.056V24.9092H181.524ZM181.524 27.0586V26.5509H177.056V27.0586H181.524ZM183.741 13.993H188.48V13.5699H183.741V13.993ZM183.741 16.1593H188.48V15.7193H183.741V16.1593ZM183.826 24.9092H188.378V24.4861H183.826V24.9092ZM183.826 27.0586H188.378V26.5509H183.826V27.0586Z" fill="#595757"/>
<path d="M203.712 24.9281L202.883 23.5064C203.543 23.2356 204.135 22.7787 204.66 22.0678H203.052V18.9199H206.42V21.1201C206.42 22.7279 205.523 23.9972 203.712 24.9281Z" fill="#595757"/>
<path d="M223.886 12.2845V14.6201H221.229C220.839 16.431 220.433 17.9711 219.993 19.2573H224.123V19.8666C225.392 18.7496 226.407 17.5141 227.118 16.194C227.355 15.754 227.575 15.2632 227.778 14.7724H226.627V16.7525H224.123V12.5553H228.438C228.523 12.1153 228.591 11.6583 228.675 11.1675L231.095 11.5229C231.028 11.8952 230.96 12.2506 230.926 12.5553H236.596V16.7525H234.091V14.7724H230.334C230.029 15.7032 229.674 16.5494 229.285 17.3449C229.2 17.4972 229.132 17.6495 229.048 17.7849H230.723C230.943 17.1756 231.146 16.5325 231.282 15.8894L233.786 16.414C233.651 16.9048 233.516 17.3618 233.346 17.7849H236.19V20.0358H232.669V21.1528H235.767V23.3699H232.669V24.5715H235.767V26.7886H232.669V27.9056H236.46V30.2412H227.677V31.0197H225.274V21.9991C225.104 22.1345 224.969 22.236 224.833 22.3375L224.156 21.3898V30.2581H221.855V29.0396H220.552V30.9351H218.233V23.2345C218.03 23.573 217.861 23.8269 217.708 24.0469L216.439 21.8298C216.896 21.0174 217.404 19.7989 217.928 18.1741C218.301 17.0064 218.605 15.8217 218.876 14.6031H217.201V12.2676H223.903L223.886 12.2845ZM221.821 26.7209V21.4913H220.518V26.7209H221.821ZM230.249 20.0189H227.66V21.1359H230.249V20.0189ZM230.249 23.3699H227.66V24.5715H230.249V23.3699ZM230.249 27.9226V26.8056H227.66V27.9226H230.249Z" fill="#595757"/>
<path d="M255.686 20.968V28.6854H254.722C254.959 28.7531 255.212 28.8039 255.449 28.8378C256.414 29.0409 257.345 29.1593 258.259 29.2947L257.04 31.3426C256.025 31.1395 255.06 30.9025 254.112 30.6317C252.962 30.2763 251.912 29.9209 250.948 29.5317L251.98 28.6685H245.261L246.293 29.5317C244.55 30.2086 242.468 30.7841 240.014 31.241L238.897 29.2778C240.167 29.1086 241.385 28.9055 242.536 28.6685H240.793V20.951H255.669L255.686 20.968ZM249.915 11.1519V12.0996H258.428V15.4676H255.771V14.1644H241.673V15.4676H239.016V12.0996H247.275V11.1519H249.932H249.915ZM255.111 16.7538H257.396V18.3108H254.959L254.739 20.5279H241.318L241.741 18.3108H239.524V16.7538H242.062L242.452 14.6213H255.348L255.128 16.7538H255.111ZM253.351 23.1004V22.5927H243.145V23.1004H253.351ZM253.351 25.0806V24.5728H243.145V25.0806H253.351ZM253.351 27.0607V26.553H243.145V27.0607H253.351ZM243.789 18.3108L243.687 18.8186H246.784L246.92 18.3108H243.789ZM244.127 16.7538H247.275L247.377 16.3307H244.212L244.127 16.7538ZM249.12 18.3108L248.984 18.8186H252.708L252.775 18.3108H249.12ZM249.509 16.7538H253.012L253.08 16.3307H249.628L249.526 16.7538H249.509Z" fill="#595757"/>
<path d="M264.436 12.8109V11.2539H266.857V12.8109H270.106V15.028H266.857V16.4158H270.648V18.6329H269.344C269.209 19.1237 269.057 19.6145 268.904 20.1561C268.82 20.4607 268.701 20.7315 268.617 20.9685H270.208V23.1856H266.857V24.658H270.461V26.875H266.857V31.1061H264.436V26.875H260.916V24.658H264.436V23.1856H261.271V20.9685H262.389C262.219 20.173 262.033 19.3776 261.813 18.6329H260.73V16.4158H264.419V15.028H261.17V12.8109H264.419H264.436ZM266.112 20.9685C266.247 20.5454 266.349 20.1392 266.484 19.6991C266.569 19.3437 266.637 18.9883 266.721 18.6498H264.419C264.623 19.3945 264.809 20.1899 264.995 20.9854H266.112V20.9685ZM272.509 14.7065V11.2539H274.845V14.7065H278.957C278.67 17.9221 278.534 20.6638 278.534 22.9655C278.534 25.2672 278.551 26.875 278.619 27.7551C278.67 28.2459 278.704 28.4659 278.788 28.4659C278.839 28.4659 278.907 28.2629 278.957 27.8736C279.025 27.3659 279.059 26.435 279.11 25.098L281.09 25.9611C280.921 28.0767 280.599 29.4306 280.142 30.0907C279.753 30.5984 279.279 30.8692 278.771 30.8692C277.993 30.8692 277.4 30.4799 277.011 29.7183C276.487 28.8552 276.182 27.0612 276.131 24.2856L274.98 25.7073C274.625 25.2842 274.32 24.8949 274.016 24.5395C273.863 25.1826 273.711 25.7581 273.525 26.2827C272.865 28.2629 271.9 29.8876 270.597 31.2077L268.769 29.3968C269.937 28.2121 270.817 26.672 271.426 24.7764C271.646 24.0995 271.849 23.304 272.002 22.407C271.257 21.6962 270.529 21.0362 269.801 20.4438L271.511 18.6329C271.782 18.8529 272.052 19.056 272.34 19.276C272.391 18.5652 272.408 17.8375 272.425 17.0928H270.901V14.6895H272.442L272.509 14.7065ZM276.148 22.864C276.148 21.1716 276.233 19.2591 276.453 17.0928H274.845C274.794 18.616 274.743 19.9699 274.608 21.2054C275.132 21.7301 275.657 22.2886 276.148 22.864Z" fill="#595757"/>
<path d="M288.858 12.2862C288.35 13.1832 287.69 14.1141 286.878 15.028C285.761 16.1788 284.83 16.9912 284.136 17.4482L282.511 15.2988C283.256 14.7741 284.052 14.0972 284.881 13.2509C285.609 12.5063 286.184 11.7616 286.624 11L288.875 12.2693L288.858 12.2862ZM290.314 17.0081C289.704 18.159 288.892 19.3268 287.826 20.5115V31.123H285.321V22.8639C284.965 23.1516 284.661 23.3717 284.39 23.5409L282.647 21.29C283.628 20.613 284.678 19.7329 285.778 18.6329C286.743 17.6682 287.487 16.6696 288.063 15.705L290.314 17.0081ZM302.618 17.702V20.2068H298.386V27.9243C298.386 29.1936 298.116 30.0399 297.642 30.4122C297.117 30.8691 296.186 31.123 294.866 31.123C293.817 31.123 292.835 31.0384 291.938 30.8522L291.515 28.1951C292.615 28.4828 293.732 28.6182 294.866 28.6182C295.475 28.6182 295.814 28.2628 295.814 27.5181V20.2068H290.144V17.702H302.618ZM301.585 11.9478V14.351H291.261V11.9478H301.585Z" fill="#595757"/>
</svg>
