<svg width="259" height="38" viewBox="0 0 259 38" fill="none" xmlns="http://www.w3.org/2000/svg">
<path d="M0 1H259" stroke="#1CACC6" stroke-width="2" stroke-miterlimit="10"/>
<path d="M22.101 21.3388V28.2647L23.5627 28.6882C23.4398 29.0023 23.3168 29.2756 23.2075 29.5214H28.9039V37.226H26.9642V36.7342H18.6313V37.226H16.6915V29.5214H21.0082C21.0765 29.3029 21.1312 29.1116 21.1858 28.8931H20.2296V26.9806C19.888 27.2538 19.5329 27.4997 19.1777 27.7456C18.0166 28.4969 16.992 29.0297 16.0767 29.3849L15.1751 27.7866C15.9948 27.486 16.9374 27.0079 18.0029 26.3659C18.8772 25.8331 19.6148 25.2867 20.2432 24.713V23.825C19.7924 24.2212 19.3416 24.59 18.8362 24.9452C17.7707 25.6555 16.8008 26.1883 15.9402 26.5435L15.0386 24.9452C15.8036 24.6583 16.6778 24.1802 17.6477 23.5382C17.839 23.4152 18.0439 23.2923 18.2215 23.142H15.2571V21.3251H22.1147L22.101 21.3388ZM26.9642 32.2262V31.4066H18.6313V32.2262H26.9642ZM26.9642 34.9447V34.0431H18.6313V34.9447H26.9642ZM22.8114 23.224V21.2705H29.8739V28.975H27.9887V26.803C27.6745 27.0489 27.333 27.2948 26.9778 27.527C25.8713 28.2374 24.8605 28.7565 23.9725 29.1116L23.071 27.5133C23.8633 27.2265 24.7785 26.762 25.7894 26.1336C26.6363 25.6009 27.3876 25.0681 27.9887 24.5217V23.7157C27.4969 24.1665 26.9232 24.59 26.3222 24.9725C25.1883 25.6829 24.1774 26.202 23.2895 26.5298L22.3879 24.9315C23.1939 24.6446 24.1092 24.1802 25.1337 23.5655C25.325 23.4562 25.5025 23.3332 25.6801 23.2103H22.7977L22.8114 23.224Z" fill="#595757"/>
<path d="M47.8098 23.4854H48.6841V24.9471H47.7142L47.5776 26.9688H38.4524C38.4934 27.1054 38.5207 27.2147 38.5616 27.3103L36.8951 28.007C36.7858 27.5972 36.6629 27.2147 36.5536 26.8186V37.1732H34.6138V26.5727C34.4499 27.7065 34.2176 28.7584 33.9171 29.7556L32.2505 28.9223C32.674 27.3923 32.9608 25.8623 33.0838 24.346L34.6138 24.7149V21.2178H36.5536V24.7149L37.3869 24.346C37.783 25.1383 38.1382 25.9989 38.4387 26.9142L38.6846 24.9607H37.7284V23.4991H38.8622L39.1081 21.491H47.9874L47.8235 23.4991L47.8098 23.4854ZM47.8509 27.447V35.0149H46.4711C46.5804 35.0559 46.6897 35.0832 46.7853 35.0968C47.3864 35.2744 48.0148 35.3974 48.6158 35.493L47.564 37.3099C46.9356 37.1323 46.3345 36.9137 45.7471 36.6678C45.0504 36.3673 44.4084 36.0531 43.8073 35.7116L44.463 35.0149H41.2255L42.0587 36.1214C40.9249 36.6132 39.6409 37.0093 38.2611 37.3099L37.3595 35.6433C38.2065 35.5067 39.0398 35.2881 39.9004 35.0285H38.384V27.4606H47.8372L47.8509 27.447ZM45.8973 29.5233V29.0452H40.3512V29.5233H45.8973ZM45.8973 31.4085V30.985H40.3512V31.4085H45.8973ZM45.8973 33.4166V32.8702H40.3512V33.4166H45.8973ZM42.1817 24.9471H40.4468L40.3785 25.4935H42.0997L42.1817 24.9471ZM40.6517 23.4854H42.4139L42.4959 22.939H40.72L40.6517 23.4854ZM43.9712 24.9471L43.8893 25.4935H45.7744L45.829 24.9471H43.9849H43.9712ZM44.2034 23.4854H45.9793L46.034 22.939H44.2991L44.2171 23.4854H44.2034Z" fill="#595757"/>
<path d="M52.0722 23.8396V21.1895H54.0119V23.8396H55.3507V25.7794H54.0119V28.5115C54.4081 28.3749 54.7769 28.2246 55.1321 28.0743L55.3917 29.7409C54.9272 29.9868 54.4627 30.2327 54.0119 30.4649V34.727C54.0119 35.6696 53.8753 36.3116 53.6021 36.6395C53.2879 37.0356 52.7005 37.2269 51.8672 37.2269C51.4028 37.2269 50.9657 37.1722 50.5559 37.0903L50.2007 35.1368C50.6651 35.2734 51.1433 35.3554 51.6078 35.3554C51.7853 35.3554 51.9219 35.2871 52.0039 35.1368C52.0585 34.9456 52.0995 34.6451 52.0995 34.2489V31.2982C51.7034 31.4621 51.3209 31.5988 50.9247 31.749L50.2144 29.7409C50.8564 29.5633 51.4985 29.3858 52.0995 29.1945V25.7794H50.3646V23.8396H52.0995H52.0722ZM60.2685 21.2031V28.211C60.2685 30.1781 59.9816 31.9813 59.4489 33.5932C58.9571 35.0822 58.3287 36.2707 57.5637 37.2406L55.8288 35.9018C56.6075 34.9456 57.1949 33.8527 57.6183 32.6506C56.9216 32.8965 56.2113 33.1287 55.4736 33.3473L54.7769 31.3392C55.979 31.0933 57.0992 30.8201 58.1374 30.5059C58.2057 30.0824 58.2604 29.659 58.3014 29.1945H55.8288V27.241H58.3287V25.5745H55.7605V23.6347H58.3287V21.2031H60.2685ZM63.3147 21.2031V23.6347H66.0196V25.5745H63.3147V27.241H66.0196V29.1945H63.3147V31.1343H66.2928V33.0741H63.3147V37.2542H61.293V21.2168H63.3147V21.2031Z" fill="#595757"/>
<path d="M81.7015 26.1365V28.0762H77.2618V30.221H81.92V32.1061H77.2618V34.8655C78.1907 34.9338 79.2562 34.9475 80.4993 34.9475C81.8107 34.9475 82.9855 34.8792 83.9964 34.7289L83.3681 37.0239H80.4857C78.177 37.0239 76.4149 36.9146 75.2264 36.7097C74.2292 36.5321 73.3822 36.2179 72.6719 35.7125C72.1801 35.3573 71.7429 34.9475 71.3741 34.4557C70.8414 35.4802 70.1993 36.3955 69.4753 37.2425L67.9453 35.7808C68.8196 34.7562 69.4889 33.718 69.967 32.6525C70.4861 31.505 70.814 30.2619 70.9916 28.9095L72.9451 29.3194C72.8085 30.4395 72.5489 31.4641 72.2347 32.4339C72.5899 32.9667 72.9587 33.3902 73.3549 33.6907C73.8877 34.1552 74.5297 34.4694 75.2401 34.6196V28.0899H70.4452V26.1501H81.6878L81.7015 26.1365ZM77.1798 21.123V22.5301H83.6959V25.8496H81.6878V24.4699H70.4452V25.8496H68.4371V22.5301H75.0214V21.123H77.1662H77.1798Z" fill="#595757"/>
<path d="M92.5892 23.7723V25.7121H85.8545V23.7723H92.5892ZM91.9608 37.2415H90.103V36.5448H88.3681V37.2415H86.4829V31.2036H91.9745V37.2415H91.9608ZM91.8241 26.2585V28.1436H86.6195V26.2585H91.8241ZM91.7422 28.6901V30.5752H86.6059V28.6901H91.7422ZM91.7422 21.491V23.3488H86.7561V21.491H91.7422ZM90.103 34.728V32.9931H88.3681V34.728H90.103ZM96.537 23.0893L95.1983 23.7176H97.4523C97.8075 22.9253 98.1217 22.0784 98.3949 21.2178L100.69 21.8461C100.376 22.5428 100.034 23.1576 99.6926 23.7313H101.591V25.5891H98.2719V27.406H101.455V29.2775H98.2719V31.4905H101.878V33.3756H98.2719V37.2689H96.2502V33.3756H92.7121V31.4905H96.2502V29.2775H93.1219V27.406H96.2502V25.5891H92.8623V23.7313H94.4607C94.2148 23.1576 93.9142 22.6248 93.559 22.133L95.4305 21.2314C95.854 21.8052 96.2228 22.4336 96.5507 23.1166L96.537 23.0893Z" fill="#595757"/>
<path d="M108.19 21.9691C107.602 23.2532 107.056 24.3597 106.537 25.2886C106.755 25.4525 106.947 25.5891 107.124 25.7394C107.575 24.8924 107.971 24.0592 108.326 23.2395L110.266 24.0591C109.337 25.794 108.477 27.324 107.643 28.6354C107.958 28.5944 108.272 28.5808 108.572 28.5535C108.504 28.3076 108.408 28.0617 108.34 27.8021L110.075 27.2557C110.321 28.007 110.512 28.7993 110.69 29.619V21.9145H119.282V37.1869H117.342V36.2033H112.616V37.1869H110.676V34.8373L108.859 35.4383C108.695 34.3182 108.463 33.2936 108.163 32.3238V37.1732H106.223V32.1462C105.936 33.7035 105.649 35.0012 105.389 36.0531L103.573 35.5067C103.928 34.086 104.215 32.6789 104.406 31.2856L106.223 31.75V30.6299C105.499 30.7255 104.747 30.7938 104.01 30.8621L103.655 28.9223C104.242 28.8813 104.802 28.854 105.335 28.813C105.594 28.3895 105.854 27.9797 106.1 27.5562C105.212 26.8596 104.31 26.1765 103.381 25.4662L104.556 23.9362C104.693 24.0455 104.857 24.1548 104.993 24.2367C105.526 23.2259 105.977 22.215 106.359 21.2178L108.149 21.9828L108.19 21.9691ZM110.703 30.3976L109.037 30.9167C108.996 30.6845 108.968 30.4523 108.928 30.2474C108.682 30.2883 108.436 30.3157 108.204 30.3566V31.6134L109.734 31.1353C110.143 32.1598 110.457 33.28 110.717 34.4685V30.3976H110.703ZM114.023 27.9251V23.7723H112.643V27.9251H114.023ZM114.023 34.3182V29.8102H112.643V34.3182H114.023ZM115.976 27.9251H117.356V23.7723H115.976V27.9251ZM117.356 34.3182V29.8102H115.976V34.3182H117.356Z" fill="#595757"/>
<path d="M129.076 23.7713V25.7794H121.508V23.7713H129.076ZM128.379 37.1586H126.426V36.5302H123.872V37.1586H121.932V31.1889H128.379V37.1586ZM128.243 26.2575V28.211H121.986V26.2575H128.243ZM128.175 28.6891V30.6425H122.068V28.6891H128.175ZM128.175 21.408V23.3478H122.273V21.408H128.175ZM126.426 34.727V33.0604H123.872V34.727H126.426ZM132.054 26.681V21.1895H134.131V26.681H137.395V28.7574H134.131V37.1586H132.054V28.7574H128.639V26.681H132.054Z" fill="#595757"/>
<path d="M146.138 21.5567V21.0649H148.009V21.5567H153.706V23.4282H155.085V24.8079H153.706V26.6931H148.009V26.9799H153.637V28.3596H148.009V28.7012H154.812V30.1628H139.349V28.7012H146.151V28.3596H140.66V26.9799H146.151V26.6931H141.015V25.1631H146.151V24.8079H139.28V23.4282H146.151V23.0867H141.015V21.5567H146.151H146.138ZM154.949 35.709V37.239H139.267V35.709H154.949ZM153.706 30.4361V35.4221H140.646V30.4361H153.706ZM146.22 32.2256V31.8841H142.613V32.2256H146.22ZM146.22 33.9604V33.5506H142.613V33.9604H146.22ZM148.009 23.4145H151.834V23.073H148.009V23.4145ZM148.009 25.1631H151.834V24.8079H148.009V25.1631ZM148.078 32.2256H151.752V31.8841H148.078V32.2256ZM148.078 33.9604H151.752V33.5506H148.078V33.9604Z" fill="#595757"/>
<path d="M164.129 32.2421L163.459 31.0946C163.992 30.876 164.47 30.5072 164.894 29.9334H163.596V27.3926H166.315V29.1684C166.315 30.4662 165.591 31.4907 164.129 32.2421Z" fill="#595757"/>
<path d="M180.413 22.0369V23.922H178.268C177.954 25.3837 177.626 26.6268 177.271 27.665H180.604V28.1568C181.628 27.2552 182.448 26.2579 183.022 25.1924C183.213 24.8373 183.39 24.4411 183.554 24.0449H182.626V25.6432H180.604V22.2554H184.087C184.155 21.9003 184.21 21.5314 184.278 21.1353L186.232 21.4221C186.177 21.7227 186.123 22.0095 186.095 22.2554H190.672V25.6432H188.65V24.0449H185.617C185.371 24.7963 185.084 25.4793 184.77 26.1214C184.702 26.2443 184.647 26.3672 184.579 26.4765H185.931C186.109 25.9847 186.273 25.4656 186.382 24.9465L188.404 25.37C188.295 25.7662 188.185 26.135 188.049 26.4765H190.344V28.2934H187.502V29.195H190.002V30.9845H187.502V31.9544H190.002V33.7439H187.502V34.6455H190.562V36.5307H183.472V37.159H181.533V29.878C181.396 29.9873 181.287 30.0692 181.177 30.1512L180.631 29.3862V36.5443H178.773V35.5608H177.721V37.0907H175.85V30.8752C175.686 31.1484 175.549 31.3533 175.426 31.5309L174.402 29.7414C174.771 29.0857 175.181 28.1021 175.604 26.7907C175.905 25.8481 176.15 24.8919 176.369 23.9083H175.017V22.0232H180.426L180.413 22.0369ZM178.746 33.6893V29.4682H177.694V33.6893H178.746ZM185.549 28.2797H183.459V29.1813H185.549V28.2797ZM185.549 30.9845H183.459V31.9544H185.549V30.9845ZM185.549 34.6592V33.7576H183.459V34.6592H185.549Z" fill="#595757"/>
<path d="M206.08 29.0461V35.2753H205.302C205.493 35.33 205.698 35.371 205.889 35.3983C206.668 35.5622 207.419 35.6578 208.157 35.7671L207.173 37.42C206.354 37.2561 205.575 37.0649 204.81 36.8463C203.881 36.5594 203.034 36.2726 202.256 35.9584L203.089 35.2617H197.666L198.499 35.9584C197.092 36.5048 195.412 36.9692 193.431 37.3381L192.529 35.7535C193.554 35.6169 194.537 35.4529 195.466 35.2617H194.059V29.0325H206.067L206.08 29.0461ZM201.422 21.123V21.888H208.293V24.6065H206.149V23.5546H194.77V24.6065H192.625V21.888H199.291V21.123H201.436H201.422ZM205.616 25.6447H207.46V26.9014H205.493L205.316 28.691H194.483L194.824 26.9014H193.035V25.6447H195.084L195.398 23.9235H205.807L205.63 25.6447H205.616ZM204.195 30.7674V30.3575H195.958V30.7674H204.195ZM204.195 32.3656V31.9558H195.958V32.3656H204.195ZM204.195 33.9639V33.5541H195.958V33.9639H204.195ZM196.477 26.9014L196.395 27.3113H198.895L199.004 26.9014H196.477ZM196.75 25.6447H199.291L199.373 25.3032H196.819L196.75 25.6447ZM200.78 26.9014L200.671 27.3113H203.676L203.731 26.9014H200.78ZM201.094 25.6447H203.922L203.977 25.3032H201.19L201.108 25.6447H201.094Z" fill="#595757"/>
<path d="M213.143 22.4604V21.2036H215.096V22.4604H217.719V24.2499H215.096V25.3701H218.156V27.1596H217.105C216.995 27.5558 216.872 27.9519 216.749 28.3891C216.681 28.6349 216.585 28.8535 216.517 29.0448H217.801V30.8343H215.096V32.0227H218.006V33.8123H215.096V37.2274H213.143V33.8123H210.302V32.0227H213.143V30.8343H210.588V29.0448H211.49C211.353 28.4027 211.203 27.7607 211.026 27.1596H210.151V25.3701H213.129V24.2499H210.506V22.4604H213.129H213.143ZM214.495 29.0448C214.605 28.7032 214.687 28.3754 214.796 28.0202C214.864 27.7333 214.919 27.4465 214.987 27.1732H213.129C213.293 27.7743 213.443 28.4164 213.594 29.0584H214.495V29.0448ZM219.659 23.9904V21.2036H221.544V23.9904H224.864C224.631 26.5859 224.522 28.7989 224.522 30.6567C224.522 32.5145 224.536 33.8123 224.59 34.5226C224.631 34.9188 224.659 35.0963 224.727 35.0963C224.768 35.0963 224.823 34.9324 224.864 34.6182C224.918 34.2084 224.946 33.4571 224.987 32.3779L226.585 33.0746C226.448 34.7822 226.189 35.875 225.82 36.4078C225.506 36.8176 225.123 37.0361 224.713 37.0361C224.085 37.0361 223.607 36.722 223.293 36.1072C222.869 35.4105 222.623 33.9625 222.582 31.7222L221.653 32.8697C221.367 32.5282 221.121 32.214 220.875 31.9271C220.752 32.4462 220.629 32.9107 220.479 33.3342C219.946 34.9324 219.167 36.2438 218.115 37.3094L216.64 35.8477C217.583 34.8914 218.293 33.6483 218.785 32.1184C218.962 31.5719 219.126 30.9299 219.249 30.2059C218.648 29.6321 218.061 29.0994 217.473 28.6213L218.853 27.1596C219.072 27.3372 219.29 27.5011 219.522 27.6787C219.563 27.105 219.577 26.5175 219.591 25.9165H218.361V23.9767H219.604L219.659 23.9904ZM222.596 30.5747C222.596 29.2087 222.664 27.665 222.842 25.9165H221.544C221.503 27.1459 221.462 28.2388 221.353 29.236C221.776 29.6595 222.2 30.1103 222.596 30.5747Z" fill="#595757"/>
<path d="M232.855 22.0382C232.445 22.7622 231.912 23.5135 231.257 24.2512C230.355 25.1801 229.604 25.8358 229.044 26.2046L227.732 24.4698C228.333 24.0463 228.975 23.4999 229.645 22.8168C230.232 22.2158 230.697 21.6147 231.052 21L232.869 22.0245L232.855 22.0382ZM234.03 25.8495C233.538 26.7784 232.882 27.721 232.022 28.6772V37.2423H230V30.576C229.713 30.8082 229.467 30.9858 229.249 31.1224L227.842 29.3056C228.634 28.7592 229.481 28.0488 230.369 27.1609C231.148 26.3822 231.749 25.5763 232.213 24.7976L234.03 25.8495ZM243.961 26.4095V28.4313H240.546V34.6605C240.546 35.685 240.327 36.3681 239.945 36.6686C239.521 37.0374 238.77 37.2423 237.705 37.2423C236.858 37.2423 236.065 37.174 235.341 37.0238L235 34.8791C235.888 35.1113 236.789 35.2206 237.705 35.2206C238.196 35.2206 238.47 34.9337 238.47 34.3326V28.4313H233.893V26.4095H243.961ZM243.128 21.765V23.7048H234.795V21.765H243.128Z" fill="#595757"/>
</svg>
