<svg width="299" height="38" viewBox="0 0 299 38" fill="none" xmlns="http://www.w3.org/2000/svg">
<path d="M19.5195 1H278.52" stroke="#7EC15D" stroke-width="2" stroke-miterlimit="10"/>
<path d="M7.01441 21.4077V28.2864L8.46615 28.707C8.34404 29.0191 8.22192 29.2904 8.11338 29.5346H13.7711V37.1868H11.8445V36.6983H3.56828V37.1868H1.64171V29.5346H5.92902C5.99686 29.3176 6.05114 29.1276 6.10541 28.9106H5.15566V27.0111C4.81647 27.2824 4.46369 27.5267 4.11093 27.7709C2.97126 28.5171 1.94018 29.0462 1.03115 29.399L0.135643 27.8116C0.949697 27.5131 1.88587 27.0382 2.94414 26.4005C3.81246 25.8714 4.54513 25.3287 5.16924 24.7589V23.877C4.72151 24.2704 4.27374 24.6368 3.77174 24.9895C2.71347 25.695 1.73661 26.2242 0.895423 26.5769L0 24.9895C0.759784 24.7046 1.62807 24.2297 2.59137 23.5921C2.78132 23.47 2.98489 23.3478 3.16127 23.1986H0.217045V21.3941H7.02799L7.01441 21.4077ZM11.8445 32.221V31.407H3.56828V32.221H11.8445ZM11.8445 34.921V34.0255H3.56828V34.921H11.8445ZM7.71995 23.28V21.3398H14.7344V28.992H12.862V26.8347C12.55 27.0789 12.2108 27.3231 11.858 27.5538C10.7591 28.2593 9.75506 28.7749 8.87316 29.1276L7.97774 27.5402C8.77823 27.2553 9.67367 26.794 10.6777 26.1699C11.5189 25.6408 12.2651 25.1116 12.862 24.5689V23.7684C12.3736 24.2162 11.8038 24.6368 11.2068 25.0167C10.0807 25.7222 9.07668 26.2377 8.19478 26.5634L7.29936 24.9759C8.09985 24.691 9.00889 24.2297 10.0265 23.6192C10.2164 23.5106 10.3927 23.3885 10.5691 23.2664H7.70637L7.71995 23.28Z" fill="#595757"/>
<path d="M32.5487 23.5378H33.417V24.9896H32.4537L32.3181 26.9976H23.2549C23.2956 27.1333 23.3227 27.2418 23.3634 27.3368L21.7082 28.0287C21.5997 27.6217 21.4776 27.2418 21.369 26.8483V37.1326H19.4425V26.6041C19.2797 27.7302 19.049 28.7749 18.7505 29.7654L17.0952 28.9378C17.5158 27.4182 17.8008 25.8986 17.9229 24.3926L19.4425 24.7589V21.2856H21.369V24.7589L22.1966 24.3926C22.5901 25.1795 22.9429 26.0343 23.2414 26.9433L23.4856 25.0031H22.5358V23.5514H23.662L23.9062 21.557H32.7251L32.5623 23.5514L32.5487 23.5378ZM32.5894 27.4725V34.9889H31.2191C31.3276 35.0296 31.4362 35.0567 31.5311 35.0703C32.1281 35.2467 32.7523 35.3688 33.3492 35.4638L32.3045 37.2682C31.6804 37.0919 31.0834 36.8748 30.5 36.6306C29.808 36.3321 29.184 36.02 28.5734 35.6808L29.2246 34.9889H26.0091L26.8367 36.0879C25.7106 36.5763 24.4353 36.9698 23.065 37.2682L22.1695 35.613C23.0107 35.4773 23.8383 35.2602 24.6931 35.0024H23.2006V27.486H32.5894V27.4725ZM30.6492 29.5347V29.0599H25.1408V29.5347H30.6492ZM30.6492 31.407V30.9865H25.1408V31.407H30.6492ZM30.6492 33.4015V32.8588H25.1408V33.4015H30.6492ZM26.9589 24.9896H25.2358L25.1679 25.5323H26.8775L26.9589 24.9896ZM25.4393 23.5378H27.1895L27.2709 22.9952H25.5071L25.4393 23.5378ZM28.7498 24.9896L28.6548 25.5323H30.5271L30.5814 24.9896H28.7498ZM28.9668 23.5378H30.7307L30.7849 22.9952H29.0618L28.9668 23.5378Z" fill="#595757"/>
<path d="M37.3378 21.4741V29.7503C37.3378 31.3377 37.2157 32.803 36.985 34.1055C36.768 35.2995 36.4966 36.2763 36.1709 37.0497L34.6514 35.8693C34.9634 35.0281 35.2212 34.0513 35.3976 32.9794C35.5332 31.9347 35.6283 30.8629 35.6283 29.7503V21.4741H37.3378ZM39.4 22.5867V34.7703H37.7584V22.5867H39.4ZM41.6659 21.4741V36.2221H39.8885V21.4741H41.6659ZM50.9189 21.4741V23.2786H47.622L47.4049 24.2283H50.4983V34.1598H49.0873C49.3722 34.3904 49.6572 34.5804 49.9692 34.7432C50.3762 34.9874 50.7832 35.1909 51.1902 35.3266L50.1727 37.1989C49.6842 36.9547 49.223 36.6698 48.7753 36.3577C48.2326 35.9643 47.7305 35.5437 47.2828 35.0688L48.3817 34.1734H44.8135L45.9124 35.0688C45.0712 35.91 44.0401 36.6155 42.8733 37.1989L41.8287 35.3944C42.6427 35.0824 43.4025 34.6754 44.0808 34.1598H42.4391V24.2283H45.424L45.6412 23.2786H42.1814V21.4741H50.9325H50.9189ZM48.5717 26.9961V26.0328H44.3794V26.9961H48.5717ZM48.5717 29.6825V28.7056H44.3794V29.6825H48.5717ZM48.5717 32.3553V31.4056H44.3794V32.3553H48.5717Z" fill="#595757"/>
<path d="M57.7167 26.3592C57.3639 27.119 56.9434 27.8517 56.4142 28.5979V37.1183H54.4197V30.8501C54.2434 31.0265 54.0806 31.1486 53.9449 31.2571L52.6152 29.534C53.2122 29.0185 53.8635 28.3537 54.5419 27.5261C55.1253 26.7798 55.5865 26.0608 55.9393 25.3417L57.7167 26.3592ZM57.3096 22.384C56.9569 23.0895 56.4956 23.8085 55.9122 24.5548C55.1389 25.4502 54.5012 26.0879 54.0127 26.4406L52.6831 24.7311C53.1987 24.3105 53.7414 23.7814 54.3248 23.103C54.8132 22.5196 55.2066 21.9362 55.5051 21.3392L57.3096 22.384ZM64.2156 28.0959V30.0903H67.7295V32.0305H64.2156V34.6219C64.9618 34.7304 65.8572 34.7847 66.8748 34.7847C67.4175 34.7847 68.0009 34.744 68.625 34.649L67.9331 36.9284H66.8748C64.4462 36.9284 62.7095 36.6435 61.6919 36.1143C60.9322 35.7616 60.3216 35.341 59.8332 34.8254C59.5483 35.7073 59.1684 36.4942 58.6936 37.1997L56.8348 36.0872C57.3639 35.3681 57.7845 34.5134 58.083 33.5365C58.3815 32.4918 58.5579 31.0672 58.6122 29.2627H60.6201C60.6201 30.4974 60.5252 31.5963 60.3895 32.5461C60.8508 33.1702 61.3935 33.645 62.0311 33.9707C62.0854 34.0114 62.1397 34.0385 62.1939 34.0521V28.0959H64.202H64.2156ZM61.6513 21.7598C61.5699 22.4789 61.4342 23.1573 61.2985 23.795C61.4749 24.0256 61.6648 24.2427 61.8683 24.4191C62.2211 24.7583 62.5603 25.0161 62.8859 25.206L61.7191 27.2004C61.3663 26.9155 61.0136 26.5628 60.6744 26.1422C60.6201 26.0879 60.5795 26.0336 60.5659 26.0065C60.1453 27.0105 59.6297 27.906 59.0328 28.72L57.581 27.3497C58.2051 26.4678 58.6936 25.5452 59.0463 24.6362C59.3991 23.6186 59.6433 22.5196 59.7925 21.3528L61.6513 21.7734V21.7598ZM66.617 21.7598C66.5084 22.5739 66.3728 23.3066 66.1557 23.9985C66.4678 24.392 66.7934 24.7447 67.1055 25.0432C67.621 25.5316 68.123 25.9387 68.625 26.2371L67.4447 28.2316C66.9291 27.8381 66.4406 27.3632 65.9658 26.7798C65.7487 26.5356 65.5451 26.2914 65.3416 26.0065C64.9482 26.7256 64.5276 27.3768 64.0663 27.9466L62.5467 26.4949C63.1437 25.7351 63.6186 24.9618 63.9578 24.1477C64.3105 23.2794 64.5547 22.3433 64.6768 21.3257L66.6034 21.7463L66.617 21.7598Z" fill="#595757"/>
<path d="M78.3259 21.6241C78.136 22.1397 77.9325 22.5874 77.7425 22.9944H85.0147V37.1183H82.9525V36.0736H73.3738V37.1183H71.3115V22.9944H75.5039C75.7753 22.3568 75.9923 21.6919 76.1958 21L78.3259 21.6241ZM82.9389 26.6441V24.921H73.3602V26.6441H82.9389ZM82.9389 30.3752V28.5707H73.3602V30.3752H82.9389ZM82.9389 34.1605V32.2882H73.3602V34.1605H82.9389Z" fill="#595757"/>
<path d="M101.96 21.7605V30.2946H99.898V29.1956H91.2147V33.795C91.2147 34.3919 91.8525 34.6904 93.1414 34.7176C93.5348 34.7583 94.7152 34.7718 96.6825 34.7718C98.1071 34.7718 98.8668 34.7583 98.9347 34.704C100.169 34.6633 100.875 34.5819 101.038 34.4733C101.214 34.2291 101.35 33.4829 101.485 32.289L103.616 33.4694C103.426 34.8804 103.127 35.803 102.72 36.2507C102.503 36.4678 101.92 36.6035 100.997 36.6713C100.753 36.7256 99.3146 36.7527 96.6961 36.7527C94.0775 36.7527 92.3408 36.6984 91.8117 36.6306C90.0479 36.5628 89.166 35.8166 89.166 34.4055V27.174H99.9116V23.7278H89.166V21.7334H101.974L101.96 21.7605Z" fill="#595757"/>
<path d="M107.889 36.698H105.895V23.7546H107.482C107.713 22.9134 107.889 22.0586 108.025 21.1903L110.087 21.6788C109.952 22.425 109.789 23.1034 109.599 23.741H112.231V26.9023C112.665 26.1561 113.059 25.3556 113.398 24.4465C113.886 23.3069 114.266 22.2079 114.51 21.1768L116.573 21.8144C116.396 22.4657 116.22 23.1034 116.03 23.741H120.982C120.982 30.4977 120.752 34.4187 120.331 35.4905C119.992 36.6573 119.191 37.2543 117.902 37.2543C117.238 37.2543 116.559 37.1458 115.894 36.9694L115.487 34.8393C116.478 35.0699 117.292 35.1785 117.902 35.1785C118.269 35.1785 118.513 34.8936 118.621 34.3373C118.811 33.3469 118.92 30.4705 118.92 25.6812H115.297C114.809 26.9565 114.28 28.0284 113.669 28.9238L112.218 27.852V36.0197H110.223V35.0699H107.876V36.7116L107.889 36.698ZM110.223 28.6389V25.6812H107.876V28.6389H110.223ZM110.223 30.5112H107.876V33.1976H110.223V30.5112ZM117.604 32.0986L115.474 32.7906C115.23 31.3253 114.822 29.9821 114.293 28.7882L116.234 28.1641C116.817 29.3444 117.278 30.6469 117.604 32.0986Z" fill="#595757"/>
<path d="M132.27 31.2431C132.691 30.7818 133.07 30.3206 133.423 29.8864C133.057 28.2311 132.826 26.3724 132.718 24.2965H126.07V29.5336C126.07 31.0125 125.947 32.4235 125.73 33.8074C125.554 34.92 125.256 36.0325 124.835 37.1993L123.058 36.1546C123.478 34.73 123.763 33.4954 123.899 32.4507C124.062 31.1753 124.143 29.8864 124.143 28.611V22.4513H132.65C132.636 22.0579 132.636 21.6509 132.636 21.271H134.766V22.4513H135.513C135.377 22.275 135.241 22.1122 135.106 21.9629L136.625 21.0132C137.032 21.4745 137.385 21.9629 137.683 22.4649H138.755V24.3101H134.821C134.861 25.4905 134.916 26.5488 135.011 27.4714C135.526 26.5759 135.947 25.694 136.286 24.8121L138.213 25.4362C137.507 27.0643 136.815 28.3939 136.15 29.4522C135.933 29.805 135.703 30.1442 135.485 30.4562C135.77 31.908 136.11 33.0883 136.476 33.9838C136.761 34.73 137.005 35.0828 137.181 35.0828C137.249 35.0828 137.29 34.9878 137.317 34.7843C137.358 34.5401 137.412 33.8346 137.453 32.6677L139.257 34.1195C139.013 35.5983 138.674 36.5209 138.213 36.8465C137.982 37.0908 137.629 37.2129 137.168 37.2129C136.571 37.2129 135.974 36.6837 135.363 35.639C134.848 34.7571 134.4 33.631 134.007 32.2743C133.898 32.3964 133.817 32.5049 133.722 32.5863C133.939 33.0748 134.129 33.5768 134.264 34.1059L132.813 34.5808C132.636 33.7531 132.365 32.9934 131.985 32.3014L132.962 32.0165L132.134 31.4195C132.134 31.4195 132.216 31.311 132.256 31.2838H128.335V31.5416H126.558V27.0643H132.27V31.2567V31.2431ZM127.942 32.5728C127.833 33.916 127.576 35.1506 127.182 36.2903L125.73 35.5983C126.124 34.4722 126.382 33.3461 126.49 32.2064L127.942 32.5592V32.5728ZM132.351 24.8528V26.5759H126.572V24.8528H132.351ZM129.787 31.9622V34.6486C129.787 35.0149 129.909 35.2184 130.181 35.232C130.289 35.2727 130.452 35.2727 130.655 35.2727C131.117 35.2727 131.374 35.2591 131.483 35.2184C131.551 35.1642 131.605 35.0828 131.646 34.9606C131.687 34.8928 131.7 34.6622 131.741 34.2551L133.396 35.2049C133.315 35.9782 133.152 36.4531 132.921 36.6702C132.745 36.7651 132.528 36.833 132.256 36.8601C132.066 36.9008 131.537 36.928 130.669 36.928C130.262 36.928 129.896 36.8873 129.57 36.8601C128.675 36.8194 128.227 36.2631 128.227 35.2049V31.9758H129.801L129.787 31.9622ZM130.479 29.615V28.7196H128.349V29.615H130.479ZM132.202 33.6175L130.683 34.0923C130.506 33.2783 130.262 32.5592 129.923 31.8944L131.293 31.4738C131.687 32.125 131.985 32.8441 132.189 33.631L132.202 33.6175Z" fill="#595757"/>
<path d="M155.566 22.9955C154.915 23.1041 154.263 23.2126 153.585 23.2804L155.362 23.9045C154.955 24.8271 154.535 25.6548 154.114 26.3739H156.529V29.9557H154.467V28.314H143.084V29.9557H141.021V26.3739H143.599C143.287 25.804 142.907 25.2613 142.473 24.7322L143.613 24.0131C143.138 24.0267 142.663 24.0538 142.202 24.0538L141.564 22.1815C145.906 22.1815 150.247 21.8694 154.603 21.2046L155.552 23.0091L155.566 22.9955ZM154.25 29.2637V30.7833C153.422 32.0722 152.432 33.1305 151.306 33.9445C152.717 34.4737 154.413 34.8807 156.38 35.1928L155.281 37.3229C152.92 36.8344 150.858 36.1289 149.121 35.2063C147.249 36.1289 145.105 36.7802 142.663 37.2008L141.618 35.2606C143.776 34.9757 145.607 34.5415 147.127 33.9717C146.028 33.1983 145.132 32.2893 144.427 31.2717H143.355V29.2637H154.236H154.25ZM148.022 26.3603C147.67 25.7633 147.249 25.1799 146.733 24.6508L148.077 23.7824C146.964 23.8503 145.824 23.9181 144.658 23.9588C145.065 24.5286 145.417 25.1256 145.716 25.7362L144.671 26.3467H148.022V26.3603ZM149.243 32.9948C150.125 32.5064 150.885 31.923 151.496 31.2717H146.896C147.534 31.9365 148.321 32.5064 149.243 32.9948ZM151.713 26.3603C152.296 25.3427 152.757 24.3251 153.083 23.3483C151.753 23.5111 150.383 23.6332 148.958 23.7417C149.474 24.3387 149.908 24.9628 150.261 25.6141L148.972 26.3739H151.699L151.713 26.3603Z" fill="#595757"/>
<path d="M165.348 23.4026V21.2046H167.478V23.4026H173.611V25.3427H167.478V28.2326H174.452V30.1592H165.986C165.714 30.8511 165.362 31.6652 164.914 32.6149C164.602 33.2662 164.276 33.8496 163.964 34.338C166.04 34.2159 168.062 33.9988 170.029 33.6868C169.676 33.1169 169.323 32.5742 168.93 32.0315L170.802 31.1361C172.051 32.6556 173.109 34.3244 173.964 36.1696L171.766 37.2143C171.549 36.6445 171.304 36.0882 171.047 35.532C167.709 36.1561 163.924 36.536 159.65 36.7123L159.161 34.5144C159.975 34.5144 160.762 34.5144 161.549 34.4737C161.916 33.8767 162.295 33.1983 162.675 32.4657C163.069 31.6516 163.394 30.8918 163.679 30.1728H158.551V28.2462H165.375V25.3563H159.663V23.4161H165.375L165.348 23.4026Z" fill="#595757"/>
<path d="M181.684 22.0305V23.9707H179.879V27.0098H181.331V28.9365H179.879V32.7218C180.503 32.5861 181.073 32.4369 181.602 32.3012L181.819 34.1735C180.191 34.6891 178.414 35.1368 176.514 35.5439L176.162 33.4816C176.759 33.373 177.342 33.2645 177.885 33.1424V28.9229H176.365V26.9963H177.885V23.9571H176.23V22.017H181.684V22.0305ZM191.52 21.6235V30.7138H187.803V31.6771H191.452V33.6173H187.803V34.9197H192.09V36.8463H181.399V34.9197H185.808V33.6173H182.009V31.6771H185.808V30.7138H182.091V21.6235H191.534H191.52ZM185.808 25.0561V23.5365H184.099V25.0561H185.808ZM185.808 28.7872V27.0098H184.099V28.7872H185.808ZM187.803 25.0561H189.526V23.5365H187.803V25.0561ZM187.803 28.7872H189.526V27.0098H187.803V28.7872Z" fill="#595757"/>
<path d="M197.666 21.6245C197.598 21.8009 197.53 21.9637 197.476 22.0994H200.841V23.5511C200.57 24.0667 200.298 24.5144 200.013 24.9215H201.669V34.9886C201.669 36.3996 201.072 37.1187 199.864 37.1187C199.321 37.1187 198.724 37.0509 198.06 36.9016L197.653 34.9072C198.317 35.1378 198.901 35.2464 199.376 35.2464C199.688 35.2464 199.851 35.0564 199.851 34.6223V33.2519H196.391C196.35 33.9575 196.282 34.6087 196.174 35.2057C196.038 35.9519 195.821 36.6031 195.577 37.1865L193.772 36.4946C194.016 35.9112 194.22 35.2192 194.356 34.3916C194.518 33.6183 194.6 32.6143 194.6 31.3796V26.5631C194.478 26.6988 194.369 26.8073 194.261 26.9159L193.297 25.1114C194.464 23.836 195.305 22.4793 195.834 21.0547L197.639 21.5974L197.666 21.6245ZM197.897 24.9215C198.127 24.6094 198.345 24.2702 198.535 23.9039H196.554C196.432 24.0938 196.323 24.2702 196.214 24.4466C196.106 24.623 195.997 24.7858 195.916 24.9215H197.897ZM197.259 28.2319V26.7124H196.431V28.2319H197.259ZM197.259 31.461V29.9415H196.431V31.461H197.259ZM198.969 28.2319H199.864V26.7124H198.969V28.2319ZM198.969 31.461H199.864V29.9415H198.969V31.461ZM209.66 21.7602C209.66 24.7722 209.429 26.441 209.009 26.7124C208.656 27.0787 208.072 27.2551 207.245 27.2551C206.824 27.2551 206.309 27.2144 205.725 27.1194L205.318 25.2742C205.983 25.4099 206.553 25.4913 207.028 25.4913C207.218 25.4913 207.367 25.437 207.435 25.3013C207.543 25.1792 207.611 24.5958 207.652 23.5511H205.671C205.535 24.2974 205.305 24.9486 204.979 25.4777C204.531 26.2375 203.88 26.8345 203.039 27.2822L201.791 25.6948C202.455 25.4099 202.971 25.0029 203.324 24.5009C203.5 24.2431 203.636 23.9175 203.744 23.5647H202.143V21.7873H209.66V21.7602ZM203.663 31.963L201.858 31.4203C202.306 30.1043 202.645 28.7882 202.903 27.4857L204.748 27.9606C204.681 28.2998 204.613 28.5983 204.531 28.856H205.237V27.5536H207.163V28.856H209.361V30.7148H207.163V32.4379H209.85V34.3102H207.163V37.1323H205.237V34.3102H201.994V32.4379H205.237V30.7148H204.057C203.921 31.1761 203.772 31.5967 203.649 31.963H203.663Z" fill="#595757"/>
<path d="M219.428 22.7779C218.587 23.1442 217.624 23.4698 216.606 23.7276V25.9527H219.428V27.8793H216.606V28.422C217.733 29.236 218.723 30.0094 219.564 30.7692L218.329 32.4923C217.746 31.841 217.163 31.244 216.606 30.7149V37.1866H214.544V31.5425C214.029 32.4244 213.432 33.2113 212.767 33.944L211.519 32.4244C212.102 31.8274 212.712 30.9998 213.391 29.9144C213.798 29.2632 214.151 28.5712 214.449 27.8657H211.586V25.9391H214.544V24.1753C213.852 24.311 213.147 24.4603 212.414 24.5688L211.519 22.6286C212.916 22.4658 214.164 22.2759 215.263 22.0316C216.308 21.8146 217.244 21.5568 218.072 21.2583L219.442 22.7779H219.428ZM226.945 36.6304H224.95V35.3957H221.843V36.8474H219.849V22.6422H226.945V36.6304ZM224.95 33.4691V24.5824H221.843V33.4691H224.95Z" fill="#595757"/>
<path d="M232.792 28.5707V33.8756C233.539 34.4726 234.38 34.8254 235.37 34.8932C236.076 35.0289 237.853 35.1103 240.716 35.1103C242.371 35.1103 243.769 35.0017 244.935 34.7711C244.542 35.4766 244.243 36.2228 244.04 37.0504H238.871C236.998 37.0504 235.506 36.8876 234.366 36.6027C233.552 36.3721 232.738 35.9108 231.965 35.2459C231.395 35.8429 230.812 36.4399 230.255 37.0504C229.835 36.3314 229.387 35.653 228.939 35.056C229.577 34.7847 230.215 34.5133 230.812 34.2284V30.5109H229.292V28.5707H232.806H232.792ZM232.86 26.3592L231.49 28.0823C230.784 27.3768 230.038 26.7798 229.292 26.2778L230.744 24.7718C231.517 25.2331 232.223 25.7351 232.874 26.3456L232.86 26.3592ZM233.294 22.8587L231.897 24.5818C231.205 23.8763 230.499 23.2793 229.767 22.7773L231.137 21.3256C231.911 21.7462 232.643 22.2618 233.294 22.8452V22.8587ZM240.092 21.1899V22.1668H244.433V23.9713H242.398C242.276 24.2562 242.154 24.5411 242.032 24.7989C241.978 24.9075 241.951 24.9889 241.91 25.0703H244.366V32.9259C244.366 34.2284 243.646 34.8661 242.235 34.8661H241.286L240.933 33.143C241.408 33.2515 241.856 33.2787 242.235 33.2787C242.412 33.2787 242.52 33.0344 242.52 32.5189V26.8748H235.764V34.4455H233.905V25.0838H235.94L235.655 23.9849H233.701V22.1804H238.043V21.2035H240.105L240.092 21.1899ZM238.179 27.621V26.9969H240.024V27.621H242.154V29.2084H240.024V29.6832H241.828V32.9802H238.03V33.6721H236.374V29.6832H238.179V29.2084H236.116V27.621H238.179ZM239.915 25.0567C239.983 24.8396 240.078 24.6497 240.146 24.4326C240.2 24.2698 240.255 24.1205 240.282 23.9577H237.677L237.975 25.0567H239.915ZM240.173 31.6098V31.0671H238.043V31.6098H240.173Z" fill="#595757"/>
<path d="M249.413 29.2637C249.413 30.7833 249.291 32.2486 249.074 33.6596C248.897 34.7993 248.612 35.9526 248.232 37.1329L246.455 36.0882C246.849 34.6365 247.12 33.3747 247.269 32.3164C247.405 31.0139 247.486 29.6843 247.486 28.3818V22.1001H254.243V21.2046H256.237V22.1001H262.587V23.9045H258.123L259.48 24.2437C259.426 24.4744 259.358 24.6915 259.29 24.8679H262.166V26.5909H259.005V27.0658H261.61V28.6532H259.005V29.1416H261.61V30.7155H259.005V31.2039H262.234V32.9134H256.888C257.173 33.2119 257.472 33.5375 257.757 33.8767L256.115 35.1792C255.749 34.6501 255.328 34.1209 254.867 33.6054L255.871 32.8999H253.497V28.504C253.388 28.6261 253.307 28.7346 253.212 28.8431L252.33 27.1879C253.144 26.1432 253.727 25.0578 254.107 23.891H252.045L253.157 24.2302C252.872 24.8678 252.56 25.4784 252.194 26.0618V32.7777H250.39V28.3683C250.268 28.4904 250.159 28.5989 250.05 28.7075L249.426 27.5814V29.2637H249.413ZM251.95 33.8089C251.638 35.0435 251.299 36.0611 250.932 36.9158L249.06 35.9526C249.508 35.03 249.847 34.1209 250.105 33.1983L251.964 33.8224L251.95 33.8089ZM249.413 23.891V26.5774C250.227 25.709 250.824 24.8136 251.244 23.891H249.413ZM254.229 33.4018V34.7043C254.229 35.1249 254.46 35.342 254.921 35.3556C255.138 35.3963 255.41 35.3963 255.789 35.3963C256.78 35.3963 257.377 35.3963 257.567 35.3556C257.757 35.3013 257.879 35.2199 257.933 35.0978C257.987 35.0435 258.042 34.8129 258.096 34.433L259.955 35.4777C259.846 36.251 259.602 36.7259 259.236 36.9294C258.991 37.0108 258.652 37.0922 258.218 37.1465C257.933 37.1872 257.119 37.2143 255.803 37.2143C255.22 37.2143 254.691 37.1736 254.229 37.1194C252.954 37.0787 252.33 36.4817 252.33 35.342V33.4154H254.256L254.229 33.4018ZM254.894 23.891L255.817 24.1623C255.722 24.4065 255.64 24.6372 255.545 24.8543H257.255C257.363 24.5422 257.431 24.2166 257.499 23.9045H254.894V23.891ZM257.119 26.5774H255.26V27.0522H257.119V26.5774ZM257.119 28.6396H255.26V29.1281H257.119V28.6396ZM257.119 30.7019H255.26V31.1903H257.119V30.7019ZM262.763 35.6812L261.054 36.6988C260.633 35.8169 260.09 34.9757 259.399 34.1616L261.054 33.1169C261.759 33.931 262.329 34.7722 262.763 35.6676V35.6812Z" fill="#595757"/>
<path d="M269.723 21.8813V23.7536H268.068V27.3355H269.438V29.2078H268.068V32.8439C268.597 32.7354 269.113 32.6268 269.588 32.5047L269.805 34.3499C268.217 34.8112 266.508 35.2318 264.635 35.5981L264.283 33.5359C264.92 33.4273 265.517 33.3459 266.087 33.2374V29.1942H264.635V27.3219H266.087V23.7401H264.5V21.8677H269.737L269.723 21.8813ZM279.587 28.2988V32.0163H276.86C277.023 32.4776 277.226 32.8846 277.498 33.2374C277.62 33.1424 277.728 33.061 277.81 32.9931C278.04 32.7761 278.23 32.5318 278.407 32.2876L279.926 33.3323C279.614 33.7394 279.221 34.1057 278.746 34.4313C278.705 34.472 278.678 34.4856 278.664 34.4856C279.126 34.879 279.668 35.2318 280.292 35.5439L278.963 37.1313C277.945 36.4936 277.063 35.6795 276.331 34.7027C275.734 33.8886 275.327 33.0067 275.083 32.0434H274.825C274.431 32.5047 274.065 32.8846 273.672 33.2238V34.974C274.445 34.8383 275.15 34.6755 275.802 34.5127L275.937 36.0323C274.431 36.4529 272.803 36.8463 271.039 37.2127L270.768 35.4896C271.134 35.4353 271.514 35.381 271.867 35.3132V34.4177C271.46 34.6484 271.094 34.8248 270.768 34.9469L269.873 33.3595C270.51 33.1424 271.202 32.8439 271.935 32.4233C272.152 32.3012 272.342 32.1791 272.518 32.057H270.7V28.3395H279.587V28.2988ZM280.13 26.2365V27.8782H270.008V26.2365H280.13ZM279.926 21.6235V25.8159H270.565V21.6235H279.926ZM273.102 24.2285V23.2109H272.342V24.2285H273.102ZM277.796 30.4425V29.8997H272.491V30.4425H277.796ZM274.825 24.2285H275.585V23.2109H274.825V24.2285ZM277.308 24.2285H278.135V23.2109H277.308V24.2285Z" fill="#595757"/>
<path d="M283.44 24.921V21.407H285.38V24.921H286.832V26.8612H285.38V31.7862C285.95 31.6234 286.493 31.447 287.022 31.2706L287.375 33.048C285.896 33.6857 284.268 34.2284 282.491 34.7033L281.799 32.641C282.368 32.5324 282.911 32.4103 283.44 32.2746V26.8612H281.988V24.921H283.44ZM297.089 27.2004V33.1973H294.267V34.3098C294.267 34.6761 294.321 34.8932 294.43 34.961C294.552 35.0696 294.715 35.1238 294.918 35.1238C295.23 35.1238 295.448 35.1238 295.583 35.0831C295.719 35.0831 295.814 35.0289 295.882 34.9475C295.99 34.8389 296.058 34.4862 296.112 33.8892L298.039 34.7847C297.971 35.3138 297.849 35.8293 297.646 36.3178C297.523 36.6027 297.279 36.7927 296.886 36.8876C296.465 36.9555 295.787 36.9962 294.905 36.9962C294.023 36.9962 293.548 36.9283 293.412 36.7791C292.666 36.7113 292.313 36.0871 292.313 34.9203V33.1973H291.513C291.296 33.9706 290.93 34.649 290.441 35.2459C289.613 36.1278 288.311 36.7655 286.52 37.1318L285.828 35.1917C287.226 34.961 288.202 34.5947 288.772 34.0791C289.057 33.7942 289.288 33.5093 289.464 33.1973H287.633V27.2004H297.062H297.089ZM293.44 21.1899V22.3025H297.279V24.0256H295.977C295.909 24.2019 295.855 24.3783 295.787 24.5547C295.719 24.7446 295.651 24.9075 295.57 25.0431H297.632V26.7662H287.158V25.0431H289.329L289.084 24.0256H287.51V22.3025H291.432V21.1899H293.44ZM295.081 29.3983V28.9235H289.654V29.3983H295.081ZM295.081 31.4606V30.9857H289.654V31.4606H295.081ZM293.467 25.0567C293.535 24.8803 293.602 24.7039 293.697 24.4869C293.765 24.324 293.819 24.1748 293.86 24.0256H291.092L291.377 25.0431H293.48L293.467 25.0567Z" fill="#595757"/>
</svg>
