<svg width="375" height="812" viewBox="0 0 375 812" fill="none" xmlns="http://www.w3.org/2000/svg">
<g clip-path="url(#clip0_20_119419)">
<rect width="375" height="812" fill="white"/>
<path d="M0 0H375V812H8.34465e-05V132.071C8.34465e-05 39.257 0 0 0 0Z" fill="url(#paint0_radial_20_119419)"/>
<g opacity="0.2">
<mask id="mask0_20_119419" style="mask-type:luminance" maskUnits="userSpaceOnUse" x="-268" y="313" width="911" height="499">
<path d="M642.851 313.741H-268V811.933H642.851V313.741Z" fill="white"/>
</mask>
<g mask="url(#mask0_20_119419)">
<path d="M612.517 613.373C612.517 757.307 481.053 873.985 193.788 873.985C-93.4764 873.985 -224.93 757.295 -224.93 613.373C-224.93 469.45 -93.465 352.761 193.799 352.761C481.064 352.761 612.529 469.439 612.529 613.373H612.517Z" fill="#3BAFBB"/>
<g opacity="0.3">
<mask id="mask1_20_119419" style="mask-type:luminance" maskUnits="userSpaceOnUse" x="-225" y="352" width="838" height="522">
<path d="M612.517 613.373C612.517 757.307 481.053 873.985 193.788 873.985C-93.4764 873.985 -224.93 757.295 -224.93 613.373C-224.93 469.45 -93.465 352.761 193.799 352.761C481.064 352.761 612.529 469.439 612.529 613.373H612.517Z" fill="white"/>
</mask>
<g mask="url(#mask1_20_119419)">
<path d="M37.6807 325.643C37.6807 325.643 -69.8472 458.769 -69.8472 596.971C-69.8472 746.084 37.6807 901.091 37.6807 901.091" stroke="#D2E9EB" stroke-width="2.25" stroke-miterlimit="10"/>
<path d="M89.7204 325.643C89.7204 325.643 18.0352 458.769 18.0352 596.971C18.0352 746.084 89.7204 901.091 89.7204 901.091" stroke="#D2E9EB" stroke-width="2.25" stroke-miterlimit="10"/>
<path d="M141.76 325.643C141.76 325.643 105.917 458.769 105.917 596.971C105.917 746.084 141.76 901.091 141.76 901.091" stroke="#D2E9EB" stroke-width="2.25" stroke-miterlimit="10"/>
<path d="M193.799 325.643V901.091" stroke="#D2E9EB" stroke-width="2.25" stroke-miterlimit="10"/>
<path d="M245.828 325.643C245.828 325.643 281.67 458.769 281.67 596.971C281.67 746.084 245.828 901.091 245.828 901.091" stroke="#D2E9EB" stroke-width="2.25" stroke-miterlimit="10"/>
<path d="M297.867 325.643C297.867 325.643 369.552 458.769 369.552 596.971C369.552 746.084 297.867 901.091 297.867 901.091" stroke="#D2E9EB" stroke-width="2.25" stroke-miterlimit="10"/>
<path d="M349.906 325.643C349.906 325.643 457.434 458.769 457.434 596.971C457.434 746.084 349.906 901.091 349.906 901.091" stroke="#D2E9EB" stroke-width="2.25" stroke-miterlimit="10"/>
<path d="M-251.416 613.373H639.015" stroke="#D2E9EB" stroke-width="1.66" stroke-miterlimit="10"/>
<path d="M-251.416 541.562H639.015" stroke="#D2E9EB" stroke-width="1.66" stroke-miterlimit="10"/>
<path d="M-251.416 469.761H639.015" stroke="#D2E9EB" stroke-width="1.66" stroke-miterlimit="10"/>
<path d="M-251.416 397.95H639.015" stroke="#D2E9EB" stroke-width="1.66" stroke-miterlimit="10"/>
<path d="M-251.416 756.984H639.015" stroke="#D2E9EB" stroke-width="1.66" stroke-miterlimit="10"/>
<path d="M-251.416 685.173H639.015" stroke="#D2E9EB" stroke-width="1.66" stroke-miterlimit="10"/>
</g>
</g>
<path d="M-220.878 469.818L-237.883 480.132C-242.219 482.767 -243.21 488.684 -239.977 492.62L-235.914 497.546C-233.637 500.309 -233.364 504.245 -235.253 507.295L-243.335 520.371C-245.042 523.133 -244.997 526.644 -243.232 529.372L-236.653 539.489C-234.138 543.357 -229.005 544.404 -225.191 541.849L-210.406 531.881C-208.164 530.362 -205.318 530.062 -202.803 531.064L-166.493 545.555C-164.945 546.177 -163.625 547.247 -162.692 548.628L-142.955 578.094C-141.441 580.362 -141.111 583.228 -142.09 585.783L-151.685 610.863C-153.051 614.431 -151.844 618.472 -148.748 620.681L-117.186 643.218C-116.275 643.863 -115.512 644.692 -114.921 645.647L-93.7382 680.338C-92.748 681.95 -91.2569 683.17 -89.4927 683.814L-35.484 703.255C-30.5555 705.028 -28.4953 710.932 -31.2043 715.444L-39.1605 728.658C-40.7085 731.225 -40.7654 734.436 -39.3084 737.06L-27.1295 759.056C-26.3441 760.472 -25.1831 761.611 -23.7603 762.371L-9.44148 769.956C-5.48047 772.051 -3.89836 776.954 -5.86748 781.006L-27.949 826.609C-28.814 828.404 -29.0189 830.453 -28.5181 832.387L-18.5473 870.877C-17.6025 874.548 -14.3245 877.104 -10.5683 877.104C-6.01545 877.104 -2.32759 873.374 -2.32759 868.77V839.454C-2.32759 836.715 -0.995901 834.148 1.23501 832.594L59.8649 791.71C61.7543 790.387 63.0177 788.326 63.3478 786.024L69.5625 742.033C70.1999 737.555 67.1723 733.377 62.7559 732.629L41.9492 729.118C38.9102 728.6 36.4061 726.413 35.4614 723.444L28.0857 700.228C27.3345 697.845 25.5588 695.935 23.2483 695.025L0.449672 685.967C-2.60076 684.758 -6.07236 685.483 -8.39433 687.831L-12.5488 692.033C-15.144 694.657 -19.1505 695.232 -22.3603 693.437L-57.0192 674.065C-58.7037 673.122 -60.0127 671.614 -60.707 669.807L-65.4534 657.525C-67.5363 652.15 -63.7119 646.314 -57.998 646.153L-33.8791 645.497C-30.4417 645.405 -27.4254 643.161 -26.3099 639.88L-17.0676 612.682C-16.2708 610.345 -14.4952 608.481 -12.2074 607.606L23.1572 593.978C27.6076 592.263 29.702 587.106 27.7215 582.733L9.23675 541.78C8.30341 539.719 6.59605 538.131 4.47895 537.383L-22.0302 527.921C-26.5603 526.31 -31.4889 528.923 -32.7295 533.619L-37.0661 549.917C-37.8174 552.737 -39.98 554.959 -42.7573 555.764L-49.1085 557.595C-52.1134 558.458 -55.3346 557.537 -57.4517 555.212L-72.7949 538.281C-76.0047 534.735 -75.595 529.188 -71.8957 526.16L-54.5834 512.026C-51.6126 509.597 -50.6793 505.419 -52.3297 501.932L-59.3639 487.118C-61.3558 482.917 -66.364 481.19 -70.4843 483.274L-91.5984 493.944C-94.6716 495.498 -98.3708 494.957 -100.886 492.608L-123.412 471.51C-125.643 469.427 -128.818 468.748 -131.687 469.749L-160.768 479.855C-162.214 480.362 -163.762 480.442 -165.253 480.108L-214.8 468.863C-216.86 468.391 -219.034 468.748 -220.843 469.853L-220.878 469.818Z" fill="#79902E"/>
<path d="M157.422 627.277L117.937 657.698C115.046 659.92 113.361 663.384 113.361 667.056V683.158C113.361 687.187 115.399 690.939 118.768 693.092L142.898 708.55C145.562 710.253 148.783 710.794 151.845 710.046L161.349 707.733C169.749 705.684 177.352 713.292 175.406 721.809L175.133 722.983C173.846 728.635 176.817 734.39 182.144 736.542L186.629 738.361C193.811 741.262 196.235 750.32 191.489 756.501C189.212 759.459 188.473 763.338 189.486 766.941L199.104 801.103C200.265 805.223 203.543 808.377 207.674 809.344L221.709 812.624C226.74 813.798 231.93 811.485 234.457 806.927L257.768 765.018C259.475 761.945 259.737 758.262 258.462 754.982C254.922 745.9 248.457 727.691 252.657 725.999C256.493 724.445 271.358 718.115 280.384 714.259C284.686 712.417 287.487 708.158 287.487 703.428V699.123C287.487 692.631 282.285 687.36 275.854 687.36H261.581C256.868 687.36 252.611 684.482 250.824 680.062L238.771 650.355C236.984 645.946 232.727 643.057 228.014 643.057H206.491C202.689 643.057 199.126 641.181 196.952 638.027L191.352 629.913C189.178 626.759 185.616 624.883 181.814 624.883H164.467C161.918 624.883 159.448 625.723 157.422 627.288V627.277Z" fill="#79902E"/>
<path d="M217.361 476.955L188.962 513.281C188.245 514.19 187.278 514.857 186.174 515.203L163.409 522.189C160.53 523.076 158.845 526.08 159.573 529.026L165.071 551.252C165.697 553.796 167.951 555.569 170.546 555.569H193.458C195.348 555.569 197.101 554.613 198.148 553.025L215.267 527.058C217.19 524.135 221.254 523.651 223.792 526.045L230.724 532.548C232.932 534.62 233.137 538.085 231.19 540.41L211.169 564.339C210.384 565.283 209.314 565.939 208.13 566.216L167.723 575.642C166.699 575.884 165.754 576.413 165.003 577.162L152.05 590.26C150.388 591.941 149.933 594.473 150.9 596.637L156.91 610.138C158.265 613.177 161.884 614.397 164.775 612.797L188.029 599.871C190.351 598.582 193.242 599.1 194.984 601.103L211.169 619.761C213.48 622.419 217.6 622.339 219.797 619.576L240.82 593.207C242.482 591.123 245.361 590.49 247.729 591.687L266.999 601.425C269.173 602.518 270.402 604.901 270.061 607.33L265.61 638.833C265.257 641.319 266.555 643.748 268.809 644.807L297.583 658.388C298.334 658.745 299.142 658.918 299.973 658.918H326.255C328.611 658.918 330.716 660.403 331.536 662.636L346.174 702.415C347.266 705.373 350.522 706.869 353.435 705.764L359.457 703.474C362.86 702.184 364.18 698.029 362.166 694.968L355.188 684.39C353.697 682.122 353.993 679.118 355.894 677.196L372.114 660.794C373.878 659.01 376.598 658.607 378.784 659.816L397.519 670.083C400.08 671.487 401.161 674.629 400.011 677.346L396.733 685.08C395.857 687.141 396.267 689.523 397.758 691.181L406.818 701.183C407.364 701.793 407.774 702.507 408.025 703.289L408.935 706.155C410.494 711.047 417.164 711.519 419.384 706.881C420.431 704.694 419.987 702.081 418.291 700.366L411.143 693.138C409.675 691.653 409.129 689.477 409.732 687.463L414.501 671.395C415.116 669.323 416.834 667.781 418.951 667.412L449.251 662.164C452.324 661.634 454.396 658.665 453.849 655.557L447.623 619.576C447.225 617.274 448.261 614.949 450.23 613.729L474.815 598.49C475.703 597.937 476.728 597.65 477.763 597.65H500.471C502.759 597.65 504.83 596.245 505.695 594.105L512.878 576.298C513.777 574.077 513.196 571.522 511.443 569.91L495.042 554.901C492.708 552.76 492.549 549.1 494.711 546.775L504.569 536.14C506.367 534.206 509.235 533.78 511.512 535.104L525.318 543.184C527.492 544.45 530.224 544.128 532.045 542.367L538.385 536.243C542.642 532.134 549.494 536.519 547.639 542.171L546.535 545.543C546.091 546.879 545.192 547.995 543.985 548.697L535.722 553.474C532.762 555.189 531.966 559.148 534.037 561.888L541.811 572.178C543.484 574.399 546.512 575.055 548.948 573.743L573.829 560.322C576.424 558.918 577.517 555.741 576.345 553.013L569.766 537.705C568.4 534.54 570.119 530.879 573.408 529.936L601.192 522.028C602.444 521.671 603.537 520.889 604.288 519.807L615.261 503.946C617.184 501.172 616.296 497.327 613.371 495.682L580.192 477.139C577.847 475.827 574.922 476.368 573.181 478.416L565.941 486.957C564.086 489.144 560.899 489.593 558.532 487.993L517.681 460.449C516.304 459.517 514.596 459.252 513.003 459.712L485.947 467.528C484.718 467.885 483.409 467.804 482.225 467.309L446.815 452.392C444.846 451.563 443.514 449.687 443.355 447.535L441.613 422.823C441.454 420.624 440.065 418.725 438.039 417.919L418.098 410.023C416.47 409.379 414.638 409.54 413.147 410.449L372.353 435.196C371.214 435.887 370.349 436.968 369.917 438.235L358.307 472.489C357.579 474.63 355.666 476.137 353.424 476.322L316.568 479.349C315.886 479.406 315.225 479.59 314.599 479.878L274.113 499.33C271.996 500.343 269.48 499.929 267.784 498.294L244.257 475.458C243.142 474.376 241.628 473.801 240.08 473.881L221.481 474.779C219.854 474.86 218.34 475.642 217.327 476.943L217.361 476.955Z" fill="#79902E"/>
<path d="M30.7833 339.444L2.40745 357.837C-0.426727 359.678 -2.30479 362.717 -2.68041 366.101L-7.68861 411.082C-8.32602 416.849 -4.55847 422.178 1.05296 423.41L12.7197 425.988C16.1344 426.748 19.0141 429.073 20.4824 432.284L36.7476 467.724C38.7281 472.04 37.8289 477.139 34.5053 480.5L26.8678 488.223C23.2255 491.906 22.5426 497.627 25.1946 502.081L43.3151 532.445C45.8647 536.727 50.8957 538.799 55.6876 537.567L58.0665 536.957C64.7023 535.242 68.265 527.968 65.6129 521.58L63.6893 516.964C61.0145 510.541 64.6568 503.221 71.3495 501.563L92.6229 496.292C97.0164 495.198 100.329 491.55 101.023 487.026L105.656 456.893C105.735 456.398 105.838 455.903 105.986 455.419L122.148 400.159C122.991 397.27 122.661 394.163 121.238 391.527L117.004 383.665C114.807 379.591 115.285 374.561 118.233 370.993L123.662 364.409C127.373 359.908 127.077 353.29 122.979 349.147C119.724 345.855 114.795 344.911 110.573 346.775L101.524 350.781C95.605 353.394 88.7416 350.436 86.522 344.301L84.0407 337.475C82.4244 333.009 78.2244 330.051 73.5235 330.051H49.1087C47.0485 330.051 45.0225 330.627 43.2696 331.709L30.7947 339.42L30.7833 339.444Z" fill="#79902E"/>
<path d="M-38.3523 466.4L-45.9783 473.79C-46.9572 474.733 -47.2987 476.161 -46.8775 477.45L-45.5686 481.421C-44.7491 483.907 -41.6303 484.655 -39.7864 482.802L-35.1311 478.094C-34.0156 476.966 -32.3083 476.736 -30.9424 477.519L-17.3293 485.334C-15.8268 486.197 -15.178 488.039 -15.804 489.673L-19.2984 498.801C-19.6057 499.607 -20.1862 500.263 -20.9488 500.654L-29.2692 505.016C-30.4302 505.627 -31.1473 506.835 -31.1473 508.147V510.852C-31.1473 513.269 -28.7912 514.973 -26.5261 514.19L-20.8123 512.199C-19.048 511.589 -17.1244 512.475 -16.4415 514.225L-13.4935 521.672C-12.9585 523.007 -11.6837 523.893 -10.2496 523.893H-1.98605C0.426982 523.893 2.11156 521.464 1.29204 519.162L-5.82185 499.204C-6.11779 498.364 -6.09502 497.443 -5.74217 496.614C-4.78606 494.347 -1.88359 493.748 -0.119347 495.463L3.23839 498.72C4.96848 500.401 7.82543 499.848 8.82706 497.65L10.136 494.761C10.8645 493.15 10.2954 491.239 8.81567 490.295L-7.58612 479.936C-8.37149 479.441 -8.9292 478.647 -9.13408 477.738L-10.9211 469.888C-11.1829 468.76 -11.9683 467.839 -13.0268 467.401L-22.2919 463.661C-23.3505 463.235 -24.1359 462.314 -24.3976 461.197L-25.035 458.458C-25.4107 456.87 -26.8107 455.742 -28.427 455.742H-33.1278C-34.8807 455.742 -36.3603 457.054 -36.588 458.815L-37.2937 464.305C-37.3961 465.099 -37.7604 465.836 -38.3409 466.4H-38.3523Z" fill="#79902E"/>
<path d="M282.74 528.612V516.296C282.74 511.969 279.269 508.458 274.989 508.458H267.078C265.951 508.458 264.836 508.711 263.812 509.183L245.452 517.793C242.709 519.082 240.956 521.856 240.956 524.906V535.599C240.956 539.927 244.428 543.437 248.707 543.437C252.987 543.437 256.459 546.948 256.459 551.276V564.996C256.459 567.597 257.733 570.037 259.873 571.487L276.537 582.871C277.823 583.746 279.325 584.218 280.873 584.218H286.03C290.309 584.218 293.781 580.707 293.781 576.379V545.336C293.781 543.023 292.768 540.836 291.026 539.34L285.461 534.597C283.708 533.113 282.706 530.914 282.706 528.601L282.74 528.612Z" fill="#56682F"/>
<path d="M210.566 663.66H227.502C233.455 663.66 238.281 668.541 238.281 674.56V685.679C238.281 687.268 237.94 688.833 237.28 690.26L225.442 716.077C223.678 719.933 219.853 722.396 215.653 722.396H200.948C194.995 722.396 190.169 717.516 190.169 711.496C190.169 705.477 185.343 700.596 179.39 700.596H160.529C156.944 700.596 153.598 698.801 151.594 695.797L135.932 672.35C134.726 670.543 134.088 668.426 134.088 666.25V658.999C134.088 652.979 138.914 648.099 144.867 648.099H187.562C190.738 648.099 193.754 649.514 195.803 651.978L202.325 659.793C204.374 662.256 207.39 663.672 210.566 663.672V663.66Z" fill="#EFCB7E"/>
<path d="M320.393 622.396H329.384C329.76 622.396 330.113 622.512 330.42 622.73L337.648 628.013C338.126 628.359 338.399 628.934 338.376 629.521L338.035 638.752C338.001 639.708 337.215 640.467 336.271 640.467H330.557C329.578 640.467 328.793 639.673 328.793 638.683V633.4C328.793 632.963 328.633 632.537 328.349 632.215L325.651 629.176C325.321 628.796 324.843 628.577 324.342 628.577H320.404C319.425 628.577 318.64 627.783 318.64 626.793V624.181C318.64 623.191 319.425 622.396 320.404 622.396H320.393Z" fill="#596A2F"/>
<path d="M334.199 496.234H350.442C354.721 496.234 358.193 499.744 358.193 504.072V506.087C358.193 510.414 361.665 513.925 365.944 513.925H374.549C378.829 513.925 382.3 517.436 382.3 521.763V543.955C382.3 545.635 381.765 547.27 380.775 548.616L368.596 565.237C367.139 567.228 364.829 568.414 362.37 568.414H349.69C345.411 568.414 341.939 564.903 341.939 560.575V548.064C341.939 543.736 338.468 540.226 334.188 540.226C329.908 540.226 326.437 536.715 326.437 532.387V504.084C326.437 499.756 329.908 496.245 334.188 496.245L334.199 496.234Z" fill="#596A2F"/>
<path d="M287.486 599.043V627.841C287.486 631.639 290.537 634.724 294.293 634.724H303.558C307.314 634.724 310.365 631.639 310.365 627.841V616.619C310.365 612.82 313.415 609.736 317.171 609.736H319.641C323.397 609.736 326.448 606.651 326.448 602.853V599.043C326.448 595.244 323.397 592.16 319.641 592.16H294.293C290.537 592.16 287.486 595.244 287.486 599.043Z" fill="#EFCB7E"/>
<path d="M211.931 787.049H212.512C215.881 787.049 218.601 789.811 218.601 793.207C218.601 796.614 221.333 799.365 224.691 799.365H232.875C236.244 799.365 238.964 796.602 238.964 793.207V785.921C238.964 783.895 237.985 782.007 236.335 780.856L223.962 772.189C222.938 771.476 221.732 771.096 220.491 771.096H211.92C208.551 771.096 205.831 773.858 205.831 777.254V780.879C205.831 784.286 208.562 787.037 211.92 787.037L211.931 787.049Z" fill="#596A2F"/>
<path d="M19.2872 747.385H18.7067C15.3375 747.385 12.6172 744.622 12.6172 741.227C12.6172 737.82 9.88546 735.069 6.52771 735.069H-1.65611C-5.02525 735.069 -7.74561 737.831 -7.74561 741.227V748.513C-7.74561 750.538 -6.76674 752.426 -5.11632 753.577L7.25615 762.244C8.28055 762.958 9.48709 763.338 10.7277 763.338H19.2986C22.6677 763.338 25.388 760.575 25.388 757.18V753.554C25.388 750.147 22.6563 747.396 19.2986 747.396L19.2872 747.385Z" fill="#EFCB7E"/>
<path d="M252.486 700.354L256.652 704.648C256.971 704.97 257.142 705.407 257.142 705.868V709.482C257.142 710.69 255.958 711.531 254.843 711.116L247.672 708.515C246.989 708.262 246.534 707.617 246.534 706.881V705.58C246.534 704.763 245.964 704.049 245.168 703.876L242.345 703.278C241.548 703.105 240.979 702.403 240.979 701.574C240.979 700.619 241.753 699.836 242.698 699.836H251.257C251.724 699.836 252.156 700.021 252.486 700.354Z" fill="#EFCB7E"/>
<path d="M214.868 726.943L224.042 736.393C224.737 737.106 225.124 738.073 225.124 739.075V747.04C225.124 749.687 222.528 751.54 220.058 750.654L204.249 744.933C202.735 744.392 201.733 742.942 201.733 741.319V738.453C201.733 736.635 200.481 735.069 198.717 734.701L192.502 733.377C190.749 733.009 189.486 731.443 189.486 729.625C189.486 727.507 191.182 725.792 193.276 725.792H212.148C213.161 725.792 214.14 726.206 214.857 726.943H214.868Z" fill="#596A2F"/>
<path d="M236.688 739.212L240.967 738.269C241.65 738.119 242.356 738.43 242.709 739.04L243.756 740.824C244.018 741.273 244.052 741.814 243.858 742.286L240.376 750.769C240.091 751.459 239.385 751.862 238.657 751.758L235.39 751.298C234.491 751.171 233.865 750.32 234.013 749.41L235.447 740.536C235.549 739.869 236.05 739.339 236.699 739.201L236.688 739.212Z" fill="#EFCB7E"/>
<path d="M83.4718 395.785L89.5954 391.124C90.5743 390.376 91.9061 390.353 92.9191 391.055L95.8671 393.127C96.5955 393.645 97.0508 394.473 97.085 395.371L97.6768 411.439C97.7224 412.74 96.8915 413.914 95.6622 414.294L90.1304 415.974C88.6052 416.435 87.0003 415.537 86.5792 413.994L82.4588 398.824C82.1515 397.696 82.5612 396.488 83.4832 395.774L83.4718 395.785Z" fill="#EFCB7E"/>
<path d="M41.5394 745.117L46.9346 738.499C47.9704 737.221 49.8371 737.037 51.1119 738.062L54.2078 740.571C54.9135 741.146 55.3233 742.01 55.3233 742.919V773.651C55.3233 774.146 55.1981 774.629 54.9705 775.067L46.7752 790.582C46.024 791.998 44.3167 792.573 42.8825 791.894C41.4484 791.215 40.7882 789.535 41.3687 788.05L47.0143 773.628C47.4923 772.396 47.1281 770.992 46.1151 770.163L44.8061 769.093C43.9411 768.391 43.5313 767.263 43.7476 766.169L45.2614 758.262C45.3866 757.629 45.2955 756.961 45.0224 756.374L41.1752 748.317C40.663 747.258 40.8224 745.992 41.5622 745.083L41.5394 745.117Z" fill="#596A2F"/>
<path d="M316.295 561.416L318.901 561.98C319.653 562.141 320.29 562.624 320.666 563.303L323.807 569.162C324.012 569.553 324.126 569.991 324.126 570.428V572.788C324.126 574.249 322.953 575.446 321.496 575.446H316.659C315.748 575.446 314.906 574.974 314.428 574.192L313.506 572.695C313.244 572.281 313.119 571.798 313.119 571.303V564.028C313.119 562.336 314.656 561.082 316.295 561.427V561.416Z" fill="#596A2F"/>
<path d="M6.88048 786.22L9.64635 781.846C10.1813 781.005 11.0919 780.499 12.0822 780.499H21.1538C21.9847 780.499 22.7814 780.856 23.3278 781.489L32.3425 791.859C32.8092 792.389 33.0596 793.08 33.0596 793.793V799.663C33.0596 801.378 31.6026 802.737 29.9067 802.575L18.3424 801.516C16.8513 801.378 15.7131 800.112 15.7131 798.604C15.7131 796.993 14.4269 795.692 12.8334 795.681L0.597474 795.612C-0.996037 795.612 -2.28223 794.3 -2.28223 792.688V792.596C-2.28223 791.411 -1.57652 790.352 -0.49521 789.891L5.54875 787.348C6.09509 787.117 6.56178 786.726 6.88048 786.22Z" fill="#596A2F"/>
<path d="M375.585 619.116L381.094 610.392C382.153 608.711 383.997 607.698 385.966 607.698H404.075C405.737 607.698 407.319 608.423 408.412 609.678L426.407 630.385C427.329 631.455 427.841 632.825 427.841 634.241V645.969C427.841 649.399 424.927 652.093 421.547 651.782L398.464 649.664C395.493 649.388 393.205 646.867 393.205 643.852C393.205 640.64 390.644 638.027 387.457 638.016L363.031 637.866C359.855 637.843 357.283 635.242 357.283 632.031V631.846C357.283 629.487 358.683 627.358 360.845 626.448L372.922 621.372C374.015 620.912 374.937 620.129 375.574 619.128L375.585 619.116Z" fill="#EFCB7E"/>
<path d="M67.5824 467.804L69.7222 466.93C72.2263 465.905 74.002 463.638 74.4231 460.944L79.2491 430.143C79.3857 429.257 79.3743 428.348 79.2036 427.461L73.08 395.233C72.4881 392.114 73.8312 388.949 76.4719 387.222C80.9906 384.275 81.2069 377.68 76.893 374.434L64.7938 365.364C63.0637 364.064 60.8782 363.569 58.7612 363.972L41.9041 367.252C38.3756 367.943 35.7918 370.993 35.678 374.63L33.891 428.21C33.8341 429.948 34.3463 431.64 35.3593 433.044L58.488 465.18C60.5596 468.069 64.3157 469.151 67.5938 467.816L67.5824 467.804Z" fill="#596A2F"/>
<path d="M362.564 578.554L357.396 592.758C357.077 593.644 357.624 594.611 358.534 594.784L376.017 597.995C376.496 598.087 376.985 597.926 377.338 597.592L395.697 579.51C395.993 579.222 396.153 578.831 396.153 578.416V574.019C396.153 573.076 395.322 572.362 394.4 572.512L363.725 577.565C363.19 577.657 362.746 578.025 362.552 578.543L362.564 578.554Z" fill="#EFCB7E"/>
<path d="M-190.851 479.429C-173.482 442.816 -140.451 414.121 -102.241 401.253C-62.5848 387.889 -6.83474 394.531 32.7982 412.233" stroke="white" stroke-width="1.59" stroke-miterlimit="10" stroke-dasharray="7.71 7.71"/>
<path d="M36.7935 414.086C38.1707 414.743 39.5252 415.422 40.8569 416.112" stroke="white" stroke-width="1.59" stroke-miterlimit="10"/>
<path d="M40.8682 416.112C40.8682 416.112 42.3251 415.398 44.9885 414.213" stroke="white" stroke-width="1.59" stroke-miterlimit="10"/>
<path d="M53.5708 410.587C81.002 399.595 147.064 378.083 194.096 403.324C244.599 430.442 270.983 516.158 278.427 544.231" stroke="white" stroke-width="1.59" stroke-miterlimit="10" stroke-dasharray="8.17 8.17"/>
<path d="M279.599 548.801C280.316 551.667 280.669 553.255 280.669 553.255" stroke="white" stroke-width="1.59" stroke-miterlimit="10"/>
<path d="M150.411 660.955C150.411 660.955 150.627 659.321 151.219 656.455" stroke="white" stroke-width="1.59" stroke-miterlimit="10"/>
<path d="M153.461 647.384C161.463 619.116 188.541 556.259 271.495 553.324" stroke="white" stroke-width="1.59" stroke-miterlimit="10" stroke-dasharray="8.12 8.12"/>
<path d="M276.127 553.22C277.619 553.209 279.132 553.22 280.658 553.243" stroke="white" stroke-width="1.59" stroke-miterlimit="10"/>
<path d="M342.11 592.159C342.11 592.159 343.749 592.251 346.617 592.608" stroke="white" stroke-width="1.59" stroke-miterlimit="10"/>
<path d="M355.836 594.162C385.032 600.204 450.013 623.892 442.421 714.822" stroke="white" stroke-width="1.59" stroke-miterlimit="10" stroke-dasharray="8.22 8.22"/>
<path d="M342.11 592.159C342.11 592.159 340.505 592.343 337.625 592.838" stroke="white" stroke-width="1.59" stroke-miterlimit="10"/>
<path d="M328.326 594.737C298.823 601.62 230.45 625.285 208.266 699.295" stroke="white" stroke-width="1.59" stroke-miterlimit="10" stroke-dasharray="8.34 8.34"/>
<path d="M206.957 703.922C206.57 705.384 206.195 706.869 205.842 708.365" stroke="white" stroke-width="1.59" stroke-miterlimit="10"/>
<path d="M205.842 708.365C205.842 708.365 204.351 707.709 201.642 706.65" stroke="white" stroke-width="1.59" stroke-miterlimit="10"/>
<path d="M193.401 703.623C158.799 691.618 61.7997 666.296 28.5522 745.117" stroke="white" stroke-width="1.59" stroke-miterlimit="10" stroke-dasharray="7.7 7.7"/>
<path d="M26.9136 749.238C26.3786 750.642 25.8778 752.081 25.377 753.554" stroke="white" stroke-width="1.59" stroke-miterlimit="10"/>
<path d="M52.4209 489.823C53.7071 488.971 54.9933 488.154 56.2567 487.383" stroke="white" stroke-width="1.59" stroke-miterlimit="10"/>
<path d="M64.2588 482.894C129.217 449.71 165.139 513.902 175.884 537.854" stroke="white" stroke-width="1.59" stroke-miterlimit="10" stroke-dasharray="8.03 8.03"/>
<path d="M177.694 542.079C178.798 544.76 179.344 546.337 179.344 546.337" stroke="white" stroke-width="1.59" stroke-miterlimit="10"/>
<path d="M-71.3384 577.864C-68.7546 547.581 -52.3642 479.671 43.235 488.752" stroke="white" stroke-width="1.59" stroke-miterlimit="10" stroke-dasharray="8.26 8.26"/>
<path d="M47.9248 489.248C49.4045 489.42 50.9069 489.616 52.4208 489.823" stroke="white" stroke-width="1.59" stroke-miterlimit="10"/>
<path d="M342.11 592.16C341.666 590.686 341.256 589.213 340.903 587.74" stroke="white" stroke-width="1.59" stroke-miterlimit="10"/>
<path d="M339.23 578.485C331.194 510.748 415.696 454.084 459.028 489.512" stroke="white" stroke-width="1.59" stroke-miterlimit="10" stroke-dasharray="8.17 8.17"/>
<path d="M344.318 591.929C345.775 591.491 347.232 591.089 348.689 590.697" stroke="white" stroke-width="1.59" stroke-miterlimit="10"/>
<path d="M357.692 588.58C480.779 563.257 606.769 688.476 521.141 778.784" stroke="white" stroke-width="1.59" stroke-miterlimit="10" stroke-dasharray="8.12 8.12"/>
<path d="M205.842 708.365C206.513 709.746 207.196 711.105 207.902 712.451" stroke="white" stroke-width="1.59" stroke-miterlimit="10"/>
<path d="M212.272 720.29C261.74 803.508 371.794 817.654 445.517 791.031" stroke="white" stroke-width="1.59" stroke-miterlimit="10" stroke-dasharray="7.82 7.82"/>
<path d="M47.686 416.112C47.686 412.302 44.6356 409.206 40.8567 409.206C37.0778 409.206 34.0273 412.291 34.0273 416.112C34.0273 419.933 37.0778 423.018 40.8567 423.018C44.6356 423.018 47.686 419.933 47.686 416.112Z" fill="white"/>
<path d="M59.2505 489.823C59.2505 486.013 56.2 482.917 52.4211 482.917C48.6422 482.917 45.5918 486.002 45.5918 489.823C45.5918 493.644 48.6422 496.729 52.4211 496.729C56.2 496.729 59.2505 493.644 59.2505 489.823Z" fill="white"/>
<path d="M186.173 546.349C186.173 542.539 183.123 539.443 179.344 539.443C175.565 539.443 172.515 542.528 172.515 546.349C172.515 550.17 175.565 553.255 179.344 553.255C183.123 553.255 186.173 550.17 186.173 546.349Z" fill="white"/>
<path d="M287.486 553.243C287.486 549.434 284.436 546.337 280.657 546.337C276.878 546.337 273.828 549.422 273.828 553.243C273.828 557.065 276.878 560.15 280.657 560.15C284.436 560.15 287.486 557.065 287.486 553.243Z" fill="white"/>
<path d="M157.228 660.955C157.228 657.146 154.178 654.049 150.399 654.049C146.62 654.049 143.57 657.134 143.57 660.955C143.57 664.777 146.62 667.861 150.399 667.861C154.178 667.861 157.228 664.777 157.228 660.955Z" fill="white"/>
<path d="M32.206 753.554C32.206 749.744 29.1556 746.648 25.3767 746.648C21.5978 746.648 18.5474 749.733 18.5474 753.554C18.5474 757.375 21.5978 760.46 25.3767 760.46C29.1556 760.46 32.206 757.375 32.206 753.554Z" fill="white"/>
<path d="M212.671 708.366C212.671 704.556 209.621 701.459 205.842 701.459C202.063 701.459 199.013 704.544 199.013 708.366C199.013 712.187 202.063 715.272 205.842 715.272C209.621 715.272 212.671 712.187 212.671 708.366Z" fill="white"/>
<path d="M348.939 592.159C348.939 588.35 345.889 585.253 342.11 585.253C338.331 585.253 335.28 588.338 335.28 592.159C335.28 595.981 338.331 599.066 342.11 599.066C345.889 599.066 348.939 595.981 348.939 592.159Z" fill="white"/>
<path d="M25.3767 753.554C25.0466 752.058 24.7393 750.562 24.4434 749.065" stroke="white" stroke-width="1.59" stroke-miterlimit="10"/>
<path d="M22.8497 740.225C3.67065 622.73 75.4583 545.095 170.386 546.027" stroke="white" stroke-width="1.59" stroke-miterlimit="10" stroke-dasharray="7.81 7.81"/>
<path d="M174.825 546.13C176.328 546.188 177.841 546.257 179.355 546.349" stroke="white" stroke-width="1.59" stroke-miterlimit="10"/>
</g>
</g>
</g>
<defs>
<radialGradient id="paint0_radial_20_119419" cx="0" cy="0" r="1" gradientUnits="userSpaceOnUse" gradientTransform="translate(187 773.767) scale(254.337 879.33)">
<stop offset="0.28" stop-color="white"/>
<stop offset="1" stop-color="#92D1D5"/>
</radialGradient>
<clipPath id="clip0_20_119419">
<rect width="375" height="812" fill="white"/>
</clipPath>
</defs>
</svg>
