<svg width="333" height="69" viewBox="0 0 333 69" fill="none" xmlns="http://www.w3.org/2000/svg">
<g clip-path="url(#clip0_88_199168)">
<path d="M-185 0H298.172C317.399 0 333 15.463 333 34.5C333 53.5462 317.39 69 298.172 69H-185V0Z" fill="#76777A"/>
<path d="M19.0103 29.933C18.0763 29.933 17.6094 29.4732 17.6094 28.5463V19.3628C17.6094 19.0586 17.7014 18.818 17.8924 18.6341C18.0763 18.4501 18.324 18.3511 18.6211 18.3511H23.8496C24.6208 18.3511 25.0029 18.7331 25.0029 19.5043C25.0029 20.2755 24.6208 20.6576 23.8496 20.6576H20.397V23.1975H23.1987C23.9699 23.1975 24.352 23.5796 24.352 24.3508C24.352 25.122 23.9699 25.5182 23.1987 25.5182H20.397V28.5534C20.397 29.4802 19.9371 29.9401 19.0103 29.9401V29.933Z" fill="white"/>
<path d="M27.8184 29.9332C26.8915 29.9332 26.4316 29.4733 26.4316 28.5606V22.193C26.4316 21.4431 26.8208 21.0752 27.5991 21.0752C28.3349 21.0752 28.7381 21.4148 28.816 22.1011L28.8796 22.6175H28.9433C29.2546 22.0445 29.6438 21.6058 30.1107 21.2945C30.5494 21.0044 30.9951 20.8558 31.4621 20.8558H31.5399C31.8724 20.9195 32.0988 21.0822 32.2262 21.3511C32.3394 21.6129 32.3606 21.9242 32.2898 22.285C32.2262 22.6034 32.0988 22.8581 31.9007 23.0491C31.6955 23.2472 31.4408 23.3251 31.1366 23.2826H31.1083C30.7475 23.2826 30.4008 23.4029 30.0824 23.6434C29.7074 23.9264 29.4103 24.3368 29.198 24.8745V28.5606C29.198 29.4733 28.7381 29.9332 27.8254 29.9332H27.8184Z" fill="white"/>
<path d="M37.3138 30.1456C36.1323 30.1456 35.1276 29.7352 34.2928 28.9145C33.4084 28.0443 32.9697 26.9052 32.9697 25.5043C32.9697 24.1034 33.4084 22.9643 34.2928 22.0799C35.1135 21.2592 36.1181 20.8489 37.3138 20.8489C38.5095 20.8489 39.5 21.2592 40.3208 22.0799C41.2052 22.9502 41.6438 24.0893 41.6438 25.4972C41.6438 26.9052 41.2052 28.0443 40.3208 28.9145C39.5 29.7352 38.5025 30.1456 37.3138 30.1456ZM37.3138 27.9098C37.8091 27.9098 38.1912 27.6905 38.4529 27.2589C38.6935 26.8557 38.8138 26.2755 38.8138 25.5185C38.8138 23.9124 38.3185 23.1058 37.3209 23.1058C36.8115 23.1058 36.4295 23.3252 36.1677 23.7568C35.9271 24.1813 35.8068 24.7685 35.8068 25.5185C35.8068 27.1174 36.3092 27.9169 37.3138 27.9169V27.9098Z" fill="white"/>
<path d="M44.7705 29.9332C43.8437 29.9332 43.3838 29.4733 43.3838 28.5606V22.193C43.3838 21.4431 43.78 21.0752 44.5653 21.0752C45.2941 21.0752 45.7044 21.4077 45.8105 22.0728L45.8247 22.2001H45.8884C46.327 21.7615 46.7162 21.4501 47.0558 21.252C47.5227 20.9903 48.0321 20.8629 48.584 20.8629C49.7372 20.8629 50.5438 21.3511 51.0108 22.3275C51.4706 21.8605 51.8739 21.5209 52.2418 21.3016C52.73 21.0115 53.2465 20.8629 53.7842 20.8629C54.7181 20.8629 55.4256 21.1884 55.8997 21.8251C56.3383 22.4407 56.5506 23.3109 56.5506 24.4571V28.5536C56.5506 29.4804 56.0907 29.9403 55.1639 29.9403C54.237 29.9403 53.7771 29.4804 53.7771 28.5536V24.8038C53.7771 24.2094 53.6922 23.7991 53.5295 23.5585C53.3809 23.3392 53.1333 23.2331 52.7654 23.2331C52.3409 23.2331 51.8668 23.4949 51.3504 24.0255V28.5536C51.3504 29.4804 50.8905 29.9403 49.9636 29.9403C49.0368 29.9403 48.5628 29.4804 48.5628 28.5536V24.8038C48.5628 24.2094 48.4779 23.7991 48.3151 23.5585C48.1666 23.3392 47.9189 23.2331 47.551 23.2331C47.1265 23.2331 46.6525 23.4949 46.136 24.0255V28.5677C46.136 29.4804 45.6761 29.9403 44.7634 29.9403L44.7705 29.9332Z" fill="white"/>
<path d="M67.0143 30.1452C66.1935 30.1452 65.4294 29.756 64.729 28.9778H64.6653L64.6512 29.0415C64.5167 29.6358 64.1135 29.9259 63.4555 29.9259C63.0946 29.9259 62.8046 29.8339 62.5994 29.657C62.3942 29.473 62.2881 29.2113 62.2881 28.8575V18.8674C62.2881 17.9548 62.748 17.4949 63.6748 17.4949C64.6016 17.4949 65.0474 17.9548 65.0474 18.8674V20.4876L64.9837 21.8107C65.6771 21.181 66.4412 20.8626 67.269 20.8626C68.3302 20.8626 69.1722 21.273 69.8019 22.0866C70.4315 22.9003 70.7428 23.9898 70.7428 25.3483C70.7428 26.8128 70.3608 27.9943 69.5896 28.9C68.8821 29.7419 68.026 30.1593 67.0213 30.1593L67.0143 30.1452ZM66.3563 27.8741C66.8162 27.8741 67.1699 27.683 67.4317 27.301C67.7288 26.8765 67.8845 26.2397 67.8845 25.4049C67.8845 23.8766 67.4105 23.1196 66.4553 23.1196C65.9813 23.1196 65.5073 23.3672 65.0403 23.8696V27.3717C65.4224 27.7113 65.8681 27.8882 66.3633 27.8882L66.3563 27.8741Z" fill="white"/>
<path d="M76.3685 30.1456C75.187 30.1456 74.1823 29.7352 73.3475 28.9145C72.4631 28.0443 72.0244 26.9052 72.0244 25.5043C72.0244 24.1034 72.4631 22.9643 73.3475 22.0799C74.1682 21.2592 75.1729 20.8489 76.3685 20.8489C77.5642 20.8489 78.5548 21.2592 79.3755 22.0799C80.2599 22.9502 80.6985 24.0893 80.6985 25.4972C80.6985 26.9052 80.2599 28.0443 79.3755 28.9145C78.5548 29.7352 77.5572 30.1456 76.3685 30.1456ZM76.3685 27.9098C76.8638 27.9098 77.2459 27.6905 77.5076 27.2589C77.7482 26.8557 77.8685 26.2755 77.8685 25.5185C77.8685 23.9124 77.3732 23.1058 76.3756 23.1058C75.8662 23.1058 75.4842 23.3252 75.2224 23.7568C74.9818 24.1813 74.8615 24.7685 74.8615 25.5185C74.8615 27.1174 75.3639 27.9169 76.3685 27.9169V27.9098Z" fill="white"/>
<path d="M86.2806 30.1456C85.0991 30.1456 84.0944 29.7352 83.2596 28.9145C82.3752 28.0443 81.9365 26.9052 81.9365 25.5043C81.9365 24.1034 82.3752 22.9643 83.2596 22.0799C84.0803 21.2592 85.0849 20.8489 86.2806 20.8489C87.4763 20.8489 88.4668 21.2592 89.2876 22.0799C90.1719 22.9502 90.6106 24.0893 90.6106 25.4972C90.6106 26.9052 90.1719 28.0443 89.2876 28.9145C88.4668 29.7352 87.4693 30.1456 86.2806 30.1456ZM86.2806 27.9098C86.7759 27.9098 87.158 27.6905 87.4197 27.2589C87.6603 26.8557 87.7806 26.2755 87.7806 25.5185C87.7806 23.9124 87.2853 23.1058 86.2877 23.1058C85.7783 23.1058 85.3962 23.3252 85.1345 23.7568C84.8939 24.1813 84.7737 24.7685 84.7737 25.5185C84.7737 27.1174 85.276 27.9169 86.2806 27.9169V27.9098Z" fill="white"/>
<path d="M93.7019 29.9334C92.7963 29.9334 92.3506 29.4877 92.3506 28.5962V18.8396C92.3506 17.9482 92.8034 17.5024 93.7019 17.5024C94.6005 17.5024 95.0391 17.9482 95.0391 18.8396V24.4431H95.1028L97.4234 21.5494C97.6852 21.2381 98.0107 21.0825 98.4069 21.0825H99.3691C99.8077 21.0825 100.07 21.1815 100.161 21.3796C100.253 21.5777 100.162 21.8395 99.8644 22.172L97.6711 24.7403L100.289 28.8014C100.515 29.141 100.572 29.4169 100.459 29.6292C100.345 29.8344 100.077 29.9405 99.6663 29.9405H98.7182C98.513 29.9405 98.3078 29.8839 98.1168 29.7707C97.9258 29.6575 97.7772 29.5089 97.6711 29.332L96.1004 26.5798L95.0391 27.7755V28.6033C95.0391 29.4948 94.5934 29.9405 93.7019 29.9405V29.9334Z" fill="white"/>
<path d="M103.607 19.8442C103.14 19.8442 102.758 19.7098 102.46 19.448C102.163 19.1862 102.015 18.8395 102.015 18.4221C102.015 18.0047 102.163 17.658 102.46 17.3962C102.758 17.1344 103.14 17 103.607 17C104.074 17 104.456 17.1344 104.746 17.4033C105.036 17.6651 105.184 18.0047 105.184 18.4292C105.184 18.8537 105.036 19.1862 104.739 19.448C104.441 19.7098 104.066 19.8442 103.607 19.8442ZM103.607 29.9333C102.68 29.9333 102.22 29.4734 102.22 28.5607V22.4408C102.22 21.5281 102.68 21.0682 103.607 21.0682C104.533 21.0682 104.979 21.5281 104.979 22.4408V28.5607C104.979 29.4734 104.519 29.9333 103.607 29.9333Z" fill="white"/>
<path d="M108.603 29.9332C107.676 29.9332 107.216 29.4733 107.216 28.5606V22.193C107.216 21.4431 107.612 21.0752 108.412 21.0752C109.126 21.0752 109.536 21.4006 109.643 22.0586L109.657 22.186H109.72C110.626 21.3016 111.567 20.8629 112.55 20.8629C114.39 20.8629 115.303 22.0586 115.303 24.4571V28.5536C115.303 29.4804 114.843 29.9403 113.916 29.9403C112.989 29.9403 112.529 29.4804 112.529 28.5536V24.8038C112.529 24.2094 112.444 23.7991 112.282 23.5585C112.126 23.3392 111.864 23.2331 111.503 23.2331C111.213 23.2331 110.951 23.3038 110.711 23.4383C110.513 23.5444 110.265 23.7425 109.961 24.0326V28.5748C109.961 29.4875 109.501 29.9474 108.588 29.9474L108.603 29.9332Z" fill="white"/>
<path d="M120.63 33.6478C119.533 33.6478 118.656 33.478 117.998 33.1313C117.269 32.7351 116.908 32.1691 116.908 31.4191C116.908 30.6691 117.326 30.1031 118.168 29.6786V29.6008C117.63 29.24 117.361 28.7305 117.361 28.0726C117.361 27.7683 117.453 27.4712 117.644 27.1669C117.821 26.8769 118.054 26.6292 118.344 26.417V26.3533C118.005 26.1128 117.729 25.8085 117.517 25.4335C117.269 25.009 117.142 24.5492 117.142 24.061C117.142 23.0351 117.524 22.2214 118.281 21.6342C118.967 21.1036 119.823 20.8418 120.849 20.8418C121.365 20.8418 121.832 20.9125 122.25 21.0611H124.507C125.172 21.0611 125.504 21.3937 125.504 22.0587C125.504 22.7238 125.172 23.0705 124.507 23.0705H124.132C124.295 23.3605 124.38 23.7214 124.38 24.1459C124.38 25.1293 124.04 25.8864 123.354 26.4028C122.731 26.8769 121.896 27.1174 120.849 27.1174C120.531 27.1174 120.177 27.0679 119.809 26.9618C119.625 27.1386 119.526 27.3438 119.526 27.5844C119.526 27.7896 119.625 27.9452 119.83 28.0372C120.035 28.1292 120.368 28.1787 120.835 28.1787H122.236C124.507 28.1787 125.646 28.9357 125.646 30.4498C125.646 31.3908 125.193 32.162 124.295 32.7563C123.382 33.3506 122.165 33.6407 120.637 33.6407L120.63 33.6478ZM121.068 31.9214C121.641 31.9214 122.101 31.8295 122.462 31.6526C122.823 31.4686 123 31.2351 123 30.9451C123 30.6974 122.887 30.5276 122.66 30.4286C122.476 30.3437 122.158 30.3012 121.712 30.3012H120.87C120.29 30.3012 119.866 30.2658 119.611 30.1951C119.328 30.4427 119.193 30.7116 119.193 30.9875C119.193 31.2917 119.363 31.5181 119.71 31.6879C120.042 31.8436 120.495 31.9214 121.082 31.9214H121.068ZM120.849 25.4618C121.189 25.4618 121.465 25.3486 121.656 25.1222C121.861 24.8746 121.967 24.5279 121.967 24.0893C121.967 23.6506 121.861 23.3039 121.656 23.0563C121.457 22.8299 121.189 22.7167 120.849 22.7167C120.509 22.7167 120.255 22.8299 120.057 23.0563C119.837 23.3039 119.731 23.6506 119.731 24.0893C119.731 24.5279 119.837 24.8746 120.057 25.1222C120.262 25.3486 120.531 25.4618 120.849 25.4618Z" fill="white"/>
<path d="M134.093 30.1452C133.025 30.1452 132.226 29.8268 131.695 29.183C131.207 28.5887 130.966 27.7467 130.966 26.643V23.2328H130.796C130.11 23.2328 129.771 22.8791 129.771 22.1715C129.771 21.5065 130.089 21.1527 130.733 21.0961L131.122 21.0678L131.292 19.7731C131.384 19.0797 131.801 18.733 132.537 18.733C133.336 18.733 133.733 19.1151 133.733 19.8863V21.0678H134.744C135.459 21.0678 135.82 21.4287 135.82 22.1432C135.82 22.8578 135.459 23.2328 134.744 23.2328H133.733V26.6076C133.733 27.5203 134.108 27.9802 134.85 27.9802H134.879C135.126 27.9307 135.339 27.9802 135.515 28.1217C135.692 28.2561 135.806 28.4613 135.855 28.7302C136.018 29.4589 135.834 29.8905 135.296 30.0249C134.935 30.1098 134.525 30.1523 134.079 30.1523L134.093 30.1452Z" fill="white"/>
<path d="M138.919 19.8442C138.452 19.8442 138.07 19.7098 137.773 19.448C137.476 19.1862 137.327 18.8395 137.327 18.4221C137.327 18.0047 137.476 17.658 137.773 17.3962C138.07 17.1344 138.452 17 138.919 17C139.386 17 139.768 17.1344 140.058 17.4033C140.348 17.6651 140.497 18.0047 140.497 18.4292C140.497 18.8537 140.348 19.1862 140.051 19.448C139.754 19.7098 139.379 19.8442 138.919 19.8442ZM138.919 29.9333C137.992 29.9333 137.532 29.4734 137.532 28.5607V22.4408C137.532 21.5281 137.992 21.0682 138.919 21.0682C139.846 21.0682 140.292 21.5281 140.292 22.4408V28.5607C140.292 29.4734 139.832 29.9333 138.919 29.9333Z" fill="white"/>
<path d="M146.44 30.1456C145.166 30.1456 144.119 29.7352 143.313 28.9145C142.464 28.0726 142.039 26.9406 142.039 25.5043C142.039 24.0681 142.506 22.9431 143.44 22.0799C144.31 21.2592 145.393 20.8489 146.695 20.8489C147.36 20.8489 147.947 20.9833 148.456 21.2522C149.008 21.613 149.079 22.0799 148.676 22.6389C148.216 23.2544 147.643 23.403 146.949 23.0917H146.857C146.256 23.0917 145.775 23.311 145.414 23.7426C145.053 24.1813 144.876 24.7614 144.876 25.5043C144.876 26.2472 145.053 26.8132 145.407 27.2448C145.761 27.6834 146.213 27.8957 146.758 27.8957C146.921 27.8957 147.098 27.8674 147.289 27.8179C147.975 27.457 148.506 27.6127 148.895 28.2848C149.036 28.5466 149.079 28.7872 149.022 29.0206C148.959 29.2541 148.803 29.4593 148.555 29.6362C147.918 29.9687 147.225 30.1314 146.454 30.1314L146.44 30.1456Z" fill="white"/>
<path d="M152.249 29.9334C151.343 29.9334 150.897 29.4877 150.897 28.5962V18.8396C150.897 17.9482 151.35 17.5024 152.249 17.5024C153.147 17.5024 153.586 17.9482 153.586 18.8396V24.4431H153.65L155.97 21.5494C156.232 21.2381 156.558 21.0825 156.954 21.0825H157.916C158.355 21.0825 158.616 21.1815 158.708 21.3796C158.8 21.5777 158.708 21.8395 158.411 22.172L156.218 24.7403L158.836 28.8014C159.062 29.141 159.119 29.4169 159.006 29.6292C158.892 29.8344 158.624 29.9405 158.213 29.9405H157.265C157.06 29.9405 156.855 29.8839 156.664 29.7707C156.473 29.6575 156.324 29.5089 156.218 29.332L154.647 26.5798L153.586 27.7755V28.6033C153.586 29.4948 153.14 29.9405 152.249 29.9405V29.9334Z" fill="white"/>
<path d="M164.233 30.1456C162.924 30.1456 161.856 29.7352 161.028 28.9145C160.165 28.0726 159.733 26.9406 159.733 25.5043C159.733 24.0681 160.165 22.9856 161.028 22.0941C161.835 21.2663 162.811 20.8489 163.936 20.8489C165.174 20.8489 166.122 21.2592 166.801 22.0799C167.424 22.8511 167.735 23.8629 167.735 25.1293C167.735 25.4123 167.721 25.66 167.686 25.8793C167.665 25.9925 167.594 26.0915 167.474 26.1835C167.353 26.2684 167.219 26.3179 167.063 26.3179H162.408C162.648 27.457 163.384 28.0301 164.615 28.0301C164.934 28.0301 165.252 27.9806 165.563 27.8886C165.853 27.7542 166.122 27.7259 166.363 27.8037C166.603 27.8815 166.809 28.0584 166.964 28.3414C167.254 28.8721 167.141 29.2895 166.625 29.5866C165.868 29.9616 165.068 30.1456 164.226 30.1456H164.233ZM162.365 24.5138H165.386C165.386 23.4879 164.919 22.9714 163.986 22.9714C163.582 22.9714 163.236 23.0988 162.96 23.3464C162.655 23.6152 162.464 24.0044 162.365 24.5138Z" fill="white"/>
<path d="M172.809 30.1452C171.741 30.1452 170.941 29.8268 170.411 29.183C169.923 28.5887 169.682 27.7467 169.682 26.643V23.2328H169.512C168.826 23.2328 168.486 22.8791 168.486 22.1715C168.486 21.5065 168.805 21.1527 169.449 21.0961L169.838 21.0678L170.007 19.7731C170.099 19.0797 170.517 18.733 171.253 18.733C172.052 18.733 172.448 19.1151 172.448 19.8863V21.0678H173.46C174.175 21.0678 174.536 21.4287 174.536 22.1432C174.536 22.8578 174.175 23.2328 173.46 23.2328H172.448V26.6076C172.448 27.5203 172.823 27.9802 173.566 27.9802H173.595C173.842 27.9307 174.054 27.9802 174.231 28.1217C174.408 28.2561 174.521 28.4613 174.571 28.7302C174.734 29.4589 174.55 29.8905 174.012 30.0249C173.651 30.1098 173.241 30.1523 172.795 30.1523L172.809 30.1452Z" fill="white"/>
<path d="M178.71 30.1455C177.847 30.1455 176.983 29.9191 176.127 29.4592C175.575 29.0842 175.498 28.6243 175.894 28.0725C176.099 27.7824 176.361 27.6196 176.672 27.5772C176.962 27.5489 177.266 27.6267 177.578 27.8248C177.981 28.0088 178.384 28.1078 178.773 28.1078C179.467 28.1078 179.813 27.8744 179.813 27.4074C179.813 27.2022 179.672 27.0112 179.396 26.8485C179.233 26.7423 178.901 26.6008 178.398 26.4098C178.25 26.3461 178.137 26.3037 178.059 26.2683C176.524 25.6528 175.752 24.7896 175.752 23.6717C175.752 22.8298 176.064 22.1506 176.693 21.6341C177.323 21.1176 178.151 20.8558 179.177 20.8558C180.019 20.8558 180.818 21.061 181.575 21.4784C181.858 21.6624 182.007 21.8676 182.028 22.0869C182.035 22.2921 181.936 22.5468 181.717 22.8369C181.519 23.0986 181.285 23.2472 181.009 23.2897C180.733 23.3321 180.45 23.2685 180.16 23.1057C179.835 22.9713 179.545 22.9005 179.276 22.9005C178.653 22.9005 178.342 23.1128 178.342 23.5373C178.342 23.7425 178.476 23.9264 178.745 24.0821C178.908 24.1741 179.24 24.3085 179.729 24.4712C179.884 24.5207 179.997 24.5632 180.068 24.5986C180.776 24.8674 181.306 25.1646 181.653 25.483C182.148 25.9499 182.403 26.5442 182.403 27.2588C182.403 28.1078 182.092 28.7941 181.469 29.3106C180.804 29.8695 179.884 30.1525 178.717 30.1525L178.71 30.1455Z" fill="white"/>
<path d="M191.048 30.1452C189.98 30.1452 189.181 29.8268 188.65 29.183C188.162 28.5887 187.921 27.7467 187.921 26.643V23.2328H187.751C187.065 23.2328 186.726 22.8791 186.726 22.1715C186.726 21.5065 187.044 21.1527 187.688 21.0961L188.077 21.0678L188.247 19.7731C188.339 19.0797 188.756 18.733 189.492 18.733C190.291 18.733 190.688 19.1151 190.688 19.8863V21.0678H191.699C192.414 21.0678 192.775 21.4287 192.775 22.1432C192.775 22.8578 192.414 23.2328 191.699 23.2328H190.688V26.6076C190.688 27.5203 191.063 27.9802 191.806 27.9802H191.834C192.081 27.9307 192.294 27.9802 192.471 28.1217C192.647 28.2561 192.761 28.4613 192.81 28.7302C192.973 29.4589 192.789 29.8905 192.251 30.0249C191.89 30.1098 191.48 30.1523 191.034 30.1523L191.048 30.1452Z" fill="white"/>
<path d="M197.99 30.1456C196.808 30.1456 195.803 29.7352 194.969 28.9145C194.084 28.0443 193.646 26.9052 193.646 25.5043C193.646 24.1034 194.084 22.9643 194.969 22.0799C195.789 21.2592 196.794 20.8489 197.99 20.8489C199.185 20.8489 200.176 21.2592 200.997 22.0799C201.881 22.9502 202.32 24.0893 202.32 25.4972C202.32 26.9052 201.881 28.0443 200.997 28.9145C200.176 29.7352 199.178 30.1456 197.99 30.1456ZM197.99 27.9098C198.485 27.9098 198.867 27.6905 199.129 27.2589C199.369 26.8557 199.49 26.2755 199.49 25.5185C199.49 23.9124 198.994 23.1058 197.997 23.1058C197.487 23.1058 197.105 23.3252 196.843 23.7568C196.603 24.1813 196.483 24.7685 196.483 25.5185C196.483 27.1174 196.985 27.9169 197.99 27.9169V27.9098Z" fill="white"/>
<path d="M209.479 29.9333C208.553 29.9333 208.093 29.4734 208.093 28.5465V23.2402H207.937C207.251 23.2402 206.911 22.8864 206.911 22.1789C206.911 21.5139 207.23 21.1601 207.873 21.1035L208.093 21.0894V20.7285C208.093 19.7026 208.34 18.889 208.843 18.3018C209.423 17.6155 210.293 17.2759 211.439 17.2759C211.814 17.2759 212.147 17.3042 212.437 17.3679C212.975 17.5164 213.158 17.9409 212.982 18.6414C212.911 18.9456 212.776 19.1649 212.585 19.3135C212.394 19.4621 212.161 19.4975 211.878 19.4409H211.85C211.199 19.4409 210.866 19.8441 210.866 20.6578V21.0752H211.361C212.076 21.0752 212.437 21.436 212.437 22.1506C212.437 22.8652 212.076 23.2402 211.361 23.2402H210.866V28.5465C210.866 29.4734 210.406 29.9333 209.479 29.9333ZM216.328 30.1455C215.422 30.1455 214.765 29.8625 214.354 29.2894C213.993 28.78 213.809 28.0371 213.809 27.0466V18.8749C213.809 17.948 214.269 17.4881 215.196 17.4881C216.123 17.4881 216.583 17.948 216.583 18.8749V27.1527C216.583 27.648 216.746 27.9027 217.064 27.9027H217.092C217.177 27.8956 217.255 27.9452 217.326 28.0584C217.389 28.1503 217.432 28.2565 217.453 28.3697C217.517 28.7305 217.517 29.0772 217.453 29.3956C217.382 29.7988 217.22 30.0323 216.972 30.096C216.788 30.1243 216.576 30.1455 216.335 30.1455H216.328Z" fill="white"/>
<path d="M220.093 33.3361C219.937 33.3361 219.824 33.3361 219.753 33.322C219.428 33.2725 219.215 33.0885 219.116 32.7772C219.031 32.5083 219.031 32.1829 219.116 31.815C219.166 31.6169 219.258 31.4541 219.378 31.3339C219.512 31.1994 219.668 31.1499 219.845 31.1782H219.873C220.63 31.1782 221.126 30.8245 221.352 30.1169L221.479 29.6641L218.727 22.6739C218.31 21.6056 218.663 21.0679 219.788 21.0679C220.503 21.0679 220.984 21.4216 221.218 22.1291L222.059 24.7469C222.187 25.1219 222.342 25.7021 222.541 26.4874C222.633 26.8199 222.703 27.0746 222.746 27.2515H222.824C222.93 26.7421 223.1 25.9922 223.34 24.9946C223.368 24.8814 223.39 24.7965 223.404 24.7469L224.132 22.115C224.338 21.4216 224.79 21.0749 225.484 21.0749C226.531 21.0749 226.885 21.5702 226.545 22.5678L225.533 25.511L224.026 29.9471C223.566 31.1499 223.071 31.9989 222.533 32.5013C221.918 33.0602 221.111 33.3432 220.107 33.3432L220.093 33.3361Z" fill="white"/>
<path d="M229.777 19.8442C229.31 19.8442 228.928 19.7098 228.631 19.448C228.334 19.1862 228.186 18.8395 228.186 18.4221C228.186 18.0047 228.334 17.658 228.631 17.3962C228.928 17.1344 229.31 17 229.777 17C230.244 17 230.626 17.1344 230.917 17.4033C231.207 17.6651 231.355 18.0047 231.355 18.4292C231.355 18.8537 231.207 19.1862 230.909 19.448C230.612 19.7098 230.237 19.8442 229.777 19.8442ZM229.777 29.9333C228.851 29.9333 228.391 29.4734 228.391 28.5607V22.4408C228.391 21.5281 228.851 21.0682 229.777 21.0682C230.704 21.0682 231.15 21.5281 231.15 22.4408V28.5607C231.15 29.4734 230.69 29.9333 229.777 29.9333Z" fill="white"/>
<path d="M234.772 29.9332C233.846 29.9332 233.386 29.4733 233.386 28.5606V22.193C233.386 21.4431 233.782 21.0752 234.581 21.0752C235.296 21.0752 235.706 21.4006 235.813 22.0586L235.827 22.186H235.89C236.796 21.3016 237.737 20.8629 238.72 20.8629C240.56 20.8629 241.473 22.0586 241.473 24.4571V28.5536C241.473 29.4804 241.013 29.9403 240.086 29.9403C239.159 29.9403 238.699 29.4804 238.699 28.5536V24.8038C238.699 24.2094 238.614 23.7991 238.452 23.5585C238.296 23.3392 238.034 23.2331 237.673 23.2331C237.383 23.2331 237.121 23.3038 236.881 23.4383C236.683 23.5444 236.435 23.7425 236.131 24.0326V28.5748C236.131 29.4875 235.671 29.9474 234.758 29.9474L234.772 29.9332Z" fill="white"/>
<path d="M246.801 33.6478C245.704 33.6478 244.827 33.478 244.169 33.1313C243.44 32.7351 243.079 32.1691 243.079 31.4191C243.079 30.6691 243.497 30.1031 244.338 29.6786V29.6008C243.801 29.24 243.532 28.7305 243.532 28.0726C243.532 27.7683 243.624 27.4712 243.815 27.1669C243.992 26.8769 244.225 26.6292 244.515 26.417V26.3533C244.176 26.1128 243.9 25.8085 243.688 25.4335C243.44 25.009 243.313 24.5492 243.313 24.061C243.313 23.0351 243.695 22.2214 244.452 21.6342C245.138 21.1036 245.994 20.8418 247.02 20.8418C247.536 20.8418 248.003 20.9125 248.421 21.0611H250.678C251.343 21.0611 251.675 21.3937 251.675 22.0587C251.675 22.7238 251.343 23.0705 250.678 23.0705H250.303C250.466 23.3605 250.55 23.7214 250.55 24.1459C250.55 25.1293 250.211 25.8864 249.525 26.4028C248.902 26.8769 248.067 27.1174 247.02 27.1174C246.702 27.1174 246.348 27.0679 245.98 26.9618C245.796 27.1386 245.697 27.3438 245.697 27.5844C245.697 27.7896 245.796 27.9452 246.001 28.0372C246.206 28.1292 246.539 28.1787 247.006 28.1787H248.407C250.678 28.1787 251.817 28.9357 251.817 30.4498C251.817 31.3908 251.364 32.162 250.466 32.7563C249.553 33.3506 248.336 33.6407 246.808 33.6407L246.801 33.6478ZM247.239 31.9214C247.812 31.9214 248.272 31.8295 248.633 31.6526C248.994 31.4686 249.171 31.2351 249.171 30.9451C249.171 30.6974 249.058 30.5276 248.831 30.4286C248.647 30.3437 248.329 30.3012 247.883 30.3012H247.041C246.461 30.3012 246.037 30.2658 245.782 30.1951C245.499 30.4427 245.364 30.7116 245.364 30.9875C245.364 31.2917 245.534 31.5181 245.881 31.6879C246.213 31.8436 246.666 31.9214 247.253 31.9214H247.239ZM247.02 25.4618C247.36 25.4618 247.635 25.3486 247.827 25.1222C248.032 24.8746 248.138 24.5279 248.138 24.0893C248.138 23.6506 248.032 23.3039 247.827 23.0563C247.628 22.8299 247.36 22.7167 247.02 22.7167C246.68 22.7167 246.426 22.8299 246.228 23.0563C246.008 23.3039 245.902 23.6506 245.902 24.0893C245.902 24.5279 246.008 24.8746 246.228 25.1222C246.433 25.3486 246.702 25.4618 247.02 25.4618Z" fill="white"/>
<path d="M259.02 30.1456C258.22 30.1456 257.576 29.8838 257.088 29.3532C256.621 28.8579 256.388 28.2212 256.388 27.457C256.388 26.516 256.777 25.7802 257.555 25.2637C258.333 24.7473 259.586 24.3935 261.305 24.2025C261.241 23.4454 260.795 23.0634 259.968 23.0634C259.593 23.0634 259.175 23.1483 258.708 23.3252C258.39 23.4808 258.093 23.5233 257.824 23.4525C257.534 23.3888 257.307 23.212 257.152 22.9077C256.841 22.3134 256.982 21.8606 257.569 21.5352C258.567 21.0753 259.543 20.8489 260.498 20.8489C262.883 20.8489 264.078 22.2002 264.078 24.8958V28.8013C264.078 29.1621 263.958 29.4451 263.718 29.6432C263.491 29.8272 263.18 29.9263 262.798 29.9263C262.508 29.9263 262.253 29.8484 262.041 29.6999C261.828 29.5513 261.687 29.339 261.616 29.0702V29.0419H261.553C260.732 29.7777 259.89 30.1456 259.013 30.1456H259.02ZM259.975 28.0018C260.435 28.0018 260.88 27.7683 261.312 27.3014V25.8864C260.505 25.9925 259.904 26.1694 259.522 26.417C259.189 26.6363 259.027 26.9123 259.027 27.2448C259.027 27.7542 259.345 28.0089 259.975 28.0089V28.0018Z" fill="white"/>
<path d="M270.948 30.1452C270.127 30.1452 269.363 29.756 268.663 28.9778H268.599L268.585 29.0415C268.45 29.6358 268.047 29.9259 267.389 29.9259C267.028 29.9259 266.738 29.8339 266.533 29.657C266.328 29.473 266.222 29.2113 266.222 28.8575V18.8674C266.222 17.9548 266.682 17.4949 267.608 17.4949C268.535 17.4949 268.981 17.9548 268.981 18.8674V20.4876L268.917 21.8107C269.611 21.181 270.375 20.8626 271.203 20.8626C272.264 20.8626 273.106 21.273 273.735 22.0866C274.365 22.9003 274.676 23.9898 274.676 25.3483C274.676 26.8128 274.294 27.9943 273.523 28.9C272.816 29.7419 271.96 30.1593 270.955 30.1593L270.948 30.1452ZM270.29 27.8741C270.75 27.8741 271.104 27.683 271.365 27.301C271.662 26.8765 271.818 26.2397 271.818 25.4049C271.818 23.8766 271.344 23.1196 270.389 23.1196C269.915 23.1196 269.441 23.3672 268.974 23.8696V27.3717C269.356 27.7113 269.802 27.8882 270.297 27.8882L270.29 27.8741Z" fill="white"/>
<path d="M277.839 29.9332C276.912 29.9332 276.452 29.4733 276.452 28.5606V22.193C276.452 21.4431 276.841 21.0752 277.62 21.0752C278.355 21.0752 278.759 21.4148 278.836 22.1011L278.9 22.6175H278.964C279.275 22.0445 279.664 21.6058 280.131 21.2945C280.57 21.0044 281.016 20.8558 281.483 20.8558H281.56C281.893 20.9195 282.119 21.0822 282.247 21.3511C282.36 21.6129 282.381 21.9242 282.31 22.285C282.247 22.6034 282.119 22.8581 281.921 23.0491C281.716 23.2472 281.461 23.3251 281.157 23.2826H281.129C280.768 23.2826 280.421 23.4029 280.103 23.6434C279.728 23.9264 279.431 24.3368 279.219 24.8745V28.5606C279.219 29.4733 278.759 29.9332 277.846 29.9332H277.839Z" fill="white"/>
<path d="M287.334 30.1456C286.153 30.1456 285.148 29.7352 284.313 28.9145C283.429 28.0443 282.99 26.9052 282.99 25.5043C282.99 24.1034 283.429 22.9643 284.313 22.0799C285.134 21.2592 286.139 20.8489 287.334 20.8489C288.53 20.8489 289.521 21.2592 290.341 22.0799C291.226 22.9502 291.664 24.0893 291.664 25.4972C291.664 26.9052 291.226 28.0443 290.341 28.9145C289.521 29.7352 288.523 30.1456 287.334 30.1456ZM287.334 27.9098C287.83 27.9098 288.212 27.6905 288.473 27.2589C288.714 26.8557 288.834 26.2755 288.834 25.5185C288.834 23.9124 288.339 23.1058 287.341 23.1058C286.832 23.1058 286.45 23.3252 286.188 23.7568C285.948 24.1813 285.827 24.7685 285.827 25.5185C285.827 27.1174 286.33 27.9169 287.334 27.9169V27.9098Z" fill="white"/>
<path d="M295.441 30.1456C294.642 30.1456 293.998 29.8838 293.51 29.3532C293.043 28.8579 292.81 28.2212 292.81 27.457C292.81 26.516 293.199 25.7802 293.977 25.2637C294.755 24.7473 296.007 24.3935 297.727 24.2025C297.663 23.4454 297.217 23.0634 296.39 23.0634C296.015 23.0634 295.597 23.1483 295.13 23.3252C294.812 23.4808 294.515 23.5233 294.246 23.4525C293.956 23.3888 293.729 23.212 293.574 22.9077C293.262 22.3134 293.404 21.8606 293.991 21.5352C294.989 21.0753 295.965 20.8489 296.92 20.8489C299.305 20.8489 300.5 22.2002 300.5 24.8958V28.8013C300.5 29.1621 300.38 29.4451 300.139 29.6432C299.913 29.8272 299.602 29.9263 299.22 29.9263C298.93 29.9263 298.675 29.8484 298.463 29.6999C298.25 29.5513 298.109 29.339 298.038 29.0702V29.0419H297.974C297.154 29.7777 296.312 30.1456 295.434 30.1456H295.441ZM296.397 28.0018C296.857 28.0018 297.302 27.7683 297.734 27.3014V25.8864C296.927 25.9925 296.326 26.1694 295.944 26.417C295.611 26.6363 295.449 26.9123 295.449 27.2448C295.449 27.7542 295.767 28.0089 296.397 28.0089V28.0018Z" fill="white"/>
<path d="M305.806 30.1453C304.696 30.1453 303.811 29.7279 303.16 28.9001C302.509 28.0723 302.177 26.9403 302.177 25.504C302.177 24.0678 302.559 22.9711 303.316 22.0797C304.023 21.259 304.865 20.8486 305.835 20.8486C306.287 20.8486 306.698 20.9335 307.052 21.0962C307.342 21.2307 307.646 21.4571 307.971 21.7684L307.865 20.4453V18.8746C307.865 17.9478 308.332 17.4879 309.266 17.4879C310.2 17.4879 310.653 17.9478 310.653 18.8746V28.8081C310.653 29.1689 310.532 29.4519 310.292 29.65C310.065 29.834 309.754 29.933 309.372 29.933C309.082 29.933 308.834 29.8623 308.622 29.7279C308.403 29.5722 308.261 29.367 308.184 29.1053V29.077H308.12C307.405 29.7915 306.634 30.1524 305.799 30.1524L305.806 30.1453ZM306.542 27.8742C307.101 27.8742 307.547 27.6266 307.865 27.1242V23.6362C307.483 23.2824 307.023 23.1056 306.493 23.1056C306.075 23.1056 305.743 23.2895 305.481 23.6645C305.177 24.089 305.028 24.6833 305.028 25.4545C305.028 27.0605 305.53 27.8671 306.535 27.8671L306.542 27.8742Z" fill="white"/>
<path d="M312.874 32.7491C312.782 32.5085 312.804 32.275 312.952 32.0345C313.08 31.8293 313.271 31.6595 313.525 31.5392C314.261 31.0723 314.629 30.4992 314.629 29.827H314.488C314.028 29.827 313.646 29.6926 313.334 29.4238C313.002 29.1337 312.839 28.7516 312.839 28.2705C312.839 27.7894 313.002 27.4427 313.334 27.1526C313.667 26.8626 314.077 26.714 314.565 26.714C315.167 26.714 315.634 26.9404 315.959 27.3932C316.285 27.846 316.447 28.4828 316.447 29.3035C316.447 30.3082 316.164 31.1784 315.591 31.9001C315.153 32.4307 314.594 32.8552 313.907 33.1736C313.412 33.3717 313.058 33.2302 312.867 32.7561L312.874 32.7491Z" fill="white"/>
<path d="M19.7388 49.0359C19.477 49.0359 19.2506 48.9581 19.0596 48.8095C18.8686 48.6609 18.7412 48.4557 18.6775 48.2081L17.0715 41.7202C16.8239 40.6943 17.22 40.1779 18.253 40.1779C19.0384 40.1779 19.5124 40.5741 19.668 41.3594L20.227 44.147C20.2765 44.4512 20.3402 44.897 20.4109 45.4842C20.4958 46.0644 20.5595 46.503 20.5949 46.7931H20.6727C20.6939 46.687 20.7222 46.5313 20.7505 46.3261C20.9133 45.3427 21.0618 44.614 21.1892 44.147L21.8613 41.1755C21.9321 40.8571 22.1019 40.6024 22.3778 40.4255C22.6396 40.2628 22.9438 40.1779 23.2976 40.1779C23.6513 40.1779 23.9556 40.2628 24.2174 40.4255C24.4862 40.6024 24.656 40.85 24.7338 41.1755L25.4484 44.147C25.5333 44.5008 25.6465 45.0385 25.788 45.7672C25.8729 46.2271 25.9366 46.5667 25.9932 46.7931H26.071C26.1135 46.5525 26.1559 46.2059 26.2125 45.7531C26.3045 45.0385 26.3894 44.5008 26.4602 44.147L27.0049 41.2816C27.1535 40.5458 27.5993 40.1779 28.3421 40.1779C29.3044 40.1779 29.6793 40.6519 29.46 41.5929L27.9035 48.1798C27.8398 48.4416 27.7124 48.6468 27.5214 48.8024C27.3304 48.9581 27.0969 49.0359 26.8281 49.0359H25.222C24.9956 49.0359 24.7975 48.9652 24.6206 48.8307C24.4508 48.6963 24.3376 48.5123 24.2881 48.2859L23.715 45.654C23.5664 44.9677 23.4108 44.1045 23.248 43.0574H23.1702C23.0146 44.1399 22.8731 45.0031 22.7528 45.654L22.2222 48.1586C22.1726 48.4274 22.0453 48.6397 21.8472 48.7953C21.6491 48.951 21.4156 49.0288 21.1467 49.0288H19.7317L19.7388 49.0359Z" fill="white"/>
<path d="M32.7363 49.036C31.8095 49.036 31.3496 48.5761 31.3496 47.6634V37.9634C31.3496 37.0507 31.8095 36.5908 32.7363 36.5908C33.6632 36.5908 34.1089 37.0507 34.1089 37.9634V39.5836L33.9816 41.1543C34.8447 40.3548 35.7432 39.9586 36.6913 39.9586C38.5308 39.9586 39.4435 41.1543 39.4435 43.5527V47.6492C39.4435 48.5761 38.9837 49.036 38.0568 49.036C37.13 49.036 36.6701 48.5761 36.6701 47.6492V43.8994C36.6701 43.3051 36.5852 42.8947 36.4225 42.6542C36.2668 42.4349 36.005 42.3287 35.6442 42.3287C35.3541 42.3287 35.0924 42.3995 34.8518 42.5339C34.6537 42.64 34.406 42.8381 34.1018 43.1282V47.6705C34.1018 48.5831 33.642 49.043 32.7293 49.043L32.7363 49.036Z" fill="white"/>
<path d="M43.837 49.2484C43.0375 49.2484 42.3937 48.9866 41.9055 48.456C41.4386 47.9607 41.2051 47.3239 41.2051 46.5598C41.2051 45.6188 41.5942 44.883 42.3725 44.3665C43.1507 43.85 44.403 43.4963 46.1223 43.3053C46.0586 42.5482 45.6129 42.1662 44.7851 42.1662C44.4101 42.1662 43.9927 42.2511 43.5257 42.428C43.2073 42.5836 42.9102 42.6261 42.6413 42.5553C42.3512 42.4916 42.1249 42.3148 41.9692 42.0105C41.6579 41.4162 41.7994 40.9634 42.3866 40.6379C43.3842 40.1781 44.3606 39.9517 45.3157 39.9517C47.7 39.9517 48.8957 41.303 48.8957 43.9986V47.9041C48.8957 48.2649 48.7755 48.5479 48.5349 48.746C48.3085 48.93 47.9972 49.029 47.6151 49.029C47.3251 49.029 47.0704 48.9512 46.8581 48.8026C46.6459 48.6541 46.5044 48.4418 46.4336 48.1729V48.1446H46.3699C45.5492 48.8805 44.7073 49.2484 43.8299 49.2484H43.837ZM44.7851 47.1046C45.2379 47.1046 45.6907 46.8711 46.1223 46.4042V44.9891C45.3157 45.0953 44.7143 45.2722 44.3323 45.5198C43.9998 45.7391 43.837 46.015 43.837 46.3476C43.837 46.857 44.1554 47.1117 44.7851 47.1117V47.1046Z" fill="white"/>
<path d="M54.1735 49.248C53.1052 49.248 52.3057 48.9296 51.775 48.2858C51.2868 47.6914 51.0463 46.8495 51.0463 45.7458V42.3356H50.8765C50.1902 42.3356 49.8506 41.9818 49.8506 41.2743C49.8506 40.6093 50.169 40.2555 50.8128 40.1989L51.2019 40.1706L51.3717 38.8759C51.4637 38.1825 51.8811 37.8358 52.617 37.8358C53.4164 37.8358 53.8127 38.2179 53.8127 38.9891V40.1706H54.8244C55.539 40.1706 55.8998 40.5314 55.8998 41.246C55.8998 41.9606 55.539 42.3356 54.8244 42.3356H53.8127V45.7104C53.8127 46.6231 54.1876 47.083 54.9305 47.083H54.9588C55.2065 47.0335 55.4187 47.083 55.5956 47.2245C55.7725 47.3589 55.8857 47.5641 55.9352 47.833C56.0979 48.5617 55.914 48.9933 55.3763 49.1277C55.0154 49.2126 54.6051 49.2551 54.1593 49.2551L54.1735 49.248Z" fill="white"/>
<path d="M62.5577 38.9471C62.0908 38.9471 61.7087 38.8127 61.4116 38.5509C61.1144 38.2891 60.9658 37.9424 60.9658 37.525C60.9658 37.1076 61.1144 36.7609 61.4116 36.4991C61.7087 36.2373 62.0908 36.1029 62.5577 36.1029C63.0247 36.1029 63.4067 36.2373 63.6968 36.5062C63.9869 36.768 64.1355 37.1076 64.1355 37.5321C64.1355 37.9566 63.9869 38.2891 63.6897 38.5509C63.3926 38.8127 63.0176 38.9471 62.5577 38.9471ZM62.5577 49.0362C61.6309 49.0362 61.171 48.5763 61.171 47.6636V41.5437C61.171 40.631 61.6309 40.1711 62.5577 40.1711C63.4846 40.1711 63.9303 40.631 63.9303 41.5437V47.6636C63.9303 48.5763 63.4704 49.0362 62.5577 49.0362Z" fill="white"/>
<path d="M68.8191 49.2484C67.956 49.2484 67.0928 49.022 66.2367 48.5621C65.6849 48.1871 65.607 47.7272 66.0033 47.1754C66.2084 46.8853 66.4702 46.7226 66.7815 46.6801C67.0716 46.6518 67.3758 46.7296 67.6871 46.9277C68.0904 47.1117 68.4937 47.2107 68.8828 47.2107C69.5762 47.2107 69.9229 46.9773 69.9229 46.5103C69.9229 46.3051 69.7814 46.1141 69.5054 45.9514C69.3427 45.8452 69.0102 45.7037 68.5078 45.5127C68.3593 45.449 68.2461 45.4066 68.1682 45.3712C66.6329 44.7557 65.8617 43.8925 65.8617 42.7746C65.8617 41.9327 66.173 41.2535 66.8027 40.737C67.4324 40.2205 68.2602 39.9587 69.2861 39.9587C70.128 39.9587 70.9275 40.1639 71.6846 40.5813C71.9676 40.7653 72.1161 40.9705 72.1374 41.1898C72.1444 41.395 72.0454 41.6497 71.8261 41.9398C71.628 42.2016 71.3945 42.3501 71.1186 42.3926C70.8426 42.435 70.5596 42.3714 70.2695 42.2086C69.9512 42.0742 69.654 42.0034 69.3852 42.0034C68.7625 42.0034 68.4512 42.2157 68.4512 42.6402C68.4512 42.8454 68.5857 43.0293 68.8545 43.185C69.0173 43.277 69.3498 43.4114 69.838 43.5741C69.9936 43.6237 70.1068 43.6661 70.1776 43.7015C70.8851 43.9703 71.4157 44.2675 71.7624 44.5859C72.2576 45.0528 72.5123 45.6471 72.5123 46.3617C72.5123 47.2107 72.201 47.897 71.5784 48.4135C70.9134 48.9724 69.9936 49.2554 68.8262 49.2554L68.8191 49.2484Z" fill="white"/>
<path d="M78.7801 52.439C78.6244 52.439 78.5112 52.439 78.4405 52.4249C78.1221 52.3754 77.9028 52.1914 77.8037 51.8801C77.7188 51.6112 77.7188 51.2858 77.8037 50.9179C77.8532 50.7198 77.9452 50.557 78.0655 50.4368C78.1999 50.3023 78.3556 50.2528 78.5325 50.2811H78.5608C79.3178 50.2811 79.8131 49.9274 80.0395 49.2198L80.1668 48.767L77.4146 41.7768C76.9971 40.7085 77.3509 40.1708 78.4758 40.1708C79.1904 40.1708 79.6716 40.5245 79.905 41.232L80.747 43.8498C80.8743 44.2248 81.03 44.805 81.2281 45.5903C81.3201 45.9228 81.3908 46.1775 81.4333 46.3544H81.5111C81.6172 45.845 81.787 45.0951 82.0276 44.0975C82.0559 43.9843 82.0771 43.8994 82.0912 43.8498L82.82 41.2179C83.0252 40.5245 83.478 40.1778 84.1713 40.1778C85.2184 40.1778 85.5722 40.6731 85.2326 41.6707L84.2209 44.6139L82.7139 49.05C82.254 50.2528 81.7587 51.1018 81.221 51.6042C80.6055 52.1631 79.7989 52.4461 78.7942 52.4461L78.7801 52.439Z" fill="white"/>
<path d="M90.7445 49.2484C89.563 49.2484 88.5583 48.838 87.7234 48.0173C86.839 47.1471 86.4004 46.008 86.4004 44.6071C86.4004 43.2062 86.839 42.0671 87.7234 41.1827C88.5441 40.362 89.5488 39.9517 90.7445 39.9517C91.9402 39.9517 92.9307 40.362 93.7514 41.1827C94.6358 42.053 95.0745 43.1921 95.0745 44.6C95.0745 46.008 94.6358 47.1471 93.7514 48.0173C92.9307 48.838 91.9331 49.2484 90.7445 49.2484ZM90.7445 47.0126C91.2398 47.0126 91.6218 46.7933 91.8836 46.3617C92.1242 45.9584 92.2444 45.3783 92.2444 44.6212C92.2444 43.0152 91.7492 42.2086 90.7516 42.2086C90.2422 42.2086 89.8601 42.428 89.5983 42.8595C89.3578 43.284 89.2375 43.8713 89.2375 44.6212C89.2375 46.2202 89.7399 47.0197 90.7445 47.0197V47.0126Z" fill="white"/>
<path d="M99.4827 49.2481C97.6432 49.2481 96.7305 48.0525 96.7305 45.654V41.5575C96.7305 40.6307 97.1903 40.1708 98.1172 40.1708C99.044 40.1708 99.5039 40.6307 99.5039 41.5575V45.3073C99.5039 45.9016 99.5888 46.312 99.7516 46.5525C99.9072 46.7719 100.169 46.878 100.53 46.878C100.841 46.878 101.103 46.8072 101.322 46.6728C101.542 46.5384 101.768 46.3049 102.009 45.9724V41.5504C102.009 40.6236 102.468 40.1637 103.395 40.1637C104.322 40.1637 104.782 40.6236 104.782 41.5504V47.9039C104.782 48.6538 104.386 49.0217 103.6 49.0217C102.872 49.0217 102.461 48.6892 102.355 48.0242L102.327 47.8048H102.263C101.464 48.76 100.537 49.234 99.4898 49.234L99.4827 49.2481Z" fill="white"/>
<path d="M108.383 49.0361C107.456 49.0361 106.996 48.5762 106.996 47.6635V41.2959C106.996 40.546 107.385 40.1781 108.163 40.1781C108.899 40.1781 109.303 40.5177 109.38 41.204L109.444 41.7204H109.508C109.819 41.1474 110.208 40.7087 110.675 40.3974C111.114 40.1073 111.56 39.9587 112.026 39.9587H112.104C112.437 40.0224 112.663 40.1851 112.791 40.454C112.904 40.7158 112.925 41.0271 112.854 41.3879C112.791 41.7063 112.663 41.961 112.465 42.152C112.26 42.3501 112.005 42.428 111.701 42.3855H111.673C111.312 42.3855 110.965 42.5058 110.647 42.7463C110.272 43.0293 109.975 43.4397 109.762 43.9774V47.6635C109.762 48.5762 109.303 49.0361 108.39 49.0361H108.383Z" fill="white"/>
<path d="M121.273 49.248C120.205 49.248 119.405 48.9296 118.875 48.2858C118.386 47.6914 118.146 46.8495 118.146 45.7458V42.3356H117.976C117.29 42.3356 116.95 41.9818 116.95 41.2743C116.95 40.6093 117.269 40.2555 117.912 40.1989L118.302 40.1706L118.471 38.8759C118.563 38.1825 118.981 37.8358 119.717 37.8358C120.516 37.8358 120.912 38.2179 120.912 38.9891V40.1706H121.924C122.639 40.1706 122.999 40.5314 122.999 41.246C122.999 41.9606 122.639 42.3356 121.924 42.3356H120.912V45.7104C120.912 46.6231 121.287 47.083 122.03 47.083H122.058C122.306 47.0335 122.518 47.083 122.695 47.2245C122.872 47.3589 122.985 47.5641 123.035 47.833C123.198 48.5617 123.014 48.9933 122.476 49.1277C122.115 49.2126 121.705 49.2551 121.259 49.2551L121.273 49.248Z" fill="white"/>
<path d="M126.099 49.0361C125.172 49.0361 124.712 48.5762 124.712 47.6635V41.2959C124.712 40.546 125.101 40.1781 125.879 40.1781C126.615 40.1781 127.018 40.5177 127.096 41.204L127.16 41.7204H127.224C127.535 41.1474 127.924 40.7087 128.391 40.3974C128.83 40.1073 129.275 39.9587 129.742 39.9587H129.82C130.153 40.0224 130.379 40.1851 130.506 40.454C130.62 40.7158 130.641 41.0271 130.57 41.3879C130.506 41.7063 130.379 41.961 130.181 42.152C129.976 42.3501 129.721 42.428 129.417 42.3855H129.389C129.028 42.3855 128.681 42.5058 128.363 42.7463C127.988 43.0293 127.691 43.4397 127.478 43.9774V47.6635C127.478 48.5762 127.018 49.0361 126.106 49.0361H126.099Z" fill="white"/>
<path d="M133.662 49.2484C132.863 49.2484 132.219 48.9866 131.731 48.456C131.264 47.9607 131.03 47.3239 131.03 46.5598C131.03 45.6188 131.419 44.883 132.198 44.3665C132.976 43.85 134.228 43.4963 135.947 43.3053C135.884 42.5482 135.438 42.1662 134.61 42.1662C134.235 42.1662 133.818 42.2511 133.351 42.428C133.033 42.5836 132.735 42.6261 132.467 42.5553C132.176 42.4916 131.95 42.3148 131.794 42.0105C131.483 41.4162 131.625 40.9634 132.212 40.6379C133.209 40.1781 134.186 39.9517 135.141 39.9517C137.525 39.9517 138.721 41.303 138.721 43.9986V47.9041C138.721 48.2649 138.601 48.5479 138.36 48.746C138.134 48.93 137.822 49.029 137.44 49.029C137.15 49.029 136.896 48.9512 136.683 48.8026C136.471 48.6541 136.33 48.4418 136.259 48.1729V48.1446H136.195C135.374 48.8805 134.532 49.2484 133.655 49.2484H133.662ZM134.61 47.1046C135.07 47.1046 135.516 46.8711 135.947 46.4042V44.9891C135.141 45.0953 134.54 45.2722 134.158 45.5198C133.825 45.7391 133.662 46.015 133.662 46.3476C133.662 46.857 133.981 47.1117 134.61 47.1117V47.1046Z" fill="white"/>
<path d="M143.638 49.0359C143.412 49.0359 143.207 48.9722 143.03 48.8449C142.853 48.7175 142.725 48.5406 142.655 48.3213L140.476 41.7556C140.115 40.7085 140.483 40.1849 141.593 40.1849C142.35 40.1849 142.832 40.5599 143.023 41.3028L143.801 44.2602C143.872 44.5503 143.985 44.9889 144.126 45.5691C144.275 46.1917 144.388 46.6657 144.466 46.9841H144.544C144.671 46.4252 144.862 45.6045 145.138 44.522C145.166 44.4088 145.188 44.3168 145.202 44.2602L146.008 41.2391C146.192 40.5316 146.652 40.1779 147.381 40.1779C148.428 40.1779 148.789 40.6802 148.47 41.6849L146.341 48.2506C146.256 48.4911 146.122 48.6751 145.93 48.8166C145.739 48.9581 145.52 49.0288 145.265 49.0288H143.631L143.638 49.0359Z" fill="white"/>
<path d="M154.131 49.2484C152.822 49.2484 151.753 48.838 150.926 48.0173C150.062 47.1754 149.631 46.0433 149.631 44.6071C149.631 43.1708 150.062 42.0883 150.926 41.1969C151.732 40.3691 152.709 39.9517 153.833 39.9517C155.072 39.9517 156.02 40.362 156.699 41.1827C157.322 41.9539 157.633 42.9657 157.633 44.2321C157.633 44.5151 157.619 44.7627 157.583 44.9821C157.562 45.0953 157.491 45.1943 157.371 45.2863C157.251 45.3712 157.116 45.4207 156.961 45.4207H152.305C152.546 46.5598 153.282 47.1329 154.513 47.1329C154.831 47.1329 155.149 47.0834 155.461 46.9914C155.751 46.857 156.02 46.8287 156.26 46.9065C156.501 46.9843 156.706 47.1612 156.862 47.4442C157.152 47.9748 157.038 48.3923 156.522 48.6894C155.765 49.0644 154.965 49.2484 154.124 49.2484H154.131ZM152.263 43.6166H155.284C155.284 42.5907 154.817 42.0742 153.883 42.0742C153.48 42.0742 153.133 42.2015 152.857 42.4492C152.553 42.718 152.362 43.1072 152.263 43.6166Z" fill="white"/>
<path d="M161.928 49.2482C161.022 49.2482 160.364 48.9652 159.954 48.3921C159.593 47.8827 159.409 47.1398 159.409 46.1493V37.9634C159.409 37.0507 159.869 36.5908 160.796 36.5908C161.723 36.5908 162.168 37.0507 162.168 37.9634V46.2625C162.168 46.5243 162.225 46.7224 162.338 46.8568C162.423 46.9629 162.529 47.0125 162.664 47.0125H162.692C162.777 47.0054 162.855 47.0549 162.926 47.1681C162.989 47.2601 163.032 47.3662 163.053 47.4794C163.117 47.8403 163.117 48.1869 163.053 48.5053C162.968 48.9086 162.805 49.1421 162.558 49.2058C162.374 49.2341 162.161 49.2553 161.935 49.2553L161.928 49.2482Z" fill="white"/>
<path d="M168.571 49.2484C167.262 49.2484 166.194 48.838 165.366 48.0173C164.503 47.1754 164.071 46.0433 164.071 44.6071C164.071 43.1708 164.503 42.0883 165.366 41.1969C166.173 40.3691 167.149 39.9517 168.274 39.9517C169.512 39.9517 170.46 40.362 171.139 41.1827C171.762 41.9539 172.073 42.9657 172.073 44.2321C172.073 44.5151 172.059 44.7627 172.024 44.9821C172.002 45.0953 171.932 45.1943 171.811 45.2863C171.691 45.3712 171.557 45.4207 171.401 45.4207H166.746C166.986 46.5598 167.722 47.1329 168.953 47.1329C169.272 47.1329 169.59 47.0834 169.901 46.9914C170.191 46.857 170.46 46.8287 170.701 46.9065C170.941 46.9843 171.146 47.1612 171.302 47.4442C171.592 47.9748 171.479 48.3923 170.962 48.6894C170.205 49.0644 169.406 49.2484 168.564 49.2484H168.571ZM166.703 43.6166H169.724C169.724 42.5907 169.257 42.0742 168.323 42.0742C167.92 42.0742 167.573 42.2015 167.298 42.4492C166.993 42.718 166.802 43.1072 166.703 43.6166Z" fill="white"/>
<path d="M175.235 49.0361C174.309 49.0361 173.849 48.5762 173.849 47.6635V41.2959C173.849 40.546 174.238 40.1781 175.016 40.1781C175.752 40.1781 176.155 40.5177 176.233 41.204L176.297 41.7204H176.36C176.672 41.1474 177.061 40.7087 177.528 40.3974C177.966 40.1073 178.412 39.9587 178.879 39.9587H178.957C179.289 40.0224 179.516 40.1851 179.643 40.454C179.756 40.7158 179.778 41.0271 179.707 41.3879C179.643 41.7063 179.516 41.961 179.318 42.152C179.113 42.3501 178.858 42.428 178.554 42.3855H178.525C178.164 42.3855 177.818 42.5058 177.499 42.7463C177.124 43.0293 176.827 43.4397 176.615 43.9774V47.6635C176.615 48.5762 176.155 49.0361 175.242 49.0361H175.235Z" fill="white"/>
<path d="M186.025 52.2553C185.099 52.2553 184.639 51.7954 184.639 50.8827V41.2959C184.639 40.9351 184.766 40.6521 185.014 40.454C185.24 40.27 185.551 40.171 185.933 40.171C186.224 40.171 186.471 40.2417 186.683 40.3762C186.889 40.5247 187.023 40.7299 187.087 40.9988V41.0271H187.15C187.957 40.3125 188.792 39.9517 189.641 39.9517C190.702 39.9517 191.537 40.362 192.16 41.1757C192.782 41.9893 193.093 43.0859 193.093 44.4514C193.093 45.9018 192.711 47.0834 191.94 47.9819C191.233 48.8239 190.377 49.2413 189.372 49.2413C188.615 49.2413 187.929 48.9371 187.32 48.3215L187.398 49.7082V50.8756C187.398 51.7883 186.938 52.2482 186.025 52.2482V52.2553ZM188.714 46.9773C189.174 46.9773 189.528 46.7862 189.789 46.4042C190.086 45.9797 190.242 45.3429 190.242 44.508C190.242 42.9798 189.768 42.2228 188.813 42.2228C188.339 42.2228 187.865 42.4704 187.398 42.9727V46.4749C187.78 46.8145 188.226 46.9914 188.721 46.9914L188.714 46.9773Z" fill="white"/>
<path d="M198.881 49.2484C197.572 49.2484 196.503 48.838 195.676 48.0173C194.812 47.1754 194.381 46.0433 194.381 44.6071C194.381 43.1708 194.812 42.0883 195.676 41.1969C196.482 40.3691 197.459 39.9517 198.583 39.9517C199.822 39.9517 200.77 40.362 201.449 41.1827C202.072 41.9539 202.383 42.9657 202.383 44.2321C202.383 44.5151 202.369 44.7627 202.333 44.9821C202.312 45.0953 202.241 45.1943 202.121 45.2863C202.001 45.3712 201.866 45.4207 201.711 45.4207H197.055C197.296 46.5598 198.032 47.1329 199.263 47.1329C199.581 47.1329 199.899 47.0834 200.211 46.9914C200.501 46.857 200.77 46.8287 201.01 46.9065C201.251 46.9843 201.456 47.1612 201.612 47.4442C201.902 47.9748 201.788 48.3923 201.272 48.6894C200.515 49.0644 199.715 49.2484 198.874 49.2484H198.881ZM197.013 43.6166H200.034C200.034 42.5907 199.567 42.0742 198.633 42.0742C198.23 42.0742 197.883 42.2015 197.607 42.4492C197.303 42.718 197.112 43.1072 197.013 43.6166Z" fill="white"/>
<path d="M205.538 49.0361C204.611 49.0361 204.151 48.5762 204.151 47.6635V41.2959C204.151 40.546 204.54 40.1781 205.319 40.1781C206.055 40.1781 206.458 40.5177 206.536 41.204L206.599 41.7204H206.663C206.974 41.1474 207.363 40.7087 207.83 40.3974C208.269 40.1073 208.715 39.9587 209.182 39.9587H209.26C209.592 40.0224 209.819 40.1851 209.946 40.454C210.059 40.7158 210.08 41.0271 210.01 41.3879C209.946 41.7063 209.819 41.961 209.62 42.152C209.415 42.3501 209.161 42.428 208.856 42.3855H208.828C208.467 42.3855 208.12 42.5058 207.802 42.7463C207.427 43.0293 207.13 43.4397 206.918 43.9774V47.6635C206.918 48.5762 206.458 49.0361 205.545 49.0361H205.538Z" fill="white"/>
<path d="M213.851 49.2484C212.988 49.2484 212.125 49.022 211.269 48.5621C210.717 48.1871 210.639 47.7272 211.035 47.1754C211.241 46.8853 211.502 46.7226 211.814 46.6801C212.104 46.6518 212.408 46.7296 212.719 46.9277C213.123 47.1117 213.526 47.2107 213.915 47.2107C214.608 47.2107 214.955 46.9773 214.955 46.5103C214.955 46.3051 214.814 46.1141 214.538 45.9514C214.375 45.8452 214.042 45.7037 213.54 45.5127C213.391 45.449 213.278 45.4066 213.2 45.3712C211.665 44.7557 210.894 43.8925 210.894 42.7746C210.894 41.9327 211.205 41.2535 211.835 40.737C212.465 40.2205 213.292 39.9587 214.318 39.9587C215.16 39.9587 215.96 40.1639 216.717 40.5813C217 40.7653 217.148 40.9705 217.17 41.1898C217.177 41.395 217.078 41.6497 216.858 41.9398C216.66 42.2016 216.427 42.3501 216.151 42.3926C215.875 42.435 215.592 42.3714 215.302 42.2086C214.976 42.0742 214.686 42.0034 214.417 42.0034C213.795 42.0034 213.483 42.2157 213.483 42.6402C213.483 42.8454 213.618 43.0293 213.887 43.185C214.049 43.277 214.382 43.4114 214.87 43.5741C215.026 43.6237 215.139 43.6661 215.21 43.7015C215.917 43.9703 216.448 44.2675 216.795 44.5859C217.29 45.0528 217.545 45.6471 217.545 46.3617C217.545 47.2107 217.233 47.897 216.611 48.4135C215.946 48.9724 215.026 49.2554 213.858 49.2554L213.851 49.2484Z" fill="white"/>
<path d="M222.986 49.2484C221.804 49.2484 220.8 48.838 219.965 48.0173C219.08 47.1471 218.642 46.008 218.642 44.6071C218.642 43.2062 219.08 42.0671 219.965 41.1827C220.785 40.362 221.79 39.9517 222.986 39.9517C224.181 39.9517 225.172 40.362 225.993 41.1827C226.877 42.053 227.316 43.1921 227.316 44.6C227.316 46.008 226.877 47.1471 225.993 48.0173C225.172 48.838 224.174 49.2484 222.986 49.2484ZM222.986 47.0126C223.481 47.0126 223.863 46.7933 224.125 46.3617C224.365 45.9584 224.486 45.3783 224.486 44.6212C224.486 43.0152 223.99 42.2086 222.993 42.2086C222.483 42.2086 222.101 42.428 221.84 42.8595C221.599 43.284 221.479 43.8713 221.479 44.6212C221.479 46.2202 221.981 47.0197 222.986 47.0197V47.0126Z" fill="white"/>
<path d="M230.443 49.0361C229.517 49.0361 229.057 48.5762 229.057 47.6635V41.2959C229.057 40.546 229.453 40.1781 230.252 40.1781C230.967 40.1781 231.377 40.5035 231.483 41.1615L231.498 41.2889H231.561C232.467 40.4045 233.408 39.9658 234.391 39.9658C236.231 39.9658 237.144 41.1615 237.144 43.56V47.6565C237.144 48.5833 236.684 49.0432 235.757 49.0432C234.83 49.0432 234.37 48.5833 234.37 47.6565V43.9067C234.37 43.3124 234.285 42.902 234.122 42.6614C233.967 42.4421 233.705 42.336 233.344 42.336C233.054 42.336 232.792 42.4067 232.552 42.5412C232.354 42.6473 232.106 42.8454 231.802 43.1355V47.6777C231.802 48.5904 231.342 49.0503 230.429 49.0503L230.443 49.0361Z" fill="white"/>
<path d="M241.544 49.2484C240.745 49.2484 240.101 48.9866 239.613 48.456C239.146 47.9607 238.912 47.3239 238.912 46.5598C238.912 45.6188 239.301 44.883 240.079 44.3665C240.858 43.85 242.11 43.4963 243.829 43.3053C243.766 42.5482 243.32 42.1662 242.492 42.1662C242.117 42.1662 241.7 42.2511 241.233 42.428C240.914 42.5836 240.617 42.6261 240.348 42.5553C240.058 42.4916 239.832 42.3148 239.676 42.0105C239.365 41.4162 239.506 40.9634 240.094 40.6379C241.091 40.1781 242.068 39.9517 243.023 39.9517C245.407 39.9517 246.603 41.303 246.603 43.9986V47.9041C246.603 48.2649 246.482 48.5479 246.242 48.746C246.016 48.93 245.704 49.029 245.322 49.029C245.032 49.029 244.777 48.9512 244.565 48.8026C244.353 48.6541 244.211 48.4418 244.134 48.1729V48.1446H244.07C243.249 48.8805 242.407 49.2484 241.53 49.2484H241.544ZM242.492 47.1046C242.945 47.1046 243.398 46.8711 243.829 46.4042V44.9891C243.023 45.0953 242.421 45.2722 242.039 45.5198C241.707 45.7391 241.544 46.015 241.544 46.3476C241.544 46.857 241.862 47.1117 242.492 47.1117V47.1046Z" fill="white"/>
<path d="M251.258 49.2482C250.352 49.2482 249.694 48.9652 249.284 48.3921C248.923 47.8827 248.739 47.1398 248.739 46.1493V37.9634C248.739 37.0507 249.199 36.5908 250.126 36.5908C251.053 36.5908 251.499 37.0507 251.499 37.9634V46.2625C251.499 46.5243 251.555 46.7224 251.668 46.8568C251.753 46.9629 251.859 47.0125 251.994 47.0125H252.022C252.107 47.0054 252.185 47.0549 252.256 47.1681C252.319 47.2601 252.362 47.3662 252.383 47.4794C252.447 47.8403 252.447 48.1869 252.383 48.5053C252.298 48.9086 252.135 49.1421 251.888 49.2058C251.704 49.2341 251.491 49.2553 251.265 49.2553L251.258 49.2482Z" fill="white"/>
<path d="M255.283 38.9471C254.816 38.9471 254.434 38.8127 254.137 38.5509C253.84 38.2891 253.691 37.9424 253.691 37.525C253.691 37.1076 253.84 36.7609 254.137 36.4991C254.434 36.2373 254.816 36.1029 255.283 36.1029C255.75 36.1029 256.132 36.2373 256.422 36.5062C256.713 36.768 256.861 37.1076 256.861 37.5321C256.861 37.9566 256.713 38.2891 256.415 38.5509C256.118 38.8127 255.743 38.9471 255.283 38.9471ZM255.283 49.0362C254.356 49.0362 253.897 48.5763 253.897 47.6636V41.5437C253.897 40.631 254.356 40.1711 255.283 40.1711C256.21 40.1711 256.656 40.631 256.656 41.5437V47.6636C256.656 48.5763 256.196 49.0362 255.283 49.0362Z" fill="white"/>
<path d="M262.386 49.248C261.318 49.248 260.519 48.9296 259.988 48.2858C259.5 47.6914 259.259 46.8495 259.259 45.7458V42.3356H259.089C258.403 42.3356 258.063 41.9818 258.063 41.2743C258.063 40.6093 258.382 40.2555 259.026 40.1989L259.415 40.1706L259.585 38.8759C259.677 38.1825 260.094 37.8358 260.83 37.8358C261.629 37.8358 262.026 38.2179 262.026 38.9891V40.1706H263.037C263.752 40.1706 264.113 40.5314 264.113 41.246C264.113 41.9606 263.752 42.3356 263.037 42.3356H262.026V45.7104C262.026 46.6231 262.401 47.083 263.143 47.083H263.172C263.419 47.0335 263.632 47.083 263.809 47.2245C263.985 47.3589 264.099 47.5641 264.148 47.833C264.311 48.5617 264.127 48.9933 263.589 49.1277C263.228 49.2126 262.818 49.2551 262.372 49.2551L262.386 49.248Z" fill="white"/>
<path d="M266.929 52.439C266.774 52.439 266.661 52.439 266.59 52.4249C266.264 52.3754 266.052 52.1914 265.953 51.8801C265.868 51.6112 265.868 51.2858 265.953 50.9179C266.003 50.7198 266.095 50.557 266.215 50.4368C266.349 50.3023 266.505 50.2528 266.682 50.2811H266.71C267.467 50.2811 267.962 49.9274 268.189 49.2198L268.316 48.767L265.564 41.7768C265.147 40.7085 265.5 40.1708 266.625 40.1708C267.34 40.1708 267.821 40.5245 268.054 41.232L268.896 43.8498C269.024 44.2248 269.179 44.805 269.377 45.5903C269.469 45.9228 269.54 46.1775 269.583 46.3544H269.66C269.767 45.845 269.936 45.0951 270.177 44.0975C270.205 43.9843 270.226 43.8994 270.241 43.8498L270.969 41.2179C271.175 40.5245 271.627 40.1778 272.321 40.1778C273.368 40.1778 273.722 40.6731 273.382 41.6707L272.37 44.6139L270.863 49.05C270.403 50.2528 269.908 51.1018 269.37 51.6042C268.755 52.1631 267.948 52.4461 266.944 52.4461L266.929 52.439Z" fill="white"/>
<path d="M277.952 44.8335C277.613 44.8335 277.344 44.6991 277.16 44.4303C276.997 44.1826 276.926 43.8713 276.955 43.4963C277.11 43.0082 277.514 42.3997 278.172 41.678C278.469 41.3384 278.681 41.0837 278.794 40.9139C278.971 40.6451 279.056 40.3974 279.056 40.164C279.056 39.8314 278.95 39.5697 278.731 39.3857C278.532 39.2088 278.271 39.1239 277.938 39.1239C277.69 39.1239 277.443 39.1805 277.188 39.2937C276.636 39.7112 276.106 39.6829 275.603 39.223C275.094 38.7631 275.087 38.2961 275.589 37.8292C276.396 37.2066 277.294 36.8953 278.285 36.8953C279.275 36.8953 280.124 37.1358 280.726 37.624C281.391 38.1617 281.723 38.947 281.723 39.9729C281.723 40.4399 281.596 40.8856 281.334 41.3101C281.178 41.5719 280.896 41.9257 280.478 42.3856C280.45 42.4139 280.429 42.4351 280.414 42.4492C279.976 42.9233 279.686 43.2982 279.544 43.553C279.346 44.402 278.815 44.8265 277.959 44.8265L277.952 44.8335ZM278.044 49.2484C277.57 49.2484 277.174 49.0857 276.863 48.7532C276.551 48.4206 276.396 48.0173 276.396 47.5292C276.396 47.041 276.551 46.6377 276.863 46.3052C277.174 45.9726 277.57 45.8099 278.044 45.8099C278.518 45.8099 278.9 45.9726 279.219 46.3052C279.537 46.6377 279.693 47.041 279.693 47.5221C279.693 48.0032 279.537 48.4206 279.226 48.7532C278.914 49.0857 278.518 49.2484 278.044 49.2484Z" fill="white"/>
</g>
<defs>
<clipPath id="clip0_88_199168">
<rect width="333" height="69" fill="white"/>
</clipPath>
</defs>
</svg>
