<svg width="333" height="69" viewBox="0 0 333 69" fill="none" xmlns="http://www.w3.org/2000/svg">
<g clip-path="url(#clip0_86_9310)">
<path d="M-185 0H298.172C317.399 0 333 15.463 333 34.5C333 53.5462 317.39 69 298.172 69H-185V0Z" fill="#76777A"/>
<path d="M57.9711 32.1498C57.0165 32.1498 56.5438 31.6771 56.5438 30.7411L56.5253 23.6419C55.6912 24.4111 55.0146 24.2999 54.5049 23.2989C53.9952 22.3351 54.1342 21.5195 54.9312 20.8522C55.9414 19.8884 56.8033 18.8596 57.5355 17.766C57.9896 16.9968 58.6291 16.7743 59.454 17.0802C60.39 17.4324 60.6217 18.044 60.1583 18.9152C60.0749 19.045 59.9451 19.2396 59.7783 19.4991C59.6115 19.7586 59.4818 19.9625 59.3984 20.1108V29.3231C59.3984 29.666 59.5003 29.7216 59.6949 29.4899C60.7329 28.2573 61.4095 26.3573 61.7246 23.7994C61.771 23.2897 61.9285 22.8911 62.2158 22.6038C62.5124 22.3073 62.9016 22.1775 63.365 22.2239C64.3474 22.3073 64.783 22.8448 64.6903 23.8179C64.6069 24.4482 64.5328 24.9023 64.4772 25.2081C64.9035 26.3203 65.441 27.1544 66.0805 27.7197V21.7975C66.0805 21.4824 66.1732 21.2322 66.3586 21.0561C66.5439 20.8708 66.7942 20.7781 67.1093 20.7781H67.1741C66.8776 20.5464 66.581 20.3332 66.303 20.1386C66.1083 20.0088 65.9971 19.8513 65.9785 19.6659C65.96 19.4806 66.0434 19.3137 66.2102 19.1562C67.4614 17.8772 68.3419 15.9958 68.8516 13.5028C68.9258 13.0208 69.1111 12.6409 69.4077 12.3721C69.7043 12.1033 70.0842 11.9921 70.5383 12.057C71.5022 12.1867 71.8915 12.7428 71.7061 13.7159C71.5949 14.3091 71.4188 15.0412 71.1778 15.8939C72.188 16.8485 72.9666 17.6363 73.5226 18.2572C73.7914 18.5723 73.9026 18.8689 73.8655 19.1562C73.8377 19.3972 73.6709 19.6845 73.3558 20.0088C72.9573 20.4074 72.6144 20.602 72.3085 20.602C71.9842 20.602 71.6505 20.3796 71.3261 19.944C71.0852 19.6474 70.6774 19.184 70.112 18.563C69.6672 19.4342 69.1945 20.1664 68.6848 20.7781H68.8794C68.8794 20.7781 68.9443 20.7966 68.9443 20.8429V23.4472H71.4374C72.29 23.4472 72.7163 23.8735 72.7163 24.7262C72.7163 25.5788 72.29 26.0237 71.4374 26.0237H68.9443V28.9894C69.3428 29.0636 69.834 29.1006 70.4179 29.1006H71.9934C72.6792 29.0821 73.1426 29.2026 73.4021 29.4436C73.6894 29.7031 73.7358 30.1294 73.5504 30.7225C73.4206 31.1303 73.2261 31.4362 72.9573 31.6215C72.6978 31.7791 72.3456 31.8532 71.8915 31.8532H70.1398C68.6477 31.8532 67.3965 31.64 66.3863 31.2137C65.2371 30.7318 64.2825 29.9255 63.5318 28.7855C63.2167 29.6104 62.8182 30.3703 62.3363 31.0654C62.0675 31.3805 61.7524 31.5474 61.4002 31.5659C61.048 31.5844 60.7237 31.4547 60.4364 31.1674C60.0564 30.843 59.7134 30.565 59.4169 30.3333V30.7596C59.4169 31.6957 58.9442 32.1683 58.0082 32.1683L57.9711 32.1498ZM55.5337 17.8309C55.2464 17.7845 54.959 17.5714 54.6717 17.1729C54.1434 16.4222 54.2454 15.7549 54.9683 15.171C55.7653 14.4852 56.5068 13.7067 57.1833 12.8262C57.6375 12.2053 58.2584 12.0477 59.0369 12.3536C60.0564 12.7706 60.2417 13.4008 59.5652 14.2535C59.0647 14.8374 58.5921 15.3656 58.1379 15.8476C57.6282 16.3851 57.0907 16.9134 56.5161 17.4231C56.1453 17.7382 55.8117 17.8679 55.5244 17.8309H55.5337ZM62.1787 20.8893C61.8544 20.9078 61.5114 20.741 61.1222 20.3703C60.7237 19.9903 60.529 19.601 60.5476 19.2211C60.5476 18.8689 60.7422 18.4704 61.1407 18.044C61.5485 17.488 61.9192 16.8485 62.2529 16.1256C62.6514 15.1895 62.948 14.272 63.1519 13.373C63.3465 12.3814 63.9304 11.955 64.9035 12.1033C65.8674 12.2516 66.2473 12.8262 66.0342 13.8179C65.9322 14.2442 65.7932 14.7539 65.6079 15.3564C65.9508 15.588 66.2659 15.8012 66.5624 16.0144C67.1463 16.4592 67.2483 17.006 66.859 17.6733C66.3493 18.6094 65.682 18.7299 64.8572 18.0348C64.8294 18.007 64.7923 17.9699 64.7367 17.9328C64.6903 17.8865 64.644 17.8587 64.6162 17.8494C64.2177 18.7206 63.745 19.5084 63.1889 20.2405C62.8367 20.6483 62.4938 20.8708 62.1787 20.8893Z" fill="white"/>
<path d="M77.8134 32.1311C76.8032 32.1311 76.3027 31.6307 76.3027 30.639V14.0309C76.3027 13.6232 76.4325 13.2802 76.6827 13.03C76.9422 12.7705 77.2759 12.65 77.6836 12.65H83.3556C83.7634 12.65 84.1063 12.7798 84.3565 13.03C84.616 13.2895 84.7365 13.6232 84.7365 14.0309V19.0634C84.7365 19.4712 84.6068 19.8141 84.3565 20.0643C84.097 20.3238 83.7634 20.4443 83.3556 20.4443H79.3055V30.6297C79.3055 31.6214 78.8051 32.1219 77.8134 32.1219V32.1311ZM79.3055 15.5231H81.882V15.0967C81.882 14.9021 81.7801 14.8002 81.5854 14.8002H79.8152C79.4723 14.8002 79.3055 14.967 79.3055 15.3099V15.5231ZM79.3055 18.2756H81.3722C81.7152 18.2756 81.882 18.1088 81.882 17.7659V17.4879H79.3055V18.2756ZM80.9923 31.4268C80.2509 30.7595 80.3064 30.0088 81.1405 29.1654C81.4557 28.6835 81.6781 28.1367 81.8264 27.525H81.2518C80.427 27.525 80.0192 27.1079 80.0192 26.2646C80.0192 25.4212 80.427 25.0319 81.2518 25.0319H81.9561V23.8178H81.465C80.6679 23.8178 80.2694 23.41 80.2694 22.6037C80.2694 21.7974 80.6679 21.4082 81.465 21.4082H89.1851C89.9822 21.4082 90.3807 21.8067 90.3807 22.6037C90.3807 23.4008 89.9822 23.8178 89.1851 23.8178H88.6105V25.0319H89.4168C90.2417 25.0319 90.6494 25.4397 90.6494 26.2646C90.6494 27.0894 90.2417 27.525 89.4168 27.525H88.6105V30.4258C88.6105 31.3063 88.1656 31.7512 87.2852 31.7512C86.4047 31.7512 85.9414 31.3063 85.9414 30.4258V27.525H84.4492C84.2175 28.9893 83.6892 30.222 82.8459 31.2136C82.16 31.8531 81.5484 31.9272 80.9923 31.4268ZM84.5326 25.0319H85.9414V23.8178H84.5326V25.0319ZM89.389 30.7873C89.2036 30.1478 89.25 29.6844 89.5188 29.4064C89.7783 29.1469 90.2694 29.0264 90.9923 29.0449C91.2796 29.0449 91.4187 28.9059 91.4187 28.6186V20.5185H87.2388C86.8311 20.5185 86.4974 20.3887 86.2379 20.1385C85.9784 19.879 85.8579 19.5453 85.8579 19.1376V14.0402C85.8579 13.6324 85.9877 13.2895 86.2379 13.0393C86.4974 12.7798 86.8311 12.6593 87.2388 12.6593H93.0591C93.4669 12.6593 93.8005 12.789 94.06 13.0393C94.3195 13.2988 94.44 13.6324 94.44 14.0402V28.6649C94.44 29.4342 94.3659 30.0181 94.2269 30.4351C94.06 30.8892 93.7635 31.2414 93.3557 31.4824C92.8552 31.7697 92.2342 31.9458 91.4835 32.0107C90.3343 32.0385 89.6392 31.6307 89.3983 30.7966L89.389 30.7873ZM88.7495 15.5231H91.4187V15.0967C91.4187 14.9021 91.3167 14.8002 91.1221 14.8002H89.2685C88.9256 14.8002 88.7588 14.967 88.7588 15.3099V15.5231H88.7495ZM89.111 18.3405H91.4094V17.4879H88.7402V17.9791C88.7402 18.22 88.8607 18.3405 89.1017 18.3405H89.111Z" fill="white"/>
<path d="M98.8144 31.7512C98.4622 31.7234 98.1286 31.501 97.8135 31.0932C97.4613 30.6112 97.3315 30.1849 97.4335 29.8142C97.5169 29.4435 97.8135 29.082 98.3325 28.7299C98.9813 28.146 99.5651 27.4324 100.056 26.5797C99.9729 26.5056 99.8432 26.4036 99.6578 26.2553C99.4817 26.1163 99.352 26.0051 99.2593 25.9402V25.9866C99.213 26.1719 99.0924 26.2739 98.8793 26.2831C98.6847 26.3017 98.4807 26.2461 98.2861 26.1349C97.8598 25.9032 97.5169 25.6344 97.2667 25.3285C96.9423 24.9486 96.8218 24.5778 96.9238 24.2164C97.3038 22.7521 97.7208 20.9819 98.1564 18.9059H98.11C97.2759 18.9059 96.8496 18.461 96.8496 17.5621C96.8496 16.5519 97.3223 16.0514 98.2769 16.0514H98.7495C98.9441 15.0412 99.1203 14.0959 99.2593 13.2154C99.3983 12.3164 99.9358 11.9179 100.863 12.0198C101.854 12.1218 102.262 12.6593 102.077 13.6417C102.03 13.8364 101.965 14.1422 101.882 14.5407C101.752 15.208 101.65 15.7177 101.558 16.0514H103.949C104.375 16.0514 104.709 16.1904 104.95 16.4592C105.191 16.7279 105.302 17.0987 105.265 17.5713C105.246 17.8308 105.219 18.1923 105.163 18.6557V18.7391L106.803 18.6557C107.332 17.1635 107.795 15.4675 108.194 13.5583C108.305 12.9744 108.518 12.5759 108.824 12.3535C109.13 12.1311 109.574 12.0755 110.158 12.1681C111.335 12.372 111.725 13.0857 111.335 14.3183C110.881 15.6807 110.371 17.0801 109.825 18.4981L112.661 18.3313C112.614 18.2479 112.549 18.1181 112.447 17.9513C112.392 17.8494 112.346 17.7845 112.318 17.7381C111.808 16.9133 111.993 16.2738 112.874 15.8197C113.597 15.449 114.199 15.5973 114.663 16.2645C115.589 17.7103 116.266 18.9615 116.711 20.018C116.97 20.7317 116.674 21.3063 115.84 21.7419C114.903 22.2238 114.273 21.9921 113.967 21.0375C112.123 21.1951 110.603 21.3155 109.426 21.399C109.046 21.4268 108.481 21.4731 107.739 21.5287C107.239 21.575 106.868 21.6028 106.627 21.6121C106.275 21.6399 105.969 21.538 105.71 21.3063C105.45 21.0746 105.302 20.7595 105.265 20.3795L105.135 19.1839C104.848 21.7882 104.366 23.994 103.689 25.8105C104.357 26.3665 104.857 26.8207 105.181 27.1729C105.663 27.7289 105.654 28.3406 105.163 29.0079C104.44 30.0181 103.68 30.0552 102.902 29.1376C102.827 29.0542 102.707 28.9338 102.54 28.7762C102.457 28.6928 102.392 28.6279 102.345 28.5816C101.687 29.601 100.9 30.5093 99.9822 31.2878C99.5373 31.6122 99.1573 31.7697 98.833 31.7605L98.8144 31.7512ZM101.261 23.9198C101.493 23.2711 101.697 22.474 101.882 21.5287C102.049 20.778 102.169 20.0644 102.244 19.3971C102.29 19.0542 102.132 18.8874 101.799 18.8874H100.965C100.585 20.6112 100.26 21.9921 100.01 23.0486C100.084 23.095 100.186 23.1599 100.325 23.2618C100.733 23.5491 101.048 23.7623 101.261 23.9198ZM107.767 31.3619C107.35 31.3619 107.016 31.2322 106.766 30.982C106.507 30.7225 106.386 30.3888 106.386 29.981V24.4203C106.386 24.0125 106.516 23.6789 106.766 23.4194C107.026 23.1599 107.359 23.0394 107.767 23.0394H114.542C114.95 23.0394 115.283 23.1691 115.543 23.4194C115.802 23.6789 115.923 24.0125 115.923 24.4203V29.981C115.923 30.3888 115.793 30.7317 115.543 30.982C115.283 31.2415 114.95 31.3619 114.542 31.3619H107.767ZM109.788 28.5723H112.364C112.707 28.5723 112.874 28.4055 112.874 28.0626V26.3387C112.874 25.9958 112.707 25.829 112.364 25.829H109.788C109.445 25.829 109.278 25.9958 109.278 26.3387V28.0626C109.278 28.4055 109.445 28.5723 109.788 28.5723Z" fill="white"/>
<path d="M119.129 17.8309C118.332 17.8309 117.934 17.4231 117.934 16.6168C117.934 15.8105 118.332 15.4212 119.129 15.4212H125.589C126.386 15.4212 126.784 15.8197 126.784 16.6168C126.784 17.4138 126.386 17.8309 125.589 17.8309H119.129ZM120.278 31.0469C119.861 31.0469 119.528 30.9171 119.277 30.6669C119.018 30.4074 118.897 30.0738 118.897 29.666V25.8105C118.897 25.4027 119.027 25.0598 119.277 24.8096C119.537 24.5501 119.871 24.4296 120.278 24.4296H124.477C124.885 24.4296 125.227 24.5594 125.478 24.8096C125.728 25.0598 125.858 25.4027 125.858 25.8105V29.666C125.858 30.0738 125.728 30.4074 125.478 30.6669C125.218 30.9264 124.885 31.0469 124.477 31.0469H120.278ZM120.13 20.7688C119.361 20.7688 118.981 20.3888 118.981 19.6196C118.981 18.8503 119.361 18.4704 120.13 18.4704H124.773C125.543 18.4704 125.923 18.8503 125.923 19.6196C125.923 20.3888 125.543 20.7688 124.773 20.7688H120.13ZM120.13 23.7067C119.361 23.7067 118.981 23.3267 118.981 22.5575C118.981 21.7883 119.361 21.4083 120.13 21.4083H124.773C125.543 21.4083 125.923 21.7883 125.923 22.5575C125.923 23.3267 125.543 23.7067 124.773 23.7067H120.13ZM120.251 14.8003C119.481 14.8003 119.101 14.4203 119.101 13.651C119.101 12.8818 119.481 12.5018 120.251 12.5018H124.81C125.58 12.5018 125.96 12.8818 125.96 13.651C125.96 14.4203 125.58 14.8003 124.81 14.8003H120.251ZM122.049 28.6372H122.669C123.012 28.6372 123.179 28.4704 123.179 28.1275V27.21C123.179 26.9505 123.049 26.83 122.799 26.83H122.049C121.706 26.83 121.539 26.9968 121.539 27.3397V28.1275C121.539 28.4704 121.706 28.6372 122.049 28.6372ZM128.508 30.8337C128.101 29.5826 128.721 28.9801 130.38 29.0172H130.89C131.242 29.0172 131.428 28.8504 131.428 28.526V16.4221H128.61C127.628 16.4221 127.137 15.9217 127.137 14.93C127.137 13.9384 127.628 13.4564 128.61 13.4564H136.516C137.498 13.4564 137.989 13.9476 137.989 14.93C137.989 15.9124 137.498 16.4221 136.516 16.4221H134.551V28.5724C134.551 29.425 134.458 30.0738 134.273 30.5093C134.078 30.9635 133.726 31.3157 133.226 31.5566C132.66 31.8439 131.826 32.02 130.733 32.0942C129.528 32.122 128.777 31.7049 128.49 30.8337H128.508Z" fill="white"/>
<path d="M146.072 31.0006C145.729 29.9347 146.165 29.4157 147.37 29.4435C147.509 29.4435 147.611 29.425 147.657 29.3879C147.703 29.3509 147.731 29.2767 147.731 29.1655V27.0339H143.746L145.155 27.5251C145.525 27.6641 145.748 27.868 145.822 28.1368C145.896 28.3963 145.822 28.6836 145.581 28.9987C144.728 29.9347 143.82 30.7596 142.856 31.4732C142.485 31.7142 142.152 31.8254 141.846 31.8161C141.54 31.7976 141.234 31.6493 140.919 31.3435C140.437 30.8986 140.233 30.5001 140.326 30.1294C140.4 29.7772 140.734 29.425 141.327 29.0821C142.281 28.4241 143.032 27.7475 143.588 27.0339H140.864C140.066 27.0339 139.668 26.6261 139.668 25.8198C139.668 25.0135 140.066 24.6242 140.864 24.6242H157.75C158.547 24.6242 158.945 25.0228 158.945 25.8198C158.945 26.6168 158.547 27.0339 157.75 27.0339H150.845V29.2767C150.845 29.9625 150.771 30.4815 150.632 30.8337C150.465 31.2137 150.159 31.5103 149.733 31.7049C149.251 31.9366 148.639 32.0664 147.898 32.1127C146.943 32.1405 146.341 31.7698 146.081 31.0006H146.072ZM142.597 21.1766C142.189 21.1766 141.855 21.0468 141.596 20.7966C141.336 20.5464 141.216 20.2035 141.216 19.7957V17.1265C141.216 16.7187 141.345 16.3758 141.596 16.1256C141.855 15.8661 142.189 15.7456 142.597 15.7456H145.535V14.9115H141.16C140.363 14.9115 139.965 14.5037 139.965 13.6974C139.965 12.8911 140.363 12.5018 141.16 12.5018H157.314C158.111 12.5018 158.51 12.9004 158.51 13.6974C158.51 14.4944 158.111 14.9115 157.314 14.9115H152.754V15.7456H155.952C156.359 15.7456 156.693 15.8753 156.953 16.1256C157.212 16.3851 157.333 16.7187 157.333 17.1265V19.7957C157.333 20.2035 157.203 20.5371 156.953 20.7966C156.693 21.0561 156.359 21.1766 155.952 21.1766H142.587H142.597ZM143.282 24.0496C142.513 24.0496 142.133 23.6696 142.133 22.9004C142.133 22.1312 142.513 21.7512 143.282 21.7512H155.266C156.035 21.7512 156.415 22.1312 156.415 22.9004C156.415 23.6696 156.035 24.0496 155.266 24.0496H143.282ZM144.515 18.9986H145.535V17.8865H144.32C144.126 17.8865 144.024 17.9884 144.024 18.1831V18.4982C144.024 18.8225 144.191 18.9894 144.515 18.9894V18.9986ZM148.333 15.7363H149.909V14.9022H148.333V15.7363ZM148.333 18.9986H149.909V17.8865H148.333V18.9986ZM155.451 31.1303C154.867 30.6484 154.154 30.1201 153.301 29.5548C152.801 29.2396 152.55 28.9153 152.532 28.5724C152.513 28.2294 152.745 27.8958 153.218 27.5714C153.727 27.2192 154.246 27.1822 154.775 27.4602C155.331 27.7753 155.915 28.1368 156.545 28.5446C156.619 28.5909 156.721 28.6558 156.869 28.7577C157.166 28.9431 157.379 29.0821 157.509 29.184C158.343 29.8513 158.315 30.5093 157.407 31.1488C157.036 31.4176 156.702 31.5566 156.406 31.5566C156.109 31.5566 155.794 31.4176 155.47 31.1303H155.451ZM152.764 18.9986H153.996C154.209 18.9986 154.321 18.8874 154.321 18.6742V18.3777C154.321 18.0533 154.154 17.8865 153.829 17.8865H152.764V18.9986Z" fill="white"/>
<path d="M161.242 31.3249C161.011 31.1303 160.862 30.7596 160.797 30.2406C160.631 29.1747 161.048 28.6001 162.058 28.5167C162.753 28.4426 163.615 28.3592 164.634 28.2572V26.1071H162.781C161.873 26.1071 161.418 25.6437 161.418 24.7262C161.418 23.8086 161.873 23.3638 162.781 23.3638H164.634V23.0672C164.634 22.057 165.144 21.5565 166.173 21.5565C167.202 21.5565 167.683 22.057 167.683 23.0672V23.3638H169.472C170.38 23.3638 170.835 23.8179 170.835 24.7262C170.835 25.6344 170.38 26.1071 169.472 26.1071H167.683V27.9421L169.62 27.729L170.065 27.6826C171.057 27.5807 171.567 28.0348 171.604 29.045C171.622 29.944 171.178 30.4537 170.279 30.5835C167.86 30.8986 165.209 31.223 162.327 31.5659C161.845 31.6215 161.483 31.5473 161.242 31.3342V31.3249ZM173.698 26.691C172.716 26.691 172.225 26.1998 172.225 25.2174V20.6576L170.668 21.5287C170.408 21.6678 170.177 21.6956 169.954 21.6122C169.732 21.5287 169.574 21.3434 169.472 21.0561V21.0375L169.454 21.019C168.119 21.1024 166.154 21.1858 163.55 21.2785C162.911 21.3063 162.438 21.3248 162.141 21.3434C161.687 21.3619 161.363 21.2507 161.159 21.0283C160.974 20.8337 160.872 20.4815 160.835 19.981C160.779 19.0264 161.242 18.5352 162.225 18.5074H162.503C162.818 17.5714 163.05 16.7094 163.207 15.9309H162.16C161.252 15.9309 160.797 15.4768 160.797 14.5686C160.797 13.6603 161.252 13.2062 162.16 13.2062H170.177C171.085 13.2062 171.539 13.6603 171.539 14.5686C171.539 15.4768 171.085 15.9309 170.177 15.9309H169.389C170.798 17.7474 171.743 19.2952 172.225 20.5742V15.968C172.225 14.9856 172.716 14.4944 173.698 14.4944C174.681 14.4944 175.172 14.9856 175.172 15.968V25.2174C175.172 26.1998 174.681 26.691 173.698 26.691ZM165.552 18.4703L167.98 18.424C167.795 18.1552 167.637 17.905 167.507 17.6733C167.378 17.5065 167.341 17.3304 167.378 17.1636C167.424 16.9967 167.544 16.8577 167.739 16.7558L169.315 15.9217H166.608C166.377 16.487 166.201 16.9133 166.071 17.2006C165.839 17.766 165.663 18.1923 165.533 18.4611L165.552 18.4703ZM174.097 30.8337C173.717 29.6103 174.329 29.0172 175.95 29.0635H176.395C176.59 29.045 176.729 29.0079 176.812 28.9338C176.887 28.8596 176.933 28.7392 176.933 28.5538V13.9754C176.933 12.9837 177.433 12.4833 178.444 12.4833C179.454 12.4833 179.936 12.9837 179.936 13.9754V28.5816C179.936 29.4157 179.852 30.0552 179.676 30.5001C179.482 30.9542 179.148 31.3064 178.694 31.5473C178.156 31.8346 177.359 32.0107 176.303 32.0849C175.098 32.1405 174.356 31.7327 174.088 30.8522L174.097 30.8337Z" fill="white"/>
<path d="M182.651 30.7688C182.354 29.6474 182.817 29.1006 184.059 29.1284C184.319 29.1284 184.439 28.9894 184.439 28.7206V24.5223L183.883 24.6706C182.864 24.9671 182.243 24.6057 182.03 23.5862C181.918 23.0765 181.946 22.678 182.113 22.3907C182.28 22.1034 182.613 21.9087 183.114 21.7975C183.401 21.7419 183.837 21.64 184.439 21.501V18.6279H183.587C182.651 18.6279 182.178 18.1552 182.178 17.2006C182.178 16.2461 182.651 15.7919 183.587 15.7919H184.439V13.3637C184.439 12.3999 184.93 11.918 185.913 11.918C186.895 11.918 187.359 12.3999 187.359 13.3637V15.7919H187.405C188.304 15.7919 188.749 16.2646 188.749 17.2006C188.749 18.1367 188.304 18.6279 187.405 18.6279H187.359V20.7595L188.063 20.5649C188.23 20.5186 188.387 20.5371 188.508 20.6205C188.638 20.6946 188.702 20.8337 188.721 21.019L188.804 21.7419C190.491 20.7503 191.891 19.4435 193.003 17.8401H191.872C191.576 17.8401 191.335 17.7475 191.158 17.5714C190.982 17.3953 190.89 17.1543 190.89 16.8577V16.2831H190.037C189.166 16.2831 188.74 15.8475 188.74 14.9856C188.74 14.1237 189.175 13.6881 190.037 13.6881H190.89V13.3081C190.89 12.3721 191.362 11.8994 192.317 11.8994C193.272 11.8994 193.726 12.3721 193.726 13.3081V13.6881H196.45V13.3267C196.45 12.3721 196.932 11.8994 197.896 11.8994C198.86 11.8994 199.323 12.3721 199.323 13.3267V13.6881H200.26C201.131 13.6881 201.557 14.1237 201.557 14.9856C201.557 15.8475 201.121 16.2831 200.26 16.2831H199.323V17.1821C199.323 17.4138 199.259 17.5899 199.12 17.7382C198.981 17.8772 198.795 17.9514 198.554 17.9514H196.83C197.943 19.2859 199.157 20.3332 200.501 21.0839C201.084 21.3527 201.446 21.6585 201.585 22.0014C201.715 22.3443 201.622 22.7799 201.307 23.3267C201.047 23.7809 200.76 24.0404 200.436 24.1052C200.111 24.1701 199.713 24.0682 199.24 23.7994C198.869 23.5677 198.536 23.336 198.239 23.095V23.753C198.239 24.096 198.072 24.2628 197.729 24.2628H192.808C192.493 24.2628 192.243 24.1701 192.048 23.9755C191.854 23.7809 191.761 23.5306 191.761 23.2155V23.1506C191.335 23.475 190.853 23.8179 190.315 24.1701C189.935 24.3833 189.574 24.4296 189.24 24.3184C188.906 24.2072 188.647 23.9569 188.462 23.5677C188.443 23.5399 188.424 23.5028 188.397 23.4472C188.369 23.4009 188.35 23.3638 188.332 23.3545L187.349 23.6511V28.7484C187.349 29.4991 187.284 30.0737 187.155 30.4723C186.997 30.9171 186.738 31.2508 186.367 31.4917C185.968 31.7605 185.403 31.9366 184.68 32.02C183.559 32.0756 182.873 31.6586 182.632 30.7596L182.651 30.7688ZM191.39 31.4732C190.973 31.4732 190.639 31.3435 190.389 31.0932C190.13 30.8337 190.009 30.5001 190.009 30.0923V26.6817C190.009 26.2739 190.139 25.9403 190.389 25.6808C190.649 25.4213 190.982 25.3008 191.39 25.3008H198.721C199.129 25.3008 199.472 25.4305 199.722 25.6808C199.982 25.9403 200.102 26.2739 200.102 26.6817V30.0923C200.102 30.5001 199.972 30.843 199.722 31.0932C199.463 31.3527 199.129 31.4732 198.721 31.4732H191.39ZM193.262 29.0636H196.719C197.062 29.0636 197.229 28.8967 197.229 28.5538V28.2109C197.229 27.868 197.062 27.7012 196.719 27.7012H193.262C192.919 27.7012 192.753 27.868 192.753 28.2109V28.5538C192.753 28.8967 192.919 29.0636 193.262 29.0636ZM193.735 21.8346H196.247C196.571 21.8346 196.617 21.7141 196.376 21.4731C196.219 21.3156 196.015 21.0932 195.755 20.8151C195.514 20.5464 195.246 20.2034 194.949 19.7957C194.606 20.3239 194.161 20.88 193.605 21.4546C193.346 21.7141 193.392 21.8346 193.735 21.8346ZM196.46 17.4694V16.2739H193.735V17.145H195.885C196.098 17.145 196.274 17.2377 196.423 17.4231L196.469 17.4694H196.46Z" fill="white"/>
<path d="M206.924 32.1312C206.016 32.1312 205.561 31.6863 205.561 30.7874V25.31C205.422 25.7364 205.274 26.1442 205.117 26.5241C204.802 27.1636 204.514 27.488 204.245 27.4973C203.977 27.4973 203.689 27.1914 203.393 26.5519C203.254 26.2368 203.18 25.9681 203.18 25.7456C203.18 25.5047 203.263 25.2452 203.439 24.9579C204.292 23.3545 204.941 21.3712 205.376 19.0079H204.931C203.995 19.0079 203.523 18.5352 203.523 17.5991C203.523 16.6631 203.995 16.1904 204.931 16.1904H205.571V13.2247C205.571 12.3257 206.025 11.8809 206.933 11.8809C207.841 11.8809 208.277 12.3257 208.277 13.2247V16.1904H209.575L209.528 16.1719C209.528 16.1719 209.528 16.0236 209.639 15.8104C209.714 15.6436 209.769 15.5231 209.806 15.4675C209.88 15.3563 210.029 15.171 210.251 14.9115C210.511 14.6242 210.659 14.5037 210.724 14.55L210.77 14.5685C211.002 14.031 211.178 13.5491 211.326 13.1228C211.456 12.715 211.632 12.4462 211.854 12.335C212.086 12.2238 212.392 12.233 212.79 12.3813C213.56 12.6779 213.708 13.2247 213.235 14.0217C212.781 14.8466 212.438 15.449 212.216 15.8383C212.262 15.8661 212.318 15.9217 212.383 15.9958C212.457 16.0699 212.503 16.1348 212.531 16.1812C212.79 15.727 212.967 15.3841 213.059 15.1617C213.17 14.9207 213.347 14.7632 213.578 14.689C213.81 14.6149 214.069 14.6427 214.338 14.7724L214.848 15.0319C214.829 14.6334 214.829 14.0403 214.829 13.2432C214.829 12.3628 215.274 11.9179 216.155 11.9179C217.035 11.9179 217.508 12.3628 217.48 13.2618V13.9476C217.462 14.5129 217.462 14.9485 217.48 15.2451L217.906 14.5871C217.99 14.4573 218.101 14.4481 218.221 14.5407L218.268 14.5871C218.398 14.2905 218.574 13.8086 218.796 13.1598C218.926 12.752 219.102 12.4833 219.343 12.3628C219.575 12.2423 219.89 12.2516 220.288 12.3906C221.067 12.6872 221.215 13.2432 220.733 14.0495C220.335 14.7446 219.982 15.3378 219.686 15.8197C219.741 15.8661 219.825 15.9402 219.918 16.0514C219.964 16.0978 219.992 16.1256 220.019 16.1626C220.214 15.7919 220.372 15.5231 220.464 15.3563C220.789 14.689 221.289 14.5222 221.956 14.8466C222.67 15.1895 222.791 15.6992 222.336 16.3851C221.938 16.9689 221.447 17.6733 220.863 18.4981L221.762 18.1552C221.993 18.0718 222.207 18.0718 222.401 18.1552C222.596 18.2386 222.744 18.3962 222.828 18.6279C223.059 19.2396 223.235 19.842 223.384 20.4444C223.486 20.9171 223.217 21.2692 222.596 21.5102C222.355 21.6121 222.142 21.6307 221.947 21.5658C221.753 21.5009 221.641 21.3526 221.595 21.1117V21.0653L220.548 21.2322C221.03 21.6307 221.382 21.9458 221.613 22.1682C221.771 22.3536 221.743 22.5389 221.53 22.7243L221.484 22.7706H221.827C222.605 22.7706 223.004 23.1599 223.004 23.9477C223.004 24.7354 222.614 25.1432 221.827 25.1432H220.399L221.382 25.5232C221.641 25.6251 221.808 25.7734 221.882 25.9773C221.956 26.1812 221.929 26.4129 221.79 26.6724C221.224 27.5714 220.594 28.3592 219.918 29.0357C220.242 29.4157 220.575 29.6103 220.918 29.6103C221.002 29.6103 221.057 29.6103 221.085 29.5918C221.28 28.9801 221.521 28.5909 221.79 28.424C222.086 28.2294 222.466 28.285 222.92 28.6187C223.161 28.7855 223.3 29.0821 223.347 29.4899C223.393 29.8328 223.356 30.185 223.263 30.5557C223.031 31.1766 222.726 31.6122 222.327 31.8532C221.956 32.0663 221.419 32.1775 220.705 32.1775C219.593 32.1775 218.657 31.6771 217.888 30.6854C217.202 31.1303 216.581 31.4732 216.016 31.7327C215.33 32.02 214.774 31.8902 214.329 31.3527C213.699 30.5557 213.912 29.9532 214.968 29.5455C215.589 29.2489 216.173 28.906 216.692 28.526C216.322 27.5158 216.006 26.3944 215.756 25.1618H213.884L213.819 25.7364C213.819 25.7364 213.884 25.7827 213.93 25.8198C214.588 26.2924 215.043 26.6446 215.311 26.8856C215.599 27.1451 215.738 27.3953 215.747 27.6548C215.747 27.9143 215.626 28.1924 215.376 28.5075C214.746 29.286 214.097 29.3138 213.411 28.5909C213.393 28.5631 213.365 28.526 213.319 28.4889C213.272 28.4519 213.226 28.4148 213.198 28.4055C212.8 29.5177 212.244 30.4352 211.539 31.1766C211.159 31.501 210.816 31.6771 210.52 31.7049C210.195 31.7327 209.88 31.5659 209.584 31.2137C208.991 30.4908 209.111 29.7216 209.964 28.9153C210.622 28.0441 211.039 26.8022 211.224 25.1618H210.538C210.186 25.1618 210.001 24.9857 210.001 24.6242V24.3925L209.491 25.1339C209.361 25.3193 209.241 25.412 209.13 25.412C209.018 25.412 208.926 25.3193 208.852 25.1339C208.74 24.8188 208.537 24.3091 208.258 23.5955V30.843C208.258 31.742 207.814 32.1868 206.915 32.1868L206.924 32.1312ZM210.019 22.7336H215.395C215.367 22.4926 215.321 22.1126 215.265 21.6029L214.153 22.0107C213.838 22.1219 213.671 22.0107 213.643 21.6678V21.6029C212.763 21.7326 211.891 21.8346 211.039 21.918C210.696 21.9643 210.409 21.8346 210.168 21.538C209.954 21.297 209.815 20.9727 209.741 20.5834C209.714 20.3888 209.741 20.2034 209.806 20.0459C209.88 19.879 210.001 19.7864 210.168 19.7678H210.214C210.538 19.323 210.937 18.7484 211.41 18.044C211.196 17.7845 210.816 17.386 210.26 16.8299C210.149 16.7187 210.056 16.6353 210.001 16.5704V17.8494C210.001 18.2016 209.899 18.4889 209.695 18.6928C209.491 18.8967 209.204 18.9986 208.852 18.9986H208.277V19.8327C208.861 20.7317 209.445 21.6956 210.029 22.7336H210.019ZM212.596 19.5732L213.217 19.5269C213.217 19.5269 213.189 19.4249 213.17 19.36C213.143 19.3137 213.124 19.2859 213.124 19.2488C213.096 19.1376 213.068 19.0542 213.041 18.9893L212.596 19.5639V19.5732ZM215.07 19.4713C215.052 19.3044 215.043 19.0449 215.015 18.6928C214.996 18.3406 214.978 18.0811 214.968 17.905C214.968 17.7289 214.95 17.4601 214.941 17.0987C214.922 16.7372 214.913 16.4685 214.894 16.3016C214.227 17.3211 213.68 18.1274 213.254 18.7113L214.005 18.4796C214.431 18.3499 214.718 18.4796 214.876 18.8874C214.904 18.943 214.941 19.0357 214.987 19.1747C215.033 19.3137 215.061 19.4157 215.07 19.4805V19.4713ZM217.647 19.4064L217.925 19.3879C218.194 19.0449 218.518 18.5908 218.889 18.0255C218.472 17.5157 218.018 17.0338 217.499 16.5982C217.517 16.7558 217.526 16.9967 217.545 17.3118C217.563 17.6362 217.573 17.8679 217.573 18.0255C217.573 18.183 217.591 18.4147 217.619 18.7206C217.638 19.0264 217.647 19.2581 217.647 19.4157V19.4064ZM218.008 22.7336H219.241C219.074 22.5945 218.954 22.4833 218.88 22.4092C218.713 22.2702 218.713 22.1219 218.88 21.9643L219.621 21.3248C219.324 21.3712 219.028 21.4083 218.722 21.4546C218.62 21.4731 218.481 21.4917 218.286 21.5195C218.092 21.5473 217.953 21.5658 217.851 21.5843C217.906 22.0941 217.953 22.4833 217.999 22.7336H218.008ZM218.759 26.4593C218.917 26.2646 219.074 26.0422 219.232 25.8012C219.259 25.7456 219.306 25.6622 219.361 25.5695C219.491 25.3564 219.575 25.1988 219.621 25.0969H218.425C218.481 25.4491 218.592 25.9032 218.768 26.4593H218.759ZM220.381 19.1747L221.104 19.1098C221.048 18.9245 220.965 18.7206 220.872 18.4889C220.789 18.5908 220.705 18.702 220.64 18.8318C220.585 18.9152 220.501 19.0264 220.381 19.1747Z" fill="white"/>
<path d="M227.352 30.9356C226.944 30.9356 226.601 30.8058 226.351 30.5556C226.091 30.2961 225.971 29.9624 225.971 29.5546V24.4851C225.971 23.4471 226.499 22.9281 227.546 22.9281C228.594 22.9281 229.103 23.4471 229.103 24.4851V27.9142H232.81V21.8994H228.204C227.797 21.8994 227.454 21.7696 227.203 21.5194C226.944 21.2599 226.823 20.9262 226.823 20.5185V15.4211C226.823 14.4016 227.333 13.8826 228.362 13.8826C229.391 13.8826 229.9 14.3924 229.9 15.4211V18.3868C229.9 18.7298 230.067 18.8966 230.41 18.8966H232.82V13.7344C232.82 12.6871 233.348 12.1588 234.414 12.1588C235.48 12.1588 235.989 12.6871 235.989 13.7344V18.8966H239.122V15.486C239.122 14.4109 239.659 13.8641 240.744 13.8641C241.828 13.8641 242.366 14.4016 242.366 15.486V20.5185C242.366 20.9262 242.236 21.2692 241.986 21.5194C241.726 21.7789 241.392 21.8994 240.985 21.8994H235.999V27.9142H240.002V24.5222C240.002 23.4564 240.54 22.9188 241.624 22.9188C242.709 22.9188 243.218 23.4564 243.218 24.5222V29.5546C243.218 29.9624 243.089 30.3053 242.838 30.5556C242.579 30.8151 242.245 30.9356 241.837 30.9356H227.361H227.352Z" fill="white"/>
<path d="M248.047 31.362C247.639 31.362 247.296 31.2323 247.046 30.982C246.786 30.7225 246.666 30.3889 246.666 29.9811V14.1423C246.666 13.7345 246.796 13.3916 247.046 13.1413C247.296 12.8911 247.639 12.7614 248.047 12.7614H263.626C264.034 12.7614 264.377 12.8911 264.627 13.1413C264.887 13.4008 265.007 13.7345 265.007 14.1423V29.9811C265.007 30.3889 264.877 30.7318 264.627 30.982C264.368 31.2415 264.034 31.362 263.626 31.362H248.047ZM250.077 28.5909H261.458C261.8 28.5909 261.967 28.4241 261.967 28.0812V16.0329C261.967 15.69 261.8 15.5232 261.458 15.5232H260.373C260.716 15.7549 260.966 15.9217 261.124 16.0329C261.254 16.1627 261.309 16.311 261.309 16.487C261.309 16.6631 261.226 16.83 261.087 16.9875L260.827 17.2655H260.874C261.068 17.2655 261.235 17.3397 261.356 17.4972C261.476 17.6548 261.541 17.8494 261.541 18.0719C261.541 18.4426 261.448 18.7484 261.263 18.9894C261.078 19.2581 260.818 19.3972 260.475 19.3972H258.13C258.186 20.0552 258.269 20.7873 258.362 21.6122C258.492 21.3249 258.594 21.0747 258.659 20.843C258.89 20.1293 259.372 19.8513 260.104 19.9903C260.901 20.1571 261.17 20.6483 260.911 21.4361C260.457 22.6873 259.854 23.855 259.104 24.9486C259.27 25.3008 259.456 25.514 259.66 25.5881H259.724C259.965 24.3277 260.503 24.0218 261.328 24.6706C261.541 24.8282 261.661 25.134 261.689 25.5881C261.717 25.9403 261.689 26.3017 261.606 26.6725C261.319 27.4417 260.92 27.9422 260.41 28.1646C259.91 28.3592 259.354 28.3036 258.724 27.9978C258.223 27.8031 257.806 27.4417 257.463 26.932C257.111 27.2841 256.796 27.5714 256.518 27.7753C256.24 27.9792 255.952 28.0626 255.665 28.0348C255.378 27.9978 255.128 27.8588 254.933 27.6178C254.673 27.3212 254.423 27.0432 254.164 26.7837C253.2 26.9227 252.199 27.0524 251.161 27.1637C250.475 27.2378 250.095 26.9042 250.012 26.1813C249.965 25.8013 250.012 25.514 250.123 25.3286C250.253 25.134 250.494 25.0228 250.846 25.0042C252.125 24.8745 253.441 24.754 254.794 24.6428C255.332 24.5687 255.619 24.8096 255.647 25.3472V25.412C255.943 25.1525 256.221 24.8838 256.481 24.5779C256.129 23.2897 255.86 21.5473 255.693 19.3786H251.217C250.503 19.3786 250.151 19.0265 250.151 18.3128C250.151 17.5992 250.503 17.247 251.217 17.247H255.545C255.545 17.247 255.545 17.1729 255.535 17.1173C255.535 17.0617 255.526 17.006 255.526 16.969C255.48 16.1163 255.888 15.69 256.74 15.69C257.593 15.69 257.973 16.0978 258.001 16.9226C258.019 16.9968 258.019 17.0987 258.019 17.2377H259.039C259.391 17.2377 259.428 17.1358 259.15 16.9226C259.094 16.867 258.992 16.7929 258.853 16.7095C258.807 16.6817 258.779 16.6631 258.751 16.6446C258.557 16.5148 258.538 16.3666 258.705 16.1997L259.409 15.4954H250.114C249.771 15.4954 249.604 15.6622 249.604 16.0051V28.0534C249.604 28.3963 249.771 28.5631 250.114 28.5631L250.077 28.5909ZM251.93 24.1145C251.522 24.1145 251.179 23.9848 250.929 23.7345C250.679 23.4843 250.549 23.1414 250.549 22.7336V21.4732C250.549 21.0654 250.679 20.7225 250.929 20.4722C251.189 20.2127 251.522 20.0923 251.93 20.0923H254.173C254.516 20.0923 254.785 20.1942 254.979 20.3888C255.174 20.5835 255.276 20.8615 255.276 21.1951V22.7336C255.276 23.1414 255.146 23.4843 254.896 23.7345C254.636 23.994 254.303 24.1145 253.895 24.1145H251.93ZM252.588 22.5575H252.931C253.163 22.5575 253.274 22.4463 253.274 22.2146V22.02C253.274 21.7605 253.144 21.64 252.894 21.64H252.783C252.551 21.64 252.44 21.7512 252.44 21.9829V22.4092C252.44 22.5112 252.486 22.5575 252.588 22.5575Z" fill="white"/>
<path d="M274.97 26.0515C274.84 25.7086 274.878 25.3842 275.081 25.0691C275.267 24.7725 275.554 24.5501 275.934 24.4111C276.759 23.9291 277.232 23.3638 277.343 22.7243H277.195C276.574 22.7243 276.045 22.5389 275.619 22.1682C275.146 21.7604 274.915 21.2322 274.915 20.5927C274.915 19.9532 275.146 19.4342 275.619 19.0357C276.064 18.6557 276.611 18.4611 277.278 18.4611C278.103 18.4611 278.742 18.7484 279.196 19.3137C279.641 19.8791 279.854 20.6668 279.854 21.6585C279.854 22.9097 279.465 24.0125 278.677 24.9579C278.066 25.6808 277.306 26.2368 276.398 26.6168C275.702 26.8763 275.23 26.6817 274.97 26.0422V26.0515Z" fill="white"/>
<path d="M57.6468 57.136C56.683 57.136 56.201 56.654 56.201 55.6902L56.1825 46.8208C55.8581 47.1915 55.5245 47.3213 55.1816 47.2286C54.8665 47.1452 54.5977 46.8579 54.3753 46.3759C53.8377 45.3009 53.8748 44.3926 54.505 43.6697C55.7098 42.1498 56.7386 40.4074 57.5912 38.4519C57.9712 37.488 58.6292 37.1544 59.556 37.451C60.5384 37.7753 60.8442 38.4056 60.4735 39.3231C60.075 40.2499 59.6209 41.2045 59.1112 42.1961V55.6902C59.1112 56.654 58.6292 57.136 57.6654 57.136H57.6468ZM63.7914 55.8292C63.4115 54.6336 63.8749 54.0498 65.2002 54.0776C65.4597 54.0776 65.5801 53.9663 65.5801 53.7347V43.4195H63.5597C63.2354 44.059 62.9017 44.6428 62.5588 45.1711C62.2159 45.6252 61.8823 45.8755 61.5486 45.9311C61.215 45.9774 60.8257 45.8291 60.3901 45.477C59.936 45.1062 59.6857 44.7448 59.6579 44.3926C59.6209 44.0404 59.7877 43.6326 60.1584 43.1785C61.0296 41.8996 61.7617 40.3518 62.3734 38.5353C62.67 37.488 63.3095 37.0802 64.2919 37.3212C65.3114 37.5529 65.6728 38.1831 65.3577 39.2211C65.2187 39.6289 65.0519 40.0923 64.8665 40.5835H72.6052C73.0593 40.5835 73.4022 40.7225 73.6247 41.0006C73.8564 41.2786 73.9398 41.6679 73.8842 42.159C73.7452 43.1971 73.5783 44.1702 73.393 45.0784C73.3096 45.477 73.1428 45.7365 72.9018 45.8662C72.6701 45.9682 72.3364 45.9682 71.8823 45.8847C71.0018 45.7272 70.6219 45.2545 70.7331 44.4575C70.7516 44.2165 70.7794 43.8736 70.835 43.438H68.6385V53.7995C68.6385 54.5502 68.5644 55.1248 68.4254 55.5234C68.2586 55.9775 67.962 56.3297 67.5449 56.5799C67.1279 56.8301 66.5811 56.997 65.9138 57.0804C64.8016 57.1545 64.1066 56.7374 63.8007 55.8477L63.7914 55.8292ZM62.1788 53.9107C61.873 53.9941 61.493 53.8922 61.0388 53.5956C60.5569 53.2805 60.2789 52.9654 60.1955 52.6318C60.1214 52.3074 60.2326 51.8903 60.5477 51.3991C61.0203 50.4723 61.4096 49.4343 61.7247 48.2851C61.9842 47.2193 62.5959 46.793 63.5783 47.0062C64.5607 47.2193 64.9314 47.8125 64.709 48.7949C64.4773 49.5919 64.2085 50.3982 63.9027 51.2045C63.708 51.7142 63.43 52.3445 63.0685 53.0766C62.7812 53.5493 62.494 53.8273 62.1881 53.9107H62.1788ZM71.215 53.7995C70.9092 53.6327 70.7053 53.262 70.6033 52.6781C70.4736 52.0386 70.3438 51.4733 70.1955 50.9728C69.936 50.0738 69.6951 49.3231 69.4727 48.7114C69.1205 47.8125 69.4263 47.2101 70.3902 46.8764C71.2428 46.5891 71.8452 46.8486 72.1974 47.6456C72.7906 49.1285 73.254 50.6206 73.5876 52.122C73.671 52.5484 73.6247 52.8913 73.4393 53.1415C73.2725 53.3825 72.9666 53.5864 72.5218 53.7347C71.9564 53.9293 71.5116 53.9478 71.215 53.7903V53.7995Z" fill="white"/>
<path d="M88.2206 56.858C86.2187 56.858 84.6431 56.6819 83.5125 56.3297C82.1501 55.9219 81.038 55.1805 80.1853 54.1147C79.7312 54.9117 79.1751 55.6161 78.5264 56.2463C78.1464 56.5892 77.7849 56.7653 77.4513 56.7653C77.1176 56.7653 76.7747 56.6078 76.4133 56.2648C75.9406 55.8107 75.7274 55.3844 75.7738 54.9859C75.8201 54.6059 76.1074 54.1981 76.645 53.7718C77.4698 52.8913 78.0908 51.807 78.4985 50.5095C78.6283 49.9998 78.8507 49.6198 79.1566 49.3788C79.4995 49.11 79.9072 49.0081 80.3892 49.0822C81.455 49.2213 81.8443 49.8237 81.5662 50.8709C81.5662 50.8987 81.557 50.9451 81.5384 51.01C81.5199 51.0748 81.5014 51.1304 81.4828 51.1675C82.0111 52.2519 82.8637 53.0026 84.0407 53.4289V48.5725H77.3215C76.4225 48.5725 75.9777 48.1184 75.9777 47.2101C75.9777 46.3019 76.4225 45.8663 77.3215 45.8663H93.3735C94.2725 45.8663 94.7174 46.3111 94.7174 47.2101C94.7174 48.1091 94.2725 48.5725 93.3735 48.5725H87.127V49.7217H92.0482C92.9287 49.7217 93.3735 50.1666 93.3735 51.047C93.3735 51.9275 92.9287 52.3909 92.0482 52.3909H87.127V53.9664H87.7479C88.0352 53.985 88.2484 53.9849 88.4059 53.9849C89.101 54.0035 90.7414 53.985 93.3272 53.9664C94.0686 53.9479 94.5505 54.0684 94.773 54.3093C95.0139 54.5781 95.0232 55.0415 94.7915 55.6995C94.6525 56.1258 94.4301 56.4317 94.1335 56.617C93.8462 56.7839 93.4662 56.8765 92.9843 56.8765H88.2113L88.2206 56.858ZM79.2029 45.199C78.7951 45.199 78.4615 45.0692 78.202 44.819C77.9425 44.5595 77.822 44.2259 77.822 43.8181V38.9339C77.822 38.5261 77.9517 38.1832 78.202 37.933C78.4615 37.6735 78.7951 37.553 79.2029 37.553H91.4643C91.8721 37.553 92.215 37.6827 92.4653 37.933C92.7248 38.1925 92.8452 38.5261 92.8452 38.9339V43.8181C92.8452 44.2259 92.7155 44.5595 92.4653 44.819C92.2058 45.0785 91.8721 45.199 91.4643 45.199H79.2029ZM80.7785 40.3797H89.7312V39.6753H81.2882C80.9453 39.6753 80.7785 39.8421 80.7785 40.1851V40.3797ZM81.0565 43.0674H89.7312V42.363H80.7785V42.7893C80.7785 42.9747 80.8711 43.0674 81.0565 43.0674Z" fill="white"/>
<path d="M98.3606 53.6328C97.5821 53.6328 97.1836 53.2435 97.1836 52.4558V39.5548C97.1836 39.1471 97.3134 38.8041 97.5636 38.5539C97.8231 38.2944 98.1568 38.1739 98.5646 38.1739H101.382C101.79 38.1739 102.114 38.2944 102.355 38.5261C102.587 38.7578 102.707 39.0822 102.707 39.4992V50.5002C102.707 50.9173 102.578 51.2509 102.327 51.5012C102.068 51.7607 101.734 51.8811 101.326 51.8811H99.5377V52.4558C99.5377 53.2343 99.1484 53.6328 98.3699 53.6328H98.3606ZM99.5377 49.1564H100.01C100.242 49.1564 100.353 49.0452 100.353 48.8135V41.3343C100.353 41.0655 100.214 40.9265 99.9455 40.9265H99.8806C99.6489 40.9265 99.5377 41.0377 99.5377 41.2694V49.1564ZM106.007 56.6726C105.701 56.4131 105.488 56.061 105.376 55.6161C105.293 55.2454 105.312 54.9581 105.441 54.7449C105.571 54.5318 105.812 54.4298 106.164 54.4484H106.211C106.452 54.4669 106.646 54.3093 106.794 53.9757C106.943 53.6513 107.045 52.7245 107.1 51.2046C107.119 50.8617 107.082 50.63 106.998 50.5002C106.924 50.389 106.804 50.3334 106.618 50.3334H106.211C105.784 52.6782 105.098 54.5781 104.144 56.0424C103.829 56.441 103.551 56.6634 103.291 56.7005C102.995 56.7468 102.679 56.5892 102.355 56.2556C101.799 55.6625 101.79 54.9952 102.337 54.2537C103.022 53.1323 103.504 51.8255 103.782 50.3334H103.736C103.541 50.3334 103.384 50.2129 103.263 49.972C103.152 49.7773 103.097 49.5549 103.097 49.3139C103.097 48.9432 103.18 48.6003 103.356 48.2945C103.541 47.9423 103.782 47.7569 104.079 47.7569H104.125C104.181 47.0155 104.209 46.2185 104.209 45.3473H104.162C103.875 45.3473 103.662 45.2083 103.504 44.921C103.347 44.6615 103.273 44.3742 103.273 44.0498C103.273 43.7254 103.347 43.4288 103.504 43.1786C103.662 42.9098 103.884 42.7708 104.162 42.7708H104.209V40.3797H104.162C103.819 40.3797 103.56 40.2777 103.375 40.0553C103.189 39.8422 103.097 39.5548 103.097 39.2027C103.097 38.2666 103.523 37.7939 104.375 37.7939H109.686C109.686 38.2203 109.686 38.6466 109.667 39.0729L109.649 42.7615H109.695C109.825 42.7615 109.927 42.9376 110.01 43.2898C110.085 43.5771 110.122 43.8181 110.122 44.0127C110.122 44.2444 110.085 44.4946 110.01 44.7819C109.908 45.1527 109.797 45.338 109.667 45.338H109.621L109.603 47.7477H109.649C109.788 47.7477 109.908 47.9145 110.01 48.2389C110.094 48.5262 110.14 48.7764 110.14 48.9988C110.14 49.2213 110.094 49.4808 110.01 49.7773C109.899 50.148 109.76 50.3334 109.603 50.3334H109.556C109.473 53.4752 109.297 55.2825 109.028 55.7459C108.833 56.1258 108.62 56.4039 108.407 56.58C108.212 56.7375 107.962 56.858 107.656 56.9414C107.545 56.9878 107.36 57.0156 107.1 57.0434C106.674 57.0619 106.303 56.9321 106.007 56.6726ZM106.526 47.7569H107.165L107.211 45.857C107.211 45.5141 107.045 45.3473 106.702 45.3473H106.637C106.637 45.857 106.637 46.2463 106.618 46.5243V46.6355C106.591 47.136 106.563 47.5067 106.535 47.7662L106.526 47.7569ZM106.637 42.7615H106.998C107.156 42.7615 107.23 42.6874 107.23 42.5298V40.3797H106.637V42.7708V42.7615ZM111.706 57.1731C110.854 57.1731 110.427 56.7561 110.427 55.9127V39.1749C110.427 38.7671 110.557 38.4334 110.807 38.1739C111.067 37.9144 111.401 37.7939 111.808 37.7939H115.136C115.59 37.7939 115.933 37.9422 116.146 38.2295C116.368 38.5168 116.442 38.9432 116.368 39.4992C116.025 41.8255 115.645 43.9015 115.219 45.6995C115.877 47.0526 116.201 48.6652 116.201 50.5373C116.201 52.1128 115.914 53.1416 115.33 53.6328C115.061 53.8737 114.681 54.0406 114.199 54.124C114.005 54.1518 113.829 54.1703 113.69 54.1703C113.365 54.1981 113.199 54.0776 113.199 53.8089C113.143 53.2157 113.06 52.7245 112.967 52.3353V55.9127C112.967 56.7468 112.55 57.1731 111.706 57.1731ZM112.967 51.6309H113.161C113.328 51.6309 113.458 51.566 113.541 51.4363C113.68 51.2509 113.755 50.7968 113.755 50.0739C113.755 48.693 113.588 47.5438 113.245 46.617C113.06 46.1721 112.995 45.7829 113.05 45.4214C113.338 43.7717 113.56 42.1777 113.736 40.6485C113.764 40.389 113.643 40.2685 113.375 40.2685H113.31C113.078 40.2685 112.967 40.3797 112.967 40.6114V51.6309Z" fill="white"/>
<path d="M119.825 48.5168C118.704 48.5168 118.139 47.9515 118.139 46.8115C118.139 45.6716 118.704 45.1248 119.825 45.1248H136.109C137.23 45.1248 137.796 45.6901 137.796 46.8115C137.796 47.9329 137.23 48.5168 136.109 48.5168H119.825Z" fill="white"/>
<path d="M141.123 56.4966C140.168 56.4966 139.695 56.0239 139.695 55.0693C139.695 54.1147 140.168 53.6421 141.123 53.6421H147.601V52.4928H143.189C142.262 52.4928 141.808 52.0202 141.808 51.0841C141.808 50.1481 142.272 49.6939 143.189 49.6939H147.601V48.7115H146.794C146.34 48.7115 146.109 48.4798 146.109 48.0257V44.8468H144.552C144.209 46.3668 143.514 47.5716 142.466 48.452C141.586 49.0359 140.863 49.0174 140.316 48.4057C139.547 47.5809 139.751 46.756 140.909 45.9312C141.234 45.5883 141.475 45.2268 141.614 44.8468H141.104C140.205 44.8468 139.76 44.3927 139.76 43.4845C139.76 42.5762 140.205 42.1406 141.104 42.1406H141.975V40.287H141.827C140.928 40.287 140.483 39.8422 140.483 38.9432C140.483 38.0442 140.928 37.5993 141.827 37.5993H148.861C149.76 37.5993 150.205 38.072 150.205 39.0081C150.205 39.8607 149.797 40.287 148.991 40.287H148.945V42.1406H149.325C150.224 42.1406 150.668 42.5855 150.668 43.4845C150.668 44.3834 150.224 44.8468 149.325 44.8468H148.945V48.3872H149.927C150.187 48.3872 150.381 48.4613 150.539 48.6096C150.687 48.7579 150.761 48.9618 150.761 49.2213V49.6939H155.321C156.248 49.6939 156.702 50.1573 156.702 51.0841C156.702 52.0109 156.238 52.4928 155.321 52.4928H150.761V53.6421H157.351C158.305 53.6421 158.778 54.1147 158.778 55.0693C158.778 56.0239 158.305 56.4966 157.351 56.4966H141.132H141.123ZM144.793 42.1499H146.118V40.2963H144.793V42.1499ZM152.744 45.4307C151.808 45.4307 151.336 44.9673 151.336 44.0405V39.5178C151.336 38.591 151.808 38.1276 152.744 38.1276C153.681 38.1276 154.135 38.591 154.135 39.5178V44.0405C154.135 44.9673 153.671 45.4307 152.744 45.4307ZM153.143 48.0072C152.772 46.9136 153.263 46.376 154.617 46.4038H154.746C155.015 46.4038 155.154 46.2926 155.154 46.0609V38.6651C155.154 37.7013 155.645 37.2194 156.628 37.2194C157.61 37.2194 158.074 37.7013 158.074 38.6651V46.1258C158.074 46.8209 157.999 47.3492 157.842 47.7013C157.684 48.0999 157.388 48.4057 156.943 48.6189C156.442 48.8598 155.803 48.9988 155.006 49.0452C154.014 49.073 153.393 48.7301 153.152 47.9979L153.143 48.0072Z" fill="white"/>
<path d="M166.192 57.071C165.84 57.071 165.543 56.9784 165.321 56.793C165.098 56.6076 164.959 56.3667 164.913 56.0701C164.857 55.8106 164.811 55.6252 164.765 55.4955C164.626 55.1433 164.626 54.8653 164.774 54.6614C164.922 54.4575 165.191 54.3741 165.571 54.4019H165.617C165.877 54.4019 166.071 54.2999 166.21 54.0868C166.423 53.7624 166.562 52.1034 166.637 49.1192C166.655 48.7392 166.618 48.4704 166.525 48.3314C166.451 48.2017 166.331 48.1368 166.145 48.1368H165.46C165.145 51.3249 164.486 53.8458 163.476 55.7272C163.124 56.2647 162.79 56.5613 162.475 56.6262C162.151 56.6818 161.771 56.4872 161.345 56.0516C160.974 55.6716 160.779 55.3101 160.752 54.9858C160.724 54.6614 160.863 54.2721 161.159 53.818C161.808 52.5854 162.253 50.9913 162.485 49.045C162.642 47.7846 162.744 45.8754 162.781 43.336H162.225C161.261 43.336 160.779 42.8541 160.779 41.8902C160.779 40.9264 161.261 40.4444 162.225 40.4444H163.93V38.4426C163.93 37.4509 164.431 36.9504 165.441 36.9504C166.451 36.9504 166.933 37.4509 166.933 38.4426V40.4444H168.917C169.185 40.4444 169.398 40.5186 169.556 40.6761C169.714 40.8337 169.788 41.0468 169.788 41.3156V41.3805C169.788 41.7049 169.871 41.7419 170.047 41.4824C170.557 40.602 170.993 39.6103 171.345 38.4982C171.604 37.4602 172.234 37.0339 173.245 37.2192C174.292 37.4324 174.672 38.0533 174.375 39.0728C174.301 39.3416 174.236 39.564 174.162 39.7308H179.148C180.075 39.7308 180.538 40.1942 180.538 41.121C180.538 42.0478 180.075 42.5297 179.148 42.5297H172.985C172.614 43.197 172.272 43.7716 171.938 44.2535L173.282 44.6799C174.459 44.1979 175.487 43.7067 176.349 43.2063C176.72 42.9746 177.063 42.8819 177.369 42.9282C177.656 42.956 177.971 43.1229 178.333 43.4194C179.315 44.2443 179.213 44.9394 178.036 45.5047C177.962 45.5325 177.86 45.5788 177.721 45.6345C177.48 45.7364 177.304 45.8105 177.183 45.8661C177.267 46.5798 177.387 47.3119 177.545 48.0812C177.573 48.0534 177.61 48.0163 177.665 47.97C177.721 47.9236 177.749 47.8958 177.758 47.8865C178.166 47.4788 178.537 47.2656 178.87 47.2471C179.222 47.2471 179.575 47.4695 179.918 47.9051C180.557 48.7299 180.335 49.425 179.26 49.9904C179.028 50.1201 178.703 50.2962 178.277 50.5279L178.212 50.5742C178.611 51.6679 179.083 52.5946 179.639 53.3453C180.084 53.7995 180.325 54.2165 180.362 54.6058C180.409 55.0043 180.233 55.4399 179.853 55.9311C179.473 56.413 179.121 56.6632 178.796 56.6632C178.472 56.6632 178.101 56.4501 177.675 55.996C176.878 54.958 176.229 53.6141 175.738 51.9644C175.311 50.5742 174.959 48.8411 174.69 46.7837L173.986 47.0154V53.2805L174.514 53.1693C175.395 52.9839 175.895 53.3546 176.006 54.2814C176.09 55.0784 175.747 55.5789 174.987 55.7735C174.635 55.8569 174.116 55.9774 173.43 56.135C172.559 56.3296 171.919 56.4872 171.512 56.5798C171.057 56.6818 170.705 56.6447 170.446 56.4872C170.186 56.3203 170.001 56.0052 169.89 55.5418C169.649 54.578 170.01 54.0219 170.974 53.8829C171.002 53.8643 171.039 53.8551 171.076 53.8551C171.122 53.8551 171.15 53.8458 171.159 53.8458L171.141 45.3008C171.057 45.4028 170.789 45.3379 170.335 45.1062C169.982 44.9394 169.695 44.7725 169.482 44.615C169.287 44.4482 169.074 44.235 168.861 43.994C168.592 43.6697 168.509 43.4472 168.629 43.336H165.71C165.682 44.2443 165.664 44.9208 165.645 45.3657H168.138C168.592 45.3657 168.926 45.5418 169.139 45.9032C169.38 46.3295 169.491 47.0339 169.482 48.0163C169.408 50.7133 169.324 52.6224 169.222 53.7253C169.111 54.8745 168.935 55.6252 168.713 55.9682C168.342 56.5057 167.851 56.8393 167.239 56.9691C166.942 57.0247 166.581 57.071 166.173 57.0988L166.192 57.071Z" fill="white"/>
<path d="M183.134 55.894C182.152 54.958 182.402 53.957 183.885 52.9098C186.239 50.9172 187.889 48.3222 188.806 45.1062C189.334 43.2063 189.631 40.982 189.705 38.4518C189.724 37.9421 189.918 37.6177 190.298 37.4694C190.539 37.3675 191.012 37.3212 191.707 37.3212C192.18 37.3212 192.541 37.4324 192.819 37.6641C193.106 37.905 193.236 38.248 193.227 38.6835V38.7299C193.357 41.0005 193.755 43.1321 194.422 45.1062C195.516 48.3036 197.231 50.8152 199.557 52.6503C200.307 53.1229 200.817 53.6049 201.095 54.0961C201.438 54.717 201.373 55.3009 200.901 55.8199C200.215 56.5891 199.307 56.6262 198.176 55.9311C195.238 53.9107 193.097 50.9264 191.763 46.9598C190.539 50.6113 188.602 53.5492 185.942 55.7643C184.83 56.5706 183.903 56.6169 183.153 55.894H183.134Z" fill="white"/>
<path d="M207.074 57.1545C206.055 57.1545 205.536 56.6448 205.536 55.6161V45.4492C205.508 45.6901 205.452 45.9775 205.369 46.3204C205.183 47.0896 204.711 47.3398 203.942 47.0711C203.562 46.932 203.302 46.756 203.172 46.5613C203.043 46.3482 203.033 46.0609 203.126 45.6901C203.367 44.7819 203.562 43.6975 203.701 42.4278C203.747 42.0201 203.904 41.6957 204.183 41.4825C204.461 41.2601 204.813 41.1767 205.239 41.2416L205.536 41.2879V38.4519C205.536 37.4325 206.045 36.9135 207.074 36.9135C208.103 36.9135 208.613 37.4232 208.613 38.4519V41.0099L209.271 40.7318C209.623 40.5743 209.882 40.6669 210.04 41.0099C210.151 41.2508 210.327 41.6401 210.55 42.1869C210.679 42.502 210.781 42.502 210.874 42.1869C211.059 41.4362 211.235 40.5279 211.402 39.4807C211.513 38.4334 212.088 37.9793 213.107 38.1368C214.062 38.2758 214.47 38.8412 214.34 39.8236C214.322 39.9626 214.294 40.185 214.257 40.4723C214.21 40.7596 214.183 40.9821 214.155 41.1211H215.323V38.6095C215.323 37.59 215.832 37.071 216.861 37.071C217.89 37.071 218.399 37.5807 218.399 38.6095V41.1211H221.004C221.968 41.1211 222.45 41.603 222.45 42.5669C222.45 43.5307 221.968 44.0405 221.004 44.0405H218.399V47.0247H220.577C221.532 47.0247 222.005 47.4974 222.005 48.452C222.005 49.4066 221.532 49.8978 220.577 49.8978H218.399V53.5864H221.699C222.681 53.5864 223.172 54.0776 223.172 55.06C223.172 56.0424 222.681 56.5336 221.699 56.5336H211.337C210.355 56.5336 209.864 56.0424 209.864 55.06C209.864 54.0776 210.355 53.5864 211.337 53.5864H215.323V49.8978H212.867C211.912 49.8978 211.439 49.4158 211.439 48.452C211.439 47.4881 211.912 47.0247 212.867 47.0247H215.323V44.0405H213.45C213.284 44.5687 213.135 45.0043 213.006 45.3658C212.579 46.3204 211.829 46.515 210.763 45.9589C210.42 45.7921 210.197 45.5604 210.077 45.2916C209.966 45.0136 209.993 44.6985 210.16 44.3463L209.474 44.6429C209.317 44.717 209.178 44.7263 209.048 44.6707C208.918 44.6243 208.844 44.5224 208.816 44.3648C208.733 44.0497 208.659 43.7995 208.603 43.6234V55.6439C208.603 56.6633 208.094 57.1823 207.065 57.1823L207.074 57.1545Z" fill="white"/>
<path d="M228.863 57.1545C227.899 57.1545 227.417 56.6726 227.417 55.7087V50.1202C227.158 50.7875 226.945 51.3158 226.759 51.6957C226.388 52.3538 226.055 52.6781 225.758 52.6781C225.443 52.6967 225.137 52.363 224.822 51.6957C224.655 51.325 224.572 51.0099 224.59 50.7411C224.609 50.4724 224.729 50.1758 224.952 49.8422C225.934 48.2203 226.685 46.2926 227.213 44.0683H226.296C225.341 44.0683 224.868 43.5956 224.868 42.641C224.868 41.6864 225.341 41.2138 226.296 41.2138H227.426V38.3592C227.426 37.3954 227.908 36.9135 228.872 36.9135C229.836 36.9135 230.318 37.3954 230.318 38.3592V41.2138H231.467C231.782 41.2138 232.023 41.3064 232.199 41.4825C232.375 41.6586 232.468 41.9088 232.468 42.2147V42.3444C233.636 41.1767 234.6 39.805 235.369 38.2295C235.749 37.349 236.416 37.0339 237.371 37.2934C238.363 37.5807 238.65 38.1924 238.224 39.147H241.912C242.394 39.147 242.728 39.2953 242.913 39.5919C243.108 39.907 243.126 40.3611 242.959 40.9543C242.376 42.7337 241.514 44.3 240.355 45.6623C241.31 46.3204 242.218 46.8208 243.08 47.173C243.636 47.3584 243.96 47.6364 244.072 48.0071C244.183 48.3778 244.062 48.7764 243.719 49.2027C243.395 49.6568 243.154 50.0461 242.996 50.3797H242.978V55.6253C242.978 56.0795 242.737 56.4502 242.255 56.7375C241.829 56.9784 241.337 57.0989 240.781 57.0989C240.596 57.0989 240.429 57.0526 240.272 56.9692C240.105 56.8672 240.012 56.7375 240.012 56.5892V56.5429H236.407V56.5892C236.407 56.7745 236.314 56.9136 236.129 57.0155C235.971 57.1175 235.786 57.1638 235.573 57.1638C235.063 57.1638 234.609 57.0526 234.229 56.8209C233.784 56.5521 233.571 56.1999 233.571 55.7551V50.5558C233.515 50.5836 233.413 50.6299 233.274 50.6855C233.2 50.7133 233.154 50.7319 233.126 50.7504C232.913 50.8524 232.765 50.806 232.681 50.6207C232.366 50.0368 231.986 49.4622 231.532 48.8968L231.3 49.2583C231.198 49.4251 231.115 49.4344 231.041 49.2768C230.846 48.8505 230.596 48.3871 230.318 47.8959V55.718C230.318 56.6819 229.836 57.1638 228.872 57.1638L228.863 57.1545ZM232.144 48.0071C232.95 47.6827 233.673 47.3306 234.294 46.9598C234.915 46.6169 235.564 46.1813 236.231 45.6623C235.832 45.1897 235.425 44.6521 235.017 44.0405C234.702 44.3834 234.47 44.6336 234.303 44.8004C234.136 44.9673 233.951 45.0414 233.738 45.0414C233.525 45.0414 233.349 44.9673 233.21 44.8282C233.098 44.7263 232.913 44.5595 232.654 44.3185C232.524 44.2073 232.431 44.1239 232.375 44.059H230.309V44.3185C230.754 44.7634 231.402 45.5048 232.273 46.5613C232.403 46.7189 232.459 46.932 232.44 47.2008C232.422 47.4696 232.338 47.7291 232.181 47.97L232.135 48.0164L232.144 48.0071ZM236.407 53.8922H240.012V51.6309H236.407V53.8922ZM236.453 49.0544H240.225C240.17 49.0081 240.077 48.9524 239.947 48.8598C239.632 48.6651 239.401 48.5076 239.243 48.3871C239.048 48.2574 238.761 48.0442 238.39 47.7476C238.344 47.7198 238.316 47.7013 238.307 47.6827C237.584 48.2759 236.963 48.73 236.453 49.0451V49.0544ZM238.177 43.7717C238.409 43.5029 238.65 43.1785 238.919 42.7893C239.16 42.4649 239.382 42.122 239.577 41.7698H236.722L236.676 41.8347C237.046 42.4 237.547 43.0488 238.168 43.7717H238.177Z" fill="white"/>
<path d="M252.208 49.4622C251.698 49.4622 251.337 49.2861 251.123 48.9339C250.929 48.6095 250.882 48.1832 250.994 47.6549C251.29 47.1174 251.939 46.4686 252.931 45.7179C253.487 45.3102 253.857 44.995 254.061 44.7819C254.386 44.4297 254.553 44.0683 254.553 43.7161C254.553 43.1507 254.321 42.7151 253.867 42.4186C253.45 42.1498 252.875 42.0108 252.143 42.0108C251.476 42.0108 250.845 42.1869 250.243 42.5483C249.492 43.2156 248.751 43.2249 248.028 42.5669C247.342 41.9274 247.324 41.2879 247.963 40.6484C249.298 39.5085 250.845 38.9431 252.588 38.9431C254.33 38.9431 255.572 39.2953 256.554 40.0089C257.639 40.7874 258.176 41.9181 258.176 43.3732C258.176 44.059 257.945 44.6707 257.491 45.2082C257.222 45.5326 256.721 45.9682 255.998 46.5057C255.257 47.034 254.756 47.4696 254.488 47.831C254.117 48.9246 253.357 49.4714 252.208 49.4714V49.4622ZM252.291 55.3844C251.568 55.3844 250.966 55.1527 250.484 54.6985C250.011 54.2722 249.78 53.7069 249.78 53.0118C249.78 52.3167 250.011 51.7699 250.484 51.3343C250.957 50.8987 251.559 50.6855 252.291 50.6855C253.023 50.6855 253.635 50.8987 254.108 51.3343C254.58 51.7699 254.812 52.326 254.812 53.0118C254.812 53.6976 254.58 54.2629 254.108 54.7078C253.635 55.1527 253.033 55.3751 252.291 55.3751V55.3844Z" fill="white"/>
</g>
<defs>
<clipPath id="clip0_86_9310">
<rect width="333" height="69" fill="white"/>
</clipPath>
</defs>
</svg>
