<svg width="333" height="69" viewBox="0 0 333 69" fill="none" xmlns="http://www.w3.org/2000/svg">
<g clip-path="url(#clip0_86_170702)">
<path d="M-177 0.00918148H298.71C317.64 0.00918148 333 15.4701 333 34.5046C333 53.5483 317.631 69 298.71 69H-177V0V0.00918148Z" fill="#76777A"/>
<g filter="url(#filter0_d_86_170702)">
<path d="M37.6075 52.6086C47.9654 50.183 54.3804 39.8855 51.9357 29.6086C49.491 19.3316 39.1125 12.9668 28.7546 15.3924C18.3967 17.818 11.9818 28.1154 14.4265 38.3924C16.8712 48.6694 27.2497 55.0342 37.6075 52.6086Z" fill="white"/>
<path d="M21.6045 33.7335V33.6697C21.6045 27.5039 26.5084 22.4469 33.2613 22.4469C40.0142 22.4469 44.8538 27.4401 44.8538 33.6058V33.6697C44.8538 35.9669 44.1383 38.1045 42.9163 39.8992L43.8569 40.6729C44.3553 41.1036 44.7332 41.6939 44.7332 42.4676C44.7332 43.7039 43.7363 44.7329 42.4822 44.7329C41.823 44.7329 41.2603 44.4537 40.8905 44.0788L39.7007 43.0259C37.8597 44.2064 35.6409 44.8844 33.205 44.8844C26.4601 44.8844 21.6125 39.8912 21.6125 33.7255L21.6045 33.7335ZM32.9799 36.1822C32.9799 34.9459 33.9767 33.9169 35.2308 33.9169C35.8901 33.9169 36.3242 34.1323 36.8226 34.571L39.2263 36.7087C39.6042 35.8392 39.8212 34.8183 39.8212 33.7335V33.6697C39.8212 29.9527 37.0718 26.8499 33.197 26.8499C29.3221 26.8499 26.637 29.8889 26.637 33.6058V33.6697C26.637 37.3866 29.3864 40.4895 33.2613 40.4895C34.3225 40.4895 35.2952 40.306 36.1393 39.8992L33.8562 37.9769C33.3578 37.5462 32.9799 36.9559 32.9799 36.1822Z" fill="#D95B10"/>
</g>
<path d="M77.84 40.22L75 25.4H78L79.18 32.64C79.4 34.2 79.64 35.76 79.86 37.36H79.94C80.24 35.76 80.56 34.18 80.88 32.64L82.6 25.4H85.14L86.84 32.64C87.16 34.16 87.46 35.76 87.78 37.36H87.88C88.1 35.76 88.32 34.18 88.54 32.64L89.72 25.4H92.52L89.78 40.22H86.1L84.44 32.9C84.2 31.74 83.98 30.6 83.8 29.46H83.72C83.52 30.6 83.32 31.74 83.08 32.9L81.46 40.22H77.84Z" fill="white"/>
<path d="M94.5008 40.22V24.26H97.4408V28.28L97.3008 30.38C98.2008 29.54 99.3008 28.74 100.821 28.74C103.241 28.74 104.281 30.42 104.281 33.24V40.22H101.341V33.6C101.341 31.86 100.861 31.26 99.7608 31.26C98.8408 31.26 98.2608 31.7 97.4408 32.52V40.22H94.5008Z" fill="white"/>
<path d="M110.054 40.5C108.054 40.5 106.734 39.08 106.734 37.18C106.734 34.78 108.674 33.52 113.194 33.04C113.134 31.94 112.654 31.1 111.274 31.1C110.234 31.1 109.234 31.56 108.194 32.16L107.134 30.22C108.454 29.4 110.054 28.74 111.814 28.74C114.654 28.74 116.114 30.44 116.114 33.68V40.22H113.714L113.514 39.02H113.434C112.454 39.86 111.334 40.5 110.054 40.5ZM111.014 38.2C111.854 38.2 112.474 37.8 113.194 37.1V34.84C110.454 35.18 109.534 35.94 109.534 36.94C109.534 37.82 110.154 38.2 111.014 38.2Z" fill="white"/>
<path d="M122.839 40.5C120.179 40.5 119.159 38.8 119.159 36.3V31.34H117.579V29.16L119.319 29.02L119.659 26H122.099V29.02H124.859V31.34H122.099V36.3C122.099 37.58 122.619 38.18 123.619 38.18C123.979 38.18 124.419 38.06 124.719 37.94L125.199 40.08C124.599 40.28 123.819 40.5 122.839 40.5Z" fill="white"/>
<path d="M131.669 40.22V29.02H134.609V40.22H131.669ZM133.149 27.22C132.129 27.22 131.429 26.58 131.429 25.6C131.429 24.64 132.129 24 133.149 24C134.149 24 134.849 24.64 134.849 25.6C134.849 26.58 134.149 27.22 133.149 27.22Z" fill="white"/>
<path d="M140.943 40.5C139.443 40.5 137.803 39.84 136.683 38.92L138.023 37.08C139.023 37.86 139.983 38.3 141.023 38.3C142.143 38.3 142.643 37.82 142.643 37.12C142.643 36.28 141.483 35.9 140.303 35.44C138.883 34.9 137.303 34.04 137.303 32.16C137.303 30.16 138.923 28.74 141.483 28.74C143.103 28.74 144.363 29.42 145.283 30.12L143.963 31.9C143.163 31.32 142.383 30.94 141.563 30.94C140.543 30.94 140.063 31.38 140.063 32.02C140.063 32.84 141.103 33.14 142.283 33.58C143.763 34.14 145.403 34.88 145.403 36.96C145.403 38.92 143.863 40.5 140.943 40.5Z" fill="white"/>
<path d="M153.157 44.72C152.497 44.72 152.057 44.64 151.617 44.5L152.157 42.24C152.357 42.3 152.677 42.38 152.937 42.38C154.077 42.38 154.717 41.66 155.037 40.68L155.237 40.02L150.877 29.02H153.837L155.617 34.22C155.957 35.22 156.237 36.3 156.557 37.38H156.657C156.917 36.34 157.197 35.26 157.457 34.22L158.997 29.02H161.817L157.837 40.56C156.857 43.2 155.657 44.72 153.157 44.72Z" fill="white"/>
<path d="M168.185 40.5C165.385 40.5 162.805 38.34 162.805 34.62C162.805 30.9 165.385 28.74 168.185 28.74C170.985 28.74 173.565 30.9 173.565 34.62C173.565 38.34 170.985 40.5 168.185 40.5ZM168.185 38.1C169.705 38.1 170.565 36.74 170.565 34.62C170.565 32.52 169.705 31.14 168.185 31.14C166.665 31.14 165.805 32.52 165.805 34.62C165.805 36.74 166.665 38.1 168.185 38.1Z" fill="white"/>
<path d="M179.364 40.5C176.944 40.5 175.904 38.82 175.904 36.02V29.02H178.844V35.64C178.844 37.36 179.324 37.98 180.404 37.98C181.324 37.98 181.924 37.58 182.684 36.58V29.02H185.624V40.22H183.224L183.004 38.62H182.924C181.964 39.76 180.884 40.5 179.364 40.5Z" fill="white"/>
<path d="M188.759 40.22V29.02H191.159L191.379 31H191.439C192.259 29.54 193.459 28.74 194.619 28.74C195.239 28.74 195.599 28.84 195.939 28.98L195.439 31.52C195.039 31.4 194.719 31.34 194.259 31.34C193.379 31.34 192.319 31.92 191.699 33.54V40.22H188.759Z" fill="white"/>
<path d="M206.101 40.5C203.441 40.5 202.421 38.8 202.421 36.3V31.34H200.841V29.16L202.581 29.02L202.921 26H205.361V29.02H208.121V31.34H205.361V36.3C205.361 37.58 205.881 38.18 206.881 38.18C207.241 38.18 207.681 38.06 207.981 37.94L208.461 40.08C207.861 40.28 207.081 40.5 206.101 40.5Z" fill="white"/>
<path d="M210.399 40.22V29.02H212.799L213.019 31H213.079C213.899 29.54 215.099 28.74 216.259 28.74C216.879 28.74 217.239 28.84 217.579 28.98L217.079 31.52C216.679 31.4 216.359 31.34 215.899 31.34C215.019 31.34 213.959 31.92 213.339 33.54V40.22H210.399Z" fill="white"/>
<path d="M219.11 40.22V29.02H222.05V40.22H219.11ZM220.59 27.22C219.57 27.22 218.87 26.58 218.87 25.6C218.87 24.64 219.57 24 220.59 24C221.59 24 222.29 24.64 222.29 25.6C222.29 26.58 221.59 27.22 220.59 27.22Z" fill="white"/>
<path d="M225.184 44.52V29.02H227.584L227.804 30.18H227.864C228.804 29.38 229.964 28.74 231.164 28.74C233.924 28.74 235.564 31 235.564 34.44C235.564 38.28 233.264 40.5 230.804 40.5C229.824 40.5 228.884 40.06 228.024 39.28L228.124 41.12V44.52H225.184ZM230.144 38.08C231.504 38.08 232.544 36.92 232.544 34.48C232.544 32.34 231.864 31.16 230.324 31.16C229.564 31.16 228.884 31.54 228.124 32.32V37.24C228.824 37.86 229.544 38.08 230.144 38.08Z" fill="white"/>
<path d="M245.347 40.5C243.307 40.5 242.587 39.16 242.587 37.08V24.26H245.527V37.2C245.527 37.88 245.827 38.1 246.107 38.1C246.227 38.1 246.307 38.1 246.507 38.06L246.867 40.24C246.527 40.38 246.047 40.5 245.347 40.5Z" fill="white"/>
<path d="M248.895 40.22V29.02H251.835V40.22H248.895ZM250.375 27.22C249.355 27.22 248.655 26.58 248.655 25.6C248.655 24.64 249.355 24 250.375 24C251.375 24 252.075 24.64 252.075 25.6C252.075 26.58 251.375 27.22 250.375 27.22Z" fill="white"/>
<path d="M254.97 40.22V24.26H257.87V33.84H257.95L261.77 29.02H264.99L261.15 33.64L265.35 40.22H262.17L259.45 35.58L257.87 37.38V40.22H254.97Z" fill="white"/>
<path d="M271.373 40.5C268.233 40.5 265.793 38.32 265.793 34.62C265.793 31 268.353 28.74 271.013 28.74C274.093 28.74 275.693 31 275.693 34.08C275.693 34.64 275.633 35.18 275.553 35.44H268.653C268.893 37.28 270.093 38.24 271.753 38.24C272.673 38.24 273.473 37.96 274.273 37.46L275.273 39.26C274.173 40.02 272.753 40.5 271.373 40.5ZM268.613 33.48H273.173C273.173 31.98 272.493 31.02 271.053 31.02C269.873 31.02 268.833 31.86 268.613 33.48Z" fill="white"/>
<path d="M279.762 35.18C279.282 31.96 282.682 30.66 282.682 28.76C282.682 27.76 282.022 27.12 280.982 27.12C280.102 27.12 279.402 27.58 278.762 28.24L277.142 26.76C278.182 25.58 279.602 24.76 281.342 24.76C283.742 24.76 285.502 26 285.502 28.56C285.502 31.4 282.022 32.36 282.322 35.18H279.762ZM281.042 40.5C280.002 40.5 279.222 39.66 279.222 38.58C279.222 37.48 280.002 36.66 281.042 36.66C282.102 36.66 282.882 37.48 282.882 38.58C282.882 39.66 282.102 40.5 281.042 40.5Z" fill="white"/>
</g>
<defs>
<filter id="filter0_d_86_170702" x="13.9072" y="14.8768" width="43.4779" height="43.1773" filterUnits="userSpaceOnUse" color-interpolation-filters="sRGB">
<feFlood flood-opacity="0" result="BackgroundImageFix"/>
<feColorMatrix in="SourceAlpha" type="matrix" values="0 0 0 0 0 0 0 0 0 0 0 0 0 0 0 0 0 0 127 0" result="hardAlpha"/>
<feOffset dx="2.47" dy="2.47"/>
<feGaussianBlur stdDeviation="1.23"/>
<feColorMatrix type="matrix" values="0 0 0 0 0.137255 0 0 0 0 0.0941176 0 0 0 0 0.0823529 0 0 0 0.75 0"/>
<feBlend mode="normal" in2="BackgroundImageFix" result="effect1_dropShadow_86_170702"/>
<feBlend mode="normal" in="SourceGraphic" in2="effect1_dropShadow_86_170702" result="shape"/>
</filter>
<clipPath id="clip0_86_170702">
<rect width="333" height="69" fill="white"/>
</clipPath>
</defs>
</svg>
