<svg width="333" height="69" viewBox="0 0 333 69" fill="none" xmlns="http://www.w3.org/2000/svg">
<g clip-path="url(#clip0_86_81910)">
<path d="M-177 0.00918148H298.71C317.64 0.00918148 333 15.4701 333 34.5046C333 53.5483 317.631 69 298.71 69H-177V0V0.00918148Z" fill="#76777A"/>
<g filter="url(#filter0_d_86_81910)">
<path d="M37.6075 52.6085C47.9654 50.1829 54.3804 39.8854 51.9357 29.6085C49.491 19.3315 39.1125 12.9667 28.7546 15.3923C18.3967 17.8179 11.9818 28.1153 14.4265 38.3923C16.8712 48.6692 27.2497 55.034 37.6075 52.6085Z" fill="white"/>
<path d="M21.6045 33.7335V33.6697C21.6045 27.5039 26.5084 22.4469 33.2613 22.4469C40.0142 22.4469 44.8538 27.4401 44.8538 33.6058V33.6697C44.8538 35.9669 44.1383 38.1045 42.9163 39.8992L43.8569 40.6729C44.3553 41.1036 44.7332 41.6939 44.7332 42.4676C44.7332 43.7039 43.7363 44.7329 42.4822 44.7329C41.823 44.7329 41.2603 44.4537 40.8905 44.0788L39.7007 43.0259C37.8597 44.2064 35.6409 44.8844 33.205 44.8844C26.4601 44.8844 21.6125 39.8912 21.6125 33.7255L21.6045 33.7335ZM32.9799 36.1822C32.9799 34.9459 33.9767 33.9169 35.2308 33.9169C35.8901 33.9169 36.3242 34.1323 36.8226 34.571L39.2263 36.7087C39.6042 35.8392 39.8212 34.8183 39.8212 33.7335V33.6697C39.8212 29.9527 37.0718 26.8499 33.197 26.8499C29.3221 26.8499 26.637 29.8889 26.637 33.6058V33.6697C26.637 37.3866 29.3864 40.4895 33.2613 40.4895C34.3225 40.4895 35.2952 40.306 36.1393 39.8992L33.8562 37.9769C33.3578 37.5462 32.9799 36.9559 32.9799 36.1822Z" fill="#D95B10"/>
</g>
<path d="M74.4285 25.2562C74.5558 24.9676 74.7595 24.747 75.0395 24.6112C75.2008 24.5263 75.379 24.4754 75.5572 24.4754C75.6675 24.4754 75.7948 24.4924 75.9221 24.5348L76.4397 24.7045C76.7283 24.7979 76.9489 24.9761 77.0847 25.2562C77.1526 25.3919 77.1781 25.5447 77.1781 25.6975C77.1781 25.8247 77.1526 25.952 77.1017 26.0793C76.7113 27.0213 76.2785 27.9379 75.8033 28.8459C75.7523 28.9223 75.7269 29.0071 75.7269 29.109V41.516C75.7269 41.83 75.6166 42.1016 75.4044 42.3138C75.1923 42.5259 74.9207 42.6363 74.6067 42.6363H74.1654C73.8599 42.6363 73.5968 42.5259 73.3762 42.3138C73.1555 42.1016 73.0452 41.83 73.0452 41.516V33.3012C73.0452 33.3012 73.0367 33.2588 73.0198 33.2503C73.0028 33.2503 72.9773 33.2503 72.9519 33.2588C72.9179 33.3097 72.8755 33.3691 72.8415 33.4285C72.7057 33.5813 72.5275 33.6577 72.3239 33.6577H72.2135C71.959 33.6068 71.7723 33.471 71.662 33.2418C71.5007 32.9024 71.331 32.5714 71.1697 32.2489C71.0594 32.0198 71 31.7737 71 31.5021V31.3154C71.0339 30.9845 71.1613 30.6959 71.3819 30.4413C72.6124 28.9647 73.6393 27.242 74.454 25.2562H74.4285ZM86.5555 30.2377C86.564 30.1528 86.5216 30.1019 86.4197 30.1019H84.6885C84.5867 30.1019 84.5358 30.1443 84.5358 30.2377V39.5812C84.5358 40.2686 84.4679 40.8117 84.3236 41.2021C84.1793 41.5924 83.9248 41.9064 83.5429 42.1355C83.0507 42.4156 82.3972 42.5853 81.5995 42.6532H81.5061C81.2261 42.6532 80.9715 42.5684 80.7423 42.3901C80.4877 42.1865 80.318 41.9234 80.2247 41.6094C80.1483 41.3718 80.0635 41.1257 79.9786 40.8881C79.9447 40.7862 79.9192 40.6929 79.9192 40.5995C79.9192 40.4637 79.9616 40.328 80.0549 40.2007C80.1907 39.9885 80.3944 39.8782 80.649 39.8782H81.3703C81.5146 39.8782 81.608 39.8527 81.6589 39.8103C81.7098 39.7679 81.7353 39.683 81.7353 39.5557V30.2546C81.7353 30.1698 81.6843 30.1189 81.5825 30.1189H80.004C79.9192 30.1189 79.8428 30.1613 79.7919 30.2292C79.4524 30.8656 79.096 31.4597 78.7226 32.0028C78.5444 32.2405 78.3068 32.3762 78.0013 32.4017C77.9758 32.4187 77.9419 32.4187 77.9079 32.4187C77.6448 32.4187 77.4157 32.3338 77.2205 32.1556C77.0338 32.0028 76.8471 31.8501 76.6689 31.6973C76.4313 31.5191 76.2955 31.2815 76.2701 30.976C76.2616 30.9251 76.2531 30.8826 76.2531 30.8402C76.2531 30.6026 76.3295 30.3734 76.4822 30.1698C77.4581 28.8459 78.2559 27.2165 78.8669 25.2731C78.9517 24.9846 79.13 24.7555 79.4015 24.5857C79.5882 24.4754 79.7919 24.416 79.9955 24.416C80.0804 24.416 80.1737 24.433 80.2586 24.45L80.8697 24.5857C81.1582 24.6621 81.3873 24.8234 81.5401 25.078C81.6419 25.2392 81.6928 25.4174 81.6928 25.5956C81.6928 25.6975 81.6759 25.8078 81.6334 25.9181C81.4722 26.4273 81.294 26.911 81.1157 27.3693C81.1073 27.3947 81.1073 27.4202 81.1242 27.4541C81.1412 27.4881 81.1667 27.5051 81.1921 27.5051H87.0986C87.0986 27.5051 87.1581 27.5051 87.192 27.4881C87.3193 27.4626 87.4466 27.4541 87.5739 27.4541C87.7012 27.4541 87.8285 27.4711 87.9558 27.4881L88.5837 27.5984C88.8638 27.6493 89.0845 27.7851 89.2542 28.0142C89.39 28.1924 89.4664 28.3876 89.4664 28.6083C89.4664 28.6762 89.4663 28.7271 89.4494 28.778C89.3221 29.6691 89.1608 30.5601 88.9741 31.4682C88.9232 31.7737 88.762 32.0113 88.4989 32.1895C88.3122 32.3253 88.1 32.4017 87.8709 32.4017C87.7945 32.4017 87.7181 32.4017 87.6418 32.3847L87.4551 32.3508C87.1411 32.2914 86.8865 32.1301 86.7083 31.8755C86.5555 31.6719 86.4791 31.4427 86.4791 31.1881V31.0354C86.5131 30.7723 86.547 30.5092 86.5725 30.2546L86.5555 30.2377ZM78.2389 34.1838C78.3153 33.8783 78.485 33.6407 78.7566 33.4795C78.9348 33.3522 79.13 33.2928 79.3506 33.2928C79.427 33.2928 79.5118 33.2928 79.5967 33.3097L80.1313 33.4201C80.4369 33.4879 80.6745 33.6492 80.8357 33.9123C80.9461 34.0905 81.0054 34.2772 81.0054 34.4639C81.0054 34.5572 80.9969 34.6506 80.9715 34.7524C80.5302 36.4327 79.9531 37.9093 79.2572 39.1908C79.113 39.4454 78.9008 39.6066 78.6123 39.666C78.5359 39.683 78.4595 39.683 78.3832 39.683C78.171 39.683 77.9673 39.6236 77.7721 39.4963C77.6109 39.3945 77.4327 39.2841 77.2545 39.1738C77.0168 39.0211 76.8556 38.8004 76.7792 38.5034C76.7707 38.4185 76.7622 38.3252 76.7622 38.2403C76.7622 38.0536 76.8131 37.8669 76.915 37.6887C77.4581 36.7213 77.9079 35.5501 78.2473 34.1838H78.2389ZM85.2571 34.7524C85.2062 34.6166 85.1807 34.4808 85.1807 34.3535C85.1807 34.2008 85.2147 34.0565 85.2741 33.9123C85.4014 33.6322 85.6135 33.4455 85.9021 33.3437L86.301 33.2079C86.4452 33.157 86.5725 33.1315 86.6998 33.1315C86.861 33.1315 87.0308 33.1655 87.192 33.2418C87.4805 33.3691 87.6927 33.5813 87.82 33.8698C88.3801 35.2446 88.8129 36.6279 89.1184 38.0281C89.1438 38.113 89.1524 38.2064 89.1524 38.2912C89.1524 38.5034 89.0929 38.7155 88.9826 38.9192C88.8214 39.1993 88.5753 39.386 88.2613 39.4878L87.6503 39.7169C87.5484 39.7424 87.4466 39.7509 87.3448 39.7509C87.192 39.7509 87.0392 39.7084 86.8865 39.6151C86.6488 39.4623 86.4961 39.2502 86.4452 38.9701C86.1906 37.5953 85.7918 36.1866 85.2402 34.7354L85.2571 34.7524Z" fill="white"/>
<path d="M96.1966 42.9501C96.273 43.1028 96.3069 43.2641 96.3069 43.4253C96.3069 43.5356 96.2814 43.6629 96.2305 43.7902C96.1287 44.0703 95.942 44.2655 95.6789 44.3843L95.5855 44.4182C95.4243 44.4946 95.2546 44.5285 95.0934 44.5285C94.9491 44.5285 94.8133 44.5031 94.6775 44.4522C94.372 44.3503 94.1429 44.1636 93.9901 43.8836C92.4032 40.9897 91.6055 37.9092 91.6055 34.6419C91.6055 31.3747 92.4032 28.3111 93.9901 25.4172C94.1429 25.1372 94.372 24.9505 94.6775 24.8487C94.8218 24.7977 94.9576 24.7723 95.0934 24.7723C95.2546 24.7723 95.4243 24.8062 95.5855 24.8656L95.6789 24.8996C95.942 25.0099 96.1287 25.2136 96.2305 25.5106C96.2814 25.6209 96.3069 25.7482 96.3069 25.8755C96.3069 26.0283 96.2645 26.181 96.1966 26.3338C94.9915 28.8797 94.389 31.6462 94.389 34.6419C94.389 37.6376 94.9915 40.4211 96.1966 42.9501Z" fill="white"/>
<path d="M113.864 29.7964C113.89 29.6946 113.856 29.6437 113.754 29.6437H112.837C112.736 29.6437 112.685 29.6946 112.685 29.7964V39.7425C112.685 40.3874 112.617 40.9051 112.473 41.2785C112.328 41.6519 112.082 41.9489 111.709 42.1611C111.225 42.4241 110.572 42.5854 109.748 42.6363C109.723 42.6448 109.689 42.6533 109.655 42.6533C109.375 42.6533 109.12 42.5599 108.891 42.3647C108.637 42.1611 108.458 41.898 108.357 41.584C108.289 41.3973 108.221 41.2021 108.144 41.0154C108.111 40.9136 108.085 40.8202 108.085 40.7269C108.085 40.5911 108.127 40.4553 108.221 40.328C108.357 40.1243 108.552 40.0225 108.789 40.0225H109.57C109.723 40.014 109.825 39.9801 109.876 39.9376C109.927 39.8952 109.952 39.8103 109.952 39.7V29.7879C109.952 29.6861 109.901 29.6352 109.799 29.6352H109.324C109.239 29.6352 109.171 29.6776 109.137 29.771C108.645 30.8912 108.085 31.8416 107.483 32.6309C107.474 32.6563 107.474 32.6818 107.483 32.7157C107.491 32.7497 107.516 32.7667 107.542 32.7667L108.552 32.9788C108.857 33.0297 109.095 33.1825 109.256 33.4371C109.383 33.6238 109.443 33.819 109.443 34.0057C109.443 34.0905 109.434 34.1839 109.4 34.2688C109.044 35.7284 108.577 37.0183 108.009 38.1385C107.881 38.4016 107.669 38.5713 107.364 38.6307C107.262 38.6562 107.169 38.6732 107.075 38.6732C106.872 38.6732 106.685 38.6223 106.507 38.5204C106.074 38.2828 105.666 38.0706 105.285 37.8924C105.276 37.8924 105.268 37.8924 105.268 37.9094C105.369 38.0197 105.42 38.1555 105.412 38.2998C105.412 38.444 105.361 38.5798 105.268 38.7071L104.444 39.734C104.283 39.9207 104.079 40.0225 103.833 40.0225H103.799C103.545 40.0225 103.333 39.9122 103.171 39.7C103.121 39.6406 103.07 39.6406 103.019 39.7C102.408 40.5741 101.712 41.3294 100.94 41.9489C100.761 42.0847 100.575 42.1611 100.371 42.1611C100.295 42.1611 100.218 42.1441 100.142 42.1271C99.8533 42.0592 99.6157 41.9065 99.4375 41.6519C99.3356 41.5076 99.2338 41.3803 99.132 41.253C99.0047 41.0663 98.9452 40.8627 98.9452 40.642V40.4893C98.9792 40.2007 99.115 39.9631 99.3441 39.7849C100.015 39.2503 100.609 38.5628 101.118 37.7227C101.169 37.6378 101.16 37.5615 101.101 37.4936L100.736 37.1541C100.736 37.1541 100.71 37.1287 100.702 37.1541C100.693 37.2305 100.651 37.2814 100.575 37.3154C100.507 37.3493 100.439 37.3408 100.371 37.3069L99.3441 36.6959C99.0641 36.5176 98.8604 36.28 98.7331 35.9745C98.6482 35.7708 98.5973 35.5672 98.5973 35.3635C98.5973 35.2532 98.6058 35.1344 98.6312 35.024C98.9113 33.7256 99.1913 32.2745 99.4714 30.662C99.4799 30.5772 99.4459 30.5263 99.3611 30.5263C99.098 30.5263 98.8604 30.4244 98.6652 30.2292C98.47 30.034 98.3682 29.7964 98.3682 29.5334V29.0581C98.3682 28.7526 98.4785 28.4895 98.6907 28.2689C98.9028 28.0482 99.1744 27.9379 99.4884 27.9379H99.7769C99.8787 27.9379 99.9381 27.8955 99.9466 27.8021C100.108 26.6734 100.235 25.8163 100.312 25.2477C100.345 24.9422 100.49 24.6876 100.727 24.484C100.94 24.3227 101.186 24.2379 101.449 24.2379H101.559L102.017 24.2718C102.323 24.3058 102.56 24.4415 102.739 24.6707C102.891 24.8574 102.968 25.0695 102.968 25.2987C102.968 25.3665 102.968 25.4259 102.951 25.4854C102.824 26.3085 102.696 27.0808 102.569 27.7936C102.56 27.8785 102.594 27.9294 102.679 27.9294H103.367C104.113 27.9294 104.648 27.9464 104.971 27.9888C105.2 28.0143 105.386 28.1161 105.522 28.2943C105.658 28.4556 105.734 28.6423 105.734 28.846C105.734 29.109 105.7 29.6097 105.624 30.3311C105.624 30.348 105.633 30.3565 105.649 30.3565C105.666 30.3565 105.683 30.3565 105.7 30.348C106.6 29.0496 107.304 27.3523 107.797 25.2562C107.864 24.9507 108.017 24.7131 108.272 24.5518C108.475 24.4161 108.688 24.3397 108.9 24.3397C108.976 24.3397 109.052 24.3397 109.129 24.3567L109.647 24.45C109.952 24.5179 110.19 24.6707 110.351 24.9252C110.478 25.1035 110.538 25.2902 110.538 25.4938C110.538 25.5787 110.529 25.6721 110.504 25.7569C110.393 26.1897 110.275 26.5801 110.164 26.9365C110.164 26.9705 110.173 27.0044 110.19 27.0299C110.207 27.0553 110.241 27.0638 110.275 27.0638H114.696C114.823 27.0299 114.959 27.0044 115.095 27.0044C115.205 27.0044 115.332 27.0214 115.46 27.0384L116.071 27.1741C116.351 27.242 116.563 27.3863 116.716 27.6154C116.826 27.7936 116.885 27.9803 116.885 28.167C116.885 28.2434 116.885 28.3113 116.868 28.3792C116.631 29.4739 116.351 30.4499 116.028 31.3155C115.926 31.621 115.731 31.8332 115.434 31.9605C115.256 32.0368 115.086 32.0708 114.917 32.0708C114.789 32.0708 114.654 32.0538 114.518 32.0114L114.382 31.9689C114.093 31.8841 113.873 31.7059 113.737 31.4343C113.652 31.2561 113.601 31.0694 113.601 30.8827C113.601 30.7808 113.61 30.6705 113.635 30.5602C113.712 30.3056 113.779 30.0425 113.847 29.7625L113.864 29.7964ZM103.121 30.6705C103.129 30.5687 103.087 30.5178 102.985 30.5178H102.238C102.136 30.5178 102.077 30.5687 102.068 30.6705C101.652 32.7327 101.423 33.8699 101.381 34.082C101.355 34.1754 101.381 34.2433 101.457 34.3112C101.525 34.3621 101.635 34.4555 101.797 34.5997C101.958 34.744 102.085 34.8458 102.179 34.9222C102.255 34.9901 102.306 34.9731 102.331 34.8798C102.696 33.6492 102.959 32.2405 103.112 30.6705H103.121ZM107.024 32.9194C107.05 32.7667 107.135 32.7073 107.287 32.7327L107.304 32.7157C106.863 32.3593 106.303 31.9944 105.649 31.6125C105.624 31.604 105.599 31.604 105.565 31.6125C105.531 31.6295 105.514 31.6465 105.514 31.6889C105.276 33.7002 104.911 35.4059 104.427 36.8147C104.393 36.8995 104.41 36.9759 104.487 37.0438C104.716 37.2729 104.92 37.5021 105.098 37.7312C105.166 37.7991 105.217 37.7906 105.268 37.7142C106.082 36.5431 106.668 34.9477 107.024 32.9279V32.9194ZM113.414 34.3876C113.381 34.2603 113.355 34.1414 113.355 34.0226C113.355 33.8444 113.398 33.6832 113.465 33.5304C113.601 33.2504 113.822 33.0637 114.11 32.9618L114.34 32.8855C114.467 32.8515 114.594 32.8261 114.721 32.8261C114.883 32.8261 115.052 32.86 115.214 32.9364C115.494 33.0807 115.689 33.2928 115.808 33.5814C116.223 34.761 116.58 35.9321 116.86 37.0862C116.868 37.1881 116.877 37.2814 116.877 37.3748C116.877 37.5784 116.826 37.7736 116.724 37.9688C116.563 38.2573 116.325 38.461 116.02 38.5629L115.604 38.6986C115.502 38.7326 115.4 38.758 115.298 38.758C115.137 38.758 114.976 38.7071 114.823 38.6053C114.569 38.4525 114.416 38.2404 114.365 37.9603C114.136 36.8656 113.822 35.6775 113.414 34.396V34.3876Z" fill="white"/>
<path d="M121.188 43.8836C121.027 44.1636 120.789 44.3503 120.484 44.4522C120.339 44.5031 120.212 44.5285 120.085 44.5285C119.906 44.5285 119.745 44.4861 119.592 44.4182L119.499 44.3843C119.219 44.274 119.032 44.0703 118.931 43.7902C118.897 43.6629 118.871 43.5441 118.871 43.4253C118.871 43.2641 118.905 43.1028 118.964 42.9501C120.17 40.4381 120.772 37.6631 120.772 34.6419C120.772 31.6208 120.17 28.8712 118.964 26.3338C118.897 26.181 118.871 26.0283 118.871 25.8755C118.871 25.7482 118.888 25.6294 118.931 25.5106C119.032 25.2221 119.219 25.0184 119.499 24.8996L119.592 24.8656C119.745 24.8062 119.906 24.7723 120.085 24.7723C120.212 24.7723 120.348 24.7977 120.484 24.8487C120.789 24.9505 121.027 25.1372 121.188 25.4172C122.775 28.3111 123.573 31.3917 123.573 34.6419C123.573 37.8922 122.775 40.9897 121.188 43.8836Z" fill="white"/>
<path d="M138.458 26.9791C138.458 26.9791 138.449 27.0469 138.466 27.0724C138.483 27.0979 138.517 27.1148 138.551 27.1148H142.608C142.913 27.1148 143.176 27.2252 143.405 27.4373C143.609 27.6495 143.711 27.9041 143.711 28.2011V28.3539C143.626 31.4768 143.533 33.8361 143.456 35.423C143.372 37.01 143.253 38.2914 143.1 39.2758C142.947 40.2517 142.735 40.9222 142.455 41.2786C142.175 41.669 141.878 41.9575 141.572 42.1272C141.258 42.297 140.868 42.4327 140.401 42.5176C139.994 42.594 139.408 42.6279 138.645 42.6279H138.356C138.042 42.611 137.762 42.5006 137.516 42.297C137.27 42.0933 137.109 41.8132 137.024 41.4908C136.956 41.2786 136.888 41.058 136.795 40.8458C136.761 40.7609 136.735 40.6676 136.735 40.5827C136.735 40.4554 136.769 40.3366 136.846 40.2178C136.973 40.0311 137.151 39.9293 137.38 39.9293H137.414C137.932 39.9547 138.543 39.9632 139.222 39.9632C139.578 39.9632 139.867 39.8529 140.079 39.6238C140.359 39.3182 140.571 38.4272 140.707 36.9336C140.851 35.4485 140.953 33.0808 141.029 29.839C141.038 29.7371 140.995 29.6862 140.893 29.6862H137.482C137.38 29.6862 137.312 29.7286 137.27 29.822C136.956 30.4839 136.625 31.095 136.277 31.6551C136.124 31.9096 135.895 32.0624 135.589 32.1133C135.539 32.1303 135.479 32.1303 135.42 32.1303C135.191 32.1303 134.978 32.0539 134.792 31.9012C134.588 31.7484 134.384 31.6126 134.181 31.4853C134.155 31.4599 134.13 31.4599 134.104 31.4768C134.079 31.4938 134.062 31.5193 134.062 31.5447V39.5728C134.062 39.8783 133.952 40.1414 133.731 40.3621C133.51 40.5827 133.247 40.693 132.942 40.693H129.089C129.004 40.693 128.953 40.7355 128.953 40.8288V40.9646C128.953 41.2701 128.843 41.5332 128.622 41.7538C128.402 41.9745 128.138 42.0848 127.833 42.0848H127.527C127.213 42.0848 126.942 41.9745 126.73 41.7538C126.518 41.5332 126.407 41.2701 126.407 40.9646V28.4387C126.407 28.1332 126.518 27.8701 126.73 27.6495C126.942 27.4288 127.213 27.3185 127.527 27.3185H128.478C128.563 27.3185 128.622 27.2761 128.648 27.1827C128.758 26.5463 128.86 25.9098 128.936 25.2563C128.97 24.9508 129.114 24.7047 129.352 24.5095C129.539 24.3568 129.759 24.2804 129.997 24.2804C130.048 24.2804 130.099 24.2804 130.15 24.2974L131.024 24.4077C131.312 24.4416 131.542 24.5944 131.694 24.849C131.779 25.0017 131.83 25.1545 131.83 25.3073C131.83 25.4091 131.813 25.5194 131.771 25.6297C131.558 26.2747 131.372 26.7924 131.219 27.1743C131.211 27.2082 131.211 27.2421 131.227 27.2676C131.244 27.2931 131.278 27.3015 131.312 27.3015H132.933C133.239 27.3015 133.502 27.4119 133.722 27.6325C133.943 27.8532 134.053 28.1162 134.053 28.4217V29.7541C134.053 29.7541 134.062 29.7965 134.079 29.805C134.096 29.805 134.113 29.805 134.13 29.7796C134.902 28.4981 135.556 26.9876 136.073 25.2648C136.158 24.9763 136.336 24.7472 136.608 24.5774C136.795 24.4671 136.998 24.4077 137.202 24.4077C137.287 24.4077 137.38 24.4247 137.465 24.4416L138.017 24.5774C138.305 24.6453 138.534 24.8065 138.687 25.0696C138.789 25.2309 138.84 25.4091 138.84 25.5873C138.84 25.6891 138.823 25.7995 138.78 25.9098C138.67 26.2407 138.543 26.5972 138.415 26.9791H138.458ZM131.389 32.4103C131.491 32.4103 131.542 32.3594 131.542 32.2576V29.9153C131.542 29.8135 131.491 29.7626 131.389 29.7626H129.123C129.038 29.7626 128.987 29.8135 128.987 29.9153V32.2576C128.987 32.3594 129.03 32.4103 129.123 32.4103H131.389ZM128.987 38.0538C128.987 38.1556 129.03 38.2065 129.123 38.2065H131.389C131.491 38.2065 131.542 38.1556 131.542 38.0538V34.9817C131.542 34.8968 131.491 34.8459 131.389 34.8459H129.123C129.038 34.8459 128.987 34.8884 128.987 34.9817V38.0538ZM139.833 35.1684C139.935 35.3466 139.985 35.5333 139.985 35.72C139.985 35.8219 139.977 35.9237 139.951 36.0255C139.875 36.331 139.697 36.5687 139.417 36.7299L138.942 37.0184C138.78 37.1203 138.602 37.1712 138.424 37.1712C138.339 37.1712 138.237 37.1627 138.135 37.1372C137.847 37.0524 137.626 36.8742 137.49 36.6026C137.159 35.9661 136.667 35.109 136.005 34.0312C135.903 33.853 135.853 33.6663 135.853 33.4796C135.853 33.3948 135.861 33.2929 135.895 33.1911C135.971 32.8856 136.141 32.6649 136.413 32.5207L136.676 32.3679C136.862 32.2661 137.066 32.2152 137.27 32.2152C137.355 32.2152 137.456 32.2151 137.558 32.2321C137.864 32.3085 138.101 32.4782 138.28 32.7498C138.976 33.8021 139.502 34.6083 139.841 35.1684H139.833Z" fill="white"/>
<path d="M161.219 33.2078C161.422 32.9956 161.677 32.8683 161.983 32.8428H162.076C162.339 32.8428 162.577 32.9362 162.78 33.1059L163.086 33.3945C163.315 33.5981 163.425 33.8527 163.425 34.1582C163.425 34.4637 163.315 34.7183 163.086 34.922C162.466 35.4651 161.855 35.9743 161.253 36.4241C161.176 36.492 161.159 36.5599 161.193 36.6532C161.702 37.8583 162.33 38.8172 163.077 39.5301C163.315 39.7423 163.442 40.0223 163.442 40.3533C163.442 40.6079 163.357 40.8285 163.196 41.0237C163.018 41.2359 162.848 41.4565 162.678 41.6687C162.492 41.9063 162.254 42.059 161.974 42.1099C161.906 42.1184 161.864 42.1269 161.821 42.1269C161.592 42.1269 161.388 42.0336 161.21 41.8638C160.311 40.9643 159.589 39.8271 159.046 38.4608C158.503 37.0945 158.079 35.4651 157.756 33.5727C157.748 33.4878 157.688 33.4623 157.604 33.4963L157.527 33.5133C157.442 33.5557 157.391 33.6236 157.391 33.7254V41.4989C157.391 41.8129 157.281 42.0845 157.06 42.2966C156.84 42.5088 156.577 42.6191 156.271 42.6191H155.83C155.524 42.6191 155.261 42.5088 155.041 42.2966C154.82 42.0845 154.71 41.8129 154.71 41.4989V34.5571C154.71 34.5571 154.667 34.5741 154.65 34.5571C154.234 33.7424 153.751 33.0295 153.199 32.4185C153.191 32.41 153.165 32.4015 153.14 32.41C153.114 32.41 153.106 32.4355 153.106 32.4609C153.063 35.7027 153.012 37.9431 152.936 39.1822C152.86 40.4212 152.707 41.2189 152.478 41.5753C152.138 42.0845 151.68 42.3985 151.128 42.5088C150.899 42.5597 150.611 42.5937 150.271 42.6191H150.195C149.915 42.6191 149.66 42.5173 149.431 42.3136C149.202 42.11 149.041 41.8469 148.956 41.5159C148.905 41.3037 148.846 41.0916 148.778 40.8879C148.71 40.6842 148.633 40.4975 148.557 40.3363C148.549 40.3108 148.523 40.2939 148.498 40.2939C148.472 40.2939 148.455 40.3108 148.438 40.3363C148.209 40.8455 147.946 41.3377 147.658 41.8044C147.505 42.0421 147.276 42.1778 146.97 42.2033H146.894C146.631 42.2033 146.393 42.1184 146.189 41.9572C146.079 41.8554 145.952 41.7535 145.824 41.6517C145.587 41.465 145.434 41.2104 145.383 40.9049C145.375 40.8285 145.366 40.7606 145.366 40.6927C145.366 40.4636 145.434 40.2514 145.553 40.0647C146.215 38.97 146.656 37.8243 146.885 36.6362C147.114 35.4397 147.225 34.1752 147.225 32.8259V29.7538C147.225 29.652 147.182 29.601 147.089 29.601H146.52C146.206 29.601 145.935 29.4907 145.723 29.2786C145.51 29.0664 145.4 28.7948 145.4 28.4808V28.1159C145.4 27.8104 145.51 27.5473 145.723 27.3267C145.935 27.106 146.206 26.9957 146.52 26.9957H147.929C148.014 26.9957 148.065 26.9533 148.065 26.8599V25.2221C148.065 24.9166 148.175 24.6535 148.396 24.4328C148.616 24.2122 148.88 24.1019 149.185 24.1019H149.66C149.966 24.1019 150.229 24.2122 150.45 24.4328C150.67 24.6535 150.781 24.9166 150.781 25.2221V26.8599C150.781 26.9533 150.823 26.9957 150.916 26.9957H152.444C152.749 26.9957 153.012 27.106 153.233 27.3267C153.454 27.5473 153.564 27.8104 153.564 28.1159V28.2093C153.564 28.2093 153.573 28.2517 153.59 28.2602C153.606 28.2602 153.623 28.2602 153.64 28.2347C154.175 27.3437 154.599 26.3338 154.913 25.2051C154.998 24.8996 155.176 24.662 155.431 24.4838C155.635 24.3734 155.847 24.314 156.059 24.314C156.135 24.314 156.212 24.314 156.288 24.331L156.899 24.4413C157.188 24.4922 157.417 24.6535 157.587 24.9166C157.697 25.0778 157.756 25.256 157.756 25.4512C157.756 25.5361 157.748 25.6379 157.722 25.7397C157.671 25.901 157.621 26.0622 157.57 26.215C157.561 26.2489 157.57 26.2829 157.587 26.3083C157.612 26.3338 157.637 26.3423 157.663 26.3423H162.161C162.466 26.3423 162.729 26.4526 162.95 26.6732C163.171 26.8939 163.281 27.157 163.281 27.4625V27.768C163.281 28.082 163.171 28.3535 162.95 28.5657C162.729 28.7779 162.466 28.8882 162.161 28.8882H156.636C156.551 28.8882 156.475 28.9306 156.424 29.024C156.059 29.7368 155.652 30.3818 155.202 30.9674C155.024 31.205 154.778 31.3408 154.455 31.3662H154.379C154.09 31.3662 153.836 31.2813 153.615 31.1031C153.275 30.8231 152.945 30.577 152.639 30.3563C152.529 30.28 152.461 30.1696 152.452 30.0254C152.444 29.8811 152.478 29.7538 152.563 29.652C152.571 29.6435 152.58 29.6265 152.571 29.618C152.571 29.6095 152.554 29.601 152.546 29.601H149.839C149.737 29.601 149.686 29.652 149.686 29.7538V31.0267C149.686 31.1116 149.737 31.1625 149.839 31.1625H152.164C152.418 31.1625 152.631 31.2559 152.809 31.4256C152.987 31.6038 153.072 31.816 153.072 32.0706C153.072 32.1469 153.106 32.1809 153.182 32.1639C154.353 31.9263 155.55 31.5614 156.789 31.0862C158.019 30.6109 159.08 30.0933 159.971 29.5332C160.26 29.3549 160.574 29.2701 160.905 29.2701C161.236 29.2701 161.524 29.3634 161.804 29.5586L162.016 29.7114C162.246 29.8896 162.356 30.1272 162.356 30.4157C162.356 30.6788 162.246 30.8995 162.033 31.0607C161.473 31.4511 160.854 31.8414 160.166 32.2233C160.082 32.2742 160.039 32.3421 160.056 32.4355C160.166 33.0974 160.268 33.5896 160.345 33.9036C160.345 33.9376 160.362 33.963 160.396 33.9715C160.43 33.9715 160.455 33.9715 160.48 33.9461C160.735 33.6915 160.973 33.4454 161.185 33.1993L161.219 33.2078ZM150.56 33.8782C150.56 33.7763 150.517 33.7254 150.424 33.7254H149.872C149.771 33.7254 149.72 33.7763 149.72 33.8782C149.643 36.3053 149.27 38.342 148.591 39.9968C148.557 40.0817 148.583 40.1326 148.667 40.1496C149.032 40.1835 149.363 40.209 149.66 40.209C149.889 40.209 150.076 40.1072 150.212 39.9035C150.314 39.7168 150.39 39.1822 150.441 38.3081C150.492 37.434 150.526 35.9573 150.551 33.8782H150.56Z" fill="white"/>
<path d="M169.128 28.9391C169.306 28.676 169.543 28.4893 169.849 28.3875C170.002 28.3365 170.146 28.3111 170.29 28.3111C170.452 28.3111 170.613 28.3365 170.766 28.3875L171.36 28.6166C171.64 28.7184 171.826 28.9051 171.911 29.1852C171.954 29.287 171.971 29.3888 171.971 29.4907C171.971 29.6519 171.92 29.8132 171.818 29.9659C171.385 30.6279 170.944 31.2643 170.485 31.8754C170.418 31.9517 170.392 32.0366 170.392 32.1215V41.1C170.392 41.4055 170.282 41.6686 170.061 41.8893C169.84 42.1099 169.577 42.2202 169.272 42.2202H168.661C168.355 42.2202 168.092 42.1099 167.872 41.8893C167.651 41.6686 167.541 41.4055 167.541 41.1V35.3208C167.541 35.3208 167.532 35.2784 167.507 35.2699C167.481 35.2699 167.456 35.2699 167.43 35.2784C167.362 35.3463 167.269 35.4311 167.142 35.5415C166.964 35.7027 166.751 35.7876 166.514 35.7876C166.48 35.7876 166.429 35.7876 166.378 35.7706C166.09 35.7366 165.852 35.5924 165.674 35.3548C165.495 35.1172 165.309 34.8795 165.122 34.6504C164.961 34.4467 164.876 34.2261 164.876 33.98C164.876 33.9375 164.876 33.9036 164.893 33.8697C164.918 33.5641 165.046 33.3265 165.275 33.1483C165.971 32.5797 166.667 31.9263 167.354 31.188C168.041 30.4496 168.635 29.7028 169.145 28.9391H169.128ZM168.304 24.5771C168.517 24.3225 168.788 24.1528 169.102 24.0594C169.229 24.0255 169.357 24 169.484 24C169.662 24 169.841 24.0424 170.019 24.1103L170.689 24.3734C170.944 24.4837 171.105 24.6789 171.181 24.942C171.19 25.0184 171.198 25.0947 171.198 25.1711C171.198 25.3493 171.13 25.5191 171.012 25.6888C170.426 26.3592 169.781 27.0381 169.085 27.7085C168.398 28.3705 167.719 28.9645 167.048 29.4822C166.87 29.618 166.684 29.6944 166.48 29.6944C166.404 29.6944 166.327 29.6859 166.251 29.6519C165.962 29.5925 165.733 29.4313 165.563 29.1767C165.479 29.0155 165.377 28.8627 165.275 28.7184C165.139 28.5317 165.063 28.3196 165.063 28.0904C165.063 28.031 165.063 27.9631 165.08 27.9037C165.131 27.6152 165.275 27.3776 165.521 27.1994C166.013 26.8175 166.522 26.3847 167.023 25.901C167.515 25.4342 167.948 24.9844 168.296 24.5686L168.304 24.5771ZM181.883 30.1781C182.188 30.1781 182.451 30.2884 182.672 30.509C182.893 30.7297 183.003 30.9928 183.003 31.2983V31.7565C183.003 32.0621 182.893 32.3251 182.672 32.5458C182.451 32.7664 182.188 32.8767 181.883 32.8767H180.61C180.508 32.8767 180.457 32.9277 180.457 33.0295V39.0379C180.457 39.8016 180.372 40.3787 180.202 40.786C180.033 41.1849 179.71 41.4904 179.243 41.7111C178.726 41.9487 177.792 42.1014 176.46 42.1523H176.4C176.112 42.1523 175.849 42.059 175.62 41.8638C175.382 41.6517 175.212 41.3801 175.128 41.0661C175.06 40.8285 174.992 40.5739 174.915 40.3193C174.881 40.2344 174.856 40.1411 174.856 40.0562C174.856 39.9035 174.907 39.7677 175.009 39.6404C175.153 39.4282 175.348 39.3179 175.603 39.3179H175.62C176.053 39.3349 176.545 39.3349 177.088 39.3349C177.393 39.3349 177.546 39.2161 177.546 38.97V33.038C177.546 32.9361 177.504 32.8852 177.41 32.8852H173.328C173.023 32.8852 172.76 32.7749 172.539 32.5543C172.319 32.3336 172.208 32.0705 172.208 31.765V31.3068C172.208 31.0013 172.319 30.7382 172.539 30.5175C172.76 30.2969 173.023 30.1866 173.328 30.1866H181.883V30.1781ZM181.399 24.7638C181.704 24.7638 181.968 24.8741 182.188 25.0947C182.409 25.3154 182.519 25.5785 182.519 25.884V26.3253C182.519 26.6308 182.409 26.8939 182.188 27.1145C181.968 27.3351 181.704 27.4455 181.399 27.4455H174.135C173.829 27.4455 173.566 27.3351 173.345 27.1145C173.125 26.8939 173.014 26.6308 173.014 26.3253V25.884C173.014 25.5785 173.125 25.3154 173.345 25.0947C173.566 24.8741 173.829 24.7638 174.135 24.7638H181.399Z" fill="white"/>
<path d="M195.283 38.2996C195.181 38.2996 195.13 38.3421 195.13 38.4354V39.5981C195.13 39.6999 195.181 39.7508 195.283 39.7508C195.359 39.7508 195.512 39.7508 195.749 39.7593C195.987 39.7593 196.174 39.7678 196.31 39.7678H197.93C199.034 39.7678 200.281 39.7593 201.664 39.7338C201.902 39.7338 202.097 39.8441 202.233 40.0563C202.309 40.1836 202.343 40.3194 202.343 40.4552C202.343 40.54 202.335 40.6334 202.301 40.7182C202.225 40.9049 202.157 41.1086 202.089 41.3123C202.004 41.6263 201.826 41.8894 201.571 42.093C201.317 42.2967 201.028 42.3986 200.697 42.3986H196.106C194.298 42.3986 192.822 42.2288 191.676 41.8894C190.522 41.5499 189.563 40.9219 188.791 39.9969C188.723 39.9205 188.672 39.9205 188.621 39.9969C188.137 40.7692 187.594 41.4396 186.983 41.9997C186.771 42.1864 186.525 42.2882 186.262 42.2882H186.168C185.854 42.2543 185.574 42.1185 185.345 41.8894C185.184 41.7366 185.014 41.5839 184.853 41.4311C184.666 41.2529 184.564 41.0407 184.564 40.7861C184.564 40.5061 184.675 40.2685 184.887 40.0818C186.016 39.1313 186.813 37.8244 187.272 36.178C187.356 35.8725 187.535 35.6349 187.789 35.4567C187.993 35.3209 188.214 35.2445 188.46 35.2445H188.629L189.24 35.3379C189.546 35.3803 189.784 35.5246 189.945 35.7792C190.055 35.9404 190.115 36.1186 190.115 36.3138C190.115 36.3987 190.106 36.5005 190.081 36.6024C190.047 36.7551 189.996 36.9079 189.945 37.0606C189.919 37.1625 189.928 37.2473 189.962 37.3237C190.429 38.1978 191.158 38.8258 192.134 39.2077C192.16 39.2246 192.185 39.2162 192.219 39.1992C192.253 39.1822 192.27 39.1568 192.27 39.1313V34.956C192.27 34.8711 192.219 34.8202 192.117 34.8202H185.939C185.634 34.8202 185.371 34.7099 185.15 34.4893C184.929 34.2686 184.819 34.0055 184.819 33.7V33.4709C184.819 33.1569 184.929 32.8853 185.15 32.6732C185.371 32.461 185.634 32.3507 185.939 32.3507H201.02C201.325 32.3507 201.588 32.461 201.809 32.6732C202.029 32.8853 202.14 33.1569 202.14 33.4709V33.7C202.14 34.0055 202.029 34.2686 201.809 34.4893C201.588 34.7099 201.325 34.8202 201.02 34.8202H195.283C195.181 34.8202 195.13 34.8627 195.13 34.956V35.7198C195.13 35.8216 195.181 35.8725 195.283 35.8725H199.781C200.095 35.8725 200.366 35.9828 200.578 36.195C200.79 36.4072 200.901 36.6787 200.901 36.9927V37.1794C200.901 37.4849 200.79 37.748 200.578 37.9687C200.366 38.1893 200.095 38.2996 199.781 38.2996H195.283ZM199.297 24.7045C199.602 24.7045 199.865 24.8148 200.086 25.0354C200.307 25.2561 200.417 25.5192 200.417 25.8247V30.594C200.417 30.8995 200.307 31.1626 200.086 31.3832C199.865 31.6039 199.602 31.7142 199.297 31.7142H187.611C187.306 31.7142 187.042 31.6039 186.822 31.3832C186.601 31.1626 186.491 30.8995 186.491 30.594V25.8247C186.491 25.5192 186.601 25.2561 186.822 25.0354C187.042 24.8148 187.306 24.7045 187.611 24.7045H199.297ZM197.396 27.3013C197.481 27.3013 197.532 27.2589 197.532 27.1655V26.8006C197.532 26.7157 197.489 26.6648 197.396 26.6648H189.393C189.308 26.6648 189.257 26.7073 189.257 26.8006V27.1655C189.257 27.2504 189.3 27.3013 189.393 27.3013H197.396ZM197.396 29.7539C197.481 29.7539 197.532 29.7114 197.532 29.6181V29.2532C197.532 29.1683 197.489 29.1174 197.396 29.1174H189.393C189.308 29.1174 189.257 29.1598 189.257 29.2532V29.6181C189.257 29.7114 189.3 29.7539 189.393 29.7539H197.396Z" fill="white"/>
<path d="M207.444 25.2561C207.554 24.9676 207.758 24.747 208.038 24.6112C208.216 24.5263 208.386 24.4754 208.555 24.4754C208.683 24.4754 208.801 24.4924 208.92 24.5348L209.455 24.7045C209.743 24.7979 209.956 24.9761 210.083 25.2561C210.159 25.3919 210.193 25.5447 210.193 25.6974C210.193 25.8247 210.168 25.9605 210.117 26.0963C209.777 26.894 209.395 27.6917 208.988 28.481C208.946 28.5658 208.929 28.6677 208.929 28.7695V41.5245C208.929 41.8385 208.818 42.1101 208.598 42.3222C208.377 42.5344 208.114 42.6447 207.809 42.6447H207.291C206.977 42.6447 206.705 42.5344 206.493 42.3222C206.281 42.1101 206.171 41.8385 206.171 41.5245V33.2164C206.171 33.2164 206.162 33.1739 206.137 33.1655C206.111 33.1655 206.094 33.1654 206.077 33.1739C205.992 33.2843 205.899 33.4031 205.814 33.5134C205.687 33.6746 205.526 33.7595 205.322 33.7595C205.288 33.7595 205.237 33.7595 205.186 33.7425C204.932 33.7086 204.745 33.5643 204.635 33.3267C204.482 32.9872 204.321 32.6563 204.159 32.3338C204.032 32.1047 203.973 31.8585 203.973 31.587C203.973 31.5276 203.973 31.4682 203.99 31.4173C204.015 31.0863 204.134 30.7978 204.355 30.5432C205.602 29.0411 206.637 27.2844 207.461 25.2646L207.444 25.2561ZM220.92 30.4413C221.234 30.4413 221.505 30.5516 221.718 30.7723C221.93 30.9929 222.04 31.256 222.04 31.5615V32.1131C222.04 32.4186 221.93 32.6817 221.718 32.9024C221.505 33.123 221.234 33.2333 220.92 33.2333H217.619C217.534 33.2333 217.483 33.2758 217.483 33.3691V41.5245C217.483 41.8385 217.373 42.1101 217.152 42.3222C216.931 42.5344 216.668 42.6447 216.363 42.6447H215.641C215.327 42.6447 215.056 42.5344 214.844 42.3222C214.632 42.1101 214.521 41.8385 214.521 41.5245V33.3691C214.521 33.2843 214.47 33.2333 214.368 33.2333H210.864C210.558 33.2333 210.295 33.123 210.074 32.9024C209.854 32.6817 209.743 32.4186 209.743 32.1131V31.5615C209.743 31.256 209.854 30.9929 210.074 30.7723C210.295 30.5516 210.558 30.4413 210.864 30.4413H214.368C214.47 30.4413 214.521 30.3989 214.521 30.3055V25.5956C214.521 25.2816 214.632 25.01 214.844 24.7979C215.056 24.5857 215.327 24.4754 215.641 24.4754H216.363C216.668 24.4754 216.931 24.5857 217.152 24.7979C217.373 25.01 217.483 25.2816 217.483 25.5956V30.3055C217.483 30.3904 217.525 30.4413 217.619 30.4413H220.92Z" fill="white"/>
<path d="M229.763 28.0649C229.763 27.9631 229.712 27.9122 229.61 27.9122H227.209C227.107 27.9122 227.056 27.9631 227.056 28.0649V31.4765C227.056 35.8724 226.606 39.2839 225.707 41.711C225.605 41.9741 225.418 42.1353 225.138 42.1863C225.07 42.1948 225.011 42.2032 224.951 42.2032C224.748 42.2032 224.57 42.1353 224.417 42.0165C224.289 41.9147 224.162 41.8213 224.035 41.728C223.78 41.5413 223.602 41.2867 223.5 40.9812C223.449 40.8454 223.424 40.6927 223.424 40.5399C223.424 40.3872 223.449 40.2344 223.5 40.0816C224.145 38.1637 224.476 35.2868 224.476 31.468V26.6817C224.476 26.3762 224.586 26.1131 224.807 25.8924C225.028 25.6718 225.291 25.5615 225.596 25.5615H231.503C231.605 25.5615 231.656 25.519 231.656 25.4257V25.239C231.656 24.9335 231.766 24.6704 231.987 24.4497C232.207 24.2291 232.47 24.1188 232.776 24.1188H233.497C233.803 24.1188 234.066 24.2291 234.286 24.4497C234.507 24.6704 234.617 24.9335 234.617 25.239V25.4257C234.617 25.5105 234.66 25.5615 234.753 25.5615H240.354C240.668 25.5615 240.94 25.6718 241.152 25.8924C241.364 26.1131 241.474 26.3762 241.474 26.6817V26.775C241.474 27.089 241.364 27.3606 241.152 27.5727C240.94 27.7849 240.668 27.8952 240.354 27.8952H238.521C238.419 27.8952 238.368 27.9461 238.368 28.048V28.5826C238.368 28.6675 238.419 28.7184 238.521 28.7184H240.159C240.422 28.7184 240.651 28.8117 240.838 28.9984C241.025 29.1851 241.118 29.4058 241.118 29.6689C241.118 29.9319 241.025 30.1526 240.838 30.3393C240.651 30.526 240.431 30.6193 240.159 30.6193H238.521C238.419 30.6193 238.368 30.6703 238.368 30.7721V33.7254C238.368 34.0139 238.266 34.2685 238.063 34.4721C237.859 34.6758 237.613 34.7777 237.333 34.7777C237.053 34.7777 236.807 34.6758 236.612 34.4721C236.416 34.2685 236.315 34.0224 236.315 33.7254V30.7721C236.315 30.6703 236.264 30.6193 236.162 30.6193H235.288C235.025 30.6193 234.796 30.526 234.609 30.3393C234.422 30.1526 234.329 29.9319 234.329 29.6689C234.329 29.4058 234.422 29.1851 234.609 28.9984C234.796 28.8117 235.016 28.7184 235.288 28.7184H236.162C236.264 28.7184 236.315 28.676 236.315 28.5826V28.048C236.315 27.9461 236.264 27.8952 236.162 27.8952H231.927C231.825 27.8952 231.774 27.9461 231.774 28.048V28.5826C231.774 28.6675 231.825 28.7184 231.927 28.7184H232.903C233.166 28.7184 233.395 28.8117 233.582 28.9984C233.769 29.1851 233.862 29.4058 233.862 29.6689C233.862 29.9319 233.769 30.1526 233.582 30.3393C233.395 30.526 233.175 30.6193 232.903 30.6193H231.927C231.825 30.6193 231.774 30.6703 231.774 30.7721V33.5726C231.774 33.8526 231.673 34.0903 231.477 34.2854C231.282 34.4806 231.045 34.5825 230.765 34.5825C230.485 34.5825 230.247 34.4806 230.052 34.2854C229.856 34.0903 229.755 33.8526 229.755 33.5726V30.7721C229.755 30.6703 229.704 30.6193 229.602 30.6193H228.728C228.465 30.6193 228.236 30.526 228.049 30.3393C227.862 30.1526 227.769 29.9319 227.769 29.6689C227.769 29.4058 227.862 29.1851 228.049 28.9984C228.236 28.8117 228.456 28.7184 228.728 28.7184H229.602C229.704 28.7184 229.755 28.676 229.755 28.5826V28.048L229.763 28.0649ZM236.832 39.4197C236.697 39.2585 236.62 39.0718 236.62 38.8681C236.62 38.8172 236.62 38.7578 236.637 38.6984C236.688 38.4183 236.841 38.2231 237.095 38.1043L237.282 38.011C237.494 37.9091 237.723 37.8582 237.952 37.8582C238.037 37.8582 238.139 37.8752 238.241 37.9006C238.572 37.9516 238.852 38.0958 239.081 38.3419C239.828 39.1566 240.456 39.8949 240.948 40.5738C241.076 40.7351 241.135 40.9133 241.135 41.1085C241.135 41.1934 241.126 41.2867 241.092 41.3716C241.016 41.6516 240.838 41.8638 240.558 41.9996L239.853 42.3645C239.743 42.4154 239.624 42.4408 239.514 42.4408C239.438 42.4408 239.353 42.4239 239.268 42.3984C239.064 42.3305 238.903 42.2117 238.793 42.0335C238.767 41.9656 238.725 41.9402 238.657 41.9571C235.873 42.059 232.496 42.1608 228.516 42.2626H228.482C228.176 42.2626 227.913 42.1608 227.684 41.9571C227.455 41.7535 227.328 41.4904 227.302 41.1764L227.285 41.117V41.0236C227.285 40.7605 227.378 40.5229 227.574 40.3193C227.777 40.1071 228.023 39.9968 228.32 39.9968L229.806 39.9798C229.907 39.9798 229.992 39.9543 230.069 39.9034C230.561 39.5894 230.841 39.4112 230.892 39.3688C230.968 39.3179 230.968 39.267 230.892 39.216C230.281 38.7323 229.593 38.2486 228.83 37.7649C228.592 37.6121 228.456 37.4 228.431 37.1199C228.422 37.0775 228.414 37.052 228.414 37.0266C228.414 36.7889 228.499 36.5853 228.677 36.4155L228.889 36.2288C229.101 36.0252 229.364 35.8979 229.67 35.8469H229.84C230.077 35.8469 230.306 35.9063 230.51 36.0167C230.586 36.0506 230.646 36.0421 230.697 35.9827C231.053 35.6433 231.384 35.2868 231.69 34.9304C231.902 34.6928 232.173 34.54 232.487 34.4721C232.572 34.4467 232.674 34.4382 232.776 34.4382C232.988 34.4382 233.192 34.4891 233.387 34.591L233.675 34.7437C233.913 34.871 234.057 35.0662 234.091 35.3378V35.4311C234.091 35.6602 234.006 35.8469 233.828 35.9997C233.319 36.441 232.886 36.8144 232.53 37.1029C232.453 37.1708 232.453 37.2217 232.53 37.2727C232.784 37.4509 232.954 37.5697 233.047 37.6376C233.124 37.6885 233.2 37.6885 233.276 37.6376C234.04 37.0266 234.719 36.458 235.313 35.9233C235.568 35.6942 235.856 35.5584 236.17 35.5075H236.4C236.654 35.5075 236.892 35.5669 237.104 35.6772L237.486 35.8894C237.749 36.0251 237.885 36.2543 237.885 36.5598C237.885 36.7889 237.8 36.9756 237.622 37.1284C236.45 38.0704 235.211 38.9784 233.888 39.8525C233.879 39.8695 233.871 39.878 233.871 39.9034C233.871 39.9289 233.879 39.9289 233.905 39.9289L237.07 39.8949C237.07 39.8949 237.138 39.8865 237.146 39.861C237.155 39.8355 237.146 39.8101 237.129 39.7846C237.044 39.6743 236.943 39.5555 236.841 39.4452L236.832 39.4197ZM228.108 31.1455C228.253 31.0097 228.422 30.9333 228.626 30.9333C228.83 30.9333 228.991 31.0012 229.127 31.1455C229.271 31.2813 229.339 31.4595 229.339 31.6632V31.7395C229.339 32.8428 229.178 33.7169 228.864 34.3533C228.762 34.54 228.601 34.6419 228.388 34.6588C228.363 34.6758 228.337 34.6758 228.312 34.6758C228.125 34.6758 227.956 34.6164 227.82 34.4891C227.659 34.3618 227.557 34.1921 227.514 33.9715C227.506 33.912 227.497 33.8442 227.497 33.7848C227.497 33.632 227.531 33.4962 227.591 33.3689C227.794 32.9107 227.896 32.3506 227.896 31.6886V31.6717C227.896 31.468 227.973 31.2983 228.117 31.154L228.108 31.1455ZM232.199 31.7056C232.199 31.5019 232.267 31.3237 232.411 31.1794C232.547 31.0352 232.725 30.9588 232.937 30.9588C233.149 30.9588 233.319 31.0352 233.463 31.1794C233.607 31.3237 233.675 31.5019 233.675 31.7056V33.021C233.675 33.2331 233.607 33.4113 233.463 33.5556C233.327 33.6914 233.149 33.7678 232.937 33.7678C232.725 33.7678 232.555 33.6999 232.411 33.5556C232.267 33.4198 232.199 33.2416 232.199 33.021V31.7056ZM234.651 31.1625C234.796 31.0182 234.974 30.9418 235.177 30.9418C235.381 30.9418 235.559 31.0182 235.704 31.1625C235.848 31.3067 235.924 31.4849 235.924 31.6886V31.748C235.924 32.8258 235.746 33.6829 235.39 34.3194C235.288 34.5061 235.127 34.6079 234.897 34.6249H234.838C234.634 34.6249 234.448 34.5655 234.286 34.4382C234.125 34.3024 234.023 34.1242 233.998 33.9036C233.989 33.8611 233.981 33.8187 233.981 33.7678C233.981 33.6065 234.023 33.4453 234.117 33.2925C234.329 32.8767 234.439 32.3421 234.439 31.6886C234.439 31.4849 234.516 31.3067 234.66 31.1625H234.651ZM240.473 33.4198H240.549C240.549 33.4198 240.6 33.4198 240.626 33.4029C240.651 33.3944 240.668 33.3774 240.677 33.352C240.677 33.335 240.702 33.2756 240.745 33.1737C240.77 33.0974 240.778 32.9955 240.778 32.8682C240.787 32.7579 240.846 32.673 240.948 32.6221C241.05 32.5712 241.152 32.5712 241.254 32.6221C241.288 32.6476 241.33 32.673 241.364 32.6985C241.551 32.7834 241.704 32.9107 241.805 33.0804C241.882 33.2246 241.916 33.3604 241.916 33.4962V33.632C241.873 33.8696 241.831 34.0394 241.763 34.1242C241.653 34.3364 241.483 34.4891 241.271 34.5825C241.118 34.6843 240.906 34.7352 240.643 34.7352H240.049C239.633 34.7352 239.31 34.6079 239.098 34.3533C238.988 34.2176 238.903 34.0393 238.861 33.8357C238.818 33.632 238.793 33.301 238.793 32.8428V31.6971C238.793 31.485 238.869 31.2982 239.022 31.1455C239.175 30.9927 239.361 30.9164 239.573 30.9164C239.786 30.9164 239.981 30.9927 240.133 31.1455C240.295 31.2982 240.371 31.485 240.371 31.6971V33.2586C240.371 33.3265 240.38 33.3689 240.414 33.3944C240.422 33.4114 240.448 33.4113 240.473 33.4113V33.4198Z" fill="white"/>
<path d="M249.409 33.7425C249.57 34.0056 249.655 34.3111 249.655 34.6421C249.655 34.9985 249.553 35.321 249.349 35.618L249.239 35.7877C249.112 35.9659 248.951 36.0508 248.747 36.0508C248.721 36.0508 248.696 36.0508 248.67 36.0338C248.433 36.0084 248.255 35.8895 248.153 35.6689C248.076 35.4822 247.975 35.2446 247.847 34.9645C247.839 34.9391 247.822 34.9306 247.813 34.9391C247.805 34.9391 247.796 34.956 247.796 34.9645V41.5415C247.796 41.8555 247.686 42.127 247.465 42.3392C247.245 42.5514 246.982 42.6617 246.676 42.6617H246.371C246.057 42.6617 245.785 42.5514 245.573 42.3392C245.361 42.127 245.25 41.8555 245.25 41.5415V36.4327C245.25 36.4327 245.242 36.4072 245.225 36.4072C245.208 36.4072 245.2 36.4072 245.2 36.4157C244.936 37.154 244.656 37.7905 244.376 38.3251C244.274 38.5118 244.13 38.6137 243.935 38.6137H243.876C243.647 38.5882 243.485 38.4779 243.383 38.2742C243.307 38.113 243.222 37.9433 243.137 37.782C242.985 37.4765 242.908 37.171 242.908 36.8655C242.908 36.526 243.002 36.1781 243.197 35.8386C243.986 34.4129 244.597 32.7496 245.03 30.8487C245.038 30.7638 245.004 30.7129 244.919 30.7129H244.215C243.91 30.7129 243.647 30.6025 243.426 30.3819C243.205 30.1613 243.095 29.8982 243.095 29.5927V29.2108C243.095 28.9053 243.205 28.6422 243.426 28.4215C243.647 28.2009 243.91 28.0906 244.215 28.0906H245.115C245.216 28.0906 245.267 28.0481 245.267 27.9548V25.2646C245.267 24.9591 245.378 24.696 245.59 24.4754C245.802 24.2547 246.074 24.1444 246.388 24.1444H246.693C246.999 24.1444 247.262 24.2547 247.482 24.4754C247.703 24.696 247.813 24.9591 247.813 25.2646V27.9548C247.813 28.0397 247.856 28.0906 247.949 28.0906H248.484C248.789 28.0906 249.052 28.2009 249.273 28.4215C249.494 28.6422 249.604 28.9053 249.604 29.2108V29.5927C249.604 29.8982 249.494 30.1613 249.273 30.3819C249.052 30.6025 248.789 30.7129 248.484 30.7129H247.949C247.864 30.7129 247.813 30.7553 247.813 30.8487V31.2136C247.813 31.3069 247.839 31.3833 247.89 31.4597C248.195 31.8925 248.713 32.6562 249.434 33.768L249.409 33.7425ZM258.464 35.6689C258.693 35.4398 258.964 35.3125 259.287 35.287H259.397C259.66 35.287 259.915 35.3719 260.144 35.5331L260.407 35.7198C260.619 35.8811 260.73 36.0932 260.73 36.3478C260.73 36.6364 260.611 36.8655 260.365 37.0182C259.601 37.502 259.015 37.8669 258.608 38.1215C258.532 38.1724 258.523 38.2318 258.591 38.2912C259.177 38.8343 259.822 39.2926 260.517 39.666C260.755 39.7933 260.908 39.98 260.959 40.2346C260.967 40.3025 260.976 40.3619 260.976 40.4213C260.976 40.608 260.908 40.7862 260.764 40.9389C260.679 41.0493 260.585 41.1681 260.5 41.2784C260.297 41.533 260.051 41.6942 259.754 41.7706C259.669 41.7961 259.575 41.8045 259.491 41.8045C259.287 41.8045 259.092 41.7367 258.896 41.6178C258.133 41.0747 257.428 40.3788 256.783 39.5387C256.775 39.5302 256.758 39.5217 256.732 39.5302C256.716 39.5302 256.707 39.5557 256.707 39.5811V40.1752C256.707 40.7607 256.639 41.2105 256.503 41.5415C256.368 41.864 256.13 42.1185 255.791 42.2968C255.383 42.5004 254.815 42.6192 254.076 42.6617H254.017C253.728 42.6617 253.465 42.5683 253.236 42.3731C252.982 42.1695 252.812 41.9064 252.718 41.5924C252.634 41.3123 252.532 41.0493 252.43 40.7947C252.421 40.7607 252.396 40.7353 252.362 40.7353C252.328 40.7353 252.311 40.7353 252.294 40.7522C251.938 41.1596 251.547 41.5245 251.131 41.8385C250.945 41.9743 250.741 42.0507 250.52 42.0507C250.444 42.0507 250.368 42.0337 250.291 42.0167C250.003 41.9488 249.748 41.7961 249.528 41.5415C249.519 41.5245 249.502 41.5075 249.494 41.4821C249.358 41.3039 249.281 41.1087 249.281 40.888V40.7353C249.324 40.4552 249.451 40.2346 249.68 40.0648C250.173 39.6745 250.605 39.2162 250.979 38.69C250.987 38.6646 250.987 38.6391 250.979 38.6137C250.97 38.5882 250.945 38.5797 250.902 38.5797H250.274C250.02 38.5797 249.808 38.4949 249.629 38.3166C249.451 38.1384 249.366 37.9178 249.366 37.6632C249.366 37.4086 249.451 37.188 249.629 37.0098C249.808 36.8315 250.02 36.7467 250.274 36.7467H252.235C252.311 36.7212 252.387 36.7127 252.464 36.7127C252.617 36.7127 252.761 36.7467 252.905 36.8061L253.932 37.2049C253.932 37.2049 253.983 37.2134 254.017 37.1965C254.051 37.1795 254.068 37.1455 254.068 37.1116V36.4666C254.068 36.3648 254.017 36.3139 253.915 36.3139H252.031C251.776 36.3139 251.556 36.229 251.378 36.0508C251.191 35.8726 251.098 35.6519 251.098 35.3973C251.098 35.1428 251.191 34.9136 251.378 34.7269C251.564 34.5402 251.776 34.4469 252.031 34.4469H255.044C255.044 34.4469 255.078 34.4469 255.078 34.4299C255.078 34.4129 255.078 34.4044 255.061 34.3959C254.568 34.2177 254.085 34.048 253.61 33.8783C253.457 33.8274 253.355 33.7255 253.313 33.5728C253.27 33.42 253.304 33.2842 253.414 33.1569C253.414 33.1485 253.414 33.1315 253.406 33.106C253.406 33.089 253.389 33.0806 253.38 33.0806H250.58C250.291 33.0806 250.045 32.9787 249.85 32.7835C249.655 32.5884 249.553 32.3422 249.553 32.0622C249.553 31.7821 249.655 31.536 249.85 31.3408C250.045 31.1457 250.291 31.0438 250.58 31.0438H253.881C253.966 31.0438 254.017 30.9929 254.017 30.8911V30.7213C254.017 30.6195 253.974 30.5686 253.881 30.5686H251.709C251.445 30.5686 251.216 30.4837 251.03 30.3055C250.843 30.1273 250.75 29.9067 250.75 29.6521C250.75 29.3975 250.843 29.1683 251.03 28.9816C251.216 28.7949 251.437 28.7016 251.709 28.7016H253.881C253.966 28.7016 254.017 28.6592 254.017 28.5658V28.3961C254.017 28.3112 253.974 28.2603 253.881 28.2603H251.115C250.851 28.2603 250.622 28.167 250.427 27.9718C250.24 27.7851 250.139 27.5474 250.139 27.2759C250.139 27.0043 250.232 26.7667 250.427 26.58C250.622 26.3933 250.843 26.2915 251.115 26.2915H251.785C251.785 26.2915 251.853 26.283 251.87 26.2575C251.887 26.2321 251.895 26.1981 251.878 26.1642C251.827 26.0623 251.776 25.9605 251.726 25.8587C251.649 25.7059 251.615 25.5616 251.615 25.4174C251.615 25.307 251.632 25.1882 251.675 25.0779C251.776 24.7979 251.963 24.6112 252.226 24.5263C252.379 24.4669 252.54 24.4329 252.701 24.4329C252.854 24.4329 253.007 24.4584 253.16 24.5093C253.465 24.6112 253.703 24.7979 253.864 25.0779C253.991 25.2901 254.102 25.4937 254.204 25.6889C254.254 25.7993 254.254 25.9181 254.212 26.0284C254.17 26.1387 254.085 26.2236 253.957 26.2745V26.2915H256.8C256.8 26.2915 256.809 26.2745 256.8 26.2745C256.699 26.2406 256.622 26.1642 256.58 26.0623C256.537 25.9605 256.537 25.8587 256.588 25.7568C256.699 25.5532 256.8 25.3495 256.894 25.1458C257.03 24.8573 257.25 24.6451 257.539 24.5178C257.7 24.4329 257.878 24.382 258.056 24.382C258.167 24.382 258.294 24.399 258.421 24.4414L258.744 24.5348C258.998 24.6112 259.168 24.7724 259.261 25.027C259.287 25.1119 259.295 25.1967 259.295 25.2731C259.295 25.4343 259.236 25.5871 259.126 25.7314C258.973 25.9181 258.863 26.0708 258.786 26.1727C258.761 26.1981 258.752 26.2236 258.769 26.249C258.778 26.2745 258.812 26.283 258.846 26.283H259.915C260.178 26.283 260.407 26.3763 260.602 26.5715C260.797 26.7667 260.891 26.9958 260.891 27.2674C260.891 27.539 260.797 27.7766 260.602 27.9633C260.416 28.15 260.186 28.2518 259.915 28.2518H256.885C256.8 28.2518 256.749 28.2942 256.749 28.3876V28.5573C256.749 28.6422 256.792 28.6931 256.885 28.6931H259.516C259.779 28.6931 260.008 28.7865 260.186 28.9732C260.365 29.1599 260.45 29.3805 260.45 29.6436C260.45 29.9067 260.365 30.1273 260.186 30.297C260.008 30.4752 259.788 30.5601 259.516 30.5601H256.885C256.8 30.5601 256.749 30.611 256.749 30.7129V30.8826C256.749 30.9844 256.792 31.0354 256.885 31.0354H260.237C260.517 31.0354 260.755 31.1372 260.95 31.3324C261.145 31.5276 261.247 31.7737 261.247 32.0537C261.247 32.3338 261.145 32.5799 260.95 32.775C260.755 32.9702 260.517 33.0721 260.237 33.0721H257.42C257.42 33.0721 257.394 33.0806 257.394 33.0975C257.394 33.1145 257.394 33.123 257.403 33.123C257.59 33.1994 257.776 33.2757 257.955 33.3521C258.209 33.454 258.362 33.6407 258.413 33.9207C258.421 33.9886 258.43 34.048 258.43 34.1074C258.43 34.3111 258.362 34.4893 258.218 34.6421L258.005 34.8882C257.853 35.0664 257.666 35.1767 257.437 35.2106C257.369 35.2276 257.31 35.2276 257.25 35.2276C257.097 35.2276 256.945 35.1937 256.792 35.1173C256.741 35.0918 256.716 35.1173 256.716 35.1767V35.635C256.716 35.7368 256.732 35.8301 256.775 35.9235C256.902 36.1611 257.038 36.3902 257.174 36.6109C257.225 36.6873 257.284 36.6958 257.36 36.6279C257.742 36.3224 258.107 36.0084 258.464 35.6774V35.6689ZM254.085 40.1242V37.6632C254.085 37.6632 254.085 37.6462 254.068 37.6462C254.051 37.6462 254.042 37.6462 254.034 37.6632C253.703 38.6561 253.262 39.5217 252.701 40.277C252.693 40.294 252.693 40.3109 252.701 40.3449C252.71 40.3788 252.735 40.3958 252.761 40.3958H253.788C253.898 40.3958 253.983 40.3788 254.025 40.3364C254.068 40.294 254.093 40.2261 254.093 40.1242H254.085Z" fill="white"/>
<path d="M275.089 26.9791C275.089 26.9791 275.08 27.0469 275.097 27.0724C275.114 27.0979 275.148 27.1148 275.182 27.1148H279.239C279.544 27.1148 279.807 27.2252 280.036 27.4373C280.24 27.6495 280.342 27.9041 280.342 28.2011V28.3539C280.257 31.4768 280.164 33.8361 280.087 35.423C280.002 37.01 279.884 38.2914 279.731 39.2758C279.578 40.2517 279.366 40.9222 279.086 41.2786C278.806 41.669 278.509 41.9575 278.203 42.1272C277.889 42.297 277.499 42.4327 277.032 42.5176C276.625 42.594 276.039 42.6279 275.275 42.6279H274.987C274.673 42.611 274.393 42.5006 274.147 42.297C273.901 42.0933 273.739 41.8132 273.655 41.4908C273.587 41.2786 273.519 41.058 273.425 40.8458C273.392 40.7609 273.366 40.6676 273.366 40.5827C273.366 40.4554 273.4 40.3366 273.476 40.2178C273.604 40.0311 273.782 39.9293 274.011 39.9293H274.045C274.563 39.9547 275.174 39.9632 275.853 39.9632C276.209 39.9632 276.498 39.8529 276.71 39.6238C276.99 39.3182 277.202 38.4272 277.338 36.9336C277.482 35.4485 277.584 33.0808 277.66 29.839C277.669 29.7371 277.626 29.6862 277.524 29.6862H274.113C274.011 29.6862 273.943 29.7286 273.901 29.822C273.587 30.4839 273.256 31.095 272.908 31.6551C272.755 31.9096 272.526 32.0624 272.22 32.1133C272.169 32.1303 272.11 32.1303 272.051 32.1303C271.821 32.1303 271.609 32.0539 271.423 31.9012C271.219 31.7484 271.015 31.6126 270.812 31.4853C270.786 31.4599 270.761 31.4599 270.735 31.4768C270.71 31.4938 270.693 31.5193 270.693 31.5447V39.5728C270.693 39.8783 270.582 40.1414 270.362 40.3621C270.141 40.5827 269.878 40.693 269.573 40.693H265.72C265.635 40.693 265.584 40.7355 265.584 40.8288V40.9646C265.584 41.2701 265.474 41.5332 265.253 41.7538C265.032 41.9745 264.769 42.0848 264.464 42.0848H264.158C263.844 42.0848 263.573 41.9745 263.361 41.7538C263.148 41.5332 263.038 41.2701 263.038 40.9646V28.4387C263.038 28.1332 263.148 27.8701 263.361 27.6495C263.573 27.4288 263.844 27.3185 264.158 27.3185H265.109C265.194 27.3185 265.253 27.2761 265.279 27.1827C265.389 26.5463 265.491 25.9098 265.567 25.2563C265.601 24.9508 265.745 24.7047 265.983 24.5095C266.17 24.3568 266.39 24.2804 266.628 24.2804C266.679 24.2804 266.73 24.2804 266.781 24.2974L267.655 24.4077C267.943 24.4416 268.172 24.5944 268.325 24.849C268.41 25.0017 268.461 25.1545 268.461 25.3073C268.461 25.4091 268.444 25.5194 268.401 25.6297C268.189 26.2747 268.003 26.7924 267.85 27.1743C267.841 27.2082 267.841 27.2421 267.858 27.2676C267.875 27.2931 267.909 27.3015 267.943 27.3015H269.564C269.87 27.3015 270.133 27.4119 270.353 27.6325C270.574 27.8532 270.684 28.1162 270.684 28.4217V29.7541C270.684 29.7541 270.693 29.7965 270.71 29.805C270.727 29.805 270.744 29.805 270.761 29.7796C271.533 28.4981 272.186 26.9876 272.704 25.2648C272.789 24.9763 272.967 24.7472 273.239 24.5774C273.425 24.4671 273.629 24.4077 273.833 24.4077C273.918 24.4077 274.011 24.4247 274.096 24.4416L274.647 24.5774C274.936 24.6453 275.165 24.8065 275.318 25.0696C275.42 25.2309 275.471 25.4091 275.471 25.5873C275.471 25.6891 275.454 25.7995 275.411 25.9098C275.301 26.2407 275.174 26.5972 275.046 26.9791H275.089ZM268.02 32.4103C268.121 32.4103 268.172 32.3594 268.172 32.2576V29.9153C268.172 29.8135 268.121 29.7626 268.02 29.7626H265.754C265.669 29.7626 265.618 29.8135 265.618 29.9153V32.2576C265.618 32.3594 265.66 32.4103 265.754 32.4103H268.02ZM265.618 38.0538C265.618 38.1556 265.66 38.2065 265.754 38.2065H268.02C268.121 38.2065 268.172 38.1556 268.172 38.0538V34.9817C268.172 34.8968 268.121 34.8459 268.02 34.8459H265.754C265.669 34.8459 265.618 34.8884 265.618 34.9817V38.0538ZM276.464 35.1684C276.565 35.3466 276.616 35.5333 276.616 35.72C276.616 35.8219 276.608 35.9237 276.582 36.0255C276.506 36.331 276.328 36.5687 276.048 36.7299L275.572 37.0184C275.411 37.1203 275.233 37.1712 275.055 37.1712C274.97 37.1712 274.868 37.1627 274.766 37.1372C274.478 37.0524 274.257 36.8742 274.121 36.6026C273.79 35.9661 273.298 35.109 272.636 34.0312C272.534 33.853 272.483 33.6663 272.483 33.4796C272.483 33.3948 272.492 33.2929 272.526 33.1911C272.602 32.8856 272.772 32.6649 273.044 32.5207L273.307 32.3679C273.493 32.2661 273.697 32.2152 273.901 32.2152C273.986 32.2152 274.087 32.2151 274.189 32.2321C274.495 32.3085 274.732 32.4782 274.911 32.7498C275.606 33.8021 276.133 34.6083 276.472 35.1684H276.464Z" fill="white"/>
<path d="M292.57 34.5571C292.231 35.2699 291.798 35.6264 291.297 35.6264H290.457C290.126 35.6264 289.846 35.516 289.617 35.2869C289.464 35.1257 289.388 34.9474 289.388 34.7523C289.388 34.6759 289.397 34.591 289.422 34.5062C289.532 34.1413 289.736 33.7848 290.016 33.4454C290.296 33.1059 290.602 32.8174 290.924 32.5798C291.247 32.3421 291.561 32.1045 291.866 31.8754C292.172 31.6463 292.426 31.4086 292.621 31.1541C292.817 30.8995 292.918 30.6364 292.918 30.3563C292.918 29.8387 292.723 29.4483 292.324 29.1852C291.934 28.9221 291.399 28.7948 290.72 28.7948C289.999 28.7948 289.337 29.007 288.735 29.4398C288.48 29.6265 288.2 29.7283 287.894 29.7283H287.86C287.58 29.7283 287.326 29.635 287.097 29.4398L286.834 29.2107C286.596 28.9815 286.469 28.7015 286.469 28.3705C286.469 28.082 286.579 27.8274 286.791 27.6237C288.039 26.529 289.481 25.9858 291.119 25.9858C292.63 25.9858 293.86 26.3253 294.811 27.0127C295.761 27.7001 296.228 28.71 296.228 30.0423C296.228 30.4836 296.126 30.891 295.931 31.2559C295.736 31.6208 295.481 31.9348 295.167 32.1979C294.853 32.4609 294.531 32.7155 294.208 32.9447C293.877 33.1738 293.555 33.4284 293.249 33.7084C292.935 33.9885 292.715 34.277 292.57 34.5656V34.5571ZM288.548 38.8851C288.548 38.2656 288.76 37.748 289.193 37.3491C289.626 36.9502 290.177 36.7466 290.848 36.7466C291.518 36.7466 292.078 36.9502 292.503 37.3491C292.927 37.748 293.148 38.2571 293.148 38.8851C293.148 39.5131 292.935 40.0223 292.503 40.4296C292.07 40.837 291.518 41.0407 290.848 41.0407C290.177 41.0407 289.617 40.837 289.193 40.4296C288.769 40.0223 288.548 39.5046 288.548 38.8851Z" fill="white"/>
</g>
<defs>
<filter id="filter0_d_86_81910" x="13.9072" y="14.8767" width="43.4779" height="43.1773" filterUnits="userSpaceOnUse" color-interpolation-filters="sRGB">
<feFlood flood-opacity="0" result="BackgroundImageFix"/>
<feColorMatrix in="SourceAlpha" type="matrix" values="0 0 0 0 0 0 0 0 0 0 0 0 0 0 0 0 0 0 127 0" result="hardAlpha"/>
<feOffset dx="2.47" dy="2.47"/>
<feGaussianBlur stdDeviation="1.23"/>
<feColorMatrix type="matrix" values="0 0 0 0 0.137255 0 0 0 0 0.0941176 0 0 0 0 0.0823529 0 0 0 0.75 0"/>
<feBlend mode="normal" in2="BackgroundImageFix" result="effect1_dropShadow_86_81910"/>
<feBlend mode="normal" in="SourceGraphic" in2="effect1_dropShadow_86_81910" result="shape"/>
</filter>
<clipPath id="clip0_86_81910">
<rect width="333" height="69" fill="white"/>
</clipPath>
</defs>
</svg>
