<svg width="190" height="102" viewBox="0 0 190 102" fill="none" xmlns="http://www.w3.org/2000/svg">
<path d="M63.1575 40C63.1575 40 88.784 2.87863 90.124 2C91.4641 1.12137 108.102 0 108.102 0L91.1228 40H63.1575Z" fill="#D95B10"/>
<path d="M181.011 45L173.021 63L4.23054 64C-2.40599 64 0.26443 52.9763 2.23302 50C2.26285 49.9402 3.17212 50.0598 3.23178 50C4.9021 47.4125 6.42104 44.7649 8.22558 43C19.2765 32.1266 31.8782 35.7009 42.1834 36C70.3551 36.8226 181.011 45 181.011 45V45Z" fill="white"/>
<path d="M63.1575 59C63.1575 59 104.519 97.4249 106.104 99C107.69 100.56 131.073 102 131.073 102L94.119 60L63.1575 59V59Z" fill="#D95B10"/>
<path d="M157.041 43L172.022 25L190 23L180.013 45L157.041 43Z" fill="#D95B10"/>
<path d="M155.043 58L165.031 70H182.01L174.02 57L155.043 58Z" fill="#D95B10"/>
<path d="M27.2019 44L25.2044 50C14.7004 52.2771 6.66249 50.0498 3.23169 49C4.92442 46.4419 6.39674 44.7448 8.22549 43C15.4649 44.7744 27.2019 44 27.2019 44Z" fill="#808284"/>
</svg>
