<svg width="218" height="60" viewBox="0 0 218 60" fill="none" xmlns="http://www.w3.org/2000/svg">
<path d="M193.903 0H24.0966C10.7884 0 0 11.0999 0 24.7922V35.2078C0 48.9001 10.7884 60 24.0966 60H193.903C207.212 60 218 48.9001 218 35.2078V24.7922C218 11.0999 207.212 0 193.903 0Z" fill="#70D44B"/>
<path d="M24.0967 1H193.903C206.632 1 217 11.625 217 24.792V35.208C217 48.375 206.632 59 193.903 59H24.0967C11.3675 59 1.00013 48.375 1 35.208V24.792L1.00781 24.1768C1.32489 11.2956 11.5664 1 24.0967 1Z" stroke="#53A534" stroke-width="2" stroke-miterlimit="10"/>
<path d="M46.3382 37.4885C44.5039 37.4885 43.0311 36.9395 41.9467 35.8283C41.2906 34.9312 41.3709 34.1681 42.1877 33.579C42.6696 33.2175 43.165 33.0702 43.6738 33.1639C44.1558 33.2576 44.611 33.5254 45.0528 33.9672C45.3072 34.0743 45.5616 34.1145 45.816 34.1145C46.4854 34.1145 46.9674 33.9137 47.262 33.5254C47.5967 33.097 47.7708 32.3874 47.7708 31.3564V22.8546C47.7708 21.5559 48.4268 20.9132 49.7389 20.9132C51.051 20.9132 51.6803 21.5559 51.6803 22.8546V31.6644C51.6803 33.3513 51.2518 34.7304 50.395 35.7747C49.4444 36.9127 48.1055 37.4751 46.3516 37.4751L46.3382 37.4885Z" fill="white"/>
<path d="M55.389 37.9705C54.3848 37.0065 54.6392 35.9889 56.1521 34.9045C58.5755 32.8694 60.2491 30.1916 61.1997 26.898C61.7352 24.9432 62.0432 22.6672 62.1235 20.0831C62.1369 19.561 62.3377 19.2263 62.7394 19.079C62.9938 18.9719 63.4624 18.9317 64.1854 18.9317C64.6674 18.9317 65.0423 19.0522 65.3234 19.2798C65.618 19.5342 65.7519 19.8823 65.7385 20.3241V20.3643C65.8724 22.6939 66.274 24.8763 66.9568 26.898C68.0815 30.1782 69.8354 32.7623 72.232 34.6367C73.0086 35.1187 73.5307 35.6141 73.8119 36.1228C74.16 36.7655 74.093 37.3546 73.611 37.8901C72.9148 38.6801 71.9776 38.7069 70.8128 37.9973C67.8003 35.922 65.6046 32.856 64.2389 28.7992C62.9804 32.548 60.9989 35.5471 58.2676 37.8232C57.1295 38.6533 56.1789 38.6935 55.4024 37.9571L55.389 37.9705Z" fill="white"/>
<path d="M78.7388 38.9612C78.4442 38.9077 78.1363 38.747 77.8149 38.4658C77.266 37.9705 77.0384 37.542 77.1321 37.1805C77.2258 36.819 77.6275 36.4977 78.3237 36.1898C79.5823 35.5873 80.5998 35.0249 81.4031 34.5028H77.6811C76.7037 34.5028 76.2217 34.0074 76.2217 33.0434C76.2217 32.0794 76.7037 31.584 77.6811 31.584H78.1229L77.8417 21.5291C77.8283 21.0337 77.9622 20.6722 78.2434 20.458C78.5245 20.2438 78.8994 20.1902 79.368 20.3107L79.4618 20.3375C79.9437 20.0563 80.4124 19.7618 80.881 19.4405C81.1755 19.2396 81.4968 19.1459 81.8583 19.1727C82.2198 19.1995 82.5278 19.3601 82.8089 19.6279L83.5051 20.3241V20.1099C83.5051 19.2396 83.947 18.7978 84.844 18.7978C85.7411 18.7978 86.1561 19.2396 86.1561 20.1099V20.5651H87.8833C88.7401 20.5651 89.1686 20.9935 89.1686 21.8504C89.1686 22.7073 88.7401 23.1357 87.8833 23.1357H86.1561V23.7248C86.1561 24.0328 86.3034 24.1801 86.6113 24.1801H88.0172C88.392 24.1801 88.7 24.3006 88.941 24.5282C89.1686 24.7558 89.2891 25.0637 89.2891 25.452V31.5706H91.4714L91.5518 30.2585H91.1635C90.3066 30.2585 89.8782 29.8301 89.8782 28.9732C89.8782 28.1163 90.3066 27.6879 91.1635 27.6879H91.6723L91.7124 26.2955H91.1635C90.3066 26.2955 89.8782 25.867 89.8782 25.0102C89.8782 24.1533 90.3066 23.7248 91.1635 23.7248H91.7526L91.7794 22.9617C91.7794 22.6136 91.6053 22.4395 91.2572 22.4395H90.9493C90.0389 22.4395 89.597 21.9843 89.597 21.0873C89.597 20.1902 90.0522 19.735 90.9493 19.735H93.2388C93.6672 19.735 94.0019 19.8689 94.2697 20.1233C94.5375 20.3911 94.658 20.7258 94.658 21.1542C94.6312 25.385 94.5375 28.8661 94.3768 31.6108H94.9257C95.9031 31.6108 96.3851 32.1062 96.3851 33.0702C96.3851 34.0342 95.9031 34.5296 94.9257 34.5296H91.2572C92.1409 34.9312 93.1986 35.4534 94.4304 36.0826C95.14 36.4575 95.4881 36.8458 95.4747 37.2475C95.4479 37.609 95.0864 38.0374 94.3768 38.5194C93.9484 38.814 93.6003 38.9746 93.3057 39.0014C92.9844 39.0282 92.6229 38.9211 92.2346 38.6667C91.284 38.0642 90.2263 37.4617 89.0481 36.8324C88.5527 36.5646 88.2715 36.2567 88.218 35.9086C88.1644 35.5471 88.3385 35.199 88.7401 34.8509L89.0883 34.5429H83.1035L84.1344 35.3061C84.4156 35.5069 84.5495 35.7212 84.5495 35.9488C84.5495 36.1764 84.4156 36.3638 84.1612 36.5245C82.8089 37.3412 81.3496 38.1043 79.7831 38.8139C79.4082 38.9746 79.0601 39.0282 78.7655 38.9746L78.7388 38.9612ZM80.881 31.584H83.4114V28.4511C83.4114 27.6344 83.8265 27.2327 84.6566 27.2327C85.4867 27.2327 85.875 27.6344 85.875 28.4511V31.584H86.5979V27.1524C86.5979 26.8043 86.4239 26.6302 86.0758 26.6302H84.6968C84.3353 26.6302 84.0407 26.5231 83.8131 26.2955C83.5855 26.0679 83.4784 25.7733 83.4784 25.4118V21.8504C83.4784 21.5157 83.3177 21.422 82.9964 21.5693C82.1395 21.9441 81.363 22.2789 80.6534 22.5734L80.6801 23.7382H81.5772C82.4341 23.7382 82.8625 24.1667 82.8625 25.0236C82.8625 25.8804 82.4341 26.3089 81.5772 26.3089H80.7739L80.8006 27.6879H81.5906C82.4474 27.6879 82.8759 28.1163 82.8759 28.9732C82.8759 29.8301 82.4474 30.2585 81.5906 30.2585H80.8676L80.8943 31.5974L80.881 31.584Z" fill="white"/>
<path d="M101.018 37.1805C99.7058 37.1805 99.0498 36.5379 99.0498 35.2392V22.3458C99.0498 21.9174 99.1837 21.5827 99.4381 21.3149C99.7058 21.0471 100.041 20.9266 100.469 20.9266H104.753C106.735 20.9266 108.275 21.3015 109.373 22.0646C110.658 22.9483 111.3 24.3407 111.3 26.2152C111.3 28.0896 110.658 29.4686 109.373 30.4594C108.221 31.343 106.722 31.7983 104.874 31.7983H102.973V35.2526C102.973 36.5513 102.33 37.1939 101.031 37.1939L101.018 37.1805ZM102.973 28.6921H104.673C106.547 28.6921 107.498 27.862 107.498 26.2018C107.498 25.4118 107.244 24.8361 106.735 24.4746C106.266 24.1533 105.543 23.9926 104.566 23.9926H102.973V28.6921Z" fill="white"/>
<path d="M114.139 37.9705C113.135 37.0065 113.389 35.9889 114.902 34.9045C117.325 32.8694 118.999 30.1916 119.95 26.898C120.485 24.9432 120.793 22.6672 120.874 20.0831C120.887 19.561 121.088 19.2263 121.489 19.079C121.744 18.9719 122.212 18.9317 122.935 18.9317C123.417 18.9317 123.792 19.0522 124.073 19.2798C124.368 19.5342 124.502 19.8823 124.488 20.3241V20.3643C124.622 22.6939 125.024 24.8763 125.707 26.898C126.831 30.1782 128.585 32.7623 130.982 34.6367C131.759 35.1187 132.281 35.6141 132.562 36.1228C132.91 36.7655 132.843 37.3546 132.361 37.8901C131.665 38.6801 130.728 38.7069 129.563 37.9973C126.55 35.922 124.355 32.856 122.976 28.7992C121.717 32.548 119.735 35.5471 117.004 37.8232C115.866 38.6533 114.916 38.6935 114.139 37.9571V37.9705Z" fill="white"/>
<path d="M148.601 39.2558C147.49 39.2558 146.941 38.7068 146.941 37.6224V28.0896C146.941 27.6611 147.075 27.3264 147.329 27.0586C147.597 26.7909 147.932 26.6704 148.36 26.6704H149.699C147.57 25.0236 145.977 23.35 144.906 21.663C143.862 23.4169 142.242 25.1173 140.059 26.8043H141.546C141.947 26.8043 142.282 26.9248 142.523 27.1657C142.764 27.4067 142.884 27.7281 142.884 28.1431V29.3213C142.884 31.0083 142.724 32.4543 142.402 33.6325C141.934 35.3329 141.104 36.7789 139.885 37.9571C139.403 38.332 138.948 38.573 138.506 38.6533C137.984 38.7604 137.529 38.6533 137.127 38.3186C136.592 37.8633 136.418 37.3144 136.605 36.6851C136.779 36.163 137.194 35.6274 137.823 35.0651C138.533 34.2082 139.028 33.2175 139.31 32.1196C139.51 31.3163 139.618 30.3523 139.618 29.2276V27.1256C139.095 27.5005 138.52 27.8887 137.89 28.2904C137.395 28.5716 136.967 28.6787 136.618 28.6385C136.244 28.585 135.895 28.3306 135.574 27.8887C135.199 27.3666 135.079 26.8846 135.239 26.4695C135.4 26.108 135.788 25.7465 136.418 25.3984C137.716 24.5683 138.921 23.5776 140.046 22.4529C141.09 21.3684 141.961 20.2839 142.643 19.1727C142.764 18.9585 142.951 18.771 143.219 18.6237C143.487 18.4765 143.781 18.4095 144.076 18.4095H145.495C146.138 18.4095 146.633 18.7041 147.008 19.2798C148.762 21.8906 150.931 23.8721 153.542 25.2512C154.251 25.5591 154.68 25.8938 154.814 26.2821C154.961 26.6838 154.814 27.1925 154.372 27.795C154.051 28.2636 153.702 28.518 153.328 28.585C152.966 28.6385 152.524 28.5314 152.016 28.2502C151.467 27.9155 150.864 27.5272 150.221 27.072V37.6357C150.221 38.7336 149.672 39.2692 148.588 39.2692L148.601 39.2558Z" fill="white"/>
<path d="M161.106 39.2558C160.183 39.2558 159.727 38.8005 159.727 37.9035V32.8693C159.567 34.235 159.339 35.4534 159.031 36.5245C158.87 36.9797 158.67 37.2474 158.429 37.3278C158.188 37.4081 157.84 37.3546 157.384 37.1269C156.956 36.9261 156.702 36.6985 156.581 36.4441C156.474 36.2031 156.487 35.855 156.635 35.44C156.822 34.7571 156.983 33.9538 157.09 33.0568C157.13 32.5882 157.304 32.2401 157.599 32.0125C157.893 31.7848 158.268 31.7045 158.71 31.7848L159.714 31.9589V30.5665L158.081 30.6736C157.17 30.7405 156.675 30.3255 156.594 29.4284C156.501 28.4912 156.943 28.0092 157.88 27.9691H158.094C158.362 27.6343 158.616 27.2862 158.884 26.9247C158.496 26.3222 157.947 25.6394 157.25 24.8495C157.009 24.6085 156.916 24.2202 157.009 23.6847C157.076 23.2428 157.237 22.8412 157.491 22.4797C157.599 22.3324 157.719 22.2253 157.866 22.145C158.04 22.0512 158.188 22.0646 158.308 22.1717L158.335 22.1985C158.67 21.4889 158.991 20.699 159.299 19.8555C159.46 19.3735 159.687 19.0655 159.968 18.9317C160.25 18.7978 160.624 18.8245 161.093 18.9986C162.017 19.3467 162.218 20.0028 161.709 20.9667C161.013 22.2922 160.45 23.283 160.049 23.939C160.183 24.0863 160.33 24.2738 160.491 24.488C161.013 23.6043 161.428 22.8679 161.709 22.3056C161.91 21.904 162.151 21.6362 162.432 21.5425C162.713 21.4354 163.061 21.4889 163.476 21.6897C163.945 21.904 164.213 22.1717 164.293 22.4663C164.373 22.7608 164.266 23.1223 163.972 23.5508C163.382 24.4344 162.753 25.3449 162.07 26.2821L162.967 25.9072C163.195 25.8001 163.423 25.7867 163.637 25.867C163.851 25.934 164.012 26.0812 164.132 26.3089C164.172 26.3758 164.239 26.4963 164.32 26.6703C164.4 26.831 164.454 26.9649 164.48 27.0586C165.632 26.5365 166.489 25.8536 167.064 24.9968C167.52 24.3139 167.828 23.4303 167.988 22.3458H166.823C165.859 22.3458 165.377 21.8504 165.377 20.8864C165.377 19.9224 165.859 19.4404 166.823 19.4404H175.218C175.687 19.4404 176.021 19.6145 176.222 19.9626C176.463 20.3643 176.584 21.0471 176.57 21.9977C176.517 23.8989 176.437 25.2378 176.329 26.0411C176.222 26.898 176.062 27.4737 175.821 27.7682C175.406 28.3038 174.816 28.6385 174.053 28.7456C173.759 28.7992 173.344 28.8393 172.781 28.8393C172.313 28.8527 171.938 28.7456 171.643 28.518C171.349 28.2904 171.175 27.9824 171.094 27.5942C171.094 27.554 171.094 27.5004 171.068 27.4335C171.041 27.3666 171.027 27.3264 171.014 27.2862C170.827 26.8578 170.813 26.5365 170.987 26.3089C171.161 26.0812 171.509 25.9875 172.032 26.0143H172.54C172.862 26.0143 173.103 25.934 173.263 25.7733C173.451 25.5457 173.571 24.7022 173.638 23.2562C173.652 22.9081 173.625 22.6537 173.558 22.5198C173.491 22.3993 173.357 22.3458 173.17 22.3458H171.094C170.894 23.7248 170.559 24.8763 170.117 25.7733C169.581 26.898 168.792 27.8352 167.774 28.5715C167.279 28.8661 166.837 28.9732 166.435 28.9063C166.06 28.8527 165.752 28.6251 165.538 28.2502C165.163 27.7281 164.815 27.3264 164.494 27.072C164.895 27.9958 165.203 28.7858 165.418 29.482C165.551 30.0309 165.244 30.4861 164.494 30.8342C164.199 30.9681 163.945 30.9949 163.704 30.9146C163.436 30.8476 163.275 30.6602 163.222 30.3656C163.208 30.3523 163.195 30.3389 163.195 30.3255L162.472 30.3656V31.9455L163.449 31.6242C163.717 31.5305 163.945 31.5438 164.159 31.6242C164.373 31.7179 164.521 31.892 164.628 32.133C164.949 32.9898 165.19 33.7262 165.351 34.3153C165.551 34.9714 165.297 35.4266 164.587 35.6944C163.757 36.0023 163.235 35.7479 163.034 34.958C162.941 34.6366 162.793 34.1145 162.579 33.4049C162.539 33.2442 162.499 33.1237 162.472 33.0568V37.8901C162.472 38.7872 162.017 39.2424 161.12 39.2424L161.106 39.2558ZM160.865 27.8887L162.325 27.8218C162.285 27.7281 162.218 27.6076 162.151 27.4335C161.99 27.072 161.87 26.8042 161.803 26.6436C161.709 26.7641 161.588 26.9381 161.414 27.1657C161.374 27.2059 161.347 27.2461 161.321 27.2728C161.214 27.4201 161.066 27.6209 160.865 27.8887ZM167.506 38.3855C167.078 38.3855 166.743 38.2516 166.475 37.9972C166.208 37.7294 166.087 37.3947 166.087 36.9663V31.2225C166.087 30.7941 166.221 30.4594 166.475 30.1916C166.743 29.9238 167.078 29.8033 167.506 29.8033H174.79C175.218 29.8033 175.553 29.9372 175.821 30.1916C176.088 30.4594 176.209 30.7941 176.209 31.2225V36.9663C176.209 37.3947 176.075 37.7294 175.821 37.9972C175.553 38.265 175.218 38.3855 174.79 38.3855H167.506ZM169.501 35.6006H172.647C172.996 35.6006 173.17 35.4266 173.17 35.0785V33.0836C173.17 32.7354 172.996 32.5614 172.647 32.5614H169.501C169.153 32.5614 168.979 32.7354 168.979 33.0836V35.0785C168.979 35.4266 169.153 35.6006 169.501 35.6006Z" fill="white"/>
</svg>
