<svg width="219" height="62" viewBox="0 0 219 62" fill="none" xmlns="http://www.w3.org/2000/svg">
<path d="M194.903 1H25.0966C11.7884 1 1 12.0999 1 25.7922V36.2078C1 49.9001 11.7884 61 25.0966 61H194.903C208.212 61 219 49.9001 219 36.2078V25.7922C219 12.0999 208.212 1 194.903 1Z" fill="#70D44B"/>
<path d="M194.014 1H24.986C11.7389 1 1 12.0999 1 25.7922V36.2078C1 49.9001 11.7389 61 24.986 61H194.014C207.261 61 218 49.9001 218 36.2078V25.7922C218 12.0999 207.261 1 194.014 1Z" stroke="#53A534" stroke-width="2" stroke-miterlimit="10"/>
<path d="M89.7934 23.9862C88.1575 23.9862 86.8682 23.501 85.8978 22.5167C85.3155 21.7126 85.3849 21.0472 86.1058 20.5204C86.5355 20.2015 86.9653 20.0767 87.4228 20.146C87.8525 20.2292 88.2546 20.4649 88.6427 20.8669C88.8645 20.964 89.0864 21.0056 89.322 21.0056C89.9181 21.0056 90.3479 20.8253 90.5974 20.4788C90.8886 20.1045 91.0411 19.4667 91.0411 18.5518V10.9963C91.0411 9.84565 91.6233 9.2634 92.7878 9.2634C93.9524 9.2634 94.5207 9.84565 94.5207 10.9963V18.8152C94.5207 20.3124 94.1326 21.5324 93.3701 22.4612C92.5244 23.4732 91.3322 23.9723 89.7795 23.9723L89.7934 23.9862Z" fill="white"/>
<path d="M105.958 23.9862C104.419 23.9862 103.199 23.5703 102.284 22.7246C101.466 21.9621 101.064 20.9917 101.064 19.8272C101.064 18.8984 101.327 18.0804 101.854 17.3595C102.256 16.805 102.866 16.2782 103.684 15.7653C103.102 14.6839 102.811 13.6858 102.811 12.7985C102.811 11.7311 103.171 10.8438 103.892 10.1229C104.641 9.37431 105.625 9 106.817 9C107.926 9 108.814 9.30499 109.479 9.90111C110.144 10.4972 110.463 11.3152 110.463 12.3133C110.463 13.1728 110.158 13.9492 109.534 14.6839C109.105 15.183 108.425 15.7514 107.483 16.3891C108.231 17.2348 109.16 18.0527 110.255 18.8568C110.699 18.2884 111.087 17.5952 111.434 16.7773C111.725 15.9178 112.293 15.4741 113.167 15.4741C114.414 15.4741 114.816 16.0564 114.387 17.2348C113.915 18.3022 113.333 19.3281 112.626 20.2985C113 20.4926 113.333 20.6451 113.638 20.7699C114.137 20.9085 114.47 21.1442 114.622 21.4492C114.775 21.7542 114.789 22.1701 114.636 22.6969C114.387 23.5564 113.86 23.8753 113.028 23.6673C112.21 23.4039 111.378 23.0296 110.505 22.5444C109.202 23.501 107.677 23.9862 105.944 23.9862H105.958ZM106.387 21.3383C106.928 21.3383 107.497 21.1719 108.079 20.8531C107.524 20.3956 107.011 19.952 106.568 19.4945C106.082 19.0093 105.639 18.524 105.209 18.025C104.641 18.5656 104.35 19.0924 104.35 19.6192C104.35 20.146 104.53 20.5481 104.904 20.8669C105.278 21.1858 105.764 21.3383 106.387 21.3383ZM106.096 14.4344C106.665 14.1155 107.081 13.7967 107.344 13.5056C107.677 13.1451 107.843 12.7431 107.843 12.3272C107.843 11.634 107.524 11.2736 106.887 11.2736C106.54 11.2736 106.249 11.4122 106.013 11.6756C105.764 11.9667 105.639 12.341 105.639 12.7985C105.639 13.3115 105.791 13.866 106.082 14.4344H106.096Z" fill="white"/>
<path d="M123.384 23.7089C122.219 23.7089 121.637 23.1266 121.637 21.976V10.525C121.637 10.1506 121.748 9.84565 121.984 9.60998C122.219 9.3743 122.524 9.2634 122.899 9.2634H126.697C128.458 9.2634 129.816 9.59612 130.787 10.2754C131.923 11.0656 132.492 12.2994 132.492 13.963C132.492 15.6266 131.923 16.8466 130.787 17.7338C129.761 18.524 128.43 18.9122 126.794 18.9122H125.103V21.976C125.103 23.1266 124.521 23.7089 123.37 23.7089H123.384ZM125.117 16.1812H126.628C128.291 16.1812 129.137 15.4464 129.137 13.963C129.137 13.2699 128.915 12.7569 128.458 12.4242C128.042 12.1331 127.404 11.9945 126.531 11.9945H125.117V16.1673V16.1812Z" fill="white"/>
<path d="M24.7468 45.8901C23.5823 45.8901 23 45.3079 23 44.1572V32.7062C23 32.3319 23.1109 32.0269 23.3466 31.7912C23.5823 31.5555 23.8872 31.4446 24.2616 31.4446H28.0601C29.8207 31.4446 31.1793 31.7773 32.1497 32.4566C33.2865 33.2468 33.8549 34.4807 33.8549 36.1442C33.8549 37.8078 33.2865 39.0278 32.1497 39.9151C31.1239 40.7053 29.793 41.0934 28.1571 41.0934H26.4658V44.1572C26.4658 45.3079 25.8836 45.8901 24.7329 45.8901H24.7468ZM26.4797 38.3624H27.9908C29.6544 38.3624 30.5 37.6276 30.5 36.1442C30.5 35.4511 30.2782 34.9381 29.8207 34.6054C29.4048 34.3143 28.7671 34.1757 27.8937 34.1757H26.4797V38.3485V38.3624Z" fill="white"/>
<path d="M40.5785 46.1674C38.9427 46.1674 37.6118 45.6544 36.5859 44.6286C35.5184 43.575 34.9778 42.1609 34.9778 40.3725C34.9778 38.5842 35.5184 37.2394 36.5859 36.1165C37.5979 35.0768 38.804 34.5638 40.2181 34.5638C41.7569 34.5638 42.9492 35.0768 43.7948 36.1027C44.5711 37.0592 44.9593 38.3346 44.9593 39.9012C44.9593 40.2478 44.9455 40.5666 44.9039 40.83C44.8761 40.9687 44.793 41.0934 44.6405 41.2043C44.488 41.3152 44.3216 41.3707 44.1275 41.3707H38.3188C38.61 42.7986 39.5388 43.5056 41.0776 43.5056C41.4796 43.5056 41.8678 43.4502 42.256 43.3254C42.6164 43.1591 42.9492 43.1175 43.2541 43.2145C43.5591 43.3116 43.8087 43.5334 44.0028 43.8799C44.3632 44.5454 44.2246 45.0583 43.573 45.4326C42.6303 45.904 41.6321 46.1258 40.5785 46.1258V46.1674ZM38.2495 39.1387H42.0203C42.0203 37.8633 41.4381 37.2117 40.2735 37.2117C39.7745 37.2117 39.3447 37.3642 38.9981 37.6831C38.6238 38.0158 38.3743 38.501 38.2634 39.1387H38.2495Z" fill="white"/>
<path d="M48.8965 45.8901C47.7458 45.8901 47.1636 45.3217 47.1636 44.1849V36.2413C47.1636 35.3125 47.6488 34.8411 48.6192 34.8411C49.5342 34.8411 50.0471 35.2709 50.1303 36.1165L50.2135 36.7542H50.2967C50.6848 36.0472 51.17 35.4927 51.7523 35.1045C52.293 34.7441 52.8614 34.5638 53.4436 34.5638H53.5407C53.9566 34.647 54.2338 34.855 54.4002 35.1877C54.5388 35.5065 54.5665 35.8947 54.4834 36.3522C54.4002 36.7542 54.2477 37.0731 53.9982 37.3088C53.7348 37.5583 53.4298 37.6553 53.0416 37.5999H53C52.5425 37.5999 52.1266 37.7524 51.7246 38.0435C51.2532 38.3901 50.8928 38.903 50.6155 39.5823V44.1849C50.6155 45.3217 50.0471 45.8901 48.9103 45.8901H48.8965Z" fill="white"/>
<path d="M59.2526 46.1674C58.1851 46.1674 57.1038 45.8762 56.0363 45.3079C55.357 44.8365 55.2599 44.2681 55.7452 43.5749C56.0086 43.2145 56.3274 43.0066 56.7156 42.9511C57.076 42.9095 57.4503 43.0204 57.8385 43.2561C58.3376 43.4918 58.8367 43.6027 59.3357 43.6027C60.2091 43.6027 60.6389 43.3115 60.6389 42.7293C60.6389 42.4659 60.4587 42.2441 60.1121 42.0361C59.9041 41.9114 59.4882 41.7311 58.8644 41.4955C58.6842 41.4123 58.5455 41.3568 58.4346 41.3152C56.5215 40.5528 55.5649 39.4714 55.5649 38.0712C55.5649 37.0176 55.9531 36.172 56.7433 35.5343C57.5197 34.8827 58.5594 34.5638 59.8348 34.5638C60.8884 34.5638 61.8727 34.8272 62.8293 35.3402C63.1759 35.5759 63.3699 35.8254 63.3977 36.1027C63.3977 36.3661 63.2868 36.6711 63.0095 37.0315C62.76 37.3504 62.4688 37.5444 62.1222 37.5999C61.7757 37.6553 61.4291 37.5722 61.0686 37.3642C60.6666 37.1979 60.2923 37.1147 59.9596 37.1147C59.1832 37.1147 58.7951 37.3781 58.7951 37.9049C58.7951 38.1683 58.9614 38.3901 59.2941 38.5842C59.5021 38.6951 59.9041 38.8614 60.5141 39.0694C60.7082 39.1387 60.8468 39.1803 60.9439 39.2219C61.8173 39.5546 62.4827 39.9289 62.9263 40.331C63.5502 40.9132 63.8552 41.648 63.8552 42.5491C63.8552 43.6165 63.467 44.4622 62.6906 45.1138C61.8588 45.8069 60.7221 46.1674 59.2526 46.1674Z" fill="white"/>
<path d="M70.6478 46.1674C69.1783 46.1674 67.9168 45.6544 66.877 44.6286C65.7818 43.5472 65.2273 42.1193 65.2273 40.3725C65.2273 38.6258 65.7818 37.1979 66.877 36.1027C67.9029 35.0768 69.1506 34.5638 70.6478 34.5638C72.1451 34.5638 73.365 35.0768 74.3909 36.1027C75.4861 37.184 76.0406 38.6119 76.0406 40.3587C76.0406 42.1054 75.4861 43.5334 74.3909 44.6147C73.365 45.6406 72.1173 46.1535 70.6478 46.1535V46.1674ZM70.6478 43.367C71.2717 43.367 71.743 43.0897 72.0619 42.5491C72.353 42.05 72.5055 41.3152 72.5055 40.3725C72.5055 38.3624 71.8817 37.3642 70.6478 37.3642C70.0101 37.3642 69.5388 37.6415 69.206 38.1821C68.9149 38.709 68.7624 39.4437 68.7624 40.3725C68.7624 42.3688 69.3863 43.367 70.6478 43.367Z" fill="white"/>
<path d="M79.9504 45.8901C78.7998 45.8901 78.2175 45.3217 78.2175 44.1849V36.2413C78.2175 35.3125 78.7166 34.8411 79.7148 34.8411C80.602 34.8411 81.115 35.2431 81.2536 36.0611V36.2136H81.3506C82.4735 35.1184 83.6519 34.5638 84.8858 34.5638C87.1732 34.5638 88.3238 36.0611 88.3238 39.0417V44.1433C88.3238 45.294 87.7416 45.8762 86.5909 45.8762C85.4403 45.8762 84.858 45.294 84.858 44.1433V39.4714C84.858 38.7367 84.761 38.2099 84.553 37.9187C84.3589 37.6415 84.0401 37.5167 83.5826 37.5167C83.2222 37.5167 82.8894 37.5999 82.5983 37.7663C82.3488 37.891 82.0438 38.1406 81.6695 38.501V44.1711C81.6695 45.3079 81.1011 45.8762 79.9643 45.8762L79.9504 45.8901Z" fill="white"/>
<path d="M93.7856 46.1674C92.7874 46.1674 91.9834 45.8346 91.3734 45.1831C90.7911 44.5592 90.5 43.769 90.5 42.8125C90.5 41.6341 90.9852 40.7191 91.9556 40.0814C92.9261 39.4298 94.4787 39.0001 96.6276 38.7644C96.5444 37.8217 95.9898 37.3503 94.964 37.3503C94.4926 37.3503 93.9797 37.4612 93.3974 37.6831C92.9954 37.8771 92.6211 37.9326 92.2884 37.8356C91.9279 37.7524 91.6507 37.5306 91.4566 37.1563C91.0684 36.4215 91.2486 35.8531 91.9834 35.4511C93.2311 34.8827 94.4372 34.5916 95.6294 34.5916C98.61 34.5916 100.093 36.269 100.093 39.6378V44.5038C100.093 44.9613 99.9409 45.3078 99.6497 45.5574C99.3586 45.7931 98.9843 45.904 98.4991 45.904C98.1387 45.904 97.8198 45.8069 97.5564 45.6267C97.293 45.4326 97.1128 45.1831 97.0157 44.8365V44.7949H96.9325C95.9067 45.7099 94.8531 46.1674 93.7717 46.1674H93.7856ZM94.964 43.4918C95.5324 43.4918 96.0869 43.2006 96.6276 42.6184V40.8577C95.6155 40.9825 94.8808 41.2043 94.3956 41.5232C93.9797 41.8004 93.7717 42.1332 93.7717 42.5491C93.7717 43.1868 94.1599 43.5056 94.9501 43.5056L94.964 43.4918Z" fill="white"/>
<path d="M105.888 46.1674C104.765 46.1674 103.948 45.8069 103.421 45.0999C102.963 44.4622 102.741 43.5333 102.741 42.2995V32.0962C102.741 30.9594 103.324 30.391 104.474 30.391C105.625 30.391 106.18 30.9594 106.18 32.0962V42.4381C106.18 42.757 106.249 43.0065 106.387 43.1729C106.485 43.2977 106.623 43.367 106.79 43.367H106.831C106.928 43.367 107.025 43.4224 107.122 43.5611C107.205 43.672 107.247 43.8106 107.275 43.9492C107.358 44.4067 107.358 44.8226 107.275 45.2247C107.164 45.7237 106.97 46.0149 106.651 46.098C106.415 46.1396 106.166 46.1535 105.875 46.1535L105.888 46.1674Z" fill="white"/>
<path d="M110.921 33.3161C110.338 33.3161 109.867 33.1498 109.493 32.8171C109.118 32.4843 108.938 32.0546 108.938 31.5416C108.938 31.0287 109.118 30.5851 109.493 30.2662C109.867 29.9335 110.338 29.7672 110.921 29.7672C111.503 29.7672 111.974 29.9335 112.335 30.2662C112.695 30.5851 112.875 31.0148 112.875 31.5416C112.875 32.0685 112.695 32.4843 112.321 32.8171C111.947 33.1498 111.489 33.3161 110.907 33.3161H110.921ZM110.921 45.8901C109.77 45.8901 109.188 45.3217 109.188 44.1849V36.5601C109.188 35.4234 109.77 34.855 110.921 34.855C112.071 34.855 112.626 35.4234 112.626 36.5601V44.1849C112.626 45.3217 112.057 45.8901 110.921 45.8901Z" fill="white"/>
<path d="M119.765 46.1674C118.434 46.1674 117.436 45.7653 116.771 44.9613C116.161 44.2265 115.856 43.1729 115.856 41.8004V37.5444H115.648C114.788 37.5444 114.373 37.1008 114.373 36.2274C114.373 35.3956 114.775 34.952 115.579 34.8827L116.064 34.8411L116.272 33.233C116.383 32.3596 116.91 31.9298 117.825 31.9298C118.823 31.9298 119.322 32.415 119.322 33.3716V34.8411H120.583C121.471 34.8411 121.928 35.2847 121.928 36.1858C121.928 37.0869 121.484 37.5444 120.583 37.5444H119.322V41.7589C119.322 42.8956 119.793 43.464 120.722 43.464H120.764C121.069 43.3947 121.332 43.464 121.554 43.6443C121.776 43.8106 121.914 44.0602 121.983 44.4067C122.191 45.3078 121.956 45.8485 121.29 46.0149C120.833 46.1119 120.334 46.1674 119.779 46.1674H119.765Z" fill="white"/>
<path d="M125.435 50.1461C125.241 50.1461 125.103 50.1461 125.006 50.1322C124.604 50.0629 124.34 49.8411 124.215 49.4529C124.118 49.1202 124.118 48.7182 124.215 48.2468C124.285 47.9973 124.396 47.8032 124.548 47.6507C124.715 47.4844 124.909 47.4151 125.13 47.4566H125.172C126.115 47.4566 126.725 47.013 127.016 46.1396L127.168 45.5712L123.73 36.8513C123.217 35.5204 123.647 34.8549 125.047 34.8549C125.935 34.8549 126.531 35.2986 126.836 36.172L127.889 39.4298C128.042 39.9012 128.25 40.6221 128.485 41.6064C128.596 42.0222 128.679 42.3411 128.735 42.5629H128.832C128.957 41.9252 129.179 40.9964 129.47 39.7487C129.511 39.61 129.539 39.4991 129.553 39.4437L130.468 36.1581C130.731 35.2847 131.286 34.8549 132.159 34.8549C133.462 34.8549 133.906 35.4788 133.476 36.7126L132.215 40.3864L130.329 45.9178C129.761 47.4151 129.137 48.4825 128.471 49.1064C127.709 49.7995 126.697 50.16 125.449 50.16L125.435 50.1461Z" fill="white"/>
<path d="M145.038 45.8901C143.874 45.8901 143.291 45.3078 143.291 44.1572V34.3143H140.824C139.867 34.3143 139.382 33.8429 139.382 32.8725C139.382 31.9021 139.867 31.4307 140.824 31.4307H149.252C150.209 31.4307 150.694 31.9159 150.694 32.8725C150.694 33.8291 150.209 34.3143 149.252 34.3143H146.771V44.1572C146.771 45.3078 146.189 45.8901 145.038 45.8901Z" fill="white"/>
<path d="M153.523 50.1461C153.329 50.1461 153.19 50.1461 153.093 50.1322C152.691 50.0629 152.427 49.8411 152.303 49.4529C152.206 49.1202 152.206 48.7182 152.303 48.2468C152.372 47.9973 152.483 47.8032 152.635 47.6507C152.802 47.4844 152.996 47.4151 153.218 47.4566H153.259C154.202 47.4566 154.812 47.013 155.103 46.1396L155.255 45.5712L151.817 36.8513C151.304 35.5204 151.734 34.8549 153.134 34.8549C154.022 34.8549 154.618 35.2986 154.923 36.172L155.976 39.4298C156.129 39.9012 156.337 40.6221 156.573 41.6064C156.683 42.0222 156.767 42.3411 156.822 42.5629H156.919C157.044 41.9252 157.266 40.9964 157.557 39.7487C157.598 39.61 157.626 39.4991 157.64 39.4437L158.555 36.1581C158.818 35.2847 159.373 34.8549 160.246 34.8549C161.549 34.8549 161.993 35.4788 161.563 36.7126L160.302 40.3864L158.416 45.9178C157.848 47.4151 157.224 48.4825 156.559 49.1064C155.796 49.7995 154.784 50.16 153.536 50.16L153.523 50.1461Z" fill="white"/>
<path d="M165.597 49.9104C164.447 49.9104 163.865 49.3421 163.865 48.2053V36.2551C163.865 35.7977 164.017 35.4511 164.336 35.2015C164.613 34.9659 165.001 34.855 165.487 34.855C165.847 34.855 166.166 34.9381 166.415 35.1045C166.679 35.2847 166.845 35.5481 166.914 35.8808V35.9224H166.998C168.01 35.0352 169.035 34.5777 170.103 34.5777C171.42 34.5777 172.474 35.0906 173.25 36.1027C174.026 37.1147 174.414 38.4733 174.414 40.1923C174.414 42.0084 173.929 43.4779 172.973 44.6008C172.085 45.6544 171.018 46.1674 169.77 46.1674C168.828 46.1674 167.968 45.7931 167.206 45.0167L167.303 46.7496V48.2053C167.303 49.3421 166.734 49.9104 165.597 49.9104ZM168.952 43.3254C169.521 43.3254 169.964 43.0897 170.297 42.6045C170.671 42.0777 170.865 41.2875 170.865 40.2339C170.865 38.3346 170.269 37.3781 169.077 37.3781C168.481 37.3781 167.899 37.6831 167.316 38.3069V42.6738C167.802 43.1036 168.342 43.3115 168.966 43.3115L168.952 43.3254Z" fill="white"/>
<path d="M181.623 46.1674C179.987 46.1674 178.656 45.6544 177.631 44.6286C176.563 43.575 176.022 42.1609 176.022 40.3725C176.022 38.5842 176.563 37.2394 177.631 36.1165C178.643 35.0768 179.849 34.5638 181.263 34.5638C182.802 34.5638 183.994 35.0768 184.839 36.1027C185.616 37.0592 186.004 38.3346 186.004 39.9012C186.004 40.2478 185.99 40.5666 185.949 40.83C185.921 40.9687 185.838 41.0934 185.685 41.2043C185.533 41.3152 185.366 41.3707 185.172 41.3707H179.364C179.655 42.7986 180.583 43.5056 182.122 43.5056C182.524 43.5056 182.912 43.4502 183.301 43.3254C183.661 43.1591 183.994 43.1175 184.299 43.2145C184.604 43.3116 184.853 43.5334 185.047 43.8799C185.408 44.5454 185.269 45.0583 184.618 45.4326C183.675 45.904 182.677 46.1258 181.623 46.1258V46.1674ZM179.294 39.1387H183.065C183.065 37.8633 182.483 37.2117 181.318 37.2117C180.819 37.2117 180.389 37.3642 180.043 37.6831C179.669 38.0158 179.419 38.501 179.308 39.1387H179.294Z" fill="white"/>
<path d="M191.508 46.1674C190.44 46.1674 189.359 45.8762 188.291 45.3079C187.612 44.8365 187.515 44.2681 188 43.5749C188.264 43.2145 188.583 43.0066 188.971 42.9511C189.331 42.9095 189.705 43.0204 190.094 43.2561C190.593 43.4918 191.092 43.6027 191.591 43.6027C192.464 43.6027 192.894 43.3115 192.894 42.7293C192.894 42.4659 192.714 42.2441 192.367 42.0361C192.159 41.9114 191.743 41.7311 191.12 41.4955C190.939 41.4123 190.801 41.3568 190.69 41.3152C188.777 40.5528 187.82 39.4714 187.82 38.0712C187.82 37.0176 188.208 36.172 188.998 35.5343C189.775 34.8827 190.815 34.5638 192.09 34.5638C193.144 34.5638 194.128 34.8272 195.084 35.3402C195.431 35.5759 195.625 35.8254 195.653 36.1027C195.653 36.3661 195.542 36.6711 195.265 37.0315C195.015 37.3504 194.724 37.5444 194.377 37.5999C194.031 37.6553 193.684 37.5722 193.324 37.3642C192.922 37.1979 192.547 37.1147 192.215 37.1147C191.438 37.1147 191.05 37.3781 191.05 37.9049C191.05 38.1683 191.217 38.3901 191.549 38.5842C191.757 38.6951 192.159 38.8614 192.769 39.0694C192.963 39.1387 193.102 39.1803 193.199 39.2219C194.072 39.5546 194.738 39.9289 195.181 40.331C195.805 40.9132 196.11 41.648 196.11 42.5491C196.11 43.6165 195.722 44.4622 194.946 45.1138C194.114 45.8069 192.977 46.1674 191.508 46.1674Z" fill="white"/>
</svg>
