<svg width="218" height="60" viewBox="0 0 218 60" fill="none" xmlns="http://www.w3.org/2000/svg">
<path d="M24.0967 0.5H193.903C206.922 0.5 217.5 11.3624 217.5 24.792V35.208C217.5 48.6376 206.922 59.5 193.903 59.5H24.0967C11.078 59.5 0.500132 48.6376 0.5 35.208V24.792L0.507812 24.165C0.831048 11.0259 11.2813 0.5 24.0967 0.5Z" fill="#F11919" stroke="#B30000"/>
<path d="M24.0479 1H193.514C206.214 1.00018 216.561 11.6232 216.562 24.792V35.208C216.561 48.3768 206.214 58.9998 193.514 59H24.0479C11.3474 58.9999 1.00013 48.3768 1 35.208V24.792L1.00781 24.1768C1.32424 11.2939 11.5458 1.00013 24.0479 1Z" fill="#F11919" stroke="#B30000" stroke-width="2" stroke-miterlimit="10"/>
<path d="M71.2233 32.5579V33.9379H72.8003V32.5579H71.2233ZM76.4323 29.8221C77.3164 29.8221 77.7704 30.2821 77.7704 31.1779C77.7704 32.0737 77.3164 32.5579 76.4323 32.5579H75.7871V33.9379H76.6951C77.627 33.9379 78.081 34.3979 78.081 35.3421C78.081 36.2863 77.627 36.7705 76.6951 36.7705H75.7871V40.0632C75.7871 41.0558 75.2853 41.5642 74.3057 41.5642C73.326 41.5642 72.8003 41.0558 72.8003 40.0632V36.7705H71.1277C70.9365 38.0537 70.4109 39.6758 69.3356 40.959C68.6427 41.6126 67.9497 41.8305 67.2568 41.2011C66.3488 40.3779 66.5638 39.5063 67.4241 38.6347C67.8064 38.0295 68.0453 37.3758 68.1887 36.7705H67.5435C66.6116 36.7705 66.1576 36.2863 66.1576 35.3421C66.1576 34.3979 66.6116 33.9379 67.5435 33.9379H68.332V32.5579H67.7825C66.8984 32.5579 66.4444 32.0737 66.4444 31.1779C66.4444 30.2821 66.8984 29.8221 67.7825 29.8221H76.4323ZM65.3691 25.3674V26.2632H67.6152C68.0453 26.2632 68.2604 26.0453 68.2604 25.6095V25.3674H65.3691ZM66.0143 22.3168C65.5842 22.3168 65.3691 22.5347 65.3691 22.9705V23.14H68.2604V22.6558C68.2604 22.4137 68.1648 22.3168 67.9258 22.3168H66.0143ZM75.9544 25.3674V25.9242C75.9544 26.2147 76.0739 26.3358 76.3606 26.3358H78.9412V25.3674H75.9544ZM76.6234 22.3168C76.1694 22.3168 75.9544 22.5347 75.9544 22.9947V23.14H78.9412V22.6558C78.9412 22.4137 78.8456 22.3168 78.6067 22.3168H76.6234ZM82.3342 38.0537C82.3342 39.7242 82.0714 40.6684 81.1156 41.2495C80.5421 41.5884 79.8492 41.7821 79.0129 41.8547C77.9376 41.879 76.9819 41.54 76.6712 40.4747C76.2411 38.9737 76.8863 38.4653 78.4394 38.4895H78.4633C78.8217 38.4895 78.9412 38.3442 78.9412 38.0053V28.8053H74.2579C73.326 28.8053 72.7047 28.1758 72.7047 27.2316V21.4453C72.7047 20.5011 73.326 19.8716 74.2579 19.8716H81.6174C82.0475 19.8716 82.3342 20.1621 82.3342 20.5979V38.0537ZM62 21.4453C62 20.5011 62.6213 19.8716 63.5531 19.8716H69.9091C70.841 19.8716 71.4622 20.5011 71.4622 21.4453V27.1589C71.4622 28.1032 70.841 28.7326 69.9091 28.7326H65.3691V40.3053C65.3691 41.4432 64.8196 42 63.6965 42C62.5735 42 62 41.4432 62 40.3053V21.4453Z" fill="white"/>
<path d="M95.7151 33.2358C95.7151 32.2916 96.3364 31.6621 97.2683 31.6621H104.867C105.799 31.6621 106.42 32.2916 106.42 33.2358V39.5547C106.42 40.4989 105.799 41.1284 104.867 41.1284H97.2683C96.3364 41.1284 95.7151 40.4989 95.7151 39.5547V33.2358ZM102.286 37.9568C102.764 37.9568 103.003 37.7147 103.003 37.2305V35.56C103.003 35.0758 102.764 34.8337 102.286 34.8337H99.6816C99.2037 34.8337 98.9648 35.0758 98.9648 35.56V37.2305C98.9648 37.7147 99.2037 37.9568 99.6816 37.9568H102.286ZM99.3949 29.7737L96.0975 30.0158C95.1895 30.0884 94.5443 29.5316 94.4487 28.6358L94.3054 27.28C93.9947 30.2337 93.4691 32.7032 92.6805 34.8095C93.3018 35.3421 93.8753 35.8505 94.3532 36.3589C94.9505 37.0611 94.8788 37.6905 94.3293 38.4411C93.5168 39.5789 92.6805 39.6516 91.7964 38.5863C91.6053 38.3684 91.3902 38.1747 91.1752 37.9568C90.4345 39.1432 89.5504 40.16 88.5229 41.0316C87.5671 41.7579 86.8264 41.7821 86.1096 40.8137C85.2971 39.7 85.56 38.9253 86.683 38.1263C87.4237 37.4484 88.0689 36.6253 88.6185 35.6811L87.7344 34.9547V35.0032C87.6149 35.4389 87.0414 35.3905 86.6352 35.1726C85.8228 34.7368 84.867 33.8895 85.106 32.9937C85.56 31.2505 86.0379 29.1442 86.4919 26.9653H86.4441C85.5122 26.9653 85.0343 26.3842 85.0343 25.44C85.0343 24.3505 85.56 23.7211 86.6352 23.7211H87.1609C87.376 22.6074 87.5671 21.5421 87.7344 20.5011C87.9016 19.46 88.4751 19.0242 89.5265 19.1453C90.6734 19.2663 91.0796 19.8958 90.8646 21.0337L90.315 23.7211H92.9912C93.9469 23.7211 94.5443 24.3505 94.4726 25.44C94.4487 25.9242 94.4009 26.3358 94.3532 26.7716L96.193 26.6747C96.7904 24.9316 97.34 22.8253 97.7462 20.8884C97.9851 19.5568 98.6303 19.0726 99.9445 19.3147C101.33 19.5568 101.689 20.4042 101.259 21.76C100.709 23.4305 100.112 25.0768 99.5622 26.5053L102.74 26.3116C102.621 26.0695 102.477 25.8516 102.358 25.6337C101.784 24.6895 101.999 23.9632 102.979 23.4547C103.815 23.0189 104.461 23.1884 104.986 23.9632C105.87 25.3674 106.731 26.8926 107.28 28.2242C107.615 29.1684 107.161 29.7253 106.3 30.1853C105.321 30.6937 104.556 30.5 104.222 29.4347C104.222 29.4105 104.198 29.4105 104.198 29.3863L99.3949 29.7737ZM90.6734 29.9674C90.8407 29.2411 90.9601 28.4905 91.0557 27.7158C91.1274 27.2074 90.9123 26.9653 90.4345 26.9653H89.6459L89.0964 29.3379L88.5707 31.6863L89.9805 32.6789C90.2672 31.8316 90.4822 30.9358 90.6734 29.9674Z" fill="white"/>
<path d="M112.967 25.44C113.134 25.5611 113.301 25.7063 113.469 25.8274C114.233 26.5537 114.209 27.2316 113.469 27.9579C112.632 28.7811 111.844 28.7811 111.032 27.9579C110.936 27.8611 110.84 27.7642 110.721 27.6674C110.53 27.5221 110.339 27.3526 110.147 27.2074C109.216 26.5053 109.239 25.7789 110.076 24.98C110.673 24.4232 111.294 24.3021 111.987 24.7379C112.298 24.9558 112.632 25.1979 112.967 25.44ZM114.209 36.2621C115.117 37.7632 116.79 38.3926 119.156 38.4895C121.593 38.6105 125.918 38.5863 129.311 38.3926C130.816 38.2958 131.246 38.7558 130.816 40.2084C130.529 41.1768 130.075 41.5158 129.096 41.54C125.989 41.6611 121.784 41.6853 119.132 41.5642C116.312 41.4432 114.377 40.8137 112.871 38.9979C112.489 39.3853 112.107 39.7726 111.701 40.1842C110.649 41.2011 109.765 41.2011 109.144 39.8695C108.69 38.8768 108.905 38.1505 109.789 37.5211C110.195 37.2305 110.625 36.8916 111.032 36.5526V33.7684C111.032 33.2842 110.793 33.0421 110.315 33.0421H110.267C109.311 33.0421 108.833 32.4853 108.833 31.5168C108.833 30.4758 109.359 29.8705 110.386 29.8705H112.943C113.708 29.8705 114.209 30.3789 114.209 31.1537V36.2621ZM122.525 34.2284C122.429 35.7295 122.262 36.5284 121.975 36.94C121.545 37.5695 121.115 37.8116 120.518 37.9326C120.231 38.0053 119.872 38.0295 119.49 38.0537C118.773 38.0779 118.343 37.6905 118.272 37.1095C118.152 36.5284 117.985 35.9232 117.746 35.4389C117.579 35.8021 117.411 36.1411 117.196 36.48C116.551 37.3274 115.954 37.4726 115.213 36.7221C114.52 35.9958 114.568 35.2695 115.117 34.4221C116.241 32.2432 116.36 29.4589 116.36 27.4979V24.9316H115.452C114.998 24.9316 114.711 24.6411 114.711 24.1811V22.68L113.779 23.5274C113.301 23.9632 112.728 23.9147 112.394 23.5032C112.011 23.1158 111.557 22.68 111.103 22.2442C110.219 21.5179 110.171 20.7189 111.032 19.9684C111.653 19.4116 112.346 19.3874 113.015 19.8716C113.947 20.5737 114.879 21.3726 115.404 22.0505L115.38 22.0747H117.268V20.5979C117.268 19.5326 117.794 19 118.845 19C119.896 19 120.422 19.5326 120.422 20.5979V22.0747H121.593C122.214 22.0747 122.62 22.4863 122.62 23.1158V23.2611C123.146 22.3895 123.576 21.3726 123.911 20.3316C124.173 19.3874 124.771 18.9758 125.727 19.1937C126.682 19.4116 127.017 19.9926 126.754 20.9611C126.706 21.0579 126.682 21.1789 126.635 21.2758H129.335C130.267 21.2758 130.744 21.76 130.744 22.7042C130.744 23.6484 130.267 24.1326 129.335 24.1326H125.464L125.129 24.7379C124.938 25.0768 125.01 25.2221 125.392 25.2221H129.072C130.147 25.2221 130.625 25.9 130.123 27.28C129.621 28.3937 129.048 29.1684 128.498 29.8463H129.55C130.434 29.8463 130.888 30.3063 130.888 31.2021C130.888 32.0979 130.434 32.5821 129.55 32.5821H128.379V35.0274C128.379 36.3347 128.188 37.1337 127.351 37.6179C126.874 37.8842 126.348 38.0053 125.703 38.0779C124.771 38.1021 124.054 37.7874 123.767 36.8916C123.385 35.6811 123.887 35.2211 125.129 35.2453H125.153C125.44 35.2453 125.512 35.1968 125.512 34.9547V32.5821H124.556C123.672 32.5821 123.218 32.0979 123.218 31.2021C123.218 30.3063 123.672 29.8463 124.556 29.8463H125.512V29.1926C125.512 28.8779 125.703 28.6842 126.013 28.6842H126.348L126.921 27.74H125.225C124.293 27.74 123.696 27.1347 123.696 26.1905V25.6821L122.62 24.7379V24.9074C122.62 24.9316 122.62 24.9316 122.596 24.9316H119.084V26.2632H121.234C122.166 26.2632 122.764 26.8926 122.74 28.5632C122.692 31.3716 122.62 33.0179 122.525 34.2284ZM119.729 33.4295C119.801 32.6547 119.825 31.5653 119.849 30.04C119.872 29.3137 119.634 29.0716 119.156 29.0716H119.06C119.012 30.0642 118.917 31.1295 118.726 32.1947C118.534 33.26 118.248 34.3253 117.818 35.3179C118.272 35.3663 118.63 35.3663 118.869 35.3663C119.132 35.3663 119.299 35.2937 119.466 35.0274C119.586 34.8337 119.681 34.3737 119.729 33.4295Z" fill="white"/>
<path d="M142.357 35.1242C142.62 35.1242 142.74 35.0032 142.74 34.7368V34.6642C142.74 34.4705 142.644 34.3737 142.453 34.3737H139.848C139.585 34.3737 139.466 34.4947 139.466 34.7611V34.8337C139.466 35.0274 139.562 35.1242 139.753 35.1242H142.357ZM153.994 21.2274C154.113 21.4695 154.233 21.7116 154.352 21.9537C154.663 22.7768 154.472 23.3095 153.707 23.7211C152.656 24.2779 151.987 24.0116 151.604 22.8737C151.557 22.7768 151.533 22.7042 151.485 22.6074C151.365 22.3411 151.222 22.0747 151.079 21.8084C150.601 20.9611 150.864 20.3074 151.724 19.8716C152.465 19.5084 153.062 19.6295 153.516 20.3316C153.683 20.6221 153.85 20.9126 153.994 21.2274ZM145.153 30.3547C145.798 30.3547 146.133 30.6937 146.133 31.3474C146.133 32.0011 145.798 32.3642 145.153 32.3642H137.435C136.742 32.3642 136.312 31.9284 136.312 31.2263V31.1537C136.24 34.0105 135.93 37.4484 135.045 40.2084C134.591 41.3705 134.09 41.54 133.134 40.7653C132.417 40.1842 132.298 39.5789 132.608 38.6832C133.492 35.7779 133.564 32.1221 133.564 29.4105V24.4716C133.564 23.5274 134.185 22.8979 135.117 22.8979H137.889V20.5979C137.889 19.5326 138.773 19 139.824 19C140.493 19 141.043 19.3389 141.043 20.0168V20.0653H144.771C145.487 20.0653 145.846 20.4284 145.846 21.1547C145.846 21.8811 145.487 22.2442 144.771 22.2442H141.616C141.234 22.2442 141.043 22.4379 141.043 22.8253V22.8979H144.89C145.917 22.8979 146.467 23.5758 146.276 24.6895C146.18 25.0526 146.109 25.3916 146.037 25.7305L147.232 25.5611C147.16 24.0358 147.112 22.4379 147.088 20.7674C147.064 19.7021 147.566 19.0968 148.618 19.0968C149.645 19.0968 150.171 19.6779 150.171 20.7189C150.195 22.2442 150.242 23.7211 150.29 25.1253L152.966 24.7621C153.97 24.6411 154.52 25.0768 154.639 26.0937C154.758 27.0863 154.328 27.6916 153.349 27.8126L150.457 28.2242C150.553 29.5558 150.672 30.7905 150.792 31.9042C151.103 31.2505 151.365 30.5968 151.604 29.9432C151.939 28.8779 152.584 28.6358 153.54 29.1684C154.257 29.58 154.496 30.1611 154.257 30.96C153.612 32.8726 152.704 34.7611 151.628 36.48C151.867 37.2789 152.106 37.7389 152.393 37.7632C152.441 37.7632 152.512 37.7147 152.56 37.6421C152.799 36.0442 153.349 35.1242 154.567 36.1653C155.165 36.6737 155.021 38.1989 154.854 38.9737C154.137 41.3463 153.134 41.879 152.345 41.8547C151.103 41.8063 150.147 40.9589 149.406 39.3853C148.88 39.9663 148.307 40.5232 147.733 40.9832C147.017 41.5158 146.18 41.4189 145.583 40.7653C145.559 40.7168 145.511 40.6926 145.487 40.6684L137.387 41.5642C136.575 41.6611 136.121 41.3221 136.001 40.4989C135.882 39.6516 136.264 39.1916 137.124 39.1189L138.176 39.0221C138.128 38.7074 138.056 38.2958 137.937 37.9084C137.722 37.2547 138.008 36.7947 138.606 36.6737L138.916 36.6253H138.797C137.578 36.6253 136.957 35.9716 136.957 34.7368C136.957 33.5021 137.578 32.8726 138.797 32.8726H143.576C144.794 32.8726 145.416 33.5021 145.416 34.7368C145.416 35.9716 144.794 36.6253 143.576 36.6253H143.337L144.102 36.7221C144.46 36.7705 144.603 37.0126 144.46 37.3516L144.006 38.4411L145.941 38.2474V38.32C146.802 37.6421 147.59 36.8189 148.307 35.9232C147.901 33.9379 147.59 31.4926 147.399 28.66L146.467 28.7811C145.965 28.8537 145.607 28.5874 145.535 28.0789L145.416 27.1832L143.671 26.9168L143.695 27.2074C143.719 27.28 143.671 27.3284 143.6 27.3284L140.47 27.5947V27.6432C140.47 28.1758 140.565 28.2484 141.115 28.2484C141.378 28.2484 142.501 28.2484 142.787 28.2484C142.811 28.2484 142.835 28.2484 142.859 28.2484C143.217 27.8126 143.743 27.7158 144.269 27.8853C144.89 28.0789 145.105 28.6842 144.89 29.2895C144.555 29.7495 144.006 29.9189 143.098 29.9189C142.644 29.9189 141.21 29.9189 140.756 29.9189C139.131 29.9189 138.462 29.6284 138.223 28.7084C138.152 28.0547 137.889 27.8368 137.411 27.8611H137.363C136.909 27.9095 136.623 27.6432 136.575 27.1832C136.503 26.6021 136.766 26.1905 137.339 26.1421L138.128 26.0695V25.0768H137.053C136.575 25.0768 136.336 25.3189 136.336 25.8032V30.3547H145.153ZM143.432 25.6337L143.504 25.2705C143.528 25.1253 143.48 25.0768 143.337 25.0768H140.47V25.8758L143.432 25.6337ZM141.688 37.6179C141.784 37.2789 141.879 36.9158 141.951 36.6253H139.944C140.111 36.94 140.231 37.3032 140.326 37.6663C140.398 37.86 140.446 38.0537 140.493 38.2474C140.541 38.4895 140.422 38.6589 140.159 38.7316L139.084 38.9495L141.712 38.6832L141.473 38.6347C141.425 38.6347 141.401 38.6105 141.425 38.5621C141.521 38.2716 141.593 37.9326 141.688 37.6179Z" fill="white"/>
</svg>
