<svg width="218" height="60" viewBox="0 0 218 60" fill="none" xmlns="http://www.w3.org/2000/svg">
<path d="M24.0967 0.5H193.903C206.922 0.5 217.5 11.3624 217.5 24.792V35.208C217.5 48.6376 206.922 59.5 193.903 59.5H24.0967C11.078 59.5 0.500132 48.6376 0.5 35.208V24.792L0.507812 24.165C0.831048 11.0259 11.2813 0.5 24.0967 0.5Z" fill="#F11919" stroke="#B30000"/>
<path d="M24.0479 1H193.514C206.214 1.00018 216.561 11.6232 216.562 24.792V35.208C216.561 48.3768 206.214 58.9998 193.514 59H24.0479C11.3474 58.9999 1.00013 48.3768 1 35.208V24.792L1.00781 24.1768C1.32424 11.2939 11.5458 1.00013 24.0479 1Z" fill="#F11919" stroke="#B30000" stroke-width="2" stroke-miterlimit="10"/>
<path d="M81.8033 22.5389C82.9422 21.5829 84.5319 21 86.4063 21C87.9249 21 89.5383 21.443 90.8908 22.2824C91.6975 22.9352 91.7687 23.7513 91.1281 24.544C90.44 25.4067 89.4909 25.5699 88.5418 25.0104C87.8774 24.7073 87.1893 24.5674 86.4063 24.5674C85.1013 24.5674 84.3183 25.0803 84.3183 25.9896C84.3183 26.9689 85.4098 27.342 86.9758 27.9482L89.1824 28.8109C91.3653 29.6736 92.6703 31.1192 92.6703 33.5674C92.6703 35.013 92.0534 36.3653 90.9145 37.3679C89.7519 38.3705 88.0672 39 85.9318 39C84.2234 39 82.4439 38.5337 80.8779 37.6244C79.9051 36.9016 79.739 36.0389 80.522 35.1062C81.3287 34.1269 82.3964 34.057 83.4642 34.7565C84.3183 35.1528 85.1963 35.4093 86.0267 35.4093C87.5927 35.4093 88.3282 34.8264 88.3282 33.8938C88.3282 32.8912 87.3554 32.5648 85.8369 31.9352L83.5828 31.0026C81.7321 30.2798 80 28.7642 80 26.2461C80 24.7772 80.6644 23.4715 81.8033 22.5389Z" fill="white"/>
<path d="M99.2539 33.7073C99.2539 35.1762 99.9657 35.7591 100.962 35.7591C100.986 35.7591 100.986 35.7591 101.01 35.7591C101.793 35.5959 102.338 36.0855 102.505 36.8549C102.718 37.8109 102.599 38.5803 101.627 38.8135C101.128 38.9301 100.511 39 99.7996 39C96.4066 39 95.0304 36.8782 95.0304 33.7539V28.6477H94.7694C93.7254 28.6477 93.2034 28.0881 93.2034 27.0622C93.2034 26.0829 93.7017 25.5233 94.6745 25.4534L95.2914 25.4067L95.5524 23.4249C95.6948 22.399 96.3829 21.886 97.4269 21.886C98.5895 21.886 99.2539 22.4456 99.2539 23.5881V25.4067H100.796C101.888 25.4067 102.433 25.943 102.433 27.0155C102.433 28.0881 101.888 28.6477 100.796 28.6477H99.2539V33.7073Z" fill="white"/>
<path d="M105.681 31.6788C106.891 30.886 108.766 30.3731 111.399 30.0933C111.304 29.0207 110.735 28.3912 109.359 28.3912C108.742 28.3912 108.125 28.5311 107.437 28.7876C106.488 29.2306 105.562 29.0674 105.064 28.158C104.59 27.272 104.827 26.5725 105.705 26.1062C107.105 25.4767 108.576 25.0803 110.165 25.0803C113.653 25.0803 115.623 26.9922 115.623 31.1425V36.9948C115.623 38.114 114.816 38.6736 113.677 38.6736C112.799 38.6736 112.087 38.2306 111.898 37.3912V37.3446H111.779C110.664 38.3238 109.406 39 107.911 39C105.42 39 103.901 37.1813 103.901 34.9663C103.901 33.5674 104.471 32.4948 105.681 31.6788ZM109.762 32.9378C109.311 33.0777 108.955 33.2176 108.671 33.4041C108.125 33.7539 107.911 34.1736 107.911 34.6399C107.911 35.4093 108.481 35.7824 109.359 35.7824C110.213 35.7824 110.782 35.386 111.399 34.7332V32.6114C110.759 32.6813 110.213 32.7979 109.762 32.9378Z" fill="white"/>
<path d="M118.884 27.0855C118.884 25.9663 119.525 25.4067 120.663 25.4067C121.707 25.4067 122.395 25.9197 122.538 26.9456L122.633 27.715H122.704C123.7 25.943 125.195 25.0803 126.548 25.0803C126.595 25.0803 126.619 25.0803 126.666 25.0803C127.71 25.2668 128.019 26.1762 127.829 27.2021C127.639 28.1347 127.022 28.8575 126.049 28.7176C126.049 28.7176 126.026 28.7176 126.002 28.7176C125.005 28.7176 123.795 29.3471 123.107 31.0959V37.158C123.107 38.0674 122.49 38.6736 121.565 38.6736H119.857C119.264 38.6736 118.884 38.3005 118.884 37.7176V27.0855Z" fill="white"/>
<path d="M134.659 33.7073C134.659 35.1762 135.371 35.7591 136.368 35.7591C136.391 35.7591 136.391 35.7591 136.415 35.7591C137.198 35.5959 137.744 36.0855 137.91 36.8549C138.123 37.8109 138.005 38.5803 137.032 38.8135C136.534 38.9301 135.917 39 135.205 39C131.812 39 130.436 36.8782 130.436 33.7539V28.6477H130.175C129.131 28.6477 128.609 28.0881 128.609 27.0622C128.609 26.0829 129.107 25.5233 130.08 25.4534L130.697 25.4067L130.958 23.4249C131.1 22.399 131.788 21.886 132.832 21.886C133.995 21.886 134.659 22.4456 134.659 23.5881V25.4067H136.202C137.293 25.4067 137.839 25.943 137.839 27.0155C137.839 28.0881 137.293 28.6477 136.202 28.6477H134.659V33.7073Z" fill="white"/>
</svg>
