<svg width="220" height="62" viewBox="0 0 220 62" fill="none" xmlns="http://www.w3.org/2000/svg">
<path d="M194.903 1H25.0966C11.7884 1 1 12.0999 1 25.7922V36.2078C1 49.9001 11.7884 61 25.0966 61H194.903C208.212 61 219 49.9001 219 36.2078V25.7922C219 12.0999 208.212 1 194.903 1Z" fill="#FF671D"/>
<path d="M194.903 1H25.0966C11.7884 1 1 12.0999 1 25.7922V36.2078C1 49.9001 11.7884 61 25.0966 61H194.903C208.212 61 219 49.9001 219 36.2078V25.7922C219 12.0999 208.212 1 194.903 1Z" stroke="#DC501B" stroke-width="2" stroke-miterlimit="10"/>
<path d="M32.0222 38.6814C30.6741 38.6814 30 38.0234 30 36.6752V23.4185C30 22.9852 30.1284 22.6321 30.4012 22.3592C30.6741 22.0864 31.0271 21.958 31.4605 21.958H36.1308C40.4962 21.958 42.6629 23.7074 42.6629 27.2222C42.6629 29.5493 41.6999 31.1543 39.7901 32.053L42.5987 37.0444C42.8876 37.5419 42.9357 37.9431 42.7592 38.232C42.5827 38.5369 42.1975 38.6814 41.6358 38.6814H40.0629C39.3728 38.6814 38.8752 38.3765 38.5543 37.7666L35.9543 32.8073H34.0284V36.6913C34.0284 38.0234 33.3543 38.6974 32.0222 38.6974V38.6814ZM34.0284 29.6135H35.8259C37.7679 29.6135 38.7469 28.8111 38.7469 27.2061C38.7469 26.4358 38.5061 25.8901 38.0086 25.5691C37.5432 25.2642 36.8209 25.1197 35.8259 25.1197H34.0284V29.6135Z" fill="white"/>
<path d="M49.4356 38.9863C46.7874 38.9863 45.4553 37.253 45.4553 33.8024V27.8963C45.4553 26.5642 46.1294 25.8901 47.4615 25.8901C48.7936 25.8901 49.4677 26.5642 49.4677 27.8963V33.3049C49.4677 34.1555 49.58 34.7654 49.8207 35.1024C50.0454 35.4234 50.4146 35.5678 50.9442 35.5678C51.3936 35.5678 51.7788 35.4715 52.0837 35.2789C52.4047 35.0864 52.7257 34.7493 53.0787 34.2678V27.8802C53.0787 26.5481 53.7368 25.8741 55.0849 25.8741C56.4331 25.8741 57.0911 26.5481 57.0911 27.8802V37.0444C57.0911 38.1197 56.5294 38.6654 55.3898 38.6654C54.3466 38.6654 53.7368 38.1839 53.5923 37.2209L53.5442 36.8999H53.4479C52.2923 38.2802 50.9602 38.9703 49.4516 38.9703L49.4356 38.9863Z" fill="white"/>
<path d="M63.9284 38.9863C62.6284 38.9863 61.6815 38.5691 61.0716 37.7505C60.542 37.0123 60.2852 35.937 60.2852 34.5086V22.6963C60.2852 21.3803 60.9592 20.7222 62.2913 20.7222C63.6234 20.7222 64.2654 21.3803 64.2654 22.6963V34.6691C64.2654 35.0382 64.3456 35.3271 64.5061 35.5197C64.6185 35.6641 64.779 35.7444 64.9716 35.7444H65.0197C65.132 35.7444 65.2444 35.8086 65.3567 35.9691C65.453 36.0975 65.5012 36.258 65.5333 36.4185C65.6296 36.9481 65.6296 37.4296 65.5333 37.895C65.4049 38.4728 65.1802 38.8098 64.811 38.9061C64.5382 38.9542 64.2493 38.9703 63.9123 38.9703L63.9284 38.9863Z" fill="white"/>
<path d="M73.5259 38.9863C71.6321 38.9863 70.0914 38.3925 68.9037 37.2048C67.6679 35.9851 67.042 34.3481 67.042 32.2777C67.042 30.2073 67.6679 28.6506 68.9037 27.3506C70.0753 26.1469 71.4716 25.553 73.1087 25.553C74.8901 25.553 76.2703 26.1469 77.2494 27.3345C78.1481 28.4419 78.5975 29.9185 78.5975 31.732C78.5975 32.1333 78.5815 32.5024 78.5333 32.8073C78.5012 32.9678 78.4049 33.1123 78.2284 33.2407C78.0518 33.3691 77.8592 33.4333 77.6345 33.4333H70.9099C71.2469 35.0863 72.3222 35.9048 74.1037 35.9048C74.5691 35.9048 75.0185 35.8406 75.4679 35.6962C75.8852 35.5036 76.2703 35.4555 76.6234 35.5678C76.9765 35.6802 77.2654 35.9369 77.4901 36.3382C77.9074 37.1085 77.7469 37.7024 76.9926 38.1357C75.9012 38.6814 74.7457 38.9382 73.5259 38.9382V38.9863ZM70.8296 30.8493H75.195C75.195 29.3728 74.521 28.6185 73.1728 28.6185C72.5951 28.6185 72.0975 28.795 71.6963 29.1641C71.263 29.5493 70.9741 30.111 70.8457 30.8493H70.8296Z" fill="white"/>
<path d="M84.9689 38.9863C83.7331 38.9863 82.4813 38.6493 81.2455 37.9913C80.4591 37.4456 80.3467 36.7876 80.9084 35.9851C81.2134 35.5678 81.5825 35.3271 82.0319 35.2629C82.4492 35.2147 82.8825 35.3431 83.3319 35.616C83.9097 35.8888 84.4875 36.0172 85.0652 36.0172C86.0763 36.0172 86.5739 35.6802 86.5739 35.0061C86.5739 34.7011 86.3652 34.4444 85.964 34.2036C85.7233 34.0592 85.2418 33.8505 84.5195 33.5777C84.3109 33.4814 84.1504 33.4172 84.022 33.3691C81.8072 32.4863 80.6998 31.2345 80.6998 29.6135C80.6998 28.3938 81.1492 27.4148 82.064 26.6765C82.9628 25.9222 84.1665 25.553 85.643 25.553C86.8628 25.553 88.0022 25.858 89.1096 26.4518C89.5109 26.7246 89.7356 27.0135 89.7677 27.3345C89.7677 27.6395 89.6393 27.9925 89.3183 28.4098C89.0294 28.779 88.6924 29.0036 88.2911 29.0678C87.8899 29.132 87.4887 29.0357 87.0714 28.795C86.606 28.6024 86.1726 28.5061 85.7875 28.5061C84.8887 28.5061 84.4393 28.811 84.4393 29.4209C84.4393 29.7259 84.6319 29.9826 85.0171 30.2073C85.2578 30.3357 85.7232 30.5283 86.4294 30.7691C86.6541 30.8493 86.8146 30.8975 86.9269 30.9456C87.938 31.3308 88.7084 31.7641 89.222 32.2296C89.9442 32.9036 90.2973 33.7542 90.2973 34.7974C90.2973 36.0332 89.8479 37.0122 88.9492 37.7666C87.9862 38.569 86.6702 38.9863 84.9689 38.9863Z" fill="white"/>
<path d="M102.399 38.9863C100.617 38.9863 99.2048 38.5048 98.1455 37.5258C97.1986 36.6431 96.7332 35.5196 96.7332 34.1715C96.7332 33.0962 97.0381 32.1493 97.6479 31.3147C98.1134 30.6728 98.8195 30.0629 99.7664 29.4691C99.0924 28.2172 98.7553 27.0617 98.7553 26.0345C98.7553 24.7987 99.1726 23.7716 100.007 22.937C100.842 22.1024 102.013 21.637 103.394 21.637C104.678 21.637 105.705 21.9901 106.475 22.6802C107.245 23.3703 107.615 24.3172 107.615 25.4728C107.615 26.4678 107.261 27.3826 106.539 28.2172C106.042 28.795 105.255 29.453 104.164 30.1913C105.031 31.1703 106.106 32.1172 107.374 33.0481C107.887 32.39 108.337 31.5876 108.738 30.6407C109.059 29.6456 109.733 29.132 110.744 29.132C112.189 29.132 112.654 29.8061 112.157 31.1703C111.611 32.4061 110.937 33.5937 110.118 34.7172C110.552 34.9419 110.937 35.1184 111.29 35.2629C111.868 35.4234 112.253 35.6962 112.429 36.0493C112.606 36.4024 112.622 36.8838 112.445 37.4937C112.157 38.4888 111.547 38.8579 110.584 38.6172C109.637 38.3122 108.674 37.8789 107.663 37.3172C106.154 38.4246 104.389 38.9863 102.382 38.9863H102.399ZM102.896 35.9369C103.522 35.9369 104.18 35.7443 104.854 35.3752C104.212 34.8456 103.618 34.332 103.105 33.8024C102.543 33.2406 102.029 32.6789 101.532 32.1011C100.874 32.7271 100.537 33.3369 100.537 33.9468C100.537 34.5567 100.745 35.0221 101.179 35.3913C101.612 35.7604 102.174 35.9369 102.896 35.9369ZM102.559 27.9283C103.217 27.5592 103.699 27.1901 104.003 26.853C104.389 26.4357 104.581 25.9703 104.581 25.4888C104.581 24.6864 104.212 24.2691 103.474 24.2691C103.073 24.2691 102.736 24.4296 102.463 24.7345C102.174 25.0715 102.029 25.5049 102.029 26.0345C102.029 26.6283 102.206 27.2703 102.543 27.9283H102.559Z" fill="white"/>
<path d="M122.572 38.6814C121.224 38.6814 120.55 38.0234 120.55 36.6752V23.4185C120.55 22.9852 120.678 22.6321 120.951 22.3592C121.224 22.0864 121.577 21.958 122.011 21.958H126.408C128.446 21.958 130.019 22.3432 131.143 23.1296C132.459 24.0444 133.117 25.4728 133.117 27.3987C133.117 29.3246 132.459 30.737 131.143 31.7641C129.955 32.6789 128.414 33.1283 126.52 33.1283H124.562V36.6752C124.562 38.0073 123.888 38.6814 122.556 38.6814H122.572ZM124.578 29.9506H126.328C128.254 29.9506 129.233 29.1 129.233 27.3827C129.233 26.5802 128.976 25.9864 128.446 25.6012C127.965 25.2642 127.227 25.1037 126.215 25.1037H124.578V29.9345V29.9506Z" fill="white"/>
<path d="M137.675 38.6814C136.343 38.6814 135.669 38.0234 135.669 36.7073V27.5111C135.669 26.4358 136.23 25.8901 137.354 25.8901C138.413 25.8901 139.007 26.3876 139.103 27.3666L139.2 28.1049H139.296C139.745 27.2864 140.307 26.6444 140.981 26.195C141.607 25.7777 142.265 25.5691 142.939 25.5691H143.051C143.533 25.6654 143.854 25.9061 144.046 26.2913C144.207 26.6604 144.239 27.1098 144.143 27.6395C144.046 28.1049 143.87 28.474 143.581 28.7469C143.276 29.0357 142.923 29.1481 142.474 29.0839H142.425C141.896 29.0839 141.414 29.2604 140.949 29.5975C140.403 29.9987 139.986 30.5925 139.665 31.3789V36.7073C139.665 38.0234 139.007 38.6814 137.691 38.6814H137.675Z" fill="white"/>
<path d="M148.107 24.1086C147.433 24.1086 146.887 23.916 146.454 23.5308C146.02 23.1457 145.812 22.6481 145.812 22.0543C145.812 21.4605 146.02 20.9469 146.454 20.5778C146.887 20.1926 147.433 20 148.107 20C148.781 20 149.327 20.1926 149.744 20.5778C150.161 20.9469 150.37 21.4444 150.37 22.0543C150.37 22.6642 150.161 23.1457 149.728 23.5308C149.294 23.916 148.765 24.1086 148.091 24.1086H148.107ZM148.107 38.6814C146.775 38.6814 146.101 38.0234 146.101 36.7073V27.8802C146.101 26.5642 146.775 25.9061 148.107 25.9061C149.439 25.9061 150.081 26.5642 150.081 27.8802V36.7073C150.081 38.0234 149.423 38.6814 148.107 38.6814Z" fill="white"/>
<path d="M154.125 38.6814C153.692 38.6814 153.339 38.553 153.082 38.2802C152.825 38.0073 152.697 37.6703 152.697 37.237V37.1728C152.697 36.7394 152.809 36.3543 153.05 36.0333L157.881 29.0197H154.832C153.804 29.0197 153.275 28.4901 153.275 27.4469C153.275 26.4037 153.788 25.8901 154.832 25.8901H161.444C161.877 25.8901 162.23 26.0185 162.487 26.2753C162.744 26.5321 162.888 26.8852 162.888 27.3185V27.3827C162.888 27.816 162.776 28.2012 162.535 28.5222L157.704 35.5357H161.508C162.535 35.5357 163.065 36.0493 163.065 37.0925C163.065 38.1357 162.551 38.6654 161.508 38.6654H154.158L154.125 38.6814Z" fill="white"/>
<path d="M170.768 38.9863C168.875 38.9863 167.334 38.3925 166.146 37.2048C164.91 35.9851 164.284 34.3481 164.284 32.2777C164.284 30.2073 164.91 28.6506 166.146 27.3506C167.318 26.1469 168.714 25.553 170.351 25.553C172.133 25.553 173.513 26.1469 174.492 27.3345C175.391 28.4419 175.84 29.9185 175.84 31.732C175.84 32.1333 175.824 32.5024 175.776 32.8073C175.744 32.9678 175.647 33.1123 175.471 33.2407C175.294 33.3691 175.102 33.4333 174.877 33.4333H168.152C168.489 35.0863 169.565 35.9048 171.346 35.9048C171.812 35.9048 172.261 35.8406 172.71 35.6962C173.128 35.5036 173.513 35.4555 173.866 35.5678C174.219 35.6802 174.508 35.9369 174.733 36.3382C175.15 37.1085 174.989 37.7024 174.235 38.1357C173.144 38.6814 171.988 38.9382 170.768 38.9382V38.9863ZM168.072 30.8493H172.437C172.437 29.3728 171.763 28.6185 170.415 28.6185C169.837 28.6185 169.34 28.795 168.939 29.1641C168.505 29.5493 168.216 30.111 168.088 30.8493H168.072Z" fill="white"/>
<path d="M182.212 38.9863C180.976 38.9863 179.724 38.6493 178.488 37.9913C177.702 37.4456 177.573 36.7876 178.151 35.9851C178.456 35.5678 178.825 35.3271 179.275 35.2629C179.692 35.2147 180.125 35.3431 180.575 35.616C181.152 35.8888 181.73 36.0172 182.308 36.0172C183.319 36.0172 183.817 35.6802 183.817 35.0061C183.817 34.7011 183.608 34.4444 183.207 34.2036C182.966 34.0592 182.484 33.8505 181.762 33.5777C181.554 33.4814 181.393 33.4172 181.265 33.3691C179.05 32.4863 177.943 31.2345 177.943 29.6135C177.943 28.3938 178.392 27.4148 179.307 26.6765C180.205 25.9222 181.409 25.553 182.886 25.553C184.105 25.553 185.245 25.858 186.352 26.4518C186.754 26.7246 186.978 27.0135 187.01 27.3345C187.01 27.6395 186.882 27.9925 186.561 28.4098C186.272 28.779 185.935 29.0036 185.534 29.0678C185.133 29.132 184.731 29.0357 184.314 28.795C183.849 28.6024 183.415 28.5061 183.03 28.5061C182.131 28.5061 181.682 28.811 181.682 29.4209C181.682 29.7259 181.875 29.9826 182.26 30.2073C182.5 30.3357 182.966 30.5283 183.672 30.7691C183.897 30.8493 184.057 30.8975 184.17 30.9456C185.181 31.3308 185.951 31.7641 186.465 32.2296C187.187 32.9036 187.54 33.7542 187.54 34.7974C187.54 36.0332 187.091 37.0122 186.192 37.7666C185.229 38.569 183.913 38.9863 182.212 38.9863Z" fill="white"/>
</svg>
