<svg width="218" height="60" viewBox="0 0 218 60" fill="none" xmlns="http://www.w3.org/2000/svg">
<path d="M193.903 0H24.0966C10.7884 0 0 11.0999 0 24.7922V35.2078C0 48.9001 10.7884 60 24.0966 60H193.903C207.212 60 218 48.9001 218 35.2078V24.7922C218 11.0999 207.212 0 193.903 0Z" fill="#FF671D"/>
<path d="M24.0967 1H193.903C206.632 1 217 11.625 217 24.792V35.208C217 48.375 206.632 59 193.903 59H24.0967C11.3675 59 1.00013 48.375 1 35.208V24.792L1.00781 24.1768C1.32489 11.2956 11.5664 1 24.0967 1Z" stroke="#DC501B" stroke-width="2" stroke-miterlimit="10"/>
<mask id="path-3-outside-1_139_1877" maskUnits="userSpaceOnUse" x="61" y="18.8984" width="95" height="23" fill="black">
<rect fill="white" x="61" y="18.8984" width="95" height="23"/>
<path d="M65.7734 41.2969C65.1641 41.2969 64.8594 40.9609 64.8594 40.2891V31.3828C63.875 32.5234 63.2031 33.0938 62.8438 33.0938C62.2812 33.0938 62 32.7578 62 32.0859C62 31.7734 62.1719 31.4453 62.5156 31.1016C64.1562 29.4609 65.4922 27.8438 66.5234 26.25C66.9766 25.5469 67.3828 25.1953 67.7422 25.1953C68.3672 25.1953 68.6797 25.4766 68.6797 26.0391C68.6797 26.4453 68.0234 27.4844 66.7109 29.1562V40.2891C66.7109 40.9609 66.3984 41.2969 65.7734 41.2969ZM73.25 39.5625C72.9531 39.5625 72.4922 39.1719 71.8672 38.3906L71.0938 37.5938C70.7969 37.2656 70.6484 37.0078 70.6484 36.8203C70.6484 36.2734 70.9453 36 71.5391 36C71.6953 36 71.8984 36.0859 72.1484 36.2578C72.3984 36.4297 72.7188 36.7031 73.1094 37.0781C73.8438 37.7656 74.2109 38.2812 74.2109 38.625C74.2109 39.25 73.8906 39.5625 73.25 39.5625ZM68.7969 35.25C68.1406 35.25 67.8125 34.9688 67.8125 34.4062C67.8125 33.8438 68.1406 33.5625 68.7969 33.5625H78.5938V35.25H68.7969ZM76.2969 41.2266C75.5625 41.2266 75.1953 40.9141 75.1953 40.2891C75.1953 39.9609 75.2812 39.7188 75.4531 39.5625C75.6406 39.4062 75.9219 39.3281 76.2969 39.3281H77.3047C77.8359 39.3281 78.1172 39.0391 78.1484 38.4609V31.3828H80.0234V39C80.0234 39.8125 79.8438 40.3984 79.4844 40.7578C79.125 41.1328 78.5469 41.2891 77.75 41.2266H76.2969ZM62.9844 25.3594C62.3438 25.3594 62.0234 25.0234 62.0234 24.3516C62.0234 23.9609 62.3828 23.5469 63.1016 23.1094C64.2109 22.4531 65.1719 21.75 65.9844 21C66.4062 20.6094 66.7422 20.3359 66.9922 20.1797C67.2578 20.0078 67.4844 19.9219 67.6719 19.9219C67.9219 19.9219 68.125 20.0078 68.2812 20.1797C68.4375 20.3359 68.5156 20.5703 68.5156 20.8828C68.5156 21.1328 68.3125 21.4766 67.9062 21.9141C67.5156 22.3359 66.9062 22.8672 66.0781 23.5078C64.5 24.7422 63.4688 25.3594 62.9844 25.3594ZM69.7812 31.7578C69.1406 31.7578 68.8203 31.4844 68.8203 30.9375C68.8203 30.3906 69.1406 30.1172 69.7812 30.1172H81.8047C82.4297 30.1172 82.7422 30.3906 82.7422 30.9375C82.7422 31.4844 82.4297 31.7578 81.8047 31.7578H69.7812ZM79.625 33.5625H82.4609C83.1016 33.5625 83.4219 33.8438 83.4219 34.4062C83.4219 34.9688 83.1016 35.25 82.4609 35.25H79.625V33.5625ZM79.1797 27.2344C79.4141 27.2344 79.5938 27.1719 79.7188 27.0469C79.8438 26.9062 79.9141 26.7188 79.9297 26.4844V25.2656H71.9375V26.4844C71.9375 26.9531 72.1875 27.2031 72.6875 27.2344H79.1797ZM72.0781 28.7344C71.3594 28.7344 70.8281 28.5781 70.4844 28.2656C70.1562 27.9375 70.0234 27.4297 70.0859 26.7422V22.5469C69.9609 21.1875 70.625 20.5312 72.0781 20.5781H79.8359C80.5547 20.5781 81.0781 20.7422 81.4062 21.0703C81.7344 21.3828 81.875 21.875 81.8281 22.5469V26.7422C81.8281 27.4453 81.6719 27.9609 81.3594 28.2891C81.0469 28.6016 80.5391 28.75 79.8359 28.7344H72.0781ZM79.9297 23.8594V22.8281C79.9297 22.3594 79.6797 22.1094 79.1797 22.0781H72.6875C72.2188 22.0781 71.9688 22.3281 71.9375 22.8281V23.8594H79.9297Z"/>
<path d="M86.9609 41.25C86.6484 41.25 86.4141 41.1797 86.2578 41.0391C86.1172 40.8984 86.0469 40.6719 86.0469 40.3594C86.0469 40.1094 86.0938 39.9141 86.1875 39.7734C86.2812 39.6484 86.4375 39.5547 86.6562 39.4922L88.4375 39.1875C90.2344 38.875 91.6328 38.4531 92.6328 37.9219C93.7734 37.3125 94.5469 36.625 94.9531 35.8594H87.2422C86.6016 35.8594 86.2812 35.5859 86.2812 35.0391C86.2812 34.4609 86.6016 34.1719 87.2422 34.1719H95.4688L95.5391 33C95.5859 32.3906 95.9141 32.0859 96.5234 32.0859C97.1641 32.0859 97.4844 32.4141 97.4844 33.0703L97.3906 34.1719H106.156C106.797 34.1719 107.117 34.4609 107.117 35.0391C107.117 35.5859 106.797 35.8594 106.156 35.8594H97.9297C99.3672 37.625 102.148 38.7656 106.273 39.2812C106.633 39.3281 106.898 39.4219 107.07 39.5625C107.258 39.7188 107.352 39.9453 107.352 40.2422C107.352 40.8828 107 41.2031 106.297 41.2031C104.625 41.2031 102.836 40.8047 100.93 40.0078C98.9609 39.1953 97.4922 38.0547 96.5234 36.5859C95.6328 38.1016 94.2422 39.2578 92.3516 40.0547C90.4609 40.8516 88.6641 41.25 86.9609 41.25ZM92.3281 33.1406C91.7812 33.1406 91.5078 32.7812 91.5078 32.0625V28.5234H89.8438C89.7031 30.0859 89.2891 31.2266 88.6016 31.9453C87.9297 32.6484 87.3594 33 86.8906 33C86.625 33 86.4297 32.9375 86.3047 32.8125C86.1797 32.6719 86.1172 32.4531 86.1172 32.1562C86.1172 31.9062 86.2812 31.6797 86.6094 31.4766C87.6094 30.8672 88.1562 29.9062 88.25 28.5938L88.2734 28.5234H86.9141C86.3672 28.5234 86.0938 28.2578 86.0938 27.7266C86.0938 27.1953 86.3672 26.9297 86.9141 26.9297H91.5078V25.1719H88.8828C87.7422 25.1719 87.1719 24.5938 87.1719 23.4375V21.4688C87.1719 20.8906 87.4375 20.6016 87.9688 20.6016C88.5156 20.6016 88.7891 20.8906 88.7891 21.4688V22.9453C88.7891 23.1641 88.8438 23.3359 88.9531 23.4609C89.0781 23.5703 89.25 23.625 89.4688 23.625H91.5078V20.9531C91.5078 20.2656 91.7812 19.9219 92.3281 19.9219C92.9062 19.9219 93.1953 20.2656 93.1953 20.9531V32.0625C93.1953 32.7812 92.9062 33.1406 92.3281 33.1406ZM98.0703 31.9688C97.8203 31.9688 97.5469 31.8203 97.25 31.5234L96.5703 30.9609C96.3672 30.7891 96.2188 30.6484 96.125 30.5391C96.0469 30.4141 96.0078 30.2891 96.0078 30.1641C96.0078 29.6172 96.2891 29.3438 96.8516 29.3438C97.1016 29.3438 97.5156 29.5547 98.0938 29.9766C98.6719 30.3984 98.9609 30.7812 98.9609 31.125C98.9609 31.6875 98.6641 31.9688 98.0703 31.9688ZM103.578 34.1484C103.312 34.1484 103.078 34.0703 102.875 33.9141L102.336 33.5625C101.961 33.3281 101.773 33.1016 101.773 32.8828C101.773 32.6016 101.906 32.375 102.172 32.2031H100.883C100.242 32.2031 99.9219 31.9219 99.9219 31.3594C99.9219 30.7969 100.242 30.5156 100.883 30.5156H101.75C102.281 30.5156 102.562 30.2422 102.594 29.6953V28.9688H94.8359C94.2578 28.9688 93.9688 28.7031 93.9688 28.1719C93.9688 27.6406 94.2578 27.375 94.8359 27.375H102.594V26.3438C102.594 25.7812 102.883 25.5 103.461 25.5C104.055 25.5 104.352 25.7812 104.352 26.3438V27.375H106.602C107.148 27.375 107.422 27.6406 107.422 28.1719C107.422 28.7031 107.148 28.9688 106.602 28.9688H104.352V30.0234C104.352 30.6641 104.227 31.1641 103.977 31.5234C103.742 31.8672 103.359 32.0859 102.828 32.1797C103 32.2422 103.195 32.3438 103.414 32.4844C103.633 32.625 103.781 32.7188 103.859 32.7656C104.219 32.9844 104.398 33.2109 104.398 33.4453C104.398 33.9141 104.125 34.1484 103.578 34.1484ZM94.3203 27.0938C93.8984 27.1406 93.6875 26.9219 93.6875 26.4375C93.6875 26.25 93.7656 26.1094 93.9219 26.0156C94.0781 25.9062 94.3203 25.8359 94.6484 25.8047C95.2891 25.7422 96 25.625 96.7812 25.4531L96.3594 25.2188C95.6094 24.8125 95.2344 24.5234 95.2344 24.3516C95.2344 24.0078 95.4375 23.8359 95.8438 23.8359C96.1719 23.8359 96.9688 24.2422 98.2344 25.0547L98.3047 25.0781L100.062 24.5625L98.2578 23.6953C98.1328 23.6328 98.0234 23.5703 97.9297 23.5078C97.8359 23.4453 97.7891 23.375 97.7891 23.2969C97.7891 22.9688 98.0078 22.8047 98.4453 22.8047C98.8828 22.8047 99.9609 23.1953 101.68 23.9766L104.469 22.5703H97.25C95.5938 23.5078 94.6016 23.9766 94.2734 23.9766C93.8203 23.9766 93.5938 23.7344 93.5938 23.25C93.5938 22.9375 94.1484 22.5469 95.2578 22.0781C96.2422 21.6719 97.2578 21.0938 98.3047 20.3438C98.7109 20.0469 99.0547 19.8984 99.3359 19.8984C99.9609 19.8984 100.273 20.0703 100.273 20.4141C100.273 20.5703 99.9766 20.8516 99.3828 21.2578H105.711C106.617 21.2578 107.07 21.5078 107.07 22.0078C107.07 22.2578 106.391 22.8281 105.031 23.7188C102.844 25.1562 100.016 26.1641 96.5469 26.7422L94.8828 27.0234L94.3203 27.0938Z"/>
<path d="M117.055 40.4062C116.211 40.4062 115.594 40.2188 115.203 39.8438C114.828 39.4844 114.672 38.8984 114.734 38.0859V33.3516C112.469 34.3672 111.195 34.875 110.914 34.875C110.367 34.875 110.094 34.5469 110.094 33.8906C110.094 33.4531 110.617 33.0469 111.664 32.6719C114.117 31.7812 116.25 30.7969 118.062 29.7188C117.688 29.2812 116.875 28.625 115.625 27.75C115.266 27.4844 115.086 27.2344 115.086 27C115.086 26.4062 115.422 26.1094 116.094 26.1094C116.391 26.1094 116.891 26.3672 117.594 26.8828L119.82 28.6406C121.773 27.3438 123.219 26.2734 124.156 25.4297L125.141 24.6094C125.328 24.4688 125.422 24.3281 125.422 24.1875C125.422 23.9844 125.305 23.8828 125.07 23.8828H116.914C115.336 25.4609 114.094 26.5469 113.188 27.1406C112.078 27.875 111.375 28.2422 111.078 28.2422C110.547 28.2422 110.281 27.9375 110.281 27.3281C110.281 27.0469 110.391 26.8203 110.609 26.6484H110.586L112.203 25.5469C114.203 24.1875 115.938 22.5547 117.406 20.6484C117.766 20.1953 118.141 19.9688 118.531 19.9688C119.25 19.9688 119.609 20.2031 119.609 20.6719C119.609 20.9531 119.297 21.4375 118.672 22.125H126.945C127.508 22.125 127.922 22.2188 128.188 22.4062C128.453 22.5781 128.586 22.8438 128.586 23.2031C128.586 23.7656 127.508 24.9453 125.352 26.7422C123.273 28.4609 121.078 29.9609 118.766 31.2422L118.812 31.4062H127.391C129.109 31.2812 129.906 32.0703 129.781 33.7734V38.0625C129.906 39.75 129.109 40.5312 127.391 40.4062H117.055ZM126.711 38.6719C127.461 38.6719 127.836 38.2891 127.836 37.5234V34.2891C127.836 33.5391 127.461 33.1641 126.711 33.1641H117.242C116.82 33.1641 116.594 33.3828 116.562 33.8203V37.5469C116.562 37.9062 116.656 38.1875 116.844 38.3906C117.047 38.5781 117.328 38.6719 117.688 38.6719H126.711Z"/>
<path d="M144.664 41.2734C144.039 41.2734 143.727 40.9531 143.727 40.3125V37.6875H134.961C134.336 37.6875 134.023 37.4141 134.023 36.8672C134.023 36.3047 134.336 36.0234 134.961 36.0234H143.727V34.5938H138.078C137.328 34.5938 136.789 34.4375 136.461 34.125C136.133 33.8125 135.992 33.3125 136.039 32.625V28.875C136.039 28.1562 136.195 27.6328 136.508 27.3047C136.836 26.9766 137.359 26.8359 138.078 26.8828H151.32C152.07 26.8828 152.609 27.0469 152.938 27.375C153.266 27.6875 153.406 28.1875 153.359 28.875V32.625C153.359 33.3281 153.195 33.8438 152.867 34.1719C152.555 34.4844 152.039 34.625 151.32 34.5938H145.578V36.0234H154.438C155.078 36.0234 155.398 36.3047 155.398 36.8672C155.398 37.4141 155.078 37.6875 154.438 37.6875H145.578V40.3125C145.578 40.9531 145.273 41.2734 144.664 41.2734ZM143.75 33.1406V31.3594H137.867V32.4375C137.867 32.875 138.102 33.1094 138.57 33.1406H143.75ZM143.75 30.0234V28.3359H138.57C138.102 28.3359 137.867 28.5625 137.867 29.0156V30.0234H143.75ZM150.805 33.1406C151.023 33.1406 151.188 33.0781 151.297 32.9531C151.422 32.8281 151.492 32.6562 151.508 32.4375V31.3594H145.555V33.1406H150.805ZM137.047 25.7578C135.828 25.7578 135.219 25.1484 135.219 23.9297V22.4531C135.219 21.25 135.828 20.6484 137.047 20.6484H141.945C143.148 20.6484 143.75 21.25 143.75 22.4531V23.9297C143.75 25.1484 143.164 25.7578 141.992 25.7578H137.047ZM141.266 24.1875C141.656 24.1875 141.867 23.9766 141.898 23.5547V22.875C141.898 22.4688 141.688 22.25 141.266 22.2188H137.703C137.312 22.2188 137.102 22.4375 137.07 22.875V23.5547C137.07 23.9453 137.281 24.1562 137.703 24.1875H141.266ZM151.508 30.0234V29.0156C151.508 28.5938 151.273 28.3672 150.805 28.3359H145.555V30.0234H151.508ZM147.242 25.7578C146.055 25.7578 145.461 25.1641 145.461 23.9766V22.4531C145.461 21.25 146.055 20.6484 147.242 20.6484H152.375C153.578 20.6484 154.18 21.25 154.18 22.4531V23.9297C154.18 25.1484 153.586 25.7578 152.398 25.7578H147.242ZM151.695 24.1875C151.898 24.1875 152.055 24.1328 152.164 24.0234C152.273 23.8984 152.336 23.7422 152.352 23.5547V22.875C152.352 22.4688 152.133 22.25 151.695 22.2188H147.922C147.719 22.2188 147.562 22.2812 147.453 22.4062C147.344 22.5156 147.289 22.6719 147.289 22.875V23.5547C147.289 23.9453 147.5 24.1562 147.922 24.1875H151.695Z"/>
</mask>
<path d="M65.7734 41.2969C65.1641 41.2969 64.8594 40.9609 64.8594 40.2891V31.3828C63.875 32.5234 63.2031 33.0938 62.8438 33.0938C62.2812 33.0938 62 32.7578 62 32.0859C62 31.7734 62.1719 31.4453 62.5156 31.1016C64.1562 29.4609 65.4922 27.8438 66.5234 26.25C66.9766 25.5469 67.3828 25.1953 67.7422 25.1953C68.3672 25.1953 68.6797 25.4766 68.6797 26.0391C68.6797 26.4453 68.0234 27.4844 66.7109 29.1562V40.2891C66.7109 40.9609 66.3984 41.2969 65.7734 41.2969ZM73.25 39.5625C72.9531 39.5625 72.4922 39.1719 71.8672 38.3906L71.0938 37.5938C70.7969 37.2656 70.6484 37.0078 70.6484 36.8203C70.6484 36.2734 70.9453 36 71.5391 36C71.6953 36 71.8984 36.0859 72.1484 36.2578C72.3984 36.4297 72.7188 36.7031 73.1094 37.0781C73.8438 37.7656 74.2109 38.2812 74.2109 38.625C74.2109 39.25 73.8906 39.5625 73.25 39.5625ZM68.7969 35.25C68.1406 35.25 67.8125 34.9688 67.8125 34.4062C67.8125 33.8438 68.1406 33.5625 68.7969 33.5625H78.5938V35.25H68.7969ZM76.2969 41.2266C75.5625 41.2266 75.1953 40.9141 75.1953 40.2891C75.1953 39.9609 75.2812 39.7188 75.4531 39.5625C75.6406 39.4062 75.9219 39.3281 76.2969 39.3281H77.3047C77.8359 39.3281 78.1172 39.0391 78.1484 38.4609V31.3828H80.0234V39C80.0234 39.8125 79.8438 40.3984 79.4844 40.7578C79.125 41.1328 78.5469 41.2891 77.75 41.2266H76.2969ZM62.9844 25.3594C62.3438 25.3594 62.0234 25.0234 62.0234 24.3516C62.0234 23.9609 62.3828 23.5469 63.1016 23.1094C64.2109 22.4531 65.1719 21.75 65.9844 21C66.4062 20.6094 66.7422 20.3359 66.9922 20.1797C67.2578 20.0078 67.4844 19.9219 67.6719 19.9219C67.9219 19.9219 68.125 20.0078 68.2812 20.1797C68.4375 20.3359 68.5156 20.5703 68.5156 20.8828C68.5156 21.1328 68.3125 21.4766 67.9062 21.9141C67.5156 22.3359 66.9062 22.8672 66.0781 23.5078C64.5 24.7422 63.4688 25.3594 62.9844 25.3594ZM69.7812 31.7578C69.1406 31.7578 68.8203 31.4844 68.8203 30.9375C68.8203 30.3906 69.1406 30.1172 69.7812 30.1172H81.8047C82.4297 30.1172 82.7422 30.3906 82.7422 30.9375C82.7422 31.4844 82.4297 31.7578 81.8047 31.7578H69.7812ZM79.625 33.5625H82.4609C83.1016 33.5625 83.4219 33.8438 83.4219 34.4062C83.4219 34.9688 83.1016 35.25 82.4609 35.25H79.625V33.5625ZM79.1797 27.2344C79.4141 27.2344 79.5938 27.1719 79.7188 27.0469C79.8438 26.9062 79.9141 26.7188 79.9297 26.4844V25.2656H71.9375V26.4844C71.9375 26.9531 72.1875 27.2031 72.6875 27.2344H79.1797ZM72.0781 28.7344C71.3594 28.7344 70.8281 28.5781 70.4844 28.2656C70.1562 27.9375 70.0234 27.4297 70.0859 26.7422V22.5469C69.9609 21.1875 70.625 20.5312 72.0781 20.5781H79.8359C80.5547 20.5781 81.0781 20.7422 81.4062 21.0703C81.7344 21.3828 81.875 21.875 81.8281 22.5469V26.7422C81.8281 27.4453 81.6719 27.9609 81.3594 28.2891C81.0469 28.6016 80.5391 28.75 79.8359 28.7344H72.0781ZM79.9297 23.8594V22.8281C79.9297 22.3594 79.6797 22.1094 79.1797 22.0781H72.6875C72.2188 22.0781 71.9688 22.3281 71.9375 22.8281V23.8594H79.9297Z" fill="white"/>
<path d="M86.9609 41.25C86.6484 41.25 86.4141 41.1797 86.2578 41.0391C86.1172 40.8984 86.0469 40.6719 86.0469 40.3594C86.0469 40.1094 86.0938 39.9141 86.1875 39.7734C86.2812 39.6484 86.4375 39.5547 86.6562 39.4922L88.4375 39.1875C90.2344 38.875 91.6328 38.4531 92.6328 37.9219C93.7734 37.3125 94.5469 36.625 94.9531 35.8594H87.2422C86.6016 35.8594 86.2812 35.5859 86.2812 35.0391C86.2812 34.4609 86.6016 34.1719 87.2422 34.1719H95.4688L95.5391 33C95.5859 32.3906 95.9141 32.0859 96.5234 32.0859C97.1641 32.0859 97.4844 32.4141 97.4844 33.0703L97.3906 34.1719H106.156C106.797 34.1719 107.117 34.4609 107.117 35.0391C107.117 35.5859 106.797 35.8594 106.156 35.8594H97.9297C99.3672 37.625 102.148 38.7656 106.273 39.2812C106.633 39.3281 106.898 39.4219 107.07 39.5625C107.258 39.7188 107.352 39.9453 107.352 40.2422C107.352 40.8828 107 41.2031 106.297 41.2031C104.625 41.2031 102.836 40.8047 100.93 40.0078C98.9609 39.1953 97.4922 38.0547 96.5234 36.5859C95.6328 38.1016 94.2422 39.2578 92.3516 40.0547C90.4609 40.8516 88.6641 41.25 86.9609 41.25ZM92.3281 33.1406C91.7812 33.1406 91.5078 32.7812 91.5078 32.0625V28.5234H89.8438C89.7031 30.0859 89.2891 31.2266 88.6016 31.9453C87.9297 32.6484 87.3594 33 86.8906 33C86.625 33 86.4297 32.9375 86.3047 32.8125C86.1797 32.6719 86.1172 32.4531 86.1172 32.1562C86.1172 31.9062 86.2812 31.6797 86.6094 31.4766C87.6094 30.8672 88.1562 29.9062 88.25 28.5938L88.2734 28.5234H86.9141C86.3672 28.5234 86.0938 28.2578 86.0938 27.7266C86.0938 27.1953 86.3672 26.9297 86.9141 26.9297H91.5078V25.1719H88.8828C87.7422 25.1719 87.1719 24.5938 87.1719 23.4375V21.4688C87.1719 20.8906 87.4375 20.6016 87.9688 20.6016C88.5156 20.6016 88.7891 20.8906 88.7891 21.4688V22.9453C88.7891 23.1641 88.8438 23.3359 88.9531 23.4609C89.0781 23.5703 89.25 23.625 89.4688 23.625H91.5078V20.9531C91.5078 20.2656 91.7812 19.9219 92.3281 19.9219C92.9062 19.9219 93.1953 20.2656 93.1953 20.9531V32.0625C93.1953 32.7812 92.9062 33.1406 92.3281 33.1406ZM98.0703 31.9688C97.8203 31.9688 97.5469 31.8203 97.25 31.5234L96.5703 30.9609C96.3672 30.7891 96.2188 30.6484 96.125 30.5391C96.0469 30.4141 96.0078 30.2891 96.0078 30.1641C96.0078 29.6172 96.2891 29.3438 96.8516 29.3438C97.1016 29.3438 97.5156 29.5547 98.0938 29.9766C98.6719 30.3984 98.9609 30.7812 98.9609 31.125C98.9609 31.6875 98.6641 31.9688 98.0703 31.9688ZM103.578 34.1484C103.312 34.1484 103.078 34.0703 102.875 33.9141L102.336 33.5625C101.961 33.3281 101.773 33.1016 101.773 32.8828C101.773 32.6016 101.906 32.375 102.172 32.2031H100.883C100.242 32.2031 99.9219 31.9219 99.9219 31.3594C99.9219 30.7969 100.242 30.5156 100.883 30.5156H101.75C102.281 30.5156 102.562 30.2422 102.594 29.6953V28.9688H94.8359C94.2578 28.9688 93.9688 28.7031 93.9688 28.1719C93.9688 27.6406 94.2578 27.375 94.8359 27.375H102.594V26.3438C102.594 25.7812 102.883 25.5 103.461 25.5C104.055 25.5 104.352 25.7812 104.352 26.3438V27.375H106.602C107.148 27.375 107.422 27.6406 107.422 28.1719C107.422 28.7031 107.148 28.9688 106.602 28.9688H104.352V30.0234C104.352 30.6641 104.227 31.1641 103.977 31.5234C103.742 31.8672 103.359 32.0859 102.828 32.1797C103 32.2422 103.195 32.3438 103.414 32.4844C103.633 32.625 103.781 32.7188 103.859 32.7656C104.219 32.9844 104.398 33.2109 104.398 33.4453C104.398 33.9141 104.125 34.1484 103.578 34.1484ZM94.3203 27.0938C93.8984 27.1406 93.6875 26.9219 93.6875 26.4375C93.6875 26.25 93.7656 26.1094 93.9219 26.0156C94.0781 25.9062 94.3203 25.8359 94.6484 25.8047C95.2891 25.7422 96 25.625 96.7812 25.4531L96.3594 25.2188C95.6094 24.8125 95.2344 24.5234 95.2344 24.3516C95.2344 24.0078 95.4375 23.8359 95.8438 23.8359C96.1719 23.8359 96.9688 24.2422 98.2344 25.0547L98.3047 25.0781L100.062 24.5625L98.2578 23.6953C98.1328 23.6328 98.0234 23.5703 97.9297 23.5078C97.8359 23.4453 97.7891 23.375 97.7891 23.2969C97.7891 22.9688 98.0078 22.8047 98.4453 22.8047C98.8828 22.8047 99.9609 23.1953 101.68 23.9766L104.469 22.5703H97.25C95.5938 23.5078 94.6016 23.9766 94.2734 23.9766C93.8203 23.9766 93.5938 23.7344 93.5938 23.25C93.5938 22.9375 94.1484 22.5469 95.2578 22.0781C96.2422 21.6719 97.2578 21.0938 98.3047 20.3438C98.7109 20.0469 99.0547 19.8984 99.3359 19.8984C99.9609 19.8984 100.273 20.0703 100.273 20.4141C100.273 20.5703 99.9766 20.8516 99.3828 21.2578H105.711C106.617 21.2578 107.07 21.5078 107.07 22.0078C107.07 22.2578 106.391 22.8281 105.031 23.7188C102.844 25.1562 100.016 26.1641 96.5469 26.7422L94.8828 27.0234L94.3203 27.0938Z" fill="white"/>
<path d="M117.055 40.4062C116.211 40.4062 115.594 40.2188 115.203 39.8438C114.828 39.4844 114.672 38.8984 114.734 38.0859V33.3516C112.469 34.3672 111.195 34.875 110.914 34.875C110.367 34.875 110.094 34.5469 110.094 33.8906C110.094 33.4531 110.617 33.0469 111.664 32.6719C114.117 31.7812 116.25 30.7969 118.062 29.7188C117.688 29.2812 116.875 28.625 115.625 27.75C115.266 27.4844 115.086 27.2344 115.086 27C115.086 26.4062 115.422 26.1094 116.094 26.1094C116.391 26.1094 116.891 26.3672 117.594 26.8828L119.82 28.6406C121.773 27.3438 123.219 26.2734 124.156 25.4297L125.141 24.6094C125.328 24.4688 125.422 24.3281 125.422 24.1875C125.422 23.9844 125.305 23.8828 125.07 23.8828H116.914C115.336 25.4609 114.094 26.5469 113.188 27.1406C112.078 27.875 111.375 28.2422 111.078 28.2422C110.547 28.2422 110.281 27.9375 110.281 27.3281C110.281 27.0469 110.391 26.8203 110.609 26.6484H110.586L112.203 25.5469C114.203 24.1875 115.938 22.5547 117.406 20.6484C117.766 20.1953 118.141 19.9688 118.531 19.9688C119.25 19.9688 119.609 20.2031 119.609 20.6719C119.609 20.9531 119.297 21.4375 118.672 22.125H126.945C127.508 22.125 127.922 22.2188 128.188 22.4062C128.453 22.5781 128.586 22.8438 128.586 23.2031C128.586 23.7656 127.508 24.9453 125.352 26.7422C123.273 28.4609 121.078 29.9609 118.766 31.2422L118.812 31.4062H127.391C129.109 31.2812 129.906 32.0703 129.781 33.7734V38.0625C129.906 39.75 129.109 40.5312 127.391 40.4062H117.055ZM126.711 38.6719C127.461 38.6719 127.836 38.2891 127.836 37.5234V34.2891C127.836 33.5391 127.461 33.1641 126.711 33.1641H117.242C116.82 33.1641 116.594 33.3828 116.562 33.8203V37.5469C116.562 37.9062 116.656 38.1875 116.844 38.3906C117.047 38.5781 117.328 38.6719 117.688 38.6719H126.711Z" fill="white"/>
<path d="M144.664 41.2734C144.039 41.2734 143.727 40.9531 143.727 40.3125V37.6875H134.961C134.336 37.6875 134.023 37.4141 134.023 36.8672C134.023 36.3047 134.336 36.0234 134.961 36.0234H143.727V34.5938H138.078C137.328 34.5938 136.789 34.4375 136.461 34.125C136.133 33.8125 135.992 33.3125 136.039 32.625V28.875C136.039 28.1562 136.195 27.6328 136.508 27.3047C136.836 26.9766 137.359 26.8359 138.078 26.8828H151.32C152.07 26.8828 152.609 27.0469 152.938 27.375C153.266 27.6875 153.406 28.1875 153.359 28.875V32.625C153.359 33.3281 153.195 33.8438 152.867 34.1719C152.555 34.4844 152.039 34.625 151.32 34.5938H145.578V36.0234H154.438C155.078 36.0234 155.398 36.3047 155.398 36.8672C155.398 37.4141 155.078 37.6875 154.438 37.6875H145.578V40.3125C145.578 40.9531 145.273 41.2734 144.664 41.2734ZM143.75 33.1406V31.3594H137.867V32.4375C137.867 32.875 138.102 33.1094 138.57 33.1406H143.75ZM143.75 30.0234V28.3359H138.57C138.102 28.3359 137.867 28.5625 137.867 29.0156V30.0234H143.75ZM150.805 33.1406C151.023 33.1406 151.188 33.0781 151.297 32.9531C151.422 32.8281 151.492 32.6562 151.508 32.4375V31.3594H145.555V33.1406H150.805ZM137.047 25.7578C135.828 25.7578 135.219 25.1484 135.219 23.9297V22.4531C135.219 21.25 135.828 20.6484 137.047 20.6484H141.945C143.148 20.6484 143.75 21.25 143.75 22.4531V23.9297C143.75 25.1484 143.164 25.7578 141.992 25.7578H137.047ZM141.266 24.1875C141.656 24.1875 141.867 23.9766 141.898 23.5547V22.875C141.898 22.4688 141.688 22.25 141.266 22.2188H137.703C137.312 22.2188 137.102 22.4375 137.07 22.875V23.5547C137.07 23.9453 137.281 24.1562 137.703 24.1875H141.266ZM151.508 30.0234V29.0156C151.508 28.5938 151.273 28.3672 150.805 28.3359H145.555V30.0234H151.508ZM147.242 25.7578C146.055 25.7578 145.461 25.1641 145.461 23.9766V22.4531C145.461 21.25 146.055 20.6484 147.242 20.6484H152.375C153.578 20.6484 154.18 21.25 154.18 22.4531V23.9297C154.18 25.1484 153.586 25.7578 152.398 25.7578H147.242ZM151.695 24.1875C151.898 24.1875 152.055 24.1328 152.164 24.0234C152.273 23.8984 152.336 23.7422 152.352 23.5547V22.875C152.352 22.4688 152.133 22.25 151.695 22.2188H147.922C147.719 22.2188 147.562 22.2812 147.453 22.4062C147.344 22.5156 147.289 22.6719 147.289 22.875V23.5547C147.289 23.9453 147.5 24.1562 147.922 24.1875H151.695Z" fill="white"/>
<path d="M65.7734 41.2969C65.1641 41.2969 64.8594 40.9609 64.8594 40.2891V31.3828C63.875 32.5234 63.2031 33.0938 62.8438 33.0938C62.2812 33.0938 62 32.7578 62 32.0859C62 31.7734 62.1719 31.4453 62.5156 31.1016C64.1562 29.4609 65.4922 27.8438 66.5234 26.25C66.9766 25.5469 67.3828 25.1953 67.7422 25.1953C68.3672 25.1953 68.6797 25.4766 68.6797 26.0391C68.6797 26.4453 68.0234 27.4844 66.7109 29.1562V40.2891C66.7109 40.9609 66.3984 41.2969 65.7734 41.2969ZM73.25 39.5625C72.9531 39.5625 72.4922 39.1719 71.8672 38.3906L71.0938 37.5938C70.7969 37.2656 70.6484 37.0078 70.6484 36.8203C70.6484 36.2734 70.9453 36 71.5391 36C71.6953 36 71.8984 36.0859 72.1484 36.2578C72.3984 36.4297 72.7188 36.7031 73.1094 37.0781C73.8438 37.7656 74.2109 38.2812 74.2109 38.625C74.2109 39.25 73.8906 39.5625 73.25 39.5625ZM68.7969 35.25C68.1406 35.25 67.8125 34.9688 67.8125 34.4062C67.8125 33.8438 68.1406 33.5625 68.7969 33.5625H78.5938V35.25H68.7969ZM76.2969 41.2266C75.5625 41.2266 75.1953 40.9141 75.1953 40.2891C75.1953 39.9609 75.2812 39.7188 75.4531 39.5625C75.6406 39.4062 75.9219 39.3281 76.2969 39.3281H77.3047C77.8359 39.3281 78.1172 39.0391 78.1484 38.4609V31.3828H80.0234V39C80.0234 39.8125 79.8438 40.3984 79.4844 40.7578C79.125 41.1328 78.5469 41.2891 77.75 41.2266H76.2969ZM62.9844 25.3594C62.3438 25.3594 62.0234 25.0234 62.0234 24.3516C62.0234 23.9609 62.3828 23.5469 63.1016 23.1094C64.2109 22.4531 65.1719 21.75 65.9844 21C66.4062 20.6094 66.7422 20.3359 66.9922 20.1797C67.2578 20.0078 67.4844 19.9219 67.6719 19.9219C67.9219 19.9219 68.125 20.0078 68.2812 20.1797C68.4375 20.3359 68.5156 20.5703 68.5156 20.8828C68.5156 21.1328 68.3125 21.4766 67.9062 21.9141C67.5156 22.3359 66.9062 22.8672 66.0781 23.5078C64.5 24.7422 63.4688 25.3594 62.9844 25.3594ZM69.7812 31.7578C69.1406 31.7578 68.8203 31.4844 68.8203 30.9375C68.8203 30.3906 69.1406 30.1172 69.7812 30.1172H81.8047C82.4297 30.1172 82.7422 30.3906 82.7422 30.9375C82.7422 31.4844 82.4297 31.7578 81.8047 31.7578H69.7812ZM79.625 33.5625H82.4609C83.1016 33.5625 83.4219 33.8438 83.4219 34.4062C83.4219 34.9688 83.1016 35.25 82.4609 35.25H79.625V33.5625ZM79.1797 27.2344C79.4141 27.2344 79.5938 27.1719 79.7188 27.0469C79.8438 26.9062 79.9141 26.7188 79.9297 26.4844V25.2656H71.9375V26.4844C71.9375 26.9531 72.1875 27.2031 72.6875 27.2344H79.1797ZM72.0781 28.7344C71.3594 28.7344 70.8281 28.5781 70.4844 28.2656C70.1562 27.9375 70.0234 27.4297 70.0859 26.7422V22.5469C69.9609 21.1875 70.625 20.5312 72.0781 20.5781H79.8359C80.5547 20.5781 81.0781 20.7422 81.4062 21.0703C81.7344 21.3828 81.875 21.875 81.8281 22.5469V26.7422C81.8281 27.4453 81.6719 27.9609 81.3594 28.2891C81.0469 28.6016 80.5391 28.75 79.8359 28.7344H72.0781ZM79.9297 23.8594V22.8281C79.9297 22.3594 79.6797 22.1094 79.1797 22.0781H72.6875C72.2188 22.0781 71.9688 22.3281 71.9375 22.8281V23.8594H79.9297Z" stroke="white" stroke-width="1.2" mask="url(#path-3-outside-1_139_1877)"/>
<path d="M86.9609 41.25C86.6484 41.25 86.4141 41.1797 86.2578 41.0391C86.1172 40.8984 86.0469 40.6719 86.0469 40.3594C86.0469 40.1094 86.0938 39.9141 86.1875 39.7734C86.2812 39.6484 86.4375 39.5547 86.6562 39.4922L88.4375 39.1875C90.2344 38.875 91.6328 38.4531 92.6328 37.9219C93.7734 37.3125 94.5469 36.625 94.9531 35.8594H87.2422C86.6016 35.8594 86.2812 35.5859 86.2812 35.0391C86.2812 34.4609 86.6016 34.1719 87.2422 34.1719H95.4688L95.5391 33C95.5859 32.3906 95.9141 32.0859 96.5234 32.0859C97.1641 32.0859 97.4844 32.4141 97.4844 33.0703L97.3906 34.1719H106.156C106.797 34.1719 107.117 34.4609 107.117 35.0391C107.117 35.5859 106.797 35.8594 106.156 35.8594H97.9297C99.3672 37.625 102.148 38.7656 106.273 39.2812C106.633 39.3281 106.898 39.4219 107.07 39.5625C107.258 39.7188 107.352 39.9453 107.352 40.2422C107.352 40.8828 107 41.2031 106.297 41.2031C104.625 41.2031 102.836 40.8047 100.93 40.0078C98.9609 39.1953 97.4922 38.0547 96.5234 36.5859C95.6328 38.1016 94.2422 39.2578 92.3516 40.0547C90.4609 40.8516 88.6641 41.25 86.9609 41.25ZM92.3281 33.1406C91.7812 33.1406 91.5078 32.7812 91.5078 32.0625V28.5234H89.8438C89.7031 30.0859 89.2891 31.2266 88.6016 31.9453C87.9297 32.6484 87.3594 33 86.8906 33C86.625 33 86.4297 32.9375 86.3047 32.8125C86.1797 32.6719 86.1172 32.4531 86.1172 32.1562C86.1172 31.9062 86.2812 31.6797 86.6094 31.4766C87.6094 30.8672 88.1562 29.9062 88.25 28.5938L88.2734 28.5234H86.9141C86.3672 28.5234 86.0938 28.2578 86.0938 27.7266C86.0938 27.1953 86.3672 26.9297 86.9141 26.9297H91.5078V25.1719H88.8828C87.7422 25.1719 87.1719 24.5938 87.1719 23.4375V21.4688C87.1719 20.8906 87.4375 20.6016 87.9688 20.6016C88.5156 20.6016 88.7891 20.8906 88.7891 21.4688V22.9453C88.7891 23.1641 88.8438 23.3359 88.9531 23.4609C89.0781 23.5703 89.25 23.625 89.4688 23.625H91.5078V20.9531C91.5078 20.2656 91.7812 19.9219 92.3281 19.9219C92.9062 19.9219 93.1953 20.2656 93.1953 20.9531V32.0625C93.1953 32.7812 92.9062 33.1406 92.3281 33.1406ZM98.0703 31.9688C97.8203 31.9688 97.5469 31.8203 97.25 31.5234L96.5703 30.9609C96.3672 30.7891 96.2188 30.6484 96.125 30.5391C96.0469 30.4141 96.0078 30.2891 96.0078 30.1641C96.0078 29.6172 96.2891 29.3438 96.8516 29.3438C97.1016 29.3438 97.5156 29.5547 98.0938 29.9766C98.6719 30.3984 98.9609 30.7812 98.9609 31.125C98.9609 31.6875 98.6641 31.9688 98.0703 31.9688ZM103.578 34.1484C103.312 34.1484 103.078 34.0703 102.875 33.9141L102.336 33.5625C101.961 33.3281 101.773 33.1016 101.773 32.8828C101.773 32.6016 101.906 32.375 102.172 32.2031H100.883C100.242 32.2031 99.9219 31.9219 99.9219 31.3594C99.9219 30.7969 100.242 30.5156 100.883 30.5156H101.75C102.281 30.5156 102.562 30.2422 102.594 29.6953V28.9688H94.8359C94.2578 28.9688 93.9688 28.7031 93.9688 28.1719C93.9688 27.6406 94.2578 27.375 94.8359 27.375H102.594V26.3438C102.594 25.7812 102.883 25.5 103.461 25.5C104.055 25.5 104.352 25.7812 104.352 26.3438V27.375H106.602C107.148 27.375 107.422 27.6406 107.422 28.1719C107.422 28.7031 107.148 28.9688 106.602 28.9688H104.352V30.0234C104.352 30.6641 104.227 31.1641 103.977 31.5234C103.742 31.8672 103.359 32.0859 102.828 32.1797C103 32.2422 103.195 32.3438 103.414 32.4844C103.633 32.625 103.781 32.7188 103.859 32.7656C104.219 32.9844 104.398 33.2109 104.398 33.4453C104.398 33.9141 104.125 34.1484 103.578 34.1484ZM94.3203 27.0938C93.8984 27.1406 93.6875 26.9219 93.6875 26.4375C93.6875 26.25 93.7656 26.1094 93.9219 26.0156C94.0781 25.9062 94.3203 25.8359 94.6484 25.8047C95.2891 25.7422 96 25.625 96.7812 25.4531L96.3594 25.2188C95.6094 24.8125 95.2344 24.5234 95.2344 24.3516C95.2344 24.0078 95.4375 23.8359 95.8438 23.8359C96.1719 23.8359 96.9688 24.2422 98.2344 25.0547L98.3047 25.0781L100.062 24.5625L98.2578 23.6953C98.1328 23.6328 98.0234 23.5703 97.9297 23.5078C97.8359 23.4453 97.7891 23.375 97.7891 23.2969C97.7891 22.9688 98.0078 22.8047 98.4453 22.8047C98.8828 22.8047 99.9609 23.1953 101.68 23.9766L104.469 22.5703H97.25C95.5938 23.5078 94.6016 23.9766 94.2734 23.9766C93.8203 23.9766 93.5938 23.7344 93.5938 23.25C93.5938 22.9375 94.1484 22.5469 95.2578 22.0781C96.2422 21.6719 97.2578 21.0938 98.3047 20.3438C98.7109 20.0469 99.0547 19.8984 99.3359 19.8984C99.9609 19.8984 100.273 20.0703 100.273 20.4141C100.273 20.5703 99.9766 20.8516 99.3828 21.2578H105.711C106.617 21.2578 107.07 21.5078 107.07 22.0078C107.07 22.2578 106.391 22.8281 105.031 23.7188C102.844 25.1562 100.016 26.1641 96.5469 26.7422L94.8828 27.0234L94.3203 27.0938Z" stroke="white" stroke-width="1.2" mask="url(#path-3-outside-1_139_1877)"/>
<path d="M117.055 40.4062C116.211 40.4062 115.594 40.2188 115.203 39.8438C114.828 39.4844 114.672 38.8984 114.734 38.0859V33.3516C112.469 34.3672 111.195 34.875 110.914 34.875C110.367 34.875 110.094 34.5469 110.094 33.8906C110.094 33.4531 110.617 33.0469 111.664 32.6719C114.117 31.7812 116.25 30.7969 118.062 29.7188C117.688 29.2812 116.875 28.625 115.625 27.75C115.266 27.4844 115.086 27.2344 115.086 27C115.086 26.4062 115.422 26.1094 116.094 26.1094C116.391 26.1094 116.891 26.3672 117.594 26.8828L119.82 28.6406C121.773 27.3438 123.219 26.2734 124.156 25.4297L125.141 24.6094C125.328 24.4688 125.422 24.3281 125.422 24.1875C125.422 23.9844 125.305 23.8828 125.07 23.8828H116.914C115.336 25.4609 114.094 26.5469 113.188 27.1406C112.078 27.875 111.375 28.2422 111.078 28.2422C110.547 28.2422 110.281 27.9375 110.281 27.3281C110.281 27.0469 110.391 26.8203 110.609 26.6484H110.586L112.203 25.5469C114.203 24.1875 115.938 22.5547 117.406 20.6484C117.766 20.1953 118.141 19.9688 118.531 19.9688C119.25 19.9688 119.609 20.2031 119.609 20.6719C119.609 20.9531 119.297 21.4375 118.672 22.125H126.945C127.508 22.125 127.922 22.2188 128.188 22.4062C128.453 22.5781 128.586 22.8438 128.586 23.2031C128.586 23.7656 127.508 24.9453 125.352 26.7422C123.273 28.4609 121.078 29.9609 118.766 31.2422L118.812 31.4062H127.391C129.109 31.2812 129.906 32.0703 129.781 33.7734V38.0625C129.906 39.75 129.109 40.5312 127.391 40.4062H117.055ZM126.711 38.6719C127.461 38.6719 127.836 38.2891 127.836 37.5234V34.2891C127.836 33.5391 127.461 33.1641 126.711 33.1641H117.242C116.82 33.1641 116.594 33.3828 116.562 33.8203V37.5469C116.562 37.9062 116.656 38.1875 116.844 38.3906C117.047 38.5781 117.328 38.6719 117.688 38.6719H126.711Z" stroke="white" stroke-width="1.2" mask="url(#path-3-outside-1_139_1877)"/>
<path d="M144.664 41.2734C144.039 41.2734 143.727 40.9531 143.727 40.3125V37.6875H134.961C134.336 37.6875 134.023 37.4141 134.023 36.8672C134.023 36.3047 134.336 36.0234 134.961 36.0234H143.727V34.5938H138.078C137.328 34.5938 136.789 34.4375 136.461 34.125C136.133 33.8125 135.992 33.3125 136.039 32.625V28.875C136.039 28.1562 136.195 27.6328 136.508 27.3047C136.836 26.9766 137.359 26.8359 138.078 26.8828H151.32C152.07 26.8828 152.609 27.0469 152.938 27.375C153.266 27.6875 153.406 28.1875 153.359 28.875V32.625C153.359 33.3281 153.195 33.8438 152.867 34.1719C152.555 34.4844 152.039 34.625 151.32 34.5938H145.578V36.0234H154.438C155.078 36.0234 155.398 36.3047 155.398 36.8672C155.398 37.4141 155.078 37.6875 154.438 37.6875H145.578V40.3125C145.578 40.9531 145.273 41.2734 144.664 41.2734ZM143.75 33.1406V31.3594H137.867V32.4375C137.867 32.875 138.102 33.1094 138.57 33.1406H143.75ZM143.75 30.0234V28.3359H138.57C138.102 28.3359 137.867 28.5625 137.867 29.0156V30.0234H143.75ZM150.805 33.1406C151.023 33.1406 151.188 33.0781 151.297 32.9531C151.422 32.8281 151.492 32.6562 151.508 32.4375V31.3594H145.555V33.1406H150.805ZM137.047 25.7578C135.828 25.7578 135.219 25.1484 135.219 23.9297V22.4531C135.219 21.25 135.828 20.6484 137.047 20.6484H141.945C143.148 20.6484 143.75 21.25 143.75 22.4531V23.9297C143.75 25.1484 143.164 25.7578 141.992 25.7578H137.047ZM141.266 24.1875C141.656 24.1875 141.867 23.9766 141.898 23.5547V22.875C141.898 22.4688 141.688 22.25 141.266 22.2188H137.703C137.312 22.2188 137.102 22.4375 137.07 22.875V23.5547C137.07 23.9453 137.281 24.1562 137.703 24.1875H141.266ZM151.508 30.0234V29.0156C151.508 28.5938 151.273 28.3672 150.805 28.3359H145.555V30.0234H151.508ZM147.242 25.7578C146.055 25.7578 145.461 25.1641 145.461 23.9766V22.4531C145.461 21.25 146.055 20.6484 147.242 20.6484H152.375C153.578 20.6484 154.18 21.25 154.18 22.4531V23.9297C154.18 25.1484 153.586 25.7578 152.398 25.7578H147.242ZM151.695 24.1875C151.898 24.1875 152.055 24.1328 152.164 24.0234C152.273 23.8984 152.336 23.7422 152.352 23.5547V22.875C152.352 22.4688 152.133 22.25 151.695 22.2188H147.922C147.719 22.2188 147.562 22.2812 147.453 22.4062C147.344 22.5156 147.289 22.6719 147.289 22.875V23.5547C147.289 23.9453 147.5 24.1562 147.922 24.1875H151.695Z" stroke="white" stroke-width="1.2" mask="url(#path-3-outside-1_139_1877)"/>
</svg>
