<svg width="218" height="60" viewBox="0 0 218 60" fill="none" xmlns="http://www.w3.org/2000/svg">
<path d="M193.903 0H24.0966C10.7884 0 0 11.0999 0 24.7922V35.2078C0 48.9001 10.7884 60 24.0966 60H193.903C207.212 60 218 48.9001 218 35.2078V24.7922C218 11.0999 207.212 0 193.903 0Z" fill="#FF671D"/>
<path d="M24.0967 1H193.903C206.632 1 217 11.625 217 24.792V35.208C217 48.375 206.632 59 193.903 59H24.0967C11.3675 59 1.00013 48.375 1 35.208V24.792L1.00781 24.1768C1.32489 11.2956 11.5664 1 24.0967 1Z" stroke="#DC501B" stroke-width="2" stroke-miterlimit="10"/>
<mask id="path-3-outside-1_139_1892" maskUnits="userSpaceOnUse" x="35" y="22" width="146" height="19" fill="black">
<rect fill="white" x="35" y="22" width="146" height="19"/>
<path d="M50.0391 37.293L47.2617 26.9922L44.4492 37.293C44.2305 38.0742 44.0547 38.6367 43.9219 38.9805C43.7969 39.3164 43.5742 39.6211 43.2539 39.8945C42.9336 40.1602 42.5078 40.293 41.9766 40.293C41.5469 40.293 41.1914 40.2109 40.9102 40.0469C40.6367 39.8906 40.4141 39.668 40.2422 39.3789C40.0703 39.082 39.9297 38.7344 39.8203 38.3359C39.7109 37.9297 39.6133 37.5547 39.5273 37.2109L36.668 25.6445C36.4961 24.9727 36.4102 24.4609 36.4102 24.1094C36.4102 23.6641 36.5664 23.2891 36.8789 22.9844C37.1914 22.6797 37.5781 22.5273 38.0391 22.5273C38.6719 22.5273 39.0977 22.7305 39.3164 23.1367C39.5352 23.543 39.7266 24.1328 39.8906 24.9062L42.1406 34.9375L44.6602 25.5508C44.8477 24.832 45.0156 24.2852 45.1641 23.9102C45.3125 23.5352 45.5547 23.2109 45.8906 22.9375C46.2266 22.6641 46.6836 22.5273 47.2617 22.5273C47.8477 22.5273 48.3008 22.6719 48.6211 22.9609C48.9492 23.2422 49.1758 23.5508 49.3008 23.8867C49.4258 24.2227 49.5938 24.7773 49.8047 25.5508L52.3477 34.9375L54.5977 24.9062C54.707 24.3828 54.8086 23.9727 54.9023 23.6758C55.0039 23.3789 55.1719 23.1133 55.4062 22.8789C55.6484 22.6445 55.9961 22.5273 56.4492 22.5273C56.9023 22.5273 57.2852 22.6797 57.5977 22.9844C57.918 23.2812 58.0781 23.6562 58.0781 24.1094C58.0781 24.4297 57.9922 24.9414 57.8203 25.6445L54.9609 37.2109C54.7656 37.9922 54.6016 38.5664 54.4688 38.9336C54.3438 39.293 54.125 39.6094 53.8125 39.8828C53.5078 40.1562 53.0742 40.293 52.5117 40.293C51.9805 40.293 51.5547 40.1602 51.2344 39.8945C50.9141 39.6289 50.6914 39.332 50.5664 39.0039C50.4414 38.668 50.2656 38.0977 50.0391 37.293ZM63.375 29.1016V38.3477C63.375 38.9883 63.2227 39.4727 62.918 39.8008C62.6133 40.1289 62.2266 40.293 61.7578 40.293C61.2891 40.293 60.9062 40.125 60.6094 39.7891C60.3203 39.4531 60.1758 38.9727 60.1758 38.3477V29.1953C60.1758 28.5625 60.3203 28.0859 60.6094 27.7656C60.9062 27.4453 61.2891 27.2852 61.7578 27.2852C62.2266 27.2852 62.6133 27.4453 62.918 27.7656C63.2227 28.0859 63.375 28.5312 63.375 29.1016ZM61.793 25.7969C61.3477 25.7969 60.9648 25.6602 60.6445 25.3867C60.332 25.1133 60.1758 24.7266 60.1758 24.2266C60.1758 23.7734 60.3359 23.4023 60.6562 23.1133C60.9844 22.8164 61.3633 22.668 61.793 22.668C62.207 22.668 62.5742 22.8008 62.8945 23.0664C63.2148 23.332 63.375 23.7188 63.375 24.2266C63.375 24.7188 63.2188 25.1055 62.9062 25.3867C62.5938 25.6602 62.2227 25.7969 61.793 25.7969ZM69.5977 29.0547V29.4414C70.1602 28.6992 70.7734 28.1562 71.4375 27.8125C72.1094 27.4609 72.8789 27.2852 73.7461 27.2852C74.5898 27.2852 75.3438 27.4688 76.0078 27.8359C76.6719 28.2031 77.168 28.7227 77.4961 29.3945C77.707 29.7852 77.8438 30.207 77.9062 30.6602C77.9688 31.1133 78 31.6914 78 32.3945V38.3477C78 38.9883 77.8516 39.4727 77.5547 39.8008C77.2656 40.1289 76.8867 40.293 76.418 40.293C75.9414 40.293 75.5547 40.125 75.2578 39.7891C74.9609 39.4531 74.8125 38.9727 74.8125 38.3477V33.0156C74.8125 31.9609 74.6641 31.1562 74.3672 30.6016C74.0781 30.0391 73.4961 29.7578 72.6211 29.7578C72.0508 29.7578 71.5312 29.9297 71.0625 30.2734C70.5938 30.6094 70.25 31.0742 70.0312 31.668C69.875 32.1445 69.7969 33.0352 69.7969 34.3398V38.3477C69.7969 38.9961 69.6445 39.4844 69.3398 39.8125C69.043 40.1328 68.6562 40.293 68.1797 40.293C67.7188 40.293 67.3398 40.125 67.043 39.7891C66.7461 39.4531 66.5977 38.9727 66.5977 38.3477V29.1016C66.5977 28.4922 66.7305 28.0391 66.9961 27.7422C67.2617 27.4375 67.625 27.2852 68.0859 27.2852C68.3672 27.2852 68.6211 27.3516 68.8477 27.4844C69.0742 27.6172 69.2539 27.8164 69.3867 28.082C69.5273 28.3477 69.5977 28.6719 69.5977 29.0547ZM84.1055 29.0547V29.4414C84.668 28.6992 85.2812 28.1562 85.9453 27.8125C86.6172 27.4609 87.3867 27.2852 88.2539 27.2852C89.0977 27.2852 89.8516 27.4688 90.5156 27.8359C91.1797 28.2031 91.6758 28.7227 92.0039 29.3945C92.2148 29.7852 92.3516 30.207 92.4141 30.6602C92.4766 31.1133 92.5078 31.6914 92.5078 32.3945V38.3477C92.5078 38.9883 92.3594 39.4727 92.0625 39.8008C91.7734 40.1289 91.3945 40.293 90.9258 40.293C90.4492 40.293 90.0625 40.125 89.7656 39.7891C89.4688 39.4531 89.3203 38.9727 89.3203 38.3477V33.0156C89.3203 31.9609 89.1719 31.1562 88.875 30.6016C88.5859 30.0391 88.0039 29.7578 87.1289 29.7578C86.5586 29.7578 86.0391 29.9297 85.5703 30.2734C85.1016 30.6094 84.7578 31.0742 84.5391 31.668C84.3828 32.1445 84.3047 33.0352 84.3047 34.3398V38.3477C84.3047 38.9961 84.1523 39.4844 83.8477 39.8125C83.5508 40.1328 83.1641 40.293 82.6875 40.293C82.2266 40.293 81.8477 40.125 81.5508 39.7891C81.2539 39.4531 81.1055 38.9727 81.1055 38.3477V29.1016C81.1055 28.4922 81.2383 28.0391 81.5039 27.7422C81.7695 27.4375 82.1328 27.2852 82.5938 27.2852C82.875 27.2852 83.1289 27.3516 83.3555 27.4844C83.582 27.6172 83.7617 27.8164 83.8945 28.082C84.0352 28.3477 84.1055 28.6719 84.1055 29.0547ZM104.637 34.5742H98.3789C98.3867 35.3008 98.5312 35.9414 98.8125 36.4961C99.1016 37.0508 99.4805 37.4688 99.9492 37.75C100.426 38.0312 100.949 38.1719 101.52 38.1719C101.902 38.1719 102.25 38.1289 102.562 38.043C102.883 37.9492 103.191 37.8086 103.488 37.6211C103.785 37.4258 104.059 37.2188 104.309 37C104.559 36.7812 104.883 36.4844 105.281 36.1094C105.445 35.9688 105.68 35.8984 105.984 35.8984C106.312 35.8984 106.578 35.9883 106.781 36.168C106.984 36.3477 107.086 36.6016 107.086 36.9297C107.086 37.2188 106.973 37.5586 106.746 37.9492C106.52 38.332 106.176 38.7031 105.715 39.0625C105.262 39.4141 104.688 39.707 103.992 39.9414C103.305 40.1758 102.512 40.293 101.613 40.293C99.5586 40.293 97.9609 39.707 96.8203 38.5352C95.6797 37.3633 95.1094 35.7734 95.1094 33.7656C95.1094 32.8203 95.25 31.9453 95.5312 31.1406C95.8125 30.3281 96.2227 29.6328 96.7617 29.0547C97.3008 28.4766 97.9648 28.0352 98.7539 27.7305C99.543 27.418 100.418 27.2617 101.379 27.2617C102.629 27.2617 103.699 27.5273 104.59 28.0586C105.488 28.582 106.16 29.2617 106.605 30.0977C107.051 30.9336 107.273 31.7852 107.273 32.6523C107.273 33.457 107.043 33.9805 106.582 34.2227C106.121 34.457 105.473 34.5742 104.637 34.5742ZM98.3789 32.7578H104.18C104.102 31.6641 103.805 30.8477 103.289 30.3086C102.781 29.7617 102.109 29.4883 101.273 29.4883C100.477 29.4883 99.8203 29.7656 99.3047 30.3203C98.7969 30.8672 98.4883 31.6797 98.3789 32.7578ZM113.156 35.6758V38.3477C113.156 38.9961 113.004 39.4844 112.699 39.8125C112.395 40.1328 112.008 40.293 111.539 40.293C111.078 40.293 110.699 40.1289 110.402 39.8008C110.105 39.4727 109.957 38.9883 109.957 38.3477V29.4414C109.957 28.0039 110.477 27.2852 111.516 27.2852C112.047 27.2852 112.43 27.4531 112.664 27.7891C112.898 28.125 113.027 28.6211 113.051 29.2773C113.434 28.6211 113.824 28.125 114.223 27.7891C114.629 27.4531 115.168 27.2852 115.84 27.2852C116.512 27.2852 117.164 27.4531 117.797 27.7891C118.43 28.125 118.746 28.5703 118.746 29.125C118.746 29.5156 118.609 29.8398 118.336 30.0977C118.07 30.3477 117.781 30.4727 117.469 30.4727C117.352 30.4727 117.066 30.4023 116.613 30.2617C116.168 30.1133 115.773 30.0391 115.43 30.0391C114.961 30.0391 114.578 30.1641 114.281 30.4141C113.984 30.6562 113.754 31.0195 113.59 31.5039C113.426 31.9883 113.312 32.5664 113.25 33.2383C113.188 33.9023 113.156 34.7148 113.156 35.6758ZM130.195 36.1094C130.195 36.9922 129.98 37.75 129.551 38.3828C129.121 39.0078 128.484 39.4844 127.641 39.8125C126.805 40.1328 125.785 40.293 124.582 40.293C123.434 40.293 122.449 40.1172 121.629 39.7656C120.809 39.4141 120.203 38.9766 119.812 38.4531C119.422 37.9219 119.227 37.3906 119.227 36.8594C119.227 36.5078 119.352 36.207 119.602 35.957C119.852 35.707 120.168 35.582 120.551 35.582C120.887 35.582 121.145 35.6641 121.324 35.8281C121.504 35.9922 121.676 36.2227 121.84 36.5195C122.168 37.0898 122.559 37.5156 123.012 37.7969C123.473 38.0781 124.098 38.2188 124.887 38.2188C125.527 38.2188 126.051 38.0781 126.457 37.7969C126.871 37.5078 127.078 37.1797 127.078 36.8125C127.078 36.25 126.863 35.8398 126.434 35.582C126.012 35.3242 125.312 35.0781 124.336 34.8438C123.234 34.5703 122.336 34.2852 121.641 33.9883C120.953 33.6836 120.402 33.2852 119.988 32.793C119.574 32.3008 119.367 31.6953 119.367 30.9766C119.367 30.3359 119.559 29.7305 119.941 29.1602C120.324 28.5898 120.887 28.1367 121.629 27.8008C122.379 27.457 123.281 27.2852 124.336 27.2852C125.164 27.2852 125.906 27.3711 126.562 27.543C127.227 27.7148 127.777 27.9453 128.215 28.2344C128.66 28.5234 128.996 28.8438 129.223 29.1953C129.457 29.5469 129.574 29.8906 129.574 30.2266C129.574 30.5938 129.449 30.8945 129.199 31.1289C128.957 31.3633 128.609 31.4805 128.156 31.4805C127.828 31.4805 127.547 31.3867 127.312 31.1992C127.086 31.0117 126.824 30.7305 126.527 30.3555C126.285 30.043 126 29.793 125.672 29.6055C125.344 29.418 124.898 29.3242 124.336 29.3242C123.758 29.3242 123.277 29.4492 122.895 29.6992C122.512 29.9414 122.32 30.2461 122.32 30.6133C122.32 30.9492 122.461 31.2266 122.742 31.4453C123.023 31.6562 123.402 31.832 123.879 31.9727C124.355 32.1133 125.012 32.2852 125.848 32.4883C126.84 32.7305 127.648 33.0195 128.273 33.3555C128.906 33.6914 129.383 34.0898 129.703 34.5508C130.031 35.0039 130.195 35.5234 130.195 36.1094ZM142.535 24.6367V37.1406H149.59C150.152 37.1406 150.582 37.2773 150.879 37.5508C151.184 37.8242 151.336 38.168 151.336 38.582C151.336 39.0039 151.188 39.3477 150.891 39.6133C150.594 39.8711 150.16 40 149.59 40H141.188C140.43 40 139.883 39.832 139.547 39.4961C139.219 39.1602 139.055 38.6172 139.055 37.8672V24.6367C139.055 23.9336 139.211 23.4062 139.523 23.0547C139.844 22.7031 140.262 22.5273 140.777 22.5273C141.301 22.5273 141.723 22.7031 142.043 23.0547C142.371 23.3984 142.535 23.9258 142.535 24.6367ZM156.609 29.1016V38.3477C156.609 38.9883 156.457 39.4727 156.152 39.8008C155.848 40.1289 155.461 40.293 154.992 40.293C154.523 40.293 154.141 40.125 153.844 39.7891C153.555 39.4531 153.41 38.9727 153.41 38.3477V29.1953C153.41 28.5625 153.555 28.0859 153.844 27.7656C154.141 27.4453 154.523 27.2852 154.992 27.2852C155.461 27.2852 155.848 27.4453 156.152 27.7656C156.457 28.0859 156.609 28.5312 156.609 29.1016ZM155.027 25.7969C154.582 25.7969 154.199 25.6602 153.879 25.3867C153.566 25.1133 153.41 24.7266 153.41 24.2266C153.41 23.7734 153.57 23.4023 153.891 23.1133C154.219 22.8164 154.598 22.668 155.027 22.668C155.441 22.668 155.809 22.8008 156.129 23.0664C156.449 23.332 156.609 23.7188 156.609 24.2266C156.609 24.7188 156.453 25.1055 156.141 25.3867C155.828 25.6602 155.457 25.7969 155.027 25.7969ZM170.227 36.1094C170.227 36.9922 170.012 37.75 169.582 38.3828C169.152 39.0078 168.516 39.4844 167.672 39.8125C166.836 40.1328 165.816 40.293 164.613 40.293C163.465 40.293 162.48 40.1172 161.66 39.7656C160.84 39.4141 160.234 38.9766 159.844 38.4531C159.453 37.9219 159.258 37.3906 159.258 36.8594C159.258 36.5078 159.383 36.207 159.633 35.957C159.883 35.707 160.199 35.582 160.582 35.582C160.918 35.582 161.176 35.6641 161.355 35.8281C161.535 35.9922 161.707 36.2227 161.871 36.5195C162.199 37.0898 162.59 37.5156 163.043 37.7969C163.504 38.0781 164.129 38.2188 164.918 38.2188C165.559 38.2188 166.082 38.0781 166.488 37.7969C166.902 37.5078 167.109 37.1797 167.109 36.8125C167.109 36.25 166.895 35.8398 166.465 35.582C166.043 35.3242 165.344 35.0781 164.367 34.8438C163.266 34.5703 162.367 34.2852 161.672 33.9883C160.984 33.6836 160.434 33.2852 160.02 32.793C159.605 32.3008 159.398 31.6953 159.398 30.9766C159.398 30.3359 159.59 29.7305 159.973 29.1602C160.355 28.5898 160.918 28.1367 161.66 27.8008C162.41 27.457 163.312 27.2852 164.367 27.2852C165.195 27.2852 165.938 27.3711 166.594 27.543C167.258 27.7148 167.809 27.9453 168.246 28.2344C168.691 28.5234 169.027 28.8438 169.254 29.1953C169.488 29.5469 169.605 29.8906 169.605 30.2266C169.605 30.5938 169.48 30.8945 169.23 31.1289C168.988 31.3633 168.641 31.4805 168.188 31.4805C167.859 31.4805 167.578 31.3867 167.344 31.1992C167.117 31.0117 166.855 30.7305 166.559 30.3555C166.316 30.043 166.031 29.793 165.703 29.6055C165.375 29.418 164.93 29.3242 164.367 29.3242C163.789 29.3242 163.309 29.4492 162.926 29.6992C162.543 29.9414 162.352 30.2461 162.352 30.6133C162.352 30.9492 162.492 31.2266 162.773 31.4453C163.055 31.6562 163.434 31.832 163.91 31.9727C164.387 32.1133 165.043 32.2852 165.879 32.4883C166.871 32.7305 167.68 33.0195 168.305 33.3555C168.938 33.6914 169.414 34.0898 169.734 34.5508C170.062 35.0039 170.227 35.5234 170.227 36.1094ZM173.109 27.5664H173.461V25.6445C173.461 25.1289 173.473 24.7266 173.496 24.4375C173.527 24.1406 173.605 23.8867 173.73 23.6758C173.855 23.457 174.035 23.2812 174.27 23.1484C174.504 23.0078 174.766 22.9375 175.055 22.9375C175.461 22.9375 175.828 23.0898 176.156 23.3945C176.375 23.5977 176.512 23.8477 176.566 24.1445C176.629 24.4336 176.66 24.8477 176.66 25.3867V27.5664H177.832C178.285 27.5664 178.629 27.6758 178.863 27.8945C179.105 28.1055 179.227 28.3789 179.227 28.7148C179.227 29.1445 179.055 29.4453 178.711 29.6172C178.375 29.7891 177.891 29.875 177.258 29.875H176.66V35.7578C176.66 36.2578 176.676 36.6445 176.707 36.918C176.746 37.1836 176.84 37.4023 176.988 37.5742C177.145 37.7383 177.395 37.8203 177.738 37.8203C177.926 37.8203 178.18 37.7891 178.5 37.7266C178.82 37.6562 179.07 37.6211 179.25 37.6211C179.508 37.6211 179.738 37.7266 179.941 37.9375C180.152 38.1406 180.258 38.3945 180.258 38.6992C180.258 39.2148 179.977 39.6094 179.414 39.8828C178.852 40.1562 178.043 40.293 176.988 40.293C175.988 40.293 175.23 40.125 174.715 39.7891C174.199 39.4531 173.859 38.9883 173.695 38.3945C173.539 37.8008 173.461 37.0078 173.461 36.0156V29.875H173.039C172.578 29.875 172.227 29.7656 171.984 29.5469C171.742 29.3281 171.621 29.0508 171.621 28.7148C171.621 28.3789 171.746 28.1055 171.996 27.8945C172.254 27.6758 172.625 27.5664 173.109 27.5664Z"/>
</mask>
<path d="M50.0391 37.293L47.2617 26.9922L44.4492 37.293C44.2305 38.0742 44.0547 38.6367 43.9219 38.9805C43.7969 39.3164 43.5742 39.6211 43.2539 39.8945C42.9336 40.1602 42.5078 40.293 41.9766 40.293C41.5469 40.293 41.1914 40.2109 40.9102 40.0469C40.6367 39.8906 40.4141 39.668 40.2422 39.3789C40.0703 39.082 39.9297 38.7344 39.8203 38.3359C39.7109 37.9297 39.6133 37.5547 39.5273 37.2109L36.668 25.6445C36.4961 24.9727 36.4102 24.4609 36.4102 24.1094C36.4102 23.6641 36.5664 23.2891 36.8789 22.9844C37.1914 22.6797 37.5781 22.5273 38.0391 22.5273C38.6719 22.5273 39.0977 22.7305 39.3164 23.1367C39.5352 23.543 39.7266 24.1328 39.8906 24.9062L42.1406 34.9375L44.6602 25.5508C44.8477 24.832 45.0156 24.2852 45.1641 23.9102C45.3125 23.5352 45.5547 23.2109 45.8906 22.9375C46.2266 22.6641 46.6836 22.5273 47.2617 22.5273C47.8477 22.5273 48.3008 22.6719 48.6211 22.9609C48.9492 23.2422 49.1758 23.5508 49.3008 23.8867C49.4258 24.2227 49.5938 24.7773 49.8047 25.5508L52.3477 34.9375L54.5977 24.9062C54.707 24.3828 54.8086 23.9727 54.9023 23.6758C55.0039 23.3789 55.1719 23.1133 55.4062 22.8789C55.6484 22.6445 55.9961 22.5273 56.4492 22.5273C56.9023 22.5273 57.2852 22.6797 57.5977 22.9844C57.918 23.2812 58.0781 23.6562 58.0781 24.1094C58.0781 24.4297 57.9922 24.9414 57.8203 25.6445L54.9609 37.2109C54.7656 37.9922 54.6016 38.5664 54.4688 38.9336C54.3438 39.293 54.125 39.6094 53.8125 39.8828C53.5078 40.1562 53.0742 40.293 52.5117 40.293C51.9805 40.293 51.5547 40.1602 51.2344 39.8945C50.9141 39.6289 50.6914 39.332 50.5664 39.0039C50.4414 38.668 50.2656 38.0977 50.0391 37.293ZM63.375 29.1016V38.3477C63.375 38.9883 63.2227 39.4727 62.918 39.8008C62.6133 40.1289 62.2266 40.293 61.7578 40.293C61.2891 40.293 60.9062 40.125 60.6094 39.7891C60.3203 39.4531 60.1758 38.9727 60.1758 38.3477V29.1953C60.1758 28.5625 60.3203 28.0859 60.6094 27.7656C60.9062 27.4453 61.2891 27.2852 61.7578 27.2852C62.2266 27.2852 62.6133 27.4453 62.918 27.7656C63.2227 28.0859 63.375 28.5312 63.375 29.1016ZM61.793 25.7969C61.3477 25.7969 60.9648 25.6602 60.6445 25.3867C60.332 25.1133 60.1758 24.7266 60.1758 24.2266C60.1758 23.7734 60.3359 23.4023 60.6562 23.1133C60.9844 22.8164 61.3633 22.668 61.793 22.668C62.207 22.668 62.5742 22.8008 62.8945 23.0664C63.2148 23.332 63.375 23.7188 63.375 24.2266C63.375 24.7188 63.2188 25.1055 62.9062 25.3867C62.5938 25.6602 62.2227 25.7969 61.793 25.7969ZM69.5977 29.0547V29.4414C70.1602 28.6992 70.7734 28.1562 71.4375 27.8125C72.1094 27.4609 72.8789 27.2852 73.7461 27.2852C74.5898 27.2852 75.3438 27.4688 76.0078 27.8359C76.6719 28.2031 77.168 28.7227 77.4961 29.3945C77.707 29.7852 77.8438 30.207 77.9062 30.6602C77.9688 31.1133 78 31.6914 78 32.3945V38.3477C78 38.9883 77.8516 39.4727 77.5547 39.8008C77.2656 40.1289 76.8867 40.293 76.418 40.293C75.9414 40.293 75.5547 40.125 75.2578 39.7891C74.9609 39.4531 74.8125 38.9727 74.8125 38.3477V33.0156C74.8125 31.9609 74.6641 31.1562 74.3672 30.6016C74.0781 30.0391 73.4961 29.7578 72.6211 29.7578C72.0508 29.7578 71.5312 29.9297 71.0625 30.2734C70.5938 30.6094 70.25 31.0742 70.0312 31.668C69.875 32.1445 69.7969 33.0352 69.7969 34.3398V38.3477C69.7969 38.9961 69.6445 39.4844 69.3398 39.8125C69.043 40.1328 68.6562 40.293 68.1797 40.293C67.7188 40.293 67.3398 40.125 67.043 39.7891C66.7461 39.4531 66.5977 38.9727 66.5977 38.3477V29.1016C66.5977 28.4922 66.7305 28.0391 66.9961 27.7422C67.2617 27.4375 67.625 27.2852 68.0859 27.2852C68.3672 27.2852 68.6211 27.3516 68.8477 27.4844C69.0742 27.6172 69.2539 27.8164 69.3867 28.082C69.5273 28.3477 69.5977 28.6719 69.5977 29.0547ZM84.1055 29.0547V29.4414C84.668 28.6992 85.2812 28.1562 85.9453 27.8125C86.6172 27.4609 87.3867 27.2852 88.2539 27.2852C89.0977 27.2852 89.8516 27.4688 90.5156 27.8359C91.1797 28.2031 91.6758 28.7227 92.0039 29.3945C92.2148 29.7852 92.3516 30.207 92.4141 30.6602C92.4766 31.1133 92.5078 31.6914 92.5078 32.3945V38.3477C92.5078 38.9883 92.3594 39.4727 92.0625 39.8008C91.7734 40.1289 91.3945 40.293 90.9258 40.293C90.4492 40.293 90.0625 40.125 89.7656 39.7891C89.4688 39.4531 89.3203 38.9727 89.3203 38.3477V33.0156C89.3203 31.9609 89.1719 31.1562 88.875 30.6016C88.5859 30.0391 88.0039 29.7578 87.1289 29.7578C86.5586 29.7578 86.0391 29.9297 85.5703 30.2734C85.1016 30.6094 84.7578 31.0742 84.5391 31.668C84.3828 32.1445 84.3047 33.0352 84.3047 34.3398V38.3477C84.3047 38.9961 84.1523 39.4844 83.8477 39.8125C83.5508 40.1328 83.1641 40.293 82.6875 40.293C82.2266 40.293 81.8477 40.125 81.5508 39.7891C81.2539 39.4531 81.1055 38.9727 81.1055 38.3477V29.1016C81.1055 28.4922 81.2383 28.0391 81.5039 27.7422C81.7695 27.4375 82.1328 27.2852 82.5938 27.2852C82.875 27.2852 83.1289 27.3516 83.3555 27.4844C83.582 27.6172 83.7617 27.8164 83.8945 28.082C84.0352 28.3477 84.1055 28.6719 84.1055 29.0547ZM104.637 34.5742H98.3789C98.3867 35.3008 98.5312 35.9414 98.8125 36.4961C99.1016 37.0508 99.4805 37.4688 99.9492 37.75C100.426 38.0312 100.949 38.1719 101.52 38.1719C101.902 38.1719 102.25 38.1289 102.562 38.043C102.883 37.9492 103.191 37.8086 103.488 37.6211C103.785 37.4258 104.059 37.2188 104.309 37C104.559 36.7812 104.883 36.4844 105.281 36.1094C105.445 35.9688 105.68 35.8984 105.984 35.8984C106.312 35.8984 106.578 35.9883 106.781 36.168C106.984 36.3477 107.086 36.6016 107.086 36.9297C107.086 37.2188 106.973 37.5586 106.746 37.9492C106.52 38.332 106.176 38.7031 105.715 39.0625C105.262 39.4141 104.688 39.707 103.992 39.9414C103.305 40.1758 102.512 40.293 101.613 40.293C99.5586 40.293 97.9609 39.707 96.8203 38.5352C95.6797 37.3633 95.1094 35.7734 95.1094 33.7656C95.1094 32.8203 95.25 31.9453 95.5312 31.1406C95.8125 30.3281 96.2227 29.6328 96.7617 29.0547C97.3008 28.4766 97.9648 28.0352 98.7539 27.7305C99.543 27.418 100.418 27.2617 101.379 27.2617C102.629 27.2617 103.699 27.5273 104.59 28.0586C105.488 28.582 106.16 29.2617 106.605 30.0977C107.051 30.9336 107.273 31.7852 107.273 32.6523C107.273 33.457 107.043 33.9805 106.582 34.2227C106.121 34.457 105.473 34.5742 104.637 34.5742ZM98.3789 32.7578H104.18C104.102 31.6641 103.805 30.8477 103.289 30.3086C102.781 29.7617 102.109 29.4883 101.273 29.4883C100.477 29.4883 99.8203 29.7656 99.3047 30.3203C98.7969 30.8672 98.4883 31.6797 98.3789 32.7578ZM113.156 35.6758V38.3477C113.156 38.9961 113.004 39.4844 112.699 39.8125C112.395 40.1328 112.008 40.293 111.539 40.293C111.078 40.293 110.699 40.1289 110.402 39.8008C110.105 39.4727 109.957 38.9883 109.957 38.3477V29.4414C109.957 28.0039 110.477 27.2852 111.516 27.2852C112.047 27.2852 112.43 27.4531 112.664 27.7891C112.898 28.125 113.027 28.6211 113.051 29.2773C113.434 28.6211 113.824 28.125 114.223 27.7891C114.629 27.4531 115.168 27.2852 115.84 27.2852C116.512 27.2852 117.164 27.4531 117.797 27.7891C118.43 28.125 118.746 28.5703 118.746 29.125C118.746 29.5156 118.609 29.8398 118.336 30.0977C118.07 30.3477 117.781 30.4727 117.469 30.4727C117.352 30.4727 117.066 30.4023 116.613 30.2617C116.168 30.1133 115.773 30.0391 115.43 30.0391C114.961 30.0391 114.578 30.1641 114.281 30.4141C113.984 30.6562 113.754 31.0195 113.59 31.5039C113.426 31.9883 113.312 32.5664 113.25 33.2383C113.188 33.9023 113.156 34.7148 113.156 35.6758ZM130.195 36.1094C130.195 36.9922 129.98 37.75 129.551 38.3828C129.121 39.0078 128.484 39.4844 127.641 39.8125C126.805 40.1328 125.785 40.293 124.582 40.293C123.434 40.293 122.449 40.1172 121.629 39.7656C120.809 39.4141 120.203 38.9766 119.812 38.4531C119.422 37.9219 119.227 37.3906 119.227 36.8594C119.227 36.5078 119.352 36.207 119.602 35.957C119.852 35.707 120.168 35.582 120.551 35.582C120.887 35.582 121.145 35.6641 121.324 35.8281C121.504 35.9922 121.676 36.2227 121.84 36.5195C122.168 37.0898 122.559 37.5156 123.012 37.7969C123.473 38.0781 124.098 38.2188 124.887 38.2188C125.527 38.2188 126.051 38.0781 126.457 37.7969C126.871 37.5078 127.078 37.1797 127.078 36.8125C127.078 36.25 126.863 35.8398 126.434 35.582C126.012 35.3242 125.312 35.0781 124.336 34.8438C123.234 34.5703 122.336 34.2852 121.641 33.9883C120.953 33.6836 120.402 33.2852 119.988 32.793C119.574 32.3008 119.367 31.6953 119.367 30.9766C119.367 30.3359 119.559 29.7305 119.941 29.1602C120.324 28.5898 120.887 28.1367 121.629 27.8008C122.379 27.457 123.281 27.2852 124.336 27.2852C125.164 27.2852 125.906 27.3711 126.562 27.543C127.227 27.7148 127.777 27.9453 128.215 28.2344C128.66 28.5234 128.996 28.8438 129.223 29.1953C129.457 29.5469 129.574 29.8906 129.574 30.2266C129.574 30.5938 129.449 30.8945 129.199 31.1289C128.957 31.3633 128.609 31.4805 128.156 31.4805C127.828 31.4805 127.547 31.3867 127.312 31.1992C127.086 31.0117 126.824 30.7305 126.527 30.3555C126.285 30.043 126 29.793 125.672 29.6055C125.344 29.418 124.898 29.3242 124.336 29.3242C123.758 29.3242 123.277 29.4492 122.895 29.6992C122.512 29.9414 122.32 30.2461 122.32 30.6133C122.32 30.9492 122.461 31.2266 122.742 31.4453C123.023 31.6562 123.402 31.832 123.879 31.9727C124.355 32.1133 125.012 32.2852 125.848 32.4883C126.84 32.7305 127.648 33.0195 128.273 33.3555C128.906 33.6914 129.383 34.0898 129.703 34.5508C130.031 35.0039 130.195 35.5234 130.195 36.1094ZM142.535 24.6367V37.1406H149.59C150.152 37.1406 150.582 37.2773 150.879 37.5508C151.184 37.8242 151.336 38.168 151.336 38.582C151.336 39.0039 151.188 39.3477 150.891 39.6133C150.594 39.8711 150.16 40 149.59 40H141.188C140.43 40 139.883 39.832 139.547 39.4961C139.219 39.1602 139.055 38.6172 139.055 37.8672V24.6367C139.055 23.9336 139.211 23.4062 139.523 23.0547C139.844 22.7031 140.262 22.5273 140.777 22.5273C141.301 22.5273 141.723 22.7031 142.043 23.0547C142.371 23.3984 142.535 23.9258 142.535 24.6367ZM156.609 29.1016V38.3477C156.609 38.9883 156.457 39.4727 156.152 39.8008C155.848 40.1289 155.461 40.293 154.992 40.293C154.523 40.293 154.141 40.125 153.844 39.7891C153.555 39.4531 153.41 38.9727 153.41 38.3477V29.1953C153.41 28.5625 153.555 28.0859 153.844 27.7656C154.141 27.4453 154.523 27.2852 154.992 27.2852C155.461 27.2852 155.848 27.4453 156.152 27.7656C156.457 28.0859 156.609 28.5312 156.609 29.1016ZM155.027 25.7969C154.582 25.7969 154.199 25.6602 153.879 25.3867C153.566 25.1133 153.41 24.7266 153.41 24.2266C153.41 23.7734 153.57 23.4023 153.891 23.1133C154.219 22.8164 154.598 22.668 155.027 22.668C155.441 22.668 155.809 22.8008 156.129 23.0664C156.449 23.332 156.609 23.7188 156.609 24.2266C156.609 24.7188 156.453 25.1055 156.141 25.3867C155.828 25.6602 155.457 25.7969 155.027 25.7969ZM170.227 36.1094C170.227 36.9922 170.012 37.75 169.582 38.3828C169.152 39.0078 168.516 39.4844 167.672 39.8125C166.836 40.1328 165.816 40.293 164.613 40.293C163.465 40.293 162.48 40.1172 161.66 39.7656C160.84 39.4141 160.234 38.9766 159.844 38.4531C159.453 37.9219 159.258 37.3906 159.258 36.8594C159.258 36.5078 159.383 36.207 159.633 35.957C159.883 35.707 160.199 35.582 160.582 35.582C160.918 35.582 161.176 35.6641 161.355 35.8281C161.535 35.9922 161.707 36.2227 161.871 36.5195C162.199 37.0898 162.59 37.5156 163.043 37.7969C163.504 38.0781 164.129 38.2188 164.918 38.2188C165.559 38.2188 166.082 38.0781 166.488 37.7969C166.902 37.5078 167.109 37.1797 167.109 36.8125C167.109 36.25 166.895 35.8398 166.465 35.582C166.043 35.3242 165.344 35.0781 164.367 34.8438C163.266 34.5703 162.367 34.2852 161.672 33.9883C160.984 33.6836 160.434 33.2852 160.02 32.793C159.605 32.3008 159.398 31.6953 159.398 30.9766C159.398 30.3359 159.59 29.7305 159.973 29.1602C160.355 28.5898 160.918 28.1367 161.66 27.8008C162.41 27.457 163.312 27.2852 164.367 27.2852C165.195 27.2852 165.938 27.3711 166.594 27.543C167.258 27.7148 167.809 27.9453 168.246 28.2344C168.691 28.5234 169.027 28.8438 169.254 29.1953C169.488 29.5469 169.605 29.8906 169.605 30.2266C169.605 30.5938 169.48 30.8945 169.23 31.1289C168.988 31.3633 168.641 31.4805 168.188 31.4805C167.859 31.4805 167.578 31.3867 167.344 31.1992C167.117 31.0117 166.855 30.7305 166.559 30.3555C166.316 30.043 166.031 29.793 165.703 29.6055C165.375 29.418 164.93 29.3242 164.367 29.3242C163.789 29.3242 163.309 29.4492 162.926 29.6992C162.543 29.9414 162.352 30.2461 162.352 30.6133C162.352 30.9492 162.492 31.2266 162.773 31.4453C163.055 31.6562 163.434 31.832 163.91 31.9727C164.387 32.1133 165.043 32.2852 165.879 32.4883C166.871 32.7305 167.68 33.0195 168.305 33.3555C168.938 33.6914 169.414 34.0898 169.734 34.5508C170.062 35.0039 170.227 35.5234 170.227 36.1094ZM173.109 27.5664H173.461V25.6445C173.461 25.1289 173.473 24.7266 173.496 24.4375C173.527 24.1406 173.605 23.8867 173.73 23.6758C173.855 23.457 174.035 23.2812 174.27 23.1484C174.504 23.0078 174.766 22.9375 175.055 22.9375C175.461 22.9375 175.828 23.0898 176.156 23.3945C176.375 23.5977 176.512 23.8477 176.566 24.1445C176.629 24.4336 176.66 24.8477 176.66 25.3867V27.5664H177.832C178.285 27.5664 178.629 27.6758 178.863 27.8945C179.105 28.1055 179.227 28.3789 179.227 28.7148C179.227 29.1445 179.055 29.4453 178.711 29.6172C178.375 29.7891 177.891 29.875 177.258 29.875H176.66V35.7578C176.66 36.2578 176.676 36.6445 176.707 36.918C176.746 37.1836 176.84 37.4023 176.988 37.5742C177.145 37.7383 177.395 37.8203 177.738 37.8203C177.926 37.8203 178.18 37.7891 178.5 37.7266C178.82 37.6562 179.07 37.6211 179.25 37.6211C179.508 37.6211 179.738 37.7266 179.941 37.9375C180.152 38.1406 180.258 38.3945 180.258 38.6992C180.258 39.2148 179.977 39.6094 179.414 39.8828C178.852 40.1562 178.043 40.293 176.988 40.293C175.988 40.293 175.23 40.125 174.715 39.7891C174.199 39.4531 173.859 38.9883 173.695 38.3945C173.539 37.8008 173.461 37.0078 173.461 36.0156V29.875H173.039C172.578 29.875 172.227 29.7656 171.984 29.5469C171.742 29.3281 171.621 29.0508 171.621 28.7148C171.621 28.3789 171.746 28.1055 171.996 27.8945C172.254 27.6758 172.625 27.5664 173.109 27.5664Z" fill="white"/>
<path d="M50.0391 37.293L49.5563 37.4231L49.5578 37.4285L50.0391 37.293ZM47.2617 26.9922L47.7445 26.862L47.2648 25.0828L46.7794 26.8605L47.2617 26.9922ZM44.4492 37.293L44.9307 37.4278L44.9316 37.4247L44.4492 37.293ZM43.9219 38.9805L43.4554 38.8003L43.4533 38.8061L43.9219 38.9805ZM43.2539 39.8945L43.5731 40.2794L43.5785 40.2748L43.2539 39.8945ZM40.9102 40.0469L41.1621 39.615L41.1582 39.6128L40.9102 40.0469ZM40.2422 39.3789L39.8094 39.6294L39.8124 39.6344L40.2422 39.3789ZM39.8203 38.3359L39.3375 38.4659L39.3381 38.4683L39.8203 38.3359ZM39.5273 37.2109L39.042 37.3309L39.0423 37.3322L39.5273 37.2109ZM36.668 25.6445L37.1534 25.5245L37.1524 25.5206L36.668 25.6445ZM39.8906 24.9062L39.4015 25.01L39.4027 25.0157L39.8906 24.9062ZM42.1406 34.9375L41.6527 35.0469L42.6235 35.0671L42.1406 34.9375ZM44.6602 25.5508L45.1431 25.6804L45.144 25.677L44.6602 25.5508ZM48.6211 22.9609L48.286 23.3323L48.2957 23.3406L48.6211 22.9609ZM49.8047 25.5508L50.2873 25.42L50.2871 25.4192L49.8047 25.5508ZM52.3477 34.9375L51.8651 35.0682L52.8355 35.0469L52.3477 34.9375ZM54.5977 24.9062L55.0856 25.0157L55.0871 25.0085L54.5977 24.9062ZM54.9023 23.6758L54.4291 23.5139L54.4256 23.5252L54.9023 23.6758ZM55.4062 22.8789L55.0585 22.5196L55.0527 22.5254L55.4062 22.8789ZM57.5977 22.9844L57.2485 23.3425L57.2578 23.3511L57.5977 22.9844ZM57.8203 25.6445L58.3057 25.7645L58.306 25.7633L57.8203 25.6445ZM54.9609 37.2109L55.446 37.3322L55.4463 37.3309L54.9609 37.2109ZM54.4688 38.9336L53.9985 38.7635L53.9965 38.7693L54.4688 38.9336ZM53.8125 39.8828L53.4832 39.5065L53.4785 39.5107L53.8125 39.8828ZM50.5664 39.0039L50.0978 39.1783L50.0992 39.1819L50.5664 39.0039ZM50.0391 37.293L50.5218 37.1628L47.7445 26.862L47.2617 26.9922L46.779 27.1224L49.5563 37.4231L50.0391 37.293ZM47.2617 26.9922L46.7794 26.8605L43.9669 37.1613L44.4492 37.293L44.9316 37.4247L47.7441 27.1239L47.2617 26.9922ZM44.4492 37.293L43.9677 37.1582C43.7494 37.9378 43.579 38.4805 43.4555 38.8003L43.9219 38.9805L44.3883 39.1607C44.5303 38.793 44.7115 38.2107 44.9307 37.4278L44.4492 37.293ZM43.9219 38.9805L43.4533 38.8061C43.3628 39.0493 43.1962 39.2864 42.9293 39.5142L43.2539 39.8945L43.5785 40.2748C43.9522 39.9558 44.231 39.5835 44.3905 39.1548L43.9219 38.9805ZM43.2539 39.8945L42.9347 39.5097C42.7266 39.6823 42.4242 39.793 41.9766 39.793V40.293V40.793C42.5914 40.793 43.1406 40.638 43.5731 40.2794L43.2539 39.8945ZM41.9766 40.293V39.793C41.6079 39.793 41.3462 39.7224 41.1621 39.615L40.9102 40.0469L40.6582 40.4788C41.0366 40.6995 41.4858 40.793 41.9766 40.793V40.293ZM40.9102 40.0469L41.1582 39.6128C40.9648 39.5023 40.8028 39.3434 40.672 39.1234L40.2422 39.3789L39.8124 39.6344C40.0253 39.9925 40.3086 40.279 40.6621 40.481L40.9102 40.0469ZM40.2422 39.3789L40.6749 39.1284C40.5284 38.8753 40.4027 38.5688 40.3025 38.2036L39.8203 38.3359L39.3381 38.4683C39.4566 38.9 39.6123 39.2888 39.8095 39.6294L40.2422 39.3789ZM39.8203 38.3359L40.3031 38.206C40.1944 37.8021 40.0975 37.43 40.0124 37.0897L39.5273 37.2109L39.0423 37.3322C39.1291 37.6793 39.2275 38.0573 39.3375 38.4659L39.8203 38.3359ZM39.5273 37.2109L40.0127 37.0909L37.1534 25.5245L36.668 25.6445L36.1826 25.7645L39.042 37.3309L39.5273 37.2109ZM36.668 25.6445L37.1524 25.5206C36.9829 24.8581 36.9102 24.396 36.9102 24.1094H36.4102H35.9102C35.9102 24.5259 36.0093 25.0873 36.1836 25.7684L36.668 25.6445ZM36.4102 24.1094H36.9102C36.9102 23.7958 37.0142 23.5508 37.228 23.3424L36.8789 22.9844L36.5299 22.6264C36.1187 23.0273 35.9102 23.5323 35.9102 24.1094H36.4102ZM36.8789 22.9844L37.228 23.3424C37.4414 23.1342 37.7004 23.0273 38.0391 23.0273V22.5273V22.0273C37.4558 22.0273 36.9414 22.2251 36.5299 22.6264L36.8789 22.9844ZM38.0391 22.5273V23.0273C38.5659 23.0273 38.7762 23.1882 38.8762 23.3738L39.3164 23.1367L39.7566 22.8997C39.4191 22.2727 38.7778 22.0273 38.0391 22.0273V22.5273ZM39.3164 23.1367L38.8762 23.3738C39.0619 23.7187 39.2414 24.255 39.4015 25.01L39.8906 24.9062L40.3797 24.8025C40.2118 24.0106 40.0084 23.3672 39.7566 22.8997L39.3164 23.1367ZM39.8906 24.9062L39.4027 25.0157L41.6527 35.0469L42.1406 34.9375L42.6285 34.8281L40.3785 24.7968L39.8906 24.9062ZM42.1406 34.9375L42.6235 35.0671L45.1431 25.6804L44.6602 25.5508L44.1772 25.4212L41.6577 34.8079L42.1406 34.9375ZM44.6602 25.5508L45.144 25.677C45.3298 24.9645 45.4918 24.4408 45.629 24.0942L45.1641 23.9102L44.6992 23.7261C44.5395 24.1295 44.3655 24.6996 44.1763 25.4246L44.6602 25.5508ZM45.1641 23.9102L45.629 24.0942C45.7436 23.8046 45.9316 23.5488 46.2063 23.3253L45.8906 22.9375L45.575 22.5497C45.1777 22.8731 44.8814 23.2657 44.6992 23.7261L45.1641 23.9102ZM45.8906 22.9375L46.2063 23.3253C46.4271 23.1455 46.76 23.0273 47.2617 23.0273V22.5273V22.0273C46.6072 22.0273 46.026 22.1826 45.575 22.5497L45.8906 22.9375ZM47.2617 22.5273V23.0273C47.7687 23.0273 48.0862 23.1518 48.2861 23.3321L48.6211 22.9609L48.9561 22.5897C48.5153 22.192 47.9266 22.0273 47.2617 22.0273V22.5273ZM48.6211 22.9609L48.2957 23.3406C48.5726 23.5779 48.7423 23.8194 48.8322 24.0611L49.3008 23.8867L49.7694 23.7124C49.6093 23.2821 49.3258 22.9064 48.9465 22.5813L48.6211 22.9609ZM49.3008 23.8867L48.8322 24.0611C48.9487 24.3743 49.1117 24.9102 49.3223 25.6823L49.8047 25.5508L50.2871 25.4192C50.0758 24.6445 49.9029 24.071 49.7694 23.7124L49.3008 23.8867ZM49.8047 25.5508L49.3221 25.6815L51.8651 35.0682L52.3477 34.9375L52.8303 34.8068L50.2873 25.42L49.8047 25.5508ZM52.3477 34.9375L52.8355 35.0469L55.0855 25.0157L54.5977 24.9062L54.1098 24.7968L51.8598 34.8281L52.3477 34.9375ZM54.5977 24.9062L55.0871 25.0085C55.1951 24.4916 55.2927 24.1001 55.3791 23.8263L54.9023 23.6758L54.4256 23.5252C54.3245 23.8453 54.219 24.274 54.1082 24.804L54.5977 24.9062ZM54.9023 23.6758L55.3754 23.8376C55.4509 23.617 55.5763 23.416 55.7598 23.2325L55.4062 22.8789L55.0527 22.5254C54.7675 22.8106 54.5569 23.1408 54.4293 23.5139L54.9023 23.6758ZM55.4062 22.8789L55.754 23.2382C55.8745 23.1216 56.08 23.0273 56.4492 23.0273V22.5273V22.0273C55.9121 22.0273 55.4224 22.1675 55.0585 22.5196L55.4062 22.8789ZM56.4492 22.5273V23.0273C56.7775 23.0273 57.0334 23.1325 57.2486 23.3424L57.5977 22.9844L57.9467 22.6264C57.5369 22.2268 57.0272 22.0273 56.4492 22.0273V22.5273ZM57.5977 22.9844L57.2578 23.3511C57.4717 23.5494 57.5781 23.7895 57.5781 24.1094H58.0781H58.5781C58.5781 23.523 58.3642 23.0131 57.9375 22.6177L57.5977 22.9844ZM58.0781 24.1094H57.5781C57.5781 24.3645 57.5058 24.8254 57.3346 25.5258L57.8203 25.6445L58.306 25.7633C58.4785 25.0575 58.5781 24.4949 58.5781 24.1094H58.0781ZM57.8203 25.6445L57.3349 25.5245L54.4755 37.0909L54.9609 37.2109L55.4463 37.3309L58.3057 25.7645L57.8203 25.6445ZM54.9609 37.2109L54.4759 37.0897C54.2813 37.8679 54.1223 38.4215 53.9986 38.7635L54.4688 38.9336L54.9389 39.1037C55.0809 38.7113 55.2499 38.1165 55.446 37.3322L54.9609 37.2109ZM54.4688 38.9336L53.9965 38.7693C53.9025 39.0395 53.7366 39.2848 53.4832 39.5065L53.8125 39.8828L54.1418 40.2591C54.5134 39.9339 54.785 39.5465 54.941 39.0979L54.4688 38.9336ZM53.8125 39.8828L53.4785 39.5107C53.2951 39.6753 52.9973 39.793 52.5117 39.793V40.293V40.793C53.1511 40.793 53.7205 40.6372 54.1465 40.2549L53.8125 39.8828ZM52.5117 40.293V39.793C52.0641 39.793 51.7617 39.6823 51.5535 39.5097L51.2344 39.8945L50.9152 40.2794C51.3477 40.638 51.8968 40.793 52.5117 40.793V40.293ZM51.2344 39.8945L51.5535 39.5097C51.2873 39.2888 51.1227 39.0597 51.0337 38.8259L50.5664 39.0039L50.0992 39.1819C50.2601 39.6043 50.5408 39.969 50.9152 40.2794L51.2344 39.8945ZM50.5664 39.0039L51.035 38.8295C50.9178 38.5146 50.7468 37.9616 50.5203 37.1575L50.0391 37.293L49.5578 37.4285C49.7845 38.2337 49.965 38.8214 50.0978 39.1783L50.5664 39.0039ZM60.6094 39.7891L60.2303 40.1152L60.2347 40.1202L60.6094 39.7891ZM60.6094 27.7656L60.2426 27.4257L60.2382 27.4306L60.6094 27.7656ZM60.6445 25.3867L60.3153 25.763L60.3199 25.767L60.6445 25.3867ZM60.6562 23.1133L60.9912 23.4845L60.9917 23.484L60.6562 23.1133ZM62.9062 25.3867L63.2355 25.763L63.2407 25.7584L62.9062 25.3867ZM63.375 29.1016H62.875V38.3477H63.375H63.875V29.1016H63.375ZM63.375 38.3477H62.875C62.875 38.9162 62.7395 39.2581 62.5516 39.4606L62.918 39.8008L63.2844 40.141C63.7058 39.6872 63.875 39.0604 63.875 38.3477H63.375ZM62.918 39.8008L62.5516 39.4606C62.3464 39.6815 62.0949 39.793 61.7578 39.793V40.293V40.793C62.3583 40.793 62.8802 40.5763 63.2844 40.141L62.918 39.8008ZM61.7578 40.293V39.793C61.425 39.793 61.1812 39.6811 60.984 39.458L60.6094 39.7891L60.2347 40.1202C60.6313 40.5689 61.1532 40.793 61.7578 40.793V40.293ZM60.6094 39.7891L60.9884 39.4629C60.8041 39.2488 60.6758 38.9016 60.6758 38.3477H60.1758H59.6758C59.6758 39.0437 59.8365 39.6574 60.2304 40.1152L60.6094 39.7891ZM60.1758 38.3477H60.6758V29.1953H60.1758H59.6758V38.3477H60.1758ZM60.1758 29.1953H60.6758C60.6758 28.6295 60.8059 28.2942 60.9806 28.1006L60.6094 27.7656L60.2382 27.4306C59.8348 27.8777 59.6758 28.4955 59.6758 29.1953H60.1758ZM60.6094 27.7656L60.9761 28.1055C61.1708 27.8954 61.4168 27.7852 61.7578 27.7852V27.2852V26.7852C61.1613 26.7852 60.6417 26.9952 60.2427 27.4257L60.6094 27.7656ZM61.7578 27.2852V27.7852C62.0989 27.7852 62.3516 27.8956 62.5557 28.1102L62.918 27.7656L63.2802 27.421C62.875 26.995 62.3543 26.7852 61.7578 26.7852V27.2852ZM62.918 27.7656L62.5557 28.1102C62.7485 28.313 62.875 28.6209 62.875 29.1016H63.375H63.875C63.875 28.4416 63.6968 27.8589 63.2802 27.421L62.918 27.7656ZM61.793 25.7969V25.2969C61.4593 25.2969 61.1935 25.1979 60.9692 25.0064L60.6445 25.3867L60.3199 25.767C60.7362 26.1224 61.2361 26.2969 61.793 26.2969V25.7969ZM60.6445 25.3867L60.9738 25.0104C60.7919 24.8512 60.6758 24.6145 60.6758 24.2266H60.1758H59.6758C59.6758 24.8386 59.8722 25.3753 60.3153 25.763L60.6445 25.3867ZM60.1758 24.2266H60.6758C60.6758 23.9069 60.7818 23.6735 60.9912 23.4845L60.6562 23.1133L60.3213 22.7421C59.8901 23.1312 59.6758 23.64 59.6758 24.2266H60.1758ZM60.6562 23.1133L60.9917 23.484C61.2309 23.2676 61.4913 23.168 61.793 23.168V22.668V22.168C61.2353 22.168 60.7378 22.3652 60.3208 22.7425L60.6562 23.1133ZM61.793 22.668V23.168C62.0898 23.168 62.3443 23.2597 62.5754 23.4513L62.8945 23.0664L63.2137 22.6815C62.8042 22.3419 62.3242 22.168 61.793 22.168V22.668ZM62.8945 23.0664L62.5754 23.4513C62.756 23.6011 62.875 23.8316 62.875 24.2266H63.375H63.875C63.875 23.6059 63.6737 23.063 63.2137 22.6815L62.8945 23.0664ZM63.375 24.2266H62.875C62.875 24.6036 62.7607 24.8451 62.5718 25.0151L62.9062 25.3867L63.2407 25.7584C63.6768 25.3659 63.875 24.8339 63.875 24.2266H63.375ZM62.9062 25.3867L62.577 25.0104C62.3591 25.2011 62.1062 25.2969 61.793 25.2969V25.7969V26.2969C62.3392 26.2969 62.8284 26.1192 63.2355 25.763L62.9062 25.3867ZM69.5977 29.4414H69.0977V30.9289L69.9961 29.7434L69.5977 29.4414ZM71.4375 27.8125L71.6674 28.2565L71.6693 28.2555L71.4375 27.8125ZM77.4961 29.3945L77.0468 29.6139L77.0513 29.6231L77.0561 29.6321L77.4961 29.3945ZM77.5547 39.8008L77.1839 39.4653L77.1795 39.4703L77.5547 39.8008ZM74.3672 30.6016L73.9224 30.8301L73.9264 30.8375L74.3672 30.6016ZM71.0625 30.2734L71.3538 30.6799L71.3582 30.6766L71.0625 30.2734ZM70.0312 31.668L69.5621 31.4951L69.559 31.5036L69.5561 31.5122L70.0312 31.668ZM69.3398 39.8125L68.9734 39.4723L68.9731 39.4726L69.3398 39.8125ZM66.9961 27.7422L67.3687 28.0756L67.373 28.0708L66.9961 27.7422ZM69.3867 28.082L68.9394 28.3057L68.9448 28.316L69.3867 28.082ZM69.5977 29.0547H69.0977V29.4414H69.5977H70.0977V29.0547H69.5977ZM69.5977 29.4414L69.9961 29.7434C70.5245 29.0463 71.0835 28.5587 71.6674 28.2565L71.4375 27.8125L71.2076 27.3685C70.4633 27.7538 69.7959 28.3521 69.1992 29.1394L69.5977 29.4414ZM71.4375 27.8125L71.6693 28.2555C72.26 27.9465 72.948 27.7852 73.7461 27.7852V27.2852V26.7852C72.8099 26.7852 71.9588 26.9754 71.2057 27.3695L71.4375 27.8125ZM73.7461 27.2852V27.7852C74.5149 27.7852 75.1839 27.9517 75.7659 28.2735L76.0078 27.8359L76.2498 27.3984C75.5036 26.9858 74.6648 26.7852 73.7461 26.7852V27.2852ZM76.0078 27.8359L75.7659 28.2735C76.3415 28.5918 76.7645 29.0358 77.0468 29.6139L77.4961 29.3945L77.9454 29.1751C77.5715 28.4095 77.0023 27.8145 76.2498 27.3984L76.0078 27.8359ZM77.4961 29.3945L77.0561 29.6321C77.2378 29.9685 77.3564 30.3328 77.4109 30.7285L77.9062 30.6602L78.4016 30.5918C78.3311 30.0813 78.1763 29.6018 77.936 29.157L77.4961 29.3945ZM77.9062 30.6602L77.4109 30.7285C77.4691 31.1504 77.5 31.7035 77.5 32.3945H78H78.5C78.5 31.6793 78.4684 31.0762 78.4016 30.5918L77.9062 30.6602ZM78 32.3945H77.5V38.3477H78H78.5V32.3945H78ZM78 38.3477H77.5C77.5 38.9191 77.367 39.263 77.1839 39.4653L77.5547 39.8008L77.9255 40.1362C78.3361 39.6823 78.5 39.0574 78.5 38.3477H78ZM77.5547 39.8008L77.1795 39.4703C76.9928 39.6822 76.7548 39.793 76.418 39.793V40.293V40.793C77.0186 40.793 77.5384 40.5756 77.9299 40.1313L77.5547 39.8008ZM76.418 40.293V39.793C76.0745 39.793 75.8279 39.6791 75.6325 39.458L75.2578 39.7891L74.8831 40.1202C75.2815 40.5709 75.8083 40.793 76.418 40.793V40.293ZM75.2578 39.7891L75.6325 39.458C75.4433 39.2439 75.3125 38.8987 75.3125 38.3477H74.8125H74.3125C74.3125 39.0466 74.4786 39.6623 74.8831 40.1202L75.2578 39.7891ZM74.8125 38.3477H75.3125V33.0156H74.8125H74.3125V38.3477H74.8125ZM74.8125 33.0156H75.3125C75.3125 31.9276 75.1617 31.0264 74.808 30.3656L74.3672 30.6016L73.9264 30.8375C74.1665 31.2861 74.3125 31.9943 74.3125 33.0156H74.8125ZM74.3672 30.6016L74.8119 30.373C74.4051 29.5814 73.601 29.2578 72.6211 29.2578V29.7578V30.2578C73.3912 30.2578 73.7512 30.4967 73.9225 30.8301L74.3672 30.6016ZM72.6211 29.7578V29.2578C71.9423 29.2578 71.3196 29.4649 70.7668 29.8702L71.0625 30.2734L71.3582 30.6766C71.7429 30.3945 72.1593 30.2578 72.6211 30.2578V29.7578ZM71.0625 30.2734L70.7712 29.867C70.2133 30.2669 69.8119 30.817 69.5621 31.4951L70.0312 31.668L70.5004 31.8408C70.6881 31.3314 70.9742 30.9518 71.3538 30.6798L71.0625 30.2734ZM70.0312 31.668L69.5561 31.5122C69.3718 32.0744 69.2969 33.0407 69.2969 34.3398H69.7969H70.2969C70.2969 33.0296 70.3782 32.2147 70.5064 31.8237L70.0312 31.668ZM69.7969 34.3398H69.2969V38.3477H69.7969H70.2969V34.3398H69.7969ZM69.7969 38.3477H69.2969C69.2969 38.9259 69.1605 39.2708 68.9734 39.4723L69.3398 39.8125L69.7062 40.1527C70.1286 39.6979 70.2969 39.0663 70.2969 38.3477H69.7969ZM69.3398 39.8125L68.9731 39.4726C68.7801 39.6809 68.5312 39.793 68.1797 39.793V40.293V40.793C68.7813 40.793 69.3059 40.5847 69.7066 40.1524L69.3398 39.8125ZM68.1797 40.293V39.793C67.8575 39.793 67.6166 39.6831 67.4176 39.458L67.043 39.7891L66.6683 40.1202C67.0631 40.5669 67.58 40.793 68.1797 40.793V40.293ZM67.043 39.7891L67.4176 39.458C67.2285 39.2439 67.0977 38.8987 67.0977 38.3477H66.5977H66.0977C66.0977 39.0466 66.2637 39.6623 66.6683 40.1202L67.043 39.7891ZM66.5977 38.3477H67.0977V29.1016H66.5977H66.0977V38.3477H66.5977ZM66.5977 29.1016H67.0977C67.0977 28.5523 67.2191 28.2428 67.3687 28.0756L66.9961 27.7422L66.6235 27.4088C66.2418 27.8353 66.0977 28.432 66.0977 29.1016H66.5977ZM66.9961 27.7422L67.373 28.0708C67.5298 27.8909 67.747 27.7852 68.0859 27.7852V27.2852V26.7852C67.503 26.7852 66.9937 26.9841 66.6192 27.4136L66.9961 27.7422ZM68.0859 27.2852V27.7852C68.2848 27.7852 68.4504 27.8311 68.5948 27.9157L68.8477 27.4844L69.1005 27.053C68.7918 26.8721 68.4495 26.7852 68.0859 26.7852V27.2852ZM68.8477 27.4844L68.5948 27.9157C68.7272 27.9934 68.8442 28.1149 68.9395 28.3056L69.3867 28.082L69.8339 27.8584C69.6637 27.5179 69.4212 27.241 69.1005 27.053L68.8477 27.4844ZM69.3867 28.082L68.9448 28.316C69.0383 28.4925 69.0977 28.7317 69.0977 29.0547H69.5977H70.0977C70.0977 28.6121 70.0164 28.2028 69.8286 27.8481L69.3867 28.082ZM84.1055 29.4414H83.6055V30.9289L84.504 29.7434L84.1055 29.4414ZM85.9453 27.8125L86.1752 28.2565L86.1771 28.2555L85.9453 27.8125ZM92.0039 29.3945L91.5546 29.6139L91.5591 29.6231L91.564 29.6321L92.0039 29.3945ZM92.0625 39.8008L91.6917 39.4653L91.6873 39.4703L92.0625 39.8008ZM88.875 30.6016L88.4302 30.8301L88.4342 30.8375L88.875 30.6016ZM85.5703 30.2734L85.8616 30.6799L85.866 30.6766L85.5703 30.2734ZM84.5391 31.668L84.0699 31.4951L84.0668 31.5036L84.0639 31.5122L84.5391 31.668ZM83.8477 39.8125L83.4813 39.4723L83.4809 39.4726L83.8477 39.8125ZM81.5039 27.7422L81.8766 28.0756L81.8808 28.0708L81.5039 27.7422ZM83.8945 28.082L83.4472 28.3057L83.4526 28.316L83.8945 28.082ZM84.1055 29.0547H83.6055V29.4414H84.1055H84.6055V29.0547H84.1055ZM84.1055 29.4414L84.504 29.7434C85.0323 29.0463 85.5914 28.5587 86.1752 28.2565L85.9453 27.8125L85.7155 27.3685C84.9711 27.7538 84.3037 28.3521 83.707 29.1394L84.1055 29.4414ZM85.9453 27.8125L86.1771 28.2555C86.7678 27.9465 87.4558 27.7852 88.2539 27.7852V27.2852V26.7852C87.3177 26.7852 86.4666 26.9754 85.7135 27.3695L85.9453 27.8125ZM88.2539 27.2852V27.7852C89.0227 27.7852 89.6917 27.9517 90.2737 28.2735L90.5156 27.8359L90.7576 27.3984C90.0114 26.9858 89.1726 26.7852 88.2539 26.7852V27.2852ZM90.5156 27.8359L90.2737 28.2735C90.8493 28.5918 91.2723 29.0358 91.5546 29.6139L92.0039 29.3945L92.4532 29.1751C92.0793 28.4095 91.5101 27.8145 90.7576 27.3984L90.5156 27.8359ZM92.0039 29.3945L91.564 29.6321C91.7456 29.9685 91.8642 30.3328 91.9188 30.7285L92.4141 30.6602L92.9094 30.5918C92.8389 30.0813 92.6841 29.6018 92.4439 29.157L92.0039 29.3945ZM92.4141 30.6602L91.9188 30.7285C91.9769 31.1504 92.0078 31.7035 92.0078 32.3945H92.5078H93.0078C93.0078 31.6793 92.9762 31.0762 92.9094 30.5918L92.4141 30.6602ZM92.5078 32.3945H92.0078V38.3477H92.5078H93.0078V32.3945H92.5078ZM92.5078 38.3477H92.0078C92.0078 38.9191 91.8748 39.263 91.6917 39.4653L92.0625 39.8008L92.4333 40.1362C92.8439 39.6823 93.0078 39.0574 93.0078 38.3477H92.5078ZM92.0625 39.8008L91.6873 39.4703C91.5006 39.6822 91.2626 39.793 90.9258 39.793V40.293V40.793C91.5265 40.793 92.0462 40.5756 92.4377 40.1313L92.0625 39.8008ZM90.9258 40.293V39.793C90.5823 39.793 90.3357 39.6791 90.1403 39.458L89.7656 39.7891L89.391 40.1202C89.7893 40.5709 90.3161 40.793 90.9258 40.793V40.293ZM89.7656 39.7891L90.1403 39.458C89.9511 39.2439 89.8203 38.8987 89.8203 38.3477H89.3203H88.8203C88.8203 39.0466 88.9864 39.6623 89.391 40.1202L89.7656 39.7891ZM89.3203 38.3477H89.8203V33.0156H89.3203H88.8203V38.3477H89.3203ZM89.3203 33.0156H89.8203C89.8203 31.9276 89.6695 31.0264 89.3158 30.3656L88.875 30.6016L88.4342 30.8375C88.6743 31.2861 88.8203 31.9943 88.8203 33.0156H89.3203ZM88.875 30.6016L89.3197 30.373C88.9129 29.5814 88.1088 29.2578 87.1289 29.2578V29.7578V30.2578C87.899 30.2578 88.259 30.4967 88.4303 30.8301L88.875 30.6016ZM87.1289 29.7578V29.2578C86.4501 29.2578 85.8274 29.4649 85.2746 29.8702L85.5703 30.2734L85.866 30.6766C86.2508 30.3945 86.6671 30.2578 87.1289 30.2578V29.7578ZM85.5703 30.2734L85.2791 29.867C84.7211 30.2669 84.3197 30.817 84.0699 31.4951L84.5391 31.668L85.0082 31.8408C85.1959 31.3314 85.482 30.9518 85.8616 30.6798L85.5703 30.2734ZM84.5391 31.668L84.0639 31.5122C83.8796 32.0744 83.8047 33.0407 83.8047 34.3398H84.3047H84.8047C84.8047 33.0296 84.886 32.2147 85.0142 31.8237L84.5391 31.668ZM84.3047 34.3398H83.8047V38.3477H84.3047H84.8047V34.3398H84.3047ZM84.3047 38.3477H83.8047C83.8047 38.9259 83.6683 39.2708 83.4813 39.4723L83.8477 39.8125L84.2141 40.1527C84.6364 39.6979 84.8047 39.0663 84.8047 38.3477H84.3047ZM83.8477 39.8125L83.4809 39.4726C83.2879 39.6809 83.039 39.793 82.6875 39.793V40.293V40.793C83.2891 40.793 83.8137 40.5847 84.2144 40.1524L83.8477 39.8125ZM82.6875 40.293V39.793C82.3653 39.793 82.1244 39.6831 81.9254 39.458L81.5508 39.7891L81.1761 40.1202C81.5709 40.5669 82.0878 40.793 82.6875 40.793V40.293ZM81.5508 39.7891L81.9254 39.458C81.7363 39.2439 81.6055 38.8987 81.6055 38.3477H81.1055H80.6055C80.6055 39.0466 80.7715 39.6623 81.1761 40.1202L81.5508 39.7891ZM81.1055 38.3477H81.6055V29.1016H81.1055H80.6055V38.3477H81.1055ZM81.1055 29.1016H81.6055C81.6055 28.5523 81.7269 28.2428 81.8765 28.0756L81.5039 27.7422L81.1313 27.4088C80.7497 27.8353 80.6055 28.432 80.6055 29.1016H81.1055ZM81.5039 27.7422L81.8808 28.0708C82.0376 27.8909 82.2548 27.7852 82.5938 27.7852V27.2852V26.7852C82.0109 26.7852 81.5015 26.9841 81.127 27.4136L81.5039 27.7422ZM82.5938 27.2852V27.7852C82.7926 27.7852 82.9582 27.8311 83.1026 27.9157L83.3555 27.4844L83.6083 27.053C83.2996 26.8721 82.9574 26.7852 82.5938 26.7852V27.2852ZM83.3555 27.4844L83.1026 27.9157C83.235 27.9934 83.352 28.1149 83.4473 28.3056L83.8945 28.082L84.3417 27.8584C84.1715 27.5179 83.929 27.241 83.6083 27.053L83.3555 27.4844ZM83.8945 28.082L83.4526 28.316C83.5461 28.4925 83.6055 28.7317 83.6055 29.0547H84.1055H84.6055C84.6055 28.6121 84.5242 28.2028 84.3364 27.8481L83.8945 28.082ZM98.3789 34.5742V34.0742H97.8735L97.8789 34.5796L98.3789 34.5742ZM98.8125 36.4961L98.3665 36.7222L98.3691 36.7272L98.8125 36.4961ZM99.9492 37.75L99.692 38.1788L99.6951 38.1806L99.9492 37.75ZM102.562 38.043L102.695 38.5251L102.703 38.5228L102.562 38.043ZM103.488 37.6211L103.755 38.0439L103.763 38.0388L103.488 37.6211ZM105.281 36.1094L104.956 35.7297L104.947 35.7373L104.939 35.7453L105.281 36.1094ZM106.746 37.9492L107.176 38.2039L107.179 38.2001L106.746 37.9492ZM105.715 39.0625L106.021 39.4575L106.022 39.4568L105.715 39.0625ZM103.992 39.9414L103.832 39.4676L103.831 39.4682L103.992 39.9414ZM96.8203 38.5352L96.462 38.8839L96.8203 38.5352ZM95.5312 31.1406L96.0033 31.3056L96.0037 31.3042L95.5312 31.1406ZM98.7539 27.7305L98.934 28.1969L98.938 28.1953L98.7539 27.7305ZM104.59 28.0586L104.334 28.488L104.338 28.4906L104.59 28.0586ZM106.582 34.2227L106.809 34.6684L106.815 34.6653L106.582 34.2227ZM98.3789 32.7578L97.8815 32.7073L97.8256 33.2578H98.3789V32.7578ZM104.18 32.7578V33.2578H104.717L104.678 32.7222L104.18 32.7578ZM103.289 30.3086L102.923 30.6489L102.928 30.6542L103.289 30.3086ZM99.3047 30.3203L98.9385 29.9799L98.9383 29.9801L99.3047 30.3203ZM104.637 34.5742V34.0742H98.3789V34.5742V35.0742H104.637V34.5742ZM98.3789 34.5742L97.8789 34.5796C97.8874 35.37 98.0452 36.0884 98.3665 36.7222L98.8125 36.4961L99.2585 36.27C99.0173 35.7944 98.886 35.2315 98.8789 34.5688L98.3789 34.5742ZM98.8125 36.4961L98.3691 36.7272C98.6945 37.3516 99.1332 37.8435 99.692 38.1787L99.9492 37.75L100.206 37.3213C99.8277 37.094 99.5086 36.75 99.2559 36.265L98.8125 36.4961ZM99.9492 37.75L99.6951 38.1806C100.251 38.5087 100.863 38.6719 101.52 38.6719V38.1719V37.6719C101.036 37.6719 100.6 37.5538 100.203 37.3194L99.9492 37.75ZM101.52 38.1719V38.6719C101.939 38.6719 102.332 38.6248 102.695 38.5251L102.562 38.043L102.43 37.5609C102.168 37.633 101.865 37.6719 101.52 37.6719V38.1719ZM102.562 38.043L102.703 38.5228C103.07 38.4154 103.421 38.2549 103.755 38.0438L103.488 37.6211L103.221 37.1983C102.962 37.3623 102.695 37.4831 102.422 37.5631L102.562 38.043ZM103.488 37.6211L103.763 38.0388C104.078 37.8318 104.37 37.6111 104.638 37.3763L104.309 37L103.979 36.6237C103.748 36.8264 103.493 37.0198 103.213 37.2034L103.488 37.6211ZM104.309 37L104.638 37.3763C104.894 37.1518 105.224 36.8503 105.624 36.4735L105.281 36.1094L104.939 35.7453C104.542 36.1184 104.223 36.4107 103.979 36.6237L104.309 37ZM105.281 36.1094L105.607 36.489C105.649 36.4526 105.751 36.3984 105.984 36.3984V35.8984V35.3984C105.609 35.3984 105.242 35.4849 104.956 35.7297L105.281 36.1094ZM105.984 35.8984V36.3984C106.217 36.3984 106.357 36.4598 106.45 36.5425L106.781 36.168L107.113 35.7935C106.8 35.5167 106.408 35.3984 105.984 35.3984V35.8984ZM106.781 36.168L106.45 36.5425C106.524 36.6075 106.586 36.7121 106.586 36.9297H107.086H107.586C107.586 36.4911 107.445 36.0878 107.113 35.7935L106.781 36.168ZM107.086 36.9297H106.586C106.586 37.0944 106.519 37.3449 106.314 37.6984L106.746 37.9492L107.179 38.2001C107.427 37.7723 107.586 37.3431 107.586 36.9297H107.086ZM106.746 37.9492L106.316 37.6946C106.129 38.0096 105.834 38.3358 105.407 38.6682L105.715 39.0625L106.022 39.4568C106.518 39.0704 106.91 38.6545 107.176 38.2039L106.746 37.9492ZM105.715 39.0625L105.408 38.6675C105.01 38.9767 104.489 39.2463 103.832 39.4676L103.992 39.9414L104.152 40.4152C104.886 40.1677 105.514 39.8514 106.021 39.4575L105.715 39.0625ZM103.992 39.9414L103.831 39.4682C103.206 39.6812 102.469 39.793 101.613 39.793V40.293V40.793C102.554 40.793 103.403 40.6704 104.154 40.4147L103.992 39.9414ZM101.613 40.293V39.793C99.6569 39.793 98.2023 39.2381 97.1786 38.1864L96.8203 38.5352L96.462 38.8839C97.7196 40.1759 99.4603 40.793 101.613 40.793V40.293ZM96.8203 38.5352L97.1786 38.1864C96.1486 37.1282 95.6094 35.6746 95.6094 33.7656H95.1094H94.6094C94.6094 35.8723 95.2108 37.5984 96.462 38.8839L96.8203 38.5352ZM95.1094 33.7656H95.6094C95.6094 32.8704 95.7424 32.0518 96.0033 31.3056L95.5312 31.1406L95.0592 30.9757C94.7576 31.8388 94.6094 32.7702 94.6094 33.7656H95.1094ZM95.5312 31.1406L96.0037 31.3042C96.2642 30.5518 96.64 29.9184 97.1274 29.3957L96.7617 29.0547L96.396 28.7137C95.8053 29.3472 95.3608 30.1045 95.0588 30.9771L95.5312 31.1406ZM96.7617 29.0547L97.1274 29.3957C97.6113 28.8767 98.2105 28.4763 98.934 28.1969L98.7539 27.7305L98.5738 27.264C97.7192 27.594 96.9902 28.0764 96.396 28.7137L96.7617 29.0547ZM98.7539 27.7305L98.938 28.1953C99.6612 27.9089 100.473 27.7617 101.379 27.7617V27.2617V26.7617C100.363 26.7617 99.4247 26.927 98.5698 27.2656L98.7539 27.7305ZM101.379 27.2617V27.7617C102.557 27.7617 103.535 28.0116 104.334 28.488L104.59 28.0586L104.846 27.6292C103.863 27.0431 102.701 26.7617 101.379 26.7617V27.2617ZM104.59 28.0586L104.338 28.4906C105.164 28.972 105.767 29.5867 106.164 30.3327L106.605 30.0977L107.047 29.8626C106.554 28.9367 105.812 28.192 104.842 27.6266L104.59 28.0586ZM106.605 30.0977L106.164 30.3327C106.575 31.1031 106.773 31.8745 106.773 32.6523H107.273H107.773C107.773 31.6958 107.527 30.7641 107.047 29.8626L106.605 30.0977ZM107.273 32.6523H106.773C106.773 33.3819 106.567 33.6658 106.349 33.78L106.582 34.2227L106.815 34.6653C107.519 34.2951 107.773 33.5321 107.773 32.6523H107.273ZM106.582 34.2227L106.355 33.777C105.995 33.9602 105.437 34.0742 104.637 34.0742V34.5742V35.0742C105.508 35.0742 106.247 34.9539 106.809 34.6683L106.582 34.2227ZM98.3789 32.7578V33.2578H104.18V32.7578V32.2578H98.3789V32.7578ZM104.18 32.7578L104.678 32.7222C104.596 31.5652 104.277 30.6179 103.65 29.963L103.289 30.3086L102.928 30.6542C103.333 31.0774 103.607 31.7629 103.681 32.7934L104.18 32.7578ZM103.289 30.3086L103.655 29.9684C103.041 29.3068 102.23 28.9883 101.273 28.9883V29.4883V29.9883C101.989 29.9883 102.521 30.2166 102.923 30.6488L103.289 30.3086ZM101.273 29.4883V28.9883C100.346 28.9883 99.5541 29.3176 98.9385 29.9799L99.3047 30.3203L99.6709 30.6607C100.087 30.2136 100.607 29.9883 101.273 29.9883V29.4883ZM99.3047 30.3203L98.9383 29.9801C98.3296 30.6356 97.997 31.5681 97.8815 32.7073L98.3789 32.7578L98.8764 32.8083C98.9795 31.7913 99.2641 31.0988 99.6711 30.6605L99.3047 30.3203ZM112.699 39.8125L113.062 40.1571L113.066 40.1527L112.699 39.8125ZM113.051 29.2773L112.551 29.2952L112.613 31.0206L113.483 29.5293L113.051 29.2773ZM114.223 27.7891L113.904 27.4037L113.9 27.4068L114.223 27.7891ZM118.336 30.0977L118.679 30.4618L118.679 30.4615L118.336 30.0977ZM116.613 30.2617L116.455 30.7362L116.465 30.7393L116.613 30.2617ZM114.281 30.4141L114.597 30.8015L114.603 30.7965L114.281 30.4141ZM113.25 33.2383L113.748 33.2851L113.748 33.2846L113.25 33.2383ZM113.156 35.6758H112.656V38.3477H113.156H113.656V35.6758H113.156ZM113.156 38.3477H112.656C112.656 38.9259 112.52 39.2708 112.333 39.4723L112.699 39.8125L113.066 40.1527C113.488 39.6979 113.656 39.0663 113.656 38.3477H113.156ZM112.699 39.8125L112.337 39.4679C112.133 39.6825 111.88 39.793 111.539 39.793V40.293V40.793C112.136 40.793 112.656 40.5831 113.061 40.1571L112.699 39.8125ZM111.539 40.293V39.793C111.213 39.793 110.971 39.6838 110.773 39.4653L110.402 39.8008L110.032 40.1362C110.428 40.574 110.944 40.793 111.539 40.793V40.293ZM110.402 39.8008L110.773 39.4653C110.59 39.263 110.457 38.9191 110.457 38.3477H109.957H109.457C109.457 39.0574 109.621 39.6823 110.032 40.1362L110.402 39.8008ZM109.957 38.3477H110.457V29.4414H109.957H109.457V38.3477H109.957ZM109.957 29.4414H110.457C110.457 28.7679 110.581 28.353 110.752 28.1171C110.901 27.9113 111.125 27.7852 111.516 27.7852V27.2852V26.7852C110.867 26.7852 110.312 27.0184 109.941 27.5313C109.592 28.0142 109.457 28.6774 109.457 29.4414H109.957ZM111.516 27.2852V27.7852C111.937 27.7852 112.14 27.9121 112.254 28.0752L112.664 27.7891L113.074 27.503C112.719 26.9942 112.156 26.7852 111.516 26.7852V27.2852ZM112.664 27.7891L112.254 28.0752C112.409 28.2978 112.529 28.6823 112.551 29.2952L113.051 29.2773L113.55 29.2595C113.525 28.5599 113.388 27.9522 113.074 27.503L112.664 27.7891ZM113.051 29.2773L113.483 29.5293C113.849 28.9019 114.205 28.4577 114.545 28.1713L114.223 27.7891L113.9 27.4068C113.443 27.7923 113.019 28.3403 112.619 29.0254L113.051 29.2773ZM114.223 27.7891L114.541 28.1744C114.836 27.931 115.252 27.7852 115.84 27.7852V27.2852V26.7852C115.084 26.7852 114.422 26.9753 113.904 27.4037L114.223 27.7891ZM115.84 27.2852V27.7852C116.425 27.7852 116.997 27.9305 117.562 28.2307L117.797 27.7891L118.031 27.3474C117.331 26.9758 116.599 26.7852 115.84 26.7852V27.2852ZM117.797 27.7891L117.562 28.2307C118.088 28.5095 118.246 28.8109 118.246 29.125H118.746H119.246C119.246 28.3297 118.772 27.7405 118.031 27.3474L117.797 27.7891ZM118.746 29.125H118.246C118.246 29.384 118.162 29.5746 117.993 29.7339L118.336 30.0977L118.679 30.4615C119.057 30.1051 119.246 29.6472 119.246 29.125H118.746ZM118.336 30.0977L117.993 29.7336C117.804 29.9119 117.633 29.9727 117.469 29.9727V30.4727V30.9727C117.93 30.9727 118.337 30.7834 118.679 30.4618L118.336 30.0977ZM117.469 30.4727V29.9727C117.478 29.9727 117.431 29.9701 117.287 29.9345C117.158 29.9026 116.984 29.8531 116.761 29.7842L116.613 30.2617L116.465 30.7393C116.696 30.8109 116.891 30.8669 117.047 30.9054C117.188 30.94 117.342 30.9727 117.469 30.9727V30.4727ZM116.613 30.2617L116.771 29.7874C116.292 29.6277 115.843 29.5391 115.43 29.5391V30.0391V30.5391C115.704 30.5391 116.044 30.5988 116.455 30.7361L116.613 30.2617ZM115.43 30.0391V29.5391C114.869 29.5391 114.364 29.6907 113.959 30.0316L114.281 30.4141L114.603 30.7965C114.792 30.6374 115.053 30.5391 115.43 30.5391V30.0391ZM114.281 30.4141L113.965 30.0266C113.575 30.345 113.301 30.7992 113.116 31.3435L113.59 31.5039L114.063 31.6643C114.207 31.2399 114.394 30.9675 114.597 30.8015L114.281 30.4141ZM113.59 31.5039L113.116 31.3435C112.936 31.8744 112.817 32.4928 112.752 33.192L113.25 33.2383L113.748 33.2846C113.808 32.64 113.915 32.1022 114.063 31.6643L113.59 31.5039ZM113.25 33.2383L112.752 33.1914C112.688 33.8762 112.656 34.7054 112.656 35.6758H113.156H113.656C113.656 34.7243 113.687 33.9285 113.748 33.2851L113.25 33.2383ZM129.551 38.3828L129.963 38.6661L129.964 38.6637L129.551 38.3828ZM127.641 39.8125L127.82 40.2794L127.822 40.2785L127.641 39.8125ZM119.812 38.4531L119.41 38.7493L119.412 38.7522L119.812 38.4531ZM121.84 36.5195L121.402 36.7614L121.406 36.7689L121.84 36.5195ZM123.012 37.7969L122.748 38.2217L122.751 38.2237L123.012 37.7969ZM126.457 37.7969L126.742 38.208L126.743 38.2069L126.457 37.7969ZM126.434 35.582L126.173 36.0087L126.176 36.0108L126.434 35.582ZM124.336 34.8438L124.215 35.329L124.219 35.3299L124.336 34.8438ZM121.641 33.9883L121.438 34.4454L121.444 34.4481L121.641 33.9883ZM121.629 27.8008L121.835 28.2563L121.837 28.2553L121.629 27.8008ZM126.562 27.543L126.436 28.0267L126.437 28.027L126.562 27.543ZM128.215 28.2344L127.939 28.6516L127.943 28.6538L128.215 28.2344ZM129.223 29.1953L128.802 29.4662L128.807 29.4727L129.223 29.1953ZM129.199 31.1289L128.857 30.7641L128.852 30.7696L129.199 31.1289ZM127.312 31.1992L126.994 31.5845L127 31.5897L127.312 31.1992ZM126.527 30.3555L126.132 30.6618L126.135 30.6658L126.527 30.3555ZM122.895 29.6992L123.162 30.1218L123.168 30.1179L122.895 29.6992ZM122.742 31.4453L122.435 31.84L122.442 31.8453L122.742 31.4453ZM125.848 32.4883L125.966 32.0025L125.966 32.0024L125.848 32.4883ZM128.273 33.3555L128.037 33.7959L128.039 33.7971L128.273 33.3555ZM129.703 34.5508L129.292 34.8362L129.298 34.844L129.703 34.5508ZM130.195 36.1094H129.695C129.695 36.9079 129.502 37.5642 129.137 38.1019L129.551 38.3828L129.964 38.6637C130.459 37.9358 130.695 37.0765 130.695 36.1094H130.195ZM129.551 38.3828L129.139 38.0995C128.776 38.6269 128.228 39.0476 127.459 39.3465L127.641 39.8125L127.822 40.2785C128.741 39.9212 129.466 39.3887 129.963 38.6661L129.551 38.3828ZM127.641 39.8125L127.462 39.3456C126.699 39.6379 125.744 39.793 124.582 39.793V40.293V40.793C125.827 40.793 126.911 40.6277 127.82 40.2794L127.641 39.8125ZM124.582 40.293V39.793C123.483 39.793 122.569 39.6245 121.826 39.3061L121.629 39.7656L121.432 40.2252C122.33 40.6099 123.384 40.793 124.582 40.793V40.293ZM121.629 39.7656L121.826 39.3061C121.058 38.977 120.535 38.5858 120.213 38.1541L119.812 38.4531L119.412 38.7522C119.871 39.3673 120.559 39.8512 121.432 40.2252L121.629 39.7656ZM119.812 38.4531L120.215 38.1569C119.872 37.6905 119.727 37.2606 119.727 36.8594H119.227H118.727C118.727 37.5206 118.971 38.1532 119.41 38.7493L119.812 38.4531ZM119.227 36.8594H119.727C119.727 36.6413 119.798 36.4674 119.955 36.3106L119.602 35.957L119.248 35.6035C118.905 35.9466 118.727 36.3744 118.727 36.8594H119.227ZM119.602 35.957L119.955 36.3106C120.103 36.1626 120.288 36.082 120.551 36.082V35.582V35.082C120.047 35.082 119.6 35.2515 119.248 35.6035L119.602 35.957ZM120.551 35.582V36.082C120.81 36.082 120.93 36.1449 120.987 36.1974L121.324 35.8281L121.661 35.4589C121.359 35.1832 120.964 35.082 120.551 35.082V35.582ZM121.324 35.8281L120.987 36.1974C121.114 36.3134 121.255 36.4948 121.402 36.7614L121.84 36.5195L122.277 36.2777C122.097 35.9505 121.894 35.671 121.661 35.4589L121.324 35.8281ZM121.84 36.5195L121.406 36.7689C121.766 37.3943 122.21 37.8878 122.748 38.2217L123.012 37.7969L123.275 37.3721C122.907 37.1434 122.57 36.7854 122.273 36.2702L121.84 36.5195ZM123.012 37.7969L122.751 38.2237C123.319 38.57 124.046 38.7188 124.887 38.7188V38.2188V37.7188C124.15 37.7188 123.626 37.5863 123.272 37.3701L123.012 37.7969ZM124.887 38.2188V38.7188C125.599 38.7188 126.23 38.5621 126.742 38.208L126.457 37.7969L126.172 37.3858C125.871 37.5942 125.456 37.7188 124.887 37.7188V38.2188ZM126.457 37.7969L126.743 38.2069C127.237 37.8624 127.578 37.3999 127.578 36.8125H127.078H126.578C126.578 36.9594 126.506 37.1532 126.171 37.3869L126.457 37.7969ZM127.078 36.8125H127.578C127.578 36.1001 127.292 35.514 126.691 35.1533L126.434 35.582L126.176 36.0108C126.435 36.1657 126.578 36.3999 126.578 36.8125H127.078ZM126.434 35.582L126.694 35.1554C126.202 34.8547 125.439 34.5943 124.453 34.3576L124.336 34.8438L124.219 35.3299C125.186 35.562 125.821 35.7938 126.173 36.0087L126.434 35.582ZM124.336 34.8438L124.456 34.3585C123.369 34.0886 122.499 33.811 121.837 33.5284L121.641 33.9883L121.444 34.4481C122.173 34.7593 123.099 35.052 124.215 35.329L124.336 34.8438ZM121.641 33.9883L121.843 33.5312C121.214 33.2521 120.728 32.896 120.371 32.4711L119.988 32.793L119.606 33.1148C120.076 33.6743 120.693 34.1151 121.438 34.4454L121.641 33.9883ZM119.988 32.793L120.371 32.4711C120.042 32.0797 119.867 31.5923 119.867 30.9766H119.367H118.867C118.867 31.7983 119.107 32.5219 119.606 33.1148L119.988 32.793ZM119.367 30.9766H119.867C119.867 30.4425 120.025 29.933 120.357 29.4388L119.941 29.1602L119.526 28.8815C119.092 29.528 118.867 30.2294 118.867 30.9766H119.367ZM119.941 29.1602L120.357 29.4388C120.679 28.9591 121.162 28.5611 121.835 28.2563L121.629 27.8008L121.423 27.3453C120.612 27.7124 119.97 28.2206 119.526 28.8815L119.941 29.1602ZM121.629 27.8008L121.837 28.2553C122.506 27.9486 123.334 27.7852 124.336 27.7852V27.2852V26.7852C123.229 26.7852 122.251 26.9654 121.421 27.3462L121.629 27.8008ZM124.336 27.2852V27.7852C125.13 27.7852 125.829 27.8677 126.436 28.0267L126.562 27.543L126.689 27.0593C125.984 26.8745 125.198 26.7852 124.336 26.7852V27.2852ZM126.562 27.543L126.437 28.027C127.063 28.1891 127.56 28.4007 127.939 28.6515L128.215 28.2344L128.49 27.8172C127.995 27.49 127.39 27.2406 126.688 27.0589L126.562 27.543ZM128.215 28.2344L127.943 28.6538C128.344 28.9143 128.623 29.1877 128.802 29.4662L129.223 29.1953L129.643 28.9245C129.369 28.4998 128.976 28.1325 128.487 27.815L128.215 28.2344ZM129.223 29.1953L128.807 29.4727C129 29.7633 129.074 30.012 129.074 30.2266H129.574H130.074C130.074 29.7692 129.914 29.3305 129.639 28.918L129.223 29.1953ZM129.574 30.2266H129.074C129.074 30.4666 128.999 30.6316 128.857 30.7641L129.199 31.1289L129.541 31.4937C129.9 31.1575 130.074 30.7209 130.074 30.2266H129.574ZM129.199 31.1289L128.852 30.7696C128.731 30.8862 128.525 30.9805 128.156 30.9805V31.4805V31.9805C128.693 31.9805 129.183 31.8403 129.547 31.4882L129.199 31.1289ZM128.156 31.4805V30.9805C127.93 30.9805 127.762 30.9186 127.625 30.8088L127.312 31.1992L127 31.5897C127.332 31.8548 127.726 31.9805 128.156 31.9805V31.4805ZM127.312 31.1992L127.631 30.814C127.443 30.6583 127.206 30.4074 126.919 30.0451L126.527 30.3555L126.135 30.6658C126.442 31.0535 126.729 31.3651 126.994 31.5844L127.312 31.1992ZM126.527 30.3555L126.923 30.0492C126.642 29.6873 126.308 29.3929 125.92 29.1713L125.672 29.6055L125.424 30.0396C125.692 30.193 125.928 30.3987 126.132 30.6618L126.527 30.3555ZM125.672 29.6055L125.92 29.1713C125.488 28.9246 124.946 28.8242 124.336 28.8242V29.3242V29.8242C124.851 29.8242 125.199 29.9113 125.424 30.0396L125.672 29.6055ZM124.336 29.3242V28.8242C123.686 28.8242 123.104 28.9651 122.621 29.2806L122.895 29.6992L123.168 30.1179C123.45 29.9334 123.829 29.8242 124.336 29.8242V29.3242ZM122.895 29.6992L122.627 29.2767C122.138 29.5859 121.82 30.0332 121.82 30.6133H122.32H122.82C122.82 30.459 122.885 30.2969 123.162 30.1218L122.895 29.6992ZM122.32 30.6133H121.82C121.82 31.114 122.041 31.5332 122.435 31.84L122.742 31.4453L123.049 31.0506C122.881 30.92 122.82 30.7844 122.82 30.6133H122.32ZM122.742 31.4453L122.442 31.8453C122.786 32.1035 123.225 32.3011 123.737 32.4522L123.879 31.9727L124.02 31.4931C123.579 31.3629 123.26 31.209 123.042 31.0453L122.742 31.4453ZM123.879 31.9727L123.737 32.4522C124.225 32.5962 124.891 32.7703 125.73 32.9741L125.848 32.4883L125.966 32.0024C125.133 31.8 124.486 31.6304 124.02 31.4931L123.879 31.9727ZM125.848 32.4883L125.729 32.974C126.696 33.2102 127.461 33.4866 128.037 33.7959L128.273 33.3555L128.51 32.9151C127.835 32.5524 126.983 32.2508 125.966 32.0025L125.848 32.4883ZM128.273 33.3555L128.039 33.7971C128.62 34.1057 129.028 34.4561 129.293 34.8361L129.703 34.5508L130.114 34.2655C129.737 33.7236 129.192 33.2771 128.508 32.9138L128.273 33.3555ZM129.703 34.5508L129.298 34.844C129.561 35.2077 129.695 35.6234 129.695 36.1094H130.195H130.695C130.695 35.4234 130.501 34.8002 130.108 34.2575L129.703 34.5508ZM142.535 37.1406H142.035V37.6406H142.535V37.1406ZM150.879 37.5508L150.54 37.9186L150.545 37.9229L150.879 37.5508ZM150.891 39.6133L151.219 39.9908L151.224 39.9859L150.891 39.6133ZM139.547 39.4961L139.189 39.8455L139.193 39.8496L139.547 39.4961ZM139.523 23.0547L139.154 22.7179L139.15 22.7225L139.523 23.0547ZM142.043 23.0547L141.673 23.3915L141.681 23.3999L142.043 23.0547ZM142.535 24.6367H142.035V37.1406H142.535H143.035V24.6367H142.535ZM142.535 37.1406V37.6406H149.59V37.1406V36.6406H142.535V37.1406ZM149.59 37.1406V37.6406C150.076 37.6406 150.367 37.7587 150.54 37.9186L150.879 37.5508L151.218 37.183C150.797 36.796 150.228 36.6406 149.59 36.6406V37.1406ZM150.879 37.5508L150.545 37.9229C150.743 38.1003 150.836 38.3081 150.836 38.582H151.336H151.836C151.836 38.0278 151.625 37.5482 151.213 37.1787L150.879 37.5508ZM151.336 38.582H150.836C150.836 38.8711 150.741 39.076 150.557 39.2407L150.891 39.6133L151.224 39.9859C151.634 39.6193 151.836 39.1367 151.836 38.582H151.336ZM150.891 39.6133L150.563 39.2358C150.39 39.3856 150.093 39.5 149.59 39.5V40V40.5C150.227 40.5 150.797 40.3566 151.218 39.9908L150.891 39.6133ZM149.59 40V39.5H141.188V40V40.5H149.59V40ZM141.188 40V39.5C140.486 39.5 140.1 39.342 139.9 39.1425L139.547 39.4961L139.193 39.8496C139.666 40.3221 140.373 40.5 141.188 40.5V40ZM139.547 39.4961L139.905 39.1467C139.709 38.9467 139.555 38.5614 139.555 37.8672H139.055H138.555C138.555 38.6729 138.728 39.3736 139.189 39.8455L139.547 39.4961ZM139.055 37.8672H139.555V24.6367H139.055H138.555V37.8672H139.055ZM139.055 24.6367H139.555C139.555 23.9971 139.698 23.6108 139.897 23.3869L139.523 23.0547L139.15 22.7225C138.724 23.2017 138.555 23.8701 138.555 24.6367H139.055ZM139.523 23.0547L139.893 23.3914C140.11 23.1533 140.389 23.0273 140.777 23.0273V22.5273V22.0273C140.134 22.0273 139.577 22.253 139.154 22.7179L139.523 23.0547ZM140.777 22.5273V23.0273C141.176 23.0273 141.458 23.155 141.673 23.3914L142.043 23.0547L142.413 22.7179C141.987 22.2513 141.426 22.0273 140.777 22.0273V22.5273ZM142.043 23.0547L141.681 23.3999C141.885 23.6135 142.035 23.9917 142.035 24.6367H142.535H143.035C143.035 23.8599 142.857 23.1834 142.405 22.7094L142.043 23.0547ZM153.844 39.7891L153.465 40.1152L153.469 40.1202L153.844 39.7891ZM153.844 27.7656L153.477 27.4257L153.473 27.4306L153.844 27.7656ZM153.879 25.3867L153.55 25.763L153.554 25.767L153.879 25.3867ZM153.891 23.1133L154.226 23.4845L154.226 23.484L153.891 23.1133ZM156.141 25.3867L156.47 25.763L156.475 25.7584L156.141 25.3867ZM156.609 29.1016H156.109V38.3477H156.609H157.109V29.1016H156.609ZM156.609 38.3477H156.109C156.109 38.9162 155.974 39.2581 155.786 39.4606L156.152 39.8008L156.519 40.141C156.94 39.6872 157.109 39.0604 157.109 38.3477H156.609ZM156.152 39.8008L155.786 39.4606C155.581 39.6815 155.329 39.793 154.992 39.793V40.293V40.793C155.593 40.793 156.115 40.5763 156.519 40.141L156.152 39.8008ZM154.992 40.293V39.793C154.659 39.793 154.416 39.6811 154.218 39.458L153.844 39.7891L153.469 40.1202C153.866 40.5689 154.388 40.793 154.992 40.793V40.293ZM153.844 39.7891L154.223 39.4629C154.039 39.2488 153.91 38.9016 153.91 38.3477H153.41H152.91C152.91 39.0437 153.071 39.6574 153.465 40.1152L153.844 39.7891ZM153.41 38.3477H153.91V29.1953H153.41H152.91V38.3477H153.41ZM153.41 29.1953H153.91C153.91 28.6295 154.04 28.2942 154.215 28.1006L153.844 27.7656L153.473 27.4306C153.069 27.8777 152.91 28.4955 152.91 29.1953H153.41ZM153.844 27.7656L154.21 28.1055C154.405 27.8954 154.651 27.7852 154.992 27.7852V27.2852V26.7852C154.396 26.7852 153.876 26.9952 153.477 27.4257L153.844 27.7656ZM154.992 27.2852V27.7852C155.333 27.7852 155.586 27.8956 155.79 28.1102L156.152 27.7656L156.515 27.421C156.109 26.995 155.589 26.7852 154.992 26.7852V27.2852ZM156.152 27.7656L155.79 28.1102C155.983 28.313 156.109 28.6209 156.109 29.1016H156.609H157.109C157.109 28.4416 156.931 27.8589 156.515 27.421L156.152 27.7656ZM155.027 25.7969V25.2969C154.694 25.2969 154.428 25.1979 154.204 25.0064L153.879 25.3867L153.554 25.767C153.971 26.1224 154.47 26.2969 155.027 26.2969V25.7969ZM153.879 25.3867L154.208 25.0104C154.026 24.8512 153.91 24.6145 153.91 24.2266H153.41H152.91C152.91 24.8386 153.107 25.3753 153.55 25.763L153.879 25.3867ZM153.41 24.2266H153.91C153.91 23.9069 154.016 23.6735 154.226 23.4845L153.891 23.1133L153.556 22.7421C153.124 23.1312 152.91 23.64 152.91 24.2266H153.41ZM153.891 23.1133L154.226 23.484C154.465 23.2676 154.726 23.168 155.027 23.168V22.668V22.168C154.47 22.168 153.972 22.3652 153.555 22.7425L153.891 23.1133ZM155.027 22.668V23.168C155.324 23.168 155.579 23.2597 155.81 23.4513L156.129 23.0664L156.448 22.6815C156.039 22.3419 155.559 22.168 155.027 22.168V22.668ZM156.129 23.0664L155.81 23.4513C155.99 23.6011 156.109 23.8316 156.109 24.2266H156.609H157.109C157.109 23.6059 156.908 23.063 156.448 22.6815L156.129 23.0664ZM156.609 24.2266H156.109C156.109 24.6036 155.995 24.8451 155.806 25.0151L156.141 25.3867L156.475 25.7584C156.911 25.3659 157.109 24.8339 157.109 24.2266H156.609ZM156.141 25.3867L155.811 25.0104C155.593 25.2011 155.341 25.2969 155.027 25.2969V25.7969V26.2969C155.574 26.2969 156.063 26.1192 156.47 25.763L156.141 25.3867ZM169.582 38.3828L169.994 38.6661L169.996 38.6637L169.582 38.3828ZM167.672 39.8125L167.851 40.2794L167.853 40.2785L167.672 39.8125ZM159.844 38.4531L159.441 38.7493L159.443 38.7522L159.844 38.4531ZM161.871 36.5195L161.433 36.7614L161.438 36.7689L161.871 36.5195ZM163.043 37.7969L162.779 38.2217L162.783 38.2237L163.043 37.7969ZM166.488 37.7969L166.773 38.208L166.774 38.2069L166.488 37.7969ZM166.465 35.582L166.204 36.0087L166.208 36.0108L166.465 35.582ZM164.367 34.8438L164.247 35.329L164.251 35.3299L164.367 34.8438ZM161.672 33.9883L161.469 34.4454L161.476 34.4481L161.672 33.9883ZM161.66 27.8008L161.866 28.2563L161.868 28.2553L161.66 27.8008ZM166.594 27.543L166.467 28.0267L166.468 28.027L166.594 27.543ZM168.246 28.2344L167.97 28.6516L167.974 28.6538L168.246 28.2344ZM169.254 29.1953L168.834 29.4662L168.838 29.4727L169.254 29.1953ZM169.23 31.1289L168.888 30.7641L168.883 30.7696L169.23 31.1289ZM167.344 31.1992L167.025 31.5845L167.031 31.5897L167.344 31.1992ZM166.559 30.3555L166.163 30.6618L166.167 30.6658L166.559 30.3555ZM162.926 29.6992L163.193 30.1218L163.199 30.1179L162.926 29.6992ZM162.773 31.4453L162.466 31.84L162.473 31.8453L162.773 31.4453ZM165.879 32.4883L165.997 32.0025L165.997 32.0024L165.879 32.4883ZM168.305 33.3555L168.068 33.7959L168.07 33.7971L168.305 33.3555ZM169.734 34.5508L169.324 34.8362L169.329 34.844L169.734 34.5508ZM170.227 36.1094H169.727C169.727 36.9079 169.533 37.5642 169.168 38.1019L169.582 38.3828L169.996 38.6637C170.49 37.9358 170.727 37.0765 170.727 36.1094H170.227ZM169.582 38.3828L169.17 38.0995C168.807 38.6269 168.259 39.0476 167.491 39.3465L167.672 39.8125L167.853 40.2785C168.772 39.9212 169.497 39.3887 169.994 38.6661L169.582 38.3828ZM167.672 39.8125L167.493 39.3456C166.73 39.6379 165.775 39.793 164.613 39.793V40.293V40.793C165.858 40.793 166.942 40.6277 167.851 40.2794L167.672 39.8125ZM164.613 40.293V39.793C163.514 39.793 162.6 39.6245 161.857 39.3061L161.66 39.7656L161.463 40.2252C162.361 40.6099 163.416 40.793 164.613 40.793V40.293ZM161.66 39.7656L161.857 39.3061C161.089 38.977 160.567 38.5858 160.244 38.1541L159.844 38.4531L159.443 38.7522C159.902 39.3673 160.59 39.8512 161.463 40.2252L161.66 39.7656ZM159.844 38.4531L160.247 38.1569C159.904 37.6905 159.758 37.2606 159.758 36.8594H159.258H158.758C158.758 37.5206 159.003 38.1532 159.441 38.7493L159.844 38.4531ZM159.258 36.8594H159.758C159.758 36.6413 159.83 36.4674 159.986 36.3106L159.633 35.957L159.279 35.6035C158.936 35.9466 158.758 36.3744 158.758 36.8594H159.258ZM159.633 35.957L159.986 36.3106C160.134 36.1626 160.32 36.082 160.582 36.082V35.582V35.082C160.079 35.082 159.631 35.2515 159.279 35.6035L159.633 35.957ZM160.582 35.582V36.082C160.841 36.082 160.961 36.1449 161.018 36.1974L161.355 35.8281L161.693 35.4589C161.391 35.1832 160.995 35.082 160.582 35.082V35.582ZM161.355 35.8281L161.018 36.1974C161.145 36.3134 161.286 36.4948 161.433 36.7614L161.871 36.5195L162.309 36.2777C162.128 35.9505 161.925 35.671 161.693 35.4589L161.355 35.8281ZM161.871 36.5195L161.438 36.7689C161.798 37.3943 162.241 37.8878 162.779 38.2217L163.043 37.7969L163.307 37.3721C162.938 37.1434 162.601 36.7854 162.304 36.2702L161.871 36.5195ZM163.043 37.7969L162.783 38.2237C163.35 38.57 164.077 38.7188 164.918 38.7188V38.2188V37.7188C164.181 37.7188 163.658 37.5863 163.303 37.3701L163.043 37.7969ZM164.918 38.2188V38.7188C165.63 38.7188 166.261 38.5621 166.773 38.208L166.488 37.7969L166.204 37.3858C165.903 37.5942 165.487 37.7188 164.918 37.7188V38.2188ZM166.488 37.7969L166.774 38.2069C167.268 37.8624 167.609 37.3999 167.609 36.8125H167.109H166.609C166.609 36.9594 166.537 37.1532 166.202 37.3869L166.488 37.7969ZM167.109 36.8125H167.609C167.609 36.1001 167.323 35.514 166.722 35.1533L166.465 35.582L166.208 36.0108C166.466 36.1657 166.609 36.3999 166.609 36.8125H167.109ZM166.465 35.582L166.726 35.1554C166.233 34.8547 165.47 34.5943 164.484 34.3576L164.367 34.8438L164.251 35.3299C165.217 35.562 165.852 35.7938 166.204 36.0087L166.465 35.582ZM164.367 34.8438L164.488 34.3585C163.401 34.0886 162.53 33.811 161.868 33.5284L161.672 33.9883L161.476 34.4481C162.204 34.7593 163.131 35.052 164.247 35.329L164.367 34.8438ZM161.672 33.9883L161.874 33.5312C161.245 33.2521 160.76 32.896 160.402 32.4711L160.02 32.793L159.637 33.1148C160.108 33.6743 160.724 34.1151 161.469 34.4454L161.672 33.9883ZM160.02 32.793L160.402 32.4711C160.073 32.0797 159.898 31.5923 159.898 30.9766H159.398H158.898C158.898 31.7983 159.138 32.5219 159.637 33.1148L160.02 32.793ZM159.398 30.9766H159.898C159.898 30.4425 160.056 29.933 160.388 29.4388L159.973 29.1602L159.558 28.8815C159.124 29.528 158.898 30.2294 158.898 30.9766H159.398ZM159.973 29.1602L160.388 29.4388C160.71 28.9591 161.193 28.5611 161.866 28.2563L161.66 27.8008L161.454 27.3453C160.643 27.7124 160.001 28.2206 159.558 28.8815L159.973 29.1602ZM161.66 27.8008L161.868 28.2553C162.538 27.9486 163.365 27.7852 164.367 27.7852V27.2852V26.7852C163.26 26.7852 162.283 26.9654 161.452 27.3462L161.66 27.8008ZM164.367 27.2852V27.7852C165.162 27.7852 165.86 27.8677 166.467 28.0267L166.594 27.543L166.72 27.0593C166.015 26.8745 165.229 26.7852 164.367 26.7852V27.2852ZM166.594 27.543L166.468 28.027C167.095 28.1891 167.591 28.4007 167.97 28.6515L168.246 28.2344L168.522 27.8172C168.026 27.49 167.421 27.2406 166.719 27.0589L166.594 27.543ZM168.246 28.2344L167.974 28.6538C168.375 28.9143 168.654 29.1877 168.834 29.4662L169.254 29.1953L169.674 28.9245C169.4 28.4998 169.008 28.1325 168.518 27.815L168.246 28.2344ZM169.254 29.1953L168.838 29.4727C169.032 29.7633 169.105 30.012 169.105 30.2266H169.605H170.105C170.105 29.7692 169.945 29.3305 169.67 28.918L169.254 29.1953ZM169.605 30.2266H169.105C169.105 30.4666 169.03 30.6316 168.888 30.7641L169.23 31.1289L169.572 31.4937C169.931 31.1575 170.105 30.7209 170.105 30.2266H169.605ZM169.23 31.1289L168.883 30.7696C168.762 30.8862 168.557 30.9805 168.188 30.9805V31.4805V31.9805C168.725 31.9805 169.214 31.8403 169.578 31.4882L169.23 31.1289ZM168.188 31.4805V30.9805C167.962 30.9805 167.793 30.9186 167.656 30.8088L167.344 31.1992L167.031 31.5897C167.363 31.8548 167.757 31.9805 168.188 31.9805V31.4805ZM167.344 31.1992L167.663 30.814C167.474 30.6583 167.237 30.4074 166.951 30.0451L166.559 30.3555L166.167 30.6658C166.473 31.0535 166.76 31.3651 167.025 31.5844L167.344 31.1992ZM166.559 30.3555L166.954 30.0492C166.673 29.6873 166.339 29.3929 165.951 29.1713L165.703 29.6055L165.455 30.0396C165.724 30.193 165.959 30.3987 166.163 30.6618L166.559 30.3555ZM165.703 29.6055L165.951 29.1713C165.519 28.9246 164.977 28.8242 164.367 28.8242V29.3242V29.8242C164.882 29.8242 165.231 29.9113 165.455 30.0396L165.703 29.6055ZM164.367 29.3242V28.8242C163.718 28.8242 163.136 28.9651 162.652 29.2806L162.926 29.6992L163.199 30.1179C163.482 29.9334 163.861 29.8242 164.367 29.8242V29.3242ZM162.926 29.6992L162.658 29.2767C162.17 29.5859 161.852 30.0332 161.852 30.6133H162.352H162.852C162.852 30.459 162.916 30.2969 163.193 30.1218L162.926 29.6992ZM162.352 30.6133H161.852C161.852 31.114 162.072 31.5332 162.466 31.84L162.773 31.4453L163.08 31.0506C162.912 30.92 162.852 30.7844 162.852 30.6133H162.352ZM162.773 31.4453L162.473 31.8453C162.818 32.1035 163.257 32.3011 163.769 32.4522L163.91 31.9727L164.052 31.4931C163.61 31.3629 163.292 31.209 163.073 31.0453L162.773 31.4453ZM163.91 31.9727L163.769 32.4522C164.257 32.5962 164.922 32.7703 165.761 32.9741L165.879 32.4883L165.997 32.0024C165.164 31.8 164.517 31.6304 164.052 31.4931L163.91 31.9727ZM165.879 32.4883L165.76 32.974C166.728 33.2102 167.493 33.4866 168.068 33.7959L168.305 33.3555L168.541 32.9151C167.867 32.5524 167.014 32.2508 165.997 32.0025L165.879 32.4883ZM168.305 33.3555L168.07 33.7971C168.652 34.1057 169.06 34.4561 169.324 34.8361L169.734 34.5508L170.145 34.2655C169.768 33.7236 169.223 33.2771 168.539 32.9138L168.305 33.3555ZM169.734 34.5508L169.329 34.844C169.593 35.2077 169.727 35.6234 169.727 36.1094H170.227H170.727C170.727 35.4234 170.532 34.8002 170.139 34.2575L169.734 34.5508ZM173.461 27.5664V28.0664H173.961V27.5664H173.461ZM173.496 24.4375L172.999 24.3851L172.998 24.3971L173.496 24.4375ZM173.73 23.6758L174.161 23.9307L174.165 23.9239L173.73 23.6758ZM174.27 23.1484L174.516 23.5836L174.527 23.5772L174.27 23.1484ZM176.566 24.1445L176.075 24.2351L176.076 24.2427L176.078 24.2502L176.566 24.1445ZM176.66 27.5664H176.16V28.0664H176.66V27.5664ZM178.863 27.8945L178.522 28.2601L178.528 28.2659L178.535 28.2716L178.863 27.8945ZM178.711 29.6172L178.487 29.17L178.483 29.1721L178.711 29.6172ZM176.66 29.875V29.375H176.16V29.875H176.66ZM176.707 36.918L176.21 36.9747L176.211 36.9827L176.212 36.9907L176.707 36.918ZM176.988 37.5742L176.61 37.901L176.618 37.9102L176.626 37.919L176.988 37.5742ZM178.5 37.7266L178.596 38.2174L178.607 38.2149L178.5 37.7266ZM179.941 37.9375L179.581 38.2843L179.588 38.2911L179.595 38.2977L179.941 37.9375ZM173.695 38.3945L173.212 38.5218L173.213 38.5277L173.695 38.3945ZM173.461 29.875H173.961V29.375H173.461V29.875ZM171.996 27.8945L172.319 28.2767L172.32 28.2758L171.996 27.8945ZM173.109 27.5664V28.0664H173.461V27.5664V27.0664H173.109V27.5664ZM173.461 27.5664H173.961V25.6445H173.461H172.961V27.5664H173.461ZM173.461 25.6445H173.961C173.961 25.1338 173.973 24.747 173.994 24.4779L173.496 24.4375L172.998 24.3971C172.973 24.7061 172.961 25.124 172.961 25.6445H173.461ZM173.496 24.4375L173.993 24.4898C174.019 24.2493 174.079 24.0678 174.161 23.9307L173.73 23.6758L173.3 23.4209C173.132 23.7057 173.036 24.032 172.999 24.3852L173.496 24.4375ZM173.73 23.6758L174.165 23.9239C174.242 23.7886 174.354 23.6751 174.516 23.5834L174.27 23.1484L174.023 22.7134C173.716 22.8874 173.469 23.1255 173.296 23.4277L173.73 23.6758ZM174.27 23.1484L174.527 23.5772C174.679 23.4859 174.851 23.4375 175.055 23.4375V22.9375V22.4375C174.68 22.4375 174.329 22.5297 174.012 22.7197L174.27 23.1484ZM175.055 22.9375V23.4375C175.321 23.4375 175.57 23.5326 175.816 23.7609L176.156 23.3945L176.496 23.0281C176.086 22.6471 175.6 22.4375 175.055 22.4375V22.9375ZM176.156 23.3945L175.816 23.7609C175.955 23.8899 176.039 24.0428 176.075 24.2351L176.566 24.1445L177.058 24.054C176.984 23.6525 176.795 23.3054 176.496 23.0281L176.156 23.3945ZM176.566 24.1445L176.078 24.2502C176.129 24.4871 176.16 24.8593 176.16 25.3867H176.66H177.16C177.16 24.836 177.129 24.3801 177.055 24.0389L176.566 24.1445ZM176.66 25.3867H176.16V27.5664H176.66H177.16V25.3867H176.66ZM176.66 27.5664V28.0664H177.832V27.5664V27.0664H176.66V27.5664ZM177.832 27.5664V28.0664C178.211 28.0664 178.413 28.1578 178.522 28.2601L178.863 27.8945L179.204 27.529C178.845 27.1937 178.359 27.0664 177.832 27.0664V27.5664ZM178.863 27.8945L178.535 28.2716C178.662 28.3827 178.727 28.5159 178.727 28.7148H179.227H179.727C179.727 28.2419 179.548 27.8283 179.192 27.5175L178.863 27.8945ZM179.227 28.7148H178.727C178.727 28.8634 178.697 28.9559 178.664 29.0146C178.632 29.0701 178.581 29.1232 178.487 29.17L178.711 29.6172L178.935 30.0644C179.185 29.9393 179.392 29.7561 179.532 29.5108C179.67 29.2687 179.727 28.996 179.727 28.7148H179.227ZM178.711 29.6172L178.483 29.1721C178.25 29.2913 177.858 29.375 177.258 29.375V29.875V30.375C177.923 30.375 178.5 30.2869 178.939 30.0623L178.711 29.6172ZM177.258 29.875V29.375H176.66V29.875V30.375H177.258V29.875ZM176.66 29.875H176.16V35.7578H176.66H177.16V29.875H176.66ZM176.66 35.7578H176.16C176.16 36.2642 176.176 36.6731 176.21 36.9747L176.707 36.918L177.204 36.8612C177.176 36.616 177.16 36.2515 177.16 35.7578H176.66ZM176.707 36.918L176.212 36.9907C176.263 37.333 176.389 37.645 176.61 37.901L176.988 37.5742L177.367 37.2474C177.291 37.1597 177.23 37.0342 177.202 36.8452L176.707 36.918ZM176.988 37.5742L176.626 37.919C176.916 38.2235 177.328 38.3203 177.738 38.3203V37.8203V37.3203C177.461 37.3203 177.373 37.253 177.35 37.2294L176.988 37.5742ZM177.738 37.8203V38.3203C177.973 38.3203 178.263 38.2822 178.596 38.2173L178.5 37.7266L178.404 37.2358C178.096 37.296 177.879 37.3203 177.738 37.3203V37.8203ZM178.5 37.7266L178.607 38.2149C178.916 38.1471 179.124 38.1211 179.25 38.1211V37.6211V37.1211C179.016 37.1211 178.725 37.1654 178.393 37.2382L178.5 37.7266ZM179.25 37.6211V38.1211C179.353 38.1211 179.458 38.1567 179.581 38.2843L179.941 37.9375L180.302 37.5907C180.018 37.2964 179.663 37.1211 179.25 37.1211V37.6211ZM179.941 37.9375L179.595 38.2977C179.703 38.4023 179.758 38.5242 179.758 38.6992H180.258H180.758C180.758 38.2648 180.601 37.8789 180.288 37.5773L179.941 37.9375ZM180.258 38.6992H179.758C179.758 38.8601 179.716 38.9846 179.64 39.0916C179.56 39.2038 179.423 39.3226 179.195 39.4331L179.414 39.8828L179.633 40.3325C179.968 40.1696 180.253 39.9544 180.454 39.6721C180.659 39.3845 180.758 39.054 180.758 38.6992H180.258ZM179.414 39.8828L179.195 39.4331C178.733 39.6581 178.013 39.793 176.988 39.793V40.293V40.793C178.073 40.793 178.971 40.6544 179.633 40.3325L179.414 39.8828ZM176.988 40.293V39.793C176.03 39.793 175.386 39.6296 174.988 39.3701L174.715 39.7891L174.442 40.208C175.075 40.6204 175.946 40.793 176.988 40.793V40.293ZM174.715 39.7891L174.988 39.3701C174.574 39.1008 174.309 38.7377 174.177 38.2614L173.695 38.3945L173.213 38.5277C173.41 39.2389 173.824 39.8054 174.442 40.208L174.715 39.7891ZM173.695 38.3945L174.179 38.2673C174.038 37.7325 173.961 36.9877 173.961 36.0156H173.461H172.961C172.961 37.0279 173.04 37.869 173.212 38.5218L173.695 38.3945ZM173.461 36.0156H173.961V29.875H173.461H172.961V36.0156H173.461ZM173.461 29.875V29.375H173.039V29.875V30.375H173.461V29.875ZM173.039 29.875V29.375C172.651 29.375 172.438 29.2828 172.32 29.1758L171.984 29.5469L171.649 29.9179C172.015 30.2484 172.505 30.375 173.039 30.375V29.875ZM171.984 29.5469L172.32 29.1758C172.186 29.055 172.121 28.9141 172.121 28.7148H171.621H171.121C171.121 29.1875 171.299 29.6013 171.649 29.9179L171.984 29.5469ZM171.621 28.7148H172.121C172.121 28.5216 172.185 28.3897 172.319 28.2767L171.996 27.8945L171.674 27.5124C171.308 27.8212 171.121 28.2362 171.121 28.7148H171.621ZM171.996 27.8945L172.32 28.2758C172.455 28.161 172.693 28.0664 173.109 28.0664V27.5664V27.0664C172.557 27.0664 172.053 27.1906 171.673 27.5133L171.996 27.8945Z" fill="white" mask="url(#path-3-outside-1_139_1892)"/>
</svg>
