<svg width="220" height="61" viewBox="0 0 220 61" fill="none" xmlns="http://www.w3.org/2000/svg">
<path d="M194.903 1H25.0966C11.7884 1 1 12.0999 1 25.7922V36.2078C1 49.9001 11.7884 61 25.0966 61H194.903C208.212 61 219 49.9001 219 36.2078V25.7922C219 12.0999 208.212 1 194.903 1Z" fill="#005587"/>
<path d="M194.903 1H25.0966C11.7884 1 1 11.9149 1 25.379V35.621C1 49.0851 11.7884 60 25.0966 60H194.903C208.212 60 219 49.0851 219 35.621V25.379C219 11.9149 208.212 1 194.903 1Z" stroke="#003E5D" stroke-width="2" stroke-miterlimit="10"/>
<path d="M76.9269 27.1194C76.5109 27.1194 76.2119 27.0024 76.0299 26.7554C75.8479 26.5084 75.8219 26.1964 75.9519 25.7934L79.449 14.5091C79.54 14.236 79.709 14.002 79.93 13.833C80.151 13.664 80.411 13.573 80.697 13.573H82.66C82.9461 13.573 83.2061 13.664 83.4401 13.833C83.6611 14.002 83.8301 14.223 83.9211 14.5091L87.4182 25.7934C87.5482 26.1964 87.5222 26.5214 87.3402 26.7554C87.1582 27.0024 86.8592 27.1194 86.4432 27.1194H85.4031C85.1041 27.1194 84.8311 27.0284 84.6101 26.8594C84.3891 26.6774 84.2331 26.4564 84.1681 26.1574L83.6221 24.0123H79.618L79.072 26.1574C78.994 26.4434 78.8509 26.6774 78.6299 26.8594C78.4089 27.0414 78.1359 27.1194 77.8369 27.1194H76.9139H76.9269ZM80.255 21.5032H83.0241L82.738 20.3592C82.608 19.8912 82.413 19.1242 82.179 18.0712C81.945 17.1351 81.7761 16.4461 81.672 16.0171H81.594C81.555 16.1601 81.503 16.3941 81.451 16.6931C81.295 17.3691 81.178 17.8891 81.087 18.2272C81.048 18.3832 80.996 18.6042 80.918 18.9032C80.762 19.5662 80.645 20.0602 80.554 20.3722L80.268 21.5162L80.255 21.5032Z" fill="white"/>
<path d="M90.6291 15.3281C90.083 15.3281 89.641 15.1721 89.29 14.8601C88.939 14.5481 88.77 14.1451 88.77 13.664C88.77 13.183 88.939 12.767 89.29 12.468C89.641 12.156 90.083 12 90.6291 12C91.1751 12 91.6171 12.156 91.9551 12.468C92.2931 12.767 92.4621 13.17 92.4621 13.664C92.4621 14.1581 92.2931 14.5481 91.9421 14.8601C91.5911 15.1721 91.1621 15.3281 90.616 15.3281H90.6291ZM90.6291 27.1194C89.55 27.1194 89.004 26.5864 89.004 25.5204V18.3702C89.004 17.3041 89.55 16.7711 90.6291 16.7711C91.7081 16.7711 92.2281 17.3041 92.2281 18.3702V25.5204C92.2281 26.5864 91.6951 27.1194 90.6291 27.1194Z" fill="white"/>
<path d="M96.4795 27.1194C95.4005 27.1194 94.8545 26.5864 94.8545 25.5204V18.0712C94.8545 17.2001 95.3095 16.7581 96.2196 16.7581C97.0776 16.7581 97.5586 17.1611 97.6366 17.9541L97.7146 18.5522H97.7926C98.1566 17.8891 98.6116 17.3691 99.1576 17.0051C99.6646 16.6671 100.198 16.4981 100.744 16.4981H100.835C101.225 16.5761 101.485 16.7711 101.641 17.0831C101.771 17.3821 101.797 17.7461 101.719 18.1752C101.641 18.5522 101.498 18.8512 101.264 19.0722C101.017 19.3062 100.718 19.3972 100.367 19.3452H100.328C99.8986 19.3452 99.5086 19.4882 99.1316 19.7612C98.6896 20.0862 98.3516 20.5672 98.0916 21.2042V25.5204C98.0916 26.5864 97.5586 27.1194 96.4925 27.1194H96.4795Z" fill="white"/>
<path d="M104.916 30.8895C103.837 30.8895 103.291 30.3565 103.291 29.2905V18.0842C103.291 17.6552 103.434 17.3302 103.733 17.0962C104.006 16.8751 104.357 16.7711 104.812 16.7711C105.15 16.7711 105.449 16.8491 105.683 17.0052C105.93 17.1742 106.086 17.4212 106.151 17.7332V17.7722H106.229C107.178 16.9402 108.14 16.5111 109.141 16.5111C110.376 16.5111 111.365 16.9922 112.093 17.9412C112.821 18.8902 113.185 20.1642 113.185 21.7763C113.185 23.4793 112.73 24.8574 111.833 25.9104C111 26.8984 109.999 27.3794 108.829 27.3794C107.945 27.3794 107.139 27.0284 106.424 26.3004L106.515 27.9255V29.2905C106.515 30.3565 105.982 30.8895 104.916 30.8895ZM108.062 24.7144C108.595 24.7144 109.011 24.4934 109.323 24.0383C109.674 23.5443 109.856 22.8033 109.856 21.8153C109.856 20.0342 109.297 19.1372 108.179 19.1372C107.62 19.1372 107.074 19.4232 106.528 20.0082V24.1033C106.983 24.5064 107.49 24.7014 108.075 24.7014L108.062 24.7144Z" fill="white"/>
<path d="M119.776 27.3794C118.398 27.3794 117.215 26.8984 116.24 25.9364C115.213 24.9223 114.693 23.5833 114.693 21.9453C114.693 20.3072 115.213 18.9682 116.24 17.9411C117.202 16.9791 118.372 16.4981 119.776 16.4981C121.18 16.4981 122.324 16.9791 123.286 17.9411C124.313 18.9552 124.833 20.2942 124.833 21.9323C124.833 23.5703 124.313 24.9093 123.286 25.9234C122.324 26.8854 121.154 27.3664 119.776 27.3664V27.3794ZM119.776 24.7533C120.361 24.7533 120.803 24.4933 121.102 23.9863C121.375 23.5183 121.518 22.8293 121.518 21.9453C121.518 20.0602 120.933 19.1242 119.776 19.1242C119.178 19.1242 118.736 19.3842 118.424 19.8912C118.151 20.3852 118.008 21.0742 118.008 21.9453C118.008 23.8173 118.593 24.7533 119.776 24.7533Z" fill="white"/>
<path d="M128.486 27.1194C127.407 27.1194 126.861 26.5864 126.861 25.5204V18.0712C126.861 17.2001 127.316 16.7581 128.226 16.7581C129.084 16.7581 129.565 17.1611 129.643 17.9541L129.721 18.5522H129.799C130.163 17.8891 130.618 17.3691 131.164 17.0051C131.671 16.6671 132.204 16.4981 132.75 16.4981H132.841C133.231 16.5761 133.491 16.7711 133.647 17.0831C133.777 17.3821 133.803 17.7461 133.725 18.1752C133.647 18.5522 133.504 18.8512 133.27 19.0722C133.023 19.3062 132.724 19.3972 132.373 19.3452H132.334C131.905 19.3452 131.515 19.4882 131.138 19.7612C130.696 20.0862 130.358 20.5672 130.098 21.2042V25.5204C130.098 26.5864 129.565 27.1194 128.499 27.1194H128.486Z" fill="white"/>
<path d="M139.394 27.3794C138.146 27.3794 137.21 27.0024 136.586 26.2484C136.013 25.5594 135.727 24.5713 135.727 23.2843V19.2932H135.532C134.726 19.2932 134.336 18.8772 134.336 18.0582C134.336 17.2781 134.713 16.8621 135.467 16.7971L135.922 16.7581L136.117 15.2501C136.221 14.4311 136.716 14.028 137.574 14.028C138.51 14.028 138.978 14.4831 138.978 15.3801V16.7581H140.161C140.993 16.7581 141.422 17.1741 141.422 18.0192C141.422 18.8642 141.006 19.2932 140.161 19.2932H138.978V23.2453C138.978 24.3113 139.42 24.8443 140.291 24.8443H140.33C140.616 24.7793 140.863 24.8443 141.071 25.0133C141.279 25.1694 141.409 25.4034 141.474 25.7284C141.669 26.5734 141.448 27.0804 140.824 27.2364C140.395 27.3274 139.927 27.3794 139.407 27.3794H139.394Z" fill="white"/>
<path d="M25.5624 48.18C24.1844 48.18 22.8843 47.829 21.6623 47.1009C20.8823 46.5159 20.7912 45.8659 21.3893 45.1379C21.6883 44.7739 22.0393 44.5659 22.4423 44.5139C22.8323 44.4619 23.2353 44.5789 23.6383 44.8389C24.3664 45.1899 25.0294 45.3719 25.6404 45.3719C26.8234 45.3719 27.4084 44.9819 27.4084 44.1889C27.4084 43.8639 27.2524 43.5908 26.9534 43.3698C26.7584 43.2268 26.3554 43.0188 25.7314 42.7458C25.6274 42.7068 25.5494 42.6808 25.4974 42.6548L23.7684 41.9268C22.9623 41.6148 22.3253 41.1728 21.8573 40.6008C21.2983 39.9247 21.0253 39.1317 21.0253 38.2217C21.0253 37.0647 21.4803 36.1026 22.4033 35.3226C23.3393 34.5166 24.5093 34.1266 25.9394 34.1266C27.1744 34.1266 28.3185 34.4646 29.3845 35.1276C30.0215 35.6476 30.0865 36.2326 29.5665 36.8957C29.2935 37.2337 28.9945 37.4417 28.6435 37.4937C28.2925 37.5587 27.9415 37.4807 27.5774 37.2597C27.0834 37.0257 26.5374 36.9087 25.9394 36.9087C25.4324 36.9087 25.0294 37.0127 24.7434 37.1947C24.4574 37.3897 24.3143 37.6627 24.3143 38.0267C24.3143 38.3387 24.4834 38.6117 24.8214 38.8457C25.0554 38.9887 25.4974 39.1967 26.1734 39.4697C26.2644 39.5087 26.3294 39.5347 26.3684 39.5477L28.0585 40.2238C29.8395 40.9388 30.7365 42.1738 30.7365 43.9419C30.7365 45.1249 30.2815 46.1129 29.3845 46.9059C28.4095 47.751 27.1354 48.18 25.5624 48.18Z" fill="white"/>
<path d="M37.4057 48.18C35.8717 48.18 34.6236 47.699 33.6616 46.7369C32.6606 45.7489 32.1536 44.4229 32.1536 42.7458C32.1536 41.0688 32.6606 39.8077 33.6616 38.7547C34.6106 37.7797 35.7417 37.2987 37.0677 37.2987C38.5108 37.2987 39.6288 37.7797 40.4218 38.7417C41.1498 39.6387 41.5138 40.8348 41.5138 42.3038C41.5138 42.6288 41.5008 42.9278 41.4618 43.1748C41.4358 43.3048 41.3578 43.4218 41.2148 43.5258C41.0718 43.6298 40.9158 43.6818 40.7338 43.6818H35.2867C35.5597 45.0209 36.4307 45.6839 37.8738 45.6839C38.2508 45.6839 38.6147 45.6319 38.9788 45.5149C39.3168 45.3589 39.6288 45.3199 39.9148 45.4109C40.2008 45.5019 40.4348 45.7099 40.6168 46.0349C40.9548 46.6589 40.8248 47.1399 40.2138 47.491C39.3298 47.933 38.3937 48.141 37.4057 48.141V48.18ZM35.2217 41.5888H38.7578C38.7578 40.3928 38.2117 39.7817 37.1197 39.7817C36.6517 39.7817 36.2487 39.9247 35.9237 40.2238C35.5727 40.5358 35.3387 40.9908 35.2347 41.5888H35.2217Z" fill="white"/>
<path d="M45.1929 47.92C44.1139 47.92 43.5679 47.387 43.5679 46.3209V38.8717C43.5679 38.0007 44.0229 37.5587 44.9329 37.5587C45.7909 37.5587 46.2719 37.9617 46.3499 38.7547L46.4279 39.3527H46.5059C46.8699 38.6897 47.325 38.1697 47.871 37.8057C48.378 37.4677 48.911 37.2987 49.457 37.2987H49.548C49.938 37.3767 50.198 37.5717 50.354 37.8837C50.484 38.1827 50.5101 38.5467 50.4321 38.9757C50.3541 39.3527 50.211 39.6517 49.977 39.8727C49.73 40.1068 49.444 40.1978 49.08 40.1458H49.041C48.612 40.1458 48.222 40.2888 47.845 40.5618C47.4029 40.8868 47.065 41.3678 46.8049 42.0048V46.3209C46.8049 47.387 46.2719 47.92 45.2059 47.92H45.1929Z" fill="white"/>
<path d="M55.3724 47.92C55.0994 47.92 54.8654 47.842 54.6574 47.699C54.4494 47.543 54.3064 47.348 54.2154 47.088L51.6673 39.4048C51.2383 38.1827 51.6673 37.5717 52.9804 37.5717C53.8644 37.5717 54.4234 38.0137 54.6574 38.8848L55.5674 42.3428C55.6584 42.6809 55.7754 43.1879 55.9444 43.8769C56.1134 44.6049 56.2434 45.1509 56.3474 45.5279H56.4385C56.5815 44.8779 56.8155 43.9159 57.1275 42.6549C57.1665 42.5249 57.1925 42.4208 57.2055 42.3428L58.1545 38.8068C58.3755 37.9877 58.9085 37.5717 59.7535 37.5717C60.9756 37.5717 61.4046 38.1567 61.0276 39.3398L58.5315 47.023C58.4275 47.296 58.2715 47.53 58.0505 47.686C57.8295 47.855 57.5695 47.933 57.2705 47.933H55.3594L55.3724 47.92Z" fill="white"/>
<path d="M64.7846 36.1287C64.2386 36.1287 63.7966 35.9727 63.4455 35.6606C63.0945 35.3486 62.9255 34.9456 62.9255 34.4646C62.9255 33.9836 63.0945 33.5676 63.4455 33.2686C63.7966 32.9566 64.2386 32.8006 64.7846 32.8006C65.3306 32.8006 65.7726 32.9566 66.1106 33.2686C66.4486 33.5676 66.6176 33.9706 66.6176 34.4646C66.6176 34.9586 66.4486 35.3486 66.0976 35.6606C65.7466 35.9727 65.3176 36.1287 64.7716 36.1287H64.7846ZM64.7846 47.92C63.7055 47.92 63.1595 47.387 63.1595 46.3209V39.1707C63.1595 38.1047 63.7055 37.5717 64.7846 37.5717C65.8636 37.5717 66.3836 38.1047 66.3836 39.1707V46.3209C66.3836 47.387 65.8506 47.92 64.7846 47.92Z" fill="white"/>
<path d="M73.5727 48.18C72.0776 48.18 70.8556 47.699 69.9196 46.7369C68.9186 45.7489 68.4246 44.4229 68.4246 42.7458C68.4246 41.0688 68.9705 39.7427 70.0626 38.7417C71.0766 37.7797 72.3507 37.2987 73.8717 37.2987C74.6517 37.2987 75.3277 37.4547 75.9258 37.7667C76.5628 38.1957 76.6538 38.7287 76.1858 39.3917C75.6528 40.1068 74.9767 40.2888 74.1707 39.9247H74.0667C73.3647 39.9247 72.8057 40.1848 72.3766 40.6918C71.9606 41.1988 71.7526 41.8878 71.7526 42.7458C71.7526 43.6038 71.9606 44.2799 72.3766 44.7869C72.7927 45.2939 73.3127 45.5539 73.9627 45.5539C74.1577 45.5539 74.3657 45.5279 74.5867 45.4629C75.3927 45.0339 76.0168 45.2159 76.4588 46.0089C76.6278 46.3079 76.6798 46.6069 76.6018 46.8799C76.5238 47.1529 76.3418 47.387 76.0558 47.595C75.3147 47.985 74.4957 48.18 73.5987 48.18H73.5727Z" fill="white"/>
<path d="M82.8551 48.18C81.3211 48.18 80.0731 47.699 79.1111 46.7369C78.11 45.7489 77.603 44.4229 77.603 42.7458C77.603 41.0688 78.11 39.8077 79.1111 38.7547C80.0601 37.7797 81.1911 37.2987 82.5172 37.2987C83.9602 37.2987 85.0782 37.7797 85.8712 38.7417C86.5993 39.6387 86.9633 40.8348 86.9633 42.3038C86.9633 42.6288 86.9503 42.9278 86.9113 43.1748C86.8853 43.3048 86.8073 43.4218 86.6643 43.5258C86.5213 43.6298 86.3653 43.6818 86.1833 43.6818H80.7361C81.0091 45.0209 81.8801 45.6839 83.3232 45.6839C83.7002 45.6839 84.0642 45.6319 84.4282 45.5149C84.7662 45.3589 85.0782 45.3199 85.3642 45.4109C85.6502 45.5019 85.8842 45.7099 86.0662 46.0349C86.4042 46.6589 86.2742 47.1399 85.6632 47.491C84.7792 47.933 83.8432 48.141 82.8551 48.141V48.18ZM80.6711 41.5888H84.2072C84.2072 40.3928 83.6612 39.7817 82.5692 39.7817C82.1012 39.7817 81.6981 39.9247 81.3731 40.2238C81.0221 40.5358 80.7881 40.9908 80.6841 41.5888H80.6711Z" fill="white"/>
<path d="M92.1113 48.18C91.1103 48.18 90.0963 47.907 89.0952 47.3739C88.4582 46.9319 88.3672 46.3989 88.8222 45.7489C89.0692 45.4109 89.3682 45.2159 89.7322 45.1639C90.0702 45.1249 90.4212 45.2289 90.7853 45.4499C91.2533 45.6709 91.7213 45.7749 92.1893 45.7749C93.0083 45.7749 93.4114 45.5019 93.4114 44.9559C93.4114 44.7089 93.2423 44.5009 92.9173 44.3059C92.7223 44.1889 92.3323 44.0199 91.7473 43.7989C91.5783 43.7208 91.4483 43.6689 91.3443 43.6298C89.5503 42.9148 88.6532 41.9008 88.6532 40.5878C88.6532 39.5997 89.0172 38.8067 89.7583 38.2087C90.4863 37.5977 91.4613 37.2987 92.6573 37.2987C93.6453 37.2987 94.5684 37.5457 95.4654 38.0267C95.7904 38.2477 95.9724 38.4817 95.9984 38.7417C95.9984 38.9887 95.8944 39.2747 95.6344 39.6127C95.4004 39.9117 95.1274 40.0938 94.8024 40.1458C94.4774 40.1978 94.1524 40.1198 93.8144 39.9247C93.4374 39.7687 93.0863 39.6907 92.7743 39.6907C92.0463 39.6907 91.6823 39.9377 91.6823 40.4318C91.6823 40.6788 91.8383 40.8868 92.1503 41.0688C92.3453 41.1728 92.7223 41.3288 93.2944 41.5238C93.4764 41.5888 93.6064 41.6278 93.6974 41.6668C94.5164 41.9788 95.1404 42.3298 95.5564 42.7068C96.1414 43.2528 96.4274 43.9419 96.4274 44.7869C96.4274 45.7879 96.0634 46.5809 95.3354 47.1919C94.5554 47.842 93.4894 48.18 92.1113 48.18Z" fill="white"/>
<path d="M106.243 48.18C104.8 48.18 103.656 47.79 102.798 46.9969C102.031 46.2819 101.654 45.3719 101.654 44.2799C101.654 43.4088 101.901 42.6418 102.395 41.9658C102.772 41.4458 103.344 40.9518 104.111 40.4708C103.565 39.4567 103.292 38.5207 103.292 37.6887C103.292 36.6877 103.63 35.8556 104.306 35.1796C104.982 34.5036 105.931 34.1266 107.049 34.1266C108.089 34.1266 108.921 34.4126 109.545 34.9716C110.169 35.5306 110.468 36.2976 110.468 37.2337C110.468 38.0397 110.182 38.7677 109.597 39.4567C109.194 39.9247 108.557 40.4578 107.673 41.0558C108.375 41.8488 109.246 42.6158 110.273 43.3698C110.689 42.8368 111.053 42.1868 111.378 41.4198C111.651 40.6138 112.184 40.1978 113.003 40.1978C114.173 40.1978 114.55 40.7438 114.147 41.8488C113.705 42.8498 113.159 43.8119 112.496 44.7219C112.847 44.9039 113.159 45.0469 113.445 45.1639C113.913 45.2939 114.225 45.5149 114.368 45.8009C114.511 46.0869 114.524 46.4769 114.381 46.9709C114.147 47.777 113.653 48.076 112.873 47.881C112.106 47.634 111.326 47.2829 110.507 46.8279C109.285 47.725 107.855 48.18 106.23 48.18H106.243ZM106.646 45.6969C107.153 45.6969 107.686 45.5409 108.232 45.2419C107.712 44.8129 107.231 44.3969 106.815 43.9679C106.36 43.5128 105.944 43.0578 105.541 42.5898C105.008 43.0968 104.735 43.5908 104.735 44.0849C104.735 44.5789 104.904 44.9559 105.255 45.2549C105.606 45.5539 106.061 45.6969 106.646 45.6969ZM106.373 39.2227C106.906 38.9237 107.296 38.6247 107.543 38.3517C107.855 38.0137 108.011 37.6367 108.011 37.2467C108.011 36.5967 107.712 36.2586 107.114 36.2586C106.789 36.2586 106.516 36.3886 106.295 36.6357C106.061 36.9087 105.944 37.2597 105.944 37.6887C105.944 38.1697 106.087 38.6897 106.36 39.2227H106.373Z" fill="white"/>
<path d="M122.584 47.92C121.492 47.92 120.946 47.374 120.946 46.2949V35.5566C120.946 35.2056 121.05 34.9196 121.271 34.6986C121.492 34.4776 121.778 34.3736 122.129 34.3736H128.239C129.136 34.3736 129.591 34.8286 129.591 35.7256C129.591 36.6227 129.136 37.0777 128.239 37.0777H124.196V40.0417H127.472C128.369 40.0417 128.824 40.4968 128.824 41.3938C128.824 42.2908 128.369 42.7588 127.472 42.7588H124.196V46.3079C124.196 47.387 123.65 47.933 122.571 47.933L122.584 47.92Z" fill="white"/>
<path d="M133.504 48.18C132.568 48.18 131.814 47.868 131.242 47.257C130.696 46.672 130.423 45.9309 130.423 45.0339C130.423 43.9289 130.878 43.0709 131.788 42.4728C132.698 41.8618 134.154 41.4588 136.169 41.2378C136.091 40.3538 135.571 39.9118 134.609 39.9118C134.167 39.9118 133.686 40.0158 133.14 40.2238C132.763 40.4058 132.412 40.4578 132.1 40.3668C131.762 40.2888 131.502 40.0808 131.32 39.7298C130.956 39.0408 131.125 38.5077 131.814 38.1307C132.984 37.5977 134.115 37.3247 135.233 37.3247C138.029 37.3247 139.42 38.8978 139.42 42.0568V46.62C139.42 47.049 139.277 47.374 139.004 47.608C138.731 47.829 138.38 47.933 137.925 47.933C137.587 47.933 137.288 47.842 137.041 47.673C136.794 47.491 136.624 47.257 136.533 46.932V46.893H136.455C135.493 47.751 134.505 48.18 133.491 48.18H133.504ZM134.609 45.6709C135.142 45.6709 135.662 45.3979 136.169 44.8519V43.2009C135.22 43.3179 134.531 43.5259 134.076 43.8249C133.686 44.0849 133.491 44.3969 133.491 44.7869C133.491 45.3849 133.855 45.6839 134.596 45.6839L134.609 45.6709Z" fill="white"/>
<path d="M146.479 48.18C144.984 48.18 143.762 47.699 142.826 46.7369C141.825 45.7489 141.331 44.4229 141.331 42.7458C141.331 41.0688 141.877 39.7427 142.969 38.7417C143.983 37.7797 145.257 37.2987 146.778 37.2987C147.558 37.2987 148.234 37.4547 148.832 37.7667C149.469 38.1957 149.56 38.7287 149.092 39.3917C148.559 40.1068 147.883 40.2888 147.077 39.9247H146.973C146.271 39.9247 145.712 40.1848 145.283 40.6918C144.867 41.1988 144.659 41.8878 144.659 42.7458C144.659 43.6038 144.867 44.2799 145.283 44.7869C145.699 45.2939 146.219 45.5539 146.869 45.5539C147.064 45.5539 147.272 45.5279 147.493 45.4629C148.299 45.0339 148.923 45.2159 149.365 46.0089C149.534 46.3079 149.586 46.6069 149.508 46.8799C149.43 47.1529 149.248 47.387 148.962 47.595C148.221 47.985 147.402 48.18 146.505 48.18H146.479Z" fill="white"/>
<path d="M153.304 36.1287C152.758 36.1287 152.316 35.9727 151.965 35.6606C151.614 35.3486 151.445 34.9456 151.445 34.4646C151.445 33.9836 151.614 33.5676 151.965 33.2686C152.316 32.9566 152.758 32.8006 153.304 32.8006C153.85 32.8006 154.292 32.9566 154.63 33.2686C154.968 33.5676 155.137 33.9706 155.137 34.4646C155.137 34.9586 154.968 35.3486 154.617 35.6606C154.266 35.9727 153.837 36.1287 153.291 36.1287H153.304ZM153.304 47.92C152.225 47.92 151.679 47.387 151.679 46.3209V39.1707C151.679 38.1047 152.225 37.5717 153.304 37.5717C154.383 37.5717 154.903 38.1047 154.903 39.1707V46.3209C154.903 47.387 154.37 47.92 153.304 47.92Z" fill="white"/>
<path d="M160.48 48.18C159.427 48.18 158.66 47.842 158.166 47.179C157.737 46.581 157.529 45.7099 157.529 44.5529V34.9846C157.529 33.9186 158.075 33.3856 159.154 33.3856C160.233 33.3856 160.753 33.9186 160.753 34.9846V44.6829C160.753 44.9819 160.818 45.2159 160.948 45.3719C161.039 45.4889 161.169 45.5539 161.325 45.5539H161.364C161.455 45.5539 161.546 45.6059 161.637 45.7359C161.715 45.8399 161.754 45.9699 161.78 46.0999C161.858 46.5289 161.858 46.919 161.78 47.296C161.676 47.764 161.494 48.037 161.195 48.115C160.974 48.154 160.74 48.167 160.467 48.167L160.48 48.18Z" fill="white"/>
<path d="M165.186 36.1287C164.64 36.1287 164.198 35.9727 163.847 35.6606C163.496 35.3486 163.327 34.9456 163.327 34.4646C163.327 33.9836 163.496 33.5676 163.847 33.2686C164.198 32.9566 164.64 32.8006 165.186 32.8006C165.732 32.8006 166.174 32.9566 166.512 33.2686C166.85 33.5676 167.019 33.9706 167.019 34.4646C167.019 34.9586 166.85 35.3486 166.499 35.6606C166.148 35.9727 165.719 36.1287 165.173 36.1287H165.186ZM165.186 47.92C164.107 47.92 163.561 47.387 163.561 46.3209V39.1707C163.561 38.1047 164.107 37.5717 165.186 37.5717C166.265 37.5717 166.785 38.1047 166.785 39.1707V46.3209C166.785 47.387 166.252 47.92 165.186 47.92Z" fill="white"/>
<path d="M173.493 48.18C172.245 48.18 171.309 47.803 170.685 47.0489C170.113 46.3599 169.827 45.3719 169.827 44.0849V40.0938H169.632C168.826 40.0938 168.436 39.6777 168.436 38.8587C168.436 38.0787 168.813 37.6627 169.567 37.5977L170.022 37.5587L170.217 36.0506C170.321 35.2316 170.815 34.8286 171.673 34.8286C172.609 34.8286 173.077 35.2836 173.077 36.1807V37.5587H174.26C175.092 37.5587 175.521 37.9747 175.521 38.8197C175.521 39.6647 175.105 40.0938 174.26 40.0938H173.077V44.0459C173.077 45.1119 173.519 45.6449 174.39 45.6449H174.429C174.715 45.5799 174.962 45.6449 175.17 45.8139C175.378 45.9699 175.508 46.2039 175.573 46.5289C175.768 47.374 175.547 47.881 174.923 48.037C174.494 48.128 174.026 48.18 173.506 48.18H173.493Z" fill="white"/>
<path d="M179.136 36.1287C178.59 36.1287 178.148 35.9727 177.797 35.6606C177.446 35.3486 177.277 34.9456 177.277 34.4646C177.277 33.9836 177.446 33.5676 177.797 33.2686C178.148 32.9566 178.59 32.8006 179.136 32.8006C179.682 32.8006 180.124 32.9566 180.462 33.2686C180.8 33.5676 180.969 33.9706 180.969 34.4646C180.969 34.9586 180.8 35.3486 180.449 35.6606C180.098 35.9727 179.669 36.1287 179.123 36.1287H179.136ZM179.136 47.92C178.057 47.92 177.511 47.387 177.511 46.3209V39.1707C177.511 38.1047 178.057 37.5717 179.136 37.5717C180.215 37.5717 180.735 38.1047 180.735 39.1707V46.3209C180.735 47.387 180.202 47.92 179.136 47.92Z" fill="white"/>
<path d="M188.028 48.18C186.494 48.18 185.246 47.699 184.284 46.7369C183.283 45.7489 182.776 44.4229 182.776 42.7458C182.776 41.0688 183.283 39.8077 184.284 38.7547C185.233 37.7797 186.364 37.2987 187.69 37.2987C189.133 37.2987 190.251 37.7797 191.044 38.7417C191.772 39.6387 192.136 40.8348 192.136 42.3038C192.136 42.6288 192.123 42.9278 192.084 43.1748C192.058 43.3048 191.98 43.4218 191.837 43.5258C191.694 43.6298 191.538 43.6818 191.356 43.6818H185.909C186.182 45.0209 187.053 45.6839 188.496 45.6839C188.873 45.6839 189.237 45.6319 189.601 45.5149C189.939 45.3589 190.251 45.3199 190.537 45.4109C190.823 45.5019 191.057 45.7099 191.239 46.0349C191.577 46.6589 191.447 47.1399 190.836 47.491C189.952 47.933 189.016 48.141 188.028 48.141V48.18ZM185.844 41.5888H189.38C189.38 40.3928 188.834 39.7817 187.742 39.7817C187.274 39.7817 186.871 39.9247 186.546 40.2238C186.195 40.5358 185.961 40.9908 185.857 41.5888H185.844Z" fill="white"/>
<path d="M197.297 48.18C196.296 48.18 195.282 47.907 194.281 47.3739C193.644 46.9319 193.553 46.3989 194.008 45.7489C194.255 45.4109 194.554 45.2159 194.918 45.1639C195.256 45.1249 195.607 45.2289 195.971 45.4499C196.439 45.6709 196.907 45.7749 197.375 45.7749C198.194 45.7749 198.597 45.5019 198.597 44.9559C198.597 44.7089 198.428 44.5009 198.103 44.3059C197.908 44.1889 197.518 44.0199 196.933 43.7989C196.764 43.7208 196.634 43.6689 196.53 43.6298C194.736 42.9148 193.839 41.9008 193.839 40.5878C193.839 39.5997 194.203 38.8067 194.944 38.2087C195.672 37.5977 196.647 37.2987 197.843 37.2987C198.831 37.2987 199.754 37.5457 200.651 38.0267C200.976 38.2477 201.158 38.4817 201.184 38.7417C201.184 38.9887 201.08 39.2747 200.82 39.6127C200.586 39.9117 200.313 40.0938 199.988 40.1458C199.663 40.1978 199.338 40.1198 199 39.9247C198.623 39.7687 198.272 39.6907 197.96 39.6907C197.232 39.6907 196.868 39.9377 196.868 40.4318C196.868 40.6788 197.024 40.8868 197.336 41.0688C197.531 41.1728 197.908 41.3288 198.48 41.5238C198.662 41.5888 198.792 41.6278 198.883 41.6668C199.702 41.9788 200.326 42.3298 200.742 42.7068C201.327 43.2528 201.613 43.9419 201.613 44.7869C201.613 45.7879 201.249 46.5809 200.521 47.1919C199.741 47.842 198.675 48.18 197.297 48.18Z" fill="white"/>
</svg>
