<svg width="218" height="60" viewBox="0 0 218 60" fill="none" xmlns="http://www.w3.org/2000/svg">
<path d="M193.903 0H24.0966C10.7884 0 0 11.0999 0 24.7922V35.2078C0 48.9001 10.7884 60 24.0966 60H193.903C207.212 60 218 48.9001 218 35.2078V24.7922C218 11.0999 207.212 0 193.903 0Z" fill="#FF671D"/>
<path d="M24.0967 1H193.903C206.632 1 217 11.625 217 24.792V35.208C217 48.375 206.632 59 193.903 59H24.0967C11.3675 59 1.00013 48.375 1 35.208V24.792L1.00781 24.1768C1.32489 11.2956 11.5664 1 24.0967 1Z" stroke="#DC501B" stroke-width="2" stroke-miterlimit="10"/>
<path d="M36.5598 29.5706C36.373 29.4505 36.1729 29.3438 35.9729 29.2371C35.8395 29.1704 35.6527 29.0504 35.386 28.8903C35.2659 28.837 35.1859 28.7836 35.1459 28.7569C34.2522 28.2634 34.1055 27.5832 34.7324 26.7295C35.2259 26.0359 35.8261 25.8492 36.5464 26.1826C36.9199 26.356 37.5068 26.6362 38.2937 27.0363C38.7606 27.3031 39.0273 27.5832 39.094 27.9033C39.1607 28.2234 39.054 28.6102 38.7472 29.0637C38.1603 29.944 37.4401 30.1174 36.5731 29.5706H36.5598ZM35.2659 38.734C34.8258 38.3872 34.5723 38.0404 34.5057 37.6936C34.439 37.3468 34.5457 36.96 34.8525 36.5198C35.3193 35.8262 35.7061 35.2127 36.0129 34.6925C36.293 34.239 36.7065 33.532 37.2533 32.585C37.8269 31.4913 38.5738 31.3712 39.4808 32.1982C40.1211 32.7984 40.2545 33.4653 39.8676 34.199C39.094 35.6662 38.3471 37.04 37.6001 38.3205C36.9732 39.3609 36.1996 39.5076 35.2659 38.7606V38.734ZM37.4401 23.5283C37.4401 23.5283 37.2934 23.4216 37.1733 23.3549C37.0533 23.2882 36.9599 23.2349 36.9065 23.2082C36.8399 23.1549 36.7198 23.0748 36.5464 22.9815C36.373 22.8881 36.253 22.8214 36.1596 22.7681C35.2793 22.2479 35.1592 21.5676 35.8128 20.714C36.333 20.047 36.9466 19.8736 37.6402 20.2071C38.067 20.4205 38.6005 20.714 39.2674 21.0741C39.7476 21.3409 40.0144 21.6343 40.0677 21.9544C40.1211 22.2879 39.9744 22.6613 39.6409 23.1015C39.0273 23.9418 38.2937 24.0752 37.4401 23.515V23.5283ZM42.9888 39.2141C42.562 39.2141 42.2285 39.0808 41.9618 38.8273C41.695 38.5606 41.5749 38.2271 41.5749 37.8003V32.4917C41.5749 32.0648 41.7083 31.7314 41.9618 31.4646C42.2285 31.1978 42.562 31.0778 42.9888 31.0778H45.8699V28.7703H41.8684C40.868 28.7703 40.3612 28.2634 40.3612 27.2497C40.3612 26.236 40.868 25.7425 41.8684 25.7425H45.8699V23.7417C45.0562 23.8751 44.2026 23.9818 43.2956 24.0752C42.8287 24.1152 42.4686 24.0619 42.2018 23.9018C41.9351 23.7417 41.7217 23.4483 41.5749 23.0081C41.4015 22.4746 41.4416 22.0611 41.6816 21.7944C41.8951 21.5543 42.3085 21.3942 42.9221 21.3142C45.8432 20.9274 48.1907 20.4205 49.9781 19.7936C50.3649 19.6336 50.725 19.6069 51.0184 19.7003C51.2852 19.7936 51.5653 19.9937 51.8854 20.3271C52.8725 21.3542 52.6991 22.1011 51.3786 22.568C50.4582 22.8347 49.6179 23.0348 48.831 23.1949V25.7425H52.579C53.5794 25.7425 54.0862 26.2493 54.0862 27.2497C54.0862 28.2501 53.5794 28.7703 52.579 28.7703H48.831V31.0778H51.7654C52.1922 31.0778 52.5257 31.2112 52.7924 31.4646C53.0592 31.7314 53.1792 32.0648 53.1792 32.4917V37.8003C53.1792 38.2271 53.0459 38.5606 52.7924 38.8273C52.5257 39.0941 52.1922 39.2141 51.7654 39.2141H42.9621H42.9888ZM44.9362 36.3598H49.7113C50.0581 36.3598 50.2315 36.1864 50.2315 35.8396V34.4524C50.2315 34.1056 50.0581 33.9322 49.7113 33.9322H44.9362C44.5894 33.9322 44.416 34.1056 44.416 34.4524V35.8396C44.416 36.1864 44.5894 36.3598 44.9362 36.3598Z" fill="white"/>
<path d="M71.3062 40.1078C70.8527 40.1078 70.4925 40.0011 70.2124 39.7744C69.9323 39.5476 69.7456 39.2408 69.6789 38.854C69.6789 38.8274 69.6656 38.7873 69.6389 38.7473C69.6256 38.654 69.6122 38.6006 69.5989 38.5472C69.4121 38.0937 69.3988 37.747 69.5722 37.5069C69.7456 37.2668 70.0924 37.1601 70.6126 37.1867H71.0261C71.3195 37.1867 71.5596 37.0534 71.7463 36.7866C71.9331 36.5198 72.0798 35.7329 72.1865 34.4524C72.2932 33.1719 72.3732 31.0778 72.4266 28.1834C72.4399 27.7833 72.3999 27.5032 72.3199 27.3564C72.2532 27.2231 72.1198 27.1564 71.9331 27.1564H71.1328C70.9861 30.0108 70.6659 32.3316 70.1724 34.1056C69.5855 36.2264 68.6652 37.947 67.4114 39.2942C67.0913 39.601 66.7445 39.7344 66.3844 39.7077C66.0242 39.681 65.7041 39.4809 65.4507 39.1208C65.3973 39.0674 65.304 38.9741 65.1973 38.854C65.0906 38.734 65.0105 38.654 64.9438 38.5873C63.4099 38.7473 61.1558 38.9607 58.208 39.2142C57.6078 39.2675 57.1676 39.3209 56.8742 39.3475C56.474 39.3742 56.1672 39.2942 55.9538 39.0808C55.7804 38.9074 55.6604 38.6006 55.607 38.1604C55.5403 37.6936 55.5804 37.3468 55.7404 37.1201C55.9005 36.8933 56.2073 36.7599 56.6608 36.7466C57.4477 36.6932 58.4481 36.6265 59.6619 36.5465V35.6128H57.1143C56.394 35.6128 56.0205 35.2394 56.0205 34.5058C56.0205 33.7721 56.3807 33.412 57.1143 33.412H59.6619V32.8518H57.5278C57.1009 32.8518 56.7675 32.7184 56.5007 32.465C56.2339 32.1982 56.1139 31.8648 56.1139 31.438V27.3431C56.1139 26.9163 56.2473 26.5828 56.5007 26.3161C56.7675 26.0493 57.1009 25.9292 57.5278 25.9292H59.6619V25.3824H56.7275C55.9805 25.3824 55.6204 25.0089 55.6204 24.2486C55.6204 23.4883 55.9938 23.1415 56.7275 23.1415H59.6619V22.6214C58.5815 22.6747 57.7945 22.7147 57.261 22.7281C56.5674 22.7414 56.1272 22.4346 55.9271 21.8077C55.6737 20.9674 56.0472 20.5139 57.0342 20.4339C59.8086 20.2605 62.1295 19.9937 64.0102 19.6469C64.3436 19.5936 64.6237 19.6202 64.8371 19.7536C65.0239 19.8737 65.2106 20.0871 65.3973 20.4072C65.9309 21.3542 65.7041 21.9011 64.7037 22.0611C64.1835 22.1679 63.4366 22.2612 62.4629 22.3679V23.1282H65.2773C66.0242 23.1282 66.3844 23.5017 66.3844 24.2353C66.3844 24.9689 66.0109 25.369 65.2773 25.369H62.4629V25.9159H64.6904C65.1172 25.9159 65.4507 26.0493 65.7175 26.3027C65.9842 26.5695 66.1043 26.9029 66.1043 27.3298V31.4246C66.1043 31.8514 65.9709 32.1849 65.7175 32.4517C65.4507 32.7184 65.1172 32.8385 64.6904 32.8385H62.4629V33.3987H64.8104C65.2373 33.3987 65.5707 33.5321 65.8375 33.7855C66.1043 34.0523 66.2243 34.3857 66.2243 34.8125V35.5995C66.8645 34.5724 67.3314 33.3186 67.6382 31.8514C67.9049 30.5976 68.0783 29.0237 68.1584 27.1297H67.8916C66.9312 27.1297 66.4511 26.6495 66.4511 25.6758C66.4511 24.7021 66.9312 24.2353 67.8916 24.2353H68.225V21.3542C68.225 20.3272 68.7319 19.807 69.7323 19.807C70.7326 19.807 71.2128 20.3138 71.2128 21.3275C71.2128 22.6347 71.2128 23.595 71.1861 24.2219H74.454C74.7875 24.2219 75.0276 24.3553 75.1743 24.6088C75.3477 24.9289 75.4277 25.4624 75.4144 26.2227C75.3477 30.651 75.241 33.6788 75.1076 35.3327C74.9742 37.1067 74.7475 38.2271 74.4273 38.6806C74.1606 39.0674 73.8805 39.3609 73.5737 39.5476C73.3203 39.7077 73.0001 39.8411 72.6 39.9344C72.3332 39.9878 71.9064 40.0411 71.2928 40.0678L71.3062 40.1078ZM58.5681 28.5035H59.6619V27.85H58.7682C58.6348 27.85 58.5681 27.9166 58.5681 28.05V28.5035ZM58.8216 30.9444H59.6485V30.2909H58.5548V30.6777C58.5548 30.8511 58.6348 30.9444 58.8216 30.9444ZM62.4629 28.5035H63.53V28.1167C63.53 27.9433 63.4499 27.85 63.2632 27.85H62.4629V28.5035ZM62.4629 30.9444H63.3299C63.4633 30.9444 63.53 30.8777 63.53 30.7444V30.2909H62.4629V30.9444ZM62.4629 36.3598C62.8497 36.3331 63.4233 36.2931 64.1835 36.2264C64.3703 36.2131 64.6637 36.1864 65.0505 36.1597C65.4373 36.133 65.7175 36.1063 65.9042 36.093C66.0509 35.8929 66.1576 35.7329 66.2243 35.6128H62.4629V36.3464V36.3598Z" fill="white"/>
<path d="M78.1885 39.1875C77.5083 38.4405 77.6016 37.6536 78.4686 36.8133C78.7754 36.3464 79.0021 35.7996 79.1489 35.186L78.9488 35.2127C78.0685 35.3594 77.5349 34.9993 77.3615 34.1456C77.1881 33.2119 77.5483 32.6917 78.4553 32.5717C78.522 32.5584 78.6287 32.545 78.7621 32.5317C79.0288 32.4917 79.2289 32.465 79.3756 32.4383V30.7177H78.6153C78.2152 30.7177 77.8951 30.5843 77.6683 30.3175C77.4416 30.0508 77.3349 29.704 77.3349 29.2638C77.3349 28.5302 77.6683 28.1567 78.3086 28.1567H78.3486C78.3486 27.7032 78.2952 27.1163 78.2019 26.3694C78.0952 25.9426 78.1352 25.5824 78.3219 25.2757C78.5086 24.9689 78.8021 24.7555 79.2022 24.6354L79.2689 24.6088H78.8554C78.0018 24.6088 77.575 24.1819 77.575 23.3283C77.575 22.4746 78.0018 22.0478 78.8554 22.0478H79.3756V20.874C79.3756 19.927 79.8558 19.4602 80.8162 19.4602C81.7765 19.4602 82.23 19.927 82.23 20.874V22.0478H82.7102C83.5638 22.0478 83.9907 22.488 83.9907 23.3816C83.9907 24.2086 83.5905 24.6221 82.7902 24.6221H82.7502L83.4438 24.7688C83.8306 24.8355 83.964 25.0756 83.8306 25.4891C83.7906 25.6358 83.7239 25.8492 83.6305 26.1427C83.3504 27.1163 83.1504 27.7966 83.017 28.1701H83.057C83.3904 28.1701 83.6572 28.2768 83.8439 28.4902C84.0307 28.7036 84.1241 28.9837 84.1241 29.3438C84.1241 29.784 84.0174 30.1175 83.7906 30.3709C83.5772 30.6243 83.2571 30.7444 82.8302 30.7444H82.2033V32.0515L83.1637 31.9048C83.4305 31.8648 83.6305 31.9048 83.7906 32.0382C83.9507 32.1716 84.044 32.3716 84.0707 32.6251L84.1774 33.9055C84.6042 31.9982 84.871 29.664 84.9777 26.8763H84.9377C84.7376 26.8763 84.5776 26.7162 84.4575 26.3961C84.3375 26.1293 84.2841 25.8626 84.2841 25.5958C84.2841 25.289 84.3375 24.9956 84.4575 24.7021C84.6042 24.3553 84.7776 24.1819 85.0044 24.1819H85.0444C85.0577 23.6751 85.0577 22.9015 85.0444 21.8744V20.674C85.0177 19.8603 85.4045 19.4602 86.2048 19.4602C87.0051 19.4602 87.3786 19.8603 87.3786 20.6606C87.3786 22.0211 87.3786 23.0348 87.3519 23.6884C87.3252 24.0219 87.4853 24.1953 87.8588 24.1953H89.0992C89.8195 24.1953 90.1796 24.7421 90.1663 25.8225C90.0996 30.6243 90.0329 33.7188 89.9662 35.106C89.8595 37.08 89.6861 38.2671 89.4193 38.654C89.0992 39.2275 88.6457 39.5876 88.0722 39.721C87.7787 39.7877 87.4719 39.8277 87.1518 39.8277C86.8584 39.8411 86.6183 39.7744 86.4182 39.6276C86.2181 39.4809 86.1114 39.2809 86.0848 39.0274C85.9514 38.3872 85.7913 37.867 85.6046 37.4535C85.4712 37.8136 85.3112 38.2271 85.0977 38.694C84.831 39.2008 84.5642 39.4943 84.2974 39.561C84.004 39.6543 83.6572 39.5076 83.2571 39.1475C82.9369 38.8674 82.7636 38.5873 82.7235 38.3072C82.6835 38.0271 82.7769 37.6936 82.9903 37.3201C83.4171 36.4665 83.7639 35.4661 84.0574 34.3324C83.8306 34.3724 83.4705 34.4391 82.9903 34.5324C82.5635 34.5991 82.2567 34.6658 82.0566 34.7058C81.8432 36.4798 81.203 37.947 80.1626 39.1208C79.4156 39.8144 78.7487 39.8544 78.1618 39.2275L78.1885 39.1875ZM79.3223 28.1567H82.07L81.4564 28.01C81.1496 27.9433 81.0162 27.7566 81.0696 27.4631C81.0963 27.3298 81.1363 27.1163 81.203 26.8362C81.243 26.5962 81.283 26.4094 81.3097 26.2894C81.3497 26.0093 81.4164 25.6091 81.5097 25.0889C81.5364 24.7688 81.3764 24.6088 81.0296 24.6088H80.5227C80.1759 24.6088 80.0559 24.7822 80.1492 25.1289C80.2293 25.4357 80.336 25.9026 80.456 26.5295C80.4694 26.5962 80.4827 26.6495 80.4827 26.6762C80.5094 26.9963 80.4293 27.2897 80.2293 27.5698C80.0292 27.85 79.7624 28.0367 79.4156 28.1301L79.3223 28.1567ZM86.685 37.3201C86.9251 37.3201 87.1252 37.1867 87.2585 36.92C87.3919 36.6532 87.4986 35.8529 87.552 34.5191C87.6187 33.2119 87.6854 30.9311 87.7254 27.6632C87.7254 27.3431 87.6987 27.1297 87.632 27.0096C87.5787 26.9029 87.472 26.8629 87.3252 26.8629H87.2585C87.1652 28.9704 87.0051 30.8511 86.7784 32.505C86.4983 34.3457 86.1381 35.9463 85.6713 37.2934C85.9514 37.3201 86.2848 37.3335 86.6717 37.3335L86.685 37.3201ZM94.0611 40.1078C93.0874 40.1078 92.6072 39.6276 92.6072 38.6673V35.1326H91.8602C91.0066 35.1326 90.5798 34.7058 90.5798 33.8522C90.5798 32.9985 91.0066 32.5717 91.8602 32.5717H92.6072V30.7043H91.7135C91.3 30.7043 90.9932 30.5576 90.7532 30.2642C90.5397 29.9841 90.4197 29.6373 90.4197 29.1971C90.4197 28.877 90.4997 28.6236 90.6598 28.4235C90.8199 28.2234 91.0466 28.1301 91.34 28.1301H91.3801C91.3534 27.5298 91.2867 26.9296 91.18 26.3161C91.0733 25.8892 91.1133 25.5291 91.2867 25.2223C91.4601 24.9155 91.7402 24.7021 92.1404 24.5954L92.207 24.5687H91.7669C90.9132 24.5687 90.4864 24.1419 90.4864 23.2883C90.4864 22.4346 90.9132 22.0078 91.7669 22.0078H92.5938V20.874C92.5938 19.9137 93.074 19.4335 94.0477 19.4335C95.0214 19.4335 95.4883 19.9137 95.4883 20.874V22.0078H96.0751C96.502 22.0078 96.8221 22.1412 97.0355 22.3946C97.2489 22.648 97.369 22.9948 97.369 23.435C97.369 24.2086 97.0222 24.5954 96.3286 24.5954H96.2886L96.8754 24.7288C97.1956 24.7955 97.3022 24.9956 97.1822 25.289C96.7687 26.6762 96.4886 27.6365 96.3286 28.1434H96.4219C97.2756 28.1434 97.7024 28.5702 97.7024 29.4239C97.7024 30.2775 97.2756 30.7043 96.4219 30.7043H95.5016V32.5717H96.1818C97.0355 32.5717 97.4623 32.9985 97.4623 33.8522C97.4623 34.7058 97.0355 35.1326 96.1818 35.1326H95.5016V38.6673C95.5016 39.6276 95.0214 40.1078 94.0611 40.1078ZM92.3404 28.1301H95.5416L94.7947 27.9567C94.6213 27.9166 94.4879 27.8233 94.4079 27.6899C94.3278 27.5565 94.3012 27.4098 94.3278 27.2497C94.3412 27.1964 94.3678 27.103 94.3945 26.9696C94.4612 26.6362 94.5146 26.3961 94.5279 26.236C94.5412 26.1427 94.5679 26.0093 94.5946 25.8225C94.6613 25.4891 94.7146 25.2357 94.728 25.0889C94.768 24.7555 94.6213 24.5821 94.2745 24.5821H93.5542C93.2074 24.5821 93.0874 24.7555 93.1807 25.1023C93.3275 25.5691 93.4342 26.076 93.5009 26.6228C93.5275 26.9429 93.4475 27.2364 93.2608 27.5165C93.074 27.7966 92.8073 27.9833 92.4738 28.0767L92.3271 28.1167L92.3404 28.1301Z" fill="white"/>
<path d="M102.891 29.4505C102.544 29.5305 102.131 29.4105 101.677 29.0904C101.637 29.0637 101.571 29.0237 101.477 28.9837C101.05 28.7169 100.73 28.5435 100.517 28.4368C99.4898 27.93 99.2764 27.223 99.89 26.3294C100.357 25.6491 100.944 25.449 101.677 25.7158C101.811 25.7692 101.997 25.8625 102.251 25.9826C102.504 26.1026 102.691 26.1826 102.811 26.2493C102.878 26.2893 102.984 26.3427 103.118 26.3961C103.305 26.5028 103.451 26.5695 103.531 26.6095C104.332 27.1163 104.452 27.7832 103.905 28.5969C103.585 29.0904 103.251 29.3838 102.904 29.4505H102.891ZM100.757 38.7206C100.317 38.4005 100.063 38.0804 99.97 37.7469C99.8766 37.4001 99.97 37 100.25 36.5732C100.343 36.4131 100.477 36.173 100.664 35.8529C100.957 35.3727 101.17 34.9992 101.317 34.7458C101.811 33.8655 102.184 33.1586 102.451 32.6384C102.971 31.5313 103.705 31.3846 104.652 32.1982C105.319 32.7451 105.465 33.412 105.092 34.1856C104.318 35.7995 103.638 37.16 103.038 38.2538C102.491 39.2942 101.717 39.4542 100.757 38.734V38.7206ZM102.864 23.2215C102.864 23.2215 102.811 23.1815 102.758 23.1549C102.611 23.0481 102.504 22.9815 102.438 22.9281C102.371 22.8747 102.251 22.8081 102.077 22.7147C101.904 22.6213 101.784 22.5546 101.691 22.5146C100.717 22.0344 100.57 21.3408 101.237 20.4472C101.717 19.7936 102.304 19.6069 102.998 19.9003C103.745 20.2338 104.385 20.5806 104.932 20.9274C105.319 21.2075 105.532 21.4876 105.559 21.7943C105.585 22.0878 105.452 22.4346 105.172 22.8614C104.505 23.7951 103.731 23.9151 102.864 23.2349V23.2215ZM116.176 38.4272C114.269 38.6006 111.481 38.8407 107.813 39.1474C107.413 39.1741 107.106 39.2008 106.893 39.2141C106.399 39.2541 106.026 39.1474 105.785 38.8673C105.572 38.6406 105.425 38.2404 105.345 37.6936C105.212 36.6532 105.652 36.1063 106.652 36.0663H106.692C107.453 34.2923 108.026 32.585 108.44 30.9311H106.652C105.652 30.9311 105.145 30.4242 105.145 29.4238C105.145 28.4235 105.652 27.9166 106.652 27.9166H110.467V25.329H107.72C106.719 25.329 106.212 24.8221 106.212 23.8218C106.212 22.8214 106.719 22.3145 107.72 22.3145H110.467V21.0474C110.467 19.9537 111.014 19.4201 112.094 19.4201C113.175 19.4201 113.722 19.967 113.722 21.0474V22.3145H116.656C117.657 22.3145 118.163 22.8214 118.163 23.8218C118.163 24.8221 117.657 25.329 116.656 25.329H113.722V27.9166H117.71C118.71 27.9166 119.217 28.4235 119.217 29.4238C119.217 30.4242 118.71 30.9311 117.71 30.9311H111.921L112.121 30.9711C112.121 30.9711 112.174 31.0244 112.161 31.0644C111.414 32.9718 110.734 34.5858 110.094 35.9196C111.214 35.8529 112.735 35.7595 114.642 35.6528C114.589 35.5728 114.495 35.4394 114.389 35.266C114.282 35.1059 114.202 34.9726 114.135 34.8792C113.495 33.9855 113.682 33.2519 114.682 32.7051C115.496 32.2649 116.176 32.4116 116.71 33.1185C117.817 34.5858 118.684 35.9596 119.297 37.2401C119.484 37.6936 119.497 38.0804 119.337 38.4005C119.19 38.6939 118.884 38.9607 118.417 39.2275C117.336 39.8277 116.589 39.5609 116.149 38.4405L116.176 38.4272Z" fill="white"/>
<path d="M123.552 39.8144C123.259 39.761 122.952 39.601 122.632 39.3209C122.085 38.8273 121.858 38.4005 121.951 38.0404C122.045 37.6802 122.445 37.3601 123.139 37.0533C124.392 36.4531 125.406 35.8929 126.206 35.3727H122.498C121.525 35.3727 121.044 34.8792 121.044 33.9189C121.044 32.9585 121.525 32.465 122.498 32.465H122.938L122.658 22.4479C122.645 21.9544 122.778 21.5943 123.059 21.3809C123.339 21.1675 123.712 21.1141 124.179 21.2342L124.272 21.2608C124.752 20.9807 125.219 20.6873 125.686 20.3672C125.98 20.1671 126.3 20.0737 126.66 20.1004C127.02 20.1271 127.327 20.2871 127.607 20.5539L128.3 21.2475V21.0341C128.3 20.1671 128.741 19.7269 129.634 19.7269C130.528 19.7269 130.941 20.1671 130.941 21.0341V21.4876H132.662C133.516 21.4876 133.943 21.9144 133.943 22.7681C133.943 23.6217 133.516 24.0485 132.662 24.0485H130.941V24.6354C130.941 24.9422 131.088 25.0889 131.395 25.0889H132.795C133.169 25.0889 133.476 25.209 133.716 25.4357C133.943 25.6625 134.063 25.9692 134.063 26.3561V32.4516H136.237L136.317 31.1445H135.93C135.076 31.1445 134.649 30.7177 134.649 29.864C134.649 29.0104 135.076 28.5835 135.93 28.5835H136.437L136.477 27.1964H135.93C135.076 27.1964 134.649 26.7695 134.649 25.9159C134.649 25.0622 135.076 24.6354 135.93 24.6354H136.517L136.544 23.8751C136.544 23.5283 136.37 23.3549 136.023 23.3549H135.717C134.81 23.3549 134.369 22.9014 134.369 22.0078C134.369 21.1141 134.823 20.6606 135.717 20.6606H137.997C138.424 20.6606 138.758 20.794 139.024 21.0474C139.291 21.3142 139.411 21.6476 139.411 22.0745C139.385 26.2894 139.291 29.7573 139.131 32.4917H139.678C140.652 32.4917 141.132 32.9852 141.132 33.9455C141.132 34.9059 140.652 35.3994 139.678 35.3994H136.023C136.904 35.7995 137.957 36.3197 139.184 36.9466C139.891 37.3201 140.238 37.7069 140.225 38.1071C140.198 38.4672 139.838 38.894 139.131 39.3742C138.704 39.6676 138.358 39.8277 138.064 39.8544C137.744 39.8811 137.384 39.7744 136.997 39.5209C136.05 38.9207 134.996 38.3205 133.822 37.6936C133.329 37.4268 133.049 37.12 132.996 36.7732C132.942 36.4131 133.116 36.0663 133.516 35.7195L133.862 35.4127H127.9L128.927 36.173C129.207 36.3731 129.341 36.5865 129.341 36.8133C129.341 37.04 129.207 37.2267 128.954 37.3868C127.607 38.2004 126.153 38.9607 124.592 39.6676C124.219 39.8277 123.872 39.8811 123.579 39.8277L123.552 39.8144ZM125.686 32.465H128.207V29.3438C128.207 28.5302 128.621 28.13 129.448 28.13C130.275 28.13 130.661 28.5302 130.661 29.3438V32.465H131.382V28.05C131.382 27.7032 131.208 27.5298 130.861 27.5298H129.488C129.127 27.5298 128.834 27.4231 128.607 27.1964C128.381 26.9696 128.274 26.6762 128.274 26.316V22.7681C128.274 22.4346 128.114 22.3412 127.794 22.488C126.94 22.8614 126.166 23.1949 125.459 23.4883L125.486 24.6488H126.38C127.233 24.6488 127.66 25.0756 127.66 25.9292C127.66 26.7829 127.233 27.2097 126.38 27.2097H125.579L125.606 28.5835H126.393C127.247 28.5835 127.674 29.0104 127.674 29.864C127.674 30.7177 127.247 31.1445 126.393 31.1445H125.673L125.699 32.4783L125.686 32.465Z" fill="white"/>
<path d="M162.273 39.0674C161.873 39.721 161.059 40.0011 159.845 39.9211C158.165 39.721 156.778 39.3742 155.684 38.9074C154.59 38.4405 153.67 37.7603 152.923 36.8933C151.682 38.3205 149.335 39.3209 145.867 39.8944C145.387 39.9478 144.933 39.9344 144.52 39.8544C144.013 39.7344 143.653 39.5209 143.453 39.2275C143.106 38.6806 143.132 38.2138 143.546 37.827C143.879 37.5069 144.44 37.2935 145.24 37.1734C147.107 36.8533 148.534 36.3998 149.508 35.8262H144.199C143.346 35.8262 142.919 35.3994 142.919 34.5458C142.919 33.6921 143.346 33.2653 144.199 33.2653H151.042V32.8518C151.042 31.8248 151.562 31.3046 152.589 31.3046C153.616 31.3046 154.137 31.8248 154.137 32.8518V33.2653H157.191C157.098 33.2386 156.978 33.1986 156.804 33.1319C156.551 33.0652 156.377 32.9985 156.257 32.9585C156.031 32.8918 155.884 32.7718 155.844 32.6251C155.804 32.4783 155.844 32.2916 155.991 32.0915L156.377 31.5447H156.137C156.137 31.5447 156.031 31.518 156.004 31.4513C155.937 31.1045 155.79 30.6377 155.564 30.0641L154.87 30.4509C153.99 30.9711 153.216 30.8111 152.563 29.9441C152.042 29.2371 152.149 28.6769 152.896 28.2634L152.936 28.2368H151.736C151.029 28.2368 150.669 27.8766 150.669 27.143C150.669 26.4094 151.015 26.1026 151.696 26.1026H151.736C151.629 25.8492 151.456 25.5424 151.215 25.169C151.055 24.9556 151.015 24.7688 151.082 24.6221C151.149 24.4754 151.335 24.3953 151.629 24.3553C151.922 24.3287 152.349 24.262 152.936 24.1819C152.776 24.0085 152.496 23.7418 152.082 23.395C151.856 23.4483 151.682 23.5017 151.576 23.5284C151.322 23.5951 151.135 23.5284 151.015 23.3283C150.749 22.9281 150.455 22.5547 150.122 22.2212V30.731C150.122 31.6647 149.655 32.1182 148.735 32.1182C147.814 32.1182 147.321 31.6514 147.321 30.731V28.1567H146.52C146.52 29.4506 146.24 30.5843 145.693 31.558C145.147 32.2649 144.546 32.4517 143.906 32.1049C142.972 31.5847 142.852 30.7577 143.533 29.6373C143.693 29.1171 143.773 28.6236 143.773 28.1567H143.733C142.959 28.1567 142.572 27.7699 142.572 26.983C142.572 26.156 142.972 25.7425 143.773 25.7425H147.321V24.8488H144.92C144.493 24.8488 144.16 24.7155 143.893 24.462C143.626 24.1953 143.506 23.8618 143.506 23.435V21.2742C143.506 20.4205 143.946 19.9937 144.813 19.9937C145.68 19.9937 146.094 20.4205 146.094 21.2742V21.9544C146.094 22.3012 146.267 22.4746 146.614 22.4746H147.307V20.7807C147.307 19.847 147.774 19.3802 148.721 19.3802C149.668 19.3802 150.108 19.847 150.108 20.7807V21.7544C152.656 21.2475 154.523 20.5673 155.75 19.727C156.031 19.5002 156.617 19.4735 157.511 19.6869C157.751 19.727 157.965 19.8203 158.138 19.967C158.311 20.1271 158.325 20.2738 158.165 20.4205H160.672C161.206 20.4205 161.553 20.5673 161.699 20.8607C161.846 21.1541 161.766 21.5943 161.459 22.1545C160.712 23.2349 159.619 24.1019 158.165 24.7688H159.365C159.685 24.7688 159.939 24.8622 160.125 25.0489C160.312 25.2357 160.406 25.4891 160.406 25.8092V26.076H162.019C162.726 26.076 163.086 26.4361 163.086 27.143C163.086 27.85 162.726 28.2101 162.019 28.2101H160.406V29.0637C160.406 29.6906 160.339 30.1575 160.192 30.4509C160.032 30.771 159.739 31.0111 159.325 31.1712C159.058 31.2779 158.765 31.3446 158.431 31.3846C159.085 31.5713 159.725 31.7848 160.352 32.0115C160.566 32.1049 160.712 32.2516 160.766 32.465C160.819 32.6784 160.766 32.9185 160.592 33.1586L160.552 33.1986H161.419C162.273 33.1986 162.7 33.6254 162.7 34.4791C162.7 35.3327 162.273 35.7596 161.419 35.7596H156.057C157.018 36.3998 158.445 36.7999 160.326 36.9867C161.246 37.0267 161.873 37.2001 162.246 37.5069C162.673 37.8537 162.673 38.3605 162.273 39.0141V39.0674ZM153.59 26.1026H157.471V25.0756C156.911 25.289 156.284 25.4891 155.604 25.6625C155.15 25.7959 154.483 25.9426 153.603 26.1026H153.59ZM154.83 23.7684C155.044 23.7151 155.364 23.6217 155.764 23.5017C155.697 23.4483 155.577 23.355 155.417 23.2216C155.297 23.1282 155.217 23.0749 155.15 23.0215C155.017 22.9148 154.79 22.7681 154.47 22.568C154.403 22.5947 154.283 22.6347 154.137 22.7014C153.99 22.7547 153.87 22.8081 153.803 22.8348C154.137 23.1149 154.483 23.4217 154.83 23.7684ZM156.364 29.2905H157.111C157.364 29.2905 157.484 29.1838 157.484 28.9837V28.2368H154.39C154.723 28.5702 155.017 28.917 155.284 29.2638C155.404 29.2638 155.577 29.2638 155.83 29.2638C156.071 29.2638 156.257 29.2638 156.377 29.2638L156.364 29.2905ZM157.364 22.8614C157.631 22.7147 157.845 22.5947 158.018 22.488C158.125 22.4213 158.271 22.3012 158.471 22.1545C158.511 22.1145 158.552 22.0878 158.578 22.0612H156.297C156.764 22.3679 157.111 22.6214 157.364 22.8481V22.8614Z" fill="white"/>
<path d="M165.501 35.8929C165.194 35.7462 164.941 35.4128 164.714 34.9192C164.487 34.3724 164.434 33.9189 164.581 33.5854C164.727 33.252 165.087 32.9985 165.648 32.8385C165.701 32.8251 165.794 32.7985 165.914 32.7718C166.341 32.6517 166.661 32.5584 166.875 32.4917V24.5687H166.155C165.181 24.5687 164.701 24.0886 164.701 23.1149C164.701 22.1412 165.181 21.661 166.155 21.661H170.703C171.677 21.661 172.157 22.1545 172.157 23.1149C172.157 24.0752 171.677 24.5687 170.703 24.5687H170.023V31.518L170.956 31.2379C171.903 30.9311 172.477 31.2779 172.677 32.2783C172.837 33.1052 172.53 33.6788 171.743 33.9722C170.289 34.5191 168.595 35.146 166.675 35.8396C166.195 36.013 165.808 36.0263 165.501 35.8663V35.8929ZM171.69 39.2809C170.89 38.3872 171.103 37.6936 172.343 37.2268C173.504 36.7066 174.451 36.1864 175.198 35.6528H174.197C173.931 35.6528 173.731 35.5728 173.571 35.4128C173.411 35.2527 173.331 35.0393 173.331 34.7859V25.3957C173.331 24.9689 173.464 24.6354 173.717 24.3687C173.984 24.1019 174.318 23.9819 174.744 23.9819H176.638C176.732 23.4617 176.785 23.0749 176.812 22.8214H173.851C172.984 22.8214 172.544 22.3813 172.544 21.4876C172.544 20.5939 172.984 20.1805 173.851 20.1805H183.561C184.428 20.1805 184.868 20.6206 184.868 21.4876C184.868 22.3546 184.428 22.8214 183.561 22.8214H180.333C180.133 23.3416 179.986 23.7284 179.92 23.9819H182.667C183.094 23.9819 183.428 24.1152 183.694 24.3687C183.961 24.6354 184.081 24.9689 184.081 25.3957V34.239C184.081 34.6658 183.948 34.9993 183.694 35.266C183.441 35.5328 183.094 35.6528 182.667 35.6528H181.213C182.214 36.2131 183.121 36.7733 183.934 37.3068C184.401 37.6402 184.628 37.9737 184.615 38.3072C184.588 38.6139 184.335 38.9474 183.854 39.3075C183.468 39.601 183.134 39.7477 182.854 39.761C182.534 39.7744 182.214 39.641 181.88 39.3742C181.227 38.8807 180.627 38.4539 180.093 38.1071C179.666 37.827 179.453 37.5202 179.453 37.1734C179.453 36.8266 179.653 36.4932 180.08 36.1864L180.827 35.6395H175.998L177.105 36.4665C177.399 36.6799 177.545 36.92 177.545 37.1734C177.545 37.4268 177.425 37.6403 177.159 37.8136C176.011 38.5606 174.798 39.1742 173.504 39.6677C172.797 39.9344 172.197 39.7877 171.717 39.2542L171.69 39.2809ZM176.225 27.2364H181.013V26.6762C181.013 26.3961 180.88 26.2627 180.6 26.2627H176.745C176.398 26.2627 176.225 26.4361 176.225 26.7829V27.2364ZM176.225 30.3042H181.013V29.3172H176.225V30.3042ZM176.638 33.3987H180.493C180.84 33.3987 181.013 33.2253 181.013 32.8785V32.425H176.225V32.9852C176.225 33.2653 176.358 33.3987 176.638 33.3987Z" fill="white"/>
</svg>
