<svg width="218" height="60" viewBox="0 0 218 60" fill="none" xmlns="http://www.w3.org/2000/svg">
<path d="M193.903 0H24.0966C10.7884 0 0 11.0999 0 24.7922V35.2078C0 48.9001 10.7884 60 24.0966 60H193.903C207.212 60 218 48.9001 218 35.2078V24.7922C218 11.0999 207.212 0 193.903 0Z" fill="#005587"/>
<path d="M24.0479 1H193.514C206.214 1.00018 216.561 11.6232 216.562 24.792V35.208C216.561 48.3768 206.214 58.9998 193.514 59H24.0479C11.3474 58.9999 1.00013 48.3768 1 35.208V24.792L1.00781 24.1768C1.32424 11.2939 11.5458 1.00013 24.0479 1Z" stroke="#003E5D" stroke-width="2" stroke-miterlimit="10"/>
<g clip-path="url(#clip0_107_81262)">
<path d="M22.9747 41C22.0053 41 21.5205 40.5199 21.5205 39.5456V33.6149C21.3682 34.0809 21.2159 34.5186 21.0497 34.9281C20.7173 35.6201 20.4126 35.9731 20.1218 35.9731C19.8309 35.9731 19.5401 35.6342 19.2216 34.9423C19.0692 34.6034 19 34.3068 19 34.0668C19 33.7985 19.0969 33.5161 19.277 33.2195C20.1772 31.4827 20.8696 29.3364 21.3405 26.7805H20.8696C19.8725 26.7805 19.3739 26.2722 19.3739 25.2555C19.3739 24.2388 19.8725 23.7305 20.8696 23.7305H21.5482V20.5392C21.5344 19.579 22.0191 19.0989 22.9747 19.0989C23.9303 19.0989 24.4012 19.579 24.4012 20.5533V23.7587H25.7861L25.7445 23.7305C25.7445 23.7305 25.7445 23.5751 25.8553 23.3351C25.9246 23.1515 25.9938 23.0244 26.0354 22.9679C26.1046 22.8409 26.2708 22.6432 26.5062 22.3749C26.7832 22.0642 26.9494 21.9371 27.0048 21.9795L27.0463 22.0077C27.2818 21.4288 27.4895 20.9063 27.628 20.4403C27.7665 19.9885 27.9465 19.7061 28.1958 19.5931C28.4313 19.466 28.7636 19.4801 29.193 19.6355C30.0101 19.9602 30.1624 20.5533 29.6638 21.4147C29.1791 22.3043 28.819 22.9538 28.5836 23.3774C28.6251 23.4057 28.6944 23.4622 28.7636 23.5469C28.8329 23.6316 28.8883 23.7022 28.916 23.7446C29.193 23.2504 29.373 22.8832 29.4838 22.6432C29.6084 22.389 29.7885 22.2195 30.0378 22.1348C30.287 22.0642 30.5502 22.0925 30.841 22.2195L31.3811 22.502C31.3673 22.0783 31.3534 21.4288 31.3534 20.5674C31.3534 19.6072 31.8243 19.1412 32.7522 19.1412C33.6801 19.1412 34.1786 19.6213 34.1509 20.5957V21.3299C34.1371 21.9513 34.1371 22.4172 34.1509 22.742L34.608 22.0219C34.6911 21.8806 34.8157 21.8665 34.9403 21.9795L34.9819 22.0219C35.1204 21.6971 35.3004 21.1887 35.5497 20.4827C35.6882 20.0308 35.8821 19.7484 36.1314 19.6213C36.3807 19.4943 36.713 19.4943 37.1424 19.6496C37.9733 19.9744 38.1256 20.5674 37.6132 21.4429C37.1978 22.1913 36.8238 22.8409 36.5053 23.3633C36.5607 23.4057 36.6438 23.4904 36.7546 23.6175C36.7961 23.6599 36.8377 23.7022 36.8654 23.7305C37.0731 23.3351 37.2393 23.0385 37.3362 22.855C37.6825 22.1348 38.2087 21.9513 38.915 22.3043C39.6629 22.6714 39.8014 23.2221 39.3167 23.9705C38.9012 24.6059 38.3749 25.3685 37.7517 26.2581L38.7073 25.8909C38.9427 25.8062 39.1782 25.8062 39.3859 25.8909C39.5937 25.9898 39.746 26.1592 39.8429 26.3993C40.0784 27.0629 40.2861 27.7125 40.4246 28.362C40.5354 28.8704 40.2446 29.2516 39.5937 29.5199C39.3305 29.6329 39.1089 29.647 38.9012 29.5764C38.6935 29.5058 38.5688 29.3364 38.5273 29.0822V29.0398L37.4193 29.2234C37.9318 29.647 38.3057 29.9859 38.555 30.2401C38.7212 30.4378 38.6935 30.6355 38.458 30.8332L38.4165 30.8755H38.7766C39.6075 30.8755 40.023 31.2991 40.023 32.1464C40.023 32.9936 39.6075 33.4314 38.7766 33.4314H37.267L38.3057 33.8409C38.5827 33.9538 38.7489 34.1091 38.832 34.3351C38.915 34.561 38.8873 34.8152 38.735 35.0835C38.1256 36.0578 37.4747 36.905 36.7407 37.6393C37.087 38.0488 37.447 38.2606 37.8071 38.2606C37.9041 38.2606 37.9595 38.2606 37.9872 38.2324C38.1949 37.5687 38.4442 37.1451 38.735 36.9615C39.0535 36.7497 39.4552 36.8203 39.9399 37.1733C40.1892 37.3569 40.3415 37.6676 40.3969 38.1194C40.4385 38.4866 40.4108 38.8678 40.3 39.2773C40.0645 39.9551 39.7321 40.4211 39.3028 40.6894C38.915 40.9153 38.3334 41.0424 37.5855 41.0424C36.4084 41.0424 35.4112 40.5058 34.5941 39.4326C33.874 39.9127 33.2092 40.2799 32.5998 40.5623C31.8797 40.8729 31.2842 40.7317 30.8133 40.1528C30.1485 39.2914 30.3701 38.6419 31.4919 38.19C32.1567 37.8652 32.766 37.4981 33.32 37.0886C32.9322 36.0013 32.5998 34.7869 32.3229 33.4455H30.3286L30.2593 34.0668C30.2593 34.0668 30.3286 34.1091 30.3701 34.1656C31.0626 34.674 31.5473 35.0552 31.8381 35.3235C32.1428 35.6059 32.2952 35.8742 32.2952 36.1566C32.2952 36.4391 32.1705 36.7356 31.8935 37.0745C31.2288 37.9217 30.5363 37.95 29.8162 37.1733C29.8023 37.1451 29.7608 37.1027 29.7192 37.0604C29.6638 37.018 29.6223 36.9898 29.5946 36.9615C29.1791 38.1618 28.5836 39.1643 27.8357 39.9551C27.4341 40.3081 27.0602 40.5058 26.7555 40.534C26.4093 40.5623 26.0769 40.3928 25.7584 39.9975C25.1213 39.2208 25.2598 38.3877 26.16 37.5122C26.8525 36.5803 27.2956 35.2247 27.4895 33.4596H26.7694C26.3954 33.4596 26.2015 33.2619 26.2015 32.8806V32.6265L25.6614 33.4314C25.5229 33.629 25.3983 33.7279 25.2737 33.7279C25.149 33.7279 25.0521 33.629 24.9828 33.4314C24.8582 33.0925 24.6504 32.5418 24.3458 31.7651V39.6021C24.3458 40.5764 23.8749 41.0565 22.9193 41.0565L22.9747 41ZM26.2569 30.8332H31.9489C31.9212 30.579 31.8797 30.1695 31.8104 29.6047L30.6333 30.0424C30.3009 30.1695 30.1209 30.0424 30.0932 29.6753V29.6047C29.1514 29.7459 28.2374 29.8588 27.3372 29.9577C26.9771 30 26.6724 29.8588 26.4093 29.5482C26.1877 29.2799 26.0354 28.941 25.9523 28.5032C25.9246 28.2914 25.9523 28.0937 26.0215 27.9243C26.0908 27.7407 26.2292 27.6419 26.4093 27.6278H26.4508C26.7971 27.1477 27.2264 26.5263 27.7111 25.7638C27.4895 25.4814 27.074 25.0437 26.4924 24.4506C26.3677 24.3235 26.2846 24.2388 26.2154 24.1682V25.552C26.2154 25.9333 26.1046 26.2439 25.883 26.4699C25.6614 26.6958 25.3706 26.8088 24.9828 26.8088H24.3735V27.7125C24.9967 28.6868 25.606 29.7317 26.2292 30.8473L26.2569 30.8332ZM28.9991 27.4159L29.65 27.3736C29.65 27.3736 29.6223 27.2606 29.6084 27.19C29.5807 27.1477 29.5669 27.1053 29.5669 27.0771C29.5392 26.95 29.5115 26.8652 29.4838 26.7946L29.0129 27.4159H28.9991ZM31.6166 27.303C31.6027 27.1194 31.5889 26.837 31.5612 26.4557C31.5335 26.0745 31.5196 25.7921 31.5196 25.6085C31.5196 25.4108 31.5058 25.1284 31.4919 24.733C31.4781 24.3376 31.4642 24.0552 31.4504 23.8717C30.7441 24.9731 30.1624 25.8486 29.7054 26.484L30.4948 26.2298C30.9518 26.0886 31.2565 26.2298 31.4227 26.6676C31.4504 26.724 31.4919 26.837 31.5335 26.9782C31.575 27.1194 31.6027 27.2324 31.6304 27.3171L31.6166 27.303ZM34.3587 27.2324L34.6495 27.2041C34.9403 26.837 35.2727 26.3428 35.6605 25.7215C35.2173 25.1708 34.7326 24.6483 34.1925 24.1823C34.2063 24.3518 34.2202 24.6059 34.234 24.959C34.2479 25.2978 34.2617 25.5661 34.2617 25.7356C34.2617 25.905 34.2894 26.1592 34.3033 26.484C34.331 26.8088 34.331 27.0629 34.331 27.2324H34.3587ZM34.7465 30.8332H36.0621C35.8821 30.6778 35.7574 30.5649 35.6744 30.4801C35.4943 30.3248 35.4943 30.1695 35.6744 30L36.4638 29.3081C36.1452 29.3505 35.8267 29.3928 35.5082 29.4493C35.3974 29.4634 35.245 29.4917 35.0511 29.5199C34.8434 29.5482 34.6911 29.5764 34.5941 29.5905C34.6495 30.1412 34.7049 30.5649 34.7465 30.8332ZM35.5359 34.8575C35.702 34.6457 35.8682 34.4057 36.0344 34.1374C36.0621 34.0809 36.1037 33.9962 36.1729 33.8832C36.3114 33.6573 36.3945 33.4878 36.4499 33.3749H35.1896C35.245 33.7561 35.3697 34.2504 35.5497 34.8575H35.5359ZM37.2532 26.9782L38.0287 26.9076C37.9733 26.7099 37.8902 26.484 37.7794 26.2439C37.6825 26.3569 37.6132 26.4699 37.5301 26.6111C37.4747 26.7099 37.3778 26.8229 37.2532 26.9782Z" fill="white"/>
<path d="M58.5116 40.9294C58.1238 40.9294 57.8053 40.8306 57.556 40.647C57.3206 40.4493 57.1682 40.1951 57.1267 39.8703C57.0436 39.4467 56.9051 39.0513 56.7389 38.6983C56.365 39.2208 55.9633 39.715 55.534 40.1951C55.1878 40.5199 54.8693 40.6893 54.5784 40.7317C54.2738 40.7458 53.9552 40.6187 53.609 40.3363C53.1104 39.941 52.875 39.5597 52.9027 39.2067C52.9304 38.8678 53.2074 38.4865 53.7198 38.077C54.7169 37.0886 55.5617 35.9024 56.2542 34.5045H55.4786C54.4261 36.3402 53.0412 37.9358 51.3377 39.3196C50.9777 39.5738 50.6453 39.7009 50.3683 39.7009C50.0775 39.7009 49.7728 39.5456 49.4404 39.249C48.9695 38.8254 48.7757 38.43 48.831 38.0911C48.8864 37.7805 49.205 37.4557 49.7589 37.1027C50.7422 36.3543 51.6286 35.4788 52.4457 34.5045H51.6563C51.31 34.8716 50.8669 35.2811 50.3406 35.7471C50.0221 35.9872 49.6897 36.1001 49.3296 36.0719C48.9695 36.0436 48.6649 35.8883 48.4017 35.6059C48.3048 35.5353 48.1801 35.4082 48.014 35.267C47.8478 35.1117 47.7231 34.9987 47.6262 34.914C46.6567 35.4365 45.5211 36.0295 44.1916 36.6932C43.6376 36.9897 43.1806 37.0603 42.8205 36.905C42.4604 36.7497 42.1835 36.3684 41.9757 35.7754C41.7818 35.2105 41.768 34.7445 41.9203 34.3774C42.0727 34.0103 42.4328 33.7279 43.0006 33.516C43.1391 33.4737 43.3468 33.389 43.6099 33.2901C43.79 33.2195 43.9285 33.163 44.0116 33.1348V27.0488H43.4853C42.4604 27.0488 41.948 26.5122 41.948 25.4531C41.948 24.3941 42.4604 23.8858 43.4853 23.8858H44.0116V20.9628C44.0116 19.9461 44.5101 19.4377 45.5211 19.4377C46.5321 19.4377 47.0168 19.9461 47.0168 20.9628V23.8716H47.363C48.3879 23.8716 48.9003 24.3941 48.9003 25.439C48.9003 26.484 48.3879 27.0347 47.363 27.0347H47.0168V31.8498L47.8478 31.4968C48.0416 31.3979 48.2217 31.3979 48.374 31.4968C48.5264 31.5815 48.6372 31.7368 48.7064 31.9487L48.9972 33.2195C49.7728 32.5417 50.396 31.8357 50.8807 31.1014H50.0498C49.1496 31.1014 48.6926 30.6354 48.6926 29.6893C48.6926 28.7433 49.1496 28.3055 50.0498 28.3055H61.5445C62.4447 28.3055 62.9018 28.7715 62.9018 29.6893C62.9018 30.6072 62.4447 31.1014 61.5445 31.1014H54.0799C53.9552 31.3697 53.8029 31.638 53.6228 31.9063H60.9767C61.4753 31.9063 61.8215 32.0899 62.0431 32.457C62.2786 32.9089 62.3616 33.629 62.2924 34.6175C62.057 37.5969 61.683 39.3902 61.1845 39.9692C60.7967 40.4493 60.2566 40.7317 59.578 40.8447C59.3564 40.8729 58.9963 40.9012 58.4977 40.9435L58.5116 40.9294ZM52.0163 27.6419C51.5732 27.6419 51.2269 27.5006 50.95 27.2324C50.673 26.9499 50.5483 26.5969 50.5483 26.1451V21.1181C50.5483 20.6662 50.6868 20.3132 50.95 20.0308C51.2269 19.7484 51.5732 19.6213 52.0163 19.6213H59.938C60.3812 19.6213 60.7274 19.7625 61.0044 20.0308C61.2814 20.3132 61.4061 20.6662 61.4061 21.1181V26.1451C61.4061 26.5969 61.2676 26.9499 61.0044 27.2324C60.7274 27.5148 60.3812 27.6419 59.938 27.6419H52.0163ZM53.4013 22.5725H58.4008V22.163C58.4008 21.9795 58.3039 21.8806 58.1238 21.8806H53.9414C53.5813 21.8806 53.4013 22.0642 53.4013 22.4313V22.5725ZM53.6644 25.3825H57.8468C58.2069 25.3825 58.3869 25.199 58.3869 24.8318V24.6906H53.3874V25.1001C53.3874 25.2837 53.4844 25.3825 53.6644 25.3825ZM57.9853 38.3877C58.2762 38.3877 58.4839 38.2888 58.6362 38.1053C58.9132 37.8087 59.1348 36.7779 59.3148 35.0128C59.3425 34.6598 59.2594 34.4763 59.0656 34.4763H58.9963C58.7193 35.1823 58.4285 35.8318 58.11 36.439C57.7499 37.1168 57.3621 37.7522 56.9605 38.3594C57.2652 38.3736 57.5975 38.3877 57.9715 38.3877H57.9853Z" fill="white"/>
<path d="M69.0921 40.5764C68.7044 40.3222 68.4412 39.941 68.3027 39.4467C67.998 38.303 68.4274 37.7523 69.563 37.7805C69.7846 37.7805 69.9092 37.6534 69.9092 37.3851V33.4172H68.2612C68.0811 35.8318 67.7488 37.837 67.264 39.4609C67.0702 40.0257 66.8209 40.3646 66.53 40.4917C66.2392 40.6046 65.8376 40.5199 65.3252 40.2234C64.8681 39.9833 64.5912 39.6868 64.4942 39.3761C64.3834 39.0514 64.425 38.6419 64.605 38.1335C65.2282 35.9589 65.5329 32.6971 65.5329 28.3338V21.3723C65.5329 20.9204 65.6714 20.5674 65.9345 20.285C66.2115 20.0026 66.5577 19.8755 67.0009 19.8755H71.4603C71.9035 19.8755 72.2497 20.0167 72.5267 20.285C72.8037 20.5674 72.9283 20.9204 72.9283 21.3723V37.4698C72.9283 38.2324 72.8729 38.8254 72.7483 39.249C72.596 39.7433 72.3328 40.1245 71.9312 40.3787C71.5434 40.6611 71.0449 40.8306 70.4632 40.9153C69.9369 40.9435 69.4799 40.8447 69.106 40.5905L69.0921 40.5764ZM68.4135 30.2824H69.9092V28.1078H68.4412V29.2657C68.4412 29.7176 68.4412 30.0565 68.4135 30.2824ZM68.4412 25.0154H69.9092V23.4057C69.9092 23.1091 69.7707 22.9679 69.4799 22.9679H68.9813C68.6213 22.9679 68.4412 23.1515 68.4412 23.5186V25.0154ZM75.3104 41C74.2856 41 73.7731 40.4917 73.7731 39.4609V21.3723C73.7731 20.9204 73.9116 20.5674 74.1748 20.285C74.4517 20.0026 74.798 19.8755 75.2411 19.8755H83.1075C83.5506 19.8755 83.8969 20.0167 84.1738 20.285C84.4508 20.5674 84.5755 20.9204 84.5755 21.3723V24.3517C84.5755 25.086 84.4785 25.6508 84.2985 26.0321C84.0907 26.4416 83.7307 26.7523 83.2182 26.9499C82.6504 27.1759 81.7918 27.3171 80.6562 27.3453C79.6452 27.3736 79.0081 27.0064 78.7588 26.2439C78.3849 25.1425 78.925 24.6059 80.393 24.6483C80.5038 24.6483 80.6285 24.6483 80.7946 24.62H80.947C81.2794 24.62 81.4456 24.5071 81.4456 24.267V23.5045C81.4456 23.1374 81.2655 22.9538 80.9054 22.9538H77.3601C77 22.9538 76.8199 23.1374 76.8199 23.5045V27.9949H83.7168C84.2015 27.9949 84.5616 28.1502 84.797 28.475C85.0325 28.7998 85.1017 29.2657 85.0048 29.887C84.5616 32.3582 83.8415 34.4904 82.8166 36.2555C83.2875 36.7073 83.7307 37.0745 84.1461 37.3569C84.7555 37.7099 85.1017 38.077 85.2125 38.4583C85.3372 38.8537 85.1848 39.3196 84.7832 39.8421C84.4647 40.2516 84.1323 40.4775 83.7722 40.5058C83.426 40.5199 83.0244 40.3787 82.5535 40.0963C82.0411 39.7291 81.5287 39.2773 81.0162 38.7548C80.5592 39.2632 80.0883 39.715 79.5898 40.1104C79.2158 40.3646 78.8419 40.4634 78.4541 40.3928C78.0802 40.3222 77.7617 40.0963 77.4986 39.715C77.277 39.4185 77.0415 39.1502 76.8199 38.8819V39.4185C76.8199 40.4493 76.3214 40.9576 75.3104 40.9576V41ZM77.277 38.0629C77.9417 37.5828 78.5511 37.0039 79.1051 36.3402C78.2326 34.9422 77.4709 33.276 76.8199 31.3556V37.8087C76.8199 38.19 76.9723 38.2747 77.277 38.0629ZM80.7808 33.7137C81.1963 32.8524 81.5287 31.9628 81.7779 31.0449H79.4651C79.6452 31.5109 79.8529 31.9628 80.0745 32.4288C80.3792 33.0077 80.6146 33.4455 80.7808 33.7137Z" fill="white"/>
<path d="M95.5025 39.9128C94.7823 38.9102 95.1701 38.0348 96.652 37.2864C97.6491 36.5803 98.3554 35.7331 98.7709 34.7446H97.5937C97.2752 34.7446 97.0259 34.6458 96.832 34.4622C96.6381 34.2645 96.555 34.0104 96.555 33.6856V32.0193C96.4581 32.3865 96.4027 32.6548 96.3473 32.8242C96.1257 33.6009 95.6133 33.8127 94.8377 33.4173C94.1868 33.0925 93.9237 32.6265 94.0483 32.0335C94.1176 31.6098 94.2145 30.9462 94.3392 30.0707H93.6605V37.4558C93.6605 38.2183 93.5913 38.8114 93.4528 39.235C93.2866 39.7151 92.9819 40.0681 92.5526 40.3223C92.0956 40.5906 91.5416 40.7459 90.8769 40.8306C89.7551 40.873 89.0626 40.4353 88.7718 39.4892C88.4256 38.2889 88.9103 37.71 90.2121 37.7382C90.3506 37.7241 90.4475 37.6959 90.4891 37.6535C90.5445 37.6111 90.5722 37.5264 90.5722 37.3852V33.7703C90.2398 34.434 89.8797 35.0553 89.492 35.6342C88.9934 36.2132 88.5641 36.4956 88.204 36.4532C87.8439 36.4109 87.5115 36.0437 87.2069 35.3518C86.9991 34.8717 86.9299 34.4481 86.9991 34.0668C87.0684 33.6856 87.3038 33.3185 87.6777 32.9513C88.4117 32.1041 89.0349 31.1439 89.5474 30.0707H88.5087C87.5531 30.0707 87.0822 29.5906 87.0822 28.6163C87.0822 27.6419 87.5531 27.1618 88.5087 27.1618H91.5832C90.8907 26.7806 90.1706 26.4276 89.4366 26.1028C88.3148 25.6368 88.204 24.959 89.0765 24.0553C89.575 23.5187 90.1429 23.3634 90.7661 23.5893C90.8907 23.6458 91.0846 23.7305 91.3477 23.8152C91.7078 23.4763 92.0125 23.1516 92.2756 22.8409H88.7718C87.8716 22.8409 87.4146 22.3749 87.4146 21.4288C87.4146 20.4828 87.8716 20.045 88.7718 20.045H95.3501C95.8764 20.045 96.2226 20.2145 96.4027 20.5392C96.5689 20.864 96.555 21.3441 96.3196 21.9513C95.7933 22.9962 95.0039 23.9988 93.9652 24.9731C94.076 25.0296 94.2284 25.1143 94.4361 25.2273C94.6161 25.3262 94.7546 25.3826 94.8377 25.4391C95.0178 25.5521 95.1147 25.6933 95.1286 25.8627C95.1424 26.0463 95.0732 26.2158 94.9208 26.3852L94.2007 27.1477H94.9762L95.2532 27.0489C95.364 27.0348 95.4609 27.0348 95.5717 27.0489L97.2613 27.6278C97.2613 27.6278 97.3444 27.6843 97.3306 27.7408V27.8114C98.0646 27.6278 98.7432 27.3878 99.3664 27.0912C98.9648 26.6676 98.577 26.2158 98.2169 25.7498C97.8014 26.1452 97.3306 26.1734 96.8181 25.8204C96.2365 25.425 95.9041 24.9873 95.821 24.5354C95.7379 24.0553 95.9457 23.6034 96.4581 23.1516C97.3167 22.2761 98.023 21.3441 98.577 20.3416C99.0202 19.452 99.7265 19.1554 100.71 19.4378C101.208 19.579 101.527 19.805 101.679 20.1156C101.832 20.4263 101.776 20.8358 101.527 21.33H106.36C106.776 21.33 107.108 21.4712 107.343 21.7536C107.579 22.036 107.69 22.4032 107.69 22.8692C107.69 23.2222 107.593 23.5046 107.413 23.7305C107.233 23.9564 106.97 24.0694 106.637 24.0694H106.596C106.097 25.1708 105.46 26.1734 104.671 27.063C105.072 27.2324 105.488 27.3878 105.917 27.529C106.734 27.7267 107.233 28.0091 107.427 28.3621C107.634 28.7434 107.524 29.2658 107.067 29.9012C106.54 30.6073 105.792 30.805 104.823 30.4943C103.812 30.1554 102.87 29.7177 101.998 29.1811C101.43 29.5059 100.876 29.7742 100.35 30.0142H101.679C102.039 30.0142 102.316 30.1272 102.51 30.339C102.704 30.5508 102.773 30.8615 102.746 31.2427C102.746 31.3133 102.746 31.4404 102.718 31.5957C102.704 31.7511 102.69 31.8781 102.676 31.9487H105.972C106.471 31.9487 106.831 32.1464 107.039 32.5277C107.274 32.9513 107.357 33.6573 107.26 34.6317C106.983 37.3005 106.596 38.9385 106.056 39.5457C105.612 40.054 105.031 40.3647 104.297 40.4917C104.061 40.52 103.66 40.5482 103.12 40.5906C102.676 40.5906 102.33 40.4776 102.067 40.2658C101.804 40.054 101.638 39.7575 101.582 39.3903C101.568 39.2915 101.527 39.1503 101.471 38.9244C101.291 38.5007 101.291 38.1618 101.471 37.9218C101.638 37.6817 101.984 37.5829 102.482 37.6111H102.662C102.953 37.6111 103.189 37.5123 103.369 37.3287C103.66 37.0322 103.895 36.1567 104.075 34.7023H102.15C101.43 37.0887 100.045 38.882 97.9953 40.0964C96.832 40.6753 95.9872 40.6047 95.4609 39.8704L95.5025 39.9128ZM96.5689 32.0052H99.5049C99.5464 31.6522 99.6018 31.1015 99.6572 30.3672C99.4495 30.4378 99.1171 30.5649 98.6601 30.7202C98.5631 30.7344 98.4385 30.7767 98.2585 30.8615C98.1892 30.8756 98.1338 30.8897 98.1061 30.9038C97.8014 30.9744 97.5799 30.9038 97.4552 30.6779C97.386 30.5367 97.2336 30.3107 97.0259 30.0142C96.9151 30.5508 96.7766 31.2145 96.5689 32.0193V32.0052ZM101.956 25.5097C102.372 25.0861 102.732 24.6201 103.023 24.1259H100.53C100.751 24.4083 100.973 24.6484 101.181 24.846C101.388 25.0579 101.651 25.2838 101.956 25.5097Z" fill="white"/>
<path d="M110.751 25.5237C109.906 25.5237 109.49 25.0859 109.49 24.2105C109.49 23.335 109.906 22.9255 110.751 22.9255H117.19C118.035 22.9255 118.451 23.3491 118.451 24.2105C118.451 25.0718 118.035 25.5237 117.19 25.5237H110.751ZM127.3 40.421C126.165 39.955 125.112 39.3619 124.115 38.6277C123.076 39.3619 121.913 39.9832 120.625 40.4775C120.182 40.6328 119.78 40.6328 119.42 40.5057C119.046 40.3645 118.769 40.1103 118.589 39.7291C118.354 39.249 118.021 38.7406 117.592 38.1899V39.0936C117.592 39.3196 117.523 39.5031 117.384 39.6444C117.246 39.7856 117.066 39.8562 116.844 39.8562H111.942C111.498 39.8562 111.152 39.715 110.875 39.4467C110.598 39.1642 110.474 38.8112 110.474 38.3594V34.1797C110.474 33.7278 110.612 33.3748 110.875 33.0924C111.152 32.8099 111.498 32.6829 111.942 32.6829H116.124C116.567 32.6829 116.913 32.8241 117.19 33.0924C117.467 33.3748 117.592 33.7278 117.592 34.1797V38.0346C119.171 37.6251 120.514 37.0603 121.622 36.3542C121.124 35.7612 120.653 35.1116 120.196 34.4197C119.96 33.9678 119.905 33.5725 120.029 33.2194C120.154 32.8664 120.459 32.6123 120.916 32.4569L122.176 32.0474H120.209C119.739 32.0474 119.379 31.8497 119.102 31.4685C118.866 31.1155 118.741 30.6777 118.741 30.1553C118.741 29.8446 118.811 29.5904 118.963 29.3927C119.115 29.1668 119.323 29.0397 119.6 29.0397H119.642C118.949 28.3055 118.271 27.7265 117.634 27.317V28.1078C117.634 28.5314 117.426 28.7573 116.996 28.7573H111.775C110.958 28.7573 110.557 28.3478 110.557 27.5147C110.557 26.6816 110.958 26.2721 111.775 26.2721H116.913C117.398 26.2721 117.634 26.5121 117.634 27.0064V27.077C118.437 26.4839 118.977 25.7355 119.282 24.86C119.489 24.2387 119.6 23.4621 119.6 22.5019V21.0474C119.6 20.6521 119.711 20.3273 119.946 20.1013C120.182 19.8754 120.486 19.7625 120.86 19.7625H125.971C126.414 19.7625 126.76 19.9037 127.037 20.172C127.314 20.4544 127.439 20.8074 127.439 21.2592V24.6764C127.439 25.0153 127.439 25.2271 127.466 25.3119C127.494 25.3966 127.55 25.439 127.633 25.439H127.923C128.02 24.7047 128.2 24.2105 128.464 23.9704C128.782 23.7021 129.239 23.7021 129.821 23.9704C130.181 24.1257 130.402 24.4788 130.499 25.0295C130.596 25.439 130.596 25.9191 130.499 26.4556C130.305 27.1193 130.015 27.5853 129.641 27.8677C129.294 28.1219 128.81 28.2631 128.2 28.2631H127.023C126.012 28.2631 125.32 28.0089 124.946 27.5006C124.572 26.9922 124.378 26.0744 124.378 24.7329V23.2503C124.378 22.8831 124.198 22.6995 123.838 22.6995H122.661C122.633 25.326 121.968 27.317 120.694 28.6444C120.403 28.9268 120.431 29.0538 120.791 29.0538H128.214C129.294 29.0538 129.682 29.7034 129.364 31.0166C128.741 33.1488 127.813 34.9563 126.58 36.4107C127.217 36.7779 127.868 37.0885 128.519 37.3568C129.322 37.6251 129.821 37.9357 130.015 38.3311C130.209 38.7406 130.07 39.2631 129.613 39.8985C129.087 40.6469 128.311 40.8446 127.286 40.4775L127.3 40.421ZM111.789 31.8921C110.972 31.8921 110.57 31.4826 110.57 30.6495C110.57 29.8164 110.972 29.4069 111.789 29.4069H116.429C117.246 29.4069 117.647 29.8164 117.647 30.6495C117.647 31.4826 117.246 31.8921 116.429 31.8921H111.789ZM111.858 22.2477C111.041 22.2477 110.64 21.8382 110.64 21.0051C110.64 20.172 111.041 19.7625 111.858 19.7625H116.387C117.204 19.7625 117.606 20.172 117.606 21.0051C117.606 21.8382 117.204 22.2477 116.387 22.2477H111.858ZM113.617 37.2156H114.268C114.628 37.2156 114.808 37.032 114.808 36.6649V35.8176C114.808 35.4505 114.628 35.2669 114.268 35.2669H113.742C113.382 35.2669 113.202 35.4505 113.202 35.8176V36.8061C113.202 37.0885 113.34 37.2156 113.603 37.2156H113.617ZM124.018 34.3632C124.683 33.6713 125.223 32.8806 125.652 32.0051H122.287C122.481 32.3581 122.744 32.7676 123.062 33.2336C123.256 33.5019 123.589 33.869 124.032 34.3632H124.018Z" fill="white"/>
<path d="M136.579 39.9834C136.524 39.6728 136.468 39.4468 136.427 39.2915C136.274 38.9103 136.274 38.6137 136.427 38.416C136.579 38.2183 136.856 38.1195 137.258 38.1336H137.299C137.576 38.1336 137.784 38.0065 137.936 37.7665C138.13 37.4135 138.255 35.4083 138.324 31.7511C138.338 31.3275 138.296 31.0309 138.213 30.8756C138.144 30.7344 138.005 30.6638 137.812 30.6638H137.161C136.884 34.3069 136.233 37.2017 135.194 39.3621C134.848 39.9552 134.515 40.28 134.183 40.3364C133.865 40.3788 133.463 40.167 132.992 39.6869C132.604 39.2915 132.383 38.9103 132.341 38.5714C132.3 38.2183 132.41 37.8088 132.674 37.3146C133.338 35.9449 133.795 34.1657 134.031 31.9629C134.183 30.5508 134.28 28.4186 134.322 25.5803H133.823C132.812 25.5803 132.313 25.0579 132.313 24.0412C132.313 23.0245 132.812 22.502 133.823 22.502H135.499V20.7228C135.499 19.6638 136.025 19.1272 137.064 19.1272C138.102 19.1272 138.629 19.6638 138.629 20.7228V22.502H140.415C140.858 22.502 141.205 22.6432 141.482 22.9115C141.759 23.1939 141.883 23.547 141.883 23.9988V24.1542C142.52 23.2363 143.033 22.1067 143.448 20.7652C143.739 19.6214 144.404 19.1696 145.442 19.4096C146.523 19.6355 146.924 20.3133 146.62 21.4147C146.578 21.5136 146.523 21.6548 146.467 21.8807H151.536C152.519 21.8807 153.004 22.375 153.004 23.3775C153.004 24.3801 152.519 24.9025 151.536 24.9025H145.249C144.888 25.6086 144.487 26.2723 144.044 26.8794H144.902C145.387 26.8794 145.622 27.1195 145.622 27.6137V28.7434L146.301 28.4186V26.6394C146.301 25.7357 146.758 25.2838 147.658 25.2838C148.559 25.2838 148.988 25.7357 148.988 26.6394V27.1477L149.999 26.6676L150.179 26.5547L150.47 26.3429C150.594 26.2723 150.719 26.244 150.857 26.3005L152.298 26.8088C152.561 26.8794 152.644 27.0489 152.575 27.2889L152.547 27.3595C152.547 30.8897 152.533 32.909 152.506 33.4032C152.492 34.2787 152.173 34.8717 151.55 35.1824C151.314 35.3236 151.051 35.4083 150.761 35.4648C150.414 35.4789 150.082 35.3095 149.763 34.9565C149.486 34.6317 149.306 34.2646 149.196 33.8551C149.154 33.6715 149.154 33.502 149.223 33.375C149.265 33.2196 149.362 33.149 149.514 33.1631H149.556C149.708 33.1631 149.791 33.0643 149.805 32.8807C149.819 32.7678 149.833 31.8076 149.833 30.0001L148.974 30.4096V35.253C148.974 36.1567 148.531 36.6086 147.644 36.6086C146.758 36.6086 146.287 36.1567 146.287 35.253V31.6805L145.609 32.0335V37.1028C145.609 37.6111 145.678 37.9218 145.803 38.0489C145.927 38.176 146.26 38.2325 146.786 38.2325H149.722C149.943 38.2325 150.123 38.2042 150.262 38.1336C150.664 36.6651 151.384 36.1426 152.409 36.5945C152.769 36.7498 153.004 37.0746 153.115 37.5688C153.212 37.9783 153.212 38.4443 153.115 38.9526C152.893 39.701 152.533 40.2376 152.035 40.5624C151.564 40.8589 150.885 41.0001 149.999 41.0001H146.426C144.985 41.0001 144.002 40.7318 143.504 40.1952C142.991 39.6586 142.742 38.6278 142.742 37.1028V33.3891L142.34 33.5726C142.16 33.6715 142.036 33.615 141.952 33.4314L141.246 31.6805C141.205 34.434 141.135 36.3403 141.038 37.3993C140.941 38.6278 140.775 39.4186 140.54 39.7716C140.166 40.3647 139.654 40.7459 139.003 40.873C138.809 40.9295 138.449 40.986 137.922 41.0142C137.133 41.0284 136.69 40.6895 136.593 39.9975L136.579 39.9834ZM141.26 30.7767L142.728 30.0566V27.7549C142.534 27.5431 142.174 27.176 141.662 26.6535C141.191 26.2017 140.858 25.9192 140.665 25.778C140.623 25.7357 140.623 25.6792 140.692 25.6227L140.734 25.5803H137.368C137.355 26.2723 137.327 26.9642 137.299 27.6561H140.152C140.498 27.6561 140.775 27.7549 140.983 27.9667C141.191 28.1785 141.288 28.461 141.288 28.814V28.8846L141.26 30.805V30.7767Z" fill="white"/>
<path d="M169.069 41C167.92 41 167.352 40.4211 167.352 39.2773V29.2234C167.352 28.7715 167.49 28.4185 167.753 28.1361C168.03 27.8537 168.377 27.7266 168.82 27.7266H170.205C168.003 25.9898 166.355 24.2247 165.247 22.4455C164.167 24.2953 162.491 26.0886 160.233 27.8678H161.771C162.186 27.8678 162.532 27.9949 162.782 28.2491C163.031 28.5032 163.156 28.8421 163.156 29.2799V30.5225C163.156 32.3017 162.989 33.8267 162.657 35.0694C162.172 36.8627 161.314 38.3877 160.053 39.6303C159.555 40.0257 159.084 40.2799 158.627 40.3646C158.087 40.4776 157.616 40.3646 157.2 40.0116C156.646 39.5315 156.466 38.9525 156.66 38.2889C156.84 37.7382 157.27 37.1733 157.921 36.5803C158.655 35.6765 159.167 34.6316 159.458 33.4737C159.666 32.6265 159.776 31.6098 159.776 30.4237V28.2067C159.236 28.6021 158.641 29.0116 157.99 29.4352C157.477 29.7317 157.034 29.8447 156.674 29.8024C156.286 29.7459 155.926 29.4776 155.594 29.0116C155.206 28.4609 155.081 27.9525 155.248 27.5148C155.414 27.1335 155.815 26.7523 156.466 26.3851C157.81 25.5097 159.056 24.4647 160.22 23.2786C161.3 22.1348 162.2 20.9911 162.906 19.819C163.031 19.5931 163.225 19.3954 163.502 19.2401C163.779 19.0848 164.083 19.0142 164.388 19.0142H165.856C166.521 19.0142 167.033 19.3248 167.421 19.932C169.235 22.6855 171.479 24.7754 174.179 26.2298C174.913 26.5546 175.357 26.9076 175.495 27.3171C175.647 27.7407 175.495 28.2773 175.038 28.9127C174.706 29.407 174.346 29.6753 173.958 29.7459C173.584 29.8024 173.127 29.6894 172.601 29.3929C172.033 29.0398 171.41 28.6303 170.745 28.1502V39.2914C170.745 40.4493 170.177 41.0142 169.055 41.0142L169.069 41Z" fill="white"/>
<path d="M182.004 41.0001C181.049 41.0001 180.578 40.52 180.578 39.5739V34.2645C180.412 35.7048 180.176 36.9898 179.858 38.1194C179.691 38.5995 179.484 38.882 179.234 38.9667C178.985 39.0655 178.625 38.9949 178.154 38.7549C177.711 38.5431 177.448 38.303 177.323 38.0347C177.212 37.7805 177.226 37.4134 177.379 36.9757C177.572 36.2555 177.739 35.4083 177.849 34.4622C177.891 33.968 178.071 33.6008 178.376 33.3608C178.68 33.1207 179.068 33.036 179.525 33.1207L180.564 33.3043V31.8357L178.874 31.9487C177.933 32.0193 177.42 31.5816 177.337 30.6355C177.24 29.647 177.697 29.1387 178.667 29.0963H178.888C179.165 28.7433 179.428 28.3762 179.705 27.9949C179.304 27.3595 178.736 26.6393 178.016 25.8062C177.766 25.5521 177.669 25.1426 177.766 24.5777C177.836 24.1117 178.002 23.6881 178.265 23.3069C178.376 23.1515 178.5 23.0386 178.653 22.9538C178.833 22.855 178.985 22.8691 179.11 22.9821L179.137 23.0103C179.484 22.2619 179.816 21.4288 180.135 20.5392C180.301 20.0309 180.536 19.7061 180.827 19.5649C181.118 19.4237 181.506 19.4519 181.99 19.6355C182.946 20.0026 183.154 20.6945 182.627 21.7112C181.907 23.1092 181.326 24.1541 180.91 24.846C181.049 25.0013 181.201 25.199 181.367 25.425C181.907 24.493 182.337 23.7164 182.627 23.1233C182.835 22.6997 183.084 22.4173 183.375 22.3184C183.666 22.2055 184.026 22.2619 184.455 22.4737C184.94 22.6997 185.217 22.9821 185.3 23.2927C185.383 23.6034 185.273 23.9847 184.968 24.4365C184.359 25.3685 183.708 26.3287 183.001 27.3171L183.929 26.9218C184.165 26.8088 184.4 26.7947 184.622 26.8794C184.843 26.95 185.009 27.1053 185.134 27.3454C185.176 27.416 185.245 27.5431 185.328 27.7266C185.411 27.8961 185.466 28.0373 185.494 28.1361C186.685 27.5854 187.572 26.8653 188.167 25.9616C188.638 25.2414 188.956 24.3094 189.123 23.1657H187.918C186.921 23.1657 186.422 22.6432 186.422 21.6265C186.422 20.6098 186.921 20.1015 187.918 20.1015H196.601C197.086 20.1015 197.432 20.285 197.64 20.6522C197.889 21.0758 198.014 21.796 198 22.7985C197.945 24.8037 197.861 26.2157 197.751 27.063C197.64 27.9667 197.474 28.5739 197.224 28.8845C196.795 29.4494 196.186 29.8024 195.396 29.9153C195.092 29.9718 194.662 30.0142 194.081 30.0142C193.596 30.0283 193.208 29.9153 192.903 29.6753C192.599 29.4352 192.419 29.1105 192.336 28.701C192.336 28.6586 192.336 28.6021 192.308 28.5315C192.28 28.4609 192.266 28.4185 192.253 28.3762C192.059 27.9243 192.045 27.5854 192.225 27.3454C192.405 27.1053 192.765 27.0065 193.305 27.0347H193.831C194.164 27.0347 194.413 26.95 194.579 26.7806C194.773 26.5405 194.898 25.6509 194.967 24.1259C194.981 23.7587 194.953 23.4904 194.884 23.3492C194.815 23.2221 194.676 23.1657 194.482 23.1657H192.336C192.128 24.6201 191.782 25.8345 191.325 26.7806C190.771 27.9667 189.954 28.9551 188.901 29.7318C188.389 30.0424 187.932 30.1554 187.516 30.0848C187.128 30.0283 186.81 29.7883 186.588 29.3929C186.2 28.8422 185.84 28.4185 185.508 28.1503C185.923 29.1246 186.242 29.9577 186.464 30.692C186.602 31.2709 186.284 31.751 185.508 32.1182C185.203 32.2594 184.94 32.2876 184.691 32.2029C184.414 32.1323 184.248 31.9346 184.192 31.6239C184.178 31.6098 184.165 31.5957 184.165 31.5816L183.417 31.6239V33.2902L184.428 32.9513C184.705 32.8524 184.94 32.8666 185.162 32.9513C185.383 33.0501 185.536 33.2337 185.647 33.4879C185.979 34.3916 186.228 35.1682 186.394 35.7895C186.602 36.4814 186.339 36.9616 185.605 37.244C184.746 37.5687 184.206 37.3004 183.998 36.4673C183.902 36.1284 183.749 35.5777 183.528 34.8293C183.486 34.6599 183.444 34.5328 183.417 34.4622V39.5598C183.417 40.5058 182.946 40.9859 182.018 40.9859L182.004 41.0001ZM181.755 29.0116L183.264 28.941C183.223 28.8422 183.154 28.7151 183.084 28.5315C182.918 28.1503 182.794 27.8678 182.724 27.6984C182.627 27.8255 182.503 28.009 182.323 28.2491C182.281 28.2915 182.253 28.3338 182.226 28.3621C182.115 28.5174 181.963 28.7292 181.755 29.0116ZM188.638 40.0681C188.195 40.0681 187.849 39.9269 187.572 39.6586C187.295 39.3762 187.17 39.0232 187.17 38.5713V32.5135C187.17 32.0617 187.308 31.7087 187.572 31.4263C187.849 31.1438 188.195 31.0168 188.638 31.0168H196.172C196.615 31.0168 196.961 31.158 197.238 31.4263C197.515 31.7087 197.64 32.0617 197.64 32.5135V38.5713C197.64 39.0232 197.501 39.3762 197.238 39.6586C196.961 39.941 196.615 40.0681 196.172 40.0681H188.638ZM190.688 37.1451H193.942C194.302 37.1451 194.482 36.9616 194.482 36.5944V34.4904C194.482 34.1233 194.302 33.9397 193.942 33.9397H190.688C190.328 33.9397 190.147 34.1233 190.147 34.4904V36.5944C190.147 36.9616 190.328 37.1451 190.688 37.1451Z" fill="white"/>
</g>
<defs>
<clipPath id="clip0_107_81262">
<rect width="179" height="22" fill="white" transform="translate(19 19)"/>
</clipPath>
</defs>
</svg>
