<svg width="218" height="60" viewBox="0 0 218 60" fill="none" xmlns="http://www.w3.org/2000/svg">
<path d="M193.903 0H24.0966C10.7884 0 0 11.0999 0 24.7922V35.2078C0 48.9001 10.7884 60 24.0966 60H193.903C207.212 60 218 48.9001 218 35.2078V24.7922C218 11.0999 207.212 0 193.903 0Z" fill="#FF671D"/>
<path d="M24.0967 1H193.903C206.632 1 217 11.625 217 24.792V35.208C217 48.375 206.632 59 193.903 59H24.0967C11.3675 59 1.00013 48.375 1 35.208V24.792L1.00781 24.1768C1.32489 11.2956 11.5664 1 24.0967 1Z" stroke="#DC501B" stroke-width="2" stroke-miterlimit="10"/>
<mask id="path-3-outside-1_139_1892" maskUnits="userSpaceOnUse" x="31" y="11" width="156" height="39" fill="black">
<rect fill="white" x="31" y="11" width="156" height="39"/>
<path d="M73.4909 27.3183C73.1944 27.3183 72.9333 27.2341 72.7074 27.0655C72.4957 26.8969 72.3333 26.6581 72.2204 26.3491L68.0703 13.6646C68.0279 13.496 68.0067 13.3626 68.0067 13.2642C68.0067 13.0114 68.0985 12.8007 68.282 12.6321C68.4655 12.4495 68.6914 12.3582 68.9596 12.3582C69.1854 12.3582 69.3831 12.4284 69.5525 12.5689C69.736 12.7094 69.863 12.899 69.9336 13.1378L73.3215 24.1999C73.3638 24.3123 73.4132 24.3685 73.4697 24.3685C73.5261 24.3685 73.5756 24.3123 73.6179 24.1999L77.0269 13.18C77.0975 12.9271 77.2387 12.7304 77.4504 12.59C77.6622 12.4355 77.8951 12.3582 78.1492 12.3582C78.4033 12.3582 78.6362 12.4355 78.8479 12.59C79.0597 12.7304 79.2008 12.9271 79.2714 13.18L82.6805 24.1999C82.7228 24.3123 82.7722 24.3685 82.8287 24.3685C82.8851 24.3685 82.9346 24.3123 82.9769 24.1999L86.3648 13.1378C86.4354 12.899 86.5553 12.7094 86.7247 12.5689C86.9082 12.4284 87.1129 12.3582 87.3388 12.3582C87.607 12.3582 87.8329 12.4495 88.0164 12.6321C88.1999 12.8007 88.2916 13.0114 88.2916 13.2642C88.2916 13.3626 88.2705 13.496 88.2281 13.6646L84.078 26.3491C83.965 26.6581 83.7956 26.8969 83.5698 27.0655C83.358 27.2341 83.1039 27.3183 82.8075 27.3183C82.5111 27.3183 82.2429 27.227 82.0029 27.0444C81.777 26.8618 81.6218 26.63 81.5371 26.3491L78.2974 16.1509C78.2551 16.0385 78.2056 15.9823 78.1492 15.9823C78.0927 15.9823 78.0433 16.0385 78.001 16.1509L74.7613 26.3491C74.6766 26.63 74.5143 26.8618 74.2743 27.0444C74.0484 27.227 73.7873 27.3183 73.4909 27.3183Z"/>
<path d="M91.256 27.3183C90.9878 27.3183 90.7549 27.227 90.5573 27.0444C90.3738 26.8478 90.282 26.616 90.282 26.3491V17.3098C90.282 17.0429 90.3738 16.8111 90.5573 16.6145C90.7549 16.4178 90.9878 16.3195 91.256 16.3195C91.5383 16.3195 91.7713 16.4178 91.9548 16.6145C92.1524 16.7971 92.2512 17.0289 92.2512 17.3098V26.3491C92.2512 26.616 92.1524 26.8478 91.9548 27.0444C91.7571 27.227 91.5242 27.3183 91.256 27.3183ZM91.2137 14.2756C90.9172 14.2756 90.6561 14.1703 90.4302 13.9596C90.2185 13.7348 90.1126 13.4749 90.1126 13.18V13.0957C90.1126 12.8007 90.2185 12.5478 90.4302 12.3371C90.6561 12.1124 90.9172 12 91.2137 12H91.3407C91.6372 12 91.8912 12.1124 92.103 12.3371C92.3288 12.5478 92.4418 12.8007 92.4418 13.0957V13.18C92.4418 13.4749 92.3288 13.7348 92.103 13.9596C91.8912 14.1703 91.6372 14.2756 91.3407 14.2756H91.2137Z"/>
<path d="M96.5284 27.3183C96.2602 27.3183 96.0273 27.227 95.8296 27.0444C95.6461 26.8478 95.5544 26.616 95.5544 26.3491V17.3098C95.5544 17.0429 95.6461 16.8111 95.8296 16.6145C96.0273 16.4178 96.2602 16.3195 96.5284 16.3195C96.7966 16.3195 97.0295 16.4178 97.2271 16.6145C97.4248 16.8111 97.5236 17.0429 97.5236 17.3098V18.1105C98.1023 17.4924 98.7023 17.0218 99.3234 16.6987C99.9445 16.3757 100.65 16.2141 101.441 16.2141C102.217 16.2141 102.902 16.3967 103.495 16.762C104.059 17.1272 104.49 17.6259 104.786 18.258C105.097 18.8901 105.252 19.5924 105.252 20.365V26.3491C105.252 26.616 105.153 26.8478 104.956 27.0444C104.758 27.227 104.525 27.3183 104.257 27.3183C103.989 27.3183 103.756 27.227 103.558 27.0444C103.375 26.8478 103.283 26.616 103.283 26.3491V20.5757C103.283 18.876 102.514 18.0262 100.975 18.0262C100.297 18.0262 99.6833 18.1948 99.1328 18.5319C98.5964 18.869 98.06 19.3677 97.5236 20.0279V26.3491C97.5236 26.616 97.4248 26.8478 97.2271 27.0444C97.0295 27.227 96.7966 27.3183 96.5284 27.3183Z"/>
<path d="M109.423 27.3183C109.155 27.3183 108.922 27.227 108.725 27.0444C108.541 26.8478 108.449 26.616 108.449 26.3491V17.3098C108.449 17.0429 108.541 16.8111 108.725 16.6145C108.922 16.4178 109.155 16.3195 109.423 16.3195C109.692 16.3195 109.925 16.4178 110.122 16.6145C110.32 16.8111 110.419 17.0429 110.419 17.3098V18.1105C110.997 17.4924 111.597 17.0218 112.218 16.6987C112.84 16.3757 113.545 16.2141 114.336 16.2141C115.112 16.2141 115.797 16.3967 116.39 16.762C116.954 17.1272 117.385 17.6259 117.681 18.258C117.992 18.8901 118.147 19.5924 118.147 20.365V26.3491C118.147 26.616 118.048 26.8478 117.851 27.0444C117.653 27.227 117.42 27.3183 117.152 27.3183C116.884 27.3183 116.651 27.227 116.453 27.0444C116.27 26.8478 116.178 26.616 116.178 26.3491V20.5757C116.178 18.876 115.409 18.0262 113.87 18.0262C113.192 18.0262 112.578 18.1948 112.028 18.5319C111.491 18.869 110.955 19.3677 110.419 20.0279V26.3491C110.419 26.616 110.32 26.8478 110.122 27.0444C109.925 27.227 109.692 27.3183 109.423 27.3183Z"/>
<path d="M126.193 27.4237C124.457 27.4237 123.102 26.932 122.128 25.9487C121.168 24.9655 120.688 23.5888 120.688 21.8189C120.688 20.8637 120.872 19.9436 121.239 19.0587C121.62 18.1737 122.199 17.4784 122.975 16.9727C123.751 16.467 124.683 16.2141 125.77 16.2141C126.815 16.2141 127.725 16.4529 128.501 16.9305C129.235 17.4081 129.807 18.0543 130.217 18.869C130.626 19.6697 130.831 20.5617 130.831 21.545C130.831 21.8119 130.739 22.0437 130.555 22.2403C130.372 22.4229 130.132 22.5142 129.835 22.5142H122.679C122.806 23.5116 123.18 24.2771 123.801 24.8109C124.436 25.3307 125.29 25.5905 126.363 25.5905C126.927 25.5905 127.429 25.5414 127.866 25.4431C128.318 25.3307 128.77 25.1621 129.221 24.9374C129.32 24.8812 129.447 24.8531 129.603 24.8531C129.828 24.8531 130.026 24.9374 130.195 25.1059C130.379 25.2604 130.471 25.4571 130.471 25.6959C130.471 26.019 130.28 26.2859 129.899 26.4966C129.306 26.8197 128.741 27.0514 128.205 27.1919C127.669 27.3464 126.998 27.4237 126.193 27.4237ZM128.607 20.9129C128.791 20.9129 128.876 20.8216 128.861 20.639C128.805 20.0771 128.636 19.6065 128.353 19.2272C128.043 18.7777 127.654 18.4406 127.189 18.2158C126.737 17.9911 126.264 17.8787 125.77 17.8787C125.318 17.8787 124.845 17.9841 124.351 18.1948C123.857 18.4336 123.462 18.7918 123.166 19.2694C122.883 19.7329 122.721 20.2808 122.679 20.9129H128.607Z"/>
<path d="M134.303 27.3183C134.035 27.3183 133.802 27.227 133.604 27.0444C133.421 26.8478 133.329 26.616 133.329 26.3491V17.3098C133.329 17.0429 133.421 16.8111 133.604 16.6145C133.802 16.4178 134.035 16.3195 134.303 16.3195C134.571 16.3195 134.804 16.4178 135.002 16.6145C135.2 16.8111 135.298 17.0429 135.298 17.3098V18.1526C136.272 16.8603 137.373 16.2141 138.602 16.2141H138.707C138.976 16.2141 139.201 16.3125 139.385 16.5091C139.568 16.6917 139.66 16.9165 139.66 17.1834C139.66 17.4503 139.561 17.675 139.364 17.8576C139.18 18.0262 138.947 18.1105 138.665 18.1105H138.559C137.896 18.1105 137.282 18.272 136.717 18.5951C136.167 18.9041 135.694 19.3536 135.298 19.9436V26.3491C135.298 26.616 135.2 26.8478 135.002 27.0444C134.804 27.227 134.571 27.3183 134.303 27.3183Z"/>
<path d="M144.954 27.4237C143.556 27.4237 142.265 27.1076 141.079 26.4755C140.839 26.3069 140.719 26.0681 140.719 25.7591C140.719 25.5344 140.797 25.3377 140.952 25.1691C141.121 24.9865 141.326 24.8952 141.566 24.8952C141.707 24.8952 141.834 24.9233 141.947 24.9795C142.427 25.1902 142.893 25.3517 143.345 25.4641C143.796 25.5625 144.29 25.6116 144.827 25.6116C146.38 25.6116 147.156 25.12 147.156 24.1367C147.156 23.8276 146.987 23.5888 146.648 23.4203C146.295 23.2517 145.702 23.0621 144.869 22.8514C144.05 22.6688 143.366 22.4651 142.815 22.2403C142.208 22.0156 141.721 21.6784 141.354 21.2289C140.987 20.7794 140.804 20.2246 140.804 19.5644C140.804 18.567 141.171 17.7593 141.905 17.1412C142.639 16.5232 143.655 16.2141 144.954 16.2141C146.083 16.2141 147.107 16.3897 148.024 16.7409C148.222 16.7971 148.377 16.9024 148.49 17.0569C148.603 17.2115 148.659 17.38 148.659 17.5626C148.659 17.7874 148.575 17.9911 148.405 18.1737C148.236 18.3423 148.031 18.4265 147.791 18.4265L147.516 18.3844C146.669 18.1315 145.864 18.0051 145.102 18.0051C144.368 18.0051 143.782 18.1386 143.345 18.4055C142.907 18.6724 142.688 19.0235 142.688 19.459C142.688 19.8664 142.879 20.1684 143.26 20.365C143.669 20.5476 144.283 20.7373 145.102 20.9339C145.864 21.1306 146.542 21.3343 147.135 21.545C147.714 21.7697 148.179 22.1139 148.532 22.5774C148.885 23.027 149.062 23.5959 149.062 24.2842C149.062 25.1972 148.695 25.9487 147.961 26.5387C147.226 27.1287 146.224 27.4237 144.954 27.4237Z"/>
<path d="M32.974 48.8946C32.6917 48.8946 32.4588 48.8033 32.2753 48.6207C32.0918 48.4241 32 48.1923 32 47.9254C32 47.8271 32.0353 47.6866 32.1059 47.504L37.5053 34.8195C37.6323 34.5385 37.8017 34.3208 38.0135 34.1663C38.2252 34.0118 38.4722 33.9345 38.7546 33.9345H38.9663C39.2486 33.9345 39.4957 34.0118 39.7074 34.1663C39.9192 34.3208 40.0885 34.5385 40.2156 34.8195L45.615 47.504C45.6856 47.6866 45.7209 47.8271 45.7209 47.9254C45.7209 48.1923 45.6291 48.4241 45.4456 48.6207C45.2621 48.8033 45.0292 48.8946 44.7469 48.8946C44.5351 48.8946 44.3446 48.8455 44.1752 48.7472C44.0199 48.6348 43.8999 48.4803 43.8152 48.2836L42.4389 45.0177H35.282L33.9057 48.2836C33.821 48.4803 33.6939 48.6348 33.5245 48.7472C33.3693 48.8455 33.1858 48.8946 32.974 48.8946ZM41.6978 43.2267L39.0298 36.8423C38.9875 36.7439 38.931 36.6948 38.8604 36.6948C38.7899 36.6948 38.7334 36.7439 38.691 36.8423L36.0231 43.2267H41.6978Z"/>
<path d="M49.257 48.8946C48.9888 48.8946 48.7559 48.8033 48.5582 48.6207C48.3747 48.4241 48.283 48.1923 48.283 47.9254V38.8861C48.283 38.6192 48.3747 38.3874 48.5582 38.1908C48.7559 37.9941 48.9888 37.8958 49.257 37.8958C49.5252 37.8958 49.7581 37.9941 49.9557 38.1908C50.1534 38.3874 50.2522 38.6192 50.2522 38.8861V39.6868C50.8309 39.0687 51.4309 38.5981 52.052 38.2751C52.6731 37.952 53.3789 37.7904 54.1694 37.7904C54.9458 37.7904 55.6304 37.973 56.2233 38.3383C56.7879 38.7035 57.2185 39.2022 57.5149 39.8343C57.8255 40.4664 57.9808 41.1688 57.9808 41.9413V47.9254C57.9808 48.1923 57.8819 48.4241 57.6843 48.6207C57.4867 48.8033 57.2538 48.8946 56.9856 48.8946C56.7174 48.8946 56.4844 48.8033 56.2868 48.6207C56.1033 48.4241 56.0115 48.1923 56.0115 47.9254V42.1521C56.0115 40.4524 55.2422 39.6025 53.7036 39.6025C53.026 39.6025 52.4119 39.7711 51.8614 40.1082C51.325 40.4453 50.7886 40.944 50.2522 41.6042V47.9254C50.2522 48.1923 50.1534 48.4241 49.9557 48.6207C49.7581 48.8033 49.5252 48.8946 49.257 48.8946Z"/>
<path d="M62.1521 48.8946C61.8839 48.8946 61.6509 48.8033 61.4533 48.6207C61.2698 48.4241 61.1781 48.1923 61.1781 47.9254V38.8861C61.1781 38.6192 61.2698 38.3874 61.4533 38.1908C61.6509 37.9941 61.8839 37.8958 62.1521 37.8958C62.4203 37.8958 62.6532 37.9941 62.8508 38.1908C63.0484 38.3874 63.1473 38.6192 63.1473 38.8861V39.6868C63.726 39.0687 64.326 38.5981 64.9471 38.2751C65.5682 37.952 66.274 37.7904 67.0645 37.7904C67.8409 37.7904 68.5255 37.973 69.1184 38.3383C69.683 38.7035 70.1136 39.2022 70.41 39.8343C70.7206 40.4664 70.8758 41.1688 70.8758 41.9413V47.9254C70.8758 48.1923 70.777 48.4241 70.5794 48.6207C70.3818 48.8033 70.1489 48.8946 69.8807 48.8946C69.6124 48.8946 69.3795 48.8033 69.1819 48.6207C68.9984 48.4241 68.9066 48.1923 68.9066 47.9254V42.1521C68.9066 40.4524 68.1373 39.6025 66.5987 39.6025C65.9211 39.6025 65.307 39.7711 64.7565 40.1082C64.2201 40.4453 63.6837 40.944 63.1473 41.6042V47.9254C63.1473 48.1923 63.0484 48.4241 62.8508 48.6207C62.6532 48.8033 62.4203 48.8946 62.1521 48.8946Z"/>
<path d="M78.8585 49C77.7857 49 76.8329 48.7682 76 48.3047C75.1813 47.8271 74.546 47.1598 74.0943 46.303C73.6426 45.4461 73.4167 44.4768 73.4167 43.3952C73.4167 42.2995 73.6426 41.3233 74.0943 40.4664C74.546 39.6095 75.1813 38.9493 76 38.4858C76.8329 38.0222 77.7857 37.7904 78.8585 37.7904C79.9313 37.7904 80.8771 38.0222 81.6959 38.4858C82.5287 38.9634 83.171 39.6306 83.6227 40.4875C84.0744 41.3303 84.3003 42.2995 84.3003 43.3952C84.3003 44.4909 84.0744 45.4601 83.6227 46.303C83.1569 47.1739 82.5075 47.8411 81.6747 48.3047C80.856 48.7682 79.9172 49 78.8585 49ZM78.8585 47.209C79.4373 47.209 79.9949 47.0756 80.5313 46.8087C81.0818 46.5277 81.5194 46.0993 81.8441 45.5233C82.1688 44.9334 82.3311 44.217 82.3311 43.3741C82.3311 42.4892 82.1617 41.7728 81.8229 41.2249C81.5124 40.6912 81.0959 40.2838 80.5736 40.0028C80.0654 39.7219 79.4937 39.5814 78.8585 39.5814C78.2798 39.5814 77.7222 39.7079 77.1858 39.9607C76.6352 40.2416 76.1976 40.6701 75.873 41.246C75.5483 41.8219 75.3859 42.5313 75.3859 43.3741C75.3859 44.2732 75.5553 44.9966 75.8941 45.5444C76.2047 46.0923 76.6141 46.5066 77.1222 46.7876C77.6445 47.0685 78.2233 47.209 78.8585 47.209Z"/>
<path d="M90.6526 49C89.8903 49 89.2127 48.8174 88.6198 48.4522C88.0552 48.0869 87.6176 47.5883 87.307 46.9562C86.9965 46.324 86.8412 45.6217 86.8412 44.8491V38.865C86.8412 38.5981 86.94 38.3734 87.1376 38.1908C87.3353 37.9941 87.5682 37.8958 87.8364 37.8958C88.1046 37.8958 88.3304 37.9941 88.514 38.1908C88.7116 38.3734 88.8104 38.5981 88.8104 38.865V44.6384C88.8104 46.3381 89.5797 47.1879 91.1184 47.1879C91.796 47.1879 92.403 47.0194 92.9394 46.6822C93.4899 46.3451 94.0334 45.8464 94.5698 45.1862V38.865C94.5698 38.5981 94.6686 38.3734 94.8662 38.1908C95.0638 37.9941 95.2968 37.8958 95.565 37.8958C95.8332 37.8958 96.059 37.9941 96.2425 38.1908C96.4402 38.3734 96.539 38.5981 96.539 38.865V47.9043C96.539 48.1712 96.4402 48.403 96.2425 48.5997C96.059 48.7963 95.8332 48.8946 95.565 48.8946C95.2968 48.8946 95.0638 48.7963 94.8662 48.5997C94.6686 48.403 94.5698 48.1712 94.5698 47.9043V47.1036C93.991 47.7217 93.3911 48.1923 92.77 48.5154C92.1489 48.8385 91.4431 49 90.6526 49Z"/>
<path d="M100.816 48.8946C100.548 48.8946 100.315 48.8033 100.117 48.6207C99.9339 48.4241 99.8422 48.1923 99.8422 47.9254V38.8861C99.8422 38.6192 99.9339 38.3874 100.117 38.1908C100.315 37.9941 100.548 37.8958 100.816 37.8958C101.084 37.8958 101.317 37.9941 101.515 38.1908C101.713 38.3874 101.811 38.6192 101.811 38.8861V39.6868C102.39 39.0687 102.99 38.5981 103.611 38.2751C104.232 37.952 104.938 37.7904 105.729 37.7904C106.505 37.7904 107.19 37.973 107.782 38.3383C108.347 38.7035 108.778 39.2022 109.074 39.8343C109.385 40.4664 109.54 41.1688 109.54 41.9413V47.9254C109.54 48.1923 109.441 48.4241 109.244 48.6207C109.046 48.8033 108.813 48.8946 108.545 48.8946C108.277 48.8946 108.044 48.8033 107.846 48.6207C107.662 48.4241 107.571 48.1923 107.571 47.9254V42.1521C107.571 40.4524 106.801 39.6025 105.263 39.6025C104.585 39.6025 103.971 39.7711 103.421 40.1082C102.884 40.4453 102.348 40.944 101.811 41.6042V47.9254C101.811 48.1923 101.713 48.4241 101.515 48.6207C101.317 48.8033 101.084 48.8946 100.816 48.8946Z"/>
<path d="M117.756 49C116.753 49 115.815 48.7752 114.939 48.3257C114.05 47.8622 113.351 47.202 112.843 46.3451C112.335 45.4882 112.081 44.5049 112.081 43.3952C112.081 42.2574 112.342 41.2601 112.864 40.4032C113.372 39.5744 114.05 38.9353 114.897 38.4858C115.758 38.0222 116.711 37.7904 117.756 37.7904C118.461 37.7904 119.082 37.8817 119.619 38.0644C120.155 38.2329 120.692 38.4787 121.228 38.8018C121.51 38.9985 121.652 39.2513 121.652 39.5604C121.652 39.7711 121.567 39.9677 121.397 40.1503C121.228 40.333 121.038 40.4243 120.826 40.4243C120.685 40.4243 120.529 40.3821 120.36 40.2978C119.866 40.045 119.457 39.8694 119.132 39.7711C118.807 39.6727 118.405 39.6236 117.925 39.6236C116.739 39.6236 115.793 39.9677 115.088 40.656C114.396 41.3303 114.05 42.2434 114.05 43.3952C114.05 44.5471 114.396 45.4672 115.088 46.1555C115.793 46.8297 116.739 47.1669 117.925 47.1669C118.405 47.1669 118.807 47.1177 119.132 47.0194C119.457 46.921 119.866 46.7454 120.36 46.4926C120.529 46.4083 120.685 46.3662 120.826 46.3662C121.038 46.3662 121.228 46.4575 121.397 46.6401C121.567 46.8227 121.652 47.0194 121.652 47.2301C121.652 47.5391 121.51 47.792 121.228 47.9886C120.692 48.3117 120.155 48.5645 119.619 48.7472C119.082 48.9157 118.461 49 117.756 49Z"/>
<path d="M128.787 49C127.051 49 125.696 48.5084 124.722 47.5251C123.762 46.5418 123.282 45.1651 123.282 43.3952C123.282 42.44 123.466 41.5199 123.833 40.635C124.214 39.75 124.792 39.0547 125.569 38.549C126.345 38.0433 127.277 37.7904 128.364 37.7904C129.408 37.7904 130.319 38.0292 131.095 38.5068C131.829 38.9844 132.401 39.6306 132.81 40.4453C133.22 41.246 133.424 42.138 133.424 43.1213C133.424 43.3882 133.333 43.62 133.149 43.8166C132.966 43.9992 132.726 44.0905 132.429 44.0905H125.272C125.399 45.0879 125.774 45.8535 126.395 46.3872C127.03 46.907 127.884 47.1669 128.957 47.1669C129.521 47.1669 130.022 47.1177 130.46 47.0194C130.912 46.907 131.363 46.7384 131.815 46.5137C131.914 46.4575 132.041 46.4294 132.196 46.4294C132.422 46.4294 132.62 46.5137 132.789 46.6822C132.973 46.8368 133.064 47.0334 133.064 47.2722C133.064 47.5953 132.874 47.8622 132.493 48.0729C131.9 48.396 131.335 48.6278 130.799 48.7682C130.262 48.9227 129.592 49 128.787 49ZM131.201 42.4892C131.385 42.4892 131.469 42.3979 131.455 42.2153C131.399 41.6534 131.229 41.1828 130.947 40.8035C130.637 40.354 130.248 40.0169 129.782 39.7921C129.331 39.5674 128.858 39.455 128.364 39.455C127.912 39.455 127.439 39.5604 126.945 39.7711C126.451 40.0099 126.056 40.3681 125.759 40.8457C125.477 41.3092 125.315 41.8571 125.272 42.4892H131.201Z"/>
<path d="M136.897 48.8946C136.629 48.8946 136.396 48.8033 136.198 48.6207C136.015 48.4241 135.923 48.1923 135.923 47.9254V38.8861C135.923 38.6192 136.015 38.3874 136.198 38.1908C136.396 37.9941 136.629 37.8958 136.897 37.8958C137.165 37.8958 137.398 37.9941 137.596 38.1908C137.793 38.3874 137.892 38.6192 137.892 38.8861V39.75L137.85 39.7289C138.287 39.1109 138.789 38.6333 139.353 38.2961C139.932 37.959 140.638 37.7904 141.471 37.7904C142.233 37.7904 142.896 37.9941 143.461 38.4015C144.04 38.7948 144.456 39.3075 144.71 39.9396C145.585 38.5068 146.884 37.7904 148.606 37.7904C149.425 37.7904 150.096 37.9871 150.618 38.3804C151.126 38.7597 151.507 39.2584 151.761 39.8764C152.03 40.4945 152.164 41.1547 152.164 41.8571V47.9254C152.164 48.1923 152.065 48.4241 151.867 48.6207C151.67 48.8033 151.437 48.8946 151.168 48.8946C150.9 48.8946 150.667 48.8033 150.47 48.6207C150.286 48.4241 150.194 48.1923 150.194 47.9254V42.2363C150.194 41.2952 150.025 40.6209 149.686 40.2136C149.362 39.8062 148.818 39.6025 148.056 39.6025C147.378 39.6025 146.807 39.7781 146.341 40.1293C145.875 40.4664 145.437 40.958 145.028 41.6042V47.9254C145.028 48.1923 144.929 48.4241 144.731 48.6207C144.534 48.8033 144.301 48.8946 144.033 48.8946C143.765 48.8946 143.532 48.8033 143.334 48.6207C143.15 48.4241 143.059 48.1923 143.059 47.9254V42.2363C143.059 41.2952 142.889 40.6209 142.551 40.2136C142.226 39.8062 141.682 39.6025 140.92 39.6025C140.243 39.6025 139.671 39.7781 139.205 40.1293C138.739 40.4664 138.302 40.958 137.892 41.6042V47.9254C137.892 48.1923 137.793 48.4241 137.596 48.6207C137.398 48.8033 137.165 48.8946 136.897 48.8946Z"/>
<path d="M160.21 49C158.474 49 157.118 48.5084 156.144 47.5251C155.184 46.5418 154.705 45.1651 154.705 43.3952C154.705 42.44 154.888 41.5199 155.255 40.635C155.636 39.75 156.215 39.0547 156.991 38.549C157.768 38.0433 158.699 37.7904 159.786 37.7904C160.831 37.7904 161.741 38.0292 162.518 38.5068C163.252 38.9844 163.824 39.6306 164.233 40.4453C164.642 41.246 164.847 42.138 164.847 43.1213C164.847 43.3882 164.755 43.62 164.572 43.8166C164.388 43.9992 164.148 44.0905 163.852 44.0905H156.695C156.822 45.0879 157.196 45.8535 157.817 46.3872C158.452 46.907 159.306 47.1669 160.379 47.1669C160.944 47.1669 161.445 47.1177 161.883 47.0194C162.334 46.907 162.786 46.7384 163.238 46.5137C163.337 46.4575 163.464 46.4294 163.619 46.4294C163.845 46.4294 164.042 46.5137 164.212 46.6822C164.395 46.8368 164.487 47.0334 164.487 47.2722C164.487 47.5953 164.296 47.8622 163.915 48.0729C163.322 48.396 162.758 48.6278 162.221 48.7682C161.685 48.9227 161.014 49 160.21 49ZM162.624 42.4892C162.807 42.4892 162.892 42.3979 162.878 42.2153C162.821 41.6534 162.652 41.1828 162.37 40.8035C162.059 40.354 161.671 40.0169 161.205 39.7921C160.753 39.5674 160.28 39.455 159.786 39.455C159.335 39.455 158.862 39.5604 158.368 39.7711C157.874 40.0099 157.478 40.3681 157.182 40.8457C156.9 41.3092 156.737 41.8571 156.695 42.4892H162.624Z"/>
<path d="M168.32 48.8946C168.051 48.8946 167.818 48.8033 167.621 48.6207C167.437 48.4241 167.346 48.1923 167.346 47.9254V38.8861C167.346 38.6192 167.437 38.3874 167.621 38.1908C167.818 37.9941 168.051 37.8958 168.32 37.8958C168.588 37.8958 168.821 37.9941 169.018 38.1908C169.216 38.3874 169.315 38.6192 169.315 38.8861V39.6868C169.893 39.0687 170.493 38.5981 171.115 38.2751C171.736 37.952 172.441 37.7904 173.232 37.7904C174.008 37.7904 174.693 37.973 175.286 38.3383C175.85 38.7035 176.281 39.2022 176.577 39.8343C176.888 40.4664 177.043 41.1688 177.043 41.9413V47.9254C177.043 48.1923 176.944 48.4241 176.747 48.6207C176.549 48.8033 176.316 48.8946 176.048 48.8946C175.78 48.8946 175.547 48.8033 175.349 48.6207C175.166 48.4241 175.074 48.1923 175.074 47.9254V42.1521C175.074 40.4524 174.305 39.6025 172.766 39.6025C172.089 39.6025 171.474 39.7711 170.924 40.1082C170.388 40.4453 169.851 40.944 169.315 41.6042V47.9254C169.315 48.1923 169.216 48.4241 169.018 48.6207C168.821 48.8033 168.588 48.8946 168.32 48.8946Z"/>
<path d="M183.734 49C181.659 49 180.622 48.0659 180.622 46.1976V36.6105C180.622 36.2874 180.706 36.0416 180.876 35.873C181.059 35.7044 181.306 35.6202 181.617 35.6202C181.927 35.6202 182.167 35.7115 182.337 35.8941C182.506 36.0626 182.591 36.3014 182.591 36.6105V46.029C182.591 46.5207 182.704 46.8508 182.93 47.0194C183.156 47.1879 183.494 47.2722 183.946 47.2722C184.243 47.2722 184.525 47.2301 184.793 47.1458C184.821 47.1458 184.842 47.1388 184.857 47.1247C184.998 47.0966 185.118 47.0826 185.217 47.0826C185.428 47.0826 185.612 47.1598 185.767 47.3144C185.922 47.4689 186 47.6515 186 47.8622C186 48.1853 185.831 48.4381 185.492 48.6207C184.941 48.8736 184.355 49 183.734 49ZM179.563 39.7921C179.295 39.7921 179.083 39.7219 178.928 39.5814C178.787 39.4269 178.716 39.2162 178.716 38.9493C178.716 38.6824 178.787 38.4787 178.928 38.3383C179.083 38.1838 179.295 38.1065 179.563 38.1065H184.962C185.202 38.1065 185.4 38.1908 185.555 38.3593C185.725 38.5139 185.809 38.7105 185.809 38.9493C185.809 39.1741 185.725 39.3707 185.555 39.5393C185.4 39.7079 185.202 39.7921 184.962 39.7921H179.563Z"/>
</mask>
<path d="M73.4909 27.3183C73.1944 27.3183 72.9333 27.2341 72.7074 27.0655C72.4957 26.8969 72.3333 26.6581 72.2204 26.3491L68.0703 13.6646C68.0279 13.496 68.0067 13.3626 68.0067 13.2642C68.0067 13.0114 68.0985 12.8007 68.282 12.6321C68.4655 12.4495 68.6914 12.3582 68.9596 12.3582C69.1854 12.3582 69.3831 12.4284 69.5525 12.5689C69.736 12.7094 69.863 12.899 69.9336 13.1378L73.3215 24.1999C73.3638 24.3123 73.4132 24.3685 73.4697 24.3685C73.5261 24.3685 73.5756 24.3123 73.6179 24.1999L77.0269 13.18C77.0975 12.9271 77.2387 12.7304 77.4504 12.59C77.6622 12.4355 77.8951 12.3582 78.1492 12.3582C78.4033 12.3582 78.6362 12.4355 78.8479 12.59C79.0597 12.7304 79.2008 12.9271 79.2714 13.18L82.6805 24.1999C82.7228 24.3123 82.7722 24.3685 82.8287 24.3685C82.8851 24.3685 82.9346 24.3123 82.9769 24.1999L86.3648 13.1378C86.4354 12.899 86.5553 12.7094 86.7247 12.5689C86.9082 12.4284 87.1129 12.3582 87.3388 12.3582C87.607 12.3582 87.8329 12.4495 88.0164 12.6321C88.1999 12.8007 88.2916 13.0114 88.2916 13.2642C88.2916 13.3626 88.2705 13.496 88.2281 13.6646L84.078 26.3491C83.965 26.6581 83.7956 26.8969 83.5698 27.0655C83.358 27.2341 83.1039 27.3183 82.8075 27.3183C82.5111 27.3183 82.2429 27.227 82.0029 27.0444C81.777 26.8618 81.6218 26.63 81.5371 26.3491L78.2974 16.1509C78.2551 16.0385 78.2056 15.9823 78.1492 15.9823C78.0927 15.9823 78.0433 16.0385 78.001 16.1509L74.7613 26.3491C74.6766 26.63 74.5143 26.8618 74.2743 27.0444C74.0484 27.227 73.7873 27.3183 73.4909 27.3183Z" fill="white"/>
<path d="M91.256 27.3183C90.9878 27.3183 90.7549 27.227 90.5573 27.0444C90.3738 26.8478 90.282 26.616 90.282 26.3491V17.3098C90.282 17.0429 90.3738 16.8111 90.5573 16.6145C90.7549 16.4178 90.9878 16.3195 91.256 16.3195C91.5383 16.3195 91.7713 16.4178 91.9548 16.6145C92.1524 16.7971 92.2512 17.0289 92.2512 17.3098V26.3491C92.2512 26.616 92.1524 26.8478 91.9548 27.0444C91.7571 27.227 91.5242 27.3183 91.256 27.3183ZM91.2137 14.2756C90.9172 14.2756 90.6561 14.1703 90.4302 13.9596C90.2185 13.7348 90.1126 13.4749 90.1126 13.18V13.0957C90.1126 12.8007 90.2185 12.5478 90.4302 12.3371C90.6561 12.1124 90.9172 12 91.2137 12H91.3407C91.6372 12 91.8912 12.1124 92.103 12.3371C92.3288 12.5478 92.4418 12.8007 92.4418 13.0957V13.18C92.4418 13.4749 92.3288 13.7348 92.103 13.9596C91.8912 14.1703 91.6372 14.2756 91.3407 14.2756H91.2137Z" fill="white"/>
<path d="M96.5284 27.3183C96.2602 27.3183 96.0273 27.227 95.8296 27.0444C95.6461 26.8478 95.5544 26.616 95.5544 26.3491V17.3098C95.5544 17.0429 95.6461 16.8111 95.8296 16.6145C96.0273 16.4178 96.2602 16.3195 96.5284 16.3195C96.7966 16.3195 97.0295 16.4178 97.2271 16.6145C97.4248 16.8111 97.5236 17.0429 97.5236 17.3098V18.1105C98.1023 17.4924 98.7023 17.0218 99.3234 16.6987C99.9445 16.3757 100.65 16.2141 101.441 16.2141C102.217 16.2141 102.902 16.3967 103.495 16.762C104.059 17.1272 104.49 17.6259 104.786 18.258C105.097 18.8901 105.252 19.5924 105.252 20.365V26.3491C105.252 26.616 105.153 26.8478 104.956 27.0444C104.758 27.227 104.525 27.3183 104.257 27.3183C103.989 27.3183 103.756 27.227 103.558 27.0444C103.375 26.8478 103.283 26.616 103.283 26.3491V20.5757C103.283 18.876 102.514 18.0262 100.975 18.0262C100.297 18.0262 99.6833 18.1948 99.1328 18.5319C98.5964 18.869 98.06 19.3677 97.5236 20.0279V26.3491C97.5236 26.616 97.4248 26.8478 97.2271 27.0444C97.0295 27.227 96.7966 27.3183 96.5284 27.3183Z" fill="white"/>
<path d="M109.423 27.3183C109.155 27.3183 108.922 27.227 108.725 27.0444C108.541 26.8478 108.449 26.616 108.449 26.3491V17.3098C108.449 17.0429 108.541 16.8111 108.725 16.6145C108.922 16.4178 109.155 16.3195 109.423 16.3195C109.692 16.3195 109.925 16.4178 110.122 16.6145C110.32 16.8111 110.419 17.0429 110.419 17.3098V18.1105C110.997 17.4924 111.597 17.0218 112.218 16.6987C112.84 16.3757 113.545 16.2141 114.336 16.2141C115.112 16.2141 115.797 16.3967 116.39 16.762C116.954 17.1272 117.385 17.6259 117.681 18.258C117.992 18.8901 118.147 19.5924 118.147 20.365V26.3491C118.147 26.616 118.048 26.8478 117.851 27.0444C117.653 27.227 117.42 27.3183 117.152 27.3183C116.884 27.3183 116.651 27.227 116.453 27.0444C116.27 26.8478 116.178 26.616 116.178 26.3491V20.5757C116.178 18.876 115.409 18.0262 113.87 18.0262C113.192 18.0262 112.578 18.1948 112.028 18.5319C111.491 18.869 110.955 19.3677 110.419 20.0279V26.3491C110.419 26.616 110.32 26.8478 110.122 27.0444C109.925 27.227 109.692 27.3183 109.423 27.3183Z" fill="white"/>
<path d="M126.193 27.4237C124.457 27.4237 123.102 26.932 122.128 25.9487C121.168 24.9655 120.688 23.5888 120.688 21.8189C120.688 20.8637 120.872 19.9436 121.239 19.0587C121.62 18.1737 122.199 17.4784 122.975 16.9727C123.751 16.467 124.683 16.2141 125.77 16.2141C126.815 16.2141 127.725 16.4529 128.501 16.9305C129.235 17.4081 129.807 18.0543 130.217 18.869C130.626 19.6697 130.831 20.5617 130.831 21.545C130.831 21.8119 130.739 22.0437 130.555 22.2403C130.372 22.4229 130.132 22.5142 129.835 22.5142H122.679C122.806 23.5116 123.18 24.2771 123.801 24.8109C124.436 25.3307 125.29 25.5905 126.363 25.5905C126.927 25.5905 127.429 25.5414 127.866 25.4431C128.318 25.3307 128.77 25.1621 129.221 24.9374C129.32 24.8812 129.447 24.8531 129.603 24.8531C129.828 24.8531 130.026 24.9374 130.195 25.1059C130.379 25.2604 130.471 25.4571 130.471 25.6959C130.471 26.019 130.28 26.2859 129.899 26.4966C129.306 26.8197 128.741 27.0514 128.205 27.1919C127.669 27.3464 126.998 27.4237 126.193 27.4237ZM128.607 20.9129C128.791 20.9129 128.876 20.8216 128.861 20.639C128.805 20.0771 128.636 19.6065 128.353 19.2272C128.043 18.7777 127.654 18.4406 127.189 18.2158C126.737 17.9911 126.264 17.8787 125.77 17.8787C125.318 17.8787 124.845 17.9841 124.351 18.1948C123.857 18.4336 123.462 18.7918 123.166 19.2694C122.883 19.7329 122.721 20.2808 122.679 20.9129H128.607Z" fill="white"/>
<path d="M134.303 27.3183C134.035 27.3183 133.802 27.227 133.604 27.0444C133.421 26.8478 133.329 26.616 133.329 26.3491V17.3098C133.329 17.0429 133.421 16.8111 133.604 16.6145C133.802 16.4178 134.035 16.3195 134.303 16.3195C134.571 16.3195 134.804 16.4178 135.002 16.6145C135.2 16.8111 135.298 17.0429 135.298 17.3098V18.1526C136.272 16.8603 137.373 16.2141 138.602 16.2141H138.707C138.976 16.2141 139.201 16.3125 139.385 16.5091C139.568 16.6917 139.66 16.9165 139.66 17.1834C139.66 17.4503 139.561 17.675 139.364 17.8576C139.18 18.0262 138.947 18.1105 138.665 18.1105H138.559C137.896 18.1105 137.282 18.272 136.717 18.5951C136.167 18.9041 135.694 19.3536 135.298 19.9436V26.3491C135.298 26.616 135.2 26.8478 135.002 27.0444C134.804 27.227 134.571 27.3183 134.303 27.3183Z" fill="white"/>
<path d="M144.954 27.4237C143.556 27.4237 142.265 27.1076 141.079 26.4755C140.839 26.3069 140.719 26.0681 140.719 25.7591C140.719 25.5344 140.797 25.3377 140.952 25.1691C141.121 24.9865 141.326 24.8952 141.566 24.8952C141.707 24.8952 141.834 24.9233 141.947 24.9795C142.427 25.1902 142.893 25.3517 143.345 25.4641C143.796 25.5625 144.29 25.6116 144.827 25.6116C146.38 25.6116 147.156 25.12 147.156 24.1367C147.156 23.8276 146.987 23.5888 146.648 23.4203C146.295 23.2517 145.702 23.0621 144.869 22.8514C144.05 22.6688 143.366 22.4651 142.815 22.2403C142.208 22.0156 141.721 21.6784 141.354 21.2289C140.987 20.7794 140.804 20.2246 140.804 19.5644C140.804 18.567 141.171 17.7593 141.905 17.1412C142.639 16.5232 143.655 16.2141 144.954 16.2141C146.083 16.2141 147.107 16.3897 148.024 16.7409C148.222 16.7971 148.377 16.9024 148.49 17.0569C148.603 17.2115 148.659 17.38 148.659 17.5626C148.659 17.7874 148.575 17.9911 148.405 18.1737C148.236 18.3423 148.031 18.4265 147.791 18.4265L147.516 18.3844C146.669 18.1315 145.864 18.0051 145.102 18.0051C144.368 18.0051 143.782 18.1386 143.345 18.4055C142.907 18.6724 142.688 19.0235 142.688 19.459C142.688 19.8664 142.879 20.1684 143.26 20.365C143.669 20.5476 144.283 20.7373 145.102 20.9339C145.864 21.1306 146.542 21.3343 147.135 21.545C147.714 21.7697 148.179 22.1139 148.532 22.5774C148.885 23.027 149.062 23.5959 149.062 24.2842C149.062 25.1972 148.695 25.9487 147.961 26.5387C147.226 27.1287 146.224 27.4237 144.954 27.4237Z" fill="white"/>
<path d="M32.974 48.8946C32.6917 48.8946 32.4588 48.8033 32.2753 48.6207C32.0918 48.4241 32 48.1923 32 47.9254C32 47.8271 32.0353 47.6866 32.1059 47.504L37.5053 34.8195C37.6323 34.5385 37.8017 34.3208 38.0135 34.1663C38.2252 34.0118 38.4722 33.9345 38.7546 33.9345H38.9663C39.2486 33.9345 39.4957 34.0118 39.7074 34.1663C39.9192 34.3208 40.0885 34.5385 40.2156 34.8195L45.615 47.504C45.6856 47.6866 45.7209 47.8271 45.7209 47.9254C45.7209 48.1923 45.6291 48.4241 45.4456 48.6207C45.2621 48.8033 45.0292 48.8946 44.7469 48.8946C44.5351 48.8946 44.3446 48.8455 44.1752 48.7472C44.0199 48.6348 43.8999 48.4803 43.8152 48.2836L42.4389 45.0177H35.282L33.9057 48.2836C33.821 48.4803 33.6939 48.6348 33.5245 48.7472C33.3693 48.8455 33.1858 48.8946 32.974 48.8946ZM41.6978 43.2267L39.0298 36.8423C38.9875 36.7439 38.931 36.6948 38.8604 36.6948C38.7899 36.6948 38.7334 36.7439 38.691 36.8423L36.0231 43.2267H41.6978Z" fill="white"/>
<path d="M49.257 48.8946C48.9888 48.8946 48.7559 48.8033 48.5582 48.6207C48.3747 48.4241 48.283 48.1923 48.283 47.9254V38.8861C48.283 38.6192 48.3747 38.3874 48.5582 38.1908C48.7559 37.9941 48.9888 37.8958 49.257 37.8958C49.5252 37.8958 49.7581 37.9941 49.9557 38.1908C50.1534 38.3874 50.2522 38.6192 50.2522 38.8861V39.6868C50.8309 39.0687 51.4309 38.5981 52.052 38.2751C52.6731 37.952 53.3789 37.7904 54.1694 37.7904C54.9458 37.7904 55.6304 37.973 56.2233 38.3383C56.7879 38.7035 57.2185 39.2022 57.5149 39.8343C57.8255 40.4664 57.9808 41.1688 57.9808 41.9413V47.9254C57.9808 48.1923 57.8819 48.4241 57.6843 48.6207C57.4867 48.8033 57.2538 48.8946 56.9856 48.8946C56.7174 48.8946 56.4844 48.8033 56.2868 48.6207C56.1033 48.4241 56.0115 48.1923 56.0115 47.9254V42.1521C56.0115 40.4524 55.2422 39.6025 53.7036 39.6025C53.026 39.6025 52.4119 39.7711 51.8614 40.1082C51.325 40.4453 50.7886 40.944 50.2522 41.6042V47.9254C50.2522 48.1923 50.1534 48.4241 49.9557 48.6207C49.7581 48.8033 49.5252 48.8946 49.257 48.8946Z" fill="white"/>
<path d="M62.1521 48.8946C61.8839 48.8946 61.6509 48.8033 61.4533 48.6207C61.2698 48.4241 61.1781 48.1923 61.1781 47.9254V38.8861C61.1781 38.6192 61.2698 38.3874 61.4533 38.1908C61.6509 37.9941 61.8839 37.8958 62.1521 37.8958C62.4203 37.8958 62.6532 37.9941 62.8508 38.1908C63.0484 38.3874 63.1473 38.6192 63.1473 38.8861V39.6868C63.726 39.0687 64.326 38.5981 64.9471 38.2751C65.5682 37.952 66.274 37.7904 67.0645 37.7904C67.8409 37.7904 68.5255 37.973 69.1184 38.3383C69.683 38.7035 70.1136 39.2022 70.41 39.8343C70.7206 40.4664 70.8758 41.1688 70.8758 41.9413V47.9254C70.8758 48.1923 70.777 48.4241 70.5794 48.6207C70.3818 48.8033 70.1489 48.8946 69.8807 48.8946C69.6124 48.8946 69.3795 48.8033 69.1819 48.6207C68.9984 48.4241 68.9066 48.1923 68.9066 47.9254V42.1521C68.9066 40.4524 68.1373 39.6025 66.5987 39.6025C65.9211 39.6025 65.307 39.7711 64.7565 40.1082C64.2201 40.4453 63.6837 40.944 63.1473 41.6042V47.9254C63.1473 48.1923 63.0484 48.4241 62.8508 48.6207C62.6532 48.8033 62.4203 48.8946 62.1521 48.8946Z" fill="white"/>
<path d="M78.8585 49C77.7857 49 76.8329 48.7682 76 48.3047C75.1813 47.8271 74.546 47.1598 74.0943 46.303C73.6426 45.4461 73.4167 44.4768 73.4167 43.3952C73.4167 42.2995 73.6426 41.3233 74.0943 40.4664C74.546 39.6095 75.1813 38.9493 76 38.4858C76.8329 38.0222 77.7857 37.7904 78.8585 37.7904C79.9313 37.7904 80.8771 38.0222 81.6959 38.4858C82.5287 38.9634 83.171 39.6306 83.6227 40.4875C84.0744 41.3303 84.3003 42.2995 84.3003 43.3952C84.3003 44.4909 84.0744 45.4601 83.6227 46.303C83.1569 47.1739 82.5075 47.8411 81.6747 48.3047C80.856 48.7682 79.9172 49 78.8585 49ZM78.8585 47.209C79.4373 47.209 79.9949 47.0756 80.5313 46.8087C81.0818 46.5277 81.5194 46.0993 81.8441 45.5233C82.1688 44.9334 82.3311 44.217 82.3311 43.3741C82.3311 42.4892 82.1617 41.7728 81.8229 41.2249C81.5124 40.6912 81.0959 40.2838 80.5736 40.0028C80.0654 39.7219 79.4937 39.5814 78.8585 39.5814C78.2798 39.5814 77.7222 39.7079 77.1858 39.9607C76.6352 40.2416 76.1976 40.6701 75.873 41.246C75.5483 41.8219 75.3859 42.5313 75.3859 43.3741C75.3859 44.2732 75.5553 44.9966 75.8941 45.5444C76.2047 46.0923 76.6141 46.5066 77.1222 46.7876C77.6445 47.0685 78.2233 47.209 78.8585 47.209Z" fill="white"/>
<path d="M90.6526 49C89.8903 49 89.2127 48.8174 88.6198 48.4522C88.0552 48.0869 87.6176 47.5883 87.307 46.9562C86.9965 46.324 86.8412 45.6217 86.8412 44.8491V38.865C86.8412 38.5981 86.94 38.3734 87.1376 38.1908C87.3353 37.9941 87.5682 37.8958 87.8364 37.8958C88.1046 37.8958 88.3304 37.9941 88.514 38.1908C88.7116 38.3734 88.8104 38.5981 88.8104 38.865V44.6384C88.8104 46.3381 89.5797 47.1879 91.1184 47.1879C91.796 47.1879 92.403 47.0194 92.9394 46.6822C93.4899 46.3451 94.0334 45.8464 94.5698 45.1862V38.865C94.5698 38.5981 94.6686 38.3734 94.8662 38.1908C95.0638 37.9941 95.2968 37.8958 95.565 37.8958C95.8332 37.8958 96.059 37.9941 96.2425 38.1908C96.4402 38.3734 96.539 38.5981 96.539 38.865V47.9043C96.539 48.1712 96.4402 48.403 96.2425 48.5997C96.059 48.7963 95.8332 48.8946 95.565 48.8946C95.2968 48.8946 95.0638 48.7963 94.8662 48.5997C94.6686 48.403 94.5698 48.1712 94.5698 47.9043V47.1036C93.991 47.7217 93.3911 48.1923 92.77 48.5154C92.1489 48.8385 91.4431 49 90.6526 49Z" fill="white"/>
<path d="M100.816 48.8946C100.548 48.8946 100.315 48.8033 100.117 48.6207C99.9339 48.4241 99.8422 48.1923 99.8422 47.9254V38.8861C99.8422 38.6192 99.9339 38.3874 100.117 38.1908C100.315 37.9941 100.548 37.8958 100.816 37.8958C101.084 37.8958 101.317 37.9941 101.515 38.1908C101.713 38.3874 101.811 38.6192 101.811 38.8861V39.6868C102.39 39.0687 102.99 38.5981 103.611 38.2751C104.232 37.952 104.938 37.7904 105.729 37.7904C106.505 37.7904 107.19 37.973 107.782 38.3383C108.347 38.7035 108.778 39.2022 109.074 39.8343C109.385 40.4664 109.54 41.1688 109.54 41.9413V47.9254C109.54 48.1923 109.441 48.4241 109.244 48.6207C109.046 48.8033 108.813 48.8946 108.545 48.8946C108.277 48.8946 108.044 48.8033 107.846 48.6207C107.662 48.4241 107.571 48.1923 107.571 47.9254V42.1521C107.571 40.4524 106.801 39.6025 105.263 39.6025C104.585 39.6025 103.971 39.7711 103.421 40.1082C102.884 40.4453 102.348 40.944 101.811 41.6042V47.9254C101.811 48.1923 101.713 48.4241 101.515 48.6207C101.317 48.8033 101.084 48.8946 100.816 48.8946Z" fill="white"/>
<path d="M117.756 49C116.753 49 115.815 48.7752 114.939 48.3257C114.05 47.8622 113.351 47.202 112.843 46.3451C112.335 45.4882 112.081 44.5049 112.081 43.3952C112.081 42.2574 112.342 41.2601 112.864 40.4032C113.372 39.5744 114.05 38.9353 114.897 38.4858C115.758 38.0222 116.711 37.7904 117.756 37.7904C118.461 37.7904 119.082 37.8817 119.619 38.0644C120.155 38.2329 120.692 38.4787 121.228 38.8018C121.51 38.9985 121.652 39.2513 121.652 39.5604C121.652 39.7711 121.567 39.9677 121.397 40.1503C121.228 40.333 121.038 40.4243 120.826 40.4243C120.685 40.4243 120.529 40.3821 120.36 40.2978C119.866 40.045 119.457 39.8694 119.132 39.7711C118.807 39.6727 118.405 39.6236 117.925 39.6236C116.739 39.6236 115.793 39.9677 115.088 40.656C114.396 41.3303 114.05 42.2434 114.05 43.3952C114.05 44.5471 114.396 45.4672 115.088 46.1555C115.793 46.8297 116.739 47.1669 117.925 47.1669C118.405 47.1669 118.807 47.1177 119.132 47.0194C119.457 46.921 119.866 46.7454 120.36 46.4926C120.529 46.4083 120.685 46.3662 120.826 46.3662C121.038 46.3662 121.228 46.4575 121.397 46.6401C121.567 46.8227 121.652 47.0194 121.652 47.2301C121.652 47.5391 121.51 47.792 121.228 47.9886C120.692 48.3117 120.155 48.5645 119.619 48.7472C119.082 48.9157 118.461 49 117.756 49Z" fill="white"/>
<path d="M128.787 49C127.051 49 125.696 48.5084 124.722 47.5251C123.762 46.5418 123.282 45.1651 123.282 43.3952C123.282 42.44 123.466 41.5199 123.833 40.635C124.214 39.75 124.792 39.0547 125.569 38.549C126.345 38.0433 127.277 37.7904 128.364 37.7904C129.408 37.7904 130.319 38.0292 131.095 38.5068C131.829 38.9844 132.401 39.6306 132.81 40.4453C133.22 41.246 133.424 42.138 133.424 43.1213C133.424 43.3882 133.333 43.62 133.149 43.8166C132.966 43.9992 132.726 44.0905 132.429 44.0905H125.272C125.399 45.0879 125.774 45.8535 126.395 46.3872C127.03 46.907 127.884 47.1669 128.957 47.1669C129.521 47.1669 130.022 47.1177 130.46 47.0194C130.912 46.907 131.363 46.7384 131.815 46.5137C131.914 46.4575 132.041 46.4294 132.196 46.4294C132.422 46.4294 132.62 46.5137 132.789 46.6822C132.973 46.8368 133.064 47.0334 133.064 47.2722C133.064 47.5953 132.874 47.8622 132.493 48.0729C131.9 48.396 131.335 48.6278 130.799 48.7682C130.262 48.9227 129.592 49 128.787 49ZM131.201 42.4892C131.385 42.4892 131.469 42.3979 131.455 42.2153C131.399 41.6534 131.229 41.1828 130.947 40.8035C130.637 40.354 130.248 40.0169 129.782 39.7921C129.331 39.5674 128.858 39.455 128.364 39.455C127.912 39.455 127.439 39.5604 126.945 39.7711C126.451 40.0099 126.056 40.3681 125.759 40.8457C125.477 41.3092 125.315 41.8571 125.272 42.4892H131.201Z" fill="white"/>
<path d="M136.897 48.8946C136.629 48.8946 136.396 48.8033 136.198 48.6207C136.015 48.4241 135.923 48.1923 135.923 47.9254V38.8861C135.923 38.6192 136.015 38.3874 136.198 38.1908C136.396 37.9941 136.629 37.8958 136.897 37.8958C137.165 37.8958 137.398 37.9941 137.596 38.1908C137.793 38.3874 137.892 38.6192 137.892 38.8861V39.75L137.85 39.7289C138.287 39.1109 138.789 38.6333 139.353 38.2961C139.932 37.959 140.638 37.7904 141.471 37.7904C142.233 37.7904 142.896 37.9941 143.461 38.4015C144.04 38.7948 144.456 39.3075 144.71 39.9396C145.585 38.5068 146.884 37.7904 148.606 37.7904C149.425 37.7904 150.096 37.9871 150.618 38.3804C151.126 38.7597 151.507 39.2584 151.761 39.8764C152.03 40.4945 152.164 41.1547 152.164 41.8571V47.9254C152.164 48.1923 152.065 48.4241 151.867 48.6207C151.67 48.8033 151.437 48.8946 151.168 48.8946C150.9 48.8946 150.667 48.8033 150.47 48.6207C150.286 48.4241 150.194 48.1923 150.194 47.9254V42.2363C150.194 41.2952 150.025 40.6209 149.686 40.2136C149.362 39.8062 148.818 39.6025 148.056 39.6025C147.378 39.6025 146.807 39.7781 146.341 40.1293C145.875 40.4664 145.437 40.958 145.028 41.6042V47.9254C145.028 48.1923 144.929 48.4241 144.731 48.6207C144.534 48.8033 144.301 48.8946 144.033 48.8946C143.765 48.8946 143.532 48.8033 143.334 48.6207C143.15 48.4241 143.059 48.1923 143.059 47.9254V42.2363C143.059 41.2952 142.889 40.6209 142.551 40.2136C142.226 39.8062 141.682 39.6025 140.92 39.6025C140.243 39.6025 139.671 39.7781 139.205 40.1293C138.739 40.4664 138.302 40.958 137.892 41.6042V47.9254C137.892 48.1923 137.793 48.4241 137.596 48.6207C137.398 48.8033 137.165 48.8946 136.897 48.8946Z" fill="white"/>
<path d="M160.21 49C158.474 49 157.118 48.5084 156.144 47.5251C155.184 46.5418 154.705 45.1651 154.705 43.3952C154.705 42.44 154.888 41.5199 155.255 40.635C155.636 39.75 156.215 39.0547 156.991 38.549C157.768 38.0433 158.699 37.7904 159.786 37.7904C160.831 37.7904 161.741 38.0292 162.518 38.5068C163.252 38.9844 163.824 39.6306 164.233 40.4453C164.642 41.246 164.847 42.138 164.847 43.1213C164.847 43.3882 164.755 43.62 164.572 43.8166C164.388 43.9992 164.148 44.0905 163.852 44.0905H156.695C156.822 45.0879 157.196 45.8535 157.817 46.3872C158.452 46.907 159.306 47.1669 160.379 47.1669C160.944 47.1669 161.445 47.1177 161.883 47.0194C162.334 46.907 162.786 46.7384 163.238 46.5137C163.337 46.4575 163.464 46.4294 163.619 46.4294C163.845 46.4294 164.042 46.5137 164.212 46.6822C164.395 46.8368 164.487 47.0334 164.487 47.2722C164.487 47.5953 164.296 47.8622 163.915 48.0729C163.322 48.396 162.758 48.6278 162.221 48.7682C161.685 48.9227 161.014 49 160.21 49ZM162.624 42.4892C162.807 42.4892 162.892 42.3979 162.878 42.2153C162.821 41.6534 162.652 41.1828 162.37 40.8035C162.059 40.354 161.671 40.0169 161.205 39.7921C160.753 39.5674 160.28 39.455 159.786 39.455C159.335 39.455 158.862 39.5604 158.368 39.7711C157.874 40.0099 157.478 40.3681 157.182 40.8457C156.9 41.3092 156.737 41.8571 156.695 42.4892H162.624Z" fill="white"/>
<path d="M168.32 48.8946C168.051 48.8946 167.818 48.8033 167.621 48.6207C167.437 48.4241 167.346 48.1923 167.346 47.9254V38.8861C167.346 38.6192 167.437 38.3874 167.621 38.1908C167.818 37.9941 168.051 37.8958 168.32 37.8958C168.588 37.8958 168.821 37.9941 169.018 38.1908C169.216 38.3874 169.315 38.6192 169.315 38.8861V39.6868C169.893 39.0687 170.493 38.5981 171.115 38.2751C171.736 37.952 172.441 37.7904 173.232 37.7904C174.008 37.7904 174.693 37.973 175.286 38.3383C175.85 38.7035 176.281 39.2022 176.577 39.8343C176.888 40.4664 177.043 41.1688 177.043 41.9413V47.9254C177.043 48.1923 176.944 48.4241 176.747 48.6207C176.549 48.8033 176.316 48.8946 176.048 48.8946C175.78 48.8946 175.547 48.8033 175.349 48.6207C175.166 48.4241 175.074 48.1923 175.074 47.9254V42.1521C175.074 40.4524 174.305 39.6025 172.766 39.6025C172.089 39.6025 171.474 39.7711 170.924 40.1082C170.388 40.4453 169.851 40.944 169.315 41.6042V47.9254C169.315 48.1923 169.216 48.4241 169.018 48.6207C168.821 48.8033 168.588 48.8946 168.32 48.8946Z" fill="white"/>
<path d="M183.734 49C181.659 49 180.622 48.0659 180.622 46.1976V36.6105C180.622 36.2874 180.706 36.0416 180.876 35.873C181.059 35.7044 181.306 35.6202 181.617 35.6202C181.927 35.6202 182.167 35.7115 182.337 35.8941C182.506 36.0626 182.591 36.3014 182.591 36.6105V46.029C182.591 46.5207 182.704 46.8508 182.93 47.0194C183.156 47.1879 183.494 47.2722 183.946 47.2722C184.243 47.2722 184.525 47.2301 184.793 47.1458C184.821 47.1458 184.842 47.1388 184.857 47.1247C184.998 47.0966 185.118 47.0826 185.217 47.0826C185.428 47.0826 185.612 47.1598 185.767 47.3144C185.922 47.4689 186 47.6515 186 47.8622C186 48.1853 185.831 48.4381 185.492 48.6207C184.941 48.8736 184.355 49 183.734 49ZM179.563 39.7921C179.295 39.7921 179.083 39.7219 178.928 39.5814C178.787 39.4269 178.716 39.2162 178.716 38.9493C178.716 38.6824 178.787 38.4787 178.928 38.3383C179.083 38.1838 179.295 38.1065 179.563 38.1065H184.962C185.202 38.1065 185.4 38.1908 185.555 38.3593C185.725 38.5139 185.809 38.7105 185.809 38.9493C185.809 39.1741 185.725 39.3707 185.555 39.5393C185.4 39.7079 185.202 39.7921 184.962 39.7921H179.563Z" fill="white"/>
<path d="M73.4909 27.3183C73.1944 27.3183 72.9333 27.2341 72.7074 27.0655C72.4957 26.8969 72.3333 26.6581 72.2204 26.3491L68.0703 13.6646C68.0279 13.496 68.0067 13.3626 68.0067 13.2642C68.0067 13.0114 68.0985 12.8007 68.282 12.6321C68.4655 12.4495 68.6914 12.3582 68.9596 12.3582C69.1854 12.3582 69.3831 12.4284 69.5525 12.5689C69.736 12.7094 69.863 12.899 69.9336 13.1378L73.3215 24.1999C73.3638 24.3123 73.4132 24.3685 73.4697 24.3685C73.5261 24.3685 73.5756 24.3123 73.6179 24.1999L77.0269 13.18C77.0975 12.9271 77.2387 12.7304 77.4504 12.59C77.6622 12.4355 77.8951 12.3582 78.1492 12.3582C78.4033 12.3582 78.6362 12.4355 78.8479 12.59C79.0597 12.7304 79.2008 12.9271 79.2714 13.18L82.6805 24.1999C82.7228 24.3123 82.7722 24.3685 82.8287 24.3685C82.8851 24.3685 82.9346 24.3123 82.9769 24.1999L86.3648 13.1378C86.4354 12.899 86.5553 12.7094 86.7247 12.5689C86.9082 12.4284 87.1129 12.3582 87.3388 12.3582C87.607 12.3582 87.8329 12.4495 88.0164 12.6321C88.1999 12.8007 88.2916 13.0114 88.2916 13.2642C88.2916 13.3626 88.2705 13.496 88.2281 13.6646L84.078 26.3491C83.965 26.6581 83.7956 26.8969 83.5698 27.0655C83.358 27.2341 83.1039 27.3183 82.8075 27.3183C82.5111 27.3183 82.2429 27.227 82.0029 27.0444C81.777 26.8618 81.6218 26.63 81.5371 26.3491L78.2974 16.1509C78.2551 16.0385 78.2056 15.9823 78.1492 15.9823C78.0927 15.9823 78.0433 16.0385 78.001 16.1509L74.7613 26.3491C74.6766 26.63 74.5143 26.8618 74.2743 27.0444C74.0484 27.227 73.7873 27.3183 73.4909 27.3183Z" stroke="white" stroke-width="1.2" mask="url(#path-3-outside-1_139_1892)"/>
<path d="M91.256 27.3183C90.9878 27.3183 90.7549 27.227 90.5573 27.0444C90.3738 26.8478 90.282 26.616 90.282 26.3491V17.3098C90.282 17.0429 90.3738 16.8111 90.5573 16.6145C90.7549 16.4178 90.9878 16.3195 91.256 16.3195C91.5383 16.3195 91.7713 16.4178 91.9548 16.6145C92.1524 16.7971 92.2512 17.0289 92.2512 17.3098V26.3491C92.2512 26.616 92.1524 26.8478 91.9548 27.0444C91.7571 27.227 91.5242 27.3183 91.256 27.3183ZM91.2137 14.2756C90.9172 14.2756 90.6561 14.1703 90.4302 13.9596C90.2185 13.7348 90.1126 13.4749 90.1126 13.18V13.0957C90.1126 12.8007 90.2185 12.5478 90.4302 12.3371C90.6561 12.1124 90.9172 12 91.2137 12H91.3407C91.6372 12 91.8912 12.1124 92.103 12.3371C92.3288 12.5478 92.4418 12.8007 92.4418 13.0957V13.18C92.4418 13.4749 92.3288 13.7348 92.103 13.9596C91.8912 14.1703 91.6372 14.2756 91.3407 14.2756H91.2137Z" stroke="white" stroke-width="1.2" mask="url(#path-3-outside-1_139_1892)"/>
<path d="M96.5284 27.3183C96.2602 27.3183 96.0273 27.227 95.8296 27.0444C95.6461 26.8478 95.5544 26.616 95.5544 26.3491V17.3098C95.5544 17.0429 95.6461 16.8111 95.8296 16.6145C96.0273 16.4178 96.2602 16.3195 96.5284 16.3195C96.7966 16.3195 97.0295 16.4178 97.2271 16.6145C97.4248 16.8111 97.5236 17.0429 97.5236 17.3098V18.1105C98.1023 17.4924 98.7023 17.0218 99.3234 16.6987C99.9445 16.3757 100.65 16.2141 101.441 16.2141C102.217 16.2141 102.902 16.3967 103.495 16.762C104.059 17.1272 104.49 17.6259 104.786 18.258C105.097 18.8901 105.252 19.5924 105.252 20.365V26.3491C105.252 26.616 105.153 26.8478 104.956 27.0444C104.758 27.227 104.525 27.3183 104.257 27.3183C103.989 27.3183 103.756 27.227 103.558 27.0444C103.375 26.8478 103.283 26.616 103.283 26.3491V20.5757C103.283 18.876 102.514 18.0262 100.975 18.0262C100.297 18.0262 99.6833 18.1948 99.1328 18.5319C98.5964 18.869 98.06 19.3677 97.5236 20.0279V26.3491C97.5236 26.616 97.4248 26.8478 97.2271 27.0444C97.0295 27.227 96.7966 27.3183 96.5284 27.3183Z" stroke="white" stroke-width="1.2" mask="url(#path-3-outside-1_139_1892)"/>
<path d="M109.423 27.3183C109.155 27.3183 108.922 27.227 108.725 27.0444C108.541 26.8478 108.449 26.616 108.449 26.3491V17.3098C108.449 17.0429 108.541 16.8111 108.725 16.6145C108.922 16.4178 109.155 16.3195 109.423 16.3195C109.692 16.3195 109.925 16.4178 110.122 16.6145C110.32 16.8111 110.419 17.0429 110.419 17.3098V18.1105C110.997 17.4924 111.597 17.0218 112.218 16.6987C112.84 16.3757 113.545 16.2141 114.336 16.2141C115.112 16.2141 115.797 16.3967 116.39 16.762C116.954 17.1272 117.385 17.6259 117.681 18.258C117.992 18.8901 118.147 19.5924 118.147 20.365V26.3491C118.147 26.616 118.048 26.8478 117.851 27.0444C117.653 27.227 117.42 27.3183 117.152 27.3183C116.884 27.3183 116.651 27.227 116.453 27.0444C116.27 26.8478 116.178 26.616 116.178 26.3491V20.5757C116.178 18.876 115.409 18.0262 113.87 18.0262C113.192 18.0262 112.578 18.1948 112.028 18.5319C111.491 18.869 110.955 19.3677 110.419 20.0279V26.3491C110.419 26.616 110.32 26.8478 110.122 27.0444C109.925 27.227 109.692 27.3183 109.423 27.3183Z" stroke="white" stroke-width="1.2" mask="url(#path-3-outside-1_139_1892)"/>
<path d="M126.193 27.4237C124.457 27.4237 123.102 26.932 122.128 25.9487C121.168 24.9655 120.688 23.5888 120.688 21.8189C120.688 20.8637 120.872 19.9436 121.239 19.0587C121.62 18.1737 122.199 17.4784 122.975 16.9727C123.751 16.467 124.683 16.2141 125.77 16.2141C126.815 16.2141 127.725 16.4529 128.501 16.9305C129.235 17.4081 129.807 18.0543 130.217 18.869C130.626 19.6697 130.831 20.5617 130.831 21.545C130.831 21.8119 130.739 22.0437 130.555 22.2403C130.372 22.4229 130.132 22.5142 129.835 22.5142H122.679C122.806 23.5116 123.18 24.2771 123.801 24.8109C124.436 25.3307 125.29 25.5905 126.363 25.5905C126.927 25.5905 127.429 25.5414 127.866 25.4431C128.318 25.3307 128.77 25.1621 129.221 24.9374C129.32 24.8812 129.447 24.8531 129.603 24.8531C129.828 24.8531 130.026 24.9374 130.195 25.1059C130.379 25.2604 130.471 25.4571 130.471 25.6959C130.471 26.019 130.28 26.2859 129.899 26.4966C129.306 26.8197 128.741 27.0514 128.205 27.1919C127.669 27.3464 126.998 27.4237 126.193 27.4237ZM128.607 20.9129C128.791 20.9129 128.876 20.8216 128.861 20.639C128.805 20.0771 128.636 19.6065 128.353 19.2272C128.043 18.7777 127.654 18.4406 127.189 18.2158C126.737 17.9911 126.264 17.8787 125.77 17.8787C125.318 17.8787 124.845 17.9841 124.351 18.1948C123.857 18.4336 123.462 18.7918 123.166 19.2694C122.883 19.7329 122.721 20.2808 122.679 20.9129H128.607Z" stroke="white" stroke-width="1.2" mask="url(#path-3-outside-1_139_1892)"/>
<path d="M134.303 27.3183C134.035 27.3183 133.802 27.227 133.604 27.0444C133.421 26.8478 133.329 26.616 133.329 26.3491V17.3098C133.329 17.0429 133.421 16.8111 133.604 16.6145C133.802 16.4178 134.035 16.3195 134.303 16.3195C134.571 16.3195 134.804 16.4178 135.002 16.6145C135.2 16.8111 135.298 17.0429 135.298 17.3098V18.1526C136.272 16.8603 137.373 16.2141 138.602 16.2141H138.707C138.976 16.2141 139.201 16.3125 139.385 16.5091C139.568 16.6917 139.66 16.9165 139.66 17.1834C139.66 17.4503 139.561 17.675 139.364 17.8576C139.18 18.0262 138.947 18.1105 138.665 18.1105H138.559C137.896 18.1105 137.282 18.272 136.717 18.5951C136.167 18.9041 135.694 19.3536 135.298 19.9436V26.3491C135.298 26.616 135.2 26.8478 135.002 27.0444C134.804 27.227 134.571 27.3183 134.303 27.3183Z" stroke="white" stroke-width="1.2" mask="url(#path-3-outside-1_139_1892)"/>
<path d="M144.954 27.4237C143.556 27.4237 142.265 27.1076 141.079 26.4755C140.839 26.3069 140.719 26.0681 140.719 25.7591C140.719 25.5344 140.797 25.3377 140.952 25.1691C141.121 24.9865 141.326 24.8952 141.566 24.8952C141.707 24.8952 141.834 24.9233 141.947 24.9795C142.427 25.1902 142.893 25.3517 143.345 25.4641C143.796 25.5625 144.29 25.6116 144.827 25.6116C146.38 25.6116 147.156 25.12 147.156 24.1367C147.156 23.8276 146.987 23.5888 146.648 23.4203C146.295 23.2517 145.702 23.0621 144.869 22.8514C144.05 22.6688 143.366 22.4651 142.815 22.2403C142.208 22.0156 141.721 21.6784 141.354 21.2289C140.987 20.7794 140.804 20.2246 140.804 19.5644C140.804 18.567 141.171 17.7593 141.905 17.1412C142.639 16.5232 143.655 16.2141 144.954 16.2141C146.083 16.2141 147.107 16.3897 148.024 16.7409C148.222 16.7971 148.377 16.9024 148.49 17.0569C148.603 17.2115 148.659 17.38 148.659 17.5626C148.659 17.7874 148.575 17.9911 148.405 18.1737C148.236 18.3423 148.031 18.4265 147.791 18.4265L147.516 18.3844C146.669 18.1315 145.864 18.0051 145.102 18.0051C144.368 18.0051 143.782 18.1386 143.345 18.4055C142.907 18.6724 142.688 19.0235 142.688 19.459C142.688 19.8664 142.879 20.1684 143.26 20.365C143.669 20.5476 144.283 20.7373 145.102 20.9339C145.864 21.1306 146.542 21.3343 147.135 21.545C147.714 21.7697 148.179 22.1139 148.532 22.5774C148.885 23.027 149.062 23.5959 149.062 24.2842C149.062 25.1972 148.695 25.9487 147.961 26.5387C147.226 27.1287 146.224 27.4237 144.954 27.4237Z" stroke="white" stroke-width="1.2" mask="url(#path-3-outside-1_139_1892)"/>
<path d="M32.974 48.8946C32.6917 48.8946 32.4588 48.8033 32.2753 48.6207C32.0918 48.4241 32 48.1923 32 47.9254C32 47.8271 32.0353 47.6866 32.1059 47.504L37.5053 34.8195C37.6323 34.5385 37.8017 34.3208 38.0135 34.1663C38.2252 34.0118 38.4722 33.9345 38.7546 33.9345H38.9663C39.2486 33.9345 39.4957 34.0118 39.7074 34.1663C39.9192 34.3208 40.0885 34.5385 40.2156 34.8195L45.615 47.504C45.6856 47.6866 45.7209 47.8271 45.7209 47.9254C45.7209 48.1923 45.6291 48.4241 45.4456 48.6207C45.2621 48.8033 45.0292 48.8946 44.7469 48.8946C44.5351 48.8946 44.3446 48.8455 44.1752 48.7472C44.0199 48.6348 43.8999 48.4803 43.8152 48.2836L42.4389 45.0177H35.282L33.9057 48.2836C33.821 48.4803 33.6939 48.6348 33.5245 48.7472C33.3693 48.8455 33.1858 48.8946 32.974 48.8946ZM41.6978 43.2267L39.0298 36.8423C38.9875 36.7439 38.931 36.6948 38.8604 36.6948C38.7899 36.6948 38.7334 36.7439 38.691 36.8423L36.0231 43.2267H41.6978Z" stroke="white" stroke-width="1.2" mask="url(#path-3-outside-1_139_1892)"/>
<path d="M49.257 48.8946C48.9888 48.8946 48.7559 48.8033 48.5582 48.6207C48.3747 48.4241 48.283 48.1923 48.283 47.9254V38.8861C48.283 38.6192 48.3747 38.3874 48.5582 38.1908C48.7559 37.9941 48.9888 37.8958 49.257 37.8958C49.5252 37.8958 49.7581 37.9941 49.9557 38.1908C50.1534 38.3874 50.2522 38.6192 50.2522 38.8861V39.6868C50.8309 39.0687 51.4309 38.5981 52.052 38.2751C52.6731 37.952 53.3789 37.7904 54.1694 37.7904C54.9458 37.7904 55.6304 37.973 56.2233 38.3383C56.7879 38.7035 57.2185 39.2022 57.5149 39.8343C57.8255 40.4664 57.9808 41.1688 57.9808 41.9413V47.9254C57.9808 48.1923 57.8819 48.4241 57.6843 48.6207C57.4867 48.8033 57.2538 48.8946 56.9856 48.8946C56.7174 48.8946 56.4844 48.8033 56.2868 48.6207C56.1033 48.4241 56.0115 48.1923 56.0115 47.9254V42.1521C56.0115 40.4524 55.2422 39.6025 53.7036 39.6025C53.026 39.6025 52.4119 39.7711 51.8614 40.1082C51.325 40.4453 50.7886 40.944 50.2522 41.6042V47.9254C50.2522 48.1923 50.1534 48.4241 49.9557 48.6207C49.7581 48.8033 49.5252 48.8946 49.257 48.8946Z" stroke="white" stroke-width="1.2" mask="url(#path-3-outside-1_139_1892)"/>
<path d="M62.1521 48.8946C61.8839 48.8946 61.6509 48.8033 61.4533 48.6207C61.2698 48.4241 61.1781 48.1923 61.1781 47.9254V38.8861C61.1781 38.6192 61.2698 38.3874 61.4533 38.1908C61.6509 37.9941 61.8839 37.8958 62.1521 37.8958C62.4203 37.8958 62.6532 37.9941 62.8508 38.1908C63.0484 38.3874 63.1473 38.6192 63.1473 38.8861V39.6868C63.726 39.0687 64.326 38.5981 64.9471 38.2751C65.5682 37.952 66.274 37.7904 67.0645 37.7904C67.8409 37.7904 68.5255 37.973 69.1184 38.3383C69.683 38.7035 70.1136 39.2022 70.41 39.8343C70.7206 40.4664 70.8758 41.1688 70.8758 41.9413V47.9254C70.8758 48.1923 70.777 48.4241 70.5794 48.6207C70.3818 48.8033 70.1489 48.8946 69.8807 48.8946C69.6124 48.8946 69.3795 48.8033 69.1819 48.6207C68.9984 48.4241 68.9066 48.1923 68.9066 47.9254V42.1521C68.9066 40.4524 68.1373 39.6025 66.5987 39.6025C65.9211 39.6025 65.307 39.7711 64.7565 40.1082C64.2201 40.4453 63.6837 40.944 63.1473 41.6042V47.9254C63.1473 48.1923 63.0484 48.4241 62.8508 48.6207C62.6532 48.8033 62.4203 48.8946 62.1521 48.8946Z" stroke="white" stroke-width="1.2" mask="url(#path-3-outside-1_139_1892)"/>
<path d="M78.8585 49C77.7857 49 76.8329 48.7682 76 48.3047C75.1813 47.8271 74.546 47.1598 74.0943 46.303C73.6426 45.4461 73.4167 44.4768 73.4167 43.3952C73.4167 42.2995 73.6426 41.3233 74.0943 40.4664C74.546 39.6095 75.1813 38.9493 76 38.4858C76.8329 38.0222 77.7857 37.7904 78.8585 37.7904C79.9313 37.7904 80.8771 38.0222 81.6959 38.4858C82.5287 38.9634 83.171 39.6306 83.6227 40.4875C84.0744 41.3303 84.3003 42.2995 84.3003 43.3952C84.3003 44.4909 84.0744 45.4601 83.6227 46.303C83.1569 47.1739 82.5075 47.8411 81.6747 48.3047C80.856 48.7682 79.9172 49 78.8585 49ZM78.8585 47.209C79.4373 47.209 79.9949 47.0756 80.5313 46.8087C81.0818 46.5277 81.5194 46.0993 81.8441 45.5233C82.1688 44.9334 82.3311 44.217 82.3311 43.3741C82.3311 42.4892 82.1617 41.7728 81.8229 41.2249C81.5124 40.6912 81.0959 40.2838 80.5736 40.0028C80.0654 39.7219 79.4937 39.5814 78.8585 39.5814C78.2798 39.5814 77.7222 39.7079 77.1858 39.9607C76.6352 40.2416 76.1976 40.6701 75.873 41.246C75.5483 41.8219 75.3859 42.5313 75.3859 43.3741C75.3859 44.2732 75.5553 44.9966 75.8941 45.5444C76.2047 46.0923 76.6141 46.5066 77.1222 46.7876C77.6445 47.0685 78.2233 47.209 78.8585 47.209Z" stroke="white" stroke-width="1.2" mask="url(#path-3-outside-1_139_1892)"/>
<path d="M90.6526 49C89.8903 49 89.2127 48.8174 88.6198 48.4522C88.0552 48.0869 87.6176 47.5883 87.307 46.9562C86.9965 46.324 86.8412 45.6217 86.8412 44.8491V38.865C86.8412 38.5981 86.94 38.3734 87.1376 38.1908C87.3353 37.9941 87.5682 37.8958 87.8364 37.8958C88.1046 37.8958 88.3304 37.9941 88.514 38.1908C88.7116 38.3734 88.8104 38.5981 88.8104 38.865V44.6384C88.8104 46.3381 89.5797 47.1879 91.1184 47.1879C91.796 47.1879 92.403 47.0194 92.9394 46.6822C93.4899 46.3451 94.0334 45.8464 94.5698 45.1862V38.865C94.5698 38.5981 94.6686 38.3734 94.8662 38.1908C95.0638 37.9941 95.2968 37.8958 95.565 37.8958C95.8332 37.8958 96.059 37.9941 96.2425 38.1908C96.4402 38.3734 96.539 38.5981 96.539 38.865V47.9043C96.539 48.1712 96.4402 48.403 96.2425 48.5997C96.059 48.7963 95.8332 48.8946 95.565 48.8946C95.2968 48.8946 95.0638 48.7963 94.8662 48.5997C94.6686 48.403 94.5698 48.1712 94.5698 47.9043V47.1036C93.991 47.7217 93.3911 48.1923 92.77 48.5154C92.1489 48.8385 91.4431 49 90.6526 49Z" stroke="white" stroke-width="1.2" mask="url(#path-3-outside-1_139_1892)"/>
<path d="M100.816 48.8946C100.548 48.8946 100.315 48.8033 100.117 48.6207C99.9339 48.4241 99.8422 48.1923 99.8422 47.9254V38.8861C99.8422 38.6192 99.9339 38.3874 100.117 38.1908C100.315 37.9941 100.548 37.8958 100.816 37.8958C101.084 37.8958 101.317 37.9941 101.515 38.1908C101.713 38.3874 101.811 38.6192 101.811 38.8861V39.6868C102.39 39.0687 102.99 38.5981 103.611 38.2751C104.232 37.952 104.938 37.7904 105.729 37.7904C106.505 37.7904 107.19 37.973 107.782 38.3383C108.347 38.7035 108.778 39.2022 109.074 39.8343C109.385 40.4664 109.54 41.1688 109.54 41.9413V47.9254C109.54 48.1923 109.441 48.4241 109.244 48.6207C109.046 48.8033 108.813 48.8946 108.545 48.8946C108.277 48.8946 108.044 48.8033 107.846 48.6207C107.662 48.4241 107.571 48.1923 107.571 47.9254V42.1521C107.571 40.4524 106.801 39.6025 105.263 39.6025C104.585 39.6025 103.971 39.7711 103.421 40.1082C102.884 40.4453 102.348 40.944 101.811 41.6042V47.9254C101.811 48.1923 101.713 48.4241 101.515 48.6207C101.317 48.8033 101.084 48.8946 100.816 48.8946Z" stroke="white" stroke-width="1.2" mask="url(#path-3-outside-1_139_1892)"/>
<path d="M117.756 49C116.753 49 115.815 48.7752 114.939 48.3257C114.05 47.8622 113.351 47.202 112.843 46.3451C112.335 45.4882 112.081 44.5049 112.081 43.3952C112.081 42.2574 112.342 41.2601 112.864 40.4032C113.372 39.5744 114.05 38.9353 114.897 38.4858C115.758 38.0222 116.711 37.7904 117.756 37.7904C118.461 37.7904 119.082 37.8817 119.619 38.0644C120.155 38.2329 120.692 38.4787 121.228 38.8018C121.51 38.9985 121.652 39.2513 121.652 39.5604C121.652 39.7711 121.567 39.9677 121.397 40.1503C121.228 40.333 121.038 40.4243 120.826 40.4243C120.685 40.4243 120.529 40.3821 120.36 40.2978C119.866 40.045 119.457 39.8694 119.132 39.7711C118.807 39.6727 118.405 39.6236 117.925 39.6236C116.739 39.6236 115.793 39.9677 115.088 40.656C114.396 41.3303 114.05 42.2434 114.05 43.3952C114.05 44.5471 114.396 45.4672 115.088 46.1555C115.793 46.8297 116.739 47.1669 117.925 47.1669C118.405 47.1669 118.807 47.1177 119.132 47.0194C119.457 46.921 119.866 46.7454 120.36 46.4926C120.529 46.4083 120.685 46.3662 120.826 46.3662C121.038 46.3662 121.228 46.4575 121.397 46.6401C121.567 46.8227 121.652 47.0194 121.652 47.2301C121.652 47.5391 121.51 47.792 121.228 47.9886C120.692 48.3117 120.155 48.5645 119.619 48.7472C119.082 48.9157 118.461 49 117.756 49Z" stroke="white" stroke-width="1.2" mask="url(#path-3-outside-1_139_1892)"/>
<path d="M128.787 49C127.051 49 125.696 48.5084 124.722 47.5251C123.762 46.5418 123.282 45.1651 123.282 43.3952C123.282 42.44 123.466 41.5199 123.833 40.635C124.214 39.75 124.792 39.0547 125.569 38.549C126.345 38.0433 127.277 37.7904 128.364 37.7904C129.408 37.7904 130.319 38.0292 131.095 38.5068C131.829 38.9844 132.401 39.6306 132.81 40.4453C133.22 41.246 133.424 42.138 133.424 43.1213C133.424 43.3882 133.333 43.62 133.149 43.8166C132.966 43.9992 132.726 44.0905 132.429 44.0905H125.272C125.399 45.0879 125.774 45.8535 126.395 46.3872C127.03 46.907 127.884 47.1669 128.957 47.1669C129.521 47.1669 130.022 47.1177 130.46 47.0194C130.912 46.907 131.363 46.7384 131.815 46.5137C131.914 46.4575 132.041 46.4294 132.196 46.4294C132.422 46.4294 132.62 46.5137 132.789 46.6822C132.973 46.8368 133.064 47.0334 133.064 47.2722C133.064 47.5953 132.874 47.8622 132.493 48.0729C131.9 48.396 131.335 48.6278 130.799 48.7682C130.262 48.9227 129.592 49 128.787 49ZM131.201 42.4892C131.385 42.4892 131.469 42.3979 131.455 42.2153C131.399 41.6534 131.229 41.1828 130.947 40.8035C130.637 40.354 130.248 40.0169 129.782 39.7921C129.331 39.5674 128.858 39.455 128.364 39.455C127.912 39.455 127.439 39.5604 126.945 39.7711C126.451 40.0099 126.056 40.3681 125.759 40.8457C125.477 41.3092 125.315 41.8571 125.272 42.4892H131.201Z" stroke="white" stroke-width="1.2" mask="url(#path-3-outside-1_139_1892)"/>
<path d="M136.897 48.8946C136.629 48.8946 136.396 48.8033 136.198 48.6207C136.015 48.4241 135.923 48.1923 135.923 47.9254V38.8861C135.923 38.6192 136.015 38.3874 136.198 38.1908C136.396 37.9941 136.629 37.8958 136.897 37.8958C137.165 37.8958 137.398 37.9941 137.596 38.1908C137.793 38.3874 137.892 38.6192 137.892 38.8861V39.75L137.85 39.7289C138.287 39.1109 138.789 38.6333 139.353 38.2961C139.932 37.959 140.638 37.7904 141.471 37.7904C142.233 37.7904 142.896 37.9941 143.461 38.4015C144.04 38.7948 144.456 39.3075 144.71 39.9396C145.585 38.5068 146.884 37.7904 148.606 37.7904C149.425 37.7904 150.096 37.9871 150.618 38.3804C151.126 38.7597 151.507 39.2584 151.761 39.8764C152.03 40.4945 152.164 41.1547 152.164 41.8571V47.9254C152.164 48.1923 152.065 48.4241 151.867 48.6207C151.67 48.8033 151.437 48.8946 151.168 48.8946C150.9 48.8946 150.667 48.8033 150.47 48.6207C150.286 48.4241 150.194 48.1923 150.194 47.9254V42.2363C150.194 41.2952 150.025 40.6209 149.686 40.2136C149.362 39.8062 148.818 39.6025 148.056 39.6025C147.378 39.6025 146.807 39.7781 146.341 40.1293C145.875 40.4664 145.437 40.958 145.028 41.6042V47.9254C145.028 48.1923 144.929 48.4241 144.731 48.6207C144.534 48.8033 144.301 48.8946 144.033 48.8946C143.765 48.8946 143.532 48.8033 143.334 48.6207C143.15 48.4241 143.059 48.1923 143.059 47.9254V42.2363C143.059 41.2952 142.889 40.6209 142.551 40.2136C142.226 39.8062 141.682 39.6025 140.92 39.6025C140.243 39.6025 139.671 39.7781 139.205 40.1293C138.739 40.4664 138.302 40.958 137.892 41.6042V47.9254C137.892 48.1923 137.793 48.4241 137.596 48.6207C137.398 48.8033 137.165 48.8946 136.897 48.8946Z" stroke="white" stroke-width="1.2" mask="url(#path-3-outside-1_139_1892)"/>
<path d="M160.21 49C158.474 49 157.118 48.5084 156.144 47.5251C155.184 46.5418 154.705 45.1651 154.705 43.3952C154.705 42.44 154.888 41.5199 155.255 40.635C155.636 39.75 156.215 39.0547 156.991 38.549C157.768 38.0433 158.699 37.7904 159.786 37.7904C160.831 37.7904 161.741 38.0292 162.518 38.5068C163.252 38.9844 163.824 39.6306 164.233 40.4453C164.642 41.246 164.847 42.138 164.847 43.1213C164.847 43.3882 164.755 43.62 164.572 43.8166C164.388 43.9992 164.148 44.0905 163.852 44.0905H156.695C156.822 45.0879 157.196 45.8535 157.817 46.3872C158.452 46.907 159.306 47.1669 160.379 47.1669C160.944 47.1669 161.445 47.1177 161.883 47.0194C162.334 46.907 162.786 46.7384 163.238 46.5137C163.337 46.4575 163.464 46.4294 163.619 46.4294C163.845 46.4294 164.042 46.5137 164.212 46.6822C164.395 46.8368 164.487 47.0334 164.487 47.2722C164.487 47.5953 164.296 47.8622 163.915 48.0729C163.322 48.396 162.758 48.6278 162.221 48.7682C161.685 48.9227 161.014 49 160.21 49ZM162.624 42.4892C162.807 42.4892 162.892 42.3979 162.878 42.2153C162.821 41.6534 162.652 41.1828 162.37 40.8035C162.059 40.354 161.671 40.0169 161.205 39.7921C160.753 39.5674 160.28 39.455 159.786 39.455C159.335 39.455 158.862 39.5604 158.368 39.7711C157.874 40.0099 157.478 40.3681 157.182 40.8457C156.9 41.3092 156.737 41.8571 156.695 42.4892H162.624Z" stroke="white" stroke-width="1.2" mask="url(#path-3-outside-1_139_1892)"/>
<path d="M168.32 48.8946C168.051 48.8946 167.818 48.8033 167.621 48.6207C167.437 48.4241 167.346 48.1923 167.346 47.9254V38.8861C167.346 38.6192 167.437 38.3874 167.621 38.1908C167.818 37.9941 168.051 37.8958 168.32 37.8958C168.588 37.8958 168.821 37.9941 169.018 38.1908C169.216 38.3874 169.315 38.6192 169.315 38.8861V39.6868C169.893 39.0687 170.493 38.5981 171.115 38.2751C171.736 37.952 172.441 37.7904 173.232 37.7904C174.008 37.7904 174.693 37.973 175.286 38.3383C175.85 38.7035 176.281 39.2022 176.577 39.8343C176.888 40.4664 177.043 41.1688 177.043 41.9413V47.9254C177.043 48.1923 176.944 48.4241 176.747 48.6207C176.549 48.8033 176.316 48.8946 176.048 48.8946C175.78 48.8946 175.547 48.8033 175.349 48.6207C175.166 48.4241 175.074 48.1923 175.074 47.9254V42.1521C175.074 40.4524 174.305 39.6025 172.766 39.6025C172.089 39.6025 171.474 39.7711 170.924 40.1082C170.388 40.4453 169.851 40.944 169.315 41.6042V47.9254C169.315 48.1923 169.216 48.4241 169.018 48.6207C168.821 48.8033 168.588 48.8946 168.32 48.8946Z" stroke="white" stroke-width="1.2" mask="url(#path-3-outside-1_139_1892)"/>
<path d="M183.734 49C181.659 49 180.622 48.0659 180.622 46.1976V36.6105C180.622 36.2874 180.706 36.0416 180.876 35.873C181.059 35.7044 181.306 35.6202 181.617 35.6202C181.927 35.6202 182.167 35.7115 182.337 35.8941C182.506 36.0626 182.591 36.3014 182.591 36.6105V46.029C182.591 46.5207 182.704 46.8508 182.93 47.0194C183.156 47.1879 183.494 47.2722 183.946 47.2722C184.243 47.2722 184.525 47.2301 184.793 47.1458C184.821 47.1458 184.842 47.1388 184.857 47.1247C184.998 47.0966 185.118 47.0826 185.217 47.0826C185.428 47.0826 185.612 47.1598 185.767 47.3144C185.922 47.4689 186 47.6515 186 47.8622C186 48.1853 185.831 48.4381 185.492 48.6207C184.941 48.8736 184.355 49 183.734 49ZM179.563 39.7921C179.295 39.7921 179.083 39.7219 178.928 39.5814C178.787 39.4269 178.716 39.2162 178.716 38.9493C178.716 38.6824 178.787 38.4787 178.928 38.3383C179.083 38.1838 179.295 38.1065 179.563 38.1065H184.962C185.202 38.1065 185.4 38.1908 185.555 38.3593C185.725 38.5139 185.809 38.7105 185.809 38.9493C185.809 39.1741 185.725 39.3707 185.555 39.5393C185.4 39.7079 185.202 39.7921 184.962 39.7921H179.563Z" stroke="white" stroke-width="1.2" mask="url(#path-3-outside-1_139_1892)"/>
</svg>
