<svg width="1458" height="184" viewBox="0 0 1458 184" fill="none" xmlns="http://www.w3.org/2000/svg">
<path d="M1106 19C1106 29.949 1096 39 1096 39H1091H1086C1086 39 1076 29.9339 1076 19C1076 9.23387 1080.75 5.60749 1085 4.00002C1088.12 2.802 1091 3.00002 1091 3.00002C1091.09 3.00002 1090.83 3.00002 1091 3.00002C1091.92 3.04551 1094.8 3.19628 1097 4.00002C1101.28 5.56199 1106 9.08222 1106 19Z" fill="#ED7452"/>
<path d="M1091 3.00002V39H1090H1086C1086 39 1076 29.9339 1076 19C1076 9.23387 1080.88 5.60749 1085 4.00002C1088.02 2.802 1091 3.00002 1091 3.00002C1091.09 3.00002 1090.84 3.00002 1091 3.00002Z" fill="#E99978"/>
<path d="M1094 39H1091H1087C1081.04 21.3785 1082.91 9.95979 1085 4.00002C1088.05 2.802 1091 3.00002 1091 3.00002C1091.6 3.01518 1093.47 3.0598 1096 4.00002C1098.1 9.94463 1099.97 21.333 1094 39V39Z" fill="#FAD5B4"/>
<path d="M1094 39H1091V3C1091.59 3 1093.54 3.04384 1096 4C1098.05 9.94941 1099.81 21.3187 1094 39V39Z" fill="#F8C6A1"/>
<path d="M1087 45H1095V49C1095 50.5267 1093.58 52 1092 52H1090C1088.42 52 1087 50.5267 1087 49V45Z" fill="#716658"/>
<path d="M1096 44H1087V46H1096V44Z" fill="#9A8477"/>
<path d="M1087 45L1086 39H1087L1088 45H1087Z" fill="#C0B39A"/>
<path d="M1095 45L1096 39H1095L1094 45H1095Z" fill="#C0B39A"/>
<path d="M661 167C661 167 640.763 150.494 627 148C613.237 145.506 604.213 153.658 591 152C577.787 150.342 566.031 143.731 552 144C537.969 144.284 512 167 512 167H661V167Z" fill="#ED9026"/>
<path d="M568 167L589 131L610 167H568Z" fill="#FDF7D3"/>
<path d="M595 167L624 117L653 167H595Z" fill="#FAD5B4"/>
<path d="M624 117L632 167H653L624 117Z" fill="#FDF7D3"/>
<path d="M589 131L585 167H568L589 131Z" fill="#FAD5B4"/>
<path d="M407 108C407.75 105.284 411.505 103.219 412 103C412 103 411.972 102.985 412 103C412.014 103 413 103 413 103C413.495 103.234 417.236 105.284 418 108C418.806 110.891 416 113 416 113H409C409 113 406.194 110.891 407 108V108Z" fill="#FAD5B4"/>
<path d="M359 121C361.453 114.962 371.896 111.045 372 111C372.12 111.045 381.563 114.962 384 121C386.453 127.068 380 135 380 135H363C363 135 356.533 127.068 359 121Z" fill="#F6B89A"/>
<path d="M359 143H382V133H359V143Z" fill="#E99978"/>
<path d="M351 167H390V136H351V167Z" fill="#FDF7D3"/>
<path d="M389 167H402V132H389V167Z" fill="#FAD5B4"/>
<path d="M391 132H401V129H391V132Z" fill="#E99978"/>
<path d="M340 167H353V132H340V167Z" fill="#FAD5B4"/>
<path d="M388 123C389.018 119.745 394.341 117.259 395 117V117C395 117 395.971 117 396 117C396.014 117 396 117 396 117V117C396.659 117.259 401.968 119.745 403 123C404.089 126.468 401 129 401 129H390C390 129 386.911 126.468 388 123V123Z" fill="#F6B89A"/>
<path d="M342 132H352V129H342V132Z" fill="#E99978"/>
<path d="M339 123C340.018 119.745 345.341 117.259 346 117V117C346 117 346.971 117 347 117C347.014 117 347 117 347 117V117C347.659 117.259 352.968 119.745 354 123C355.089 126.468 352 129 352 129H341C341 129 337.911 126.468 339 123V123Z" fill="#F6B89A"/>
<path d="M365 144C367.083 141.228 371.766 141.03 372 141C372.235 141.03 375.903 141.213 378 144C379.203 145.597 380 149 380 149V167H363V149C363 149 363.797 145.597 365 144V144Z" fill="#E99978"/>
<path d="M399 144H393V140C393 138.622 394.557 137 396 137V137C397.443 137 399 138.622 399 140V144Z" fill="#E99978"/>
<path d="M399 155H393V151C393 149.622 394.557 148 396 148V148C397.443 148 399 149.622 399 151V155Z" fill="#E99978"/>
<path d="M349 144H343V140C343 138.622 344.557 137 346 137V137C347.443 137 349 138.622 349 140V144Z" fill="#E99978"/>
<path d="M349 155H343V151C343 149.622 344.557 148 346 148V148C347.443 148 349 149.622 349 151V155Z" fill="#E99978"/>
<path d="M370 112H371V105H370V112Z" fill="#F6B89A"/>
<path d="M395 121H396V114H395V121Z" fill="#F6B89A"/>
<path d="M413 106H414V99H413V106Z" fill="#FAD5B4"/>
<path d="M346 119H347V112H346V119Z" fill="#F6B89A"/>
<path d="M409 167H418V123H409V167Z" fill="#FDF7D3"/>
<path d="M407 135H419V113H407V135Z" fill="#F6B89A"/>
<path d="M410 128H416V121C416 119.545 414.654 118 413 118C411.346 118 410 119.545 410 121V128Z" fill="#E99978"/>
<path d="M409 143H418V141H409V143Z" fill="#E99978"/>
<path d="M409 154H418V152H409V154Z" fill="#E99978"/>
<path d="M325 108C325.75 105.284 329.505 103.219 330 103C330 103 329.972 102.985 330 103C330.014 103 331 103 331 103C331.495 103.234 335.236 105.284 336 108C336.806 110.891 334 113 334 113H327C327 113 324.194 110.891 325 108V108Z" fill="#FAD5B4"/>
<path d="M331 106H332V99H331V106Z" fill="#FAD5B4"/>
<path d="M327 167H336V123H327V167Z" fill="#FDF7D3"/>
<path d="M325 135H337V113H325V135Z" fill="#F6B89A"/>
<path d="M328 128H334V121C334 119.545 332.654 118 331 118C329.346 118 328 119.545 328 121V128Z" fill="#E99978"/>
<path d="M327 143H336V141H327V143Z" fill="#E99978"/>
<path d="M327 154H336V152H327V154Z" fill="#E99978"/>
<path d="M1252 48C1252 50.2128 1250.92 52 1249 52C1247.08 52 1245 50.1973 1245 48C1245 45.8027 1247.06 44 1249 44C1250.94 44 1252 45.7872 1252 48Z" fill="#33ACC7"/>
<path d="M1253 46H1245V52H1253V46Z" fill="#33ACC7"/>
<path d="M1254 47H1244V49H1254V47Z" fill="#33ACC7"/>
<path d="M1232 51C1232.93 53.08 1232.1 57.072 1230 58C1227.92 58.928 1223.93 58.096 1223 56C1222.07 53.92 1222.9 49.928 1225 49C1227.08 48.072 1231.07 48.904 1232 51Z" fill="#33ACC7"/>
<path d="M1230.27 51.4462L1222 55L1224.51 60.4493L1232.78 56.8955L1230.27 51.4462Z" fill="#33ACC7"/>
<path d="M1232.11 51.6547L1222 56L1222.84 57.8163L1232.94 53.471L1232.11 51.6547Z" fill="#33ACC7"/>
<path d="M1211 63C1212.42 64.6015 1212.29 68.2317 1211 70C1209.71 71.7683 1207.42 71.6015 1206 70C1204.58 68.4152 1204.71 64.7683 1206 63C1207.29 61.2317 1209.58 61.3986 1211 63Z" fill="#33ACC7"/>
<path d="M1210.63 61.9816L1205 69L1209.22 73.2636L1214.86 66.2452L1210.63 61.9816Z" fill="#33ACC7"/>
<path d="M1211.89 61.4219L1205 70L1206.41 71.4212L1213.29 62.8431L1211.89 61.4219Z" fill="#33ACC7"/>
<path d="M1199 80C1201.02 80.7359 1202.65 83.7254 1202 86C1201.35 88.2746 1199.02 89.7359 1197 89C1194.98 88.2641 1193.35 85.2746 1194 83C1194.65 80.7254 1196.98 79.2641 1199 80Z" fill="#33ACC7"/>
<path d="M1197.43 80.333L1195 89L1200.61 91.1199L1203.04 82.4529L1197.43 80.333Z" fill="#33ACC7"/>
<path d="M1198.96 79.4063L1196 90L1197.87 90.7065L1200.83 80.1128L1198.96 79.4063Z" fill="#33ACC7"/>
<path d="M1195 104C1196.91 103.769 1198.8 105.812 1199 108C1199.2 110.188 1197.91 111.769 1196 112C1194.09 112.231 1192.2 110.188 1192 108C1191.8 105.812 1193.09 104.231 1195 104Z" fill="#33ACC7"/>
<path d="M1198.97 102.383L1193 103L1193.95 111.95L1199.92 111.333L1198.97 102.383Z" fill="#33ACC7"/>
<path d="M1195.99 101.793L1194 102L1195.16 112.938L1197.15 112.731L1195.99 101.793Z" fill="#33ACC7"/>
<path d="M1201 126C1202.83 124.955 1203.95 125.174 1205 127C1206.05 128.826 1205.83 129.955 1204 131C1202.17 132.06 1201.05 131.811 1200 130C1198.95 128.174 1199.17 127.045 1201 126V126Z" fill="#33ACC7"/>
<path d="M1204.3 123.181L1199 126L1203.78 133.628L1209.07 130.809L1204.3 123.181Z" fill="#33ACC7"/>
<path d="M1200.77 124.06L1199 125L1204.84 134.322L1206.6 133.382L1200.77 124.06Z" fill="#33ACC7"/>
<path d="M1215 144C1216.22 142.328 1217.31 141.779 1219 143C1220.67 144.221 1221.22 145.328 1220 147C1218.78 148.686 1217.69 149.221 1216 148C1214.33 146.779 1213.78 145.672 1215 144Z" fill="#33ACC7"/>
<path d="M1216.64 140.23L1213 145L1220.4 150.123L1224.04 145.353L1216.64 140.23Z" fill="#33ACC7"/>
<path d="M1214.21 142.41L1213 144L1222.04 150.26L1223.26 148.67L1214.21 142.41Z" fill="#33ACC7"/>
<path d="M1234 154C1234.45 151.882 1236.88 150.546 1239 151C1241.12 151.454 1242.45 153.897 1242 156C1241.55 158.118 1239.1 159.454 1237 159C1234.88 158.546 1233.55 156.118 1234 154V154Z" fill="#33ACC7"/>
<path d="M1235.19 150.119L1234 156L1242.78 157.972L1243.97 152.091L1235.19 150.119Z" fill="#33ACC7"/>
<path d="M1233.4 153.04L1233 155L1243.73 157.407L1244.13 155.447L1233.4 153.04Z" fill="#33ACC7"/>
<path d="M1257 156C1256.55 153.886 1257.88 151.453 1260 151C1262.12 150.547 1264.56 151.886 1265 154C1265.45 156.114 1264.12 158.547 1262 159C1259.88 159.453 1257.45 158.114 1257 156V156Z" fill="#33ACC7"/>
<path d="M1263.78 150.031L1255 152L1256.18 157.882L1264.97 155.913L1263.78 150.031Z" fill="#33ACC7"/>
<path d="M1265.73 152.592L1255 155L1255.39 156.961L1266.13 154.553L1265.73 152.592Z" fill="#33ACC7"/>
<path d="M1278 147C1276.78 145.327 1277.33 144.222 1279 143C1280.67 141.778 1281.78 142.327 1283 144C1284.22 145.673 1283.69 146.778 1282 148C1280.31 149.222 1279.22 148.673 1278 147Z" fill="#33ACC7"/>
<path d="M1282.31 139.749L1275 145L1278.55 149.837L1285.86 144.587L1282.31 139.749Z" fill="#33ACC7"/>
<path d="M1284.93 141.578L1276 148L1277.18 149.612L1286.11 143.19L1284.93 141.578Z" fill="#33ACC7"/>
<path d="M1294 132C1292.19 130.806 1291.95 129.084 1293 127C1294.05 124.916 1295.17 124.79 1297 126C1298.83 127.194 1299.05 128.916 1298 131C1296.94 133.084 1295.81 133.194 1294 132V132Z" fill="#33ACC7"/>
<path d="M1294.57 123.249L1290 131L1295.22 133.952L1299.8 126.202L1294.57 123.249Z" fill="#33ACC7"/>
<path d="M1297.59 123.525L1292 133L1293.74 133.984L1299.33 124.509L1297.59 123.525Z" fill="#33ACC7"/>
<path d="M1303 112C1300.81 111.769 1298.77 110.188 1299 108C1299.23 105.812 1300.81 103.769 1303 104C1305.19 104.231 1307.23 105.812 1307 108C1306.77 110.188 1305.19 112.231 1303 112Z" fill="#33ACC7"/>
<path d="M1298.95 102.05L1298 111L1303.97 111.62L1304.92 102.67L1298.95 102.05Z" fill="#33ACC7"/>
<path d="M1302.16 102.062L1301 113L1302.99 113.207L1304.15 102.268L1302.16 102.062Z" fill="#33ACC7"/>
<path d="M1301 89C1298.98 89.6553 1296.65 88.0254 1296 86C1295.35 83.9745 1296.98 81.6404 1299 81C1301.02 80.3447 1303.35 81.9745 1304 84C1304.65 86.0254 1303.02 88.3447 1301 89V89Z" fill="#33ACC7"/>
<path d="M1300.66 81.0062L1295 83L1297.58 91.6213L1303.24 89.6275L1300.66 81.0062Z" fill="#33ACC7"/>
<path d="M1299.89 80.3348L1298 81L1301.16 91.5369L1303.04 90.8717L1299.89 80.3348Z" fill="#33ACC7"/>
<path d="M1292 69C1290.57 70.4104 1288.29 70.5737 1287 69C1285.72 67.4263 1285.57 64.4104 1287 63C1288.43 61.5747 1290.72 61.4263 1292 63C1293.29 64.5737 1293.43 67.5896 1292 69Z" fill="#33ACC7"/>
<path d="M1288.26 60.7778L1284 65L1289.7 71.9643L1293.96 67.7421L1288.26 60.7778Z" fill="#33ACC7"/>
<path d="M1287.42 60.5924L1286 62L1292.97 70.5131L1294.39 69.1055L1287.42 60.5924Z" fill="#33ACC7"/>
<path d="M1277 54C1276.07 55.6329 1272.08 56.7285 1270 56C1267.92 55.2715 1267.07 52.6329 1268 51C1268.93 49.3545 1272.92 48.2589 1275 49C1277.1 49.7285 1277.93 52.3671 1277 54Z" fill="#33ACC7"/>
<path d="M1268.51 48.5505L1266 54L1274.27 57.5543L1276.78 52.1048L1268.51 48.5505Z" fill="#33ACC7"/>
<path d="M1266.84 49.1835L1266 51L1276.11 55.3443L1276.94 53.5278L1266.84 49.1835Z" fill="#33ACC7"/>
<path d="M1249 129C1234.66 129 1223 117.617 1223 103C1223 88.3829 1234.66 76 1249 76C1263.34 76 1275 88.3829 1275 103C1275 117.617 1263.34 129 1249 129ZM1249 79C1236.03 79 1225 89.7951 1225 103C1225 116.205 1236.04 126 1249 126C1261.96 126 1273 116.205 1273 103C1273 89.7951 1261.96 79 1249 79Z" fill="#77C0CB"/>
<path d="M1301 102C1300.9 102 1301 102.104 1301 102V101C1301 100.896 1300.9 101 1301 101C1301.1 101 1301 100.896 1301 101V102C1301 102.104 1301.1 102 1301 102ZM1198 102V101C1198 100.896 1198.1 101 1198 101C1197.9 101 1198 100.896 1198 101V102C1198 102.104 1197.9 102 1198 102C1198.1 102 1198 102.104 1198 102ZM1252 57C1252 57 1252.04 57.0595 1252 57L1250 51C1249.94 50.8661 1249.07 50.8661 1249 51L1246 57C1246 57 1245.97 56.9405 1246 57C1246.03 57.0595 1246.94 57 1247 57H1252C1252 57 1251.97 57.0595 1252 57V57ZM1249 52L1252 57H1247L1249 52ZM1240 58L1246 57C1246 57 1245.97 57.0743 1246 57C1246.03 56.9405 1246.01 57.0595 1246 57L1243 52C1243 52 1242.07 51 1242 51C1241.93 51 1242.03 51.9256 1242 52L1240 58C1240 58 1239.96 57.9554 1240 58C1240.04 58.0446 1239.94 58 1240 58C1240 58 1239.99 58 1240 58V58ZM1246 57L1241 58L1242 52L1246 57V57ZM1234 60L1240 58C1240 58 1239.99 58.0595 1240 58C1240.01 57.9405 1240.04 58.0446 1240 58L1236 53C1236 53 1235.07 52.9851 1235 53C1234.93 53.0149 1235.01 52.9256 1235 53L1234 60C1234 60 1233.94 59.9554 1234 60C1234.03 60.0297 1233.96 60 1234 60C1234.01 60 1233.97 60 1234 60V60ZM1240 58L1235 59L1236 54L1240 58ZM1229 62L1234 60C1234 60 1233.99 60.0595 1234 60C1234 59.9405 1234.06 60.0446 1234 60L1229 55C1229 55 1229.07 54.9702 1229 55C1228.93 55.0297 1229 55.9256 1229 56V62C1229 62 1228.94 61.9702 1229 62C1229.03 62.0297 1228.97 62 1229 62C1229.03 62 1228.99 62.0149 1229 62ZM1234 60L1229 62V56L1234 60ZM1224 66L1228 63C1228 63 1228 62.0595 1228 62C1228 61.9256 1228.06 62.0297 1228 62L1223 59C1223 59 1223.06 58.9554 1223 59C1222.94 59.0446 1221.99 58.9256 1222 59L1223 65C1223 65 1222.94 65.9702 1223 66C1223.03 66 1222.97 66 1223 66C1223.03 66 1223.97 66.0297 1224 66V66ZM1228 62L1224 65L1223 59L1228 62ZM1219 70L1223 66C1223 66 1223.01 66.0743 1223 66C1222.99 65.9256 1223.07 66.0297 1223 66L1217 63C1217 63 1217.06 62.9554 1217 63C1216.94 63.0446 1216.97 62.9256 1217 63L1218 69C1218 69 1218.93 69.9851 1219 70C1219.01 70 1218.99 70 1219 70C1219.04 70 1218.97 70.0446 1219 70V70ZM1223 66L1219 69L1217 63L1223 66ZM1215 74L1218 70C1218 70 1218.01 70.0595 1218 70C1217.99 69.9405 1218.06 70.0149 1218 70L1212 68C1211.93 67.9851 1212.06 67.9405 1212 68C1211.96 68.0595 1211.97 67.9256 1212 68L1214 74C1214 74 1213.93 73.9851 1214 74V74C1214.06 74 1214.96 74.0297 1215 74V74ZM1218 70L1215 74L1212 68L1218 70ZM1211 79L1214 74C1214 74 1214.03 74.0743 1214 74C1213.97 73.9405 1214.06 74.0149 1214 74L1208 73C1208 73 1207.04 72.9256 1207 73C1206.96 73.0595 1206.96 72.9405 1207 73L1211 79C1211 79 1210.93 79 1211 79C1211 79 1210.96 79.0595 1211 79V79ZM1214 74L1211 79L1208 74H1214ZM1208 85C1208 85 1207.97 85.0595 1208 85L1211 80C1211 80 1211.03 79.0595 1211 79C1210.97 78.9405 1211.07 79 1211 79H1204C1203.93 79 1204.03 78.9405 1204 79C1203.97 79.0743 1203.94 79.9405 1204 80L1208 85C1208 85 1207.94 85 1208 85C1208 85 1207.99 85 1208 85ZM1210 80L1208 84L1204 80H1210ZM1206 91C1206 91 1205.99 91.0743 1206 91L1208 85C1208 85 1208.03 85.0446 1208 85C1207.96 84.9554 1208.06 85 1208 85L1201 86C1200.93 86 1201.03 85.9256 1201 86C1200.97 86.0743 1200.96 85.9405 1201 86L1206 91C1206 91 1205.96 91 1206 91C1206.01 91 1205.99 91 1206 91V91ZM1208 85L1206 90L1202 86L1208 85ZM1205 97C1205 97 1204.99 97.0743 1205 97L1206 91C1206 91 1206.06 91.0446 1206 91C1205.96 90.9554 1206.06 90.9851 1206 91L1200 93C1200 93 1199 92.9256 1199 93C1199 93.0743 1199.94 92.9554 1200 93L1205 97C1205 97 1204.96 97 1205 97C1205.03 97 1204.97 97.0149 1205 97V97ZM1206 91L1205 96L1200 93L1206 91ZM1205 103C1205 103 1205 103.074 1205 103V97C1205 97 1205.06 97.0297 1205 97C1204.94 96.9554 1205.06 96.9702 1205 97L1199 100C1199 100 1199 99.9108 1199 100C1199 100.074 1198.94 99.9702 1199 100L1205 103C1205 103 1204.97 103 1205 103C1205.03 103 1204.97 103.03 1205 103V103ZM1205 97V102L1199 100L1205 97V97ZM1206 109C1206 109 1206 109.074 1206 109L1205 103C1205 103 1205.06 103.03 1205 103C1204.94 102.97 1205.06 102.97 1205 103L1199 107C1199 107 1198.99 106.926 1199 107C1199 107.074 1198.93 106.97 1199 107L1205 109C1205 109 1204.99 109 1205 109C1205.04 109 1205.97 109.045 1206 109V109ZM1205 104V109L1200 107L1205 104ZM1207 115C1207 115 1207.01 115.059 1207 115L1206 109C1206 109 1206.06 109.015 1206 109C1205.94 108.985 1205.04 108.97 1205 109L1200 114C1200 114 1199.97 113.926 1200 114C1200.01 114.074 1199.93 113.985 1200 114L1207 115C1207 115 1206.99 115 1207 115C1207.04 115 1206.96 115.045 1207 115V115ZM1205 110L1207 115L1201 114L1205 110V110ZM1209 121C1209 121 1209.01 121.074 1209 121L1207 115C1207 115 1207.07 115.015 1207 115C1206.93 114.985 1207.04 114.94 1207 115L1202 120C1202 120 1201.99 119.926 1202 120C1202.03 120.074 1202.93 121 1203 121H1209C1209.06 121 1208.96 121.059 1209 121V121ZM1207 116L1209 121L1203 120L1207 116V116ZM1206 127L1212 126C1212 126 1211.96 126.059 1212 126C1212.03 125.94 1212.03 126.059 1212 126L1210 121C1210 121 1209.07 121.015 1209 121C1208.94 121 1209.03 120.94 1209 121L1205 127C1205 127 1204.96 126.94 1205 127C1205.03 127.059 1205.94 127 1206 127C1206 127 1205.99 127 1206 127V127ZM1212 126H1206L1209 122L1212 126ZM1210 133L1216 131C1216 131 1215.99 131.059 1216 131C1216.03 130.94 1216.03 131.045 1216 131L1213 126C1213 126 1213.07 125.985 1213 126C1212.94 126 1212.04 125.94 1212 126L1209 132C1209 132 1208.96 132.94 1209 133C1209.04 133.045 1209.94 133 1210 133C1210.01 133 1209.99 133 1210 133V133ZM1216 131L1210 132L1213 127L1216 131ZM1214 138L1221 136C1221 136 1220.99 135.074 1221 135C1221 134.94 1221.06 135.045 1221 135L1217 131C1217 131 1216.06 130.985 1216 131C1215.94 131.015 1216.01 130.926 1216 131L1214 138C1214 138 1213.96 137.94 1214 138C1214.04 138.03 1213.96 138 1214 138C1214.01 138 1213.97 138 1214 138V138ZM1220 135L1215 137L1216 132L1220 135ZM1220 142L1226 139C1226 139 1226 139.074 1226 139C1226 138.926 1226.04 139.03 1226 139L1221 136C1221 136 1221.06 135.985 1221 136C1220.94 136.03 1221.01 135.926 1221 136L1219 142C1219 142 1219.93 141.955 1220 142C1220.03 142.03 1219.96 142 1220 142C1220.03 142 1219.97 142.03 1220 142V142ZM1225 139L1220 142L1221 136L1225 139ZM1226 146L1231 142C1231 142 1231.01 142.074 1231 142C1231 141.94 1231.06 142.045 1231 142L1226 139C1226 139 1226.06 138.97 1226 139C1225.94 139.03 1226.01 138.926 1226 139L1225 146C1225 146.074 1225.93 145.97 1226 146C1226.03 146 1225.97 146 1226 146C1226.04 146 1225.96 146.045 1226 146V146ZM1231 142L1226 146V140L1231 142V142ZM1232 149L1237 144C1237 144 1237.01 144.059 1237 144C1237 143.94 1237.06 144.03 1237 144L1232 142C1232 142 1231.04 141.97 1231 142C1230.94 142.045 1231 141.926 1231 142L1232 149C1232 149.074 1231.93 148.97 1232 149C1232.01 149 1231.99 149 1232 149C1232.04 149 1231.97 149.045 1232 149V149ZM1236 144L1232 148V142L1236 144V144ZM1239 151L1243 146C1243 146 1243.01 145.074 1243 145C1242.97 144.94 1243.07 145.015 1243 145L1237 144C1237 144 1237.04 143.94 1237 144C1236.96 144.045 1236.99 143.94 1237 144L1239 151C1239 151 1238.93 150.985 1239 151C1239 151 1238.99 151 1239 151C1239.06 151 1238.97 151.045 1239 151ZM1243 146L1239 150L1238 145L1243 146V146ZM1246 152L1249 146C1249 146 1249.03 146.059 1249 146C1248.97 145.94 1249.07 146.015 1249 146L1243 145C1243 145 1243.04 144.955 1243 145C1242.96 145.059 1242.99 145.926 1243 146L1246 152C1246 152 1245.93 152 1246 152C1246 152 1245.97 152.059 1246 152V152ZM1249 146L1246 151L1244 146H1249ZM1253 152C1253.07 152 1252.99 152.059 1253 152L1255 146C1255 146 1255.03 145.059 1255 145C1254.96 144.94 1255.07 144.985 1255 145L1250 146C1250 146 1249.03 145.94 1249 146C1248.97 146.059 1248.97 145.94 1249 146L1253 152C1253 152 1252.94 152 1253 152V152ZM1255 146L1253 151L1250 146H1255ZM1260 151C1260 151 1259.99 151.074 1260 151L1262 144C1262 144 1261.04 144.045 1261 144C1260.96 143.955 1261.06 143.985 1261 144L1256 145C1256 145 1256.01 144.94 1256 145C1255.97 145.059 1255.97 145.94 1256 146L1260 151C1260 151 1259.94 151 1260 151C1260 151 1259.99 151 1260 151V151ZM1261 145L1260 150L1256 146L1261 145V145ZM1267 149C1267 149 1266.99 149.074 1267 149V142C1267 142 1267.06 142.045 1267 142C1266.94 141.955 1267.07 141.97 1267 142L1262 144C1262 144 1262.01 143.94 1262 144C1262 144.059 1261.94 143.955 1262 144L1266 149C1266 149 1266.96 149 1267 149C1267.03 149 1266.97 149 1267 149V149ZM1267 143L1266 148L1262 144L1267 143V143ZM1273 146C1273 146 1273 146.074 1273 146V139C1273 139 1273.06 139.03 1273 139C1272.94 138.97 1273.06 138.97 1273 139L1268 142C1268 142 1267 141.926 1267 142C1267 142.074 1266.96 141.955 1267 142L1273 146C1273 146 1272.96 146 1273 146C1273.03 146 1272.97 146.03 1273 146V146ZM1272 140L1273 146L1268 142L1272 140ZM1279 142C1279 142 1279.01 142.074 1279 142L1278 136C1278 136 1278.06 136.03 1278 136C1277.94 135.97 1278.04 135.955 1278 136L1273 139C1273 139 1272.99 138.94 1273 139C1273 139.059 1272.94 138.955 1273 139L1279 142C1279 142 1278.97 143 1279 143C1279.04 143 1278.96 142.045 1279 142V142ZM1278 136L1279 142L1273 139L1278 136ZM1284 138C1284 138 1285.03 138.074 1285 138L1282 131C1282 131 1282.06 131.015 1282 131C1281.94 131 1282.04 130.955 1282 131L1278 135C1278 135 1277.99 134.94 1278 135C1278 135.059 1277.94 135.97 1278 136L1284 138C1284 138 1283.97 138 1284 138C1284.04 138 1283.97 138.045 1284 138V138ZM1282 132L1284 137L1278 135L1282 132ZM1289 133C1289 133 1289.04 133.074 1289 133L1286 127C1286 127 1286.07 126 1286 126C1285.93 126 1286.04 126.94 1286 127L1282 131C1282 131 1281.97 130.94 1282 131C1282.01 131.059 1281.94 130.985 1282 131L1289 133C1289 133 1288.99 133 1289 133C1289.06 133 1288.97 133.045 1289 133V133ZM1286 127L1289 132L1283 131L1286 127V127ZM1293 127C1293 127 1293.03 127.059 1293 127L1289 121C1289 121 1289.09 121.015 1289 121C1288.94 121 1289.03 120.955 1289 121L1286 126C1286 126 1285.97 125.94 1286 126C1286.03 126.059 1285.93 126 1286 126L1293 127V127C1293 127 1292.97 127.059 1293 127V127ZM1289 122L1293 127L1287 126L1289 122ZM1289 121H1296C1296.07 121 1295.97 121.059 1296 121C1296.03 120.926 1296.04 120.059 1296 120L1292 115C1292 115 1292.07 114.985 1292 115C1291.93 115 1291.03 114.94 1291 115L1289 121C1289 121 1288.96 120.955 1289 121C1289.03 121.059 1288.93 121 1289 121V121ZM1296 120L1290 121L1292 116L1296 120ZM1292 115L1298 114C1298.07 113.985 1297.99 114.074 1298 114C1298.01 113.926 1298.06 114.045 1298 114L1293 109C1293 109 1293.06 108.97 1293 109C1292.94 109.015 1293.01 109.94 1293 110L1292 115C1292 115 1291.96 114.955 1292 115C1292.04 115.045 1291.94 115 1292 115C1292 115 1291.99 115 1292 115V115ZM1298 114L1292 115L1293 110L1298 114V114ZM1293 109L1300 107C1300 107 1299.99 107.074 1300 107C1300 106.926 1300.06 107.045 1300 107L1294 103C1294 103 1294.06 102.955 1294 103C1293.94 103.03 1294 102.94 1294 103L1293 109C1293 109 1292.94 108.955 1293 109C1293.03 109.03 1292.96 109 1293 109C1293.01 109 1292.99 109 1293 109V109ZM1299 107L1293 109L1294 104L1299 107ZM1294 103L1300 100C1300 100 1300 100.074 1300 100C1300 99.9256 1300.07 100.03 1300 100L1294 97C1294 97 1294.06 96.9702 1294 97C1293.94 97.0446 1293 96.9405 1293 97L1294 103C1294 103 1293.96 102.97 1294 103C1294.03 103.015 1293.96 103 1294 103C1294.03 103 1293.97 103.03 1294 103V103ZM1299 100L1294 103V97L1299 100V100ZM1294 97L1299 93C1299 93 1299.01 93.0743 1299 93C1299 92.9256 1299.06 93.0149 1299 93L1293 91C1293 91 1292.04 90.9554 1292 91C1291.96 91.0446 1291.99 90.9405 1292 91L1293 97C1293 97 1293.94 96.9702 1294 97C1294.03 97 1293.97 97 1294 97C1294.04 97 1293.96 97.0297 1294 97V97ZM1299 93L1294 96L1293 91L1299 93ZM1293 91L1298 86C1298 86 1298.03 86.0743 1298 86C1297.97 85.9256 1297.07 86.0149 1297 86L1291 85C1291 85 1291.04 84.9405 1291 85C1290.96 85.0446 1290.97 84.9405 1291 85L1292 91C1292 91 1291.94 90.9851 1292 91C1292.01 91 1291.99 91 1292 91C1292.04 91 1292.96 91.0446 1293 91V91ZM1297 86L1293 90L1291 85L1297 86ZM1291 85L1295 80C1295 80 1295.03 79.0743 1295 79C1294.97 78.9256 1295.07 79 1295 79H1288C1288 79 1288.03 78.9405 1288 79C1287.97 79.0595 1287.96 79.9405 1288 80L1290 85C1290 85 1290.94 85 1291 85C1291 85 1290.99 85 1291 85C1291.06 85 1290.97 85.0446 1291 85ZM1294 80L1291 84L1288 80H1294ZM1288 79C1288 79 1287.97 79.0446 1288 79L1291 74C1291 74 1291.03 73.0595 1291 73C1290.96 72.9405 1291.07 73 1291 73L1285 74C1285 74 1284.03 73.9405 1284 74C1283.97 74.0595 1283.97 74.9405 1284 75L1288 79C1288 79 1287.93 79 1288 79V79ZM1291 74L1288 79L1285 75L1291 74V74ZM1284 74C1284 74 1283.97 74.0595 1284 74L1287 68C1287 68 1287.04 68.0595 1287 68C1286.96 67.9405 1287.06 67.9851 1287 68L1280 70C1280 70 1280.01 69.9405 1280 70C1279.99 70.0595 1279.96 69.9554 1280 70L1284 74C1284 74 1283.94 74 1284 74V74V74ZM1287 68L1284 74L1281 70L1287 68V68ZM1280 70C1280 70 1279.99 70.0595 1280 70L1282 63C1282 63 1282.06 63.0446 1282 63C1281.94 62.9554 1282.07 62.9702 1282 63L1276 66C1276 66 1276.01 65.9405 1276 66C1276 66.0595 1275.94 65.9554 1276 66L1280 70C1280 70 1279.96 70 1280 70C1280.01 70 1279.99 70 1280 70ZM1282 63L1280 69L1276 66L1282 63ZM1275 66C1275 66 1276 66.0595 1276 66V59C1276 58.9256 1276.06 59.0446 1276 59C1275.94 58.9554 1276.06 58.9554 1276 59L1270 62C1270 62 1270 61.9405 1270 62C1270 62.0743 1269.94 62.9702 1270 63L1275 66C1275 66 1274.97 66 1275 66C1275.03 66 1274.97 66.0149 1275 66V66ZM1276 59L1275 65L1271 62L1276 59ZM1270 62C1270 62 1270 62.0595 1270 62V56C1270 55.9256 1270.07 55.0297 1270 55C1269.93 54.9702 1270.06 54.9554 1270 55L1265 60C1265 60 1264.99 59.9256 1265 60C1265 60.0595 1264.94 59.9702 1265 60L1270 62C1270 62 1269.97 62 1270 62C1270.04 62 1269.97 62.0297 1270 62ZM1270 56V62L1265 60L1270 56ZM1265 60C1265 60 1265.01 60.0743 1265 60L1264 53C1264 53 1263.07 53.0149 1263 53C1262.93 52.9851 1263.04 52.9405 1263 53L1259 58C1259 58 1258.99 57.9405 1259 58C1259.01 58.0595 1258.94 57.9851 1259 58L1264 60C1264 60 1263.97 60 1264 60C1264.04 60 1264.96 60.0297 1265 60V60ZM1263 54L1264 59L1259 58L1263 54V54ZM1259 58C1259 58 1259.01 58.0595 1259 58L1257 52C1257 52 1256.07 52.0149 1256 52C1255.93 52 1256.04 51.9405 1256 52L1253 57C1253 57 1252.96 56.9256 1253 57C1253.03 57.0595 1252.94 57.9851 1253 58H1258C1258 58 1257.99 58 1258 58C1258.06 58 1258.97 58.0446 1259 58V58ZM1256 52L1258 58L1253 57L1256 52V52Z" fill="#34AEC9"/>
<path d="M1250 146C1225.46 146 1205 125.542 1205 101C1205 76.458 1225.46 57 1250 57C1274.54 57 1294 76.458 1294 101C1294 125.542 1274.54 146 1250 146ZM1250 59C1226.46 59 1207 77.4552 1207 101C1207 124.545 1226.46 144 1250 144C1273.54 144 1292 124.545 1292 101C1292 77.4552 1273.54 59 1250 59Z" fill="#34AEC9"/>
<path d="M1250 155C1221.06 155 1197 130.956 1197 102C1197 73.0437 1221.06 50 1250 50C1278.94 50 1302 73.0437 1302 102C1302 130.956 1278.94 155 1250 155ZM1250 53C1222.65 53 1200 75.6541 1200 103C1200 130.346 1222.65 152 1250 152C1277.35 152 1299 130.346 1299 103C1299 75.6541 1277.35 53 1250 53Z" fill="#F0F0F0"/>
<path d="M1249 102L1227 166H1271L1249 102ZM1249 110L1268 163H1230L1249 110Z" fill="#77C0CB"/>
<path d="M1266 102C1266 110.842 1258.84 118 1250 118C1241.16 118 1234 110.828 1234 102C1234 93.1724 1241.17 86 1250 86C1258.83 86 1266 93.1724 1266 102Z" fill="#F0F0F0"/>
<path d="M1250 120C1239.8 120 1231 112.197 1231 102C1231 91.8034 1239.8 83 1250 83C1260.2 83 1268 91.8034 1268 102C1268 112.197 1260.2 120 1250 120ZM1250 86C1241.31 86 1234 93.2941 1234 102C1234 110.706 1241.29 117 1250 117C1258.71 117 1265 110.691 1265 102C1265 93.309 1258.71 86 1250 86Z" fill="#33ACC7"/>
<path d="M1284 162H1215V167H1284V162Z" fill="#77C0CB"/>
<path d="M1062 102L1077 154H1111C1111 154 1111.81 112.723 1062 102V102Z" fill="#FDF7D3"/>
<path d="M1062 102C1062 102 1067.29 121.963 1054 154C1053.97 154.074 1076.98 154.074 1077 154C1081.19 132.157 1062 102 1062 102V102Z" fill="#808284"/>
<path d="M1045 122L1054 154H1075C1075 154 1075.5 128.61 1045 122Z" fill="#FAD5B4"/>
<path d="M1045 122C1045 122 1047.98 134.291 1040 154C1039.99 154.045 1054.99 154.045 1055 154C1057.52 140.558 1045 122 1045 122Z" fill="#808284"/>
<path d="M1119 129L1112 154H1095C1095 154 1094.6 134.159 1119 129Z" fill="#FAD5B4"/>
<path d="M1118 129C1118 129 1120.16 138.847 1122 154C1122 154.044 1111 154.03 1111 154C1113.39 143.632 1118 129 1118 129Z" fill="#808284"/>
<path d="M1038 138L1043 154H1054C1054 154 1054.28 141.301 1038 138Z" fill="#F6B89A"/>
<path d="M1037 138C1037 138 1038.73 144.145 1035 154C1035 154.029 1042 154.029 1042 154C1043.17 147.29 1037 138 1037 138V138Z" fill="#808284"/>
<path d="M1123 154H1035V167H1123V154Z" fill="#FAD5B4"/>
<path d="M1053 158H1045V167H1053V158Z" fill="#808284"/>
<path d="M1072 158H1064V167H1072V158Z" fill="#808284"/>
<path d="M1092 158H1084V167H1092V158Z" fill="#808284"/>
<path d="M1112 158H1104V167H1112V158Z" fill="#808284"/>
<path d="M1099 160C1099.07 156.467 1096.48 154 1093 154C1092.49 154 1091.47 153.897 1091 154C1090.44 151.044 1088.1 149 1085 149C1081.51 149 1079 151.482 1079 155C1079 155.133 1078.99 155.867 1079 156C1077.87 154.936 1075.67 154 1074 154C1070.51 154 1068 157.482 1068 161C1068 161.68 1067.81 161.379 1068 162C1067.97 162 1068 162 1068 162C1068 162 1068.14 162.965 1069 164C1069.73 164.946 1070.87 166.586 1072 167C1072.39 167.177 1072.52 166.867 1073 167H1095C1095 167 1098.9 164.966 1099 160V160Z" fill="#88BD43"/>
<path d="M1135 13H1128V7L1131 5L1135 7V13Z" fill="#E99978"/>
<path d="M1135 15H1130V15H1128C1128 15 1132.44 91.4246 1091 167H1113C1113 167 1117.64 150.985 1132 151C1146.32 151 1150 167 1150 167H1172C1130.56 91.4246 1135 15 1135 15V15ZM1131 127H1118C1118 127 1121.39 101 1131 101C1139.24 101 1145 127 1145 127H1131V127Z" fill="#E99978"/>
<path d="M1156 132H1107L1104 127H1159L1156 132Z" fill="#FAD5B4"/>
<path d="M1145 100H1116L1114 95H1147L1145 100Z" fill="#FAD5B4"/>
<path d="M1132 11C1131.21 10.9413 1126 11 1126 11V13L1129 18H1135L1138 13V11C1138 11 1132.79 10.9267 1132 11Z" fill="#FAD5B4"/>
<path d="M1132 0H1131V6H1132V0Z" fill="#E99978"/>
<path d="M1200 127L1222 138C1222 138 1214.98 122.548 1200 127Z" fill="#88BD43"/>
<path d="M1199 128L1208 144C1208 144 1209.6 131.503 1199 128Z" fill="#88BD43"/>
<path d="M1199 127L1222 118C1222 118 1206.55 109.56 1199 127Z" fill="#88BD43"/>
<path d="M1197 126L1200 106C1200 106 1186.75 113.493 1197 126Z" fill="#88BD43"/>
<path d="M1196 128L1176 132C1176 132 1184.3 119.51 1196 128Z" fill="#88BD43"/>
<path d="M1198 129C1198 129 1192.85 152.473 1193 167H1183C1183 167 1185.7 142.94 1198 129Z" fill="#9A8477"/>
<path d="M835 151H803V132C803 123.044 810.174 116 819 116C827.84 116 835 123.059 835 132V151V151Z" fill="#FDF7D3"/>
<path d="M837 148H801V153H837V148Z" fill="#FAD5B4"/>
<path d="M818 94L815 114H823L820 94H818Z" fill="#FDF7D3"/>
<path d="M825 113H813V117H825V113Z" fill="#FAD5B4"/>
<path d="M814.207 128.278L810 124L805.793 128.278L810 132.557L814.207 128.278Z" fill="#E99978"/>
<path d="M814.207 139.278L810 135L805.793 139.278L810 143.557L814.207 139.278Z" fill="#E99978"/>
<path d="M831.207 127.278L827 123L822.793 127.278L827 131.557L831.207 127.278Z" fill="#E99978"/>
<path d="M831.207 139.278L827 135L822.793 139.278L827 143.557L831.207 139.278Z" fill="#E99978"/>
<path d="M822.207 123.278L818 119L813.793 123.278L818 127.557L822.207 123.278Z" fill="#E99978"/>
<path d="M822.207 134.278L818 130L813.793 134.278L818 138.557L822.207 134.278Z" fill="#E99978"/>
<path d="M798 151H776V138C776 131.86 780.922 127 787 127C793.078 127 798 131.86 798 138V151Z" fill="#FDF7D3"/>
<path d="M800 148H775V152H800V148Z" fill="#FAD5B4"/>
<path d="M787 112L785 125H790L788 112H787Z" fill="#FDF7D3"/>
<path d="M791 125H783V128H791V125Z" fill="#FAD5B4"/>
<path d="M783.839 134.818L781 132L778.161 134.818L781 137.636L783.839 134.818Z" fill="#E99978"/>
<path d="M783.839 142.818L781 140L778.161 142.818L781 145.636L783.839 142.818Z" fill="#E99978"/>
<path d="M795.839 134.818L793 132L790.161 134.818L793 137.636L795.839 134.818Z" fill="#E99978"/>
<path d="M795.839 142.818L793 140L790.161 142.818L793 145.636L795.839 142.818Z" fill="#E99978"/>
<path d="M789.839 131.818L787 129L784.161 131.818L787 134.636L789.839 131.818Z" fill="#E99978"/>
<path d="M789.839 139.818L787 137L784.161 139.818L787 142.636L789.839 139.818Z" fill="#E99978"/>
<path d="M861 151H839V138C839 131.86 843.922 127 850 127C856.078 127 861 131.86 861 138V151Z" fill="#FDF7D3"/>
<path d="M863 148H838V152H863V148Z" fill="#FAD5B4"/>
<path d="M850 112L848 125H853L851 112H850Z" fill="#FDF7D3"/>
<path d="M854 125H846V128H854V125Z" fill="#FAD5B4"/>
<path d="M846.839 134.818L844 132L841.161 134.818L844 137.636L846.839 134.818Z" fill="#E99978"/>
<path d="M846.839 142.818L844 140L841.161 142.818L844 145.636L846.839 142.818Z" fill="#E99978"/>
<path d="M858.839 134.818L856 132L853.161 134.818L856 137.636L858.839 134.818Z" fill="#E99978"/>
<path d="M858.839 142.818L856 140L853.161 142.818L856 145.636L858.839 142.818Z" fill="#E99978"/>
<path d="M852.839 131.818L850 129L847.161 131.818L850 134.636L852.839 131.818Z" fill="#E99978"/>
<path d="M852.839 139.818L850 137L847.161 139.818L850 142.636L852.839 139.818Z" fill="#E99978"/>
<path d="M889 167C889 167 874.763 154.419 861 152C847.237 149.581 832.213 154.608 819 153C805.787 151.392 792.031 150.725 778 151C763.969 151.275 740 167 740 167H889V167Z" fill="url(#paint0_linear_20_194252)"/>
<path d="M756 127L778 138C778 138 770.975 122.548 756 127Z" fill="#88BD43"/>
<path d="M755 128L764 144C764 144 765.599 131.503 755 128Z" fill="#88BD43"/>
<path d="M755 127L778 118C778 118 762.55 109.56 755 127Z" fill="#88BD43"/>
<path d="M753 126L756 106C756 106 742.755 113.493 753 126Z" fill="#88BD43"/>
<path d="M752 128L732 132C732 132 740.309 119.51 752 128Z" fill="#88BD43"/>
<path d="M754 129C754 129 748.85 152.473 749 167H739C739 167 741.703 142.94 754 129Z" fill="#9A8477"/>
<path d="M205 135H158V159H205V135Z" fill="#FDF7D3"/>
<path d="M205 133H158V138H205V133Z" fill="#E99978"/>
<path d="M205 126L195 121H183H179H167L157 126L150 125L158 133H179H183H204L212 125L205 126Z" fill="#FDF7D3"/>
<path d="M198 114L197 118L196 121L194 128C193.329 128.685 183.282 128.074 182 128C180.524 128.06 169.671 128.685 169 128L167 121L166 118L165 114C165 114 172.949 116.313 179 111H184C190.066 116.313 198 114 198 114V114Z" fill="#FDF7D3"/>
<path d="M196 118L195 121H167L166 118H196Z" fill="#E99978"/>
<path d="M207 152H155V159H207V152Z" fill="#E99978"/>
<path d="M165 137H164V153H165V137Z" fill="#E99978"/>
<path d="M174 137H173V153H174V137Z" fill="#E99978"/>
<path d="M190 137H189V153H190V137Z" fill="#E99978"/>
<path d="M199 137H198V153H199V137Z" fill="#E99978"/>
<path d="M184 142H178V153H184V142Z" fill="#E99978"/>
<path d="M183 111H179L180 109C180 108.598 179.597 108 180 108H182C182.403 108 183 108.598 183 109V111V111Z" fill="#E99978"/>
<path d="M181 106V106C181.365 106 182 106.705 182 107V108H180V107C180 106.705 180.635 106 181 106Z" fill="#E99978"/>
<path d="M287 86V89H260H210V86H262H287Z" fill="#868686"/>
<path d="M287 89L285 93L283 96H253H244H214L212 93L210 89H260H287Z" fill="#F6B89A"/>
<path d="M228 96H219V100H228V96Z" fill="#F6B89A"/>
<path d="M226 146V161H221V100H226V110V146Z" fill="#F6B89A"/>
<path d="M277 96H268V100H277V96Z" fill="#F6B89A"/>
<path d="M275 100H270V161H275V100Z" fill="#F6B89A"/>
<path d="M283 105V110H250H226H213V105H283Z" fill="#F6B89A"/>
<path d="M230 163H217L219 153V153H228L230 163Z" fill="#868686"/>
<path d="M279 163H266L268 153H277V153L279 163Z" fill="#868686"/>
<path d="M289 92H206L209 89H259H286L289 92Z" fill="#868686"/>
<path d="M223 137H211V141H223V137Z" fill="#F6B89A"/>
<path d="M223 150H211V154H223V150Z" fill="#F6B89A"/>
<path d="M221 131H203L212 126L221 131Z" fill="#868686"/>
<path d="M214 131H209V159H214V131Z" fill="#F6B89A"/>
<path d="M218 130H206V134H218V130Z" fill="#F6B89A"/>
<path d="M218 167H206L208 158V157H216L218 167Z" fill="#868686"/>
<path d="M285 137H273V141H285V137Z" fill="#F6B89A"/>
<path d="M285 150H273V154H285V150Z" fill="#F6B89A"/>
<path d="M293 131H275L284 126L293 131Z" fill="#868686"/>
<path d="M286 157V159H281V131H286V134V157Z" fill="#F6B89A"/>
<path d="M290 130H278V134H290V130Z" fill="#F6B89A"/>
<path d="M290 167H278L280 157H288L290 167Z" fill="#868686"/>
<path d="M252 104V107H243V96H252V104Z" fill="#868686"/>
<g style="mix-blend-mode:soft-light" opacity="0.6">
<path d="M217 157L219 167H206L208 158C208.433 157.788 209.552 157.212 210 157C210.046 156.985 209.954 157.03 210 157C211.932 156.014 213.176 155.032 215 154V157H217V157Z" fill="#868686"/>
</g>
<g style="mix-blend-mode:soft-light" opacity="0.6">
<path d="M228 153L230 163H217L220 153H216C217.737 151.97 219.505 151 221 150C221.332 149.776 221.668 150.224 222 150C223.797 148.746 224.807 147.149 226 146V153H228V153Z" fill="#868686"/>
</g>
<g style="mix-blend-mode:soft-light" opacity="0.6">
<path d="M288 157L290 167H278L280 157H281V153H276L279 163H266L268 153H270V110H250C250.402 109.244 250.612 107.756 251 107C251.402 106.244 251.612 105.756 252 105C252.075 104.867 252.925 105.148 253 105V105H270V100H268V96H257C257.522 94.9182 257.493 94.0818 258 93C258.537 91.8589 259.478 90.1559 260 89C260.164 88.6592 259.836 88.3408 260 88C260.283 87.3924 260.732 86.9484 261 86H286V89L290 93H285L283 96H277V100H275V105H283V110H275V137H281V134H278V130H275L284 126L293 130H290V134H287V157H288V157Z" fill="#868686"/>
</g>
<path d="M187 75.0126L175 75.0001L174.992 83.0001L186.992 83.0126L187 75.0126Z" fill="#97C5CB"/>
<path d="M206.728 108.069L197 98.0001L184.768 109.806L194.496 119.875L206.728 108.069Z" fill="#97C5CB"/>
<path d="M201.079 115.4L197.68 111.733C197.126 111.136 196.166 111.773 195.533 112.359L192.598 115.077C191.965 115.663 191.257 116.572 191.811 117.17L195.21 120.836C195.764 121.433 196.724 120.797 197.357 120.211L200.292 117.492C200.925 116.906 201.633 115.997 201.079 115.4Z" fill="#9FCED5"/>
<path d="M181 46.0001L178 56.0001H180H183L181 46.0001Z" fill="#9FCED5"/>
<path d="M167 52.0001L172 61.0001L174 59.0001L176 57.0001L167 52.0001Z" fill="#9FCED5"/>
<path d="M163 66.0001L173 68.0001V65.0001L172 63.0001L163 66.0001Z" fill="#9FCED5"/>
<path d="M199 66.0001L190 63.0001L189 65.0001V68.0001L199 66.0001Z" fill="#9FCED5"/>
<path d="M194 52.0001L185 57.0001L187 59.0001L189 61.0001L194 52.0001Z" fill="#9FCED5"/>
<path d="M191 64C191 69.5232 186.523 74.0146 181 74C175.477 74 170.986 69.5232 171 64C171 58.4768 175.477 53.9855 181 54C186.523 54 191.015 58.4768 191 64Z" fill="#9FCED5"/>
<path d="M183 80H180C175.999 80 172.985 76.8921 173 73V65C173 60.4324 177.305 56.9854 182 57C186.695 57 190.015 60.4471 190 65V73C190 76.8921 187.001 80.0147 183 80V80Z" fill="#BCE2EC"/>
<path d="M169 83.0001L186 83.0179C191.223 83.0233 194.996 86.8389 194.991 92.0273L194.985 97.0273L168.985 97.0001L169 83.0001Z" fill="#9FCED5"/>
<path d="M196 97.0294L168 97.0001L167.94 154L195.94 154.029L196 97.0294Z" fill="#C4C3C4"/>
<path d="M176 83.0001L171 72.0001L170 69.0001H166C161.521 69.0001 158 72.9634 158 78.0001C158 83.5449 160.682 88.3098 165 91.0001V95.0001C165 97.9145 167.395 100 170 100V102H180L176 83.0001V83.0001Z" fill="#9FCED5"/>
<path d="M164 78.0001C161.516 78.0001 160 75.5294 160 73.0001V51.0001H169V73.0001C169 75.5444 166.469 78.0001 164 78.0001V78.0001Z" fill="#BCE2EC"/>
<path d="M167 43.0084L161 43.0022C159.864 43.001 158.999 43.7765 158.998 45.0001L158.991 52.0001C158.989 53.2236 159.852 54.001 160.988 54.0021L166.988 54.0084C168.125 54.0096 168.989 53.234 168.991 52.0105L168.998 45.0105C168.999 43.787 168.136 43.0096 167 43.0084Z" fill="#BCE2EC"/>
<path d="M170 39.0137L158 39.0011C157.424 39.0005 157 39.4292 156.999 40.0001L156.997 42.0001C156.996 42.571 157.42 43.0005 157.996 43.0011L169.996 43.0137C170.571 43.0143 170.996 42.5856 170.997 42.0147L170.999 40.0147C171 39.4438 170.576 39.0143 170 39.0137Z" fill="#BCE2EC"/>
<path d="M168 32.0001L164 23.0001L160 32.0001C159.452 32.8508 159 33.891 159 35.0001C159 37.917 161.233 40.0001 164 40.0001C166.767 40.0001 169 37.917 169 35.0001C169 33.8151 168.634 32.8812 168 32.0001V32.0001Z" fill="#BCE2EC"/>
<path d="M187 83.0001L168 100L166 113L168 116L165 126L168 130L166 151L168 154H195V97.0001V93.0001C195 88.0974 191.672 83.5943 187 83.0001V83.0001Z" fill="#BCE2EC"/>
<path d="M174 110C173.756 110 173.198 110.178 173 110C172.573 109.614 172.619 108.416 173 108L190 90C190.396 89.5843 191.573 89.6289 192 90C192.427 90.3861 192.381 91.5843 192 92L175 110C174.786 110.223 174.29 110 174 110Z" fill="#9FCED5"/>
<path d="M178 135C177.753 135 177.201 135.172 177 135C176.568 134.627 176.614 133.402 177 133L190 120C190.401 119.598 191.568 119.641 192 120C192.432 120.374 192.386 121.598 192 122L179 135C178.784 135.216 178.293 135 178 135Z" fill="#9FCED5"/>
<path d="M171 128C170.756 128 170.198 128.178 170 128C169.573 127.614 169.619 126.416 170 126L187 108C187.396 107.584 188.573 107.629 189 108C189.427 108.386 189.381 109.584 189 110L172 128C171.786 128.223 171.29 128 171 128Z" fill="#9FCED5"/>
<path d="M164 86.0001C163.411 86.0001 163 85.5616 163 85.0001C163 84.4386 163.411 84.0001 164 84.0001C169.225 84.0001 169.969 80.4138 170 80.0001C170.062 79.4386 170.411 78.941 171 79.0001C171.589 79.0444 172.047 79.4386 172 80.0001C171.814 82.0393 169.861 86.0149 164 86.0001Z" fill="#97C5CB"/>
<path d="M173 66.0001C177.419 66.0001 181 62.5811 181 58.0001V57.0001H173V66.0001V66.0001Z" fill="#9FCED5"/>
<path d="M189 66.0001C184.581 66.0001 180.986 62.5663 181 58.0001V57.0001H189V66.0001V66.0001Z" fill="#9FCED5"/>
<path d="M199 154.037L164 154L163.986 167L198.986 167.037L199 154.037Z" fill="#97C5CB"/>
<path d="M1209.65 71.6184L1165 66.0001L1152.8 162.229L1197.44 167.848L1209.65 71.6184Z" fill="white"/>
<path d="M1210.62 63.9929L1164.98 58.2498C1164.05 58.1322 1162.87 59.0637 1162.75 59.9842L1162.37 62.9603C1162.25 63.8808 1163.17 65.0765 1164.1 65.1941L1209.74 70.9373C1210.68 71.0549 1211.86 70.1233 1211.98 69.2029L1212.36 66.2267C1212.47 65.3062 1211.56 64.1105 1210.62 63.9929Z" fill="#D2D2D2"/>
<path d="M1206.75 40.9954L1175.99 37.1249C1175.41 37.052 1174.95 37.4269 1174.87 37.9921L1174.25 42.9524C1174.17 43.5176 1174.53 43.9964 1175.11 44.0693L1205.87 47.9398C1206.45 48.0127 1206.92 47.6378 1206.99 47.0726L1207.62 42.1123C1207.69 41.5471 1207.33 41.0683 1206.75 40.9954Z" fill="#D2D2D2"/>
<path d="M1204.77 47.7457L1175 44.0001L1173.11 58.8809L1202.88 62.6265L1204.77 47.7457Z" fill="white"/>
<path d="M1204.62 113.993L1158.98 108.25C1158.05 108.132 1156.87 109.064 1156.75 109.984L1156.37 112.96C1156.25 113.881 1157.17 115.077 1158.1 115.194L1203.74 120.937C1204.68 121.055 1205.86 120.123 1205.98 119.203L1206.36 116.227C1206.47 115.306 1205.56 114.111 1204.62 113.993Z" fill="#D2D2D2"/>
<path d="M1207.62 89.9929L1161.98 84.2498C1161.05 84.1322 1159.87 85.0637 1159.75 85.9842L1159.37 88.9603C1159.25 89.8808 1160.17 91.0765 1161.1 91.1941L1206.74 96.9373C1207.68 97.0549 1208.86 96.1233 1208.98 95.2029L1209.36 92.2267C1209.47 91.3062 1208.56 90.1105 1207.62 89.9929Z" fill="#D2D2D2"/>
<path d="M1201.62 139.993L1155.98 134.25C1155.05 134.132 1153.87 135.064 1153.75 135.984L1153.37 138.96C1153.25 139.881 1154.17 141.077 1155.1 141.194L1200.74 146.937C1201.68 147.055 1202.86 146.123 1202.98 145.203L1203.36 142.227C1203.47 141.306 1202.56 140.111 1201.62 139.993Z" fill="#D2D2D2"/>
<path d="M1171 74C1169.35 73.7997 1168.21 75.3975 1168 77L1167 84L1173 85L1174 77C1174.21 75.3975 1172.65 74.2003 1171 74Z" fill="#8A8A8A"/>
<path d="M1181 75C1179.35 74.7997 1178.21 76.3975 1178 78L1177 85L1183 86L1184 78C1184.21 76.3975 1182.65 75.2003 1181 75Z" fill="#8A8A8A"/>
<path d="M1191 77C1189.35 76.7997 1188.21 78.3975 1188 80L1187 87L1193 88L1194 80C1194.21 78.3975 1192.65 77.2003 1191 77Z" fill="#8A8A8A"/>
<path d="M1189 50C1187.35 49.7997 1186.21 51.3975 1186 53L1185 60L1191 61L1192 53C1192.21 51.3975 1190.65 50.2003 1189 50Z" fill="#8A8A8A"/>
<path d="M1180 49C1178.35 48.7997 1177.21 50.3975 1177 52L1176 59L1182 60L1183 52C1183.21 50.3975 1181.65 49.2003 1180 49Z" fill="#8A8A8A"/>
<path d="M1198 51C1196.35 50.7997 1195.21 52.3975 1195 54L1194 61L1200 62L1201 54C1201.21 52.3975 1199.65 51.2003 1198 51Z" fill="#8A8A8A"/>
<path d="M1201 78C1199.35 77.7997 1198.21 79.3975 1198 81L1197 88L1203 89L1204 81C1204.21 79.3975 1202.65 78.2003 1201 78Z" fill="#8A8A8A"/>
<path d="M1168 98C1166.35 97.7997 1165.21 99.3975 1165 101L1164 108L1170 109L1171 101C1171.21 99.3975 1169.65 98.2003 1168 98Z" fill="#8A8A8A"/>
<path d="M1178 99C1176.35 98.7997 1175.21 100.398 1175 102L1174 109L1180 110L1181 102C1181.21 100.398 1179.65 99.2003 1178 99Z" fill="#8A8A8A"/>
<path d="M1188 101C1186.35 100.8 1185.21 102.398 1185 104L1184 111L1190 112L1191 104C1191.21 102.398 1189.65 101.2 1188 101Z" fill="#8A8A8A"/>
<path d="M1198 102C1196.35 101.8 1195.21 103.398 1195 105L1194 112L1200 113L1201 105C1201.21 103.398 1199.65 102.2 1198 102Z" fill="#8A8A8A"/>
<path d="M1165 124C1163.35 123.8 1162.21 125.398 1162 127L1161 134L1167 135L1168 127C1168.21 125.398 1166.65 124.2 1165 124Z" fill="#8A8A8A"/>
<path d="M1175 126C1173.35 125.8 1172.21 127.398 1172 129L1171 136L1177 137L1178 129C1178.21 127.398 1176.65 126.2 1175 126Z" fill="#8A8A8A"/>
<path d="M1184 127C1182.35 126.8 1181.21 128.398 1181 130L1180 137L1186 138L1187 130C1187.21 128.398 1185.65 127.2 1184 127Z" fill="#8A8A8A"/>
<path d="M1194 128C1192.35 127.8 1191.21 129.398 1191 131L1190 138L1196 139L1197 131C1197.21 129.398 1195.65 128.2 1194 128Z" fill="#8A8A8A"/>
<path d="M1162 151C1160.35 150.8 1159.21 152.398 1159 154L1158 161L1164 162L1165 154C1165.21 152.398 1163.65 151.2 1162 151Z" fill="#8A8A8A"/>
<path d="M1171 153C1169.35 152.8 1168.21 154.398 1168 156L1167 163L1173 164L1174 156C1174.21 154.398 1172.65 153.2 1171 153Z" fill="#8A8A8A"/>
<path d="M1181 154C1179.35 153.8 1178.21 155.398 1178 157L1177 164L1183 165L1184 157C1184.21 155.398 1182.65 154.2 1181 154Z" fill="#8A8A8A"/>
<path d="M1191 155C1189.35 154.8 1188.21 156.398 1188 158L1187 165L1193 166L1194 158C1194.21 156.398 1192.65 155.2 1191 155Z" fill="#8A8A8A"/>
<path d="M569 115H577C580.551 115 583 117.447 583 121V140C583 141.289 582.288 142 581 142H565C563.712 142 563 141.289 563 140V121C563 117.447 565.449 115 569 115Z" fill="#868686"/>
<path d="M561 129H563V139H561C560.194 139 560 138.813 560 138V131C560 130.172 560.209 129 561 129V129Z" fill="#4C4B4B"/>
<path d="M583 129H585C585.806 129 586 130.187 586 131V138C586 138.828 585.791 139 585 139H583V129V129Z" fill="#4C4B4B"/>
<path d="M581 122H565V125H581V122Z" fill="#656666"/>
<path d="M577 139H570C569.18 139 569 137.828 569 137C569 136.172 569.18 136 570 136H577C577.82 136 578 136.172 578 137C578 137.828 577.82 139 577 139Z" fill="#656666"/>
<path d="M575 125H571V134H575V125Z" fill="#656666"/>
<path d="M571 128H568C566.103 128 565 126.661 565 125H571V128Z" fill="#4C4B4B"/>
<path d="M575 128H578C579.897 128 581 126.661 581 125H575V128Z" fill="#4C4B4B"/>
<path d="M569 142H578C582.551 142 586 145.606 586 150V167H561V150C561 145.606 564.449 142 569 142V142Z" fill="#656666"/>
<path d="M542 97.0305L551 97.0609C555.794 97.0771 559.986 101.22 559.97 106.091L559.886 132.091C559.882 133.376 559.144 134.089 557.879 134.084L534.879 134.007C533.615 134.002 532.882 133.285 532.886 132L532.971 106C532.986 101.128 537.206 97.0142 542 97.0305Z" fill="#656666"/>
<path d="M531 116.007L533 116.013L532.957 129.013L530.957 129.007C529.889 129.003 528.96 128.072 528.964 127L528.993 118C528.997 116.928 529.931 116.003 531 116.007V116.007Z" fill="#4C4B4B"/>
<path d="M560 117L562 117.007C563.068 117.01 563.997 117.941 563.993 119.013L563.964 128.013C563.96 129.086 563.026 130.01 561.957 130.007L559.957 130L560 117V117Z" fill="#4C4B4B"/>
<path d="M558 107.074L536 107L535.987 111L557.987 111.074L558 107.074Z" fill="#868686"/>
<path d="M551 130H543C541.906 130 541 129.083 541 128C541 126.902 541.921 126 543 126H551C552.093 126 553 126.917 553 128C553 129.098 552.078 130 551 130Z" fill="#868686"/>
<path d="M549 111.017L544 111L543.957 124L548.957 124.017L549 111.017Z" fill="#868686"/>
<path d="M544 116H541C538.48 115.985 536 113.755 536 111H544V116V116Z" fill="#4C4B4B"/>
<path d="M549 116H552C554.515 116.016 556.986 113.757 557 111H549V116V116Z" fill="#4C4B4B"/>
<path d="M541 134.034L552 134.071C557.643 134.09 561.983 139.302 561.964 145.105L561.893 167.105L530.893 167L530.964 145C530.983 139.198 535.357 134.015 541 134.034Z" fill="#4C4B4B"/>
<path d="M520 167H493V82H520V167Z" fill="#F6B89A"/>
<path d="M507 42L506 37L505 42L497 45V49H515V45L507 42Z" fill="#F6B89A"/>
<path d="M522 50H491L494 47H519L522 50Z" fill="#F6B89A"/>
<path d="M522 89H491V50H522V89Z" fill="#F6B89A"/>
<path d="M525 53H488V84H525V53Z" fill="#E99978"/>
<path d="M520 69C520 76.4478 514.462 82 507 82C499.538 82 493 76.4625 493 69C493 61.5375 499.538 55 507 55C514.462 55 520 61.5375 520 69Z" fill="#F0F0F0"/>
<path d="M509 69C509 70.1092 508.109 71 507 71C505.891 71 505 70.1092 505 69C505 67.8908 505.891 67 507 67C508.109 67 509 67.8908 509 69Z" fill="#F6B89A"/>
<path d="M508 56H507V58H508V56Z" fill="#F6B89A"/>
<path d="M508 80H507V82H508V80Z" fill="#F6B89A"/>
<path d="M520 69H518V70H520V69Z" fill="#F6B89A"/>
<path d="M496 69H494V70H496V69Z" fill="#F6B89A"/>
<path d="M516.415 60.5868L515 62L515.706 62.7081L517.121 61.2949L516.415 60.5868Z" fill="#F6B89A"/>
<path d="M499.416 76.588L498 78L498.706 78.7087L500.122 77.2967L499.416 76.588Z" fill="#F6B89A"/>
<path d="M515.706 77.292L515 78L516.415 79.4135L517.121 78.7055L515.706 77.292Z" fill="#F6B89A"/>
<path d="M498.707 60.2928L498 61L499.414 62.4144L500.121 61.7072L498.707 60.2928Z" fill="#F6B89A"/>
<path d="M499 91H496V97H499V91Z" fill="#E99978"/>
<path d="M505 91H502V97H505V91Z" fill="#E99978"/>
<path d="M511 91H508V97H511V91Z" fill="#E99978"/>
<path d="M517 91H514V97H517V91Z" fill="#E99978"/>
<path d="M499 104H496V110H499V104Z" fill="#E99978"/>
<path d="M505 104H502V110H505V104Z" fill="#E99978"/>
<path d="M511 104H508V110H511V104Z" fill="#E99978"/>
<path d="M517 104H514V110H517V104Z" fill="#E99978"/>
<path d="M499 116H496V122H499V116Z" fill="#E99978"/>
<path d="M505 116H502V122H505V116Z" fill="#E99978"/>
<path d="M511 116H508V122H511V116Z" fill="#E99978"/>
<path d="M517 116H514V122H517V116Z" fill="#E99978"/>
<path d="M499 129H496V135H499V129Z" fill="#E99978"/>
<path d="M505 129H502V135H505V129Z" fill="#E99978"/>
<path d="M511 129H508V135H511V129Z" fill="#E99978"/>
<path d="M517 129H514V135H517V129Z" fill="#E99978"/>
<path d="M499 142H496V148H499V142Z" fill="#E99978"/>
<path d="M505 142H502V148H505V142Z" fill="#E99978"/>
<path d="M511 142H508V148H511V142Z" fill="#E99978"/>
<path d="M517 142H514V148H517V142Z" fill="#E99978"/>
<path d="M499 154H496V160H499V154Z" fill="#E99978"/>
<path d="M505 154H502V160H505V154Z" fill="#E99978"/>
<path d="M511 154H508V160H511V154Z" fill="#E99978"/>
<path d="M517 154H514V160H517V154Z" fill="#E99978"/>
<path d="M516 99H496V101H516V99Z" fill="#E99978"/>
<path d="M516 112H496V114H516V112Z" fill="#E99978"/>
<path d="M516 125H496V127H516V125Z" fill="#E99978"/>
<path d="M516 138H496V140H516V138Z" fill="#E99978"/>
<path d="M516 150H496V152H516V150Z" fill="#E99978"/>
<path d="M309 58V62C301.677 65.9079 267 88.9143 267 160H309V165H312V58H309V58Z" fill="#F0F0F0"/>
<path d="M284 160C284.834 117.043 295 88 295 88H282C272.824 102.996 265 125.869 265 160H284Z" fill="#33ACC7"/>
<path d="M322 157H258V167H322V157Z" fill="#F0F0F0"/>
<path d="M294 147H313V143H294C293.866 144.314 294.119 145.657 294 147Z" fill="#33ACC7"/>
<path d="M294 139H313V135H294C293.83 136.31 294.155 137.648 294 139Z" fill="#33ACC7"/>
<path d="M295 131H313V127H296C295.799 128.31 295.201 129.634 295 131Z" fill="#33ACC7"/>
<path d="M293 155H313V151H293C292.894 152.314 293.106 153.657 293 155Z" fill="#33ACC7"/>
<path d="M304 88C303.636 89.2254 303.409 90.5634 303 92H313V88H304V88Z" fill="#33ACC7"/>
<path d="M301 100H313V96H302C301.665 97.2676 301.35 98.6056 301 100V100Z" fill="#33ACC7"/>
<path d="M298 116H313V112H299C298.73 113.3 298.255 114.643 298 116Z" fill="#33ACC7"/>
<path d="M296 123H313V119H297C296.766 120.314 296.234 121.643 296 123Z" fill="#33ACC7"/>
<path d="M299 108H313V104H300C299.69 105.286 299.31 106.629 299 108Z" fill="#33ACC7"/>
<path d="M285 103H272C271.469 104.298 270.485 105.622 270 107H284C284.349 105.595 284.651 104.258 285 103V103Z" fill="#78CADB"/>
<path d="M282 113H268C267.62 114.298 267.351 115.635 267 117H281C281.263 115.622 281.722 114.284 282 113V113Z" fill="#78CADB"/>
<path d="M287 94H275C274.32 95.2843 273.65 96.6221 273 98H286C286.438 96.5017 286.622 95.1773 287 94V94Z" fill="#78CADB"/>
<path d="M281 122H266C265.707 123.298 265.262 124.635 265 126H280C280.216 124.635 280.754 123.298 281 122Z" fill="#78CADB"/>
<path d="M278 150H263C262.955 151.311 263.015 152.649 263 154H278C278.06 152.649 277.91 151.324 278 150Z" fill="#78CADB"/>
<path d="M278 140H263C262.883 141.311 263.088 142.649 263 144H278C278.102 142.649 277.868 141.311 278 140Z" fill="#78CADB"/>
<path d="M279 131H265C264.813 132.311 264.159 133.635 264 135H279C279.159 133.635 278.827 132.311 279 131Z" fill="#78CADB"/>
<path d="M1458 184C1457.14 174.195 1448.45 166 1437.74 166C1435.43 166 1433.4 167.333 1431.34 168C1431.34 167.733 1431.34 167.282 1431.34 167C1431.34 156.468 1422.34 148 1411.07 148C1409.99 148 1408.9 147.852 1407.87 148C1408.46 145.449 1408.94 142.714 1408.94 140C1408.94 119.56 1390.28 103 1368.41 103C1354.74 103 1343.52 109.166 1336.41 119C1334.49 118.674 1332.03 119 1330.01 119C1312.66 119 1298.23 131.099 1296.95 147C1285.54 147.682 1276.84 156.468 1275.62 167H1225.49C1221.85 156.543 1212.29 149 1199.89 149C1189.45 149 1180.15 154.064 1175.36 162C1172.95 161.273 1170.58 161 1167.89 161C1161.56 161 1155.21 163.366 1150.83 167H1114.56C1112.39 163.025 1107.93 160 1102.83 160C1101.21 160 1099.99 160.496 1098.57 161C1097.76 149.564 1087.55 140 1075.1 140C1062.66 140 1051.64 149.866 1051.64 162C1051.64 161.985 1051.64 162.03 1051.64 162C1050.16 161.466 1047.99 162 1046.3 162C1042.29 162 1039.12 163.36 1036.71 166C1036.29 159.577 1030.89 154 1023.91 154C1022.38 154 1020.99 154.555 1019.64 155C1016.29 148.592 1008.58 144 1000.44 144C990.458 144 982.082 151.204 980.177 160C978.907 159.614 978.374 159 976.977 159C971.47 159 966.115 162.491 964.178 167H541.817C539.452 164.834 535.805 163 532.218 163C529.948 163 528.742 164.051 526.885 165C526.917 164.6 526.885 163.415 526.885 163C526.885 152.365 516.934 144 505.554 144C495.57 144 487.194 151.204 485.289 160C484.019 159.614 483.486 159 482.089 159C476.581 159 471.227 162.491 469.29 167H459.691C459.691 166.807 459.691 166.193 459.691 166C459.691 159.221 454.146 154 446.892 154C445.083 154 443.131 154.377 441.56 155C438.163 148.711 431.475 144 423.428 144C413.301 144 404.909 150.996 403.163 160C400.973 158.457 398.649 158 395.697 158C389.602 158 384.374 161.719 382.898 167H254.91C254.815 160.295 249.301 155 242.111 155C240.762 155 239.083 154.644 237.845 155C235.924 143.786 225.853 135 213.314 135C210.695 135 208.229 135.303 205.848 136C203.086 128.554 195.554 124 186.65 124C184.507 124 182.187 124.422 180.25 125C175.028 101.282 152.775 83 125.855 83C95.0625 83 70.3936 106.223 70.3936 135C70.3936 140.34 70.9236 145.164 72.5267 150C71.2886 149.822 70.6127 150 69.327 150C58.6607 150 49.529 156.234 45.8625 165C41.7991 163.383 36.6953 163 31.9971 163C17.1087 163 4.58715 171.555 0 184H1458Z" fill="white"/>
<defs>
<linearGradient id="paint0_linear_20_194252" x1="814.493" y1="150.943" x2="814.493" y2="167" gradientUnits="userSpaceOnUse">
<stop stop-color="#F9EB47"/>
<stop offset="0.08" stop-color="#E6E346"/>
<stop offset="0.25" stop-color="#C4D545"/>
<stop offset="0.43" stop-color="#AACA44"/>
<stop offset="0.62" stop-color="#97C343"/>
<stop offset="0.8" stop-color="#8BBE43"/>
<stop offset="1" stop-color="#88BD43"/>
</linearGradient>
</defs>
</svg>
