<svg width="42" height="42" viewBox="0 0 42 42" fill="none" xmlns="http://www.w3.org/2000/svg">
<path d="M20.9999 37.1501C29.9194 37.1501 37.15 29.9194 37.15 21C37.15 12.0805 29.9194 4.84991 20.9999 4.84991C12.0805 4.84991 4.84985 12.0805 4.84985 21C4.84985 29.9194 12.0805 37.1501 20.9999 37.1501Z" fill="url(#paint0_linear_20_193351)"/>
<g style="mix-blend-mode:multiply" opacity="0.5">
<path d="M20.9999 35.6467C12.3369 35.6467 5.25175 28.8145 4.86474 20.2408C4.86474 20.4938 4.84985 20.7469 4.84985 20.9999C4.84985 29.9308 12.0839 37.1501 20.9999 37.1501C29.916 37.1501 37.15 29.916 37.15 20.9999C37.15 20.7469 37.15 20.4938 37.1351 20.2408C36.7332 28.8145 29.6629 35.6467 20.9999 35.6467Z" fill="#828282"/>
</g>
<path d="M25.7036 16.1475C26.2872 16.1475 26.7604 15.6744 26.7604 15.0907C26.7604 14.5071 26.2872 14.0339 25.7036 14.0339C25.1199 14.0339 24.6467 14.5071 24.6467 15.0907C24.6467 15.6744 25.1199 16.1475 25.7036 16.1475Z" fill="white"/>
<path d="M20.9701 15.3885C18.5141 15.3885 16.5046 17.3979 16.5046 19.8539C16.5046 22.3099 18.5141 24.3194 20.9701 24.3194C23.4261 24.3194 25.4356 22.3099 25.4356 19.8539C25.4356 17.3979 23.4261 15.3885 20.9701 15.3885ZM20.9701 22.7267C19.3923 22.7267 18.1122 21.4465 18.1122 19.8687C18.1122 18.2909 19.3923 17.0109 20.9701 17.0109C22.5479 17.0109 23.828 18.2909 23.828 19.8687C23.828 21.4465 22.5479 22.7267 20.9701 22.7267Z" fill="white"/>
<path d="M24.5276 28.9336H17.2936C14.2868 28.9336 11.8457 26.4926 11.8457 23.4858V16.2517C11.8457 13.245 14.2868 10.8039 17.2936 10.8039H24.5276C27.5343 10.8039 29.9755 13.245 29.9755 16.2517V23.4858C29.9755 26.4926 27.5343 28.9336 24.5276 28.9336ZM17.2787 12.5008C15.2097 12.5008 13.5426 14.1827 13.5426 16.2368V23.4709C13.5426 25.5399 15.2246 27.207 17.2787 27.207H24.5127C26.5817 27.207 28.2488 25.525 28.2488 23.4709V16.2368C28.2488 14.1678 26.5668 12.5008 24.5127 12.5008H17.2787Z" fill="white"/>
<defs>
<linearGradient id="paint0_linear_20_193351" x1="32.0296" y1="9.53865" x2="7.14211" y2="35.3937" gradientUnits="userSpaceOnUse">
<stop stop-color="#F8DB85"/>
<stop offset="0.21" stop-color="#F5B63C"/>
<stop offset="0.38" stop-color="#E95271"/>
<stop offset="0.52" stop-color="#E3398C"/>
<stop offset="0.74" stop-color="#7E4698"/>
<stop offset="1" stop-color="#4E53A2"/>
</linearGradient>
</defs>
</svg>
