<svg width="205" height="62" viewBox="0 0 205 62" fill="none" xmlns="http://www.w3.org/2000/svg">
<path d="M92.546 46.3694C92.546 46.8177 92.3973 47.1763 92.1146 47.4602C91.8021 47.789 91.4004 47.9534 90.8796 47.9534H81.3126C80.7323 47.9534 80.286 47.7741 79.9735 47.4005C79.6611 47.0717 79.5122 46.6384 79.5122 46.1004V34.9079C79.5122 34.4596 79.6611 34.071 79.9735 33.7422C80.286 33.4284 80.6281 33.279 81.0299 33.279H90.9689C91.445 33.279 91.8319 33.4583 92.1146 33.8319C92.3973 34.1905 92.546 34.6239 92.546 35.132V46.3544V46.3694ZM91.1474 35.0722C91.1474 34.9377 91.0879 34.8032 90.954 34.6687C90.8201 34.5342 90.4928 34.4595 90.3291 34.4595H81.5358C81.387 34.4595 81.2531 34.5342 81.134 34.6687C81.015 34.8032 80.9555 34.9377 80.9555 35.0573V46.205C80.9555 46.3694 81.0299 46.5188 81.1638 46.6533C81.2977 46.7729 81.4614 46.8476 81.6251 46.8476H90.5374C90.9392 46.8476 91.1474 46.6234 91.1474 46.1901V35.102V35.0722Z" fill="white"/>
<path d="M83.827 41.6471C83.574 42.4391 82.7855 43.7989 82.0713 44.7703V46.4439C82.9045 45.622 84.0055 44.0381 84.4668 42.9173C84.4668 42.9173 84.4668 44.2921 84.4668 44.591C84.4668 45.7117 84.809 46.429 85.9695 46.429C86.8176 46.429 87.1003 46.429 87.1003 46.429L87.4425 45.2784C87.4425 45.2784 86.6242 45.2784 86.3862 45.2784C85.9547 45.2784 85.7315 45.1289 85.7315 44.7404C85.7315 44.5909 85.7315 41.6471 85.7315 41.6471H83.8121H83.827Z" fill="white"/>
<path d="M86.6692 36.8205V36.1182H89.7937V35.1169H86.6692V34.1457H85.3003V35.1169H82.3543V36.1182H85.3003V36.8205H81.9229V37.8665H90.2252V36.8205H86.6692Z" fill="white"/>
<path d="M89.9421 38.7482C89.7635 38.554 89.5552 38.4793 89.2874 38.4942H82.711C82.5027 38.4942 82.3093 38.5839 82.1605 38.7334C82.0117 38.8828 81.9373 39.0919 81.9522 39.3161V40.7058C81.9373 40.9598 82.0117 41.199 82.1605 41.3932C82.2944 41.5875 82.473 41.6622 82.711 41.6772H89.2874C89.5255 41.6622 89.719 41.5726 89.8975 41.3932C90.0909 41.199 90.1802 40.9598 90.1802 40.7058V39.3161C90.1802 39.077 90.0909 38.8827 89.9421 38.7482ZM89.0047 40.0932C89.0047 40.4668 88.9601 40.5714 88.5882 40.5714H83.574C83.1872 40.5714 83.1425 40.407 83.1425 40.0932V39.8541C83.1425 39.4955 83.2616 39.6 83.574 39.6H88.5882C88.9453 39.6 89.0047 39.5702 89.0047 39.8541V40.0782V40.0932Z" fill="white"/>
<path d="M69.0676 41.4378C69.0676 44.5012 68.2046 46.3542 66.4787 48.0428H64.5146C66.6423 46.1898 67.6987 44.292 67.6987 41.3033V33.204H69.0676V41.4378Z" fill="white"/>
<path d="M74.2005 48.0428H72.8019C70.5849 48.0428 70.2129 46.5932 70.2129 45.2184V33.204H71.5669V45.0391C71.5669 45.9357 71.8943 46.7577 72.8763 46.7577H74.617L74.2005 48.0577V48.0428Z" fill="white"/>
<path d="M156.614 37.5228V42.2897C157.016 42.0955 157.343 41.9311 158.37 41.3184V42.7231C156.272 43.9335 154.873 44.6209 153.37 45.2335V43.7841C153.951 43.5749 154.561 43.3208 155.156 42.992V37.5228H153.385V36.2526H155.156V33.4582H156.614V36.2526H158.444V37.5228H156.614Z" fill="white"/>
<path d="M157.403 45.8315C158.578 44.4866 159.025 41.9611 159.129 40.6311C159.218 39.2862 160.468 39.4506 160.468 39.4506H167.312V40.7058H160.513C160.513 40.7058 160.111 45.5027 157.418 47.5948V45.8315H157.403ZM160.438 38.7632C160.215 38.7483 160.007 38.6437 159.873 38.4793C159.709 38.2551 159.635 38.0011 159.65 37.7321V34.2055C159.635 33.9664 159.709 33.7572 159.873 33.5929C160.036 33.3986 160.215 33.3239 160.438 33.3239H165.914C166.196 33.3089 166.434 33.4135 166.628 33.5929C166.791 33.7274 166.866 33.9515 166.881 34.2055V37.7321C166.881 38.0011 166.777 38.2402 166.568 38.4643C166.39 38.6586 166.167 38.7483 165.914 38.7782H160.438V38.7632ZM165.601 35.4458V34.9975C165.601 34.8631 165.571 34.7285 165.512 34.6388C165.438 34.5342 165.304 34.4894 165.155 34.4894H161.405C161.227 34.4894 161.108 34.5193 161.063 34.609C160.989 34.7136 160.929 34.8481 160.959 34.9975V35.4458H165.631H165.601ZM160.929 36.6263V37.0896C160.929 37.224 160.959 37.3585 161.033 37.4482C161.093 37.5378 161.227 37.5827 161.376 37.5827H165.125C165.274 37.5827 165.393 37.5378 165.467 37.4482C165.527 37.3585 165.557 37.239 165.571 37.0896V36.6263H160.899H160.929Z" fill="white"/>
<path d="M73.7839 36.7608C73.0102 37.508 72.4151 37.7918 71.2694 38.3746L71.2396 36.7309C72.0431 36.3424 72.6532 35.9987 73.8137 34.9975L73.7839 36.7758V36.7608Z" fill="white"/>
<path d="M73.8286 43.2461C72.8912 42.6334 72.3407 42.3495 71.4033 41.4828L71.3735 39.7344C72.1621 40.4816 73.0549 41.1242 73.8137 41.6323V43.2311L73.8286 43.2461Z" fill="white"/>
<path d="M65.6155 35.117C66.5235 36.0136 67.1486 36.5068 68.0119 36.8505L67.9821 38.3746C67.1188 37.9861 66.4193 37.5527 65.6453 36.8056V35.117H65.6155Z" fill="white"/>
<path d="M65.6749 41.6921C66.4787 41.2139 66.9848 40.6759 67.8333 39.7793V41.5575C67.0146 42.2898 66.4936 42.7979 65.66 43.291V41.6921H65.6749Z" fill="white"/>
<path d="M62.0603 37.6424C61.8667 40.9897 61.5244 43.8588 61.0183 46.4291H59.8126C60.408 43.4404 60.7801 40.5862 60.929 37.6424H62.0454H62.0603Z" fill="white"/>
<path d="M63.577 36.5812V48.0428H62.2379V36.5812H60.5269V35.2213H62.2379V33.204H63.577V35.2213H65.2583V36.5812H63.577Z" fill="white"/>
<path d="M65.7059 45.7566H64.5746C63.9643 41.692 63.8304 39.7942 63.7709 37.6424H64.8723C64.8723 40.8402 65.4677 44.2921 65.7059 45.7566Z" fill="white"/>
<path d="M148.505 46.713C145.425 44.7255 145.634 41.8713 145.634 40.1678H144.25C144.25 42.1253 144.562 46.2498 148.505 48.1625V46.7279V46.713Z" fill="white"/>
<path d="M148.505 41.0046L148.193 40.1528H146.898L147.151 40.8552H141.527C141.08 40.8552 140.723 41.1988 140.723 41.7368V44.1875C140.723 44.86 140.411 46.0555 139.607 46.6233H139.637V48.2223C141.408 47.4751 142.062 45.5175 142.062 44.1875V42.1553C142.062 42.1553 147.166 42.1553 147.746 42.1553C148.326 42.1553 148.758 41.7069 148.505 41.0195" fill="white"/>
<path d="M144.057 35.5802C143.967 35.371 143.699 35.2366 143.491 35.2366C143.283 35.2366 142.316 35.2366 142.316 35.2366L143.938 33.2341H142.346L140.649 35.2963C140.486 35.4756 140.426 35.7446 140.53 35.9688C140.634 36.1929 140.858 36.2826 141.096 36.2826H142.271L140.367 38.3896C140.188 38.5689 140.129 38.8679 140.233 39.107C140.322 39.346 140.62 39.4954 140.873 39.4954H143.833L144.161 38.3299H142.063C142.063 38.3299 143.595 36.6712 143.863 36.4022C144.131 36.1332 144.146 35.8044 144.057 35.5802Z" fill="white"/>
<path d="M148.237 35.5802C148.148 35.371 147.88 35.2366 147.672 35.2366C147.464 35.2366 146.496 35.2366 146.496 35.2366L148.118 33.2341H146.526L144.83 35.2963C144.666 35.4756 144.607 35.7446 144.711 35.9688C144.815 36.1929 145.038 36.2826 145.276 36.2826H146.452L144.547 38.3896C144.354 38.5689 144.309 38.8679 144.413 39.107C144.503 39.346 144.8 39.4954 145.053 39.4954H148.193L148.52 38.3299H146.244C146.244 38.3299 147.776 36.6712 148.044 36.4022C148.312 36.1332 148.327 35.8044 148.237 35.5802Z" fill="white"/>
<path d="M148.089 42.4692C146.854 44.083 145.113 45.6819 143.179 46.5187V48.058C144.979 47.2211 147.33 45.4578 148.089 44.3072V42.4542V42.4692Z" fill="white"/>
<path d="M136.841 37.717C136.648 41.0195 136.305 43.8737 135.799 46.4589H134.594C135.189 43.4703 135.561 40.616 135.71 37.717H136.826H136.841Z" fill="white"/>
<path d="M138.358 36.6412V48.0729H137.019V36.6412H135.308V35.2962H137.019V33.1593H138.358V35.2962H140.024V36.6412H138.358Z" fill="white"/>
<path d="M140.323 44.9796H139.191C138.73 41.7219 138.596 39.824 138.551 37.717H139.653C139.653 40.8701 140.248 44.322 140.337 44.9796" fill="white"/>
<path d="M160.349 41.438H166.315C166.746 41.438 167.297 41.8863 167.297 42.5587V45.6968V45.6072C167.297 47.4601 166.136 48.028 164.901 48.028H164.574L164.217 46.7876H164.753C165.392 46.7876 165.898 46.5038 165.898 45.652V45.5025V43.0518C165.898 42.8127 165.72 42.5587 165.437 42.5587H164.946C164.649 44.3519 163.875 46.7578 163.116 47.9533H161.584C162.446 46.713 163.324 44.2473 163.592 42.5587H162.536C162.03 44.5014 161.271 46.8026 160.259 47.9533H158.712C159.977 46.4739 160.869 44.2025 161.167 42.5587H160.006C159.739 42.5587 159.515 42.4691 159.352 42.2898" fill="white"/>
<path d="M143.744 45.6222L141.229 44.5462V43.2014L143.744 44.2623V45.6222Z" fill="white"/>
<path d="M88.9304 46.3693C88.1121 45.5474 87.0855 44.2175 86.9218 43.5002C86.7135 42.5887 87.4128 42.1553 88.1419 42.1553C88.5287 42.1553 90.1059 42.1553 90.1059 42.1553V43.291C90.1059 43.291 88.9602 43.291 88.6924 43.291C88.3651 43.291 88.0228 43.5749 88.6477 44.3071C88.9007 44.606 89.719 45.652 90.5523 46.3693H88.9304Z" fill="white"/>
<path d="M104.896 45.5922V44.2025C107.023 42.4093 107.618 39.6897 107.856 38.2551H109.121C108.615 41.3484 107.485 44.2772 104.881 45.5922M109.597 46.3693H108.094C106.369 43.7991 104.672 40.0632 104.479 34.1307H105.848C106.011 39.6896 107.455 42.7979 109.597 46.3693ZM100.477 37.3286V35.9986H107.752C107.693 35.7296 107.574 35.0273 107.574 35.0273H108.928C108.928 35.0273 109.136 36.0435 109.21 36.3872C109.329 36.9401 108.883 37.3435 108.288 37.3435H100.462L100.477 37.3286ZM104.464 45.7417C103.437 46.0705 102.307 46.2797 100.477 46.3693V45.0094C102.024 44.9945 103.17 44.8003 104.464 44.4117V45.7268V45.7417Z" fill="white"/>
<path d="M129.728 41.692V43.0518H126.202C126.202 43.0518 126.202 44.4864 126.202 45.8164C126.202 47.1464 125.547 48.1027 124.357 48.1027C124.163 48.1027 123.092 48.0877 123.092 48.0877L122.809 46.8176H123.94C124.476 46.8176 124.759 46.6383 124.759 45.8164C124.759 44.9945 124.759 43.0668 124.759 43.0668H121.515V41.707H129.728V41.692ZM127.288 37.6872C127.779 36.8354 128.002 36.2227 128.151 35.5801C128.329 34.8479 127.958 34.6238 127.571 34.6238H126.514V33.3686H128.419C129.133 33.4582 129.579 33.9663 129.49 35.2962C129.445 35.9388 128.895 37.717 128.359 38.6585L127.288 37.6872ZM125.547 36.6412C124.625 38.3298 123.33 39.5252 121.322 40.8402V39.1666C122.527 38.3597 124.625 36.7308 124.699 34.8629C124.699 34.6985 124.61 34.5939 124.446 34.5939H123.509C123.211 35.8193 122.155 36.7607 121.322 37.2538V35.6848C121.961 35.102 122.423 34.2801 122.586 33.3985H124.997C125.726 33.4881 126.127 33.8467 126.157 34.4594C126.157 34.7284 126.127 34.9825 126.068 35.2514L125.547 36.6412ZM125.458 34.2801C126.083 36.2526 128.627 38.5689 129.743 39.1816V40.8253C127.749 39.6298 125.934 37.7022 124.878 36.1929L125.458 34.2801ZM128.627 43.6346C128.657 44.5163 129.044 45.2486 129.743 45.8164V47.52C128.389 46.7429 127.571 45.4577 127.288 43.6197H128.642L128.627 43.6346ZM123.539 43.6346C123.256 45.4577 122.423 46.7428 121.083 47.5348V45.8314C121.783 45.2486 122.155 44.5313 122.199 43.6496H123.553L123.539 43.6346Z" fill="white"/>
<path d="M111.249 46.3543C111.249 46.8026 111.1 47.1612 110.817 47.4452C110.505 47.7739 110.103 47.9383 109.583 47.9383H100.015C99.4352 47.9383 98.9888 47.759 98.6763 47.3854C98.3639 47.0567 98.2151 46.6233 98.2151 46.0853V34.8928C98.2151 34.4445 98.3639 34.0559 98.6763 33.7272C98.9888 33.4133 99.331 33.2639 99.7328 33.2639H109.672C110.148 33.2639 110.535 33.4432 110.817 33.8168C111.1 34.1755 111.249 34.6088 111.249 35.1169V46.3394V46.3543ZM109.835 35.0422C109.835 34.9077 109.776 34.7732 109.642 34.6387C109.508 34.5042 109.181 34.4295 109.017 34.4295H100.224C100.075 34.4295 99.9411 34.5042 99.822 34.6387C99.703 34.7732 99.6435 34.9077 99.6435 35.0272V46.175C99.6435 46.3394 99.7179 46.4888 99.8518 46.6233C99.9857 46.7428 100.149 46.8176 100.313 46.8176H109.225C109.627 46.8176 109.835 46.5934 109.835 46.1451V35.0571V35.0422Z" fill="white"/>
<path d="M104.033 38.4344C103.824 38.2402 103.556 38.1355 103.229 38.1355H101.726C101.384 38.1355 101.087 38.255 100.849 38.4792C100.596 38.7183 100.477 39.0022 100.477 39.316V42.484C100.477 42.7978 100.566 43.0818 100.744 43.306C100.982 43.6347 101.265 43.799 101.592 43.799H103.095C103.542 43.799 103.899 43.6646 104.137 43.4106C104.375 43.1864 104.479 42.8577 104.479 42.4542V39.4356C104.479 39.0172 104.33 38.6735 104.048 38.4344M103.244 42.4392C103.244 42.6634 103.14 42.7829 102.932 42.7829H102.024C102.024 42.7829 101.875 42.7381 101.816 42.6485C101.741 42.5588 101.712 42.4542 101.712 42.3496V39.5701C101.712 39.3011 101.845 39.1666 102.113 39.1666H102.932C102.932 39.1666 103.08 39.2115 103.155 39.2862C103.214 39.3759 103.244 39.4505 103.244 39.5402V42.4392Z" fill="white"/>
<path d="M128.598 39.4655H122.408V40.8553H128.598V39.4655Z" fill="white"/>
<path d="M120.414 44.1278C120.117 44.337 119.849 44.4565 119.417 44.4565H117.632L117.185 43.2311H118.911C119.179 43.2311 119.373 43.1863 119.507 43.0817C119.64 42.9622 119.73 42.7978 119.76 42.5736C119.923 41.408 119.685 40.2126 118.569 38.4344C119.135 36.9998 119.313 35.9238 119.566 34.833C119.611 34.6237 119.536 34.5192 119.358 34.5192H118.465C118.272 34.5192 118.182 34.6387 118.182 34.8629V47.9832H116.769V34.5789C116.769 34.1755 116.903 33.8468 117.185 33.5927C117.424 33.3835 117.721 33.2639 118.078 33.2639H119.819C120.206 33.2639 120.533 33.3984 120.756 33.6674C121.009 33.9513 121.099 34.3099 120.994 34.7283C120.712 36.0135 120.489 37.0894 119.998 38.3297C121.114 40.4368 121.277 41.8713 121.009 43.2162C120.92 43.5898 120.712 43.8887 120.384 44.1278" fill="white"/>
<path d="M124.328 37.5079L122.482 35.6549L122.959 34.5939L124.804 36.4469L124.328 37.5079Z" fill="white"/>
<path d="M123.167 39.1217L121.337 37.2538L121.798 36.1928L123.644 38.0608L123.167 39.1217Z" fill="white"/>
<path d="M67.9366 54.2446C68.0557 54.2446 68.1895 54.2445 68.3532 54.2594C68.5169 54.2594 68.6806 54.3043 68.8591 54.3491C69.0377 54.3939 69.2162 54.4537 69.3798 54.5434C69.5435 54.6181 69.7072 54.7377 69.8411 54.8722C69.975 55.0067 70.0941 55.171 70.1685 55.3802C70.2577 55.5745 70.2875 55.8136 70.2875 56.0975V59.4448L69.9452 59.5644C69.7221 59.6541 69.4245 59.7437 69.0525 59.8483C68.6955 59.9529 68.2491 60.0127 67.7581 60.0127C67.6391 60.0127 67.5051 60.0127 67.3415 59.9977C67.1778 59.9977 67.0142 59.9529 66.8356 59.9081C66.6571 59.8632 66.4785 59.8035 66.3148 59.7138C66.1363 59.6391 65.9875 59.5195 65.8536 59.385C65.7197 59.2505 65.6156 59.0862 65.5263 58.877C65.437 58.6827 65.4072 58.4436 65.4072 58.1597C65.4072 57.8758 65.4519 57.6366 65.5263 57.4424C65.6156 57.2481 65.7197 57.0838 65.8536 56.9344C65.9875 56.7999 66.1363 56.6952 66.3148 56.6056C66.4934 56.5308 66.6571 56.4561 66.8356 56.4113C67.0142 56.3665 67.1778 56.3366 67.3415 56.3216C67.5051 56.3216 67.6391 56.3067 67.7581 56.3067C68.0557 56.3067 68.3235 56.3217 68.5615 56.3665C68.8145 56.4113 69.0377 56.4561 69.2311 56.5159V56.0676C69.2311 56.0676 69.2311 55.9331 69.2162 55.8434C69.2162 55.7538 69.1567 55.6641 69.0674 55.5894C68.9782 55.4998 68.8591 55.44 68.6657 55.3653C68.4871 55.3055 68.2342 55.2756 67.892 55.2756C67.4754 55.2756 67.1183 55.2756 66.8356 55.3055C66.5529 55.3354 66.3446 55.3503 66.1958 55.3802L66.1066 54.4687C66.2554 54.4238 66.419 54.3939 66.5975 54.3491C66.7612 54.3192 66.9397 54.2893 67.1629 54.2744C67.3861 54.2445 67.6241 54.2446 67.892 54.2446H67.9366ZM67.773 58.9666C68.1301 58.9666 68.4425 58.9368 68.6806 58.8919C68.9335 58.8471 69.1121 58.7873 69.2609 58.7424V57.5919C69.127 57.5321 68.9335 57.4872 68.6806 57.4424C68.4276 57.3975 68.1301 57.3677 67.773 57.3677C67.4457 57.3677 67.1778 57.3976 66.9993 57.4573C66.8207 57.5171 66.6868 57.5919 66.5975 57.6815C66.5082 57.7712 66.4636 57.8459 66.4488 57.9505C66.4488 58.0402 66.4339 58.1148 66.4339 58.1746C66.4339 58.2344 66.4339 58.3091 66.4488 58.3988C66.4488 58.4884 66.5082 58.5781 66.5975 58.6528C66.6868 58.7424 66.8058 58.8022 66.9993 58.862C67.1778 58.9218 67.4308 58.9517 67.773 58.9517V58.9666Z" fill="white"/>
<path d="M73.7841 54.2446C73.7841 54.2446 73.9627 54.2446 74.1115 54.2446C74.2603 54.2446 74.4239 54.2894 74.6025 54.3342C74.781 54.394 74.9744 54.4687 75.1679 54.5882C75.3613 54.7078 75.525 54.8722 75.6887 55.0814C75.8375 55.2906 75.9713 55.5595 76.0754 55.8883C76.1796 56.2171 76.2243 56.6205 76.2243 57.0987C76.2243 57.5769 76.1796 57.9804 76.0754 58.3091C75.9713 58.6379 75.8523 58.9068 75.6887 59.116C75.5399 59.3252 75.3613 59.4896 75.1679 59.6092C74.9744 59.7287 74.7959 59.8034 74.6025 59.8632C74.4239 59.923 74.2603 59.9379 74.1115 59.9529C73.9627 59.9529 73.8585 59.9529 73.7841 59.9529C73.7097 59.9529 73.5908 59.9529 73.4568 59.9529C73.3081 59.9529 73.1444 59.923 72.9658 59.8632C72.7873 59.8184 72.5938 59.7287 72.4004 59.6092C72.207 59.4896 72.0434 59.3252 71.8797 59.116C71.7309 58.9068 71.597 58.6379 71.4928 58.3091C71.3887 57.9804 71.344 57.5769 71.344 57.0987C71.344 56.6205 71.3887 56.2171 71.4928 55.8883C71.597 55.5595 71.716 55.2906 71.8797 55.0814C72.0434 54.8722 72.207 54.7078 72.4004 54.5882C72.5938 54.4687 72.7724 54.394 72.9658 54.3342C73.1444 54.2745 73.3081 54.2446 73.4568 54.2446C73.6056 54.2446 73.7097 54.2446 73.7841 54.2446ZM73.7841 58.9666C73.9032 58.9666 74.0519 58.9516 74.2156 58.9218C74.3793 58.8919 74.528 58.8172 74.6768 58.6827C74.8256 58.5632 74.9446 58.3689 75.0488 58.1298C75.153 57.8907 75.1976 57.547 75.1976 57.1286C75.1976 56.7102 75.153 56.3664 75.0488 56.1274C74.9446 55.8883 74.8256 55.694 74.6768 55.5745C74.528 55.4549 74.3793 55.3653 74.2156 55.3354C74.0519 55.3055 73.918 55.2905 73.7841 55.2905C73.6651 55.2905 73.5312 55.3055 73.3676 55.3354C73.2039 55.3653 73.0551 55.44 72.9063 55.5745C72.7576 55.694 72.6385 55.8883 72.5344 56.1274C72.4302 56.3814 72.3855 56.7102 72.3855 57.1286C72.3855 57.547 72.4302 57.8907 72.5344 58.1298C72.6385 58.3689 72.7576 58.5632 72.9063 58.6827C73.0551 58.8022 73.2039 58.8919 73.3676 58.9218C73.5312 58.9516 73.6651 58.9666 73.7841 58.9666Z" fill="white"/>
<path d="M82.0865 54.4089L79.8992 60.4161C79.6909 60.969 79.438 61.3724 79.1404 61.6265C78.8279 61.8805 78.4262 62.0001 77.9352 62.0001C77.8013 62.0001 77.6674 62.0001 77.5632 62.0001C77.4591 62.0001 77.3698 62.0001 77.2805 61.9852C77.1913 61.9852 77.1169 61.9702 77.0425 61.9553L77.1616 61.2081H77.7716C77.9501 61.2081 78.0989 61.1782 78.2328 61.1334C78.3667 61.0886 78.4858 61.0138 78.5751 60.9242C78.6792 60.8345 78.7685 60.715 78.8429 60.5805C78.9173 60.446 78.9916 60.2816 79.066 60.1023L79.2149 59.7138L76.9086 54.4239H77.9352L79.6612 58.4287L81.0598 54.4239H82.0865V54.4089Z" fill="white"/>
<path d="M84.0207 58.2344C84.0951 58.4287 84.1993 58.5931 84.3332 58.6977C84.4671 58.8023 84.6159 58.877 84.7795 58.9069C84.9581 58.9368 85.1217 58.9517 85.3003 58.9517C85.4788 58.9517 85.6722 58.9517 85.8805 58.9069C86.0888 58.877 86.3418 58.8172 86.6543 58.7126V54.364H87.6957V59.3701C87.3684 59.4897 86.9816 59.6241 86.565 59.7586C86.1484 59.8931 85.7169 59.9678 85.2706 59.9678C85.1218 59.9678 84.9581 59.9679 84.7795 59.938C84.601 59.923 84.4225 59.8782 84.2439 59.8334C84.0654 59.7736 83.8868 59.6988 83.7231 59.5793C83.5594 59.4597 83.4107 59.3103 83.2916 59.131C83.1726 58.9367 83.0684 58.7126 82.9941 58.4287C82.9197 58.1448 82.875 57.8011 82.875 57.4125V54.379H83.9165V57.4125C83.9165 57.7413 83.9612 58.0103 84.0356 58.2195L84.0207 58.2344Z" fill="white"/>
<path d="M91.3112 54.2446C91.4302 54.2446 91.564 54.2445 91.7277 54.2594C91.8914 54.2594 92.0551 54.3043 92.2336 54.3491C92.4122 54.3939 92.5758 54.4537 92.7544 54.5434C92.918 54.6181 93.0817 54.7377 93.2156 54.8722C93.3495 55.0067 93.4686 55.171 93.543 55.3802C93.6322 55.5745 93.6619 55.8136 93.6619 56.0975V59.4448L93.3198 59.5644C93.0966 59.6541 92.799 59.7437 92.4271 59.8483C92.07 59.9529 91.6385 60.0127 91.1326 60.0127C91.0136 60.0127 90.8796 60.0127 90.716 59.9977C90.5523 59.9977 90.3886 59.9529 90.21 59.9081C90.0315 59.8632 89.853 59.8035 89.6893 59.7138C89.5108 59.6391 89.362 59.5195 89.2281 59.385C89.0942 59.2505 88.9901 59.0862 88.9008 58.877C88.8115 58.6827 88.7817 58.4436 88.7817 58.1597C88.7817 57.8758 88.8264 57.6366 88.9008 57.4424C88.9901 57.2481 89.0942 57.0838 89.2281 56.9344C89.362 56.7999 89.5108 56.6952 89.6893 56.6056C89.8679 56.5308 90.0315 56.4561 90.21 56.4113C90.3886 56.3665 90.5523 56.3366 90.716 56.3216C90.8796 56.3216 91.0136 56.3067 91.1326 56.3067C91.4302 56.3067 91.698 56.3217 91.936 56.3665C92.189 56.4113 92.4122 56.4561 92.6056 56.5159V56.0676C92.6056 56.0676 92.6056 55.9331 92.5907 55.8434C92.5907 55.7538 92.5311 55.6641 92.4419 55.5894C92.3526 55.4998 92.2336 55.44 92.0402 55.3653C91.8617 55.3055 91.6087 55.2756 91.2665 55.2756C90.8499 55.2756 90.4927 55.2756 90.21 55.3055C89.9273 55.3354 89.7191 55.3503 89.5703 55.3802L89.481 54.4687C89.6298 54.4238 89.7935 54.3939 89.972 54.3491C90.1357 54.3192 90.3142 54.2893 90.5374 54.2744C90.7606 54.2445 90.9987 54.2446 91.2665 54.2446H91.3112ZM91.1474 58.9666C91.5045 58.9666 91.817 58.9368 92.0551 58.8919C92.2932 58.8471 92.4865 58.7873 92.6353 58.7424V57.5919C92.5014 57.5321 92.308 57.4872 92.0551 57.4424C91.8022 57.3975 91.5045 57.3677 91.1474 57.3677C90.8201 57.3677 90.5523 57.3976 90.3738 57.4573C90.1952 57.5171 90.0613 57.5919 89.972 57.6815C89.8828 57.7712 89.8382 57.8459 89.8233 57.9505C89.8233 58.0402 89.8084 58.1148 89.8084 58.1746C89.8084 58.2344 89.8084 58.3091 89.8233 58.3988C89.8233 58.4884 89.8828 58.5781 89.972 58.6528C90.0613 58.7424 90.1804 58.8022 90.3738 58.862C90.5523 58.9218 90.8052 58.9517 91.1474 58.9517V58.9666Z" fill="white"/>
<path d="M98.6764 56.0078C98.602 55.7986 98.4979 55.6492 98.364 55.5446C98.2301 55.44 98.0813 55.3653 97.9177 55.3354C97.754 55.3055 97.5754 55.2755 97.4117 55.2755C97.2183 55.2755 97.01 55.2756 96.7571 55.3204C96.5041 55.3503 96.2214 55.4101 95.9239 55.5147V59.8632H94.8823V54.8572C95.046 54.7974 95.2394 54.7227 95.4328 54.6629C95.6411 54.5882 95.8494 54.5284 96.0726 54.4686C96.2958 54.4089 96.519 54.3641 96.7571 54.3192C96.9951 54.2744 97.2183 54.2594 97.4266 54.2594C97.6647 54.2594 97.9177 54.2744 98.2004 54.3192C98.4831 54.3641 98.7359 54.4686 98.9889 54.6479C99.2269 54.8123 99.4352 55.0813 99.5989 55.425C99.7625 55.7687 99.837 56.232 99.837 56.8297V59.8632H98.7955V56.8297C98.7955 56.501 98.7508 56.2319 98.6764 56.0227V56.0078Z" fill="white"/>
<path d="M63.1158 54.0353V59.9827H61.9552V54.0353H59.7234V53.049H65.3625V54.0353H63.1307H63.1158Z" fill="white"/>
<path d="M104.881 53.0639V59.9677H103.854V53.0639H104.881Z" fill="white"/>
<path d="M183.337 54.364C183.471 54.364 183.59 54.3641 183.709 54.394C183.828 54.4089 183.932 54.4238 184.036 54.4537C184.14 54.4836 184.244 54.5135 184.334 54.5434L184.244 55.4101H183.337C182.965 55.4101 182.667 55.44 182.414 55.4848C182.161 55.5296 181.983 55.5895 181.834 55.6343V59.9828H180.792V54.9768C180.986 54.8871 181.194 54.8124 181.388 54.7526C181.581 54.6779 181.775 54.6181 181.983 54.5583C182.191 54.4985 182.399 54.4538 182.608 54.4239C182.831 54.394 183.069 54.379 183.322 54.379L183.337 54.364Z" fill="white"/>
<path d="M125.28 54.349C125.413 54.349 125.533 54.349 125.652 54.3789C125.771 54.3938 125.875 54.4087 125.979 54.4386C126.083 54.4685 126.187 54.4984 126.277 54.5283L126.187 55.395H125.28C124.908 55.395 124.61 55.4249 124.357 55.4697C124.104 55.5146 123.926 55.5744 123.777 55.6192V59.9677H122.735V54.9617C122.929 54.872 123.137 54.7973 123.33 54.7375C123.524 54.6628 123.717 54.603 123.926 54.5432C124.134 54.4835 124.342 54.4387 124.551 54.4088C124.774 54.3789 125.012 54.3639 125.265 54.3639L125.28 54.349Z" fill="white"/>
<path d="M187.637 54.3342C187.711 54.3342 187.83 54.3342 187.964 54.3342C188.113 54.3342 188.276 54.3641 188.455 54.4238C188.633 54.4836 188.827 54.5583 189.02 54.6778C189.214 54.7974 189.377 54.9618 189.541 55.171C189.69 55.3802 189.824 55.6492 189.928 55.9779C190.032 56.3067 190.077 56.7101 190.077 57.1883C190.077 57.6665 190.032 58.07 189.928 58.3987C189.824 58.7275 189.705 58.9964 189.541 59.2056C189.392 59.4148 189.214 59.5792 189.02 59.6988C188.827 59.8183 188.648 59.893 188.455 59.9528C188.276 60.0126 188.113 60.0425 187.964 60.0425C187.815 60.0425 187.711 60.0425 187.637 60.0425C187.339 60.0425 187.071 60.0275 186.833 59.9827C186.58 59.9379 186.357 59.8931 186.164 59.8333V61.7759H185.122V54.8572L185.464 54.7376C185.687 54.6479 185.985 54.5583 186.357 54.4537C186.714 54.3491 187.146 54.3043 187.651 54.3043L187.637 54.3342ZM187.637 59.0413C187.756 59.0413 187.904 59.0264 188.068 58.9965C188.232 58.9666 188.38 58.8918 188.529 58.7574C188.678 58.6378 188.797 58.4435 188.901 58.2045C189.005 57.9654 189.05 57.6217 189.05 57.2033C189.05 56.7849 189.005 56.4412 188.901 56.2021C188.797 55.963 188.678 55.7687 188.529 55.6491C188.38 55.5296 188.232 55.4399 188.068 55.4101C187.904 55.3802 187.77 55.3653 187.637 55.3653C187.279 55.3653 186.967 55.3951 186.729 55.44C186.476 55.4848 186.297 55.5445 186.149 55.5894V58.8172C186.283 58.877 186.476 58.9218 186.729 58.9666C186.982 59.0114 187.279 59.0413 187.637 59.0413Z" fill="white"/>
<path d="M193.454 54.3342C193.454 54.3342 193.633 54.3342 193.781 54.3342C193.93 54.3342 194.094 54.379 194.287 54.4238C194.466 54.4836 194.659 54.5583 194.853 54.6778C195.046 54.7974 195.21 54.9618 195.373 55.171C195.522 55.3802 195.656 55.6491 195.76 55.9779C195.864 56.3067 195.909 56.7101 195.909 57.1883C195.909 57.6665 195.864 58.07 195.76 58.3987C195.656 58.7275 195.537 58.9964 195.373 59.2056C195.225 59.4148 195.046 59.5792 194.853 59.6988C194.659 59.8183 194.481 59.893 194.287 59.9528C194.109 59.9976 193.945 60.0275 193.781 60.0425C193.633 60.0425 193.528 60.0425 193.454 60.0425C193.38 60.0425 193.261 60.0425 193.127 60.0425C192.978 60.0425 192.814 60.0126 192.636 59.9528C192.457 59.893 192.264 59.8183 192.07 59.6988C191.877 59.5792 191.713 59.4148 191.55 59.2056C191.401 58.9964 191.267 58.7275 191.163 58.3987C191.059 58.07 191.014 57.6665 191.014 57.1883C191.014 56.7101 191.059 56.3067 191.163 55.9779C191.267 55.6491 191.386 55.3802 191.55 55.171C191.698 54.9618 191.877 54.7974 192.07 54.6778C192.264 54.5583 192.442 54.4836 192.636 54.4238C192.814 54.3641 192.978 54.3342 193.127 54.3342C193.276 54.3342 193.38 54.3342 193.454 54.3342ZM193.454 59.0562C193.573 59.0562 193.722 59.0562 193.886 59.0114C194.049 58.9815 194.198 58.9068 194.347 58.7723C194.496 58.6528 194.615 58.4585 194.719 58.2194C194.823 57.9803 194.868 57.6366 194.868 57.2182C194.868 56.7998 194.823 56.456 194.719 56.217C194.615 55.9629 194.496 55.7836 194.347 55.6641C194.198 55.5445 194.049 55.4549 193.886 55.425C193.722 55.3951 193.588 55.3801 193.454 55.3801C193.335 55.3801 193.201 55.3951 193.038 55.425C192.874 55.4549 192.725 55.5296 192.576 55.6641C192.427 55.7836 192.308 55.9779 192.204 56.217C192.1 56.471 192.055 56.7998 192.055 57.2182C192.055 57.6366 192.1 57.9803 192.204 58.2194C192.308 58.4585 192.427 58.6528 192.576 58.7723C192.725 58.8918 192.874 58.9815 193.038 59.0114C193.201 59.0412 193.335 59.0562 193.454 59.0562Z" fill="white"/>
<path d="M149.428 54.3192C149.428 54.3192 149.607 54.3192 149.755 54.3192C149.904 54.3192 150.068 54.364 150.261 54.4089C150.44 54.4686 150.633 54.5433 150.827 54.6629C151.02 54.7824 151.184 54.9468 151.347 55.156C151.496 55.3652 151.63 55.6342 151.734 55.9629C151.838 56.2917 151.883 56.6952 151.883 57.1734C151.883 57.6515 151.838 58.055 151.734 58.3838C151.63 58.7125 151.511 58.9816 151.347 59.1908C151.184 59.4 151.02 59.5643 150.827 59.6838C150.633 59.8034 150.455 59.8782 150.261 59.9379C150.083 59.9828 149.919 60.0126 149.755 60.0276C149.607 60.0276 149.502 60.0276 149.428 60.0276C149.354 60.0276 149.235 60.0276 149.101 60.0276C148.952 60.0276 148.788 59.9977 148.61 59.9379C148.431 59.8782 148.238 59.8034 148.044 59.6838C147.851 59.5643 147.687 59.4 147.524 59.1908C147.375 58.9816 147.241 58.7125 147.137 58.3838C147.033 58.055 146.988 57.6515 146.988 57.1734C146.988 56.6952 147.033 56.2917 147.137 55.9629C147.241 55.6342 147.36 55.3652 147.524 55.156C147.672 54.9468 147.851 54.7824 148.044 54.6629C148.238 54.5433 148.416 54.4686 148.61 54.4089C148.788 54.3491 148.952 54.3192 149.101 54.3192C149.249 54.3192 149.354 54.3192 149.428 54.3192ZM149.428 59.0413C149.547 59.0413 149.696 59.0413 149.86 58.9965C150.023 58.9666 150.172 58.8918 150.321 58.7573C150.47 58.6378 150.589 58.4435 150.693 58.2045C150.797 57.9654 150.841 57.6217 150.841 57.2033C150.841 56.7849 150.797 56.4412 150.693 56.2021C150.589 55.9481 150.47 55.7687 150.321 55.6491C150.172 55.5296 150.023 55.4399 149.86 55.4101C149.696 55.3802 149.562 55.3653 149.428 55.3653C149.309 55.3653 149.175 55.3802 149.011 55.4101C148.848 55.4399 148.699 55.5146 148.55 55.6491C148.401 55.7687 148.282 55.963 148.178 56.2021C148.074 56.4561 148.029 56.7849 148.029 57.2033C148.029 57.6217 148.074 57.9654 148.178 58.2045C148.282 58.4435 148.401 58.6378 148.55 58.7573C148.699 58.8769 148.848 58.9666 149.011 58.9965C149.175 59.0264 149.309 59.0413 149.428 59.0413Z" fill="white"/>
<path d="M199.525 54.364C199.659 54.364 199.778 54.3641 199.897 54.394C200.016 54.4089 200.12 54.4238 200.224 54.4537C200.328 54.4836 200.432 54.5135 200.522 54.5434L200.432 55.4101H199.525C199.153 55.4101 198.855 55.44 198.602 55.4848C198.364 55.5296 198.171 55.5895 198.022 55.6343V59.9828H196.98V54.9768C197.189 54.8871 197.382 54.8124 197.576 54.7526C197.769 54.6779 197.962 54.6181 198.171 54.5583C198.379 54.4985 198.587 54.4538 198.796 54.4239C199.019 54.394 199.257 54.379 199.525 54.379V54.364Z" fill="white"/>
<path d="M173.308 52.9145H174.618L177.326 59.9528H176.016L175.362 58.0849H172.564L171.91 59.9528H170.645L173.338 52.9145H173.308ZM172.877 57.1584H175.019L173.963 54.1249H173.933L172.877 57.1584Z" fill="white"/>
<path d="M179.35 54.9918V59.9679H178.323V54.9918H179.35Z" fill="white"/>
<path d="M179.439 53.5122C179.439 53.8559 179.171 54.125 178.829 54.125C178.486 54.125 178.218 53.8559 178.218 53.5122C178.218 53.1685 178.486 52.8996 178.829 52.8996C179.171 52.8996 179.439 53.1685 179.439 53.5122Z" fill="white"/>
<path d="M145.753 54.9918V59.9679H144.726V54.9918H145.753Z" fill="white"/>
<path d="M145.843 53.5122C145.843 53.8559 145.575 54.125 145.232 54.125C144.89 54.125 144.622 53.8559 144.622 53.5122C144.622 53.1685 144.89 52.8996 145.232 52.8996C145.575 52.8996 145.843 53.1685 145.843 53.5122Z" fill="white"/>
<path d="M110.177 56.0078C110.103 55.8136 109.999 55.6492 109.865 55.5446C109.731 55.44 109.582 55.3653 109.419 55.3354C109.255 55.3055 109.076 55.2905 108.913 55.2905C108.719 55.2905 108.511 55.2905 108.258 55.3354C108.005 55.3653 107.722 55.425 107.425 55.5296V59.8632H106.383V54.8572C106.547 54.7974 106.741 54.7227 106.934 54.6629C107.142 54.5882 107.351 54.5284 107.574 54.4686C107.797 54.4089 108.02 54.3641 108.258 54.3192C108.496 54.2744 108.719 54.2594 108.928 54.2594C109.166 54.2594 109.419 54.2894 109.701 54.3342C109.984 54.379 110.237 54.4836 110.49 54.6629C110.728 54.8273 110.936 55.0963 111.1 55.44C111.264 55.7837 111.338 56.2469 111.338 56.8447V59.8781H110.296V56.8447C110.296 56.5159 110.252 56.2469 110.177 56.0377V56.0078Z" fill="white"/>
<path d="M131.246 56.0078C131.171 55.8136 131.067 55.6492 130.933 55.5446C130.8 55.44 130.651 55.3653 130.487 55.3354C130.323 55.3055 130.145 55.2905 129.981 55.2905C129.788 55.2905 129.579 55.2905 129.327 55.3354C129.074 55.3653 128.791 55.425 128.493 55.5296V59.8632H127.452V54.8572C127.615 54.7974 127.809 54.7227 128.002 54.6629C128.211 54.5882 128.419 54.5284 128.642 54.4686C128.865 54.4089 129.088 54.3641 129.327 54.3192C129.565 54.2744 129.788 54.2594 129.996 54.2594C130.234 54.2594 130.487 54.2894 130.77 54.3342C131.052 54.379 131.305 54.4836 131.558 54.6629C131.796 54.8273 132.005 55.0963 132.168 55.44C132.332 55.7837 132.406 56.2469 132.406 56.8447V59.8781H131.365V56.8447C131.365 56.5159 131.32 56.2469 131.246 56.0377V56.0078Z" fill="white"/>
<path d="M205 59.9079C204.911 59.9378 204.807 59.9677 204.703 59.9976C204.613 60.0125 204.494 60.0424 204.375 60.0573C204.256 60.0723 204.122 60.0873 203.988 60.0873C203.721 60.0873 203.453 60.0723 203.2 60.0424C202.932 60.0125 202.694 59.9378 202.486 59.8183C202.277 59.6987 202.099 59.5343 201.965 59.3102C201.831 59.086 201.757 58.7722 201.757 58.3837V55.41H201.087V54.9467L202.262 53.303H202.783V54.4835H204.554V55.41H202.783V58.3837C202.783 58.4883 202.783 58.5929 202.783 58.6975C202.783 58.8021 202.828 58.8918 202.902 58.9665C202.977 59.0412 203.096 59.116 203.259 59.1608C203.423 59.2056 203.676 59.2355 203.988 59.2355H204.896L205 59.9079Z" fill="white"/>
<path d="M116.084 59.923C115.995 59.9529 115.891 59.9828 115.787 60.0127C115.697 60.0276 115.578 60.0574 115.459 60.0724C115.34 60.0873 115.206 60.1023 115.073 60.1023C114.805 60.1023 114.552 60.0873 114.284 60.0574C114.016 60.0275 113.778 59.9529 113.57 59.8333C113.361 59.7138 113.183 59.5494 113.049 59.3252C112.915 59.1011 112.841 58.7873 112.841 58.3987V55.425H112.171V54.9618L113.347 53.318H113.867V54.4985H115.638V55.425H113.867V58.3987C113.867 58.5033 113.867 58.608 113.867 58.7126C113.867 58.8172 113.912 58.9068 113.986 58.9816C114.061 59.0563 114.18 59.131 114.343 59.1758C114.507 59.2207 114.76 59.2505 115.073 59.2505H115.98L116.084 59.923Z" fill="white"/>
<path d="M143.372 59.8931C143.283 59.923 143.179 59.9529 143.075 59.9828C142.985 59.9977 142.866 60.0276 142.747 60.0425C142.628 60.0575 142.495 60.0724 142.361 60.0724C142.093 60.0724 141.825 60.0575 141.572 60.0276C141.304 59.9978 141.066 59.923 140.858 59.8035C140.65 59.6839 140.471 59.5195 140.337 59.2953C140.203 59.0712 140.129 58.7574 140.129 58.3689V55.3952H139.459V54.9319L140.635 53.2882H141.155V54.4687H142.926V55.3952H141.155V58.3689C141.155 58.4735 141.155 58.5781 141.155 58.6827C141.155 58.7873 141.2 58.877 141.274 58.9517C141.349 59.0264 141.468 59.1011 141.631 59.146C141.795 59.1908 142.048 59.2206 142.361 59.2206H143.268L143.372 59.8931Z" fill="white"/>
<path d="M135.992 54.349C136.111 54.349 136.245 54.349 136.409 54.3639C136.573 54.3639 136.736 54.4088 136.915 54.4536C137.093 54.4984 137.257 54.5582 137.436 54.6479C137.599 54.7226 137.763 54.8422 137.897 54.9767C138.031 55.1111 138.15 55.2755 138.224 55.4847C138.313 55.6789 138.343 55.9181 138.343 56.202V59.5493L138.001 59.6688C137.778 59.7585 137.48 59.8481 137.108 59.9527C136.751 60.0573 136.32 60.1172 135.814 60.1172C135.695 60.1172 135.561 60.1172 135.397 60.1022C135.234 60.1022 135.07 60.0574 134.891 60.0126C134.713 59.9677 134.534 59.908 134.371 59.8183C134.192 59.7436 134.043 59.624 133.909 59.4895C133.775 59.355 133.671 59.1907 133.582 58.9964C133.493 58.8022 133.463 58.563 133.463 58.2791C133.463 57.9952 133.508 57.7561 133.582 57.5618C133.656 57.3676 133.775 57.2032 133.909 57.0687C134.043 56.9342 134.192 56.8296 134.371 56.74C134.549 56.6652 134.713 56.5905 134.891 56.5457C135.07 56.5009 135.234 56.471 135.397 56.456C135.561 56.456 135.695 56.4411 135.814 56.4411C136.111 56.4411 136.379 56.456 136.617 56.5008C136.87 56.5456 137.093 56.5905 137.287 56.6503V56.202C137.287 56.202 137.287 56.0675 137.272 55.9778C137.272 55.8882 137.212 55.7985 137.123 55.7238C137.034 55.6342 136.915 55.5744 136.721 55.4996C136.543 55.4399 136.29 55.41 135.948 55.41C135.531 55.41 135.174 55.41 134.906 55.4399C134.623 55.4698 134.415 55.4847 134.266 55.5146L134.177 54.6031C134.326 54.5582 134.49 54.5283 134.668 54.4835C134.832 54.4536 135.01 54.4237 135.233 54.4088C135.457 54.3789 135.695 54.3789 135.963 54.3789L135.992 54.349ZM135.844 59.0562C136.201 59.0562 136.513 59.0263 136.751 58.9815C137.004 58.9366 137.183 58.8768 137.331 58.832V57.6814C137.198 57.6216 137.004 57.5767 136.751 57.5319C136.498 57.4871 136.201 57.4572 135.844 57.4572C135.516 57.4572 135.248 57.4871 135.07 57.5469C134.891 57.6066 134.757 57.6814 134.668 57.7711C134.579 57.8607 134.534 57.9354 134.519 58.0251C134.519 58.1147 134.504 58.1895 134.504 58.2493C134.504 58.309 134.504 58.3837 134.519 58.4734C134.519 58.563 134.579 58.6527 134.668 58.7275C134.757 58.8171 134.876 58.8768 135.07 58.9366C135.248 58.9964 135.501 59.0262 135.844 59.0262V59.0562Z" fill="white"/>
<path d="M156.897 56.0078C156.822 55.8136 156.718 55.6492 156.584 55.5446C156.451 55.44 156.302 55.3653 156.138 55.3354C155.974 55.3055 155.796 55.2905 155.632 55.2905C155.439 55.2905 155.23 55.2905 154.978 55.3354C154.725 55.3653 154.442 55.425 154.144 55.5296V59.8632H153.103V54.8572C153.266 54.7974 153.46 54.7227 153.653 54.6629C153.862 54.5882 154.07 54.5284 154.293 54.4686C154.516 54.4089 154.739 54.3641 154.978 54.3192C155.216 54.2744 155.439 54.2594 155.647 54.2594C155.885 54.2594 156.138 54.2894 156.421 54.3342C156.703 54.379 156.956 54.4836 157.209 54.6629C157.447 54.8273 157.656 55.0963 157.819 55.44C157.983 55.7837 158.057 56.2469 158.057 56.8447V59.8781H157.016V56.8447C157.016 56.5159 156.971 56.2469 156.897 56.0377V56.0078Z" fill="white"/>
<path d="M161.643 54.3342C161.762 54.3342 161.896 54.3341 162.06 54.349C162.224 54.349 162.387 54.3939 162.566 54.4387C162.744 54.4835 162.908 54.5433 163.087 54.633C163.25 54.7077 163.414 54.8273 163.548 54.9618C163.682 55.0963 163.801 55.2606 163.875 55.4698C163.964 55.6641 163.994 55.9032 163.994 56.1871V59.5344L163.652 59.654C163.429 59.7437 163.131 59.8333 162.759 59.9379C162.402 60.0425 161.971 60.1023 161.465 60.1023C161.346 60.1023 161.212 60.1023 161.048 60.0873C160.885 60.0873 160.721 60.0425 160.542 59.9977C160.364 59.9528 160.185 59.8931 160.022 59.8034C159.843 59.7287 159.694 59.6092 159.56 59.4747C159.426 59.3402 159.322 59.1758 159.233 58.9666C159.144 58.7574 159.114 58.5332 159.114 58.2493C159.114 57.9654 159.159 57.7262 159.233 57.532C159.307 57.3377 159.426 57.1734 159.56 57.0389C159.694 56.9044 159.843 56.7998 160.022 56.7101C160.2 56.6354 160.364 56.5607 160.542 56.5158C160.721 56.471 160.885 56.4411 161.048 56.4262C161.212 56.4262 161.346 56.4112 161.465 56.4112C161.762 56.4112 162.03 56.4262 162.268 56.4711C162.521 56.5159 162.744 56.5607 162.938 56.6205V56.1722C162.938 56.1722 162.938 56.0376 162.923 55.948C162.923 55.8583 162.863 55.7687 162.774 55.694C162.685 55.6043 162.566 55.5445 162.372 55.4698C162.194 55.41 161.941 55.3801 161.599 55.3801C161.182 55.3801 160.825 55.3802 160.557 55.41C160.274 55.4399 160.066 55.4549 159.917 55.4847L159.828 54.5732C159.977 54.5284 160.141 54.4985 160.319 54.4536C160.483 54.4238 160.661 54.3939 160.884 54.379C161.108 54.3491 161.346 54.349 161.614 54.349L161.643 54.3342ZM161.495 59.0413C161.852 59.0413 162.164 59.0114 162.402 58.9666C162.64 58.9217 162.834 58.862 162.982 58.8172V57.6665C162.849 57.6067 162.655 57.5618 162.402 57.517C162.149 57.4722 161.852 57.4423 161.495 57.4423C161.167 57.4423 160.899 57.4722 160.721 57.532C160.542 57.5918 160.408 57.6665 160.319 57.7562C160.23 57.8458 160.185 57.9205 160.17 58.0102C160.17 58.0998 160.155 58.1746 160.155 58.2344C160.155 58.2941 160.155 58.3688 160.17 58.4585C160.17 58.5481 160.23 58.6378 160.319 58.7126C160.408 58.8022 160.527 58.8619 160.721 58.9217C160.899 58.9815 161.152 59.0114 161.495 59.0114V59.0413Z" fill="white"/>
<path d="M117.781 57.6366C117.781 57.9504 117.9 58.2642 118.153 58.5631C118.465 58.9367 118.867 59.1309 119.373 59.1309C119.953 59.1309 120.593 59.0114 121.292 58.7574V59.8034C120.593 60.0126 119.938 60.1023 119.373 60.1023C118.465 60.1023 117.781 59.8184 117.29 59.2505C116.828 58.7275 116.59 58.0401 116.59 57.1883C116.59 56.3366 116.814 55.709 117.26 55.171C117.751 54.5733 118.45 54.2744 119.373 54.2744C119.998 54.2744 120.533 54.4835 120.965 54.9019C121.411 55.3204 121.634 55.8285 121.634 56.4112C121.634 56.7848 121.5 57.0837 121.218 57.2929C120.935 57.5021 120.608 57.6217 120.221 57.6217H117.796L117.781 57.6366ZM119.373 55.2607C118.822 55.2607 118.406 55.4698 118.093 55.8733C117.885 56.1572 117.781 56.4263 117.781 56.6653H120.102C120.34 56.6653 120.459 56.5457 120.459 56.3216C120.459 56.0974 120.34 55.8584 120.117 55.6193C119.894 55.3802 119.641 55.2607 119.373 55.2607Z" fill="white"/>
<path d="M166.584 60.0723C166.212 60.0723 165.899 59.9678 165.646 59.7436C165.393 59.5195 165.259 59.2355 165.259 58.8919V53.0639H166.257V58.8022C166.257 59.1011 166.405 59.2355 166.718 59.2355C167.031 59.2355 167.269 59.1757 167.477 59.0412V59.8781C167.209 59.9976 166.911 60.0723 166.569 60.0723H166.584Z" fill="white"/>
<path d="M53.1023 26.674H19.9077V33.3387H33.1946V59.9977H39.8304V33.3387H53.1023V26.674Z" fill="white"/>
<path d="M33.1947 53.3329V19.9943H26.5587V33.3387H0.00012207V40.0035H26.5587V53.3329H33.1947Z" fill="white"/>
<path d="M6.63599 33.3386H39.8306V26.674H26.5587V0H19.9227V26.674H6.63599V33.3386Z" fill="white"/>
<path d="M26.5585 6.66486V40.0035H33.1944V26.674H59.7382V19.9943H33.1944V6.66486H26.5585Z" fill="white"/>
<path d="M92.546 46.3694C92.546 46.8177 92.3973 47.1763 92.1146 47.4602C91.8021 47.789 91.4004 47.9534 90.8796 47.9534H81.3126C80.7323 47.9534 80.286 47.7741 79.9735 47.4005C79.6611 47.0717 79.5122 46.6384 79.5122 46.1004V34.9079C79.5122 34.4596 79.6611 34.071 79.9735 33.7422C80.286 33.4284 80.6281 33.279 81.0299 33.279H90.9689C91.445 33.279 91.8319 33.4583 92.1146 33.8319C92.3973 34.1905 92.546 34.6239 92.546 35.132V46.3544V46.3694ZM91.1474 35.0722C91.1474 34.9377 91.0879 34.8032 90.954 34.6687C90.8201 34.5342 90.4928 34.4595 90.3291 34.4595H81.5358C81.387 34.4595 81.2531 34.5342 81.134 34.6687C81.015 34.8032 80.9555 34.9377 80.9555 35.0573V46.205C80.9555 46.3694 81.0299 46.5188 81.1638 46.6533C81.2977 46.7729 81.4614 46.8476 81.6251 46.8476H90.5374C90.9392 46.8476 91.1474 46.6234 91.1474 46.1901V35.102V35.0722Z" fill="#76777A"/>
<path d="M83.827 41.6471C83.574 42.4391 82.7855 43.7989 82.0713 44.7703V46.4439C82.9045 45.622 84.0055 44.0381 84.4668 42.9173C84.4668 42.9173 84.4668 44.2921 84.4668 44.591C84.4668 45.7117 84.809 46.429 85.9695 46.429C86.8176 46.429 87.1003 46.429 87.1003 46.429L87.4425 45.2784C87.4425 45.2784 86.6242 45.2784 86.3862 45.2784C85.9547 45.2784 85.7315 45.1289 85.7315 44.7404C85.7315 44.5909 85.7315 41.6471 85.7315 41.6471H83.8121H83.827Z" fill="#76777A"/>
<path d="M86.6692 36.8205V36.1182H89.7937V35.1169H86.6692V34.1457H85.3003V35.1169H82.3543V36.1182H85.3003V36.8205H81.9229V37.8665H90.2252V36.8205H86.6692Z" fill="#76777A"/>
<path d="M89.9421 38.7482C89.7635 38.554 89.5552 38.4793 89.2874 38.4942H82.711C82.5027 38.4942 82.3093 38.5839 82.1605 38.7334C82.0117 38.8828 81.9373 39.0919 81.9522 39.3161V40.7058C81.9373 40.9598 82.0117 41.199 82.1605 41.3932C82.2944 41.5875 82.473 41.6622 82.711 41.6772H89.2874C89.5255 41.6622 89.719 41.5726 89.8975 41.3932C90.0909 41.199 90.1802 40.9598 90.1802 40.7058V39.3161C90.1802 39.077 90.0909 38.8827 89.9421 38.7482ZM89.0047 40.0932C89.0047 40.4668 88.9601 40.5714 88.5882 40.5714H83.574C83.1872 40.5714 83.1425 40.407 83.1425 40.0932V39.8541C83.1425 39.4955 83.2616 39.6 83.574 39.6H88.5882C88.9453 39.6 89.0047 39.5702 89.0047 39.8541V40.0782V40.0932Z" fill="#76777A"/>
<path d="M69.0676 41.4378C69.0676 44.5012 68.2046 46.3542 66.4787 48.0428H64.5146C66.6423 46.1898 67.6987 44.292 67.6987 41.3033V33.204H69.0676V41.4378Z" fill="#76777A"/>
<path d="M74.2005 48.0428H72.8019C70.5849 48.0428 70.2129 46.5932 70.2129 45.2184V33.204H71.5669V45.0391C71.5669 45.9357 71.8943 46.7577 72.8763 46.7577H74.617L74.2005 48.0577V48.0428Z" fill="#76777A"/>
<path d="M156.614 37.5228V42.2897C157.016 42.0955 157.343 41.9311 158.37 41.3184V42.7231C156.272 43.9335 154.873 44.6209 153.37 45.2335V43.7841C153.951 43.5749 154.561 43.3208 155.156 42.992V37.5228H153.385V36.2526H155.156V33.4582H156.614V36.2526H158.444V37.5228H156.614Z" fill="#76777A"/>
<path d="M157.403 45.8315C158.578 44.4866 159.025 41.9611 159.129 40.6311C159.218 39.2862 160.468 39.4506 160.468 39.4506H167.312V40.7058H160.513C160.513 40.7058 160.111 45.5027 157.418 47.5948V45.8315H157.403ZM160.438 38.7632C160.215 38.7483 160.007 38.6437 159.873 38.4793C159.709 38.2551 159.635 38.0011 159.65 37.7321V34.2055C159.635 33.9664 159.709 33.7572 159.873 33.5929C160.036 33.3986 160.215 33.3239 160.438 33.3239H165.914C166.196 33.3089 166.434 33.4135 166.628 33.5929C166.791 33.7274 166.866 33.9515 166.881 34.2055V37.7321C166.881 38.0011 166.777 38.2402 166.568 38.4643C166.39 38.6586 166.167 38.7483 165.914 38.7782H160.438V38.7632ZM165.601 35.4458V34.9975C165.601 34.8631 165.571 34.7285 165.512 34.6388C165.438 34.5342 165.304 34.4894 165.155 34.4894H161.405C161.227 34.4894 161.108 34.5193 161.063 34.609C160.989 34.7136 160.929 34.8481 160.959 34.9975V35.4458H165.631H165.601ZM160.929 36.6263V37.0896C160.929 37.224 160.959 37.3585 161.033 37.4482C161.093 37.5378 161.227 37.5827 161.376 37.5827H165.125C165.274 37.5827 165.393 37.5378 165.467 37.4482C165.527 37.3585 165.557 37.239 165.571 37.0896V36.6263H160.899H160.929Z" fill="#76777A"/>
<path d="M73.7839 36.7608C73.0102 37.508 72.4151 37.7918 71.2694 38.3746L71.2396 36.7309C72.0431 36.3424 72.6532 35.9987 73.8137 34.9975L73.7839 36.7758V36.7608Z" fill="#76777A"/>
<path d="M73.8286 43.2461C72.8912 42.6334 72.3407 42.3495 71.4033 41.4828L71.3735 39.7344C72.1621 40.4816 73.0549 41.1242 73.8137 41.6323V43.2311L73.8286 43.2461Z" fill="#76777A"/>
<path d="M65.6155 35.117C66.5235 36.0136 67.1486 36.5068 68.0119 36.8505L67.9821 38.3746C67.1188 37.9861 66.4193 37.5527 65.6453 36.8056V35.117H65.6155Z" fill="#76777A"/>
<path d="M65.6749 41.6921C66.4787 41.2139 66.9848 40.6759 67.8333 39.7793V41.5575C67.0146 42.2898 66.4936 42.7979 65.66 43.291V41.6921H65.6749Z" fill="#76777A"/>
<path d="M62.0603 37.6424C61.8667 40.9897 61.5244 43.8588 61.0183 46.4291H59.8126C60.408 43.4404 60.7801 40.5862 60.929 37.6424H62.0454H62.0603Z" fill="#76777A"/>
<path d="M63.577 36.5812V48.0428H62.2379V36.5812H60.5269V35.2213H62.2379V33.204H63.577V35.2213H65.2583V36.5812H63.577Z" fill="#76777A"/>
<path d="M65.7059 45.7566H64.5746C63.9643 41.692 63.8304 39.7942 63.7709 37.6424H64.8723C64.8723 40.8402 65.4677 44.2921 65.7059 45.7566Z" fill="#76777A"/>
<path d="M148.505 46.713C145.425 44.7255 145.634 41.8713 145.634 40.1678H144.25C144.25 42.1253 144.562 46.2498 148.505 48.1625V46.7279V46.713Z" fill="#76777A"/>
<path d="M148.505 41.0046L148.193 40.1528H146.898L147.151 40.8552H141.527C141.08 40.8552 140.723 41.1988 140.723 41.7368V44.1875C140.723 44.86 140.411 46.0555 139.607 46.6233H139.637V48.2223C141.408 47.4751 142.062 45.5175 142.062 44.1875V42.1553C142.062 42.1553 147.166 42.1553 147.746 42.1553C148.326 42.1553 148.758 41.7069 148.505 41.0195" fill="#76777A"/>
<path d="M144.057 35.5802C143.967 35.371 143.699 35.2366 143.491 35.2366C143.283 35.2366 142.316 35.2366 142.316 35.2366L143.938 33.2341H142.346L140.649 35.2963C140.486 35.4756 140.426 35.7446 140.53 35.9688C140.634 36.1929 140.858 36.2826 141.096 36.2826H142.271L140.367 38.3896C140.188 38.5689 140.129 38.8679 140.233 39.107C140.322 39.346 140.62 39.4954 140.873 39.4954H143.833L144.161 38.3299H142.063C142.063 38.3299 143.595 36.6712 143.863 36.4022C144.131 36.1332 144.146 35.8044 144.057 35.5802Z" fill="#76777A"/>
<path d="M148.237 35.5802C148.148 35.371 147.88 35.2366 147.672 35.2366C147.464 35.2366 146.496 35.2366 146.496 35.2366L148.118 33.2341H146.526L144.83 35.2963C144.666 35.4756 144.607 35.7446 144.711 35.9688C144.815 36.1929 145.038 36.2826 145.276 36.2826H146.452L144.547 38.3896C144.354 38.5689 144.309 38.8679 144.413 39.107C144.503 39.346 144.8 39.4954 145.053 39.4954H148.193L148.52 38.3299H146.244C146.244 38.3299 147.776 36.6712 148.044 36.4022C148.312 36.1332 148.327 35.8044 148.237 35.5802Z" fill="#76777A"/>
<path d="M148.089 42.4692C146.854 44.083 145.113 45.6819 143.179 46.5187V48.058C144.979 47.2211 147.33 45.4578 148.089 44.3072V42.4542V42.4692Z" fill="#76777A"/>
<path d="M136.841 37.717C136.648 41.0195 136.305 43.8737 135.799 46.4589H134.594C135.189 43.4703 135.561 40.616 135.71 37.717H136.826H136.841Z" fill="#76777A"/>
<path d="M138.358 36.6412V48.0729H137.019V36.6412H135.308V35.2962H137.019V33.1593H138.358V35.2962H140.024V36.6412H138.358Z" fill="#76777A"/>
<path d="M140.323 44.9796H139.191C138.73 41.7219 138.596 39.824 138.551 37.717H139.653C139.653 40.8701 140.248 44.322 140.337 44.9796" fill="#76777A"/>
<path d="M160.349 41.438H166.315C166.746 41.438 167.297 41.8863 167.297 42.5587V45.6968V45.6072C167.297 47.4601 166.136 48.028 164.901 48.028H164.574L164.217 46.7876H164.753C165.392 46.7876 165.898 46.5038 165.898 45.652V45.5025V43.0518C165.898 42.8127 165.72 42.5587 165.437 42.5587H164.946C164.649 44.3519 163.875 46.7578 163.116 47.9533H161.584C162.446 46.713 163.324 44.2473 163.592 42.5587H162.536C162.03 44.5014 161.271 46.8026 160.259 47.9533H158.712C159.977 46.4739 160.869 44.2025 161.167 42.5587H160.006C159.739 42.5587 159.515 42.4691 159.352 42.2898" fill="#76777A"/>
<path d="M143.744 45.6222L141.229 44.5462V43.2014L143.744 44.2623V45.6222Z" fill="#76777A"/>
<path d="M88.9304 46.3693C88.1121 45.5474 87.0855 44.2175 86.9218 43.5002C86.7135 42.5887 87.4128 42.1553 88.1419 42.1553C88.5287 42.1553 90.1059 42.1553 90.1059 42.1553V43.291C90.1059 43.291 88.9602 43.291 88.6924 43.291C88.3651 43.291 88.0228 43.5749 88.6477 44.3071C88.9007 44.606 89.719 45.652 90.5523 46.3693H88.9304Z" fill="#76777A"/>
<path d="M104.896 45.5922V44.2025C107.023 42.4093 107.618 39.6897 107.856 38.2551H109.121C108.615 41.3484 107.485 44.2772 104.881 45.5922M109.597 46.3693H108.094C106.369 43.7991 104.672 40.0632 104.479 34.1307H105.848C106.011 39.6896 107.455 42.7979 109.597 46.3693ZM100.477 37.3286V35.9986H107.752C107.693 35.7296 107.574 35.0273 107.574 35.0273H108.928C108.928 35.0273 109.136 36.0435 109.21 36.3872C109.329 36.9401 108.883 37.3435 108.288 37.3435H100.462L100.477 37.3286ZM104.464 45.7417C103.437 46.0705 102.307 46.2797 100.477 46.3693V45.0094C102.024 44.9945 103.17 44.8003 104.464 44.4117V45.7268V45.7417Z" fill="#76777A"/>
<path d="M129.728 41.692V43.0518H126.202C126.202 43.0518 126.202 44.4864 126.202 45.8164C126.202 47.1464 125.547 48.1027 124.357 48.1027C124.163 48.1027 123.092 48.0877 123.092 48.0877L122.809 46.8176H123.94C124.476 46.8176 124.759 46.6383 124.759 45.8164C124.759 44.9945 124.759 43.0668 124.759 43.0668H121.515V41.707H129.728V41.692ZM127.288 37.6872C127.779 36.8354 128.002 36.2227 128.151 35.5801C128.329 34.8479 127.958 34.6238 127.571 34.6238H126.514V33.3686H128.419C129.133 33.4582 129.579 33.9663 129.49 35.2962C129.445 35.9388 128.895 37.717 128.359 38.6585L127.288 37.6872ZM125.547 36.6412C124.625 38.3298 123.33 39.5252 121.322 40.8402V39.1666C122.527 38.3597 124.625 36.7308 124.699 34.8629C124.699 34.6985 124.61 34.5939 124.446 34.5939H123.509C123.211 35.8193 122.155 36.7607 121.322 37.2538V35.6848C121.961 35.102 122.423 34.2801 122.586 33.3985H124.997C125.726 33.4881 126.127 33.8467 126.157 34.4594C126.157 34.7284 126.127 34.9825 126.068 35.2514L125.547 36.6412ZM125.458 34.2801C126.083 36.2526 128.627 38.5689 129.743 39.1816V40.8253C127.749 39.6298 125.934 37.7022 124.878 36.1929L125.458 34.2801ZM128.627 43.6346C128.657 44.5163 129.044 45.2486 129.743 45.8164V47.52C128.389 46.7429 127.571 45.4577 127.288 43.6197H128.642L128.627 43.6346ZM123.539 43.6346C123.256 45.4577 122.423 46.7428 121.083 47.5348V45.8314C121.783 45.2486 122.155 44.5313 122.199 43.6496H123.553L123.539 43.6346Z" fill="#76777A"/>
<path d="M111.249 46.3543C111.249 46.8026 111.1 47.1612 110.817 47.4452C110.505 47.7739 110.103 47.9383 109.583 47.9383H100.015C99.4352 47.9383 98.9888 47.759 98.6763 47.3854C98.3639 47.0567 98.2151 46.6233 98.2151 46.0853V34.8928C98.2151 34.4445 98.3639 34.0559 98.6763 33.7272C98.9888 33.4133 99.331 33.2639 99.7328 33.2639H109.672C110.148 33.2639 110.535 33.4432 110.817 33.8168C111.1 34.1755 111.249 34.6088 111.249 35.1169V46.3394V46.3543ZM109.835 35.0422C109.835 34.9077 109.776 34.7732 109.642 34.6387C109.508 34.5042 109.181 34.4295 109.017 34.4295H100.224C100.075 34.4295 99.9411 34.5042 99.822 34.6387C99.703 34.7732 99.6435 34.9077 99.6435 35.0272V46.175C99.6435 46.3394 99.7179 46.4888 99.8518 46.6233C99.9857 46.7428 100.149 46.8176 100.313 46.8176H109.225C109.627 46.8176 109.835 46.5934 109.835 46.1451V35.0571V35.0422Z" fill="#76777A"/>
<path d="M104.033 38.4344C103.824 38.2402 103.556 38.1355 103.229 38.1355H101.726C101.384 38.1355 101.087 38.255 100.849 38.4792C100.596 38.7183 100.477 39.0022 100.477 39.316V42.484C100.477 42.7978 100.566 43.0818 100.744 43.306C100.982 43.6347 101.265 43.799 101.592 43.799H103.095C103.542 43.799 103.899 43.6646 104.137 43.4106C104.375 43.1864 104.479 42.8577 104.479 42.4542V39.4356C104.479 39.0172 104.33 38.6735 104.048 38.4344M103.244 42.4392C103.244 42.6634 103.14 42.7829 102.932 42.7829H102.024C102.024 42.7829 101.875 42.7381 101.816 42.6485C101.741 42.5588 101.712 42.4542 101.712 42.3496V39.5701C101.712 39.3011 101.845 39.1666 102.113 39.1666H102.932C102.932 39.1666 103.08 39.2115 103.155 39.2862C103.214 39.3759 103.244 39.4505 103.244 39.5402V42.4392Z" fill="#76777A"/>
<path d="M128.598 39.4655H122.408V40.8553H128.598V39.4655Z" fill="#76777A"/>
<path d="M120.414 44.1278C120.117 44.337 119.849 44.4565 119.417 44.4565H117.632L117.185 43.2311H118.911C119.179 43.2311 119.373 43.1863 119.507 43.0817C119.64 42.9622 119.73 42.7978 119.76 42.5736C119.923 41.408 119.685 40.2126 118.569 38.4344C119.135 36.9998 119.313 35.9238 119.566 34.833C119.611 34.6237 119.536 34.5192 119.358 34.5192H118.465C118.272 34.5192 118.182 34.6387 118.182 34.8629V47.9832H116.769V34.5789C116.769 34.1755 116.903 33.8468 117.185 33.5927C117.424 33.3835 117.721 33.2639 118.078 33.2639H119.819C120.206 33.2639 120.533 33.3984 120.756 33.6674C121.009 33.9513 121.099 34.3099 120.994 34.7283C120.712 36.0135 120.489 37.0894 119.998 38.3297C121.114 40.4368 121.277 41.8713 121.009 43.2162C120.92 43.5898 120.712 43.8887 120.384 44.1278" fill="#76777A"/>
<path d="M124.328 37.5079L122.482 35.6549L122.959 34.5939L124.804 36.4469L124.328 37.5079Z" fill="#76777A"/>
<path d="M123.167 39.1217L121.337 37.2538L121.798 36.1928L123.644 38.0608L123.167 39.1217Z" fill="#76777A"/>
<path d="M67.9366 54.2446C68.0557 54.2446 68.1895 54.2445 68.3532 54.2594C68.5169 54.2594 68.6806 54.3043 68.8591 54.3491C69.0377 54.3939 69.2162 54.4537 69.3798 54.5434C69.5435 54.6181 69.7072 54.7377 69.8411 54.8722C69.975 55.0067 70.0941 55.171 70.1685 55.3802C70.2577 55.5745 70.2875 55.8136 70.2875 56.0975V59.4448L69.9452 59.5644C69.7221 59.6541 69.4245 59.7437 69.0525 59.8483C68.6955 59.9529 68.2491 60.0127 67.7581 60.0127C67.6391 60.0127 67.5051 60.0127 67.3415 59.9977C67.1778 59.9977 67.0142 59.9529 66.8356 59.9081C66.6571 59.8632 66.4785 59.8035 66.3148 59.7138C66.1363 59.6391 65.9875 59.5195 65.8536 59.385C65.7197 59.2505 65.6156 59.0862 65.5263 58.877C65.437 58.6827 65.4072 58.4436 65.4072 58.1597C65.4072 57.8758 65.4519 57.6366 65.5263 57.4424C65.6156 57.2481 65.7197 57.0838 65.8536 56.9344C65.9875 56.7999 66.1363 56.6952 66.3148 56.6056C66.4934 56.5308 66.6571 56.4561 66.8356 56.4113C67.0142 56.3665 67.1778 56.3366 67.3415 56.3216C67.5051 56.3216 67.6391 56.3067 67.7581 56.3067C68.0557 56.3067 68.3235 56.3217 68.5615 56.3665C68.8145 56.4113 69.0377 56.4561 69.2311 56.5159V56.0676C69.2311 56.0676 69.2311 55.9331 69.2162 55.8434C69.2162 55.7538 69.1567 55.6641 69.0674 55.5894C68.9782 55.4998 68.8591 55.44 68.6657 55.3653C68.4871 55.3055 68.2342 55.2756 67.892 55.2756C67.4754 55.2756 67.1183 55.2756 66.8356 55.3055C66.5529 55.3354 66.3446 55.3503 66.1958 55.3802L66.1066 54.4687C66.2554 54.4238 66.419 54.3939 66.5975 54.3491C66.7612 54.3192 66.9397 54.2893 67.1629 54.2744C67.3861 54.2445 67.6241 54.2446 67.892 54.2446H67.9366ZM67.773 58.9666C68.1301 58.9666 68.4425 58.9368 68.6806 58.8919C68.9335 58.8471 69.1121 58.7873 69.2609 58.7424V57.5919C69.127 57.5321 68.9335 57.4872 68.6806 57.4424C68.4276 57.3975 68.1301 57.3677 67.773 57.3677C67.4457 57.3677 67.1778 57.3976 66.9993 57.4573C66.8207 57.5171 66.6868 57.5919 66.5975 57.6815C66.5082 57.7712 66.4636 57.8459 66.4488 57.9505C66.4488 58.0402 66.4339 58.1148 66.4339 58.1746C66.4339 58.2344 66.4339 58.3091 66.4488 58.3988C66.4488 58.4884 66.5082 58.5781 66.5975 58.6528C66.6868 58.7424 66.8058 58.8022 66.9993 58.862C67.1778 58.9218 67.4308 58.9517 67.773 58.9517V58.9666Z" fill="#76777A"/>
<path d="M73.7841 54.2446C73.7841 54.2446 73.9627 54.2446 74.1115 54.2446C74.2603 54.2446 74.4239 54.2894 74.6025 54.3342C74.781 54.394 74.9744 54.4687 75.1679 54.5882C75.3613 54.7078 75.525 54.8722 75.6887 55.0814C75.8375 55.2906 75.9713 55.5595 76.0754 55.8883C76.1796 56.2171 76.2243 56.6205 76.2243 57.0987C76.2243 57.5769 76.1796 57.9804 76.0754 58.3091C75.9713 58.6379 75.8523 58.9068 75.6887 59.116C75.5399 59.3252 75.3613 59.4896 75.1679 59.6092C74.9744 59.7287 74.7959 59.8034 74.6025 59.8632C74.4239 59.923 74.2603 59.9379 74.1115 59.9529C73.9627 59.9529 73.8585 59.9529 73.7841 59.9529C73.7097 59.9529 73.5908 59.9529 73.4568 59.9529C73.3081 59.9529 73.1444 59.923 72.9658 59.8632C72.7873 59.8184 72.5938 59.7287 72.4004 59.6092C72.207 59.4896 72.0434 59.3252 71.8797 59.116C71.7309 58.9068 71.597 58.6379 71.4928 58.3091C71.3887 57.9804 71.344 57.5769 71.344 57.0987C71.344 56.6205 71.3887 56.2171 71.4928 55.8883C71.597 55.5595 71.716 55.2906 71.8797 55.0814C72.0434 54.8722 72.207 54.7078 72.4004 54.5882C72.5938 54.4687 72.7724 54.394 72.9658 54.3342C73.1444 54.2745 73.3081 54.2446 73.4568 54.2446C73.6056 54.2446 73.7097 54.2446 73.7841 54.2446ZM73.7841 58.9666C73.9032 58.9666 74.0519 58.9516 74.2156 58.9218C74.3793 58.8919 74.528 58.8172 74.6768 58.6827C74.8256 58.5632 74.9446 58.3689 75.0488 58.1298C75.153 57.8907 75.1976 57.547 75.1976 57.1286C75.1976 56.7102 75.153 56.3664 75.0488 56.1274C74.9446 55.8883 74.8256 55.694 74.6768 55.5745C74.528 55.4549 74.3793 55.3653 74.2156 55.3354C74.0519 55.3055 73.918 55.2905 73.7841 55.2905C73.6651 55.2905 73.5312 55.3055 73.3676 55.3354C73.2039 55.3653 73.0551 55.44 72.9063 55.5745C72.7576 55.694 72.6385 55.8883 72.5344 56.1274C72.4302 56.3814 72.3855 56.7102 72.3855 57.1286C72.3855 57.547 72.4302 57.8907 72.5344 58.1298C72.6385 58.3689 72.7576 58.5632 72.9063 58.6827C73.0551 58.8022 73.2039 58.8919 73.3676 58.9218C73.5312 58.9516 73.6651 58.9666 73.7841 58.9666Z" fill="#76777A"/>
<path d="M82.0865 54.4089L79.8992 60.4161C79.6909 60.969 79.438 61.3724 79.1404 61.6265C78.8279 61.8805 78.4262 62.0001 77.9352 62.0001C77.8013 62.0001 77.6674 62.0001 77.5632 62.0001C77.4591 62.0001 77.3698 62.0001 77.2805 61.9852C77.1913 61.9852 77.1169 61.9702 77.0425 61.9553L77.1616 61.2081H77.7716C77.9501 61.2081 78.0989 61.1782 78.2328 61.1334C78.3667 61.0886 78.4858 61.0138 78.5751 60.9242C78.6792 60.8345 78.7685 60.715 78.8429 60.5805C78.9173 60.446 78.9916 60.2816 79.066 60.1023L79.2149 59.7138L76.9086 54.4239H77.9352L79.6612 58.4287L81.0598 54.4239H82.0865V54.4089Z" fill="#76777A"/>
<path d="M84.0207 58.2344C84.0951 58.4287 84.1993 58.5931 84.3332 58.6977C84.4671 58.8023 84.6159 58.877 84.7795 58.9069C84.9581 58.9368 85.1217 58.9517 85.3003 58.9517C85.4788 58.9517 85.6722 58.9517 85.8805 58.9069C86.0888 58.877 86.3418 58.8172 86.6543 58.7126V54.364H87.6957V59.3701C87.3684 59.4897 86.9816 59.6241 86.565 59.7586C86.1484 59.8931 85.7169 59.9678 85.2706 59.9678C85.1218 59.9678 84.9581 59.9679 84.7795 59.938C84.601 59.923 84.4225 59.8782 84.2439 59.8334C84.0654 59.7736 83.8868 59.6988 83.7231 59.5793C83.5594 59.4597 83.4107 59.3103 83.2916 59.131C83.1726 58.9367 83.0684 58.7126 82.9941 58.4287C82.9197 58.1448 82.875 57.8011 82.875 57.4125V54.379H83.9165V57.4125C83.9165 57.7413 83.9612 58.0103 84.0356 58.2195L84.0207 58.2344Z" fill="#76777A"/>
<path d="M91.3112 54.2446C91.4302 54.2446 91.564 54.2445 91.7277 54.2594C91.8914 54.2594 92.0551 54.3043 92.2336 54.3491C92.4122 54.3939 92.5758 54.4537 92.7544 54.5434C92.918 54.6181 93.0817 54.7377 93.2156 54.8722C93.3495 55.0067 93.4686 55.171 93.543 55.3802C93.6322 55.5745 93.6619 55.8136 93.6619 56.0975V59.4448L93.3198 59.5644C93.0966 59.6541 92.799 59.7437 92.4271 59.8483C92.07 59.9529 91.6385 60.0127 91.1326 60.0127C91.0136 60.0127 90.8796 60.0127 90.716 59.9977C90.5523 59.9977 90.3886 59.9529 90.21 59.9081C90.0315 59.8632 89.853 59.8035 89.6893 59.7138C89.5108 59.6391 89.362 59.5195 89.2281 59.385C89.0942 59.2505 88.9901 59.0862 88.9008 58.877C88.8115 58.6827 88.7817 58.4436 88.7817 58.1597C88.7817 57.8758 88.8264 57.6366 88.9008 57.4424C88.9901 57.2481 89.0942 57.0838 89.2281 56.9344C89.362 56.7999 89.5108 56.6952 89.6893 56.6056C89.8679 56.5308 90.0315 56.4561 90.21 56.4113C90.3886 56.3665 90.5523 56.3366 90.716 56.3216C90.8796 56.3216 91.0136 56.3067 91.1326 56.3067C91.4302 56.3067 91.698 56.3217 91.936 56.3665C92.189 56.4113 92.4122 56.4561 92.6056 56.5159V56.0676C92.6056 56.0676 92.6056 55.9331 92.5907 55.8434C92.5907 55.7538 92.5311 55.6641 92.4419 55.5894C92.3526 55.4998 92.2336 55.44 92.0402 55.3653C91.8617 55.3055 91.6087 55.2756 91.2665 55.2756C90.8499 55.2756 90.4927 55.2756 90.21 55.3055C89.9273 55.3354 89.7191 55.3503 89.5703 55.3802L89.481 54.4687C89.6298 54.4238 89.7935 54.3939 89.972 54.3491C90.1357 54.3192 90.3142 54.2893 90.5374 54.2744C90.7606 54.2445 90.9987 54.2446 91.2665 54.2446H91.3112ZM91.1474 58.9666C91.5045 58.9666 91.817 58.9368 92.0551 58.8919C92.2932 58.8471 92.4865 58.7873 92.6353 58.7424V57.5919C92.5014 57.5321 92.308 57.4872 92.0551 57.4424C91.8022 57.3975 91.5045 57.3677 91.1474 57.3677C90.8201 57.3677 90.5523 57.3976 90.3738 57.4573C90.1952 57.5171 90.0613 57.5919 89.972 57.6815C89.8828 57.7712 89.8382 57.8459 89.8233 57.9505C89.8233 58.0402 89.8084 58.1148 89.8084 58.1746C89.8084 58.2344 89.8084 58.3091 89.8233 58.3988C89.8233 58.4884 89.8828 58.5781 89.972 58.6528C90.0613 58.7424 90.1804 58.8022 90.3738 58.862C90.5523 58.9218 90.8052 58.9517 91.1474 58.9517V58.9666Z" fill="#76777A"/>
<path d="M98.6764 56.0078C98.602 55.7986 98.4979 55.6492 98.364 55.5446C98.2301 55.44 98.0813 55.3653 97.9177 55.3354C97.754 55.3055 97.5754 55.2755 97.4117 55.2755C97.2183 55.2755 97.01 55.2756 96.7571 55.3204C96.5041 55.3503 96.2214 55.4101 95.9239 55.5147V59.8632H94.8823V54.8572C95.046 54.7974 95.2394 54.7227 95.4328 54.6629C95.6411 54.5882 95.8494 54.5284 96.0726 54.4686C96.2958 54.4089 96.519 54.3641 96.7571 54.3192C96.9951 54.2744 97.2183 54.2594 97.4266 54.2594C97.6647 54.2594 97.9177 54.2744 98.2004 54.3192C98.4831 54.3641 98.7359 54.4686 98.9889 54.6479C99.2269 54.8123 99.4352 55.0813 99.5989 55.425C99.7625 55.7687 99.837 56.232 99.837 56.8297V59.8632H98.7955V56.8297C98.7955 56.501 98.7508 56.2319 98.6764 56.0227V56.0078Z" fill="#76777A"/>
<path d="M63.1158 54.0353V59.9827H61.9552V54.0353H59.7234V53.049H65.3625V54.0353H63.1307H63.1158Z" fill="#76777A"/>
<path d="M104.881 53.0639V59.9677H103.854V53.0639H104.881Z" fill="#76777A"/>
<path d="M183.337 54.364C183.471 54.364 183.59 54.3641 183.709 54.394C183.828 54.4089 183.932 54.4238 184.036 54.4537C184.14 54.4836 184.244 54.5135 184.334 54.5434L184.244 55.4101H183.337C182.965 55.4101 182.667 55.44 182.414 55.4848C182.161 55.5296 181.983 55.5895 181.834 55.6343V59.9828H180.792V54.9768C180.986 54.8871 181.194 54.8124 181.388 54.7526C181.581 54.6779 181.775 54.6181 181.983 54.5583C182.191 54.4985 182.399 54.4538 182.608 54.4239C182.831 54.394 183.069 54.379 183.322 54.379L183.337 54.364Z" fill="#76777A"/>
<path d="M125.28 54.349C125.413 54.349 125.533 54.349 125.652 54.3789C125.771 54.3938 125.875 54.4087 125.979 54.4386C126.083 54.4685 126.187 54.4984 126.277 54.5283L126.187 55.395H125.28C124.908 55.395 124.61 55.4249 124.357 55.4697C124.104 55.5146 123.926 55.5744 123.777 55.6192V59.9677H122.735V54.9617C122.929 54.872 123.137 54.7973 123.33 54.7375C123.524 54.6628 123.717 54.603 123.926 54.5432C124.134 54.4835 124.342 54.4387 124.551 54.4088C124.774 54.3789 125.012 54.3639 125.265 54.3639L125.28 54.349Z" fill="#76777A"/>
<path d="M187.637 54.3342C187.711 54.3342 187.83 54.3342 187.964 54.3342C188.113 54.3342 188.276 54.3641 188.455 54.4238C188.633 54.4836 188.827 54.5583 189.02 54.6778C189.214 54.7974 189.377 54.9618 189.541 55.171C189.69 55.3802 189.824 55.6492 189.928 55.9779C190.032 56.3067 190.077 56.7101 190.077 57.1883C190.077 57.6665 190.032 58.07 189.928 58.3987C189.824 58.7275 189.705 58.9964 189.541 59.2056C189.392 59.4148 189.214 59.5792 189.02 59.6988C188.827 59.8183 188.648 59.893 188.455 59.9528C188.276 60.0126 188.113 60.0425 187.964 60.0425C187.815 60.0425 187.711 60.0425 187.637 60.0425C187.339 60.0425 187.071 60.0275 186.833 59.9827C186.58 59.9379 186.357 59.8931 186.164 59.8333V61.7759H185.122V54.8572L185.464 54.7376C185.687 54.6479 185.985 54.5583 186.357 54.4537C186.714 54.3491 187.146 54.3043 187.651 54.3043L187.637 54.3342ZM187.637 59.0413C187.756 59.0413 187.904 59.0264 188.068 58.9965C188.232 58.9666 188.38 58.8918 188.529 58.7574C188.678 58.6378 188.797 58.4435 188.901 58.2045C189.005 57.9654 189.05 57.6217 189.05 57.2033C189.05 56.7849 189.005 56.4412 188.901 56.2021C188.797 55.963 188.678 55.7687 188.529 55.6491C188.38 55.5296 188.232 55.4399 188.068 55.4101C187.904 55.3802 187.77 55.3653 187.637 55.3653C187.279 55.3653 186.967 55.3951 186.729 55.44C186.476 55.4848 186.297 55.5445 186.149 55.5894V58.8172C186.283 58.877 186.476 58.9218 186.729 58.9666C186.982 59.0114 187.279 59.0413 187.637 59.0413Z" fill="#76777A"/>
<path d="M193.454 54.3342C193.454 54.3342 193.633 54.3342 193.781 54.3342C193.93 54.3342 194.094 54.379 194.287 54.4238C194.466 54.4836 194.659 54.5583 194.853 54.6778C195.046 54.7974 195.21 54.9618 195.373 55.171C195.522 55.3802 195.656 55.6491 195.76 55.9779C195.864 56.3067 195.909 56.7101 195.909 57.1883C195.909 57.6665 195.864 58.07 195.76 58.3987C195.656 58.7275 195.537 58.9964 195.373 59.2056C195.225 59.4148 195.046 59.5792 194.853 59.6988C194.659 59.8183 194.481 59.893 194.287 59.9528C194.109 59.9976 193.945 60.0275 193.781 60.0425C193.633 60.0425 193.528 60.0425 193.454 60.0425C193.38 60.0425 193.261 60.0425 193.127 60.0425C192.978 60.0425 192.814 60.0126 192.636 59.9528C192.457 59.893 192.264 59.8183 192.07 59.6988C191.877 59.5792 191.713 59.4148 191.55 59.2056C191.401 58.9964 191.267 58.7275 191.163 58.3987C191.059 58.07 191.014 57.6665 191.014 57.1883C191.014 56.7101 191.059 56.3067 191.163 55.9779C191.267 55.6491 191.386 55.3802 191.55 55.171C191.698 54.9618 191.877 54.7974 192.07 54.6778C192.264 54.5583 192.442 54.4836 192.636 54.4238C192.814 54.3641 192.978 54.3342 193.127 54.3342C193.276 54.3342 193.38 54.3342 193.454 54.3342ZM193.454 59.0562C193.573 59.0562 193.722 59.0562 193.886 59.0114C194.049 58.9815 194.198 58.9068 194.347 58.7723C194.496 58.6528 194.615 58.4585 194.719 58.2194C194.823 57.9803 194.868 57.6366 194.868 57.2182C194.868 56.7998 194.823 56.456 194.719 56.217C194.615 55.9629 194.496 55.7836 194.347 55.6641C194.198 55.5445 194.049 55.4549 193.886 55.425C193.722 55.3951 193.588 55.3801 193.454 55.3801C193.335 55.3801 193.201 55.3951 193.038 55.425C192.874 55.4549 192.725 55.5296 192.576 55.6641C192.427 55.7836 192.308 55.9779 192.204 56.217C192.1 56.471 192.055 56.7998 192.055 57.2182C192.055 57.6366 192.1 57.9803 192.204 58.2194C192.308 58.4585 192.427 58.6528 192.576 58.7723C192.725 58.8918 192.874 58.9815 193.038 59.0114C193.201 59.0412 193.335 59.0562 193.454 59.0562Z" fill="#76777A"/>
<path d="M149.428 54.3192C149.428 54.3192 149.607 54.3192 149.755 54.3192C149.904 54.3192 150.068 54.364 150.261 54.4089C150.44 54.4686 150.633 54.5433 150.827 54.6629C151.02 54.7824 151.184 54.9468 151.347 55.156C151.496 55.3652 151.63 55.6342 151.734 55.9629C151.838 56.2917 151.883 56.6952 151.883 57.1734C151.883 57.6515 151.838 58.055 151.734 58.3838C151.63 58.7125 151.511 58.9816 151.347 59.1908C151.184 59.4 151.02 59.5643 150.827 59.6838C150.633 59.8034 150.455 59.8782 150.261 59.9379C150.083 59.9828 149.919 60.0126 149.755 60.0276C149.607 60.0276 149.502 60.0276 149.428 60.0276C149.354 60.0276 149.235 60.0276 149.101 60.0276C148.952 60.0276 148.788 59.9977 148.61 59.9379C148.431 59.8782 148.238 59.8034 148.044 59.6838C147.851 59.5643 147.687 59.4 147.524 59.1908C147.375 58.9816 147.241 58.7125 147.137 58.3838C147.033 58.055 146.988 57.6515 146.988 57.1734C146.988 56.6952 147.033 56.2917 147.137 55.9629C147.241 55.6342 147.36 55.3652 147.524 55.156C147.672 54.9468 147.851 54.7824 148.044 54.6629C148.238 54.5433 148.416 54.4686 148.61 54.4089C148.788 54.3491 148.952 54.3192 149.101 54.3192C149.249 54.3192 149.354 54.3192 149.428 54.3192ZM149.428 59.0413C149.547 59.0413 149.696 59.0413 149.86 58.9965C150.023 58.9666 150.172 58.8918 150.321 58.7573C150.47 58.6378 150.589 58.4435 150.693 58.2045C150.797 57.9654 150.841 57.6217 150.841 57.2033C150.841 56.7849 150.797 56.4412 150.693 56.2021C150.589 55.9481 150.47 55.7687 150.321 55.6491C150.172 55.5296 150.023 55.4399 149.86 55.4101C149.696 55.3802 149.562 55.3653 149.428 55.3653C149.309 55.3653 149.175 55.3802 149.011 55.4101C148.848 55.4399 148.699 55.5146 148.55 55.6491C148.401 55.7687 148.282 55.963 148.178 56.2021C148.074 56.4561 148.029 56.7849 148.029 57.2033C148.029 57.6217 148.074 57.9654 148.178 58.2045C148.282 58.4435 148.401 58.6378 148.55 58.7573C148.699 58.8769 148.848 58.9666 149.011 58.9965C149.175 59.0264 149.309 59.0413 149.428 59.0413Z" fill="#76777A"/>
<path d="M199.525 54.364C199.659 54.364 199.778 54.3641 199.897 54.394C200.016 54.4089 200.12 54.4238 200.224 54.4537C200.328 54.4836 200.432 54.5135 200.522 54.5434L200.432 55.4101H199.525C199.153 55.4101 198.855 55.44 198.602 55.4848C198.364 55.5296 198.171 55.5895 198.022 55.6343V59.9828H196.98V54.9768C197.189 54.8871 197.382 54.8124 197.576 54.7526C197.769 54.6779 197.962 54.6181 198.171 54.5583C198.379 54.4985 198.587 54.4538 198.796 54.4239C199.019 54.394 199.257 54.379 199.525 54.379V54.364Z" fill="#76777A"/>
<path d="M173.308 52.9145H174.618L177.326 59.9528H176.016L175.362 58.0849H172.564L171.91 59.9528H170.645L173.338 52.9145H173.308ZM172.877 57.1584H175.019L173.963 54.1249H173.933L172.877 57.1584Z" fill="#76777A"/>
<path d="M179.35 54.9918V59.9679H178.323V54.9918H179.35Z" fill="#76777A"/>
<path d="M179.439 53.5122C179.439 53.8559 179.171 54.125 178.829 54.125C178.486 54.125 178.218 53.8559 178.218 53.5122C178.218 53.1685 178.486 52.8996 178.829 52.8996C179.171 52.8996 179.439 53.1685 179.439 53.5122Z" fill="#76777A"/>
<path d="M145.753 54.9918V59.9679H144.726V54.9918H145.753Z" fill="#76777A"/>
<path d="M145.843 53.5122C145.843 53.8559 145.575 54.125 145.232 54.125C144.89 54.125 144.622 53.8559 144.622 53.5122C144.622 53.1685 144.89 52.8996 145.232 52.8996C145.575 52.8996 145.843 53.1685 145.843 53.5122Z" fill="#76777A"/>
<path d="M110.177 56.0078C110.103 55.8136 109.999 55.6492 109.865 55.5446C109.731 55.44 109.582 55.3653 109.419 55.3354C109.255 55.3055 109.076 55.2905 108.913 55.2905C108.719 55.2905 108.511 55.2905 108.258 55.3354C108.005 55.3653 107.722 55.425 107.425 55.5296V59.8632H106.383V54.8572C106.547 54.7974 106.741 54.7227 106.934 54.6629C107.142 54.5882 107.351 54.5284 107.574 54.4686C107.797 54.4089 108.02 54.3641 108.258 54.3192C108.496 54.2744 108.719 54.2594 108.928 54.2594C109.166 54.2594 109.419 54.2894 109.701 54.3342C109.984 54.379 110.237 54.4836 110.49 54.6629C110.728 54.8273 110.936 55.0963 111.1 55.44C111.264 55.7837 111.338 56.2469 111.338 56.8447V59.8781H110.296V56.8447C110.296 56.5159 110.252 56.2469 110.177 56.0377V56.0078Z" fill="#76777A"/>
<path d="M131.246 56.0078C131.171 55.8136 131.067 55.6492 130.933 55.5446C130.8 55.44 130.651 55.3653 130.487 55.3354C130.323 55.3055 130.145 55.2905 129.981 55.2905C129.788 55.2905 129.579 55.2905 129.327 55.3354C129.074 55.3653 128.791 55.425 128.493 55.5296V59.8632H127.452V54.8572C127.615 54.7974 127.809 54.7227 128.002 54.6629C128.211 54.5882 128.419 54.5284 128.642 54.4686C128.865 54.4089 129.088 54.3641 129.327 54.3192C129.565 54.2744 129.788 54.2594 129.996 54.2594C130.234 54.2594 130.487 54.2894 130.77 54.3342C131.052 54.379 131.305 54.4836 131.558 54.6629C131.796 54.8273 132.005 55.0963 132.168 55.44C132.332 55.7837 132.406 56.2469 132.406 56.8447V59.8781H131.365V56.8447C131.365 56.5159 131.32 56.2469 131.246 56.0377V56.0078Z" fill="#76777A"/>
<path d="M205 59.9079C204.911 59.9378 204.807 59.9677 204.703 59.9976C204.613 60.0125 204.494 60.0424 204.375 60.0573C204.256 60.0723 204.122 60.0873 203.988 60.0873C203.721 60.0873 203.453 60.0723 203.2 60.0424C202.932 60.0125 202.694 59.9378 202.486 59.8183C202.277 59.6987 202.099 59.5343 201.965 59.3102C201.831 59.086 201.757 58.7722 201.757 58.3837V55.41H201.087V54.9467L202.262 53.303H202.783V54.4835H204.554V55.41H202.783V58.3837C202.783 58.4883 202.783 58.5929 202.783 58.6975C202.783 58.8021 202.828 58.8918 202.902 58.9665C202.977 59.0412 203.096 59.116 203.259 59.1608C203.423 59.2056 203.676 59.2355 203.988 59.2355H204.896L205 59.9079Z" fill="#76777A"/>
<path d="M116.084 59.923C115.995 59.9529 115.891 59.9828 115.787 60.0127C115.697 60.0276 115.578 60.0574 115.459 60.0724C115.34 60.0873 115.206 60.1023 115.073 60.1023C114.805 60.1023 114.552 60.0873 114.284 60.0574C114.016 60.0275 113.778 59.9529 113.57 59.8333C113.361 59.7138 113.183 59.5494 113.049 59.3252C112.915 59.1011 112.841 58.7873 112.841 58.3987V55.425H112.171V54.9618L113.347 53.318H113.867V54.4985H115.638V55.425H113.867V58.3987C113.867 58.5033 113.867 58.608 113.867 58.7126C113.867 58.8172 113.912 58.9068 113.986 58.9816C114.061 59.0563 114.18 59.131 114.343 59.1758C114.507 59.2207 114.76 59.2505 115.073 59.2505H115.98L116.084 59.923Z" fill="#76777A"/>
<path d="M143.372 59.8931C143.283 59.923 143.179 59.9529 143.075 59.9828C142.985 59.9977 142.866 60.0276 142.747 60.0425C142.628 60.0575 142.495 60.0724 142.361 60.0724C142.093 60.0724 141.825 60.0575 141.572 60.0276C141.304 59.9978 141.066 59.923 140.858 59.8035C140.65 59.6839 140.471 59.5195 140.337 59.2953C140.203 59.0712 140.129 58.7574 140.129 58.3689V55.3952H139.459V54.9319L140.635 53.2882H141.155V54.4687H142.926V55.3952H141.155V58.3689C141.155 58.4735 141.155 58.5781 141.155 58.6827C141.155 58.7873 141.2 58.877 141.274 58.9517C141.349 59.0264 141.468 59.1011 141.631 59.146C141.795 59.1908 142.048 59.2206 142.361 59.2206H143.268L143.372 59.8931Z" fill="#76777A"/>
<path d="M135.992 54.349C136.111 54.349 136.245 54.349 136.409 54.3639C136.573 54.3639 136.736 54.4088 136.915 54.4536C137.093 54.4984 137.257 54.5582 137.436 54.6479C137.599 54.7226 137.763 54.8422 137.897 54.9767C138.031 55.1111 138.15 55.2755 138.224 55.4847C138.313 55.6789 138.343 55.9181 138.343 56.202V59.5493L138.001 59.6688C137.778 59.7585 137.48 59.8481 137.108 59.9527C136.751 60.0573 136.32 60.1172 135.814 60.1172C135.695 60.1172 135.561 60.1172 135.397 60.1022C135.234 60.1022 135.07 60.0574 134.891 60.0126C134.713 59.9677 134.534 59.908 134.371 59.8183C134.192 59.7436 134.043 59.624 133.909 59.4895C133.775 59.355 133.671 59.1907 133.582 58.9964C133.493 58.8022 133.463 58.563 133.463 58.2791C133.463 57.9952 133.508 57.7561 133.582 57.5618C133.656 57.3676 133.775 57.2032 133.909 57.0687C134.043 56.9342 134.192 56.8296 134.371 56.74C134.549 56.6652 134.713 56.5905 134.891 56.5457C135.07 56.5009 135.234 56.471 135.397 56.456C135.561 56.456 135.695 56.4411 135.814 56.4411C136.111 56.4411 136.379 56.456 136.617 56.5008C136.87 56.5456 137.093 56.5905 137.287 56.6503V56.202C137.287 56.202 137.287 56.0675 137.272 55.9778C137.272 55.8882 137.212 55.7985 137.123 55.7238C137.034 55.6342 136.915 55.5744 136.721 55.4996C136.543 55.4399 136.29 55.41 135.948 55.41C135.531 55.41 135.174 55.41 134.906 55.4399C134.623 55.4698 134.415 55.4847 134.266 55.5146L134.177 54.6031C134.326 54.5582 134.49 54.5283 134.668 54.4835C134.832 54.4536 135.01 54.4237 135.233 54.4088C135.457 54.3789 135.695 54.3789 135.963 54.3789L135.992 54.349ZM135.844 59.0562C136.201 59.0562 136.513 59.0263 136.751 58.9815C137.004 58.9366 137.183 58.8768 137.331 58.832V57.6814C137.198 57.6216 137.004 57.5767 136.751 57.5319C136.498 57.4871 136.201 57.4572 135.844 57.4572C135.516 57.4572 135.248 57.4871 135.07 57.5469C134.891 57.6066 134.757 57.6814 134.668 57.7711C134.579 57.8607 134.534 57.9354 134.519 58.0251C134.519 58.1147 134.504 58.1895 134.504 58.2493C134.504 58.309 134.504 58.3837 134.519 58.4734C134.519 58.563 134.579 58.6527 134.668 58.7275C134.757 58.8171 134.876 58.8768 135.07 58.9366C135.248 58.9964 135.501 59.0262 135.844 59.0262V59.0562Z" fill="#76777A"/>
<path d="M156.897 56.0078C156.822 55.8136 156.718 55.6492 156.584 55.5446C156.451 55.44 156.302 55.3653 156.138 55.3354C155.974 55.3055 155.796 55.2905 155.632 55.2905C155.439 55.2905 155.23 55.2905 154.978 55.3354C154.725 55.3653 154.442 55.425 154.144 55.5296V59.8632H153.103V54.8572C153.266 54.7974 153.46 54.7227 153.653 54.6629C153.862 54.5882 154.07 54.5284 154.293 54.4686C154.516 54.4089 154.739 54.3641 154.978 54.3192C155.216 54.2744 155.439 54.2594 155.647 54.2594C155.885 54.2594 156.138 54.2894 156.421 54.3342C156.703 54.379 156.956 54.4836 157.209 54.6629C157.447 54.8273 157.656 55.0963 157.819 55.44C157.983 55.7837 158.057 56.2469 158.057 56.8447V59.8781H157.016V56.8447C157.016 56.5159 156.971 56.2469 156.897 56.0377V56.0078Z" fill="#76777A"/>
<path d="M161.643 54.3342C161.762 54.3342 161.896 54.3341 162.06 54.349C162.224 54.349 162.387 54.3939 162.566 54.4387C162.744 54.4835 162.908 54.5433 163.087 54.633C163.25 54.7077 163.414 54.8273 163.548 54.9618C163.682 55.0963 163.801 55.2606 163.875 55.4698C163.964 55.6641 163.994 55.9032 163.994 56.1871V59.5344L163.652 59.654C163.429 59.7437 163.131 59.8333 162.759 59.9379C162.402 60.0425 161.971 60.1023 161.465 60.1023C161.346 60.1023 161.212 60.1023 161.048 60.0873C160.885 60.0873 160.721 60.0425 160.542 59.9977C160.364 59.9528 160.185 59.8931 160.022 59.8034C159.843 59.7287 159.694 59.6092 159.56 59.4747C159.426 59.3402 159.322 59.1758 159.233 58.9666C159.144 58.7574 159.114 58.5332 159.114 58.2493C159.114 57.9654 159.159 57.7262 159.233 57.532C159.307 57.3377 159.426 57.1734 159.56 57.0389C159.694 56.9044 159.843 56.7998 160.022 56.7101C160.2 56.6354 160.364 56.5607 160.542 56.5158C160.721 56.471 160.885 56.4411 161.048 56.4262C161.212 56.4262 161.346 56.4112 161.465 56.4112C161.762 56.4112 162.03 56.4262 162.268 56.4711C162.521 56.5159 162.744 56.5607 162.938 56.6205V56.1722C162.938 56.1722 162.938 56.0376 162.923 55.948C162.923 55.8583 162.863 55.7687 162.774 55.694C162.685 55.6043 162.566 55.5445 162.372 55.4698C162.194 55.41 161.941 55.3801 161.599 55.3801C161.182 55.3801 160.825 55.3802 160.557 55.41C160.274 55.4399 160.066 55.4549 159.917 55.4847L159.828 54.5732C159.977 54.5284 160.141 54.4985 160.319 54.4536C160.483 54.4238 160.661 54.3939 160.884 54.379C161.108 54.3491 161.346 54.349 161.614 54.349L161.643 54.3342ZM161.495 59.0413C161.852 59.0413 162.164 59.0114 162.402 58.9666C162.64 58.9217 162.834 58.862 162.982 58.8172V57.6665C162.849 57.6067 162.655 57.5618 162.402 57.517C162.149 57.4722 161.852 57.4423 161.495 57.4423C161.167 57.4423 160.899 57.4722 160.721 57.532C160.542 57.5918 160.408 57.6665 160.319 57.7562C160.23 57.8458 160.185 57.9205 160.17 58.0102C160.17 58.0998 160.155 58.1746 160.155 58.2344C160.155 58.2941 160.155 58.3688 160.17 58.4585C160.17 58.5481 160.23 58.6378 160.319 58.7126C160.408 58.8022 160.527 58.8619 160.721 58.9217C160.899 58.9815 161.152 59.0114 161.495 59.0114V59.0413Z" fill="#76777A"/>
<path d="M117.781 57.6366C117.781 57.9504 117.9 58.2642 118.153 58.5631C118.465 58.9367 118.867 59.1309 119.373 59.1309C119.953 59.1309 120.593 59.0114 121.292 58.7574V59.8034C120.593 60.0126 119.938 60.1023 119.373 60.1023C118.465 60.1023 117.781 59.8184 117.29 59.2505C116.828 58.7275 116.59 58.0401 116.59 57.1883C116.59 56.3366 116.814 55.709 117.26 55.171C117.751 54.5733 118.45 54.2744 119.373 54.2744C119.998 54.2744 120.533 54.4835 120.965 54.9019C121.411 55.3204 121.634 55.8285 121.634 56.4112C121.634 56.7848 121.5 57.0837 121.218 57.2929C120.935 57.5021 120.608 57.6217 120.221 57.6217H117.796L117.781 57.6366ZM119.373 55.2607C118.822 55.2607 118.406 55.4698 118.093 55.8733C117.885 56.1572 117.781 56.4263 117.781 56.6653H120.102C120.34 56.6653 120.459 56.5457 120.459 56.3216C120.459 56.0974 120.34 55.8584 120.117 55.6193C119.894 55.3802 119.641 55.2607 119.373 55.2607Z" fill="#76777A"/>
<path d="M166.584 60.0723C166.212 60.0723 165.899 59.9678 165.646 59.7436C165.393 59.5195 165.259 59.2355 165.259 58.8919V53.0639H166.257V58.8022C166.257 59.1011 166.405 59.2355 166.718 59.2355C167.031 59.2355 167.269 59.1757 167.477 59.0412V59.8781C167.209 59.9976 166.911 60.0723 166.569 60.0723H166.584Z" fill="#76777A"/>
<g style="mix-blend-mode:multiply">
<path d="M53.1023 26.674H19.9077V33.3387H33.1946V59.9977H39.8304V33.3387H53.1023V26.674Z" fill="#70D44B"/>
</g>
<g style="mix-blend-mode:multiply">
<path d="M33.1947 53.3329V19.9943H26.5587V33.3387H0.00012207V40.0035H26.5587V53.3329H33.1947Z" fill="#F4C55C"/>
</g>
<g style="mix-blend-mode:multiply">
<path d="M6.63599 33.3386H39.8306V26.674H26.5587V0H19.9227V26.674H6.63599V33.3386Z" fill="#00ACD8"/>
</g>
<g style="mix-blend-mode:multiply">
<path d="M26.5585 6.66486V40.0035H33.1944V26.674H59.7382V19.9943H33.1944V6.66486H26.5585Z" fill="#FF671D"/>
</g>
</svg>
